0
SECTION
2
HEADER
9
$INSUNITS
70
4
9
$ACADVER
1
AC1014
9
$HANDSEED
5
FFFF
0
ENDSEC
0
SECTION
2
TABLES
0
TABLE
2
VPORT
5
8
100
AcDbSymbolTable
0
ENDTAB
0
TABLE
2
LTYPE
5
5
100
AcDbSymbolTable
0
LTYPE
5
14
100
AcDbSymbolTableRecord
100
AcDbLinetypeTableRecord
2
BYBLOCK
70
0
0
LTYPE
5
15
100
AcDbSymbolTableRecord
100
AcDbLinetypeTableRecord
2
BYLAYER
70
0
0
LTYPE
5
16
100
AcDbSymbolTableRecord
100
AcDbLinetypeTableRecord
2
DASHED
70
0
3
Dashed __ __ __ __ __ __ __ __ __ __ __ __ __ _
72
65
73
2
40
0.75
49
0.5
74
0
49
-0.25
74
0
0
ENDTAB
0
TABLE
2
LAYER
5
2
100
AcDbSymbolTable
70
2
0
LAYER
5
50
100
AcDbSymbolTableRecord
100
AcDbLayerTableRecord
2
0
70
0
62
7
6
CONTINUOUS
0
ENDTAB
0
TABLE
2
STYLE
5
3
100
AcDbSymbolTable
70
1
0
STYLE
5
11
100
AcDbSymbolTableRecord
100
AcDbTextStyleTableRecord
2
STANDARD
70
0
0
ENDTAB
0
TABLE
2
VIEW
5
6
100
AcDbSymbolTable
70
0
0
ENDTAB
0
TABLE
2
UCS
5
7
100
AcDbSymbolTable
70
0
0
ENDTAB
0
TABLE
2
APPID
5
9
100
AcDbSymbolTable
70
2
0
APPID
5
12
100
AcDbSymbolTableRecord
100
AcDbRegAppTableRecord
2
ACAD
70
0
0
ENDTAB
0
TABLE
2
DIMSTYLE
5
A
100
AcDbSymbolTable
70
1
0
ENDTAB
0
TABLE
2
BLOCK_RECORD
5
1
100
AcDbSymbolTable
70
1
0
BLOCK_RECORD
5
1F
100
AcDbSymbolTableRecord
100
AcDbBlockTableRecord
2
*MODEL_SPACE
0
BLOCK_RECORD
5
1B
100
AcDbSymbolTableRecord
100
AcDbBlockTableRecord
2
*PAPER_SPACE
0
ENDTAB
0
ENDSEC
0
SECTION
2
BLOCKS
0
BLOCK
5
20
100
AcDbEntity
100
AcDbBlockBegin
2
*MODEL_SPACE
0
ENDBLK
5
21
100
AcDbEntity
100
AcDbBlockEnd
0
BLOCK
5
1C
100
AcDbEntity
100
AcDbBlockBegin
2
*PAPER_SPACE
0
ENDBLK
5
1D
100
AcDbEntity
100
AcDbBlockEnd
0
ENDSEC
0
SECTION
2
ENTITIES
0
LINE
5
100
100
AcDbEntity
8
0
100
AcDbLine
10
-2
20
-4.7826453908328403e-09
30
0
11
-1.9999999778043274
21
1.2376076828213889
31
0
0
SPLINE
5
101
100
AcDbEntity
8
0
100
AcDbSpline
70
4
71
3
72
31
73
27
74
0
42
0.000000001
43
0.0000000001
44
0.0000000001
40
-9.5251866039172111
40
-9.5251866039172111
40
-9.5251866039172111
40
-9.5251866039172111
40
-9.3305881888444446
40
-9.3305881888444446
40
-9.1613164562062899
40
-9.1613164562062899
40
-8.907408857249056
40
-8.907408857249056
40
-8.653501258291822
40
-8.653501258291822
40
-8.4842295256536655
40
-8.4842295256536655
40
-6.8224790407279272
40
-6.8224790407279272
40
-5.1607235558021891
40
-5.1607235558021891
40
-5.1607235558021891
40
-2.5803617779010946
40
-2.5803617779010946
40
-0.40253643689295859
40
-0.40253643689295859
40
-0.3220291495143669
40
-0.3220291495143669
40
-0.2012682184464793
40
-0.2012682184464793
40
-0.123760769304525
40
-0.123760769304525
40
-0.123760769304525
40
-0.123760769304525
41
1
41
1
41
1
41
1
41
1
41
1
41
1
41
1
41
1
41
1
41
1
41
1
41
1
41
1
41
1
41
1
41
1
41
1
41
1
41
1
41
1
41
1
41
1
41
1
41
1
41
1
41
1
10
-2.4999999999999281
20
95.251866039172114
30
-1.0339757656912846e-24
10
-2.6766869803894133
20
94.603196005339441
30
1.0339757656912846e-24
10
-2.8449346730351714
20
93.954543272020331
30
-1.0339757656912846e-24
10
-3.1348838147403391
20
92.74164277965059
30
1.0339757656912846e-24
10
-3.2570681367929395
20
92.177403670856748
30
1.0339757656912846e-24
10
-3.5365451321027512
20
90.766805898872121
30
-1.0339757656912846e-24
10
-3.6859081530483424
20
89.920447235681337
30
-1.0339757656912846e-24
10
-3.906295339073889
20
88.227729909299782
30
0
10
-3.9694841402435701
20
87.381371246108998
30
0
10
-4.0021461638107745
20
85.970773474124371
30
0
10
-4
20
85.406534365330501
30
0
10
-4
20
79.303126973450858
30
0
10
-4
20
73.763958690365058
30
0
10
-4
20
62.685605457526812
30
0
10
-4
20
57.146420507774351
30
0
10
-4
20
51.607235558021891
30
0
10
-4
20
43.00602963168491
30
0
10
-4
20
34.40482370534793
30
0
10
-4
20
18.544199975650493
30
0
10
-4
20
11.28478217229004
30
0
10
-4
20
3.7570067443342814
30
0
10
-4.0099205408256102
20
3.4886491197389748
30
0
10
-3.8549695286971404
20
2.8177550582507105
30
0
10
-3.5537788654281988
20
2.4152186213577518
30
0
10
-2.760970767439094
20
1.7543240206582789
30
0
10
-2.3904759347418398
20
1.4965937761803745
30
0
10
-1.9999999710232745
20
1.23760769304525
30
0
0
LINE
5
102
100
AcDbEntity
8
0
100
AcDbLine
10
-2.4999999999999281
20
95.251866039172114
30
-1.0339757656912846e-24
11
-2.5
21
103.21447111604378
31
-1.0339757656912846e-24
0
LINE
5
103
100
AcDbEntity
8
0
100
AcDbLine
10
-2.5
20
103.21447111604378
30
-1.0339757656912846e-24
11
-12.5
21
103.21447111604378
31
-1.0339757656912846e-24
0
LINE
5
104
100
AcDbEntity
8
0
100
AcDbLine
10
-12.5
20
103.21447111604378
30
-1.0339757656912846e-24
11
-12.5
21
91
31
-1.0339757656912846e-24
0
LINE
5
105
100
AcDbEntity
8
0
100
AcDbLine
10
-12.5
20
91
30
-1.0339757656912846e-24
11
-9.9499999999999993
21
91
31
0
0
LINE
5
106
100
AcDbEntity
8
0
100
AcDbLine
10
-9.9499999999999993
20
91
30
0
11
-9.9499999999999993
21
72
31
0
0
LINE
5
107
100
AcDbEntity
8
0
100
AcDbLine
10
-9.9499999999999993
20
72
30
0
11
-12.5
21
72
31
0
0
LINE
5
108
100
AcDbEntity
8
0
100
AcDbLine
10
-12.5
20
72
30
0
11
-12.5
21
0
31
0
0
LINE
5
109
100
AcDbEntity
8
0
100
AcDbLine
10
-12.5
20
-4.7826448460951523e-09
30
0
11
-2
21
-4.7826453908328403e-09
31
0
0
LWPOLYLINE
5
110
100
AcDbEntity
8
0
100
AcDbPolyline
90
4
70
1
43
0.0
10
-4.0550000000000006
20
61
10
-10.555000000000001
20
61
10
-10.555000000000001
20
54.499999999999993
10
-4.0550000000000006
20
54.499999999999993
0
LINE
5
111
100
AcDbEntity
8
0
100
AcDbLine
10
-3.0550000000000006
20
85.159454499065262
30
-1.0339757656912846e-24
11
-3.0550000000000006
21
-4.8405455009347342
31
-1.0339757656912846e-24
0
ENDSEC
0
SECTION
2
OBJECTS
0
DICTIONARY
5
C
100
AcDbDictionary
3
ACAD_GROUP
350
D
3
ACAD_MLINESTYLE
350
17
0
DICTIONARY
5
D
100
AcDbDictionary
0
DICTIONARY
5
1A
330
C
100
AcDbDictionary
0
DICTIONARY
5
17
100
AcDbDictionary
0
ENDSEC
0
EOF
