0
SECTION
2
HEADER
9
$INSUNITS
70
4
9
$ACADVER
1
AC1014
9
$HANDSEED
5
FFFF
0
ENDSEC
0
SECTION
2
TABLES
0
TABLE
2
VPORT
5
8
100
AcDbSymbolTable
0
ENDTAB
0
TABLE
2
LTYPE
5
5
100
AcDbSymbolTable
0
LTYPE
5
14
100
AcDbSymbolTableRecord
100
AcDbLinetypeTableRecord
2
BYBLOCK
70
0
0
LTYPE
5
15
100
AcDbSymbolTableRecord
100
AcDbLinetypeTableRecord
2
BYLAYER
70
0
0
LTYPE
5
16
100
AcDbSymbolTableRecord
100
AcDbLinetypeTableRecord
2
DASHED
70
0
3
Dashed __ __ __ __ __ __ __ __ __ __ __ __ __ _
72
65
73
2
40
0.75
49
0.5
74
0
49
-0.25
74
0
0
ENDTAB
0
TABLE
2
LAYER
5
2
100
AcDbSymbolTable
70
2
0
LAYER
5
50
100
AcDbSymbolTableRecord
100
AcDbLayerTableRecord
2
0
70
0
62
7
6
CONTINUOUS
0
ENDTAB
0
TABLE
2
STYLE
5
3
100
AcDbSymbolTable
70
1
0
STYLE
5
11
100
AcDbSymbolTableRecord
100
AcDbTextStyleTableRecord
2
STANDARD
70
0
0
ENDTAB
0
TABLE
2
VIEW
5
6
100
AcDbSymbolTable
70
0
0
ENDTAB
0
TABLE
2
UCS
5
7
100
AcDbSymbolTable
70
0
0
ENDTAB
0
TABLE
2
APPID
5
9
100
AcDbSymbolTable
70
2
0
APPID
5
12
100
AcDbSymbolTableRecord
100
AcDbRegAppTableRecord
2
ACAD
70
0
0
ENDTAB
0
TABLE
2
DIMSTYLE
5
A
100
AcDbSymbolTable
70
1
0
ENDTAB
0
TABLE
2
BLOCK_RECORD
5
1
100
AcDbSymbolTable
70
1
0
BLOCK_RECORD
5
1F
100
AcDbSymbolTableRecord
100
AcDbBlockTableRecord
2
*MODEL_SPACE
0
BLOCK_RECORD
5
1B
100
AcDbSymbolTableRecord
100
AcDbBlockTableRecord
2
*PAPER_SPACE
0
ENDTAB
0
ENDSEC
0
SECTION
2
BLOCKS
0
BLOCK
5
20
100
AcDbEntity
100
AcDbBlockBegin
2
*MODEL_SPACE
0
ENDBLK
5
21
100
AcDbEntity
100
AcDbBlockEnd
0
BLOCK
5
1C
100
AcDbEntity
100
AcDbBlockBegin
2
*PAPER_SPACE
0
ENDBLK
5
1D
100
AcDbEntity
100
AcDbBlockEnd
0
ENDSEC
0
SECTION
2
ENTITIES
0
LWPOLYLINE
5
100
100
AcDbEntity
8
0
100
AcDbPolyline
90
12
70
1
43
0.0
10
91
20
3.0550000094810086
10
91
20
-1.27675647831893e-14
10
103.21447111604378
20
1.0753595791612724e-08
42
1.4470087981119761
10
89.985697942181702
20
35.000000009377437
42
-0.46056618647185349
10
59.588329635039699
20
35.000000009112718
10
-0.014302057818937897
20
35.000000008595109
42
0.15279264178797916
10
-9.9889310004880283
20
31.87903952634581
10
-7.5438446536684918
20
29.827368474532939
42
-0.13794563870859392
10
-0.014302057792414669
20
31.945000008595102
10
58.241017293988655
20
31.945000009106561
42
0.359057204901571
10
87.391316742824202
20
28.695477947418063
42
0.45886700369460659
10
96.981477683931757
20
3.0550000101041981
0
CIRCLE
5
101
100
AcDbEntity
8
0
100
AcDbCircle
10
103.21445449906527
20
20.000000010753595
30
0
40
15
210
0
220
-0
230
1
0
CIRCLE
5
102
100
AcDbEntity
8
0
100
AcDbCircle
10
94.000001400709152
20
35.000000521540642
30
0
40
1.5000000000000002
210
0
220
0
230
1
0
CIRCLE
5
103
100
AcDbEntity
8
0
100
AcDbCircle
10
116.0000017285347
20
32.000000476837158
30
0
40
1.5000000000000002
210
0
220
0
230
1
0
CIRCLE
5
104
100
AcDbEntity
8
0
100
AcDbCircle
10
120.00000178813934
20
15.000000223517418
30
0
40
1.5000000000000002
210
0
220
0
230
1
0
CIRCLE
5
105
100
AcDbEntity
8
0
100
AcDbCircle
10
105.00000156462194
20
2.500000037252903
30
0
40
1.5000000000000002
210
0
220
0
230
1
0
LWPOLYLINE
5
106
100
AcDbEntity
8
0
100
AcDbPolyline
90
4
70
1
43
0.0
10
2.4856979421810621
20
34.350000008616554
10
7.4856979421810621
20
34.350000008616554
10
7.4856979421810621
20
32.62500000861656
10
2.4856979421810621
20
32.62500000861656
0
LWPOLYLINE
5
107
100
AcDbEntity
8
0
100
AcDbPolyline
90
4
70
1
43
0.0
10
41.485697942181062
20
34.350000008955249
10
49.485697942181062
20
34.350000008955249
10
49.485697942181062
20
32.625000008955247
10
41.485697942181062
20
32.625000008955247
0
LWPOLYLINE
5
108
100
AcDbEntity
8
0
100
AcDbPolyline
90
4
70
1
43
0.0
10
2.4857079421810622
20
2.3750058528451308
10
7.4857079421810626
20
2.3750058528451308
10
7.4857079421810626
20
0.65000585284513079
10
2.4857079421810622
20
0.65000585284513079
0
LWPOLYLINE
5
109
100
AcDbEntity
8
0
100
AcDbPolyline
90
4
70
1
43
0.0
10
41.485707942181058
20
2.3750058528451308
10
49.485707942181058
20
2.3750058528451308
10
49.485707942181058
20
0.65000585284513079
10
41.485707942181058
20
0.65000585284513079
0
LINE
5
110
100
AcDbEntity
8
0
100
AcDbLine
10
-4.7826453908328403e-09
20
5.8528451307715557e-06
30
0
11
72
21
-3.5527136788005009e-14
31
0
0
ENDSEC
0
SECTION
2
OBJECTS
0
DICTIONARY
5
C
100
AcDbDictionary
3
ACAD_GROUP
350
D
3
ACAD_MLINESTYLE
350
17
0
DICTIONARY
5
D
100
AcDbDictionary
0
DICTIONARY
5
1A
330
C
100
AcDbDictionary
0
DICTIONARY
5
17
100
AcDbDictionary
0
ENDSEC
0
EOF
