0
SECTION
2
HEADER
9
$INSUNITS
70
4
9
$ACADVER
1
AC1014
9
$HANDSEED
5
FFFF
0
ENDSEC
0
SECTION
2
TABLES
0
TABLE
2
VPORT
5
8
100
AcDbSymbolTable
0
ENDTAB
0
TABLE
2
LTYPE
5
5
100
AcDbSymbolTable
0
LTYPE
5
14
100
AcDbSymbolTableRecord
100
AcDbLinetypeTableRecord
2
BYBLOCK
70
0
0
LTYPE
5
15
100
AcDbSymbolTableRecord
100
AcDbLinetypeTableRecord
2
BYLAYER
70
0
0
LTYPE
5
16
100
AcDbSymbolTableRecord
100
AcDbLinetypeTableRecord
2
DASHED
70
0
3
Dashed __ __ __ __ __ __ __ __ __ __ __ __ __ _
72
65
73
2
40
0.75
49
0.5
74
0
49
-0.25
74
0
0
ENDTAB
0
TABLE
2
LAYER
5
2
100
AcDbSymbolTable
70
2
0
LAYER
5
50
100
AcDbSymbolTableRecord
100
AcDbLayerTableRecord
2
0
70
0
62
7
6
CONTINUOUS
0
ENDTAB
0
TABLE
2
STYLE
5
3
100
AcDbSymbolTable
70
1
0
STYLE
5
11
100
AcDbSymbolTableRecord
100
AcDbTextStyleTableRecord
2
STANDARD
70
0
0
ENDTAB
0
TABLE
2
VIEW
5
6
100
AcDbSymbolTable
70
0
0
ENDTAB
0
TABLE
2
UCS
5
7
100
AcDbSymbolTable
70
0
0
ENDTAB
0
TABLE
2
APPID
5
9
100
AcDbSymbolTable
70
2
0
APPID
5
12
100
AcDbSymbolTableRecord
100
AcDbRegAppTableRecord
2
ACAD
70
0
0
ENDTAB
0
TABLE
2
DIMSTYLE
5
A
100
AcDbSymbolTable
70
1
0
ENDTAB
0
TABLE
2
BLOCK_RECORD
5
1
100
AcDbSymbolTable
70
1
0
BLOCK_RECORD
5
1F
100
AcDbSymbolTableRecord
100
AcDbBlockTableRecord
2
*MODEL_SPACE
0
BLOCK_RECORD
5
1B
100
AcDbSymbolTableRecord
100
AcDbBlockTableRecord
2
*PAPER_SPACE
0
ENDTAB
0
ENDSEC
0
SECTION
2
BLOCKS
0
BLOCK
5
20
100
AcDbEntity
100
AcDbBlockBegin
2
*MODEL_SPACE
0
ENDBLK
5
21
100
AcDbEntity
100
AcDbBlockEnd
0
BLOCK
5
1C
100
AcDbEntity
100
AcDbBlockBegin
2
*PAPER_SPACE
0
ENDBLK
5
1D
100
AcDbEntity
100
AcDbBlockEnd
0
ENDSEC
0
SECTION
2
ENTITIES
0
SPLINE
5
100
100
AcDbEntity
8
0
100
AcDbSpline
70
4
71
3
72
8
73
4
74
0
42
0.000000001
43
0.0000000001
44
0.0000000001
40
0
40
0
40
0
40
0
40
1
40
1
40
1
40
1
41
1
41
1
41
1
41
1
10
-176.45996871239436
20
20.072041039070463
30
0
10
-167.50763522558577
20
20.990758880319461
30
0
10
-158.02690065599404
20
27.132358407014689
30
0
10
-152.17638259474739
20
35.801876750206688
30
0
0
SPLINE
5
101
100
AcDbEntity
8
0
100
AcDbSpline
70
4
71
3
72
8
73
4
74
0
42
0.000000001
43
0.0000000001
44
0.0000000001
40
0
40
0
40
0
40
0
40
1
40
1
40
1
40
1
41
1
41
1
41
1
41
1
10
-152.17638259474739
20
35.801876750206688
30
0
10
-142.32600574609714
20
50.399652225520214
30
0
10
-143.46717139614159
20
74.057253339043569
30
0
10
-154.9515576489836
20
93.314770676636712
30
0
0
SPLINE
5
102
100
AcDbEntity
8
0
100
AcDbSpline
70
4
71
3
72
8
73
4
74
0
42
0.000000001
43
0.0000000001
44
0.0000000001
40
0
40
0
40
0
40
0
40
1
40
1
40
1
40
1
41
1
41
1
41
1
41
1
10
-154.9515576489836
20
93.314770676636712
30
0
10
-158.96959887448665
20
100.05424088067531
30
0
10
-163.16130067983889
20
104.66519235952603
30
0
10
-172.00117055056114
20
112.07282615544464
30
0
0
SPLINE
5
103
100
AcDbEntity
8
0
100
AcDbSpline
70
4
71
3
72
8
73
4
74
0
42
0.000000001
43
0.0000000001
44
0.0000000001
40
0
40
0
40
0
40
0
40
1
40
1
40
1
40
1
41
1
41
1
41
1
41
1
10
-172.00117055056114
20
112.07282615544464
30
0
10
-177.30839837083079
20
116.52004105692029
30
0
10
-178.59179333541852
20
118.47159330442273
30
0
10
-177.72020977419766
20
120.77210704261103
30
0
0
SPLINE
5
104
100
AcDbEntity
8
0
100
AcDbSpline
70
4
71
3
72
8
73
4
74
0
42
0.000000001
43
0.0000000001
44
0.0000000001
40
0
40
0
40
0
40
0
40
1
40
1
40
1
40
1
41
1
41
1
41
1
41
1
10
-177.72020977419766
20
120.77210704261103
30
0
10
-176.91147612565774
20
122.9047644490596
30
0
10
-174.85159894332966
20
123.65230113383659
30
0
10
-168.14188812878274
20
124.24769081056144
30
0
0
SPLINE
5
105
100
AcDbEntity
8
0
100
AcDbSpline
70
4
71
3
72
8
73
4
74
0
42
0.000000001
43
0.0000000001
44
0.0000000001
40
0
40
0
40
0
40
0
40
1
40
1
40
1
40
1
41
1
41
1
41
1
41
1
10
-168.14188812878274
20
124.24769081056144
30
0
10
-156.96429424231826
20
125.23918256696558
30
0
10
-151.25353238120309
20
126.91949977672637
30
0
10
-143.77561671143721
20
131.41634099953797
30
0
0
SPLINE
5
106
100
AcDbEntity
8
0
100
AcDbSpline
70
4
71
3
72
8
73
4
74
0
42
0.000000001
43
0.0000000001
44
0.0000000001
40
0
40
0
40
0
40
0
40
1
40
1
40
1
40
1
41
1
41
1
41
1
41
1
10
-143.77561671143721
20
131.41634099953797
30
0
10
-125.25571205614693
20
142.55175314376348
30
0
10
-110.12209407343597
20
163.29857114762785
30
0
10
-96.620006071539564
20
196.0598294360355
30
0
0
SPLINE
5
107
100
AcDbEntity
8
0
100
AcDbSpline
70
4
71
3
72
8
73
4
74
0
42
0.000000001
43
0.0000000001
44
0.0000000001
40
0
40
0
40
0
40
0
40
1
40
1
40
1
40
1
41
1
41
1
41
1
41
1
10
-96.620006071539564
20
196.0598294360355
30
0
10
-89.432340661039177
20
213.50058557053796
30
0
10
-89.257033441237198
20
223.50395482859543
30
0
10
-96.083327626235075
20
226.62974432243561
30
0
0
SPLINE
5
108
100
AcDbEntity
8
0
100
AcDbSpline
70
4
71
3
72
8
73
4
74
0
42
0.000000001
43
0.0000000001
44
0.0000000001
40
0
40
0
40
0
40
0
40
1
40
1
40
1
40
1
41
1
41
1
41
1
41
1
10
-96.083327626235075
20
226.62974432243561
30
0
10
-100.52393704100353
20
228.66231630278781
30
0
10
-104.2980358128101
20
226.90759115584979
30
0
10
-109.70946250457538
20
220.29380185027719
30
0
0
SPLINE
5
109
100
AcDbEntity
8
0
100
AcDbSpline
70
4
71
3
72
8
73
4
74
0
42
0.000000001
43
0.0000000001
44
0.0000000001
40
0
40
0
40
0
40
0
40
1
40
1
40
1
40
1
41
1
41
1
41
1
41
1
10
-109.70946250457538
20
220.29380185027719
30
0
10
-116.02885025169113
20
212.5702907778967
30
0
10
-118.1722455171422
20
212.52812165358833
30
0
10
-122.39868448563657
20
220.03992908514124
30
0
0
SPLINE
5
110
100
AcDbEntity
8
0
100
AcDbSpline
70
4
71
3
72
8
73
4
74
0
42
0.000000001
43
0.0000000001
44
0.0000000001
40
0
40
0
40
0
40
0
40
1
40
1
40
1
40
1
41
1
41
1
41
1
41
1
10
-122.39868448563657
20
220.03992908514124
30
0
10
-127.06503498910604
20
228.33402298254396
30
0
10
-134.02777316743379
20
229.5165502093337
30
0
10
-140.36370302166154
20
223.09049047631044
30
0
0
SPLINE
5
111
100
AcDbEntity
8
0
100
AcDbSpline
70
4
71
3
72
8
73
4
74
0
42
0.000000001
43
0.0000000001
44
0.0000000001
40
0
40
0
40
0
40
0
40
1
40
1
40
1
40
1
41
1
41
1
41
1
41
1
10
-140.36370302166154
20
223.09049047631044
30
0
10
-142.47072079298306
20
220.95369438860121
30
0
10
-143.32741519601009
20
219.82163888450253
30
0
10
-149.81963073955063
20
210.59145856427972
30
0
0
SPLINE
5
112
100
AcDbEntity
8
0
100
AcDbSpline
70
4
71
3
72
8
73
4
74
0
42
0.000000001
43
0.0000000001
44
0.0000000001
40
0
40
0
40
0
40
0
40
1
40
1
40
1
40
1
41
1
41
1
41
1
41
1
10
-149.81963073955063
20
210.59145856427972
30
0
10
-155.2980334073269
20
202.80261184687566
30
0
10
-160.815311919506
20
200.03818726957269
30
0
10
-163.19520505955663
20
203.89002511225414
30
0
0
SPLINE
5
113
100
AcDbEntity
8
0
100
AcDbSpline
70
4
71
3
72
8
73
4
74
0
42
0.000000001
43
0.0000000001
44
0.0000000001
40
0
40
0
40
0
40
0
40
1
40
1
40
1
40
1
41
1
41
1
41
1
41
1
10
-163.19520505955663
20
203.89002511225414
30
0
10
-164.58279889564005
20
206.13430073343395
30
0
10
-163.92290635731604
20
210.26894425628399
30
0
10
-160.68382046396516
20
219.63226898096568
30
0
0
SPLINE
5
114
100
AcDbEntity
8
0
100
AcDbSpline
70
4
71
3
72
8
73
4
74
0
42
0.000000001
43
0.0000000001
44
0.0000000001
40
0
40
0
40
0
40
0
40
1
40
1
40
1
40
1
41
1
41
1
41
1
41
1
10
-160.68382046396516
20
219.63226898096568
30
0
10
-156.73772667915819
20
231.0372632140147
30
0
10
-154.87961020828754
20
239.46944774470009
30
0
10
-152.88588883647674
20
255.02480744221739
30
0
0
SPLINE
5
115
100
AcDbEntity
8
0
100
AcDbSpline
70
4
71
3
72
8
73
4
74
0
42
0.000000001
43
0.0000000001
44
0.0000000001
40
0
40
0
40
0
40
0
40
1
40
1
40
1
40
1
41
1
41
1
41
1
41
1
10
-152.88588883647674
20
255.02480744221739
30
0
10
-152.05400128515234
20
261.51123135557913
30
0
10
-152.84370709423769
20
282.39201392939617
30
0
10
-154.00637369814851
20
284.63962068427361
30
0
0
SPLINE
5
116
100
AcDbEntity
8
0
100
AcDbSpline
70
4
71
3
72
8
73
4
74
0
42
0.000000001
43
0.0000000001
44
0.0000000001
40
0
40
0
40
0
40
0
40
1
40
1
40
1
40
1
41
1
41
1
41
1
41
1
10
-154.00637369814851
20
284.63962068427361
30
0
10
-155.2575172319367
20
287.05920983422072
30
0
10
-158.88442784244552
20
286.64324713166252
30
0
10
-160.11241747344923
20
283.93755902164122
30
0
0
SPLINE
5
117
100
AcDbEntity
8
0
100
AcDbSpline
70
4
71
3
72
8
73
4
74
0
42
0.000000001
43
0.0000000001
44
0.0000000001
40
0
40
0
40
0
40
0
40
1
40
1
40
1
40
1
41
1
41
1
41
1
41
1
10
-160.11241747344923
20
283.93755902164122
30
0
10
-160.63420676055986
20
282.78894879249987
30
0
10
-160.67306998703197
20
279.44317829531082
30
0
10
-160.21578356152048
20
275.05963347200986
30
0
0
SPLINE
5
118
100
AcDbEntity
8
0
100
AcDbSpline
70
4
71
3
72
8
73
4
74
0
42
0.000000001
43
0.0000000001
44
0.0000000001
40
0
40
0
40
0
40
0
40
1
40
1
40
1
40
1
41
1
41
1
41
1
41
1
10
-160.21578356152048
20
275.05963347200986
30
0
10
-159.06304726904912
20
264.01351842315552
30
0
10
-159.29128039905802
20
259.27770621133254
30
0
10
-161.65960289668169
20
245.10166298737732
30
0
0
SPLINE
5
119
100
AcDbEntity
8
0
100
AcDbSpline
70
4
71
3
72
8
73
4
74
0
42
0.000000001
43
0.0000000001
44
0.0000000001
40
0
40
0
40
0
40
0
40
1
40
1
40
1
40
1
41
1
41
1
41
1
41
1
10
-161.65960289668169
20
245.10166298737732
30
0
10
-163.32833684608491
20
235.10987698967745
30
0
10
-164.07009451861376
20
232.14120596857447
30
0
10
-167.13056098536106
20
223.19385656438163
30
0
0
SPLINE
5
120
100
AcDbEntity
8
0
100
AcDbSpline
70
4
71
3
72
8
73
4
74
0
42
0.000000001
43
0.0000000001
44
0.0000000001
40
0
40
0
40
0
40
0
40
1
40
1
40
1
40
1
41
1
41
1
41
1
41
1
10
-167.13056098536106
20
223.19385656438163
30
0
10
-171.42893477662085
20
210.62618310949117
30
0
10
-172.05409015180271
20
205.60094080389638
30
0
10
-169.88588803464899
20
201.04042950291003
30
0
0
SPLINE
5
121
100
AcDbEntity
8
0
100
AcDbSpline
70
4
71
3
72
8
73
4
74
0
42
0.000000001
43
0.0000000001
44
0.0000000001
40
0
40
0
40
0
40
0
40
1
40
1
40
1
40
1
41
1
41
1
41
1
41
1
10
-169.88588803464899
20
201.04042950291003
30
0
10
-167.05283453241688
20
195.0807537234133
30
0
10
-160.00739843645985
20
193.3880330878012
30
0
10
-153.6210220954024
20
197.13318632664451
30
0
0
SPLINE
5
122
100
AcDbEntity
8
0
100
AcDbSpline
70
4
71
3
72
8
73
4
74
0
42
0.000000001
43
0.0000000001
44
0.0000000001
40
0
40
0
40
0
40
0
40
1
40
1
40
1
40
1
41
1
41
1
41
1
41
1
10
-153.6210220954024
20
197.13318632664451
30
0
10
-149.21183763697445
20
199.71899147734388
30
0
10
-146.35976891321846
20
202.84726670352657
30
0
10
-140.14456741966771
20
211.91453692083337
30
0
0
SPLINE
5
123
100
AcDbEntity
8
0
100
AcDbSpline
70
4
71
3
72
8
73
4
74
0
42
0.000000001
43
0.0000000001
44
0.0000000001
40
0
40
0
40
0
40
0
40
1
40
1
40
1
40
1
41
1
41
1
41
1
41
1
10
-140.14456741966771
20
211.91453692083337
30
0
10
-136.12155472947958
20
217.78242987261643
30
0
10
-135.19953729935966
20
218.88306672933993
30
0
10
-133.75157928293777
20
219.54459959865142
30
0
0
SPLINE
5
124
100
AcDbEntity
8
0
100
AcDbSpline
70
4
71
3
72
8
73
4
74
0
42
0.000000001
43
0.0000000001
44
0.0000000001
40
0
40
0
40
0
40
0
40
1
40
1
40
1
40
1
41
1
41
1
41
1
41
1
10
-133.75157928293777
20
219.54459959865142
30
0
10
-131.49490023590664
20
220.57662014837643
30
0
10
-130.12798718819587
20
219.70255085481301
30
0
10
-128.19875606005351
20
215.99378772802996
30
0
0
SPLINE
5
125
100
AcDbEntity
8
0
100
AcDbSpline
70
4
71
3
72
8
73
4
74
0
42
0.000000001
43
0.0000000001
44
0.0000000001
40
0
40
0
40
0
40
0
40
1
40
1
40
1
40
1
41
1
41
1
41
1
41
1
10
-128.19875606005351
20
215.99378772802996
30
0
10
-122.88987529086576
20
205.78947792400879
30
0
10
-115.62944227417557
20
204.28280867616652
30
0
10
-107.87202682207737
20
211.77478072070187
30
0
0
SPLINE
5
126
100
AcDbEntity
8
0
100
AcDbSpline
70
4
71
3
72
8
73
4
74
0
42
0.000000001
43
0.0000000001
44
0.0000000001
40
0
40
0
40
0
40
0
40
1
40
1
40
1
40
1
41
1
41
1
41
1
41
1
10
-107.87202682207737
20
211.77478072070187
30
0
10
-106.76558571724439
20
212.84319138248716
30
0
10
-106.05691225893949
20
213.67673188272971
30
0
10
-103.18912790253059
20
217.28379448829028
30
0
0
SPLINE
5
127
100
AcDbEntity
8
0
100
AcDbSpline
70
4
71
3
72
8
73
4
74
0
42
0.000000001
43
0.0000000001
44
0.0000000001
40
0
40
0
40
0
40
0
40
1
40
1
40
1
40
1
41
1
41
1
41
1
41
1
10
-103.18912790253059
20
217.28379448829028
30
0
10
-100.97626461976063
20
220.06723428711712
30
0
10
-98.788208188693304
20
220.66426429482942
30
0
10
-97.800028639090769
20
218.75489378956604
30
0
0
SPLINE
5
128
100
AcDbEntity
8
0
100
AcDbSpline
70
4
71
3
72
8
73
4
74
0
42
0.000000001
43
0.0000000001
44
0.0000000001
40
0
40
0
40
0
40
0
40
1
40
1
40
1
40
1
41
1
41
1
41
1
41
1
10
-97.800028639090769
20
218.75489378956604
30
0
10
-96.346291610420721
20
215.94334124120027
30
0
10
-99.662277482256741
20
205.79608971968131
30
0
10
-107.58177656281188
20
188.81924442429354
30
0
0
SPLINE
5
129
100
AcDbEntity
8
0
100
AcDbSpline
70
4
71
3
72
8
73
4
74
0
42
0.000000001
43
0.0000000001
44
0.0000000001
40
0
40
0
40
0
40
0
40
1
40
1
40
1
40
1
41
1
41
1
41
1
41
1
10
-107.58177656281188
20
188.81924442429354
30
0
10
-118.35912968833645
20
165.7148543997387
30
0
10
-127.53390467497512
20
153.08848233135851
30
0
10
-142.01094863512901
20
141.4362271288461
30
0
0
SPLINE
5
130
100
AcDbEntity
8
0
100
AcDbSpline
70
4
71
3
72
8
73
4
74
0
42
0.000000001
43
0.0000000001
44
0.0000000001
40
0
40
0
40
0
40
0
40
1
40
1
40
1
40
1
41
1
41
1
41
1
41
1
10
-142.01094863512901
20
141.4362271288461
30
0
10
-150.34721165684007
20
134.72736171565427
30
0
10
-156.88987368721033
20
132.25402018104117
30
0
10
-168.49002945397487
20
131.42625869304678
30
0
0
SPLINE
5
131
100
AcDbEntity
8
0
100
AcDbSpline
70
4
71
3
72
8
73
4
74
0
42
0.000000001
43
0.0000000001
44
0.0000000001
40
0
40
0
40
0
40
0
40
1
40
1
40
1
40
1
41
1
41
1
41
1
41
1
10
-168.49002945397487
20
131.42625869304678
30
0
10
-179.11110950811732
20
130.66797153133658
30
0
10
-183.80971144238634
20
127.92090922663931
30
0
10
-185.02199174970247
20
121.7594601177545
30
0
0
SPLINE
5
132
100
AcDbEntity
8
0
100
AcDbSpline
70
4
71
3
72
8
73
4
74
0
42
0.000000001
43
0.0000000001
44
0.0000000001
40
0
40
0
40
0
40
0
40
1
40
1
40
1
40
1
41
1
41
1
41
1
41
1
10
-185.02199174970247
20
121.7594601177545
30
0
10
-186.01430367160035
20
116.7160227561296
30
0
10
-183.65838459982797
20
112.66986878108764
30
0
10
-175.97043085608331
20
106.21486351510106
30
0
0
SPLINE
5
133
100
AcDbEntity
8
0
100
AcDbSpline
70
4
71
3
72
8
73
4
74
0
42
0.000000001
43
0.0000000001
44
0.0000000001
40
0
40
0
40
0
40
0
40
1
40
1
40
1
40
1
41
1
41
1
41
1
41
1
10
-175.97043085608331
20
106.21486351510106
30
0
10
-163.71452123225538
20
95.925382679038748
30
0
10
-157.57208734489444
20
86.56289704674677
30
0
10
-154.12214321207105
20
72.918573421341677
30
0
0
SPLINE
5
134
100
AcDbEntity
8
0
100
AcDbSpline
70
4
71
3
72
8
73
4
74
0
42
0.000000001
43
0.0000000001
44
0.0000000001
40
0
40
0
40
0
40
0
40
1
40
1
40
1
40
1
41
1
41
1
41
1
41
1
10
-154.12214321207105
20
72.918573421341677
30
0
10
-149.10103958773692
20
53.055748713514895
30
0
10
-155.15580409278354
20
36.289764812082296
30
0
10
-170.02977029811046
20
28.868080950359563
30
0
0
SPLINE
5
135
100
AcDbEntity
8
0
100
AcDbSpline
70
4
71
3
72
8
73
4
74
0
42
0.000000001
43
0.0000000001
44
0.0000000001
40
0
40
0
40
0
40
0
40
1
40
1
40
1
40
1
41
1
41
1
41
1
41
1
10
-170.02977029811046
20
28.868080950359563
30
0
10
-176.97018735707812
20
25.404077288284064
30
0
10
-182.29230433554159
20
25.873771871370892
30
0
10
-192.7297934983954
20
30.871729479127161
30
0
0
SPLINE
5
136
100
AcDbEntity
8
0
100
AcDbSpline
70
4
71
3
72
8
73
4
74
0
42
0.000000001
43
0.0000000001
44
0.0000000001
40
0
40
0
40
0
40
0
40
1
40
1
40
1
40
1
41
1
41
1
41
1
41
1
10
-192.7297934983954
20
30.871729479127161
30
0
10
-199.76943796417362
20
34.243117530064595
30
0
10
-201.52417572904233
20
34.880679485580487
30
0
10
-206.07063065525924
20
35.716705718165549
30
0
0
SPLINE
5
137
100
AcDbEntity
8
0
100
AcDbSpline
70
4
71
3
72
8
73
4
74
0
42
0.000000001
43
0.0000000001
44
0.0000000001
40
0
40
0
40
0
40
0
40
1
40
1
40
1
40
1
41
1
41
1
41
1
41
1
10
-206.07063065525924
20
35.716705718165549
30
0
10
-216.98114080317345
20
37.723660144769411
30
0
10
-219.31306057080627
20
40.091985796875782
30
0
10
-220.19293411247915
20
50.056476056047821
30
0
0
SPLINE
5
138
100
AcDbEntity
8
0
100
AcDbSpline
70
4
71
3
72
8
73
4
74
0
42
0.000000001
43
0.0000000001
44
0.0000000001
40
0
40
0
40
0
40
0
40
1
40
1
40
1
40
1
41
1
41
1
41
1
41
1
10
-220.19293411247915
20
50.056476056047821
30
0
10
-220.7858254389308
20
56.763691674804193
30
0
10
-221.51766541795087
20
59.286653221787908
30
0
10
-224.3060766814628
20
64.24078087011101
30
0
0
SPLINE
5
139
100
AcDbEntity
8
0
100
AcDbSpline
70
4
71
3
72
8
73
4
74
0
42
0.000000001
43
0.0000000001
44
0.0000000001
40
0
40
0
40
0
40
0
40
1
40
1
40
1
40
1
41
1
41
1
41
1
41
1
10
-224.3060766814628
20
64.24078087011101
30
0
10
-227.9470310488104
20
70.709022345373299
30
0
10
-228.59450754335242
20
72.465419368125495
30
0
10
-228.38446946937367
20
75.305917449454569
30
0
0
SPLINE
5
140
100
AcDbEntity
8
0
100
AcDbSpline
70
4
71
3
72
8
73
4
74
0
42
0.000000001
43
0.0000000001
44
0.0000000001
40
0
40
0
40
0
40
0
40
1
40
1
40
1
40
1
41
1
41
1
41
1
41
1
10
-228.38446946937367
20
75.305917449454569
30
0
10
-227.99747753564009
20
80.533759558896506
30
0
10
-223.08965769288605
20
87.296383665719631
30
0
10
-219.66616074275277
20
87.318711094045085
30
0
0
SPLINE
5
141
100
AcDbEntity
8
0
100
AcDbSpline
70
4
71
3
72
8
73
4
74
0
42
0.000000001
43
0.0000000001
44
0.0000000001
40
0
40
0
40
0
40
0
40
1
40
1
40
1
40
1
41
1
41
1
41
1
41
1
10
-219.66616074275277
20
87.318711094045085
30
0
10
-217.45247098552372
20
87.333593943273627
30
0
10
-216.74379752721882
20
85.876544707801997
30
0
10
-216.51309128279809
20
80.831454397258952
30
0
0
SPLINE
5
142
100
AcDbEntity
8
0
100
AcDbSpline
70
4
71
3
72
8
73
4
74
0
42
0.000000001
43
0.0000000001
44
0.0000000001
40
0
40
0
40
0
40
0
40
1
40
1
40
1
40
1
41
1
41
1
41
1
41
1
10
-216.51309128279809
20
80.831454397258952
30
0
10
-215.94498157218771
20
68.433309149922323
30
0
10
-213.35338479130954
20
61.799690766297495
30
0
10
-206.180608539003
20
54.388757381507958
30
0
0
SPLINE
5
143
100
AcDbEntity
8
0
100
AcDbSpline
70
4
71
3
72
8
73
4
74
0
42
0.000000001
43
0.0000000001
44
0.0000000001
40
0
40
0
40
0
40
0
40
1
40
1
40
1
40
1
41
1
41
1
41
1
41
1
10
-206.180608539003
20
54.388757381507958
30
0
10
-192.30061982242279
20
40.044848362365016
30
0
10
-177.91784442232509
20
36.574229750134336
30
0
10
-170.17283239607821
20
45.698561404425973
30
0
0
SPLINE
5
144
100
AcDbEntity
8
0
100
AcDbSpline
70
4
71
3
72
8
73
4
74
0
42
0.000000001
43
0.0000000001
44
0.0000000001
40
0
40
0
40
0
40
0
40
1
40
1
40
1
40
1
41
1
41
1
41
1
41
1
10
-170.17283239607821
20
45.698561404425973
30
0
10
-161.74394114529838
20
55.629976912822045
30
0
10
-165.93068410389628
20
76.757175054747407
30
0
10
-179.04991254435444
20
90.490808393454301
30
0
0
SPLINE
5
145
100
AcDbEntity
8
0
100
AcDbSpline
70
4
71
3
72
8
73
4
74
0
42
0.000000001
43
0.0000000001
44
0.0000000001
40
0
40
0
40
0
40
0
40
1
40
1
40
1
40
1
41
1
41
1
41
1
41
1
10
-179.04991254435444
20
90.490808393454301
30
0
10
-184.85742869786833
20
96.56955958470985
30
0
10
-188.56124559582764
20
99.615136893263269
30
0
10
-198.54475423100621
20
106.52247604697229
30
0
0
SPLINE
5
146
100
AcDbEntity
8
0
100
AcDbSpline
70
4
71
3
72
8
73
4
74
0
42
0.000000001
43
0.0000000001
44
0.0000000001
40
0
40
0
40
0
40
0
40
1
40
1
40
1
40
1
41
1
41
1
41
1
41
1
10
-198.54475423100621
20
106.52247604697229
30
0
10
-217.78904166828895
20
119.83603323772161
30
0
10
-225.59358509144988
20
132.24657560194424
30
0
10
-225.07675465109369
20
148.71568798499081
30
0
0
SPLINE
5
147
100
AcDbEntity
8
0
100
AcDbSpline
70
4
71
3
72
8
73
4
74
0
42
0.000000001
43
0.0000000001
44
0.0000000001
40
0
40
0
40
0
40
0
40
1
40
1
40
1
40
1
41
1
41
1
41
1
41
1
10
-225.07675465109369
20
148.71568798499081
30
0
10
-224.68479125267507
20
161.22133169269401
30
0
10
-219.07821564512489
20
171.11387766565261
30
0
10
-206.07063065525927
20
182.25260832564504
30
0
0
SPLINE
5
148
100
AcDbEntity
8
0
100
AcDbSpline
70
4
71
3
72
8
73
4
74
0
42
0.000000001
43
0.0000000001
44
0.0000000001
40
0
40
0
40
0
40
0
40
1
40
1
40
1
40
1
41
1
41
1
41
1
41
1
10
-206.07063065525927
20
182.25260832564504
30
0
10
-197.19438329040744
20
189.85455825392418
30
0
10
-189.83636319789412
20
197.89395922069718
30
0
10
-184.67880927126475
20
205.62988633685967
30
0
0
SPLINE
5
149
100
AcDbEntity
8
0
100
AcDbSpline
70
4
71
3
72
8
73
4
74
0
42
0.000000001
43
0.0000000001
44
0.0000000001
40
0
40
0
40
0
40
0
40
1
40
1
40
1
40
1
41
1
41
1
41
1
41
1
10
-184.67880927126475
20
205.62988633685967
30
0
10
-177.64991528241973
20
216.17074158778473
30
0
10
-172.69248173626036
20
227.02582116625351
30
0
10
-168.91755018102938
20
240.13761764554545
30
0
0
SPLINE
5
150
100
AcDbEntity
8
0
100
AcDbSpline
70
4
71
3
72
8
73
4
74
0
42
0.000000001
43
0.0000000001
44
0.0000000001
40
0
40
0
40
0
40
0
40
1
40
1
40
1
40
1
41
1
41
1
41
1
41
1
10
-168.91755018102938
20
240.13761764554545
30
0
10
-165.1641195796648
20
253.17663390071687
30
0
10
-164.24210214954485
20
260.92247871038813
30
0
10
-165.21705179883699
20
271.23261509896179
30
0
0
SPLINE
5
151
100
AcDbEntity
8
0
100
AcDbSpline
70
4
71
3
72
8
73
4
74
0
42
0.000000001
43
0.0000000001
44
0.0000000001
40
0
40
0
40
0
40
0
40
1
40
1
40
1
40
1
41
1
41
1
41
1
41
1
10
-165.21705179883699
20
271.23261509896179
30
0
10
-165.41799234480069
20
273.35532957604022
30
0
10
-165.64457252589148
20
276.38189166306978
30
0
10
-165.72147881334192
20
277.95802261926559
30
0
0
SPLINE
5
152
100
AcDbEntity
8
0
100
AcDbSpline
70
4
71
3
72
8
73
4
74
0
42
0.000000001
43
0.0000000001
44
0.0000000001
40
0
40
0
40
0
40
0
40
1
40
1
40
1
40
1
41
1
41
1
41
1
41
1
10
-165.72147881334192
20
277.95802261926559
30
0
10
-165.98278353964415
20
283.31817004077675
30
0
10
-166.87421510581328
20
284.90588425733017
30
0
10
-169.61961184366174
20
284.90341114291829
30
0
0
SPLINE
5
153
100
AcDbEntity
8
0
100
AcDbSpline
70
4
71
3
72
8
73
4
74
0
42
0.000000001
43
0.0000000001
44
0.0000000001
40
0
40
0
40
0
40
0
40
1
40
1
40
1
40
1
41
1
41
1
41
1
41
1
10
-169.61961184366174
20
284.90341114291829
30
0
10
-172.71481547355114
20
284.9009127926451
30
0
10
-173.22502150030419
20
282.86089623319594
30
0
10
-172.21120862453995
20
274.54032991724182
30
0
0
SPLINE
5
154
100
AcDbEntity
8
0
100
AcDbSpline
70
4
71
3
72
8
73
4
74
0
42
0.000000001
43
0.0000000001
44
0.0000000001
40
0
40
0
40
0
40
0
40
1
40
1
40
1
40
1
41
1
41
1
41
1
41
1
10
-172.21120862453995
20
274.54032991724182
30
0
10
-170.73679080749727
20
262.44071860065736
30
0
10
-172.27901738397534
20
251.51780502689181
30
0
10
-177.67638770097119
20
235.84007663771007
30
0
0
SPLINE
5
155
100
AcDbEntity
8
0
100
AcDbSpline
70
4
71
3
72
8
73
4
74
0
42
0.000000001
43
0.0000000001
44
0.0000000001
40
0
40
0
40
0
40
0
40
1
40
1
40
1
40
1
41
1
41
1
41
1
41
1
10
-177.67638770097119
20
235.84007663771007
30
0
10
-184.74827097961833
20
215.29997819205755
30
0
10
-193.95613018048095
20
201.44479632717997
30
0
10
-209.04757903888355
20
188.63815188327808
30
0
0
SPLINE
5
156
100
AcDbEntity
8
0
100
AcDbSpline
70
4
71
3
72
8
73
4
74
0
42
0.000000001
43
0.0000000001
44
0.0000000001
40
0
40
0
40
0
40
0
40
1
40
1
40
1
40
1
41
1
41
1
41
1
41
1
10
-209.04757903888355
20
188.63815188327808
30
0
10
-225.21320495338892
20
174.91857491934064
30
0
10
-232.18834655756797
20
162.4278203698313
30
0
10
-232.19992981792558
20
147.17676730634895
30
0
0
SPLINE
5
157
100
AcDbEntity
8
0
100
AcDbSpline
70
4
71
3
72
8
73
4
74
0
42
0.000000001
43
0.0000000001
44
0.0000000001
40
0
40
0
40
0
40
0
40
1
40
1
40
1
40
1
41
1
41
1
41
1
41
1
10
-232.19992981792558
20
147.17676730634895
30
0
10
-232.2131534092706
20
129.44410796366287
30
0
10
-223.15580088547264
20
115.3044548517679
30
0
10
-202.37425833639688
20
100.61489339425806
30
0
0
SPLINE
5
158
100
AcDbEntity
8
0
100
AcDbSpline
70
4
71
3
72
8
73
4
74
0
42
0.000000001
43
0.0000000001
44
0.0000000001
40
0
40
0
40
0
40
0
40
1
40
1
40
1
40
1
41
1
41
1
41
1
41
1
10
-202.37425833639688
20
100.61489339425806
30
0
10
-182.57262428336762
20
86.6174759058718
30
0
10
-174.5952404458512
20
76.22711471408077
30
0
10
-172.86696248160325
20
62.185036060078261
30
0
0
SPLINE
5
159
100
AcDbEntity
8
0
100
AcDbSpline
70
4
71
3
72
8
73
4
74
0
42
0.000000001
43
0.0000000001
44
0.0000000001
40
0
40
0
40
0
40
0
40
1
40
1
40
1
40
1
41
1
41
1
41
1
41
1
10
-172.86696248160325
20
62.185036060078261
30
0
10
-170.63177177050784
20
44.019067514641591
30
0
10
-184.87976243515914
20
42.242825641423792
30
0
10
-200.80309884488611
20
58.702014021996234
30
0
0
SPLINE
5
160
100
AcDbEntity
8
0
100
AcDbSpline
70
4
71
3
72
8
73
4
74
0
42
0.000000001
43
0.0000000001
44
0.0000000001
40
0
40
0
40
0
40
0
40
1
40
1
40
1
40
1
41
1
41
1
41
1
41
1
10
-200.80309884488611
20
58.702014021996234
30
0
10
-206.95296469341332
20
65.059444830090357
30
0
10
-208.84166702823475
20
69.925089239570738
30
0
10
-209.70747157720754
20
81.645979675977642
30
0
0
SPLINE
5
161
100
AcDbEntity
8
0
100
AcDbSpline
70
4
71
3
72
8
73
4
74
0
42
0.000000001
43
0.0000000001
44
0.0000000001
40
0
40
0
40
0
40
0
40
1
40
1
40
1
40
1
41
1
41
1
41
1
41
1
10
-209.70747157720754
20
81.645979675977642
30
0
10
-210.2069271270274
20
88.401159203703827
30
0
10
-211.77561350412628
20
91.542664330196928
30
0
10
-215.59188140024122
20
93.428887241641149
30
0
0
SPLINE
5
162
100
AcDbEntity
8
0
100
AcDbSpline
70
4
71
3
72
8
73
4
74
0
42
0.000000001
43
0.0000000001
44
0.0000000001
40
0
40
0
40
0
40
0
40
1
40
1
40
1
40
1
41
1
41
1
41
1
41
1
10
-215.59188140024122
20
93.428887241641149
30
0
10
-222.39668094033806
20
96.79200739350523
30
0
10
-231.22416000313964
20
90.489155444536152
30
0
10
-234.82708392743959
20
79.695253902934255
30
0
0
SPLINE
5
163
100
AcDbEntity
8
0
100
AcDbSpline
70
4
71
3
72
8
73
4
74
0
42
0.000000001
43
0.0000000001
44
0.0000000001
40
0
40
0
40
0
40
0
40
1
40
1
40
1
40
1
41
1
41
1
41
1
41
1
10
-234.82708392743959
20
79.695253902934255
30
0
10
-236.85635000995552
20
73.615676237219645
30
0
10
-236.15761948102079
20
69.903588285704345
30
0
10
-231.65332106118157
20
62.84658154732039
30
0
0
SPLINE
5
164
100
AcDbEntity
8
0
100
AcDbSpline
70
4
71
3
72
8
73
4
74
0
42
0.000000001
43
0.0000000001
44
0.0000000001
40
0
40
0
40
0
40
0
40
1
40
1
40
1
40
1
41
1
41
1
41
1
41
1
10
-231.65332106118157
20
62.84658154732039
30
0
10
-228.17029271413421
20
57.38967983341049
30
0
10
-227.76510572437053
20
56.236943540939144
30
0
10
-227.23919037392992
20
50.277264606959776
30
0
0
SPLINE
5
165
100
AcDbEntity
8
0
100
AcDbSpline
70
4
71
3
72
8
73
4
74
0
42
0.000000001
43
0.0000000001
44
0.0000000001
40
0
40
0
40
0
40
0
40
1
40
1
40
1
40
1
41
1
41
1
41
1
41
1
10
-227.23919037392992
20
50.277264606959776
30
0
10
-226.03930087453446
20
36.700749740990098
30
0
10
-221.45480288733921
20
31.651523903669066
30
0
10
-208.02548880059794
20
29.116158930834025
30
0
0
SPLINE
5
166
100
AcDbEntity
8
0
100
AcDbSpline
70
4
71
3
72
8
73
4
74
0
42
0.000000001
43
0.0000000001
44
0.0000000001
40
0
40
0
40
0
40
0
40
1
40
1
40
1
40
1
41
1
41
1
41
1
41
1
10
-208.02548880059794
20
29.116158930834025
30
0
10
-203.31778933831384
20
28.227209942524738
30
0
10
-202.00958752202342
20
27.77405588930857
30
0
10
-196.22190675552713
20
25.026170264634903
30
0
0
SPLINE
5
167
100
AcDbEntity
8
0
100
AcDbSpline
70
4
71
3
72
8
73
4
74
0
42
0.000000001
43
0.0000000001
44
0.0000000001
40
0
40
0
40
0
40
0
40
1
40
1
40
1
40
1
41
1
41
1
41
1
41
1
10
-196.22190675552713
20
25.026170264634903
30
0
10
-186.92144456145709
20
20.610370856051766
30
0
10
-182.3592803115526
20
19.466728937112812
30
0
10
-176.45996871239436
20
20.072041039070463
30
0
0
LWPOLYLINE
5
168
100
AcDbEntity
8
0
100
AcDbPolyline
90
8
70
1
43
0.0
10
-2.0253911823494488e-14
20
165.3857409140011
10
-4.0507823646988976e-14
20
330.77148182800221
10
-165.38574091400113
20
330.77148182800221
10
-330.77148182800227
20
330.77148182800221
10
-330.77148182800227
20
165.38574091400105
10
-330.77148182800221
20
-3.5527136788005009e-14
10
-165.3857409140011
20
-2.0253911823494488e-14
10
0
20
0
0
SPLINE
5
169
100
AcDbEntity
8
0
100
AcDbSpline
70
4
71
3
72
8
73
4
74
0
42
0.000000001
43
0.0000000001
44
0.0000000001
40
0
40
0
40
0
40
0
40
1
40
1
40
1
40
1
41
1
41
1
41
1
41
1
10
-184.79127288735103
20
20.608717907133634
30
0
10
-187.90135305750363
20
21.296721617755217
30
0
10
-190.40033422724377
20
22.261747264573245
30
0
10
-196.22190675552713
20
25.026170264634903
30
0
0
SPLINE
5
170
100
AcDbEntity
8
0
100
AcDbSpline
70
4
71
3
72
8
73
4
74
0
42
0.000000001
43
0.0000000001
44
0.0000000001
40
0
40
0
40
0
40
0
40
1
40
1
40
1
40
1
41
1
41
1
41
1
41
1
10
-196.22190675552713
20
25.026170264634903
30
0
10
-202.00958752202342
20
27.77405588930857
30
0
10
-203.31778933831384
20
28.227209942524738
30
0
10
-208.02548880059794
20
29.116158930834025
30
0
0
SPLINE
5
171
100
AcDbEntity
8
0
100
AcDbSpline
70
4
71
3
72
8
73
4
74
0
42
0.000000001
43
0.0000000001
44
0.0000000001
40
0
40
0
40
0
40
0
40
1
40
1
40
1
40
1
41
1
41
1
41
1
41
1
10
-208.02548880059794
20
29.116158930834025
30
0
10
-221.45480288733921
20
31.651523903669066
30
0
10
-226.03930087453446
20
36.700749740990098
30
0
10
-227.23919037392992
20
50.277264606959776
30
0
0
SPLINE
5
172
100
AcDbEntity
8
0
100
AcDbSpline
70
4
71
3
72
8
73
4
74
0
42
0.000000001
43
0.0000000001
44
0.0000000001
40
0
40
0
40
0
40
0
40
1
40
1
40
1
40
1
41
1
41
1
41
1
41
1
10
-227.23919037392992
20
50.277264606959776
30
0
10
-227.76510572437053
20
56.236943540939144
30
0
10
-228.17029271413421
20
57.38967983341049
30
0
10
-231.65332106118157
20
62.84658154732039
30
0
0
SPLINE
5
173
100
AcDbEntity
8
0
100
AcDbSpline
70
4
71
3
72
8
73
4
74
0
42
0.000000001
43
0.0000000001
44
0.0000000001
40
0
40
0
40
0
40
0
40
1
40
1
40
1
40
1
41
1
41
1
41
1
41
1
10
-231.65332106118157
20
62.84658154732039
30
0
10
-236.15761948102079
20
69.903588285704345
30
0
10
-236.85635000995552
20
73.615676237219645
30
0
10
-234.82708392743959
20
79.695253902934255
30
0
0
SPLINE
5
174
100
AcDbEntity
8
0
100
AcDbSpline
70
4
71
3
72
8
73
4
74
0
42
0.000000001
43
0.0000000001
44
0.0000000001
40
0
40
0
40
0
40
0
40
1
40
1
40
1
40
1
41
1
41
1
41
1
41
1
10
-234.82708392743959
20
79.695253902934255
30
0
10
-231.22416000313964
20
90.489155444536152
30
0
10
-222.39668094033806
20
96.79200739350523
30
0
10
-215.59188140024122
20
93.428887241641149
30
0
0
SPLINE
5
175
100
AcDbEntity
8
0
100
AcDbSpline
70
4
71
3
72
8
73
4
74
0
42
0.000000001
43
0.0000000001
44
0.0000000001
40
0
40
0
40
0
40
0
40
1
40
1
40
1
40
1
41
1
41
1
41
1
41
1
10
-215.59188140024122
20
93.428887241641149
30
0
10
-211.77561350412628
20
91.542664330196928
30
0
10
-210.2069271270274
20
88.401159203703827
30
0
10
-209.70747157720754
20
81.645979675977642
30
0
0
SPLINE
5
176
100
AcDbEntity
8
0
100
AcDbSpline
70
4
71
3
72
8
73
4
74
0
42
0.000000001
43
0.0000000001
44
0.0000000001
40
0
40
0
40
0
40
0
40
1
40
1
40
1
40
1
41
1
41
1
41
1
41
1
10
-209.70747157720754
20
81.645979675977642
30
0
10
-208.84166702823475
20
69.925089239570738
30
0
10
-206.95296469341332
20
65.059444830090357
30
0
10
-200.80309884488611
20
58.702014021996234
30
0
0
SPLINE
5
177
100
AcDbEntity
8
0
100
AcDbSpline
70
4
71
3
72
8
73
4
74
0
42
0.000000001
43
0.0000000001
44
0.0000000001
40
0
40
0
40
0
40
0
40
1
40
1
40
1
40
1
41
1
41
1
41
1
41
1
10
-200.80309884488611
20
58.702014021996234
30
0
10
-184.87976243515914
20
42.242825641423792
30
0
10
-170.63177177050784
20
44.019067514641591
30
0
10
-172.86696248160325
20
62.185036060078261
30
0
0
SPLINE
5
178
100
AcDbEntity
8
0
100
AcDbSpline
70
4
71
3
72
8
73
4
74
0
42
0.000000001
43
0.0000000001
44
0.0000000001
40
0
40
0
40
0
40
0
40
1
40
1
40
1
40
1
41
1
41
1
41
1
41
1
10
-172.86696248160325
20
62.185036060078261
30
0
10
-174.5952404458512
20
76.22711471408077
30
0
10
-182.57262428336762
20
86.6174759058718
30
0
10
-202.37425833639688
20
100.61489339425806
30
0
0
SPLINE
5
179
100
AcDbEntity
8
0
100
AcDbSpline
70
4
71
3
72
8
73
4
74
0
42
0.000000001
43
0.0000000001
44
0.0000000001
40
0
40
0
40
0
40
0
40
1
40
1
40
1
40
1
41
1
41
1
41
1
41
1
10
-202.37425833639688
20
100.61489339425806
30
0
10
-223.15580088547264
20
115.3044548517679
30
0
10
-232.2131534092706
20
129.44410796366287
30
0
10
-232.19992981792558
20
147.17676730634895
30
0
0
SPLINE
5
180
100
AcDbEntity
8
0
100
AcDbSpline
70
4
71
3
72
8
73
4
74
0
42
0.000000001
43
0.0000000001
44
0.0000000001
40
0
40
0
40
0
40
0
40
1
40
1
40
1
40
1
41
1
41
1
41
1
41
1
10
-232.19992981792558
20
147.17676730634895
30
0
10
-232.18834655756797
20
162.4278203698313
30
0
10
-225.21320495338892
20
174.91857491934064
30
0
10
-209.04757903888355
20
188.63815188327808
30
0
0
SPLINE
5
181
100
AcDbEntity
8
0
100
AcDbSpline
70
4
71
3
72
8
73
4
74
0
42
0.000000001
43
0.0000000001
44
0.0000000001
40
0
40
0
40
0
40
0
40
1
40
1
40
1
40
1
41
1
41
1
41
1
41
1
10
-209.04757903888355
20
188.63815188327808
30
0
10
-193.95613018048095
20
201.44479632717997
30
0
10
-184.74827097961833
20
215.29997819205755
30
0
10
-177.67638770097119
20
235.84007663771007
30
0
0
SPLINE
5
182
100
AcDbEntity
8
0
100
AcDbSpline
70
4
71
3
72
8
73
4
74
0
42
0.000000001
43
0.0000000001
44
0.0000000001
40
0
40
0
40
0
40
0
40
1
40
1
40
1
40
1
41
1
41
1
41
1
41
1
10
-177.67638770097119
20
235.84007663771007
30
0
10
-172.27901738397534
20
251.51780502689181
30
0
10
-170.73679080749727
20
262.44071860065736
30
0
10
-172.21120862453995
20
274.54032991724182
30
0
0
SPLINE
5
183
100
AcDbEntity
8
0
100
AcDbSpline
70
4
71
3
72
8
73
4
74
0
42
0.000000001
43
0.0000000001
44
0.0000000001
40
0
40
0
40
0
40
0
40
1
40
1
40
1
40
1
41
1
41
1
41
1
41
1
10
-172.21120862453995
20
274.54032991724182
30
0
10
-173.22502150030419
20
282.86089623319594
30
0
10
-172.71481547355114
20
284.9009127926451
30
0
10
-169.61961184366174
20
284.90341114291829
30
0
0
SPLINE
5
184
100
AcDbEntity
8
0
100
AcDbSpline
70
4
71
3
72
8
73
4
74
0
42
0.000000001
43
0.0000000001
44
0.0000000001
40
0
40
0
40
0
40
0
40
1
40
1
40
1
40
1
41
1
41
1
41
1
41
1
10
-169.61961184366174
20
284.90341114291829
30
0
10
-166.87421510581328
20
284.90588425733017
30
0
10
-165.98278353964415
20
283.31817004077675
30
0
10
-165.72147881334192
20
277.95802261926559
30
0
0
SPLINE
5
185
100
AcDbEntity
8
0
100
AcDbSpline
70
4
71
3
72
8
73
4
74
0
42
0.000000001
43
0.0000000001
44
0.0000000001
40
0
40
0
40
0
40
0
40
1
40
1
40
1
40
1
41
1
41
1
41
1
41
1
10
-165.72147881334192
20
277.95802261926559
30
0
10
-165.64457252589148
20
276.38189166306978
30
0
10
-165.41799234480069
20
273.35532957604022
30
0
10
-165.21705179883699
20
271.23261509896179
30
0
0
SPLINE
5
186
100
AcDbEntity
8
0
100
AcDbSpline
70
4
71
3
72
8
73
4
74
0
42
0.000000001
43
0.0000000001
44
0.0000000001
40
0
40
0
40
0
40
0
40
1
40
1
40
1
40
1
41
1
41
1
41
1
41
1
10
-165.21705179883699
20
271.23261509896179
30
0
10
-164.24210214954485
20
260.92247871038813
30
0
10
-165.1641195796648
20
253.17663390071687
30
0
10
-168.91755018102938
20
240.13761764554545
30
0
0
SPLINE
5
187
100
AcDbEntity
8
0
100
AcDbSpline
70
4
71
3
72
8
73
4
74
0
42
0.000000001
43
0.0000000001
44
0.0000000001
40
0
40
0
40
0
40
0
40
1
40
1
40
1
40
1
41
1
41
1
41
1
41
1
10
-168.91755018102938
20
240.13761764554545
30
0
10
-175.88112114278152
20
215.94995303687278
30
0
10
-187.06036797816421
20
198.53151802173042
30
0
10
-206.07063065525927
20
182.25260832564504
30
0
0
SPLINE
5
188
100
AcDbEntity
8
0
100
AcDbSpline
70
4
71
3
72
8
73
4
74
0
42
0.000000001
43
0.0000000001
44
0.0000000001
40
0
40
0
40
0
40
0
40
1
40
1
40
1
40
1
41
1
41
1
41
1
41
1
10
-206.07063065525927
20
182.25260832564504
30
0
10
-219.07821564512489
20
171.11387766565261
30
0
10
-224.68479125267507
20
161.22133169269401
30
0
10
-225.07675465109369
20
148.71568798499081
30
0
0
SPLINE
5
189
100
AcDbEntity
8
0
100
AcDbSpline
70
4
71
3
72
8
73
4
74
0
42
0.000000001
43
0.0000000001
44
0.0000000001
40
0
40
0
40
0
40
0
40
1
40
1
40
1
40
1
41
1
41
1
41
1
41
1
10
-225.07675465109369
20
148.71568798499081
30
0
10
-225.59358509144988
20
132.24657560194424
30
0
10
-217.78904166828895
20
119.83603323772161
30
0
10
-198.54475423100621
20
106.52247604697229
30
0
0
SPLINE
5
190
100
AcDbEntity
8
0
100
AcDbSpline
70
4
71
3
72
8
73
4
74
0
42
0.000000001
43
0.0000000001
44
0.0000000001
40
0
40
0
40
0
40
0
40
1
40
1
40
1
40
1
41
1
41
1
41
1
41
1
10
-198.54475423100621
20
106.52247604697229
30
0
10
-188.56124559582764
20
99.615136893263269
30
0
10
-184.85742869786833
20
96.56955958470985
30
0
10
-179.04991254435444
20
90.490808393454301
30
0
0
SPLINE
5
191
100
AcDbEntity
8
0
100
AcDbSpline
70
4
71
3
72
8
73
4
74
0
42
0.000000001
43
0.0000000001
44
0.0000000001
40
0
40
0
40
0
40
0
40
1
40
1
40
1
40
1
41
1
41
1
41
1
41
1
10
-179.04991254435444
20
90.490808393454301
30
0
10
-165.93068410389628
20
76.757175054747407
30
0
10
-161.74394114529838
20
55.629976912822045
30
0
10
-170.17283239607821
20
45.698561404425973
30
0
0
SPLINE
5
192
100
AcDbEntity
8
0
100
AcDbSpline
70
4
71
3
72
8
73
4
74
0
42
0.000000001
43
0.0000000001
44
0.0000000001
40
0
40
0
40
0
40
0
40
1
40
1
40
1
40
1
41
1
41
1
41
1
41
1
10
-170.17283239607821
20
45.698561404425973
30
0
10
-177.91784442232509
20
36.574229750134336
30
0
10
-192.30061982242279
20
40.044848362365016
30
0
10
-206.180608539003
20
54.388757381507958
30
0
0
SPLINE
5
193
100
AcDbEntity
8
0
100
AcDbSpline
70
4
71
3
72
8
73
4
74
0
42
0.000000001
43
0.0000000001
44
0.0000000001
40
0
40
0
40
0
40
0
40
1
40
1
40
1
40
1
41
1
41
1
41
1
41
1
10
-206.180608539003
20
54.388757381507958
30
0
10
-213.35338479130954
20
61.799690766297495
30
0
10
-215.94498157218771
20
68.433309149922323
30
0
10
-216.51309128279809
20
80.831454397258952
30
0
0
SPLINE
5
194
100
AcDbEntity
8
0
100
AcDbSpline
70
4
71
3
72
8
73
4
74
0
42
0.000000001
43
0.0000000001
44
0.0000000001
40
0
40
0
40
0
40
0
40
1
40
1
40
1
40
1
41
1
41
1
41
1
41
1
10
-216.51309128279809
20
80.831454397258952
30
0
10
-216.74379752721882
20
85.876544707801997
30
0
10
-217.45247098552372
20
87.333593943273627
30
0
10
-219.66616074275277
20
87.318711094045085
30
0
0
SPLINE
5
195
100
AcDbEntity
8
0
100
AcDbSpline
70
4
71
3
72
8
73
4
74
0
42
0.000000001
43
0.0000000001
44
0.0000000001
40
0
40
0
40
0
40
0
40
1
40
1
40
1
40
1
41
1
41
1
41
1
41
1
10
-219.66616074275277
20
87.318711094045085
30
0
10
-223.08965769288605
20
87.296383665719631
30
0
10
-227.99747753564009
20
80.533759558896506
30
0
10
-228.38446946937367
20
75.305917449454569
30
0
0
SPLINE
5
196
100
AcDbEntity
8
0
100
AcDbSpline
70
4
71
3
72
8
73
4
74
0
42
0.000000001
43
0.0000000001
44
0.0000000001
40
0
40
0
40
0
40
0
40
1
40
1
40
1
40
1
41
1
41
1
41
1
41
1
10
-228.38446946937367
20
75.305917449454569
30
0
10
-228.59450754335242
20
72.465419368125495
30
0
10
-227.9470310488104
20
70.709022345373299
30
0
10
-224.3060766814628
20
64.24078087011101
30
0
0
SPLINE
5
197
100
AcDbEntity
8
0
100
AcDbSpline
70
4
71
3
72
8
73
4
74
0
42
0.000000001
43
0.0000000001
44
0.0000000001
40
0
40
0
40
0
40
0
40
1
40
1
40
1
40
1
41
1
41
1
41
1
41
1
10
-224.3060766814628
20
64.24078087011101
30
0
10
-221.51766541795087
20
59.286653221787908
30
0
10
-220.7858254389308
20
56.763691674804193
30
0
10
-220.19293411247915
20
50.056476056047821
30
0
0
SPLINE
5
198
100
AcDbEntity
8
0
100
AcDbSpline
70
4
71
3
72
8
73
4
74
0
42
0.000000001
43
0.0000000001
44
0.0000000001
40
0
40
0
40
0
40
0
40
1
40
1
40
1
40
1
41
1
41
1
41
1
41
1
10
-220.19293411247915
20
50.056476056047821
30
0
10
-219.31306057080627
20
40.091985796875782
30
0
10
-216.98114080317345
20
37.723660144769411
30
0
10
-206.07063065525924
20
35.716705718165549
30
0
0
SPLINE
5
199
100
AcDbEntity
8
0
100
AcDbSpline
70
4
71
3
72
8
73
4
74
0
42
0.000000001
43
0.0000000001
44
0.0000000001
40
0
40
0
40
0
40
0
40
1
40
1
40
1
40
1
41
1
41
1
41
1
41
1
10
-206.07063065525924
20
35.716705718165549
30
0
10
-201.52417572904233
20
34.880679485580487
30
0
10
-199.76943796417362
20
34.243117530064595
30
0
10
-192.7297934983954
20
30.871729479127161
30
0
0
SPLINE
5
200
100
AcDbEntity
8
0
100
AcDbSpline
70
4
71
3
72
8
73
4
74
0
42
0.000000001
43
0.0000000001
44
0.0000000001
40
0
40
0
40
0
40
0
40
1
40
1
40
1
40
1
41
1
41
1
41
1
41
1
10
-192.7297934983954
20
30.871729479127161
30
0
10
-182.29230433554159
20
25.873771871370892
30
0
10
-176.97018735707812
20
25.404077288284064
30
0
10
-170.02977029811046
20
28.868080950359563
30
0
0
SPLINE
5
201
100
AcDbEntity
8
0
100
AcDbSpline
70
4
71
3
72
8
73
4
74
0
42
0.000000001
43
0.0000000001
44
0.0000000001
40
0
40
0
40
0
40
0
40
1
40
1
40
1
40
1
41
1
41
1
41
1
41
1
10
-170.02977029811046
20
28.868080950359563
30
0
10
-155.15580409278354
20
36.289764812082296
30
0
10
-149.10103958773692
20
53.055748713514895
30
0
10
-154.12214321207105
20
72.918573421341677
30
0
0
SPLINE
5
202
100
AcDbEntity
8
0
100
AcDbSpline
70
4
71
3
72
8
73
4
74
0
42
0.000000001
43
0.0000000001
44
0.0000000001
40
0
40
0
40
0
40
0
40
1
40
1
40
1
40
1
41
1
41
1
41
1
41
1
10
-154.12214321207105
20
72.918573421341677
30
0
10
-157.57208734489444
20
86.56289704674677
30
0
10
-163.71452123225538
20
95.925382679038748
30
0
10
-175.97043085608331
20
106.21486351510106
30
0
0
SPLINE
5
203
100
AcDbEntity
8
0
100
AcDbSpline
70
4
71
3
72
8
73
4
74
0
42
0.000000001
43
0.0000000001
44
0.0000000001
40
0
40
0
40
0
40
0
40
1
40
1
40
1
40
1
41
1
41
1
41
1
41
1
10
-175.97043085608331
20
106.21486351510106
30
0
10
-183.65838459982797
20
112.66986878108764
30
0
10
-186.01430367160035
20
116.7160227561296
30
0
10
-185.02199174970247
20
121.7594601177545
30
0
0
SPLINE
5
204
100
AcDbEntity
8
0
100
AcDbSpline
70
4
71
3
72
8
73
4
74
0
42
0.000000001
43
0.0000000001
44
0.0000000001
40
0
40
0
40
0
40
0
40
1
40
1
40
1
40
1
41
1
41
1
41
1
41
1
10
-185.02199174970247
20
121.7594601177545
30
0
10
-183.80971144238634
20
127.92090922663931
30
0
10
-179.11110950811732
20
130.66797153133658
30
0
10
-168.49002945397487
20
131.42625869304678
30
0
0
SPLINE
5
205
100
AcDbEntity
8
0
100
AcDbSpline
70
4
71
3
72
8
73
4
74
0
42
0.000000001
43
0.0000000001
44
0.0000000001
40
0
40
0
40
0
40
0
40
1
40
1
40
1
40
1
41
1
41
1
41
1
41
1
10
-168.49002945397487
20
131.42625869304678
30
0
10
-156.88987368721033
20
132.25402018104117
30
0
10
-150.34721165684007
20
134.72736171565427
30
0
10
-142.01094863512901
20
141.4362271288461
30
0
0
SPLINE
5
206
100
AcDbEntity
8
0
100
AcDbSpline
70
4
71
3
72
8
73
4
74
0
42
0.000000001
43
0.0000000001
44
0.0000000001
40
0
40
0
40
0
40
0
40
1
40
1
40
1
40
1
41
1
41
1
41
1
41
1
10
-142.01094863512901
20
141.4362271288461
30
0
10
-127.53390467497512
20
153.08848233135851
30
0
10
-118.35912968833645
20
165.7148543997387
30
0
10
-107.58177656281188
20
188.81924442429354
30
0
0
SPLINE
5
207
100
AcDbEntity
8
0
100
AcDbSpline
70
4
71
3
72
8
73
4
74
0
42
0.000000001
43
0.0000000001
44
0.0000000001
40
0
40
0
40
0
40
0
40
1
40
1
40
1
40
1
41
1
41
1
41
1
41
1
10
-107.58177656281188
20
188.81924442429354
30
0
10
-99.662277482256741
20
205.79608971968131
30
0
10
-96.346291610420721
20
215.94334124120027
30
0
10
-97.800028639090769
20
218.75489378956604
30
0
0
SPLINE
5
208
100
AcDbEntity
8
0
100
AcDbSpline
70
4
71
3
72
8
73
4
74
0
42
0.000000001
43
0.0000000001
44
0.0000000001
40
0
40
0
40
0
40
0
40
1
40
1
40
1
40
1
41
1
41
1
41
1
41
1
10
-97.800028639090769
20
218.75489378956604
30
0
10
-98.788208188693304
20
220.66426429482942
30
0
10
-100.97626461976063
20
220.06723428711712
30
0
10
-103.18912790253059
20
217.28379448829028
30
0
0
SPLINE
5
209
100
AcDbEntity
8
0
100
AcDbSpline
70
4
71
3
72
8
73
4
74
0
42
0.000000001
43
0.0000000001
44
0.0000000001
40
0
40
0
40
0
40
0
40
1
40
1
40
1
40
1
41
1
41
1
41
1
41
1
10
-103.18912790253059
20
217.28379448829028
30
0
10
-106.05691225893949
20
213.67673188272971
30
0
10
-106.76558571724439
20
212.84319138248716
30
0
10
-107.87202682207737
20
211.77478072070187
30
0
0
SPLINE
5
210
100
AcDbEntity
8
0
100
AcDbSpline
70
4
71
3
72
8
73
4
74
0
42
0.000000001
43
0.0000000001
44
0.0000000001
40
0
40
0
40
0
40
0
40
1
40
1
40
1
40
1
41
1
41
1
41
1
41
1
10
-107.87202682207737
20
211.77478072070187
30
0
10
-115.62944227417557
20
204.28280867616652
30
0
10
-122.88987529086576
20
205.78947792400879
30
0
10
-128.19875606005351
20
215.99378772802996
30
0
0
SPLINE
5
211
100
AcDbEntity
8
0
100
AcDbSpline
70
4
71
3
72
8
73
4
74
0
42
0.000000001
43
0.0000000001
44
0.0000000001
40
0
40
0
40
0
40
0
40
1
40
1
40
1
40
1
41
1
41
1
41
1
41
1
10
-128.19875606005351
20
215.99378772802996
30
0
10
-130.12798718819587
20
219.70255085481301
30
0
10
-131.49490023590664
20
220.57662014837643
30
0
10
-133.75157928293777
20
219.54459959865142
30
0
0
SPLINE
5
212
100
AcDbEntity
8
0
100
AcDbSpline
70
4
71
3
72
8
73
4
74
0
42
0.000000001
43
0.0000000001
44
0.0000000001
40
0
40
0
40
0
40
0
40
1
40
1
40
1
40
1
41
1
41
1
41
1
41
1
10
-133.75157928293777
20
219.54459959865142
30
0
10
-135.19953729935966
20
218.88306672933993
30
0
10
-136.12155472947958
20
217.78242987261643
30
0
10
-140.14456741966771
20
211.91453692083337
30
0
0
SPLINE
5
213
100
AcDbEntity
8
0
100
AcDbSpline
70
4
71
3
72
8
73
4
74
0
42
0.000000001
43
0.0000000001
44
0.0000000001
40
0
40
0
40
0
40
0
40
1
40
1
40
1
40
1
41
1
41
1
41
1
41
1
10
-140.14456741966771
20
211.91453692083337
30
0
10
-146.35976891321846
20
202.84726670352657
30
0
10
-149.21183763697445
20
199.71899147734388
30
0
10
-153.6210220954024
20
197.13318632664451
30
0
0
SPLINE
5
214
100
AcDbEntity
8
0
100
AcDbSpline
70
4
71
3
72
8
73
4
74
0
42
0.000000001
43
0.0000000001
44
0.0000000001
40
0
40
0
40
0
40
0
40
1
40
1
40
1
40
1
41
1
41
1
41
1
41
1
10
-153.6210220954024
20
197.13318632664451
30
0
10
-160.00739843645985
20
193.3880330878012
30
0
10
-167.05283453241688
20
195.0807537234133
30
0
10
-169.88588803464899
20
201.04042950291003
30
0
0
SPLINE
5
215
100
AcDbEntity
8
0
100
AcDbSpline
70
4
71
3
72
8
73
4
74
0
42
0.000000001
43
0.0000000001
44
0.0000000001
40
0
40
0
40
0
40
0
40
1
40
1
40
1
40
1
41
1
41
1
41
1
41
1
10
-169.88588803464899
20
201.04042950291003
30
0
10
-172.05409015180271
20
205.60094080389638
30
0
10
-171.42893477662085
20
210.62618310949117
30
0
10
-167.13056098536106
20
223.19385656438163
30
0
0
SPLINE
5
216
100
AcDbEntity
8
0
100
AcDbSpline
70
4
71
3
72
8
73
4
74
0
42
0.000000001
43
0.0000000001
44
0.0000000001
40
0
40
0
40
0
40
0
40
1
40
1
40
1
40
1
41
1
41
1
41
1
41
1
10
-167.13056098536106
20
223.19385656438163
30
0
10
-164.07009451861376
20
232.14120596857447
30
0
10
-163.32833684608491
20
235.10987698967745
30
0
10
-161.65960289668169
20
245.10166298737732
30
0
0
SPLINE
5
217
100
AcDbEntity
8
0
100
AcDbSpline
70
4
71
3
72
8
73
4
74
0
42
0.000000001
43
0.0000000001
44
0.0000000001
40
0
40
0
40
0
40
0
40
1
40
1
40
1
40
1
41
1
41
1
41
1
41
1
10
-161.65960289668169
20
245.10166298737732
30
0
10
-159.29128039905802
20
259.27770621133254
30
0
10
-159.06304726904912
20
264.01351842315552
30
0
10
-160.21578356152048
20
275.05963347200986
30
0
0
SPLINE
5
218
100
AcDbEntity
8
0
100
AcDbSpline
70
4
71
3
72
8
73
4
74
0
42
0.000000001
43
0.0000000001
44
0.0000000001
40
0
40
0
40
0
40
0
40
1
40
1
40
1
40
1
41
1
41
1
41
1
41
1
10
-160.21578356152048
20
275.05963347200986
30
0
10
-160.67306998703197
20
279.44317829531082
30
0
10
-160.63420676055986
20
282.78894879249987
30
0
10
-160.11241747344923
20
283.93755902164122
30
0
0
SPLINE
5
219
100
AcDbEntity
8
0
100
AcDbSpline
70
4
71
3
72
8
73
4
74
0
42
0.000000001
43
0.0000000001
44
0.0000000001
40
0
40
0
40
0
40
0
40
1
40
1
40
1
40
1
41
1
41
1
41
1
41
1
10
-160.11241747344923
20
283.93755902164122
30
0
10
-158.88442784244552
20
286.64324713166252
30
0
10
-155.2575172319367
20
287.05920983422072
30
0
10
-154.00637369814851
20
284.63962068427361
30
0
0
SPLINE
5
220
100
AcDbEntity
8
0
100
AcDbSpline
70
4
71
3
72
8
73
4
74
0
42
0.000000001
43
0.0000000001
44
0.0000000001
40
0
40
0
40
0
40
0
40
1
40
1
40
1
40
1
41
1
41
1
41
1
41
1
10
-154.00637369814851
20
284.63962068427361
30
0
10
-152.84370709423769
20
282.39201392939617
30
0
10
-152.05400128515234
20
261.51123135557913
30
0
10
-152.88588883647674
20
255.02480744221739
30
0
0
SPLINE
5
221
100
AcDbEntity
8
0
100
AcDbSpline
70
4
71
3
72
8
73
4
74
0
42
0.000000001
43
0.0000000001
44
0.0000000001
40
0
40
0
40
0
40
0
40
1
40
1
40
1
40
1
41
1
41
1
41
1
41
1
10
-152.88588883647674
20
255.02480744221739
30
0
10
-154.87961020828754
20
239.46944774470009
30
0
10
-156.73772667915819
20
231.0372632140147
30
0
10
-160.68382046396516
20
219.63226898096568
30
0
0
SPLINE
5
222
100
AcDbEntity
8
0
100
AcDbSpline
70
4
71
3
72
8
73
4
74
0
42
0.000000001
43
0.0000000001
44
0.0000000001
40
0
40
0
40
0
40
0
40
1
40
1
40
1
40
1
41
1
41
1
41
1
41
1
10
-160.68382046396516
20
219.63226898096568
30
0
10
-163.92290635731604
20
210.26894425628399
30
0
10
-164.58279889564005
20
206.13430073343395
30
0
10
-163.19520505955663
20
203.89002511225414
30
0
0
SPLINE
5
223
100
AcDbEntity
8
0
100
AcDbSpline
70
4
71
3
72
8
73
4
74
0
42
0.000000001
43
0.0000000001
44
0.0000000001
40
0
40
0
40
0
40
0
40
1
40
1
40
1
40
1
41
1
41
1
41
1
41
1
10
-163.19520505955663
20
203.89002511225414
30
0
10
-160.815311919506
20
200.03818726957269
30
0
10
-155.2980334073269
20
202.80261184687566
30
0
10
-149.81963073955063
20
210.59145856427972
30
0
0
SPLINE
5
224
100
AcDbEntity
8
0
100
AcDbSpline
70
4
71
3
72
8
73
4
74
0
42
0.000000001
43
0.0000000001
44
0.0000000001
40
0
40
0
40
0
40
0
40
1
40
1
40
1
40
1
41
1
41
1
41
1
41
1
10
-149.81963073955063
20
210.59145856427972
30
0
10
-143.32741519601009
20
219.82163888450253
30
0
10
-142.47072079298306
20
220.95369438860121
30
0
10
-140.36370302166154
20
223.09049047631044
30
0
0
SPLINE
5
225
100
AcDbEntity
8
0
100
AcDbSpline
70
4
71
3
72
8
73
4
74
0
42
0.000000001
43
0.0000000001
44
0.0000000001
40
0
40
0
40
0
40
0
40
1
40
1
40
1
40
1
41
1
41
1
41
1
41
1
10
-140.36370302166154
20
223.09049047631044
30
0
10
-134.02777316743379
20
229.5165502093337
30
0
10
-127.06503498910604
20
228.33402298254396
30
0
10
-122.39868448563657
20
220.03992908514124
30
0
0
SPLINE
5
226
100
AcDbEntity
8
0
100
AcDbSpline
70
4
71
3
72
8
73
4
74
0
42
0.000000001
43
0.0000000001
44
0.0000000001
40
0
40
0
40
0
40
0
40
1
40
1
40
1
40
1
41
1
41
1
41
1
41
1
10
-122.39868448563657
20
220.03992908514124
30
0
10
-118.1722455171422
20
212.52812165358833
30
0
10
-116.02885025169113
20
212.5702907778967
30
0
10
-109.70946250457538
20
220.29380185027719
30
0
0
SPLINE
5
227
100
AcDbEntity
8
0
100
AcDbSpline
70
4
71
3
72
8
73
4
74
0
42
0.000000001
43
0.0000000001
44
0.0000000001
40
0
40
0
40
0
40
0
40
1
40
1
40
1
40
1
41
1
41
1
41
1
41
1
10
-109.70946250457538
20
220.29380185027719
30
0
10
-104.2980358128101
20
226.90759115584979
30
0
10
-100.52393704100353
20
228.66231630278781
30
0
10
-96.083327626235075
20
226.62974432243561
30
0
0
SPLINE
5
228
100
AcDbEntity
8
0
100
AcDbSpline
70
4
71
3
72
8
73
4
74
0
42
0.000000001
43
0.0000000001
44
0.0000000001
40
0
40
0
40
0
40
0
40
1
40
1
40
1
40
1
41
1
41
1
41
1
41
1
10
-96.083327626235075
20
226.62974432243561
30
0
10
-89.257033441237198
20
223.50395482859543
30
0
10
-89.432340661039177
20
213.50058557053796
30
0
10
-96.620006071539564
20
196.0598294360355
30
0
0
SPLINE
5
229
100
AcDbEntity
8
0
100
AcDbSpline
70
4
71
3
72
8
73
4
74
0
42
0.000000001
43
0.0000000001
44
0.0000000001
40
0
40
0
40
0
40
0
40
1
40
1
40
1
40
1
41
1
41
1
41
1
41
1
10
-96.620006071539564
20
196.0598294360355
30
0
10
-110.12209407343597
20
163.29857114762785
30
0
10
-125.25571205614693
20
142.55175314376348
30
0
10
-143.77561671143721
20
131.41634099953797
30
0
0
SPLINE
5
230
100
AcDbEntity
8
0
100
AcDbSpline
70
4
71
3
72
8
73
4
74
0
42
0.000000001
43
0.0000000001
44
0.0000000001
40
0
40
0
40
0
40
0
40
1
40
1
40
1
40
1
41
1
41
1
41
1
41
1
10
-143.77561671143721
20
131.41634099953797
30
0
10
-151.25353238120309
20
126.91949977672637
30
0
10
-156.96429424231826
20
125.23918256696558
30
0
10
-168.14188812878274
20
124.24769081056144
30
0
0
SPLINE
5
231
100
AcDbEntity
8
0
100
AcDbSpline
70
4
71
3
72
8
73
4
74
0
42
0.000000001
43
0.0000000001
44
0.0000000001
40
0
40
0
40
0
40
0
40
1
40
1
40
1
40
1
41
1
41
1
41
1
41
1
10
-168.14188812878274
20
124.24769081056144
30
0
10
-174.85159894332966
20
123.65230113383659
30
0
10
-176.91147612565774
20
122.9047644490596
30
0
10
-177.72020977419766
20
120.77210704261103
30
0
0
SPLINE
5
232
100
AcDbEntity
8
0
100
AcDbSpline
70
4
71
3
72
8
73
4
74
0
42
0.000000001
43
0.0000000001
44
0.0000000001
40
0
40
0
40
0
40
0
40
1
40
1
40
1
40
1
41
1
41
1
41
1
41
1
10
-177.72020977419766
20
120.77210704261103
30
0
10
-178.59179333541852
20
118.47159330442273
30
0
10
-177.30839837083079
20
116.52004105692029
30
0
10
-172.00117055056114
20
112.07282615544464
30
0
0
SPLINE
5
233
100
AcDbEntity
8
0
100
AcDbSpline
70
4
71
3
72
8
73
4
74
0
42
0.000000001
43
0.0000000001
44
0.0000000001
40
0
40
0
40
0
40
0
40
1
40
1
40
1
40
1
41
1
41
1
41
1
41
1
10
-172.00117055056114
20
112.07282615544464
30
0
10
-161.3147674693258
20
103.11800693629353
30
0
10
-156.55082989003324
20
97.317929052911239
30
0
10
-151.85470107017605
20
87.544458491711453
30
0
0
SPLINE
5
234
100
AcDbEntity
8
0
100
AcDbSpline
70
4
71
3
72
8
73
4
74
0
42
0.000000001
43
0.0000000001
44
0.0000000001
40
0
40
0
40
0
40
0
40
1
40
1
40
1
40
1
41
1
41
1
41
1
41
1
10
-151.85470107017605
20
87.544458491711453
30
0
10
-146.18363521895742
20
75.740056281146892
30
0
10
-144.09977135042038
20
61.149722230447622
30
0
10
-146.45320468985022
20
49.725703312426759
30
0
0
SPLINE
5
235
100
AcDbEntity
8
0
100
AcDbSpline
70
4
71
3
72
8
73
4
74
0
42
0.000000001
43
0.0000000001
44
0.0000000001
40
0
40
0
40
0
40
0
40
1
40
1
40
1
40
1
41
1
41
1
41
1
41
1
10
-146.45320468985022
20
49.725703312426759
30
0
10
-150.43570120464813
20
30.397071317561945
30
0
10
-168.1625689171554
20
16.933846542137641
30
0
10
-184.79127288735103
20
20.608717907133634
30
0
0
ENDSEC
0
SECTION
2
OBJECTS
0
DICTIONARY
5
C
100
AcDbDictionary
3
ACAD_GROUP
350
D
3
ACAD_MLINESTYLE
350
17
0
DICTIONARY
5
D
100
AcDbDictionary
0
DICTIONARY
5
1A
330
C
100
AcDbDictionary
0
DICTIONARY
5
17
100
AcDbDictionary
0
ENDSEC
0
EOF
