0
SECTION
2
HEADER
9
$INSUNITS
70
4
9
$ACADVER
1
AC1014
9
$HANDSEED
5
FFFF
0
ENDSEC
0
SECTION
2
TABLES
0
TABLE
2
VPORT
5
8
100
AcDbSymbolTable
0
ENDTAB
0
TABLE
2
LTYPE
5
5
100
AcDbSymbolTable
0
LTYPE
5
14
100
AcDbSymbolTableRecord
100
AcDbLinetypeTableRecord
2
BYBLOCK
70
0
0
LTYPE
5
15
100
AcDbSymbolTableRecord
100
AcDbLinetypeTableRecord
2
BYLAYER
70
0
0
LTYPE
5
16
100
AcDbSymbolTableRecord
100
AcDbLinetypeTableRecord
2
DASHED
70
0
3
Dashed __ __ __ __ __ __ __ __ __ __ __ __ __ _
72
65
73
2
40
0.75
49
0.5
74
0
49
-0.25
74
0
0
ENDTAB
0
TABLE
2
LAYER
5
2
100
AcDbSymbolTable
70
2
0
LAYER
5
50
100
AcDbSymbolTableRecord
100
AcDbLayerTableRecord
2
0
70
0
62
7
6
CONTINUOUS
0
ENDTAB
0
TABLE
2
STYLE
5
3
100
AcDbSymbolTable
70
1
0
STYLE
5
11
100
AcDbSymbolTableRecord
100
AcDbTextStyleTableRecord
2
STANDARD
70
0
0
ENDTAB
0
TABLE
2
VIEW
5
6
100
AcDbSymbolTable
70
0
0
ENDTAB
0
TABLE
2
UCS
5
7
100
AcDbSymbolTable
70
0
0
ENDTAB
0
TABLE
2
APPID
5
9
100
AcDbSymbolTable
70
2
0
APPID
5
12
100
AcDbSymbolTableRecord
100
AcDbRegAppTableRecord
2
ACAD
70
0
0
ENDTAB
0
TABLE
2
DIMSTYLE
5
A
100
AcDbSymbolTable
70
1
0
ENDTAB
0
TABLE
2
BLOCK_RECORD
5
1
100
AcDbSymbolTable
70
1
0
BLOCK_RECORD
5
1F
100
AcDbSymbolTableRecord
100
AcDbBlockTableRecord
2
*MODEL_SPACE
0
BLOCK_RECORD
5
1B
100
AcDbSymbolTableRecord
100
AcDbBlockTableRecord
2
*PAPER_SPACE
0
ENDTAB
0
ENDSEC
0
SECTION
2
BLOCKS
0
BLOCK
5
20
100
AcDbEntity
100
AcDbBlockBegin
2
*MODEL_SPACE
0
ENDBLK
5
21
100
AcDbEntity
100
AcDbBlockEnd
0
BLOCK
5
1C
100
AcDbEntity
100
AcDbBlockBegin
2
*PAPER_SPACE
0
ENDBLK
5
1D
100
AcDbEntity
100
AcDbBlockEnd
0
ENDSEC
0
SECTION
2
ENTITIES
0
SPLINE
5
100
100
AcDbEntity
8
0
100
AcDbSpline
70
4
71
3
72
8
73
4
74
0
42
0.000000001
43
0.0000000001
44
0.0000000001
40
0
40
0
40
0
40
0
40
1
40
1
40
1
40
1
41
1
41
1
41
1
41
1
10
-56.459966214497896
20
6.4222314397494076
30
0
10
-53.595585982004806
20
6.7161835392316256
30
0
10
-50.562139034271247
20
8.6812439680099569
30
0
10
-48.690212758382174
20
11.455134932200121
30
0
0
SPLINE
5
101
100
AcDbEntity
8
0
100
AcDbSpline
70
4
71
3
72
8
73
4
74
0
42
0.000000001
43
0.0000000001
44
0.0000000001
40
0
40
0
40
0
40
0
40
1
40
1
40
1
40
1
41
1
41
1
41
1
41
1
10
-48.690212758382174
20
11.455134932200121
30
0
10
-45.538495413462321
20
16.125825492541004
30
0
10
-45.903621705373141
20
23.695289373397834
30
0
10
-49.578155167897549
20
29.856906572977714
30
0
0
SPLINE
5
102
100
AcDbEntity
8
0
100
AcDbSpline
70
4
71
3
72
8
73
4
74
0
42
0.000000001
43
0.0000000001
44
0.0000000001
40
0
40
0
40
0
40
0
40
1
40
1
40
1
40
1
41
1
41
1
41
1
41
1
10
-49.578155167897549
20
29.856906572977714
30
0
10
-50.863763872782393
20
32.013261143366506
30
0
10
-52.204936854044604
20
33.488576857248951
30
0
10
-55.033333333333339
20
35.858716424306245
30
0
0
SPLINE
5
103
100
AcDbEntity
8
0
100
AcDbSpline
70
4
71
3
72
8
73
4
74
0
42
0.000000001
43
0.0000000001
44
0.0000000001
40
0
40
0
40
0
40
0
40
1
40
1
40
1
40
1
41
1
41
1
41
1
41
1
10
-55.033333333333339
20
35.858716424306245
30
0
10
-56.731428972880039
20
37.281643136342382
30
0
10
-57.142062822977699
20
37.906059964497899
30
0
10
-56.863191763559975
20
38.642130184173602
30
0
0
SPLINE
5
104
100
AcDbEntity
8
0
100
AcDbSpline
70
4
71
3
72
8
73
4
74
0
42
0.000000001
43
0.0000000001
44
0.0000000001
40
0
40
0
40
0
40
0
40
1
40
1
40
1
40
1
41
1
41
1
41
1
41
1
10
-56.863191763559975
20
38.642130184173602
30
0
10
-56.604430103301993
20
39.324493249257422
30
0
10
-55.945353730519614
20
39.563674386342377
30
0
10
-53.798520946502684
20
39.754174709320075
30
0
0
SPLINE
5
105
100
AcDbEntity
8
0
100
AcDbSpline
70
4
71
3
72
8
73
4
74
0
42
0.000000001
43
0.0000000001
44
0.0000000001
40
0
40
0
40
0
40
0
40
1
40
1
40
1
40
1
41
1
41
1
41
1
41
1
10
-53.798520946502684
20
39.754174709320075
30
0
10
-50.222148482004798
20
40.071411482493097
30
0
10
-48.394938468933105
20
40.609044202168796
30
0
10
-46.002311579386387
20
42.047849305470805
30
0
0
SPLINE
5
106
100
AcDbEntity
8
0
100
AcDbSpline
70
4
71
3
72
8
73
4
74
0
42
0.000000001
43
0.0000000001
44
0.0000000001
40
0
40
0
40
0
40
0
40
1
40
1
40
1
40
1
41
1
41
1
41
1
41
1
10
-46.002311579386387
20
42.047849305470805
30
0
10
-40.076700242360424
20
45.610725339253761
30
0
10
-35.234562015533449
20
52.248857784271252
30
0
10
-30.914446592330926
20
62.731119283040371
30
0
0
SPLINE
5
107
100
AcDbEntity
8
0
100
AcDbSpline
70
4
71
3
72
8
73
4
74
0
42
0.000000001
43
0.0000000001
44
0.0000000001
40
0
40
0
40
0
40
0
40
1
40
1
40
1
40
1
41
1
41
1
41
1
41
1
10
-30.914446592330926
20
62.731119283040371
30
0
10
-28.614687903722125
20
68.31144727071127
30
0
10
-28.558596769968663
20
71.512115923563641
30
0
10
-30.742731459935506
20
72.512240600585955
30
0
0
SPLINE
5
108
100
AcDbEntity
8
0
100
AcDbSpline
70
4
71
3
72
8
73
4
74
0
42
0.000000001
43
0.0000000001
44
0.0000000001
40
0
40
0
40
0
40
0
40
1
40
1
40
1
40
1
41
1
41
1
41
1
41
1
10
-30.742731459935506
20
72.512240600585955
30
0
10
-32.163544686635333
20
73.162580426534035
30
0
10
-33.371101792653398
20
72.601140213012712
30
0
10
-35.102536805470777
20
70.484998385111496
30
0
0
SPLINE
5
109
100
AcDbEntity
8
0
100
AcDbSpline
70
4
71
3
72
8
73
4
74
0
42
0.000000001
43
0.0000000001
44
0.0000000001
40
0
40
0
40
0
40
0
40
1
40
1
40
1
40
1
41
1
41
1
41
1
41
1
10
-35.102536805470777
20
70.484998385111496
30
0
10
-37.124482186635333
20
68.013791020711281
30
0
10
-37.810280927022298
20
68.000298627217632
30
0
10
-39.162568378448483
20
70.403769493103042
30
0
0
SPLINE
5
110
100
AcDbEntity
8
0
100
AcDbSpline
70
4
71
3
72
8
73
4
74
0
42
0.000000001
43
0.0000000001
44
0.0000000001
40
0
40
0
40
0
40
0
40
1
40
1
40
1
40
1
41
1
41
1
41
1
41
1
10
-39.162568378448483
20
70.403769493103042
30
0
10
-40.6556095123291
20
73.057540003458683
30
0
10
-42.883400694529215
20
73.435900306701683
30
0
10
-44.910638872782386
20
71.379824256896995
30
0
0
SPLINE
5
111
100
AcDbEntity
8
0
100
AcDbSpline
70
4
71
3
72
8
73
4
74
0
42
0.000000001
43
0.0000000001
44
0.0000000001
40
0
40
0
40
0
40
0
40
1
40
1
40
1
40
1
41
1
41
1
41
1
41
1
10
-44.910638872782386
20
71.379824256896995
30
0
10
-45.584798304239911
20
70.696136983235704
30
0
10
-45.858905442555738
20
70.333925565083845
30
0
10
-47.936148643493652
20
67.380645720163997
30
0
0
SPLINE
5
112
100
AcDbEntity
8
0
100
AcDbSpline
70
4
71
3
72
8
73
4
74
0
42
0.000000001
43
0.0000000001
44
0.0000000001
40
0
40
0
40
0
40
0
40
1
40
1
40
1
40
1
41
1
41
1
41
1
41
1
10
-47.936148643493652
20
67.380645720163997
30
0
10
-49.68901322682698
20
64.888533624013277
30
0
10
-51.454316488901775
20
64.004030927022313
30
0
10
-52.215784867604569
20
65.236461353302019
30
0
0
SPLINE
5
113
100
AcDbEntity
8
0
100
AcDbSpline
70
4
71
3
72
8
73
4
74
0
42
0.000000001
43
0.0000000001
44
0.0000000001
40
0
40
0
40
0
40
0
40
1
40
1
40
1
40
1
41
1
41
1
41
1
41
1
10
-52.215784867604569
20
65.236461353302019
30
0
10
-52.6597580909729
20
65.954537677764918
30
0
10
-52.448619492848714
20
67.277454344431575
30
0
10
-51.412244606018064
20
70.273334948221859
30
0
0
SPLINE
5
114
100
AcDbEntity
8
0
100
AcDbSpline
70
4
71
3
72
8
73
4
74
0
42
0.000000001
43
0.0000000001
44
0.0000000001
40
0
40
0
40
0
40
0
40
1
40
1
40
1
40
1
41
1
41
1
41
1
41
1
10
-51.412244606018064
20
70.273334948221859
30
0
10
-50.149656136830643
20
73.922466214497902
30
0
10
-49.555134932200112
20
76.620420074462913
30
0
10
-48.917225710550944
20
81.597498385111493
30
0
0
SPLINE
5
115
100
AcDbEntity
8
0
100
AcDbSpline
70
4
71
3
72
8
73
4
74
0
42
0.000000001
43
0.0000000001
44
0.0000000001
40
0
40
0
40
0
40
0
40
1
40
1
40
1
40
1
41
1
41
1
41
1
41
1
10
-48.917225710550944
20
81.597498385111493
30
0
10
-48.651055749257409
20
83.672888501485204
30
0
10
-48.903729279836021
20
90.353884124755865
30
0
10
-49.275734996795649
20
91.073026275634774
30
0
0
SPLINE
5
116
100
AcDbEntity
8
0
100
AcDbSpline
70
4
71
3
72
8
73
4
74
0
42
0.000000001
43
0.0000000001
44
0.0000000001
40
0
40
0
40
0
40
0
40
1
40
1
40
1
40
1
41
1
41
1
41
1
41
1
10
-49.275734996795649
20
91.073026275634774
30
0
10
-49.676049709320068
20
91.847195752461772
30
0
10
-50.836512629191077
20
91.714104715983083
30
0
10
-51.229419040679929
20
90.848395284016945
30
0
0
SPLINE
5
117
100
AcDbEntity
8
0
100
AcDbSpline
70
4
71
3
72
8
73
4
74
0
42
0.000000001
43
0.0000000001
44
0.0000000001
40
0
40
0
40
0
40
0
40
1
40
1
40
1
40
1
41
1
41
1
41
1
41
1
10
-51.229419040679929
20
90.848395284016945
30
0
10
-51.396370251973465
20
90.480887031555199
30
0
10
-51.408804893493645
20
89.410377438863136
30
0
10
-51.262491957346597
20
88.007822545369478
30
0
0
SPLINE
5
118
100
AcDbEntity
8
0
100
AcDbSpline
70
4
71
3
72
8
73
4
74
0
42
0.000000001
43
0.0000000001
44
0.0000000001
40
0
40
0
40
0
40
0
40
1
40
1
40
1
40
1
41
1
41
1
41
1
41
1
10
-51.262491957346597
20
88.007822545369478
30
0
10
-50.893663533528645
20
84.473517926534043
30
0
10
-50.966688791910798
20
82.95825188954673
30
0
10
-51.724455038706466
20
78.42249838511151
30
0
0
SPLINE
5
119
100
AcDbEntity
8
0
100
AcDbSpline
70
4
71
3
72
8
73
4
74
0
42
0.000000001
43
0.0000000001
44
0.0000000001
40
0
40
0
40
0
40
0
40
1
40
1
40
1
40
1
41
1
41
1
41
1
41
1
10
-51.724455038706466
20
78.42249838511151
30
0
10
-52.258381589253744
20
75.225535901387545
30
0
10
-52.49571367899577
20
74.275682703653999
30
0
10
-53.474937661488852
20
71.412897173563664
30
0
0
SPLINE
5
120
100
AcDbEntity
8
0
100
AcDbSpline
70
4
71
3
72
8
73
4
74
0
42
0.000000001
43
0.0000000001
44
0.0000000001
40
0
40
0
40
0
40
0
40
1
40
1
40
1
40
1
41
1
41
1
41
1
41
1
10
-53.474937661488852
20
71.412897173563664
30
0
10
-54.850241311391194
20
67.391756153106712
30
0
10
-55.050265439351392
20
65.783884334564235
30
0
10
-54.356529521942136
20
64.324707412719746
30
0
0
SPLINE
5
121
100
AcDbEntity
8
0
100
AcDbSpline
70
4
71
3
72
8
73
4
74
0
42
0.000000001
43
0.0000000001
44
0.0000000001
40
0
40
0
40
0
40
0
40
1
40
1
40
1
40
1
41
1
41
1
41
1
41
1
10
-54.356529521942136
20
64.324707412719746
30
0
10
-53.450068378448485
20
62.417855135599787
30
0
10
-51.195817248026529
20
61.876253827412945
30
0
10
-49.152438259124757
20
63.074549547831239
30
0
0
SPLINE
5
122
100
AcDbEntity
8
0
100
AcDbSpline
70
4
71
3
72
8
73
4
74
0
42
0.000000001
43
0.0000000001
44
0.0000000001
40
0
40
0
40
0
40
0
40
1
40
1
40
1
40
1
41
1
41
1
41
1
41
1
10
-49.152438259124757
20
63.074549547831239
30
0
10
-47.741679732004798
20
63.901901340484635
30
0
10
-46.829134496053058
20
64.902821350097668
30
0
10
-44.840524450937906
20
67.803976631164574
30
0
0
SPLINE
5
123
100
AcDbEntity
8
0
100
AcDbSpline
70
4
71
3
72
8
73
4
74
0
42
0.000000001
43
0.0000000001
44
0.0000000001
40
0
40
0
40
0
40
0
40
1
40
1
40
1
40
1
41
1
41
1
41
1
41
1
10
-44.840524450937906
20
67.803976631164574
30
0
10
-43.553325080871581
20
69.681462160746278
30
0
10
-43.258317248026529
20
70.033620897928898
30
0
10
-42.795029958089188
20
70.245284334818535
30
0
0
SPLINE
5
124
100
AcDbEntity
8
0
100
AcDbSpline
70
4
71
3
72
8
73
4
74
0
42
0.000000001
43
0.0000000001
44
0.0000000001
40
0
40
0
40
0
40
0
40
1
40
1
40
1
40
1
41
1
41
1
41
1
41
1
10
-42.795029958089188
20
70.245284334818535
30
0
10
-42.072985045115146
20
70.575488662719749
30
0
10
-41.635628827412923
20
70.295822270711284
30
0
10
-41.018353843688963
20
69.109169896443703
30
0
0
SPLINE
5
125
100
AcDbEntity
8
0
100
AcDbSpline
70
4
71
3
72
8
73
4
74
0
42
0.000000001
43
0.0000000001
44
0.0000000001
40
0
40
0
40
0
40
0
40
1
40
1
40
1
40
1
41
1
41
1
41
1
41
1
10
-41.018353843688963
20
69.109169896443703
30
0
10
-39.319729328155518
20
65.844208494822198
30
0
10
-36.996687984466547
20
65.362136014302592
30
0
10
-34.514632606506346
20
67.759260368347171
30
0
0
SPLINE
5
126
100
AcDbEntity
8
0
100
AcDbSpline
70
4
71
3
72
8
73
4
74
0
42
0.000000001
43
0.0000000001
44
0.0000000001
40
0
40
0
40
0
40
0
40
1
40
1
40
1
40
1
41
1
41
1
41
1
41
1
10
-34.514632606506346
20
67.759260368347171
30
0
10
-34.160616747538242
20
68.101108042399105
30
0
10
-33.933870251973467
20
68.367806879679364
30
0
10
-33.016296656926471
20
69.521919250488295
30
0
0
SPLINE
5
127
100
AcDbEntity
8
0
100
AcDbSpline
70
4
71
3
72
8
73
4
74
0
42
0.000000001
43
0.0000000001
44
0.0000000001
40
0
40
0
40
0
40
0
40
1
40
1
40
1
40
1
41
1
41
1
41
1
41
1
10
-33.016296656926471
20
69.521919250488295
30
0
10
-32.30827099482218
20
70.412506039937341
30
0
10
-31.608182509740189
20
70.603531201680511
30
0
10
-31.292005507151281
20
69.992610804239916
30
0
0
SPLINE
5
128
100
AcDbEntity
8
0
100
AcDbSpline
70
4
71
3
72
8
73
4
74
0
42
0.000000001
43
0.0000000001
44
0.0000000001
40
0
40
0
40
0
40
0
40
1
40
1
40
1
40
1
41
1
41
1
41
1
41
1
10
-31.292005507151281
20
69.992610804239916
30
0
10
-30.826869169871006
20
69.093029085795095
30
0
10
-31.887848901748654
20
65.846323998769122
30
0
10
-34.421764405568439
20
60.414428488413499
30
0
0
SPLINE
5
129
100
AcDbEntity
8
0
100
AcDbSpline
70
4
71
3
72
8
73
4
74
0
42
0.000000001
43
0.0000000001
44
0.0000000001
40
0
40
0
40
0
40
0
40
1
40
1
40
1
40
1
41
1
41
1
41
1
41
1
10
-34.421764405568439
20
60.414428488413499
30
0
10
-37.870076211293537
20
53.021969509124773
30
0
10
-40.805628617604569
20
48.982047335306824
30
0
10
-45.437690035502108
20
45.253802680969251
30
0
0
SPLINE
5
130
100
AcDbEntity
8
0
100
AcDbSpline
70
4
71
3
72
8
73
4
74
0
42
0.000000001
43
0.0000000001
44
0.0000000001
40
0
40
0
40
0
40
0
40
1
40
1
40
1
40
1
41
1
41
1
41
1
41
1
10
-45.437690035502108
20
45.253802680969251
30
0
10
-48.104952939351399
20
43.107240390777605
30
0
10
-50.198336950937907
20
42.315872351328551
30
0
10
-53.909911918640134
20
42.051022561391207
30
0
0
SPLINE
5
131
100
AcDbEntity
8
0
100
AcDbSpline
70
4
71
3
72
8
73
4
74
0
42
0.000000001
43
0.0000000001
44
0.0000000001
40
0
40
0
40
0
40
0
40
1
40
1
40
1
40
1
41
1
41
1
41
1
41
1
10
-53.909911918640134
20
42.051022561391207
30
0
10
-57.308222738901769
20
41.808401711781833
30
0
10
-58.811583010355626
20
40.929454231262227
30
0
10
-59.199463081359866
20
38.958042748769138
30
0
0
SPLINE
5
132
100
AcDbEntity
8
0
100
AcDbSpline
70
4
71
3
72
8
73
4
74
0
42
0.000000001
43
0.0000000001
44
0.0000000001
40
0
40
0
40
0
40
0
40
1
40
1
40
1
40
1
41
1
41
1
41
1
41
1
10
-59.199463081359866
20
38.958042748769138
30
0
10
-59.51696227391561
20
37.3443492571513
30
0
10
-58.763164615631112
20
36.049745623270681
30
0
10
-56.303334140777601
20
33.984408187866222
30
0
0
SPLINE
5
133
100
AcDbEntity
8
0
100
AcDbSpline
70
4
71
3
72
8
73
4
74
0
42
0.000000001
43
0.0000000001
44
0.0000000001
40
0
40
0
40
0
40
0
40
1
40
1
40
1
40
1
41
1
41
1
41
1
41
1
10
-56.303334140777601
20
33.984408187866222
30
0
10
-52.38194478352866
20
30.692195542653412
30
0
10
-50.416617393493659
20
27.696583414077768
30
0
10
-49.312776501973481
20
23.330958414077763
30
0
0
SPLINE
5
134
100
AcDbEntity
8
0
100
AcDbSpline
70
4
71
3
72
8
73
4
74
0
42
0.000000001
43
0.0000000001
44
0.0000000001
40
0
40
0
40
0
40
0
40
1
40
1
40
1
40
1
41
1
41
1
41
1
41
1
10
-49.312776501973481
20
23.330958414077763
30
0
10
-47.706228892008468
20
16.97566763559978
30
0
10
-49.643505668640138
20
11.611239139239002
30
0
10
-54.40256595611573
20
9.2366041262944627
30
0
0
SPLINE
5
135
100
AcDbEntity
8
0
100
AcDbSpline
70
4
71
3
72
8
73
4
74
0
42
0.000000001
43
0.0000000001
44
0.0000000001
40
0
40
0
40
0
40
0
40
1
40
1
40
1
40
1
41
1
41
1
41
1
41
1
10
-54.40256595611573
20
9.2366041262944627
30
0
10
-56.623215293884286
20
8.1282647609710761
30
0
10
-58.326074854532884
20
8.2785477995872583
30
0
10
-61.665644105275483
20
9.8776896317799974
30
0
0
SPLINE
5
136
100
AcDbEntity
8
0
100
AcDbSpline
70
4
71
3
72
8
73
4
74
0
42
0.000000001
43
0.0000000001
44
0.0000000001
40
0
40
0
40
0
40
0
40
1
40
1
40
1
40
1
41
1
41
1
41
1
41
1
10
-61.665644105275483
20
9.8776896317799974
30
0
10
-63.918042151133236
20
10.956395792961132
30
0
10
-64.479486401875818
20
11.160389518737803
30
0
10
-65.934165859222418
20
11.427883688608816
30
0
0
SPLINE
5
137
100
AcDbEntity
8
0
100
AcDbSpline
70
4
71
3
72
8
73
4
74
0
42
0.000000001
43
0.0000000001
44
0.0000000001
40
0
40
0
40
0
40
0
40
1
40
1
40
1
40
1
41
1
41
1
41
1
41
1
10
-65.934165859222418
20
11.427883688608816
30
0
10
-69.425082461039239
20
12.07002694606782
30
0
10
-70.171201324462899
20
12.827794202168795
30
0
10
-70.452724838256856
20
16.016023166974396
30
0
0
SPLINE
5
138
100
AcDbEntity
8
0
100
AcDbSpline
70
4
71
3
72
8
73
4
74
0
42
0.000000001
43
0.0000000001
44
0.0000000001
40
0
40
0
40
0
40
0
40
1
40
1
40
1
40
1
41
1
41
1
41
1
41
1
10
-70.452724838256856
20
16.016023166974396
30
0
10
-70.642425791422539
20
18.162057590484629
30
0
10
-70.876584625244149
20
18.969302002588918
30
0
10
-71.768762079874676
20
20.554420042037975
30
0
0
SPLINE
5
139
100
AcDbEntity
8
0
100
AcDbSpline
70
4
71
3
72
8
73
4
74
0
42
0.000000001
43
0.0000000001
44
0.0000000001
40
0
40
0
40
0
40
0
40
1
40
1
40
1
40
1
41
1
41
1
41
1
41
1
10
-71.768762079874676
20
20.554420042037975
30
0
10
-72.933718427022313
20
22.623992522557586
30
0
10
-73.140884399414077
20
23.185967667897557
30
0
10
-73.073680814107277
20
24.09481077194215
30
0
0
SPLINE
5
140
100
AcDbEntity
8
0
100
AcDbSpline
70
4
71
3
72
8
73
4
74
0
42
0.000000001
43
0.0000000001
44
0.0000000001
40
0
40
0
40
0
40
0
40
1
40
1
40
1
40
1
41
1
41
1
41
1
41
1
10
-73.073680814107277
20
24.09481077194215
30
0
10
-72.949859237670907
20
25.76750623385113
30
0
10
-71.379557800292986
20
27.931269105275483
30
0
10
-70.284178924560564
20
27.938412968317682
30
0
0
SPLINE
5
141
100
AcDbEntity
8
0
100
AcDbSpline
70
4
71
3
72
8
73
4
74
0
42
0.000000001
43
0.0000000001
44
0.0000000001
40
0
40
0
40
0
40
0
40
1
40
1
40
1
40
1
41
1
41
1
41
1
41
1
10
-70.284178924560564
20
27.938412968317682
30
0
10
-69.575888824462893
20
27.943174870808932
30
0
10
-69.349142328898125
20
27.476978762944555
30
0
10
-69.275325775146499
20
25.862756395339979
30
0
0
SPLINE
5
142
100
AcDbEntity
8
0
100
AcDbSpline
70
4
71
3
72
8
73
4
74
0
42
0.000000001
43
0.0000000001
44
0.0000000001
40
0
40
0
40
0
40
0
40
1
40
1
40
1
40
1
41
1
41
1
41
1
41
1
10
-69.275325775146499
20
25.862756395339979
30
0
10
-69.093553924560553
20
21.895857461293549
30
0
10
-68.264349047342947
20
19.773371140162162
30
0
10
-65.969354279836026
20
17.402175839742036
30
0
0
SPLINE
5
143
100
AcDbEntity
8
0
100
AcDbSpline
70
4
71
3
72
8
73
4
74
0
42
0.000000001
43
0.0000000001
44
0.0000000001
40
0
40
0
40
0
40
0
40
1
40
1
40
1
40
1
41
1
41
1
41
1
41
1
10
-65.969354279836026
20
17.402175839742036
30
0
10
-61.528326098124197
20
12.81271215279898
30
0
10
-56.926426760355639
20
11.702256274223334
30
0
10
-54.448339970906581
20
14.621668879191089
30
0
0
SPLINE
5
144
100
AcDbEntity
8
0
100
AcDbSpline
70
4
71
3
72
8
73
4
74
0
42
0.000000001
43
0.0000000001
44
0.0000000001
40
0
40
0
40
0
40
0
40
1
40
1
40
1
40
1
41
1
41
1
41
1
41
1
10
-54.448339970906581
20
14.621668879191089
30
0
10
-51.751439825693772
20
17.799315277735403
30
0
10
-53.091026178995776
20
24.559153795242317
30
0
10
-57.288642215728771
20
28.953354247411106
30
0
0
SPLINE
5
145
100
AcDbEntity
8
0
100
AcDbSpline
70
4
71
3
72
8
73
4
74
0
42
0.000000001
43
0.0000000001
44
0.0000000001
40
0
40
0
40
0
40
0
40
1
40
1
40
1
40
1
41
1
41
1
41
1
41
1
10
-57.288642215728771
20
28.953354247411106
30
0
10
-59.146809641520193
20
30.898305781682346
30
0
10
-60.331879425048839
20
31.872765843073537
30
0
10
-63.526193491617846
20
34.082831605275487
30
0
0
SPLINE
5
146
100
AcDbEntity
8
0
100
AcDbSpline
70
4
71
3
72
8
73
4
74
0
42
0.000000001
43
0.0000000001
44
0.0000000001
40
0
40
0
40
0
40
0
40
1
40
1
40
1
40
1
41
1
41
1
41
1
41
1
10
-63.526193491617846
20
34.082831605275487
30
0
10
-69.683577664693203
20
38.342624886830663
30
0
10
-72.180712064107254
20
42.313490390777602
30
0
10
-72.015347480773926
20
47.582932154337584
30
0
0
SPLINE
5
147
100
AcDbEntity
8
0
100
AcDbSpline
70
4
71
3
72
8
73
4
74
0
42
0.000000001
43
0.0000000001
44
0.0000000001
40
0
40
0
40
0
40
0
40
1
40
1
40
1
40
1
41
1
41
1
41
1
41
1
10
-72.015347480773926
20
47.582932154337584
30
0
10
-71.889935239156088
20
51.584226195017507
30
0
10
-70.096060562133786
20
54.749435933431002
30
0
10
-65.934165859222404
20
58.313373756408708
30
0
0
SPLINE
5
148
100
AcDbEntity
8
0
100
AcDbSpline
70
4
71
3
72
8
73
4
74
0
42
0.000000001
43
0.0000000001
44
0.0000000001
40
0
40
0
40
0
40
0
40
1
40
1
40
1
40
1
41
1
41
1
41
1
41
1
10
-65.934165859222404
20
58.313373756408708
30
0
10
-63.094130071004237
20
60.745686531066916
30
0
10
-60.739864857991535
20
63.317965730031354
30
0
10
-59.089658737182617
20
65.793145720163992
30
0
0
SPLINE
5
149
100
AcDbEntity
8
0
100
AcDbSpline
70
4
71
3
72
8
73
4
74
0
42
0.000000001
43
0.0000000001
44
0.0000000001
40
0
40
0
40
0
40
0
40
1
40
1
40
1
40
1
41
1
41
1
41
1
41
1
10
-59.089658737182617
20
65.793145720163992
30
0
10
-56.840700403849283
20
69.165787887573259
30
0
10
-55.254524612426756
20
72.638968976338717
30
0
10
-54.046701049804689
20
76.834207089742051
30
0
0
SPLINE
5
150
100
AcDbEntity
8
0
100
AcDbSpline
70
4
71
3
72
8
73
4
74
0
42
0.000000001
43
0.0000000001
44
0.0000000001
40
0
40
0
40
0
40
0
40
1
40
1
40
1
40
1
41
1
41
1
41
1
41
1
10
-54.046701049804689
20
76.834207089742051
30
0
10
-52.845756912231451
20
81.006158510843917
30
0
10
-52.550749079386392
20
83.484511756896978
30
0
10
-52.862693055470785
20
86.783333333333346
30
0
0
SPLINE
5
151
100
AcDbEntity
8
0
100
AcDbSpline
70
4
71
3
72
8
73
4
74
0
42
0.000000001
43
0.0000000001
44
0.0000000001
40
0
40
0
40
0
40
0
40
1
40
1
40
1
40
1
41
1
41
1
41
1
41
1
10
-52.862693055470785
20
86.783333333333346
30
0
10
-52.926985804239905
20
87.462515068054216
30
0
10
-52.999482186635333
20
88.430891036987319
30
0
10
-53.024089050292964
20
88.935188420613613
30
0
0
SPLINE
5
152
100
AcDbEntity
8
0
100
AcDbSpline
70
4
71
3
72
8
73
4
74
0
42
0.000000001
43
0.0000000001
44
0.0000000001
40
0
40
0
40
0
40
0
40
1
40
1
40
1
40
1
41
1
41
1
41
1
41
1
10
-53.024089050292964
20
88.935188420613613
30
0
10
-53.107695865631108
20
90.650216166178396
30
0
10
-53.392917474110924
20
91.158219718933111
30
0
10
-54.271332041422525
20
91.157428423563658
30
0
0
SPLINE
5
153
100
AcDbEntity
8
0
100
AcDbSpline
70
4
71
3
72
8
73
4
74
0
42
0.000000001
43
0.0000000001
44
0.0000000001
40
0
40
0
40
0
40
0
40
1
40
1
40
1
40
1
41
1
41
1
41
1
41
1
10
-54.271332041422525
20
91.157428423563658
30
0
10
-55.261670494079588
20
91.156629053751629
30
0
10
-55.424915536244711
20
90.503907267252615
30
0
10
-55.100536918640131
20
87.841666666666669
30
0
0
SPLINE
5
154
100
AcDbEntity
8
0
100
AcDbSpline
70
4
71
3
72
8
73
4
74
0
42
0.000000001
43
0.0000000001
44
0.0000000001
40
0
40
0
40
0
40
0
40
1
40
1
40
1
40
1
41
1
41
1
41
1
41
1
10
-55.100536918640131
20
87.841666666666669
30
0
10
-54.628783575693767
20
83.970286369323745
30
0
10
-55.122232945760096
20
80.475401178995781
30
0
10
-56.849170494079587
20
75.459169896443697
30
0
0
SPLINE
5
155
100
AcDbEntity
8
0
100
AcDbSpline
70
4
71
3
72
8
73
4
74
0
42
0.000000001
43
0.0000000001
44
0.0000000001
40
0
40
0
40
0
40
0
40
1
40
1
40
1
40
1
41
1
41
1
41
1
41
1
10
-56.849170494079587
20
75.459169896443697
30
0
10
-59.111883640289307
20
68.88717924753827
30
0
10
-62.058021640777589
20
64.454088242848727
30
0
10
-66.886667474110922
20
60.356486288706478
30
0
0
SPLINE
5
156
100
AcDbEntity
8
0
100
AcDbSpline
70
4
71
3
72
8
73
4
74
0
42
0.000000001
43
0.0000000001
44
0.0000000001
40
0
40
0
40
0
40
0
40
1
40
1
40
1
40
1
41
1
41
1
41
1
41
1
10
-66.886667474110922
20
60.356486288706478
30
0
10
-72.059005991617838
20
55.966783301035576
30
0
10
-74.290765762329102
20
51.970253181457537
30
0
10
-74.294471931457522
20
47.090540536244731
30
0
0
SPLINE
5
157
100
AcDbEntity
8
0
100
AcDbSpline
70
4
71
3
72
8
73
4
74
0
42
0.000000001
43
0.0000000001
44
0.0000000001
40
0
40
0
40
0
40
0
40
1
40
1
40
1
40
1
41
1
41
1
41
1
41
1
10
-74.294471931457522
20
47.090540536244731
30
0
10
-74.298702939351401
20
41.416815471649187
30
0
10
-71.400720914204911
20
36.892705313364679
30
0
10
-64.75147803624472
20
32.19264699618023
30
0
0
SPLINE
5
158
100
AcDbEntity
8
0
100
AcDbSpline
70
4
71
3
72
8
73
4
74
0
42
0.000000001
43
0.0000000001
44
0.0000000001
40
0
40
0
40
0
40
0
40
1
40
1
40
1
40
1
41
1
41
1
41
1
41
1
10
-64.75147803624472
20
32.19264699618023
30
0
10
-58.415765762329109
20
27.714046414693208
30
0
10
-55.863329505920419
20
24.389556185404473
30
0
10
-55.31035130818686
20
19.896665859222423
30
0
0
SPLINE
5
159
100
AcDbEntity
8
0
100
AcDbSpline
70
4
71
3
72
8
73
4
74
0
42
0.000000001
43
0.0000000001
44
0.0000000001
40
0
40
0
40
0
40
0
40
1
40
1
40
1
40
1
41
1
41
1
41
1
41
1
10
-55.31035130818686
20
19.896665859222423
30
0
10
-54.595181783040374
20
14.084299588203439
30
0
10
-59.153955523173025
20
13.515974903106699
30
0
10
-64.248771317799907
20
18.782241392135631
30
0
0
SPLINE
5
160
100
AcDbEntity
8
0
100
AcDbSpline
70
4
71
3
72
8
73
4
74
0
42
0.000000001
43
0.0000000001
44
0.0000000001
40
0
40
0
40
0
40
0
40
1
40
1
40
1
40
1
41
1
41
1
41
1
41
1
10
-64.248771317799907
20
18.782241392135631
30
0
10
-66.216476631164568
20
20.816358995437632
30
0
10
-66.820784060160335
20
22.373166020711274
30
0
10
-67.097806072235116
20
26.123371140162163
30
0
0
SPLINE
5
161
100
AcDbEntity
8
0
100
AcDbSpline
70
4
71
3
72
8
73
4
74
0
42
0.000000001
43
0.0000000001
44
0.0000000001
40
0
40
0
40
0
40
0
40
1
40
1
40
1
40
1
41
1
41
1
41
1
41
1
10
-67.097806072235116
20
26.123371140162163
30
0
10
-67.257611401875835
20
28.284752051035579
30
0
10
-67.75952682495118
20
29.28990508715313
30
0
10
-68.980576324462902
20
29.893419202168797
30
0
0
SPLINE
5
162
100
AcDbEntity
8
0
100
AcDbSpline
70
4
71
3
72
8
73
4
74
0
42
0.000000001
43
0.0000000001
44
0.0000000001
40
0
40
0
40
0
40
0
40
1
40
1
40
1
40
1
41
1
41
1
41
1
41
1
10
-68.980576324462902
20
29.893419202168797
30
0
10
-71.157833607991549
20
30.969479974110932
30
0
10
-73.982265535990408
20
28.952825371424371
30
0
10
-75.135053698221853
20
25.499218750000011
30
0
0
SPLINE
5
163
100
AcDbEntity
8
0
100
AcDbSpline
70
4
71
3
72
8
73
4
74
0
42
0.000000001
43
0.0000000001
44
0.0000000001
40
0
40
0
40
0
40
0
40
1
40
1
40
1
40
1
41
1
41
1
41
1
41
1
10
-75.135053698221853
20
25.499218750000011
30
0
10
-75.784335772196471
20
23.554002777735406
30
0
10
-75.560770606994637
20
22.366286595662448
30
0
10
-74.119579505920413
20
20.108333333333345
30
0
0
SPLINE
5
164
100
AcDbEntity
8
0
100
AcDbSpline
70
4
71
3
72
8
73
4
74
0
42
0.000000001
43
0.0000000001
44
0.0000000001
40
0
40
0
40
0
40
0
40
1
40
1
40
1
40
1
41
1
41
1
41
1
41
1
10
-74.119579505920413
20
20.108333333333345
30
0
10
-73.005153020222991
20
18.36234817504884
30
0
10
-72.875509770711275
20
17.993519751230885
30
0
10
-72.70723838806154
20
16.086666464805614
30
0
0
SPLINE
5
165
100
AcDbEntity
8
0
100
AcDbSpline
70
4
71
3
72
8
73
4
74
0
42
0.000000001
43
0.0000000001
44
0.0000000001
40
0
40
0
40
0
40
0
40
1
40
1
40
1
40
1
41
1
41
1
41
1
41
1
10
-72.70723838806154
20
16.086666464805614
30
0
10
-72.323322868347176
20
11.742737491925567
30
0
10
-70.856471188863125
20
10.127191925048839
30
0
10
-66.559640439351412
20
9.3159789244333986
30
0
0
SPLINE
5
166
100
AcDbEntity
8
0
100
AcDbSpline
70
4
71
3
72
8
73
4
74
0
42
0.000000001
43
0.0000000001
44
0.0000000001
40
0
40
0
40
0
40
0
40
1
40
1
40
1
40
1
41
1
41
1
41
1
41
1
10
-66.559640439351412
20
9.3159789244333986
30
0
10
-65.053369331359875
20
9.0315516392390034
30
0
10
-64.634798304239922
20
8.8865608930587854
30
0
10
-62.782977390289318
20
8.0073499838511246
30
0
0
SPLINE
5
167
100
AcDbEntity
8
0
100
AcDbSpline
70
4
71
3
72
8
73
4
74
0
42
0.000000001
43
0.0000000001
44
0.0000000001
40
0
40
0
40
0
40
0
40
1
40
1
40
1
40
1
41
1
41
1
41
1
41
1
10
-62.782977390289318
20
8.0073499838511246
30
0
10
-59.807210222880052
20
6.5944749434789109
30
0
10
-58.347504425048839
20
6.2285563468933178
30
0
10
-56.459966214497896
20
6.4222314397494076
30
0
0
LWPOLYLINE
5
168
100
AcDbEntity
8
0
100
AcDbPolyline
90
8
70
1
43
0.0
10
6.4804226454880793e-15
20
52.916666666666679
10
1.2960845290976159e-14
20
105.83333333333336
10
-52.916666666666671
20
105.83333333333336
10
-105.83333333333336
20
105.83333333333336
10
-105.83333333333334
20
52.9166666666667
10
-105.83333333333336
20
8.8817841970012523e-15
10
-52.916666666666679
20
6.4804226454880793e-15
10
0
20
0
0
SPLINE
5
169
100
AcDbEntity
8
0
100
AcDbSpline
70
4
71
3
72
8
73
4
74
0
42
0.000000001
43
0.0000000001
44
0.0000000001
40
0
40
0
40
0
40
0
40
1
40
1
40
1
40
1
41
1
41
1
41
1
41
1
10
-59.125642490386966
20
6.5939460674921762
30
0
10
-60.120740826924653
20
6.8140790899594714
30
0
10
-60.920312500000009
20
7.1228477915128163
30
0
10
-62.782977390289318
20
8.0073499838511246
30
0
0
SPLINE
5
170
100
AcDbEntity
8
0
100
AcDbSpline
70
4
71
3
72
8
73
4
74
0
42
0.000000001
43
0.0000000001
44
0.0000000001
40
0
40
0
40
0
40
0
40
1
40
1
40
1
40
1
41
1
41
1
41
1
41
1
10
-62.782977390289318
20
8.0073499838511246
30
0
10
-64.634798304239922
20
8.8865608930587854
30
0
10
-65.053369331359875
20
9.0315516392390034
30
0
10
-66.559640439351412
20
9.3159789244333986
30
0
0
SPLINE
5
171
100
AcDbEntity
8
0
100
AcDbSpline
70
4
71
3
72
8
73
4
74
0
42
0.000000001
43
0.0000000001
44
0.0000000001
40
0
40
0
40
0
40
0
40
1
40
1
40
1
40
1
41
1
41
1
41
1
41
1
10
-66.559640439351412
20
9.3159789244333986
30
0
10
-70.856471188863125
20
10.127191925048839
30
0
10
-72.323322868347176
20
11.742737491925567
30
0
10
-72.70723838806154
20
16.086666464805614
30
0
0
SPLINE
5
172
100
AcDbEntity
8
0
100
AcDbSpline
70
4
71
3
72
8
73
4
74
0
42
0.000000001
43
0.0000000001
44
0.0000000001
40
0
40
0
40
0
40
0
40
1
40
1
40
1
40
1
41
1
41
1
41
1
41
1
10
-72.70723838806154
20
16.086666464805614
30
0
10
-72.875509770711275
20
17.993519751230885
30
0
10
-73.005153020222991
20
18.36234817504884
30
0
10
-74.119579505920413
20
20.108333333333345
30
0
0
SPLINE
5
173
100
AcDbEntity
8
0
100
AcDbSpline
70
4
71
3
72
8
73
4
74
0
42
0.000000001
43
0.0000000001
44
0.0000000001
40
0
40
0
40
0
40
0
40
1
40
1
40
1
40
1
41
1
41
1
41
1
41
1
10
-74.119579505920413
20
20.108333333333345
30
0
10
-75.560770606994637
20
22.366286595662448
30
0
10
-75.784335772196471
20
23.554002777735406
30
0
10
-75.135053698221853
20
25.499218750000011
30
0
0
SPLINE
5
174
100
AcDbEntity
8
0
100
AcDbSpline
70
4
71
3
72
8
73
4
74
0
42
0.000000001
43
0.0000000001
44
0.0000000001
40
0
40
0
40
0
40
0
40
1
40
1
40
1
40
1
41
1
41
1
41
1
41
1
10
-75.135053698221853
20
25.499218750000011
30
0
10
-73.982265535990408
20
28.952825371424371
30
0
10
-71.157833607991549
20
30.969479974110932
30
0
10
-68.980576324462902
20
29.893419202168797
30
0
0
SPLINE
5
175
100
AcDbEntity
8
0
100
AcDbSpline
70
4
71
3
72
8
73
4
74
0
42
0.000000001
43
0.0000000001
44
0.0000000001
40
0
40
0
40
0
40
0
40
1
40
1
40
1
40
1
41
1
41
1
41
1
41
1
10
-68.980576324462902
20
29.893419202168797
30
0
10
-67.75952682495118
20
29.28990508715313
30
0
10
-67.257611401875835
20
28.284752051035579
30
0
10
-67.097806072235116
20
26.123371140162163
30
0
0
SPLINE
5
176
100
AcDbEntity
8
0
100
AcDbSpline
70
4
71
3
72
8
73
4
74
0
42
0.000000001
43
0.0000000001
44
0.0000000001
40
0
40
0
40
0
40
0
40
1
40
1
40
1
40
1
41
1
41
1
41
1
41
1
10
-67.097806072235116
20
26.123371140162163
30
0
10
-66.820784060160335
20
22.373166020711274
30
0
10
-66.216476631164568
20
20.816358995437632
30
0
10
-64.248771317799907
20
18.782241392135631
30
0
0
SPLINE
5
177
100
AcDbEntity
8
0
100
AcDbSpline
70
4
71
3
72
8
73
4
74
0
42
0.000000001
43
0.0000000001
44
0.0000000001
40
0
40
0
40
0
40
0
40
1
40
1
40
1
40
1
41
1
41
1
41
1
41
1
10
-64.248771317799907
20
18.782241392135631
30
0
10
-59.153955523173025
20
13.515974903106699
30
0
10
-54.595181783040374
20
14.084299588203439
30
0
10
-55.31035130818686
20
19.896665859222423
30
0
0
SPLINE
5
178
100
AcDbEntity
8
0
100
AcDbSpline
70
4
71
3
72
8
73
4
74
0
42
0.000000001
43
0.0000000001
44
0.0000000001
40
0
40
0
40
0
40
0
40
1
40
1
40
1
40
1
41
1
41
1
41
1
41
1
10
-55.31035130818686
20
19.896665859222423
30
0
10
-55.863329505920419
20
24.389556185404473
30
0
10
-58.415765762329109
20
27.714046414693208
30
0
10
-64.75147803624472
20
32.19264699618023
30
0
0
SPLINE
5
179
100
AcDbEntity
8
0
100
AcDbSpline
70
4
71
3
72
8
73
4
74
0
42
0.000000001
43
0.0000000001
44
0.0000000001
40
0
40
0
40
0
40
0
40
1
40
1
40
1
40
1
41
1
41
1
41
1
41
1
10
-64.75147803624472
20
32.19264699618023
30
0
10
-71.400720914204911
20
36.892705313364679
30
0
10
-74.298702939351401
20
41.416815471649187
30
0
10
-74.294471931457522
20
47.090540536244731
30
0
0
SPLINE
5
180
100
AcDbEntity
8
0
100
AcDbSpline
70
4
71
3
72
8
73
4
74
0
42
0.000000001
43
0.0000000001
44
0.0000000001
40
0
40
0
40
0
40
0
40
1
40
1
40
1
40
1
41
1
41
1
41
1
41
1
10
-74.294471931457522
20
47.090540536244731
30
0
10
-74.290765762329102
20
51.970253181457537
30
0
10
-72.059005991617838
20
55.966783301035576
30
0
10
-66.886667474110922
20
60.356486288706478
30
0
0
SPLINE
5
181
100
AcDbEntity
8
0
100
AcDbSpline
70
4
71
3
72
8
73
4
74
0
42
0.000000001
43
0.0000000001
44
0.0000000001
40
0
40
0
40
0
40
0
40
1
40
1
40
1
40
1
41
1
41
1
41
1
41
1
10
-66.886667474110922
20
60.356486288706478
30
0
10
-62.058021640777589
20
64.454088242848727
30
0
10
-59.111883640289307
20
68.88717924753827
30
0
10
-56.849170494079587
20
75.459169896443697
30
0
0
SPLINE
5
182
100
AcDbEntity
8
0
100
AcDbSpline
70
4
71
3
72
8
73
4
74
0
42
0.000000001
43
0.0000000001
44
0.0000000001
40
0
40
0
40
0
40
0
40
1
40
1
40
1
40
1
41
1
41
1
41
1
41
1
10
-56.849170494079587
20
75.459169896443697
30
0
10
-55.122232945760096
20
80.475401178995781
30
0
10
-54.628783575693767
20
83.970286369323745
30
0
10
-55.100536918640131
20
87.841666666666669
30
0
0
SPLINE
5
183
100
AcDbEntity
8
0
100
AcDbSpline
70
4
71
3
72
8
73
4
74
0
42
0.000000001
43
0.0000000001
44
0.0000000001
40
0
40
0
40
0
40
0
40
1
40
1
40
1
40
1
41
1
41
1
41
1
41
1
10
-55.100536918640131
20
87.841666666666669
30
0
10
-55.424915536244711
20
90.503907267252615
30
0
10
-55.261670494079588
20
91.156629053751629
30
0
10
-54.271332041422525
20
91.157428423563658
30
0
0
SPLINE
5
184
100
AcDbEntity
8
0
100
AcDbSpline
70
4
71
3
72
8
73
4
74
0
42
0.000000001
43
0.0000000001
44
0.0000000001
40
0
40
0
40
0
40
0
40
1
40
1
40
1
40
1
41
1
41
1
41
1
41
1
10
-54.271332041422525
20
91.157428423563658
30
0
10
-53.392917474110924
20
91.158219718933111
30
0
10
-53.107695865631108
20
90.650216166178396
30
0
10
-53.024089050292964
20
88.935188420613613
30
0
0
SPLINE
5
185
100
AcDbEntity
8
0
100
AcDbSpline
70
4
71
3
72
8
73
4
74
0
42
0.000000001
43
0.0000000001
44
0.0000000001
40
0
40
0
40
0
40
0
40
1
40
1
40
1
40
1
41
1
41
1
41
1
41
1
10
-53.024089050292964
20
88.935188420613613
30
0
10
-52.999482186635333
20
88.430891036987319
30
0
10
-52.926985804239905
20
87.462515068054216
30
0
10
-52.862693055470785
20
86.783333333333346
30
0
0
SPLINE
5
186
100
AcDbEntity
8
0
100
AcDbSpline
70
4
71
3
72
8
73
4
74
0
42
0.000000001
43
0.0000000001
44
0.0000000001
40
0
40
0
40
0
40
0
40
1
40
1
40
1
40
1
41
1
41
1
41
1
41
1
10
-52.862693055470785
20
86.783333333333346
30
0
10
-52.550749079386392
20
83.484511756896978
30
0
10
-52.845756912231451
20
81.006158510843917
30
0
10
-54.046701049804689
20
76.834207089742051
30
0
0
SPLINE
5
187
100
AcDbEntity
8
0
100
AcDbSpline
70
4
71
3
72
8
73
4
74
0
42
0.000000001
43
0.0000000001
44
0.0000000001
40
0
40
0
40
0
40
0
40
1
40
1
40
1
40
1
41
1
41
1
41
1
41
1
10
-54.046701049804689
20
76.834207089742051
30
0
10
-56.274758688608806
20
69.095144589742034
30
0
10
-59.851660029093424
20
63.521958446502708
30
0
10
-65.934165859222404
20
58.313373756408708
30
0
0
SPLINE
5
188
100
AcDbEntity
8
0
100
AcDbSpline
70
4
71
3
72
8
73
4
74
0
42
0.000000001
43
0.0000000001
44
0.0000000001
40
0
40
0
40
0
40
0
40
1
40
1
40
1
40
1
41
1
41
1
41
1
41
1
10
-65.934165859222404
20
58.313373756408708
30
0
10
-70.096060562133786
20
54.749435933431002
30
0
10
-71.889935239156088
20
51.584226195017507
30
0
10
-72.015347480773926
20
47.582932154337584
30
0
0
SPLINE
5
189
100
AcDbEntity
8
0
100
AcDbSpline
70
4
71
3
72
8
73
4
74
0
42
0.000000001
43
0.0000000001
44
0.0000000001
40
0
40
0
40
0
40
0
40
1
40
1
40
1
40
1
41
1
41
1
41
1
41
1
10
-72.015347480773926
20
47.582932154337584
30
0
10
-72.180712064107254
20
42.313490390777602
30
0
10
-69.683577664693203
20
38.342624886830663
30
0
10
-63.526193491617846
20
34.082831605275487
30
0
0
SPLINE
5
190
100
AcDbEntity
8
0
100
AcDbSpline
70
4
71
3
72
8
73
4
74
0
42
0.000000001
43
0.0000000001
44
0.0000000001
40
0
40
0
40
0
40
0
40
1
40
1
40
1
40
1
41
1
41
1
41
1
41
1
10
-63.526193491617846
20
34.082831605275487
30
0
10
-60.331879425048839
20
31.872765843073537
30
0
10
-59.146809641520193
20
30.898305781682346
30
0
10
-57.288642215728771
20
28.953354247411106
30
0
0
SPLINE
5
191
100
AcDbEntity
8
0
100
AcDbSpline
70
4
71
3
72
8
73
4
74
0
42
0.000000001
43
0.0000000001
44
0.0000000001
40
0
40
0
40
0
40
0
40
1
40
1
40
1
40
1
41
1
41
1
41
1
41
1
10
-57.288642215728771
20
28.953354247411106
30
0
10
-53.091026178995776
20
24.559153795242317
30
0
10
-51.751439825693772
20
17.799315277735403
30
0
10
-54.448339970906581
20
14.621668879191089
30
0
0
SPLINE
5
192
100
AcDbEntity
8
0
100
AcDbSpline
70
4
71
3
72
8
73
4
74
0
42
0.000000001
43
0.0000000001
44
0.0000000001
40
0
40
0
40
0
40
0
40
1
40
1
40
1
40
1
41
1
41
1
41
1
41
1
10
-54.448339970906581
20
14.621668879191089
30
0
10
-56.926426760355639
20
11.702256274223334
30
0
10
-61.528326098124197
20
12.81271215279898
30
0
10
-65.969354279836026
20
17.402175839742036
30
0
0
SPLINE
5
193
100
AcDbEntity
8
0
100
AcDbSpline
70
4
71
3
72
8
73
4
74
0
42
0.000000001
43
0.0000000001
44
0.0000000001
40
0
40
0
40
0
40
0
40
1
40
1
40
1
40
1
41
1
41
1
41
1
41
1
10
-65.969354279836026
20
17.402175839742036
30
0
10
-68.264349047342947
20
19.773371140162162
30
0
10
-69.093553924560553
20
21.895857461293549
30
0
10
-69.275325775146499
20
25.862756395339979
30
0
0
SPLINE
5
194
100
AcDbEntity
8
0
100
AcDbSpline
70
4
71
3
72
8
73
4
74
0
42
0.000000001
43
0.0000000001
44
0.0000000001
40
0
40
0
40
0
40
0
40
1
40
1
40
1
40
1
41
1
41
1
41
1
41
1
10
-69.275325775146499
20
25.862756395339979
30
0
10
-69.349142328898125
20
27.476978762944555
30
0
10
-69.575888824462893
20
27.943174870808932
30
0
10
-70.284178924560564
20
27.938412968317682
30
0
0
SPLINE
5
195
100
AcDbEntity
8
0
100
AcDbSpline
70
4
71
3
72
8
73
4
74
0
42
0.000000001
43
0.0000000001
44
0.0000000001
40
0
40
0
40
0
40
0
40
1
40
1
40
1
40
1
41
1
41
1
41
1
41
1
10
-70.284178924560564
20
27.938412968317682
30
0
10
-71.379557800292986
20
27.931269105275483
30
0
10
-72.949859237670907
20
25.76750623385113
30
0
10
-73.073680814107277
20
24.09481077194215
30
0
0
SPLINE
5
196
100
AcDbEntity
8
0
100
AcDbSpline
70
4
71
3
72
8
73
4
74
0
42
0.000000001
43
0.0000000001
44
0.0000000001
40
0
40
0
40
0
40
0
40
1
40
1
40
1
40
1
41
1
41
1
41
1
41
1
10
-73.073680814107277
20
24.09481077194215
30
0
10
-73.140884399414077
20
23.185967667897557
30
0
10
-72.933718427022313
20
22.623992522557586
30
0
10
-71.768762079874676
20
20.554420042037975
30
0
0
SPLINE
5
197
100
AcDbEntity
8
0
100
AcDbSpline
70
4
71
3
72
8
73
4
74
0
42
0.000000001
43
0.0000000001
44
0.0000000001
40
0
40
0
40
0
40
0
40
1
40
1
40
1
40
1
41
1
41
1
41
1
41
1
10
-71.768762079874676
20
20.554420042037975
30
0
10
-70.876584625244149
20
18.969302002588918
30
0
10
-70.642425791422539
20
18.162057590484629
30
0
10
-70.452724838256856
20
16.016023166974396
30
0
0
SPLINE
5
198
100
AcDbEntity
8
0
100
AcDbSpline
70
4
71
3
72
8
73
4
74
0
42
0.000000001
43
0.0000000001
44
0.0000000001
40
0
40
0
40
0
40
0
40
1
40
1
40
1
40
1
41
1
41
1
41
1
41
1
10
-70.452724838256856
20
16.016023166974396
30
0
10
-70.171201324462899
20
12.827794202168795
30
0
10
-69.425082461039239
20
12.07002694606782
30
0
10
-65.934165859222418
20
11.427883688608816
30
0
0
SPLINE
5
199
100
AcDbEntity
8
0
100
AcDbSpline
70
4
71
3
72
8
73
4
74
0
42
0.000000001
43
0.0000000001
44
0.0000000001
40
0
40
0
40
0
40
0
40
1
40
1
40
1
40
1
41
1
41
1
41
1
41
1
10
-65.934165859222418
20
11.427883688608816
30
0
10
-64.479486401875818
20
11.160389518737803
30
0
10
-63.918042151133236
20
10.956395792961132
30
0
10
-61.665644105275483
20
9.8776896317799974
30
0
0
SPLINE
5
200
100
AcDbEntity
8
0
100
AcDbSpline
70
4
71
3
72
8
73
4
74
0
42
0.000000001
43
0.0000000001
44
0.0000000001
40
0
40
0
40
0
40
0
40
1
40
1
40
1
40
1
41
1
41
1
41
1
41
1
10
-61.665644105275483
20
9.8776896317799974
30
0
10
-58.326074854532884
20
8.2785477995872583
30
0
10
-56.623215293884286
20
8.1282647609710761
30
0
10
-54.40256595611573
20
9.2366041262944627
30
0
0
SPLINE
5
201
100
AcDbEntity
8
0
100
AcDbSpline
70
4
71
3
72
8
73
4
74
0
42
0.000000001
43
0.0000000001
44
0.0000000001
40
0
40
0
40
0
40
0
40
1
40
1
40
1
40
1
41
1
41
1
41
1
41
1
10
-54.40256595611573
20
9.2366041262944627
30
0
10
-49.643505668640138
20
11.611239139239002
30
0
10
-47.706228892008468
20
16.97566763559978
30
0
10
-49.312776501973481
20
23.330958414077763
30
0
0
SPLINE
5
202
100
AcDbEntity
8
0
100
AcDbSpline
70
4
71
3
72
8
73
4
74
0
42
0.000000001
43
0.0000000001
44
0.0000000001
40
0
40
0
40
0
40
0
40
1
40
1
40
1
40
1
41
1
41
1
41
1
41
1
10
-49.312776501973481
20
23.330958414077763
30
0
10
-50.416617393493659
20
27.696583414077768
30
0
10
-52.38194478352866
20
30.692195542653412
30
0
10
-56.303334140777601
20
33.984408187866222
30
0
0
SPLINE
5
203
100
AcDbEntity
8
0
100
AcDbSpline
70
4
71
3
72
8
73
4
74
0
42
0.000000001
43
0.0000000001
44
0.0000000001
40
0
40
0
40
0
40
0
40
1
40
1
40
1
40
1
41
1
41
1
41
1
41
1
10
-56.303334140777601
20
33.984408187866222
30
0
10
-58.763164615631112
20
36.049745623270681
30
0
10
-59.51696227391561
20
37.3443492571513
30
0
10
-59.199463081359866
20
38.958042748769138
30
0
0
SPLINE
5
204
100
AcDbEntity
8
0
100
AcDbSpline
70
4
71
3
72
8
73
4
74
0
42
0.000000001
43
0.0000000001
44
0.0000000001
40
0
40
0
40
0
40
0
40
1
40
1
40
1
40
1
41
1
41
1
41
1
41
1
10
-59.199463081359866
20
38.958042748769138
30
0
10
-58.811583010355626
20
40.929454231262227
30
0
10
-57.308222738901769
20
41.808401711781833
30
0
10
-53.909911918640134
20
42.051022561391207
30
0
0
SPLINE
5
205
100
AcDbEntity
8
0
100
AcDbSpline
70
4
71
3
72
8
73
4
74
0
42
0.000000001
43
0.0000000001
44
0.0000000001
40
0
40
0
40
0
40
0
40
1
40
1
40
1
40
1
41
1
41
1
41
1
41
1
10
-53.909911918640134
20
42.051022561391207
30
0
10
-50.198336950937907
20
42.315872351328551
30
0
10
-48.104952939351399
20
43.107240390777605
30
0
10
-45.437690035502108
20
45.253802680969251
30
0
0
SPLINE
5
206
100
AcDbEntity
8
0
100
AcDbSpline
70
4
71
3
72
8
73
4
74
0
42
0.000000001
43
0.0000000001
44
0.0000000001
40
0
40
0
40
0
40
0
40
1
40
1
40
1
40
1
41
1
41
1
41
1
41
1
10
-45.437690035502108
20
45.253802680969251
30
0
10
-40.805628617604569
20
48.982047335306824
30
0
10
-37.870076211293537
20
53.021969509124773
30
0
10
-34.421764405568439
20
60.414428488413499
30
0
0
SPLINE
5
207
100
AcDbEntity
8
0
100
AcDbSpline
70
4
71
3
72
8
73
4
74
0
42
0.000000001
43
0.0000000001
44
0.0000000001
40
0
40
0
40
0
40
0
40
1
40
1
40
1
40
1
41
1
41
1
41
1
41
1
10
-34.421764405568439
20
60.414428488413499
30
0
10
-31.887848901748654
20
65.846323998769122
30
0
10
-30.826869169871006
20
69.093029085795095
30
0
10
-31.292005507151281
20
69.992610804239916
30
0
0
SPLINE
5
208
100
AcDbEntity
8
0
100
AcDbSpline
70
4
71
3
72
8
73
4
74
0
42
0.000000001
43
0.0000000001
44
0.0000000001
40
0
40
0
40
0
40
0
40
1
40
1
40
1
40
1
41
1
41
1
41
1
41
1
10
-31.292005507151281
20
69.992610804239916
30
0
10
-31.608182509740189
20
70.603531201680511
30
0
10
-32.30827099482218
20
70.412506039937341
30
0
10
-33.016296656926471
20
69.521919250488295
30
0
0
SPLINE
5
209
100
AcDbEntity
8
0
100
AcDbSpline
70
4
71
3
72
8
73
4
74
0
42
0.000000001
43
0.0000000001
44
0.0000000001
40
0
40
0
40
0
40
0
40
1
40
1
40
1
40
1
41
1
41
1
41
1
41
1
10
-33.016296656926471
20
69.521919250488295
30
0
10
-33.933870251973467
20
68.367806879679364
30
0
10
-34.160616747538242
20
68.101108042399105
30
0
10
-34.514632606506346
20
67.759260368347171
30
0
0
SPLINE
5
210
100
AcDbEntity
8
0
100
AcDbSpline
70
4
71
3
72
8
73
4
74
0
42
0.000000001
43
0.0000000001
44
0.0000000001
40
0
40
0
40
0
40
0
40
1
40
1
40
1
40
1
41
1
41
1
41
1
41
1
10
-34.514632606506346
20
67.759260368347171
30
0
10
-36.996687984466547
20
65.362136014302592
30
0
10
-39.319729328155518
20
65.844208494822198
30
0
10
-41.018353843688963
20
69.109169896443703
30
0
0
SPLINE
5
211
100
AcDbEntity
8
0
100
AcDbSpline
70
4
71
3
72
8
73
4
74
0
42
0.000000001
43
0.0000000001
44
0.0000000001
40
0
40
0
40
0
40
0
40
1
40
1
40
1
40
1
41
1
41
1
41
1
41
1
10
-41.018353843688963
20
69.109169896443703
30
0
10
-41.635628827412923
20
70.295822270711284
30
0
10
-42.072985045115146
20
70.575488662719749
30
0
10
-42.795029958089188
20
70.245284334818535
30
0
0
SPLINE
5
212
100
AcDbEntity
8
0
100
AcDbSpline
70
4
71
3
72
8
73
4
74
0
42
0.000000001
43
0.0000000001
44
0.0000000001
40
0
40
0
40
0
40
0
40
1
40
1
40
1
40
1
41
1
41
1
41
1
41
1
10
-42.795029958089188
20
70.245284334818535
30
0
10
-43.258317248026529
20
70.033620897928898
30
0
10
-43.553325080871581
20
69.681462160746278
30
0
10
-44.840524450937906
20
67.803976631164574
30
0
0
SPLINE
5
213
100
AcDbEntity
8
0
100
AcDbSpline
70
4
71
3
72
8
73
4
74
0
42
0.000000001
43
0.0000000001
44
0.0000000001
40
0
40
0
40
0
40
0
40
1
40
1
40
1
40
1
41
1
41
1
41
1
41
1
10
-44.840524450937906
20
67.803976631164574
30
0
10
-46.829134496053058
20
64.902821350097668
30
0
10
-47.741679732004798
20
63.901901340484635
30
0
10
-49.152438259124757
20
63.074549547831239
30
0
0
SPLINE
5
214
100
AcDbEntity
8
0
100
AcDbSpline
70
4
71
3
72
8
73
4
74
0
42
0.000000001
43
0.0000000001
44
0.0000000001
40
0
40
0
40
0
40
0
40
1
40
1
40
1
40
1
41
1
41
1
41
1
41
1
10
-49.152438259124757
20
63.074549547831239
30
0
10
-51.195817248026529
20
61.876253827412945
30
0
10
-53.450068378448485
20
62.417855135599787
30
0
10
-54.356529521942136
20
64.324707412719746
30
0
0
SPLINE
5
215
100
AcDbEntity
8
0
100
AcDbSpline
70
4
71
3
72
8
73
4
74
0
42
0.000000001
43
0.0000000001
44
0.0000000001
40
0
40
0
40
0
40
0
40
1
40
1
40
1
40
1
41
1
41
1
41
1
41
1
10
-54.356529521942136
20
64.324707412719746
30
0
10
-55.050265439351392
20
65.783884334564235
30
0
10
-54.850241311391194
20
67.391756153106712
30
0
10
-53.474937661488852
20
71.412897173563664
30
0
0
SPLINE
5
216
100
AcDbEntity
8
0
100
AcDbSpline
70
4
71
3
72
8
73
4
74
0
42
0.000000001
43
0.0000000001
44
0.0000000001
40
0
40
0
40
0
40
0
40
1
40
1
40
1
40
1
41
1
41
1
41
1
41
1
10
-53.474937661488852
20
71.412897173563664
30
0
10
-52.49571367899577
20
74.275682703653999
30
0
10
-52.258381589253744
20
75.225535901387545
30
0
10
-51.724455038706466
20
78.42249838511151
30
0
0
SPLINE
5
217
100
AcDbEntity
8
0
100
AcDbSpline
70
4
71
3
72
8
73
4
74
0
42
0.000000001
43
0.0000000001
44
0.0000000001
40
0
40
0
40
0
40
0
40
1
40
1
40
1
40
1
41
1
41
1
41
1
41
1
10
-51.724455038706466
20
78.42249838511151
30
0
10
-50.966688791910798
20
82.95825188954673
30
0
10
-50.893663533528645
20
84.473517926534043
30
0
10
-51.262491957346597
20
88.007822545369478
30
0
0
SPLINE
5
218
100
AcDbEntity
8
0
100
AcDbSpline
70
4
71
3
72
8
73
4
74
0
42
0.000000001
43
0.0000000001
44
0.0000000001
40
0
40
0
40
0
40
0
40
1
40
1
40
1
40
1
41
1
41
1
41
1
41
1
10
-51.262491957346597
20
88.007822545369478
30
0
10
-51.408804893493645
20
89.410377438863136
30
0
10
-51.396370251973465
20
90.480887031555199
30
0
10
-51.229419040679929
20
90.848395284016945
30
0
0
SPLINE
5
219
100
AcDbEntity
8
0
100
AcDbSpline
70
4
71
3
72
8
73
4
74
0
42
0.000000001
43
0.0000000001
44
0.0000000001
40
0
40
0
40
0
40
0
40
1
40
1
40
1
40
1
41
1
41
1
41
1
41
1
10
-51.229419040679929
20
90.848395284016945
30
0
10
-50.836512629191077
20
91.714104715983083
30
0
10
-49.676049709320068
20
91.847195752461772
30
0
10
-49.275734996795649
20
91.073026275634774
30
0
0
SPLINE
5
220
100
AcDbEntity
8
0
100
AcDbSpline
70
4
71
3
72
8
73
4
74
0
42
0.000000001
43
0.0000000001
44
0.0000000001
40
0
40
0
40
0
40
0
40
1
40
1
40
1
40
1
41
1
41
1
41
1
41
1
10
-49.275734996795649
20
91.073026275634774
30
0
10
-48.903729279836021
20
90.353884124755865
30
0
10
-48.651055749257409
20
83.672888501485204
30
0
10
-48.917225710550944
20
81.597498385111493
30
0
0
SPLINE
5
221
100
AcDbEntity
8
0
100
AcDbSpline
70
4
71
3
72
8
73
4
74
0
42
0.000000001
43
0.0000000001
44
0.0000000001
40
0
40
0
40
0
40
0
40
1
40
1
40
1
40
1
41
1
41
1
41
1
41
1
10
-48.917225710550944
20
81.597498385111493
30
0
10
-49.555134932200112
20
76.620420074462913
30
0
10
-50.149656136830643
20
73.922466214497902
30
0
10
-51.412244606018064
20
70.273334948221859
30
0
0
SPLINE
5
222
100
AcDbEntity
8
0
100
AcDbSpline
70
4
71
3
72
8
73
4
74
0
42
0.000000001
43
0.0000000001
44
0.0000000001
40
0
40
0
40
0
40
0
40
1
40
1
40
1
40
1
41
1
41
1
41
1
41
1
10
-51.412244606018064
20
70.273334948221859
30
0
10
-52.448619492848714
20
67.277454344431575
30
0
10
-52.6597580909729
20
65.954537677764918
30
0
10
-52.215784867604569
20
65.236461353302019
30
0
0
SPLINE
5
223
100
AcDbEntity
8
0
100
AcDbSpline
70
4
71
3
72
8
73
4
74
0
42
0.000000001
43
0.0000000001
44
0.0000000001
40
0
40
0
40
0
40
0
40
1
40
1
40
1
40
1
41
1
41
1
41
1
41
1
10
-52.215784867604569
20
65.236461353302019
30
0
10
-51.454316488901775
20
64.004030927022313
30
0
10
-49.68901322682698
20
64.888533624013277
30
0
10
-47.936148643493652
20
67.380645720163997
30
0
0
SPLINE
5
224
100
AcDbEntity
8
0
100
AcDbSpline
70
4
71
3
72
8
73
4
74
0
42
0.000000001
43
0.0000000001
44
0.0000000001
40
0
40
0
40
0
40
0
40
1
40
1
40
1
40
1
41
1
41
1
41
1
41
1
10
-47.936148643493652
20
67.380645720163997
30
0
10
-45.858905442555738
20
70.333925565083845
30
0
10
-45.584798304239911
20
70.696136983235704
30
0
10
-44.910638872782386
20
71.379824256896995
30
0
0
SPLINE
5
225
100
AcDbEntity
8
0
100
AcDbSpline
70
4
71
3
72
8
73
4
74
0
42
0.000000001
43
0.0000000001
44
0.0000000001
40
0
40
0
40
0
40
0
40
1
40
1
40
1
40
1
41
1
41
1
41
1
41
1
10
-44.910638872782386
20
71.379824256896995
30
0
10
-42.883400694529215
20
73.435900306701683
30
0
10
-40.6556095123291
20
73.057540003458683
30
0
10
-39.162568378448483
20
70.403769493103042
30
0
0
SPLINE
5
226
100
AcDbEntity
8
0
100
AcDbSpline
70
4
71
3
72
8
73
4
74
0
42
0.000000001
43
0.0000000001
44
0.0000000001
40
0
40
0
40
0
40
0
40
1
40
1
40
1
40
1
41
1
41
1
41
1
41
1
10
-39.162568378448483
20
70.403769493103042
30
0
10
-37.810280927022298
20
68.000298627217632
30
0
10
-37.124482186635333
20
68.013791020711281
30
0
10
-35.102536805470777
20
70.484998385111496
30
0
0
SPLINE
5
227
100
AcDbEntity
8
0
100
AcDbSpline
70
4
71
3
72
8
73
4
74
0
42
0.000000001
43
0.0000000001
44
0.0000000001
40
0
40
0
40
0
40
0
40
1
40
1
40
1
40
1
41
1
41
1
41
1
41
1
10
-35.102536805470777
20
70.484998385111496
30
0
10
-33.371101792653398
20
72.601140213012712
30
0
10
-32.163544686635333
20
73.162580426534035
30
0
10
-30.742731459935506
20
72.512240600585955
30
0
0
SPLINE
5
228
100
AcDbEntity
8
0
100
AcDbSpline
70
4
71
3
72
8
73
4
74
0
42
0.000000001
43
0.0000000001
44
0.0000000001
40
0
40
0
40
0
40
0
40
1
40
1
40
1
40
1
41
1
41
1
41
1
41
1
10
-30.742731459935506
20
72.512240600585955
30
0
10
-28.558596769968663
20
71.512115923563641
30
0
10
-28.614687903722125
20
68.31144727071127
30
0
10
-30.914446592330926
20
62.731119283040371
30
0
0
SPLINE
5
229
100
AcDbEntity
8
0
100
AcDbSpline
70
4
71
3
72
8
73
4
74
0
42
0.000000001
43
0.0000000001
44
0.0000000001
40
0
40
0
40
0
40
0
40
1
40
1
40
1
40
1
41
1
41
1
41
1
41
1
10
-30.914446592330926
20
62.731119283040371
30
0
10
-35.234562015533449
20
52.248857784271252
30
0
10
-40.076700242360424
20
45.610725339253761
30
0
10
-46.002311579386387
20
42.047849305470805
30
0
0
SPLINE
5
230
100
AcDbEntity
8
0
100
AcDbSpline
70
4
71
3
72
8
73
4
74
0
42
0.000000001
43
0.0000000001
44
0.0000000001
40
0
40
0
40
0
40
0
40
1
40
1
40
1
40
1
41
1
41
1
41
1
41
1
10
-46.002311579386387
20
42.047849305470805
30
0
10
-48.394938468933105
20
40.609044202168796
30
0
10
-50.222148482004798
20
40.071411482493097
30
0
10
-53.798520946502684
20
39.754174709320075
30
0
0
SPLINE
5
231
100
AcDbEntity
8
0
100
AcDbSpline
70
4
71
3
72
8
73
4
74
0
42
0.000000001
43
0.0000000001
44
0.0000000001
40
0
40
0
40
0
40
0
40
1
40
1
40
1
40
1
41
1
41
1
41
1
41
1
10
-53.798520946502684
20
39.754174709320075
30
0
10
-55.945353730519614
20
39.563674386342377
30
0
10
-56.604430103301993
20
39.324493249257422
30
0
10
-56.863191763559975
20
38.642130184173602
30
0
0
SPLINE
5
232
100
AcDbEntity
8
0
100
AcDbSpline
70
4
71
3
72
8
73
4
74
0
42
0.000000001
43
0.0000000001
44
0.0000000001
40
0
40
0
40
0
40
0
40
1
40
1
40
1
40
1
41
1
41
1
41
1
41
1
10
-56.863191763559975
20
38.642130184173602
30
0
10
-57.142062822977699
20
37.906059964497899
30
0
10
-56.731428972880039
20
37.281643136342382
30
0
10
-55.033333333333339
20
35.858716424306245
30
0
0
SPLINE
5
233
100
AcDbEntity
8
0
100
AcDbSpline
70
4
71
3
72
8
73
4
74
0
42
0.000000001
43
0.0000000001
44
0.0000000001
40
0
40
0
40
0
40
0
40
1
40
1
40
1
40
1
41
1
41
1
41
1
41
1
10
-55.033333333333339
20
35.858716424306245
30
0
10
-51.614121818542486
20
32.993540859222421
30
0
10
-50.089856815338145
20
31.137753375371307
30
0
10
-48.587287839253754
20
28.010642894109097
30
0
0
SPLINE
5
234
100
AcDbEntity
8
0
100
AcDbSpline
70
4
71
3
72
8
73
4
74
0
42
0.000000001
43
0.0000000001
44
0.0000000001
40
0
40
0
40
0
40
0
40
1
40
1
40
1
40
1
41
1
41
1
41
1
41
1
10
-48.587287839253754
20
28.010642894109097
30
0
10
-46.772778924306238
20
24.233717425664274
30
0
10
-46.106027793884287
20
19.565407816569021
30
0
10
-46.859030119578051
20
15.910189429918935
30
0
0
SPLINE
5
235
100
AcDbEntity
8
0
100
AcDbSpline
70
4
71
3
72
8
73
4
74
0
42
0.000000001
43
0.0000000001
44
0.0000000001
40
0
40
0
40
0
40
0
40
1
40
1
40
1
40
1
41
1
41
1
41
1
41
1
10
-46.859030119578051
20
15.910189429918935
30
0
10
-48.133265972137458
20
9.7258184512456332
30
0
10
-53.805137952168785
20
5.4181376695633006
30
0
10
-59.125642490386966
20
6.5939460674921762
30
0
0
SPLINE
5
236
100
AcDbEntity
8
0
100
AcDbSpline
70
4
71
3
72
8
73
4
74
0
42
0.000000001
43
0.0000000001
44
0.0000000001
40
0
40
0
40
0
40
0
40
1
40
1
40
1
40
1
41
1
41
1
41
1
41
1
10
-106.31254838849551
20
12.092883444290006
30
0
10
-100.9189999596306
20
12.646387084043841
30
0
10
-95.207103601250424
20
16.346541298219933
30
0
10
-91.682318410464191
20
21.569700947917923
30
0
0
SPLINE
5
237
100
AcDbEntity
8
0
100
AcDbSpline
70
4
71
3
72
8
73
4
74
0
42
0.000000001
43
0.0000000001
44
0.0000000001
40
0
40
0
40
0
40
0
40
1
40
1
40
1
40
1
41
1
41
1
41
1
41
1
10
-91.682318410464191
20
21.569700947917923
30
0
10
-85.747722178760952
20
30.364481559678612
30
0
10
-86.435244846224251
20
44.617571829894203
30
0
10
-93.354289307846003
20
56.219725897664709
30
0
0
SPLINE
5
238
100
AcDbEntity
8
0
100
AcDbSpline
70
4
71
3
72
8
73
4
74
0
42
0.000000001
43
0.0000000001
44
0.0000000001
40
0
40
0
40
0
40
0
40
1
40
1
40
1
40
1
41
1
41
1
41
1
41
1
10
-93.354289307846003
20
56.219725897664709
30
0
10
-95.775054795510158
20
60.280081667915688
30
0
10
-98.300446272474389
20
63.058060185022214
30
0
10
-103.62623829338817
20
67.520967166811431
30
0
0
SPLINE
5
239
100
AcDbEntity
8
0
100
AcDbSpline
70
4
71
3
72
8
73
4
74
0
42
0.000000001
43
0.0000000001
44
0.0000000001
40
0
40
0
40
0
40
0
40
1
40
1
40
1
40
1
41
1
41
1
41
1
41
1
10
-103.62623829338817
20
67.520967166811431
30
0
10
-106.82370522352683
20
70.200298648376858
30
0
10
-107.59691735923036
20
71.376058194630858
30
0
10
-107.07181089909076
20
72.762057976304646
30
0
0
SPLINE
5
240
100
AcDbEntity
8
0
100
AcDbSpline
70
4
71
3
72
8
73
4
74
0
42
0.000000001
43
0.0000000001
44
0.0000000001
40
0
40
0
40
0
40
0
40
1
40
1
40
1
40
1
41
1
41
1
41
1
41
1
10
-107.07181089909076
20
72.762057976304646
30
0
10
-106.58456987909526
20
74.046928677424859
30
0
10
-105.34354737286588
20
74.497300116071429
30
0
10
-101.30112086191623
20
74.856006933706595
30
0
0
SPLINE
5
241
100
AcDbEntity
8
0
100
AcDbSpline
70
4
71
3
72
8
73
4
74
0
42
0.000000001
43
0.0000000001
44
0.0000000001
40
0
40
0
40
0
40
0
40
1
40
1
40
1
40
1
41
1
41
1
41
1
41
1
10
-101.30112086191623
20
74.856006933706595
30
0
10
-94.566910833473401
20
75.453354967363509
30
0
10
-91.126325123722367
20
76.465702447498643
30
0
10
-86.621075138198407
20
79.174932498846601
30
0
0
SPLINE
5
242
100
AcDbEntity
8
0
100
AcDbSpline
70
4
71
3
72
8
73
4
74
0
42
0.000000001
43
0.0000000001
44
0.0000000001
40
0
40
0
40
0
40
0
40
1
40
1
40
1
40
1
41
1
41
1
41
1
41
1
10
-86.621075138198407
20
79.174932498846601
30
0
10
-75.463313555315509
20
85.883729123073039
30
0
10
-66.345701748967286
20
98.383148164329015
30
0
10
-58.211044384344788
20
118.12095545551725
30
0
0
SPLINE
5
243
100
AcDbEntity
8
0
100
AcDbSpline
70
4
71
3
72
8
73
4
74
0
42
0.000000001
43
0.0000000001
44
0.0000000001
40
0
40
0
40
0
40
0
40
1
40
1
40
1
40
1
41
1
41
1
41
1
41
1
10
-58.211044384344788
20
118.12095545551725
30
0
10
-53.880662642072238
20
128.62855808069557
30
0
10
-53.775044594964747
20
134.65532826577112
30
0
10
-57.887709558877994
20
136.53853525736793
30
0
0
SPLINE
5
244
100
AcDbEntity
8
0
100
AcDbSpline
70
4
71
3
72
8
73
4
74
0
42
0.000000001
43
0.0000000001
44
0.0000000001
40
0
40
0
40
0
40
0
40
1
40
1
40
1
40
1
41
1
41
1
41
1
41
1
10
-57.887709558877994
20
136.53853525736793
30
0
10
-60.563061406250391
20
137.76310708853768
30
0
10
-62.83685790087975
20
136.70593075866759
30
0
10
-66.097101944993554
20
132.72129446574155
30
0
0
SPLINE
5
245
100
AcDbEntity
8
0
100
AcDbSpline
70
4
71
3
72
8
73
4
74
0
42
0.000000001
43
0.0000000001
44
0.0000000001
40
0
40
0
40
0
40
0
40
1
40
1
40
1
40
1
41
1
41
1
41
1
41
1
10
-66.097101944993554
20
132.72129446574155
30
0
10
-69.904368944716865
20
128.06807962838758
30
0
10
-71.195708927018103
20
128.04267382614674
30
0
10
-73.742028642632562
20
132.56834271796001
30
0
0
SPLINE
5
246
100
AcDbEntity
8
0
100
AcDbSpline
70
4
71
3
72
8
73
4
74
0
42
0.000000001
43
0.0000000001
44
0.0000000001
40
0
40
0
40
0
40
0
40
1
40
1
40
1
40
1
41
1
41
1
41
1
41
1
10
-73.742028642632562
20
132.56834271796001
30
0
10
-76.55338363332929
20
137.56531888904564
30
0
10
-80.748252559699566
20
138.27776083231549
30
0
10
-84.565485749350401
20
134.406226731412
30
0
0
SPLINE
5
247
100
AcDbEntity
8
0
100
AcDbSpline
70
4
71
3
72
8
73
4
74
0
42
0.000000001
43
0.0000000001
44
0.0000000001
40
0
40
0
40
0
40
0
40
1
40
1
40
1
40
1
41
1
41
1
41
1
41
1
10
-84.565485749350401
20
134.406226731412
30
0
10
-85.834909236181744
20
133.11886258231601
30
0
10
-86.351045365189066
20
132.43682854118961
30
0
10
-90.262436623827085
20
126.87588461102504
30
0
0
SPLINE
5
248
100
AcDbEntity
8
0
100
AcDbSpline
70
4
71
3
72
8
73
4
74
0
42
0.000000001
43
0.0000000001
44
0.0000000001
40
0
40
0
40
0
40
0
40
1
40
1
40
1
40
1
41
1
41
1
41
1
41
1
10
-90.262436623827085
20
126.87588461102504
30
0
10
-93.563031954085233
20
122.18330674434637
30
0
10
-96.887048970969389
20
120.51781273012109
30
0
10
-98.320872780739279
20
122.83844499602691
30
0
0
SPLINE
5
249
100
AcDbEntity
8
0
100
AcDbSpline
70
4
71
3
72
8
73
4
74
0
42
0.000000001
43
0.0000000001
44
0.0000000001
40
0
40
0
40
0
40
0
40
1
40
1
40
1
40
1
41
1
41
1
41
1
41
1
10
-98.320872780739279
20
122.83844499602691
30
0
10
-99.15686203041794
20
124.19056277273734
30
0
10
-98.759293913843464
20
126.68157811632841
30
0
10
-96.807828783910168
20
132.32273809234738
30
0
0
SPLINE
5
250
100
AcDbEntity
8
0
100
AcDbSpline
70
4
71
3
72
8
73
4
74
0
42
0.000000001
43
0.0000000001
44
0.0000000001
40
0
40
0
40
0
40
0
40
1
40
1
40
1
40
1
41
1
41
1
41
1
41
1
10
-96.807828783910168
20
132.32273809234738
30
0
10
-94.430409760751473
20
139.19395092389752
30
0
10
-93.310942843340541
20
144.27412311524759
30
0
10
-92.109777494845687
20
153.64582335190644
30
0
0
SPLINE
5
251
100
AcDbEntity
8
0
100
AcDbSpline
70
4
71
3
72
8
73
4
74
0
42
0.000000001
43
0.0000000001
44
0.0000000001
40
0
40
0
40
0
40
0
40
1
40
1
40
1
40
1
41
1
41
1
41
1
41
1
10
-92.109777494845687
20
153.64582335190644
30
0
10
-91.608586849741883
20
157.55372530377349
30
0
10
-92.084364090629293
20
170.13385451929378
30
0
10
-92.784840524405723
20
171.48797921754567
30
0
0
SPLINE
5
252
100
AcDbEntity
8
0
100
AcDbSpline
70
4
71
3
72
8
73
4
74
0
42
0.000000001
43
0.0000000001
44
0.0000000001
40
0
40
0
40
0
40
0
40
1
40
1
40
1
40
1
41
1
41
1
41
1
41
1
10
-92.784840524405723
20
171.48797921754567
30
0
10
-93.538622010639585
20
172.9457188423514
30
0
10
-95.723741460643126
20
172.69511211683619
30
0
10
-96.463573321768692
20
171.06500529873034
30
0
0
SPLINE
5
253
100
AcDbEntity
8
0
100
AcDbSpline
70
4
71
3
72
8
73
4
74
0
42
0.000000001
43
0.0000000001
44
0.0000000001
40
0
40
0
40
0
40
0
40
1
40
1
40
1
40
1
41
1
41
1
41
1
41
1
10
-96.463573321768692
20
171.06500529873034
30
0
10
-96.777937816103162
20
170.37299746570088
30
0
10
-96.801351900753616
20
168.35725763261189
30
0
10
-96.52584870535847
20
165.71628571960042
30
0
0
SPLINE
5
254
100
AcDbEntity
8
0
100
AcDbSpline
70
4
71
3
72
8
73
4
74
0
42
0.000000001
43
0.0000000001
44
0.0000000001
40
0
40
0
40
0
40
0
40
1
40
1
40
1
40
1
41
1
41
1
41
1
41
1
10
-96.52584870535847
20
165.71628571960042
30
0
10
-95.831355026328779
20
159.06128827624124
30
0
10
-95.968859559821439
20
156.20808441021961
30
0
10
-97.395712358024937
20
147.6673865272879
30
0
0
SPLINE
5
255
100
AcDbEntity
8
0
100
AcDbSpline
70
4
71
3
72
8
73
4
74
0
42
0.000000001
43
0.0000000001
44
0.0000000001
40
0
40
0
40
0
40
0
40
1
40
1
40
1
40
1
41
1
41
1
41
1
41
1
10
-97.395712358024937
20
147.6673865272879
30
0
10
-98.401081224618139
20
141.64759495575427
30
0
10
-98.84797095846929
20
139.85904776353004
30
0
10
-100.69182252271693
20
134.46850211500177
30
0
0
SPLINE
5
256
100
AcDbEntity
8
0
100
AcDbSpline
70
4
71
3
72
8
73
4
74
0
42
0.000000001
43
0.0000000001
44
0.0000000001
40
0
40
0
40
0
40
0
40
1
40
1
40
1
40
1
41
1
41
1
41
1
41
1
10
-100.69182252271693
20
134.46850211500177
30
0
10
-103.28148110086133
20
126.89680524769972
30
0
10
-103.65812097878559
20
123.86922726683649
30
0
10
-102.35183551258083
20
121.12163764693457
30
0
0
SPLINE
5
257
100
AcDbEntity
8
0
100
AcDbSpline
70
4
71
3
72
8
73
4
74
0
42
0.000000001
43
0.0000000001
44
0.0000000001
40
0
40
0
40
0
40
0
40
1
40
1
40
1
40
1
41
1
41
1
41
1
41
1
10
-102.35183551258083
20
121.12163764693457
30
0
10
-100.64499435341602
20
117.53108776578757
30
0
10
-96.400302079383721
20
116.5112675437007
30
0
10
-92.552676191540513
20
118.76762510645079
30
0
0
SPLINE
5
258
100
AcDbEntity
8
0
100
AcDbSpline
70
4
71
3
72
8
73
4
74
0
42
0.000000001
43
0.0000000001
44
0.0000000001
40
0
40
0
40
0
40
0
40
1
40
1
40
1
40
1
41
1
41
1
41
1
41
1
10
-92.552676191540513
20
118.76762510645079
30
0
10
-89.89625706424016
20
120.32550555499041
30
0
10
-88.177959727942806
20
122.21021013576777
30
0
10
-84.4334622402191
20
127.67300495978886
30
0
0
SPLINE
5
259
100
AcDbEntity
8
0
100
AcDbSpline
70
4
71
3
72
8
73
4
74
0
42
0.000000001
43
0.0000000001
44
0.0000000001
40
0
40
0
40
0
40
0
40
1
40
1
40
1
40
1
41
1
41
1
41
1
41
1
10
-84.4334622402191
20
127.67300495978886
30
0
10
-82.009701574193798
20
131.20825807088798
30
0
10
-81.45421001783734
20
131.87136319293009
30
0
10
-80.581852917195107
20
132.26991956632423
30
0
0
SPLINE
5
260
100
AcDbEntity
8
0
100
AcDbSpline
70
4
71
3
72
8
73
4
74
0
42
0.000000001
43
0.0000000001
44
0.0000000001
40
0
40
0
40
0
40
0
40
1
40
1
40
1
40
1
41
1
41
1
41
1
41
1
10
-80.581852917195107
20
132.26991956632423
30
0
10
-79.222262398532905
20
132.89168514540233
30
0
10
-78.398732786757506
20
132.36508109608215
30
0
10
-77.236421135226436
20
130.13064763077747
30
0
0
SPLINE
5
261
100
AcDbEntity
8
0
100
AcDbSpline
70
4
71
3
72
8
73
4
74
0
42
0.000000001
43
0.0000000001
44
0.0000000001
40
0
40
0
40
0
40
0
40
1
40
1
40
1
40
1
41
1
41
1
41
1
41
1
10
-77.236421135226436
20
130.13064763077747
30
0
10
-74.037958346292584
20
123.98281598529334
30
0
10
-69.663736011104717
20
123.07508689248274
30
0
10
-64.990094665485884
20
127.58880547875366
30
0
0
SPLINE
5
262
100
AcDbEntity
8
0
100
AcDbSpline
70
4
71
3
72
8
73
4
74
0
42
0.000000001
43
0.0000000001
44
0.0000000001
40
0
40
0
40
0
40
0
40
1
40
1
40
1
40
1
41
1
41
1
41
1
41
1
10
-64.990094665485884
20
127.58880547875366
30
0
10
-64.32349263469726
20
128.23249515527718
30
0
10
-63.896535280701144
20
128.7346816591762
30
0
10
-62.168769683873876
20
130.90784320166182
30
0
0
SPLINE
5
263
100
AcDbEntity
8
0
100
AcDbSpline
70
4
71
3
72
8
73
4
74
0
42
0.000000001
43
0.0000000001
44
0.0000000001
40
0
40
0
40
0
40
0
40
1
40
1
40
1
40
1
41
1
41
1
41
1
41
1
10
-62.168769683873876
20
130.90784320166182
30
0
10
-60.835577025259944
20
132.58479339301962
30
0
10
-59.51732985054953
20
132.94448846747446
30
0
10
-58.921977335470778
20
131.79414232543684
30
0
0
SPLINE
5
264
100
AcDbEntity
8
0
100
AcDbSpline
70
4
71
3
72
8
73
4
74
0
42
0.000000001
43
0.0000000001
44
0.0000000001
40
0
40
0
40
0
40
0
40
1
40
1
40
1
40
1
41
1
41
1
41
1
41
1
10
-58.921977335470778
20
131.79414232543684
30
0
10
-58.046138530033112
20
130.10025493258513
30
0
10
-60.043933899869721
20
123.98679942047414
30
0
10
-64.81522642223446
20
113.75869102784728
30
0
0
SPLINE
5
265
100
AcDbEntity
8
0
100
AcDbSpline
70
4
71
3
72
8
73
4
74
0
42
0.000000001
43
0.0000000001
44
0.0000000001
40
0
40
0
40
0
40
0
40
1
40
1
40
1
40
1
41
1
41
1
41
1
41
1
10
-64.81522642223446
20
113.75869102784728
30
0
10
-71.308301786679749
20
99.838896071544355
30
0
10
-76.835865442266353
20
92.231834814049435
30
0
10
-85.557908451606039
20
85.211653669898595
30
0
0
SPLINE
5
266
100
AcDbEntity
8
0
100
AcDbSpline
70
4
71
3
72
8
73
4
74
0
42
0.000000001
43
0.0000000001
44
0.0000000001
40
0
40
0
40
0
40
0
40
1
40
1
40
1
40
1
41
1
41
1
41
1
41
1
10
-85.557908451606039
20
85.211653669898595
30
0
10
-90.580290424932514
20
81.169736491309834
30
0
10
-94.522074381762891
20
79.679612450721365
30
0
10
-101.51086696892618
20
79.180907651617787
30
0
0
SPLINE
5
267
100
AcDbEntity
8
0
100
AcDbSpline
70
4
71
3
72
8
73
4
74
0
42
0.000000001
43
0.0000000001
44
0.0000000001
40
0
40
0
40
0
40
0
40
1
40
1
40
1
40
1
41
1
41
1
41
1
41
1
10
-101.51086696892618
20
79.180907651617787
30
0
10
-107.90979186635983
20
78.724059329814665
30
0
10
-110.74057750652621
20
77.069025633926728
30
0
10
-111.47094490810964
20
73.356912561985794
30
0
0
SPLINE
5
268
100
AcDbEntity
8
0
100
AcDbSpline
70
4
71
3
72
8
73
4
74
0
42
0.000000001
43
0.0000000001
44
0.0000000001
40
0
40
0
40
0
40
0
40
1
40
1
40
1
40
1
41
1
41
1
41
1
41
1
10
-111.47094490810964
20
73.356912561985794
30
0
10
-112.06878707017637
20
70.318372532399849
30
0
10
-110.6494070139246
20
67.880669843241776
30
0
10
-106.0176145436307
20
63.99169681045904
30
0
0
SPLINE
5
269
100
AcDbEntity
8
0
100
AcDbSpline
70
4
71
3
72
8
73
4
74
0
42
0.000000001
43
0.0000000001
44
0.0000000001
40
0
40
0
40
0
40
0
40
1
40
1
40
1
40
1
41
1
41
1
41
1
41
1
10
-106.0176145436307
20
63.99169681045904
30
0
10
-98.633747287868687
20
57.792551830107826
30
0
10
-94.933090393060297
20
52.151897385461972
30
0
10
-92.854588649947218
20
43.931546751611464
30
0
0
SPLINE
5
270
100
AcDbEntity
8
0
100
AcDbSpline
70
4
71
3
72
8
73
4
74
0
42
0.000000001
43
0.0000000001
44
0.0000000001
40
0
40
0
40
0
40
0
40
1
40
1
40
1
40
1
41
1
41
1
41
1
41
1
10
-92.854588649947218
20
43.931546751611464
30
0
10
-89.829504117059741
20
31.964710713434627
30
0
10
-93.477342485845
20
21.86364083448143
30
0
10
-102.43852083961626
20
17.392269052933024
30
0
0
SPLINE
5
271
100
AcDbEntity
8
0
100
AcDbSpline
70
4
71
3
72
8
73
4
74
0
42
0.000000001
43
0.0000000001
44
0.0000000001
40
0
40
0
40
0
40
0
40
1
40
1
40
1
40
1
41
1
41
1
41
1
41
1
10
-102.43852083961626
20
17.392269052933024
30
0
10
-106.61994187126361
20
15.305296808579111
30
0
10
-109.82637913253457
20
15.588275596666843
30
0
10
-116.11469528592144
20
18.599415255680714
30
0
0
SPLINE
5
272
100
AcDbEntity
8
0
100
AcDbSpline
70
4
71
3
72
8
73
4
74
0
42
0.000000001
43
0.0000000001
44
0.0000000001
40
0
40
0
40
0
40
0
40
1
40
1
40
1
40
1
41
1
41
1
41
1
41
1
10
-116.11469528592144
20
18.599415255680714
30
0
10
-120.35589825318281
20
20.630588999601404
30
0
10
-121.41308218502844
20
21.014703519971292
30
0
10
-124.15220320418341
20
21.518387613050862
30
0
0
SPLINE
5
273
100
AcDbEntity
8
0
100
AcDbSpline
70
4
71
3
72
8
73
4
74
0
42
0.000000001
43
0.0000000001
44
0.0000000001
40
0
40
0
40
0
40
0
40
1
40
1
40
1
40
1
41
1
41
1
41
1
41
1
10
-124.15220320418341
20
21.518387613050862
30
0
10
-130.72550221645864
20
22.727525533388942
30
0
10
-132.13042331524119
20
24.154380232086332
30
0
10
-132.66052427330789
20
30.157726830042012
30
0
0
SPLINE
5
274
100
AcDbEntity
8
0
100
AcDbSpline
70
4
71
3
72
8
73
4
74
0
42
0.000000001
43
0.0000000001
44
0.0000000001
40
0
40
0
40
0
40
0
40
1
40
1
40
1
40
1
41
1
41
1
41
1
41
1
10
-132.66052427330789
20
30.157726830042012
30
0
10
-133.01772589978694
20
34.198650050329455
30
0
10
-133.4586404808669
20
35.718668859712707
30
0
10
-135.13858585058583
20
38.703402106455819
30
0
0
SPLINE
5
275
100
AcDbEntity
8
0
100
AcDbSpline
70
4
71
3
72
8
73
4
74
0
42
0.000000001
43
0.0000000001
44
0.0000000001
40
0
40
0
40
0
40
0
40
1
40
1
40
1
40
1
41
1
41
1
41
1
41
1
10
-135.13858585058583
20
38.703402106455819
30
0
10
-137.33216629936078
20
42.600349611575695
30
0
10
-137.72225407200798
20
43.6585332032043
30
0
10
-137.59571158723804
20
45.369859527935276
30
0
0
SPLINE
5
276
100
AcDbEntity
8
0
100
AcDbSpline
70
4
71
3
72
8
73
4
74
0
42
0.000000001
43
0.0000000001
44
0.0000000001
40
0
40
0
40
0
40
0
40
1
40
1
40
1
40
1
41
1
41
1
41
1
41
1
10
-137.59571158723804
20
45.369859527935276
30
0
10
-137.36255899755315
20
48.519498628990057
30
0
10
-134.40572500102664
20
52.593804024349353
30
0
10
-132.34315699863674
20
52.60725572006006
30
0
0
SPLINE
5
277
100
AcDbEntity
8
0
100
AcDbSpline
70
4
71
3
72
8
73
4
74
0
42
0.000000001
43
0.0000000001
44
0.0000000001
40
0
40
0
40
0
40
0
40
1
40
1
40
1
40
1
41
1
41
1
41
1
41
1
10
-132.34315699863674
20
52.60725572006006
30
0
10
-131.00946641062521
20
52.616222250204608
30
0
10
-130.58250905662908
20
51.738387926188778
30
0
10
-130.4435145359314
20
48.69885203780764
30
0
0
SPLINE
5
278
100
AcDbEntity
8
0
100
AcDbSpline
70
4
71
3
72
8
73
4
74
0
42
0.000000001
43
0.0000000001
44
0.0000000001
40
0
40
0
40
0
40
0
40
1
40
1
40
1
40
1
41
1
41
1
41
1
41
1
10
-130.4435145359314
20
48.69885203780764
30
0
10
-130.10124318940478
20
41.229291512817653
30
0
10
-128.5398734340942
20
37.232708715337004
30
0
10
-124.21846202295399
20
32.767813816945164
30
0
0
SPLINE
5
279
100
AcDbEntity
8
0
100
AcDbSpline
70
4
71
3
72
8
73
4
74
0
42
0.000000001
43
0.0000000001
44
0.0000000001
40
0
40
0
40
0
40
0
40
1
40
1
40
1
40
1
41
1
41
1
41
1
41
1
10
-124.21846202295399
20
32.767813816945164
30
0
10
-115.8561292920202
20
24.125981151978241
30
0
10
-107.19088064190893
20
22.035023571949655
30
0
10
-102.52471203824186
20
27.532196429837775
30
0
0
SPLINE
5
280
100
AcDbEntity
8
0
100
AcDbSpline
70
4
71
3
72
8
73
4
74
0
42
0.000000001
43
0.0000000001
44
0.0000000001
40
0
40
0
40
0
40
0
40
1
40
1
40
1
40
1
41
1
41
1
41
1
41
1
10
-102.52471203824186
20
27.532196429837775
30
0
10
-97.446523962506603
20
33.515616349420078
30
0
10
-99.968927863085241
20
46.244204545180153
30
0
10
-107.87292228501089
20
54.518361961873481
30
0
0
SPLINE
5
281
100
AcDbEntity
8
0
100
AcDbSpline
70
4
71
3
72
8
73
4
74
0
42
0.000000001
43
0.0000000001
44
0.0000000001
40
0
40
0
40
0
40
0
40
1
40
1
40
1
40
1
41
1
41
1
41
1
41
1
10
-107.87292228501089
20
54.518361961873481
30
0
10
-111.37179994317091
20
58.18065168615238
30
0
10
-113.60325343406552
20
60.015532919267699
30
0
10
-119.61805810964763
20
64.17702537204778
30
0
0
SPLINE
5
282
100
AcDbEntity
8
0
100
AcDbSpline
70
4
71
3
72
8
73
4
74
0
42
0.000000001
43
0.0000000001
44
0.0000000001
40
0
40
0
40
0
40
0
40
1
40
1
40
1
40
1
41
1
41
1
41
1
41
1
10
-119.61805810964763
20
64.17702537204778
30
0
10
-131.21224150606878
20
72.198097819201223
30
0
10
-135.91427623031407
20
79.675127285155199
30
0
10
-135.6028993123652
20
89.597339784194517
30
0
0
SPLINE
5
283
100
AcDbEntity
8
0
100
AcDbSpline
70
4
71
3
72
8
73
4
74
0
42
0.000000001
43
0.0000000001
44
0.0000000001
40
0
40
0
40
0
40
0
40
1
40
1
40
1
40
1
41
1
41
1
41
1
41
1
10
-135.6028993123652
20
89.597339784194517
30
0
10
-135.36675154431921
20
97.131665339762293
30
0
10
-131.98893534656776
20
103.09166737370639
30
0
10
-124.15220320418342
20
109.80246331749875
30
0
0
SPLINE
5
284
100
AcDbEntity
8
0
100
AcDbSpline
70
4
71
3
72
8
73
4
74
0
42
0.000000001
43
0.0000000001
44
0.0000000001
40
0
40
0
40
0
40
0
40
1
40
1
40
1
40
1
41
1
41
1
41
1
41
1
10
-124.15220320418342
20
109.80246331749875
30
0
10
-118.80449468779977
20
114.38244072254022
30
0
10
-114.37147867381755
20
119.22597101743449
30
0
10
-111.26418637748527
20
123.88666619871574
30
0
0
SPLINE
5
285
100
AcDbEntity
8
0
100
AcDbSpline
70
4
71
3
72
8
73
4
74
0
42
0.000000001
43
0.0000000001
44
0.0000000001
40
0
40
0
40
0
40
0
40
1
40
1
40
1
40
1
41
1
41
1
41
1
41
1
10
-111.26418637748527
20
123.88666619871574
30
0
10
-107.02946029338048
20
130.2372577356924
30
0
10
-104.04273532904696
20
136.77716126943861
30
0
10
-101.76843710403224
20
144.67667812777361
30
0
0
SPLINE
5
286
100
AcDbEntity
8
0
100
AcDbSpline
70
4
71
3
72
8
73
4
74
0
42
0.000000001
43
0.0000000001
44
0.0000000001
40
0
40
0
40
0
40
0
40
1
40
1
40
1
40
1
41
1
41
1
41
1
41
1
10
-101.76843710403224
20
144.67667812777361
30
0
10
-99.507092645330616
20
152.53234679121778
30
0
10
-98.951601088974158
20
157.19901712527022
30
0
10
-99.538982932703561
20
163.41060653957362
30
0
0
SPLINE
5
287
100
AcDbEntity
8
0
100
AcDbSpline
70
4
71
3
72
8
73
4
74
0
42
0.000000001
43
0.0000000001
44
0.0000000001
40
0
40
0
40
0
40
0
40
1
40
1
40
1
40
1
41
1
41
1
41
1
41
1
10
-99.538982932703561
20
163.41060653957362
30
0
10
-99.660044393112145
20
164.68948688397163
30
0
10
-99.796553067809612
20
166.51291193995439
30
0
10
-99.84288710870068
20
167.46248990808991
30
0
0
SPLINE
5
288
100
AcDbEntity
8
0
100
AcDbSpline
70
4
71
3
72
8
73
4
74
0
42
0.000000001
43
0.0000000001
44
0.0000000001
40
0
40
0
40
0
40
0
40
1
40
1
40
1
40
1
41
1
41
1
41
1
41
1
10
-99.84288710870068
20
167.46248990808991
30
0
10
-100.00031642007285
20
170.69183952362596
30
0
10
-100.53738078773037
20
171.64839610530345
30
0
10
-102.19141102284757
20
171.6469061180984
30
0
0
SPLINE
5
289
100
AcDbEntity
8
0
100
AcDbSpline
70
4
71
3
72
8
73
4
74
0
42
0.000000001
43
0.0000000001
44
0.0000000001
40
0
40
0
40
0
40
0
40
1
40
1
40
1
40
1
41
1
41
1
41
1
41
1
10
-102.19141102284757
20
171.6469061180984
30
0
10
-104.05619082574545
20
171.64540092694227
30
0
10
-104.36357670653798
20
170.41634393020638
30
0
10
-103.75278077815814
20
165.4034188144465
30
0
0
SPLINE
5
290
100
AcDbEntity
8
0
100
AcDbSpline
70
4
71
3
72
8
73
4
74
0
42
0.000000001
43
0.0000000001
44
0.0000000001
40
0
40
0
40
0
40
0
40
1
40
1
40
1
40
1
41
1
41
1
41
1
41
1
10
-103.75278077815814
20
165.4034188144465
30
0
10
-102.8644823348172
20
158.11371722964719
30
0
10
-103.79363379468785
20
151.53294547542021
30
0
10
-107.0454092380547
20
142.08752128001458
30
0
0
SPLINE
5
291
100
AcDbEntity
8
0
100
AcDbSpline
70
4
71
3
72
8
73
4
74
0
42
0.000000001
43
0.0000000001
44
0.0000000001
40
0
40
0
40
0
40
0
40
1
40
1
40
1
40
1
41
1
41
1
41
1
41
1
10
-107.0454092380547
20
142.08752128001458
30
0
10
-111.30603525281019
20
129.7126454039626
30
0
10
-116.85353128825183
20
121.36525815693231
30
0
10
-125.9457372923592
20
113.64958747495658
30
0
0
SPLINE
5
292
100
AcDbEntity
8
0
100
AcDbSpline
70
4
71
3
72
8
73
4
74
0
42
0.000000001
43
0.0000000001
44
0.0000000001
40
0
40
0
40
0
40
0
40
1
40
1
40
1
40
1
41
1
41
1
41
1
41
1
10
-125.9457372923592
20
113.64958747495658
30
0
10
-135.68510707581001
20
105.38389865901021
30
0
10
-139.88744874413203
20
97.858543434574742
30
0
10
-139.89442735767395
20
88.670180041914278
30
0
0
SPLINE
5
293
100
AcDbEntity
8
0
100
AcDbSpline
70
4
71
3
72
8
73
4
74
0
42
0.000000001
43
0.0000000001
44
0.0000000001
40
0
40
0
40
0
40
0
40
1
40
1
40
1
40
1
41
1
41
1
41
1
41
1
10
-139.89442735767395
20
88.670180041914278
30
0
10
-139.90239422803552
20
77.986713314689311
30
0
10
-134.44557455678563
20
69.467939529203036
30
0
10
-121.92523487885495
20
60.617860246900612
30
0
0
SPLINE
5
294
100
AcDbEntity
8
0
100
AcDbSpline
70
4
71
3
72
8
73
4
74
0
42
0.000000001
43
0.0000000001
44
0.0000000001
40
0
40
0
40
0
40
0
40
1
40
1
40
1
40
1
41
1
41
1
41
1
41
1
10
-121.92523487885495
20
60.617860246900612
30
0
10
-109.99526462103928
20
52.184779730642326
30
0
10
-105.18909803590377
20
45.924856955881914
30
0
10
-104.14785544675684
20
37.464869247214445
30
0
0
SPLINE
5
295
100
AcDbEntity
8
0
100
AcDbSpline
70
4
71
3
72
8
73
4
74
0
42
0.000000001
43
0.0000000001
44
0.0000000001
40
0
40
0
40
0
40
0
40
1
40
1
40
1
40
1
41
1
41
1
41
1
41
1
10
-104.14785544675684
20
37.464869247214445
30
0
10
-102.8012110924322
20
26.520344978606364
30
0
10
-111.38525543986938
20
25.450205379953733
30
0
10
-120.97865208908058
20
35.366438925234107
30
0
0
SPLINE
5
296
100
AcDbEntity
8
0
100
AcDbSpline
70
4
71
3
72
8
73
4
74
0
42
0.000000001
43
0.0000000001
44
0.0000000001
40
0
40
0
40
0
40
0
40
1
40
1
40
1
40
1
41
1
41
1
41
1
41
1
10
-120.97865208908058
20
35.366438925234107
30
0
10
-124.68378654747958
20
39.196625881198052
30
0
10
-125.82168065358945
20
42.128050274495934
30
0
10
-126.34330540893367
20
49.1895823645741
30
0
0
SPLINE
5
297
100
AcDbEntity
8
0
100
AcDbSpline
70
4
71
3
72
8
73
4
74
0
42
0.000000001
43
0.0000000001
44
0.0000000001
40
0
40
0
40
0
40
0
40
1
40
1
40
1
40
1
41
1
41
1
41
1
41
1
10
-126.34330540893367
20
49.1895823645741
30
0
10
-126.64421440656967
20
53.259402594367231
30
0
10
-127.58930720913902
20
55.152077846493945
30
0
10
-129.88850950600923
20
56.288478164411025
30
0
0
SPLINE
5
298
100
AcDbEntity
8
0
100
AcDbSpline
70
4
71
3
72
8
73
4
74
0
42
0.000000001
43
0.0000000001
44
0.0000000001
40
0
40
0
40
0
40
0
40
1
40
1
40
1
40
1
41
1
41
1
41
1
41
1
10
-129.88850950600923
20
56.288478164411025
30
0
10
-133.98822450459716
20
58.314670713861851
30
0
10
-139.3065513855347
20
54.517366103078267
30
0
10
-141.47721948004457
20
48.01432074771769
30
0
0
SPLINE
5
299
100
AcDbEntity
8
0
100
AcDbSpline
70
4
71
3
72
8
73
4
74
0
42
0.000000001
43
0.0000000001
44
0.0000000001
40
0
40
0
40
0
40
0
40
1
40
1
40
1
40
1
41
1
41
1
41
1
41
1
10
-141.47721948004457
20
48.01432074771769
30
0
10
-142.69979959362394
20
44.351533094041187
30
0
10
-142.27883259635007
20
42.115096508182823
30
0
10
-139.56510977746041
20
37.863433222584121
30
0
0
SPLINE
5
300
100
AcDbEntity
8
0
100
AcDbSpline
70
4
71
3
72
8
73
4
74
0
42
0.000000001
43
0.0000000001
44
0.0000000001
40
0
40
0
40
0
40
0
40
1
40
1
40
1
40
1
41
1
41
1
41
1
41
1
10
-139.56510977746041
20
37.863433222584121
30
0
10
-137.46667565449232
20
34.575791658639069
30
0
10
-137.22256101608474
20
33.881297979609386
30
0
10
-136.90571067575004
20
30.290746197968517
30
0
0
SPLINE
5
301
100
AcDbEntity
8
0
100
AcDbSpline
70
4
71
3
72
8
73
4
74
0
42
0.000000001
43
0.0000000001
44
0.0000000001
40
0
40
0
40
0
40
0
40
1
40
1
40
1
40
1
41
1
41
1
41
1
41
1
10
-136.90571067575004
20
30.290746197968517
30
0
10
-136.18280841414281
20
22.111248580647732
30
0
10
-133.42076743874725
20
19.069221144784713
30
0
10
-125.32995446802781
20
17.541729593449709
30
0
0
SPLINE
5
302
100
AcDbEntity
8
0
100
AcDbSpline
70
4
71
3
72
8
73
4
74
0
42
0.000000001
43
0.0000000001
44
0.0000000001
40
0
40
0
40
0
40
0
40
1
40
1
40
1
40
1
41
1
41
1
41
1
41
1
10
-125.32995446802781
20
17.541729593449709
30
0
10
-122.49368780350008
20
17.006160914478855
30
0
10
-121.70553018389302
20
16.733147366071698
30
0
10
-118.21860283127536
20
15.07761764128006
30
0
0
SPLINE
5
303
100
AcDbEntity
8
0
100
AcDbSpline
70
4
71
3
72
8
73
4
74
0
42
0.000000001
43
0.0000000001
44
0.0000000001
40
0
40
0
40
0
40
0
40
1
40
1
40
1
40
1
41
1
41
1
41
1
41
1
10
-118.21860283127536
20
15.07761764128006
30
0
10
-112.61531589737604
20
12.417213178305053
30
0
10
-109.86673041867894
20
11.728198623142836
30
0
10
-106.31254838849551
20
12.092883444290006
30
0
0
LWPOLYLINE
5
304
100
AcDbEntity
8
0
100
AcDbPolyline
90
8
70
1
43
0.0
10
-1.2202455868622954e-14
20
99.640613743642476
10
-2.4404911737245908e-14
20
199.28122748728495
10
-99.64061374364249
20
199.28122748728495
10
-199.28122748728498
20
199.28122748728495
10
-199.28122748728498
20
99.640613743642433
10
-199.28122748728495
20
-1.7763568394002505e-14
10
-99.640613743642476
20
-1.2202455868622954e-14
10
0
20
0
0
SPLINE
5
305
100
AcDbEntity
8
0
100
AcDbSpline
70
4
71
3
72
8
73
4
74
0
42
0.000000001
43
0.0000000001
44
0.0000000001
40
0
40
0
40
0
40
0
40
1
40
1
40
1
40
1
41
1
41
1
41
1
41
1
10
-111.3319427854364
20
12.416217319509856
30
0
10
-113.20568531749105
20
12.830721687331293
30
0
10
-114.7112565723684
20
13.412124577301741
30
0
10
-118.21860283127536
20
15.07761764128006
30
0
0
SPLINE
5
306
100
AcDbEntity
8
0
100
AcDbSpline
70
4
71
3
72
8
73
4
74
0
42
0.000000001
43
0.0000000001
44
0.0000000001
40
0
40
0
40
0
40
0
40
1
40
1
40
1
40
1
41
1
41
1
41
1
41
1
10
-118.21860283127536
20
15.07761764128006
30
0
10
-121.70553018389302
20
16.733147366071698
30
0
10
-122.49368780350008
20
17.006160914478855
30
0
10
-125.32995446802781
20
17.541729593449709
30
0
0
SPLINE
5
307
100
AcDbEntity
8
0
100
AcDbSpline
70
4
71
3
72
8
73
4
74
0
42
0.000000001
43
0.0000000001
44
0.0000000001
40
0
40
0
40
0
40
0
40
1
40
1
40
1
40
1
41
1
41
1
41
1
41
1
10
-125.32995446802781
20
17.541729593449709
30
0
10
-133.42076743874725
20
19.069221144784713
30
0
10
-136.18280841414281
20
22.111248580647732
30
0
10
-136.90571067575004
20
30.290746197968517
30
0
0
SPLINE
5
308
100
AcDbEntity
8
0
100
AcDbSpline
70
4
71
3
72
8
73
4
74
0
42
0.000000001
43
0.0000000001
44
0.0000000001
40
0
40
0
40
0
40
0
40
1
40
1
40
1
40
1
41
1
41
1
41
1
41
1
10
-136.90571067575004
20
30.290746197968517
30
0
10
-137.22256101608474
20
33.881297979609386
30
0
10
-137.46667565449232
20
34.575791658639069
30
0
10
-139.56510977746041
20
37.863433222584121
30
0
0
SPLINE
5
309
100
AcDbEntity
8
0
100
AcDbSpline
70
4
71
3
72
8
73
4
74
0
42
0.000000001
43
0.0000000001
44
0.0000000001
40
0
40
0
40
0
40
0
40
1
40
1
40
1
40
1
41
1
41
1
41
1
41
1
10
-139.56510977746041
20
37.863433222584121
30
0
10
-142.27883259635007
20
42.115096508182823
30
0
10
-142.69979959362394
20
44.351533094041187
30
0
10
-141.47721948004457
20
48.01432074771769
30
0
0
SPLINE
5
310
100
AcDbEntity
8
0
100
AcDbSpline
70
4
71
3
72
8
73
4
74
0
42
0.000000001
43
0.0000000001
44
0.0000000001
40
0
40
0
40
0
40
0
40
1
40
1
40
1
40
1
41
1
41
1
41
1
41
1
10
-141.47721948004457
20
48.01432074771769
30
0
10
-139.3065513855347
20
54.517366103078267
30
0
10
-133.98822450459716
20
58.314670713861851
30
0
10
-129.88850950600923
20
56.288478164411025
30
0
0
SPLINE
5
311
100
AcDbEntity
8
0
100
AcDbSpline
70
4
71
3
72
8
73
4
74
0
42
0.000000001
43
0.0000000001
44
0.0000000001
40
0
40
0
40
0
40
0
40
1
40
1
40
1
40
1
41
1
41
1
41
1
41
1
10
-129.88850950600923
20
56.288478164411025
30
0
10
-127.58930720913902
20
55.152077846493945
30
0
10
-126.64421440656967
20
53.259402594367231
30
0
10
-126.34330540893367
20
49.1895823645741
30
0
0
SPLINE
5
312
100
AcDbEntity
8
0
100
AcDbSpline
70
4
71
3
72
8
73
4
74
0
42
0.000000001
43
0.0000000001
44
0.0000000001
40
0
40
0
40
0
40
0
40
1
40
1
40
1
40
1
41
1
41
1
41
1
41
1
10
-126.34330540893367
20
49.1895823645741
30
0
10
-125.82168065358945
20
42.128050274495934
30
0
10
-124.68378654747958
20
39.196625881198052
30
0
10
-120.97865208908058
20
35.366438925234107
30
0
0
SPLINE
5
313
100
AcDbEntity
8
0
100
AcDbSpline
70
4
71
3
72
8
73
4
74
0
42
0.000000001
43
0.0000000001
44
0.0000000001
40
0
40
0
40
0
40
0
40
1
40
1
40
1
40
1
41
1
41
1
41
1
41
1
10
-120.97865208908058
20
35.366438925234107
30
0
10
-111.38525543986938
20
25.450205379953733
30
0
10
-102.8012110924322
20
26.520344978606364
30
0
10
-104.14785544675684
20
37.464869247214445
30
0
0
SPLINE
5
314
100
AcDbEntity
8
0
100
AcDbSpline
70
4
71
3
72
8
73
4
74
0
42
0.000000001
43
0.0000000001
44
0.0000000001
40
0
40
0
40
0
40
0
40
1
40
1
40
1
40
1
41
1
41
1
41
1
41
1
10
-104.14785544675684
20
37.464869247214445
30
0
10
-105.18909803590377
20
45.924856955881914
30
0
10
-109.99526462103928
20
52.184779730642326
30
0
10
-121.92523487885495
20
60.617860246900612
30
0
0
SPLINE
5
315
100
AcDbEntity
8
0
100
AcDbSpline
70
4
71
3
72
8
73
4
74
0
42
0.000000001
43
0.0000000001
44
0.0000000001
40
0
40
0
40
0
40
0
40
1
40
1
40
1
40
1
41
1
41
1
41
1
41
1
10
-121.92523487885495
20
60.617860246900612
30
0
10
-134.44557455678563
20
69.467939529203036
30
0
10
-139.90239422803552
20
77.986713314689311
30
0
10
-139.89442735767395
20
88.670180041914278
30
0
0
SPLINE
5
316
100
AcDbEntity
8
0
100
AcDbSpline
70
4
71
3
72
8
73
4
74
0
42
0.000000001
43
0.0000000001
44
0.0000000001
40
0
40
0
40
0
40
0
40
1
40
1
40
1
40
1
41
1
41
1
41
1
41
1
10
-139.89442735767395
20
88.670180041914278
30
0
10
-139.88744874413203
20
97.858543434574742
30
0
10
-135.68510707581001
20
105.38389865901021
30
0
10
-125.9457372923592
20
113.64958747495658
30
0
0
SPLINE
5
317
100
AcDbEntity
8
0
100
AcDbSpline
70
4
71
3
72
8
73
4
74
0
42
0.000000001
43
0.0000000001
44
0.0000000001
40
0
40
0
40
0
40
0
40
1
40
1
40
1
40
1
41
1
41
1
41
1
41
1
10
-125.9457372923592
20
113.64958747495658
30
0
10
-116.85353128825183
20
121.36525815693231
30
0
10
-111.30603525281019
20
129.7126454039626
30
0
10
-107.0454092380547
20
142.08752128001458
30
0
0
SPLINE
5
318
100
AcDbEntity
8
0
100
AcDbSpline
70
4
71
3
72
8
73
4
74
0
42
0.000000001
43
0.0000000001
44
0.0000000001
40
0
40
0
40
0
40
0
40
1
40
1
40
1
40
1
41
1
41
1
41
1
41
1
10
-107.0454092380547
20
142.08752128001458
30
0
10
-103.79363379468785
20
151.53294547542021
30
0
10
-102.8644823348172
20
158.11371722964719
30
0
10
-103.75278077815814
20
165.4034188144465
30
0
0
SPLINE
5
319
100
AcDbEntity
8
0
100
AcDbSpline
70
4
71
3
72
8
73
4
74
0
42
0.000000001
43
0.0000000001
44
0.0000000001
40
0
40
0
40
0
40
0
40
1
40
1
40
1
40
1
41
1
41
1
41
1
41
1
10
-103.75278077815814
20
165.4034188144465
30
0
10
-104.36357670653798
20
170.41634393020638
30
0
10
-104.05619082574545
20
171.64540092694227
30
0
10
-102.19141102284757
20
171.6469061180984
30
0
0
SPLINE
5
320
100
AcDbEntity
8
0
100
AcDbSpline
70
4
71
3
72
8
73
4
74
0
42
0.000000001
43
0.0000000001
44
0.0000000001
40
0
40
0
40
0
40
0
40
1
40
1
40
1
40
1
41
1
41
1
41
1
41
1
10
-102.19141102284757
20
171.6469061180984
30
0
10
-100.53738078773037
20
171.64839610530345
30
0
10
-100.00031642007285
20
170.69183952362596
30
0
10
-99.84288710870068
20
167.46248990808991
30
0
0
SPLINE
5
321
100
AcDbEntity
8
0
100
AcDbSpline
70
4
71
3
72
8
73
4
74
0
42
0.000000001
43
0.0000000001
44
0.0000000001
40
0
40
0
40
0
40
0
40
1
40
1
40
1
40
1
41
1
41
1
41
1
41
1
10
-99.84288710870068
20
167.46248990808991
30
0
10
-99.796553067809612
20
166.51291193995439
30
0
10
-99.660044393112145
20
164.68948688397163
30
0
10
-99.538982932703561
20
163.41060653957362
30
0
0
SPLINE
5
322
100
AcDbEntity
8
0
100
AcDbSpline
70
4
71
3
72
8
73
4
74
0
42
0.000000001
43
0.0000000001
44
0.0000000001
40
0
40
0
40
0
40
0
40
1
40
1
40
1
40
1
41
1
41
1
41
1
41
1
10
-99.538982932703561
20
163.41060653957362
30
0
10
-98.951601088974158
20
157.19901712527022
30
0
10
-99.507092645330616
20
152.53234679121778
30
0
10
-101.76843710403224
20
144.67667812777361
30
0
0
SPLINE
5
323
100
AcDbEntity
8
0
100
AcDbSpline
70
4
71
3
72
8
73
4
74
0
42
0.000000001
43
0.0000000001
44
0.0000000001
40
0
40
0
40
0
40
0
40
1
40
1
40
1
40
1
41
1
41
1
41
1
41
1
10
-101.76843710403224
20
144.67667812777361
30
0
10
-105.96380776078789
20
130.1042383677659
30
0
10
-112.69901364802591
20
119.61008363731051
30
0
10
-124.15220320418342
20
109.80246331749875
30
0
0
SPLINE
5
324
100
AcDbEntity
8
0
100
AcDbSpline
70
4
71
3
72
8
73
4
74
0
42
0.000000001
43
0.0000000001
44
0.0000000001
40
0
40
0
40
0
40
0
40
1
40
1
40
1
40
1
41
1
41
1
41
1
41
1
10
-124.15220320418342
20
109.80246331749875
30
0
10
-131.98893534656776
20
103.09166737370639
30
0
10
-135.36675154431921
20
97.131665339762293
30
0
10
-135.6028993123652
20
89.597339784194517
30
0
0
SPLINE
5
325
100
AcDbEntity
8
0
100
AcDbSpline
70
4
71
3
72
8
73
4
74
0
42
0.000000001
43
0.0000000001
44
0.0000000001
40
0
40
0
40
0
40
0
40
1
40
1
40
1
40
1
41
1
41
1
41
1
41
1
10
-135.6028993123652
20
89.597339784194517
30
0
10
-135.91427623031407
20
79.675127285155199
30
0
10
-131.21224150606878
20
72.198097819201223
30
0
10
-119.61805810964763
20
64.17702537204778
30
0
0
SPLINE
5
326
100
AcDbEntity
8
0
100
AcDbSpline
70
4
71
3
72
8
73
4
74
0
42
0.000000001
43
0.0000000001
44
0.0000000001
40
0
40
0
40
0
40
0
40
1
40
1
40
1
40
1
41
1
41
1
41
1
41
1
10
-119.61805810964763
20
64.17702537204778
30
0
10
-113.60325343406552
20
60.015532919267699
30
0
10
-111.37179994317091
20
58.18065168615238
30
0
10
-107.87292228501089
20
54.518361961873481
30
0
0
SPLINE
5
327
100
AcDbEntity
8
0
100
AcDbSpline
70
4
71
3
72
8
73
4
74
0
42
0.000000001
43
0.0000000001
44
0.0000000001
40
0
40
0
40
0
40
0
40
1
40
1
40
1
40
1
41
1
41
1
41
1
41
1
10
-107.87292228501089
20
54.518361961873481
30
0
10
-99.968927863085241
20
46.244204545180153
30
0
10
-97.446523962506603
20
33.515616349420078
30
0
10
-102.52471203824186
20
27.532196429837775
30
0
0
SPLINE
5
328
100
AcDbEntity
8
0
100
AcDbSpline
70
4
71
3
72
8
73
4
74
0
42
0.000000001
43
0.0000000001
44
0.0000000001
40
0
40
0
40
0
40
0
40
1
40
1
40
1
40
1
41
1
41
1
41
1
41
1
10
-102.52471203824186
20
27.532196429837775
30
0
10
-107.19088064190893
20
22.035023571949655
30
0
10
-115.8561292920202
20
24.125981151978241
30
0
10
-124.21846202295399
20
32.767813816945164
30
0
0
SPLINE
5
329
100
AcDbEntity
8
0
100
AcDbSpline
70
4
71
3
72
8
73
4
74
0
42
0.000000001
43
0.0000000001
44
0.0000000001
40
0
40
0
40
0
40
0
40
1
40
1
40
1
40
1
41
1
41
1
41
1
41
1
10
-124.21846202295399
20
32.767813816945164
30
0
10
-128.5398734340942
20
37.232708715337004
30
0
10
-130.10124318940478
20
41.229291512817653
30
0
10
-130.4435145359314
20
48.69885203780764
30
0
0
SPLINE
5
330
100
AcDbEntity
8
0
100
AcDbSpline
70
4
71
3
72
8
73
4
74
0
42
0.000000001
43
0.0000000001
44
0.0000000001
40
0
40
0
40
0
40
0
40
1
40
1
40
1
40
1
41
1
41
1
41
1
41
1
10
-130.4435145359314
20
48.69885203780764
30
0
10
-130.58250905662908
20
51.738387926188778
30
0
10
-131.00946641062521
20
52.616222250204608
30
0
10
-132.34315699863674
20
52.60725572006006
30
0
0
SPLINE
5
331
100
AcDbEntity
8
0
100
AcDbSpline
70
4
71
3
72
8
73
4
74
0
42
0.000000001
43
0.0000000001
44
0.0000000001
40
0
40
0
40
0
40
0
40
1
40
1
40
1
40
1
41
1
41
1
41
1
41
1
10
-132.34315699863674
20
52.60725572006006
30
0
10
-134.40572500102664
20
52.593804024349353
30
0
10
-137.36255899755315
20
48.519498628990057
30
0
10
-137.59571158723804
20
45.369859527935276
30
0
0
SPLINE
5
332
100
AcDbEntity
8
0
100
AcDbSpline
70
4
71
3
72
8
73
4
74
0
42
0.000000001
43
0.0000000001
44
0.0000000001
40
0
40
0
40
0
40
0
40
1
40
1
40
1
40
1
41
1
41
1
41
1
41
1
10
-137.59571158723804
20
45.369859527935276
30
0
10
-137.72225407200798
20
43.6585332032043
30
0
10
-137.33216629936078
20
42.600349611575695
30
0
10
-135.13858585058583
20
38.703402106455819
30
0
0
SPLINE
5
333
100
AcDbEntity
8
0
100
AcDbSpline
70
4
71
3
72
8
73
4
74
0
42
0.000000001
43
0.0000000001
44
0.0000000001
40
0
40
0
40
0
40
0
40
1
40
1
40
1
40
1
41
1
41
1
41
1
41
1
10
-135.13858585058583
20
38.703402106455819
30
0
10
-133.4586404808669
20
35.718668859712707
30
0
10
-133.01772589978694
20
34.198650050329455
30
0
10
-132.66052427330789
20
30.157726830042012
30
0
0
SPLINE
5
334
100
AcDbEntity
8
0
100
AcDbSpline
70
4
71
3
72
8
73
4
74
0
42
0.000000001
43
0.0000000001
44
0.0000000001
40
0
40
0
40
0
40
0
40
1
40
1
40
1
40
1
41
1
41
1
41
1
41
1
10
-132.66052427330789
20
30.157726830042012
30
0
10
-132.13042331524119
20
24.154380232086332
30
0
10
-130.72550221645864
20
22.727525533388942
30
0
10
-124.15220320418341
20
21.518387613050862
30
0
0
SPLINE
5
335
100
AcDbEntity
8
0
100
AcDbSpline
70
4
71
3
72
8
73
4
74
0
42
0.000000001
43
0.0000000001
44
0.0000000001
40
0
40
0
40
0
40
0
40
1
40
1
40
1
40
1
41
1
41
1
41
1
41
1
10
-124.15220320418341
20
21.518387613050862
30
0
10
-121.41308218502844
20
21.014703519971292
30
0
10
-120.35589825318281
20
20.630588999601404
30
0
10
-116.11469528592144
20
18.599415255680714
30
0
0
SPLINE
5
336
100
AcDbEntity
8
0
100
AcDbSpline
70
4
71
3
72
8
73
4
74
0
42
0.000000001
43
0.0000000001
44
0.0000000001
40
0
40
0
40
0
40
0
40
1
40
1
40
1
40
1
41
1
41
1
41
1
41
1
10
-116.11469528592144
20
18.599415255680714
30
0
10
-109.82637913253457
20
15.588275596666843
30
0
10
-106.61994187126361
20
15.305296808579111
30
0
10
-102.43852083961626
20
17.392269052933024
30
0
0
SPLINE
5
337
100
AcDbEntity
8
0
100
AcDbSpline
70
4
71
3
72
8
73
4
74
0
42
0.000000001
43
0.0000000001
44
0.0000000001
40
0
40
0
40
0
40
0
40
1
40
1
40
1
40
1
41
1
41
1
41
1
41
1
10
-102.43852083961626
20
17.392269052933024
30
0
10
-93.477342485845
20
21.86364083448143
30
0
10
-89.829504117059741
20
31.964710713434627
30
0
10
-92.854588649947218
20
43.931546751611464
30
0
0
SPLINE
5
338
100
AcDbEntity
8
0
100
AcDbSpline
70
4
71
3
72
8
73
4
74
0
42
0.000000001
43
0.0000000001
44
0.0000000001
40
0
40
0
40
0
40
0
40
1
40
1
40
1
40
1
41
1
41
1
41
1
41
1
10
-92.854588649947218
20
43.931546751611464
30
0
10
-94.933090393060297
20
52.151897385461972
30
0
10
-98.633747287868687
20
57.792551830107826
30
0
10
-106.0176145436307
20
63.99169681045904
30
0
0
SPLINE
5
339
100
AcDbEntity
8
0
100
AcDbSpline
70
4
71
3
72
8
73
4
74
0
42
0.000000001
43
0.0000000001
44
0.0000000001
40
0
40
0
40
0
40
0
40
1
40
1
40
1
40
1
41
1
41
1
41
1
41
1
10
-106.0176145436307
20
63.99169681045904
30
0
10
-110.6494070139246
20
67.880669843241776
30
0
10
-112.06878707017637
20
70.318372532399849
30
0
10
-111.47094490810964
20
73.356912561985794
30
0
0
SPLINE
5
340
100
AcDbEntity
8
0
100
AcDbSpline
70
4
71
3
72
8
73
4
74
0
42
0.000000001
43
0.0000000001
44
0.0000000001
40
0
40
0
40
0
40
0
40
1
40
1
40
1
40
1
41
1
41
1
41
1
41
1
10
-111.47094490810964
20
73.356912561985794
30
0
10
-110.74057750652621
20
77.069025633926728
30
0
10
-107.90979186635983
20
78.724059329814665
30
0
10
-101.51086696892618
20
79.180907651617787
30
0
0
SPLINE
5
341
100
AcDbEntity
8
0
100
AcDbSpline
70
4
71
3
72
8
73
4
74
0
42
0.000000001
43
0.0000000001
44
0.0000000001
40
0
40
0
40
0
40
0
40
1
40
1
40
1
40
1
41
1
41
1
41
1
41
1
10
-101.51086696892618
20
79.180907651617787
30
0
10
-94.522074381762891
20
79.679612450721365
30
0
10
-90.580290424932514
20
81.169736491309834
30
0
10
-85.557908451606039
20
85.211653669898595
30
0
0
SPLINE
5
342
100
AcDbEntity
8
0
100
AcDbSpline
70
4
71
3
72
8
73
4
74
0
42
0.000000001
43
0.0000000001
44
0.0000000001
40
0
40
0
40
0
40
0
40
1
40
1
40
1
40
1
41
1
41
1
41
1
41
1
10
-85.557908451606039
20
85.211653669898595
30
0
10
-76.835865442266353
20
92.231834814049435
30
0
10
-71.308301786679749
20
99.838896071544355
30
0
10
-64.81522642223446
20
113.75869102784728
30
0
0
SPLINE
5
343
100
AcDbEntity
8
0
100
AcDbSpline
70
4
71
3
72
8
73
4
74
0
42
0.000000001
43
0.0000000001
44
0.0000000001
40
0
40
0
40
0
40
0
40
1
40
1
40
1
40
1
41
1
41
1
41
1
41
1
10
-64.81522642223446
20
113.75869102784728
30
0
10
-60.043933899869721
20
123.98679942047414
30
0
10
-58.046138530033112
20
130.10025493258513
30
0
10
-58.921977335470778
20
131.79414232543684
30
0
0
SPLINE
5
344
100
AcDbEntity
8
0
100
AcDbSpline
70
4
71
3
72
8
73
4
74
0
42
0.000000001
43
0.0000000001
44
0.0000000001
40
0
40
0
40
0
40
0
40
1
40
1
40
1
40
1
41
1
41
1
41
1
41
1
10
-58.921977335470778
20
131.79414232543684
30
0
10
-59.51732985054953
20
132.94448846747446
30
0
10
-60.835577025259944
20
132.58479339301962
30
0
10
-62.168769683873876
20
130.90784320166182
30
0
0
SPLINE
5
345
100
AcDbEntity
8
0
100
AcDbSpline
70
4
71
3
72
8
73
4
74
0
42
0.000000001
43
0.0000000001
44
0.0000000001
40
0
40
0
40
0
40
0
40
1
40
1
40
1
40
1
41
1
41
1
41
1
41
1
10
-62.168769683873876
20
130.90784320166182
30
0
10
-63.896535280701144
20
128.7346816591762
30
0
10
-64.32349263469726
20
128.23249515527718
30
0
10
-64.990094665485884
20
127.58880547875366
30
0
0
SPLINE
5
346
100
AcDbEntity
8
0
100
AcDbSpline
70
4
71
3
72
8
73
4
74
0
42
0.000000001
43
0.0000000001
44
0.0000000001
40
0
40
0
40
0
40
0
40
1
40
1
40
1
40
1
41
1
41
1
41
1
41
1
10
-64.990094665485884
20
127.58880547875366
30
0
10
-69.663736011104717
20
123.07508689248274
30
0
10
-74.037958346292584
20
123.98281598529334
30
0
10
-77.236421135226436
20
130.13064763077747
30
0
0
SPLINE
5
347
100
AcDbEntity
8
0
100
AcDbSpline
70
4
71
3
72
8
73
4
74
0
42
0.000000001
43
0.0000000001
44
0.0000000001
40
0
40
0
40
0
40
0
40
1
40
1
40
1
40
1
41
1
41
1
41
1
41
1
10
-77.236421135226436
20
130.13064763077747
30
0
10
-78.398732786757506
20
132.36508109608215
30
0
10
-79.222262398532905
20
132.89168514540233
30
0
10
-80.581852917195107
20
132.26991956632423
30
0
0
SPLINE
5
348
100
AcDbEntity
8
0
100
AcDbSpline
70
4
71
3
72
8
73
4
74
0
42
0.000000001
43
0.0000000001
44
0.0000000001
40
0
40
0
40
0
40
0
40
1
40
1
40
1
40
1
41
1
41
1
41
1
41
1
10
-80.581852917195107
20
132.26991956632423
30
0
10
-81.45421001783734
20
131.87136319293009
30
0
10
-82.009701574193798
20
131.20825807088798
30
0
10
-84.4334622402191
20
127.67300495978886
30
0
0
SPLINE
5
349
100
AcDbEntity
8
0
100
AcDbSpline
70
4
71
3
72
8
73
4
74
0
42
0.000000001
43
0.0000000001
44
0.0000000001
40
0
40
0
40
0
40
0
40
1
40
1
40
1
40
1
41
1
41
1
41
1
41
1
10
-84.4334622402191
20
127.67300495978886
30
0
10
-88.177959727942806
20
122.21021013576777
30
0
10
-89.89625706424016
20
120.32550555499041
30
0
10
-92.552676191540513
20
118.76762510645079
30
0
0
SPLINE
5
350
100
AcDbEntity
8
0
100
AcDbSpline
70
4
71
3
72
8
73
4
74
0
42
0.000000001
43
0.0000000001
44
0.0000000001
40
0
40
0
40
0
40
0
40
1
40
1
40
1
40
1
41
1
41
1
41
1
41
1
10
-92.552676191540513
20
118.76762510645079
30
0
10
-96.400302079383721
20
116.5112675437007
30
0
10
-100.64499435341602
20
117.53108776578757
30
0
10
-102.35183551258083
20
121.12163764693457
30
0
0
SPLINE
5
351
100
AcDbEntity
8
0
100
AcDbSpline
70
4
71
3
72
8
73
4
74
0
42
0.000000001
43
0.0000000001
44
0.0000000001
40
0
40
0
40
0
40
0
40
1
40
1
40
1
40
1
41
1
41
1
41
1
41
1
10
-102.35183551258083
20
121.12163764693457
30
0
10
-103.65812097878559
20
123.86922726683649
30
0
10
-103.28148110086133
20
126.89680524769972
30
0
10
-100.69182252271693
20
134.46850211500177
30
0
0
SPLINE
5
352
100
AcDbEntity
8
0
100
AcDbSpline
70
4
71
3
72
8
73
4
74
0
42
0.000000001
43
0.0000000001
44
0.0000000001
40
0
40
0
40
0
40
0
40
1
40
1
40
1
40
1
41
1
41
1
41
1
41
1
10
-100.69182252271693
20
134.46850211500177
30
0
10
-98.84797095846929
20
139.85904776353004
30
0
10
-98.401081224618139
20
141.64759495575427
30
0
10
-97.395712358024937
20
147.6673865272879
30
0
0
SPLINE
5
353
100
AcDbEntity
8
0
100
AcDbSpline
70
4
71
3
72
8
73
4
74
0
42
0.000000001
43
0.0000000001
44
0.0000000001
40
0
40
0
40
0
40
0
40
1
40
1
40
1
40
1
41
1
41
1
41
1
41
1
10
-97.395712358024937
20
147.6673865272879
30
0
10
-95.968859559821439
20
156.20808441021961
30
0
10
-95.831355026328779
20
159.06128827624124
30
0
10
-96.52584870535847
20
165.71628571960042
30
0
0
SPLINE
5
354
100
AcDbEntity
8
0
100
AcDbSpline
70
4
71
3
72
8
73
4
74
0
42
0.000000001
43
0.0000000001
44
0.0000000001
40
0
40
0
40
0
40
0
40
1
40
1
40
1
40
1
41
1
41
1
41
1
41
1
10
-96.52584870535847
20
165.71628571960042
30
0
10
-96.801351900753616
20
168.35725763261189
30
0
10
-96.777937816103162
20
170.37299746570088
30
0
10
-96.463573321768692
20
171.06500529873034
30
0
0
SPLINE
5
355
100
AcDbEntity
8
0
100
AcDbSpline
70
4
71
3
72
8
73
4
74
0
42
0.000000001
43
0.0000000001
44
0.0000000001
40
0
40
0
40
0
40
0
40
1
40
1
40
1
40
1
41
1
41
1
41
1
41
1
10
-96.463573321768692
20
171.06500529873034
30
0
10
-95.723741460643126
20
172.69511211683619
30
0
10
-93.538622010639585
20
172.9457188423514
30
0
10
-92.784840524405723
20
171.48797921754567
30
0
0
SPLINE
5
356
100
AcDbEntity
8
0
100
AcDbSpline
70
4
71
3
72
8
73
4
74
0
42
0.000000001
43
0.0000000001
44
0.0000000001
40
0
40
0
40
0
40
0
40
1
40
1
40
1
40
1
41
1
41
1
41
1
41
1
10
-92.784840524405723
20
171.48797921754567
30
0
10
-92.084364090629293
20
170.13385451929378
30
0
10
-91.608586849741883
20
157.55372530377349
30
0
10
-92.109777494845687
20
153.64582335190644
30
0
0
SPLINE
5
357
100
AcDbEntity
8
0
100
AcDbSpline
70
4
71
3
72
8
73
4
74
0
42
0.000000001
43
0.0000000001
44
0.0000000001
40
0
40
0
40
0
40
0
40
1
40
1
40
1
40
1
41
1
41
1
41
1
41
1
10
-92.109777494845687
20
153.64582335190644
30
0
10
-93.310942843340541
20
144.27412311524759
30
0
10
-94.430409760751473
20
139.19395092389752
30
0
10
-96.807828783910168
20
132.32273809234738
30
0
0
SPLINE
5
358
100
AcDbEntity
8
0
100
AcDbSpline
70
4
71
3
72
8
73
4
74
0
42
0.000000001
43
0.0000000001
44
0.0000000001
40
0
40
0
40
0
40
0
40
1
40
1
40
1
40
1
41
1
41
1
41
1
41
1
10
-96.807828783910168
20
132.32273809234738
30
0
10
-98.759293913843464
20
126.68157811632841
30
0
10
-99.15686203041794
20
124.19056277273734
30
0
10
-98.320872780739279
20
122.83844499602691
30
0
0
SPLINE
5
359
100
AcDbEntity
8
0
100
AcDbSpline
70
4
71
3
72
8
73
4
74
0
42
0.000000001
43
0.0000000001
44
0.0000000001
40
0
40
0
40
0
40
0
40
1
40
1
40
1
40
1
41
1
41
1
41
1
41
1
10
-98.320872780739279
20
122.83844499602691
30
0
10
-96.887048970969389
20
120.51781273012109
30
0
10
-93.563031954085233
20
122.18330674434637
30
0
10
-90.262436623827085
20
126.87588461102504
30
0
0
SPLINE
5
360
100
AcDbEntity
8
0
100
AcDbSpline
70
4
71
3
72
8
73
4
74
0
42
0.000000001
43
0.0000000001
44
0.0000000001
40
0
40
0
40
0
40
0
40
1
40
1
40
1
40
1
41
1
41
1
41
1
41
1
10
-90.262436623827085
20
126.87588461102504
30
0
10
-86.351045365189066
20
132.43682854118961
30
0
10
-85.834909236181744
20
133.11886258231601
30
0
10
-84.565485749350401
20
134.406226731412
30
0
0
SPLINE
5
361
100
AcDbEntity
8
0
100
AcDbSpline
70
4
71
3
72
8
73
4
74
0
42
0.000000001
43
0.0000000001
44
0.0000000001
40
0
40
0
40
0
40
0
40
1
40
1
40
1
40
1
41
1
41
1
41
1
41
1
10
-84.565485749350401
20
134.406226731412
30
0
10
-80.748252559699566
20
138.27776083231549
30
0
10
-76.55338363332929
20
137.56531888904564
30
0
10
-73.742028642632562
20
132.56834271796001
30
0
0
SPLINE
5
362
100
AcDbEntity
8
0
100
AcDbSpline
70
4
71
3
72
8
73
4
74
0
42
0.000000001
43
0.0000000001
44
0.0000000001
40
0
40
0
40
0
40
0
40
1
40
1
40
1
40
1
41
1
41
1
41
1
41
1
10
-73.742028642632562
20
132.56834271796001
30
0
10
-71.195708927018103
20
128.04267382614674
30
0
10
-69.904368944716865
20
128.06807962838758
30
0
10
-66.097101944993554
20
132.72129446574155
30
0
0
SPLINE
5
363
100
AcDbEntity
8
0
100
AcDbSpline
70
4
71
3
72
8
73
4
74
0
42
0.000000001
43
0.0000000001
44
0.0000000001
40
0
40
0
40
0
40
0
40
1
40
1
40
1
40
1
41
1
41
1
41
1
41
1
10
-66.097101944993554
20
132.72129446574155
30
0
10
-62.83685790087975
20
136.70593075866759
30
0
10
-60.563061406250391
20
137.76310708853768
30
0
10
-57.887709558877994
20
136.53853525736793
30
0
0
SPLINE
5
364
100
AcDbEntity
8
0
100
AcDbSpline
70
4
71
3
72
8
73
4
74
0
42
0.000000001
43
0.0000000001
44
0.0000000001
40
0
40
0
40
0
40
0
40
1
40
1
40
1
40
1
41
1
41
1
41
1
41
1
10
-57.887709558877994
20
136.53853525736793
30
0
10
-53.775044594964747
20
134.65532826577112
30
0
10
-53.880662642072238
20
128.62855808069557
30
0
10
-58.211044384344788
20
118.12095545551725
30
0
0
SPLINE
5
365
100
AcDbEntity
8
0
100
AcDbSpline
70
4
71
3
72
8
73
4
74
0
42
0.000000001
43
0.0000000001
44
0.0000000001
40
0
40
0
40
0
40
0
40
1
40
1
40
1
40
1
41
1
41
1
41
1
41
1
10
-58.211044384344788
20
118.12095545551725
30
0
10
-66.345701748967286
20
98.383148164329015
30
0
10
-75.463313555315509
20
85.883729123073039
30
0
10
-86.621075138198407
20
79.174932498846601
30
0
0
SPLINE
5
366
100
AcDbEntity
8
0
100
AcDbSpline
70
4
71
3
72
8
73
4
74
0
42
0.000000001
43
0.0000000001
44
0.0000000001
40
0
40
0
40
0
40
0
40
1
40
1
40
1
40
1
41
1
41
1
41
1
41
1
10
-86.621075138198407
20
79.174932498846601
30
0
10
-91.126325123722367
20
76.465702447498643
30
0
10
-94.566910833473401
20
75.453354967363509
30
0
10
-101.30112086191623
20
74.856006933706595
30
0
0
SPLINE
5
367
100
AcDbEntity
8
0
100
AcDbSpline
70
4
71
3
72
8
73
4
74
0
42
0.000000001
43
0.0000000001
44
0.0000000001
40
0
40
0
40
0
40
0
40
1
40
1
40
1
40
1
41
1
41
1
41
1
41
1
10
-101.30112086191623
20
74.856006933706595
30
0
10
-105.34354737286588
20
74.497300116071429
30
0
10
-106.58456987909526
20
74.046928677424859
30
0
10
-107.07181089909076
20
72.762057976304646
30
0
0
SPLINE
5
368
100
AcDbEntity
8
0
100
AcDbSpline
70
4
71
3
72
8
73
4
74
0
42
0.000000001
43
0.0000000001
44
0.0000000001
40
0
40
0
40
0
40
0
40
1
40
1
40
1
40
1
41
1
41
1
41
1
41
1
10
-107.07181089909076
20
72.762057976304646
30
0
10
-107.59691735923036
20
71.376058194630858
30
0
10
-106.82370522352683
20
70.200298648376858
30
0
10
-103.62623829338817
20
67.520967166811431
30
0
0
SPLINE
5
369
100
AcDbEntity
8
0
100
AcDbSpline
70
4
71
3
72
8
73
4
74
0
42
0.000000001
43
0.0000000001
44
0.0000000001
40
0
40
0
40
0
40
0
40
1
40
1
40
1
40
1
41
1
41
1
41
1
41
1
10
-103.62623829338817
20
67.520967166811431
30
0
10
-97.18795796860536
20
62.125921148765961
30
0
10
-94.317809299114288
20
58.631524855184324
30
0
10
-91.488513646152938
20
52.743262664372168
30
0
0
SPLINE
5
370
100
AcDbEntity
8
0
100
AcDbSpline
70
4
71
3
72
8
73
4
74
0
42
0.000000001
43
0.0000000001
44
0.0000000001
40
0
40
0
40
0
40
0
40
1
40
1
40
1
40
1
41
1
41
1
41
1
41
1
10
-91.488513646152938
20
52.743262664372168
30
0
10
-88.071843751437697
20
45.631416899209896
30
0
10
-86.81636988971465
20
36.841119552521491
30
0
10
-88.234252356785845
20
29.958444842357185
30
0
0
SPLINE
5
371
100
AcDbEntity
8
0
100
AcDbSpline
70
4
71
3
72
8
73
4
74
0
42
0.000000001
43
0.0000000001
44
0.0000000001
40
0
40
0
40
0
40
0
40
1
40
1
40
1
40
1
41
1
41
1
41
1
41
1
10
-88.234252356785845
20
29.958444842357185
30
0
10
-90.633603079365486
20
18.313446040466566
30
0
10
-101.31358049981948
20
10.202202760494512
30
0
10
-111.3319427854364
20
12.416217319509856
30
0
0
ENDSEC
0
SECTION
2
OBJECTS
0
DICTIONARY
5
C
100
AcDbDictionary
3
ACAD_GROUP
350
D
3
ACAD_MLINESTYLE
350
17
0
DICTIONARY
5
D
100
AcDbDictionary
0
DICTIONARY
5
1A
330
C
100
AcDbDictionary
0
DICTIONARY
5
17
100
AcDbDictionary
0
ENDSEC
0
EOF
