0
SECTION
2
HEADER
9
$INSUNITS
70
4
9
$ACADVER
1
AC1014
9
$HANDSEED
5
FFFF
0
ENDSEC
0
SECTION
2
TABLES
0
TABLE
2
VPORT
5
8
100
AcDbSymbolTable
0
ENDTAB
0
TABLE
2
LTYPE
5
5
100
AcDbSymbolTable
0
LTYPE
5
14
100
AcDbSymbolTableRecord
100
AcDbLinetypeTableRecord
2
BYBLOCK
70
0
0
LTYPE
5
15
100
AcDbSymbolTableRecord
100
AcDbLinetypeTableRecord
2
BYLAYER
70
0
0
LTYPE
5
16
100
AcDbSymbolTableRecord
100
AcDbLinetypeTableRecord
2
DASHED
70
0
3
Dashed __ __ __ __ __ __ __ __ __ __ __ __ __ _
72
65
73
2
40
0.75
49
0.5
74
0
49
-0.25
74
0
0
ENDTAB
0
TABLE
2
LAYER
5
2
100
AcDbSymbolTable
70
2
0
LAYER
5
50
100
AcDbSymbolTableRecord
100
AcDbLayerTableRecord
2
0
70
0
62
7
6
CONTINUOUS
0
ENDTAB
0
TABLE
2
STYLE
5
3
100
AcDbSymbolTable
70
1
0
STYLE
5
11
100
AcDbSymbolTableRecord
100
AcDbTextStyleTableRecord
2
STANDARD
70
0
0
ENDTAB
0
TABLE
2
VIEW
5
6
100
AcDbSymbolTable
70
0
0
ENDTAB
0
TABLE
2
UCS
5
7
100
AcDbSymbolTable
70
0
0
ENDTAB
0
TABLE
2
APPID
5
9
100
AcDbSymbolTable
70
2
0
APPID
5
12
100
AcDbSymbolTableRecord
100
AcDbRegAppTableRecord
2
ACAD
70
0
0
ENDTAB
0
TABLE
2
DIMSTYLE
5
A
100
AcDbSymbolTable
70
1
0
ENDTAB
0
TABLE
2
BLOCK_RECORD
5
1
100
AcDbSymbolTable
70
1
0
BLOCK_RECORD
5
1F
100
AcDbSymbolTableRecord
100
AcDbBlockTableRecord
2
*MODEL_SPACE
0
BLOCK_RECORD
5
1B
100
AcDbSymbolTableRecord
100
AcDbBlockTableRecord
2
*PAPER_SPACE
0
ENDTAB
0
ENDSEC
0
SECTION
2
BLOCKS
0
BLOCK
5
20
100
AcDbEntity
100
AcDbBlockBegin
2
*MODEL_SPACE
0
ENDBLK
5
21
100
AcDbEntity
100
AcDbBlockEnd
0
BLOCK
5
1C
100
AcDbEntity
100
AcDbBlockBegin
2
*PAPER_SPACE
0
ENDBLK
5
1D
100
AcDbEntity
100
AcDbBlockEnd
0
ENDSEC
0
SECTION
2
ENTITIES
0
SPLINE
5
100
100
AcDbEntity
8
0
100
AcDbSpline
70
4
71
3
72
8
73
4
74
0
42
0.000000001
43
0.0000000001
44
0.0000000001
40
-1
40
-1
40
-1
40
-1
40
-0.69103889826939124
40
-0.69103889826939124
40
-0.69103889826939124
40
-0.69103889826939124
41
1
41
1
41
1
41
1
10
-184.791272887351
20
-15.400449978095656
30
0
10
-179.65365018836721
20
-14.111779711185823
30
0
10
-174.41120011434364
20
-14.679913373670352
30
0
10
-169.50166595283036
20
-16.727509267652998
30
0
0
SPLINE
5
101
100
AcDbEntity
8
0
100
AcDbSpline
70
4
71
3
72
8
73
4
74
0
42
0.000000001
43
0.0000000001
44
0.0000000001
40
0.25781736666594379
40
0.25781736666594379
40
0.25781736666594379
40
0.25781736666594379
40
0.84965814115224292
40
0.84965814115224292
40
0.84965814115224292
40
0.84965814115224292
41
1
41
1
41
1
41
1
10
-169.50166595282502
20
-16.727509267650117
30
0
10
-164.20565395717517
20
-19.033377552115166
30
0
10
-159.10010873317501
20
-23.139438923360956
30
0
10
-155.04714216763921
20
-28.411585290951393
30
0
0
SPLINE
5
102
100
AcDbEntity
8
0
100
AcDbSpline
70
4
71
3
72
8
73
4
74
0
42
0.000000001
43
0.0000000001
44
0.0000000001
40
-0.34993306073149127
40
-0.34993306073149127
40
-0.34993306073149127
40
-0.34993306073149127
40
-0.10601754634630338
40
-0.10601754634630338
40
-0.10601754634630338
40
-0.10601754634630338
41
1
41
1
41
1
41
1
10
-155.04714216763898
20
-28.411585290951457
30
0
10
-152.17279267907205
20
-32.244009150449891
30
0
10
-149.80715195353014
20
-36.738875024166667
30
0
10
-148.16561039665797
20
-41.710512945963856
30
0
0
SPLINE
5
103
100
AcDbEntity
8
0
100
AcDbSpline
70
4
71
3
72
8
73
4
74
0
42
0.000000001
43
0.0000000001
44
0.0000000001
40
0.16658846359255394
40
0.16658846359255394
40
0.16658846359255394
40
0.16658846359255394
40
0.44040798777577278
40
0.44040798777577278
40
0.44040798777577278
40
0.44040798777577278
41
1
41
1
41
1
41
1
10
-148.16561039663947
20
-41.710512946022753
30
0
10
-146.46622056523645
20
-47.069308348697689
30
0
10
-145.58284731339546
20
-53.008271594763201
30
0
10
-145.50218046126929
20
-59.213762837491771
30
0
0
SPLINE
5
104
100
AcDbEntity
8
0
100
AcDbSpline
70
4
71
3
72
8
73
4
74
0
42
0.000000001
43
0.0000000001
44
0.0000000001
40
-0.73903166362090578
40
-0.73903166362090578
40
-0.73903166362090578
40
-0.73903166362090578
40
-0.25825565007241608
40
-0.25825565007241608
40
-0.25825565007241608
40
-0.25825565007241608
41
1
41
1
41
1
41
1
10
-145.50218046126869
20
-59.213762837491934
30
0
10
-145.45634304265494
20
-66.128225962516964
30
0
10
-146.38488807058812
20
-73.465851384892233
30
0
10
-148.19334510178754
20
-80.47587209474645
30
0
0
SPLINE
5
105
100
AcDbEntity
8
0
100
AcDbSpline
70
4
71
3
72
8
73
4
74
0
42
0.000000001
43
0.0000000001
44
0.0000000001
40
0.74493995073787
40
0.74493995073787
40
0.74493995073787
40
0.74493995073787
40
1
40
1
40
1
40
1
41
1
41
1
41
1
41
1
10
-148.19334510178879
20
-80.475872094746066
30
0
10
-149.76602612159709
20
-86.447086937547567
30
0
10
-152.02234952558837
20
-92.346900402381792
30
0
10
-154.9515576489836
20
-97.921819871481659
30
0
0
SPLINE
5
106
100
AcDbEntity
8
0
100
AcDbSpline
70
4
71
3
72
8
73
4
74
0
42
0.000000001
43
0.0000000001
44
0.0000000001
40
0
40
0
40
0
40
0
40
0.26824034744056557
40
0.26824034744056557
40
0.26824034744056557
40
0.26824034744056557
41
1
41
1
41
1
41
1
10
-154.9515576489836
20
-97.921819871481659
30
0
10
-156.02935842334304
20
-99.973670407506347
30
0
10
-157.11965457725887
20
-101.85169221939287
30
0
10
-158.30880708791813
20
-103.66377802494728
30
0
0
SPLINE
5
107
100
AcDbEntity
8
0
100
AcDbSpline
70
4
71
3
72
8
73
4
74
0
42
0.000000001
43
0.0000000001
44
0.0000000001
40
0.26824034744057162
40
0.26824034744057162
40
0.26824034744057162
40
0.26824034744057162
40
0.99918950472980728
40
0.99918950472980728
40
0.99918950472980728
40
0.99918950472980728
41
1
41
1
41
1
41
1
10
-158.30880708791818
20
-103.66377802494739
30
0
10
-161.54922201374268
20
-108.60167273446447
30
0
10
-165.52369554533436
20
-113.04995914288233
30
0
10
-171.97968569020162
20
-119.1917759758533
30
0
0
LINE
5
108
100
AcDbEntity
8
0
100
AcDbLine
10
-171.97968569020165
20
-119.19177597585329
30
0
11
-172.00117055056111
21
-119.21221283992865
31
0
0
SPLINE
5
109
100
AcDbEntity
8
0
100
AcDbSpline
70
4
71
3
72
8
73
4
74
0
42
0.000000001
43
0.0000000001
44
0.0000000001
40
-1
40
-1
40
-1
40
-1
40
0
40
0
40
0
40
0
41
1
41
1
41
1
41
1
10
-172.00117055056111
20
-119.21221283992865
30
0
10
-177.30839837083073
20
-124.25980175310352
30
0
10
-178.59179333541849
20
-126.47481355401878
30
0
10
-177.7202097741976
20
-129.08589664686249
30
0
0
SPLINE
5
110
100
AcDbEntity
8
0
100
AcDbSpline
70
4
71
3
72
8
73
4
74
0
42
0.000000001
43
0.0000000001
44
0.0000000001
40
-1
40
-1
40
-1
40
-1
40
0
40
0
40
0
40
0
41
1
41
1
41
1
41
1
10
-177.7202097741976
20
-129.08589664686249
30
0
10
-176.91147612565771
20
-131.50646280318162
30
0
10
-174.85159894332963
20
-132.35491694040351
30
0
10
-168.14188812878271
20
-133.03068422348622
30
0
0
SPLINE
5
111
100
AcDbEntity
8
0
100
AcDbSpline
70
4
71
3
72
8
73
4
74
0
42
0.000000001
43
0.0000000001
44
0.0000000001
40
-1
40
-1
40
-1
40
-1
40
0
40
0
40
0
40
0
41
1
41
1
41
1
41
1
10
-168.14188812878271
20
-133.03068422348622
30
0
10
-156.96429424231823
20
-134.1560273670049
30
0
10
-151.25353238120306
20
-136.06318740008342
30
0
10
-143.77561671143718
20
-141.16710218797459
30
0
0
SPLINE
5
112
100
AcDbEntity
8
0
100
AcDbSpline
70
4
71
3
72
8
73
4
74
0
42
0.000000001
43
0.0000000001
44
0.0000000001
40
-1
40
-1
40
-1
40
-1
40
0
40
0
40
0
40
0
41
1
41
1
41
1
41
1
10
-143.77561671143718
20
-141.16710218797459
30
0
10
-125.2557120561469
20
-153.80579497167054
30
0
10
-110.12209407343596
20
-177.35343340605658
30
0
10
-96.620006071539549
20
-214.53746156339923
30
0
0
SPLINE
5
113
100
AcDbEntity
8
0
100
AcDbSpline
70
4
71
3
72
8
73
4
74
0
42
0.000000001
43
0.0000000001
44
0.0000000001
40
-1
40
-1
40
-1
40
-1
40
0
40
0
40
0
40
0
41
1
41
1
41
1
41
1
10
-96.620006071539549
20
-214.53746156339923
30
0
10
-89.432340661039149
20
-234.33271977605955
30
0
10
-89.257033441237184
20
-245.68654388395481
30
0
10
-96.083327626235061
20
-249.2343149594634
30
0
0
SPLINE
5
114
100
AcDbEntity
8
0
100
AcDbSpline
70
4
71
3
72
8
73
4
74
0
42
0.000000001
43
0.0000000001
44
0.0000000001
40
-1
40
-1
40
-1
40
-1
40
0
40
0
40
0
40
0
41
1
41
1
41
1
41
1
10
-96.083327626235061
20
-249.2343149594634
30
0
10
-100.52393704100352
20
-251.54128415716315
30
0
10
-104.29803581281008
20
-249.54967111538849
30
0
10
-109.70946250457537
20
-242.04302025356361
30
0
0
SPLINE
5
115
100
AcDbEntity
8
0
100
AcDbSpline
70
4
71
3
72
8
73
4
74
0
42
0.000000001
43
0.0000000001
44
0.0000000001
40
-1
40
-1
40
-1
40
-1
40
0
40
0
40
0
40
0
41
1
41
1
41
1
41
1
10
-109.70946250457537
20
-242.04302025356361
30
0
10
-116.0288502516911
20
-233.27683518641174
30
0
10
-118.17224551714219
20
-233.22897323032174
30
0
10
-122.39868448563655
20
-241.75487466513431
30
0
0
SPLINE
5
116
100
AcDbEntity
8
0
100
AcDbSpline
70
4
71
3
72
8
73
4
74
0
42
0.000000001
43
0.0000000001
44
0.0000000001
40
-1
40
-1
40
-1
40
-1
40
0
40
0
40
0
40
0
41
1
41
1
41
1
41
1
10
-122.39868448563655
20
-241.75487466513431
30
0
10
-127.06503498910601
20
-251.16867123868639
30
0
10
-134.02777316743379
20
-252.5108396410927
30
0
10
-140.36370302166151
20
-245.21726184411131
30
0
0
SPLINE
5
117
100
AcDbEntity
8
0
100
AcDbSpline
70
4
71
3
72
8
73
4
74
0
42
0.000000001
43
0.0000000001
44
0.0000000001
40
-1
40
-1
40
-1
40
-1
40
0
40
0
40
0
40
0
41
1
41
1
41
1
41
1
10
-140.36370302166151
20
-245.21726184411131
30
0
10
-142.47072079298303
20
-242.79199828456137
30
0
10
-143.32741519601007
20
-241.50711528740936
30
0
10
-149.8196307395506
20
-231.03086062395647
30
0
0
SPLINE
5
118
100
AcDbEntity
8
0
100
AcDbSpline
70
4
71
3
72
8
73
4
74
0
42
0.000000001
43
0.0000000001
44
0.0000000001
40
-1
40
-1
40
-1
40
-1
40
0
40
0
40
0
40
0
41
1
41
1
41
1
41
1
10
-149.8196307395506
20
-231.03086062395647
30
0
10
-155.2980334073269
20
-222.19051959970287
30
0
10
-160.81531191950597
20
-219.05289770446402
30
0
10
-163.1952050595566
20
-223.4247336559074
30
0
0
SPLINE
5
119
100
AcDbEntity
8
0
100
AcDbSpline
70
4
71
3
72
8
73
4
74
0
42
0.000000001
43
0.0000000001
44
0.0000000001
40
-1
40
-1
40
-1
40
-1
40
0
40
0
40
0
40
0
41
1
41
1
41
1
41
1
10
-163.1952050595566
20
-223.4247336559074
30
0
10
-164.58279889564
20
-225.9719864859465
30
0
10
-163.92290635731601
20
-230.66480688438133
30
0
10
-160.68382046396511
20
-241.29218044689503
30
0
0
SPLINE
5
120
100
AcDbEntity
8
0
100
AcDbSpline
70
4
71
3
72
8
73
4
74
0
42
0.000000001
43
0.0000000001
44
0.0000000001
40
-1
40
-1
40
-1
40
-1
40
0
40
0
40
0
40
0
41
1
41
1
41
1
41
1
10
-160.68382046396511
20
-241.29218044689503
30
0
10
-156.73772667915816
20
-254.23684890140572
30
0
10
-154.87961020828752
20
-263.80737834373355
30
0
10
-152.88588883647671
20
-281.46271160041573
30
0
0
SPLINE
5
121
100
AcDbEntity
8
0
100
AcDbSpline
70
4
71
3
72
8
73
4
74
0
42
0.000000001
43
0.0000000001
44
0.0000000001
40
-1
40
-1
40
-1
40
-1
40
0
40
0
40
0
40
0
41
1
41
1
41
1
41
1
10
-152.88588883647671
20
-281.46271160041573
30
0
10
-152.05400128515231
20
-288.82480274208126
30
0
10
-152.84370709423766
20
-312.52449096336363
30
0
10
-154.00637369814848
20
-315.07552463014952
30
0
0
SPLINE
5
122
100
AcDbEntity
8
0
100
AcDbSpline
70
4
71
3
72
8
73
4
74
0
42
0.000000001
43
0.0000000001
44
0.0000000001
40
-1
40
-1
40
-1
40
-1
40
0
40
0
40
0
40
0
41
1
41
1
41
1
41
1
10
-154.00637369814848
20
-315.07552463014952
30
0
10
-155.25751723193667
20
-317.82175831533948
30
0
10
-158.88442784244552
20
-317.34964064793593
30
0
10
-160.11241747344917
20
-314.27868464306175
30
0
0
SPLINE
5
123
100
AcDbEntity
8
0
100
AcDbSpline
70
4
71
3
72
8
73
4
74
0
42
0.000000001
43
0.0000000001
44
0.0000000001
40
-1
40
-1
40
-1
40
-1
40
0
40
0
40
0
40
0
41
1
41
1
41
1
41
1
10
-160.11241747344917
20
-314.27868464306175
30
0
10
-160.63420676055983
20
-312.97501203298629
30
0
10
-160.67306998703191
20
-309.17756251867672
30
0
10
-160.21578356152045
20
-304.20223914423019
30
0
0
SPLINE
5
124
100
AcDbEntity
8
0
100
AcDbSpline
70
4
71
3
72
8
73
4
74
0
42
0.000000001
43
0.0000000001
44
0.0000000001
40
-1
40
-1
40
-1
40
-1
40
0
40
0
40
0
40
0
41
1
41
1
41
1
41
1
10
-160.21578356152045
20
-304.20223914423019
30
0
10
-159.06304726904909
20
-291.66489856378053
30
0
10
-159.291280399058
20
-286.28975170336139
30
0
10
-161.65960289668166
20
-270.19994264417227
30
0
0
SPLINE
5
125
100
AcDbEntity
8
0
100
AcDbSpline
70
4
71
3
72
8
73
4
74
0
42
0.000000001
43
0.0000000001
44
0.0000000001
40
-1
40
-1
40
-1
40
-1
40
0
40
0
40
0
40
0
41
1
41
1
41
1
41
1
10
-161.65960289668166
20
-270.19994264417227
30
0
10
-163.32833684608488
20
-258.85926553678291
30
0
10
-164.07009451861373
20
-255.48982392783103
30
0
10
-167.13056098536103
20
-245.33458235407215
30
0
0
SPLINE
5
126
100
AcDbEntity
8
0
100
AcDbSpline
70
4
71
3
72
8
73
4
74
0
42
0.000000001
43
0.0000000001
44
0.0000000001
40
-1
40
-1
40
-1
40
-1
40
0
40
0
40
0
40
0
41
1
41
1
41
1
41
1
10
-167.13056098536103
20
-245.33458235407215
30
0
10
-171.42893477662082
20
-231.07027298277146
30
0
10
-172.05409015180268
20
-225.36662296592141
30
0
10
-169.88588803464896
20
-220.19044263930184
30
0
0
SPLINE
5
127
100
AcDbEntity
8
0
100
AcDbSpline
70
4
71
3
72
8
73
4
74
0
42
0.000000001
43
0.0000000001
44
0.0000000001
40
-1
40
-1
40
-1
40
-1
40
0
40
0
40
0
40
0
41
1
41
1
41
1
41
1
10
-169.88588803464896
20
-220.19044263930184
30
0
10
-167.05283453241685
20
-213.42621062957306
30
0
10
-160.00739843645982
20
-211.50497270815336
30
0
10
-153.62102209540237
20
-215.7557216342405
30
0
0
SPLINE
5
128
100
AcDbEntity
8
0
100
AcDbSpline
70
4
71
3
72
8
73
4
74
0
42
0.000000001
43
0.0000000001
44
0.0000000001
40
-1
40
-1
40
-1
40
-1
40
0
40
0
40
0
40
0
41
1
41
1
41
1
41
1
10
-153.62102209540237
20
-215.7557216342405
30
0
10
-149.21183763697442
20
-218.69061048028428
30
0
10
-146.35976891321843
20
-222.24120286200167
30
0
10
-140.14456741966768
20
-232.53255455864485
30
0
0
SPLINE
5
129
100
AcDbEntity
8
0
100
AcDbSpline
70
4
71
3
72
8
73
4
74
0
42
0.000000001
43
0.0000000001
44
0.0000000001
40
-1
40
-1
40
-1
40
-1
40
0
40
0
40
0
40
0
41
1
41
1
41
1
41
1
10
-140.14456741966768
20
-232.53255455864485
30
0
10
-136.12155472947958
20
-239.19261305891865
30
0
10
-135.19953729935966
20
-240.44183589129977
30
0
10
-133.75157928293774
20
-241.19267569796833
30
0
0
SPLINE
5
130
100
AcDbEntity
8
0
100
AcDbSpline
70
4
71
3
72
8
73
4
74
0
42
0.000000001
43
0.0000000001
44
0.0000000001
40
-1
40
-1
40
-1
40
-1
40
0
40
0
40
0
40
0
41
1
41
1
41
1
41
1
10
-133.75157928293774
20
-241.19267569796833
30
0
10
-131.49490023590661
20
-242.36401902190622
30
0
10
-130.12798718819585
20
-241.3719503737118
30
0
10
-128.19875606005351
20
-237.16250422481301
30
0
0
SPLINE
5
131
100
AcDbEntity
8
0
100
AcDbSpline
70
4
71
3
72
8
73
4
74
0
42
0.000000001
43
0.0000000001
44
0.0000000001
40
-1
40
-1
40
-1
40
-1
40
0
40
0
40
0
40
0
41
1
41
1
41
1
41
1
10
-128.19875606005351
20
-237.16250422481301
30
0
10
-122.88987529086575
20
-225.58061259724894
30
0
10
-115.62944227417555
20
-223.87054300094803
30
0
10
-107.87202682207736
20
-232.37393127149559
30
0
0
SPLINE
5
132
100
AcDbEntity
8
0
100
AcDbSpline
70
4
71
3
72
8
73
4
74
0
42
0.000000001
43
0.0000000001
44
0.0000000001
40
-1
40
-1
40
-1
40
-1
40
0
40
0
40
0
40
0
41
1
41
1
41
1
41
1
10
-107.87202682207736
20
-232.37393127149559
30
0
10
-106.76558571724436
20
-233.58657737262192
30
0
10
-106.05691225893948
20
-234.53264584039721
30
0
10
-103.18912790253057
20
-238.6266618977084
30
0
0
SPLINE
5
133
100
AcDbEntity
8
0
100
AcDbSpline
70
4
71
3
72
8
73
4
74
0
42
0.000000001
43
0.0000000001
44
0.0000000001
40
-1
40
-1
40
-1
40
-1
40
0
40
0
40
0
40
0
41
1
41
1
41
1
41
1
10
-103.18912790253057
20
-238.6266618977084
30
0
10
-100.97626461976061
20
-241.78586606937694
30
0
10
-98.788208188693289
20
-242.4634951281304
30
0
10
-97.800028639090755
20
-240.29635960465646
30
0
0
SPLINE
5
134
100
AcDbEntity
8
0
100
AcDbSpline
70
4
71
3
72
8
73
4
74
0
42
0.000000001
43
0.0000000001
44
0.0000000001
40
-1
40
-1
40
-1
40
-1
40
0
40
0
40
0
40
0
41
1
41
1
41
1
41
1
10
-97.800028639090755
20
-240.29635960465646
30
0
10
-96.346291610420707
20
-237.10524746226127
30
0
10
-99.662277482256712
20
-225.58811698533731
30
0
10
-107.58177656281185
20
-206.31939757507217
30
0
0
SPLINE
5
135
100
AcDbEntity
8
0
100
AcDbSpline
70
4
71
3
72
8
73
4
74
0
42
0.000000001
43
0.0000000001
44
0.0000000001
40
-1
40
-1
40
-1
40
-1
40
0
40
0
40
0
40
0
41
1
41
1
41
1
41
1
10
-107.58177656281185
20
-206.31939757507217
30
0
10
-118.35912968833642
20
-180.09591489720242
30
0
10
-127.5339046749751
20
-165.76498259959089
30
0
10
-142.01094863512901
20
-152.53967294473929
30
0
0
SPLINE
5
136
100
AcDbEntity
8
0
100
AcDbSpline
70
4
71
3
72
8
73
4
74
0
42
0.000000001
43
0.0000000001
44
0.0000000001
40
-1
40
-1
40
-1
40
-1
40
0
40
0
40
0
40
0
41
1
41
1
41
1
41
1
10
-142.01094863512901
20
-152.53967294473929
30
0
10
-150.34721165684007
20
-144.92511070076657
30
0
10
-156.8898736872103
20
-142.11786805898072
30
0
10
-168.49002945397484
20
-141.17835877010708
30
0
0
SPLINE
5
137
100
AcDbEntity
8
0
100
AcDbSpline
70
4
71
3
72
8
73
4
74
0
42
0.000000001
43
0.0000000001
44
0.0000000001
40
-1
40
-1
40
-1
40
-1
40
0
40
0
40
0
40
0
41
1
41
1
41
1
41
1
10
-168.49002945397484
20
-141.17835877010708
30
0
10
-179.11110950811729
20
-140.31770284156602
30
0
10
-183.80971144238632
20
-137.19978712573462
30
0
10
-185.02199174970244
20
-130.20654238715034
30
0
0
SPLINE
5
138
100
AcDbEntity
8
0
100
AcDbSpline
70
4
71
3
72
8
73
4
74
0
42
0.000000001
43
0.0000000001
44
0.0000000001
40
-1
40
-1
40
-1
40
-1
40
0
40
0
40
0
40
0
41
1
41
1
41
1
41
1
10
-185.02199174970244
20
-130.20654238715034
30
0
10
-186.01430367160032
20
-124.48224098170607
30
0
10
-183.65838459982794
20
-119.88985622003344
30
0
10
-175.97043085608328
20
-112.56342524313868
30
0
0
SPLINE
5
139
100
AcDbEntity
8
0
100
AcDbSpline
70
4
71
3
72
8
73
4
74
0
42
0.000000001
43
0.0000000001
44
0.0000000001
40
-1
40
-1
40
-1
40
-1
40
0
40
0
40
0
40
0
41
1
41
1
41
1
41
1
10
-175.97043085608328
20
-112.56342524313868
30
0
10
-163.71452123225535
20
-100.88486449420796
30
0
10
-157.57208734489441
20
-90.258443301556568
30
0
10
-154.12214321207105
20
-74.772135986721793
30
0
0
SPLINE
5
140
100
AcDbEntity
8
0
100
AcDbSpline
70
4
71
3
72
8
73
4
74
0
42
0.000000001
43
0.0000000001
44
0.0000000001
40
-1
40
-1
40
-1
40
-1
40
0
40
0
40
0
40
0
41
1
41
1
41
1
41
1
10
-154.12214321207105
20
-74.772135986721793
30
0
10
-149.10103958773692
20
-52.227829943338392
30
0
10
-155.15580409278354
20
-33.198438215212391
30
0
10
-170.02977029811041
20
-24.774827032157084
30
0
0
SPLINE
5
141
100
AcDbEntity
8
0
100
AcDbSpline
70
4
71
3
72
8
73
4
74
0
42
0.000000001
43
0.0000000001
44
0.0000000001
40
-1
40
-1
40
-1
40
-1
40
0
40
0
40
0
40
0
41
1
41
1
41
1
41
1
10
-170.02977029811041
20
-24.774827032157084
30
0
10
-176.97018735707809
20
-20.843182875701398
30
0
10
-182.29230433554153
20
-21.376286227504941
30
0
10
-192.72979349839534
20
-27.048968112308312
30
0
0
SPLINE
5
142
100
AcDbEntity
8
0
100
AcDbSpline
70
4
71
3
72
8
73
4
74
0
42
0.000000001
43
0.0000000001
44
0.0000000001
40
-1
40
-1
40
-1
40
-1
40
0
40
0
40
0
40
0
41
1
41
1
41
1
41
1
10
-192.72979349839534
20
-27.048968112308312
30
0
10
-199.76943796417359
20
-30.875493550122293
30
0
10
-201.5241757290423
20
-31.599126369632835
30
0
10
-206.07063065525921
20
-32.548016143616884
30
0
0
SPLINE
5
143
100
AcDbEntity
8
0
100
AcDbSpline
70
4
71
3
72
8
73
4
74
0
42
0.000000001
43
0.0000000001
44
0.0000000001
40
-1
40
-1
40
-1
40
-1
40
0
40
0
40
0
40
0
41
1
41
1
41
1
41
1
10
-206.07063065525921
20
-32.548016143616884
30
0
10
-216.98114080317342
20
-34.825909417812262
30
0
10
-219.31306057080621
20
-37.513959032952997
30
0
10
-220.19293411247912
20
-48.823655477113263
30
0
0
SPLINE
5
144
100
AcDbEntity
8
0
100
AcDbSpline
70
4
71
3
72
8
73
4
74
0
42
0.000000001
43
0.0000000001
44
0.0000000001
40
-1
40
-1
40
-1
40
-1
40
0
40
0
40
0
40
0
41
1
41
1
41
1
41
1
10
-220.19293411247912
20
-48.823655477113263
30
0
10
-220.78582543893077
20
-56.436345204401739
30
0
10
-221.51766541795084
20
-59.299906560228266
30
0
10
-224.30607668146277
20
-64.922841441074979
30
0
0
SPLINE
5
145
100
AcDbEntity
8
0
100
AcDbSpline
70
4
71
3
72
8
73
4
74
0
42
0.000000001
43
0.0000000001
44
0.0000000001
40
-1
40
-1
40
-1
40
-1
40
0
40
0
40
0
40
0
41
1
41
1
41
1
41
1
10
-224.30607668146277
20
-64.922841441074979
30
0
10
-227.94703104881037
20
-72.264295515497693
30
0
10
-228.59450754335239
20
-74.25780613632142
30
0
10
-228.38446946937364
20
-77.481771458629908
30
0
0
SPLINE
5
146
100
AcDbEntity
8
0
100
AcDbSpline
70
4
71
3
72
8
73
4
74
0
42
0.000000001
43
0.0000000001
44
0.0000000001
40
-1
40
-1
40
-1
40
-1
40
0
40
0
40
0
40
0
41
1
41
1
41
1
41
1
10
-228.38446946937364
20
-77.481771458629908
30
0
10
-227.99747753564006
20
-83.415372252846524
30
0
10
-223.08965769288602
20
-91.090950614090772
30
0
10
-219.66616074275271
20
-91.11629224524016
30
0
0
SPLINE
5
147
100
AcDbEntity
8
0
100
AcDbSpline
70
4
71
3
72
8
73
4
74
0
42
0.000000001
43
0.0000000001
44
0.0000000001
40
-1
40
-1
40
-1
40
-1
40
0
40
0
40
0
40
0
41
1
41
1
41
1
41
1
10
-219.66616074275271
20
-91.11629224524016
30
0
10
-217.45247098552369
20
-91.133184279114531
30
0
10
-216.74379752721879
20
-89.479433396854247
30
0
10
-216.51309128279806
20
-83.753255894387891
30
0
0
SPLINE
5
148
100
AcDbEntity
8
0
100
AcDbSpline
70
4
71
3
72
8
73
4
74
0
42
0.000000001
43
0.0000000001
44
0.0000000001
40
-1
40
-1
40
-1
40
-1
40
0
40
0
40
0
40
0
41
1
41
1
41
1
41
1
10
-216.51309128279806
20
-83.753255894387891
30
0
10
-215.94498157218769
20
-69.68136103866081
30
0
10
-213.35338479130951
20
-62.152204173246645
30
0
10
-206.18060853900295
20
-53.740794781510523
30
0
0
SPLINE
5
149
100
AcDbEntity
8
0
100
AcDbSpline
70
4
71
3
72
8
73
4
74
0
42
0.000000001
43
0.0000000001
44
0.0000000001
40
-1
40
-1
40
-1
40
-1
40
0
40
0
40
0
40
0
41
1
41
1
41
1
41
1
10
-206.18060853900295
20
-53.740794781510523
30
0
10
-192.30061982242276
20
-37.46045804478328
30
0
10
-177.91784442232506
20
-33.521305919901458
30
0
10
-170.17283239607818
20
-43.877422347522462
30
0
0
SPLINE
5
150
100
AcDbEntity
8
0
100
AcDbSpline
70
4
71
3
72
8
73
4
74
0
42
0.000000001
43
0.0000000001
44
0.0000000001
40
-1
40
-1
40
-1
40
-1
40
0
40
0
40
0
40
0
41
1
41
1
41
1
41
1
10
-170.17283239607818
20
-43.877422347522462
30
0
10
-161.74394114529835
20
-55.149578949551994
30
0
10
-165.93068410389623
20
-79.128948840637293
30
0
10
-179.04991254435441
20
-94.716622680069634
30
0
0
SPLINE
5
151
100
AcDbEntity
8
0
100
AcDbSpline
70
4
71
3
72
8
73
4
74
0
42
0.000000001
43
0.0000000001
44
0.0000000001
40
-1
40
-1
40
-1
40
-1
40
0
40
0
40
0
40
0
41
1
41
1
41
1
41
1
10
-179.04991254435441
20
-94.716622680069634
30
0
10
-184.8574286978683
20
-101.61600528214466
30
0
10
-188.56124559582759
20
-105.07273552735279
30
0
10
-198.54475423100615
20
-112.91256546681252
30
0
0
SPLINE
5
152
100
AcDbEntity
8
0
100
AcDbSpline
70
4
71
3
72
8
73
4
74
0
42
0.000000001
43
0.0000000001
44
0.0000000001
40
-1
40
-1
40
-1
40
-1
40
0
40
0
40
0
40
0
41
1
41
1
41
1
41
1
10
-198.54475423100615
20
-112.91256546681252
30
0
10
-217.78904166828892
20
-128.02345287831301
30
0
10
-225.59358509144985
20
-142.10941846170567
30
0
10
-225.07675465109367
20
-160.80186101646353
30
0
0
SPLINE
5
153
100
AcDbEntity
8
0
100
AcDbSpline
70
4
71
3
72
8
73
4
74
0
42
0.000000001
43
0.0000000001
44
0.0000000001
40
-1
40
-1
40
-1
40
-1
40
0
40
0
40
0
40
0
41
1
41
1
41
1
41
1
10
-225.07675465109367
20
-160.80186101646353
30
0
10
-224.68479125267504
20
-174.99576662470668
30
0
10
-219.07821564512486
20
-186.22380630401472
30
0
10
-206.07063065525924
20
-198.86626560310611
30
0
0
SPLINE
5
154
100
AcDbEntity
8
0
100
AcDbSpline
70
4
71
3
72
8
73
4
74
0
42
0.000000001
43
0.0000000001
44
0.0000000001
40
0
40
0
40
0
40
0
40
0.17224760692828442
40
0.17224760692828442
40
0.17224760692828442
40
0.17224760692828442
41
1
41
1
41
1
41
1
10
-206.07063065525924
20
-198.86626560310611
30
0
10
-204.54171828816001
20
-200.35245467346402
30
0
10
-203.05785056748238
20
-201.85337472610385
30
0
10
-201.62251404456896
20
-203.364728124956
30
0
0
SPLINE
5
155
100
AcDbEntity
8
0
100
AcDbSpline
70
4
71
3
72
8
73
4
74
0
42
0.000000001
43
0.0000000001
44
0.0000000001
40
-0.91935945897280502
40
-0.91935945897280502
40
-0.91935945897280502
40
-0.91935945897280502
40
-0.52204718016039464
40
-0.52204718016039464
40
-0.52204718016039464
40
-0.52204718016039464
41
1
41
1
41
1
41
1
10
-201.62251404425544
20
-203.36472812527884
30
0
10
-194.56196568062327
20
-210.80507949640395
30
0
10
-188.69157623950386
20
-218.53093605706744
30
0
10
-183.78459686554646
20
-226.94305138176526
30
0
0
SPLINE
5
156
100
AcDbEntity
8
0
100
AcDbSpline
70
4
71
3
72
8
73
4
74
0
42
0.000000001
43
0.0000000001
44
0.0000000001
40
0.042946724742795588
40
0.042946724742795588
40
0.042946724742795588
40
0.042946724742795588
40
1
40
1
40
1
40
1
41
1
41
1
41
1
41
1
10
-183.7845968655231
20
-226.94305138180778
30
0
10
-177.22628524624551
20
-238.42632266787791
30
0
10
-172.5303607898349
20
-250.32299056790413
30
0
10
-168.91755018102936
20
-264.56575118119304
30
0
0
SPLINE
5
157
100
AcDbEntity
8
0
100
AcDbSpline
70
4
71
3
72
8
73
4
74
0
42
0.000000001
43
0.0000000001
44
0.0000000001
40
-1
40
-1
40
-1
40
-1
40
0
40
0
40
0
40
0
41
1
41
1
41
1
41
1
10
-168.91755018102936
20
-264.56575118119304
30
0
10
-165.16411957966477
20
-279.36503463081266
30
0
10
-164.24210214954482
20
-288.15656848978955
30
0
10
-165.21705179883696
20
-299.85857329082057
30
0
0
SPLINE
5
158
100
AcDbEntity
8
0
100
AcDbSpline
70
4
71
3
72
8
73
4
74
0
42
0.000000001
43
0.0000000001
44
0.0000000001
40
-1
40
-1
40
-1
40
-1
40
0
40
0
40
0
40
0
41
1
41
1
41
1
41
1
10
-165.21705179883696
20
-299.85857329082057
30
0
10
-165.41799234480067
20
-302.26785422230466
30
0
10
-165.64457252589142
20
-305.70300219108321
30
0
10
-165.72147881334189
20
-307.49191082636543
30
0
0
SPLINE
5
159
100
AcDbEntity
8
0
100
AcDbSpline
70
4
71
3
72
8
73
4
74
0
42
0.000000001
43
0.0000000001
44
0.0000000001
40
-1
40
-1
40
-1
40
-1
40
0
40
0
40
0
40
0
41
1
41
1
41
1
41
1
10
-165.72147881334189
20
-307.49191082636543
30
0
10
-165.98278353964412
20
-313.57567814978063
30
0
10
-166.87421510581322
20
-315.37773378556869
30
0
10
-169.61961184366172
20
-315.37492680071125
30
0
0
SPLINE
5
160
100
AcDbEntity
8
0
100
AcDbSpline
70
4
71
3
72
8
73
4
74
0
42
0.000000001
43
0.0000000001
44
0.0000000001
40
-1
40
-1
40
-1
40
-1
40
0
40
0
40
0
40
0
41
1
41
1
41
1
41
1
10
-169.61961184366172
20
-315.37492680071125
30
0
10
-172.71481547355111
20
-315.37209117315115
30
0
10
-173.22502150030417
20
-313.05667237817636
30
0
10
-172.21120862453989
20
-303.61282960956839
30
0
0
SPLINE
5
161
100
AcDbEntity
8
0
100
AcDbSpline
70
4
71
3
72
8
73
4
74
0
42
0.000000001
43
0.0000000001
44
0.0000000001
40
-1
40
-1
40
-1
40
-1
40
0
40
0
40
0
40
0
41
1
41
1
41
1
41
1
10
-172.21120862453989
20
-303.61282960956839
30
0
10
-170.73679080749724
20
-289.8797707652451
30
0
10
-172.27901738397532
20
-277.4822638590212
30
0
10
-177.67638770097113
20
-259.68804213729987
30
0
0
SPLINE
5
162
100
AcDbEntity
8
0
100
AcDbSpline
70
4
71
3
72
8
73
4
74
0
42
0.000000001
43
0.0000000001
44
0.0000000001
40
-1
40
-1
40
-1
40
-1
40
0
40
0
40
0
40
0
41
1
41
1
41
1
41
1
10
-177.67638770097113
20
-259.68804213729987
30
0
10
-184.74827097961827
20
-236.37503040148431
30
0
10
-193.95613018048093
20
-220.64939898484823
30
0
10
-209.04757903888353
20
-206.1138575410196
30
0
0
SPLINE
5
163
100
AcDbEntity
8
0
100
AcDbSpline
70
4
71
3
72
8
73
4
74
0
42
0.000000001
43
0.0000000001
44
0.0000000001
40
-1
40
-1
40
-1
40
-1
40
0
40
0
40
0
40
0
41
1
41
1
41
1
41
1
10
-209.04757903888353
20
-206.1138575410196
30
0
10
-225.21320495338887
20
-190.54213768695058
30
0
10
-232.18834655756794
20
-176.36513127325748
30
0
10
-232.19992981792555
20
-159.05518604620505
30
0
0
SPLINE
5
164
100
AcDbEntity
8
0
100
AcDbSpline
70
4
71
3
72
8
73
4
74
0
42
0.000000001
43
0.0000000001
44
0.0000000001
40
-1
40
-1
40
-1
40
-1
40
0
40
0
40
0
40
0
41
1
41
1
41
1
41
1
10
-232.19992981792555
20
-159.05518604620505
30
0
10
-232.21315340927055
20
-138.92861769225632
30
0
10
-223.15580088547262
20
-122.88011141025555
30
0
10
-202.37425833639685
20
-106.20745915598189
30
0
0
SPLINE
5
165
100
AcDbEntity
8
0
100
AcDbSpline
70
4
71
3
72
8
73
4
74
0
42
0.000000001
43
0.0000000001
44
0.0000000001
40
-1
40
-1
40
-1
40
-1
40
0
40
0
40
0
40
0
41
1
41
1
41
1
41
1
10
-202.37425833639685
20
-106.20745915598189
30
0
10
-182.57262428336759
20
-90.320390306663469
30
0
10
-174.59524044585118
20
-78.527330353980659
30
0
10
-172.86696248160322
20
-62.589571081687808
30
0
0
SPLINE
5
166
100
AcDbEntity
8
0
100
AcDbSpline
70
4
71
3
72
8
73
4
74
0
42
0.000000001
43
0.0000000001
44
0.0000000001
40
-1
40
-1
40
-1
40
-1
40
0
40
0
40
0
40
0
41
1
41
1
41
1
41
1
10
-172.86696248160322
20
-62.589571081687808
30
0
10
-170.63177177050778
20
-41.971196782617184
30
0
10
-184.87976243515908
20
-39.955162256514996
30
0
10
-200.80309884488605
20
-58.636341068464716
30
0
0
SPLINE
5
167
100
AcDbEntity
8
0
100
AcDbSpline
70
4
71
3
72
8
73
4
74
0
42
0.000000001
43
0.0000000001
44
0.0000000001
40
-1
40
-1
40
-1
40
-1
40
0
40
0
40
0
40
0
41
1
41
1
41
1
41
1
10
-200.80309884488605
20
-58.636341068464716
30
0
10
-206.95296469341329
20
-65.852025035651536
30
0
10
-208.84166702823472
20
-71.374531440411772
30
0
10
-209.70747157720751
20
-84.677742085733612
30
0
0
SPLINE
5
168
100
AcDbEntity
8
0
100
AcDbSpline
70
4
71
3
72
8
73
4
74
0
42
0.000000001
43
0.0000000001
44
0.0000000001
40
-1
40
-1
40
-1
40
-1
40
0
40
0
40
0
40
0
41
1
41
1
41
1
41
1
10
-209.70747157720751
20
-84.677742085733612
30
0
10
-210.20692712702737
20
-92.344870849702829
30
0
10
-211.77561350412623
20
-95.910479168272502
30
0
10
-215.59188140024119
20
-98.051342172761693
30
0
0
SPLINE
5
169
100
AcDbEntity
8
0
100
AcDbSpline
70
4
71
3
72
8
73
4
74
0
42
0.000000001
43
0.0000000001
44
0.0000000001
40
-1
40
-1
40
-1
40
-1
40
0
40
0
40
0
40
0
41
1
41
1
41
1
41
1
10
-215.59188140024119
20
-98.051342172761693
30
0
10
-222.39668094033803
20
-101.86848354512742
30
0
10
-231.22416000313962
20
-94.714746583047514
30
0
10
-234.82708392743956
20
-82.463668333329352
30
0
0
SPLINE
5
170
100
AcDbEntity
8
0
100
AcDbSpline
70
4
71
3
72
8
73
4
74
0
42
0.000000001
43
0.0000000001
44
0.0000000001
40
-1
40
-1
40
-1
40
-1
40
0
40
0
40
0
40
0
41
1
41
1
41
1
41
1
10
-234.82708392743956
20
-82.463668333329352
30
0
10
-236.85635000995549
20
-75.563347682743284
30
0
10
-236.15761948102076
20
-71.35012785777343
30
0
10
-231.65332106118154
20
-63.340425209707625
30
0
0
SPLINE
5
171
100
AcDbEntity
8
0
100
AcDbSpline
70
4
71
3
72
8
73
4
74
0
42
0.000000001
43
0.0000000001
44
0.0000000001
40
-1
40
-1
40
-1
40
-1
40
0
40
0
40
0
40
0
41
1
41
1
41
1
41
1
10
-231.65332106118154
20
-63.340425209707625
30
0
10
-228.17029271413418
20
-57.146841764419889
30
0
10
-227.7651057243705
20
-55.83848607246491
30
0
10
-227.23919037392989
20
-49.074250482398334
30
0
0
SPLINE
5
172
100
AcDbEntity
8
0
100
AcDbSpline
70
4
71
3
72
8
73
4
74
0
42
0.000000001
43
0.0000000001
44
0.0000000001
40
-1
40
-1
40
-1
40
-1
40
0
40
0
40
0
40
0
41
1
41
1
41
1
41
1
10
-227.23919037392989
20
-49.074250482398334
30
0
10
-226.03930087453443
20
-33.664906109522747
30
0
10
-221.45480288733918
20
-27.934034784163373
30
0
10
-208.02548880059791
20
-25.056395539995606
30
0
0
SPLINE
5
173
100
AcDbEntity
8
0
100
AcDbSpline
70
4
71
3
72
8
73
4
74
0
42
0.000000001
43
0.0000000001
44
0.0000000001
40
-1
40
-1
40
-1
40
-1
40
0
40
0
40
0
40
0
41
1
41
1
41
1
41
1
10
-208.02548880059791
20
-25.056395539995606
30
0
10
-203.31778933831379
20
-24.047438438264557
30
0
10
-202.00958752202339
20
-23.533108587864213
30
0
10
-196.22190675552707
20
-20.414258403859598
30
0
0
SPLINE
5
174
100
AcDbEntity
8
0
100
AcDbSpline
70
4
71
3
72
8
73
4
74
0
42
0.000000001
43
0.0000000001
44
0.0000000001
40
0
40
0
40
0
40
0
40
0.4893273155402118
40
0.4893273155402118
40
0.4893273155402118
40
0.4893273155402118
41
1
41
1
41
1
41
1
10
-196.22190675552707
20
-20.414258403859598
30
0
10
-191.67093655681958
20
-17.961783011767139
30
0
10
-188.25451020680177
20
-16.39856807394894
30
0
10
-185.26079736627864
20
-15.522054302643728
30
0
0
SPLINE
5
175
100
AcDbEntity
8
0
100
AcDbSpline
70
4
71
3
72
8
73
4
74
0
42
0.000000001
43
0.0000000001
44
0.0000000001
40
-0.050774238001517022
40
-0.050774238001517022
40
-0.050774238001517022
40
-0.050774238001517022
40
0
40
0
40
0
40
0
41
1
41
1
41
1
41
1
10
-185.26079736627594
20
-15.522054302638789
30
0
10
-185.10552136144941
20
-15.480558161518491
30
0
10
-184.94918483811415
20
-15.440098778904803
30
0
10
-184.791272887351
20
-15.400449978095656
30
0
0
SPLINE
5
176
100
AcDbEntity
8
0
100
AcDbSpline
70
0
71
3
72
14
73
10
74
0
42
0.000000001
43
0.0000000001
44
0.0000000001
40
0
40
0
40
0
40
0
40
2.6129997978263648
40
2.6129997978263648
40
2.6129997978263648
40
4.9848804853467241
40
4.9848804853467241
40
4.9848804853467241
40
5.9438144483773137
40
5.9438144483773137
40
5.9438144483773137
40
5.9438144483773137
10
-143.50229189506823
20
-59.18848034445196
30
0
10
-143.5258155258374
20
-69.074293525247057
30
0
10
-145.21942857017896
20
-78.862191920666902
30
0
10
-148.489561505186
20
-88.021198461223449
30
0
10
-151.45793722439564
20
-96.335041710844052
30
0
10
-155.70925583198058
20
-104.0463134509187
30
0
10
-160.98871161475884
20
-110.70497225170388
30
0
10
-163.12315686028128
20
-113.39701916026098
30
0
10
-165.42347972949483
20
-115.91791838449276
30
0
10
-167.87348088427936
20
-118.24806117936677
30
0
0
SPLINE
5
177
100
AcDbEntity
8
0
100
AcDbSpline
70
0
71
3
72
8
73
4
74
0
42
0.000000001
43
0.0000000001
44
0.0000000001
40
-0.44052449284991074
40
-0.44052449284991074
40
-0.44052449284991074
40
-0.44052449284991074
40
-0.16636219701751709
40
-0.16636219701751709
40
-0.16636219701751709
40
-0.16636219701751709
10
-143.50229189506823
20
-59.18848034445196
30
0
10
-143.58525425758015
20
-52.751662578800264
30
0
10
-144.50048400595946
20
-46.559705566910779
30
0
10
-146.28821988931008
20
-40.927801175712233
30
0
0
SPLINE
5
178
100
AcDbEntity
8
0
100
AcDbSpline
70
0
71
3
72
8
73
4
74
0
42
0.000000001
43
0.0000000001
44
0.0000000001
40
0.1058013952584148
40
0.1058013952584148
40
0.1058013952584148
40
0.1058013952584148
40
0.35014584035100205
40
0.35014584035100205
40
0.35014584035100205
40
0.35014584035100205
10
-146.28821988931088
20
-40.927801175709668
30
0
10
-148.01400949979575
20
-35.696027310199192
30
0
10
-150.50227559873267
20
-30.966900455353521
30
0
10
-153.53212447866821
20
-26.929611196668816
30
0
0
SPLINE
5
179
100
AcDbEntity
8
0
100
AcDbSpline
70
0
71
3
72
8
73
4
74
0
42
0.000000001
43
0.0000000001
44
0.0000000001
40
-0.85002957474321261
40
-0.85002957474321261
40
-0.85002957474321261
40
-0.85002957474321261
40
-0.25735484169318568
40
-0.25735484169318568
40
-0.25735484169318568
40
-0.25735484169318568
10
-153.53212447867031
20
-26.929611196666091
30
0
10
-157.79854690790634
20
-21.376447799743083
30
0
10
-163.15417298757384
20
-17.056763696906181
30
0
10
-168.79855800573526
20
-14.602351740973836
30
0
0
SPLINE
5
180
100
AcDbEntity
8
0
100
AcDbSpline
70
0
71
3
72
8
73
4
74
0
42
0.000000001
43
0.0000000001
44
0.0000000001
40
0.69077719227398937
40
0.69077719227398937
40
0.69077719227398937
40
0.69077719227398937
40
1
40
1
40
1
40
1
10
-168.79855800573375
20
-14.602351740974481
30
0
10
-174.03207046475231
20
-12.416713083457022
30
0
10
-179.67967909871464
20
-11.793536964810201
30
0
10
-185.22285089404389
20
-13.183931140393961
30
0
0
SPLINE
5
181
100
AcDbEntity
8
0
100
AcDbSpline
70
0
71
3
72
8
73
4
74
0
42
0.000000001
43
0.0000000001
44
0.0000000001
40
-4.4237701357351668e-05
40
-4.4237701357351668e-05
40
-4.4237701357351668e-05
40
-4.4237701357351668e-05
40
0.052895355246263751
40
0.052895355246263751
40
0.052895355246263751
40
0.052895355246263751
10
-185.22285090631809
20
-13.183931091543641
30
0
10
-185.38749728505928
20
-13.225270783982278
30
0
10
-185.56833912751759
20
-13.272052947892327
30
0
10
-185.73978349227983
20
-13.317991967011409
30
0
0
SPLINE
5
182
100
AcDbEntity
8
0
100
AcDbSpline
70
0
71
3
72
8
73
4
74
0
42
0.000000001
43
0.0000000001
44
0.0000000001
40
-0.49037846323211887
40
-0.49037846323211887
40
-0.49037846323211887
40
-0.49037846323211887
40
-6.1226070953066067e-07
40
-6.1226070953066067e-07
40
-6.1226070953066067e-07
40
-6.1226070953066067e-07
10
-185.73978349234366
20
-13.317991967044772
30
0
10
-188.93944012322191
20
-14.25221644400631
30
0
10
-192.46597343223431
20
-15.877352271913999
30
0
10
-197.07969875375824
20
-18.363645109424397
30
0
0
SPLINE
5
183
100
AcDbEntity
8
0
100
AcDbSpline
70
0
71
3
72
14
73
10
74
0
42
0.000000001
43
0.0000000001
44
0.0000000001
40
0
40
0
40
0
40
0
40
0.56334345496271387
40
0.56334345496271387
40
0.56334345496271387
40
1
40
1
40
1
40
1.1071071548553391
40
1.1071071548553391
40
1.1071071548553391
40
1.1071071548553391
10
-197.07969875371958
20
-18.363645109517211
30
0
10
-200.3240822460177
20
-20.111969949841995
30
0
10
-202.07560178228641
20
-20.991844133224387
30
0
10
-203.75228954986369
20
-21.596015554085565
30
0
10
-205.05191712385411
20
-22.064318510158728
30
0
10
-206.36512751951912
20
-22.390430433302797
30
0
10
-208.39658822528702
20
-22.82581436602683
30
0
10
-208.90081652060627
20
-22.933880890564332
30
0
10
-209.40504481592555
20
-23.041947415101838
30
0
10
-209.9092731112448
20
-23.15001393963934
30
0
0
SPLINE
5
184
100
AcDbEntity
8
0
100
AcDbSpline
70
0
71
3
72
23
73
19
74
0
42
0.000000001
43
0.0000000001
44
0.0000000001
40
0
40
0
40
0
40
0
40
0.88581092667450523
40
0.88581092667450523
40
0.88581092667450523
40
1.4213862195162448
40
1.4213862195162448
40
1.4213862195162448
40
1.729595748766211
40
1.729595748766211
40
1.729595748766211
40
1.9824385527580937
40
1.9824385527580937
40
1.9824385527580937
40
2.3706254843396977
40
2.3706254843396977
40
2.3706254843396977
40
3.513515083654057
40
3.513515083654057
40
3.513515083654057
40
3.513515083654057
10
-229.10075175207862
20
-47.193711497122649
30
0
10
-228.8411973941854
20
-43.855366602365066
30
0
10
-228.6023440682651
20
-40.778088273065343
30
0
10
-228.01473036862089
20
-37.969737510624725
30
0
10
-227.65944983438061
20
-36.271764233592499
30
0
10
-227.20564907443855
20
-34.702522539777355
30
0
10
-226.43396624554927
20
-33.061542650068446
30
0
10
-225.98988302400954
20
-32.117201777597877
30
0
10
-225.44087673309534
20
-31.172352702923995
30
0
10
-224.75280876851099
20
-30.266263614067025
30
0
10
-224.18834525589389
20
-29.522944267483027
30
0
10
-223.55515869922641
20
-28.846772291659342
30
0
10
-222.92153288338176
20
-28.280374577171493
30
0
10
-221.94873374755383
20
-27.410790047295251
30
0
10
-220.96133755461443
20
-26.764416661903574
30
0
10
-219.97389993612575
20
-26.236939427537905
30
0
10
-217.06671246450105
20
-24.683955037838274
30
0
10
-213.67850940464353
20
-23.957839026350069
30
0
10
-209.90927311124477
20
-23.150013939639507
30
0
0
SPLINE
5
185
100
AcDbEntity
8
0
100
AcDbSpline
70
0
71
3
72
23
73
19
74
0
42
0.000000001
43
0.0000000001
44
0.0000000001
40
-1.9761326945597155
40
-1.9761326945597155
40
-1.9761326945597155
40
-1.9761326945597155
40
-1.8095321949144443
40
-1.8095321949144443
40
-1.8095321949144443
40
-1.529493059635606
40
-1.529493059635606
40
-1.529493059635606
40
-0.76474608561700108
40
-0.76474608561700108
40
-0.76474608561700108
40
-0.35200846649862833
40
-0.35200846649862833
40
-0.35200846649862833
40
-0.067193199347493848
40
-0.067193199347493848
40
-0.067193199347493848
40
8.8840160393839311e-07
40
8.8840160393839311e-07
40
8.8840160393839311e-07
40
8.8840160393839311e-07
10
-229.10075175207862
20
-47.193711497122663
30
0
10
-229.14431765667371
20
-47.754048901476111
30
0
10
-229.18788368975578
20
-48.314388352846308
30
0
10
-229.23144923050904
20
-48.874720683083275
30
0
10
-229.30467864090386
20
-49.816584492390199
30
0
10
-229.38538710179174
20
-50.768638930107663
30
0
10
-229.46975464845735
20
-51.566605775705128
30
0
10
-229.70015039637187
20
-53.745739524030014
30
0
10
-229.98168097431358
20
-55.122566325587393
30
0
10
-230.54411839421888
20
-56.591864280544392
30
0
10
-230.84766857418882
20
-57.384851451866872
30
0
10
-231.23690399178344
20
-58.217376855800502
30
0
10
-231.74815461331207
20
-59.204154747320842
30
0
10
-232.10095013183761
20
-59.885094394626392
30
0
10
-232.51114014445361
20
-60.637524736966022
30
0
10
-232.98928549189861
20
-61.494600617057813
30
0
10
-233.10209033117005
20
-61.6968033727969
30
0
10
-233.21867745825966
20
-61.904830770426372
30
0
10
-233.33918432810418
20
-62.119118246652427
30
0
0
SPLINE
5
186
100
AcDbEntity
8
0
100
AcDbSpline
70
0
71
3
72
17
73
13
74
0
42
0.000000001
43
0.0000000001
44
0.0000000001
40
0
40
0
40
0
40
0
40
0.4543565715843747
40
0.4543565715843747
40
0.4543565715843747
40
0.76442417795639117
40
0.76442417795639117
40
0.76442417795639117
40
0.98473372847302176
40
0.98473372847302176
40
0.98473372847302176
40
1.0000007951228349
40
1.0000007951228349
40
1.0000007951228349
40
1.0000007951228349
10
-233.33918432808758
20
-62.11911824666452
30
0
10
-235.44056583551691
20
-65.855869113462987
30
0
10
-236.8220181513696
20
-68.91680752372244
30
0
10
-237.4801505256988
20
-71.976785963906408
30
0
10
-237.92928132460545
20
-74.065014130584586
30
0
10
-238.01670414541107
20
-76.135753793681914
30
0
10
-237.77638142688232
20
-78.241267041145178
30
0
10
-237.60562708489385
20
-79.737278451633827
30
0
10
-237.27684329711619
20
-81.250510929810943
30
0
10
-236.82083685001339
20
-82.848820822090829
30
0
10
-236.78923640053517
20
-82.959580903055411
30
0
10
-236.75516994721858
20
-83.077047559096542
30
0
10
-236.72418900668663
20
-83.182395214374111
30
0
0
SPLINE
5
187
100
AcDbEntity
8
0
100
AcDbSpline
70
0
71
3
72
23
73
19
74
0
42
0.000000001
43
0.0000000001
44
0.0000000001
40
0
40
0
40
0
40
0
40
0.50000108905609852
40
0.50000108905609852
40
0.50000108905609852
40
0.75000163358414773
40
0.75000163358414773
40
0.75000163358414773
40
0.89101626780612508
40
0.89101626780612508
40
0.89101626780612508
40
0.97803371107281156
40
0.97803371107281156
40
0.97803371107281156
40
0.99714634797769341
40
0.99714634797769341
40
0.99714634797769341
40
1.000002178112197
40
1.000002178112197
40
1.000002178112197
40
1.000002178112197
10
-236.72418900663087
20
-83.182395214354457
30
0
10
-234.80442002345765
20
-89.710215542619267
30
0
10
-231.50130122740023
20
-94.946587214388259
30
0
10
-227.57231842403826
20
-98.130541401039835
30
0
10
-225.60782702235727
20
-99.722518494365602
30
0
10
-223.47414712537301
20
-100.8022627936395
30
0
10
-221.26914098544557
20
-101.191916018702
30
0
10
-220.0253911573559
20
-101.41170276800422
30
0
10
-218.76004765308164
20
-101.40813400932386
30
0
10
-217.5173927092809
20
-101.14854873073457
30
0
10
-216.75057402646229
20
-100.98836360259425
30
0
10
-215.99314487645046
20
-100.73097475555775
30
0
10
-215.25802114053081
20
-100.37483803660254
30
0
10
-215.09655750154832
20
-100.29661565333824
30
0
10
-214.93616575845894
20
-100.21365113355286
30
0
10
-214.77697022639956
20
-100.12596236868036
30
0
10
-214.75318306401078
20
-100.11285982200265
30
0
10
-214.72513240651097
20
-100.09724505954378
30
0
10
-214.7056990549255
20
-100.0863439521851
30
0
0
SPLINE
5
188
100
AcDbEntity
8
0
100
AcDbSpline
70
0
71
3
72
17
73
13
74
0
42
0.000000001
43
0.0000000001
44
0.0000000001
40
0
40
0
40
0
40
0
40
0.39550151059818928
40
0.39550151059818928
40
0.39550151059818928
40
0.72043633058882095
40
0.72043633058882095
40
0.72043633058882095
40
0.94151206256378528
40
0.94151206256378528
40
0.94151206256378528
40
1.0000066743228242
40
1.0000066743228242
40
1.0000066743228242
40
1.0000066743228242
10
-214.70569905520094
20
-100.08634395156095
30
0
10
-212.96079447510436
20
-99.107481417907209
30
0
10
-211.4790012820134
20
-97.756630044248425
30
0
10
-210.39515087814863
20
-95.959002764375327
30
0
10
-209.50468465630311
20
-94.482114102907644
30
0
10
-208.88662263630357
20
-92.746510155871562
30
0
10
-208.45882663302558
20
-90.738406633303498
30
0
10
-208.16776729206796
20
-89.372154299539943
30
0
10
-207.96176569856527
20
-87.873494939800224
30
0
10
-207.8160723588428
20
-86.205425219147784
30
0
10
-207.77752323693417
20
-85.764069264675044
30
0
10
-207.74212135637413
20
-85.293453674657954
30
0
10
-207.71290589789652
20
-84.84496795430303
30
0
0
SPLINE
5
189
100
AcDbEntity
8
0
100
AcDbSpline
70
0
71
3
72
14
73
10
74
0
42
0.000000001
43
0.0000000001
44
0.0000000001
40
0
40
0
40
0
40
0
40
0.48954488422382864
40
0.48954488422382864
40
0.48954488422382864
40
0.95855966737831166
40
0.95855966737831166
40
0.95855966737831166
40
0.99999625832658168
40
0.99999625832658168
40
0.99999625832658168
40
0.99999625832658168
10
-207.71290590248228
20
-84.844967953911521
30
0
10
-207.29529555152288
20
-78.428325221933932
30
0
10
-206.63820647087158
20
-74.002148434367783
30
0
10
-205.44922646030113
20
-70.423726719231013
30
0
10
-204.31010884350312
20
-66.995373694112288
30
0
10
-202.68973377422554
20
-64.259215570498313
30
0
10
-200.08039679544595
20
-61.070038487584185
30
0
10
-199.84986668654685
20
-60.788280575056334
30
0
10
-199.61171204684945
20
-60.503368274658733
30
0
10
-199.36568027324907
20
-60.214696349830483
30
0
0
SPLINE
5
190
100
AcDbEntity
8
0
100
AcDbSpline
70
0
71
3
72
20
73
16
74
0
42
0.000000001
43
0.0000000001
44
0.0000000001
40
0
40
0
40
0
40
0
40
0.29020702964367162
40
0.29020702964367162
40
0.29020702964367162
40
0.50218276378182425
40
0.50218276378182425
40
0.50218276378182425
40
0.67456730792964814
40
0.67456730792964814
40
0.67456730792964814
40
0.86849513995781047
40
0.86849513995781047
40
0.86849513995781047
40
0.99999863952276191
40
0.99999863952276191
40
0.99999863952276191
40
0.99999863952276191
10
-199.36568027495366
20
-60.214696347946187
30
0
10
-194.87942881056307
20
-54.951448518147359
30
0
10
-190.57017741630514
20
-51.451375157334198
30
0
10
-186.91954968686258
20
-49.627994397118883
30
0
10
-184.25302402081016
20
-48.296143560374517
30
0
10
-181.96087091918002
20
-47.874427468226088
30
0
10
-180.21904268666418
20
-48.136056321535506
30
0
10
-178.80253967481306
20
-48.348820158854117
30
0
10
-177.73972982290638
20
-48.954562131481516
30
0
10
-176.86269968616392
20
-50.004341083208423
30
0
10
-175.87606510194058
20
-51.185313294050133
30
0
10
-175.10595063286277
20
-53.02911305736135
30
0
10
-174.78906839040522
20
-55.725333375370695
30
0
10
-174.5741888478592
20
-57.553654786012075
30
0
10
-174.57485209476627
20
-59.755843497106234
30
0
10
-174.85198412545265
20
-62.312275276774912
30
0
0
SPLINE
5
191
100
AcDbEntity
8
0
100
AcDbSpline
70
0
71
3
72
11
73
7
74
0
42
0.000000001
43
0.0000000001
44
0.0000000001
40
0
40
0
40
0
40
0
40
0.50605147593611499
40
0.50605147593611499
40
0.50605147593611499
40
1
40
1
40
1
40
1
10
-174.85198412414735
20
-62.312275276959596
30
0
10
-175.68784964074649
20
-70.020423886818449
30
0
10
-177.98743534495856
20
-76.546077442865823
30
0
10
-182.59368535529035
20
-83.276471483585496
30
0
10
-187.08977024440915
20
-89.845898430976789
30
0
10
-193.83377247973627
20
-96.575457179267488
30
0
10
-203.52871405943674
20
-104.35381546799965
30
0
0
SPLINE
5
192
100
AcDbEntity
8
0
100
AcDbSpline
70
0
71
3
72
11
73
7
74
0
42
0.000000001
43
0.0000000001
44
0.0000000001
40
4.4446029984213098e-07
40
4.4446029984213098e-07
40
4.4446029984213098e-07
40
4.4446029984213098e-07
40
0.58954284727922057
40
0.58954284727922057
40
0.58954284727922057
40
1
40
1
40
1
40
1
10
-203.52871405961363
20
-104.35381546773625
30
0
10
-215.93967192153019
20
-114.31090508085165
30
0
10
-224.38152022575304
20
-124.16557530827436
30
0
10
-229.230598220736
20
-134.97816488442692
30
0
10
-232.6066721683008
20
-142.50621496147818
30
0
10
-234.20556567563443
20
-150.47814520187265
30
0
10
-234.19992926182806
20
-159.05687882918963
30
0
0
SPLINE
5
193
100
AcDbEntity
8
0
100
AcDbSpline
70
0
71
3
72
14
73
10
74
0
42
0.000000001
43
0.0000000001
44
0.0000000001
40
-6.0262567548233722e-07
40
-6.0262567548233722e-07
40
-6.0262567548233722e-07
40
-6.0262567548233722e-07
40
0.032407745452453639
40
0.032407745452453639
40
0.032407745452453639
40
0.6066131311120545
40
0.6066131311120545
40
0.6066131311120545
40
1
40
1
40
1
40
1
10
-234.19992926201814
20
-159.0568788291896
30
0
10
-234.19955386768464
20
-159.61786555932011
30
0
10
-234.19154265855889
20
-160.2207397969085
30
0
10
-234.17583546456629
20
-160.7984186422884
30
0
10
-233.89753817639854
20
-171.03363036610364
30
0
10
-231.15417217375176
20
-180.38116282619831
30
0
10
-225.63746240631946
20
-189.40289523322235
30
0
10
-221.85797646596941
20
-195.58366460978829
30
0
10
-216.79555321988767
20
-201.62784708317457
30
0
10
-210.34171427022298
20
-207.84457958947868
30
0
0
SPLINE
5
194
100
AcDbEntity
8
0
100
AcDbSpline
70
0
71
3
72
14
73
10
74
0
42
0.000000001
43
0.0000000001
44
0.0000000001
40
-1.6750767632302944e-06
40
-1.6750767632302944e-06
40
-1.6750767632302944e-06
40
-1.6750767632302944e-06
40
0.06796848246743091
40
0.06796848246743091
40
0.06796848246743091
40
0.93007962225570617
40
0.93007962225570617
40
0.93007962225570617
40
1
40
1
40
1
40
1
10
-210.341714271824
20
-207.84457959161841
30
0
10
-209.31594611535391
20
-208.83256263354104
30
0
10
-208.34994740307781
20
-209.79415651818925
30
0
10
-207.39419280593026
20
-210.77782490143505
30
0
10
-195.2717156060059
20
-223.25435139031867
30
0
10
-187.34819323088075
20
-236.75551501114427
30
0
10
-181.0642260262992
20
-255.70654476983685
30
0
10
-180.55457322122697
20
-257.24354284145039
30
0
10
-180.05604980766716
20
-258.81629178620977
30
0
10
-179.56744298382966
20
-260.42702207819821
30
0
0
SPLINE
5
195
100
AcDbEntity
8
0
100
AcDbSpline
70
0
71
3
72
11
73
7
74
0
42
0.000000001
43
0.0000000001
44
0.0000000001
40
9.6394801643584493e-07
40
9.6394801643584493e-07
40
9.6394801643584493e-07
40
9.6394801643584493e-07
40
0.76338652920135475
40
0.76338652920135475
40
0.76338652920135475
40
1
40
1
40
1
40
1
10
-179.56744298436462
20
-260.4270220784183
30
0
10
-175.48908563927273
20
-273.87269063491112
30
0
10
-173.68244585496737
20
-284.02360415506064
30
0
10
-173.68238386294291
20
-293.99969932180483
30
0
10
-173.6823646483432
20
-297.09181765605388
30
0
10
-173.85658533979523
20
-300.17199103728285
30
0
10
-174.19652293746208
20
-303.33824620470915
30
0
0
SPLINE
5
196
100
AcDbEntity
8
0
100
AcDbSpline
70
0
71
3
72
20
73
16
74
0
42
0.000000001
43
0.0000000001
44
0.0000000001
40
-9.7265731597676587e-07
40
-9.7265731597676587e-07
40
-9.7265731597676587e-07
40
-9.7265731597676587e-07
40
0.13051223088933031
40
0.13051223088933031
40
0.13051223088933031
40
0.44766107139451816
40
0.44766107139451816
40
0.44766107139451816
40
0.64917740870065854
40
0.64917740870065854
40
0.64917740870065854
40
0.83307980000019821
40
0.83307980000019821
40
0.83307980000019821
40
1
40
1
40
1
40
1
10
-174.19652293761038
20
-303.33824620468693
30
0
10
-174.32883890382158
20
-304.57079237818522
30
0
10
-174.43948030304938
20
-305.72287894326217
30
0
10
-174.5201239698707
20
-306.75668479496846
30
0
10
-174.71608916520296
20
-309.26884692313928
30
0
10
-174.76434920633679
20
-311.16989658757853
30
0
10
-174.5365754771812
20
-312.79813103814058
30
0
10
-174.39184807549535
20
-313.83271102345691
30
0
10
-174.12607939503681
20
-314.79695003300986
30
0
10
-173.58970037632582
20
-315.63954819941819
30
0
10
-173.10020465849726
20
-316.40849735648675
30
0
10
-172.36874064989638
20
-316.99910136728732
30
0
10
-171.62603164714233
20
-317.29760834176443
30
0
10
-170.95190699653119
20
-317.56855013609874
30
0
10
-170.28453559314241
20
-317.64431837958409
30
0
10
-169.62122617974944
20
-317.64492606123559
30
0
0
SPLINE
5
197
100
AcDbEntity
8
0
100
AcDbSpline
70
0
71
3
72
17
73
13
74
0
42
0.000000001
43
0.0000000001
44
0.0000000001
40
1.7753235890330399e-05
40
1.7753235890330399e-05
40
1.7753235890330399e-05
40
1.7753235890330399e-05
40
0.26076522333622076
40
0.26076522333622076
40
0.26076522333622076
40
0.50750777066369668
40
0.50750777066369668
40
0.50750777066369668
40
0.86764457621477475
40
0.86764457621477475
40
0.86764457621477475
40
1
40
1
40
1
40
1
10
-169.62122617979566
20
-317.64492606900683
30
0
10
-168.70421190096934
20
-317.64584227122049
30
0
10
-167.77041233644559
20
-317.4931424934216
30
0
10
-166.90033906557204
20
-316.97583004150061
30
0
10
-166.07699801787447
20
-316.48630279085427
30
0
10
-165.39531721712282
20
-315.66631588127024
30
0
10
-164.95414534369215
20
-314.74299760534001
30
0
10
-164.31022628345218
20
-313.39535449310807
30
0
10
-164.04604785115805
20
-311.85746905752899
30
0
10
-163.87154593105706
20
-309.91902715796442
30
0
10
-163.80741398111385
20
-309.20662205205662
30
0
10
-163.75973807555025
20
-308.43797121301338
30
0
10
-163.72385110358016
20
-307.60244102380716
30
0
0
SPLINE
5
198
100
AcDbEntity
8
0
100
AcDbSpline
70
0
71
3
72
8
73
4
74
0
42
0.000000001
43
0.0000000001
44
0.0000000001
40
1.9717917779660254e-05
40
1.9717917779660254e-05
40
1.9717917779660254e-05
40
1.9717917779660254e-05
40
1
40
1
40
1
40
1
10
-163.72385110149224
20
-307.60244102383126
30
0
10
-163.65018547064665
20
-305.88898226422504
30
0
10
-163.42337408543602
20
-302.43958322230407
30
0
10
-163.22595292911186
20
-300.07249983889722
30
0
0
SPLINE
5
199
100
AcDbEntity
8
0
100
AcDbSpline
70
0
71
3
72
14
73
10
74
0
42
0.000000001
43
0.0000000001
44
0.0000000001
40
-6.3690806645156032e-06
40
-6.3690806645156032e-06
40
-6.3690806645156032e-06
40
-6.3690806645156032e-06
40
0.085452723992852073
40
0.085452723992852073
40
0.085452723992852073
40
0.85607287178635094
40
0.85607287178635094
40
0.85607287178635094
40
1
40
1
40
1
40
1
10
-163.22595291936651
20
-300.07249983994319
30
0
10
-163.1426346065461
20
-299.07245712251034
30
0
10
-163.06984728147458
20
-298.05086253635858
30
0
10
-163.01344694518551
20
-297.06376564389444
30
0
10
-162.50486168031145
20
-288.16270285701404
30
0
10
-163.21862686872689
20
-280.4154656567556
30
0
10
-165.53127833570332
20
-270.05171164804051
30
0
10
-165.96320745818221
20
-268.11609478640253
30
0
10
-166.45045901136754
20
-266.08720918321347
30
0
10
-166.99559617431441
20
-263.93780501135018
30
0
0
SPLINE
5
200
100
AcDbEntity
8
0
100
AcDbSpline
70
0
71
3
72
11
73
7
74
0
42
0.000000001
43
0.0000000001
44
0.0000000001
40
-1.0000018938130764
40
-1.0000018938130764
40
-1.0000018938130764
40
-1.0000018938130764
40
-0.88534420132196179
40
-0.88534420132196179
40
-0.88534420132196179
40
-0.042694555303365751
40
-0.042694555303365751
40
-0.042694555303365751
40
-0.042694555303365751
10
-166.99559617287062
20
-263.93780501087861
30
0
10
-167.42842111430488
20
-262.23148195777247
30
0
10
-167.88821317729685
20
-260.51499740836363
30
0
10
-168.35998329067408
20
-258.8497001723166
30
0
10
-171.8271463776189
20
-246.61099122935104
30
0
10
-176.24314134046875
20
-235.97275490019658
30
0
10
-182.1116139385415
20
-225.69908908894988
30
0
0
SPLINE
5
201
100
AcDbEntity
8
0
100
AcDbSpline
70
0
71
3
72
8
73
4
74
0
42
0.000000001
43
0.0000000001
44
0.0000000001
40
0.52190538881747506
40
0.52190538881747506
40
0.52190538881747506
40
0.52190538881747506
40
0.91935945897421889
40
0.91935945897421889
40
0.91935945897421889
40
0.91935945897421889
10
-182.11161393855366
20
-225.6990890889287
30
0
10
-187.11383816270165
20
-217.12199267941043
30
0
10
-193.09777934761044
20
-209.2504782874995
30
0
10
-200.26170635622412
20
-201.70118729819734
30
0
0
SPLINE
5
202
100
AcDbEntity
8
0
100
AcDbSpline
70
0
71
3
72
8
73
4
74
0
42
0.000000001
43
0.0000000001
44
0.0000000001
40
-0.17227037006535373
40
-0.17227037006535373
40
-0.17227037006535373
40
-0.17227037006535373
40
0
40
0
40
0
40
0
10
-200.26170625236421
20
-201.70118717113326
30
0
10
-201.71706534212751
20
-200.1687342989072
30
0
10
-203.22084898866825
20
-198.64768955586231
30
0
10
-204.76966580144074
20
-197.14215224145349
30
0
0
SPLINE
5
203
100
AcDbEntity
8
0
100
AcDbSpline
70
0
71
3
72
14
73
10
74
0
42
0.000000001
43
0.0000000001
44
0.0000000001
40
-2.505573348616153e-06
40
-2.505573348616153e-06
40
-2.505573348616153e-06
40
-2.505573348616153e-06
40
0.069542565970969514
40
0.069542565970969514
40
0.069542565970969514
40
0.64328324851088814
40
0.64328324851088814
40
0.64328324851088814
40
1
40
1
40
1
40
1
10
-204.76966579874625
20
-197.1421522378823
30
0
10
-205.67427922748311
20
-196.26293150143283
30
0
10
-206.5104577759389
20
-195.42276645827386
30
0
10
-207.32665958477017
20
-194.57401335928841
30
0
10
-214.06025223900667
20
-187.57187544345561
30
0
10
-218.32933062187504
20
-181.06768305875403
30
0
10
-220.7068882450628
20
-174.22528520942095
30
0
10
-222.18510768745472
20
-169.97110207845506
30
0
10
-222.94422083114594
20
-165.56565317263778
30
0
10
-223.07773630655973
20
-160.73074750820859
30
0
0
SPLINE
5
204
100
AcDbEntity
8
0
100
AcDbSpline
70
0
71
3
72
14
73
10
74
0
42
0.000000001
43
0.0000000001
44
0.0000000001
40
-1.5716300142803539e-06
40
-1.5716300142803539e-06
40
-1.5716300142803539e-06
40
-1.5716300142803539e-06
40
0.029918825331824911
40
0.029918825331824911
40
0.029918825331824911
40
0.53184171595351915
40
0.53184171595351915
40
0.53184171595351915
40
1
40
1
40
1
40
1
10
-223.07773630505164
20
-160.73074750815431
30
0
10
-223.09320007698926
20
-160.17146220672765
30
0
10
-223.10025328408784
20
-159.66178481960884
30
0
10
-223.10071471394238
20
-159.13405991548862
30
0
10
-223.1084553266993
20
-150.28132946318556
30
0
10
-221.13530859428491
20
-142.69115719917505
30
0
10
-216.71709702390041
20
-135.31567557904569
30
0
10
-212.59610077927104
20
-128.43634633582408
30
0
10
-206.28976507581791
20
-121.75433774054935
30
0
10
-197.40687806768815
20
-114.77936888777265
30
0
0
SPLINE
5
205
100
AcDbEntity
8
0
100
AcDbSpline
70
0
71
3
72
14
73
10
74
0
42
0.000000001
43
0.0000000001
44
0.0000000001
40
-2.0889972056933555e-06
40
-2.0889972056933555e-06
40
-2.0889972056933555e-06
40
-2.0889972056933555e-06
40
0.12137050774226624
40
0.12137050774226624
40
0.12137050774226624
40
0.85095781975301699
40
0.85095781975301699
40
0.85095781975301699
40
1
40
1
40
1
40
1
10
-197.40687806686455
20
-114.77936888912313
30
0
10
-196.19515369923687
20
-113.82782837137071
30
0
10
-195.0659919008238
20
-112.93302326864533
30
0
10
-194.01713457619653
20
-112.09087976520215
30
0
10
-187.71230946151115
20
-107.0286397579023
30
0
10
-184.11554854869263
20
-103.70529425089372
30
0
10
-180.12510911661246
20
-99.208966991397048
30
0
10
-179.30993075028144
20
-98.290444414555083
30
0
10
-178.47874505589968
20
-97.324156786903316
30
0
10
-177.60380422525276
20
-96.28471903326782
30
0
0
SPLINE
5
206
100
AcDbEntity
8
0
100
AcDbSpline
70
0
71
3
72
17
73
13
74
0
42
0.000000001
43
0.0000000001
44
0.0000000001
40
-2.1481667489354345e-06
40
-2.1481667489354345e-06
40
-2.1481667489354345e-06
40
-2.1481667489354345e-06
40
0.023545549354754332
40
0.023545549354754332
40
0.023545549354754332
40
0.51177277467737714
40
0.51177277467737714
40
0.51177277467737714
40
0.85275335666633989
40
0.85275335666633989
40
0.85275335666633989
40
1
40
1
40
1
40
1
10
-177.60380422254454
20
-96.28471903620428
30
0
10
-177.29487659951343
20
-95.91766520756984
30
0
10
-176.96479774118163
20
-95.514495985651934
30
0
10
-176.65322093493086
20
-95.122559453243895
30
0
10
-170.19312947792972
20
-86.996326069049587
30
0
10
-165.99521788247267
20
-76.980370049644321
30
0
10
-164.45273382983527
20
-67.428249094084066
30
0
10
-163.37545447567913
20
-60.756995231697324
30
0
10
-163.58445541819663
20
-54.288641714519784
30
0
10
-165.38484999627539
20
-48.821240336186847
30
0
10
-166.16231965965579
20
-46.46023638686691
30
0
10
-167.24239731133113
20
-44.288280818468124
30
0
10
-168.64798347745347
20
-42.408557031462202
30
0
0
SPLINE
5
207
100
AcDbEntity
8
0
100
AcDbSpline
70
0
71
3
72
17
73
13
74
0
42
0.000000001
43
0.0000000001
44
0.0000000001
40
-3.9064789764074929e-06
40
-3.9064789764074929e-06
40
-3.9064789764074929e-06
40
-3.9064789764074929e-06
40
0.014000938740967849
40
0.014000938740967849
40
0.014000938740967849
40
0.30681293696517586
40
0.30681293696517586
40
0.30681293696517586
40
0.68346423393540023
40
0.68346423393540023
40
0.68346423393540023
40
1
40
1
40
1
40
1
10
-168.64798347370368
20
-42.408557027849973
30
0
10
-168.7564511683579
20
-42.263521220201326
30
0
10
-168.893247808447
20
-42.085703829234077
30
0
10
-169.01836168828484
20
-41.928611672255272
30
0
10
-171.63423102390144
20
-38.644143499425539
30
0
10
-174.99769992546334
20
-36.663897404593982
30
0
10
-178.69309401633924
20
-36.077685598283679
30
0
10
-183.44657060058339
20
-35.323626890016648
30
0
10
-188.68263282448532
20
-36.777066254412681
30
0
10
-194.02641973487442
20
-40.055468141546264
30
0
10
-198.51731010740832
20
-42.810619819395114
30
0
10
-203.10786998913073
20
-46.872314385837214
30
0
10
-207.61787358807749
20
-52.162259412016979
30
0
0
SPLINE
5
208
100
AcDbEntity
8
0
100
AcDbSpline
70
0
71
3
72
11
73
7
74
0
42
0.000000001
43
0.0000000001
44
0.0000000001
40
6.6710601516750678e-06
40
6.6710601516750678e-06
40
6.6710601516750678e-06
40
6.6710601516750678e-06
40
0.53588593485970581
40
0.53588593485970581
40
0.53588593485970581
40
1
40
1
40
1
40
1
10
-207.61787359598455
20
-52.162259403307459
30
0
10
-211.59414100996872
20
-56.825203025229385
30
0
10
-214.33294822306581
20
-61.408797340570764
30
0
10
-216.04389754017294
20
-66.887683276063512
30
0
10
-217.525715734035
20
-71.632834275062919
30
0
10
-218.2421116379021
20
-76.989196351521784
30
0
10
-218.51099491376141
20
-83.649348634942896
30
0
0
SPLINE
5
209
100
AcDbEntity
8
0
100
AcDbSpline
70
0
71
3
72
14
73
10
74
0
42
0.000000001
43
0.0000000001
44
0.0000000001
40
-1.2288879926013487e-05
40
-1.2288879926013487e-05
40
-1.2288879926013487e-05
40
-1.2288879926013487e-05
40
0.11478220736153437
40
0.11478220736153437
40
0.11478220736153437
40
0.44043982490789702
40
0.44043982490789702
40
0.44043982490789702
40
0.6291168333269207
40
0.6291168333269207
40
0.6291168333269207
40
0.6291168333269207
10
-218.51099492242304
20
-83.649348634594318
30
0
10
-218.53747872952735
20
-84.306682296280485
30
0
10
-218.56804003844712
20
-84.861015798686381
30
0
10
-218.60607609234577
20
-85.379279242133705
30
0
10
-218.71397961646113
20
-86.849527762580408
30
0
10
-218.8926981747349
20
-87.856108092742431
30
0
10
-219.05907164393881
20
-88.365367328743375
30
0
10
-219.15546382627497
20
-88.660418032247165
30
0
10
-219.23550808579
20
-88.775936504002232
30
0
10
-219.25437790035835
20
-88.799591832945467
30
0
0
SPLINE
5
210
100
AcDbEntity
8
0
100
AcDbSpline
70
0
71
3
72
14
73
10
74
0
42
0.000000001
43
0.0000000001
44
0.0000000001
40
0.81094304915366733
40
0.81094304915366733
40
0.81094304915366733
40
0.81094304915366733
40
0.9055018267933983
40
0.9055018267933983
40
0.9055018267933983
40
0.99370830959395107
40
0.99370830959395107
40
0.99370830959395107
40
1.0000606118003226
40
1.0000606118003226
40
1.0000606118003226
40
1.0000606118003226
10
-219.25437790035832
20
-88.799591832945538
30
0
10
-219.26738695246627
20
-88.805012985582664
30
0
10
-219.30117597035968
20
-88.817238171490786
30
0
10
-219.36617553993787
20
-88.82797859237283
30
0
10
-219.42680855105704
20
-88.837997490390009
30
0
10
-219.51407639476997
20
-88.846196128003186
30
0
10
-219.62794805385096
20
-88.846415351835319
30
0
10
-219.63614866641655
20
-88.846431139518813
30
0
10
-219.63905535511145
20
-88.846447777260323
30
0
10
-219.65311738125871
20
-88.846340473957923
30
0
0
SPLINE
5
211
100
AcDbEntity
8
0
100
AcDbSpline
70
0
71
3
72
17
73
13
74
0
42
0.000000001
43
0.0000000001
44
0.0000000001
40
0
40
0
40
0
40
0
40
0.19732955699836355
40
0.19732955699836355
40
0.19732955699836355
40
0.54554862366882162
40
0.54554862366882162
40
0.54554862366882162
40
0.95396467371713844
40
0.95396467371713844
40
0.95396467371713844
40
1
40
1
40
1
40
1
10
-219.6531173816357
20
-88.846340519933605
30
0
10
-219.81143934491718
20
-88.845168578829302
30
0
10
-220.22394273300475
20
-88.735241998604124
30
0
10
-220.75990527403778
20
-88.35495351896212
30
0
10
-221.70569554817496
20
-87.683874632145532
30
0
10
-222.93698557056391
20
-86.254469836204265
30
0
10
-223.95223508091743
20
-84.515339005984004
30
0
10
-225.14299180425468
20
-82.475562864524207
30
0
10
-226.06076490684146
20
-80.00492068263091
30
0
10
-226.32433547269477
20
-77.979687466542472
30
0
10
-226.35404428799768
20
-77.751409777919577
30
0
10
-226.37591067001665
20
-77.529096498919557
30
0
10
-226.38992677789176
20
-77.314192823751924
30
0
0
SPLINE
5
212
100
AcDbEntity
8
0
100
AcDbSpline
70
0
71
3
72
11
73
7
74
0
42
0.000000001
43
0.0000000001
44
0.0000000001
40
2.1629814762603311e-05
40
2.1629814762603311e-05
40
2.1629814762603311e-05
40
2.1629814762603311e-05
40
0.44444762526199566
40
0.44444762526199566
40
0.44444762526199566
40
1
40
1
40
1
40
1
10
-226.38992677046073
20
-77.314192823126263
30
0
10
-226.47136371685389
20
-76.063981704835669
30
0
10
-226.42596267650936
20
-75.301041238539895
30
0
10
-226.06530201758301
20
-74.031239052013106
30
0
10
-225.61446006055598
20
-72.443929517019384
30
0
10
-224.57140759332651
20
-70.085545998665594
30
0
10
-222.56322141528335
20
-66.036331119399108
30
0
0
SPLINE
5
213
100
AcDbEntity
8
0
100
AcDbSpline
70
0
71
3
72
14
73
10
74
0
42
0.000000001
43
0.0000000001
44
0.0000000001
40
-4.5446652821017388e-06
40
-4.5446652821017388e-06
40
-4.5446652821017388e-06
40
-4.5446652821017388e-06
40
0.13139168597348977
40
0.13139168597348977
40
0.13139168597348977
40
0.78762486013055111
40
0.78762486013055111
40
0.78762486013055111
40
1
40
1
40
1
40
1
10
-222.56322141397425
20
-66.036331120234536
30
0
10
-222.19683468447442
20
-65.297498671755989
30
0
10
-221.84508559119581
20
-64.563727050694027
30
0
10
-221.53104373778447
20
-63.871587960657536
30
0
10
-219.96262216830388
20
-60.414832543818299
30
0
10
-219.13360506440054
20
-57.487947822384669
30
0
10
-218.62750246183165
20
-53.420656876211993
30
0
10
-218.46371371228093
20
-52.104369438148964
30
0
10
-218.32849469331427
20
-50.66437963604946
30
0
10
-218.20070247690236
20
-49.0235351006286
30
0
0
SPLINE
5
214
100
AcDbEntity
8
0
100
AcDbSpline
70
0
71
3
72
20
73
16
74
0
42
0.000000001
43
0.0000000001
44
0.0000000001
40
-6.2911944283464565e-06
40
-6.2911944283464565e-06
40
-6.2911944283464565e-06
40
-6.2911944283464565e-06
40
0.064410861666687177
40
0.064410861666687177
40
0.064410861666687177
40
0.36120852254567859
40
0.36120852254567859
40
0.36120852254567859
40
0.61908100014631273
40
0.61908100014631273
40
0.61908100014631273
40
0.97449938300682526
40
0.97449938300682526
40
0.97449938300682526
40
1
40
1
40
1
40
1
10
-218.20070246802578
20
-49.023535101518036
30
0
10
-218.14402351959373
20
-48.294996656865109
30
0
10
-218.08504999344638
20
-47.647221043214074
30
0
10
-218.01756557153976
20
-47.017418405649245
30
0
10
-217.70663567665849
20
-44.1156454873759
30
0
10
-217.2373537934736
20
-42.059230241786814
30
0
10
-216.56618996248821
20
-40.614701518237126
30
0
10
-215.98304965248857
20
-39.359623564442494
30
0
10
-215.28020956896822
20
-38.506860306534577
30
0
10
-214.14937907945014
20
-37.716220155090411
30
0
10
-212.59078722190293
20
-36.626503072191511
30
0
10
-210.13920612707039
20
-35.750258637590427
30
0
10
-206.50825324601675
20
-34.951769945612277
30
0
10
-206.24773903739649
20
-34.894479846705082
30
0
10
-205.98128261706933
20
-34.837446981469768
30
0
10
-205.7088073580328
20
-34.780559672670314
30
0
0
SPLINE
5
215
100
AcDbEntity
8
0
100
AcDbSpline
70
0
71
3
72
11
73
7
74
0
42
0.000000001
43
0.0000000001
44
0.0000000001
40
8.4289054066988278e-06
40
8.4289054066988278e-06
40
8.4289054066988278e-06
40
8.4289054066988278e-06
40
0.68520453536960502
40
0.68520453536960502
40
0.68520453536960502
40
1
40
1
40
1
40
1
10
-205.70880735742847
20
-34.780559676562447
30
0
10
-202.53342539278668
20
-34.117822080803812
30
0
10
-200.45973430415418
20
-33.487081301069765
30
0
10
-197.26857961416724
20
-31.929378773619909
30
0
10
-195.80248689433887
20
-31.21373300993497
30
0
10
-194.09084237890124
20
-30.30568656483489
30
0
10
-191.86592303082563
20
-29.096291612592143
30
0
0
SPLINE
5
216
100
AcDbEntity
8
0
100
AcDbSpline
70
0
71
3
72
14
73
10
74
0
42
0.000000001
43
0.0000000001
44
0.0000000001
40
3.2376266152628341e-06
40
3.2376266152628341e-06
40
3.2376266152628341e-06
40
3.2376266152628341e-06
40
0.48019831350400971
40
0.48019831350400971
40
0.48019831350400971
40
0.89571429603607444
40
0.89571429603607444
40
0.89571429603607444
40
1
40
1
40
1
40
1
10
-191.86592302948699
20
-29.096291615765139
30
0
10
-186.94746823835561
20
-26.423162684487448
30
0
10
-183.30614270214159
20
-24.997036810746959
30
0
10
-180.26585961095606
20
-24.613745394714886
30
0
10
-177.63508249708966
20
-24.282080791454067
30
0
10
-175.42214521457549
20
-24.667575591744928
30
0
10
-172.89072660062286
20
-25.802479807122154
30
0
10
-172.25539418675339
20
-26.087316708728238
30
0
10
-171.60184287955144
20
-26.421301260916003
30
0
10
-170.92291738641759
20
-26.805902564421178
30
0
0
SPLINE
5
217
100
AcDbEntity
8
0
100
AcDbSpline
70
0
71
3
72
14
73
10
74
0
42
0.000000001
43
0.0000000001
44
0.0000000001
40
-4.3210134347234272e-06
40
-4.3210134347234272e-06
40
-4.3210134347234272e-06
40
-4.3210134347234272e-06
40
0.021879488658490157
40
0.021879488658490157
40
0.021879488658490157
40
0.53237445567678665
40
0.53237445567678665
40
0.53237445567678665
40
1
40
1
40
1
40
1
10
-170.92291739160015
20
-26.805902576210325
30
0
10
-170.59741834609585
20
-26.990243280090716
30
0
10
-170.31471696220964
20
-27.157368229830126
30
0
10
-170.0168882041115
20
-27.340015467707033
30
0
10
-163.06928244799576
20
-31.600722221868565
30
0
10
-158.35603598410071
20
-38.323189031749379
30
0
10
-156.02343125232846
20
-46.849369291869849
30
0
10
-153.88670978030891
20
-54.659553412634679
30
0
10
-153.78758215112487
20
-64.007692961573099
30
0
10
-156.06114909179919
20
-74.215805112908782
30
0
0
SPLINE
5
218
100
AcDbEntity
8
0
100
AcDbSpline
70
0
71
3
72
11
73
7
74
0
42
0.000000001
43
0.0000000001
44
0.0000000001
40
2.7072208406142551e-06
40
2.7072208406142551e-06
40
2.7072208406142551e-06
40
2.7072208406142551e-06
40
0.69970253404998828
40
0.69970253404998828
40
0.69970253404998828
40
1
40
1
40
1
40
1
10
-156.0611490949014
20
-74.215805112083459
30
0
10
-158.41561083657507
20
-84.784585550022825
30
0
10
-161.96853217657332
20
-92.823761453497667
30
0
10
-167.99812137840024
20
-100.67531110710748
30
0
10
-170.58590300789365
20
-104.04504248955563
30
0
10
-173.63771701571537
20
-107.37666481118393
30
0
10
-177.25641319177277
20
-110.82489219055736
30
0
0
SPLINE
5
219
100
AcDbEntity
8
0
100
AcDbSpline
70
0
71
3
72
17
73
13
74
0
42
0.000000001
43
0.0000000001
44
0.0000000001
40
-2.8560248805256262e-06
40
-2.8560248805256262e-06
40
-2.8560248805256262e-06
40
-2.8560248805256262e-06
40
0.091261272196549725
40
0.091261272196549725
40
0.091261272196549725
40
0.56033287518823882
40
0.56033287518823882
40
0.56033287518823882
40
0.93345379590164479
40
0.93345379590164479
40
0.93345379590164479
40
1
40
1
40
1
40
1
10
-177.25641319296201
20
-110.82489218894975
30
0
10
-177.95804758919161
20
-111.49353252503055
30
0
10
-178.64657522377075
20
-112.16961908713432
30
0
10
-179.27971656292002
20
-112.81483249070405
30
0
10
-182.53388256069812
20
-116.13104545829918
30
0
10
-184.74325702505888
20
-118.99944817882213
30
0
10
-186.02074553444993
20
-121.99505321466879
30
0
10
-187.03691808845815
20
-124.37789391945692
30
0
10
-187.40070818757673
20
-126.85559545833772
30
0
10
-187.16320969936089
20
-129.324071291797
30
0
10
-187.12085178804449
20
-129.76432453814718
30
0
10
-187.06070972862847
20
-130.20438625410006
30
0
10
-186.98436884829746
20
-130.64477016860127
30
0
0
SPLINE
5
220
100
AcDbEntity
8
0
100
AcDbSpline
70
0
71
3
72
14
73
10
74
0
42
0.000000001
43
0.0000000001
44
0.0000000001
40
5.6686176990969268e-08
40
5.6686176990969268e-08
40
5.6686176990969268e-08
40
5.6686176990969268e-08
40
0.34584822598204923
40
0.34584822598204923
40
0.34584822598204923
40
0.68358294615296189
40
0.68358294615296189
40
0.68358294615296189
40
1
40
1
40
1
40
1
10
-186.98436884829778
20
-130.64477016860133
30
0
10
-186.50726550714359
20
-133.39702071057582
30
0
10
-185.488610100584
20
-135.8309967094813
30
0
10
-183.83647340478208
20
-137.73256269187868
30
0
10
-182.22309512443218
20
-139.58951875516809
30
0
10
-180.07674620993274
20
-140.90006418081393
30
0
10
-177.45113750022512
20
-141.80433067678405
30
0
10
-174.99125605226385
20
-142.65152027103915
30
0
10
-172.08821272308498
20
-143.16256582705898
30
0
10
-168.63245601533879
20
-143.44259549287034
30
0
0
SPLINE
5
221
100
AcDbEntity
8
0
100
AcDbSpline
70
0
71
3
72
14
73
10
74
0
42
0.000000001
43
0.0000000001
44
0.0000000001
40
-2.0961606410504448e-06
40
-2.0961606410504448e-06
40
-2.0961606410504448e-06
40
-2.0961606410504448e-06
40
0.089314005191431498
40
0.089314005191431498
40
0.089314005191431498
40
0.66434576504759024
40
0.66434576504759024
40
0.66434576504759024
40
1
40
1
40
1
40
1
10
-168.63245601543463
20
-143.44259549438411
30
0
10
-167.59637532727592
20
-143.52650880125029
30
0
10
-166.64401225079467
20
-143.62145702683159
30
0
10
-165.70932647216299
20
-143.734177469434
30
0
10
-159.69166560180727
20
-144.45989023006956
30
0
10
-155.28995862807301
20
-145.82731362493558
30
0
10
-150.98912975610153
20
-148.3948109459046
30
0
10
-148.47867463785914
20
-149.89349573025072
30
0
10
-145.99210485604826
20
-151.81699032435179
30
0
10
-143.26487560245138
20
-154.3081133672562
30
0
0
SPLINE
5
222
100
AcDbEntity
8
0
100
AcDbSpline
70
0
71
3
72
11
73
7
74
0
42
0.000000001
43
0.0000000001
44
0.0000000001
40
2.1489757607295878e-06
40
2.1489757607295878e-06
40
2.1489757607295878e-06
40
2.1489757607295878e-06
40
0.79519710675418298
40
0.79519710675418298
40
0.79519710675418298
40
1
40
1
40
1
40
1
10
-143.26487560465355
20
-154.30811337039049
30
0
10
-131.93430841165119
20
-164.65902132044266
30
0
10
-124.0078173522862
20
-175.54262788638195
30
0
10
-115.81954537621576
20
-192.69279467792438
30
0
10
-113.71065148173238
20
-197.10982944933312
30
0
10
-111.58803716265356
20
-201.94115849008392
30
0
10
-109.39428397726125
20
-207.27900424744439
30
0
0
SPLINE
5
223
100
AcDbEntity
8
0
100
AcDbSpline
70
0
71
3
72
20
73
16
74
0
42
0.000000001
43
0.0000000001
44
0.0000000001
40
-7.2568655136350685e-07
40
-7.2568655136350685e-07
40
-7.2568655136350685e-07
40
-7.2568655136350685e-07
40
0.099321892554549526
40
0.099321892554549526
40
0.099321892554549526
40
0.54196950731247151
40
0.54196950731247151
40
0.54196950731247151
40
0.76842135638458597
40
0.76842135638458597
40
0.76842135638458597
40
0.946619360517857
40
0.946619360517857
40
0.946619360517857
40
0.98461712207039342
40
0.98461712207039342
40
0.98461712207039342
40
0.98461712207039342
10
-109.39428397763805
20
-207.27900424764391
30
0
10
-108.60769859379891
20
-209.19282390962542
30
0
10
-107.87446840719211
20
-211.01068932263613
30
0
10
-107.18330585844818
20
-212.75978902204088
30
0
10
-104.10302606891575
20
-220.55494005235204
30
0
10
-101.93403138694973
20
-226.81144836997242
30
0
10
-100.70109615247549
20
-231.38998536516439
30
0
10
-100.07034506668113
20
-233.73229589398841
30
0
10
-99.687728098907371
20
-235.63954767576416
30
0
10
-99.540959506051422
20
-237.01910132001382
30
0
10
-99.425465327383648
20
-238.10469062744218
30
0
10
-99.478928628686191
20
-238.863812004343
30
0
10
-99.542202963360353
20
-239.13689060620322
30
0
10
-99.555695163191885
20
-239.19512007767824
30
0
10
-99.567834444374114
20
-239.23109644270318
30
0
10
-99.573429459753996
20
-239.24585258926618
30
0
0
SPLINE
5
224
100
AcDbEntity
8
0
100
AcDbSpline
70
0
71
3
72
11
73
7
74
0
42
0.000000001
43
0.0000000001
44
0.0000000001
40
0.53530848214746507
40
0.53530848214746507
40
0.53530848214746507
40
0.53530848214746507
40
0.93108849938144767
40
0.93108849938144767
40
0.93108849938144767
40
1
40
1
40
1
40
1
10
-99.573429459753996
20
-239.24585258926612
30
0
10
-99.851729108505779
20
-239.13453020029334
30
0
10
-100.5115810606592
20
-238.66366169725254
30
0
10
-101.23724338251321
20
-237.73661989439864
30
0
10
-101.36359255974249
20
-237.5752073950581
30
0
10
-101.4926621121908
20
-237.40093245141077
30
0
10
-101.62358701343253
20
-237.21401693005944
30
0
0
SPLINE
5
225
100
AcDbEntity
8
0
100
AcDbSpline
70
0
71
3
72
14
73
10
74
0
42
0.000000001
43
0.0000000001
44
0.0000000001
40
-3.2553403824331575e-06
40
-3.2553403824331575e-06
40
-3.2553403824331575e-06
40
-3.2553403824331575e-06
40
0.16441049196217178
40
0.16441049196217178
40
0.16441049196217178
40
0.81847429489847934
40
0.81847429489847934
40
0.81847429489847934
40
1
40
1
40
1
40
1
10
-101.62358701303643
20
-237.21401692970147
30
0
10
-102.09509018553808
20
-236.54090440818976
30
0
10
-102.51092560100624
20
-235.94903652601008
30
0
10
-102.87974570284028
20
-235.42714198630065
30
0
10
-104.34697020421373
20
-233.35096324228181
30
0
10
-105.10336587257808
20
-232.33375783867589
30
0
10
-105.85559303976423
20
-231.4506136093774
30
0
10
-106.06436253030472
20
-231.20551003047566
30
0
10
-106.26975612909403
20
-230.97442488523998
30
0
10
-106.48275522534283
20
-230.74098044569297
30
0
0
SPLINE
5
226
100
AcDbEntity
8
0
100
AcDbSpline
70
0
71
3
72
17
73
13
74
0
42
0.000000001
43
0.0000000001
44
0.0000000001
40
4.5979126534340109e-06
40
4.5979126534340109e-06
40
4.5979126534340109e-06
40
4.5979126534340109e-06
40
0.32216534779479195
40
0.32216534779479195
40
0.32216534779479195
40
0.58582759931482342
40
0.58582759931482342
40
0.58582759931482342
40
0.90586272428573089
40
0.90586272428573089
40
0.90586272428573089
40
1
40
1
40
1
40
1
10
-106.48275522122943
20
-230.74098044085929
30
0
10
-109.15744389450379
20
-227.80911755154636
30
0
10
-111.88689137948124
20
-225.87266484846037
30
0
10
-114.70536649099881
20
-225.1152655179817
30
0
10
-117.01205808526583
20
-224.49539604956624
30
0
10
-119.36949890861399
20
-224.72723163659464
30
0
10
-121.50933796220767
20
-225.79973254968181
30
0
10
-124.10668989630676
20
-227.10154182185664
30
0
10
-126.35948694722646
20
-229.54249484976756
30
0
10
-128.3170187048745
20
-232.90225033189088
30
0
10
-128.89282021043081
20
-233.8905113178746
30
0
10
-129.44430257028981
20
-234.96140961020274
30
0
10
-129.97300176207463
20
-236.11482348575478
30
0
0
SPLINE
5
227
100
AcDbEntity
8
0
100
AcDbSpline
70
0
71
3
72
20
73
16
74
0
42
0.000000001
43
0.0000000001
44
0.0000000001
40
-9.6473513966273359e-06
40
-9.6473513966273359e-06
40
-9.6473513966273359e-06
40
-9.6473513966273359e-06
40
0.078369600475128823
40
0.078369600475128823
40
0.078369600475128823
40
0.42182344152220719
40
0.42182344152220719
40
0.42182344152220719
40
0.68650686720428089
40
0.68650686720428089
40
0.68650686720428089
40
0.96834635427653959
40
0.96834635427653959
40
0.96834635427653959
40
1
40
1
40
1
40
1
10
-129.97300176532107
20
-236.11482348383697
30
0
10
-130.12421345002491
20
-236.44475670674598
30
0
10
-130.25169641354498
20
-236.71140382470182
30
0
10
-130.38341993884288
20
-236.97567721944182
30
0
10
-130.96062566579695
20
-238.13370967097666
30
0
10
-131.45665036403739
20
-238.8388906004019
30
0
10
-131.75767914780161
20
-239.13455023416026
30
0
10
-131.98966761377048
20
-239.36240095337337
30
0
10
-132.05350822791775
20
-239.36483388590102
30
0
10
-132.12043826641553
20
-239.37532554122697
30
0
10
-132.19170652838295
20
-239.38649723718032
30
0
10
-132.36883280816525
20
-239.39056845884716
30
0
10
-132.77568880079639
20
-239.1996271859901
30
0
10
-132.82138316245235
20
-239.17818240027967
30
0
10
-132.86945162590337
20
-239.1544370807805
30
0
10
-132.91979587967336
20
-239.12830558209458
30
0
0
SPLINE
5
228
100
AcDbEntity
8
0
100
AcDbSpline
70
0
71
3
72
14
73
10
74
0
42
0.000000001
43
0.0000000001
44
0.0000000001
40
-0.00015425532345703235
40
-0.00015425532345703235
40
-0.00015425532345703235
40
-0.00015425532345703235
40
0.048401103682118488
40
0.048401103682118488
40
0.048401103682118488
40
0.38271681141387281
40
0.38271681141387281
40
0.38271681141387281
40
1
40
1
40
1
40
1
10
-132.91979582330094
20
-239.12830544202302
30
0
10
-132.99010194466547
20
-239.09184814562795
30
0
10
-133.01128988991616
20
-239.0796536221666
30
0
10
-133.0525573278575
20
-239.0558542133453
30
0
10
-133.33669388876839
20
-238.89198937192197
30
0
10
-133.53509927645061
20
-238.74383622329802
30
0
10
-133.94803251504285
20
-238.2588189182276
30
0
10
-134.71047573950526
20
-237.36327909862234
30
0
10
-136.02071474931381
20
-235.34514205371065
30
0
10
-138.49501986448604
20
-231.24895392714444
30
0
0
SPLINE
5
229
100
AcDbEntity
8
0
100
AcDbSpline
70
0
71
3
72
11
73
7
74
0
42
0.000000001
43
0.0000000001
44
0.0000000001
40
5.8601894600829318e-06
40
5.8601894600829318e-06
40
5.8601894600829318e-06
40
5.8601894600829318e-06
40
0.62607042676065738
40
0.62607042676065738
40
0.62607042676065738
40
1
40
1
40
1
40
1
10
-138.49501985673461
20
-231.24895392111384
30
0
10
-142.41117714433636
20
-224.76445004855697
30
0
10
-145.04461408188874
20
-220.844388811404
30
0
10
-147.69131998801927
20
-217.9829074111783
30
0
10
-149.27211798045269
20
-216.27383046296706
30
0
10
-150.85488708486389
20
-214.9653768528282
30
0
10
-152.60925963834413
20
-213.79761249922473
30
0
0
SPLINE
5
230
100
AcDbEntity
8
0
100
AcDbSpline
70
0
71
3
72
14
73
10
74
0
42
0.000000001
43
0.0000000001
44
0.0000000001
40
-2.0306237774964259e-06
40
-2.0306237774964259e-06
40
-2.0306237774964259e-06
40
-2.0306237774964259e-06
40
0.023612087159158805
40
0.023612087159158805
40
0.023612087159158805
40
0.55207887692186031
40
0.55207887692186031
40
0.55207887692186031
40
1
40
1
40
1
40
1
10
-152.60925963808705
20
-213.79761249872666
30
0
10
-152.76006828121245
20
-213.69723481291936
30
0
10
-152.94838132869629
20
-213.57602972747569
30
0
10
-153.1188474579302
20
-213.47079628798235
30
0
10
-156.93375551029081
20
-211.1157484112872
30
0
10
-161.06367544271936
20
-210.62024344823948
30
0
10
-164.62155197419656
20
-211.98481085678191
30
0
10
-167.63715878738572
20
-213.14139927064343
30
0
10
-170.20418900146598
20
-215.66311049718109
30
0
10
-171.69218365982718
20
-219.215864121658
30
0
0
SPLINE
5
231
100
AcDbEntity
8
0
100
AcDbSpline
70
0
71
3
72
11
73
7
74
0
42
0.000000001
43
0.0000000001
44
0.0000000001
40
5.5809599899953044e-06
40
5.5809599899953044e-06
40
5.5809599899953044e-06
40
5.5809599899953044e-06
40
0.41595705374959491
40
0.41595705374959491
40
0.41595705374959491
40
1
40
1
40
1
40
1
10
-171.69218366166987
20
-219.21586412066091
30
0
10
-172.72241455105723
20
-221.67538741476164
30
0
10
-173.21720307303121
20
-224.3972222401591
30
0
10
-173.07579610331686
20
-227.61467265815796
30
0
10
-172.87724471303463
20
-232.13233720431322
30
0
10
-171.55300597875583
20
-237.67306827173044
30
0
10
-169.02293937406733
20
-246.06918609020801
30
0
0
SPLINE
5
232
100
AcDbEntity
8
0
100
AcDbSpline
70
0
71
3
72
14
73
10
74
0
42
0.000000001
43
0.0000000001
44
0.0000000001
40
-2.1839883215752688e-06
40
-2.1839883215752688e-06
40
-2.1839883215752688e-06
40
-2.1839883215752688e-06
40
0.11252760275876397
40
0.11252760275876397
40
0.11252760275876397
40
0.89406409442971368
40
0.89406409442971368
40
0.89406409442971368
40
1
40
1
40
1
40
1
10
-169.02293937497495
20
-246.06918609056157
30
0
10
-168.67854573612254
20
-247.21195325922903
30
0
10
-168.36669759772053
20
-248.25819586661271
30
0
10
-168.07888907779272
20
-249.24163691248316
30
0
10
-166.08001511348897
20
-256.07178461801703
30
0
10
-165.30392159421976
20
-259.61652101277002
30
0
10
-164.13284099021254
20
-267.23667789446426
30
0
10
-163.97410306101352
20
-268.26957684218195
30
0
10
-163.80850224644846
20
-269.37627944459342
30
0
10
-163.63228061902078
20
-270.57387752588767
30
0
0
SPLINE
5
233
100
AcDbEntity
8
0
100
AcDbSpline
70
0
71
3
72
14
73
10
74
0
42
0.000000001
43
0.0000000001
44
0.0000000001
40
-2.4617034314305269e-06
40
-2.4617034314305269e-06
40
-2.4617034314305269e-06
40
-2.4617034314305269e-06
40
0.092396681135039321
40
0.092396681135039321
40
0.092396681135039321
40
0.64377323108852913
40
0.64377323108852913
40
0.64377323108852913
40
1
40
1
40
1
40
1
10
-163.63228062179877
20
-270.57387752641483
30
0
10
-163.41344965305208
20
-272.06056209192559
30
0
10
-163.21466027800699
20
-273.44363956228159
30
0
10
-163.03298099548215
20
-274.7527639167285
30
0
10
-161.94884002924283
20
-282.56474623432314
30
0
10
-161.50505462431408
20
-287.51355728343947
30
0
10
-161.54384523902911
20
-292.70305541754374
30
0
10
-161.56890661558782
20
-296.05582432427366
30
0
10
-161.7975353873166
20
-299.53518231019376
30
0
10
-162.2049813870683
20
-303.96662886079844
30
0
0
SPLINE
5
234
100
AcDbEntity
8
0
100
AcDbSpline
70
0
71
3
72
17
73
13
74
0
42
0.000000001
43
0.0000000001
44
0.0000000001
40
-5.663653925281869e-06
40
-5.663653925281869e-06
40
-5.663653925281869e-06
40
-5.663653925281869e-06
40
0.19451465504746115
40
0.19451465504746115
40
0.19451465504746115
40
0.59725732752373062
40
0.59725732752373062
40
0.59725732752373062
40
0.8795920728751605
40
0.8795920728751605
40
0.8795920728751605
40
1
40
1
40
1
40
1
10
-162.2049813884629
20
-303.96662886063575
30
0
10
-162.29393288969678
20
-304.93443034914606
30
0
10
-162.36859871569831
20
-305.91048376651054
30
0
10
-162.42190083717423
20
-306.80981892341651
30
0
10
-162.53225968809113
20
-308.67183851582831
30
0
10
-162.56269003385836
20
-310.30942200679698
30
0
10
-162.50471386916004
20
-311.68453061634972
30
0
10
-162.4640708312721
20
-312.64852317447998
30
0
10
-162.38732245251094
20
-313.47479082247401
30
0
10
-162.2228592092205
20
-314.23974148009592
30
0
10
-162.15272020387712
20
-314.56597168928391
30
0
10
-162.06713379662381
20
-314.88326461750199
30
0
10
-161.93333329234343
20
-315.21756058132013
30
0
0
SPLINE
5
235
100
AcDbEntity
8
0
100
AcDbSpline
70
0
71
3
72
14
73
10
74
0
42
0.000000001
43
0.0000000001
44
0.0000000001
40
5.3548277515330645e-05
40
5.3548277515330645e-05
40
5.3548277515330645e-05
40
5.3548277515330645e-05
40
0.43214891326644567
40
0.43214891326644567
40
0.43214891326644567
40
0.78151962481909709
40
0.78151962481909709
40
0.78151962481909709
40
1
40
1
40
1
40
1
10
-161.93333336855841
20
-315.21756062110728
30
0
10
-161.15166890571416
20
-317.17176081716286
30
0
10
-159.67143668107613
20
-318.47823130439122
30
0
10
-158.06365653332281
20
-318.95134720203936
30
0
10
-156.76368587926314
20
-319.33388506567144
30
0
10
-155.33453784742167
20
-319.19604268869779
30
0
10
-154.10649861773385
20
-318.38016137285643
30
0
10
-153.33853936194308
20
-317.86994672093005
30
0
10
-152.67081607958025
20
-317.08613187951624
30
0
10
-152.22982813688324
20
-316.11817264039496
30
0
0
SPLINE
5
236
100
AcDbEntity
8
0
100
AcDbSpline
70
0
71
3
72
20
73
16
74
0
42
0.000000001
43
0.0000000001
44
0.0000000001
40
1.4702739683289714e-05
40
1.4702739683289714e-05
40
1.4702739683289714e-05
40
1.4702739683289714e-05
40
0.065417597537787267
40
0.065417597537787267
40
0.065417597537787267
40
0.21576203573655489
40
0.21576203573655489
40
0.21576203573655489
40
0.60788101786827742
40
0.60788101786827742
40
0.60788101786827742
40
0.88014230206198141
40
0.88014230206198141
40
0.88014230206198141
40
1
40
1
40
1
40
1
10
-152.22982812860397
20
-316.11817264416732
30
0
10
-152.01307570134549
20
-315.64247071220035
30
0
10
-151.932015834906
20
-315.27849716586582
30
0
10
-151.84031385862912
20
-314.85183879709916
30
0
10
-151.62951459435146
20
-313.87106091329076
30
0
10
-151.47638856729822
20
-312.63190703703657
30
0
10
-151.32995219822814
20
-311.09055246891796
30
0
10
-150.9480259981321
20
-307.07048766575133
30
0
10
-150.67845692710031
20
-301.145779772514
30
0
10
-150.58038698988466
20
-295.44344541083939
30
0
10
-150.51229376241076
20
-291.48412452366568
30
0
10
-150.52764155308387
20
-287.64900035859665
30
0
10
-150.65687162944795
20
-284.63900152952596
30
0
10
-150.71376263950555
20
-283.31390849796639
30
0
10
-150.79173649163175
20
-282.15097628623374
30
0
10
-150.90213687878895
20
-281.1739479474486
30
0
0
SPLINE
5
237
100
AcDbEntity
8
0
100
AcDbSpline
70
0
71
3
72
11
73
7
74
0
42
0.000000001
43
0.0000000001
44
0.0000000001
40
3.3798450247979339e-06
40
3.3798450247979339e-06
40
3.3798450247979339e-06
40
3.3798450247979339e-06
40
0.84985438691506099
40
0.84985438691506099
40
0.84985438691506099
40
1
40
1
40
1
40
1
10
-150.90213687249269
20
-281.17394794653273
30
0
10
-152.60358498819687
20
-266.10687049427361
30
0
10
-154.23111158335811
20
-256.7484652739447
30
0
10
-157.13173933610963
20
-246.2540525205111
30
0
10
-157.64420155436309
20
-244.39997454246284
30
0
10
-158.19583770605118
20
-242.51133861685162
30
0
10
-158.79375669849395
20
-240.54993994213532
30
0
0
SPLINE
5
238
100
AcDbEntity
8
0
100
AcDbSpline
70
0
71
3
72
14
73
10
74
0
42
0.000000001
43
0.0000000001
44
0.0000000001
40
3.8657723564483604e-06
40
3.8657723564483604e-06
40
3.8657723564483604e-06
40
3.8657723564483604e-06
40
0.50000193288617822
40
0.50000193288617822
40
0.50000193288617822
40
0.8353355041838546
40
0.8353355041838546
40
0.8353355041838546
40
1
40
1
40
1
40
1
10
-158.79375669540542
20
-240.54993994092291
30
0
10
-160.39726698612341
20
-235.28884629601774
30
0
10
-161.33907478576168
20
-231.53480649702803
30
0
10
-161.69950087405542
20
-228.97073602496064
30
0
10
-161.94122774326925
20
-227.25109156029205
30
0
10
-161.91041432037844
20
-226.09325714324717
30
0
10
-161.76535619745476
20
-225.39657112102157
30
0
10
-161.69412586229078
20
-225.05446564035645
30
0
10
-161.60287464119475
20
-224.81818545566028
30
0
10
-161.49409167841455
20
-224.61848889994195
30
0
0
SPLINE
5
239
100
AcDbEntity
8
0
100
AcDbSpline
70
0
71
3
72
20
73
16
74
0
42
0.000000001
43
0.0000000001
44
0.0000000001
40
-4.4987412810897006e-05
40
-4.4987412810897006e-05
40
-4.4987412810897006e-05
40
-4.4987412810897006e-05
40
0.01147661866442316
40
0.01147661866442316
40
0.01147661866442316
40
0.21142118731104664
40
0.21142118731104664
40
0.21142118731104664
40
0.42889806703987376
40
0.42889806703987376
40
0.42889806703987376
40
0.7726907192255974
40
0.7726907192255974
40
0.7726907192255974
40
1
40
1
40
1
40
1
10
-161.49409159376125
20
-224.61848894602312
30
0
10
-161.4666714052737
20
-224.56811837959182
30
0
10
-161.46109255402069
20
-224.55891165077307
30
0
10
-161.44475502624977
20
-224.53092340830295
30
0
10
-161.16123553070287
20
-224.04521880858374
30
0
10
-160.94784890733672
20
-223.89779338251122
30
0
10
-160.69290638928203
20
-223.80644000006939
30
0
10
-160.41560901775537
20
-223.70707621789415
30
0
10
-159.98186449962273
20
-223.68474655122131
30
0
10
-159.29798625163153
20
-223.94955721288363
30
0
10
-158.2168951630423
20
-224.36817623948298
30
0
10
-156.6443541375312
20
-225.54376901844986
30
0
10
-154.95028334009154
20
-227.49915352743031
30
0
10
-153.8301953681738
20
-228.79201724498773
30
0
10
-152.64728528255091
20
-230.41366729882509
30
0
10
-151.45550425886819
20
-232.33681010421981
30
0
0
SPLINE
5
240
100
AcDbEntity
8
0
100
AcDbSpline
70
0
71
3
72
11
73
7
74
0
42
0.000000001
43
0.0000000001
44
0.0000000001
40
0
40
0
40
0
40
0
40
0.64776722427845712
40
0.64776722427845712
40
0.64776722427845712
40
1
40
1
40
1
40
1
10
-151.45550182576162
20
-232.33681403044514
30
0
10
-147.24788052538202
20
-239.12650115258688
30
0
10
-145.40398415059147
20
-242.06860121286442
30
0
10
-143.97740586952906
20
-244.05965003895824
30
0
10
-143.20168334315025
20
-245.14231156971616
30
0
10
-142.55027621676251
20
-245.9334563257915
30
0
10
-141.7878048869957
20
-246.81109198527872
30
0
0
SPLINE
5
241
100
AcDbEntity
8
0
100
AcDbSpline
70
0
71
3
72
14
73
10
74
0
42
0.000000001
43
0.0000000001
44
0.0000000001
40
3.0696832289400788e-06
40
3.0696832289400788e-06
40
3.0696832289400788e-06
40
3.0696832289400788e-06
40
0.34919411701542902
40
0.34919411701542902
40
0.34919411701542902
40
0.64752776008242974
40
0.64752776008242974
40
0.64752776008242974
40
1
40
1
40
1
40
1
10
-141.78780488837086
20
-246.81109198675153
30
0
10
-139.36568253468874
20
-249.5992855244433
30
0
10
-136.73042197284121
20
-251.38551775602872
30
0
10
-133.9810651745716
20
-251.95587362443325
30
0
10
-131.63213430711301
20
-252.44316087124488
30
0
10
-129.23570151070459
20
-251.98464084352736
30
0
10
-127.10567672211361
20
-250.67049335848191
30
0
10
-124.58911640194215
20
-249.11786757054156
30
0
10
-122.43327375734552
20
-246.45414337936825
30
0
10
-120.65561627515252
20
-242.86793486323228
30
0
0
SPLINE
5
242
100
AcDbEntity
8
0
100
AcDbSpline
70
0
71
3
72
20
73
16
74
0
42
0.000000001
43
0.0000000001
44
0.0000000001
40
1.7132243078921139e-06
40
1.7132243078921139e-06
40
1.7132243078921139e-06
40
1.7132243078921139e-06
40
0.25000128491823093
40
0.25000128491823093
40
0.25000128491823093
40
0.42080427387548791
40
0.42080427387548791
40
0.42080427387548791
40
0.57749751025133211
40
0.57749751025133211
40
0.57749751025133211
40
0.77523168793932129
40
0.77523168793932129
40
0.77523168793932129
40
1
40
1
40
1
40
1
10
-120.65561627473991
20
-242.867934863497
30
0
10
-119.63482717446826
20
-240.80872330769404
30
0
10
-118.75457417242473
20
-239.34160467742339
30
0
10
-118.07851896312658
20
-238.54193916576185
30
0
10
-117.6166291700128
20
-237.99559719152424
30
0
10
-117.28354435739845
20
-237.78713600725536
30
0
10
-117.10074993152638
20
-237.72157734325319
30
0
10
-116.93305585101749
20
-237.66143437211613
30
0
10
-116.84990838466915
20
-237.64776258827209
30
0
10
-116.56677423149219
20
-237.75100253976382
30
0
10
-116.20948185405004
20
-237.88128299975642
30
0
10
-115.56895607049249
20
-238.30014734928798
30
0
10
-114.74576935003797
20
-239.13993246355852
30
0
10
-113.81003688420556
20
-240.09453264869248
30
0
10
-112.64672102837585
20
-241.55318744968071
30
0
10
-111.25736223046842
20
-243.4804906686818
30
0
0
SPLINE
5
243
100
AcDbEntity
8
0
100
AcDbSpline
70
0
71
3
72
14
73
10
74
0
42
0.000000001
43
0.0000000001
44
0.0000000001
40
0
40
0
40
0
40
0
40
0.44824389148787225
40
0.44824389148787225
40
0.44824389148787225
40
0.77917559948975912
40
0.77917559948975912
40
0.77917559948975912
40
1
40
1
40
1
40
1
10
-111.25736052448003
20
-243.48049303520682
30
0
10
-108.75156933439813
20
-246.95648941619913
30
0
10
-106.52931972584584
20
-249.41266263414013
30
0
10
-104.1908225579557
20
-250.90227227182959
30
0
10
-102.46434535074003
20
-252.00202861211196
30
0
10
-100.63012609284586
20
-252.53416189706823
30
0
10
-98.808305780690318
20
-252.38478003563159
30
0
10
-97.592639924135923
20
-252.2851003760486
30
0
10
-96.405103465530942
20
-251.89797810352775
30
0
10
-95.250934561475049
20
-251.29836848649086
30
0
0
SPLINE
5
244
100
AcDbEntity
8
0
100
AcDbSpline
70
0
71
3
72
17
73
13
74
0
42
0.000000001
43
0.0000000001
44
0.0000000001
40
-1.32610941315666e-05
40
-1.32610941315666e-05
40
-1.32610941315666e-05
40
-1.32610941315666e-05
40
0.012343261901224461
40
0.012343261901224461
40
0.012343261901224461
40
0.24849874047228576
40
0.24849874047228576
40
0.24849874047228576
40
0.53670157914062533
40
0.53670157914062533
40
0.53670157914062533
40
1
40
1
40
1
40
1
10
-95.250934550084395
20
-251.29836850841394
30
0
10
-95.166585288417863
20
-251.25453039319169
30
0
10
-95.046684451782184
20
-251.19009797987761
30
0
10
-94.94602498991668
20
-251.13350716845574
30
0
10
-93.022240815477844
20
-250.0519545213977
30
0
10
-91.481331479906032
20
-248.33271527172286
30
0
10
-90.508920029369563
20
-246.1626839179666
30
0
10
-89.322194478499597
20
-243.51438966734787
30
0
10
-88.93381551202782
20
-240.28706077667471
30
0
10
-89.148543623527928
20
-236.53124483264003
30
0
10
-89.49372826997967
20
-230.49360965892063
30
0
10
-91.395309683732862
20
-222.96904695352725
30
0
10
-94.770880554682691
20
-213.67252392562321
30
0
0
SPLINE
5
245
100
AcDbEntity
8
0
100
AcDbSpline
70
0
71
3
72
14
73
10
74
0
42
0.000000001
43
0.0000000001
44
0.0000000001
40
-2.7192856822187236e-07
40
-2.7192856822187236e-07
40
-2.7192856822187236e-07
40
-2.7192856822187236e-07
40
0.082224061344538649
40
0.082224061344538649
40
0.082224061344538649
40
0.83346011215030302
40
0.83346011215030302
40
0.83346011215030302
40
1
40
1
40
1
40
1
10
-94.77088055448948
20
-213.67252392553291
30
0
10
-95.88108073824003
20
-210.61509200188706
30
0
10
-97.017289869676176
20
-207.60938890209229
30
0
10
-98.159081626595039
20
-204.71312617079434
30
0
10
-108.590970778694
20
-178.25165315246821
30
0
10
-120.08990952895643
20
-159.24289184826878
30
0
10
-133.52281597431684
20
-146.6516518085557
30
0
10
-136.50072781774648
20
-143.86032716185741
30
0
10
-139.57282085048072
20
-141.38651783483348
30
0
10
-142.74502851394911
20
-139.22168173816328
30
0
0
SPLINE
5
246
100
AcDbEntity
8
0
100
AcDbSpline
70
0
71
3
72
11
73
7
74
0
42
0.000000001
43
0.0000000001
44
0.0000000001
40
4.499630259779952e-06
40
4.499630259779952e-06
40
4.499630259779952e-06
40
4.499630259779952e-06
40
0.70744080667124498
40
0.70744080667124498
40
0.70744080667124498
40
1
40
1
40
1
40
1
10
-142.7450285121964
20
-139.22168173464487
30
0
10
-148.17440445350792
20
-135.51597333715728
30
0
10
-152.90984288305793
20
-133.35461675589326
30
0
10
-159.19342341225783
20
-132.04682189381219
30
0
10
-161.7919884456644
20
-131.50598534629279
30
0
10
-164.65458390285613
20
-131.10286767068249
30
0
10
-167.96517497347833
20
-130.76956239942635
30
0
0
SPLINE
5
247
100
AcDbEntity
8
0
100
AcDbSpline
70
0
71
3
72
14
73
10
74
0
42
0.000000001
43
0.0000000001
44
0.0000000001
40
3.1965824812130172e-06
40
3.1965824812130172e-06
40
3.1965824812130172e-06
40
3.1965824812130172e-06
40
0.50000159829124069
40
0.50000159829124069
40
0.50000159829124069
40
0.78863046922576041
40
0.78863046922576041
40
0.78863046922576041
40
1
40
1
40
1
40
1
10
-167.9651749733861
20
-130.76956239826666
30
0
10
-171.26454753891053
20
-130.43726468574712
30
0
10
-173.35701591791002
20
-130.03370639905131
30
0
10
-174.46171722138189
20
-129.57872793247728
30
0
10
-175.09941663972262
20
-129.31608725071112
30
0
10
-175.37737598053982
20
-129.0796774543671
30
0
10
-175.54279875055028
20
-128.87771460736727
30
0
10
-175.66394163263021
20
-128.72981259026841
30
0
10
-175.75198436799823
20
-128.57483816100344
30
0
10
-175.85015501352694
20
-128.28101022081594
30
0
0
SPLINE
5
248
100
AcDbEntity
8
0
100
AcDbSpline
70
0
71
3
72
23
73
19
74
0
42
0.000000001
43
0.0000000001
44
0.0000000001
40
-5.7539143561048292
40
-5.7539143561048292
40
-5.7539143561048292
40
-5.7539143561048292
40
-5.4449729887212683
40
-5.4449729887212683
40
-5.4449729887212683
40
-5.1300265012841999
40
-5.1300265012841999
40
-5.1300265012841999
40
-4.458595887787677
40
-4.458595887787677
40
-4.458595887787677
40
-3.7696604339812203
40
-3.7696604339812203
40
-3.7696604339812203
40
-3.1763244069175856
40
-3.1763244069175856
40
-3.1763244069175856
40
-2.6563863449294431
40
-2.6563863449294431
40
-2.6563863449294431
40
-2.6563863449294431
10
-175.85015486393905
20
-128.2810101565338
30
0
10
-175.95593037358728
20
-127.96391978780838
30
0
10
-175.97586539193497
20
-127.77188940048006
30
0
10
-175.97013925082439
20
-127.59581838615857
30
0
10
-175.96430180650731
20
-127.41632495033393
30
0
10
-175.90924062123207
20
-127.14408993188401
30
0
10
-175.76569951704798
20
-126.81552453688067
30
0
10
-175.45968597033851
20
-126.11505993879588
30
0
10
-174.85824573314051
20
-125.31341394738944
30
0
10
-174.28615600735395
20
-124.63430875196445
30
0
10
-173.69915135351445
20
-123.93749863251516
30
0
10
-173.21456780004667
20
-123.42787857430082
30
0
10
-172.63214746780872
20
-122.83246512642316
30
0
10
-172.13054609992756
20
-122.31967361936387
30
0
10
-171.54769609085497
20
-121.74252738102574
30
0
10
-170.71662868850763
20
-120.95211719903301
30
0
10
-169.98836754330722
20
-120.25948381852713
30
0
10
-169.07714667558628
20
-119.39284152592819
30
0
10
-167.87348088427748
20
-118.24806117936497
30
0
0
LWPOLYLINE
5
249
100
AcDbEntity
8
0
100
AcDbPolyline
90
4
70
1
43
0.0
10
-176.00000262260437
20
-310.00000461935997
10
-150.00000223517418
20
-310.00000461935997
10
-150.00000223517418
20
-322.0000047981739
10
-176.00000262260437
20
-322.0000047981739
0
LWPOLYLINE
5
250
100
AcDbEntity
8
0
100
AcDbPolyline
90
4
70
1
43
0.0
10
-165.8907997762168
20
-310.00000461935997
10
-160.53252344846783
20
-310.00000461935997
10
-160.53252344846783
20
-316.15344874501704
10
-165.89079977621677
20
-316.15344874501704
0
LWPOLYLINE
5
251
100
AcDbEntity
8
0
100
AcDbPolyline
90
4
70
1
43
0.0
10
-164.50000245124102
20
-310.00000461935997
10
-161.50000240653753
20
-310.00000461935997
10
-161.50000240653753
20
-305.00000454485416
10
-164.50000245124102
20
-305.00000454485416
0
ENDSEC
0
SECTION
2
OBJECTS
0
DICTIONARY
5
C
100
AcDbDictionary
3
ACAD_GROUP
350
D
3
ACAD_MLINESTYLE
350
17
0
DICTIONARY
5
D
100
AcDbDictionary
0
DICTIONARY
5
1A
330
C
100
AcDbDictionary
0
DICTIONARY
5
17
100
AcDbDictionary
0
ENDSEC
0
EOF
