                                                                        S      1
,,15Hmedal hanger v1,15Hmedal hanger v1,7Hunknown,7Hunknown,32,38,7,99, G      1
15,,1.,2,2HMM,1,0.08,15H20250912.001355,0.01,10000.,7Hunknown,7Hunknown,G      2
11,0,15H20250410.202852;                                                G      3
     186       1                                                00000000D      1
     186            -167       1       0                               0D      2
     514       2                                                00010000D      3
     514                       2       1                               0D      4
     510       4                                                00010000D      5
     510            -167       1       1                               0D      6
     510       5                                                00010000D      7
     510            -167       1       1                               0D      8
     510       6                                                00010000D      9
     510            -167       1       1                               0D     10
     510       7                                                00010000D     11
     510            -167       1       1                               0D     12
     510       8                                                00010000D     13
     510            -167       1       1                               0D     14
     510       9                                                00010000D     15
     510            -167       1       1                               0D     16
     510      10                                                00010000D     17
     510            -167       1       1                               0D     18
     510      11                                                00010000D     19
     510            -167       1       1                               0D     20
     510      12                                                00010000D     21
     510            -167       1       1                               0D     22
     510      13                                                00010000D     23
     510            -167       1       1                               0D     24
     510      14                                                00010000D     25
     510            -167       1       1                               0D     26
     510      15                                                00010000D     27
     510            -167       1       1                               0D     28
     510      16                                                00010000D     29
     510            -167       1       1                               0D     30
     510      17                                                00010000D     31
     510            -167       1       1                               0D     32
     508      18                                                00010000D     33
     508                       1       1                               0D     34
     508      19                                                00010000D     35
     508                       3       1                               0D     36
     508      22                                                00010000D     37
     508                       1       1                               0D     38
     508      23                                                00010000D     39
     508                       1       1                               0D     40
     508      24                                                00010000D     41
     508                       1       1                               0D     42
     508      25                                                00010000D     43
     508                       1       1                               0D     44
     508      26                                                00010000D     45
     508                       1       1                               0D     46
     508      27                                                00010000D     47
     508                       1       1                               0D     48
     508      28                                                00010000D     49
     508                       2       1                               0D     50
     508      30                                                00010000D     51
     508                       1       1                               0D     52
     508      31                                                00010000D     53
     508                       1       1                               0D     54
     508      32                                                00010000D     55
     508                       1       1                               0D     56
     508      33                                                00010000D     57
     508                       1       1                               0D     58
     508      34                                                00010000D     59
     508                       1       1                               0D     60
     508      35                                                00010000D     61
     508                       2       1                               0D     62
     508      37                                                00010000D     63
     508                       1       1                               0D     64
     126      38                                                00010000D     65
     126       0              19       0                               0D     66
     126      57                                                00010000D     67
     126       0              17       0                               0D     68
     126      74                                                00010000D     69
     126       0              19       0                               0D     70
     126      93                                                00010000D     71
     126       0              13       0                               0D     72
     126     106                                                00010000D     73
     126       0               5       0                               0D     74
     126     111                                                00010000D     75
     126       0               6       0                               0D     76
     126     117                                                00010000D     77
     126       0               3       0                               0D     78
     126     120                                                00010000D     79
     126       0               2       0                               0D     80
     126     122                                                00010000D     81
     126       0               2       0                               0D     82
     126     124                                                00010000D     83
     126       0               2       0                               0D     84
     126     126                                                00010000D     85
     126       0               2       0                               0D     86
     126     128                                                00010000D     87
     126       0               6       0                               0D     88
     126     134                                                00010000D     89
     126       0               4       0                               0D     90
     126     138                                                00010000D     91
     126       0               4       0                               0D     92
     126     142                                                00010000D     93
     126       0              16       0                               0D     94
     126     158                                                00010000D     95
     126       0              15       0                               0D     96
     126     173                                                00010000D     97
     126       0               5       0                               0D     98
     126     178                                                00010000D     99
     126       0               4       0                               0D    100
     126     182                                                00010000D    101
     126       0               2       0                               0D    102
     126     184                                                00010000D    103
     126       0               4       0                               0D    104
     126     188                                                00010000D    105
     126       0               2       0                               0D    106
     126     190                                                00010000D    107
     126       0               3       0                               0D    108
     126     193                                                00010000D    109
     126       0               3       0                               0D    110
     126     196                                                00010000D    111
     126       0               2       0                               0D    112
     126     198                                                00010000D    113
     126       0               5       0                               0D    114
     126     203                                                00010000D    115
     126       0               2       0                               0D    116
     126     205                                                00010000D    117
     126       0               8       0                               0D    118
     126     213                                                00010000D    119
     126       0               2       0                               0D    120
     126     215                                                00010000D    121
     126       0               5       0                               0D    122
     126     220                                                00010000D    123
     126       0               2       0                               0D    124
     126     222                                                00010000D    125
     126       0               2       0                               0D    126
     126     224                                                00010000D    127
     126       0               2       0                               0D    128
     126     226                                                00010000D    129
     126       0               8       0                               0D    130
     126     234                                                00010000D    131
     126       0               2       0                               0D    132
     128     236                                                00010000D    133
     128       0    -167      77       0                               0D    134
     128     313                                                00010000D    135
     128       0    -167       5       0                               0D    136
     128     318                                                00010000D    137
     128       0    -167      47       0                               0D    138
     128     365                                                00010000D    139
     128       0    -167      46       0                               0D    140
     128     411                                                00010000D    141
     128       0    -167       9       0                               0D    142
     128     420                                                00010000D    143
     128       0    -167       7       0                               0D    144
     128     427                                                00010000D    145
     128       0    -167       6       0                               0D    146
     128     433                                                00010000D    147
     128       0    -167       4       0                               0D    148
     128     437                                                00010000D    149
     128       0    -167       4       0                               0D    150
     128     441                                                00010000D    151
     128       0    -167       7       0                               0D    152
     128     448                                                00010000D    153
     128       0    -167       4       0                               0D    154
     128     452                                                00010000D    155
     128       0    -167      12       0                               0D    156
     128     464                                                00010000D    157
     128       0    -167       3       0                               0D    158
     128     467                                                00010000D    159
     128       0    -167       4       0                               0D    160
     502     471                                                00010000D    161
     502                      10       1                               0D    162
     504     481                                                00010001D    163
     504                      10       1                               0D    164
     406     491                                                00000000D    165
     406                       1      15                               0D    166
     314     492                                                00000200D    167
     314                       2       0                               0D    168
186,3,1,0,0,1,165;                                                     1P      1
514,14,5,1,7,1,9,1,11,1,13,1,15,1,17,1,19,1,21,1,23,1,25,1,27,1,       3P      2
29,1,31,1;                                                             3P      3
510,133,1,1,33;                                                        5P      4
510,135,1,1,35;                                                        7P      5
510,137,1,1,37;                                                        9P      6
510,139,1,1,39;                                                       11P      7
510,141,1,1,41;                                                       13P      8
510,143,1,1,43;                                                       15P      9
510,145,1,1,45;                                                       17P     10
510,147,1,1,47;                                                       19P     11
510,149,2,1,49,51;                                                    21P     12
510,151,1,1,53;                                                       23P     13
510,153,1,1,55;                                                       25P     14
510,155,1,1,57;                                                       27P     15
510,157,1,1,59;                                                       29P     16
510,159,2,1,61,63;                                                    31P     17
508,4,0,163,1,1,0,0,163,2,1,0,0,163,3,1,0,0,163,4,1,0;                33P     18
508,12,0,163,3,0,0,0,163,5,0,0,0,163,6,0,0,0,163,7,0,0,0,163,8,       35P     19
1,0,0,163,9,0,0,0,163,10,0,0,0,163,11,0,0,0,163,12,0,0,0,163,13,      35P     20
1,0,0,163,1,0,0,0,163,14,1,0;                                         35P     21
508,4,0,163,2,0,0,0,163,13,0,0,0,163,15,0,0,0,163,5,1,0;              37P     22
508,4,0,163,12,1,0,0,163,16,1,0,0,163,6,1,0,0,163,15,1,0;             39P     23
508,4,0,163,16,0,0,0,163,11,1,0,0,163,17,1,0,0,163,7,1,0;             41P     24
508,2,0,163,4,0,0,0,163,14,0,0;                                       43P     25
508,4,0,163,18,1,0,0,163,19,1,0,0,163,20,1,0,0,163,21,1,0;            45P     26
508,4,0,163,19,0,0,0,163,22,0,0,0,163,8,0,0,0,163,23,1,0;             47P     27
508,6,0,163,18,0,0,0,163,24,1,0,0,163,25,0,0,0,163,26,1,0,0,163,      49P     28
9,1,0,0,163,22,1,0;                                                   49P     29
508,1,0,163,27,1,0;                                                   51P     30
508,4,0,163,25,1,0,0,163,28,1,0,0,163,29,1,0,0,163,30,1,0;            53P     31
508,4,0,163,30,0,0,0,163,31,1,0,0,163,10,1,0,0,163,26,0,0;            55P     32
508,4,0,163,27,0,0,0,163,32,1,0,0,163,33,0,0,0,163,32,0,0;            57P     33
508,4,0,163,21,0,0,0,163,34,1,0,0,163,28,0,0,0,163,24,0,0;            59P     34
508,6,0,163,20,0,0,0,163,23,0,0,0,163,17,0,0,0,163,31,0,0,0,163,      61P     35
29,0,0,0,163,34,0,0;                                                  61P     36
508,1,0,163,33,1,0;                                                   63P     37
126,12,3,0,0,1,0,0.,0.,0.,0.,0.0968570822414248,                      65P     38
0.0968570822414248,0.0968570822414248,0.19371416448285,               65P     39
0.19371416448285,0.19371416448285,0.266356976163918,                  65P     40
0.266356976163918,0.266356976163918,0.338999787844987,                65P     41
0.338999787844987,0.338999787844987,0.338999787844987,1.,1.,1.,       65P     42
1.,1.,1.,1.,1.,1.,1.,1.,1.,1.,-0.0991438207036355,39.,                65P     43
5.55111512312578D-16,-0.421050284755289,39.,                          65P     44
5.55111512312578D-16,-0.742656722745893,38.8925825709872,             65P     45
5.49690501450151D-16,-0.999743375542235,38.6995333679655,             65P     46
5.38848479725296D-16,-1.25683002833858,38.5064841649438,0.,           65P     47
-1.44939689594066,38.2278031879133,-5.78241158658936D-18,             65P     48
-1.53954575036312,37.9190383221638,-1.30104260698261D-17,             65P     49
-1.60715739117997,37.6874646728516,-1.15648231731787D-17,             65P     50
-1.61715889958328,37.4389688361349,-2.31296463463574D-17,             65P     51
-1.56921515531357,37.202398237166,-3.28479376945218D-17,              65P     52
-1.52127141104386,36.9658276381972,-1.44560289664734D-17,             65P     53
-1.41538241410113,36.7411822769762,-2.60208521396521D-17,             65P     54
-1.26309499636735,36.5538405733329,-3.36102673470506D-17,0.,          65P     55
0.338999787844987,0.,0.,0.;                                           65P     56
126,9,3,0,0,1,0,-3.17258956503686,-3.17258956503686,                  67P     57
-3.17258956503686,-3.17258956503686,-2.71936248431731,                67P     58
-2.26613540359776,-1.81290832287821,-1.35968124215865,                67P     59
-0.906454161439103,-0.453227080719551,1.01416167220809D-16,           67P     60
1.01416167220809D-16,1.01416167220809D-16,1.01416167220809D-16,       67P     61
1.,1.,1.,1.,1.,1.,1.,1.,1.,1.,-1.26309499636735,                      67P     62
36.5538405733329,-1.00591822259716D-14,-1.26309499636735,             67P     63
36.5538405733329,1.68487538900145,-0.494126482954494,                 67P     64
36.5538405715504,5.05329781123746,2.73672288689503,                   67P     65
36.5538405640611,9.1082846039986,7.40835290901579,                    67P     66
36.553840553232,11.3550554456348,12.5920611038815,                    67P     67
36.5538405412158,11.3575861192495,17.2629092005783,                   67P     68
36.5538405303885,9.10696987263338,20.4940411736,                      67P     69
36.5538405228986,5.05359032762253,21.263095069691,                    67P     70
36.5538405211159,1.68487538265178,21.263095069691,                    67P     71
36.5538405211159,1.45916535940475D-15,-3.17258956503686,              67P     72
1.01416167220809D-16,0.,0.,0.;                                        67P     73
126,12,3,0,0,1,0,0.,0.,0.,0.,0.0726428131339115,                      69P     74
0.0726428131339115,0.0726428131339115,0.145285626267823,              69P     75
0.145285626267823,0.145285626267823,0.242142710446372,                69P     76
0.242142710446372,0.242142710446372,0.33899979462492,                 69P     77
0.33899979462492,0.33899979462492,0.33899979462492,1.,1.,1.,1.,       69P     78
1.,1.,1.,1.,1.,1.,1.,1.,1.,21.263095069691,36.5538405211159,          69P     79
2.59021165488618D-15,21.4153824988612,36.7411822216571,               69P     80
2.60839228461333D-15,21.5212715070216,36.9658275833583,               69P     81
2.61301426767526D-15,21.5692152605881,37.2023981853432,               69P     82
2.60373065423672D-15,21.6171590141546,37.438968787328,                69P     83
2.59444704079818D-15,21.6071575131272,37.6874646295965,               69P     84
2.57125783085916D-15,21.5395458768932,37.9190382852345,               69P     85
2.53665421088298D-15,21.4493970285811,38.2278031594187,               69P     86
2.49051605091474D-15,21.256830162124,38.5064841462599,                69P     87
2.424085606436D-15,20.9997435067123,38.6995333564052,                 69P     88
2.35047596488177D-15,20.7426568513006,38.8925825665505,               69P     89
2.27686632332754D-15,20.4210504069343,39.,2.19607748469783D-15,       69P     90
20.0991439364738,39.,2.12438469683325D-15,0.,0.33899979462492,        69P     91
0.,0.,0.;                                                             69P     92
126,9,3,0,0,1,0,-1.01416167220809D-16,-1.01416167220809D-16,          71P     93
-1.01416167220809D-16,-1.01416167220809D-16,0.453227080719551,        71P     94
0.906454161439103,1.35968124215865,1.81290832287821,                  71P     95
2.26613540359776,2.71936248431731,3.17258956503686,                   71P     96
3.17258956503686,3.17258956503686,3.17258956503686,1.,1.,1.,1.,       71P     97
1.,1.,1.,1.,1.,1.,20.0991439364738,39.,1.11022302462516D-15,          71P     98
20.0991439364738,39.,1.51075693573184,19.4095656318431,39.,           71P     99
4.53134203060267,16.5123454011525,39.,8.16583708933395,               71P    100
12.3241922417647,39.,10.1838700684544,7.67617899756238,39.,           71P    101
10.1816009103542,3.48732473329718,39.,8.16701593241862,               71P    102
0.590357919411667,39.,4.53107972645436,-0.0991438207036368,39.,       71P    103
1.51075693573183,-0.0991438207036355,39.,-8.88178419700125D-15,       71P    104
-1.01416167220809D-16,3.17258956503686,0.,0.,0.;                      71P    105
126,1,1,0,0,1,0,0.103350562996382,0.103350562996382,                  73P    106
0.388460130278969,0.388460130278969,1.,1.,20.3360488667827,           73P    107
35.4134022519855,1.2658009141676D-15,21.263095069691,                 73P    108
36.5538405211159,1.37933132547007D-15,0.103350562996382,              73P    109
0.388460130278969,0.,0.,0.;                                           73P    110
126,3,3,0,0,1,0,0.,0.,0.,0.,0.102630125446221,0.102630125446221,      75P    111
0.102630125446221,0.102630125446221,1.,1.,1.,1.,20.,                  75P    112
34.4672427731014,-3.50630982581812D-15,20.,34.8085172563157,          75P    113
-3.42897007084749D-15,20.1207821419864,35.1485843710019,              75P    114
-3.36536354339501D-15,20.3360488667827,35.4134022519855,              75P    115
-3.33066907387547D-15,0.,0.102630125446221,0.,0.,0.;                  75P    116
126,1,1,0,0,1,0,0.,0.,3.44672427731014,3.44672427731014,1.,1.,        77P    117
20.,0.,1.22464679914735D-15,20.,34.4672427731014,                     77P    118
1.22464679914735D-15,0.,3.44672427731014,0.,0.,0.;                    77P    119
126,1,1,0,0,1,0,0.,0.,0.4,0.4,1.,1.,20.,0.,1.22464679914735D-15,      79P    120
20.,-4.,1.22464679914735D-15,0.,0.4,0.,0.,0.;                         79P    121
126,1,1,0,0,1,0,0.,0.,2.,2.,1.,1.,0.,-4.,0.,20.,-4.,0.,0.,2.,0.,      81P    122
0.,0.;                                                                81P    123
126,1,1,0,0,1,0,0.,0.,0.4,0.4,1.,1.,0.,0.,0.,0.,-4.,0.,0.,0.4,        83P    124
0.,0.,0.;                                                             83P    125
126,1,1,0,0,1,0,-3.44672428109922,-3.44672428109922,0.,0.,1.,1.,      85P    126
0.,34.4672428109922,0.,0.,0.,0.,-3.44672428109922,0.,0.,0.,0.;        85P    127
126,3,3,0,0,1,0,0.,0.,0.,0.,0.102630118668173,0.102630118668173,      87P    128
0.102630118668173,0.102630118668173,1.,1.,1.,1.,                      87P    129
-0.336048824336283,35.4134022376593,0.,-0.12078212556902,             87P    130
35.1485843644241,0.,2.77555756156289D-16,34.8085172717755,0.,         87P    131
2.77555756156289D-16,34.4672428109922,0.,0.,0.102630118668173,        87P    132
0.,0.,0.;                                                             87P    133
126,1,1,0,0,1,0,0.103350559414824,0.103350559414824,                  89P    134
0.388460143333218,0.388460143333218,1.,1.,-0.336048824336282,         89P    135
35.4134022376593,0.,-1.26309499636735,36.5538405733329,0.,            89P    136
0.103350559414824,0.388460143333218,0.,0.,0.;                         89P    137
126,1,1,0,0,1,0,0.315239953076931,0.315239953076931,                  91P    138
2.33506872879467,2.33506872879467,1.,1.,-0.0991438207036355,39.,      91P    139
1.93028799749513D-16,20.0991439364738,39.,1.42981722225374D-15,       91P    140
0.315239953076931,2.33506872879467,0.,0.,0.;                          91P    141
126,9,3,0,0,1,0,-3.61266068060241,-3.61266068060241,                  93P    142
-3.61266068060241,-3.61266068060241,-3.0965662976592,                 93P    143
-2.580471914716,-2.0643775317728,-1.5482831488296,                    93P    144
-1.0321887658864,-0.5160943829432,4.44089209850063D-16,               93P    145
4.44089209850063D-16,4.44089209850063D-16,4.44089209850063D-16,       93P    146
1.,1.,1.,1.,1.,1.,1.,1.,1.,1.,20.3360488667827,35.4134022519855,      93P    147
-3.32432685321441D-15,20.3360488667827,35.4134022519855,              93P    148
1.54619616265755,19.6304079336058,35.4134022514965,                   93P    149
4.63735069016494,16.6654183561927,35.4134022494417,                   93P    150
8.35860255625623,12.3784433811576,35.4134022464707,                   93P    151
10.4203435043659,7.62120544156579,35.4134022431738,                   93P    152
10.4228025041602,3.33580547264646,35.413402240204,                    93P    153
8.35644511277565,0.368625137953349,35.4134022381476,                  93P    154
4.63872245266474,-0.336048824336283,35.4134022376593,                 93P    155
1.54619615677423,-0.336048824336283,35.4134022376593,0.,              93P    156
-3.61266068060241,4.44089209850063D-16,0.,0.,0.;                      93P    157
126,9,3,0,0,1,0,-4.44089209850063D-16,-4.44089209850063D-16,          95P    158
-4.44089209850063D-16,-4.44089209850063D-16,0.5160943829432,          95P    159
1.0321887658864,1.5482831488296,2.0643775317728,2.580471914716,       95P    160
3.0965662976592,3.61266068060241,3.61266068060241,                    95P    161
3.61266068060241,3.61266068060241,1.,1.,1.,1.,1.,1.,1.,1.,1.,1.,      95P    162
2.77555756156289D-16,34.4672428109922,0.,2.77555756156289D-16,        95P    163
34.4672428109922,1.49592574766145,0.681763385251886,                  95P    164
34.4672428097005,4.48790686923411,3.55247383616268,                   95P    165
34.4672428042619,8.084757772141,7.69854555138748,                     95P    166
34.467242796407,10.0839331013084,12.3011146865035,                    95P    167
34.4672427876872,10.0815540398363,16.4487101859779,                   95P    168
34.4672427798295,8.08684505090614,19.3173010877718,                   95P    169
34.4672427743948,4.48657968888314,20.,34.4672427731014,               95P    170
1.49592574766145,20.,34.4672427731014,-3.514985069431D-15,            95P    171
-4.44089209850063D-16,3.61266068060241,0.,0.,0.;                      95P    172
126,4,2,0,0,0,0,0.,0.,0.,1.5707963267949,1.5707963267949,             97P    173
3.14159265358979,3.14159265358979,3.14159265358979,1.,                97P    174
0.707106781186548,1.,0.707106781186548,1.,0.,0.,0.,0.,0.,10.,         97P    175
10.,0.,10.,20.,0.,10.,20.,0.,1.22464679914735D-15,0.,                 97P    176
3.14159265358979,0.,0.,0.;                                            97P    177
126,2,2,0,0,0,0,-0.785398163397448,-0.785398163397448,                99P    178
-0.785398163397448,0.785398163397448,0.785398163397448,               99P    179
0.785398163397448,1.,0.707106781186546,1.,13.,-4.,30.,20.,-4.,        99P    180
30.,20.,-4.,23.,-0.785398163397448,0.785398163397448,0.,0.,0.;        99P    181
126,1,1,0,0,1,0,-0.4,-0.4,0.,0.,1.,1.,20.,-4.,23.,20.,0.,23.,        101P    182
-0.4,0.,0.,0.,0.;                                                    101P    183
126,2,2,0,0,0,0,-0.785398163397448,-0.785398163397448,               103P    184
-0.785398163397448,0.785398163397448,0.785398163397448,              103P    185
0.785398163397448,1.,0.707106781186546,1.,20.,0.,23.,20.,0.,30.,     103P    186
13.,0.,30.,-0.785398163397448,0.785398163397448,0.,0.,0.;            103P    187
126,1,1,0,0,1,0,0.,0.,0.4,0.4,1.,1.,13.,0.,30.,13.,-4.,30.,0.,       105P    188
0.4,0.,0.,0.;                                                        105P    189
126,1,1,0,0,1,0,1.22464679914735D-16,1.22464679914735D-16,2.3,       107P    190
2.3,1.,1.,20.,-4.,1.22464679914735D-15,20.,-4.,23.,                  107P    191
1.22464679914735D-16,2.3,0.,0.,0.;                                   107P    192
126,1,1,0,0,1,0,1.22464679914735D-16,1.22464679914735D-16,2.3,       109P    193
2.3,1.,1.,20.,0.,1.22464679914735D-15,20.,0.,23.,                    109P    194
1.22464679914735D-16,2.3,0.,0.,0.;                                   109P    195
126,1,1,0,0,1,0,0.7,0.7,1.3,1.3,1.,1.,13.,-4.,30.,7.,-4.,30.,        111P    196
0.7,1.3,0.,0.,0.;                                                    111P    197
126,2,2,0,0,0,0,-0.785398163397448,-0.785398163397448,               113P    198
-0.785398163397448,0.785398163397448,0.785398163397448,              113P    199
0.785398163397448,1.,0.707106781186547,1.,1.11022302462516D-15,      113P    200
-4.,23.,1.11022302462516D-15,-4.,30.,7.,-4.,30.,                     113P    201
-0.785398163397448,0.785398163397448,0.,0.,0.;                       113P    202
126,1,1,0,0,1,0,0.7,0.7,3.,3.,1.,1.,0.,-4.,23.,0.,-4.,0.,0.7,3.,     115P    203
0.,0.,0.;                                                            115P    204
126,8,2,0,1,0,0,-3.14159265358979,-3.14159265358979,                 117P    205
-3.14159265358979,-1.5707963267949,-1.5707963267949,0.,0.,           117P    206
1.5707963267949,1.5707963267949,3.14159265358979,                    117P    207
3.14159265358979,3.14159265358979,1.,0.707106781186545,1.,           117P    208
0.707106781186545,1.,0.707106781186545,1.,0.707106781186545,1.,      117P    209
8.75,-4.,22.,8.75,-4.,23.25,10.,-4.,23.25,11.25,-4.,23.25,11.25,     117P    210
-4.,22.,11.25,-4.,20.75,10.,-4.,20.75,8.75,-4.,20.75,8.75,-4.,       117P    211
22.,-3.14159265358979,3.14159265358979,0.,0.,0.;                     117P    212
126,1,1,0,0,1,0,-0.4,-0.4,0.,0.,1.,1.,7.,-4.,30.,7.,0.,30.,-0.4,     119P    213
0.,0.,0.,0.;                                                         119P    214
126,2,2,0,0,0,0,-0.785398163397448,-0.785398163397448,               121P    215
-0.785398163397448,0.785398163397448,0.785398163397448,              121P    216
0.785398163397448,1.,0.707106781186547,1.,7.,0.,30.,                 121P    217
1.11022302462516D-15,0.,30.,1.11022302462516D-15,0.,23.,             121P    218
-0.785398163397448,0.785398163397448,0.,0.,0.;                       121P    219
126,1,1,0,0,1,0,0.,0.,0.4,0.4,1.,1.,0.,0.,23.,0.,-4.,23.,0.,0.4,     123P    220
0.,0.,0.;                                                            123P    221
126,1,1,0,0,1,0,0.7,0.7,3.,3.,1.,1.,0.,0.,23.,0.,0.,0.,0.7,3.,       125P    222
0.,0.,0.;                                                            125P    223
126,1,1,0,0,1,0,-3.2,-3.2,0.,0.,1.,1.,8.75,-4.,22.,8.75,0.,22.,      127P    224
-3.2,0.,0.,0.,0.;                                                    127P    225
126,8,2,0,1,0,0,-3.14159265358979,-3.14159265358979,                 129P    226
-3.14159265358979,-1.5707963267949,-1.5707963267949,0.,0.,           129P    227
1.5707963267949,1.5707963267949,3.14159265358979,                    129P    228
3.14159265358979,3.14159265358979,1.,0.707106781186545,1.,           129P    229
0.707106781186545,1.,0.707106781186545,1.,0.707106781186545,1.,      129P    230
8.75,0.,22.,8.75,0.,20.75,10.,0.,20.75,11.25,0.,20.75,11.25,0.,      129P    231
22.,11.25,0.,23.25,10.,0.,23.25,8.75,0.,23.25,8.75,0.,22.,           129P    232
-3.14159265358979,3.14159265358979,0.,0.,0.;                         129P    233
126,1,1,0,0,1,0,0.7,0.7,1.3,1.3,1.,1.,13.,0.,30.,7.,0.,30.,0.7,      131P    234
1.3,0.,0.,0.;                                                        131P    235
128,6,9,3,3,0,0,1,0,0,0.,0.,0.,0.,0.214285714285714,                 133P    236
0.428571428571429,0.714285714285714,1.,1.,1.,1.,                     133P    237
-1.01416167220809D-16,-1.01416167220809D-16,                         133P    238
-1.01416167220809D-16,-1.01416167220809D-16,0.453227080719551,       133P    239
0.906454161439103,1.35968124215865,1.81290832287821,                 133P    240
2.26613540359776,2.71936248431731,3.17258956503686,                  133P    241
3.17258956503686,3.17258956503686,3.17258956503686,1.,1.,1.,1.,      133P    242
1.,1.,1.,1.,1.,1.,1.,1.,1.,1.,1.,1.,1.,1.,1.,1.,1.,1.,1.,1.,1.,      133P    243
1.,1.,1.,1.,1.,1.,1.,1.,1.,1.,1.,1.,1.,1.,1.,1.,1.,1.,1.,1.,1.,      133P    244
1.,1.,1.,1.,1.,1.,1.,1.,1.,1.,1.,1.,1.,1.,1.,1.,1.,1.,1.,1.,1.,      133P    245
1.,1.,1.,21.263095069691,36.5538405211159,1.45916535940475D-15,      133P    246
21.4153824988612,36.7411822216571,1.46200787276088D-15,              133P    247
21.6271605151821,37.1904729450595,1.45003342696206D-15,              133P    248
21.5938221784239,38.0187924192878,1.37605960233764D-15,              133P    249
21.0642632956669,38.7851651331011,1.2465431649665D-15,               133P    250
20.4210504069343,39.,1.14964519749258D-15,20.0991439364738,39.,      133P    251
1.11022302462516D-15,21.263095069691,36.5538405211159,               133P    252
1.68487538265178,21.4153824988612,36.7411822216571,                  133P    253
1.70772397407816,21.6271605151821,37.1904729450595,                  133P    254
1.73933221155732,21.5938221784239,38.0187924192878,                  133P    255
1.73438126140606,21.0642632956669,38.7851651331011,                  133P    256
1.65518003867555,20.4210504069343,39.,1.55882920740538,              133P    257
20.0991439364738,39.,1.51075693573184,20.4940411736,                 133P    258
36.5538405228986,5.05359032762253,20.6360107892012,                  133P    259
36.7411822235447,5.12189872911043,20.8332423592874,                  133P    260
37.190472946914,5.21694274306972,20.8022235727625,                   133P    261
38.0187924205139,5.20197315000172,20.3088435241361,                  133P    262
38.7851651334049,4.96436242948391,19.7093936327511,                  133P    263
39.0000000000089,4.67580230623851,19.4095656318431,39.,              133P    264
4.53134203060267,17.2629092005783,36.5538405303885,                  133P    265
9.10696987263338,17.3611260002355,36.7411822314804,                  133P    266
9.23018300983655,17.4976725666543,37.1904729547122,                  133P    267
9.40133585149736,17.4761829790787,38.0187924256549,                  133P    268
9.37442167123412,17.1347054129728,38.7851651346769,                  133P    269
8.94625729259641,16.7199049577811,39.0000000000017,                  133P    270
8.42602414409035,16.5123454011525,39.,8.16583708933395,              133P    271
12.5920611038815,36.5538405412158,11.3575861192495,                  133P    272
12.6271425127292,36.7411822429507,11.5112368129459,                  133P    273
12.6758438575373,37.1904729659833,11.7246999481749,                  133P    274
12.6681898786993,38.0187924330895,11.6911278589964,                  133P    275
12.5463270720406,38.7851651365171,11.1571476528069,                  133P    276
12.3982330071345,39.0000000000038,10.5083724310472,                  133P    277
12.3241922417647,39.,10.1838700684544,7.40835290901579,              133P    278
36.553840553232,11.3550554456348,7.37329602366227,                   133P    279
36.7411822556814,11.5086334293409,7.32458222769,                     133P    280
37.1904729784931,11.7220901204255,7.33224513319684,                  133P    281
38.0187924413386,11.6885048708511,7.45409320394126,                  133P    282
38.7851651385584,11.1546340422017,7.6021269229088,                   133P    283
38.9999999999983,10.5060779964666,7.67617899756238,39.,              133P    284
10.1816009103542,2.73672288689503,36.5538405640611,                  133P    285
9.1082846039986,2.6384683910259,36.7411822671542,                    133P    286
9.23152300465281,2.50194989560517,37.1904729897669,                  133P    287
9.40269254321042,2.5234230290121,38.0187924487731,                   133P    288
9.37577847719245,2.86490973096959,38.7851651403982,                  133P    289
8.94755415344297,3.27979466659611,38.9999999999946,                  133P    290
8.42723139769438,3.48732473329718,39.,8.16701593241862,              133P    291
-0.494126482954494,36.5538405715504,5.05329781123746,                133P    292
-0.63607189500082,36.7411822750885,5.121605495855,                   133P    293
-0.833332148517487,37.1904729975635,5.21664053193769,                133P    294
-0.802299492012992,38.0187924539152,5.20167353355589,                133P    295
-0.308909098887773,38.7851651416708,4.96407737543118,                133P    296
0.290496495440025,38.9999999999939,4.6755276731233,                  133P    297
0.590357919411667,39.,4.53107972645436,-1.26309499636735,            133P    298
36.5538405733329,1.68487538900145,-1.41538241410113,                 133P    299
36.7411822769762,1.70772397871232,-1.6271604079866,                  133P    300
37.1904729994182,1.73933221284107,-1.59382204664222,                 133P    301
38.0187924551405,1.73438125900851,-1.0642631607365,                  133P    302
38.7851651419743,1.65518003580484,-0.42105028475529,39.,             133P    303
1.55882920645414,-0.0991438207036368,39.,1.51075693573183,           133P    304
-1.26309499636735,36.5538405733329,-1.00591822259716D-14,            133P    305
-1.41538241410113,36.7411822769762,-1.01834427351014D-14,            133P    306
-1.6271604079866,37.1904729994182,-1.03451637811325D-14,             133P    307
-1.59382204664222,38.0187924551405,-1.02669269001188D-14,            133P    308
-1.0642631607365,38.7851651419743,-9.75159424092098D-15,             133P    309
-0.421050284755289,39.,-9.16769457153391D-15,                        133P    310
-0.0991438207036355,39.,-8.88178419700125D-15,0.,1.,                 133P    311
-1.01416167220809D-16,3.17258956503686;                              133P    312
128,1,1,1,1,0,0,1,0,0,-0.162097389842922,-0.162097389842922,         135P    313
2.16113026534106,2.16113026534106,-0.401,-0.401,3.901,3.901,1.,      135P    314
1.,1.,1.,21.6209738984292,-4.01,0.,-1.61130265341061,-4.01,0.,       135P    315
21.6209738984292,39.01,0.,-1.61130265341061,39.01,0.,                135P    316
-0.162097389842922,2.16113026534106,-0.401,3.901;                    135P    317
128,9,3,3,3,0,0,1,0,0,0.,0.,0.,0.,0.142857142857143,                 137P    318
0.285714285714286,0.428571428571429,0.571428571428571,               137P    319
0.714285714285714,0.857142857142857,1.,1.,1.,1.,                     137P    320
0.103350559396637,0.103350559396637,0.103350559396637,               137P    321
0.103350559396637,0.388460143333219,0.388460143333219,               137P    322
0.388460143333219,0.388460143333219,1.,1.,1.,1.,1.,1.,1.,1.,1.,      137P    323
1.,1.,1.,1.,1.,1.,1.,1.,1.,1.,1.,1.,1.,1.,1.,1.,1.,1.,1.,1.,1.,      137P    324
1.,1.,1.,1.,1.,1.,1.,1.,1.,1.,-0.336048824277144,                    137P    325
35.4134022375866,0.,-0.336048824277144,35.4134022375866,             137P    326
1.54626929056554,0.368743436281081,35.4134022375865,                 137P    327
4.63873553927878,3.33610417572805,35.4134022375865,                  137P    328
8.35640307104487,7.62129688032163,35.4134022375866,                  137P    329
10.4228749407481,12.3784576117466,35.4134022375865,                  137P    330
10.4202478147211,16.6655449219651,35.4134022375866,                  137P    331
8.35868627272474,19.6302371212797,35.4134022375866,                  137P    332
4.63735556315856,20.336048855078,35.4134022375866,                   137P    333
1.54626929056554,20.336048855078,35.4134022375866,                   137P    334
1.26580091273419D-15,-0.645064214973881,35.793548349502,0.,          137P    335
-0.645112172927643,35.793548349502,1.59249539823396,                 137P    336
0.080827961519079,35.793548349502,4.777391244326,                    137P    337
3.13683854254503,35.793548349502,8.60626550802165,                   137P    338
7.55019054402629,35.793548349502,10.73444393229,                     137P    339
12.4495640732768,35.793548349502,10.731818802582,16.86481391487,     137P    340
35.793548349502,8.60854470582604,19.9181505973115,                   137P    341
35.793548349502,4.77602003948102,20.6451140203427,                   137P    342
35.793548349502,1.59249033823761,20.6450642740978,                   137P    343
35.793548349502,1.30364438537888D-15,-0.954079605670617,             137P    344
36.1736944614174,0.,-0.954031647716856,36.1736944614174,             137P    345
1.63872897228981,-0.207174034470254,36.1736944614174,                137P    346
4.91613071487315,2.93768116896857,36.1736944614174,                  137P    347
8.85603127160609,7.47905599544443,36.1736944614174,                  137P    348
11.0461396471388,12.5206764338469,36.1736944614174,                  137P    349
11.043274896336,17.0641125597378,36.1736944614174,                   137P    350
8.85852325884418,20.2060652385843,36.1736944614174,                  137P    351
4.91461819661917,20.9540299468728,36.1736944614174,                  137P    352
1.63873403228617,20.9540796931177,36.1736944614174,                  137P    353
1.34148785802357D-15,-1.26309499636735,36.5538405733329,0.,          137P    354
-1.26309499636735,36.5538405733329,1.68495507995824,                 137P    355
-0.495089509232256,36.5538405733329,5.05478641992036,                137P    356
2.73841553578555,36.5538405733329,9.10589370858287,                  137P    357
7.40794965914909,36.5538405733329,11.3577086386807,                  137P    358
12.5917828953771,36.5538405733329,11.3548458841968,                  137P    359
17.2633815526428,36.5538405733329,9.10838169194549,                  137P    360
20.4939787146162,36.5538405733329,5.05328267294163,                  137P    361
21.2630951121375,36.5538405733329,1.68495507995824,                  137P    362
21.2630951121375,36.5538405733329,1.37933133066826D-15,0.,1.,        137P    363
0.103350559396637,0.388460143333219;                                 137P    364
128,3,9,3,3,0,0,1,0,0,0.,0.,0.,0.,1.,1.,1.,1.,                       139P    365
-4.44089209850063D-16,-4.44089209850063D-16,                         139P    366
-4.44089209850063D-16,-4.44089209850063D-16,0.5160943829432,         139P    367
1.0321887658864,1.5482831488296,2.0643775317728,2.580471914716,      139P    368
3.0965662976592,3.61266068060241,3.61266068060241,                   139P    369
3.61266068060241,3.61266068060241,1.,1.,1.,1.,1.,1.,1.,1.,1.,1.,     139P    370
1.,1.,1.,1.,1.,1.,1.,1.,1.,1.,1.,1.,1.,1.,1.,1.,1.,1.,1.,1.,1.,      139P    371
1.,1.,1.,1.,1.,1.,1.,1.,1.,-0.336048824336283,35.4134022376593,      139P    372
0.,-0.12078212556902,35.1485843644241,0.,2.77555756156289D-16,       139P    373
34.8085172717755,0.,2.77555756156289D-16,34.4672428109922,0.,        139P    374
-0.336048824336283,35.4134022376593,1.54619615677423,                139P    375
-0.12078212556902,35.1485843644241,1.51386080464251,                 139P    376
2.77555756156289D-16,34.8085172717755,1.49578749599405,              139P    377
2.77555756156289D-16,34.4672428109922,1.49592574766145,              139P    378
0.368625137953349,35.4134022381476,4.63872245266474,                 139P    379
0.569412458676311,35.148584364635,4.5421563025092,                   139P    380
0.681967788977405,34.8085172712387,4.48795211059087,                 139P    381
0.681763385251886,34.4672428097005,4.48790686923411,                 139P    382
3.33580547264646,35.413402240204,8.35644511277565,                   139P    383
3.47462735737088,35.1485843655906,8.18231132495881,                  139P    384
3.55250304937077,34.8085172690281,8.08465815323187,                  139P    385
3.55247383616268,34.4672428042619,8.084757772141,                    139P    386
7.62120544156579,35.4134022431738,10.4228025041602,                  139P    387
7.67080452720841,35.1485843669523,10.2055550722289,                  139P    388
7.6986041899608,34.8085172658218,10.0837523818873,                   139P    389
7.69854555138748,34.467242796407,10.0839331013084,                   139P    390
12.3784433811576,35.4134022464707,10.4203435043659,                  139P    391
12.3288815260988,35.1485843684716,10.2032464014323,                  139P    392
12.3010871352869,34.8085172622682,10.0814763155901,                  139P    393
12.3011146865035,34.4672427876872,10.0815540398363,                  139P    394
16.6654183561927,35.4134022494417,8.35860255625623,                  139P    395
16.5265056918728,35.1485843698403,8.18435389927266,                  139P    396
16.4486131411206,34.8085172590655,8.08667277596005,                  139P    397
16.4487101859779,34.4672427798295,8.08684505090614,                  139P    398
19.6304079336058,35.4134022514965,4.63735069016494,                  139P    399
19.4297355047702,35.1485843707843,4.54081100544543,                  139P    400
19.3171951633725,34.8085172568485,4.48662275485748,                  139P    401
19.3173010877718,34.4672427743948,4.48657968888314,                  139P    402
20.3360488667827,35.4134022519855,1.54619616265755,                  139P    403
20.1207821419864,35.1485843710019,1.513860806729,20.,                139P    404
34.8085172563157,1.49578749579024,20.,34.4672427731014,              139P    405
1.49592574766145,20.3360488667827,35.4134022519855,                  139P    406
-3.32432685321441D-15,20.1207821419864,35.1485843710019,             139P    407
-3.36284557616189D-15,20.,34.8085172563157,                          139P    408
-3.43137164489237D-15,20.,34.4672427731014,-3.514985069431D-15,      139P    409
0.,1.,-4.44089209850063D-16,3.61266068060241;                        139P    410
128,1,4,1,2,0,0,0,0,0,0.,0.,3.44672428109922,3.44672428109922,       141P    411
0.,0.,0.,1.5707963267949,1.5707963267949,3.14159265358979,           141P    412
3.14159265358979,3.14159265358979,1.,1.,0.707106781186548,           141P    413
0.707106781186548,1.,1.,0.707106781186548,0.707106781186548,1.,      141P    414
1.,0.,34.4672428109922,0.,0.,0.,0.,2.22044604925031D-15,             141P    415
34.4672428109922,10.,2.22044604925031D-15,0.,10.,10.,                141P    416
34.4672428109922,10.,10.,0.,10.,20.,34.4672428109922,10.,20.,0.,     141P    417
10.,20.,34.4672428109922,0.,20.,0.,0.,0.,3.44672428109922,0.,        141P    418
3.14159265358979;                                                    141P    419
128,1,1,1,1,0,0,1,0,0,-0.46574365952082,-0.46574365952082,           143P    420
0.546170730920196,0.546170730920196,-1.01091439697152,               143P    421
-1.01091439697152,1.01091437874622,1.01091437874622,1.,1.,1.,1.,     143P    422
-0.109143820703634,39.,-0.01,-0.109143820703634,39.,                 143P    423
10.1091439044102,20.1091439364738,39.,-0.01,20.1091439364738,        143P    424
39.,10.1091439044102,-0.46574365952082,0.546170730920196,            143P    425
-1.01091439697152,1.01091437874622;                                  143P    426
128,1,2,1,2,0,0,0,0,0,0.,0.,0.571428571428571,0.571428571428571,     145P    427
-0.785398163397448,-0.785398163397448,-0.785398163397448,            145P    428
0.785398163397448,0.785398163397448,0.785398163397448,1.,1.,         145P    429
0.707106781186548,0.707106781186548,1.,1.,20.,-4.,23.,20.,0.,        145P    430
23.,20.,-4.,30.,20.,0.,30.,13.,-4.,30.,13.,0.,30.,0.,                145P    431
0.571428571428571,-0.785398163397448,0.785398163397448;              145P    432
128,1,1,1,1,0,0,1,0,0,-0.00100000000000012,-0.00100000000000012,     147P    433
2.301,2.301,-0.001,-0.001,0.401,0.401,1.,1.,1.,1.,20.,0.01,          147P    434
-0.01,20.,0.01,23.01,20.,-4.01,-0.01,20.,-4.01,23.01,                147P    435
-0.00100000000000012,2.301,-0.001,0.401;                             147P    436
128,1,1,1,1,0,0,1,0,0,-1.001,-1.001,1.001,1.001,-1.501,-1.501,       149P    437
1.501,1.501,1.,1.,1.,1.,20.01,-4.,30.01,-0.0099999999999989,-4.,     149P    438
30.01,20.01,-4.,-0.0099999999999989,-0.0099999999999989,-4.,         149P    439
-0.0099999999999989,-1.001,1.001,-1.501,1.501;                       149P    440
128,1,2,1,2,0,0,0,0,0,0.,0.,0.571428571428572,0.571428571428572,     151P    441
-0.785398163397448,-0.785398163397448,-0.785398163397448,            151P    442
0.785398163397448,0.785398163397448,0.785398163397448,1.,1.,         151P    443
0.707106781186547,0.707106781186547,1.,1.,7.,-4.,30.,7.,0.,30.,      151P    444
1.11022302462516D-15,-4.,30.,1.11022302462516D-15,0.,30.,            151P    445
1.66533453693773D-15,-4.,23.,1.66533453693773D-15,0.,23.,0.,         151P    446
0.571428571428572,-0.785398163397448,0.785398163397448;              151P    447
128,1,1,1,1,0,0,1,0,0,0.699,0.699,3.001,3.001,-0.001,-0.001,         153P    448
0.401,0.401,1.,1.,1.,1.,0.,0.01,23.01,0.,0.01,                       153P    449
-0.0099999999999989,0.,-4.01,23.01,0.,-4.01,-0.0099999999999989,     153P    450
0.699,3.001,-0.001,0.401;                                            153P    451
128,1,8,1,2,0,1,0,0,1,0.,0.,3.2,3.2,-3.14159265358979,               155P    452
-3.14159265358979,-3.14159265358979,-1.5707963267949,                155P    453
-1.5707963267949,0.,0.,1.5707963267949,1.5707963267949,              155P    454
3.14159265358979,3.14159265358979,3.14159265358979,1.,1.,            155P    455
0.707106781186548,0.707106781186548,1.,1.,0.707106781186548,         155P    456
0.707106781186548,1.,1.,0.707106781186548,0.707106781186548,1.,      155P    457
1.,0.707106781186548,0.707106781186548,1.,1.,8.75,0.,22.,8.75,       155P    458
-4.,22.,8.75,0.,20.75,8.75,-4.,20.75,10.,0.,20.75,10.,-4.,20.75,     155P    459
11.25,0.,20.75,11.25,-4.,20.75,11.25,0.,22.,11.25,-4.,22.,11.25,     155P    460
0.,23.25,11.25,-4.,23.25,10.,0.,23.25,10.,-4.,23.25,8.75,0.,         155P    461
23.25,8.75,-4.,23.25,8.75,0.,22.,8.75,-4.,22.,0.,3.2,                155P    462
-3.14159265358979,3.14159265358979;                                  155P    463
128,1,1,1,1,0,0,1,0,0,0.699,0.699,1.301,1.301,-0.001,-0.001,         157P    464
0.401,0.401,1.,1.,1.,1.,13.01,0.01,30.,6.99,0.01,30.,13.01,          157P    465
-4.01,30.,6.99,-4.01,30.,0.699,1.301,-0.001,0.401;                   157P    466
128,1,1,1,1,0,0,1,0,0,-1.001,-1.001,1.001,1.001,-1.501,-1.501,       159P    467
1.501,1.501,1.,1.,1.,1.,-0.0099999999999989,0.,30.01,20.01,0.,       159P    468
30.01,-0.0099999999999989,0.,-0.0099999999999989,20.01,0.,           159P    469
-0.0099999999999989,-1.001,1.001,-1.501,1.501;                       159P    470
502,22,-0.0991438207036355,39.,9.65143998747563D-17,                 161P    471
-1.26309499636735,36.5538405733329,-7.45284767371714D-17,            161P    472
21.263095069691,36.5538405211159,2.19550254221084D-15,               161P    473
20.0991439364738,39.,1.27002012343945D-15,20.3360488667827,          161P    474
35.4134022519855,1.2033516427198D-15,20.,34.4672427731014,0.,        161P    475
20.,0.,1.22464679914735D-15,20.,-4.,0.,0.,-4.,0.,0.,0.,0.,0.,        161P    476
34.4672428109922,0.,-0.336048824336283,35.4134022376593,             161P    477
2.84937352834001D-16,13.,-4.,30.,20.,-4.,23.,20.,0.,23.,13.,0.,      161P    478
30.,7.,-4.,30.,0.,-4.,23.,8.75,-4.,22.,7.,0.,30.,0.,0.,23.,8.75,     161P    479
0.,22.;                                                              161P    480
504,34,65,161,1,161,2,67,161,2,161,3,69,161,3,161,4,71,161,4,        163P    481
161,1,73,161,5,161,3,75,161,6,161,5,77,161,7,161,6,79,161,7,161,     163P    482
8,81,161,9,161,8,83,161,10,161,9,85,161,11,161,10,87,161,12,161,     163P    483
11,89,161,12,161,2,91,161,1,161,4,93,161,5,161,12,95,161,11,161,     163P    484
6,97,161,10,161,7,99,161,13,161,14,101,161,14,161,15,103,161,15,     163P    485
161,16,105,161,16,161,13,107,161,8,161,14,109,161,7,161,15,111,      163P    486
161,13,161,17,113,161,18,161,17,115,161,18,161,9,117,161,19,161,     163P    487
19,119,161,17,161,20,121,161,20,161,21,123,161,21,161,18,125,        163P    488
161,21,161,10,127,161,19,161,22,129,161,22,161,22,131,161,16,        163P    489
161,20;                                                              163P    490
406,1,5HBody1;                                                       165P    491
314,62.7450980392157,62.7450980392157,62.7450980392157,13HSteel      167P    492
- Satin;                                                             167P    493
S      1G      3D    168P    493                                        T      1
