                                                                        S      1
,,9HM3 nut v3,9HM3 nut v3,7Hunknown,7Hunknown,32,38,7,99,15,,1.,2,2HMM, G      1
1,0.08,15H20250912.002820,0.01,10000.,7Hunknown,7Hunknown,11,0,15H202404G      2
19.195542;                                                              G      3
     186       1                                                00000000D      1
     186            -111       1       0                               0D      2
     514       2                                                00010000D      3
     514                       1       1                               0D      4
     510       3                                                00010000D      5
     510            -111       1       1                               0D      6
     510       4                                                00010000D      7
     510            -111       1       1                               0D      8
     510       5                                                00010000D      9
     510            -111       1       1                               0D     10
     510       6                                                00010000D     11
     510            -111       1       1                               0D     12
     510       7                                                00010000D     13
     510            -111       1       1                               0D     14
     510       8                                                00010000D     15
     510            -111       1       1                               0D     16
     510       9                                                00010000D     17
     510            -111       1       1                               0D     18
     510      10                                                00010000D     19
     510            -111       1       1                               0D     20
     510      11                                                00010000D     21
     510            -111       1       1                               0D     22
     508      12                                                00010000D     23
     508                       1       1                               0D     24
     508      13                                                00010000D     25
     508                       1       1                               0D     26
     508      14                                                00010000D     27
     508                       1       1                               0D     28
     508      15                                                00010000D     29
     508                       1       1                               0D     30
     508      16                                                00010000D     31
     508                       1       1                               0D     32
     508      17                                                00010000D     33
     508                       1       1                               0D     34
     508      18                                                00010000D     35
     508                       1       1                               0D     36
     508      19                                                00010000D     37
     508                       2       1                               0D     38
     508      21                                                00010000D     39
     508                       1       1                               0D     40
     508      22                                                00010000D     41
     508                       2       1                               0D     42
     508      24                                                00010000D     43
     508                       1       1                               0D     44
     126      25                                                00010000D     45
     126       0              10       0                               0D     46
     126      35                                                00010000D     47
     126       0               2       0                               0D     48
     126      37                                                00010000D     49
     126       0              10       0                               0D     50
     126      47                                                00010000D     51
     126       0               4       0                               0D     52
     126      51                                                00010000D     53
     126       0               3       0                               0D     54
     126      54                                                00010000D     55
     126       0               4       0                               0D     56
     126      58                                                00010000D     57
     126       0               3       0                               0D     58
     126      61                                                00010000D     59
     126       0               4       0                               0D     60
     126      65                                                00010000D     61
     126       0               4       0                               0D     62
     126      69                                                00010000D     63
     126       0               3       0                               0D     64
     126      72                                                00010000D     65
     126       0               5       0                               0D     66
     126      77                                                00010000D     67
     126       0               4       0                               0D     68
     126      81                                                00010000D     69
     126       0               3       0                               0D     70
     126      84                                                00010000D     71
     126       0               5       0                               0D     72
     126      89                                                00010000D     73
     126       0               4       0                               0D     74
     126      93                                                00010000D     75
     126       0               3       0                               0D     76
     126      96                                                00010000D     77
     126       0               4       0                               0D     78
     126     100                                                00010000D     79
     126       0               4       0                               0D     80
     126     104                                                00010000D     81
     126       0               3       0                               0D     82
     126     107                                                00010000D     83
     126       0               5       0                               0D     84
     126     112                                                00010000D     85
     126       0               4       0                               0D     86
     128     116                                                00010000D     87
     128       0    -111      12       0                               0D     88
     128     128                                                00010000D     89
     128       0    -111       6       0                               0D     90
     128     134                                                00010000D     91
     128       0    -111       6       0                               0D     92
     128     140                                                00010000D     93
     128       0    -111       6       0                               0D     94
     128     146                                                00010000D     95
     128       0    -111       6       0                               0D     96
     128     152                                                00010000D     97
     128       0    -111       6       0                               0D     98
     128     158                                                00010000D     99
     128       0    -111       6       0                               0D    100
     128     164                                                00010000D    101
     128       0    -111       6       0                               0D    102
     128     170                                                00010000D    103
     128       0    -111       6       0                               0D    104
     502     176                                                00010000D    105
     502                      10       1                               0D    106
     504     186                                                00010001D    107
     504                       6       1                               0D    108
     406     192                                                00000000D    109
     406                       1      15                               0D    110
     314     193                                                00000200D    111
     314                       2       0                               0D    112
186,3,1,0,0,1,109;                                                     1P      1
514,9,5,1,7,1,9,1,11,1,13,1,15,1,17,1,19,1,21,1;                       3P      2
510,87,1,1,23;                                                         5P      3
510,89,1,1,25;                                                         7P      4
510,91,1,1,27;                                                         9P      5
510,93,1,1,29;                                                        11P      6
510,95,1,1,31;                                                        13P      7
510,97,1,1,33;                                                        15P      8
510,99,1,1,35;                                                        17P      9
510,101,2,1,37,39;                                                    19P     10
510,103,2,1,41,43;                                                    21P     11
508,4,0,107,1,0,0,0,107,2,1,0,0,107,3,1,0,0,107,2,0,0;                23P     12
508,4,0,107,4,0,0,0,107,5,1,0,0,107,6,0,0,0,107,7,0,0;                25P     13
508,4,0,107,8,0,0,0,107,7,1,0,0,107,9,0,0,0,107,10,0,0;               27P     14
508,4,0,107,11,0,0,0,107,10,1,0,0,107,12,0,0,0,107,13,0,0;            29P     15
508,4,0,107,14,0,0,0,107,13,1,0,0,107,15,0,0,0,107,16,0,0;            31P     16
508,4,0,107,17,0,0,0,107,16,1,0,0,107,18,0,0,0,107,19,0,0;            33P     17
508,4,0,107,20,0,0,0,107,19,1,0,0,107,21,0,0,0,107,5,0,0;             35P     18
508,6,0,107,21,1,0,0,107,18,1,0,0,107,15,1,0,0,107,12,1,0,0,107,      37P     19
9,1,0,0,107,6,1,0;                                                    37P     20
508,1,0,107,1,1,0;                                                    39P     21
508,6,0,107,20,1,0,0,107,4,1,0,0,107,8,1,0,0,107,11,1,0,0,107,        41P     22
14,1,0,0,107,17,1,0;                                                  41P     23
508,1,0,107,3,0,0;                                                    43P     24
126,8,2,0,1,0,0,-3.14159265358979,-3.14159265358979,                  45P     25
-3.14159265358979,-1.5707963267949,-1.5707963267949,0.,0.,            45P     26
1.5707963267949,1.5707963267949,3.14159265358979,                     45P     27
3.14159265358979,3.14159265358979,1.,0.707106781186548,1.,            45P     28
0.707106781186548,1.,0.707106781186548,1.,0.707106781186548,1.,       45P     29
2.4,-1.25,1.53080849893419D-16,2.4,-1.25,1.25,2.4,                    45P     30
7.65404249467096D-17,1.25,2.4,1.25,1.25,2.4,1.25,0.,2.4,1.25,         45P     31
-1.25,2.4,7.65404249467096D-17,-1.25,2.4,-1.25,-1.25,2.4,-1.25,       45P     32
-1.53080849893419D-16,-3.14159265358979,3.14159265358979,0.,0.,       45P     33
0.;                                                                   45P     34
126,1,1,0,0,1,0,-1.92,-1.92,0.16,0.16,1.,1.,2.4,-1.25,0.,-0.2,        47P     35
-1.25,0.,-1.92,0.16,0.,0.,0.;                                         47P     36
126,8,2,0,1,0,0,-3.14159265358979,-3.14159265358979,                  49P     37
-3.14159265358979,-1.5707963267949,-1.5707963267949,0.,0.,            49P     38
1.5707963267949,1.5707963267949,3.14159265358979,                     49P     39
3.14159265358979,3.14159265358979,1.,0.707106781186548,1.,            49P     40
0.707106781186548,1.,0.707106781186548,1.,0.707106781186548,1.,       49P     41
-0.2,-1.25,1.53080849893419D-16,-0.2,-1.25,1.25,-0.2,                 49P     42
7.65404249467096D-17,1.25,-0.2,1.25,1.25,-0.2,1.25,0.,-0.2,1.25,      49P     43
-1.25,-0.2,7.65404249467096D-17,-1.25,-0.2,-1.25,-1.25,-0.2,          49P     44
-1.25,-1.53080849893419D-16,-3.14159265358979,3.14159265358979,       49P     45
0.,0.,0.;                                                             49P     46
126,1,1,0,0,1,0,-0.241043737386519,-0.241043737386519,                51P     47
0.0880459160514266,0.0880459160514266,1.,1.,-0.2,                     51P     48
-3.29089653438084,-3.69149155687865D-14,-0.2,-1.64544826719204,       51P     49
2.84999999999928,-0.241043737386519,0.0880459160514266,0.,0.,0.;      51P     50
126,1,1,0,0,1,0,-0.02,-0.02,0.24,0.24,1.,1.,-0.2,                     53P     51
-3.29089653438084,-3.6498581934552D-14,2.4,-3.29089653438084,         53P     52
-3.6498581934552D-14,-0.02,0.24,0.,0.,0.;                             53P     53
126,1,1,0,0,1,0,-0.0880459160514266,-0.0880459160514266,              55P     54
0.241043737386519,0.241043737386519,1.,1.,2.4,-1.64544826719204,      55P     55
2.84999999999928,2.4,-3.29089653438084,-3.71924713249427D-14,         55P     56
-0.0880459160514266,0.241043737386519,0.,0.,0.;                       55P     57
126,1,1,0,0,1,0,-0.02,-0.02,0.24,0.24,1.,1.,-0.2,                     57P     58
-1.64544826719204,2.84999999999928,2.4,-1.64544826719204,             57P     59
2.84999999999928,-0.02,0.24,0.,0.,0.;                                 57P     60
126,1,1,0,0,1,0,-0.241043737386851,-0.241043737386851,                59P     61
0.088045916051439,0.088045916051439,1.,1.,-0.2,                       59P     62
-1.64544826719204,2.84999999999928,-0.2,1.64544826719085,             59P     63
2.84999999999928,-0.241043737386851,0.088045916051439,0.,0.,0.;       59P     64
126,1,1,0,0,1,0,-0.088045916051439,-0.088045916051439,                61P     65
0.241043737386851,0.241043737386851,1.,1.,2.4,1.64544826719085,       61P     66
2.84999999999928,2.4,-1.64544826719204,2.84999999999928,              61P     67
-0.088045916051439,0.241043737386851,0.,0.,0.;                        61P     68
126,1,1,0,0,1,0,-0.02,-0.02,0.24,0.24,1.,1.,-0.2,                     63P     69
1.64544826719085,2.84999999999928,2.4,1.64544826719085,               63P     70
2.84999999999928,-0.02,0.24,0.,0.,0.;                                 63P     71
126,1,1,0,0,1,0,-0.241043737386617,-0.241043737386617,                65P     72
0.0880459160513828,0.0880459160513828,1.,1.,-0.2,                     65P     73
1.64544826719085,2.84999999999928,-0.2,3.29089653438084,              65P     74
2.60902410786912D-14,-0.241043737386617,0.0880459160513828,0.,        65P     75
0.,0.;                                                                65P     76
126,1,1,0,0,1,0,-0.0880459160513828,-0.0880459160513828,              67P     77
0.241043737386617,0.241043737386617,1.,1.,2.4,3.29089653438084,       67P     78
2.58126853225349D-14,2.4,1.64544826719085,2.84999999999928,           67P     79
-0.0880459160513828,0.241043737386617,0.,0.,0.;                       67P     80
126,1,1,0,0,1,0,-0.02,-0.02,0.24,0.24,1.,1.,-0.2,                     69P     81
3.29089653438084,2.63677968348475D-14,2.4,3.29089653438084,           69P     82
2.63677968348475D-14,-0.02,0.24,0.,0.,0.;                             69P     83
126,1,1,0,0,1,0,-0.241043737386685,-0.241043737386685,                71P     84
0.0880459160514423,0.0880459160514423,1.,1.,-0.2,                     71P     85
3.29089653438084,2.60902410786912D-14,-0.2,1.64544826719089,          71P     86
-2.85000000000072,-0.241043737386685,0.0880459160514423,0.,0.,        71P     87
0.;                                                                   71P     88
126,1,1,0,0,1,0,-0.0880459160514423,-0.0880459160514423,              73P     89
0.241043737386685,0.241043737386685,1.,1.,2.4,1.64544826719089,       73P     90
-2.85000000000072,2.4,3.29089653438084,2.60902410786912D-14,          73P     91
-0.0880459160514423,0.241043737386685,0.,0.,0.;                       73P     92
126,1,1,0,0,1,0,-0.02,-0.02,0.24,0.24,1.,1.,-0.2,                     75P     93
1.64544826719089,-2.85000000000072,2.4,1.64544826719089,              75P     94
-2.85000000000072,-0.02,0.24,0.,0.,0.;                                75P     95
126,1,1,0,0,1,0,-0.241043737386693,-0.241043737386693,                77P     96
0.088045916051397,0.088045916051397,1.,1.,-0.2,1.64544826719089,      77P     97
-2.85000000000072,-0.2,-1.64544826719001,-2.85000000000072,           77P     98
-0.241043737386693,0.088045916051397,0.,0.,0.;                        77P     99
126,1,1,0,0,1,0,-0.088045916051397,-0.088045916051397,                79P    100
0.241043737386693,0.241043737386693,1.,1.,2.4,-1.64544826719001,      79P    101
-2.85000000000072,2.4,1.64544826719089,-2.85000000000072,             79P    102
-0.088045916051397,0.241043737386693,0.,0.,0.;                        79P    103
126,1,1,0,0,1,0,-0.02,-0.02,0.24,0.24,1.,1.,-0.2,                     81P    104
-1.64544826719001,-2.85000000000072,2.4,-1.64544826719001,            81P    105
-2.85000000000072,-0.02,0.24,0.,0.,0.;                                81P    106
126,1,1,0,0,1,0,-0.241043737386721,-0.241043737386721,                83P    107
0.0880459160514443,0.0880459160514443,1.,1.,-0.2,                     83P    108
-1.64544826719002,-2.85000000000072,-0.2,-3.29089653438084,           83P    109
-3.67761376907083D-14,-0.241043737386721,0.0880459160514443,0.,       83P    110
0.,0.;                                                                83P    111
126,1,1,0,0,1,0,-0.0880459160514443,-0.0880459160514443,              85P    112
0.241043737386721,0.241043737386721,1.,1.,2.4,-3.29089653438084,      85P    113
-3.67761376907083D-14,2.4,-1.64544826719002,-2.85000000000072,        85P    114
-0.0880459160514443,0.241043737386721,0.,0.,0.;                       85P    115
128,1,8,1,2,0,1,0,0,1,-0.16,-0.16,1.92,1.92,-3.14159265358979,        87P    116
-3.14159265358979,-3.14159265358979,-1.5707963267949,                 87P    117
-1.5707963267949,0.,0.,1.5707963267949,1.5707963267949,               87P    118
3.14159265358979,3.14159265358979,3.14159265358979,1.,1.,             87P    119
0.707106781186548,0.707106781186548,1.,1.,0.707106781186548,          87P    120
0.707106781186548,1.,1.,0.707106781186548,0.707106781186548,1.,       87P    121
1.,0.707106781186548,0.707106781186548,1.,1.,-0.2,-1.25,0.,2.4,       87P    122
-1.25,0.,-0.2,-1.25,-1.25,2.4,-1.25,-1.25,-0.2,0.,-1.25,2.4,0.,       87P    123
-1.25,-0.2,1.25,-1.25,2.4,1.25,-1.25,-0.2,1.25,0.,2.4,1.25,0.,        87P    124
-0.2,1.25,1.25,2.4,1.25,1.25,-0.2,0.,1.25,2.4,0.,1.25,-0.2,           87P    125
-1.25,1.25,2.4,-1.25,1.25,-0.2,-1.25,0.,2.4,-1.25,0.,-0.16,1.92,      87P    126
-3.14159265358979,3.14159265358979;                                   87P    127
128,1,1,1,1,0,0,1,0,0,-0.0125470053837969,-0.0125470053837969,        89P    128
0.318542648054149,0.318542648054149,-0.021,-0.021,0.241,0.241,        89P    129
1.,1.,1.,1.,-0.21,-1.64044826719204,2.85866025403713,-0.21,           89P    130
-3.29589653438083,-0.00866025403788329,2.41,-1.64044826719204,        89P    131
2.85866025403713,2.41,-3.29589653438083,-0.00866025403788329,         89P    132
-0.0125470053837969,0.318542648054149,-0.021,0.241;                   89P    133
128,1,1,1,1,0,0,1,0,0,-0.0125470053837926,-0.0125470053837926,        91P    134
0.318542648054497,0.318542648054497,-0.021,-0.021,0.241,0.241,        91P    135
1.,1.,1.,1.,-0.21,1.65544826719086,2.84999999999928,-0.21,            91P    136
-1.65544826719204,2.84999999999928,2.41,1.65544826719086,             91P    137
2.84999999999928,2.41,-1.65544826719204,2.84999999999928,             91P    138
-0.0125470053837926,0.318542648054497,-0.021,0.241;                   91P    139
128,1,1,1,1,0,0,1,0,0,-0.0125470053837893,-0.0125470053837893,        93P    140
0.318542648054211,0.318542648054211,-0.021,-0.021,0.241,0.241,        93P    141
1.,1.,1.,1.,-0.21,3.29589653438084,-0.00866025403781891,-0.21,        93P    142
1.64044826719085,2.85866025403713,2.41,3.29589653438084,              93P    143
-0.00866025403781891,2.41,1.64044826719085,2.85866025403713,          93P    144
-0.0125470053837893,0.318542648054211,-0.021,0.241;                   93P    145
128,1,1,1,1,0,0,1,0,0,-0.0125470053837957,-0.0125470053837957,        95P    146
0.318542648054332,0.318542648054332,-0.021,-0.021,0.241,0.241,        95P    147
1.,1.,1.,1.,-0.21,1.64044826719089,-2.85866025403857,-0.21,           95P    148
3.29589653438084,0.00866025403787274,2.41,1.64044826719089,           95P    149
-2.85866025403857,2.41,3.29589653438084,0.00866025403787274,          95P    150
-0.0125470053837957,0.318542648054332,-0.021,0.241;                   95P    151
128,1,1,1,1,0,0,1,0,0,-0.0125470053837925,-0.0125470053837925,        97P    152
0.318542648054298,0.318542648054298,-0.021,-0.021,0.241,0.241,        97P    153
1.,1.,1.,1.,-0.21,-1.65544826719001,-2.85000000000072,-0.21,          97P    154
1.65544826719089,-2.85000000000072,2.41,-1.65544826719001,            97P    155
-2.85000000000072,2.41,1.65544826719089,-2.85000000000072,            97P    156
-0.0125470053837925,0.318542648054298,-0.021,0.241;                   97P    157
128,1,1,1,1,0,0,1,0,0,-0.0125470053837881,-0.0125470053837881,        99P    158
0.318542648054377,0.318542648054377,-0.021,-0.021,0.241,0.241,        99P    159
1.,1.,1.,1.,-0.21,-3.29589653438084,0.00866025403780777,-0.21,        99P    160
-1.64044826719001,-2.85866025403856,2.41,-3.29589653438084,           99P    161
0.00866025403780777,2.41,-1.64044826719002,-2.85866025403856,         99P    162
-0.0125470053837881,0.318542648054377,-0.021,0.241;                   99P    163
128,1,1,1,1,0,0,1,0,0,-0.330089653438084,-0.330089653438084,         101P    164
0.330089653438084,0.330089653438084,-0.286,-0.286,0.286,0.286,       101P    165
1.,1.,1.,1.,2.4,-3.30089653438084,-2.86000000000072,2.4,             101P    166
3.30089653438084,-2.86000000000072,2.4,-3.30089653438084,            101P    167
2.85999999999928,2.4,3.30089653438084,2.85999999999928,              101P    168
-0.330089653438084,0.330089653438084,-0.286,0.286;                   101P    169
128,1,1,1,1,0,0,1,0,0,-0.330089653438084,-0.330089653438084,         103P    170
0.330089653438084,0.330089653438084,-0.286,-0.286,0.286,0.286,       103P    171
1.,1.,1.,1.,-0.2,3.30089653438084,-2.86000000000072,-0.2,            103P    172
-3.30089653438084,-2.86000000000072,-0.2,3.30089653438084,           103P    173
2.85999999999928,-0.2,-3.30089653438084,2.85999999999928,            103P    174
-0.330089653438084,0.330089653438084,-0.286,0.286;                   103P    175
502,14,2.4,-1.25,1.53080849893419D-16,-0.2,-1.25,                    105P    176
1.53080849893419D-16,-0.2,-3.29089653438084,                         105P    177
-3.67416572974526D-14,-0.2,-1.64544826719204,2.84999999999928,       105P    178
2.4,-3.29089653438084,-3.67300924742794D-14,2.4,                     105P    179
-1.64544826719204,2.84999999999928,-0.2,1.64544826719085,            105P    180
2.84999999999928,2.4,1.64544826719085,2.84999999999928,-0.2,         105P    181
3.29089653438084,2.59343300421171D-14,2.4,3.29089653438084,          105P    182
2.59285476305305D-14,-0.2,1.64544826719089,-2.85000000000072,        105P    183
2.4,1.64544826719089,-2.85000000000072,-0.2,-1.64544826719001,       105P    184
-2.85000000000072,2.4,-1.64544826719001,-2.85000000000072;           105P    185
504,21,45,105,1,105,1,47,105,1,105,2,49,105,2,105,2,51,105,3,        107P    186
105,4,53,105,3,105,5,55,105,6,105,5,57,105,4,105,6,59,105,4,105,     107P    187
7,61,105,8,105,6,63,105,7,105,8,65,105,7,105,9,67,105,10,105,8,      107P    188
69,105,9,105,10,71,105,9,105,11,73,105,12,105,10,75,105,11,105,      107P    189
12,77,105,11,105,13,79,105,14,105,12,81,105,13,105,14,83,105,13,     107P    190
105,3,85,105,5,105,14;                                               107P    191
406,1,5HBody1;                                                       109P    192
314,62.7450980392157,62.7450980392157,62.7450980392157,13HSteel      111P    193
- Satin;                                                             111P    194
S      1G      3D    112P    194                                        T      1
