0
SECTION
2
HEADER
9
$INSUNITS
70
4
9
$ACADVER
1
AC1014
9
$HANDSEED
5
FFFF
0
ENDSEC
0
SECTION
2
TABLES
0
TABLE
2
VPORT
5
8
100
AcDbSymbolTable
0
ENDTAB
0
TABLE
2
LTYPE
5
5
100
AcDbSymbolTable
0
LTYPE
5
14
100
AcDbSymbolTableRecord
100
AcDbLinetypeTableRecord
2
BYBLOCK
70
0
0
LTYPE
5
15
100
AcDbSymbolTableRecord
100
AcDbLinetypeTableRecord
2
BYLAYER
70
0
0
LTYPE
5
16
100
AcDbSymbolTableRecord
100
AcDbLinetypeTableRecord
2
DASHED
70
0
3
Dashed __ __ __ __ __ __ __ __ __ __ __ __ __ _
72
65
73
2
40
0.75
49
0.5
74
0
49
-0.25
74
0
0
ENDTAB
0
TABLE
2
LAYER
5
2
100
AcDbSymbolTable
70
2
0
LAYER
5
50
100
AcDbSymbolTableRecord
100
AcDbLayerTableRecord
2
0
70
0
62
7
6
CONTINUOUS
0
ENDTAB
0
TABLE
2
STYLE
5
3
100
AcDbSymbolTable
70
1
0
STYLE
5
11
100
AcDbSymbolTableRecord
100
AcDbTextStyleTableRecord
2
STANDARD
70
0
0
ENDTAB
0
TABLE
2
VIEW
5
6
100
AcDbSymbolTable
70
0
0
ENDTAB
0
TABLE
2
UCS
5
7
100
AcDbSymbolTable
70
0
0
ENDTAB
0
TABLE
2
APPID
5
9
100
AcDbSymbolTable
70
2
0
APPID
5
12
100
AcDbSymbolTableRecord
100
AcDbRegAppTableRecord
2
ACAD
70
0
0
ENDTAB
0
TABLE
2
DIMSTYLE
5
A
100
AcDbSymbolTable
70
1
0
ENDTAB
0
TABLE
2
BLOCK_RECORD
5
1
100
AcDbSymbolTable
70
1
0
BLOCK_RECORD
5
1F
100
AcDbSymbolTableRecord
100
AcDbBlockTableRecord
2
*MODEL_SPACE
0
BLOCK_RECORD
5
1B
100
AcDbSymbolTableRecord
100
AcDbBlockTableRecord
2
*PAPER_SPACE
0
ENDTAB
0
ENDSEC
0
SECTION
2
BLOCKS
0
BLOCK
5
20
100
AcDbEntity
100
AcDbBlockBegin
2
*MODEL_SPACE
0
ENDBLK
5
21
100
AcDbEntity
100
AcDbBlockEnd
0
BLOCK
5
1C
100
AcDbEntity
100
AcDbBlockBegin
2
*PAPER_SPACE
0
ENDBLK
5
1D
100
AcDbEntity
100
AcDbBlockEnd
0
ENDSEC
0
SECTION
2
ENTITIES
0
POINT
5
100
100
AcDbEntity
8
0
100
AcDbPoint
10
0
20
0
30
0
0
LWPOLYLINE
5
101
100
AcDbEntity
8
0
100
AcDbPolyline
90
8
70
1
43
0.0
10
0
20
0
10
-93.999999999999972
20
0
10
-93.999999999999972
20
66.250000000000014
10
0
20
66.250000000000014
10
0
20
61.000000000000007
10
-93.999999999999972
20
61.000000000000007
10
-93.999999999999972
20
66.250000000000014
10
0
20
66.250000000000014
0
CIRCLE
5
102
100
AcDbEntity
8
0
100
AcDbCircle
10
-88.75
20
59.750000000000007
30
0
40
1.7500000000000002
210
0
220
0
230
1
0
CIRCLE
5
103
100
AcDbEntity
8
0
100
AcDbCircle
10
-88.749999999999972
20
5.2500000000000044
30
0
40
1.7500000000000002
210
0
220
0
230
1
0
CIRCLE
5
104
100
AcDbEntity
8
0
100
AcDbCircle
10
-5.25
20
59.750000000000007
30
0
40
1.7500000000000002
210
0
220
0
230
1
0
CIRCLE
5
105
100
AcDbEntity
8
0
100
AcDbCircle
10
-5.2499999999999734
20
5.2500000000000027
30
0
40
1.7500000000000002
210
0
220
0
230
1
0
LINE
5
106
100
AcDbEntity
8
0
100
AcDbLine
10
-5.25
20
59.750000000000007
30
0
11
-5.2499999999999734
21
5.2500000000000027
31
0
0
LINE
5
107
100
AcDbEntity
8
0
100
AcDbLine
10
-5.2499999999999734
20
5.2500000000000027
30
0
11
-88.749999999999972
21
5.2500000000000044
31
0
0
LINE
5
108
100
AcDbEntity
8
0
100
AcDbLine
10
-88.749999999999972
20
5.2500000000000044
30
0
11
-88.75
21
59.750000000000007
31
0
0
LINE
5
109
100
AcDbEntity
8
0
100
AcDbLine
10
-88.75
20
59.750000000000007
30
0
11
-5.25
21
59.750000000000007
31
0
0
LINE
5
110
100
AcDbEntity
8
0
100
AcDbLine
10
-85.249999999999972
20
0
30
0
11
-85.249999999999972
21
56.250000000000007
31
0
0
LINE
5
111
100
AcDbEntity
8
0
100
AcDbLine
10
-85.249999999999972
20
56.250000000000007
30
0
11
-8.75
21
56.250000000000007
31
0
0
LINE
5
112
100
AcDbEntity
8
0
100
AcDbLine
10
-8.75
20
56.250000000000007
30
0
11
-8.75
21
0
31
0
0
ARC
5
113
100
AcDbEntity
8
0
100
AcDbCircle
10
-46.999999999999972
20
-95.381578947368965
30
0
40
156.38157894736895
210
0
220
-0
230
1
100
AcDbArc
50
75.842156790775604
51
104.15784320922442
0
LINE
5
114
100
AcDbEntity
8
0
100
AcDbLine
10
-88.75
20
59.750000000000007
30
0
11
-90.500001348555088
21
59.750000000000007
31
0
0
LINE
5
115
100
AcDbEntity
8
0
100
AcDbLine
10
-88.749999999999972
20
5.2500000000000044
30
0
11
-90.500001348555088
21
5.2500000000000036
31
0
0
LINE
5
116
100
AcDbEntity
8
0
100
AcDbLine
10
-90.500001348555088
20
5.2500000000000036
30
0
11
-90.500001348555088
21
59.750000000000007
31
0
0
ARC
5
117
100
AcDbEntity
8
0
100
AcDbCircle
10
-25.946445153148211
20
30.74999999999995
30
0
40
64.553556195406912
210
0
220
0
230
1
100
AcDbArc
50
156.73272618842824
51
203.2672738115717
0
LINE
5
118
100
AcDbEntity
8
0
100
AcDbLine
10
-85.249999999999972
20
56.250000000000007
30
0
11
-90.500001348555088
21
56.250000000000007
31
0
0
LINE
5
119
100
AcDbEntity
8
0
100
AcDbLine
10
-5.2499999999999734
20
5.2500000000000027
30
0
11
-5.2499999999987912
21
3.5000000000000013
31
0
0
LINE
5
120
100
AcDbEntity
8
0
100
AcDbLine
10
-5.2499999999987912
20
3.5000000000000013
30
0
11
-88.749999999999972
21
3.5000000000000036
31
0
0
LINE
5
121
100
AcDbEntity
8
0
100
AcDbLine
10
-88.749999999999972
20
3.5000000000000036
30
0
11
-88.749999999999972
21
5.2500000000000044
31
0
0
LINE
5
122
100
AcDbEntity
8
0
100
AcDbLine
10
-8.75
20
9.25
30
0
11
-85.249999999999972
21
9.25
31
0
0
ARC
5
123
100
AcDbEntity
8
0
100
AcDbCircle
10
-75.249999999999972
20
46.250000000000014
30
0
40
9.9999999999999911
210
0
220
-0
230
1
100
AcDbArc
50
89.999999999999844
51
180
0
LINE
5
124
100
AcDbEntity
8
0
100
AcDbLine
10
-46.999999999999972
20
5.2500000000000036
30
0
11
-46.999999999999986
21
56.250000000000007
31
0
0
LWPOLYLINE
5
125
100
AcDbEntity
8
0
100
AcDbPolyline
90
3
70
1
43
0.0
10
-85.249999999999972
20
19.25
42
0.41421356237309442
10
-75.249999999999957
20
9.2499999999999982
10
-75.249999999999943
20
19.250000000000011
0
ARC
5
126
100
AcDbEntity
8
0
100
AcDbCircle
10
-18.749999999999993
20
46.250000000000028
30
0
40
9.9999999999999911
210
-0
220
0
230
1
100
AcDbArc
50
0
51
90.000000000000142
0
ARC
5
127
100
AcDbEntity
8
0
100
AcDbCircle
10
-18.750000000000007
20
19.250000000000021
30
0
40
10.000000000000014
210
0
220
0
230
1
100
AcDbArc
50
270.00000000000011
51
360
0
ENDSEC
0
SECTION
2
OBJECTS
0
DICTIONARY
5
C
100
AcDbDictionary
3
ACAD_GROUP
350
D
3
ACAD_MLINESTYLE
350
17
0
DICTIONARY
5
D
100
AcDbDictionary
0
DICTIONARY
5
1A
330
C
100
AcDbDictionary
0
DICTIONARY
5
17
100
AcDbDictionary
0
ENDSEC
0
EOF
