0
SECTION
2
HEADER
9
$INSUNITS
70
4
9
$ACADVER
1
AC1014
9
$HANDSEED
5
FFFF
0
ENDSEC
0
SECTION
2
TABLES
0
TABLE
2
VPORT
5
8
100
AcDbSymbolTable
0
ENDTAB
0
TABLE
2
LTYPE
5
5
100
AcDbSymbolTable
0
LTYPE
5
14
100
AcDbSymbolTableRecord
100
AcDbLinetypeTableRecord
2
BYBLOCK
70
0
0
LTYPE
5
15
100
AcDbSymbolTableRecord
100
AcDbLinetypeTableRecord
2
BYLAYER
70
0
0
LTYPE
5
16
100
AcDbSymbolTableRecord
100
AcDbLinetypeTableRecord
2
DASHED
70
0
3
Dashed __ __ __ __ __ __ __ __ __ __ __ __ __ _
72
65
73
2
40
0.75
49
0.5
74
0
49
-0.25
74
0
0
ENDTAB
0
TABLE
2
LAYER
5
2
100
AcDbSymbolTable
70
2
0
LAYER
5
50
100
AcDbSymbolTableRecord
100
AcDbLayerTableRecord
2
0
70
0
62
7
6
CONTINUOUS
0
ENDTAB
0
TABLE
2
STYLE
5
3
100
AcDbSymbolTable
70
1
0
STYLE
5
11
100
AcDbSymbolTableRecord
100
AcDbTextStyleTableRecord
2
STANDARD
70
0
0
ENDTAB
0
TABLE
2
VIEW
5
6
100
AcDbSymbolTable
70
0
0
ENDTAB
0
TABLE
2
UCS
5
7
100
AcDbSymbolTable
70
0
0
ENDTAB
0
TABLE
2
APPID
5
9
100
AcDbSymbolTable
70
2
0
APPID
5
12
100
AcDbSymbolTableRecord
100
AcDbRegAppTableRecord
2
ACAD
70
0
0
ENDTAB
0
TABLE
2
DIMSTYLE
5
A
100
AcDbSymbolTable
70
1
0
ENDTAB
0
TABLE
2
BLOCK_RECORD
5
1
100
AcDbSymbolTable
70
1
0
BLOCK_RECORD
5
1F
100
AcDbSymbolTableRecord
100
AcDbBlockTableRecord
2
*MODEL_SPACE
0
BLOCK_RECORD
5
1B
100
AcDbSymbolTableRecord
100
AcDbBlockTableRecord
2
*PAPER_SPACE
0
ENDTAB
0
ENDSEC
0
SECTION
2
BLOCKS
0
BLOCK
5
20
100
AcDbEntity
100
AcDbBlockBegin
2
*MODEL_SPACE
0
ENDBLK
5
21
100
AcDbEntity
100
AcDbBlockEnd
0
BLOCK
5
1C
100
AcDbEntity
100
AcDbBlockBegin
2
*PAPER_SPACE
0
ENDBLK
5
1D
100
AcDbEntity
100
AcDbBlockEnd
0
ENDSEC
0
SECTION
2
ENTITIES
0
LWPOLYLINE
5
100
100
AcDbEntity
8
0
100
AcDbPolyline
90
20
70
1
43
0.0
10
93.999999999999972
20
-5
42
0.41421356237309326
10
88.999999999999972
20
4.4408920985006262e-15
10
5
20
0
42
0.41421356237309498
10
1.1102230246251565e-15
20
-5
10
0
20
-61.000000000000007
10
4.025255128608408
20
-61
42
-2.4494897427831628
10
6.4747448713915876
20
-61.000000000000007
10
46.999999999999972
20
-60.999999999999979
42
0.048590002494417729
10
77.179887640449408
20
-58.060177481844391
42
0.35840997210417519
10
85.249999999999972
20
-48.248167815357078
10
85.249999999999972
20
-19.25
42
0.41421356237309509
10
75.249999999999972
20
-9.25
10
18.750000000000004
20
-9.2499999999999982
42
0.41421356237309509
10
8.75
20
-19.25
10
8.75
20
-48.248167815357078
42
0.3584099721041783
10
16.820112359550677
20
-58.060177481844413
42
0.048590002494417445
10
46.999999999999972
20
-60.999999999999986
10
87.525255128608407
20
-61.000000000000007
42
-2.4494897427831801
10
89.974744871391593
20
-61.000000000000007
10
93.999999999999972
20
-61.000000000000007
0
CIRCLE
5
101
100
AcDbEntity
8
0
100
AcDbCircle
10
88.749999999999972
20
-5.2500000000000044
30
0
40
1.7500000000000071
210
0
220
-0
230
1
0
CIRCLE
5
102
100
AcDbEntity
8
0
100
AcDbCircle
10
5.2499999999999734
20
-5.2500000000000027
30
0
40
1.7500000000000004
210
0
220
-0
230
1
0
LINE
5
103
100
AcDbEntity
8
0
100
AcDbLine
10
93.999999999999972
20
-61.000000000000007
30
0
11
93.999999999999972
21
-5
31
0
0
LINE
5
104
100
AcDbEntity
8
0
100
AcDbLine
10
0
20
-61.000000000000007
30
0
11
1.1102230246251565e-15
21
-5
31
0
0
LINE
5
105
100
AcDbEntity
8
0
100
AcDbLine
10
5
20
0
30
0
11
88.999999999999972
21
4.4408920985006262e-15
31
0
0
ARC
5
106
100
AcDbEntity
8
0
100
AcDbCircle
10
88.999999999999943
20
-5.0000000000000124
30
0
40
5.0000000000000178
210
0
220
-0
230
1
100
AcDbArc
50
0
51
89.999999999999673
0
ARC
5
107
100
AcDbEntity
8
0
100
AcDbCircle
10
5
20
-4.9999999999999991
30
0
40
4.9999999999999991
210
0
220
-0
230
1
100
AcDbArc
50
90
51
180
0
LINE
5
108
100
AcDbEntity
8
0
100
AcDbLine
10
1.1102230246251565e-15
20
-5
30
0
11
5
21
-4.9999999999999991
31
0
0
LINE
5
109
100
AcDbEntity
8
0
100
AcDbLine
10
5
20
-4.9999999999999991
30
0
11
5
21
0
31
0
0
LINE
5
110
100
AcDbEntity
8
0
100
AcDbLine
10
93.999999999999972
20
-5
30
0
11
88.999999999999943
21
-5.0000000000000124
31
0
0
LINE
5
111
100
AcDbEntity
8
0
100
AcDbLine
10
88.999999999999943
20
-5.0000000000000124
30
0
11
88.999999999999972
21
4.4408920985006262e-15
31
0
0
LINE
5
112
100
AcDbEntity
8
0
100
AcDbLine
10
5
20
-2.4999999999999996
30
0
11
88.999999999999943
21
-2.500000000000004
31
0
0
LINE
5
113
100
AcDbEntity
8
0
100
AcDbLine
10
91.499999999999943
20
-5.0000000000000071
30
0
11
91.987372435695789
21
-61.000000000000007
31
0
0
LINE
5
114
100
AcDbEntity
8
0
100
AcDbLine
10
2.0126275643042035
20
-61.000000000000007
30
0
11
2.5000000000000004
21
-4.9999999999999991
31
0
0
ARC
5
115
100
AcDbEntity
8
0
100
AcDbCircle
10
4.8333237238387206
20
-4.8333237238387206
30
0
40
2.3392692408663831
210
0
220
-0
230
1
100
AcDbArc
50
85.914131683465996
51
184.08586831653392
0
ARC
5
116
100
AcDbEntity
8
0
100
AcDbCircle
10
88.999999999999943
20
-5.0000000000000107
30
0
40
2.5
210
0
220
-0
230
1
100
AcDbArc
50
0
51
90
0
ENDSEC
0
SECTION
2
OBJECTS
0
DICTIONARY
5
C
100
AcDbDictionary
3
ACAD_GROUP
350
D
3
ACAD_MLINESTYLE
350
17
0
DICTIONARY
5
D
100
AcDbDictionary
0
DICTIONARY
5
1A
330
C
100
AcDbDictionary
0
DICTIONARY
5
17
100
AcDbDictionary
0
ENDSEC
0
EOF
