0
SECTION
2
HEADER
9
$INSUNITS
70
4
9
$ACADVER
1
AC1014
9
$HANDSEED
5
FFFF
0
ENDSEC
0
SECTION
2
TABLES
0
TABLE
2
VPORT
5
8
100
AcDbSymbolTable
0
ENDTAB
0
TABLE
2
LTYPE
5
5
100
AcDbSymbolTable
0
LTYPE
5
14
100
AcDbSymbolTableRecord
100
AcDbLinetypeTableRecord
2
BYBLOCK
70
0
0
LTYPE
5
15
100
AcDbSymbolTableRecord
100
AcDbLinetypeTableRecord
2
BYLAYER
70
0
0
LTYPE
5
16
100
AcDbSymbolTableRecord
100
AcDbLinetypeTableRecord
2
DASHED
70
0
3
Dashed __ __ __ __ __ __ __ __ __ __ __ __ __ _
72
65
73
2
40
0.75
49
0.5
74
0
49
-0.25
74
0
0
ENDTAB
0
TABLE
2
LAYER
5
2
100
AcDbSymbolTable
70
2
0
LAYER
5
50
100
AcDbSymbolTableRecord
100
AcDbLayerTableRecord
2
0
70
0
62
7
6
CONTINUOUS
0
ENDTAB
0
TABLE
2
STYLE
5
3
100
AcDbSymbolTable
70
1
0
STYLE
5
11
100
AcDbSymbolTableRecord
100
AcDbTextStyleTableRecord
2
STANDARD
70
0
0
ENDTAB
0
TABLE
2
VIEW
5
6
100
AcDbSymbolTable
70
0
0
ENDTAB
0
TABLE
2
UCS
5
7
100
AcDbSymbolTable
70
0
0
ENDTAB
0
TABLE
2
APPID
5
9
100
AcDbSymbolTable
70
2
0
APPID
5
12
100
AcDbSymbolTableRecord
100
AcDbRegAppTableRecord
2
ACAD
70
0
0
ENDTAB
0
TABLE
2
DIMSTYLE
5
A
100
AcDbSymbolTable
70
1
0
ENDTAB
0
TABLE
2
BLOCK_RECORD
5
1
100
AcDbSymbolTable
70
1
0
BLOCK_RECORD
5
1F
100
AcDbSymbolTableRecord
100
AcDbBlockTableRecord
2
*MODEL_SPACE
0
BLOCK_RECORD
5
1B
100
AcDbSymbolTableRecord
100
AcDbBlockTableRecord
2
*PAPER_SPACE
0
ENDTAB
0
ENDSEC
0
SECTION
2
BLOCKS
0
BLOCK
5
20
100
AcDbEntity
100
AcDbBlockBegin
2
*MODEL_SPACE
0
ENDBLK
5
21
100
AcDbEntity
100
AcDbBlockEnd
0
BLOCK
5
1C
100
AcDbEntity
100
AcDbBlockBegin
2
*PAPER_SPACE
0
ENDBLK
5
1D
100
AcDbEntity
100
AcDbBlockEnd
0
ENDSEC
0
SECTION
2
ENTITIES
0
POINT
5
100
100
AcDbEntity
8
0
100
AcDbPoint
10
0
20
0
30
0
0
LWPOLYLINE
5
101
100
AcDbEntity
8
0
100
AcDbPolyline
90
4
70
1
43
0.0
10
0
20
0
10
-60
20
0
10
-60
20
-40
10
-4.9303806576313238e-31
20
-40
0
SPLINE
5
102
100
AcDbEntity
8
0
100
AcDbSpline
70
0
71
2
72
6
73
3
74
0
42
0.000000001
43
0.0000000001
44
0.0000000001
40
0
40
0
40
0
40
1
40
1
40
1
10
-31.400963217020035
20
-19.528195261955261
30
0
10
-31.400963217020035
20
-20.057770609855652
30
0
10
-31.675378233194351
20
-20.34662663936615
30
0
0
SPLINE
5
103
100
AcDbEntity
8
0
100
AcDbSpline
70
0
71
2
72
6
73
3
74
0
42
0.000000001
43
0.0000000001
44
0.0000000001
40
0
40
0
40
0
40
1
40
1
40
1
10
-31.675378233194351
20
-20.34662663936615
30
0
10
-31.949793249368668
20
-20.635485053062439
30
0
10
-32.445665746927261
20
-20.635485053062439
30
0
0
SPLINE
5
104
100
AcDbEntity
8
0
100
AcDbSpline
70
0
71
2
72
6
73
3
74
0
42
0.000000001
43
0.0000000001
44
0.0000000001
40
0
40
0
40
0
40
1
40
1
40
1
10
-32.445665746927261
20
-20.635485053062439
30
0
10
-32.90302649140358
20
-20.635485053062439
30
0
10
-33.153368383646011
20
-20.356256365776062
30
0
0
SPLINE
5
105
100
AcDbEntity
8
0
100
AcDbSpline
70
0
71
2
72
6
73
3
74
0
42
0.000000001
43
0.0000000001
44
0.0000000001
40
0
40
0
40
0
40
1
40
1
40
1
10
-33.153368383646011
20
-20.356256365776062
30
0
10
-33.403712660074234
20
-20.077025294303894
30
0
10
-33.403712660074234
20
-19.566709399223328
30
0
0
LINE
5
106
100
AcDbEntity
8
0
100
AcDbLine
10
-33.403712660074234
20
-19.566709399223324
30
0
11
-33.601099401712418
21
-20.529572367668152
31
0
0
SPLINE
5
107
100
AcDbEntity
8
0
100
AcDbSpline
70
0
71
2
72
6
73
3
74
0
42
0.000000001
43
0.0000000001
44
0.0000000001
40
0
40
0
40
0
40
1
40
1
40
1
10
-33.601099401712418
20
-20.529572367668152
30
0
10
-33.365198522806168
20
-21.025444865226746
30
0
10
-32.977646738290787
20
-21.297451853752136
30
0
0
SPLINE
5
108
100
AcDbEntity
8
0
100
AcDbSpline
70
0
71
2
72
6
73
3
74
0
42
0.000000001
43
0.0000000001
44
0.0000000001
40
0
40
0
40
0
40
1
40
1
40
1
10
-32.977646738290787
20
-21.297451853752136
30
0
10
-32.590094953775406
20
-21.569461226463318
30
0
10
-32.123109251260757
20
-21.569461226463318
30
0
0
SPLINE
5
109
100
AcDbEntity
8
0
100
AcDbSpline
70
0
71
2
72
6
73
3
74
0
42
0.000000001
43
0.0000000001
44
0.0000000001
40
0
40
0
40
0
40
1
40
1
40
1
10
-32.123109251260757
20
-21.569461226463318
30
0
10
-31.583906561136246
20
-21.569461226463318
30
0
10
-31.201168447732925
20
-21.331152319908142
30
0
0
SPLINE
5
110
100
AcDbEntity
8
0
100
AcDbSpline
70
0
71
2
72
6
73
3
74
0
42
0.000000001
43
0.0000000001
44
0.0000000001
40
0
40
0
40
0
40
1
40
1
40
1
10
-31.201168447732925
20
-21.331152319908142
30
0
10
-30.818432718515396
20
-21.092845797538757
30
0
10
-30.618637949228287
20
-20.635485053062439
30
0
0
SPLINE
5
111
100
AcDbEntity
8
0
100
AcDbSpline
70
0
71
2
72
6
73
3
74
0
42
0.000000001
43
0.0000000001
44
0.0000000001
40
0
40
0
40
0
40
1
40
1
40
1
10
-30.618637949228287
20
-20.635485053062439
30
0
10
-30.418845564126968
20
-20.178126692771912
30
0
10
-30.418845564126968
20
-19.533011317253113
30
0
0
LINE
5
112
100
AcDbEntity
8
0
100
AcDbLine
10
-30.418845564126968
20
-19.533011317253109
30
0
11
-30.418845564126968
21
-16.499997973442078
31
0
0
LINE
5
113
100
AcDbEntity
8
0
100
AcDbLine
10
-30.418845564126968
20
-16.499997973442078
30
0
11
-31.400963217020035
21
-16.499997973442078
31
0
0
LINE
5
114
100
AcDbEntity
8
0
100
AcDbLine
10
-31.400963217020035
20
-16.499997973442078
30
0
11
-31.400963217020035
21
-19.528195261955261
31
0
0
LWPOLYLINE
5
115
100
AcDbEntity
8
0
100
AcDbPolyline
90
4
70
1
43
0.0
10
-37.370699793100357
20
-21.497246623039246
10
-36.388582140207291
20
-21.497246623039246
10
-36.388582140207291
20
-16.499997973442078
10
-37.370699793100357
20
-16.499997973442078
0
SPLINE
5
116
100
AcDbEntity
8
0
100
AcDbSpline
70
0
71
2
72
6
73
3
74
0
42
0.000000001
43
0.0000000001
44
0.0000000001
40
0
40
0
40
0
40
1
40
1
40
1
10
-34.3858303129673
20
-19.528195261955261
30
0
10
-34.3858303129673
20
-20.057770609855652
30
0
10
-34.645804315805435
20
-20.34662663936615
30
0
0
SPLINE
5
117
100
AcDbEntity
8
0
100
AcDbSpline
70
0
71
2
72
6
73
3
74
0
42
0.000000001
43
0.0000000001
44
0.0000000001
40
0
40
0
40
0
40
1
40
1
40
1
10
-34.645804315805435
20
-20.34662663936615
30
0
10
-34.905775934457779
20
-20.635485053062439
30
0
10
-35.38239374756813
20
-20.635485053062439
30
0
0
SPLINE
5
118
100
AcDbEntity
8
0
100
AcDbSpline
70
0
71
2
72
6
73
3
74
0
42
0.000000001
43
0.0000000001
44
0.0000000001
40
0
40
0
40
0
40
1
40
1
40
1
10
-35.38239374756813
20
-20.635485053062439
30
0
10
-35.863822847604752
20
-20.635485053062439
30
0
10
-36.126202493906021
20
-20.380327105522156
30
0
0
SPLINE
5
119
100
AcDbEntity
8
0
100
AcDbSpline
70
0
71
2
72
6
73
3
74
0
42
0.000000001
43
0.0000000001
44
0.0000000001
40
0
40
0
40
0
40
1
40
1
40
1
10
-36.126202493906021
20
-20.380327105522156
30
0
10
-36.388582140207291
20
-20.125169157981873
30
0
10
-36.388582140207291
20
-19.662997126579285
30
0
0
LINE
5
120
100
AcDbEntity
8
0
100
AcDbLine
10
-36.388582140207291
20
-19.662997126579285
30
0
11
-36.489683538675308
21
-20.625857710838318
31
0
0
SPLINE
5
121
100
AcDbEntity
8
0
100
AcDbSpline
70
0
71
2
72
6
73
3
74
0
42
0.000000001
43
0.0000000001
44
0.0000000001
40
0
40
0
40
0
40
1
40
1
40
1
10
-36.489683538675308
20
-20.625857710838318
30
0
10
-36.258596330881119
20
-21.078402400016785
30
0
10
-35.885487943887711
20
-21.323930621147156
30
0
0
SPLINE
5
122
100
AcDbEntity
8
0
100
AcDbSpline
70
0
71
2
72
6
73
3
74
0
42
0.000000001
43
0.0000000001
44
0.0000000001
40
0
40
0
40
0
40
1
40
1
40
1
10
-35.885487943887711
20
-21.323930621147156
30
0
10
-35.512379556894302
20
-21.569461226463318
30
0
10
-35.059834867715836
20
-21.569461226463318
30
0
0
SPLINE
5
123
100
AcDbEntity
8
0
100
AcDbSpline
70
0
71
2
72
6
73
3
74
0
42
0.000000001
43
0.0000000001
44
0.0000000001
40
0
40
0
40
0
40
1
40
1
40
1
10
-35.059834867715836
20
-21.569461226463318
30
0
10
-34.535075575113297
20
-21.569461226463318
30
0
10
-34.164372831583023
20
-21.331152319908142
30
0
0
SPLINE
5
124
100
AcDbEntity
8
0
100
AcDbSpline
70
0
71
2
72
6
73
3
74
0
42
0.000000001
43
0.0000000001
44
0.0000000001
40
0
40
0
40
0
40
1
40
1
40
1
10
-34.164372831583023
20
-21.331152319908142
30
0
10
-33.793672472238541
20
-21.092845797538757
30
0
10
-33.598693758249283
20
-20.635485053062439
30
0
0
SPLINE
5
125
100
AcDbEntity
8
0
100
AcDbSpline
70
0
71
2
72
6
73
3
74
0
42
0.000000001
43
0.0000000001
44
0.0000000001
40
0
40
0
40
0
40
1
40
1
40
1
10
-33.598693758249283
20
-20.635485053062439
30
0
10
-33.403712660074234
20
-20.178126692771912
30
0
10
-33.403712660074234
20
-19.533011317253113
30
0
0
LINE
5
126
100
AcDbEntity
8
0
100
AcDbLine
10
-33.403712660074234
20
-19.533011317253109
30
0
11
-33.403712660074234
21
-16.499997973442078
31
0
0
LINE
5
127
100
AcDbEntity
8
0
100
AcDbLine
10
-33.403712660074234
20
-16.499997973442078
30
0
11
-34.3858303129673
21
-16.499997973442078
31
0
0
LINE
5
128
100
AcDbEntity
8
0
100
AcDbLine
10
-34.3858303129673
20
-16.499997973442078
30
0
11
-34.3858303129673
21
-19.528195261955261
31
0
0
LWPOLYLINE
5
129
100
AcDbEntity
8
0
100
AcDbPolyline
90
4
70
1
43
0.0
10
-28.926409631967545
20
-23.499998450279236
10
-27.944291979074478
20
-23.499998450279236
10
-27.944291979074478
20
-22.517878413200378
10
-28.926409631967545
20
-22.517878413200378
0
LWPOLYLINE
5
130
100
AcDbEntity
8
0
100
AcDbPolyline
90
4
70
1
43
0.0
10
-28.926409631967545
20
-21.497246623039246
10
-27.944291979074478
20
-21.497246623039246
10
-27.944291979074478
20
-16.499997973442078
10
-28.926409631967545
20
-16.499997973442078
0
LWPOLYLINE
5
131
100
AcDbEntity
8
0
100
AcDbPolyline
90
4
70
1
43
0.0
10
-23.611415773630142
20
-23.499998450279236
10
-22.629298120737076
20
-23.499998450279236
10
-22.629298120737076
20
-16.499997973442078
10
-23.611415773630142
20
-16.499997973442078
0
SPLINE
5
132
100
AcDbEntity
8
0
100
AcDbSpline
70
0
71
2
72
6
73
3
74
0
42
0.000000001
43
0.0000000001
44
0.0000000001
40
0
40
0
40
0
40
1
40
1
40
1
10
-24.867950826883316
20
-16.413339972496033
30
0
10
-25.416780859231949
20
-16.413339972496033
30
0
10
-25.80433264374733
20
-16.651648879051208
30
0
0
SPLINE
5
133
100
AcDbEntity
8
0
100
AcDbSpline
70
0
71
2
72
6
73
3
74
0
42
0.000000001
43
0.0000000001
44
0.0000000001
40
0
40
0
40
0
40
1
40
1
40
1
10
-25.80433264374733
20
-16.651648879051208
30
0
10
-26.191884428262711
20
-16.889957785606384
30
0
10
-26.394084841012955
20
-17.347316145896912
30
0
0
SPLINE
5
134
100
AcDbEntity
8
0
100
AcDbSpline
70
0
71
2
72
6
73
3
74
0
42
0.000000001
43
0.0000000001
44
0.0000000001
40
0
40
0
40
0
40
1
40
1
40
1
10
-26.394084841012955
20
-17.347316145896912
30
0
10
-26.596285253763199
20
-17.804674506187439
30
0
10
-26.596285253763199
20
-18.444976210594177
30
0
0
LINE
5
135
100
AcDbEntity
8
0
100
AcDbLine
10
-26.596285253763199
20
-18.444976210594177
30
0
11
-26.596285253763199
21
-19.547452330589294
31
0
0
SPLINE
5
136
100
AcDbEntity
8
0
100
AcDbSpline
70
0
71
2
72
6
73
3
74
0
42
0.000000001
43
0.0000000001
44
0.0000000001
40
0
40
0
40
0
40
1
40
1
40
1
10
-26.596285253763199
20
-19.547452330589294
30
0
10
-26.596285253763199
20
-20.192570090293884
30
0
10
-26.398898512125015
20
-20.649928450584412
30
0
0
SPLINE
5
137
100
AcDbEntity
8
0
100
AcDbSpline
70
0
71
2
72
6
73
3
74
0
42
0.000000001
43
0.0000000001
44
0.0000000001
40
0
40
0
40
0
40
1
40
1
40
1
10
-26.398898512125015
20
-20.649928450584412
30
0
10
-26.201511770486832
20
-21.10728919506073
30
0
10
-25.823589712381363
20
-21.345595717430115
30
0
0
SPLINE
5
138
100
AcDbEntity
8
0
100
AcDbSpline
70
0
71
2
72
6
73
3
74
0
42
0.000000001
43
0.0000000001
44
0.0000000001
40
0
40
0
40
0
40
1
40
1
40
1
10
-25.823589712381363
20
-21.345595717430115
30
0
10
-25.445667654275894
20
-21.583904623985291
30
0
10
-24.916092306375504
20
-21.583904623985291
30
0
0
SPLINE
5
139
100
AcDbEntity
8
0
100
AcDbSpline
70
0
71
2
72
6
73
3
74
0
42
0.000000001
43
0.0000000001
44
0.0000000001
40
0
40
0
40
0
40
1
40
1
40
1
10
-24.916092306375504
20
-21.583904623985291
30
0
10
-24.473177343606949
20
-21.583904623985291
30
0
10
-24.104882627725601
20
-21.352817416191101
30
0
0
SPLINE
5
140
100
AcDbEntity
8
0
100
AcDbSpline
70
0
71
2
72
6
73
3
74
0
42
0.000000001
43
0.0000000001
44
0.0000000001
40
0
40
0
40
0
40
1
40
1
40
1
10
-24.104882627725601
20
-21.352817416191101
30
0
10
-23.736587911844254
20
-21.121730208396912
30
0
10
-23.510314375162125
20
-20.702885985374451
30
0
0
LINE
5
141
100
AcDbEntity
8
0
100
AcDbLine
10
-23.510314375162125
20
-20.702885985374451
30
0
11
-23.611415773630142
21
-19.682254195213318
31
0
0
SPLINE
5
142
100
AcDbEntity
8
0
100
AcDbSpline
70
0
71
2
72
6
73
3
74
0
42
0.000000001
43
0.0000000001
44
0.0000000001
40
0
40
0
40
0
40
1
40
1
40
1
10
-23.611415773630142
20
-19.682254195213318
30
0
10
-23.611415773630142
20
-19.999997019767761
30
0
10
-23.726960569620132
20
-20.22627055644989
30
0
0
SPLINE
5
143
100
AcDbEntity
8
0
100
AcDbSpline
70
0
71
2
72
6
73
3
74
0
42
0.000000001
43
0.0000000001
44
0.0000000001
40
0
40
0
40
0
40
1
40
1
40
1
10
-23.726960569620132
20
-20.22627055644989
30
0
10
-23.842502981424332
20
-20.452541708946228
30
0
10
-24.061552435159683
20
-20.570492148399353
30
0
0
SPLINE
5
144
100
AcDbEntity
8
0
100
AcDbSpline
70
0
71
2
72
6
73
3
74
0
42
0.000000001
43
0.0000000001
44
0.0000000001
40
0
40
0
40
0
40
1
40
1
40
1
10
-24.061552435159683
20
-20.570492148399353
30
0
10
-24.280604273080826
20
-20.688444972038269
30
0
10
-24.593535810709
20
-20.688444972038269
30
0
0
SPLINE
5
145
100
AcDbEntity
8
0
100
AcDbSpline
70
0
71
2
72
6
73
3
74
0
42
0.000000001
43
0.0000000001
44
0.0000000001
40
0
40
0
40
0
40
1
40
1
40
1
10
-24.593535810709
20
-20.688444972038269
30
0
10
-25.079778581857681
20
-20.688444972038269
30
0
10
-25.346971899271011
20
-20.385143160820007
30
0
0
SPLINE
5
146
100
AcDbEntity
8
0
100
AcDbSpline
70
0
71
2
72
6
73
3
74
0
42
0.000000001
43
0.0000000001
44
0.0000000001
40
0
40
0
40
0
40
1
40
1
40
1
10
-25.346971899271011
20
-20.385143160820007
30
0
10
-25.614167600870132
20
-20.081841349601746
30
0
10
-25.614167600870132
20
-19.533011317253113
30
0
0
LINE
5
147
100
AcDbEntity
8
0
100
AcDbLine
10
-25.614167600870132
20
-19.533011317253116
30
0
11
-25.614167600870132
21
-18.444976210594177
31
0
0
SPLINE
5
148
100
AcDbEntity
8
0
100
AcDbSpline
70
0
71
2
72
6
73
3
74
0
42
0.000000001
43
0.0000000001
44
0.0000000001
40
0
40
0
40
0
40
1
40
1
40
1
10
-25.614167600870132
20
-18.444976210594177
30
0
10
-25.614167600870132
20
-17.900959849357605
30
0
10
-25.346971899271011
20
-17.604882121086121
30
0
0
SPLINE
5
149
100
AcDbEntity
8
0
100
AcDbSpline
70
0
71
2
72
6
73
3
74
0
42
0.000000001
43
0.0000000001
44
0.0000000001
40
0
40
0
40
0
40
1
40
1
40
1
10
-25.346971899271011
20
-17.604882121086121
30
0
10
-25.079778581857681
20
-17.308802008628845
30
0
10
-24.593535810709
20
-17.308802008628845
30
0
0
SPLINE
5
150
100
AcDbEntity
8
0
100
AcDbSpline
70
0
71
2
72
6
73
3
74
0
42
0.000000001
43
0.0000000001
44
0.0000000001
40
0
40
0
40
0
40
1
40
1
40
1
10
-24.593535810709
20
-17.308802008628845
30
0
10
-24.280604273080826
20
-17.308802008628845
30
0
10
-24.061552435159683
20
-17.431566119194031
30
0
0
SPLINE
5
151
100
AcDbEntity
8
0
100
AcDbSpline
70
0
71
2
72
6
73
3
74
0
42
0.000000001
43
0.0000000001
44
0.0000000001
40
0
40
0
40
0
40
1
40
1
40
1
10
-24.061552435159683
20
-17.431566119194031
30
0
10
-23.842502981424332
20
-17.554330229759216
30
0
10
-23.726960569620132
20
-17.785417437553406
30
0
0
SPLINE
5
152
100
AcDbEntity
8
0
100
AcDbSpline
70
0
71
2
72
6
73
3
74
0
42
0.000000001
43
0.0000000001
44
0.0000000001
40
0
40
0
40
0
40
1
40
1
40
1
10
-23.726960569620132
20
-17.785417437553406
30
0
10
-23.611415773630142
20
-18.016504645347595
30
0
10
-23.611415773630142
20
-18.33906352519989
30
0
0
LINE
5
153
100
AcDbEntity
8
0
100
AcDbLine
10
-23.611415773630142
20
-18.33906352519989
30
0
11
-23.544017225503922
21
-17.28472888469696
31
0
0
SPLINE
5
154
100
AcDbEntity
8
0
100
AcDbSpline
70
0
71
2
72
6
73
3
74
0
42
0.000000001
43
0.0000000001
44
0.0000000001
40
0
40
0
40
0
40
1
40
1
40
1
10
-23.544017225503922
20
-17.28472888469696
30
0
10
-23.693257719278336
20
-16.914028525352478
30
0
10
-24.032668024301529
20
-16.663684248924255
30
0
0
SPLINE
5
155
100
AcDbEntity
8
0
100
AcDbSpline
70
0
71
2
72
6
73
3
74
0
42
0.000000001
43
0.0000000001
44
0.0000000001
40
0
40
0
40
0
40
1
40
1
40
1
10
-24.032668024301529
20
-16.663684248924255
30
0
10
-24.372075945138931
20
-16.413339972496033
30
0
10
-24.867950826883316
20
-16.413339972496033
30
0
0
LWPOLYLINE
5
156
100
AcDbEntity
8
0
100
AcDbPolyline
90
4
70
1
43
0.0
10
0
20
5
10
-60.000000894069672
20
5
10
-60.000000894069672
20
33
10
-2.7964425323333838e-16
20
33
0
SPLINE
5
157
100
AcDbEntity
8
0
100
AcDbSpline
70
0
71
2
72
6
73
3
74
0
42
0.000000001
43
0.0000000001
44
0.0000000001
40
0
40
0
40
0
40
1
40
1
40
1
10
-47.810179889202118
20
16.760660409927368
30
0
10
-48.640991151332855
20
16.760660409927368
30
0
10
-49.270977675914764
20
16.392022371292114
30
0
0
SPLINE
5
158
100
AcDbEntity
8
0
100
AcDbSpline
70
0
71
2
72
6
73
3
74
0
42
0.000000001
43
0.0000000001
44
0.0000000001
40
0
40
0
40
0
40
1
40
1
40
1
10
-49.270977675914764
20
16.392022371292114
30
0
10
-49.900964200496674
20
16.02338433265686
30
0
10
-50.247593820095062
20
15.346629619598389
30
0
0
SPLINE
5
159
100
AcDbEntity
8
0
100
AcDbSpline
70
0
71
2
72
6
73
3
74
0
42
0.000000001
43
0.0000000001
44
0.0000000001
40
0
40
0
40
0
40
1
40
1
40
1
10
-50.247593820095062
20
15.346629619598389
30
0
10
-50.594223439693451
20
14.669876098632812
30
0
10
-50.594223439693451
20
13.778542280197144
30
0
0
LINE
5
160
100
AcDbEntity
8
0
100
AcDbLine
10
-50.594223439693451
20
13.778542280197144
30
0
11
-50.594223439693451
21
11.583218574523926
31
0
0
SPLINE
5
161
100
AcDbEntity
8
0
100
AcDbSpline
70
0
71
2
72
6
73
3
74
0
42
0.000000001
43
0.0000000001
44
0.0000000001
40
0
40
0
40
0
40
1
40
1
40
1
10
-50.594223439693451
20
11.583218574523926
30
0
10
-50.594223439693451
20
10.691884160041809
30
0
10
-50.247593820095062
20
10.015130639076233
30
0
0
SPLINE
5
162
100
AcDbEntity
8
0
100
AcDbSpline
70
0
71
2
72
6
73
3
74
0
42
0.000000001
43
0.0000000001
44
0.0000000001
40
0
40
0
40
0
40
1
40
1
40
1
10
-50.247593820095062
20
10.015130639076233
30
0
10
-49.900964200496674
20
9.3383771181106567
30
0
10
-49.270977675914764
20
8.9669877290725708
30
0
0
SPLINE
5
163
100
AcDbEntity
8
0
100
AcDbSpline
70
0
71
2
72
6
73
3
74
0
42
0.000000001
43
0.0000000001
44
0.0000000001
40
0
40
0
40
0
40
1
40
1
40
1
10
-49.270977675914764
20
8.9669877290725708
30
0
10
-48.640991151332855
20
8.5955983400344849
30
0
10
-47.810179889202118
20
8.5955983400344849
30
0
0
SPLINE
5
164
100
AcDbEntity
8
0
100
AcDbSpline
70
0
71
2
72
6
73
3
74
0
42
0.000000001
43
0.0000000001
44
0.0000000001
40
0
40
0
40
0
40
1
40
1
40
1
10
-47.810179889202118
20
8.5955983400344849
30
0
10
-47.122422158718109
20
8.5955983400344849
30
0
10
-46.544705331325531
20
8.8899588584899902
30
0
0
SPLINE
5
165
100
AcDbEntity
8
0
100
AcDbSpline
70
0
71
2
72
6
73
3
74
0
42
0.000000001
43
0.0000000001
44
0.0000000001
40
0
40
0
40
0
40
1
40
1
40
1
10
-46.544705331325531
20
8.8899588584899902
30
0
10
-45.966988503932953
20
9.1843187808990479
30
0
10
-45.579093396663666
20
9.7235214710235596
30
0
0
SPLINE
5
166
100
AcDbEntity
8
0
100
AcDbSpline
70
0
71
2
72
6
73
3
74
0
42
0.000000001
43
0.0000000001
44
0.0000000001
40
0
40
0
40
0
40
1
40
1
40
1
10
-45.579093396663666
20
9.7235214710235596
30
0
10
-45.191197097301483
20
10.262723565101624
30
0
10
-45.053645074367523
20
10.972489714622498
30
0
0
LINE
5
167
100
AcDbEntity
8
0
100
AcDbLine
10
-45.053645074367516
20
10.972489714622498
30
0
11
-46.203577220439911
21
10.972489714622498
31
0
0
SPLINE
5
168
100
AcDbEntity
8
0
100
AcDbSpline
70
0
71
2
72
6
73
3
74
0
42
0.000000001
43
0.0000000001
44
0.0000000001
40
0
40
0
40
0
40
1
40
1
40
1
10
-46.203577220439911
20
10.972489714622498
30
0
10
-46.308115422725677
20
10.598349571228027
30
0
10
-46.552958190441132
20
10.303989052772522
30
0
0
SPLINE
5
169
100
AcDbEntity
8
0
100
AcDbSpline
70
0
71
2
72
6
73
3
74
0
42
0.000000001
43
0.0000000001
44
0.0000000001
40
0
40
0
40
0
40
1
40
1
40
1
10
-46.552958190441132
20
10.303989052772522
30
0
10
-46.79779976606369
20
10.009628534317017
30
0
10
-47.127923667430878
20
9.8500686883926392
30
0
0
SPLINE
5
170
100
AcDbEntity
8
0
100
AcDbSpline
70
0
71
2
72
6
73
3
74
0
42
0.000000001
43
0.0000000001
44
0.0000000001
40
0
40
0
40
0
40
1
40
1
40
1
10
-47.127923667430878
20
9.8500686883926392
30
0
10
-47.458047568798065
20
9.6905088424682617
30
0
10
-47.810179889202118
20
9.6905088424682617
30
0
0
SPLINE
5
171
100
AcDbEntity
8
0
100
AcDbSpline
70
0
71
2
72
6
73
3
74
0
42
0.000000001
43
0.0000000001
44
0.0000000001
40
0
40
0
40
0
40
1
40
1
40
1
10
-47.810179889202118
20
9.6905088424682617
30
0
10
-48.299863040447235
20
9.6905088424682617
30
0
10
-48.668501079082489
20
9.9270975589752197
30
0
0
SPLINE
5
172
100
AcDbEntity
8
0
100
AcDbSpline
70
0
71
2
72
6
73
3
74
0
42
0.000000001
43
0.0000000001
44
0.0000000001
40
0
40
0
40
0
40
1
40
1
40
1
10
-48.668501079082489
20
9.9270975589752197
30
0
10
-49.037140309810638
20
10.163686275482178
30
0
10
-49.240716397762299
20
10.590096116065979
30
0
0
SPLINE
5
173
100
AcDbEntity
8
0
100
AcDbSpline
70
0
71
2
72
6
73
3
74
0
42
0.000000001
43
0.0000000001
44
0.0000000001
40
0
40
0
40
0
40
1
40
1
40
1
10
-49.240716397762299
20
10.590096116065979
30
0
10
-49.444292485713959
20
11.01650595664978
30
0
10
-49.444292485713959
20
11.583218574523926
30
0
0
LINE
5
174
100
AcDbEntity
8
0
100
AcDbLine
10
-49.444292485713959
20
11.583218574523926
30
0
11
-49.444292485713959
21
13.778542280197144
31
0
0
SPLINE
5
175
100
AcDbEntity
8
0
100
AcDbSpline
70
0
71
2
72
6
73
3
74
0
42
0.000000001
43
0.0000000001
44
0.0000000001
40
0
40
0
40
0
40
1
40
1
40
1
10
-49.444292485713959
20
13.778542280197144
30
0
10
-49.444292485713959
20
14.339752197265625
30
0
10
-49.240716397762299
20
14.768913388252258
30
0
0
SPLINE
5
176
100
AcDbEntity
8
0
100
AcDbSpline
70
0
71
2
72
6
73
3
74
0
42
0.000000001
43
0.0000000001
44
0.0000000001
40
0
40
0
40
0
40
1
40
1
40
1
10
-49.240716397762299
20
14.768913388252258
30
0
10
-49.037140309810638
20
15.198074579238892
30
0
10
-48.668501079082489
20
15.431911945343018
30
0
0
SPLINE
5
177
100
AcDbEntity
8
0
100
AcDbSpline
70
0
71
2
72
6
73
3
74
0
42
0.000000001
43
0.0000000001
44
0.0000000001
40
0
40
0
40
0
40
1
40
1
40
1
10
-48.668501079082489
20
15.431911945343018
30
0
10
-48.299863040447235
20
15.665749311447144
30
0
10
-47.810179889202118
20
15.665749311447144
30
0
0
SPLINE
5
178
100
AcDbEntity
8
0
100
AcDbSpline
70
0
71
2
72
6
73
3
74
0
42
0.000000001
43
0.0000000001
44
0.0000000001
40
0
40
0
40
0
40
1
40
1
40
1
10
-47.810179889202118
20
15.665749311447144
30
0
10
-47.452546060085297
20
15.665749311447144
30
0
10
-47.125172317028046
20
15.517194271087646
30
0
0
SPLINE
5
179
100
AcDbEntity
8
0
100
AcDbSpline
70
0
71
2
72
6
73
3
74
0
42
0.000000001
43
0.0000000001
44
0.0000000001
40
0
40
0
40
0
40
1
40
1
40
1
10
-47.125172317028046
20
15.517194271087646
30
0
10
-46.79779976606369
20
15.368638038635254
30
0
10
-46.552958190441132
20
15.077029466629028
30
0
0
SPLINE
5
180
100
AcDbEntity
8
0
100
AcDbSpline
70
0
71
2
72
6
73
3
74
0
42
0.000000001
43
0.0000000001
44
0.0000000001
40
0
40
0
40
0
40
1
40
1
40
1
10
-46.552958190441132
20
15.077029466629028
30
0
10
-46.308115422725677
20
14.785419702529907
30
0
10
-46.203577220439911
20
14.383769035339355
30
0
0
LINE
5
181
100
AcDbEntity
8
0
100
AcDbLine
10
-46.203577220439911
20
14.383769035339355
30
0
11
-45.053645074367523
21
14.383769035339355
31
0
0
SPLINE
5
182
100
AcDbEntity
8
0
100
AcDbSpline
70
0
71
2
72
6
73
3
74
0
42
0.000000001
43
0.0000000001
44
0.0000000001
40
0
40
0
40
0
40
1
40
1
40
1
10
-45.053645074367523
20
14.383769035339355
30
0
10
-45.191197097301483
20
15.093535184860229
30
0
10
-45.581843554973602
20
15.632737874984741
30
0
0
SPLINE
5
183
100
AcDbEntity
8
0
100
AcDbSpline
70
0
71
2
72
6
73
3
74
0
42
0.000000001
43
0.0000000001
44
0.0000000001
40
0
40
0
40
0
40
1
40
1
40
1
10
-45.581843554973602
20
15.632737874984741
30
0
10
-45.972490012645721
20
16.171939373016357
30
0
10
-46.5502068400383
20
16.466300487518311
30
0
0
SPLINE
5
184
100
AcDbEntity
8
0
100
AcDbSpline
70
0
71
2
72
6
73
3
74
0
42
0.000000001
43
0.0000000001
44
0.0000000001
40
0
40
0
40
0
40
1
40
1
40
1
10
-46.5502068400383
20
16.466300487518311
30
0
10
-47.127923667430878
20
16.760660409927368
30
0
10
-47.810179889202118
20
16.760660409927368
30
0
0
SPLINE
5
185
100
AcDbEntity
8
0
100
AcDbSpline
70
0
71
2
72
6
73
3
74
0
42
0.000000001
43
0.0000000001
44
0.0000000001
40
0
40
0
40
0
40
1
40
1
40
1
10
-41.229711472988129
20
16.760660409927368
30
0
10
-42.0220085978508
20
16.760660409927368
30
0
10
-42.583219707012177
20
16.463549137115479
30
0
0
SPLINE
5
186
100
AcDbEntity
8
0
100
AcDbSpline
70
0
71
2
72
6
73
3
74
0
42
0.000000001
43
0.0000000001
44
0.0000000001
40
0
40
0
40
0
40
1
40
1
40
1
10
-42.583219707012177
20
16.463549137115479
30
0
10
-43.144429624080658
20
16.166437864303589
30
0
10
-43.438790738582611
20
15.591472387313843
30
0
0
SPLINE
5
187
100
AcDbEntity
8
0
100
AcDbSpline
70
0
71
2
72
6
73
3
74
0
42
0.000000001
43
0.0000000001
44
0.0000000001
40
0
40
0
40
0
40
1
40
1
40
1
10
-43.438790738582611
20
15.591472387313843
30
0
10
-43.733150660991669
20
15.016505718231201
30
0
10
-43.733150660991669
20
14.202200770378113
30
0
0
LINE
5
188
100
AcDbEntity
8
0
100
AcDbLine
10
-43.733150660991669
20
14.202200770378113
30
0
11
-43.733150660991669
21
13.558459281921387
31
0
0
SPLINE
5
189
100
AcDbEntity
8
0
100
AcDbSpline
70
0
71
2
72
6
73
3
74
0
42
0.000000001
43
0.0000000001
44
0.0000000001
40
0
40
0
40
0
40
1
40
1
40
1
10
-43.733150660991669
20
13.558459281921387
30
0
10
-43.733150660991669
20
12.711141705513
30
0
10
-43.449793756008148
20
12.111417055130005
30
0
0
SPLINE
5
190
100
AcDbEntity
8
0
100
AcDbSpline
70
0
71
2
72
6
73
3
74
0
42
0.000000001
43
0.0000000001
44
0.0000000001
40
0
40
0
40
0
40
1
40
1
40
1
10
-43.449793756008148
20
12.111417055130005
30
0
10
-43.166438043117523
20
11.511691808700562
30
0
10
-42.627235352993011
20
11.198074221611023
30
0
0
SPLINE
5
191
100
AcDbEntity
8
0
100
AcDbSpline
70
0
71
2
72
6
73
3
74
0
42
0.000000001
43
0.0000000001
44
0.0000000001
40
0
40
0
40
0
40
1
40
1
40
1
10
-42.627235352993011
20
11.198074221611023
30
0
10
-42.088033854961395
20
10.884456634521484
30
0
10
-41.328749358654022
20
10.884456634521484
30
0
0
SPLINE
5
192
100
AcDbEntity
8
0
100
AcDbSpline
70
0
71
2
72
6
73
3
74
0
42
0.000000001
43
0.0000000001
44
0.0000000001
40
0
40
0
40
0
40
1
40
1
40
1
10
-41.328749358654022
20
10.884456634521484
30
0
10
-40.613480508327484
20
10.884456634521484
30
0
10
-40.10729044675827
20
11.242091059684753
30
0
0
SPLINE
5
193
100
AcDbEntity
8
0
100
AcDbSpline
70
0
71
2
72
6
73
3
74
0
42
0.000000001
43
0.0000000001
44
0.0000000001
40
0
40
0
40
0
40
1
40
1
40
1
10
-40.10729044675827
20
11.242091059684753
30
0
10
-39.601100385189056
20
11.599724888801575
30
0
10
-39.334250390529633
20
12.276479005813599
30
0
0
SPLINE
5
194
100
AcDbEntity
8
0
100
AcDbSpline
70
0
71
2
72
6
73
3
74
0
42
0.000000001
43
0.0000000001
44
0.0000000001
40
0
40
0
40
0
40
1
40
1
40
1
10
-39.334250390529633
20
12.276479005813599
30
0
10
-39.067400395870209
20
12.953232526779175
30
0
10
-39.067400395870209
20
13.899587392807007
30
0
0
LINE
5
195
100
AcDbEntity
8
0
100
AcDbLine
10
-39.067400395870209
20
13.899587392807007
30
0
11
-39.067400395870209
21
14.273727536201477
31
0
0
LINE
5
196
100
AcDbEntity
8
0
100
AcDbLine
10
-39.067400395870209
20
14.273727536201477
30
0
11
-42.918845117092133
21
14.273727536201477
31
0
0
LINE
5
197
100
AcDbEntity
8
0
100
AcDbLine
10
-42.918845117092133
20
14.273727536201477
30
0
11
-42.918845117092133
21
13.371388912200928
31
0
0
LINE
5
198
100
AcDbEntity
8
0
100
AcDbLine
10
-42.918845117092133
20
13.371388912200928
30
0
11
-40.1348015666008
21
13.371388912200928
31
0
0
SPLINE
5
199
100
AcDbEntity
8
0
100
AcDbSpline
70
0
71
2
72
6
73
3
74
0
42
0.000000001
43
0.0000000001
44
0.0000000001
40
0
40
0
40
0
40
1
40
1
40
1
10
-40.1348015666008
20
13.371388912200928
30
0
10
-40.184319913387299
20
12.672626972198486
30
0
10
-40.495186746120453
20
12.284731864929199
30
0
0
SPLINE
5
200
100
AcDbEntity
8
0
100
AcDbSpline
70
0
71
2
72
6
73
3
74
0
42
0.000000001
43
0.0000000001
44
0.0000000001
40
0
40
0
40
0
40
1
40
1
40
1
10
-40.495186746120453
20
12.284731864929199
30
0
10
-40.806053578853607
20
11.896836757659912
30
0
10
-41.328749358654022
20
11.896836757659912
30
0
0
SPLINE
5
201
100
AcDbEntity
8
0
100
AcDbSpline
70
0
71
2
72
6
73
3
74
0
42
0.000000001
43
0.0000000001
44
0.0000000001
40
0
40
0
40
0
40
1
40
1
40
1
10
-41.328749358654022
20
11.896836757659912
30
0
10
-41.966987550258636
20
11.896836757659912
30
0
10
-42.316368520259857
20
12.314993143081665
30
0
0
SPLINE
5
202
100
AcDbEntity
8
0
100
AcDbSpline
70
0
71
2
72
6
73
3
74
0
42
0.000000001
43
0.0000000001
44
0.0000000001
40
0
40
0
40
0
40
1
40
1
40
1
10
-42.316368520259857
20
12.314993143081665
30
0
10
-42.665750682353973
20
12.733150124549866
30
0
10
-42.665750682353973
20
13.497936725616455
30
0
0
LINE
5
203
100
AcDbEntity
8
0
100
AcDbLine
10
-42.665750682353973
20
13.497936725616453
30
0
11
-42.665750682353973
21
14.224209189414978
31
0
0
SPLINE
5
204
100
AcDbEntity
8
0
100
AcDbSpline
70
0
71
2
72
6
73
3
74
0
42
0.000000001
43
0.0000000001
44
0.0000000001
40
0
40
0
40
0
40
1
40
1
40
1
10
-42.665750682353973
20
14.224209189414978
30
0
10
-42.665750682353973
20
14.933975338935852
30
0
10
-42.291609942913055
20
15.313618183135986
30
0
0
SPLINE
5
205
100
AcDbEntity
8
0
100
AcDbSpline
70
0
71
2
72
6
73
3
74
0
42
0.000000001
43
0.0000000001
44
0.0000000001
40
0
40
0
40
0
40
1
40
1
40
1
10
-42.291609942913055
20
15.313618183135986
30
0
10
-41.917470395565033
20
15.693260431289673
30
0
10
-41.229711472988129
20
15.693260431289673
30
0
0
SPLINE
5
206
100
AcDbEntity
8
0
100
AcDbSpline
70
0
71
2
72
6
73
3
74
0
42
0.000000001
43
0.0000000001
44
0.0000000001
40
0
40
0
40
0
40
1
40
1
40
1
10
-41.229711472988129
20
15.693260431289673
30
0
10
-40.888584554195404
20
15.693260431289673
30
0
10
-40.552957952022552
20
15.555708408355713
30
0
0
SPLINE
5
207
100
AcDbEntity
8
0
100
AcDbSpline
70
0
71
2
72
6
73
3
74
0
42
0.000000001
43
0.0000000001
44
0.0000000001
40
0
40
0
40
0
40
1
40
1
40
1
10
-40.552957952022552
20
15.555708408355713
30
0
10
-40.217332541942596
20
15.418157577514648
30
0
10
-39.953232705593109
20
15.170564651489258
30
0
0
LINE
5
208
100
AcDbEntity
8
0
100
AcDbLine
10
-39.953232705593116
20
15.170564651489258
30
0
11
-39.215956628322601
21
15.907840728759766
31
0
0
SPLINE
5
209
100
AcDbEntity
8
0
100
AcDbSpline
70
0
71
2
72
6
73
3
74
0
42
0.000000001
43
0.0000000001
44
0.0000000001
40
0
40
0
40
0
40
1
40
1
40
1
10
-39.215956628322601
20
15.907840728759766
30
0
10
-39.639616906642914
20
16.314992904663086
30
0
10
-40.167814195156097
20
16.537827253341675
30
0
0
SPLINE
5
210
100
AcDbEntity
8
0
100
AcDbSpline
70
0
71
2
72
6
73
3
74
0
42
0.000000001
43
0.0000000001
44
0.0000000001
40
0
40
0
40
0
40
1
40
1
40
1
10
-40.167814195156097
20
16.537827253341675
30
0
10
-40.696011483669281
20
16.760660409927368
30
0
10
-41.229711472988129
20
16.760660409927368
30
0
0
LWPOLYLINE
5
211
100
AcDbEntity
8
0
100
AcDbPolyline
90
4
70
1
43
0.0
10
-37.526822984218597
20
10.966987609863281
10
-36.404400765895844
20
10.966987609863281
10
-36.404400765895844
20
16.678129434585571
10
-37.526822984218597
20
16.678129434585571
0
SPLINE
5
212
100
AcDbEntity
8
0
100
AcDbSpline
70
0
71
2
72
6
73
3
74
0
42
0.000000001
43
0.0000000001
44
0.0000000001
40
0
40
0
40
0
40
1
40
1
40
1
10
-34.385143220424652
20
12.320495247840881
30
0
10
-34.533701837062836
20
12.138926982879639
30
0
10
-34.75928395986557
20
12.045391798019409
30
0
0
SPLINE
5
213
100
AcDbEntity
8
0
100
AcDbSpline
70
0
71
2
72
6
73
3
74
0
42
0.000000001
43
0.0000000001
44
0.0000000001
40
0
40
0
40
0
40
1
40
1
40
1
10
-34.75928395986557
20
12.045391798019409
30
0
10
-34.984870851039886
20
11.95185661315918
30
0
10
-35.281980931758881
20
11.95185661315918
30
0
0
SPLINE
5
214
100
AcDbEntity
8
0
100
AcDbSpline
70
0
71
2
72
6
73
3
74
0
42
0.000000001
43
0.0000000001
44
0.0000000001
40
0
40
0
40
0
40
1
40
1
40
1
10
-35.281980931758881
20
11.95185661315918
30
0
10
-35.815680921077728
20
11.95185661315918
30
0
10
-36.110042035579681
20
12.246217727661133
30
0
0
SPLINE
5
215
100
AcDbEntity
8
0
100
AcDbSpline
70
0
71
2
72
6
73
3
74
0
42
0.000000001
43
0.0000000001
44
0.0000000001
40
0
40
0
40
0
40
1
40
1
40
1
10
-36.110042035579681
20
12.246217727661133
30
0
10
-36.404400765895844
20
12.54057765007019
30
0
10
-36.404400765895844
20
13.063273429870605
30
0
0
LINE
5
216
100
AcDbEntity
8
0
100
AcDbLine
10
-36.404400765895844
20
13.063273429870605
30
0
11
-36.519945561885834
21
11.962860822677612
31
0
0
SPLINE
5
217
100
AcDbEntity
8
0
100
AcDbSpline
70
0
71
2
72
6
73
3
74
0
42
0.000000001
43
0.0000000001
44
0.0000000001
40
0
40
0
40
0
40
1
40
1
40
1
10
-36.519945561885834
20
11.962860822677612
30
0
10
-36.255846917629242
20
11.45116925239563
30
0
10
-35.837689340114594
20
11.167812943458557
30
0
0
SPLINE
5
218
100
AcDbEntity
8
0
100
AcDbSpline
70
0
71
2
72
6
73
3
74
0
42
0.000000001
43
0.0000000001
44
0.0000000001
40
0
40
0
40
0
40
1
40
1
40
1
10
-35.837689340114594
20
11.167812943458557
30
0
10
-35.419531762599945
20
10.884456634521484
30
0
10
-34.913342893123627
20
10.884456634521484
30
0
0
SPLINE
5
219
100
AcDbEntity
8
0
100
AcDbSpline
70
0
71
2
72
6
73
3
74
0
42
0.000000001
43
0.0000000001
44
0.0000000001
40
0
40
0
40
0
40
1
40
1
40
1
10
-34.913342893123627
20
10.884456634521484
30
0
10
-34.522696435451508
20
10.884456634521484
30
0
10
-34.20632928609848
20
10.997248888015747
30
0
0
SPLINE
5
220
100
AcDbEntity
8
0
100
AcDbSpline
70
0
71
2
72
6
73
3
74
0
42
0.000000001
43
0.0000000001
44
0.0000000001
40
0
40
0
40
0
40
1
40
1
40
1
10
-34.20632928609848
20
10.997248888015747
30
0
10
-33.889959752559662
20
11.11004114151001
30
0
10
-33.653369843959808
20
11.330123543739319
30
0
0
LINE
5
221
100
AcDbEntity
8
0
100
AcDbLine
10
-33.653369843959808
20
11.330123543739319
30
0
11
-34.385143220424652
21
12.320495247840881
31
0
0
SPLINE
5
222
100
AcDbEntity
8
0
100
AcDbSpline
70
0
71
2
72
6
73
3
74
0
42
0.000000001
43
0.0000000001
44
0.0000000001
40
0
40
0
40
0
40
1
40
1
40
1
10
-31.232462823390961
20
16.705639362335205
30
0
10
-31.925722062587738
20
16.705639362335205
30
0
10
-32.24759429693222
20
16.323245763778687
30
0
0
SPLINE
5
223
100
AcDbEntity
8
0
100
AcDbSpline
70
0
71
2
72
6
73
3
74
0
42
0.000000001
43
0.0000000001
44
0.0000000001
40
0
40
0
40
0
40
1
40
1
40
1
10
-32.24759429693222
20
16.323245763778687
30
0
10
-32.569464147090912
20
15.940853357315063
30
0
10
-32.569464147090912
20
15.192571878433228
30
0
0
LINE
5
224
100
AcDbEntity
8
0
100
AcDbLine
10
-32.569464147090912
20
15.192571878433228
30
0
11
-32.569464147090912
21
9.3053644895553589
31
0
0
LINE
5
225
100
AcDbEntity
8
0
100
AcDbLine
10
-32.569464147090912
20
9.3053644895553589
30
0
11
-31.447044312953949
21
9.3053644895553589
31
0
0
LINE
5
226
100
AcDbEntity
8
0
100
AcDbLine
10
-31.447044312953949
20
9.3053644895553589
30
0
11
-31.447044312953949
21
15.20357608795166
31
0
0
SPLINE
5
227
100
AcDbEntity
8
0
100
AcDbSpline
70
0
71
2
72
6
73
3
74
0
42
0.000000001
43
0.0000000001
44
0.0000000001
40
0
40
0
40
0
40
1
40
1
40
1
10
-31.447044312953949
20
15.20357608795166
30
0
10
-31.447044312953949
20
15.412654876708984
30
0
10
-31.364513337612152
20
15.525447130203247
30
0
0
SPLINE
5
228
100
AcDbEntity
8
0
100
AcDbSpline
70
0
71
2
72
6
73
3
74
0
42
0.000000001
43
0.0000000001
44
0.0000000001
40
0
40
0
40
0
40
1
40
1
40
1
10
-31.364513337612152
20
15.525447130203247
30
0
10
-31.281982362270355
20
15.63823938369751
30
0
10
-31.122420728206635
20
15.63823938369751
30
0
0
LINE
5
229
100
AcDbEntity
8
0
100
AcDbLine
10
-31.122420728206631
20
15.63823938369751
30
0
11
-30.583220422267914
21
15.63823938369751
31
0
0
LINE
5
230
100
AcDbEntity
8
0
100
AcDbLine
10
-30.583220422267914
20
15.63823938369751
30
0
11
-30.583220422267914
21
16.705639362335205
31
0
0
LINE
5
231
100
AcDbEntity
8
0
100
AcDbLine
10
-30.583220422267914
20
16.705639362335205
30
0
11
-31.232462823390961
21
16.705639362335205
31
0
0
LWPOLYLINE
5
232
100
AcDbEntity
8
0
100
AcDbPolyline
90
4
70
1
43
0.0
10
-33.158183991909027
20
10.966987609863281
10
-30.583220422267914
20
10.966987609863281
10
-30.583220422267914
20
11.979367136955261
10
-33.158183991909027
20
11.979367136955261
0
LWPOLYLINE
5
233
100
AcDbEntity
8
0
100
AcDbPolyline
90
4
70
1
43
0.0
10
-29.042640626430511
20
8.6781293153762817
10
-27.920220792293549
20
8.6781293153762817
10
-27.920220792293549
20
9.8005503416061401
10
-29.042640626430511
20
9.8005503416061401
0
LWPOLYLINE
5
234
100
AcDbEntity
8
0
100
AcDbPolyline
90
4
70
1
43
0.0
10
-29.042640626430511
20
10.966987609863281
10
-27.920220792293549
20
10.966987609863281
10
-27.920220792293549
20
16.678129434585571
10
-29.042640626430511
20
16.678129434585571
0
SPLINE
5
235
100
AcDbEntity
8
0
100
AcDbSpline
70
0
71
2
72
6
73
3
74
0
42
0.000000001
43
0.0000000001
44
0.0000000001
40
0
40
0
40
0
40
1
40
1
40
1
10
-26.049517095088959
20
10.191196799278259
30
0
10
-26.049517095088959
20
9.4319117069244385
30
0
10
-25.700136125087738
20
9.055020809173584
30
0
0
SPLINE
5
236
100
AcDbEntity
8
0
100
AcDbSpline
70
0
71
2
72
6
73
3
74
0
42
0.000000001
43
0.0000000001
44
0.0000000001
40
0
40
0
40
0
40
1
40
1
40
1
10
-25.700136125087738
20
9.055020809173584
30
0
10
-25.350755155086517
20
8.6781293153762817
30
0
10
-24.624484479427338
20
8.6781293153762817
30
0
0
LINE
5
237
100
AcDbEntity
8
0
100
AcDbLine
10
-24.624484479427338
20
8.6781293153762817
30
0
11
-23.799174726009369
21
8.6781293153762817
31
0
0
LINE
5
238
100
AcDbEntity
8
0
100
AcDbLine
10
-23.799174726009369
20
8.6781293153762817
30
0
11
-23.799174726009369
21
9.7455292940139771
31
0
0
LINE
5
239
100
AcDbEntity
8
0
100
AcDbLine
10
-23.799174726009369
20
9.7455292940139771
30
0
11
-24.602476060390472
21
9.7455292940139771
31
0
0
SPLINE
5
240
100
AcDbEntity
8
0
100
AcDbSpline
70
0
71
2
72
6
73
3
74
0
42
0.000000001
43
0.0000000001
44
0.0000000001
40
0
40
0
40
0
40
1
40
1
40
1
10
-24.602476060390472
20
9.7455292940139771
30
0
10
-24.762035310268402
20
9.7455292940139771
30
0
10
-24.844566285610199
20
9.8665750026702881
30
0
0
SPLINE
5
241
100
AcDbEntity
8
0
100
AcDbSpline
70
0
71
2
72
6
73
3
74
0
42
0.000000001
43
0.0000000001
44
0.0000000001
40
0
40
0
40
0
40
1
40
1
40
1
10
-24.844566285610199
20
9.8665750026702881
30
0
10
-24.927097260951996
20
9.9876201152801514
30
0
10
-24.927097260951996
20
10.180192589759827
30
0
0
LINE
5
242
100
AcDbEntity
8
0
100
AcDbLine
10
-24.927097260951996
20
10.180192589759828
30
0
11
-24.927097260951996
21
16.678129434585571
31
0
0
LINE
5
243
100
AcDbEntity
8
0
100
AcDbLine
10
-24.927097260951996
20
16.678129434585571
30
0
11
-26.049517095088959
21
16.678129434585571
31
0
0
LINE
5
244
100
AcDbEntity
8
0
100
AcDbLine
10
-26.049517095088959
20
16.678129434585571
30
0
11
-26.049517095088959
21
10.191196799278259
31
0
0
LWPOLYLINE
5
245
100
AcDbEntity
8
0
100
AcDbPolyline
90
4
70
1
43
0.0
10
-26.654745042324066
20
10.966987609863281
10
-23.799174726009369
20
10.966987609863281
10
-23.799174726009369
20
11.924346685409546
10
-26.654745042324066
20
11.924346685409546
0
LWPOLYLINE
5
246
100
AcDbEntity
8
0
100
AcDbPolyline
90
4
70
1
43
0.0
10
-22.643741071224213
20
8.6781293153762817
10
-21.52132123708725
20
8.6781293153762817
10
-21.52132123708725
20
9.8005503416061401
10
-22.643741071224213
20
9.8005503416061401
0
LWPOLYLINE
5
247
100
AcDbEntity
8
0
100
AcDbPolyline
90
4
70
1
43
0.0
10
-22.643741071224213
20
10.966987609863281
10
-21.52132123708725
20
10.966987609863281
10
-21.52132123708725
20
16.678129434585571
10
-22.643741071224213
20
16.678129434585571
0
SPLINE
5
248
100
AcDbEntity
8
0
100
AcDbSpline
70
0
71
2
72
6
73
3
74
0
42
0.000000001
43
0.0000000001
44
0.0000000001
40
0
40
0
40
0
40
1
40
1
40
1
10
-17.477303445339203
20
16.760660409927368
30
0
10
-18.269601762294769
20
16.760660409927368
30
0
10
-18.830815255641937
20
16.463549137115479
30
0
0
SPLINE
5
249
100
AcDbEntity
8
0
100
AcDbSpline
70
0
71
2
72
6
73
3
74
0
42
0.000000001
43
0.0000000001
44
0.0000000001
40
0
40
0
40
0
40
1
40
1
40
1
10
-18.830815255641937
20
16.463549137115479
30
0
10
-19.392023980617523
20
16.166437864303589
30
0
10
-19.686385095119476
20
15.591472387313843
30
0
0
SPLINE
5
250
100
AcDbEntity
8
0
100
AcDbSpline
70
0
71
2
72
6
73
3
74
0
42
0.000000001
43
0.0000000001
44
0.0000000001
40
0
40
0
40
0
40
1
40
1
40
1
10
-19.686385095119476
20
15.591472387313843
30
0
10
-19.980746209621429
20
15.016505718231201
30
0
10
-19.980746209621429
20
14.202200770378113
30
0
0
LINE
5
251
100
AcDbEntity
8
0
100
AcDbLine
10
-19.980746209621429
20
14.202200770378113
30
0
11
-19.980746209621429
21
13.558459281921387
31
0
0
SPLINE
5
252
100
AcDbEntity
8
0
100
AcDbSpline
70
0
71
2
72
6
73
3
74
0
42
0.000000001
43
0.0000000001
44
0.0000000001
40
0
40
0
40
0
40
1
40
1
40
1
10
-19.980746209621429
20
13.558459281921387
30
0
10
-19.980746209621429
20
12.711141705513
30
0
10
-19.697390496730804
20
12.111417055130005
30
0
0
SPLINE
5
253
100
AcDbEntity
8
0
100
AcDbSpline
70
0
71
2
72
6
73
3
74
0
42
0.000000001
43
0.0000000001
44
0.0000000001
40
0
40
0
40
0
40
1
40
1
40
1
10
-19.697390496730804
20
12.111417055130005
30
0
10
-19.414034783840179
20
11.511691808700562
30
0
10
-18.874827325344086
20
11.198074221611023
30
0
0
SPLINE
5
254
100
AcDbEntity
8
0
100
AcDbSpline
70
0
71
2
72
6
73
3
74
0
42
0.000000001
43
0.0000000001
44
0.0000000001
40
0
40
0
40
0
40
1
40
1
40
1
10
-18.874827325344086
20
11.198074221611023
30
0
10
-18.335629403591156
20
10.884456634521484
30
0
10
-17.576342523097992
20
10.884456634521484
30
0
0
SPLINE
5
255
100
AcDbEntity
8
0
100
AcDbSpline
70
0
71
2
72
6
73
3
74
0
42
0.000000001
43
0.0000000001
44
0.0000000001
40
0
40
0
40
0
40
1
40
1
40
1
10
-17.576342523097992
20
10.884456634521484
30
0
10
-16.86107724905014
20
10.884456634521484
30
0
10
-16.354885995388031
20
11.242091059684753
30
0
0
SPLINE
5
256
100
AcDbEntity
8
0
100
AcDbSpline
70
0
71
2
72
6
73
3
74
0
42
0.000000001
43
0.0000000001
44
0.0000000001
40
0
40
0
40
0
40
1
40
1
40
1
10
-16.354885995388031
20
11.242091059684753
30
0
10
-15.848694741725922
20
11.599724888801575
30
0
10
-15.581847131252289
20
12.276479005813599
30
0
0
SPLINE
5
257
100
AcDbEntity
8
0
100
AcDbSpline
70
0
71
2
72
6
73
3
74
0
42
0.000000001
43
0.0000000001
44
0.0000000001
40
0
40
0
40
0
40
1
40
1
40
1
10
-15.581847131252289
20
12.276479005813599
30
0
10
-15.314994752407074
20
12.953232526779175
30
0
10
-15.314994752407074
20
13.899587392807007
30
0
0
LINE
5
258
100
AcDbEntity
8
0
100
AcDbLine
10
-15.314994752407074
20
13.899587392807007
30
0
11
-15.314994752407074
21
14.273727536201477
31
0
0
LINE
5
259
100
AcDbEntity
8
0
100
AcDbLine
10
-15.314994752407074
20
14.273727536201477
30
0
11
-19.166441857814789
21
14.273727536201477
31
0
0
LINE
5
260
100
AcDbEntity
8
0
100
AcDbLine
10
-19.166441857814789
20
14.273727536201477
30
0
11
-19.166441857814789
21
13.371388912200928
31
0
0
LINE
5
261
100
AcDbEntity
8
0
100
AcDbLine
10
-19.166441857814789
20
13.371388912200928
30
0
11
-16.382394731044769
21
13.371388912200928
31
0
0
SPLINE
5
262
100
AcDbEntity
8
0
100
AcDbSpline
70
0
71
2
72
6
73
3
74
0
42
0.000000001
43
0.0000000001
44
0.0000000001
40
0
40
0
40
0
40
1
40
1
40
1
10
-16.382394731044769
20
13.371388912200928
30
0
10
-16.431914269924164
20
12.672626972198486
30
0
10
-16.742778718471527
20
12.284731864929199
30
0
0
SPLINE
5
263
100
AcDbEntity
8
0
100
AcDbSpline
70
0
71
2
72
6
73
3
74
0
42
0.000000001
43
0.0000000001
44
0.0000000001
40
0
40
0
40
0
40
1
40
1
40
1
10
-16.742778718471527
20
12.284731864929199
30
0
10
-17.05364316701889
20
11.896836757659912
30
0
10
-17.576342523097992
20
11.896836757659912
30
0
0
SPLINE
5
264
100
AcDbEntity
8
0
100
AcDbSpline
70
0
71
2
72
6
73
3
74
0
42
0.000000001
43
0.0000000001
44
0.0000000001
40
0
40
0
40
0
40
1
40
1
40
1
10
-17.576342523097992
20
11.896836757659912
30
0
10
-18.214579522609711
20
11.896836757659912
30
0
10
-18.563962876796722
20
12.314993143081665
30
0
0
SPLINE
5
265
100
AcDbEntity
8
0
100
AcDbSpline
70
0
71
2
72
6
73
3
74
0
42
0.000000001
43
0.0000000001
44
0.0000000001
40
0
40
0
40
0
40
1
40
1
40
1
10
-18.563962876796722
20
12.314993143081665
30
0
10
-18.913346230983734
20
12.733150124549866
30
0
10
-18.913346230983734
20
13.497936725616455
30
0
0
LINE
5
266
100
AcDbEntity
8
0
100
AcDbLine
10
-18.913346230983734
20
13.497936725616453
30
0
11
-18.913346230983734
21
14.224209189414978
31
0
0
SPLINE
5
267
100
AcDbEntity
8
0
100
AcDbSpline
70
0
71
2
72
6
73
3
74
0
42
0.000000001
43
0.0000000001
44
0.0000000001
40
0
40
0
40
0
40
1
40
1
40
1
10
-18.913346230983734
20
14.224209189414978
30
0
10
-18.913346230983734
20
14.933975338935852
30
0
10
-18.539200723171234
20
15.313618183135986
30
0
0
SPLINE
5
268
100
AcDbEntity
8
0
100
AcDbSpline
70
0
71
2
72
6
73
3
74
0
42
0.000000001
43
0.0000000001
44
0.0000000001
40
0
40
0
40
0
40
1
40
1
40
1
10
-18.539200723171234
20
15.313618183135986
30
0
10
-18.165064752101898
20
15.693260431289673
30
0
10
-17.477303445339203
20
15.693260431289673
30
0
0
SPLINE
5
269
100
AcDbEntity
8
0
100
AcDbSpline
70
0
71
2
72
6
73
3
74
0
42
0.000000001
43
0.0000000001
44
0.0000000001
40
0
40
0
40
0
40
1
40
1
40
1
10
-17.477303445339203
20
15.693260431289673
30
0
10
-17.136174142360687
20
15.693260431289673
30
0
10
-16.800547540187836
20
15.555708408355713
30
0
0
SPLINE
5
270
100
AcDbEntity
8
0
100
AcDbSpline
70
0
71
2
72
6
73
3
74
0
42
0.000000001
43
0.0000000001
44
0.0000000001
40
0
40
0
40
0
40
1
40
1
40
1
10
-16.800547540187836
20
15.555708408355713
30
0
10
-16.464925706386566
20
15.418157577514648
30
0
10
-16.200829446315765
20
15.170564651489258
30
0
0
LINE
5
271
100
AcDbEntity
8
0
100
AcDbLine
10
-16.200829446315762
20
15.170564651489258
30
0
11
-15.463553369045258
21
15.907840728759766
31
0
0
SPLINE
5
272
100
AcDbEntity
8
0
100
AcDbSpline
70
0
71
2
72
6
73
3
74
0
42
0.000000001
43
0.0000000001
44
0.0000000001
40
0
40
0
40
0
40
1
40
1
40
1
10
-15.463553369045258
20
15.907840728759766
30
0
10
-15.887208878993988
20
16.314992904663086
30
0
10
-16.415406167507172
20
16.537827253341675
30
0
0
SPLINE
5
273
100
AcDbEntity
8
0
100
AcDbSpline
70
0
71
2
72
6
73
3
74
0
42
0.000000001
43
0.0000000001
44
0.0000000001
40
0
40
0
40
0
40
1
40
1
40
1
10
-16.415406167507172
20
16.537827253341675
30
0
10
-16.943608224391937
20
16.760660409927368
30
0
10
-17.477303445339203
20
16.760660409927368
30
0
0
LWPOLYLINE
5
274
100
AcDbEntity
8
0
100
AcDbPolyline
90
4
70
1
43
0.0
10
-10.528193414211273
20
8.6781293153762817
10
-9.4057759642601013
20
8.6781293153762817
10
-9.4057759642601013
20
16.678129434585571
10
-10.528193414211273
20
16.678129434585571
0
SPLINE
5
275
100
AcDbEntity
8
0
100
AcDbSpline
70
0
71
2
72
6
73
3
74
0
42
0.000000001
43
0.0000000001
44
0.0000000001
40
0
40
0
40
0
40
1
40
1
40
1
10
-11.964236199855804
20
16.777166128158569
30
0
10
-12.591467797756195
20
16.777166128158569
30
0
10
-13.034387528896332
20
16.504814624786377
30
0
0
SPLINE
5
276
100
AcDbEntity
8
0
100
AcDbSpline
70
0
71
2
72
6
73
3
74
0
42
0.000000001
43
0.0000000001
44
0.0000000001
40
0
40
0
40
0
40
1
40
1
40
1
10
-13.034387528896332
20
16.504814624786377
30
0
10
-13.477302491664886
20
16.232461929321289
30
0
10
-13.708392083644867
20
15.709766149520874
30
0
0
SPLINE
5
277
100
AcDbEntity
8
0
100
AcDbSpline
70
0
71
2
72
6
73
3
74
0
42
0.000000001
43
0.0000000001
44
0.0000000001
40
0
40
0
40
0
40
1
40
1
40
1
10
-13.708392083644867
20
15.709766149520874
30
0
10
-13.939476907253265
20
15.187070369720459
30
0
10
-13.939476907253265
20
14.45529580116272
30
0
0
LINE
5
278
100
AcDbEntity
8
0
100
AcDbLine
10
-13.939476907253265
20
14.455295801162722
30
0
11
-13.939476907253265
21
13.195323348045349
31
0
0
SPLINE
5
279
100
AcDbEntity
8
0
100
AcDbSpline
70
0
71
2
72
6
73
3
74
0
42
0.000000001
43
0.0000000001
44
0.0000000001
40
0
40
0
40
0
40
1
40
1
40
1
10
-13.939476907253265
20
13.195323348045349
30
0
10
-13.939476907253265
20
12.458046674728394
30
0
10
-13.713894784450531
20
11.935350894927979
30
0
0
SPLINE
5
280
100
AcDbEntity
8
0
100
AcDbSpline
70
0
71
2
72
6
73
3
74
0
42
0.000000001
43
0.0000000001
44
0.0000000001
40
0
40
0
40
0
40
1
40
1
40
1
10
-13.713894784450531
20
11.935350894927979
30
0
10
-13.488307893276215
20
11.412655115127563
30
0
10
-13.056393563747406
20
11.140303015708923
30
0
0
SPLINE
5
281
100
AcDbEntity
8
0
100
AcDbSpline
70
0
71
2
72
6
73
3
74
0
42
0.000000001
43
0.0000000001
44
0.0000000001
40
0
40
0
40
0
40
1
40
1
40
1
10
-13.056393563747406
20
11.140303015708923
30
0
10
-12.624484002590179
20
10.867950320243835
30
0
10
-12.019253671169281
20
10.867950320243835
30
0
0
SPLINE
5
282
100
AcDbEntity
8
0
100
AcDbSpline
70
0
71
2
72
6
73
3
74
0
42
0.000000001
43
0.0000000001
44
0.0000000001
40
0
40
0
40
0
40
1
40
1
40
1
10
-12.019253671169281
20
10.867950320243835
30
0
10
-11.513067185878754
20
10.867950320243835
30
0
10
-11.092158257961273
20
11.132049560546875
30
0
0
SPLINE
5
283
100
AcDbEntity
8
0
100
AcDbSpline
70
0
71
2
72
6
73
3
74
0
42
0.000000001
43
0.0000000001
44
0.0000000001
40
0
40
0
40
0
40
1
40
1
40
1
10
-11.092158257961273
20
11.132049560546875
30
0
10
-10.671254098415375
20
11.396148800849915
30
0
10
-10.412655770778656
20
11.874828338623047
30
0
0
LINE
5
284
100
AcDbEntity
8
0
100
AcDbLine
10
-10.412655770778656
20
11.874828338623047
30
0
11
-10.528193414211273
21
13.041265606880188
31
0
0
SPLINE
5
285
100
AcDbEntity
8
0
100
AcDbSpline
70
0
71
2
72
6
73
3
74
0
42
0.000000001
43
0.0000000001
44
0.0000000001
40
0
40
0
40
0
40
1
40
1
40
1
10
-10.528193414211273
20
13.041265606880188
30
0
10
-10.528193414211273
20
12.678129076957703
30
0
10
-10.660248696804047
20
12.419532537460327
30
0
0
SPLINE
5
286
100
AcDbEntity
8
0
100
AcDbSpline
70
0
71
2
72
6
73
3
74
0
42
0.000000001
43
0.0000000001
44
0.0000000001
40
0
40
0
40
0
40
1
40
1
40
1
10
-10.660248696804047
20
12.419532537460327
30
0
10
-10.792294442653656
20
12.160935401916504
30
0
10
-11.042643487453461
20
12.026134729385376
30
0
0
SPLINE
5
287
100
AcDbEntity
8
0
100
AcDbSpline
70
0
71
2
72
6
73
3
74
0
42
0.000000001
43
0.0000000001
44
0.0000000001
40
0
40
0
40
0
40
1
40
1
40
1
10
-11.042643487453461
20
12.026134729385376
30
0
10
-11.292982995510101
20
11.891334056854248
30
0
10
-11.650620400905609
20
11.891334056854248
30
0
0
SPLINE
5
288
100
AcDbEntity
8
0
100
AcDbSpline
70
0
71
2
72
6
73
3
74
0
42
0.000000001
43
0.0000000001
44
0.0000000001
40
0
40
0
40
0
40
1
40
1
40
1
10
-11.650620400905609
20
11.891334056854248
30
0
10
-12.206326425075531
20
11.891334056854248
30
0
10
-12.511692941188812
20
12.237964272499084
30
0
0
SPLINE
5
289
100
AcDbEntity
8
0
100
AcDbSpline
70
0
71
2
72
6
73
3
74
0
42
0.000000001
43
0.0000000001
44
0.0000000001
40
0
40
0
40
0
40
1
40
1
40
1
10
-12.511692941188812
20
12.237964272499084
30
0
10
-12.817059457302094
20
12.584594488143921
30
0
10
-12.817059457302094
20
13.211829662322998
30
0
0
LINE
5
290
100
AcDbEntity
8
0
100
AcDbLine
10
-12.817059457302094
20
13.211829662322998
30
0
11
-12.817059457302094
21
14.45529580116272
31
0
0
SPLINE
5
291
100
AcDbEntity
8
0
100
AcDbSpline
70
0
71
2
72
6
73
3
74
0
42
0.000000001
43
0.0000000001
44
0.0000000001
40
0
40
0
40
0
40
1
40
1
40
1
10
-12.817059457302094
20
14.45529580116272
30
0
10
-12.817059457302094
20
15.077029466629028
30
0
10
-12.511692941188812
20
15.415406227111816
30
0
0
SPLINE
5
292
100
AcDbEntity
8
0
100
AcDbSpline
70
0
71
2
72
6
73
3
74
0
42
0.000000001
43
0.0000000001
44
0.0000000001
40
0
40
0
40
0
40
1
40
1
40
1
10
-12.511692941188812
20
15.415406227111816
30
0
10
-12.206326425075531
20
15.753782987594604
30
0
10
-11.650620400905609
20
15.753782987594604
30
0
0
SPLINE
5
293
100
AcDbEntity
8
0
100
AcDbSpline
70
0
71
2
72
6
73
3
74
0
42
0.000000001
43
0.0000000001
44
0.0000000001
40
0
40
0
40
0
40
1
40
1
40
1
10
-11.650620400905609
20
15.753782987594604
30
0
10
-11.292982995510101
20
15.753782987594604
30
0
10
-11.042643487453461
20
15.613479614257812
30
0
0
SPLINE
5
294
100
AcDbEntity
8
0
100
AcDbSpline
70
0
71
2
72
6
73
3
74
0
42
0.000000001
43
0.0000000001
44
0.0000000001
40
0
40
0
40
0
40
1
40
1
40
1
10
-11.042643487453461
20
15.613479614257812
30
0
10
-10.792294442653656
20
15.473177433013916
30
0
10
-10.660248696804047
20
15.209078788757324
30
0
0
SPLINE
5
295
100
AcDbEntity
8
0
100
AcDbSpline
70
0
71
2
72
6
73
3
74
0
42
0.000000001
43
0.0000000001
44
0.0000000001
40
0
40
0
40
0
40
1
40
1
40
1
10
-10.660248696804047
20
15.209078788757324
30
0
10
-10.528193414211273
20
14.944979548454285
30
0
10
-10.528193414211273
20
14.576340913772583
30
0
0
LINE
5
296
100
AcDbEntity
8
0
100
AcDbLine
10
-10.528193414211273
20
14.576340913772581
30
0
11
-10.45116513967514
21
15.781292915344238
31
0
0
SPLINE
5
297
100
AcDbEntity
8
0
100
AcDbSpline
70
0
71
2
72
6
73
3
74
0
42
0.000000001
43
0.0000000001
44
0.0000000001
40
0
40
0
40
0
40
1
40
1
40
1
10
-10.45116513967514
20
15.781292915344238
30
0
10
-10.621729791164398
20
16.204952001571655
30
0
10
-11.009627282619476
20
16.491059064865112
30
0
0
SPLINE
5
298
100
AcDbEntity
8
0
100
AcDbSpline
70
0
71
2
72
6
73
3
74
0
42
0.000000001
43
0.0000000001
44
0.0000000001
40
0
40
0
40
0
40
1
40
1
40
1
10
-11.009627282619476
20
16.491059064865112
30
0
10
-11.397524774074554
20
16.777166128158569
30
0
10
-11.964236199855804
20
16.777166128158569
30
0
0
LINE
5
299
100
AcDbEntity
8
0
100
AcDbLine
10
-55.240718424320221
20
29.162311553955078
30
0
11
-53.072905242443085
21
29.162311553955078
31
0
0
SPLINE
5
300
100
AcDbEntity
8
0
100
AcDbSpline
70
0
71
2
72
6
73
3
74
0
42
0.000000001
43
0.0000000001
44
0.0000000001
40
0
40
0
40
0
40
1
40
1
40
1
10
-53.072905242443085
20
29.162311553955078
30
0
10
-52.220085561275482
20
29.162311553955078
30
0
10
-51.829439103603363
20
28.837687969207764
30
0
0
SPLINE
5
301
100
AcDbEntity
8
0
100
AcDbSpline
70
0
71
2
72
6
73
3
74
0
42
0.000000001
43
0.0000000001
44
0.0000000001
40
0
40
0
40
0
40
1
40
1
40
1
10
-51.829439103603363
20
28.837687969207764
30
0
10
-51.438792645931244
20
28.51306676864624
30
0
10
-51.438792645931244
20
27.924346923828125
30
0
0
LINE
5
302
100
AcDbEntity
8
0
100
AcDbLine
10
-51.438792645931244
20
27.924346923828129
30
0
11
-51.438792645931244
21
27.907838821411133
31
0
0
SPLINE
5
303
100
AcDbEntity
8
0
100
AcDbSpline
70
0
71
2
72
6
73
3
74
0
42
0.000000001
43
0.0000000001
44
0.0000000001
40
0
40
0
40
0
40
1
40
1
40
1
10
-51.438792645931244
20
27.907838821411133
30
0
10
-51.438792645931244
20
27.500686645507812
30
0
10
-51.57909482717514
20
27.209076881408691
30
0
0
SPLINE
5
304
100
AcDbEntity
8
0
100
AcDbSpline
70
0
71
2
72
6
73
3
74
0
42
0.000000001
43
0.0000000001
44
0.0000000001
40
0
40
0
40
0
40
1
40
1
40
1
10
-51.57909482717514
20
27.209076881408691
30
0
10
-51.719397604465485
20
26.917469501495361
30
0
10
-52.022010982036591
20
26.760659217834473
30
0
0
SPLINE
5
305
100
AcDbEntity
8
0
100
AcDbSpline
70
0
71
2
72
6
73
3
74
0
42
0.000000001
43
0.0000000001
44
0.0000000001
40
0
40
0
40
0
40
1
40
1
40
1
10
-52.022010982036591
20
26.760659217834473
30
0
10
-52.324624955654144
20
26.603851318359375
30
0
10
-52.79780238866806
20
26.603851318359375
30
0
0
LINE
5
306
100
AcDbEntity
8
0
100
AcDbLine
10
-52.79780238866806
20
26.603851318359375
30
0
11
-55.240718424320221
21
26.603851318359375
31
0
0
LINE
5
307
100
AcDbEntity
8
0
100
AcDbLine
10
-55.240718424320221
20
26.603851318359375
30
0
11
-55.240718424320221
21
25.591471195220947
31
0
0
LINE
5
308
100
AcDbEntity
8
0
100
AcDbLine
10
-55.240718424320221
20
25.591471195220947
30
0
11
-52.79780238866806
21
25.591471195220947
31
0
0
SPLINE
5
309
100
AcDbEntity
8
0
100
AcDbSpline
70
0
71
2
72
6
73
3
74
0
42
0.000000001
43
0.0000000001
44
0.0000000001
40
0
40
0
40
0
40
1
40
1
40
1
10
-52.79780238866806
20
25.591471195220947
30
0
10
-52.176068723201752
20
25.591471195220947
30
0
10
-51.859700381755829
20
25.299861431121826
30
0
0
SPLINE
5
310
100
AcDbEntity
8
0
100
AcDbSpline
70
0
71
2
72
6
73
3
74
0
42
0.000000001
43
0.0000000001
44
0.0000000001
40
0
40
0
40
0
40
1
40
1
40
1
10
-51.859700381755829
20
25.299861431121826
30
0
10
-51.543332040309906
20
25.008251667022705
30
0
10
-51.543332040309906
20
24.436037540435791
30
0
0
SPLINE
5
311
100
AcDbEntity
8
0
100
AcDbSpline
70
0
71
2
72
6
73
3
74
0
42
0.000000001
43
0.0000000001
44
0.0000000001
40
0
40
0
40
0
40
1
40
1
40
1
10
-51.543332040309906
20
24.436037540435791
30
0
10
-51.543332040309906
20
23.836312294006348
30
0
10
-51.895463764667511
20
23.539202213287354
30
0
0
SPLINE
5
312
100
AcDbEntity
8
0
100
AcDbSpline
70
0
71
2
72
6
73
3
74
0
42
0.000000001
43
0.0000000001
44
0.0000000001
40
0
40
0
40
0
40
1
40
1
40
1
10
-51.895463764667511
20
23.539202213287354
30
0
10
-52.247595489025116
20
23.242089748382568
30
0
10
-52.951860129833221
20
23.242089748382568
30
0
0
LINE
5
313
100
AcDbEntity
8
0
100
AcDbLine
10
-52.951860129833221
20
23.242089748382568
30
0
11
-55.240718424320221
21
23.242089748382568
31
0
0
LINE
5
314
100
AcDbEntity
8
0
100
AcDbLine
10
-55.240718424320221
20
23.242089748382568
30
0
11
-55.240718424320221
21
22.202200889587402
31
0
0
LINE
5
315
100
AcDbEntity
8
0
100
AcDbLine
10
-55.240718424320221
20
22.202200889587402
30
0
11
-52.748283445835114
21
22.202200889587402
31
0
0
SPLINE
5
316
100
AcDbEntity
8
0
100
AcDbSpline
70
0
71
2
72
6
73
3
74
0
42
0.000000001
43
0.0000000001
44
0.0000000001
40
0
40
0
40
0
40
1
40
1
40
1
10
-52.748283445835114
20
22.202200889587402
30
0
10
-51.972492635250092
20
22.202200889587402
30
0
10
-51.449796855449677
20
22.466299533843994
30
0
0
SPLINE
5
317
100
AcDbEntity
8
0
100
AcDbSpline
70
0
71
2
72
6
73
3
74
0
42
0.000000001
43
0.0000000001
44
0.0000000001
40
0
40
0
40
0
40
1
40
1
40
1
10
-51.449796855449677
20
22.466299533843994
30
0
10
-50.927100479602814
20
22.730398178100586
30
0
10
-50.668503940105438
20
23.214579820632935
30
0
0
SPLINE
5
318
100
AcDbEntity
8
0
100
AcDbSpline
70
0
71
2
72
6
73
3
74
0
42
0.000000001
43
0.0000000001
44
0.0000000001
40
0
40
0
40
0
40
1
40
1
40
1
10
-50.668503940105438
20
23.214579820632935
30
0
10
-50.409906804561615
20
23.698761463165283
30
0
10
-50.409906804561615
20
24.370012283325195
30
0
0
SPLINE
5
319
100
AcDbEntity
8
0
100
AcDbSpline
70
0
71
2
72
6
73
3
74
0
42
0.000000001
43
0.0000000001
44
0.0000000001
40
0
40
0
40
0
40
1
40
1
40
1
10
-50.409906804561615
20
24.370012283325195
30
0
10
-50.409906804561615
20
24.78266716003418
30
0
10
-50.569466054439545
20
25.143053531646729
30
0
0
SPLINE
5
320
100
AcDbEntity
8
0
100
AcDbSpline
70
0
71
2
72
6
73
3
74
0
42
0.000000001
43
0.0000000001
44
0.0000000001
40
0
40
0
40
0
40
1
40
1
40
1
10
-50.569466054439545
20
25.143053531646729
30
0
10
-50.72902649641037
20
25.503437519073486
30
0
10
-51.056399047374725
20
25.759284496307373
30
0
0
SPLINE
5
321
100
AcDbEntity
8
0
100
AcDbSpline
70
0
71
2
72
6
73
3
74
0
42
0.000000001
43
0.0000000001
44
0.0000000001
40
0
40
0
40
0
40
1
40
1
40
1
10
-51.056399047374725
20
25.759284496307373
30
0
10
-51.383771598339081
20
26.015129089355469
30
0
10
-51.867953240871429
20
26.10316276550293
30
0
0
SPLINE
5
322
100
AcDbEntity
8
0
100
AcDbSpline
70
0
71
2
72
6
73
3
74
0
42
0.000000001
43
0.0000000001
44
0.0000000001
40
0
40
0
40
0
40
1
40
1
40
1
10
-51.867953240871429
20
26.10316276550293
30
0
10
-51.383771598339081
20
26.174690723419189
30
0
10
-51.031639873981476
20
26.447043418884277
30
0
0
SPLINE
5
323
100
AcDbEntity
8
0
100
AcDbSpline
70
0
71
2
72
6
73
3
74
0
42
0.000000001
43
0.0000000001
44
0.0000000001
40
0
40
0
40
0
40
1
40
1
40
1
10
-51.031639873981476
20
26.447043418884277
30
0
10
-50.679508149623871
20
26.719393730163574
30
0
10
-50.492437779903412
20
27.126545906066895
30
0
0
SPLINE
5
324
100
AcDbEntity
8
0
100
AcDbSpline
70
0
71
2
72
6
73
3
74
0
42
0.000000001
43
0.0000000001
44
0.0000000001
40
0
40
0
40
0
40
1
40
1
40
1
10
-50.492437779903412
20
27.126545906066895
30
0
10
-50.305367410182953
20
27.533700466156006
30
0
10
-50.305367410182953
20
28.006877899169922
30
0
0
LINE
5
325
100
AcDbEntity
8
0
100
AcDbLine
10
-50.305367410182953
20
28.006877899169922
30
0
11
-50.305367410182953
21
28.023383617401123
31
0
0
SPLINE
5
326
100
AcDbEntity
8
0
100
AcDbSpline
70
0
71
2
72
6
73
3
74
0
42
0.000000001
43
0.0000000001
44
0.0000000001
40
0
40
0
40
0
40
1
40
1
40
1
10
-50.305367410182953
20
28.023383617401123
30
0
10
-50.305367410182953
20
28.67262601852417
30
0
10
-50.59147447347641
20
29.167811870574951
30
0
0
SPLINE
5
327
100
AcDbEntity
8
0
100
AcDbSpline
70
0
71
2
72
6
73
3
74
0
42
0.000000001
43
0.0000000001
44
0.0000000001
40
0
40
0
40
0
40
1
40
1
40
1
10
-50.59147447347641
20
29.167811870574951
30
0
10
-50.877581536769867
20
29.662997722625732
30
0
10
-51.411282122135162
20
29.932599067687988
30
0
0
SPLINE
5
328
100
AcDbEntity
8
0
100
AcDbSpline
70
0
71
2
72
6
73
3
74
0
42
0.000000001
43
0.0000000001
44
0.0000000001
40
0
40
0
40
0
40
1
40
1
40
1
10
-51.411282122135162
20
29.932599067687988
30
0
10
-51.944982707500458
20
30.202200412750244
30
0
10
-52.654748857021332
20
30.202200412750244
30
0
0
LINE
5
329
100
AcDbEntity
8
0
100
AcDbLine
10
-52.654748857021332
20
30.202200412750244
30
0
11
-55.240718424320221
21
30.202200412750244
31
0
0
LINE
5
330
100
AcDbEntity
8
0
100
AcDbLine
10
-55.240718424320221
20
30.202200412750244
30
0
11
-55.240718424320221
21
29.162311553955078
31
0
0
LWPOLYLINE
5
331
100
AcDbEntity
8
0
100
AcDbPolyline
90
4
70
1
43
0.0
10
-55.900965929031372
20
22.202200889587402
10
-54.784047305583954
20
22.202200889587402
10
-54.784047305583954
20
30.202200412750244
10
-55.900965929031372
20
30.202200412750244
0
SPLINE
5
332
100
AcDbEntity
8
0
100
AcDbSpline
70
0
71
2
72
6
73
3
74
0
42
0.000000001
43
0.0000000001
44
0.0000000001
40
0
40
0
40
0
40
1
40
1
40
1
10
-45.513070523738861
20
26.58184289932251
30
0
10
-45.513070523738861
20
26.020631790161133
30
0
10
-45.812933146953583
20
25.709764957427979
30
0
0
SPLINE
5
333
100
AcDbEntity
8
0
100
AcDbSpline
70
0
71
2
72
6
73
3
74
0
42
0.000000001
43
0.0000000001
44
0.0000000001
40
0
40
0
40
0
40
1
40
1
40
1
10
-45.812933146953583
20
25.709764957427979
30
0
10
-46.112795770168304
20
25.398898124694824
30
0
10
-46.663001477718353
20
25.398898124694824
30
0
0
SPLINE
5
334
100
AcDbEntity
8
0
100
AcDbSpline
70
0
71
2
72
6
73
3
74
0
42
0.000000001
43
0.0000000001
44
0.0000000001
40
0
40
0
40
0
40
1
40
1
40
1
10
-46.663001477718353
20
25.398898124694824
30
0
10
-47.004129588603973
20
25.398898124694824
30
0
10
-47.331503331661224
20
25.503437519073486
30
0
0
SPLINE
5
335
100
AcDbEntity
8
0
100
AcDbSpline
70
0
71
2
72
6
73
3
74
0
42
0.000000001
43
0.0000000001
44
0.0000000001
40
0
40
0
40
0
40
1
40
1
40
1
10
-47.331503331661224
20
25.503437519073486
30
0
10
-47.65887588262558
20
25.607976913452148
30
0
10
-47.911970317363739
20
25.795047283172607
30
0
0
LINE
5
336
100
AcDbEntity
8
0
100
AcDbLine
10
-47.911970317363739
20
25.795047283172607
30
0
11
-48.731778562068939
21
25.23383617401123
31
0
0
SPLINE
5
337
100
AcDbEntity
8
0
100
AcDbSpline
70
0
71
2
72
6
73
3
74
0
42
0.000000001
43
0.0000000001
44
0.0000000001
40
0
40
0
40
0
40
1
40
1
40
1
10
-48.731778562068939
20
25.23383617401123
30
0
10
-48.40715616941452
20
24.843190908432007
30
0
10
-47.876206338405609
20
24.625859260559082
30
0
0
SPLINE
5
338
100
AcDbEntity
8
0
100
AcDbSpline
70
0
71
2
72
6
73
3
74
0
42
0.000000001
43
0.0000000001
44
0.0000000001
40
0
40
0
40
0
40
1
40
1
40
1
10
-47.876206338405609
20
24.625859260559082
30
0
10
-47.345257699489594
20
24.408527612686157
30
0
10
-46.696014106273651
20
24.408527612686157
30
0
0
SPLINE
5
339
100
AcDbEntity
8
0
100
AcDbSpline
70
0
71
2
72
6
73
3
74
0
42
0.000000001
43
0.0000000001
44
0.0000000001
40
0
40
0
40
0
40
1
40
1
40
1
10
-46.696014106273651
20
24.408527612686157
30
0
10
-45.986247956752777
20
24.408527612686157
30
0
10
-45.480057895183563
20
24.658870697021484
30
0
0
SPLINE
5
340
100
AcDbEntity
8
0
100
AcDbSpline
70
0
71
2
72
6
73
3
74
0
42
0.000000001
43
0.0000000001
44
0.0000000001
40
0
40
0
40
0
40
1
40
1
40
1
10
-45.480057895183563
20
24.658870697021484
30
0
10
-44.973867833614349
20
24.909214973449707
30
0
10
-44.709769189357758
20
25.385143756866455
30
0
0
SPLINE
5
341
100
AcDbEntity
8
0
100
AcDbSpline
70
0
71
2
72
6
73
3
74
0
42
0.000000001
43
0.0000000001
44
0.0000000001
40
0
40
0
40
0
40
1
40
1
40
1
10
-44.709769189357758
20
25.385143756866455
30
0
10
-44.445670545101166
20
25.861072540283203
30
0
10
-44.445670545101166
20
26.532323360443115
30
0
0
LINE
5
342
100
AcDbEntity
8
0
100
AcDbLine
10
-44.445670545101166
20
26.532323360443115
30
0
11
-44.445670545101166
21
30.202200412750244
31
0
0
LINE
5
343
100
AcDbEntity
8
0
100
AcDbLine
10
-44.445670545101166
20
30.202200412750244
30
0
11
-45.513070523738861
21
30.202200412750244
31
0
0
LINE
5
344
100
AcDbEntity
8
0
100
AcDbLine
10
-45.513070523738861
20
30.202200412750244
30
0
11
-45.513070523738861
21
26.58184289932251
31
0
0
SPLINE
5
345
100
AcDbEntity
8
0
100
AcDbSpline
70
0
71
2
72
6
73
3
74
0
42
0.000000001
43
0.0000000001
44
0.0000000001
40
0
40
0
40
0
40
1
40
1
40
1
10
-46.910594403743744
20
30.284731388092041
30
0
10
-47.966991364955902
20
30.284731388092041
30
0
10
-48.489687144756317
20
29.847316741943359
30
0
0
SPLINE
5
346
100
AcDbEntity
8
0
100
AcDbSpline
70
0
71
2
72
6
73
3
74
0
42
0.000000001
43
0.0000000001
44
0.0000000001
40
0
40
0
40
0
40
1
40
1
40
1
10
-48.489687144756317
20
29.847316741943359
30
0
10
-49.012382924556732
20
29.409904479980469
30
0
10
-49.012382924556732
20
28.518569469451904
30
0
0
SPLINE
5
347
100
AcDbEntity
8
0
100
AcDbSpline
70
0
71
2
72
6
73
3
74
0
42
0.000000001
43
0.0000000001
44
0.0000000001
40
0
40
0
40
0
40
1
40
1
40
1
10
-49.012382924556732
20
28.518569469451904
30
0
10
-49.012382924556732
20
27.67125129699707
30
0
10
-48.533702790737152
20
27.247593402862549
30
0
0
SPLINE
5
348
100
AcDbEntity
8
0
100
AcDbSpline
70
0
71
2
72
6
73
3
74
0
42
0.000000001
43
0.0000000001
44
0.0000000001
40
0
40
0
40
0
40
1
40
1
40
1
10
-48.533702790737152
20
27.247593402862549
30
0
10
-48.055023849010468
20
26.823933124542236
30
0
10
-47.08666056394577
20
26.823933124542236
30
0
0
LINE
5
349
100
AcDbEntity
8
0
100
AcDbLine
10
-47.086660563945777
20
26.823933124542236
30
0
11
-45.463552176952362
21
26.823933124542236
31
0
0
LINE
5
350
100
AcDbEntity
8
0
100
AcDbLine
10
-45.463552176952362
20
26.823933124542236
30
0
11
-45.386522710323334
21
27.726271152496338
31
0
0
LINE
5
351
100
AcDbEntity
8
0
100
AcDbLine
10
-45.386522710323334
20
27.726271152496338
30
0
11
-47.081159055233002
21
27.726271152496338
31
0
0
SPLINE
5
352
100
AcDbEntity
8
0
100
AcDbSpline
70
0
71
2
72
6
73
3
74
0
42
0.000000001
43
0.0000000001
44
0.0000000001
40
0
40
0
40
0
40
1
40
1
40
1
10
-47.081159055233002
20
27.726271152496338
30
0
10
-47.52132385969162
20
27.726271152496338
30
0
10
-47.738655507564545
20
27.921595573425293
30
0
0
SPLINE
5
353
100
AcDbEntity
8
0
100
AcDbSpline
70
0
71
2
72
6
73
3
74
0
42
0.000000001
43
0.0000000001
44
0.0000000001
40
0
40
0
40
0
40
1
40
1
40
1
10
-47.738655507564545
20
27.921595573425293
30
0
10
-47.955985963344574
20
28.116917610168457
30
0
10
-47.955985963344574
20
28.518569469451904
30
0
0
SPLINE
5
354
100
AcDbEntity
8
0
100
AcDbSpline
70
0
71
2
72
6
73
3
74
0
42
0.000000001
43
0.0000000001
44
0.0000000001
40
0
40
0
40
0
40
1
40
1
40
1
10
-47.955985963344574
20
28.518569469451904
30
0
10
-47.955985963344574
20
28.953232765197754
30
0
10
-47.66712874174118
20
29.162311553955078
30
0
0
SPLINE
5
355
100
AcDbEntity
8
0
100
AcDbSpline
70
0
71
2
72
6
73
3
74
0
42
0.000000001
43
0.0000000001
44
0.0000000001
40
0
40
0
40
0
40
1
40
1
40
1
10
-47.66712874174118
20
29.162311553955078
30
0
10
-47.378270328044891
20
29.371387958526611
30
0
10
-46.789549291133881
20
29.371387958526611
30
0
0
SPLINE
5
356
100
AcDbEntity
8
0
100
AcDbSpline
70
0
71
2
72
6
73
3
74
0
42
0.000000001
43
0.0000000001
44
0.0000000001
40
0
40
0
40
0
40
1
40
1
40
1
10
-46.789549291133881
20
29.371387958526611
30
0
10
-46.145807206630707
20
29.371387958526611
30
0
10
-45.829438865184784
20
29.233837127685547
30
0
0
SPLINE
5
357
100
AcDbEntity
8
0
100
AcDbSpline
70
0
71
2
72
6
73
3
74
0
42
0.000000001
43
0.0000000001
44
0.0000000001
40
0
40
0
40
0
40
1
40
1
40
1
10
-45.829438865184784
20
29.233837127685547
30
0
10
-45.513070523738861
20
29.096286296844482
30
0
10
-45.513070523738861
20
28.804676532745361
30
0
0
LINE
5
358
100
AcDbEntity
8
0
100
AcDbLine
10
-45.513070523738861
20
28.804676532745361
30
0
11
-45.397526919841766
21
29.607977867126465
31
0
0
SPLINE
5
359
100
AcDbEntity
8
0
100
AcDbSpline
70
0
71
2
72
6
73
3
74
0
42
0.000000001
43
0.0000000001
44
0.0000000001
40
0
40
0
40
0
40
1
40
1
40
1
10
-45.397526919841766
20
29.607977867126465
30
0
10
-45.546083152294159
20
29.839065074920654
30
0
10
-45.763414800167084
20
29.987618923187256
30
0
0
SPLINE
5
360
100
AcDbEntity
8
0
100
AcDbSpline
70
0
71
2
72
6
73
3
74
0
42
0.000000001
43
0.0000000001
44
0.0000000001
40
0
40
0
40
0
40
1
40
1
40
1
10
-45.763414800167084
20
29.987618923187256
30
0
10
-45.980745255947113
20
30.136175155639648
30
0
10
-46.266853511333466
20
30.21045446395874
30
0
0
SPLINE
5
361
100
AcDbEntity
8
0
100
AcDbSpline
70
0
71
2
72
6
73
3
74
0
42
0.000000001
43
0.0000000001
44
0.0000000001
40
0
40
0
40
0
40
1
40
1
40
1
10
-46.266853511333466
20
30.21045446395874
30
0
10
-46.552960574626923
20
30.284731388092041
30
0
10
-46.910594403743744
20
30.284731388092041
30
0
0
LWPOLYLINE
5
362
100
AcDbEntity
8
0
100
AcDbPolyline
90
4
70
1
43
0.0
10
-39.493814408779144
20
22.202200889587402
10
-38.37139219045639
20
22.202200889587402
10
-38.37139219045639
20
30.202200412750244
10
-39.493814408779144
20
30.202200412750244
0
SPLINE
5
363
100
AcDbEntity
8
0
100
AcDbSpline
70
0
71
2
72
6
73
3
74
0
42
0.000000001
43
0.0000000001
44
0.0000000001
40
0
40
0
40
0
40
1
40
1
40
1
10
-40.929852426052094
20
30.301237106323242
30
0
10
-41.557087600231171
20
30.301237106323242
30
0
10
-42.000003755092621
20
30.028884410858154
30
0
0
SPLINE
5
364
100
AcDbEntity
8
0
100
AcDbSpline
70
0
71
2
72
6
73
3
74
0
42
0.000000001
43
0.0000000001
44
0.0000000001
40
0
40
0
40
0
40
1
40
1
40
1
10
-42.000003755092621
20
30.028884410858154
30
0
10
-42.442919909954071
20
29.756534099578857
30
0
10
-42.674005925655365
20
29.233837127685547
30
0
0
SPLINE
5
365
100
AcDbEntity
8
0
100
AcDbSpline
70
0
71
2
72
6
73
3
74
0
42
0.000000001
43
0.0000000001
44
0.0000000001
40
0
40
0
40
0
40
1
40
1
40
1
10
-42.674005925655365
20
29.233837127685547
30
0
10
-42.905093133449554
20
28.711140155792236
30
0
10
-42.905093133449554
20
27.979366779327393
30
0
0
LINE
5
366
100
AcDbEntity
8
0
100
AcDbLine
10
-42.905093133449554
20
27.979366779327393
30
0
11
-42.905093133449554
21
26.719393730163574
31
0
0
SPLINE
5
367
100
AcDbEntity
8
0
100
AcDbSpline
70
0
71
2
72
6
73
3
74
0
42
0.000000001
43
0.0000000001
44
0.0000000001
40
0
40
0
40
0
40
1
40
1
40
1
10
-42.905093133449554
20
26.719393730163574
30
0
10
-42.905093133449554
20
25.982117652893066
30
0
10
-42.679508626461029
20
25.459423065185547
30
0
0
SPLINE
5
368
100
AcDbEntity
8
0
100
AcDbSpline
70
0
71
2
72
6
73
3
74
0
42
0.000000001
43
0.0000000001
44
0.0000000001
40
0
40
0
40
0
40
1
40
1
40
1
10
-42.679508626461029
20
25.459423065185547
30
0
10
-42.453924119472504
20
24.936726093292236
30
0
10
-42.022012174129486
20
24.664373397827148
30
0
0
SPLINE
5
369
100
AcDbEntity
8
0
100
AcDbSpline
70
0
71
2
72
6
73
3
74
0
42
0.000000001
43
0.0000000001
44
0.0000000001
40
0
40
0
40
0
40
1
40
1
40
1
10
-42.022012174129486
20
24.664373397827148
30
0
10
-41.590100228786469
20
24.392020702362061
30
0
10
-40.984873473644257
20
24.392020702362061
30
0
0
SPLINE
5
370
100
AcDbEntity
8
0
100
AcDbSpline
70
0
71
2
72
6
73
3
74
0
42
0.000000001
43
0.0000000001
44
0.0000000001
40
0
40
0
40
0
40
1
40
1
40
1
10
-40.984873473644257
20
24.392020702362061
30
0
10
-40.478683412075043
20
24.392020702362061
30
0
10
-40.057775676250458
20
24.656120538711548
30
0
0
SPLINE
5
371
100
AcDbEntity
8
0
100
AcDbSpline
70
0
71
2
72
6
73
3
74
0
42
0.000000001
43
0.0000000001
44
0.0000000001
40
0
40
0
40
0
40
1
40
1
40
1
10
-40.057775676250458
20
24.656120538711548
30
0
10
-39.636867940425873
20
24.920220375061035
30
0
10
-39.378271996974945
20
25.398898124694824
30
0
0
LINE
5
372
100
AcDbEntity
8
0
100
AcDbLine
10
-39.378271996974945
20
25.398898124694824
30
0
11
-39.493814408779144
21
26.565337181091309
31
0
0
SPLINE
5
373
100
AcDbEntity
8
0
100
AcDbSpline
70
0
71
2
72
6
73
3
74
0
42
0.000000001
43
0.0000000001
44
0.0000000001
40
0
40
0
40
0
40
1
40
1
40
1
10
-39.493814408779144
20
26.565337181091309
30
0
10
-39.493814408779144
20
26.202199459075928
30
0
10
-39.625864923000336
20
25.943603515625
30
0
0
SPLINE
5
374
100
AcDbEntity
8
0
100
AcDbSpline
70
0
71
2
72
6
73
3
74
0
42
0.000000001
43
0.0000000001
44
0.0000000001
40
0
40
0
40
0
40
1
40
1
40
1
10
-39.625864923000336
20
25.943603515625
30
0
10
-39.757913053035736
20
25.685005187988281
30
0
10
-40.008257329463959
20
25.550205707550049
30
0
0
SPLINE
5
375
100
AcDbEntity
8
0
100
AcDbSpline
70
0
71
2
72
6
73
3
74
0
42
0.000000001
43
0.0000000001
44
0.0000000001
40
0
40
0
40
0
40
1
40
1
40
1
10
-40.008257329463959
20
25.550205707550049
30
0
10
-40.258600413799286
20
25.415406227111816
30
0
10
-40.616234242916107
20
25.415406227111816
30
0
0
SPLINE
5
376
100
AcDbEntity
8
0
100
AcDbSpline
70
0
71
2
72
6
73
3
74
0
42
0.000000001
43
0.0000000001
44
0.0000000001
40
0
40
0
40
0
40
1
40
1
40
1
10
-40.616234242916107
20
25.415406227111816
30
0
10
-41.17194265127182
20
25.415406227111816
30
0
10
-41.477307975292206
20
25.762035846710205
30
0
0
SPLINE
5
377
100
AcDbEntity
8
0
100
AcDbSpline
70
0
71
2
72
6
73
3
74
0
42
0.000000001
43
0.0000000001
44
0.0000000001
40
0
40
0
40
0
40
1
40
1
40
1
10
-41.477307975292206
20
25.762035846710205
30
0
10
-41.782672107219696
20
26.108665466308594
30
0
10
-41.782672107219696
20
26.735901832580566
30
0
0
LINE
5
378
100
AcDbEntity
8
0
100
AcDbLine
10
-41.782672107219696
20
26.735901832580563
30
0
11
-41.782672107219696
21
27.979366779327393
31
0
0
SPLINE
5
379
100
AcDbEntity
8
0
100
AcDbSpline
70
0
71
2
72
6
73
3
74
0
42
0.000000001
43
0.0000000001
44
0.0000000001
40
0
40
0
40
0
40
1
40
1
40
1
10
-41.782672107219696
20
27.979366779327393
30
0
10
-41.782672107219696
20
28.601100444793701
30
0
10
-41.477307975292206
20
28.939476013183594
30
0
0
SPLINE
5
380
100
AcDbEntity
8
0
100
AcDbSpline
70
0
71
2
72
6
73
3
74
0
42
0.000000001
43
0.0000000001
44
0.0000000001
40
0
40
0
40
0
40
1
40
1
40
1
10
-41.477307975292206
20
28.939476013183594
30
0
10
-41.17194265127182
20
29.277853965759277
30
0
10
-40.616234242916107
20
29.277853965759277
30
0
0
SPLINE
5
381
100
AcDbEntity
8
0
100
AcDbSpline
70
0
71
2
72
6
73
3
74
0
42
0.000000001
43
0.0000000001
44
0.0000000001
40
0
40
0
40
0
40
1
40
1
40
1
10
-40.616234242916107
20
29.277853965759277
30
0
10
-40.258600413799286
20
29.277853965759277
30
0
10
-40.008257329463959
20
29.137551784515381
30
0
0
SPLINE
5
382
100
AcDbEntity
8
0
100
AcDbSpline
70
0
71
2
72
6
73
3
74
0
42
0.000000001
43
0.0000000001
44
0.0000000001
40
0
40
0
40
0
40
1
40
1
40
1
10
-40.008257329463959
20
29.137551784515381
30
0
10
-39.757913053035736
20
28.997249603271484
30
0
10
-39.625864923000336
20
28.733148574829102
30
0
0
SPLINE
5
383
100
AcDbEntity
8
0
100
AcDbSpline
70
0
71
2
72
6
73
3
74
0
42
0.000000001
43
0.0000000001
44
0.0000000001
40
0
40
0
40
0
40
1
40
1
40
1
10
-39.625864923000336
20
28.733148574829102
30
0
10
-39.493814408779144
20
28.46904993057251
30
0
10
-39.493814408779144
20
28.100411891937256
30
0
0
LINE
5
384
100
AcDbEntity
8
0
100
AcDbLine
10
-39.493814408779144
20
28.100411891937256
30
0
11
-39.416786134243011
21
29.305365085601807
31
0
0
SPLINE
5
385
100
AcDbEntity
8
0
100
AcDbSpline
70
0
71
2
72
6
73
3
74
0
42
0.000000001
43
0.0000000001
44
0.0000000001
40
0
40
0
40
0
40
1
40
1
40
1
10
-39.416786134243011
20
29.305365085601807
30
0
10
-39.587348401546478
20
29.729022979736328
30
0
10
-39.975243508815765
20
30.015130043029785
30
0
0
SPLINE
5
386
100
AcDbEntity
8
0
100
AcDbSpline
70
0
71
2
72
6
73
3
74
0
42
0.000000001
43
0.0000000001
44
0.0000000001
40
0
40
0
40
0
40
1
40
1
40
1
10
-39.975243508815765
20
30.015130043029785
30
0
10
-40.363139808177948
20
30.301237106323242
30
0
10
-40.929852426052094
20
30.301237106323242
30
0
0
LWPOLYLINE
5
387
100
AcDbEntity
8
0
100
AcDbPolyline
90
4
70
1
43
0.0
10
-32.368641793727875
20
22.856945991516113
10
-31.246219575405121
20
22.856945991516113
10
-31.246219575405121
20
30.202200412750244
10
-32.368641793727875
20
30.202200412750244
0
LWPOLYLINE
5
388
100
AcDbEntity
8
0
100
AcDbPolyline
90
4
70
1
43
0.0
10
-34.629989564418793
20
22.202200889587402
10
-28.984871804714203
20
22.202200889587402
10
-28.984871804714203
20
23.269600868225098
10
-34.629989564418793
20
23.269600868225098
0
LWPOLYLINE
5
389
100
AcDbEntity
8
0
100
AcDbPolyline
90
4
70
1
43
0.0
10
-28.214584290981293
20
22.202200889587402
10
-27.09216445684433
20
22.202200889587402
10
-27.09216445684433
20
23.324620723724365
10
-28.214584290981293
20
23.324620723724365
0
LWPOLYLINE
5
390
100
AcDbEntity
8
0
100
AcDbPolyline
90
4
70
1
43
0.0
10
-28.214584290981293
20
24.491058588027954
10
-27.09216445684433
20
24.491058588027954
10
-27.09216445684433
20
30.202200412750244
10
-28.214584290981293
20
30.202200412750244
0
SPLINE
5
391
100
AcDbEntity
8
0
100
AcDbSpline
70
0
71
2
72
6
73
3
74
0
42
0.000000001
43
0.0000000001
44
0.0000000001
40
0
40
0
40
0
40
1
40
1
40
1
10
-18.563962876796722
20
26.741402149200439
30
0
10
-18.563962876796722
20
26.136174201965332
30
0
10
-18.8775834441185
20
25.806052684783936
30
0
0
SPLINE
5
392
100
AcDbEntity
8
0
100
AcDbSpline
70
0
71
2
72
6
73
3
74
0
42
0.000000001
43
0.0000000001
44
0.0000000001
40
0
40
0
40
0
40
1
40
1
40
1
10
-18.8775834441185
20
25.806052684783936
30
0
10
-19.191199243068695
20
25.475928783416748
30
0
10
-19.757910668849945
20
25.475928783416748
30
0
0
SPLINE
5
393
100
AcDbEntity
8
0
100
AcDbSpline
70
0
71
2
72
6
73
3
74
0
42
0.000000001
43
0.0000000001
44
0.0000000001
40
0
40
0
40
0
40
1
40
1
40
1
10
-19.757910668849945
20
25.475928783416748
30
0
10
-20.280607640743256
20
25.475928783416748
30
0
10
-20.566714704036713
20
25.795047283172607
30
0
0
SPLINE
5
394
100
AcDbEntity
8
0
100
AcDbSpline
70
0
71
2
72
6
73
3
74
0
42
0.000000001
43
0.0000000001
44
0.0000000001
40
0
40
0
40
0
40
1
40
1
40
1
10
-20.566714704036713
20
25.795047283172607
30
0
10
-20.85282176733017
20
26.114168167114258
30
0
10
-20.85282176733017
20
26.697385311126709
30
0
0
LINE
5
395
100
AcDbEntity
8
0
100
AcDbLine
10
-20.85282176733017
20
26.697385311126713
30
0
11
-21.078406274318695
21
25.596973896026611
31
0
0
SPLINE
5
396
100
AcDbEntity
8
0
100
AcDbSpline
70
0
71
2
72
6
73
3
74
0
42
0.000000001
43
0.0000000001
44
0.0000000001
40
0
40
0
40
0
40
1
40
1
40
1
10
-21.078406274318695
20
25.596973896026611
30
0
10
-20.808804929256439
20
25.03026008605957
30
0
10
-20.365889966487885
20
24.719394445419312
30
0
0
SPLINE
5
397
100
AcDbEntity
8
0
100
AcDbSpline
70
0
71
2
72
6
73
3
74
0
42
0.000000001
43
0.0000000001
44
0.0000000001
40
0
40
0
40
0
40
1
40
1
40
1
10
-20.365889966487885
20
24.719394445419312
30
0
10
-19.922972619533539
20
24.408527612686157
30
0
10
-19.389272630214691
20
24.408527612686157
30
0
0
SPLINE
5
398
100
AcDbEntity
8
0
100
AcDbSpline
70
0
71
2
72
6
73
3
74
0
42
0.000000001
43
0.0000000001
44
0.0000000001
40
0
40
0
40
0
40
1
40
1
40
1
10
-19.389272630214691
20
24.408527612686157
30
0
10
-18.773041665554047
20
24.408527612686157
30
0
10
-18.335629403591156
20
24.68087911605835
30
0
0
SPLINE
5
399
100
AcDbEntity
8
0
100
AcDbSpline
70
0
71
2
72
6
73
3
74
0
42
0.000000001
43
0.0000000001
44
0.0000000001
40
0
40
0
40
0
40
1
40
1
40
1
10
-18.335629403591156
20
24.68087911605835
30
0
10
-17.898217141628265
20
24.953231811523438
30
0
10
-17.669878900051117
20
25.475928783416748
30
0
0
SPLINE
5
400
100
AcDbEntity
8
0
100
AcDbSpline
70
0
71
2
72
6
73
3
74
0
42
0.000000001
43
0.0000000001
44
0.0000000001
40
0
40
0
40
0
40
1
40
1
40
1
10
-17.669878900051117
20
25.475928783416748
30
0
10
-17.441540658473969
20
25.998623371124268
30
0
10
-17.441540658473969
20
26.735899448394775
30
0
0
LINE
5
401
100
AcDbEntity
8
0
100
AcDbLine
10
-17.441540658473969
20
26.735899448394772
30
0
11
-17.441540658473969
21
30.202200412750244
31
0
0
LINE
5
402
100
AcDbEntity
8
0
100
AcDbLine
10
-17.441540658473969
20
30.202200412750244
30
0
11
-18.563962876796722
21
30.202200412750244
31
0
0
LINE
5
403
100
AcDbEntity
8
0
100
AcDbLine
10
-18.563962876796722
20
30.202200412750244
30
0
11
-18.563962876796722
21
26.741402149200439
31
0
0
LWPOLYLINE
5
404
100
AcDbEntity
8
0
100
AcDbPolyline
90
4
70
1
43
0.0
10
-25.386522710323334
20
24.491058588027954
10
-24.264102876186371
20
24.491058588027954
10
-24.264102876186371
20
30.202200412750244
10
-25.386522710323334
20
30.202200412750244
0
SPLINE
5
405
100
AcDbEntity
8
0
100
AcDbSpline
70
0
71
2
72
6
73
3
74
0
42
0.000000001
43
0.0000000001
44
0.0000000001
40
0
40
0
40
0
40
1
40
1
40
1
10
-21.975243985652924
20
26.741402149200439
30
0
10
-21.975243985652924
20
26.136174201965332
30
0
10
-22.272354066371918
20
25.806052684783936
30
0
0
SPLINE
5
406
100
AcDbEntity
8
0
100
AcDbSpline
70
0
71
2
72
6
73
3
74
0
42
0.000000001
43
0.0000000001
44
0.0000000001
40
0
40
0
40
0
40
1
40
1
40
1
10
-22.272354066371918
20
25.806052684783936
30
0
10
-22.569466531276703
20
25.475928783416748
30
0
10
-23.114169538021088
20
25.475928783416748
30
0
0
SPLINE
5
407
100
AcDbEntity
8
0
100
AcDbSpline
70
0
71
2
72
6
73
3
74
0
42
0.000000001
43
0.0000000001
44
0.0000000001
40
0
40
0
40
0
40
1
40
1
40
1
10
-23.114169538021088
20
25.475928783416748
30
0
10
-23.664377629756927
20
25.475928783416748
30
0
10
-23.964239060878754
20
25.767536163330078
30
0
0
SPLINE
5
408
100
AcDbEntity
8
0
100
AcDbSpline
70
0
71
2
72
6
73
3
74
0
42
0.000000001
43
0.0000000001
44
0.0000000001
40
0
40
0
40
0
40
1
40
1
40
1
10
-23.964239060878754
20
25.767536163330078
30
0
10
-24.264102876186371
20
26.059145927429199
30
0
10
-24.264102876186371
20
26.587345600128174
30
0
0
LINE
5
409
100
AcDbEntity
8
0
100
AcDbLine
10
-24.264102876186371
20
26.587345600128174
30
0
11
-24.37964528799057
21
25.486931800842285
31
0
0
SPLINE
5
410
100
AcDbEntity
8
0
100
AcDbSpline
70
0
71
2
72
6
73
3
74
0
42
0.000000001
43
0.0000000001
44
0.0000000001
40
0
40
0
40
0
40
1
40
1
40
1
10
-24.37964528799057
20
25.486931800842285
30
0
10
-24.115546643733978
20
24.969737529754639
30
0
10
-23.689137399196625
20
24.689133167266846
30
0
0
SPLINE
5
411
100
AcDbEntity
8
0
100
AcDbSpline
70
0
71
2
72
6
73
3
74
0
42
0.000000001
43
0.0000000001
44
0.0000000001
40
0
40
0
40
0
40
1
40
1
40
1
10
-23.689137399196625
20
24.689133167266846
30
0
10
-23.26272577047348
20
24.408527612686157
30
0
10
-22.745531499385834
20
24.408527612686157
30
0
0
SPLINE
5
412
100
AcDbEntity
8
0
100
AcDbSpline
70
0
71
2
72
6
73
3
74
0
42
0.000000001
43
0.0000000001
44
0.0000000001
40
0
40
0
40
0
40
1
40
1
40
1
10
-22.745531499385834
20
24.408527612686157
30
0
10
-22.14580625295639
20
24.408527612686157
30
0
10
-21.722148358821869
20
24.68087911605835
30
0
0
SPLINE
5
413
100
AcDbEntity
8
0
100
AcDbSpline
70
0
71
2
72
6
73
3
74
0
42
0.000000001
43
0.0000000001
44
0.0000000001
40
0
40
0
40
0
40
1
40
1
40
1
10
-21.722148358821869
20
24.68087911605835
30
0
10
-21.298490464687347
20
24.953231811523438
30
0
10
-21.075654923915863
20
25.475928783416748
30
0
0
SPLINE
5
414
100
AcDbEntity
8
0
100
AcDbSpline
70
0
71
2
72
6
73
3
74
0
42
0.000000001
43
0.0000000001
44
0.0000000001
40
0
40
0
40
0
40
1
40
1
40
1
10
-21.075654923915863
20
25.475928783416748
30
0
10
-20.85282176733017
20
25.998623371124268
30
0
10
-20.85282176733017
20
26.735899448394775
30
0
0
LINE
5
415
100
AcDbEntity
8
0
100
AcDbLine
10
-20.85282176733017
20
26.735899448394772
30
0
11
-20.85282176733017
21
30.202200412750244
31
0
0
LINE
5
416
100
AcDbEntity
8
0
100
AcDbLine
10
-20.85282176733017
20
30.202200412750244
30
0
11
-21.975243985652924
21
30.202200412750244
31
0
0
LINE
5
417
100
AcDbEntity
8
0
100
AcDbLine
10
-21.975243985652924
20
30.202200412750244
30
0
11
-21.975243985652924
21
26.741402149200439
31
0
0
SPLINE
5
418
100
AcDbEntity
8
0
100
AcDbSpline
70
0
71
2
72
6
73
3
74
0
42
0.000000001
43
0.0000000001
44
0.0000000001
40
0
40
0
40
0
40
1
40
1
40
1
10
-13.397522866725922
20
30.284731388092041
30
0
10
-14.189821183681488
20
30.284731388092041
30
0
10
-14.751029908657074
20
29.987618923187256
30
0
0
SPLINE
5
419
100
AcDbEntity
8
0
100
AcDbSpline
70
0
71
2
72
6
73
3
74
0
42
0.000000001
43
0.0000000001
44
0.0000000001
40
0
40
0
40
0
40
1
40
1
40
1
10
-14.751029908657074
20
29.987618923187256
30
0
10
-15.31223863363266
20
29.690508842468262
30
0
10
-15.606599748134613
20
29.115543365478516
30
0
0
SPLINE
5
420
100
AcDbEntity
8
0
100
AcDbSpline
70
0
71
2
72
6
73
3
74
0
42
0.000000001
43
0.0000000001
44
0.0000000001
40
0
40
0
40
0
40
1
40
1
40
1
10
-15.606599748134613
20
29.115543365478516
30
0
10
-15.900960862636566
20
28.54057788848877
30
0
10
-15.900960862636566
20
27.726271152496338
30
0
0
LINE
5
421
100
AcDbEntity
8
0
100
AcDbLine
10
-15.900960862636566
20
27.726271152496334
30
0
11
-15.900960862636566
21
27.082531452178955
31
0
0
SPLINE
5
422
100
AcDbEntity
8
0
100
AcDbSpline
70
0
71
2
72
6
73
3
74
0
42
0.000000001
43
0.0000000001
44
0.0000000001
40
0
40
0
40
0
40
1
40
1
40
1
10
-15.900960862636566
20
27.082531452178955
30
0
10
-15.900960862636566
20
26.235213279724121
30
0
10
-15.617605149745941
20
25.635488033294678
30
0
0
SPLINE
5
423
100
AcDbEntity
8
0
100
AcDbSpline
70
0
71
2
72
6
73
3
74
0
42
0.000000001
43
0.0000000001
44
0.0000000001
40
0
40
0
40
0
40
1
40
1
40
1
10
-15.617605149745941
20
25.635488033294678
30
0
10
-15.334249436855316
20
25.035762786865234
30
0
10
-14.795046746730804
20
24.722144603729248
30
0
0
SPLINE
5
424
100
AcDbEntity
8
0
100
AcDbSpline
70
0
71
2
72
6
73
3
74
0
42
0.000000001
43
0.0000000001
44
0.0000000001
40
0
40
0
40
0
40
1
40
1
40
1
10
-14.795046746730804
20
24.722144603729248
30
0
10
-14.255844056606293
20
24.408527612686157
30
0
10
-13.496557176113129
20
24.408527612686157
30
0
0
SPLINE
5
425
100
AcDbEntity
8
0
100
AcDbSpline
70
0
71
2
72
6
73
3
74
0
42
0.000000001
43
0.0000000001
44
0.0000000001
40
0
40
0
40
0
40
1
40
1
40
1
10
-13.496557176113129
20
24.408527612686157
30
0
10
-12.781291902065277
20
24.408527612686157
30
0
10
-12.275100648403168
20
24.766161441802979
30
0
0
SPLINE
5
426
100
AcDbEntity
8
0
100
AcDbSpline
70
0
71
2
72
6
73
3
74
0
42
0.000000001
43
0.0000000001
44
0.0000000001
40
0
40
0
40
0
40
1
40
1
40
1
10
-12.275100648403168
20
24.766161441802979
30
0
10
-11.768909394741058
20
25.123796463012695
30
0
10
-11.502061784267426
20
25.800549983978271
30
0
0
SPLINE
5
427
100
AcDbEntity
8
0
100
AcDbSpline
70
0
71
2
72
6
73
3
74
0
42
0.000000001
43
0.0000000001
44
0.0000000001
40
0
40
0
40
0
40
1
40
1
40
1
10
-11.502061784267426
20
25.800549983978271
30
0
10
-11.235209405422211
20
26.477303504943848
30
0
10
-11.235209405422211
20
27.42365837097168
30
0
0
LINE
5
428
100
AcDbEntity
8
0
100
AcDbLine
10
-11.235209405422211
20
27.42365837097168
30
0
11
-11.235209405422211
21
27.797799110412598
31
0
0
LINE
5
429
100
AcDbEntity
8
0
100
AcDbLine
10
-11.235209405422211
20
27.797799110412598
30
0
11
-15.086656510829926
21
27.797799110412598
31
0
0
LINE
5
430
100
AcDbEntity
8
0
100
AcDbLine
10
-15.086656510829926
20
27.797799110412598
30
0
11
-15.086656510829926
21
26.895461082458496
31
0
0
LINE
5
431
100
AcDbEntity
8
0
100
AcDbLine
10
-15.086656510829926
20
26.895461082458496
30
0
11
-12.302609384059906
21
26.895461082458496
31
0
0
SPLINE
5
432
100
AcDbEntity
8
0
100
AcDbSpline
70
0
71
2
72
6
73
3
74
0
42
0.000000001
43
0.0000000001
44
0.0000000001
40
0
40
0
40
0
40
1
40
1
40
1
10
-12.302609384059906
20
26.895461082458496
30
0
10
-12.352128922939301
20
26.196699142456055
30
0
10
-12.662998139858246
20
25.808801651000977
30
0
0
SPLINE
5
433
100
AcDbEntity
8
0
100
AcDbSpline
70
0
71
2
72
6
73
3
74
0
42
0.000000001
43
0.0000000001
44
0.0000000001
40
0
40
0
40
0
40
1
40
1
40
1
10
-12.662998139858246
20
25.808801651000977
30
0
10
-12.973862588405609
20
25.420906543731689
30
0
10
-13.496557176113129
20
25.420906543731689
30
0
0
SPLINE
5
434
100
AcDbEntity
8
0
100
AcDbSpline
70
0
71
2
72
6
73
3
74
0
42
0.000000001
43
0.0000000001
44
0.0000000001
40
0
40
0
40
0
40
1
40
1
40
1
10
-13.496557176113129
20
25.420906543731689
30
0
10
-14.134798943996429
20
25.420906543731689
30
0
10
-14.484177529811859
20
25.839064121246338
30
0
0
SPLINE
5
435
100
AcDbEntity
8
0
100
AcDbSpline
70
0
71
2
72
6
73
3
74
0
42
0.000000001
43
0.0000000001
44
0.0000000001
40
0
40
0
40
0
40
1
40
1
40
1
10
-14.484177529811859
20
25.839064121246338
30
0
10
-14.833560883998871
20
26.257221698760986
30
0
10
-14.833560883998871
20
27.022008895874023
30
0
0
LINE
5
436
100
AcDbEntity
8
0
100
AcDbLine
10
-14.833560883998871
20
27.022008895874023
30
0
11
-14.833560883998871
21
27.748279571533203
31
0
0
SPLINE
5
437
100
AcDbEntity
8
0
100
AcDbSpline
70
0
71
2
72
6
73
3
74
0
42
0.000000001
43
0.0000000001
44
0.0000000001
40
0
40
0
40
0
40
1
40
1
40
1
10
-14.833560883998871
20
27.748279571533203
30
0
10
-14.833560883998871
20
28.458046913146973
30
0
10
-14.459420144557953
20
28.837687969207764
30
0
0
SPLINE
5
438
100
AcDbEntity
8
0
100
AcDbSpline
70
0
71
2
72
6
73
3
74
0
42
0.000000001
43
0.0000000001
44
0.0000000001
40
0
40
0
40
0
40
1
40
1
40
1
10
-14.459420144557953
20
28.837687969207764
30
0
10
-14.085279405117035
20
29.217331409454346
30
0
10
-13.397522866725922
20
29.217331409454346
30
0
0
SPLINE
5
439
100
AcDbEntity
8
0
100
AcDbSpline
70
0
71
2
72
6
73
3
74
0
42
0.000000001
43
0.0000000001
44
0.0000000001
40
0
40
0
40
0
40
1
40
1
40
1
10
-13.397522866725922
20
29.217331409454346
30
0
10
-13.056393563747406
20
29.217331409454346
30
0
10
-12.720766961574554
20
29.079780578613281
30
0
0
SPLINE
5
440
100
AcDbEntity
8
0
100
AcDbSpline
70
0
71
2
72
6
73
3
74
0
42
0.000000001
43
0.0000000001
44
0.0000000001
40
0
40
0
40
0
40
1
40
1
40
1
10
-12.720766961574554
20
29.079780578613281
30
0
10
-12.385140359401703
20
28.942227363586426
30
0
10
-12.121044099330902
20
28.694634437561035
30
0
0
LINE
5
441
100
AcDbEntity
8
0
100
AcDbLine
10
-12.121044099330902
20
28.694634437561035
30
0
11
-11.383768022060394
21
29.431910514831543
31
0
0
SPLINE
5
442
100
AcDbEntity
8
0
100
AcDbSpline
70
0
71
2
72
6
73
3
74
0
42
0.000000001
43
0.0000000001
44
0.0000000001
40
0
40
0
40
0
40
1
40
1
40
1
10
-11.383768022060394
20
29.431910514831543
30
0
10
-11.807423532009125
20
29.839065074920654
30
0
10
-12.33562558889389
20
30.061898231506348
30
0
0
SPLINE
5
443
100
AcDbEntity
8
0
100
AcDbSpline
70
0
71
2
72
6
73
3
74
0
42
0.000000001
43
0.0000000001
44
0.0000000001
40
0
40
0
40
0
40
1
40
1
40
1
10
-12.33562558889389
20
30.061898231506348
30
0
10
-12.863822877407074
20
30.284731388092041
30
0
10
-13.397522866725922
20
30.284731388092041
30
0
0
LWPOLYLINE
5
444
100
AcDbEntity
8
0
100
AcDbPolyline
90
4
70
1
43
0.0
10
-9.5790919661521912
20
22.207702398300171
10
-8.6987647414207458
20
22.207702398300171
10
-8.6987647414207458
20
25.008251667022705
10
-9.5790919661521912
20
25.008251667022705
0
LWPOLYLINE
5
445
100
AcDbEntity
8
0
100
AcDbPolyline
90
4
70
1
43
0.0
10
-10.629988610744476
20
21.580467224121094
10
-7.6478680968284607
20
21.580467224121094
10
-7.6478680968284607
20
22.444291114807129
10
-10.629988610744476
20
22.444291114807129
0
LWPOLYLINE
5
446
100
AcDbEntity
8
0
100
AcDbPolyline
90
15
70
1
43
0.0
10
-4.5392045378684998
20
21.580467224121094
10
-3.713894784450531
20
21.580467224121094
10
-3.713894784450531
20
25.008251667022705
10
-4.5392045378684998
20
25.008251667022705
10
-4.5392045378684998
20
22.950479984283447
10
-4.3466290831565857
20
22.697385549545288
10
-5.3535088896751404
20
24.584593772888184
10
-5.5790910124778748
20
24.584593772888184
10
-6.5804681181907654
20
22.697385549545288
10
-6.3934001326560974
20
22.950479984283447
10
-6.3934001326560974
20
25.008251667022705
10
-7.2242078185081482
20
25.008251667022705
10
-7.2242078185081482
20
21.580467224121094
10
-6.3988980650901794
20
21.580467224121094
10
-5.4690513014793396
20
23.25859546661377
0
ENDSEC
0
SECTION
2
OBJECTS
0
DICTIONARY
5
C
100
AcDbDictionary
3
ACAD_GROUP
350
D
3
ACAD_MLINESTYLE
350
17
0
DICTIONARY
5
D
100
AcDbDictionary
0
DICTIONARY
5
1A
330
C
100
AcDbDictionary
0
DICTIONARY
5
17
100
AcDbDictionary
0
ENDSEC
0
EOF
