0
SECTION
2
HEADER
9
$INSUNITS
70
4
9
$ACADVER
1
AC1014
9
$HANDSEED
5
FFFF
0
ENDSEC
0
SECTION
2
TABLES
0
TABLE
2
VPORT
5
8
100
AcDbSymbolTable
0
ENDTAB
0
TABLE
2
LTYPE
5
5
100
AcDbSymbolTable
0
LTYPE
5
14
100
AcDbSymbolTableRecord
100
AcDbLinetypeTableRecord
2
BYBLOCK
70
0
0
LTYPE
5
15
100
AcDbSymbolTableRecord
100
AcDbLinetypeTableRecord
2
BYLAYER
70
0
0
LTYPE
5
16
100
AcDbSymbolTableRecord
100
AcDbLinetypeTableRecord
2
DASHED
70
0
3
Dashed __ __ __ __ __ __ __ __ __ __ __ __ __ _
72
65
73
2
40
0.75
49
0.5
74
0
49
-0.25
74
0
0
ENDTAB
0
TABLE
2
LAYER
5
2
100
AcDbSymbolTable
70
2
0
LAYER
5
50
100
AcDbSymbolTableRecord
100
AcDbLayerTableRecord
2
0
70
0
62
7
6
CONTINUOUS
0
ENDTAB
0
TABLE
2
STYLE
5
3
100
AcDbSymbolTable
70
1
0
STYLE
5
11
100
AcDbSymbolTableRecord
100
AcDbTextStyleTableRecord
2
STANDARD
70
0
0
ENDTAB
0
TABLE
2
VIEW
5
6
100
AcDbSymbolTable
70
0
0
ENDTAB
0
TABLE
2
UCS
5
7
100
AcDbSymbolTable
70
0
0
ENDTAB
0
TABLE
2
APPID
5
9
100
AcDbSymbolTable
70
2
0
APPID
5
12
100
AcDbSymbolTableRecord
100
AcDbRegAppTableRecord
2
ACAD
70
0
0
ENDTAB
0
TABLE
2
DIMSTYLE
5
A
100
AcDbSymbolTable
70
1
0
ENDTAB
0
TABLE
2
BLOCK_RECORD
5
1
100
AcDbSymbolTable
70
1
0
BLOCK_RECORD
5
1F
100
AcDbSymbolTableRecord
100
AcDbBlockTableRecord
2
*MODEL_SPACE
0
BLOCK_RECORD
5
1B
100
AcDbSymbolTableRecord
100
AcDbBlockTableRecord
2
*PAPER_SPACE
0
ENDTAB
0
ENDSEC
0
SECTION
2
BLOCKS
0
BLOCK
5
20
100
AcDbEntity
100
AcDbBlockBegin
2
*MODEL_SPACE
0
ENDBLK
5
21
100
AcDbEntity
100
AcDbBlockEnd
0
BLOCK
5
1C
100
AcDbEntity
100
AcDbBlockBegin
2
*PAPER_SPACE
0
ENDBLK
5
1D
100
AcDbEntity
100
AcDbBlockEnd
0
ENDSEC
0
SECTION
2
ENTITIES
0
POINT
5
100
100
AcDbEntity
8
0
100
AcDbPoint
10
54.098423544571467
20
45.853709308464033
30
0
0
LINE
5
101
100
AcDbEntity
8
0
100
AcDbLine
10
28.544676233645397
20
14.373822628718095
30
0
11
28.59269463808694
21
14.613914650927725
31
0
0
LINE
5
102
100
AcDbEntity
8
0
100
AcDbLine
10
28.59269463808694
20
14.613914650927725
30
0
11
28.651221084615308
21
39.955865997708131
31
0
0
LINE
5
103
100
AcDbEntity
8
0
100
AcDbLine
10
28.651221084615308
20
39.955865997708131
30
0
11
28.959628409987126
21
41.109537844469401
31
0
0
SPLINE
5
104
100
AcDbEntity
8
0
100
AcDbSpline
70
0
71
3
72
11
73
7
74
0
42
0.000000001
43
0.0000000001
44
0.0000000001
40
0.0024627088266706201
40
0.0024627088266706201
40
0.0024627088266706201
40
0.0024627088266706201
40
0.56684601509572163
40
0.56684601509572163
40
0.56684601509572163
40
0.99775532595252581
40
0.99775532595252581
40
0.99775532595252581
40
0.99775532595252581
10
28.959619278908111
20
41.109540285450933
30
0
10
29.162417336373739
20
41.873747316382662
30
0
10
29.420663771244314
20
42.657654157271367
30
0
10
29.786710094827662
20
43.418788231616205
30
0
10
30.06618818584294
20
43.999917679993629
30
0
10
30.389530051980156
20
44.534745590462741
30
0
10
30.726762738434985
20
45.036217283945433
30
0
0
SPLINE
5
105
100
AcDbEntity
8
0
100
AcDbSpline
70
0
71
3
72
11
73
7
74
0
42
0.000000001
43
0.0000000001
44
0.0000000001
40
0.001216675579419282
40
0.001216675579419282
40
0.001216675579419282
40
0.001216675579419282
40
0.68833721414582139
40
0.68833721414582139
40
0.68833721414582139
40
0.99910015782037098
40
0.99910015782037098
40
0.99910015782037098
40
0.99910015782037098
10
30.726762738436598
20
45.036217283944353
30
0
10
31.862334099600549
20
46.735824446528355
30
0
10
33.362741589323839
20
48.012610271430766
30
0
10
35.086008117639452
20
48.932326812517609
30
0
10
35.865387206194271
20
49.348285590653745
30
0
10
36.695749346363293
20
49.686805161832872
30
0
10
37.580848922569878
20
49.924716102707578
30
0
0
SPLINE
5
106
100
AcDbEntity
8
0
100
AcDbSpline
70
0
71
3
72
11
73
7
74
0
42
0.000000001
43
0.0000000001
44
0.0000000001
40
0
40
0
40
0
40
0
40
0.45696745970776292
40
0.45696745970776292
40
0.45696745970776292
40
0.71748684228144388
40
0.71748684228144388
40
0.71748684228144388
40
0.71748684228144388
10
37.580850018882245
20
49.92471206181294
30
0
10
38.139279302501642
20
50.075453708924933
30
0
10
38.953796306366527
20
50.237578020864561
30
0
10
39.748023961205355
20
50.292463788363094
30
0
10
40.200817029652455
20
50.323754432712136
30
0
10
40.662278020607502
20
50.337831785942235
30
0
10
41.219497186753529
20
50.342692223648925
30
0
0
LINE
5
107
100
AcDbEntity
8
0
100
AcDbLine
10
43.237538667829838
20
50.378545943268982
30
0
11
64.289535884673114
21
50.330426395414307
31
0
0
SPLINE
5
108
100
AcDbEntity
8
0
100
AcDbSpline
70
0
71
3
72
17
73
13
74
0
42
0.000000001
43
0.0000000001
44
0.0000000001
40
0
40
0
40
0
40
0
40
0.5
40
0.5
40
0.5
40
0.75
40
0.75
40
0.75
40
0.91821324951278038
40
0.91821324951278038
40
0.91821324951278038
40
0.99543023769315642
40
0.99543023769315642
40
0.99543023769315642
40
0.99543023769315642
10
64.289535884673114
20
50.330426395414307
30
0
10
69.337534803518977
20
50.321697867024369
30
0
10
71.871767447171862
20
50.317784985814257
30
0
10
73.285268936673518
20
50.299506949312089
30
0
10
73.992019681424338
20
50.290367931061006
30
0
10
74.413603758561521
20
50.281202472270834
30
0
10
74.844491533329304
20
50.249769929430627
30
0
10
75.134415664405395
20
50.228620448744223
30
0
10
75.475856111958507
20
50.184986341132607
30
0
10
75.743082710824993
20
50.131792193575592
30
0
10
75.865751009463324
20
50.107373832506681
30
0
10
75.959334851331988
20
50.08531696471907
30
0
10
76.013134573749397
20
50.072648724862923
30
0
0
SPLINE
5
109
100
AcDbEntity
8
0
100
AcDbSpline
70
0
71
3
72
14
73
10
74
0
42
0.000000001
43
0.0000000001
44
0.0000000001
40
0.00078782920780486314
40
0.00078782920780486314
40
0.00078782920780486314
40
0.00078782920780486314
40
0.65947259311753248
40
0.65947259311753248
40
0.65947259311753248
40
1
40
1
40
1
40
1.0003652056240355
40
1.0003652056240355
40
1.0003652056240355
40
1.0003652056240355
10
76.013134573746697
20
50.072648724851526
30
0
10
78.749705113579907
20
49.437310761450782
30
0
10
81.231209028446273
20
47.94962371771544
30
0
10
82.965676979700632
20
45.792724980914329
30
0
10
83.862363689524599
20
44.6776496459524
30
0
10
84.556709696064388
20
43.396233587267716
30
0
10
85.016822537597946
20
42.022029900554188
30
0
10
85.01714130987412
20
42.021077834022655
30
0
10
85.017460082150308
20
42.020125767491159
30
0
10
85.017778854439925
20
42.019173700919509
30
0
0
SPLINE
5
110
100
AcDbEntity
8
0
100
AcDbSpline
70
0
71
3
72
20
73
16
74
0
42
0.000000001
43
0.0000000001
44
0.0000000001
40
-0.00079075099100874534
40
-0.00079075099100874534
40
-0.00079075099100874534
40
-0.00079075099100874534
40
0
40
0
40
0
40
0.151411000092148
40
0.151411000092148
40
0.151411000092148
40
0.32152411285240173
40
0.32152411285240173
40
0.32152411285240173
40
0.6426993304728168
40
0.6426993304728168
40
0.6426993304728168
40
1
40
1
40
1
40
1
10
85.017778854425302
20
42.019173700968992
30
0
10
85.018096352186461
20
42.018221207685414
30
0
10
85.01841384994465
20
42.017268714410818
30
0
10
85.01873134770284
20
42.016316221136279
30
0
10
85.051629500111517
20
41.917621763910262
30
0
10
85.115813283692177
20
41.756718006217426
30
0
10
85.217651676433491
20
41.414306940420353
30
0
10
85.332069030371983
20
41.029601653414474
30
0
10
85.43901886832812
20
40.504925849885112
30
0
10
85.491791215056196
20
40.036651344965236
30
0
10
85.591425920868829
20
39.152544508147244
30
0
10
85.602916852358732
20
38.286484049678592
30
0
10
85.616235060892606
20
36.572089059868425
30
0
10
85.631051287565739
20
34.664860718181181
30
0
10
85.627894528860082
20
31.743134713302673
30
0
10
85.627894528860082
20
27.023274840184609
30
0
0
SPLINE
5
111
100
AcDbEntity
8
0
100
AcDbSpline
70
0
71
3
72
17
73
13
74
0
42
0.000000001
43
0.0000000001
44
0.0000000001
40
0
40
0
40
0
40
0
40
0.47351803440289242
40
0.47351803440289242
40
0.47351803440289242
40
0.7154224962726865
40
0.7154224962726865
40
0.7154224962726865
40
0.89591446914839401
40
0.89591446914839401
40
0.89591446914839401
40
0.91057047178993133
40
0.91057047178993133
40
0.91057047178993133
40
0.91057047178993133
10
85.627894528860082
20
27.023274840184609
30
0
10
85.627894528860082
20
23.199059805736056
30
0
10
85.63182230957517
20
20.277070895555596
30
0
10
85.64082952391017
20
18.224510090840557
30
0
10
85.645431007229377
20
17.175925705779612
30
0
10
85.651392462712465
20
16.353358278008553
30
0
10
85.658624662142913
20
15.762153395483855
30
0
10
85.664020817027122
20
15.321038193243108
30
0
10
85.670723700658044
20
15.000055484669499
30
0
10
85.675683893224829
20
14.854660162082752
30
0
10
85.676086662357449
20
14.842854018031312
30
0
10
85.676465221478054
20
14.832410997586468
30
0
10
85.676814478179125
20
14.823282278032908
30
0
0
SPLINE
5
112
100
AcDbEntity
8
0
100
AcDbSpline
70
0
71
3
72
11
73
7
74
0
42
0.000000001
43
0.0000000001
44
0.0000000001
40
0.016663390305816542
40
0.016663390305816542
40
0.016663390305816542
40
0.016663390305816542
40
0.89315733430487165
40
0.89315733430487165
40
0.89315733430487165
40
0.99608993230368836
40
0.99608993230368836
40
0.99608993230368836
40
0.99608993230368836
10
85.67681447817931
20
14.823282278033014
30
0
10
85.780007970585217
20
13.824954980765916
30
0
10
86.137172379357864
20
12.49627014930428
30
0
10
86.558260722483581
20
11.5464901400388
30
0
10
86.607711967916231
20
11.43495106489701
30
0
10
86.657555682081096
20
11.328579652889328
30
0
10
86.706962882564369
20
11.228595805079408
30
0
0
SPLINE
5
113
100
AcDbEntity
8
0
100
AcDbSpline
70
0
71
3
72
11
73
7
74
0
42
0.000000001
43
0.0000000001
44
0.0000000001
40
0.0067635441076076492
40
0.0067635441076076492
40
0.0067635441076076492
40
0.0067635441076076492
40
1
40
1
40
1
40
1.0020669645360332
40
1.0020669645360332
40
1.0020669645360332
40
1.0020669645360332
10
86.706962882571446
20
11.228595805082968
30
0
10
87.004342775694127
20
10.63970488104083
30
0
10
87.137276418041353
20
10.443973183566644
30
0
10
87.46432824000378
20
10.065819514422573
30
0
10
87.465482905227219
20
10.06448443275797
30
0
10
87.466637570450672
20
10.063149351093346
30
0
10
87.467792235676342
20
10.06181426942619
30
0
0
SPLINE
5
114
100
AcDbEntity
8
0
100
AcDbSpline
70
0
71
3
72
17
73
13
74
0
42
0.000000001
43
0.0000000001
44
0.0000000001
40
-0.0014549217828590116
40
-0.0014549217828590116
40
-0.0014549217828590116
40
-0.0014549217828590116
40
0
40
0
40
0
40
0.64734158931635655
40
0.64734158931635655
40
0.64734158931635655
40
1
40
1
40
1
40
1.0058452961205659
40
1.0058452961205659
40
1.0058452961205659
40
1.0058452961205659
10
87.467792235229808
20
10.061814269040532
30
0
10
87.468943646247766
20
10.060476600357939
30
0
10
87.470095057268523
20
10.059138931672049
30
0
10
87.471246468289308
20
10.057801262986141
30
0
10
88.168599286192403
20
9.2476413715986912
30
0
10
88.815046915961474
20
8.3206244388980739
30
0
10
89.280012050713182
20
7.2966626444326739
30
0
10
89.533315512364723
20
6.7388292763984996
30
0
10
89.728418137896966
20
6.1697119321204985
30
0
10
89.877217912134441
20
5.6188361721775308
30
0
10
89.878816572480602
20
5.6129177274916655
30
0
10
89.880415232826834
20
5.6069992828056154
30
0
10
89.882013893173706
20
5.6010808381171762
30
0
0
SPLINE
5
115
100
AcDbEntity
8
0
100
AcDbSpline
70
0
71
3
72
20
73
16
74
0
42
0.000000001
43
0.0000000001
44
0.0000000001
40
-0.01158290826534367
40
-0.01158290826534367
40
-0.01158290826534367
40
-0.01158290826534367
40
0
40
0
40
0
40
0.40262854644835927
40
0.40262854644835927
40
0.40262854644835927
40
0.83870215388331748
40
0.83870215388331748
40
0.83870215388331748
40
1
40
1
40
1
40
1.006482683627768
40
1.006482683627768
40
1.006482683627768
40
1.006482683627768
10
89.88201389337091
20
5.6010808381676691
30
0
10
89.883564127450597
20
5.5951495077759432
30
0
10
89.885114361531393
20
5.5892181773798182
30
0
10
89.886664595612132
20
5.5832868469839774
30
0
10
89.957128604694731
20
5.313685420928735
30
0
10
90.043060702402258
20
4.9595785859943122
30
0
10
90.100203510579632
20
4.5567672294703412
30
0
10
90.162092988413946
20
4.1204956265135788
30
0
10
90.17817910792516
20
3.7262716254310351
30
0
10
90.185030753911533
20
3.3701239665804121
30
0
10
90.187565086925758
20
3.2383896692217427
30
0
10
90.188907552546368
20
3.106219344470726
30
0
10
90.189913814361745
20
2.9643364285024902
30
0
10
90.18995153739921
20
2.9590174802205507
30
0
10
90.189989260436676
20
2.9536985319385067
30
0
10
90.190026983474155
20
2.9483795836554121
30
0
0
SPLINE
5
116
100
AcDbEntity
8
0
100
AcDbSpline
70
0
71
3
72
14
73
10
74
0
42
0.000000001
43
0.0000000001
44
0.0000000001
40
-0.0069248589363203883
40
-0.0069248589363203883
40
-0.0069248589363203883
40
-0.0069248589363203883
40
0
40
0
40
0
40
0.5544450917911089
40
0.5544450917911089
40
0.5544450917911089
40
0.99595106430838887
40
0.99595106430838887
40
0.99595106430838887
40
0.99595106430838887
10
90.190026983474141
20
2.9483795836563331
30
0
10
90.190026983474141
20
2.9430605016053057
30
0
10
90.190026983474141
20
2.9377414195542784
30
0
10
90.190026983474141
20
2.932422337503251
30
0
10
90.190026983474141
20
2.4687421494428663
30
0
10
90.190943082468181
20
2.0733510293322661
30
0
10
90.138923430607235
20
1.5619601854548704
30
0
10
90.097500055551876
20
1.154738415066132
30
0
10
90.010408973808396
20
0.71533912071541006
30
0
10
89.928298967670429
20
0.39485191222934951
30
0
0
SPLINE
5
117
100
AcDbEntity
8
0
100
AcDbSpline
70
0
71
3
72
17
73
13
74
0
42
0.000000001
43
0.0000000001
44
0.0000000001
40
0.00042317423439150036
40
0.00042317423439150036
40
0.00042317423439150036
40
0.00042317423439150036
40
0.39170035279364651
40
0.39170035279364651
40
0.39170035279364651
40
0.81400384757999056
40
0.81400384757999056
40
0.81400384757999056
40
1
40
1
40
1
40
1.0005654391398733
40
1.0005654391398733
40
1.0005654391398733
40
1.0005654391398733
10
89.92829896766672
20
0.39485191223029181
30
0
10
89.258822942628697
20
-2.243414832960247
30
0
10
87.641436920029477
20
-4.4379105790641553
30
0
10
85.58242372191981
20
-5.8497925642635735
30
0
10
83.360141112505502
20
-7.373629703886837
30
0
10
80.596327655581135
20
-8.0487624434174734
30
0
10
77.829272470211535
20
-7.5933293364946266
30
0
10
76.610571643989474
20
-7.3927418286521993
30
0
10
75.398072586673479
20
-6.9683385055403697
30
0
10
74.273430366412597
20
-6.3206485140039934
30
0
10
74.271436434524176
20
-6.3195001934939965
30
0
10
74.26944250263594
20
-6.3183518729841062
30
0
10
74.267448570742204
20
-6.3172035524710459
30
0
0
SPLINE
5
118
100
AcDbEntity
8
0
100
AcDbSpline
70
0
71
3
72
14
73
10
74
0
42
0.000000001
43
0.0000000001
44
0.0000000001
40
-0.0017099804004449375
40
-0.0017099804004449375
40
-0.0017099804004449375
40
-0.0017099804004449375
40
0
40
0
40
0
40
1
40
1
40
1
40
1.0004487840446588
40
1.0004487840446588
40
1.0004487840446588
40
1.0004487840446588
10
74.267448571563563
20
-6.3172035510489897
30
0
10
74.265458480471153
20
-6.3160492982153844
30
0
10
74.263468389378843
20
-6.3148950453818422
30
0
10
74.261478298286519
20
-6.3137407925482947
30
0
10
73.684303065407846
20
-5.978979157478661
30
0
10
72.724108109401996
20
-5.6295070454284302
30
0
10
71.696105341594631
20
-5.4737490503061039
30
0
10
71.695415906855615
20
-5.4736445904971607
30
0
10
71.694726472116599
20
-5.4735401306882192
30
0
10
71.694037037377242
20
-5.4734356708792244
30
0
0
SPLINE
5
119
100
AcDbEntity
8
0
100
AcDbSpline
70
0
71
3
72
20
73
16
74
0
42
0.000000001
43
0.0000000001
44
0.0000000001
40
-0.00053122106679097001
40
-0.00053122106679097001
40
-0.00053122106679097001
40
-0.00053122106679097001
40
0
40
0
40
0
40
0.26556266154379538
40
0.26556266154379538
40
0.26556266154379538
40
0.79541260463239205
40
0.79541260463239205
40
0.79541260463239205
40
1
40
1
40
1
40
1.0000156931651587
40
1.0000156931651587
40
1.0000156931651587
40
1.0000156931651587
10
71.694037037377981
20
-5.4734356708797662
30
0
10
71.69334769975778
20
-5.4733305700766817
30
0
10
71.692658362138047
20
-5.4732254692736735
30
0
10
71.691969024518301
20
-5.4731203684706653
30
0
10
71.463600407768013
20
-5.4383018349751042
30
0
10
71.337497732139596
20
-5.4212141448227289
30
0
10
70.871869913395855
20
-5.397782267486166
30
0
10
69.942850480364029
20
-5.3510310457554366
30
0
10
67.86695807533826
20
-5.3283084417685451
30
0
10
63.112298036700523
20
-5.3297132432890724
30
0
10
61.276413130319227
20
-5.3302556698531252
30
0
10
59.035407462026306
20
-5.3335521295670265
30
0
10
56.288364929834572
20
-5.3383130351687447
30
0
10
56.288154164987638
20
-5.3383134004457755
30
0
10
56.287943400140705
20
-5.3383137657228072
30
0
10
56.287732635294255
20
-5.3383141309998372
30
0
0
SPLINE
5
120
100
AcDbEntity
8
0
100
AcDbSpline
70
0
71
3
72
17
73
13
74
0
42
0.000000001
43
0.0000000001
44
0.0000000001
40
-1.7531385717043299e-05
40
-1.7531385717043299e-05
40
-1.7531385717043299e-05
40
-1.7531385717043299e-05
40
0
40
0
40
0
40
0.59519645638919705
40
0.59519645638919705
40
0.59519645638919705
40
0.91021612338742774
40
0.91021612338742774
40
0.91021612338742774
40
0.91608772375432923
40
0.91608772375432923
40
0.91608772375432923
40
0.91608772375432923
10
56.287732635293935
20
-5.3383141309998416
30
0
10
56.287521870343852
20
-5.3383144370476892
30
0
10
56.287311105393918
20
-5.3383147430955349
30
0
10
56.287100340443992
20
-5.3383150491433806
30
0
10
49.133011667046546
20
-5.3487033676429894
30
0
10
45.769031499585338
20
-5.3575604506005092
30
0
10
44.159403537500175
20
-5.3800452840454049
30
0
10
43.307475641821405
20
-5.3919458332981556
30
0
10
42.95801823082185
20
-5.4118477065883805
30
0
10
42.911906893064469
20
-5.4158771410865301
30
0
10
42.911047431335383
20
-5.4159522450611588
30
0
10
42.910274896083529
20
-5.4160209595472208
30
0
10
42.909595025216227
20
-5.4160822840825933
30
0
0
SPLINE
5
121
100
AcDbEntity
8
0
100
AcDbSpline
70
0
71
3
72
11
73
7
74
0
42
0.000000001
43
0.0000000001
44
0.0000000001
40
0.0057594119537026844
40
0.0057594119537026844
40
0.0057594119537026844
40
0.0057594119537026844
40
1
40
1
40
1
40
1.0013207133809077
40
1.0013207133809077
40
1.0013207133809077
40
1.0013207133809077
10
42.909595025216205
20
-5.4160822840826626
30
0
10
41.557482769565659
20
-5.604280227178057
30
0
10
40.578511839923728
20
-5.957619722451712
30
0
10
39.929988707202916
20
-6.3378901048198255
30
0
10
39.928297942836551
20
-6.3388815075619185
30
0
10
39.926607178470192
20
-6.3398729103040115
30
0
10
39.924916414103592
20
-6.3408643130462465
30
0
0
SPLINE
5
122
100
AcDbEntity
8
0
100
AcDbSpline
70
0
71
3
72
14
73
10
74
0
42
0.000000001
43
0.0000000001
44
0.0000000001
40
-0.0016628845600346772
40
-0.0016628845600346772
40
-0.0016628845600346772
40
-0.0016628845600346772
40
0
40
0
40
0
40
0.7893033156607332
40
0.7893033156607332
40
0.7893033156607332
40
1
40
1
40
1
40
1
10
39.924916414149905
20
-6.3408643131294991
30
0
10
39.923223043700979
20
-6.3418513061911579
30
0
10
39.921529673250177
20
-6.3428382992539145
30
0
10
39.919836302799368
20
-6.3438252923166694
30
0
10
38.361505907454486
20
-7.2521092941748311
30
0
10
36.704832047953047
20
-7.6682167243868626
30
0
10
34.995862535944454
20
-7.7237308877293289
30
0
10
34.539670090438662
20
-7.7385498425190145
30
0
10
34.079009865074234
20
-7.7249242657302384
30
0
10
33.614355236342668
20
-7.6795393950169233
30
0
0
SPLINE
5
123
100
AcDbEntity
8
0
100
AcDbSpline
70
0
71
3
72
14
73
10
74
0
42
0.000000001
43
0.0000000001
44
0.0000000001
40
0.00043900631172120975
40
0.00043900631172120975
40
0.00043900631172120975
40
0.00043900631172120975
40
0.63041581219980813
40
0.63041581219980813
40
0.63041581219980813
40
1
40
1
40
1
40
1.0013223761945891
40
1.0013223761945891
40
1.0013223761945891
40
1.0013223761945891
10
33.6143550582496
20
-7.679541231142939
30
0
10
31.008749388448329
20
-7.4268695230274631
30
0
10
28.715930663586327
20
-6.2217259029691938
30
0
10
27.002389251405145
20
-4.4425282237873862
30
0
10
25.997117620507233
20
-3.3987384793865294
30
0
10
25.183365309600543
20
-2.1388082681104974
30
0
10
24.666946622247018
20
-0.70131445928314107
30
0
10
24.66591549645905
20
-0.69844423600768812
30
0
10
24.664884370671885
20
-0.69557401273443809
30
0
10
24.663853244883839
20
-0.69270378945877087
30
0
0
SPLINE
5
124
100
AcDbEntity
8
0
100
AcDbSpline
70
0
71
3
72
14
73
10
74
0
42
0.000000001
43
0.0000000001
44
0.0000000001
40
0
40
0
40
0
40
0
40
0.66010424556682157
40
0.66010424556682157
40
0.66010424556682157
40
1
40
1
40
1
40
1.0000708309767319
40
1.0000708309767319
40
1.0000708309767319
40
1.0000708309767319
10
24.663861998558328
20
-0.69270064471052906
30
0
10
23.791971889131833
20
1.749873853021048
30
0
10
23.831519123456786
20
4.4630349754285641
30
0
10
24.775169745132754
20
6.8410049450281605
30
0
10
25.261066998680146
20
8.0654507840977985
30
0
10
25.974432878725739
20
9.1995774263023939
30
0
10
26.866414011215994
20
10.190667573513789
30
0
10
26.866529006299899
20
10.190795345829242
30
0
10
26.866644001382404
20
10.190923118143139
30
0
10
26.866758996457328
20
10.191050890448611
30
0
0
SPLINE
5
125
100
AcDbEntity
8
0
100
AcDbSpline
70
0
71
3
72
17
73
13
74
0
42
0.000000001
43
0.0000000001
44
0.0000000001
40
-9.1091589284344261e-05
40
-9.1091589284344261e-05
40
-9.1091589284344261e-05
40
-9.1091589284344261e-05
40
0
40
0
40
0
40
0.81349939287697626
40
0.81349939287697626
40
0.81349939287697626
40
1
40
1
40
1
40
1.0003260616887775
40
1.0003260616887775
40
1.0003260616887775
40
1.0003260616887775
10
26.866758996457897
20
10.191050890449242
30
0
10
26.866874020827058
20
10.191178636407622
30
0
10
26.86698904519103
20
10.191306382360231
30
0
10
26.867104069554976
20
10.191434128312819
30
0
10
27.246748437341651
20
10.613066813274056
30
0
10
27.839272589729532
20
11.6247390695035
30
0
10
28.270717120787904
20
13.203363907795261
30
0
10
28.369628893417168
20
13.565275045454118
30
0
10
28.461484315286558
20
13.955207975699688
30
0
10
28.54414117583292
20
14.371130263342549
30
0
10
28.544319528436919
20
14.372027718466926
30
0
10
28.544497881040932
20
14.372925173591364
30
0
10
28.544676233645401
20
14.373822628718095
30
0
0
LINE
5
126
100
AcDbEntity
8
0
100
AcDbLine
10
28.1852983713027
20
41.310648153379162
30
0
11
27.851463739491713
21
40.061859345489701
31
0
0
LINE
5
127
100
AcDbEntity
8
0
100
AcDbLine
10
27.851463739491713
20
40.061859345489701
30
0
11
27.792877562910718
21
14.694044885920846
31
0
0
LINE
5
128
100
AcDbEntity
8
0
100
AcDbLine
10
27.792877562910718
20
14.694044885920846
30
0
11
27.760115987933538
21
14.530237011036808
31
0
0
SPLINE
5
129
100
AcDbEntity
8
0
100
AcDbSpline
70
0
71
3
72
17
73
13
74
0
42
0.000000001
43
0.0000000001
44
0.0000000001
40
-1.0003840282895227
40
-1.0003840282895227
40
-1.0003840282895227
40
-1.0003840282895227
40
-1
40
-1
40
-1
40
-0.73739221583801529
40
-0.73739221583801529
40
-0.73739221583801529
40
0
40
0
40
0
40
0.00010728565725972379
40
0.00010728565725972379
40
0.00010728565725972379
40
0.00010728565725972379
10
27.760115987933546
20
14.530237011036808
30
0
10
27.759905928157316
20
14.529180008120255
30
0
10
27.75969586838081
20
14.528123005202323
30
0
10
27.75948580860431
20
14.527066002284386
30
0
10
27.647943923923396
20
13.965796731496399
30
0
10
27.51956820714749
20
13.457945590474651
30
0
10
27.381663850647545
20
13.009652508616211
30
0
10
26.994433901094776
20
11.750863360262013
30
0
10
26.512361980369693
20
10.99303114272287
30
0
10
26.272591429593305
20
10.726742190017298
30
0
10
26.272455956443913
20
10.72659173366244
30
0
10
26.272320483294514
20
10.726441277307575
30
0
10
26.272185010139705
20
10.726290820946705
30
0
0
SPLINE
5
130
100
AcDbEntity
8
0
100
AcDbSpline
70
0
71
3
72
17
73
13
74
0
42
0.000000001
43
0.0000000001
44
0.0000000001
40
-1.0000834231441804
40
-1.0000834231441804
40
-1.0000834231441804
40
-1.0000834231441804
40
-1
40
-1
40
-1
40
-0.63364598451122167
40
-0.63364598451122167
40
-0.63364598451122167
40
0
40
0
40
0
40
0.00076292425871006422
40
0.00076292425871006422
40
0.00076292425871006422
40
0.00076292425871006422
10
26.272185010163138
20
10.726290820972729
30
0
10
26.272049571504947
20
10.726140333574739
30
0
10
26.271914132862449
20
10.72598984619419
30
0
10
26.271778694218256
20
10.725839358811751
30
0
10
25.245184316795619
20
9.5851789394532645
30
0
10
24.435904673374441
20
8.2609157766007737
30
0
10
23.914073073078814
20
6.8271125399765653
30
0
10
23.011513024222143
20
4.3472061514687219
30
0
10
23.013839478377839
20
1.5501099513719454
30
0
10
23.910423739239395
20
-0.96164448530639679
30
0
10
23.911027510116057
20
-0.96333593165940257
30
0
10
23.911631280992474
20
-0.96502737801170846
30
0
10
23.912235051870915
20
-0.9667188243696947
30
0
0
SPLINE
5
131
100
AcDbEntity
8
0
100
AcDbSpline
70
0
71
3
72
14
73
10
74
0
42
0.000000001
43
0.0000000001
44
0.0000000001
40
-1.0007787468504052
40
-1.0007787468504052
40
-1.0007787468504052
40
-1.0007787468504052
40
-1
40
-1
40
-1
40
-0.59838372289043507
40
-0.59838372289043507
40
-0.59838372289043507
40
-0.00047908904722118864
40
-0.00047908904722118864
40
-0.00047908904722118864
40
-0.00047908904722118864
10
23.912235051693258
20
-0.96671882443261059
30
0
10
23.912842281284973
20
-0.96840909784836304
30
0
10
23.913449510878912
20
-0.970099371270293
30
0
10
23.914056740472979
20
-0.97178964469258167
30
0
10
24.519325455961987
20
-2.6566048004940734
30
0
10
25.499254723380801
20
-4.1093041636065433
30
0
10
26.711564652867906
20
-5.2837034904025799
30
0
10
28.516386234580672
20
-7.0320858132687922
30
0
10
30.867717910241485
20
-8.2168160250931326
30
0
10
33.536585598011698
20
-8.4757523718168031
30
0
0
SPLINE
5
132
100
AcDbEntity
8
0
100
AcDbSpline
70
0
71
3
72
14
73
10
74
0
42
0.000000001
43
0.0000000001
44
0.0000000001
40
-1
40
-1
40
-1
40
-1
40
-0.75766650478115805
40
-0.75766650478115805
40
-0.75766650478115805
40
0
40
0
40
0
40
0.0019585314411408612
40
0.0019585314411408612
40
0.0019585314411408612
40
0.0019585314411408612
10
33.536585792463768
20
-8.4757503680628652
30
0
10
34.112119527808716
20
-8.5319652910500459
30
0
10
34.680556503280208
20
-8.5429328374810716
30
0
10
35.242123003456456
20
-8.5140698287125982
30
0
10
36.997885767520451
20
-8.4238283416605189
30
0
10
38.698051366973459
20
-7.9819224094293029
30
0
10
40.322687531641499
20
-7.0349916163085027
30
0
10
40.324681969107417
20
-7.0338291441855061
30
0
10
40.326676406573782
20
-7.0326666720622573
30
0
10
40.328670844040929
20
-7.0315041999385457
30
0
0
SPLINE
5
133
100
AcDbEntity
8
0
100
AcDbSpline
70
0
71
3
72
11
73
7
74
0
42
0.000000001
43
0.0000000001
44
0.0000000001
40
-1.0015554886356357
40
-1.0015554886356357
40
-1.0015554886356357
40
-1.0015554886356357
40
-1
40
-1
40
-1
40
-0.011768617376813431
40
-0.011768617376813431
40
-0.011768617376813431
40
-0.011768617376813431
10
40.328670843877447
20
-7.0315041996584204
30
0
10
40.330662165230876
20
-7.0303365612284496
30
0
10
40.332653486584505
20
-7.029168922798366
30
0
10
40.33464480793814
20
-7.0280012843682806
30
0
10
40.868933463666465
20
-6.7147138453275792
30
0
10
41.738203654846032
20
-6.3892422819015371
30
0
10
42.996871621721134
20
-6.2116683293001005
30
0
0
SPLINE
5
134
100
AcDbEntity
8
0
100
AcDbSpline
70
0
71
3
72
14
73
10
74
0
42
0.000000001
43
0.0000000001
44
0.0000000001
40
-0.87288062962648694
40
-0.87288062962648694
40
-0.87288062962648694
40
-0.87288062962648694
40
-0.57731012092648692
40
-0.57731012092648692
40
-0.57731012092648692
40
0
40
0
40
0
40
2.0648076486917897e-05
40
2.0648076486917897e-05
40
2.0648076486917897e-05
40
2.0648076486917897e-05
10
42.996871621721155
20
-6.2116683293002639
30
0
10
43.07948844808049
20
-6.2058165253580917
30
0
10
43.471280886652544
20
-6.188728954476951
30
0
10
44.319561997003554
20
-6.1779861375435114
30
0
10
45.976429837270594
20
-6.1570032019650869
30
0
10
49.349412344966758
20
-6.148389979677308
30
0
10
56.288262004272809
20
-6.1383142057286548
30
0
10
56.288510238546777
20
-6.1383138452723029
30
0
10
56.28875847282076
20
-6.1383134848159511
30
0
10
56.289006707092767
20
-6.1383131243596019
30
0
0
SPLINE
5
135
100
AcDbEntity
8
0
100
AcDbSpline
70
0
71
3
72
20
73
16
74
0
42
0.000000001
43
0.0000000001
44
0.0000000001
40
-1.0000184830612084
40
-1.0000184830612084
40
-1.0000184830612084
40
-1.0000184830612084
40
-1
40
-1
40
-1
40
-0.76882832685198466
40
-0.76882832685198466
40
-0.76882832685198466
40
-0.26851162475695939
40
-0.26851162475695939
40
-0.26851162475695939
40
0
40
0
40
0
40
0.00062566036743011205
40
0.00062566036743011205
40
0.00062566036743011205
40
0.00062566036743011205
10
56.289006707094501
20
-6.1383131243595965
30
0
10
56.289254941248089
20
-6.1383126941444246
30
0
10
56.289503175401421
20
-6.1383122639292544
30
0
10
56.289751409554761
20
-6.1383118337140843
30
0
10
59.393618719583557
20
-6.1329325142859581
30
0
10
61.851276326425079
20
-6.1294247657989587
30
0
10
63.807565981822883
20
-6.1296439534618834
30
0
10
68.041494712807832
20
-6.1301183335931544
30
0
10
69.964320789605225
20
-6.1538400734826002
30
0
10
70.81670442897385
20
-6.1960247524345142
30
0
10
71.274164503691978
20
-6.2186645656524187
30
0
10
71.36137883760307
20
-6.2319614622630244
30
0
10
71.571389375718113
20
-6.2639810061908801
30
0
10
71.572201262247859
20
-6.2641047915810653
30
0
10
71.573013148777605
20
-6.2642285769712513
30
0
10
71.573825035306101
20
-6.2643523623612456
30
0
0
SPLINE
5
136
100
AcDbEntity
8
0
100
AcDbSpline
70
0
71
3
72
14
73
10
74
0
42
0.000000001
43
0.0000000001
44
0.0000000001
40
-1.0005285678747979
40
-1.0005285678747979
40
-1.0005285678747979
40
-1.0005285678747979
40
-1
40
-1
40
-1
40
0
40
0
40
0
40
0.002014020056351689
40
0.002014020056351689
40
0.002014020056351689
40
0.002014020056351689
10
71.573825035309042
20
-6.2643523623611896
30
0
10
71.574637036222541
20
-6.2644753928026295
30
0
10
71.575449037137389
20
-6.2645984232442729
30
0
10
71.576261038052252
20
-6.264721453685917
30
0
10
72.513912604486109
20
-6.4067898728425625
30
0
10
73.387219094349007
20
-6.7314925993281216
30
0
10
73.860103826469242
20
-7.0057657439578573
30
0
10
73.862447761740498
20
-7.0071252264151864
30
0
10
73.864791697011754
20
-7.0084847088725155
30
0
10
73.867135632283322
20
-7.0098441913300258
30
0
0
SPLINE
5
137
100
AcDbEntity
8
0
100
AcDbSpline
70
0
71
3
72
17
73
13
74
0
42
0.000000001
43
0.0000000001
44
0.0000000001
40
-1.0006659473912058
40
-1.0006659473912058
40
-1.0006659473912058
40
-1.0006659473912058
40
-1
40
-1
40
-1
40
-0.78386329489043582
40
-0.78386329489043582
40
-0.78386329489043582
40
-0.37251866104449505
40
-0.37251866104449505
40
-0.37251866104449505
40
-0.00046419829493349313
40
-0.00046419829493349313
40
-0.00046419829493349313
40
-0.00046419829493349313
10
73.867135631579217
20
-7.0098441925401129
30
0
10
73.869483989958084
20
-7.0111966299563209
30
0
10
73.871832348332148
20
-7.0125490673697684
30
0
10
73.874180706706369
20
-7.013901504783302
30
0
10
75.27790916373155
20
-7.8223193785486238
30
0
10
76.812428027499649
20
-8.3067819438955919
30
0
10
78.337351256036087
20
-8.4690924386937443
30
0
10
81.239537568016345
20
-8.7779967084162553
30
0
10
84.082303132288914
20
-7.9571351898747018
30
0
10
86.356601298971029
20
-6.2807809822082872
30
0
10
88.41366662306649
20
-4.7645461445736119
30
0
10
90.02070589547921
20
-2.4926724010711903
30
0
10
90.703496997290245
20
0.1971936190430662
30
0
0
SPLINE
5
138
100
AcDbEntity
8
0
100
AcDbSpline
70
0
71
3
72
14
73
10
74
0
42
0.000000001
43
0.0000000001
44
0.0000000001
40
-0.99557074699467807
40
-0.99557074699467807
40
-0.99557074699467807
40
-0.99557074699467807
40
-0.54217126774880087
40
-0.54217126774880087
40
-0.54217126774880087
40
0
40
0
40
0
40
0.008155944969077851
40
0.008155944969077851
40
0.008155944969077851
40
0.008155944969077851
10
90.703496997289804
20
0.19719361904318083
30
0
10
90.794458147581864
20
0.55235141719450831
30
0
10
90.893990054244881
20
1.061156558603658
30
0
10
90.938525273814122
20
1.5182490252116776
30
0
10
90.99178011321861
20
2.0648363360561679
30
0
10
90.990026983474138
20
2.4724349259110614
30
0
10
90.990026983474138
20
2.932422337503251
30
0
10
90.990026983474138
20
2.9386870341408464
30
0
10
90.990026983474138
20
2.9449517307784419
30
0
10
90.990026983474138
20
2.9512164274160368
30
0
0
SPLINE
5
139
100
AcDbEntity
8
0
100
AcDbSpline
70
0
71
3
72
20
73
16
74
0
42
0.000000001
43
0.0000000001
44
0.0000000001
40
-1.0076351607170773
40
-1.0076351607170773
40
-1.0076351607170773
40
-1.0076351607170773
40
-1
40
-1
40
-1
40
-0.80953690621496177
40
-0.80953690621496177
40
-0.80953690621496177
40
-0.39684758086394206
40
-0.39684758086394206
40
-0.39684758086394206
40
0
40
0
40
0
40
0.013642084248623232
40
0.013642084248623232
40
0.013642084248623232
40
0.013642084248623232
10
90.990026983474138
20
2.9512164274158241
30
0
10
90.98998255411891
20
2.9574809665040829
30
0
10
90.989938124763668
20
2.9637455055921063
30
0
10
90.989893695408441
20
2.9700100446801327
30
0
10
90.988691281422859
20
3.1395504166464541
30
0
10
90.987052062611312
20
3.2972297423369263
30
0
10
90.983314857674728
20
3.4599705731132815
30
0
10
90.975217201833217
20
3.8125921877551106
30
0
10
90.955362731810254
20
4.2318823942003183
30
0
10
90.889528477303287
20
4.6883184553194148
30
0
10
90.826221376697177
20
5.1272334830345407
30
0
10
90.733021915599195
20
5.5087382604175064
30
0
10
90.660664927628787
20
5.7855823883043387
30
0
10
90.65883909740954
20
5.7925681734909942
30
0
10
90.657013267190294
20
5.799553958677647
30
0
10
90.655187436971914
20
5.8065397438609709
30
0
0
SPLINE
5
140
100
AcDbEntity
8
0
100
AcDbSpline
70
0
71
3
72
17
73
13
74
0
42
0.000000001
43
0.0000000001
44
0.0000000001
40
-1.0068844637650682
40
-1.0068844637650682
40
-1.0068844637650682
40
-1.0068844637650682
40
-1
40
-1
40
-1
40
-0.6148299847961084
40
-0.6148299847961084
40
-0.6148299847961084
40
0
40
0
40
0
40
0.0017132155911916778
40
0.0017132155911916778
40
0.0017132155911916778
40
0.0017132155911916778
10
90.655187436835391
20
5.806539743830804
30
0
10
90.653304569142222
20
5.8135103603969966
30
0
10
90.651421701448314
20
5.8204809769658716
30
0
10
90.649538833754448
20
5.8274515935346667
30
0
10
90.476856665686526
20
6.4667430242542121
30
0
10
90.241645585305349
20
7.1395071112149475
30
0
10
89.931340158997386
20
7.7934854721648819
30
0
10
89.436013230606846
20
8.8374024175350598
30
0
10
88.771142441893502
20
9.7739257726601689
30
0
10
88.077566913503631
20
10.579697342407247
30
0
10
88.076211091260348
20
10.581272488836937
30
0
10
88.074855269017746
20
10.582847635265844
30
0
10
88.073499446776808
20
10.584422781692787
30
0
0
SPLINE
5
141
100
AcDbEntity
8
0
100
AcDbSpline
70
0
71
3
72
14
73
10
74
0
42
0.000000001
43
0.0000000001
44
0.0000000001
40
-1.0024349348039057
40
-1.0024349348039057
40
-1.0024349348039057
40
-1.0024349348039057
40
-1
40
-1
40
-1
40
-0.89894940500720311
40
-0.89894940500720311
40
-0.89894940500720311
40
-0.0086533425419746679
40
-0.0086533425419746679
40
-0.0086533425419746679
40
-0.0086533425419746679
10
88.073499449631214
20
10.584422784154324
30
0
10
88.072139225743513
20
10.585995543024495
30
0
10
88.07077900185449
20
10.587568301896169
30
0
10
88.069418777965481
20
10.58914106076784
30
0
10
88.040265109242824
20
10.622849990228403
30
0
10
88.013538966538235
20
10.654553251721
30
0
10
87.988720160973003
20
10.684717961356437
30
0
10
87.770056580898128
20
10.95048108937911
30
0
10
87.669784196015996
20
11.097107968693621
30
0
10
87.422653221251124
20
11.586087779209873
30
0
0
SPLINE
5
142
100
AcDbEntity
8
0
100
AcDbSpline
70
0
71
3
72
11
73
7
74
0
42
0.000000001
43
0.0000000001
44
0.0000000001
40
-0.99491117726865375
40
-0.99491117726865375
40
-0.99491117726865375
40
-0.99491117726865375
40
-0.85735785252079399
40
-0.85735785252079399
40
-0.85735785252079399
40
-0.025015199616186614
40
-0.025015199616186614
40
-0.025015199616186614
40
-0.025015199616186614
10
87.422653221255871
20
11.586087779212267
30
0
10
87.363465388591109
20
11.706014625616547
30
0
10
87.302719295646995
20
11.837980414226866
30
0
10
87.242560707902925
20
11.978862732750223
30
0
10
86.878537819981645
20
12.831349308134925
30
0
10
86.567521344697965
20
14.016534499702779
30
0
10
86.475297754561083
20
14.879630108858226
30
0
0
SPLINE
5
143
100
AcDbEntity
8
0
100
AcDbSpline
70
0
71
3
72
17
73
13
74
0
42
0.000000001
43
0.0000000001
44
0.0000000001
40
-0.89696723254061628
40
-0.89696723254061628
40
-0.89696723254061628
40
-0.89696723254061628
40
-0.89310501827807165
40
-0.89310501827807165
40
-0.89310501827807165
40
-0.71237831905286375
40
-0.71237831905286375
40
-0.71237831905286375
40
-0.47037143594032105
40
-0.47037143594032105
40
-0.47037143594032105
40
0
40
0
40
0
40
0
10
86.475297754560984
20
14.879630108858205
30
0
10
86.475201348877448
20
14.882433595316702
30
0
10
86.47510366313368
20
14.885315235831499
30
0
10
86.475003934778442
20
14.888300681892595
30
0
10
86.470337291439563
20
15.028000288299591
30
0
10
86.463642483813942
20
15.350826704860719
30
0
10
86.458293999511369
20
15.794233122296127
30
0
10
86.451131969656373
20
16.38798825363908
30
0
10
86.445207279218224
20
17.215223156543725
30
0
10
86.440643125280602
20
18.269009227025389
30
0
10
86.43177210634974
20
20.317177695505933
30
0
10
86.42789452886008
20
23.225014113597865
30
0
10
86.42789452886008
20
27.023274840184609
30
0
0
SPLINE
5
144
100
AcDbEntity
8
0
100
AcDbSpline
70
0
71
3
72
20
73
16
74
0
42
0.000000001
43
0.0000000001
44
0.0000000001
40
-1
40
-1
40
-1
40
-1
40
-0.62294669441460893
40
-0.62294669441460893
40
-0.62294669441460893
40
-0.30885747662311891
40
-0.30885747662311891
40
-0.30885747662311891
40
-0.14392192403850884
40
-0.14392192403850884
40
-0.14392192403850884
40
0
40
0
40
0
40
0.00093132893585467016
40
0.00093132893585467016
40
0.00093132893585467016
40
0.00093132893585467016
10
86.42789452886008
20
27.023274840184609
30
0
10
86.42789452886008
20
32.003708307455206
30
0
10
86.4315341274785
20
34.979143319953721
30
0
10
86.413568226143525
20
36.886902531865978
30
0
10
86.398602448589955
20
38.476085254117244
30
0
10
86.389364045410161
20
39.29997419221538
30
0
10
86.273403046988463
20
40.23941910147478
30
0
10
86.21250922997865
20
40.732743470649275
30
0
10
86.08792524821915
20
41.303347129515579
30
0
10
85.967941953815497
20
41.69722506123226
30
0
10
85.863245141560952
20
42.04092094050543
30
0
10
85.804235022217028
20
42.189627325728416
30
0
10
85.77767798614363
20
42.269298433948627
30
0
10
85.777304044342998
20
42.270420259350516
30
0
10
85.776930102542394
20
42.271542084752326
30
0
10
85.776556160742985
20
42.272663910150492
30
0
0
SPLINE
5
145
100
AcDbEntity
8
0
100
AcDbSpline
70
0
71
3
72
14
73
10
74
0
42
0.000000001
43
0.0000000001
44
0.0000000001
40
-1.0004301310720398
40
-1.0004301310720398
40
-1.0004301310720398
40
-1.0004301310720398
40
-1
40
-1
40
-1
40
-0.63303964991969852
40
-0.63303964991969852
40
-0.63303964991969852
40
-0.00088072587198908083
40
-0.00088072587198908083
40
-0.00088072587198908083
40
-0.00088072587198908083
10
85.776556160728532
20
42.272663910187106
30
0
10
85.776180717833768
20
42.273785232966141
30
0
10
85.775805274926967
20
42.274906555781129
30
0
10
85.775429832019796
20
42.276027878597219
30
0
10
85.248397041730215
20
43.850099145595436
30
0
10
84.428824324800459
20
45.315444038021511
30
0
10
83.362441802303238
20
46.5679777059459
30
0
10
81.525395298784233
20
48.725704925454345
30
0
10
78.972102722387433
20
50.206705820686096
30
0
10
76.195279431312429
20
50.851638291296545
30
0
0
SPLINE
5
146
100
AcDbEntity
8
0
100
AcDbSpline
70
0
71
3
72
17
73
13
74
0
42
0.000000001
43
0.0000000001
44
0.0000000001
40
-0.9948715330803316
40
-0.9948715330803316
40
-0.9948715330803316
40
-0.9948715330803316
40
-0.90565150338892131
40
-0.90565150338892131
40
-0.90565150338892131
40
-0.75
40
-0.75
40
-0.75
40
-0.5
40
-0.5
40
-0.5
40
0
40
0
40
0
40
0
10
76.195279431317701
20
50.851638291318295
30
0
10
76.129219328295804
20
50.867188688457091
30
0
10
75.998502222038823
20
50.897963821747005
30
0
10
75.830097799119301
20
50.929826568895386
30
0
10
75.536302765701038
20
50.9854136888829
30
0
10
75.192173930023088
20
51.026532838980103
30
0
10
74.902695536327911
20
51.047649803869717
30
0
10
74.437749185999593
20
51.081566862860235
30
0
10
74.008006551067751
20
51.090228086163748
30
0
10
73.295612899480318
20
51.099440073037727
30
0
10
71.870825596305465
20
51.11786404678567
30
0
10
69.338913834598927
20
51.121696678455592
30
0
10
64.290919167907845
20
51.130425199493096
30
0
0
LINE
5
147
100
AcDbEntity
8
0
100
AcDbLine
10
64.290919167907845
20
51.130425199493096
30
0
11
41.306714689742449
21
51.182961345012075
31
0
0
SPLINE
5
148
100
AcDbEntity
8
0
100
AcDbSpline
70
0
71
3
72
11
73
7
74
0
42
0.000000001
43
0.0000000001
44
0.0000000001
40
-0.52901519772130434
40
-0.52901519772130434
40
-0.52901519772130434
40
-0.52901519772130434
40
-0.4386513158198197
40
-0.4386513158198197
40
-0.4386513158198197
40
0
40
0
40
0
40
0
10
40.089988122324954
20
51.113546735224269
30
0
10
39.922601169952173
20
51.10575736967629
30
0
10
39.75793619443516
20
51.095862747927406
30
0
10
39.59199510678998
20
51.083242118787609
30
0
10
38.786471097501732
20
51.021978088711066
30
0
10
37.929738266822383
20
50.84752478264997
30
0
10
37.372361501575419
20
50.697067250926864
30
0
0
SPLINE
5
149
100
AcDbEntity
8
0
100
AcDbSpline
70
0
71
3
72
11
73
7
74
0
42
0.000000001
43
0.0000000001
44
0.0000000001
40
-0.99901145436155758
40
-0.99901145436155758
40
-0.99901145436155758
40
-0.99901145436155758
40
-0.66074732083962739
40
-0.66074732083962739
40
-0.66074732083962739
40
-0.0013427551662555162
40
-0.0013427551662555162
40
-0.0013427551662555162
40
-0.0013427551662555162
10
37.37236030720554
20
50.697071692839167
30
0
10
36.339520984724423
20
50.419376929466331
30
0
10
35.381871241915647
20
50.016229105023626
30
0
10
34.48970447644885
20
49.518202728765445
30
0
10
32.750534460504198
20
48.547361206458078
30
0
10
31.233826442721231
20
47.234761453012212
30
0
10
30.062246405786066
20
45.481660214668779
30
0
0
SPLINE
5
150
100
AcDbEntity
8
0
100
AcDbSpline
70
0
71
3
72
11
73
7
74
0
42
0.000000001
43
0.0000000001
44
0.0000000001
40
-0.99748361780327433
40
-0.99748361780327433
40
-0.99748361780327433
40
-0.99748361780327433
40
-0.56561430155756165
40
-0.56561430155756165
40
-0.56561430155756165
40
-0.0014918531955340037
40
-0.0014918531955340037
40
-0.0014918531955340037
40
-0.0014918531955340037
10
30.062246405787967
20
45.481660214667514
30
0
10
29.710085939822733
20
44.957922862057345
30
0
10
29.363577562968842
20
44.385605110967781
30
0
10
29.063179738016998
20
43.760162879216786
30
0
10
28.670789841074082
20
42.943188878490034
30
0
10
28.395244111758821
20
42.102386038769566
30
0
10
28.1852983713027
20
41.310648153379162
30
0
0
LWPOLYLINE
5
151
100
AcDbEntity
8
0
100
AcDbPolyline
90
4
70
1
43
0.0
10
42.005332211692512
20
0
10
48.005332211692519
20
0
10
48.005332211692519
20
-5.8306518306039568
10
42.005332211692512
20
-5.8306518306039568
0
LWPOLYLINE
5
152
100
AcDbEntity
8
0
100
AcDbPolyline
90
4
70
1
43
0.0
10
72.000001072883606
20
0
10
66.000001072883606
20
5.3926038442842604e-32
10
66.000001072883606
20
-6.0000000894069672
10
72.000001072883606
20
-6.0000000894069672
0
LWPOLYLINE
5
153
100
AcDbEntity
8
0
100
AcDbPolyline
90
4
70
1
43
0.0
10
80.68651875940796
20
13.919987295290294
10
86.435031179776161
20
13.919987295290294
10
86.435031179776161
20
19.919987295290294
10
80.68651875940796
20
19.919987295290294
0
LWPOLYLINE
5
154
100
AcDbEntity
8
0
100
AcDbPolyline
90
4
70
1
43
0.0
10
80.68651875940796
20
38.964232661388991
10
86.1487147998034
20
38.964232661388991
10
86.1487147998034
20
32.964232661388991
10
80.68651875940796
20
32.964232661388991
0
LWPOLYLINE
5
155
100
AcDbEntity
8
0
100
AcDbPolyline
90
4
70
1
43
0.0
10
74.346469783948976
20
45.206742421840929
10
68.34646978394899
20
45.206742421840929
10
68.34646978394899
20
50.50000075250864
10
74.346469783948976
20
50.50000075250864
0
LWPOLYLINE
5
156
100
AcDbEntity
8
0
100
AcDbPolyline
90
4
70
1
43
0.0
10
54.098423544571467
20
45.853709308464033
10
60.09842354457146
20
45.853709308464033
10
60.09842354457146
20
50.50000075250864
10
54.098423544571467
20
50.50000075250864
0
LWPOLYLINE
5
157
100
AcDbEntity
8
0
100
AcDbPolyline
90
4
70
1
43
0.0
10
45.000000670552254
20
45.500000678002834
10
39.000000670552254
20
45.500000678002834
10
39.000000670552254
20
50.50000075250864
10
45.000000670552254
20
50.50000075250864
0
LWPOLYLINE
5
158
100
AcDbEntity
8
0
100
AcDbPolyline
90
4
70
1
43
0.0
10
34.000000506639481
20
14.227995718264687
10
28.20815805856364
20
14.227995718264687
10
28.20815805856364
20
20.227995718264683
10
34.000000506639481
20
20.227995718264683
0
LWPOLYLINE
5
159
100
AcDbEntity
8
0
100
AcDbPolyline
90
4
70
1
43
0.0
10
33.591686209960649
20
38.29525658812932
10
28.228627747352224
20
38.29525658812932
10
28.228627747352224
20
32.295256588129313
10
33.591686209960649
20
32.295256588129313
0
LINE
5
160
100
AcDbEntity
8
0
100
AcDbLine
10
41.219497186753529
20
50.342692223648939
30
0
11
43.237538667829838
21
50.378545943268982
31
0
0
LINE
5
161
100
AcDbEntity
8
0
100
AcDbLine
10
41.306714689742449
20
51.182961345012075
30
0
11
40.089988122324954
21
51.113546735224269
31
0
0
ENDSEC
0
SECTION
2
OBJECTS
0
DICTIONARY
5
C
100
AcDbDictionary
3
ACAD_GROUP
350
D
3
ACAD_MLINESTYLE
350
17
0
DICTIONARY
5
D
100
AcDbDictionary
0
DICTIONARY
5
1A
330
C
100
AcDbDictionary
0
DICTIONARY
5
17
100
AcDbDictionary
0
ENDSEC
0
EOF
