0
SECTION
2
HEADER
9
$INSUNITS
70
4
9
$ACADVER
1
AC1014
9
$HANDSEED
5
FFFF
0
ENDSEC
0
SECTION
2
TABLES
0
TABLE
2
VPORT
5
8
100
AcDbSymbolTable
0
ENDTAB
0
TABLE
2
LTYPE
5
5
100
AcDbSymbolTable
0
LTYPE
5
14
100
AcDbSymbolTableRecord
100
AcDbLinetypeTableRecord
2
BYBLOCK
70
0
0
LTYPE
5
15
100
AcDbSymbolTableRecord
100
AcDbLinetypeTableRecord
2
BYLAYER
70
0
0
LTYPE
5
16
100
AcDbSymbolTableRecord
100
AcDbLinetypeTableRecord
2
DASHED
70
0
3
Dashed __ __ __ __ __ __ __ __ __ __ __ __ __ _
72
65
73
2
40
0.75
49
0.5
74
0
49
-0.25
74
0
0
ENDTAB
0
TABLE
2
LAYER
5
2
100
AcDbSymbolTable
70
2
0
LAYER
5
50
100
AcDbSymbolTableRecord
100
AcDbLayerTableRecord
2
0
70
0
62
7
6
CONTINUOUS
0
ENDTAB
0
TABLE
2
STYLE
5
3
100
AcDbSymbolTable
70
1
0
STYLE
5
11
100
AcDbSymbolTableRecord
100
AcDbTextStyleTableRecord
2
STANDARD
70
0
0
ENDTAB
0
TABLE
2
VIEW
5
6
100
AcDbSymbolTable
70
0
0
ENDTAB
0
TABLE
2
UCS
5
7
100
AcDbSymbolTable
70
0
0
ENDTAB
0
TABLE
2
APPID
5
9
100
AcDbSymbolTable
70
2
0
APPID
5
12
100
AcDbSymbolTableRecord
100
AcDbRegAppTableRecord
2
ACAD
70
0
0
ENDTAB
0
TABLE
2
DIMSTYLE
5
A
100
AcDbSymbolTable
70
1
0
ENDTAB
0
TABLE
2
BLOCK_RECORD
5
1
100
AcDbSymbolTable
70
1
0
BLOCK_RECORD
5
1F
100
AcDbSymbolTableRecord
100
AcDbBlockTableRecord
2
*MODEL_SPACE
0
BLOCK_RECORD
5
1B
100
AcDbSymbolTableRecord
100
AcDbBlockTableRecord
2
*PAPER_SPACE
0
ENDTAB
0
ENDSEC
0
SECTION
2
BLOCKS
0
BLOCK
5
20
100
AcDbEntity
100
AcDbBlockBegin
2
*MODEL_SPACE
0
ENDBLK
5
21
100
AcDbEntity
100
AcDbBlockEnd
0
BLOCK
5
1C
100
AcDbEntity
100
AcDbBlockBegin
2
*PAPER_SPACE
0
ENDBLK
5
1D
100
AcDbEntity
100
AcDbBlockEnd
0
ENDSEC
0
SECTION
2
ENTITIES
0
SPLINE
5
100
100
AcDbEntity
8
0
100
AcDbSpline
70
4
71
3
72
8
73
4
74
0
42
0.000000001
43
0.0000000001
44
0.0000000001
40
0
40
0
40
0
40
0
40
1
40
1
40
1
40
1
41
1
41
1
41
1
41
1
10
-44.039259098158027
20
3.3031660655302186
30
0
10
-46.297462862894314
20
3.0853697633475274
30
0
10
-48.343601807084298
20
1.4805549051593037
30
0
10
-49.111620346360084
20
-0.65728774521286226
30
0
0
SPLINE
5
101
100
AcDbEntity
8
0
100
AcDbSpline
70
4
71
3
72
8
73
4
74
0
42
0.000000001
43
0.0000000001
44
0.0000000001
40
0
40
0
40
0
40
0
40
1
40
1
40
1
40
1
41
1
41
1
41
1
41
1
10
-49.111620346360084
20
-0.65728774521286226
30
0
10
-49.891101848908654
20
-2.8409822486761271
30
0
10
-49.421120354724962
20
-5.1450378665035057
30
0
10
-47.822036978173124
20
-6.9217971737833217
30
0
0
SPLINE
5
102
100
AcDbEntity
8
0
100
AcDbSpline
70
4
71
3
72
8
73
4
74
0
42
0.000000001
43
0.0000000001
44
0.0000000001
40
0
40
0
40
0
40
0
40
1
40
1
40
1
40
1
41
1
41
1
41
1
41
1
10
-47.822036978173124
20
-6.9217971737833217
30
0
10
-46.57830546307725
20
-8.3030842481524747
30
0
10
-45.655536919619024
20
-10.429463935251873
30
0
10
-45.116777645798692
20
-13.140454749262691
30
0
0
LINE
5
103
100
AcDbEntity
8
0
100
AcDbLine
10
-45.116777645798692
20
-13.140454749262691
30
0
11
-44.984953568161799
21
-13.799575137447139
31
0
0
LINE
5
104
100
AcDbEntity
8
0
100
AcDbLine
10
-44.984953568161799
20
-13.799575137447139
30
0
11
-44.956296159979871
21
-26.208232880223949
31
0
0
LINE
5
105
100
AcDbEntity
8
0
100
AcDbLine
10
-44.956296159979871
20
-26.208232880223949
30
0
11
-44.927638751797936
21
-38.616890623000742
31
0
0
LINE
5
106
100
AcDbEntity
8
0
100
AcDbLine
10
-44.927638751797936
20
-38.616890623000742
30
0
11
-44.772888747615497
21
-39.195770268275787
31
0
0
SPLINE
5
107
100
AcDbEntity
8
0
100
AcDbSpline
70
4
71
3
72
8
73
4
74
0
42
0.000000001
43
0.0000000001
44
0.0000000001
40
0
40
0
40
0
40
0
40
1
40
1
40
1
40
1
41
1
41
1
41
1
41
1
10
-44.772888747615497
20
-39.195770268275787
30
0
10
-44.492046147432561
20
-40.256094371007293
30
0
10
-44.222666510522394
20
-40.863631424464266
30
0
10
-43.632323901974587
20
-41.740548114831398
30
0
0
SPLINE
5
108
100
AcDbEntity
8
0
100
AcDbSpline
70
4
71
3
72
8
73
4
74
0
42
0.000000001
43
0.0000000001
44
0.0000000001
40
0
40
0
40
0
40
0
40
1
40
1
40
1
40
1
41
1
41
1
41
1
41
1
10
-43.632323901974587
20
-41.740548114831398
30
0
10
-42.692360913607189
20
-43.150492597382488
30
0
10
-41.076083092146199
20
-44.296788924659786
30
0
10
-39.408221935957719
20
-44.743844492297939
30
0
0
SPLINE
5
109
100
AcDbEntity
8
0
100
AcDbSpline
70
4
71
3
72
8
73
4
74
0
42
0.000000001
43
0.0000000001
44
0.0000000001
40
0
40
0
40
0
40
0
40
1
40
1
40
1
40
1
41
1
41
1
41
1
41
1
10
-39.408221935957719
20
-44.743844492297939
30
0
10
-38.473990429226717
20
-44.996029684298939
30
0
10
-38.038397824861349
20
-45.018955610844486
30
0
10
-34.7829162553938
20
-44.996029684298939
30
0
0
SPLINE
5
110
100
AcDbEntity
8
0
100
AcDbSpline
70
4
71
3
72
8
73
4
74
0
42
0.000000001
43
0.0000000001
44
0.0000000001
40
0
40
0
40
0
40
0
40
1
40
1
40
1
40
1
41
1
41
1
41
1
41
1
10
-34.7829162553938
20
-44.996029684298939
30
0
10
-31.859860620836681
20
-44.973103757753393
30
0
10
-31.728036543199792
20
-44.967372276117004
30
0
10
-31.34975875519828
20
-44.847011161752889
30
0
0
SPLINE
5
111
100
AcDbEntity
8
0
100
AcDbSpline
70
4
71
3
72
8
73
4
74
0
42
0.000000001
43
0.0000000001
44
0.0000000001
40
0
40
0
40
0
40
0
40
1
40
1
40
1
40
1
41
1
41
1
41
1
41
1
10
-31.34975875519828
20
-44.847011161752889
30
0
10
-30.86258281610543
20
-44.692261157570456
30
0
10
-30.312360579012321
20
-44.440075965569449
30
0
10
-29.957008717556359
20
-44.199353736841218
30
0
0
SPLINE
5
112
100
AcDbEntity
8
0
100
AcDbSpline
70
4
71
3
72
8
73
4
74
0
42
0.000000001
43
0.0000000001
44
0.0000000001
40
0
40
0
40
0
40
0
40
1
40
1
40
1
40
1
41
1
41
1
41
1
41
1
10
-29.957008717556359
20
-44.199353736841218
30
0
10
-29.802258713373924
20
-44.101918549022649
30
0
10
-27.807703103911415
20
-42.147483311014838
30
0
10
-25.520841930993193
20
-39.860622138096623
30
0
0
SPLINE
5
113
100
AcDbEntity
8
0
100
AcDbSpline
70
4
71
3
72
8
73
4
74
0
42
0.000000001
43
0.0000000001
44
0.0000000001
40
0
40
0
40
0
40
0
40
1
40
1
40
1
40
1
41
1
41
1
41
1
41
1
10
-25.520841930993193
20
-39.860622138096623
30
0
10
-23.228249276438593
20
-37.57949244681479
30
0
10
-21.331128854794656
20
-35.716760914989173
30
0
10
-21.302471446612721
20
-35.728223878261943
30
0
0
SPLINE
5
114
100
AcDbEntity
8
0
100
AcDbSpline
70
4
71
3
72
8
73
4
74
0
42
0.000000001
43
0.0000000001
44
0.0000000001
40
0
40
0
40
0
40
0
40
1
40
1
40
1
40
1
41
1
41
1
41
1
41
1
10
-21.302471446612721
20
-35.728223878261943
30
0
10
-21.273814038430785
20
-35.73968684153472
30
0
10
-19.886795482425256
20
-37.126705397540256
30
0
10
-18.224665807873166
20
-38.806029517001505
30
0
0
LINE
5
115
100
AcDbEntity
8
0
100
AcDbLine
10
-18.224665807873166
20
-38.806029517001505
30
0
11
-15.192712022224697
21
-41.855177747559125
31
0
0
LINE
5
116
100
AcDbEntity
8
0
100
AcDbLine
10
-15.192712022224697
20
-41.855177747559125
30
0
11
-18.167350991509295
21
-41.855177747559139
31
0
0
LINE
5
117
100
AcDbEntity
8
0
100
AcDbLine
10
-18.167350991509295
20
-41.855177747559139
30
0
11
-21.141989960793897
21
-41.855177747559139
31
0
0
LINE
5
118
100
AcDbEntity
8
0
100
AcDbLine
10
-21.141989960793897
20
-41.855177747559139
30
0
11
-22.718147410800192
21
-43.431335197565424
31
0
0
LINE
5
119
100
AcDbEntity
8
0
100
AcDbLine
10
-22.718147410800192
20
-43.431335197565424
30
0
11
-24.294304860806481
21
-45.013224129208105
31
0
0
LINE
5
120
100
AcDbEntity
8
0
100
AcDbLine
10
-24.294304860806481
20
-45.013224129208105
30
0
11
-14.264211997130081
21
-44.990298202662558
31
0
0
SPLINE
5
121
100
AcDbEntity
8
0
100
AcDbSpline
70
4
71
3
72
8
73
4
74
0
42
0.000000001
43
0.0000000001
44
0.0000000001
40
0
40
0
40
0
40
0
40
1
40
1
40
1
40
1
41
1
41
1
41
1
41
1
10
-14.264211997130083
20
-44.990298202662551
30
0
10
-4.3200913579994804
20
-44.973103757753393
30
0
10
-4.2283876518172914
20
-44.973103757753393
30
0
10
-3.7182857861788943
20
-44.852742643389277
30
0
0
SPLINE
5
122
100
AcDbEntity
8
0
100
AcDbSpline
70
4
71
3
72
8
73
4
74
0
42
0.000000001
43
0.0000000001
44
0.0000000001
40
0
40
0
40
0
40
0
40
1
40
1
40
1
40
1
41
1
41
1
41
1
41
1
10
-3.7182857861788943
20
-44.852742643389277
30
0
10
-0.94424867416782021
20
-44.21081670011398
30
0
10
1.0961587883857771
20
-42.399668503015846
30
0
10
1.955881033843756
20
-39.831964729914688
30
0
0
SPLINE
5
123
100
AcDbEntity
8
0
100
AcDbSpline
70
4
71
3
72
8
73
4
74
0
42
0.000000001
43
0.0000000001
44
0.0000000001
40
0
40
0
40
0
40
0
40
1
40
1
40
1
40
1
41
1
41
1
41
1
41
1
10
1.955881033843756
20
-39.831964729914688
30
0
10
2.3513532667544279
20
-38.645548031182685
30
0
10
2.328427340208874
20
-39.482344350095111
30
0
10
2.328427340208874
20
-26.466149553861339
30
0
0
SPLINE
5
124
100
AcDbEntity
8
0
100
AcDbSpline
70
4
71
3
72
8
73
4
74
0
42
0.000000001
43
0.0000000001
44
0.0000000001
40
0
40
0
40
0
40
0
40
1
40
1
40
1
40
1
41
1
41
1
41
1
41
1
10
2.328427340208874
20
-26.466149553861339
30
0
10
2.328427340208874
20
-18.505121560920472
30
0
10
2.3456217851180394
20
-14.504547378722684
30
0
10
2.3914736382091295
20
-14.080417737630082
30
0
0
SPLINE
5
125
100
AcDbEntity
8
0
100
AcDbSpline
70
4
71
3
72
8
73
4
74
0
42
0.000000001
43
0.0000000001
44
0.0000000001
40
0
40
0
40
0
40
0
40
1
40
1
40
1
40
1
41
1
41
1
41
1
41
1
10
2.3914736382091295
20
-14.080417737630082
30
0
10
2.5576866056643421
20
-12.355241765077739
30
0
10
3.1079088427574408
20
-10.440926898524641
30
0
10
3.8587329371240742
20
-8.9278157465186059
30
0
0
SPLINE
5
126
100
AcDbEntity
8
0
100
AcDbSpline
70
4
71
3
72
8
73
4
74
0
42
0.000000001
43
0.0000000001
44
0.0000000001
40
0
40
0
40
0
40
0
40
1
40
1
40
1
40
1
41
1
41
1
41
1
41
1
10
3.8587329371240742
20
-8.9278157465186059
30
0
10
4.2713996149439026
20
-8.1082138725153374
30
0
10
4.6668718478545745
20
-7.5006768190583628
30
0
10
5.2170940849476821
20
-6.8644823574194636
30
0
0
SPLINE
5
127
100
AcDbEntity
8
0
100
AcDbSpline
70
4
71
3
72
8
73
4
74
0
42
0.000000001
43
0.0000000001
44
0.0000000001
40
0
40
0
40
0
40
0
40
1
40
1
40
1
40
1
41
1
41
1
41
1
41
1
10
5.2170940849476821
20
-6.8644823574194636
30
0
10
5.996575587496249
20
-5.9589082588703945
30
0
10
6.3977793020433005
20
-5.2252786094129178
30
0
10
6.6671589389534702
20
-4.2280008046816597
30
0
0
SPLINE
5
128
100
AcDbEntity
8
0
100
AcDbSpline
70
4
71
3
72
8
73
4
74
0
42
0.000000001
43
0.0000000001
44
0.0000000001
40
0
40
0
40
0
40
0
40
1
40
1
40
1
40
1
41
1
41
1
41
1
41
1
10
6.6671589389534702
20
-4.2280008046816597
30
0
10
6.7989830165903609
20
-3.7236304206796511
30
0
10
6.8161774614995174
20
-3.5459544899516704
30
0
10
6.8219089431359059
20
-2.73781557922117
30
0
0
SPLINE
5
129
100
AcDbEntity
8
0
100
AcDbSpline
70
4
71
3
72
8
73
4
74
0
42
0.000000001
43
0.0000000001
44
0.0000000001
40
0
40
0
40
0
40
0
40
1
40
1
40
1
40
1
41
1
41
1
41
1
41
1
10
6.8219089431359059
20
-2.73781557922117
30
0
10
6.8219089431359059
20
-1.9812600032181482
30
0
10
6.8047144982267493
20
-1.7348062928535324
30
0
10
6.7015478287717922
20
-1.333602578306472
30
0
0
SPLINE
5
130
100
AcDbEntity
8
0
100
AcDbSpline
70
4
71
3
72
8
73
4
74
0
42
0.000000001
43
0.0000000001
44
0.0000000001
40
0
40
0
40
0
40
0
40
1
40
1
40
1
40
1
41
1
41
1
41
1
41
1
10
6.7015478287717922
20
-1.333602578306472
30
0
10
5.7042700240405342
20
2.6096567875274523
30
0
10
1.2623717558409897
20
4.5354346173533155
30
0
10
-2.2109061158092391
20
2.5351475262544199
30
0
0
SPLINE
5
131
100
AcDbEntity
8
0
100
AcDbSpline
70
4
71
3
72
8
73
4
74
0
42
0.000000001
43
0.0000000001
44
0.0000000001
40
0
40
0
40
0
40
0
40
1
40
1
40
1
40
1
41
1
41
1
41
1
41
1
10
-2.2109061158092391
20
2.5351475262544199
30
0
10
-3.3572024430865444
20
1.8702956564335871
30
0
10
-4.7843413705467874
20
1.3888511989771235
30
0
10
-6.2974525225528311
20
1.1595919335216642
30
0
0
SPLINE
5
132
100
AcDbEntity
8
0
100
AcDbSpline
70
4
71
3
72
8
73
4
74
0
42
0.000000001
43
0.0000000001
44
0.0000000001
40
0
40
0
40
0
40
0
40
1
40
1
40
1
40
1
41
1
41
1
41
1
41
1
10
-6.2974525225528311
20
1.1595919335216642
30
0
10
-7.575572927467018
20
0.96472155788451808
30
0
10
-8.9167396303814606
20
0.95325859461175
30
0
10
-22.14499924716154
20
0.97618452115729504
30
0
0
SPLINE
5
133
100
AcDbEntity
8
0
100
AcDbSpline
70
4
71
3
72
8
73
4
74
0
42
0.000000001
43
0.0000000001
44
0.0000000001
40
0
40
0
40
0
40
0
40
1
40
1
40
1
40
1
41
1
41
1
41
1
41
1
10
-22.14499924716154
20
0.97618452115729504
30
0
10
-33.986240307936072
20
0.9933789660664516
30
0
10
-35.247166267941111
20
1.0048419293392286
30
0
10
-35.894823692852789
20
1.0908141538850202
30
0
0
SPLINE
5
134
100
AcDbEntity
8
0
100
AcDbSpline
70
4
71
3
72
8
73
4
74
0
42
0.000000001
43
0.0000000001
44
0.0000000001
40
0
40
0
40
0
40
0
40
1
40
1
40
1
40
1
41
1
41
1
41
1
41
1
10
-35.894823692852789
20
1.0908141538850202
30
0
10
-37.688777445041765
20
1.3372678642496449
30
0
10
-39.230546005229741
20
1.8301752849788855
30
0
10
-40.491471965234773
20
2.5695364160727419
30
0
0
SPLINE
5
135
100
AcDbEntity
8
0
100
AcDbSpline
70
4
71
3
72
8
73
4
74
0
42
0.000000001
43
0.0000000001
44
0.0000000001
40
0
40
0
40
0
40
0
40
1
40
1
40
1
40
1
41
1
41
1
41
1
41
1
10
-40.491471965234773
20
2.5695364160727419
30
0
10
-41.494481251602409
20
3.1541475429841714
30
0
10
-42.80699054633493
20
3.4235271798943323
30
0
10
-44.039259098158027
20
3.3031660655302186
30
0
0
SPLINE
5
136
100
AcDbEntity
8
0
100
AcDbSpline
70
4
71
3
72
8
73
4
74
0
42
0.000000001
43
0.0000000001
44
0.0000000001
40
0
40
0
40
0
40
0
40
1
40
1
40
1
40
1
41
1
41
1
41
1
41
1
10
-10.573137823297166
20
-2.2678340850374745
30
0
10
-7.3520451436479473
20
-2.8409822486761271
30
0
10
-5.0479895258205687
20
-4.3483619190457823
30
0
10
-3.2196468838132652
20
-7.0937416228749228
30
0
0
SPLINE
5
137
100
AcDbEntity
8
0
100
AcDbSpline
70
4
71
3
72
8
73
4
74
0
42
0.000000001
43
0.0000000001
44
0.0000000001
40
0
40
0
40
0
40
0
40
1
40
1
40
1
40
1
41
1
41
1
41
1
41
1
10
-3.2196468838132652
20
-7.0937416228749228
30
0
10
-2.4974801976285654
20
-8.1769916521519725
30
0
10
-1.6606838787161404
20
-9.993871330886499
30
0
10
-1.3913042418059707
20
-11.065658396890775
30
0
0
LINE
5
138
100
AcDbEntity
8
0
100
AcDbLine
10
-1.3913042418059707
20
-11.065658396890775
30
0
11
-1.316794980532946
21
-11.369426923619262
31
0
0
LINE
5
139
100
AcDbEntity
8
0
100
AcDbLine
10
-1.316794980532946
20
-11.369426923619262
30
0
11
-4.3716746927269599
21
-14.42430663581327
31
0
0
SPLINE
5
140
100
AcDbEntity
8
0
100
AcDbSpline
70
4
71
3
72
8
73
4
74
0
42
0.000000001
43
0.0000000001
44
0.0000000001
40
0
40
0
40
0
40
0
40
1
40
1
40
1
40
1
41
1
41
1
41
1
41
1
10
-4.371674692726959
20
-14.42430663581327
30
0
10
-7.0482766169194644
20
-17.100908560005777
30
0
10
-7.4150914416481939
20
-17.490649311280059
30
0
10
-7.3233877354660137
20
-17.542232646007538
30
0
0
SPLINE
5
141
100
AcDbEntity
8
0
100
AcDbSpline
70
4
71
3
72
8
73
4
74
0
42
0.000000001
43
0.0000000001
44
0.0000000001
40
0
40
0
40
0
40
0
40
1
40
1
40
1
40
1
41
1
41
1
41
1
41
1
10
-7.3233877354660137
20
-17.542232646007538
30
0
10
-7.1342488414652561
20
-17.639667833826106
30
0
10
-4.4920358070910726
20
-18.75730675292148
30
0
10
-4.451915435636371
20
-18.75730675292148
30
0
0
SPLINE
5
142
100
AcDbEntity
8
0
100
AcDbSpline
70
4
71
3
72
8
73
4
74
0
42
0.000000001
43
0.0000000001
44
0.0000000001
40
0
40
0
40
0
40
0
40
1
40
1
40
1
40
1
41
1
41
1
41
1
41
1
10
-4.451915435636371
20
-18.75730675292148
30
0
10
-4.4232580274544375
20
-18.75730675292148
30
0
10
-3.6036561534511691
20
-17.954899323827366
30
0
10
-2.6293042752654561
20
-16.980547445641658
30
0
0
SPLINE
5
143
100
AcDbEntity
8
0
100
AcDbSpline
70
4
71
3
72
8
73
4
74
0
42
0.000000001
43
0.0000000001
44
0.0000000001
40
0
40
0
40
0
40
0
40
1
40
1
40
1
40
1
41
1
41
1
41
1
41
1
10
-2.6293042752654561
20
-16.980547445641658
30
0
10
-1.6549523970797519
20
-16.000464085819566
30
0
10
-0.83535052307647462
20
-15.203788138361837
30
0
10
-0.81242459653092958
20
-15.203788138361837
30
0
0
SPLINE
5
144
100
AcDbEntity
8
0
100
AcDbSpline
70
4
71
3
72
8
73
4
74
0
42
0.000000001
43
0.0000000001
44
0.0000000001
40
0
40
0
40
0
40
0
40
1
40
1
40
1
40
1
41
1
41
1
41
1
41
1
10
-0.81242459653092958
20
-15.203788138361837
30
0
10
-0.73791533525790598
20
-15.203788138361837
30
0
10
-0.75510978016707142
20
-37.533640593723696
30
0
10
-0.82961904144009502
20
-38.049473940998489
30
0
0
SPLINE
5
145
100
AcDbEntity
8
0
100
AcDbSpline
70
4
71
3
72
8
73
4
74
0
42
0.000000001
43
0.0000000001
44
0.0000000001
40
0
40
0
40
0
40
0
40
1
40
1
40
1
40
1
41
1
41
1
41
1
41
1
10
-0.82961904144009502
20
-38.049473940998489
30
0
10
-1.0588783068955543
20
-39.717335097186961
30
0
10
-2.1707857443545375
20
-41.06996476337418
30
0
10
-3.7870635658155294
20
-41.648844408649211
30
0
0
LINE
5
146
100
AcDbEntity
8
0
100
AcDbLine
10
-3.7870635658155294
20
-41.648844408649225
30
0
11
-4.2914339498175424
21
-41.826520339377197
31
0
0
LINE
5
147
100
AcDbEntity
8
0
100
AcDbLine
10
-4.2914339498175424
20
-41.826520339377197
30
0
11
-7.5583784825578606
21
-41.843714784286362
31
0
0
LINE
5
148
100
AcDbEntity
8
0
100
AcDbLine
10
-7.5583784825578606
20
-41.843714784286362
30
0
11
-10.819591533661788
21
-41.860909229195514
31
0
0
LINE
5
149
100
AcDbEntity
8
0
100
AcDbLine
10
-10.819591533661788
20
-41.860909229195514
30
0
11
-14.992110164951171
21
-37.688390597906135
31
0
0
LINE
5
150
100
AcDbEntity
8
0
100
AcDbLine
10
-14.992110164951171
20
-37.688390597906135
30
0
11
-19.164628796240557
21
-33.51587196661675
31
0
0
LINE
5
151
100
AcDbEntity
8
0
100
AcDbLine
10
-19.164628796240557
20
-33.51587196661675
30
0
11
-15.141128687497218
21
-29.492371857873422
31
0
0
SPLINE
5
152
100
AcDbEntity
8
0
100
AcDbSpline
70
4
71
3
72
8
73
4
74
0
42
0.000000001
43
0.0000000001
44
0.0000000001
40
0
40
0
40
0
40
0
40
1
40
1
40
1
40
1
41
1
41
1
41
1
41
1
10
-15.141128687497218
20
-29.492371857873422
30
0
10
-12.923045294215637
20
-27.274288464591837
30
0
10
-11.094702652208341
20
-25.468871749130084
30
0
10
-11.071776725662792
20
-25.474603230766473
30
0
0
SPLINE
5
153
100
AcDbEntity
8
0
100
AcDbSpline
70
4
71
3
72
8
73
4
74
0
42
0.000000001
43
0.0000000001
44
0.0000000001
40
0
40
0
40
0
40
0
40
1
40
1
40
1
40
1
41
1
41
1
41
1
41
1
10
-11.071776725662792
20
-25.474603230766473
30
0
10
-11.048850799117247
20
-25.486066194039246
30
0
10
-9.4841563123837247
20
-27.033566235863606
30
0
10
-7.5927673723761746
20
-28.919223694234766
30
0
0
LINE
5
154
100
AcDbEntity
8
0
100
AcDbLine
10
-7.5927673723761746
20
-28.919223694234766
30
0
11
-4.1481469089078793
21
-32.346649712793905
31
0
0
LINE
5
155
100
AcDbEntity
8
0
100
AcDbLine
10
-4.1481469089078793
20
-32.346649712793905
30
0
11
-4.1481469089078882
21
-30.180149654239798
31
0
0
LINE
5
156
100
AcDbEntity
8
0
100
AcDbLine
10
-4.1481469089078882
20
-30.180149654239798
30
0
11
-4.1481469089078882
21
-28.013649595685699
31
0
0
LINE
5
157
100
AcDbEntity
8
0
100
AcDbLine
10
-4.1481469089078882
20
-28.013649595685699
30
0
11
-11.656387852574221
21
-20.505408652019366
31
0
0
LINE
5
158
100
AcDbEntity
8
0
100
AcDbLine
10
-11.656387852574221
20
-20.505408652019366
30
0
11
-19.164628796240549
21
-12.997167708353032
31
0
0
LINE
5
159
100
AcDbEntity
8
0
100
AcDbLine
10
-19.164628796240549
20
-12.997167708353032
30
0
11
-15.433434250952928
21
-9.2659731630654107
31
0
0
LINE
5
160
100
AcDbEntity
8
0
100
AcDbLine
10
-15.433434250952928
20
-9.2659731630654107
30
0
11
-11.702239705665306
21
-5.5347786177777891
31
0
0
LINE
5
161
100
AcDbEntity
8
0
100
AcDbLine
10
-11.702239705665306
20
-5.5347786177777891
30
0
11
-12.665128620578246
21
-5.5003897279594707
31
0
0
SPLINE
5
162
100
AcDbEntity
8
0
100
AcDbSpline
70
4
71
3
72
8
73
4
74
0
42
0.000000001
43
0.0000000001
44
0.0000000001
40
0
40
0
40
0
40
0
40
1
40
1
40
1
40
1
41
1
41
1
41
1
41
1
10
-12.665128620578244
20
-5.5003897279594671
30
0
10
-13.192424931125807
20
-5.4774638014139221
30
0
10
-14.149582364402352
20
-5.4602693565047655
30
0
10
-14.785776826041257
20
-5.4602693565047655
30
0
0
LINE
5
163
100
AcDbEntity
8
0
100
AcDbLine
10
-14.785776826041259
20
-5.4602693565047646
30
0
11
-15.954999079864105
21
-5.4602693565047655
31
0
0
LINE
5
164
100
AcDbEntity
8
0
100
AcDbLine
10
-15.954999079864105
20
-5.4602693565047655
30
0
11
-18.602943595874674
21
-8.125408317424494
31
0
0
SPLINE
5
165
100
AcDbEntity
8
0
100
AcDbSpline
70
4
71
3
72
8
73
4
74
0
42
0.000000001
43
0.0000000001
44
0.0000000001
40
0
40
0
40
0
40
0
40
1
40
1
40
1
40
1
41
1
41
1
41
1
41
1
10
-18.602943595874674
20
-8.125408317424494
30
0
10
-20.053008449880462
20
-9.5926676163394387
30
0
10
-21.273814038430785
20
-10.790547278344222
30
0
10
-21.308202928249109
20
-10.790547278344222
30
0
0
SPLINE
5
166
100
AcDbEntity
8
0
100
AcDbSpline
70
4
71
3
72
8
73
4
74
0
42
0.000000001
43
0.0000000001
44
0.0000000001
40
0
40
0
40
0
40
0
40
1
40
1
40
1
40
1
41
1
41
1
41
1
41
1
10
-21.308202928249109
20
-10.790547278344222
30
0
10
-21.342591818067426
20
-10.790547278344222
30
0
10
-22.374258512616997
20
-9.7932694736129644
30
0
10
-23.600795582803716
20
-8.566732403426256
30
0
0
SPLINE
5
167
100
AcDbEntity
8
0
100
AcDbSpline
70
4
71
3
72
8
73
4
74
0
42
0.000000001
43
0.0000000001
44
0.0000000001
40
0
40
0
40
0
40
0
40
1
40
1
40
1
40
1
41
1
41
1
41
1
41
1
10
-23.600795582803716
20
-8.566732403426256
30
0
10
-24.82160117135404
20
-7.3459268148759271
30
0
10
-25.836073420994452
20
-6.371574936690223
30
0
10
-25.847536384267226
20
-6.4059638265085361
30
0
0
SPLINE
5
168
100
AcDbEntity
8
0
100
AcDbSpline
70
4
71
3
72
8
73
4
74
0
42
0.000000001
43
0.0000000001
44
0.0000000001
40
0
40
0
40
0
40
0
40
1
40
1
40
1
40
1
41
1
41
1
41
1
41
1
10
-25.847536384267226
20
-6.4059638265085361
30
0
10
-25.864730829176388
20
-6.4346212346904696
30
0
10
-26.157036392632097
20
-7.1223990310568563
30
0
10
-26.500925290815292
20
-7.9248064601509682
30
0
0
LINE
5
169
100
AcDbEntity
8
0
100
AcDbLine
10
-26.500925290815292
20
-7.9248064601509682
30
0
11
-27.125656789181424
21
-9.3863342774295297
31
0
0
LINE
5
170
100
AcDbEntity
8
0
100
AcDbLine
10
-27.125656789181424
20
-9.3863342774295297
30
0
11
-20.179101045880969
21
-16.33289002072998
31
0
0
LINE
5
171
100
AcDbEntity
8
0
100
AcDbLine
10
-20.179101045880969
20
-16.33289002072998
30
0
11
-13.23254530258051
21
-23.285177245666823
31
0
0
LINE
5
172
100
AcDbEntity
8
0
100
AcDbLine
10
-13.23254530258051
20
-23.285177245666823
30
0
11
-17.273239856233001
21
-27.325871799319316
31
0
0
LINE
5
173
100
AcDbEntity
8
0
100
AcDbLine
10
-17.273239856233001
20
-27.325871799319316
30
0
11
-21.313934409885494
21
-31.366566352971809
31
0
0
LINE
5
174
100
AcDbEntity
8
0
100
AcDbLine
10
-21.313934409885494
20
-31.366566352971809
30
0
11
-23.560675211349007
21
-29.119825551508292
31
0
0
LINE
5
175
100
AcDbEntity
8
0
100
AcDbLine
10
-23.560675211349007
20
-29.119825551508292
30
0
11
-25.807416012812521
21
-26.873084750044782
31
0
0
LINE
5
176
100
AcDbEntity
8
0
100
AcDbLine
10
-25.807416012812521
20
-26.873084750044782
30
0
11
-25.92777712717664
21
-27.159658831864107
31
0
0
SPLINE
5
177
100
AcDbEntity
8
0
100
AcDbSpline
70
4
71
3
72
8
73
4
74
0
42
0.000000001
43
0.0000000001
44
0.0000000001
40
0
40
0
40
0
40
0
40
1
40
1
40
1
40
1
41
1
41
1
41
1
41
1
10
-25.92777712717664
20
-27.159658831864107
30
0
10
-25.99655490681328
20
-27.314408836046546
30
0
10
-26.283128988632605
20
-27.990723669140152
30
0
10
-26.569703070451926
20
-28.661307020597377
30
0
0
LINE
5
178
100
AcDbEntity
8
0
100
AcDbLine
10
-26.569703070451926
20
-28.661307020597377
30
0
11
-27.0912678993631
21
-29.887844090784089
31
0
0
LINE
5
179
100
AcDbEntity
8
0
100
AcDbLine
10
-27.0912678993631
20
-29.887844090784089
30
0
11
-25.308777110446897
21
-31.670334879700292
31
0
0
SPLINE
5
180
100
AcDbEntity
8
0
100
AcDbSpline
70
4
71
3
72
8
73
4
74
0
42
0.000000001
43
0.0000000001
44
0.0000000001
40
0
40
0
40
0
40
0
40
1
40
1
40
1
40
1
41
1
41
1
41
1
41
1
10
-25.308777110446897
20
-31.670334879700299
30
0
10
-24.322962268988416
20
-32.656149721158776
30
0
10
-23.520554839894302
20
-33.487214558434822
30
0
10
-23.520554839894302
20
-33.51587196661675
30
0
0
SPLINE
5
181
100
AcDbEntity
8
0
100
AcDbSpline
70
4
71
3
72
8
73
4
74
0
42
0.000000001
43
0.0000000001
44
0.0000000001
40
0
40
0
40
0
40
0
40
1
40
1
40
1
40
1
41
1
41
1
41
1
41
1
10
-23.520554839894302
20
-33.51587196661675
30
0
10
-23.520554839894302
20
-33.550260856435074
30
0
10
-25.308777110446897
20
-35.355677571896827
30
0
10
-27.486740132273773
20
-37.533640593723696
30
0
0
SPLINE
5
182
100
AcDbEntity
8
0
100
AcDbSpline
70
4
71
3
72
8
73
4
74
0
42
0.000000001
43
0.0000000001
44
0.0000000001
40
0
40
0
40
0
40
0
40
1
40
1
40
1
40
1
41
1
41
1
41
1
41
1
10
-27.486740132273773
20
-37.533640593723696
30
0
10
-31.195008751015845
20
-41.230446249193008
30
0
10
-31.481582832835173
20
-41.499825886103167
30
0
10
-31.831203212654749
20
-41.660307371921988
30
0
0
LINE
5
183
100
AcDbEntity
8
0
100
AcDbLine
10
-31.831203212654749
20
-41.660307371921988
30
0
11
-32.203749519019873
21
-41.826520339377204
31
0
0
LINE
5
184
100
AcDbEntity
8
0
100
AcDbLine
10
-32.203749519019873
20
-41.826520339377204
30
0
11
-35.092416263758672
21
-41.843714784286362
31
0
0
SPLINE
5
185
100
AcDbEntity
8
0
100
AcDbSpline
70
4
71
3
72
8
73
4
74
0
42
0.000000001
43
0.0000000001
44
0.0000000001
40
0
40
0
40
0
40
0
40
1
40
1
40
1
40
1
41
1
41
1
41
1
41
1
10
-35.092416263758679
20
-41.843714784286362
30
0
10
-38.37082375977176
20
-41.860909229195514
30
0
10
-38.456795984317566
20
-41.849446265922751
30
0
10
-39.368101564503014
20
-41.402390698284599
30
0
0
SPLINE
5
186
100
AcDbEntity
8
0
100
AcDbSpline
70
4
71
3
72
8
73
4
74
0
42
0.000000001
43
0.0000000001
44
0.0000000001
40
0
40
0
40
0
40
0
40
1
40
1
40
1
40
1
41
1
41
1
41
1
41
1
10
-39.368101564503014
20
-41.402390698284599
30
0
10
-40.439888630507291
20
-40.869362906100655
30
0
10
-41.184981243237537
20
-40.003909179006286
30
0
10
-41.614842365966531
20
-38.788835072092347
30
0
0
LINE
5
187
100
AcDbEntity
8
0
100
AcDbLine
10
-41.614842365966538
20
-38.788835072092354
30
0
11
-41.775323851785359
21
-38.330316541181425
31
0
0
LINE
5
188
100
AcDbEntity
8
0
100
AcDbLine
10
-41.775323851785359
20
-38.330316541181425
30
0
11
-41.79251829669451
21
-26.792844007135372
31
0
0
SPLINE
5
189
100
AcDbEntity
8
0
100
AcDbSpline
70
4
71
3
72
8
73
4
74
0
42
0.000000001
43
0.0000000001
44
0.0000000001
40
0
40
0
40
0
40
0
40
1
40
1
40
1
40
1
41
1
41
1
41
1
41
1
10
-41.79251829669451
20
-26.792844007135372
30
0
10
-41.798249778330899
20
-20.453825317291887
30
0
10
-41.786786815058122
20
-15.261102954725704
30
0
10
-41.763860888512582
20
-15.261102954725704
30
0
0
SPLINE
5
190
100
AcDbEntity
8
0
100
AcDbSpline
70
4
71
3
72
8
73
4
74
0
42
0.000000001
43
0.0000000001
44
0.0000000001
40
0
40
0
40
0
40
0
40
1
40
1
40
1
40
1
41
1
41
1
41
1
41
1
10
-41.763860888512582
20
-15.261102954725704
30
0
10
-41.695083108875941
20
-15.261102954725704
30
0
10
-33.779906969026158
20
-23.187742057848254
30
0
10
-33.779906969026158
20
-23.256519837484891
30
0
0
SPLINE
5
191
100
AcDbEntity
8
0
100
AcDbSpline
70
4
71
3
72
8
73
4
74
0
42
0.000000001
43
0.0000000001
44
0.0000000001
40
0
40
0
40
0
40
0
40
1
40
1
40
1
40
1
41
1
41
1
41
1
41
1
10
-33.779906969026158
20
-23.256519837484891
30
0
10
-33.779906969026158
20
-23.290908727303211
30
0
10
-34.834499590121283
20
-24.374158756580261
30
0
10
-36.129814439944631
20
-25.663742124767225
30
0
0
LINE
5
192
100
AcDbEntity
8
0
100
AcDbLine
10
-36.129814439944631
20
-25.663742124767225
30
0
11
-38.479721910863105
21
-28.013649595685699
31
0
0
LINE
5
193
100
AcDbEntity
8
0
100
AcDbLine
10
-38.479721910863105
20
-28.013649595685699
30
0
11
-38.479721910863105
21
-30.180149654239802
31
0
0
LINE
5
194
100
AcDbEntity
8
0
100
AcDbLine
10
-38.479721910863105
20
-30.180149654239802
30
0
11
-38.479721910863105
21
-32.346649712793905
31
0
0
LINE
5
195
100
AcDbEntity
8
0
100
AcDbLine
10
-38.479721910863105
20
-32.346649712793905
30
0
11
-32.026073588291894
21
-25.870075463677139
31
0
0
SPLINE
5
196
100
AcDbEntity
8
0
100
AcDbSpline
70
4
71
3
72
8
73
4
74
0
42
0.000000001
43
0.0000000001
44
0.0000000001
40
0
40
0
40
0
40
0
40
1
40
1
40
1
40
1
41
1
41
1
41
1
41
1
10
-32.026073588291894
20
-25.870075463677139
30
0
10
-28.478286455368639
20
-22.310825367481115
30
0
10
-25.572425265720675
20
-19.376306769651222
30
0
10
-25.572425265720675
20
-19.353380843105676
30
0
0
SPLINE
5
197
100
AcDbEntity
8
0
100
AcDbSpline
70
4
71
3
72
8
73
4
74
0
42
0.000000001
43
0.0000000001
44
0.0000000001
40
0
40
0
40
0
40
0
40
1
40
1
40
1
40
1
41
1
41
1
41
1
41
1
10
-25.572425265720675
20
-19.353380843105676
30
0
10
-25.572425265720675
20
-19.31326047165097
30
0
10
-27.595638283365112
20
-18.424880818011058
30
0
10
-28.3235364511862
20
-18.144038217828118
30
0
0
LINE
5
198
100
AcDbEntity
8
0
100
AcDbLine
10
-28.3235364511862
20
-18.144038217828118
30
0
11
-28.575721643187212
21
-18.052334511645935
31
0
0
LINE
5
199
100
AcDbEntity
8
0
100
AcDbLine
10
-28.575721643187212
20
-18.052334511645935
30
0
11
-30.088832795193248
21
-19.565445663651975
31
0
0
LINE
5
200
100
AcDbEntity
8
0
100
AcDbLine
10
-30.088832795193248
20
-19.565445663651975
30
0
11
-31.601943947199288
21
-21.078556815658015
31
0
0
LINE
5
201
100
AcDbEntity
8
0
100
AcDbLine
10
-31.601943947199288
20
-21.078556815658015
30
0
11
-36.45077741158228
21
-16.229723351275023
31
0
0
LINE
5
202
100
AcDbEntity
8
0
100
AcDbLine
10
-36.45077741158228
20
-16.229723351275023
30
0
11
-41.293879394328883
21
-11.38662136852842
31
0
0
LINE
5
203
100
AcDbEntity
8
0
100
AcDbLine
10
-41.293879394328883
20
-11.38662136852842
30
0
11
-41.110471981964515
21
-10.819204686526156
31
0
0
SPLINE
5
204
100
AcDbEntity
8
0
100
AcDbSpline
70
4
71
3
72
8
73
4
74
0
42
0.000000001
43
0.0000000001
44
0.0000000001
40
0
40
0
40
0
40
0
40
1
40
1
40
1
40
1
41
1
41
1
41
1
41
1
10
-41.110471981964515
20
-10.819204686526156
30
0
10
-40.508666410143931
20
-8.9278157465186059
30
0
10
-39.620286756504022
20
-7.254223108693747
30
0
10
-38.514110800681422
20
-5.930250850688461
30
0
0
SPLINE
5
205
100
AcDbEntity
8
0
100
AcDbSpline
70
4
71
3
72
8
73
4
74
0
42
0.000000001
43
0.0000000001
44
0.0000000001
40
0
40
0
40
0
40
0
40
1
40
1
40
1
40
1
41
1
41
1
41
1
41
1
10
-38.514110800681422
20
-5.930250850688461
30
0
10
-37.986814490133867
20
-5.2940563890495529
30
0
10
-37.16148113449421
20
-4.526037849773763
30
0
10
-36.502360746309755
20
-4.050324873953679
30
0
0
SPLINE
5
206
100
AcDbEntity
8
0
100
AcDbSpline
70
4
71
3
72
8
73
4
74
0
42
0.000000001
43
0.0000000001
44
0.0000000001
40
0
40
0
40
0
40
0
40
1
40
1
40
1
40
1
41
1
41
1
41
1
41
1
10
-36.502360746309755
20
-4.050324873953679
30
0
10
-35.889092211216401
20
-3.6147322695883055
30
0
10
-34.588045879756663
20
-2.9498803997674727
30
0
10
-33.865879193571963
20
-2.714889652675625
30
0
0
SPLINE
5
207
100
AcDbEntity
8
0
100
AcDbSpline
70
4
71
3
72
8
73
4
74
0
42
0.000000001
43
0.0000000001
44
0.0000000001
40
0
40
0
40
0
40
0
40
1
40
1
40
1
40
1
41
1
41
1
41
1
41
1
10
-33.865879193571963
20
-2.714889652675625
30
0
10
-33.18956436047835
20
-2.4913618688565453
30
0
10
-32.003147661746347
20
-2.250639640128318
30
0
10
-31.286712457198028
20
-2.1933248237644509
30
0
0
SPLINE
5
208
100
AcDbEntity
8
0
100
AcDbSpline
70
4
71
3
72
8
73
4
74
0
42
0.000000001
43
0.0000000001
44
0.0000000001
40
0
40
0
40
0
40
0
40
1
40
1
40
1
40
1
41
1
41
1
41
1
41
1
10
-31.286712457198028
20
-2.1933248237644509
30
0
10
-30.971480967196776
20
-2.1703988972189059
30
0
10
-26.300323433541763
20
-2.1532044523097493
30
0
10
-20.912730695338439
20
-2.1646674155825174
30
0
0
SPLINE
5
209
100
AcDbEntity
8
0
100
AcDbSpline
70
4
71
3
72
8
73
4
74
0
42
0.000000001
43
0.0000000001
44
0.0000000001
40
0
40
0
40
0
40
0
40
1
40
1
40
1
40
1
41
1
41
1
41
1
41
1
10
-20.912730695338439
20
-2.1646674155825174
30
0
10
-12.074786012030433
20
-2.1703988972189059
30
0
10
-11.06031376239002
20
-2.181861860491674
30
0
10
-10.573137823297166
20
-2.2678340850374745
30
0
0
ENDSEC
0
SECTION
2
OBJECTS
0
DICTIONARY
5
C
100
AcDbDictionary
3
ACAD_GROUP
350
D
3
ACAD_MLINESTYLE
350
17
0
DICTIONARY
5
D
100
AcDbDictionary
0
DICTIONARY
5
1A
330
C
100
AcDbDictionary
0
DICTIONARY
5
17
100
AcDbDictionary
0
ENDSEC
0
EOF
