0
SECTION
2
HEADER
9
$INSUNITS
70
4
9
$ACADVER
1
AC1014
9
$HANDSEED
5
FFFF
0
ENDSEC
0
SECTION
2
TABLES
0
TABLE
2
VPORT
5
8
100
AcDbSymbolTable
0
ENDTAB
0
TABLE
2
LTYPE
5
5
100
AcDbSymbolTable
0
LTYPE
5
14
100
AcDbSymbolTableRecord
100
AcDbLinetypeTableRecord
2
BYBLOCK
70
0
0
LTYPE
5
15
100
AcDbSymbolTableRecord
100
AcDbLinetypeTableRecord
2
BYLAYER
70
0
0
LTYPE
5
16
100
AcDbSymbolTableRecord
100
AcDbLinetypeTableRecord
2
DASHED
70
0
3
Dashed __ __ __ __ __ __ __ __ __ __ __ __ __ _
72
65
73
2
40
0.75
49
0.5
74
0
49
-0.25
74
0
0
ENDTAB
0
TABLE
2
LAYER
5
2
100
AcDbSymbolTable
70
2
0
LAYER
5
50
100
AcDbSymbolTableRecord
100
AcDbLayerTableRecord
2
0
70
0
62
7
6
CONTINUOUS
0
ENDTAB
0
TABLE
2
STYLE
5
3
100
AcDbSymbolTable
70
1
0
STYLE
5
11
100
AcDbSymbolTableRecord
100
AcDbTextStyleTableRecord
2
STANDARD
70
0
0
ENDTAB
0
TABLE
2
VIEW
5
6
100
AcDbSymbolTable
70
0
0
ENDTAB
0
TABLE
2
UCS
5
7
100
AcDbSymbolTable
70
0
0
ENDTAB
0
TABLE
2
APPID
5
9
100
AcDbSymbolTable
70
2
0
APPID
5
12
100
AcDbSymbolTableRecord
100
AcDbRegAppTableRecord
2
ACAD
70
0
0
ENDTAB
0
TABLE
2
DIMSTYLE
5
A
100
AcDbSymbolTable
70
1
0
ENDTAB
0
TABLE
2
BLOCK_RECORD
5
1
100
AcDbSymbolTable
70
1
0
BLOCK_RECORD
5
1F
100
AcDbSymbolTableRecord
100
AcDbBlockTableRecord
2
*MODEL_SPACE
0
BLOCK_RECORD
5
1B
100
AcDbSymbolTableRecord
100
AcDbBlockTableRecord
2
*PAPER_SPACE
0
ENDTAB
0
ENDSEC
0
SECTION
2
BLOCKS
0
BLOCK
5
20
100
AcDbEntity
100
AcDbBlockBegin
2
*MODEL_SPACE
0
ENDBLK
5
21
100
AcDbEntity
100
AcDbBlockEnd
0
BLOCK
5
1C
100
AcDbEntity
100
AcDbBlockBegin
2
*PAPER_SPACE
0
ENDBLK
5
1D
100
AcDbEntity
100
AcDbBlockEnd
0
ENDSEC
0
SECTION
2
ENTITIES
0
LINE
5
100
100
AcDbEntity
8
0
100
AcDbLine
10
33.147397959646121
20
38.29525658812932
30
0
11
28.647385958958083
21
38.29525658812932
31
0
0
LINE
5
101
100
AcDbEntity
8
0
100
AcDbLine
10
28.647385958958083
20
38.29525658812932
30
0
11
28.651221084615308
21
39.955865997708131
31
0
0
LINE
5
102
100
AcDbEntity
8
0
100
AcDbLine
10
28.651221084615308
20
39.955865997708131
30
0
11
28.959628409987126
21
41.109537844469401
31
0
0
SPLINE
5
103
100
AcDbEntity
8
0
100
AcDbSpline
70
0
71
3
72
11
73
7
74
0
42
0.000000001
43
0.0000000001
44
0.0000000001
40
0.0024627088266706201
40
0.0024627088266706201
40
0.0024627088266706201
40
0.0024627088266706201
40
0.56684601509572163
40
0.56684601509572163
40
0.56684601509572163
40
0.99775532595252581
40
0.99775532595252581
40
0.99775532595252581
40
0.99775532595252581
10
28.959619278908111
20
41.109540285450933
30
0
10
29.162417336373739
20
41.873747316382662
30
0
10
29.420663771244314
20
42.657654157271367
30
0
10
29.786710094827662
20
43.418788231616205
30
0
10
30.06618818584294
20
43.999917679993629
30
0
10
30.389530051980156
20
44.534745590462741
30
0
10
30.726762738434985
20
45.036217283945433
30
0
0
SPLINE
5
104
100
AcDbEntity
8
0
100
AcDbSpline
70
0
71
3
72
11
73
7
74
0
42
0.000000001
43
0.0000000001
44
0.0000000001
40
0.001216675579419282
40
0.001216675579419282
40
0.001216675579419282
40
0.001216675579419282
40
0.68833721414582139
40
0.68833721414582139
40
0.68833721414582139
40
0.99910015782037098
40
0.99910015782037098
40
0.99910015782037098
40
0.99910015782037098
10
30.726762738436598
20
45.036217283944353
30
0
10
31.862334099600549
20
46.735824446528355
30
0
10
33.362741589323839
20
48.012610271430766
30
0
10
35.086008117639452
20
48.932326812517609
30
0
10
35.865387206194271
20
49.348285590653745
30
0
10
36.695749346363293
20
49.686805161832872
30
0
10
37.580848922569878
20
49.924716102707578
30
0
0
SPLINE
5
105
100
AcDbEntity
8
0
100
AcDbSpline
70
0
71
3
72
8
73
4
74
0
42
0.000000001
43
0.0000000001
44
0.0000000001
40
0
40
0
40
0
40
0
40
0.31300767820552339
40
0.31300767820552339
40
0.31300767820552339
40
0.31300767820552339
10
37.580850018882245
20
49.92471206181294
30
0
10
37.963355708936113
20
50.027965131520737
30
0
10
38.466012619103822
20
50.136558719180258
30
0
10
39.000000670552247
20
50.212371191957423
30
0
0
LINE
5
106
100
AcDbEntity
8
0
100
AcDbLine
10
39.00000067055224
20
50.212371191957423
30
0
11
39.000000670552254
21
45.643861172952512
31
0
0
SPLINE
5
107
100
AcDbEntity
8
0
100
AcDbSpline
70
4
71
3
72
8
73
4
74
0
42
0.000000001
43
0.0000000001
44
0.0000000001
40
-0.090057417510902724
40
-0.090057417510902724
40
-0.090057417510902724
40
-0.090057417510902724
40
0
40
0
40
0
40
0
41
1
41
1
41
1
41
1
10
39.000000670552261
20
45.643861172952512
30
0
10
38.920331758555484
20
45.624442595985741
30
0
10
38.839017801634213
20
45.603272248247421
30
0
10
38.753597928733129
20
45.580214123047128
30
0
0
SPLINE
5
108
100
AcDbEntity
8
0
100
AcDbSpline
70
4
71
3
72
8
73
4
74
0
42
0.000000001
43
0.0000000001
44
0.0000000001
40
-1
40
-1
40
-1
40
-1
40
0
40
0
40
0
40
0
41
1
41
1
41
1
41
1
10
38.753597928733129
20
45.580214123047128
30
0
10
37.060255397747554
20
45.126328496185018
30
0
10
35.419284285246071
20
43.962519196538572
30
0
10
34.46496065953599
20
42.531033757973447
30
0
0
SPLINE
5
109
100
AcDbEntity
8
0
100
AcDbSpline
70
4
71
3
72
8
73
4
74
0
42
0.000000001
43
0.0000000001
44
0.0000000001
40
-1
40
-1
40
-1
40
-1
40
0
40
0
40
0
40
0
41
1
41
1
41
1
41
1
10
34.46496065953599
20
42.531033757973447
30
0
10
33.865598870218072
20
41.640719643743921
30
0
10
33.59210368480116
20
41.023900714931315
30
0
10
33.306970406387777
20
39.947377112758346
30
0
0
LINE
5
110
100
AcDbEntity
8
0
100
AcDbLine
10
33.306970406387777
20
39.947377112758346
30
0
11
33.149856150935513
21
39.359653416436899
31
0
0
LINE
5
111
100
AcDbEntity
8
0
100
AcDbLine
10
33.149856150935513
20
39.359653416436899
30
0
11
33.147397959646121
21
38.29525658812932
31
0
0
LWPOLYLINE
5
112
100
AcDbEntity
8
0
100
AcDbPolyline
90
4
70
1
43
0.0
10
33.133541146713092
20
32.295256588129313
10
33.105672183965133
20
20.227995718264683
10
28.605660183277095
20
20.227995718264683
10
28.633529146025055
20
32.295256588129313
0
LINE
5
113
100
AcDbEntity
8
0
100
AcDbLine
10
45.000000670552254
20
45.822346080653261
30
0
11
45.000000670552254
21
50.374517400332721
31
0
0
LINE
5
114
100
AcDbEntity
8
0
100
AcDbLine
10
45.000000670552254
20
50.374517400332721
30
0
11
54.098423544571467
21
50.353720703925305
31
0
0
LINE
5
115
100
AcDbEntity
8
0
100
AcDbLine
10
54.098423544571467
20
50.353720703925305
30
0
11
54.098423544571467
21
45.853709308464033
31
0
0
LINE
5
116
100
AcDbEntity
8
0
100
AcDbLine
10
54.098423544571467
20
45.853709308464033
30
0
11
60.09842354457146
21
45.853709308464033
31
0
0
LINE
5
117
100
AcDbEntity
8
0
100
AcDbLine
10
60.09842354457146
20
45.853709308464033
30
0
11
60.09842354457146
21
50.340006219539141
31
0
0
LINE
5
118
100
AcDbEntity
8
0
100
AcDbLine
10
60.09842354457146
20
50.340006219539141
30
0
11
64.289535884673114
21
50.330426395414307
31
0
0
SPLINE
5
119
100
AcDbEntity
8
0
100
AcDbSpline
70
0
71
3
72
8
73
4
74
0
42
0.000000001
43
0.0000000001
44
0.0000000001
40
0
40
0
40
0
40
0
40
0.15709860737234249
40
0.15709860737234249
40
0.15709860737234249
40
0.15709860737234249
10
64.289535884673114
20
50.330426395414307
30
0
10
65.875603085008677
20
50.327683916105372
30
0
10
67.213511555791555
20
50.325416836955114
30
0
10
68.346469783948962
20
50.323030217146666
30
0
0
LINE
5
120
100
AcDbEntity
8
0
100
AcDbLine
10
68.346469783948976
20
50.323030217146666
30
0
11
68.34646978394899
21
45.82294240844972
31
0
0
SPLINE
5
121
100
AcDbEntity
8
0
100
AcDbSpline
70
4
71
3
72
8
73
4
74
0
42
0.000000001
43
0.0000000001
44
0.0000000001
40
-0.15740740424991978
40
-0.15740740424991978
40
-0.15740740424991978
40
-0.15740740424991978
40
0
40
0
40
0
40
0
41
1
41
1
41
1
41
1
10
68.346469783948976
20
45.82294240844972
30
0
10
67.212295825251672
20
45.825369893576479
30
0
10
65.87094725927895
20
45.82768523945763
30
0
10
64.281754916477837
20
45.830433122471121
30
0
0
LINE
5
122
100
AcDbEntity
8
0
100
AcDbLine
10
64.281754916477837
20
45.830433122471121
30
0
11
54.098423544571467
21
45.853709308464033
31
0
0
LINE
5
123
100
AcDbEntity
8
0
100
AcDbLine
10
54.098423544571467
20
45.853709308464033
30
0
11
55.698661331585335
21
44.247652474951956
31
0
0
LINE
5
124
100
AcDbEntity
8
0
100
AcDbLine
10
55.698661331585335
20
44.247652474951956
30
0
11
57.298899118599181
21
42.647414687938095
31
0
0
LINE
5
125
100
AcDbEntity
8
0
100
AcDbLine
10
57.298899118599181
20
42.647414687938095
30
0
11
63.339069383764226
21
42.647414687938088
31
0
0
LINE
5
126
100
AcDbEntity
8
0
100
AcDbLine
10
63.339069383764226
20
42.647414687938088
30
0
11
60.260793786199393
21
39.551681950878553
31
0
0
SPLINE
5
127
100
AcDbEntity
8
0
100
AcDbSpline
70
4
71
3
72
8
73
4
74
0
42
0.000000001
43
0.0000000001
44
0.0000000001
40
-1
40
-1
40
-1
40
-1
40
0
40
0
40
0
40
0
41
1
41
1
41
1
41
1
10
60.260793786199386
20
39.55168195087856
30
0
10
58.573270301712043
20
37.846701326896522
30
0
10
57.165061049139837
20
36.438492074324323
30
0
10
57.135965816648678
20
36.426853981327866
30
0
0
SPLINE
5
128
100
AcDbEntity
8
0
100
AcDbSpline
70
4
71
3
72
8
73
4
74
0
42
0.000000001
43
0.0000000001
44
0.0000000001
40
-1
40
-1
40
-1
40
-1
40
0
40
0
40
0
40
0
41
1
41
1
41
1
41
1
10
57.135965816648678
20
36.426853981327866
30
0
10
57.106870584157519
20
36.415215888331396
30
0
10
55.180766193242661
20
38.306406000256871
30
0
10
52.853147593949778
20
40.622386506553283
30
0
0
SPLINE
5
129
100
AcDbEntity
8
0
100
AcDbSpline
70
4
71
3
72
8
73
4
74
0
42
0.000000001
43
0.0000000001
44
0.0000000001
40
-1
40
-1
40
-1
40
-1
40
0
40
0
40
0
40
0
41
1
41
1
41
1
41
1
10
52.853147593949778
20
40.622386506553283
30
0
10
50.53134804115512
20
42.944186059347942
30
0
10
48.506319859770315
20
44.928480915245117
30
0
10
48.349205604318044
20
45.027404705715071
30
0
0
SPLINE
5
130
100
AcDbEntity
8
0
100
AcDbSpline
70
4
71
3
72
8
73
4
74
0
42
0.000000001
43
0.0000000001
44
0.0000000001
40
-1
40
-1
40
-1
40
-1
40
0
40
0
40
0
40
0
41
1
41
1
41
1
41
1
10
48.349205604318044
20
45.027404705715071
30
0
10
47.988424721427648
20
45.271804658640818
30
0
10
47.42979625759736
20
45.527842704563035
30
0
10
46.935177305247613
20
45.684956960015306
30
0
0
SPLINE
5
131
100
AcDbEntity
8
0
100
AcDbSpline
70
4
71
3
72
8
73
4
74
0
42
0.000000001
43
0.0000000001
44
0.0000000001
40
-1
40
-1
40
-1
40
-1
40
-0.21475226776912854
40
-0.21475226776912854
40
-0.21475226776912854
40
-0.21475226776912854
41
1
41
1
41
1
41
1
10
46.935177305247613
20
45.684956960015306
30
0
10
46.633597362859753
20
45.780914214411453
30
0
10
46.486305958826357
20
45.805109357945057
30
0
10
45.000000670552261
20
45.822346080653261
30
0
0
LINE
5
132
100
AcDbEntity
8
0
100
AcDbLine
10
74.346469783948976
20
45.77200754324523
30
0
11
74.346469783948976
21
50.276974454497648
31
0
0
SPLINE
5
133
100
AcDbEntity
8
0
100
AcDbSpline
70
0
71
3
72
14
73
10
74
0
42
0.000000001
43
0.0000000001
44
0.0000000001
40
0.65595112756947394
40
0.65595112756947394
40
0.65595112756947394
40
0.65595112756947394
40
0.75
40
0.75
40
0.75
40
0.91821324951278038
40
0.91821324951278038
40
0.91821324951278038
40
0.99543023769315642
40
0.99543023769315642
40
0.99543023769315642
40
0.99543023769315642
10
74.346469783949004
20
50.276974454497648
30
0
10
74.521612146073522
20
50.270268185553434
30
0
10
74.682393495885279
20
50.261594710277606
30
0
10
74.844491533329304
20
50.249769929430627
30
0
10
75.134415664405395
20
50.228620448744223
30
0
10
75.475856111958507
20
50.184986341132607
30
0
10
75.743082710824993
20
50.131792193575592
30
0
10
75.865751009463324
20
50.107373832506681
30
0
10
75.959334851331988
20
50.08531696471907
30
0
10
76.013134573749397
20
50.072648724862923
30
0
0
SPLINE
5
134
100
AcDbEntity
8
0
100
AcDbSpline
70
0
71
3
72
14
73
10
74
0
42
0.000000001
43
0.0000000001
44
0.0000000001
40
0.00078782920780486314
40
0.00078782920780486314
40
0.00078782920780486314
40
0.00078782920780486314
40
0.65947259311753248
40
0.65947259311753248
40
0.65947259311753248
40
1
40
1
40
1
40
1.0003652056240355
40
1.0003652056240355
40
1.0003652056240355
40
1.0003652056240355
10
76.013134573746697
20
50.072648724851526
30
0
10
78.749705113579907
20
49.437310761450782
30
0
10
81.231209028446273
20
47.94962371771544
30
0
10
82.965676979700632
20
45.792724980914329
30
0
10
83.862363689524599
20
44.6776496459524
30
0
10
84.556709696064388
20
43.396233587267716
30
0
10
85.016822537597946
20
42.022029900554188
30
0
10
85.01714130987412
20
42.021077834022655
30
0
10
85.017460082150308
20
42.020125767491159
30
0
10
85.017778854439925
20
42.019173700919509
30
0
0
SPLINE
5
135
100
AcDbEntity
8
0
100
AcDbSpline
70
0
71
3
72
17
73
13
74
0
42
0.000000001
43
0.0000000001
44
0.0000000001
40
-0.00079075099100874534
40
-0.00079075099100874534
40
-0.00079075099100874534
40
-0.00079075099100874534
40
0
40
0
40
0
40
0.151411000092148
40
0.151411000092148
40
0.151411000092148
40
0.32152411285240173
40
0.32152411285240173
40
0.32152411285240173
40
0.44623236804665389
40
0.44623236804665389
40
0.44623236804665389
40
0.44623236804665389
10
85.017778854425302
20
42.019173700968992
30
0
10
85.018096352186461
20
42.018221207685414
30
0
10
85.01841384994465
20
42.017268714410818
30
0
10
85.01873134770284
20
42.016316221136279
30
0
10
85.051629500111517
20
41.917621763910262
30
0
10
85.115813283692177
20
41.756718006217426
30
0
10
85.217651676433491
20
41.414306940420353
30
0
10
85.332069030371983
20
41.029601653414474
30
0
10
85.43901886832812
20
40.504925849885112
30
0
10
85.491791215056196
20
40.036651344965236
30
0
10
85.530478105068283
20
39.693363896320342
30
0
10
85.555875820861402
20
39.352797246367679
30
0
10
85.573251350368452
20
38.964232661388998
30
0
0
LINE
5
136
100
AcDbEntity
8
0
100
AcDbLine
10
85.573251350368423
20
38.964232661388998
30
0
11
81.064183348106056
21
38.964232661388998
31
0
0
SPLINE
5
137
100
AcDbEntity
8
0
100
AcDbSpline
70
4
71
3
72
8
73
4
74
0
42
0.000000001
43
0.0000000001
44
0.0000000001
40
-0.42059784468269706
40
-0.42059784468269706
40
-0.42059784468269706
40
-0.42059784468269706
40
0
40
0
40
0
40
0
41
1
41
1
41
1
41
1
10
81.064183348106056
20
38.964232661388998
30
0
10
81.012262025096717
20
39.943414873810312
30
0
10
80.91853251712827
20
40.086663242102304
30
0
10
80.749656506474992
20
40.593291274062125
30
0
0
SPLINE
5
138
100
AcDbEntity
8
0
100
AcDbSpline
70
4
71
3
72
8
73
4
74
0
42
0.000000001
43
0.0000000001
44
0.0000000001
40
-1
40
-1
40
-1
40
-1
40
0
40
0
40
0
40
0
41
1
41
1
41
1
41
1
10
80.749656506474992
20
40.593291274062125
30
0
10
79.876799531740161
20
43.200224105270159
30
0
10
77.805218978369496
20
45.039042798711534
30
0
10
74.988800473225098
20
45.690776006513545
30
0
0
SPLINE
5
139
100
AcDbEntity
8
0
100
AcDbSpline
70
4
71
3
72
8
73
4
74
0
42
0.000000001
43
0.0000000001
44
0.0000000001
40
-1
40
-1
40
-1
40
-1
40
-0.697415661857133
40
-0.697415661857133
40
-0.697415661857133
40
-0.697415661857133
41
1
41
1
41
1
41
1
10
74.988800473225098
20
45.690776006513545
30
0
10
74.832093515562278
20
45.727751805512639
30
0
10
74.714279211695796
20
45.753539306844274
30
0
10
74.346469783948962
20
45.772007543245223
30
0
0
LINE
5
140
100
AcDbEntity
8
0
100
AcDbLine
10
81.127486940989542
20
32.964232661388991
30
0
11
85.627540980157562
21
32.964232661388991
31
0
0
SPLINE
5
141
100
AcDbEntity
8
0
100
AcDbSpline
70
0
71
3
72
8
73
4
74
0
42
0.000000001
43
0.0000000001
44
0.0000000001
40
0.81705490496171196
40
0.81705490496171196
40
0.81705490496171196
40
0.81705490496171196
40
1
40
1
40
1
40
1
10
85.627540980157562
20
32.964232661388976
30
0
10
85.628722118922241
20
31.385193445818757
30
0
10
85.627894528860082
20
29.43993757467549
30
0
10
85.627894528860082
20
27.023274840184609
30
0
0
SPLINE
5
142
100
AcDbEntity
8
0
100
AcDbSpline
70
0
71
3
72
8
73
4
74
0
42
0.000000001
43
0.0000000001
44
0.0000000001
40
0
40
0
40
0
40
0
40
0.35561257026335008
40
0.35561257026335008
40
0.35561257026335008
40
0.35561257026335008
10
85.627894528860082
20
27.023274840184609
30
0
10
85.627894528860082
20
24.151285097798379
30
0
10
85.630109807669896
20
21.788153298287803
30
0
10
85.63502816703172
20
19.919987295290298
30
0
0
LINE
5
143
100
AcDbEntity
8
0
100
AcDbLine
10
85.63502816703172
20
19.919987295290294
30
0
11
81.135010169257583
21
19.919987295290294
31
0
0
SPLINE
5
144
100
AcDbEntity
8
0
100
AcDbSpline
70
4
71
3
72
8
73
4
74
0
42
0.000000001
43
0.0000000001
44
0.0000000001
40
-0.35487630283143901
40
-0.35487630283143901
40
-0.35487630283143901
40
-0.35487630283143901
40
0
40
0
40
0
40
0
41
1
41
1
41
1
41
1
10
81.135010169257583
20
19.919987295290294
30
0
10
81.130093031958921
20
21.792977524412144
30
0
10
81.127894528860082
20
24.154931908749244
30
0
10
81.127894528860082
20
27.023274840184609
30
0
0
SPLINE
5
145
100
AcDbEntity
8
0
100
AcDbSpline
70
4
71
3
72
8
73
4
74
0
42
0.000000001
43
0.0000000001
44
0.0000000001
40
-1
40
-1
40
-1
40
-1
40
-0.81699454070320909
40
-0.81699454070320909
40
-0.81699454070320909
40
-0.81699454070320909
41
1
41
1
41
1
41
1
10
81.127894528860082
20
27.023274840184609
30
0
10
81.127894528860082
20
29.441701976429584
30
0
10
81.128674071561719
20
31.389090435221128
30
0
10
81.127486940989542
20
32.964232661389005
30
0
0
LINE
5
146
100
AcDbEntity
8
0
100
AcDbLine
10
81.253725229296876
20
13.919987295290294
30
0
11
85.819584630731569
21
13.919987295290294
31
0
0
SPLINE
5
147
100
AcDbEntity
8
0
100
AcDbSpline
70
0
71
3
72
11
73
7
74
0
42
0.000000001
43
0.0000000001
44
0.0000000001
40
0.26274737816218829
40
0.26274737816218829
40
0.26274737816218829
40
0.26274737816218829
40
0.89315733430487165
40
0.89315733430487165
40
0.89315733430487165
40
0.99608993230368836
40
0.99608993230368836
40
0.99608993230368836
40
0.99608993230368836
10
85.819584630731555
20
13.919987295290275
30
0
10
85.985601422037163
20
13.108740753285112
30
0
10
86.255396925489265
20
12.229610403545031
30
0
10
86.558260722483581
20
11.5464901400388
30
0
10
86.607711967916231
20
11.43495106489701
30
0
10
86.657555682081096
20
11.328579652889328
30
0
10
86.706962882564369
20
11.228595805079408
30
0
0
SPLINE
5
148
100
AcDbEntity
8
0
100
AcDbSpline
70
0
71
3
72
11
73
7
74
0
42
0.000000001
43
0.0000000001
44
0.0000000001
40
0.0067635441076076492
40
0.0067635441076076492
40
0.0067635441076076492
40
0.0067635441076076492
40
1
40
1
40
1
40
1.0020669645360332
40
1.0020669645360332
40
1.0020669645360332
40
1.0020669645360332
10
86.706962882571446
20
11.228595805082968
30
0
10
87.004342775694127
20
10.63970488104083
30
0
10
87.137276418041353
20
10.443973183566644
30
0
10
87.46432824000378
20
10.065819514422573
30
0
10
87.465482905227219
20
10.06448443275797
30
0
10
87.466637570450672
20
10.063149351093346
30
0
10
87.467792235676342
20
10.06181426942619
30
0
0
SPLINE
5
149
100
AcDbEntity
8
0
100
AcDbSpline
70
0
71
3
72
17
73
13
74
0
42
0.000000001
43
0.0000000001
44
0.0000000001
40
-0.0014549217828590116
40
-0.0014549217828590116
40
-0.0014549217828590116
40
-0.0014549217828590116
40
0
40
0
40
0
40
0.64734158931635655
40
0.64734158931635655
40
0.64734158931635655
40
1
40
1
40
1
40
1.0058452961205659
40
1.0058452961205659
40
1.0058452961205659
40
1.0058452961205659
10
87.467792235229808
20
10.061814269040532
30
0
10
87.468943646247766
20
10.060476600357939
30
0
10
87.470095057268523
20
10.059138931672049
30
0
10
87.471246468289308
20
10.057801262986141
30
0
10
88.168599286192403
20
9.2476413715986912
30
0
10
88.815046915961474
20
8.3206244388980739
30
0
10
89.280012050713182
20
7.2966626444326739
30
0
10
89.533315512364723
20
6.7388292763984996
30
0
10
89.728418137896966
20
6.1697119321204985
30
0
10
89.877217912134441
20
5.6188361721775308
30
0
10
89.878816572480602
20
5.6129177274916655
30
0
10
89.880415232826834
20
5.6069992828056154
30
0
10
89.882013893173706
20
5.6010808381171762
30
0
0
SPLINE
5
150
100
AcDbEntity
8
0
100
AcDbSpline
70
0
71
3
72
20
73
16
74
0
42
0.000000001
43
0.0000000001
44
0.0000000001
40
-0.01158290826534367
40
-0.01158290826534367
40
-0.01158290826534367
40
-0.01158290826534367
40
0
40
0
40
0
40
0.40262854644835927
40
0.40262854644835927
40
0.40262854644835927
40
0.83870215388331748
40
0.83870215388331748
40
0.83870215388331748
40
1
40
1
40
1
40
1.006482683627768
40
1.006482683627768
40
1.006482683627768
40
1.006482683627768
10
89.88201389337091
20
5.6010808381676691
30
0
10
89.883564127450597
20
5.5951495077759432
30
0
10
89.885114361531393
20
5.5892181773798182
30
0
10
89.886664595612132
20
5.5832868469839774
30
0
10
89.957128604694731
20
5.313685420928735
30
0
10
90.043060702402258
20
4.9595785859943122
30
0
10
90.100203510579632
20
4.5567672294703412
30
0
10
90.162092988413946
20
4.1204956265135788
30
0
10
90.17817910792516
20
3.7262716254310351
30
0
10
90.185030753911533
20
3.3701239665804121
30
0
10
90.187565086925758
20
3.2383896692217427
30
0
10
90.188907552546368
20
3.106219344470726
30
0
10
90.189913814361745
20
2.9643364285024902
30
0
10
90.18995153739921
20
2.9590174802205507
30
0
10
90.189989260436676
20
2.9536985319385067
30
0
10
90.190026983474155
20
2.9483795836554121
30
0
0
SPLINE
5
151
100
AcDbEntity
8
0
100
AcDbSpline
70
0
71
3
72
14
73
10
74
0
42
0.000000001
43
0.0000000001
44
0.0000000001
40
-0.0069248589363203883
40
-0.0069248589363203883
40
-0.0069248589363203883
40
-0.0069248589363203883
40
0
40
0
40
0
40
0.5544450917911089
40
0.5544450917911089
40
0.5544450917911089
40
0.99595106430838887
40
0.99595106430838887
40
0.99595106430838887
40
0.99595106430838887
10
90.190026983474141
20
2.9483795836563331
30
0
10
90.190026983474141
20
2.9430605016053057
30
0
10
90.190026983474141
20
2.9377414195542784
30
0
10
90.190026983474141
20
2.932422337503251
30
0
10
90.190026983474141
20
2.4687421494428663
30
0
10
90.190943082468181
20
2.0733510293322661
30
0
10
90.138923430607235
20
1.5619601854548704
30
0
10
90.097500055551876
20
1.154738415066132
30
0
10
90.010408973808396
20
0.71533912071541006
30
0
10
89.928298967670429
20
0.39485191222934951
30
0
0
SPLINE
5
152
100
AcDbEntity
8
0
100
AcDbSpline
70
0
71
3
72
17
73
13
74
0
42
0.000000001
43
0.0000000001
44
0.0000000001
40
0.00042317423439150036
40
0.00042317423439150036
40
0.00042317423439150036
40
0.00042317423439150036
40
0.39170035279364651
40
0.39170035279364651
40
0.39170035279364651
40
0.81400384757999056
40
0.81400384757999056
40
0.81400384757999056
40
1
40
1
40
1
40
1.0005654391398733
40
1.0005654391398733
40
1.0005654391398733
40
1.0005654391398733
10
89.92829896766672
20
0.39485191223029181
30
0
10
89.258822942628697
20
-2.243414832960247
30
0
10
87.641436920029477
20
-4.4379105790641553
30
0
10
85.58242372191981
20
-5.8497925642635735
30
0
10
83.360141112505502
20
-7.373629703886837
30
0
10
80.596327655581135
20
-8.0487624434174734
30
0
10
77.829272470211535
20
-7.5933293364946266
30
0
10
76.610571643989474
20
-7.3927418286521993
30
0
10
75.398072586673479
20
-6.9683385055403697
30
0
10
74.273430366412597
20
-6.3206485140039934
30
0
10
74.271436434524176
20
-6.3195001934939965
30
0
10
74.26944250263594
20
-6.3183518729841062
30
0
10
74.267448570742204
20
-6.3172035524710459
30
0
0
SPLINE
5
153
100
AcDbEntity
8
0
100
AcDbSpline
70
0
71
3
72
11
73
7
74
0
42
0.000000001
43
0.0000000001
44
0.0000000001
40
-0.0017099804004449375
40
-0.0017099804004449375
40
-0.0017099804004449375
40
-0.0017099804004449375
40
0
40
0
40
0
40
0.90071048015565847
40
0.90071048015565847
40
0.90071048015565847
40
0.90071048015565847
10
74.267448571563563
20
-6.3172035510489897
30
0
10
74.265458480471153
20
-6.3160492982153844
30
0
10
74.263468389378843
20
-6.3148950453818422
30
0
10
74.261478298286519
20
-6.3137407925482947
30
0
10
73.741610517146398
20
-6.012217479487032
30
0
10
72.911006736689302
20
-5.6987598599423448
30
0
10
72.000001072883606
20
-5.5256695851497195
30
0
0
LINE
5
154
100
AcDbEntity
8
0
100
AcDbLine
10
72.00000107288362
20
-5.5256695851497195
30
0
11
72.000001072883606
21
-0.97440477410126181
31
0
0
SPLINE
5
155
100
AcDbEntity
8
0
100
AcDbSpline
70
4
71
3
72
8
73
4
74
0
42
0.000000001
43
0.0000000001
44
0.0000000001
40
-0.092260878323810608
40
-0.092260878323810608
40
-0.092260878323810608
40
-0.092260878323810608
40
0
40
0
40
0
40
0
41
1
41
1
41
1
41
1
10
72.000001072883606
20
-0.97440477410126158
30
0
10
72.130240523542838
20
-0.98960712624555802
30
0
10
72.250507462992331
20
-1.0062756897028964
30
0
10
72.370229549020607
20
-1.0245292812946527
30
0
0
SPLINE
5
156
100
AcDbEntity
8
0
100
AcDbSpline
70
4
71
3
72
8
73
4
74
0
42
0.000000001
43
0.0000000001
44
0.0000000001
40
-1
40
-1
40
-1
40
-1
40
0
40
0
40
0
40
0
41
1
41
1
41
1
41
1
10
72.370229549020607
20
-1.0245292812946527
30
0
10
73.906457824553925
20
-1.2572911412239396
30
0
10
75.355400402613739
20
-1.746091047075442
30
0
10
76.51920970226017
20
-2.4211004408703829
30
0
0
SPLINE
5
157
100
AcDbEntity
8
0
100
AcDbSpline
70
4
71
3
72
8
73
4
74
0
42
0.000000001
43
0.0000000001
44
0.0000000001
40
-1
40
-1
40
-1
40
-1
40
0
40
0
40
0
40
0
41
1
41
1
41
1
41
1
10
76.51920970226017
20
-2.4211004408703829
30
0
10
80.045551880188896
20
-4.4519476687534176
30
0
10
84.555312916318854
20
-2.4967480453473989
30
0
10
85.567827007011275
20
1.5067559454363622
30
0
0
SPLINE
5
158
100
AcDbEntity
8
0
100
AcDbSpline
70
4
71
3
72
8
73
4
74
0
42
0.000000001
43
0.0000000001
44
0.0000000001
40
-1
40
-1
40
-1
40
-1
40
0
40
0
40
0
40
0
41
1
41
1
41
1
41
1
10
85.567827007011275
20
1.5067559454363622
30
0
10
85.672569843979446
20
1.9140892003126186
30
0
10
85.690026983474155
20
2.1643081997366043
30
0
10
85.690026983474155
20
2.932422337503251
30
0
0
SPLINE
5
159
100
AcDbEntity
8
0
100
AcDbSpline
70
4
71
3
72
8
73
4
74
0
42
0.000000001
43
0.0000000001
44
0.0000000001
40
-1
40
-1
40
-1
40
-1
40
0
40
0
40
0
40
0
41
1
41
1
41
1
41
1
10
85.690026983474155
20
2.932422337503251
30
0
10
85.684207936975909
20
3.7529078937539939
30
0
10
85.666750797481214
20
3.9332983351991935
30
0
10
85.53291272802187
20
4.4453744270436335
30
0
0
SPLINE
5
160
100
AcDbEntity
8
0
100
AcDbSpline
70
4
71
3
72
8
73
4
74
0
42
0.000000001
43
0.0000000001
44
0.0000000001
40
-1
40
-1
40
-1
40
-1
40
0
40
0
40
0
40
0
41
1
41
1
41
1
41
1
10
85.53291272802187
20
4.4453744270436335
30
0
10
85.25941754260495
20
5.4578885177360359
30
0
10
84.852084287728701
20
6.2027264695097539
30
0
10
84.060693963969129
20
7.1221358162304504
30
0
0
SPLINE
5
161
100
AcDbEntity
8
0
100
AcDbSpline
70
4
71
3
72
8
73
4
74
0
42
0.000000001
43
0.0000000001
44
0.0000000001
40
-1
40
-1
40
-1
40
-1
40
0
40
0
40
0
40
0
41
1
41
1
41
1
41
1
10
84.060693963969129
20
7.1221358162304504
30
0
10
83.502065500138826
20
7.7680499775342238
30
0
10
83.100551291760809
20
8.3848689063468385
30
0
10
82.681579943888096
20
9.2169925555940413
30
0
0
SPLINE
5
162
100
AcDbEntity
8
0
100
AcDbSpline
70
4
71
3
72
8
73
4
74
0
42
0.000000001
43
0.0000000001
44
0.0000000001
40
-1
40
-1
40
-1
40
-1
40
-0.099571473423959667
40
-0.099571473423959667
40
-0.099571473423959667
40
-0.099571473423959667
41
1
41
1
41
1
41
1
10
82.681579943888096
20
9.2169925555940413
30
0
10
81.995187698041121
20
10.600256318216942
30
0
10
81.473922555631873
20
12.313774287715301
30
0
10
81.253725229296876
20
13.919987295290294
30
0
0
LINE
5
163
100
AcDbEntity
8
0
100
AcDbLine
10
66.000001072883606
20
-0.8319667998340039
30
0
11
66.000001072883606
21
-5.3326081043193003
31
0
0
SPLINE
5
164
100
AcDbEntity
8
0
100
AcDbSpline
70
0
71
3
72
14
73
10
74
0
42
0.000000001
43
0.0000000001
44
0.0000000001
40
0.67288640656992504
40
0.67288640656992504
40
0.67288640656992504
40
0.67288640656992504
40
0.79541260463239205
40
0.79541260463239205
40
0.79541260463239205
40
1
40
1
40
1
40
1.0000156931651587
40
1.0000156931651587
40
1.0000156931651587
40
1.0000156931651587
10
66.000001072883606
20
-5.3326081043193003
30
0
10
65.168052025549045
20
-5.3303537480618708
30
0
10
64.211798801422532
20
-5.3293883871829468
30
0
10
63.112298036700523
20
-5.3297132432890724
30
0
10
61.276413130319227
20
-5.3302556698531252
30
0
10
59.035407462026306
20
-5.3335521295670265
30
0
10
56.288364929834572
20
-5.3383130351687447
30
0
10
56.288154164987638
20
-5.3383134004457755
30
0
10
56.287943400140705
20
-5.3383137657228072
30
0
10
56.287732635294255
20
-5.3383141309998372
30
0
0
SPLINE
5
165
100
AcDbEntity
8
0
100
AcDbSpline
70
0
71
3
72
11
73
7
74
0
42
0.000000001
43
0.0000000001
44
0.0000000001
40
-1.7531385717043299e-05
40
-1.7531385717043299e-05
40
-1.7531385717043299e-05
40
-1.7531385717043299e-05
40
0
40
0
40
0
40
0.30476747733017545
40
0.30476747733017545
40
0.30476747733017545
40
0.30476747733017545
10
56.287732635293935
20
-5.3383141309998416
30
0
10
56.287521870343852
20
-5.3383144370476892
30
0
10
56.287311105393918
20
-5.3383147430955349
30
0
10
56.287100340443992
20
-5.3383150491433806
30
0
10
52.623883709728688
20
-5.3436343375713315
30
0
10
49.954396642176832
20
-5.3485521509428402
30
0
10
48.005332211692519
20
-5.355103632596677
30
0
0
LINE
5
166
100
AcDbEntity
8
0
100
AcDbLine
10
48.005332211692519
20
-5.355103632596677
30
0
11
48.005332211692519
21
-0.8549325865923707
31
0
0
SPLINE
5
167
100
AcDbEntity
8
0
100
AcDbSpline
70
4
71
3
72
8
73
4
74
0
42
0.000000001
43
0.0000000001
44
0.0000000001
40
-0.30425543076243078
40
-0.30425543076243078
40
-0.30425543076243078
40
-0.30425543076243078
40
0
40
0
40
0
40
0
41
1
41
1
41
1
41
1
10
48.005332211692519
20
-0.8549325865923707
30
0
10
49.959354995610312
20
-0.84840397525505151
30
0
10
52.622761534585585
20
-0.8436312228480537
30
0
10
56.28056598140855
20
-0.83831979335121432
30
0
0
SPLINE
5
168
100
AcDbEntity
8
0
100
AcDbSpline
70
4
71
3
72
8
73
4
74
0
42
0.000000001
43
0.0000000001
44
0.0000000001
40
-1
40
-1
40
-1
40
-1
40
-0.67319630802719399
40
-0.67319630802719399
40
-0.67319630802719399
40
-0.67319630802719399
41
1
41
1
41
1
41
1
10
56.28056598140855
20
-0.83831979335121432
30
0
10
60.669656991026173
20
-0.83071304983367944
30
0
10
63.769802698423206
20
-0.82683517411427609
30
0
10
66.00000107288362
20
-0.8319667998340039
30
0
0
SPLINE
5
169
100
AcDbEntity
8
0
100
AcDbSpline
70
4
71
3
72
8
73
4
74
0
42
0.000000001
43
0.0000000001
44
0.0000000001
40
-1
40
-1
40
-1
40
-1
40
0
40
0
40
0
40
0
41
1
41
1
41
1
41
1
10
57.531660978528478
20
2.3505176876800338
30
0
10
52.061757270190192
20
2.338879594683565
30
0
10
47.319234374130943
20
2.3563367341782637
30
0
10
46.999186816728169
20
2.3796129201711924
30
0
0
SPLINE
5
170
100
AcDbEntity
8
0
100
AcDbSpline
70
4
71
3
72
8
73
4
74
0
42
0.000000001
43
0.0000000001
44
0.0000000001
40
-1
40
-1
40
-1
40
-1
40
0
40
0
40
0
40
0
41
1
41
1
41
1
41
1
10
46.999186816728169
20
2.3796129201711924
30
0
10
46.271806004449147
20
2.4378033851535186
30
0
10
45.067263379315079
20
2.6822033380792654
30
0
10
44.380615892523672
20
2.9091461515103223
30
0
0
SPLINE
5
171
100
AcDbEntity
8
0
100
AcDbSpline
70
4
71
3
72
8
73
4
74
0
42
0.000000001
43
0.0000000001
44
0.0000000001
40
-1
40
-1
40
-1
40
-1
40
0
40
0
40
0
40
0
41
1
41
1
41
1
41
1
10
44.380615892523672
20
2.9091461515103223
30
0
10
43.64741603374641
20
3.147727057937848
30
0
10
42.326492478647708
20
3.82273645173278
30
0
10
41.703854503336864
20
4.2649839855984339
30
0
0
SPLINE
5
172
100
AcDbEntity
8
0
100
AcDbSpline
70
4
71
3
72
8
73
4
74
0
42
0.000000001
43
0.0000000001
44
0.0000000001
40
-1
40
-1
40
-1
40
-1
40
0
40
0
40
0
40
0
41
1
41
1
41
1
41
1
10
41.703854503336864
20
4.2649839855984339
30
0
10
41.034664156040151
20
4.7479648449517065
30
0
10
40.196721460294718
20
5.527717075714822
30
0
10
39.661369182457349
20
6.1736312370185953
30
0
0
SPLINE
5
173
100
AcDbEntity
8
0
100
AcDbSpline
70
4
71
3
72
8
73
4
74
0
42
0.000000001
43
0.0000000001
44
0.0000000001
40
-1
40
-1
40
-1
40
-1
40
0
40
0
40
0
40
0
41
1
41
1
41
1
41
1
10
39.661369182457349
20
6.1736312370185953
30
0
10
38.538293208298533
20
7.5178309781102381
30
0
10
37.636341001072545
20
9.2169925555940413
30
0
10
37.025341118758163
20
11.137277900010671
30
0
0
LINE
5
174
100
AcDbEntity
8
0
100
AcDbLine
10
37.025341118758163
20
11.137277900010671
30
0
11
36.839131630814734
21
11.713363503335659
31
0
0
LINE
5
175
100
AcDbEntity
8
0
100
AcDbLine
10
36.839131630814734
20
11.713363503335659
30
0
11
46.67913925932541
21
21.55337113184633
31
0
0
LINE
5
176
100
AcDbEntity
8
0
100
AcDbLine
10
46.67913925932541
20
21.55337113184633
30
0
11
49.751595810392011
21
18.480914580779721
31
0
0
LINE
5
177
100
AcDbEntity
8
0
100
AcDbLine
10
49.751595810392011
20
18.480914580779721
30
0
11
50.007633856314229
21
18.57401932475144
31
0
0
SPLINE
5
178
100
AcDbEntity
8
0
100
AcDbSpline
70
4
71
3
72
8
73
4
74
0
42
0.000000001
43
0.0000000001
44
0.0000000001
40
-1
40
-1
40
-1
40
-1
40
0
40
0
40
0
40
0
41
1
41
1
41
1
41
1
10
50.007633856314229
20
18.574019324751436
30
0
10
50.746652761589715
20
18.859152603164816
30
0
10
52.800776175465685
20
19.761104810390808
30
0
10
52.800776175465685
20
19.801838135878434
30
0
0
SPLINE
5
179
100
AcDbEntity
8
0
100
AcDbSpline
70
4
71
3
72
8
73
4
74
0
42
0.000000001
43
0.0000000001
44
0.0000000001
40
-1
40
-1
40
-1
40
-1
40
0
40
0
40
0
40
0
41
1
41
1
41
1
41
1
10
52.800776175465685
20
19.801838135878434
30
0
10
52.800776175465685
20
19.825114321871364
30
0
10
49.850519600861958
20
22.804466128966254
30
0
10
46.248529818456213
20
26.418094004368456
30
0
0
LINE
5
180
100
AcDbEntity
8
0
100
AcDbLine
10
46.248529818456213
20
26.418094004368456
30
0
11
39.696283461446747
21
32.993616547370856
31
0
0
LINE
5
181
100
AcDbEntity
8
0
100
AcDbLine
10
39.696283461446747
20
32.993616547370856
30
0
11
39.696283461446747
21
28.594417394707307
31
0
0
LINE
5
182
100
AcDbEntity
8
0
100
AcDbLine
10
39.696283461446747
20
28.594417394707307
30
0
11
42.082092525721954
21
26.208608330432099
31
0
0
SPLINE
5
183
100
AcDbEntity
8
0
100
AcDbSpline
70
4
71
3
72
8
73
4
74
0
42
0.000000001
43
0.0000000001
44
0.0000000001
40
-1
40
-1
40
-1
40
-1
40
0
40
0
40
0
40
0
41
1
41
1
41
1
41
1
10
42.082092525721954
20
26.208608330432099
30
0
10
43.397197034322438
20
24.89932286832985
30
0
10
44.467901589997169
20
23.799523080163961
30
0
10
44.467901589997169
20
23.764608801174568
30
0
0
SPLINE
5
184
100
AcDbEntity
8
0
100
AcDbSpline
70
4
71
3
72
8
73
4
74
0
42
0.000000001
43
0.0000000001
44
0.0000000001
40
-1
40
-1
40
-1
40
-1
40
0
40
0
40
0
40
0
41
1
41
1
41
1
41
1
10
44.467901589997169
20
23.764608801174568
30
0
10
44.467901589997169
20
23.694780243195783
30
0
10
36.431798375938477
20
15.647038936140634
30
0
10
36.36196981795969
20
15.647038936140634
30
0
0
SPLINE
5
185
100
AcDbEntity
8
0
100
AcDbSpline
70
4
71
3
72
8
73
4
74
0
42
0.000000001
43
0.0000000001
44
0.0000000001
40
-1
40
-1
40
-1
40
-1
40
0
40
0
40
0
40
0
41
1
41
1
41
1
41
1
10
36.36196981795969
20
15.647038936140634
30
0
10
36.338693631966763
20
15.647038936140634
30
0
10
36.327055538970299
20
20.919095063539018
30
0
10
36.332874585468531
20
27.354960490583842
30
0
0
LINE
5
186
100
AcDbEntity
8
0
100
AcDbLine
10
36.332874585468531
20
27.354960490583842
30
0
11
36.350331724963226
21
39.068701091525284
31
0
0
LINE
5
187
100
AcDbEntity
8
0
100
AcDbLine
10
36.350331724963226
20
39.068701091525284
30
0
11
36.513265026913729
21
39.534224811383865
31
0
0
SPLINE
5
188
100
AcDbEntity
8
0
100
AcDbSpline
70
4
71
3
72
8
73
4
74
0
42
0.000000001
43
0.0000000001
44
0.0000000001
40
-1
40
-1
40
-1
40
-1
40
0
40
0
40
0
40
0
41
1
41
1
41
1
41
1
10
36.513265026913729
20
39.534224811383865
30
0
10
36.949693514281144
20
40.767862669009091
30
0
10
37.706169559051332
20
41.646538690242153
30
0
10
38.794331254220758
20
42.187710014577746
30
0
0
SPLINE
5
189
100
AcDbEntity
8
0
100
AcDbSpline
70
4
71
3
72
8
73
4
74
0
42
0.000000001
43
0.0000000001
44
0.0000000001
40
-1
40
-1
40
-1
40
-1
40
0
40
0
40
0
40
0
41
1
41
1
41
1
41
1
10
38.794331254220758
20
42.187710014577746
30
0
10
39.719559647439681
20
42.641595641439864
30
0
10
39.806845344913164
20
42.653233734436327
30
0
10
43.135339941901982
20
42.635776594941632
30
0
0
LINE
5
190
100
AcDbEntity
8
0
100
AcDbLine
10
43.135339941901982
20
42.635776594941632
30
0
11
46.068139377011015
21
42.61831945544693
31
0
0
LINE
5
191
100
AcDbEntity
8
0
100
AcDbLine
10
46.068139377011015
20
42.61831945544693
30
0
11
46.44637739939612
21
42.449567106998209
31
0
0
SPLINE
5
192
100
AcDbEntity
8
0
100
AcDbSpline
70
4
71
3
72
8
73
4
74
0
42
0.000000001
43
0.0000000001
44
0.0000000001
40
-1
40
-1
40
-1
40
-1
40
0
40
0
40
0
40
0
41
1
41
1
41
1
41
1
10
46.446377399396113
20
42.449567106998202
30
0
10
46.801339235788276
20
42.2866338050477
30
0
10
47.092291560699884
20
42.013138619630787
30
0
10
50.857214645056132
20
38.25985362827101
30
0
0
SPLINE
5
193
100
AcDbEntity
8
0
100
AcDbSpline
70
4
71
3
72
8
73
4
74
0
42
0.000000001
43
0.0000000001
44
0.0000000001
40
-1
40
-1
40
-1
40
-1
40
0
40
0
40
0
40
0
41
1
41
1
41
1
41
1
10
50.857214645056132
20
38.25985362827101
30
0
10
53.068452314384373
20
36.048615958942769
30
0
10
54.883994821832822
20
34.215616311999625
30
0
10
54.883994821832822
20
34.180702033010228
30
0
0
SPLINE
5
194
100
AcDbEntity
8
0
100
AcDbSpline
70
4
71
3
72
8
73
4
74
0
42
0.000000001
43
0.0000000001
44
0.0000000001
40
-1
40
-1
40
-1
40
-1
40
0
40
0
40
0
40
0
41
1
41
1
41
1
41
1
10
54.883994821832822
20
34.180702033010228
30
0
10
54.883994821832822
20
34.151606800519062
30
0
10
54.069328312080309
20
33.30784505827539
30
0
10
53.068452314384373
20
32.306969060579455
30
0
0
LINE
5
195
100
AcDbEntity
8
0
100
AcDbLine
10
53.068452314384373
20
32.306969060579455
30
0
11
51.258728853434157
21
30.497245599629238
31
0
0
LINE
5
196
100
AcDbEntity
8
0
100
AcDbLine
10
51.258728853434157
20
30.497245599629238
30
0
11
51.78826208477328
21
29.251969649007542
31
0
0
SPLINE
5
197
100
AcDbEntity
8
0
100
AcDbSpline
70
4
71
3
72
8
73
4
74
0
42
0.000000001
43
0.0000000001
44
0.0000000001
40
-1
40
-1
40
-1
40
-1
40
0
40
0
40
0
40
0
41
1
41
1
41
1
41
1
10
51.788262084773287
20
29.251969649007545
30
0
10
52.079214409684894
20
28.571141208714373
30
0
10
52.370166734596502
20
27.884493721922972
30
0
10
52.43999529257529
20
27.727379466470708
30
0
0
LINE
5
198
100
AcDbEntity
8
0
100
AcDbLine
10
52.43999529257529
20
27.727379466470701
30
0
11
52.562195269038163
21
27.436427141559101
31
0
0
LINE
5
199
100
AcDbEntity
8
0
100
AcDbLine
10
52.562195269038163
20
27.436427141559101
30
0
11
57.124327723652222
21
31.998559596173148
31
0
0
LINE
5
200
100
AcDbEntity
8
0
100
AcDbLine
10
57.124327723652222
20
31.998559596173148
30
0
11
65.329183286159633
21
23.793704033665733
31
0
0
LINE
5
201
100
AcDbEntity
8
0
100
AcDbLine
10
65.329183286159633
20
23.793704033665733
30
0
11
58.276498930302196
21
16.735200631310057
31
0
0
LINE
5
202
100
AcDbEntity
8
0
100
AcDbLine
10
58.276498930302196
20
16.735200631310057
30
0
11
51.223814574444752
21
9.6825162754526222
31
0
0
LINE
5
203
100
AcDbEntity
8
0
100
AcDbLine
10
51.223814574444752
20
9.6825162754526222
30
0
11
51.85809064275206
21
8.1986594184034089
31
0
0
SPLINE
5
204
100
AcDbEntity
8
0
100
AcDbSpline
70
4
71
3
72
8
73
4
74
0
42
0.000000001
43
0.0000000001
44
0.0000000001
40
-1
40
-1
40
-1
40
-1
40
0
40
0
40
0
40
0
41
1
41
1
41
1
41
1
10
51.85809064275206
20
8.1986594184034089
30
0
10
52.207233432646007
20
7.383992908650896
30
0
10
52.504004804055846
20
6.6857073288630264
30
0
10
52.521461943550548
20
6.6566120963718678
30
0
0
SPLINE
5
205
100
AcDbEntity
8
0
100
AcDbSpline
70
4
71
3
72
8
73
4
74
0
42
0.000000001
43
0.0000000001
44
0.0000000001
40
-1
40
-1
40
-1
40
-1
40
0
40
0
40
0
40
0
41
1
41
1
41
1
41
1
10
52.521461943550548
20
6.6566120963718678
30
0
10
52.533100036547005
20
6.6216978173824792
30
0
10
53.563071266734106
20
7.6109357220819529
30
0
10
54.802528170857563
20
8.8503926262054122
30
0
0
SPLINE
5
206
100
AcDbEntity
8
0
100
AcDbSpline
70
4
71
3
72
8
73
4
74
0
42
0.000000001
43
0.0000000001
44
0.0000000001
40
-1
40
-1
40
-1
40
-1
40
0
40
0
40
0
40
0
41
1
41
1
41
1
41
1
10
54.802528170857563
20
8.8503926262054122
30
0
10
56.04780412147926
20
10.09566857682711
30
0
10
57.095232491161063
20
11.108182667519513
30
0
10
57.130146770150454
20
11.108182667519513
30
0
0
SPLINE
5
207
100
AcDbEntity
8
0
100
AcDbSpline
70
4
71
3
72
8
73
4
74
0
42
0.000000001
43
0.0000000001
44
0.0000000001
40
-1
40
-1
40
-1
40
-1
40
0
40
0
40
0
40
0
41
1
41
1
41
1
41
1
10
57.130146770150454
20
11.108182667519513
30
0
10
57.165061049139837
20
11.108182667519513
30
0
10
58.404517953263309
20
9.8920019493889821
30
0
10
59.876736717316057
20
8.4023260458415283
30
0
0
LINE
5
208
100
AcDbEntity
8
0
100
AcDbLine
10
59.876736717316057
20
8.4023260458415283
30
0
11
62.565136199499335
21
5.6964694241635527
31
0
0
LINE
5
209
100
AcDbEntity
8
0
100
AcDbLine
10
62.565136199499335
20
5.6964694241635527
30
0
11
63.752221685138707
21
5.6964694241635527
31
0
0
SPLINE
5
210
100
AcDbEntity
8
0
100
AcDbSpline
70
4
71
3
72
8
73
4
74
0
42
0.000000001
43
0.0000000001
44
0.0000000001
40
-1
40
-1
40
-1
40
-1
40
0
40
0
40
0
40
0
41
1
41
1
41
1
41
1
10
63.752221685138707
20
5.6964694241635527
30
0
10
64.398135846442486
20
5.6964694241635527
30
0
10
65.369916611647255
20
5.7139265636582515
30
0
10
65.905268889484617
20
5.7372027496511802
30
0
0
LINE
5
211
100
AcDbEntity
8
0
100
AcDbLine
10
65.905268889484617
20
5.7372027496511802
30
0
11
66.882868701187647
21
5.7721170286405723
31
0
0
LINE
5
212
100
AcDbEntity
8
0
100
AcDbLine
10
66.882868701187647
20
5.7721170286405723
30
0
11
59.306470160489305
21
13.348515569338913
31
0
0
LINE
5
213
100
AcDbEntity
8
0
100
AcDbLine
10
59.306470160489305
20
13.348515569338913
30
0
11
74.55237198585769
21
28.594417394707307
31
0
0
LINE
5
214
100
AcDbEntity
8
0
100
AcDbLine
10
74.55237198585769
20
28.594417394707307
30
0
11
74.55237198585769
21
32.993616547370856
31
0
0
LINE
5
215
100
AcDbEntity
8
0
100
AcDbLine
10
74.55237198585769
20
32.993616547370856
30
0
11
71.055125040420123
21
29.513826741427994
31
0
0
SPLINE
5
216
100
AcDbEntity
8
0
100
AcDbSpline
70
4
71
3
72
8
73
4
74
0
42
0.000000001
43
0.0000000001
44
0.0000000001
40
-1
40
-1
40
-1
40
-1
40
0
40
0
40
0
40
0
41
1
41
1
41
1
41
1
10
71.055125040420123
20
29.513826741427994
30
0
10
69.134839696003496
20
27.599360443509596
30
0
10
67.546240001986106
20
26.028217888986902
30
0
10
67.522963815993194
20
26.016579795990435
30
0
0
SPLINE
5
217
100
AcDbEntity
8
0
100
AcDbSpline
70
4
71
3
72
8
73
4
74
0
42
0.000000001
43
0.0000000001
44
0.0000000001
40
-1
40
-1
40
-1
40
-1
40
0
40
0
40
0
40
0
41
1
41
1
41
1
41
1
10
67.522963815993194
20
26.016579795990435
30
0
10
67.499687630000253
20
26.010760749492206
30
0
10
65.643411797064175
20
27.84376039643535
30
0
10
63.391440802248304
20
30.095731391251217
30
0
0
LINE
5
218
100
AcDbEntity
8
0
100
AcDbLine
10
63.391440802248304
20
30.095731391251217
30
0
11
59.306470160489305
21
34.180702033010235
31
0
0
LINE
5
219
100
AcDbEntity
8
0
100
AcDbLine
10
59.306470160489305
20
34.180702033010235
30
0
11
67.77900186191539
21
42.653233734436327
31
0
0
LINE
5
220
100
AcDbEntity
8
0
100
AcDbLine
10
67.77900186191539
20
42.653233734436327
30
0
11
71.090039319409527
21
42.635776594941632
31
0
0
LINE
5
221
100
AcDbEntity
8
0
100
AcDbLine
10
71.090039319409527
20
42.635776594941632
30
0
11
74.406895823401896
21
42.61831945544693
31
0
0
LINE
5
222
100
AcDbEntity
8
0
100
AcDbLine
10
74.406895823401896
20
42.61831945544693
30
0
11
74.918971915246317
21
42.437929014001732
31
0
0
SPLINE
5
223
100
AcDbEntity
8
0
100
AcDbSpline
70
4
71
3
72
8
73
4
74
0
42
0.000000001
43
0.0000000001
44
0.0000000001
40
-1
40
-1
40
-1
40
-1
40
0
40
0
40
0
40
0
41
1
41
1
41
1
41
1
10
74.918971915246317
20
42.437929014001732
30
0
10
76.559943027747806
20
41.850205317680285
30
0
10
77.688838048404847
20
40.476910344097483
30
0
10
77.92159990833413
20
38.783567813111908
30
0
0
SPLINE
5
224
100
AcDbEntity
8
0
100
AcDbSpline
70
4
71
3
72
8
73
4
74
0
42
0.000000001
43
0.0000000001
44
0.0000000001
40
-1
40
-1
40
-1
40
-1
40
0
40
0
40
0
40
0
41
1
41
1
41
1
41
1
10
77.92159990833413
20
38.783567813111908
30
0
10
77.997247512811171
20
38.25985362827101
30
0
10
78.014704652305866
20
15.588848471158311
30
0
10
77.93905704782884
20
15.588848471158311
30
0
0
SPLINE
5
225
100
AcDbEntity
8
0
100
AcDbSpline
70
4
71
3
72
8
73
4
74
0
42
0.000000001
43
0.0000000001
44
0.0000000001
40
-1
40
-1
40
-1
40
-1
40
0
40
0
40
0
40
0
41
1
41
1
41
1
41
1
10
77.93905704782884
20
15.588848471158311
30
0
10
77.915780861835913
20
15.588848471158311
30
0
10
77.083657212588705
20
16.397695934412589
30
0
10
76.09441930788924
20
17.3927528856103
30
0
0
SPLINE
5
226
100
AcDbEntity
8
0
100
AcDbSpline
70
4
71
3
72
8
73
4
74
0
42
0.000000001
43
0.0000000001
44
0.0000000001
40
-1
40
-1
40
-1
40
-1
40
0
40
0
40
0
40
0
41
1
41
1
41
1
41
1
10
76.09441930788924
20
17.3927528856103
30
0
10
75.105181403189761
20
18.381990790309779
30
0
10
74.273057753942538
20
19.196657300062284
30
0
10
74.24396252145138
20
19.196657300062284
30
0
0
SPLINE
5
227
100
AcDbEntity
8
0
100
AcDbSpline
70
4
71
3
72
8
73
4
74
0
42
0.000000001
43
0.0000000001
44
0.0000000001
40
-1
40
-1
40
-1
40
-1
40
0
40
0
40
0
40
0
41
1
41
1
41
1
41
1
10
74.24396252145138
20
19.196657300062284
30
0
10
74.203229195963758
20
19.196657300062284
30
0
10
71.520648760278718
20
18.061943232907005
30
0
10
71.328620225837057
20
17.963019442437055
30
0
0
SPLINE
5
228
100
AcDbEntity
8
0
100
AcDbSpline
70
4
71
3
72
8
73
4
74
0
42
0.000000001
43
0.0000000001
44
0.0000000001
40
-1
40
-1
40
-1
40
-1
40
0
40
0
40
0
40
0
41
1
41
1
41
1
41
1
10
71.328620225837057
20
17.963019442437055
30
0
10
71.235515481865335
20
17.910648023952966
30
0
10
71.607934457752194
20
17.514952862073176
30
0
10
74.325429172426638
20
14.797458147398732
30
0
0
LINE
5
229
100
AcDbEntity
8
0
100
AcDbLine
10
74.325429172426638
20
14.797458147398732
30
0
11
77.426980955984405
21
11.695906363840965
31
0
0
LINE
5
230
100
AcDbEntity
8
0
100
AcDbLine
10
77.426980955984405
20
11.695906363840965
30
0
11
77.351333351507378
21
11.387496899434657
31
0
0
SPLINE
5
231
100
AcDbEntity
8
0
100
AcDbSpline
70
4
71
3
72
8
73
4
74
0
42
0.000000001
43
0.0000000001
44
0.0000000001
40
-1
40
-1
40
-1
40
-1
40
0
40
0
40
0
40
0
41
1
41
1
41
1
41
1
10
77.351333351507378
20
11.387496899434657
30
0
10
77.077838166090487
20
10.29933520426523
30
0
10
76.228257377348569
20
8.4546974643256245
30
0
10
75.495057518571315
20
7.3548976761597373
30
0
0
SPLINE
5
232
100
AcDbEntity
8
0
100
AcDbSpline
70
4
71
3
72
8
73
4
74
0
42
0.000000001
43
0.0000000001
44
0.0000000001
40
-1
40
-1
40
-1
40
-1
40
0
40
0
40
0
40
0
41
1
41
1
41
1
41
1
10
75.495057518571315
20
7.3548976761597373
30
0
10
73.638781685635237
20
4.5675744035065069
30
0
10
71.299524993345898
20
3.0371651744714345
30
0
10
68.029220861339383
20
2.4552605246482084
30
0
0
SPLINE
5
233
100
AcDbEntity
8
0
100
AcDbSpline
70
4
71
3
72
8
73
4
74
0
42
0.000000001
43
0.0000000001
44
0.0000000001
40
-1
40
-1
40
-1
40
-1
40
0
40
0
40
0
40
0
41
1
41
1
41
1
41
1
10
68.029220861339383
20
2.4552605246482084
30
0
10
67.534601908989643
20
2.3679748271747325
30
0
10
66.504630678802542
20
2.3563367341782637
30
0
10
57.531660978528478
20
2.3505176876800338
30
0
0
LINE
5
234
100
AcDbEntity
8
0
100
AcDbLine
10
33.091815371032112
20
14.227995718264687
30
0
11
33.091665685953188
21
14.16318207909142
31
0
0
LINE
5
235
100
AcDbEntity
8
0
100
AcDbLine
10
33.091665685953188
20
14.16318207909142
30
0
11
32.957827616493844
21
13.493991731794717
31
0
0
SPLINE
5
236
100
AcDbEntity
8
0
100
AcDbSpline
70
4
71
3
72
8
73
4
74
0
42
0.000000001
43
0.0000000001
44
0.0000000001
40
-1
40
-1
40
-1
40
-1
40
0
40
0
40
0
40
0
41
1
41
1
41
1
41
1
10
32.957827616493844
20
13.493991731794717
30
0
10
32.410837245660019
20
10.741582738130884
30
0
10
31.473970759444633
20
8.5827164872867279
30
0
10
30.211237669328241
20
7.1803262812127677
30
0
0
SPLINE
5
237
100
AcDbEntity
8
0
100
AcDbSpline
70
4
71
3
72
8
73
4
74
0
42
0.000000001
43
0.0000000001
44
0.0000000001
40
-1
40
-1
40
-1
40
-1
40
0
40
0
40
0
40
0
41
1
41
1
41
1
41
1
10
30.211237669328241
20
7.1803262812127677
30
0
10
28.587723696321454
20
5.376421866760781
30
0
10
28.110561883466417
20
3.0371651744714345
30
0
10
28.901952207225996
20
0.8201084586449614
30
0
0
SPLINE
5
238
100
AcDbEntity
8
0
100
AcDbSpline
70
4
71
3
72
8
73
4
74
0
42
0.000000001
43
0.0000000001
44
0.0000000001
40
-1
40
-1
40
-1
40
-1
40
0
40
0
40
0
40
0
41
1
41
1
41
1
41
1
10
28.901952207225996
20
0.8201084586449614
30
0
10
29.681704437989112
20
-1.3503958851956543
30
0
10
31.759104037858013
20
-2.9797289047006714
30
0
10
34.051808358161502
20
-3.2008526716334984
30
0
0
SPLINE
5
239
100
AcDbEntity
8
0
100
AcDbSpline
70
4
71
3
72
8
73
4
74
0
42
0.000000001
43
0.0000000001
44
0.0000000001
40
-1
40
-1
40
-1
40
-1
40
0
40
0
40
0
40
0
41
1
41
1
41
1
41
1
10
34.051808358161502
20
-3.2008526716334984
30
0
10
35.30290335528143
20
-3.3230526480963718
30
0
10
36.635465003376602
20
-3.0495574626794575
30
0
10
37.65379814056724
20
-2.4560147198597715
30
0
0
SPLINE
5
240
100
AcDbEntity
8
0
100
AcDbSpline
70
4
71
3
72
8
73
4
74
0
42
0.000000001
43
0.0000000001
44
0.0000000001
40
-1
40
-1
40
-1
40
-1
40
-0.058188652818161907
40
-0.058188652818161907
40
-0.058188652818161907
40
-0.058188652818161907
41
1
41
1
41
1
41
1
10
37.65379814056724
20
-2.4560147198597715
30
0
10
38.859495825366281
20
-1.7490374410457852
30
0
10
40.318109184164953
20
-1.2640065700273899
30
0
10
42.005332211692512
20
-1.0009221068045717
30
0
0
LINE
5
241
100
AcDbEntity
8
0
100
AcDbLine
10
42.005332211692512
20
-1.0009221068045715
30
0
11
42.005332211692512
21
-5.5770267240253908
31
0
0
SPLINE
5
242
100
AcDbEntity
8
0
100
AcDbSpline
70
0
71
3
72
11
73
7
74
0
42
0.000000001
43
0.0000000001
44
0.0000000001
40
0.24286400452838228
40
0.24286400452838228
40
0.24286400452838228
40
0.24286400452838228
40
1
40
1
40
1
40
1.0013207133809077
40
1.0013207133809077
40
1.0013207133809077
40
1.0013207133809077
10
42.005332211692519
20
-5.5770267240253908
30
0
10
41.109349702449698
20
-5.7743392883000002
30
0
10
40.423853284431459
20
-6.0483058754449059
30
0
10
39.929988707202916
20
-6.3378901048198255
30
0
10
39.928297942836551
20
-6.3388815075619185
30
0
10
39.926607178470192
20
-6.3398729103040115
30
0
10
39.924916414103592
20
-6.3408643130462465
30
0
0
SPLINE
5
243
100
AcDbEntity
8
0
100
AcDbSpline
70
0
71
3
72
14
73
10
74
0
42
0.000000001
43
0.0000000001
44
0.0000000001
40
-0.0016628845600346772
40
-0.0016628845600346772
40
-0.0016628845600346772
40
-0.0016628845600346772
40
0
40
0
40
0
40
0.7893033156607332
40
0.7893033156607332
40
0.7893033156607332
40
1
40
1
40
1
40
1
10
39.924916414149905
20
-6.3408643131294991
30
0
10
39.923223043700979
20
-6.3418513061911579
30
0
10
39.921529673250177
20
-6.3428382992539145
30
0
10
39.919836302799368
20
-6.3438252923166694
30
0
10
38.361505907454486
20
-7.2521092941748311
30
0
10
36.704832047953047
20
-7.6682167243868626
30
0
10
34.995862535944454
20
-7.7237308877293289
30
0
10
34.539670090438662
20
-7.7385498425190145
30
0
10
34.079009865074234
20
-7.7249242657302384
30
0
10
33.614355236342668
20
-7.6795393950169233
30
0
0
SPLINE
5
244
100
AcDbEntity
8
0
100
AcDbSpline
70
0
71
3
72
14
73
10
74
0
42
0.000000001
43
0.0000000001
44
0.0000000001
40
0.00043900631172120975
40
0.00043900631172120975
40
0.00043900631172120975
40
0.00043900631172120975
40
0.63041581219980813
40
0.63041581219980813
40
0.63041581219980813
40
1
40
1
40
1
40
1.0013223761945891
40
1.0013223761945891
40
1.0013223761945891
40
1.0013223761945891
10
33.6143550582496
20
-7.679541231142939
30
0
10
31.008749388448329
20
-7.4268695230274631
30
0
10
28.715930663586327
20
-6.2217259029691938
30
0
10
27.002389251405145
20
-4.4425282237873862
30
0
10
25.997117620507233
20
-3.3987384793865294
30
0
10
25.183365309600543
20
-2.1388082681104974
30
0
10
24.666946622247018
20
-0.70131445928314107
30
0
10
24.66591549645905
20
-0.69844423600768812
30
0
10
24.664884370671885
20
-0.69557401273443809
30
0
10
24.663853244883839
20
-0.69270378945877087
30
0
0
SPLINE
5
245
100
AcDbEntity
8
0
100
AcDbSpline
70
0
71
3
72
14
73
10
74
0
42
0.000000001
43
0.0000000001
44
0.0000000001
40
0
40
0
40
0
40
0
40
0.66010424556682157
40
0.66010424556682157
40
0.66010424556682157
40
1
40
1
40
1
40
1.0000708309767319
40
1.0000708309767319
40
1.0000708309767319
40
1.0000708309767319
10
24.663861998558328
20
-0.69270064471052906
30
0
10
23.791971889131833
20
1.749873853021048
30
0
10
23.831519123456786
20
4.4630349754285641
30
0
10
24.775169745132754
20
6.8410049450281605
30
0
10
25.261066998680146
20
8.0654507840977985
30
0
10
25.974432878725739
20
9.1995774263023939
30
0
10
26.866414011215994
20
10.190667573513789
30
0
10
26.866529006299899
20
10.190795345829242
30
0
10
26.866644001382404
20
10.190923118143139
30
0
10
26.866758996457328
20
10.191050890448611
30
0
0
SPLINE
5
246
100
AcDbEntity
8
0
100
AcDbSpline
70
0
71
3
72
14
73
10
74
0
42
0.000000001
43
0.0000000001
44
0.0000000001
40
-9.1091589284344261e-05
40
-9.1091589284344261e-05
40
-9.1091589284344261e-05
40
-9.1091589284344261e-05
40
0
40
0
40
0
40
0.81349939287697626
40
0.81349939287697626
40
0.81349939287697626
40
0.97844997102210263
40
0.97844997102210263
40
0.97844997102210263
40
0.97844997102210263
10
26.866758996457897
20
10.191050890449242
30
0
10
26.866874020827058
20
10.191178636407622
30
0
10
26.86698904519103
20
10.191306382360231
30
0
10
26.867104069554976
20
10.191434128312819
30
0
10
27.246748437341651
20
10.613066813274056
30
0
10
27.839272589729532
20
11.6247390695035
30
0
10
28.270717120787904
20
13.203363907795261
30
0
10
28.358199699704087
20
13.523456438939728
30
0
10
28.440162427743999
20
13.865469098721245
30
0
10
28.515123186391683
20
14.227995718260555
30
0
0
LINE
5
247
100
AcDbEntity
8
0
100
AcDbLine
10
28.515123186391683
20
14.227995718260559
30
0
11
33.091815371032112
21
14.227995718264687
31
0
0
SPLINE
5
248
100
AcDbEntity
8
0
100
AcDbSpline
70
0
71
3
72
8
73
4
74
0
42
0.000000001
43
0.0000000001
44
0.0000000001
40
-0.35574504667100759
40
-0.35574504667100759
40
-0.35574504667100759
40
-0.35574504667100759
40
0
40
0
40
0
40
0
10
86.435031179776189
20
19.919987295291893
30
0
10
86.430112502231424
20
21.787297606518862
30
0
10
86.42789452886008
20
24.150624980511385
30
0
10
86.42789452886008
20
27.023274840184609
30
0
0
SPLINE
5
249
100
AcDbEntity
8
0
100
AcDbSpline
70
0
71
3
72
20
73
16
74
0
42
0.000000001
43
0.0000000001
44
0.0000000001
40
-1
40
-1
40
-1
40
-1
40
-0.62294669441460893
40
-0.62294669441460893
40
-0.62294669441460893
40
-0.30885747662311891
40
-0.30885747662311891
40
-0.30885747662311891
40
-0.14392192403850884
40
-0.14392192403850884
40
-0.14392192403850884
40
0
40
0
40
0
40
0.00093132893585467016
40
0.00093132893585467016
40
0.00093132893585467016
40
0.00093132893585467016
10
86.42789452886008
20
27.023274840184609
30
0
10
86.42789452886008
20
32.003708307455206
30
0
10
86.4315341274785
20
34.979143319953721
30
0
10
86.413568226143525
20
36.886902531865978
30
0
10
86.398602448589955
20
38.476085254117244
30
0
10
86.389364045410161
20
39.29997419221538
30
0
10
86.273403046988463
20
40.23941910147478
30
0
10
86.21250922997865
20
40.732743470649275
30
0
10
86.08792524821915
20
41.303347129515579
30
0
10
85.967941953815497
20
41.69722506123226
30
0
10
85.863245141560952
20
42.04092094050543
30
0
10
85.804235022217028
20
42.189627325728416
30
0
10
85.77767798614363
20
42.269298433948627
30
0
10
85.777304044342998
20
42.270420259350516
30
0
10
85.776930102542394
20
42.271542084752326
30
0
10
85.776556160742985
20
42.272663910150492
30
0
0
SPLINE
5
250
100
AcDbEntity
8
0
100
AcDbSpline
70
0
71
3
72
14
73
10
74
0
42
0.000000001
43
0.0000000001
44
0.0000000001
40
-1.0004301310720398
40
-1.0004301310720398
40
-1.0004301310720398
40
-1.0004301310720398
40
-1
40
-1
40
-1
40
-0.63303964991969852
40
-0.63303964991969852
40
-0.63303964991969852
40
-0.00088072587198908083
40
-0.00088072587198908083
40
-0.00088072587198908083
40
-0.00088072587198908083
10
85.776556160728532
20
42.272663910187106
30
0
10
85.776180717833768
20
42.273785232966141
30
0
10
85.775805274926967
20
42.274906555781129
30
0
10
85.775429832019796
20
42.276027878597219
30
0
10
85.248397041730215
20
43.850099145595436
30
0
10
84.428824324800459
20
45.315444038021511
30
0
10
83.362441802303238
20
46.5679777059459
30
0
10
81.525395298784233
20
48.725704925454345
30
0
10
78.972102722387433
20
50.206705820686096
30
0
10
76.195279431312429
20
50.851638291296545
30
0
0
SPLINE
5
251
100
AcDbEntity
8
0
100
AcDbSpline
70
0
71
3
72
17
73
13
74
0
42
0.000000001
43
0.0000000001
44
0.0000000001
40
-0.9948715330803316
40
-0.9948715330803316
40
-0.9948715330803316
40
-0.9948715330803316
40
-0.90565150338892131
40
-0.90565150338892131
40
-0.90565150338892131
40
-0.75
40
-0.75
40
-0.75
40
-0.5
40
-0.5
40
-0.5
40
0
40
0
40
0
40
0
10
76.195279431317701
20
50.851638291318295
30
0
10
76.129219328295804
20
50.867188688457091
30
0
10
75.998502222038823
20
50.897963821747005
30
0
10
75.830097799119301
20
50.929826568895386
30
0
10
75.536302765701038
20
50.9854136888829
30
0
10
75.192173930023088
20
51.026532838980103
30
0
10
74.902695536327911
20
51.047649803869717
30
0
10
74.437749185999593
20
51.081566862860235
30
0
10
74.008006551067751
20
51.090228086163748
30
0
10
73.295612899480318
20
51.099440073037727
30
0
10
71.870825596305465
20
51.11786404678567
30
0
10
69.338913834598927
20
51.121696678455592
30
0
10
64.290919167907845
20
51.130425199493096
30
0
0
LINE
5
252
100
AcDbEntity
8
0
100
AcDbLine
10
64.290919167907845
20
51.130425199493096
30
0
11
41.306714689742449
21
51.182961345012075
31
0
0
LINE
5
253
100
AcDbEntity
8
0
100
AcDbLine
10
41.306714689742449
20
51.182961345012075
30
0
11
40.089988122324954
21
51.113546735224269
31
0
0
SPLINE
5
254
100
AcDbEntity
8
0
100
AcDbSpline
70
0
71
3
72
11
73
7
74
0
42
0.000000001
43
0.0000000001
44
0.0000000001
40
-0.52901519772130434
40
-0.52901519772130434
40
-0.52901519772130434
40
-0.52901519772130434
40
-0.4386513158198197
40
-0.4386513158198197
40
-0.4386513158198197
40
0
40
0
40
0
40
0
10
40.089988122324954
20
51.113546735224269
30
0
10
39.922601169952173
20
51.10575736967629
30
0
10
39.75793619443516
20
51.095862747927406
30
0
10
39.59199510678998
20
51.083242118787609
30
0
10
38.786471097501732
20
51.021978088711066
30
0
10
37.929738266822383
20
50.84752478264997
30
0
10
37.372361501575419
20
50.697067250926864
30
0
0
SPLINE
5
255
100
AcDbEntity
8
0
100
AcDbSpline
70
0
71
3
72
11
73
7
74
0
42
0.000000001
43
0.0000000001
44
0.0000000001
40
-0.99901145436155758
40
-0.99901145436155758
40
-0.99901145436155758
40
-0.99901145436155758
40
-0.66074732083962739
40
-0.66074732083962739
40
-0.66074732083962739
40
-0.0013427551662555162
40
-0.0013427551662555162
40
-0.0013427551662555162
40
-0.0013427551662555162
10
37.37236030720554
20
50.697071692839167
30
0
10
36.339520984724423
20
50.419376929466331
30
0
10
35.381871241915647
20
50.016229105023626
30
0
10
34.48970447644885
20
49.518202728765445
30
0
10
32.750534460504198
20
48.547361206458078
30
0
10
31.233826442721231
20
47.234761453012212
30
0
10
30.062246405786066
20
45.481660214668779
30
0
0
SPLINE
5
256
100
AcDbEntity
8
0
100
AcDbSpline
70
0
71
3
72
11
73
7
74
0
42
0.000000001
43
0.0000000001
44
0.0000000001
40
-0.99748361780327433
40
-0.99748361780327433
40
-0.99748361780327433
40
-0.99748361780327433
40
-0.56561430155756165
40
-0.56561430155756165
40
-0.56561430155756165
40
-0.0014918531955340037
40
-0.0014918531955340037
40
-0.0014918531955340037
40
-0.0014918531955340037
10
30.062246405787967
20
45.481660214667514
30
0
10
29.710085939822733
20
44.957922862057345
30
0
10
29.363577562968842
20
44.385605110967781
30
0
10
29.063179738016998
20
43.760162879216786
30
0
10
28.670789841074082
20
42.943188878490034
30
0
10
28.395244111758821
20
42.102386038769566
30
0
10
28.1852983713027
20
41.310648153379162
30
0
0
LINE
5
257
100
AcDbEntity
8
0
100
AcDbLine
10
28.185298371302693
20
41.310648153379162
30
0
11
27.851463739491713
21
40.061859345489701
31
0
0
LINE
5
258
100
AcDbEntity
8
0
100
AcDbLine
10
27.851463739491713
20
40.061859345489701
30
0
11
27.792877562910718
21
14.694044885920846
31
0
0
LINE
5
259
100
AcDbEntity
8
0
100
AcDbLine
10
27.792877562910718
20
14.694044885920846
30
0
11
27.760115987933549
21
14.530237011036808
31
0
0
SPLINE
5
260
100
AcDbEntity
8
0
100
AcDbSpline
70
0
71
3
72
17
73
13
74
0
42
0.000000001
43
0.0000000001
44
0.0000000001
40
-1.0003840282895227
40
-1.0003840282895227
40
-1.0003840282895227
40
-1.0003840282895227
40
-1
40
-1
40
-1
40
-0.73739221583801529
40
-0.73739221583801529
40
-0.73739221583801529
40
0
40
0
40
0
40
0.00010728565725972379
40
0.00010728565725972379
40
0.00010728565725972379
40
0.00010728565725972379
10
27.760115987933546
20
14.530237011036808
30
0
10
27.759905928157316
20
14.529180008120255
30
0
10
27.75969586838081
20
14.528123005202323
30
0
10
27.75948580860431
20
14.527066002284386
30
0
10
27.647943923923396
20
13.965796731496399
30
0
10
27.51956820714749
20
13.457945590474651
30
0
10
27.381663850647545
20
13.009652508616211
30
0
10
26.994433901094776
20
11.750863360262013
30
0
10
26.512361980369693
20
10.99303114272287
30
0
10
26.272591429593305
20
10.726742190017298
30
0
10
26.272455956443913
20
10.72659173366244
30
0
10
26.272320483294514
20
10.726441277307575
30
0
10
26.272185010139705
20
10.726290820946705
30
0
0
SPLINE
5
261
100
AcDbEntity
8
0
100
AcDbSpline
70
0
71
3
72
17
73
13
74
0
42
0.000000001
43
0.0000000001
44
0.0000000001
40
-1.0000834231441804
40
-1.0000834231441804
40
-1.0000834231441804
40
-1.0000834231441804
40
-1
40
-1
40
-1
40
-0.63364598451122167
40
-0.63364598451122167
40
-0.63364598451122167
40
0
40
0
40
0
40
0.00076292425871006422
40
0.00076292425871006422
40
0.00076292425871006422
40
0.00076292425871006422
10
26.272185010163138
20
10.726290820972729
30
0
10
26.272049571504947
20
10.726140333574739
30
0
10
26.271914132862449
20
10.72598984619419
30
0
10
26.271778694218256
20
10.725839358811751
30
0
10
25.245184316795619
20
9.5851789394532645
30
0
10
24.435904673374441
20
8.2609157766007737
30
0
10
23.914073073078814
20
6.8271125399765653
30
0
10
23.011513024222143
20
4.3472061514687219
30
0
10
23.013839478377839
20
1.5501099513719454
30
0
10
23.910423739239395
20
-0.96164448530639679
30
0
10
23.911027510116057
20
-0.96333593165940257
30
0
10
23.911631280992474
20
-0.96502737801170846
30
0
10
23.912235051870915
20
-0.9667188243696947
30
0
0
SPLINE
5
262
100
AcDbEntity
8
0
100
AcDbSpline
70
0
71
3
72
14
73
10
74
0
42
0.000000001
43
0.0000000001
44
0.0000000001
40
-1.0007787468504052
40
-1.0007787468504052
40
-1.0007787468504052
40
-1.0007787468504052
40
-1
40
-1
40
-1
40
-0.59838372289043507
40
-0.59838372289043507
40
-0.59838372289043507
40
-0.00047908904722118864
40
-0.00047908904722118864
40
-0.00047908904722118864
40
-0.00047908904722118864
10
23.912235051693258
20
-0.96671882443261059
30
0
10
23.912842281284973
20
-0.96840909784836304
30
0
10
23.913449510878912
20
-0.970099371270293
30
0
10
23.914056740472979
20
-0.97178964469258167
30
0
10
24.519325455961987
20
-2.6566048004940734
30
0
10
25.499254723380801
20
-4.1093041636065433
30
0
10
26.711564652867906
20
-5.2837034904025799
30
0
10
28.516386234580672
20
-7.0320858132687922
30
0
10
30.867717910241485
20
-8.2168160250931326
30
0
10
33.536585598011698
20
-8.4757523718168031
30
0
0
SPLINE
5
263
100
AcDbEntity
8
0
100
AcDbSpline
70
0
71
3
72
14
73
10
74
0
42
0.000000001
43
0.0000000001
44
0.0000000001
40
-1
40
-1
40
-1
40
-1
40
-0.75766650478115805
40
-0.75766650478115805
40
-0.75766650478115805
40
0
40
0
40
0
40
0.0019585314411408612
40
0.0019585314411408612
40
0.0019585314411408612
40
0.0019585314411408612
10
33.536585792463768
20
-8.4757503680628652
30
0
10
34.112119527808716
20
-8.5319652910500459
30
0
10
34.680556503280208
20
-8.5429328374810716
30
0
10
35.242123003456456
20
-8.5140698287125982
30
0
10
36.997885767520451
20
-8.4238283416605189
30
0
10
38.698051366973459
20
-7.9819224094293029
30
0
10
40.322687531641499
20
-7.0349916163085027
30
0
10
40.324681969107417
20
-7.0338291441855061
30
0
10
40.326676406573782
20
-7.0326666720622573
30
0
10
40.328670844040929
20
-7.0315041999385457
30
0
0
SPLINE
5
264
100
AcDbEntity
8
0
100
AcDbSpline
70
0
71
3
72
11
73
7
74
0
42
0.000000001
43
0.0000000001
44
0.0000000001
40
-1.0015554886356357
40
-1.0015554886356357
40
-1.0015554886356357
40
-1.0015554886356357
40
-1
40
-1
40
-1
40
-0.011768617376813431
40
-0.011768617376813431
40
-0.011768617376813431
40
-0.011768617376813431
10
40.328670843877447
20
-7.0315041996584204
30
0
10
40.330662165230876
20
-7.0303365612284496
30
0
10
40.332653486584505
20
-7.029168922798366
30
0
10
40.33464480793814
20
-7.0280012843682806
30
0
10
40.868933463666465
20
-6.7147138453275792
30
0
10
41.738203654846032
20
-6.3892422819015371
30
0
10
42.996871621721134
20
-6.2116683293001005
30
0
0
SPLINE
5
265
100
AcDbEntity
8
0
100
AcDbSpline
70
0
71
3
72
14
73
10
74
0
42
0.000000001
43
0.0000000001
44
0.0000000001
40
-0.87288062962648694
40
-0.87288062962648694
40
-0.87288062962648694
40
-0.87288062962648694
40
-0.57731012092648692
40
-0.57731012092648692
40
-0.57731012092648692
40
0
40
0
40
0
40
2.0648076486917897e-05
40
2.0648076486917897e-05
40
2.0648076486917897e-05
40
2.0648076486917897e-05
10
42.996871621721155
20
-6.2116683293002639
30
0
10
43.07948844808049
20
-6.2058165253580917
30
0
10
43.471280886652544
20
-6.188728954476951
30
0
10
44.319561997003554
20
-6.1779861375435114
30
0
10
45.976429837270594
20
-6.1570032019650869
30
0
10
49.349412344966758
20
-6.148389979677308
30
0
10
56.288262004272809
20
-6.1383142057286548
30
0
10
56.288510238546777
20
-6.1383138452723029
30
0
10
56.28875847282076
20
-6.1383134848159511
30
0
10
56.289006707092767
20
-6.1383131243596019
30
0
0
SPLINE
5
266
100
AcDbEntity
8
0
100
AcDbSpline
70
0
71
3
72
20
73
16
74
0
42
0.000000001
43
0.0000000001
44
0.0000000001
40
-1.0000184830612084
40
-1.0000184830612084
40
-1.0000184830612084
40
-1.0000184830612084
40
-1
40
-1
40
-1
40
-0.76882832685198466
40
-0.76882832685198466
40
-0.76882832685198466
40
-0.26851162475695939
40
-0.26851162475695939
40
-0.26851162475695939
40
0
40
0
40
0
40
0.00062566036743011205
40
0.00062566036743011205
40
0.00062566036743011205
40
0.00062566036743011205
10
56.289006707094501
20
-6.1383131243595965
30
0
10
56.289254941248089
20
-6.1383126941444246
30
0
10
56.289503175401421
20
-6.1383122639292544
30
0
10
56.289751409554761
20
-6.1383118337140843
30
0
10
59.393618719583557
20
-6.1329325142859581
30
0
10
61.851276326425079
20
-6.1294247657989587
30
0
10
63.807565981822883
20
-6.1296439534618834
30
0
10
68.041494712807832
20
-6.1301183335931544
30
0
10
69.964320789605225
20
-6.1538400734826002
30
0
10
70.81670442897385
20
-6.1960247524345142
30
0
10
71.274164503691978
20
-6.2186645656524187
30
0
10
71.36137883760307
20
-6.2319614622630244
30
0
10
71.571389375718113
20
-6.2639810061908801
30
0
10
71.572201262247859
20
-6.2641047915810653
30
0
10
71.573013148777605
20
-6.2642285769712513
30
0
10
71.573825035306101
20
-6.2643523623612456
30
0
0
SPLINE
5
267
100
AcDbEntity
8
0
100
AcDbSpline
70
0
71
3
72
14
73
10
74
0
42
0.000000001
43
0.0000000001
44
0.0000000001
40
-1.0005285678747979
40
-1.0005285678747979
40
-1.0005285678747979
40
-1.0005285678747979
40
-1
40
-1
40
-1
40
0
40
0
40
0
40
0.002014020056351689
40
0.002014020056351689
40
0.002014020056351689
40
0.002014020056351689
10
71.573825035309042
20
-6.2643523623611896
30
0
10
71.574637036222541
20
-6.2644753928026295
30
0
10
71.575449037137389
20
-6.2645984232442729
30
0
10
71.576261038052252
20
-6.264721453685917
30
0
10
72.513912604486109
20
-6.4067898728425625
30
0
10
73.387219094349007
20
-6.7314925993281216
30
0
10
73.860103826469242
20
-7.0057657439578573
30
0
10
73.862447761740498
20
-7.0071252264151864
30
0
10
73.864791697011754
20
-7.0084847088725155
30
0
10
73.867135632283322
20
-7.0098441913300258
30
0
0
SPLINE
5
268
100
AcDbEntity
8
0
100
AcDbSpline
70
0
71
3
72
17
73
13
74
0
42
0.000000001
43
0.0000000001
44
0.0000000001
40
-1.0006659473912058
40
-1.0006659473912058
40
-1.0006659473912058
40
-1.0006659473912058
40
-1
40
-1
40
-1
40
-0.78386329489043582
40
-0.78386329489043582
40
-0.78386329489043582
40
-0.37251866104449505
40
-0.37251866104449505
40
-0.37251866104449505
40
-0.00046419829493349313
40
-0.00046419829493349313
40
-0.00046419829493349313
40
-0.00046419829493349313
10
73.867135631579217
20
-7.0098441925401129
30
0
10
73.869483989958084
20
-7.0111966299563209
30
0
10
73.871832348332148
20
-7.0125490673697684
30
0
10
73.874180706706369
20
-7.013901504783302
30
0
10
75.27790916373155
20
-7.8223193785486238
30
0
10
76.812428027499649
20
-8.3067819438955919
30
0
10
78.337351256036087
20
-8.4690924386937443
30
0
10
81.239537568016345
20
-8.7779967084162553
30
0
10
84.082303132288914
20
-7.9571351898747018
30
0
10
86.356601298971029
20
-6.2807809822082872
30
0
10
88.41366662306649
20
-4.7645461445736119
30
0
10
90.02070589547921
20
-2.4926724010711903
30
0
10
90.703496997290245
20
0.1971936190430662
30
0
0
SPLINE
5
269
100
AcDbEntity
8
0
100
AcDbSpline
70
0
71
3
72
14
73
10
74
0
42
0.000000001
43
0.0000000001
44
0.0000000001
40
-0.99557074699467807
40
-0.99557074699467807
40
-0.99557074699467807
40
-0.99557074699467807
40
-0.54217126774880087
40
-0.54217126774880087
40
-0.54217126774880087
40
0
40
0
40
0
40
0.008155944969077851
40
0.008155944969077851
40
0.008155944969077851
40
0.008155944969077851
10
90.703496997289804
20
0.19719361904318083
30
0
10
90.794458147581864
20
0.55235141719450831
30
0
10
90.893990054244881
20
1.061156558603658
30
0
10
90.938525273814122
20
1.5182490252116776
30
0
10
90.99178011321861
20
2.0648363360561679
30
0
10
90.990026983474138
20
2.4724349259110614
30
0
10
90.990026983474138
20
2.932422337503251
30
0
10
90.990026983474138
20
2.9386870341408464
30
0
10
90.990026983474138
20
2.9449517307784419
30
0
10
90.990026983474138
20
2.9512164274160368
30
0
0
SPLINE
5
270
100
AcDbEntity
8
0
100
AcDbSpline
70
0
71
3
72
20
73
16
74
0
42
0.000000001
43
0.0000000001
44
0.0000000001
40
-1.0076351607170773
40
-1.0076351607170773
40
-1.0076351607170773
40
-1.0076351607170773
40
-1
40
-1
40
-1
40
-0.80953690621496177
40
-0.80953690621496177
40
-0.80953690621496177
40
-0.39684758086394206
40
-0.39684758086394206
40
-0.39684758086394206
40
0
40
0
40
0
40
0.013642084248623232
40
0.013642084248623232
40
0.013642084248623232
40
0.013642084248623232
10
90.990026983474138
20
2.9512164274158241
30
0
10
90.98998255411891
20
2.9574809665040829
30
0
10
90.989938124763668
20
2.9637455055921063
30
0
10
90.989893695408441
20
2.9700100446801327
30
0
10
90.988691281422859
20
3.1395504166464541
30
0
10
90.987052062611312
20
3.2972297423369263
30
0
10
90.983314857674728
20
3.4599705731132815
30
0
10
90.975217201833217
20
3.8125921877551106
30
0
10
90.955362731810254
20
4.2318823942003183
30
0
10
90.889528477303287
20
4.6883184553194148
30
0
10
90.826221376697177
20
5.1272334830345407
30
0
10
90.733021915599195
20
5.5087382604175064
30
0
10
90.660664927628787
20
5.7855823883043387
30
0
10
90.65883909740954
20
5.7925681734909942
30
0
10
90.657013267190294
20
5.799553958677647
30
0
10
90.655187436971914
20
5.8065397438609709
30
0
0
SPLINE
5
271
100
AcDbEntity
8
0
100
AcDbSpline
70
0
71
3
72
17
73
13
74
0
42
0.000000001
43
0.0000000001
44
0.0000000001
40
-1.0068844637650682
40
-1.0068844637650682
40
-1.0068844637650682
40
-1.0068844637650682
40
-1
40
-1
40
-1
40
-0.6148299847961084
40
-0.6148299847961084
40
-0.6148299847961084
40
0
40
0
40
0
40
0.0017132155911916778
40
0.0017132155911916778
40
0.0017132155911916778
40
0.0017132155911916778
10
90.655187436835391
20
5.806539743830804
30
0
10
90.653304569142222
20
5.8135103603969966
30
0
10
90.651421701448314
20
5.8204809769658716
30
0
10
90.649538833754448
20
5.8274515935346667
30
0
10
90.476856665686526
20
6.4667430242542121
30
0
10
90.241645585305349
20
7.1395071112149475
30
0
10
89.931340158997386
20
7.7934854721648819
30
0
10
89.436013230606846
20
8.8374024175350598
30
0
10
88.771142441893502
20
9.7739257726601689
30
0
10
88.077566913503631
20
10.579697342407247
30
0
10
88.076211091260348
20
10.581272488836937
30
0
10
88.074855269017746
20
10.582847635265844
30
0
10
88.073499446776808
20
10.584422781692787
30
0
0
SPLINE
5
272
100
AcDbEntity
8
0
100
AcDbSpline
70
0
71
3
72
14
73
10
74
0
42
0.000000001
43
0.0000000001
44
0.0000000001
40
-1.0024349348039057
40
-1.0024349348039057
40
-1.0024349348039057
40
-1.0024349348039057
40
-1
40
-1
40
-1
40
-0.89894940500720311
40
-0.89894940500720311
40
-0.89894940500720311
40
-0.0086533425419746679
40
-0.0086533425419746679
40
-0.0086533425419746679
40
-0.0086533425419746679
10
88.073499449631214
20
10.584422784154324
30
0
10
88.072139225743513
20
10.585995543024495
30
0
10
88.07077900185449
20
10.587568301896169
30
0
10
88.069418777965481
20
10.58914106076784
30
0
10
88.040265109242824
20
10.622849990228403
30
0
10
88.013538966538235
20
10.654553251721
30
0
10
87.988720160973003
20
10.684717961356437
30
0
10
87.770056580898128
20
10.95048108937911
30
0
10
87.669784196015996
20
11.097107968693621
30
0
10
87.422653221251124
20
11.586087779209873
30
0
0
SPLINE
5
273
100
AcDbEntity
8
0
100
AcDbSpline
70
0
71
3
72
11
73
7
74
0
42
0.000000001
43
0.0000000001
44
0.0000000001
40
-0.99491117726865375
40
-0.99491117726865375
40
-0.99491117726865375
40
-0.99491117726865375
40
-0.85735785252079399
40
-0.85735785252079399
40
-0.85735785252079399
40
-0.025015199616186614
40
-0.025015199616186614
40
-0.025015199616186614
40
-0.025015199616186614
10
87.422653221255871
20
11.586087779212267
30
0
10
87.363465388591109
20
11.706014625616547
30
0
10
87.302719295646995
20
11.837980414226866
30
0
10
87.242560707902925
20
11.978862732750223
30
0
10
86.878537819981645
20
12.831349308134925
30
0
10
86.567521344697965
20
14.016534499702779
30
0
10
86.475297754561083
20
14.879630108858226
30
0
0
SPLINE
5
274
100
AcDbEntity
8
0
100
AcDbSpline
70
0
71
3
72
17
73
13
74
0
42
0.000000001
43
0.0000000001
44
0.0000000001
40
-0.89696723254061628
40
-0.89696723254061628
40
-0.89696723254061628
40
-0.89696723254061628
40
-0.89310501827807165
40
-0.89310501827807165
40
-0.89310501827807165
40
-0.71237831905286375
40
-0.71237831905286375
40
-0.71237831905286375
40
-0.47037143594032105
40
-0.47037143594032105
40
-0.47037143594032105
40
-0.3557450466711089
40
-0.3557450466711089
40
-0.3557450466711089
40
-0.3557450466711089
10
86.475297754560984
20
14.879630108858205
30
0
10
86.475201348877448
20
14.882433595316702
30
0
10
86.47510366313368
20
14.885315235831499
30
0
10
86.475003934778442
20
14.888300681892595
30
0
10
86.470337291439563
20
15.028000288299591
30
0
10
86.463642483813942
20
15.350826704860719
30
0
10
86.458293999511369
20
15.794233122296127
30
0
10
86.451131969656373
20
16.38798825363908
30
0
10
86.445207279218224
20
17.215223156543725
30
0
10
86.440643125280602
20
18.269009227025389
30
0
10
86.438481316991471
20
18.768134255073999
30
0
10
86.436616051448212
20
19.318311908312861
30
0
10
86.435031179776189
20
19.919987295290298
30
0
0
SPLINE
5
275
100
AcDbEntity
8
0
100
AcDbSpline
70
0
71
3
72
11
73
7
74
0
42
0.000000001
43
0.0000000001
44
0.0000000001
40
-0.52527519335418438
40
-0.52527519335418438
40
-0.52527519335418438
40
-0.52527519335418438
40
-0.4386513158198197
40
-0.4386513158198197
40
-0.4386513158198197
40
0
40
0
40
0
40
0
10
39.845747789865875
20
55.802920493362549
30
0
10
39.645187608703701
20
55.793364860861594
30
0
10
39.442100349365738
20
55.781075363797228
30
0
10
39.235894737784285
20
55.765392421210535
30
0
10
38.009286071339702
20
55.672102848998257
30
0
10
36.993126323072914
20
55.45844098288115
30
0
10
36.148619291045428
20
55.230475894481089
30
0
0
SPLINE
5
276
100
AcDbEntity
8
0
100
AcDbSpline
70
0
71
3
72
11
73
7
74
0
42
0.000000001
43
0.0000000001
44
0.0000000001
40
-0.99865377939764155
40
-0.99865377939764155
40
-0.99865377939764155
40
-0.99865377939764155
40
-0.66074732083962739
40
-0.66074732083962739
40
-0.66074732083962739
40
-0.0018595964512962057
40
-0.0018595964512962057
40
-0.0018595964512962057
40
-0.0018595964512962057
10
36.148617641252159
20
55.2304819715403
30
0
10
34.719894274970521
20
54.845917236432044
30
0
10
33.398848598533696
20
54.287009947868782
30
0
10
32.200937464870044
20
53.618310592467765
30
0
10
29.905241889320475
20
52.336804720765954
30
0
10
27.771649687959446
20
50.503062152786427
30
0
10
26.161925557722125
20
48.096401117926355
30
0
0
SPLINE
5
277
100
AcDbEntity
8
0
100
AcDbSpline
70
0
71
3
72
11
73
7
74
0
42
0.000000001
43
0.0000000001
44
0.0000000001
40
-0.99629816009865335
40
-0.99629816009865335
40
-0.99629816009865335
40
-0.99629816009865335
40
-0.56561430155756165
40
-0.56561430155756165
40
-0.56561430155756165
40
-0.0014918531955340037
40
-0.0014918531955340037
40
-0.0014918531955340037
40
-0.0014918531955340037
10
26.161925557731234
20
48.096401117920209
30
0
10
25.722817610252608
20
47.442963674767505
30
0
10
25.255758667590712
20
46.678736504167858
30
0
10
24.830412850305112
20
45.79314674574767
30
0
10
24.265090199955004
20
44.616118715830872
30
0
10
23.906229958041369
20
43.493728082682324
30
0
10
23.646489738556337
20
42.514207509037263
30
0
0
LINE
5
278
100
AcDbEntity
8
0
100
AcDbLine
10
23.646480545182538
20
42.514209966671856
30
0
11
23.157224856045801
21
40.6839944300106
31
0
0
LINE
5
279
100
AcDbEntity
8
0
100
AcDbLine
10
23.157224856045801
20
40.6839944300106
30
0
11
23.098308142743814
21
15.177040764041418
31
0
0
SPLINE
5
280
100
AcDbEntity
8
0
100
AcDbSpline
70
0
71
3
72
11
73
7
74
0
42
0.000000001
43
0.0000000001
44
0.0000000001
40
-0.94240709743062112
40
-0.94240709743062112
40
-0.94240709743062112
40
-0.94240709743062112
40
-0.73739221583801529
40
-0.73739221583801529
40
-0.73739221583801529
40
-0.37406137657214866
40
-0.37406137657214866
40
-0.37406137657214866
40
-0.37406137657214866
10
23.098308142743804
20
15.17704076404142
30
0
10
23.031220427703211
20
14.872905808893069
30
0
10
22.960427836030721
20
14.607698112702323
30
0
10
22.893548801650326
20
14.390290851648066
30
0
10
22.784687998303156
20
14.036411204444102
30
0
10
22.672566167359946
20
13.790873219558556
30
0
10
22.613977075529451
20
13.678142343588624
30
0
0
SPLINE
5
281
100
AcDbEntity
8
0
100
AcDbSpline
70
0
71
3
72
29
73
25
74
0
42
0.000000001
43
0.0000000001
44
0.0000000001
40
-0.98541764324890657
40
-0.98541764324890657
40
-0.98541764324890657
40
-0.98541764324890657
40
-0.63364598451122167
40
-0.63364598451122167
40
-0.63364598451122167
40
-0.31644153012625581
40
-0.31644153012625581
40
-0.31644153012625581
40
-0.15053740945882083
40
-0.15053740945882083
40
-0.15053740945882083
40
-0.054916573467938753
40
-0.054916573467938753
40
-0.054916573467938753
40
-0.0097360511801208721
40
-0.0097360511801208721
40
-0.0097360511801208721
40
-0.00075823695604720909
40
-0.00075823695604720909
40
-0.00075823695604720909
40
0.00076292425871006422
40
0.00076292425871006422
40
0.00076292425871006422
40
0.0014389030760918464
40
0.0014389030760918464
40
0.0014389030760918464
40
0.0014389030760918464
10
22.61397707552964
20
13.678142343588458
30
0
10
21.277932378243666
20
12.148841827658327
30
0
10
20.209843956759922
20
10.379166443774592
30
0
10
19.501554634882247
20
8.4330452782505958
30
0
10
18.855011296079038
20
6.6565795922540243
30
0
10
18.541369418854174
20
4.7960700236688609
30
0
10
18.541897498966669
20
2.938562468561674
30
0
10
18.542173695172284
20
1.9670497634179567
30
0
10
18.62873146917854
20
0.9957336446022107
30
0
10
18.80177930891178
20
0.035748563248804988
30
0
10
18.90151751333455
20
-0.51755038826907485
30
0
10
19.030030599360952
20
-1.0670801485694981
30
0
10
19.187634306823455
20
-1.6104983800758375
30
0
10
19.262101526691005
20
-1.867261660439961
30
0
10
19.34306566354682
20
-2.1226571563756851
30
0
10
19.430569223735453
20
-2.376416269218566
30
0
10
19.447957041926532
20
-2.4268407011951614
30
0
10
19.465603084003874
20
-2.4772004689107021
30
0
10
19.483507696940727
20
-2.52749338760181
30
0
10
19.486541375527185
20
-2.5360147977558221
30
0
10
19.488657206554667
20
-2.5419365225578932
30
0
10
19.489861038822674
20
-2.5453090232498936
30
0
10
19.490396001919855
20
-2.5468077066324311
30
0
10
19.490930965017039
20
-2.5483063900149929
30
0
10
19.49146592811412
20
-2.5498050733972617
30
0
0
SPLINE
5
282
100
AcDbEntity
8
0
100
AcDbSpline
70
0
71
3
72
17
73
13
74
0
42
0.000000001
43
0.0000000001
44
0.0000000001
40
-1.0014686505474946
40
-1.0014686505474946
40
-1.0014686505474946
40
-1.0014686505474946
40
-1.0007787468504052
40
-1.0007787468504052
40
-1.0007787468504052
40
-0.99226651144623546
40
-0.99226651144623546
40
-0.99226651144623546
40
-0.59838372289043507
40
-0.59838372289043507
40
-0.59838372289043507
40
-0.00063878606472076284
40
-0.00063878606472076284
40
-0.00063878606472076284
40
-0.00063878606472076284
10
19.491465928405454
20
-2.5498050732931379
30
0
10
19.492003882350314
20
-2.5513025122590789
30
0
10
19.492541836295278
20
-2.552799951225297
30
0
10
19.493079790240241
20
-2.5542973901915134
30
0
10
19.499717224824188
20
-2.5727732342201719
30
0
10
19.526517521753849
20
-2.6468372018064237
30
0
10
19.545183927719634
20
-2.697321382564446
30
0
10
20.408926021895731
20
-5.0333528655735114
30
0
10
21.783023930096324
20
-7.0469614855787146
30
0
10
23.444375484193124
20
-8.6563602863691038
30
0
10
25.951023838098301
20
-11.084622290777572
30
0
10
29.306087990334131
20
-12.782292896438758
30
0
10
33.08011074392229
20
-13.149185388844689
30
0
0
SPLINE
5
283
100
AcDbEntity
8
0
100
AcDbSpline
70
0
71
3
72
23
73
19
74
0
42
0.000000001
43
0.0000000001
44
0.0000000001
40
-1
40
-1
40
-1
40
-1
40
-0.75766650478115805
40
-0.75766650478115805
40
-0.75766650478115805
40
-0.37785398667000858
40
-0.37785398667000858
40
-0.37785398667000858
40
-0.16459787262646761
40
-0.16459787262646761
40
-0.16459787262646761
40
-0.049947231570005551
40
-0.049947231570005551
40
-0.049947231570005551
40
-0.0022400754209533982
40
-0.0022400754209533982
40
-0.0022400754209533982
40
-0.0005307506805655891
40
-0.0005307506805655891
40
-0.0005307506805655891
40
-0.0005307506805655891
10
33.080111007216956
20
-13.149182693208797
30
0
10
33.894557286391425
20
-13.228733260011882
30
0
10
34.698464373762263
20
-13.243882932548065
30
0
10
35.483149793830407
20
-13.203552210981142
30
0
10
36.678914576510792
20
-13.142093115047352
30
0
10
37.902689784900517
20
-12.956941754192982
30
0
10
39.120915699806915
20
-12.610987267263862
30
0
10
39.804921919328223
20
-12.41674166976399
30
0
10
40.486522039425942
20
-12.172091673115645
30
0
10
41.15725340473066
20
-11.874590279884675
30
0
10
41.517851652306163
20
-11.714647735671583
30
0
10
41.875297798645683
20
-11.539496281181719
30
0
10
42.228376033925564
20
-11.349184379174204
30
0
10
42.375295042385659
20
-11.269993896308746
30
0
10
42.521459708549884
20
-11.188181667174366
30
0
10
42.666792577601676
20
-11.103763581520877
30
0
10
42.671999785255927
20
-11.100738921616752
30
0
10
42.678448173613702
20
-11.096987452184322
30
0
10
42.682410996012578
20
-11.094679568818357
30
0
0
SPLINE
5
284
100
AcDbEntity
8
0
100
AcDbSpline
70
0
71
3
72
8
73
4
74
0
42
0.000000001
43
0.0000000001
44
0.0000000001
40
-0.76529103842969437
40
-0.76529103842969437
40
-0.76529103842969437
40
-0.76529103842969437
40
-0.10096333640329806
40
-0.10096333640329806
40
-0.10096333640329806
40
-0.10096333640329806
10
42.68241099601255
20
-11.094679568818167
30
0
10
42.732314532138247
20
-11.072464415955281
30
0
10
42.992888089322491
20
-10.970975720594989
30
0
10
43.455796019676171
20
-10.891943341975033
30
0
0
SPLINE
5
285
100
AcDbEntity
8
0
100
AcDbSpline
70
0
71
3
72
26
73
22
74
0
42
0.000000001
43
0.0000000001
44
0.0000000001
40
-0.74075170620034558
40
-0.74075170620034558
40
-0.74075170620034558
40
-0.74075170620034558
40
-0.6515301354878551
40
-0.6515301354878551
40
-0.6515301354878551
40
-0.57731012092648692
40
-0.57731012092648692
40
-0.57731012092648692
40
-0.28864473642499999
40
-0.28864473642499999
40
-0.28864473642499999
40
-0.12761539051842941
40
-0.12761539051842941
40
-0.12761539051842941
40
-0.020622753627134643
40
-0.020622753627134643
40
-0.020622753627134643
40
2.0648076486917897e-05
40
2.0648076486917897e-05
40
2.0648076486917897e-05
40
3.8941774721037775e-05
40
3.8941774721037775e-05
40
3.8941774721037775e-05
40
3.8941774721037775e-05
10
43.455796019676157
20
-10.891943341974994
30
0
10
43.553675497519741
20
-10.888823097095731
30
0
10
43.686448885257107
20
-10.885244279517893
30
0
10
43.860346543855911
20
-10.881695910407272
30
0
10
44.005005359547269
20
-10.878744157765434
30
0
10
44.177248351928498
20
-10.875837326699031
30
0
10
44.379024247436199
20
-10.873281992764831
30
0
10
45.175277714162625
20
-10.863198065253917
30
0
10
46.425944043737132
20
-10.855726528607191
30
0
10
48.338152685923667
20
-10.849708445313507
30
0
10
49.404860796492436
20
-10.846351312562494
30
0
10
50.6784298708112
20
-10.843411718295851
30
0
10
52.19817635043718
20
-10.840595315848427
30
0
10
53.207940641200594
20
-10.838724015169035
30
0
10
54.326404628129488
20
-10.836906836400953
30
0
10
55.565231777638132
20
-10.835056143738717
30
0
10
55.804253893848255
20
-10.834699066904587
30
0
10
56.047647118540027
20
-10.834340910191401
30
0
10
56.295825198022641
20
-10.833980535438293
30
0
10
56.296045127605922
20
-10.833980216082653
30
0
10
56.296265057189387
20
-10.833979896727012
30
0
10
56.296484986765165
20
-10.833979577371387
30
0
0
SPLINE
5
286
100
AcDbEntity
8
0
100
AcDbSpline
70
0
71
3
72
23
73
19
74
0
42
0.000000001
43
0.0000000001
44
0.0000000001
40
-1.0000348586091061
40
-1.0000348586091061
40
-1.0000348586091061
40
-1.0000348586091061
40
-1.0000184830612084
40
-1.0000184830612084
40
-1.0000184830612084
40
-0.91038209642283663
40
-0.91038209642283663
40
-0.91038209642283663
40
-0.76882832685198466
40
-0.76882832685198466
40
-0.76882832685198466
40
-0.40448892767377675
40
-0.40448892767377675
40
-0.40448892767377675
40
-0.26851162475695939
40
-0.26851162475695939
40
-0.26851162475695939
40
-0.18426981942607162
40
-0.18426981942607162
40
-0.18426981942607162
40
-0.18426981942607162
10
56.296484986775475
20
-10.83397957737137
30
0
10
56.296704916265512
20
-10.833979196211072
30
0
10
56.296924845758049
20
-10.83397881505077
30
0
10
56.297144775250594
20
-10.833978433890472
30
0
10
57.500993548545132
20
-10.831892040861831
30
0
10
58.606313980880131
20
-10.830089299476736
30
0
10
59.623181003418381
20
-10.82867539535895
30
0
10
61.229017266913608
20
-10.826442558168715
30
0
10
62.612848362711276
20
-10.825182485316036
30
0
10
63.807039866765493
20
-10.825316285565982
30
0
10
66.877604693327825
20
-10.825660319449888
30
0
10
68.723903337021753
20
-10.838843583012634
30
0
10
69.761777349179141
20
-10.860470232802788
30
0
10
70.149128564169715
20
-10.868541645107426
30
0
10
70.423981161115364
20
-10.87800814410787
30
0
10
70.584598505312229
20
-10.885957136540515
30
0
10
70.708910090405098
20
-10.892109347898105
30
0
10
70.785148912224386
20
-10.896791344350534
30
0
10
70.81874965131108
20
-10.89919040714415
30
0
0
LINE
5
287
100
AcDbEntity
8
0
100
AcDbLine
10
70.818749651311094
20
-10.89919040714415
30
0
11
70.868229814810405
21
-10.906709422845761
31
0
0
SPLINE
5
288
100
AcDbEntity
8
0
100
AcDbSpline
70
0
71
3
72
17
73
13
74
0
42
0.000000001
43
0.0000000001
44
0.0000000001
40
-1.0009968664861617
40
-1.0009968664861617
40
-1.0009968664861617
40
-1.0009968664861617
40
-1.0005285678747979
40
-1.0005285678747979
40
-1.0005285678747979
40
-0.98037051461037139
40
-0.98037051461037139
40
-0.98037051461037139
40
-0.27554134995325186
40
-0.27554134995325186
40
-0.27554134995325186
40
-0.253110280333325
40
-0.253110280333325
40
-0.253110280333325
40
-0.253110280333325
10
70.868229814815123
20
-10.906709422846422
30
0
10
70.868949228378412
20
-10.90681842490147
30
0
10
70.869668641945694
20
-10.906927426957118
30
0
10
70.870388055513075
20
-10.907036429012781
30
0
10
70.901355426872144
20
-10.911728454976281
30
0
10
70.885169532849744
20
-10.909299738593912
30
0
10
70.891708849085461
20
-10.910342877009642
30
0
10
71.120356960061017
20
-10.946816358279731
30
0
10
71.447620475527998
20
-11.051122836895068
30
0
10
71.545875007999825
20
-11.092947865577056
30
0
10
71.549001941970289
20
-11.094278940080304
30
0
10
71.551872381153458
20
-11.095516078441207
30
0
10
71.554473076043848
20
-11.096648796989117
30
0
0
SPLINE
5
289
100
AcDbEntity
8
0
100
AcDbSpline
70
0
71
3
72
17
73
13
74
0
42
0.000000001
43
0.0000000001
44
0.0000000001
40
-0.99913843249066059
40
-0.99913843249066059
40
-0.99913843249066059
40
-0.99913843249066059
40
-0.99420824118142526
40
-0.99420824118142526
40
-0.99420824118142526
40
-0.78386329489043582
40
-0.78386329489043582
40
-0.78386329489043582
40
-0.37251866104449505
40
-0.37251866104449505
40
-0.37251866104449505
40
-0.00078324134741687961
40
-0.00078324134741687961
40
-0.00078324134741687961
40
-0.00078324134741687961
10
71.55447307604372
20
-11.096648796989349
30
0
10
71.590443988004296
20
-11.117283241420619
30
0
10
71.645102707251127
20
-11.148344766398161
30
0
10
71.69055254226987
20
-11.17383213031167
30
0
10
73.629654395790482
20
-12.26124189947074
30
0
10
75.725478542245952
20
-12.91328513661654
30
0
10
77.840358399847176
20
-13.138389712179572
30
0
10
81.934041217691743
20
-13.574115046594443
30
0
10
85.9533600351144
20
-12.411413917068593
30
0
10
89.142668013955699
20
-10.060618437303344
30
0
10
92.060312354805092
20
-7.9100625256340242
30
0
10
94.29100898296673
20
-4.7452993716056184
30
0
10
95.252355768517006
20
-0.96783619094028661
30
0
0
LINE
5
290
100
AcDbEntity
8
0
100
AcDbLine
10
95.252355768517006
20
-0.96783619094028572
30
0
11
95.25482817583638
21
-0.95810869224991102
31
0
0
SPLINE
5
291
100
AcDbEntity
8
0
100
AcDbSpline
70
0
71
3
72
17
73
13
74
0
42
0.000000001
43
0.0000000001
44
0.0000000001
40
-0.99312872395024177
40
-0.99312872395024177
40
-0.99312872395024177
40
-0.99312872395024177
40
-0.54217126774880087
40
-0.54217126774880087
40
-0.54217126774880087
40
0
40
0
40
0
40
0.008155944969077851
40
0.008155944969077851
40
0.008155944969077851
40
0.01538191579187361
40
0.01538191579187361
40
0.01538191579187361
40
0.01538191579187361
10
95.254834321103047
20
-0.95811025215435452
30
0
10
95.407680065603984
20
-0.35914874332793584
30
0
10
95.535082399424098
20
0.27275518193520887
30
0
10
95.612067289853272
20
1.0628986638397229
30
0
10
95.688135247163359
20
1.8436310947789669
30
0
10
95.685699345051887
20
2.4843658652946203
30
0
10
95.685699345051887
20
2.932422337503251
30
0
10
95.685699345051887
20
2.9386870341408464
30
0
10
95.685699345051887
20
2.9449517307784419
30
0
10
95.685699345051887
20
2.9512164274160368
30
0
10
95.685699345051887
20
2.9567667977641152
30
0
10
95.685699345051887
20
2.9623171681121936
30
0
10
95.685699345051887
20
2.9678675384602715
30
0
0
SPLINE
5
292
100
AcDbEntity
8
0
100
AcDbSpline
70
0
71
3
72
26
73
22
74
0
42
0.000000001
43
0.0000000001
44
0.0000000001
40
-1.014399729238842
40
-1.014399729238842
40
-1.014399729238842
40
-1.014399729238842
40
-1.0076351607170773
40
-1.0076351607170773
40
-1.0076351607170773
40
-1
40
-1
40
-1
40
-0.80953690621496177
40
-0.80953690621496177
40
-0.80953690621496177
40
-0.39684758086394206
40
-0.39684758086394206
40
-0.39684758086394206
40
0
40
0
40
0
40
0.013642084248623232
40
0.013642084248623232
40
0.013642084248623232
40
0.025728632019692915
40
0.025728632019692915
40
0.025728632019692915
40
0.025728632019692915
10
95.68569934505193
20
2.9678675384591022
30
0
10
95.685659981713144
20
2.9734177692270185
30
0
10
95.685620618374372
20
2.9789679999936891
30
0
10
95.685581255035586
20
2.984518230760282
30
0
10
95.685536825680373
20
2.9907827698485576
30
0
10
95.685492396325117
20
2.9970473089369931
30
0
10
95.685447966969889
20
3.0033118480250094
30
0
10
95.684177341528454
20
3.1824700352678645
30
0
10
95.682361491828004
20
3.3669430011137935
30
0
10
95.677749572139433
20
3.5677742785860223
30
0
10
95.667568850642624
20
4.0111053515149067
30
0
10
95.641902664976499
20
4.6320965166987458
30
0
10
95.537105913496674
20
5.3586638154668567
30
0
10
95.435723774346641
20
6.0615572348277151
30
0
10
95.293516386505885
20
6.6294434086410723
30
0
10
95.203729886253981
20
6.972974366126671
30
0
10
95.201904056033527
20
6.9799601513180001
30
0
10
95.200078225814266
20
6.9869459365046724
30
0
10
95.198252395595944
20
6.9939317216878027
30
0
10
95.196634755376635
20
7.0001209538311997
30
0
10
95.195017115157327
20
7.0063101859746348
30
0
10
95.19339947493819
20
7.0124994181173435
30
0
0
SPLINE
5
293
100
AcDbEntity
8
0
100
AcDbSpline
70
0
71
3
72
26
73
22
74
0
42
0.000000001
43
0.0000000001
44
0.0000000001
40
-1.012983938086728
40
-1.012983938086728
40
-1.012983938086728
40
-1.012983938086728
40
-1.0068844637650682
40
-1.0068844637650682
40
-1.0068844637650682
40
-1
40
-1
40
-1
40
-0.6148299847961084
40
-0.6148299847961084
40
-0.6148299847961084
40
-0.26383015376208618
40
-0.26383015376208618
40
-0.26383015376208618
40
-0.07010324420699901
40
-0.07010324420699901
40
-0.07010324420699901
40
-0.015926190142996746
40
-0.015926190142996746
40
-0.015926190142996746
40
-0.0046483682713077392
40
-0.0046483682713077392
40
-0.0046483682713077392
40
-0.0046483682713077392
10
95.193399474813646
20
7.012499418082804
30
0
10
95.191731297953396
20
7.01867522177817
30
0
10
95.190063121093615
20
7.0248510254717988
30
0
10
95.188394944233877
20
7.0310268291652998
30
0
10
95.186512076540083
20
7.037997445733863
30
0
10
95.184629208846729
20
7.044968062300625
30
0
10
95.182746341154399
20
7.0519386788637899
30
0
10
94.946409313107893
20
7.9268885273763861
30
0
10
94.624686411990027
20
8.8559064938703873
30
0
10
94.173675443846051
20
9.806426171294639
30
0
10
93.758814550765152
20
10.680758438401048
30
0
10
93.281666258476733
20
11.466610075547841
30
0
10
92.783508320464634
20
12.17447050716137
30
0
10
92.508560616025221
20
12.565159053673883
30
0
10
92.226910513061725
20
12.932164791600769
30
0
10
91.943931056142659
20
13.277128107994587
30
0
10
91.864793917312966
20
13.373599456684795
30
0
10
91.785548409908202
20
13.46834454857283
30
0
10
91.706303096459422
20
13.561393303291842
30
0
10
91.689806914732998
20
13.580762892488476
30
0
10
91.672691465415653
20
13.600780629221402
30
0
10
91.656815508861541
20
13.619281772688737
30
0
0
SPLINE
5
294
100
AcDbEntity
8
0
100
AcDbSpline
70
0
71
3
72
8
73
4
74
0
42
0.000000001
43
0.0000000001
44
0.0000000001
40
-0.087703381888467921
40
-0.087703381888467921
40
-0.087703381888467921
40
-0.087703381888467921
40
-0.028603246372017506
40
-0.028603246372017506
40
-0.028603246372017506
40
-0.028603246372017506
10
91.656815508861911
20
13.619281772688847
30
0
10
91.647699101321535
20
13.636923707364573
30
0
10
91.637270140034914
20
13.657278540416502
30
0
10
91.625655533160682
20
13.680145997416609
30
0
0
SPLINE
5
295
100
AcDbEntity
8
0
100
AcDbSpline
70
0
71
3
72
14
73
10
74
0
42
0.000000001
43
0.0000000001
44
0.0000000001
40
-0.97664042362797998
40
-0.97664042362797998
40
-0.97664042362797998
40
-0.97664042362797998
40
-0.85735785252079399
40
-0.85735785252079399
40
-0.85735785252079399
40
-0.22837733112667791
40
-0.22837733112667791
40
-0.22837733112667791
40
-0.14115274912895145
40
-0.14115274912895145
40
-0.14115274912895145
40
-0.14115274912895145
10
91.625655533161904
20
13.680145997417332
30
0
10
91.607925466652375
20
13.716779547403808
30
0
10
91.585037349507729
20
13.766593943541562
30
0
10
91.560997522532006
20
13.822891584298178
30
0
10
91.465710031564356
20
14.046040483851955
30
0
10
91.268702602226597
20
14.681846702811661
30
0
10
91.190395381630807
20
15.087947041703986
30
0
10
91.179536039645583
20
15.144263463443895
30
0
10
91.170442931480409
20
15.196097521058658
30
0
10
91.163223413890023
20
15.241335044160643
30
0
0
SPLINE
5
296
100
AcDbEntity
8
0
100
AcDbSpline
70
0
71
3
72
14
73
10
74
0
42
0.000000001
43
0.0000000001
44
0.0000000001
40
-0.8198960708873001
40
-0.8198960708873001
40
-0.8198960708873001
40
-0.8198960708873001
40
-0.71237831905286375
40
-0.71237831905286375
40
-0.71237831905286375
40
-0.47037143594032105
40
-0.47037143594032105
40
-0.47037143594032105
40
-0.3557450466711089
40
-0.3557450466711089
40
-0.3557450466711089
40
-0.3557450466711089
10
91.163223413888574
20
15.241335044160342
30
0
10
91.160203715049903
20
15.387071495076013
30
0
10
91.156664841997895
20
15.598839627905029
30
0
10
91.153624792516695
20
15.85086943168254
30
0
10
91.146720500161976
20
16.423257301727794
30
0
10
91.14080546806062
20
17.242517279414852
30
0
10
91.136271443812959
20
18.289346913278752
30
0
10
91.134123697255205
20
18.785225325010288
30
0
10
91.132266420935281
20
19.332845330986562
30
0
10
91.130687251047831
20
19.932356111515727
30
0
0
SPLINE
5
297
100
AcDbEntity
8
0
100
AcDbSpline
70
0
71
3
72
8
73
4
74
0
42
0.000000001
43
0.0000000001
44
0.0000000001
40
-0.35574504667100759
40
-0.35574504667100759
40
-0.35574504667100759
40
-0.35574504667100759
40
0
40
0
40
0
40
0
10
91.130687251047831
20
19.932356111517475
30
0
10
91.125786269093339
20
21.792948527965976
30
0
10
91.123566890437814
20
24.15304200005021
30
0
10
91.123566890437814
20
27.023274840184609
30
0
0
SPLINE
5
298
100
AcDbEntity
8
0
100
AcDbSpline
70
0
71
3
72
23
73
19
74
0
42
0.000000001
43
0.0000000001
44
0.0000000001
40
-1
40
-1
40
-1
40
-1
40
-0.62294669441460893
40
-0.62294669441460893
40
-0.62294669441460893
40
-0.38716582734095661
40
-0.38716582734095661
40
-0.38716582734095661
40
-0.30885747662311891
40
-0.30885747662311891
40
-0.30885747662311891
40
-0.14392192403850884
40
-0.14392192403850884
40
-0.14392192403850884
40
-0.04886714618548911
40
-0.04886714618548911
40
-0.04886714618548911
40
-0.031825783923195461
40
-0.031825783923195461
40
-0.031825783923195461
40
-0.031825783923195461
10
91.123566890437814
20
27.023274840184609
30
0
10
91.123566890437814
20
32.00142064009291
30
0
10
91.127487458230235
20
34.971417565468592
30
0
10
91.10903238336715
20
36.931121029275864
30
0
10
91.097777253979487
20
38.126278253519807
30
0
10
91.093051179440252
20
38.975161393571256
30
0
10
91.024688061951963
20
39.893314509261977
30
0
10
91.001983068765355
20
40.198254672934056
30
0
10
90.97188675792583
20
40.505354401881249
30
0
10
90.933706588470429
20
40.814666725142786
30
0
10
90.83134874386964
20
41.643907222738889
30
0
10
90.68415282546637
20
42.329137211730519
30
0
10
90.459827737661584
20
43.06554557637714
30
0
10
90.36868563949055
20
43.364744404833679
30
0
10
90.286373658939652
20
43.60416856151754
30
0
10
90.241180971547749
20
43.731369791367044
30
0
10
90.233078854275504
20
43.754174349823089
30
0
10
90.226486853182507
20
43.772589037417347
30
0
10
90.22232178541077
20
43.784251473448144
30
0
0
SPLINE
5
299
100
AcDbEntity
8
0
100
AcDbSpline
70
0
71
3
72
14
73
10
74
0
42
0.000000001
43
0.0000000001
44
0.0000000001
40
-0.99900378509464594
40
-0.99900378509464594
40
-0.99900378509464594
40
-0.99900378509464594
40
-0.99208648306158032
40
-0.99208648306158032
40
-0.99208648306158032
40
-0.63303964991969852
40
-0.63303964991969852
40
-0.63303964991969852
40
-0.0012921177974579618
40
-0.0012921177974579618
40
-0.0012921177974579618
40
-0.0012921177974579618
10
90.22232178551846
20
43.784251473486606
30
0
10
90.212156967206994
20
43.814507830363624
30
0
10
90.195189149355883
20
43.864542491665645
30
0
10
90.181411862916093
20
43.904609213495206
30
0
10
89.466293303419278
20
45.984297149415021
30
0
10
88.374562134964066
20
47.924445367445905
30
0
10
86.937822687882246
20
49.611986649809467
30
0
10
84.397731849375006
20
52.595483873081776
30
0
10
80.964096657892313
20
54.563170370446592
30
0
10
77.264826466372369
20
55.423886027634019
30
0
0
SPLINE
5
300
100
AcDbEntity
8
0
100
AcDbSpline
70
0
71
3
72
20
73
16
74
0
42
0.000000001
43
0.0000000001
44
0.0000000001
40
-0.99224800877867902
40
-0.99224800877867902
40
-0.99224800877867902
40
-0.99224800877867902
40
-0.90565150338892131
40
-0.90565150338892131
40
-0.90565150338892131
40
-0.75
40
-0.75
40
-0.75
40
-0.51373762018457803
40
-0.51373762018457803
40
-0.51373762018457803
40
-0.5
40
-0.5
40
-0.5
40
0
40
0
40
0
40
0
10
77.264826466380555
20
55.42388602766485
30
0
10
77.191780666456083
20
55.441074082770584
30
0
10
76.969927213826594
20
55.493147891831462
30
0
10
76.703048995281421
20
55.543642249696262
30
0
10
76.166758581737241
20
55.645110403255529
30
0
10
75.705627771873083
20
55.69722693679946
30
0
10
75.244329196595046
20
55.730877896698161
30
0
10
74.661715426382244
20
55.773378597260795
30
0
10
74.138164372647367
20
55.784181556497018
30
0
10
73.474057196506791
20
55.793164980582048
30
0
10
73.435442279672372
20
55.793687327254986
30
0
10
73.396223474235626
20
55.794204004962396
30
0
10
73.356327724806619
20
55.794719898273975
30
0
10
71.868042471134302
20
55.81396496620939
30
0
10
69.346694972958986
20
55.81736260519363
30
0
10
64.299038473974718
20
55.826090541503106
30
0
0
LINE
5
301
100
AcDbEntity
8
0
100
AcDbLine
10
64.299038473974704
20
55.826090541503106
30
0
11
41.17824112900059
21
55.878939631645544
31
0
0
LINE
5
302
100
AcDbEntity
8
0
100
AcDbLine
10
41.17824112900059
20
55.878939631645544
30
0
11
39.845747789865875
21
55.802920493362549
31
0
0
SPLINE
5
303
100
AcDbEntity
8
0
100
AcDbSpline
70
0
71
3
72
14
73
10
74
0
42
0.000000001
43
0.0000000001
44
0.0000000001
40
-0.52976924222070298
40
-0.52976924222070298
40
-0.52976924222070298
40
-0.52976924222070298
40
-0.52901519772130434
40
-0.52901519772130434
40
-0.52901519772130434
40
-0.4386513158198197
40
-0.4386513158198197
40
-0.4386513158198197
40
0
40
0
40
0
40
0
10
40.131366242725051
20
50.314606532345188
30
0
10
40.129969476582033
20
50.314541533718256
30
0
10
40.128572710439947
20
50.314476535091345
30
0
10
40.127175944297861
20
50.314411536464441
30
0
10
39.966877376512109
20
50.306952029474196
30
0
10
39.81022823701808
20
50.297529411283335
30
0
10
39.652663797718155
20
50.285545867109661
30
0
10
38.918879829000346
20
50.229738017050742
30
0
10
38.089308504543958
20
50.061964659169476
30
0
10
37.580850018882245
20
49.92471206181294
30
0
0
SPLINE
5
304
100
AcDbEntity
8
0
100
AcDbSpline
70
0
71
3
72
14
73
10
74
0
42
0.000000001
43
0.0000000001
44
0.0000000001
40
-0.99909584685697872
40
-0.99909584685697872
40
-0.99909584685697872
40
-0.99909584685697872
40
-0.99901145436155758
40
-0.99901145436155758
40
-0.99901145436155758
40
-0.66074732083962739
40
-0.66074732083962739
40
-0.66074732083962739
40
-0.0013427551662555162
40
-0.0013427551662555162
40
-0.0013427551662555162
40
-0.0013427551662555162
10
37.580848924529285
20
49.924716115895443
30
0
10
37.580591244570357
20
49.924646834668771
30
0
10
37.58033356461214
20
49.92457755344229
30
0
10
37.580075884653922
20
49.924508272215803
30
0
10
36.614979711134694
20
49.66502729806615
30
0
10
35.719502064235733
20
49.288497128150837
30
0
10
34.879640883478714
20
48.819668836622299
30
0
10
33.235592723439993
20
47.901926348075747
30
0
10
31.824241067801221
20
46.67843606766727
30
0
10
30.727387875251587
20
45.037152818107998
30
0
0
ARC
5
305
100
AcDbEntity
8
0
100
AcDbCircle
10
30.062246405786066
20
45.481660214668779
30
0
40
0.79999999999999793
210
0
220
0
230
1
100
AcDbArc
50
326.08315361157986
51
326.24558883359509
0
SPLINE
5
306
100
AcDbEntity
8
0
100
AcDbSpline
70
0
71
3
72
14
73
10
74
0
42
0.000000001
43
0.0000000001
44
0.0000000001
40
-0.99748361780327433
40
-0.99748361780327433
40
-0.99748361780327433
40
-0.99748361780327433
40
-0.56561430155756165
40
-0.56561430155756165
40
-0.56561430155756165
40
-0.0014918531955340037
40
-0.0014918531955340037
40
-0.0014918531955340037
40
-0.0013069806275034467
40
-0.0013069806275034467
40
-0.0013069806275034467
40
-0.0013069806275034467
10
30.726125012383459
20
45.035268911319399
30
0
10
30.388958130375457
20
44.533830200171948
30
0
10
30.063225718021471
20
43.99450985507503
30
0
10
29.784314700046536
20
43.413804153992984
30
0
10
29.421387293684894
20
42.658172427848449
30
0
10
29.160035827713919
20
41.865343598535034
30
0
10
28.958573554620017
20
41.10559818174891
30
0
10
28.958504751812587
20
41.105338715711895
30
0
10
28.958435949005139
20
41.105079249674823
30
0
10
28.958367146197293
20
41.104819783636223
30
0
0
LINE
5
307
100
AcDbEntity
8
0
100
AcDbLine
10
28.958367146197297
20
41.104819783636231
30
0
11
28.651221084615308
21
39.955865997708464
31
0
0
LINE
5
308
100
AcDbEntity
8
0
100
AcDbLine
10
28.651221084615308
20
39.955865997708464
30
0
11
28.592694638086936
21
14.613914650926873
31
0
0
LINE
5
309
100
AcDbEntity
8
0
100
AcDbLine
10
28.592694638086936
20
14.613914650926873
30
0
11
28.544771938968051
21
14.374301155335068
31
0
0
SPLINE
5
310
100
AcDbEntity
8
0
100
AcDbSpline
70
0
71
3
72
23
73
19
74
0
42
0.000000001
43
0.0000000001
44
0.0000000001
40
-1.0003840282895227
40
-1.0003840282895227
40
-1.0003840282895227
40
-1.0003840282895227
40
-0.95046309688617625
40
-0.95046309688617625
40
-0.95046309688617625
40
-0.73739221583801529
40
-0.73739221583801529
40
-0.73739221583801529
40
-0.24798145305525943
40
-0.24798145305525943
40
-0.24798145305525943
40
-0.057024232460826163
40
-0.057024232460826163
40
-0.057024232460826163
40
-0.013206998090769272
40
-0.013206998090769272
40
-0.013206998090769272
40
7.4897529597480316e-05
40
7.4897529597480316e-05
40
7.4897529597480316e-05
40
7.4897529597480316e-05
10
28.544771355162396
20
14.374301272096197
30
0
10
28.517465086346139
20
14.236898451349433
30
0
10
28.499743971854837
20
14.152779260526218
30
0
10
28.476343067711309
20
14.04517751970657
30
0
10
28.376464096646057
20
13.585915300948743
30
0
10
28.265414128869573
20
13.16163657818854
30
0
10
28.146302386457009
20
12.774433654025096
30
0
10
27.870492368872707
20
11.877843249425737
30
0
10
27.547714530065562
20
11.20655100140749
30
0
10
27.266915219379491
20
10.74604114364095
30
0
10
27.157353558723397
20
10.566360414930717
30
0
10
27.054750860650522
20
10.419051160548236
30
0
10
26.955916734412448
20
10.296107346264456
30
0
10
26.933238157191578
20
10.267896535968559
30
0
10
26.91066976065752
20
10.24090137511654
30
0
10
26.8878409635971
20
10.214803947463256
30
0
10
26.880921090536781
20
10.206893285938532
30
0
10
26.883497416577363
20
10.209641116963407
30
0
10
26.866820342770367
20
10.191119021607328
30
0
0
SPLINE
5
311
100
AcDbEntity
8
0
100
AcDbSpline
70
0
71
3
72
26
73
22
74
0
42
0.000000001
43
0.0000000001
44
0.0000000001
40
-1.0000834231441804
40
-1.0000834231441804
40
-1.0000834231441804
40
-1.0000834231441804
40
-0.98608024489829493
40
-0.98608024489829493
40
-0.98608024489829493
40
-0.63364598451122167
40
-0.63364598451122167
40
-0.63364598451122167
40
-0.3120101103988307
40
-0.3120101103988307
40
-0.3120101103988307
40
-0.11309102385684666
40
-0.11309102385684666
40
-0.11309102385684666
40
-0.018196825367933045
40
-0.018196825367933045
40
-0.018196825367933045
40
-0.0013855681862516463
40
-0.0013855681862516463
40
-0.0013855681862516463
40
0.00076292425871006422
40
0.00076292425871006422
40
0.00076292425871006422
40
0.00076292425871006422
10
26.866820327160433
20
10.191119035674284
30
0
10
26.844085967867763
20
10.165858636460246
30
0
10
26.793936822848003
20
10.109570118975167
30
0
10
26.757822681530921
20
10.068288102840866
30
0
10
25.848896117781727
20
9.0292956278393959
30
0
10
25.132464677112836
20
7.8356463906672946
30
0
10
24.665832241678729
20
6.5535103608442133
30
0
10
24.241334611729322
20
5.3871454350406474
30
0
10
24.031402427863839
20
4.1398430131542572
30
0
10
24.037707291531547
20
2.8884010313643076
30
0
10
24.041606600727118
20
2.1144335858331544
30
0
10
24.1281446801413
20
1.3390476525350974
30
0
10
24.296800624338452
20
0.58075444038283863
30
0
10
24.377257813858076
20
0.21901124199154243
30
0
10
24.476391759176575
20
-0.1388460331194942
30
0
10
24.594099433206793
20
-0.49085573045284797
30
0
10
24.614952277868426
20
-0.55321703015873258
30
0
10
24.636388013581527
20
-0.61539492598844903
30
0
10
24.658406021688073
20
-0.67737867751306913
30
0
10
24.661219941168262
20
-0.68530025175477083
30
0
10
24.663973015050843
20
-0.69301165414910626
30
0
10
24.665673311189728
20
-0.69777498377349145
30
0
0
SPLINE
5
312
100
AcDbEntity
8
0
100
AcDbSpline
70
0
71
3
72
17
73
13
74
0
42
0.000000001
43
0.0000000001
44
0.0000000001
40
-1.0005436577485534
40
-1.0005436577485534
40
-1.0005436577485534
40
-1.0005436577485534
40
-0.98547412281587365
40
-0.98547412281587365
40
-0.98547412281587365
40
-0.59838372289043507
40
-0.59838372289043507
40
-0.59838372289043507
40
-0.00047908904722118864
40
-0.00047908904722118864
40
-0.00047908904722118864
40
-0.00044060322096497442
40
-0.00044060322096497442
40
-0.00044060322096497442
40
-0.00044060322096497442
10
24.665674867221334
20
-0.69777442477134044
30
0
10
24.677973911070815
20
-0.73196689289098438
30
0
10
24.707248904234049
20
-0.81206621270914225
30
0
10
24.729266540059434
20
-0.87015784663007789
30
0
10
25.294832464630804
20
-2.3623547795302802
30
0
10
26.178824382288134
20
-3.6538011719717622
30
0
10
27.268194488528252
20
-4.7091051732690028
30
0
10
28.953332002211233
20
-6.3415461138998541
30
0
10
31.133466799396096
20
-7.4388428469491981
30
0
10
33.613839690419908
20
-7.6794912304779928
30
0
10
33.614011479652362
20
-7.6795078976497901
30
0
10
33.614183268884823
20
-7.6795245648215884
30
0
10
33.614355058117255
20
-7.6795412319933849
30
0
0
SPLINE
5
313
100
AcDbEntity
8
0
100
AcDbSpline
70
0
71
3
72
23
73
19
74
0
42
0.000000001
43
0.0000000001
44
0.0000000001
40
-1
40
-1
40
-1
40
-1
40
-0.75766650478115805
40
-0.75766650478115805
40
-0.75766650478115805
40
-0.32175404328348639
40
-0.32175404328348639
40
-0.32175404328348639
40
-0.091622649241054899
40
-0.091622649241054899
40
-0.091622649241054899
40
-0.027269734263971696
40
-0.027269734263971696
40
-0.027269734263971696
40
-0.00097061736549608479
40
-0.00097061736549608479
40
-0.00097061736549608479
40
0.0019585314411408612
40
0.0019585314411408612
40
0.0019585314411408612
40
0.0019585314411408612
10
33.614355236342668
20
-7.6795393950169233
30
0
10
34.149185528102507
20
-7.731778632816722
30
0
10
34.677505545870389
20
-7.7420336719375049
30
0
10
35.201059356453115
20
-7.715124413246194
30
0
10
36.14949877942361
20
-7.666377176057062
30
0
10
37.069962911412837
20
-7.5092951100371907
30
0
10
37.967136481217253
20
-7.2187952324604119
30
0
10
38.440781587869509
20
-7.0654315466272255
30
0
10
38.908108705785416
20
-6.8747795606523265
30
0
10
39.370258391955716
20
-6.6420940339362966
30
0
10
39.499491865661263
20
-6.5770268927083011
30
0
10
39.628319303957952
20
-6.5086678286625883
30
0
10
39.756760747831642
20
-6.436902185969009
30
0
10
39.809250934923341
20
-6.4075737083520306
30
0
10
39.861676615597283
20
-6.3776762470367547
30
0
10
39.914038973636906
20
-6.3472017976384922
30
0
10
39.919870999828376
20
-6.343807607733468
30
0
10
39.922836765906126
20
-6.342076450963015
30
0
10
39.925819615199437
20
-6.3403378759463402
30
0
0
SPLINE
5
314
100
AcDbEntity
8
0
100
AcDbSpline
70
0
71
3
72
14
73
10
74
0
42
0.000000001
43
0.0000000001
44
0.0000000001
40
-1.0010858995468637
40
-1.0010858995468637
40
-1.0010858995468637
40
-1.0010858995468637
40
-0.96502605236573313
40
-0.96502605236573313
40
-0.96502605236573313
40
-0.011768617376813431
40
-0.011768617376813431
40
-0.011768617376813431
40
-0.0045673069052507391
40
-0.0045673069052507391
40
-0.0045673069052507391
40
-0.0045673069052507391
10
39.925818233231645
20
-6.3403355191029735
30
0
10
39.970903551609752
20
-6.3139057766809303
30
0
10
39.975799718261321
20
-6.3112922583590025
30
0
10
40.000388309583414
20
-6.2974595632377914
30
0
10
40.650398204965093
20
-5.9317863698935476
30
0
10
41.590500605706453
20
-5.6021580580288077
30
0
10
42.885113662511074
20
-5.4195129414163832
30
0
10
42.894285663086507
20
-5.4182189477355189
30
0
10
42.903457663661939
20
-5.4169249540546556
30
0
10
42.912629664237386
20
-5.4156309603737878
30
0
0
SPLINE
5
315
100
AcDbEntity
8
0
100
AcDbSpline
70
0
71
3
72
26
73
22
74
0
42
0.000000001
43
0.0000000001
44
0.0000000001
40
-0.90593657413066064
40
-0.90593657413066064
40
-0.90593657413066064
40
-0.90593657413066064
40
-0.87288062962648694
40
-0.87288062962648694
40
-0.87288062962648694
40
-0.70968601303634227
40
-0.70968601303634227
40
-0.70968601303634227
40
-0.57731012092648692
40
-0.57731012092648692
40
-0.57731012092648692
40
-0.28864473642499999
40
-0.28864473642499999
40
-0.28864473642499999
40
-0.12761218764996404
40
-0.12761218764996404
40
-0.12761218764996404
40
-0.020551620085536612
40
-0.020551620085536612
40
-0.020551620085536612
40
1.4414659858533185e-05
40
1.4414659858533185e-05
40
1.4414659858533185e-05
40
1.4414659858533185e-05
10
42.912629664237507
20
-5.4156309603743207
30
0
10
42.921869345284343
20
-5.4149765077118683
30
0
10
42.931109026331207
20
-5.4143220550494133
30
0
10
42.940348707378071
20
-5.4136676023869583
30
0
10
43.023687469687047
20
-5.4077646632484546
30
0
10
43.154578474947975
20
-5.4022425943666406
30
0
10
43.419274470502323
20
-5.3949612877359865
30
0
10
43.63398356619151
20
-5.3890550300352258
30
0
10
43.926101815985234
20
-5.3829048526673251
30
0
10
44.309431434927845
20
-5.378050282795126
30
0
10
45.143382605041111
20
-5.3674889433492359
30
0
10
46.402073664178893
20
-5.3601020749332946
30
0
10
48.320856848270004
20
-5.3540633003092157
30
0
10
49.391253796676125
20
-5.350694558085852
30
0
10
50.666900592472061
20
-5.3477512627136159
30
0
10
52.188082524675828
20
-5.3449322231250429
30
0
10
53.199422171656167
20
-5.3430580183097121
30
0
10
54.319287200301005
20
-5.3412387806329296
30
0
10
55.559493669954414
20
-5.3393862220517052
30
0
10
55.797733854240803
20
-5.3390303507443111
30
0
10
56.040375065740704
20
-5.3386733171536873
30
0
10
56.287620226046336
20
-5.3383142942272084
30
0
0
SPLINE
5
316
100
AcDbEntity
8
0
100
AcDbSpline
70
0
71
3
72
23
73
19
74
0
42
0.000000001
43
0.0000000001
44
0.0000000001
40
-1.0000184830612084
40
-1.0000184830612084
40
-1.0000184830612084
40
-1.0000184830612084
40
-0.91003248658536728
40
-0.91003248658536728
40
-0.91003248658536728
40
-0.76882832685198466
40
-0.76882832685198466
40
-0.76882832685198466
40
-0.26851162475695939
40
-0.26851162475695939
40
-0.26851162475695939
40
-0.059196035160770794
40
-0.059196035160770794
40
-0.059196035160770794
40
-0.0040983438862041838
40
-0.0040983438862041838
40
-0.0040983438862041838
40
0.00043678184800960841
40
0.00043678184800960841
40
0.00043678184800960841
40
0.00043678184800960841
10
56.287620227369445
20
-5.3383143258142667
30
0
10
57.496164513461324
20
-5.3362197949817869
30
0
10
58.606344053014318
20
-5.3344095091503618
30
0
10
59.627445007350588
20
-5.3329918045074454
30
0
10
61.229735451494491
20
-5.3307671717790983
30
0
10
62.612085817035215
20
-5.3295100038057033
30
0
10
63.807655615854713
20
-5.3296439584832953
30
0
10
68.044545354152646
20
-5.3301186703733485
30
0
10
69.95932893927035
20
-5.3526139108134689
30
0
10
70.856248231145543
20
-5.3970026703180016
30
0
10
71.220988725535733
20
-5.4150537683752216
30
0
10
71.391913732432556
20
-5.4300266938510813
30
0
10
71.55582599522532
20
-5.4529308110241548
30
0
10
71.598972266694602
20
-5.4589598123964507
30
0
10
71.639676123318353
20
-5.4651499025017927
30
0
10
71.682395660579971
20
-5.471660921289625
30
0
10
71.685911932647045
20
-5.4721968473543576
30
0
10
71.688095059483587
20
-5.4725297173583165
30
0
10
71.693669390968424
20
-5.4733796171670956
30
0
0
SPLINE
5
317
100
AcDbEntity
8
0
100
AcDbSpline
70
0
71
3
72
20
73
16
74
0
42
0.000000001
43
0.0000000001
44
0.0000000001
40
-1.0005285678747979
40
-1.0005285678747979
40
-1.0005285678747979
40
-1.0005285678747979
40
-0.95323637148720752
40
-0.95323637148720752
40
-0.95323637148720752
40
-0.29679796820742899
40
-0.29679796820742899
40
-0.29679796820742899
40
-0.046102314123857069
40
-0.046102314123857069
40
-0.046102314123857069
40
-0.0038736742492150172
40
-0.0038736742492150172
40
-0.0038736742492150172
40
0.002014020056351689
40
0.002014020056351689
40
0.002014020056351689
40
0.002014020056351689
10
71.693669338851592
20
-5.4733799589814005
30
0
10
71.76632094803611
20
-5.4843877785548276
30
0
10
71.792907829061306
20
-5.488873869166591
30
0
10
71.841743753983025
20
-5.4971962929823732
30
0
10
72.519609850866559
20
-5.6127155333296805
30
0
10
73.144407752933034
20
-5.8053607395882061
30
0
10
73.649655843875024
20
-6.0158366836508019
30
0
10
73.842611496683162
20
-6.0962180327644377
30
0
10
74.018121495348538
20
-6.1792742122271038
30
0
10
74.176049714416877
20
-6.265646913305404
30
0
10
74.202652065835622
20
-6.280196035435857
30
0
10
74.228770600975707
20
-6.2948567520912579
30
0
10
74.254428889873921
20
-6.309662597622153
30
0
10
74.258006276261085
20
-6.3117268907814905
30
0
10
74.261657950714962
20
-6.3138449909568024
30
0
10
74.268510104100258
20
-6.3178192399202633
30
0
0
SPLINE
5
318
100
AcDbEntity
8
0
100
AcDbSpline
70
0
71
3
72
20
73
16
74
0
42
0.000000001
43
0.0000000001
44
0.0000000001
40
-1.0004649184276384
40
-1.0004649184276384
40
-1.0004649184276384
40
-1.0004649184276384
40
-0.99045855384205317
40
-0.99045855384205317
40
-0.99045855384205317
40
-0.78386329489043582
40
-0.78386329489043582
40
-0.78386329489043582
40
-0.37251866104449505
40
-0.37251866104449505
40
-0.37251866104449505
40
-0.00046419829493349313
40
-0.00046419829493349313
40
-0.00046419829493349313
40
-0.00042599051361720384
40
-0.00042599051361720384
40
-0.00042599051361720384
40
-0.00042599051361720384
10
74.268511982027505
20
-6.3178159791023436
30
0
10
74.305620054444375
20
-6.3391619093480109
30
0
10
74.386060559693263
20
-6.3848598780315928
30
0
10
74.446968695792862
20
-6.4184268357094414
30
0
10
75.704501543225035
20
-7.1114631781652164
30
0
10
77.069975562257738
20
-7.5296760129961662
30
0
10
78.422023748990341
20
-7.6735859529018846
30
0
10
81.121215232691924
20
-7.9608837637530181
30
0
10
83.763531845239953
20
-7.1982613359591765
30
0
10
85.881940121537667
20
-5.6368114436138121
30
0
10
87.791962291442204
20
-4.2289601125252911
30
0
10
89.292517935268222
20
-2.1098173528397406
30
0
10
89.928088352379262
20
0.39402205549808306
30
0
10
89.928158470965826
20
0.39429828874550121
30
0
10
89.928228589552475
20
0.39457452199324428
30
0
10
89.928298708140616
20
0.39485075524692204
30
0
0
SPLINE
5
319
100
AcDbEntity
8
0
100
AcDbSpline
70
0
71
3
72
17
73
13
74
0
42
0.000000001
43
0.0000000001
44
0.0000000001
40
-0.99592319893463666
40
-0.99592319893463666
40
-0.99592319893463666
40
-0.99592319893463666
40
-0.99557074699467807
40
-0.99557074699467807
40
-0.99557074699467807
40
-0.54217126774880087
40
-0.54217126774880087
40
-0.54217126774880087
40
0
40
0
40
0
40
0.0069248589372375418
40
0.0069248589372375418
40
0.0069248589372375418
40
0.0069248589372375418
10
89.928298708138215
20
0.394850755247657
30
0
10
89.928369417159246
20
0.395126838610044
30
0
10
89.92844012618184
20
0.39540292197849825
30
0
10
89.928510835204506
20
0.39567900534728651
30
0
10
90.008709790747886
20
0.70881581565990781
30
0
10
90.103359856980632
20
1.1962051901959763
30
0
10
90.142295612770411
20
1.5958269014021633
30
0
10
90.191663789537671
20
2.1025229929170188
30
0
10
90.190026983474141
20
2.4704022560883225
30
0
10
90.190026983474141
20
2.932422337503251
30
0
10
90.190026983474141
20
2.9377414195549836
30
0
10
90.190026983474141
20
2.943060501606714
30
0
10
90.190026983474141
20
2.9483795836584461
30
0
0
SPLINE
5
320
100
AcDbEntity
8
0
100
AcDbSpline
70
0
71
3
72
20
73
16
74
0
42
0.000000001
43
0.0000000001
44
0.0000000001
40
-1.0064826836264018
40
-1.0064826836264018
40
-1.0064826836264018
40
-1.0064826836264018
40
-1
40
-1
40
-1
40
-0.80953690621496177
40
-0.80953690621496177
40
-0.80953690621496177
40
-0.39684758086394206
40
-0.39684758086394206
40
-0.39684758086394206
40
0
40
0
40
0
40
0.011582897884033482
40
0.011582897884033482
40
0.011582897884033482
40
0.011582897884033482
10
90.190026983474127
20
2.9483795836584465
30
0
10
90.189989260436661
20
2.9536985319397013
30
0
10
90.18995153739921
20
2.9590174802211999
30
0
10
90.189913814361745
20
2.9643364285024165
30
0
10
90.188723021537214
20
3.1322382167625609
30
0
10
90.187113895266265
20
3.2853527196813772
30
0
10
90.183525715165231
20
3.4416040948462125
30
0
10
90.175782950465177
20
3.7787715719243931
30
0
10
90.156918620331993
20
4.1636980590626003
30
0
10
90.097722392326475
20
4.5741119590344468
30
0
10
90.040902122250628
20
4.9680530837480381
30
0
10
89.956052123886678
20
5.317804130107441
30
0
10
89.886664595612658
20
5.5832868469819674
30
0
10
89.885114362921286
20
5.5892181720619867
30
0
10
89.883564130230837
20
5.5951494971384461
30
0
10
89.882013897539792
20
5.6010808222171029
30
0
0
SPLINE
5
321
100
AcDbEntity
8
0
100
AcDbSpline
70
0
71
3
72
20
73
16
74
0
42
0.000000001
43
0.0000000001
44
0.0000000001
40
-1.0058453013601003
40
-1.0058453013601003
40
-1.0058453013601003
40
-1.0058453013601003
40
-1
40
-1
40
-1
40
-0.6148299847961084
40
-0.6148299847961084
40
-0.6148299847961084
40
-0.17839197619068592
40
-0.17839197619068592
40
-0.17839197619068592
40
-0.046070596367165595
40
-0.046070596367165595
40
-0.046070596367165595
40
0.0017132155911916778
40
0.0017132155911916778
40
0.0017132155911916778
40
0.0017132155911916778
10
89.882013897472547
20
5.6010808222024817
30
0
10
89.880415235693718
20
5.6069992721921285
30
0
10
89.878816573913809
20
5.6129177221859292
30
0
10
89.877217912134313
20
5.6188361721780211
30
0
10
89.715380599512343
20
6.2179785635870166
30
0
10
89.494908506705258
20
6.8470847698778741
30
0
10
89.208575032612245
20
7.4505414941138381
30
0
10
88.884947134981388
20
8.1325973787578025
30
0
10
88.477574155096022
20
8.7746363465615556
30
0
10
88.032447490354343
20
9.3634074434435952
30
0
10
87.897491841869311
20
9.5419139034757521
30
0
10
87.759104779147549
20
9.7155221901989517
30
0
10
87.618648745162716
20
9.8838768409634472
30
0
10
87.567927352102132
20
9.9446729646524137
30
0
10
87.504994647835929
20
10.018593819102277
30
0
10
87.467179001571495
20
10.062526702261231
30
0
0
SPLINE
5
322
100
AcDbEntity
8
0
100
AcDbSpline
70
0
71
3
72
17
73
13
74
0
42
0.000000001
43
0.0000000001
44
0.0000000001
40
-1.0017000498928041
40
-1.0017000498928041
40
-1.0017000498928041
40
-1.0017000498928041
40
-0.93029780739977197
40
-0.93029780739977197
40
-0.93029780739977197
40
-0.89894940500720311
40
-0.89894940500720311
40
-0.89894940500720311
40
-0.0086533425419746679
40
-0.0086533425419746679
40
-0.0086533425419746679
40
-0.0065952909055970932
40
-0.0065952909055970932
40
-0.0065952909055970932
40
-0.0065952909055970932
10
87.467177328786477
20
10.062525255517594
30
0
10
87.427949496439084
20
10.107890759190582
30
0
10
87.420031166462195
20
10.117452955941603
30
0
10
87.398603154177977
20
10.143085577982712
30
0
10
87.389195411114088
20
10.154339310667645
30
0
10
87.37998013449625
20
10.165451477286121
30
0
10
87.370947699313618
20
10.176429474751343
30
0
10
87.136797193422012
20
10.461015370822999
30
0
10
86.966046022252073
20
10.715965736769439
30
0
10
86.708660681164929
20
11.225235104699532
30
0
10
86.708089401195963
20
11.226365454188262
30
0
10
86.707518121226997
20
11.227495803677041
30
0
10
86.706946841258784
20
11.228626153164267
30
0
0
SPLINE
5
323
100
AcDbEntity
8
0
100
AcDbSpline
70
0
71
3
72
17
73
13
74
0
42
0.000000001
43
0.0000000001
44
0.0000000001
40
-0.99621381957327193
40
-0.99621381957327193
40
-0.99621381957327193
40
-0.99621381957327193
40
-0.99491117726865375
40
-0.99491117726865375
40
-0.99491117726865375
40
-0.85735785252079399
40
-0.85735785252079399
40
-0.85735785252079399
40
-0.025015199616186614
40
-0.025015199616186614
40
-0.025015199616186614
40
-0.015796209441090912
40
-0.015796209441090912
40
-0.015796209441090912
40
-0.015796209441090912
10
86.706946841361002
20
11.228626153215885
30
0
10
86.706386327284477
20
11.229761871192661
30
0
10
86.705825813208293
20
11.230897589168741
30
0
10
86.705265299132108
20
11.232033307144819
30
0
10
86.639140062772185
20
11.366016774816325
30
0
10
86.572514979341477
20
11.510872361106625
30
0
10
86.506830191444493
20
11.664696205010902
30
0
10
86.102271762807433
20
12.612110889129282
30
0
10
85.78401789559031
20
13.819528206668689
30
0
10
85.679825965711927
20
14.794632266855466
30
0
10
85.678804501332564
20
14.804191875405103
30
0
10
85.677783036953187
20
14.813751483954753
30
0
10
85.676761572573739
20
14.82331109250492
30
0
0
SPLINE
5
324
100
AcDbEntity
8
0
100
AcDbSpline
70
0
71
3
72
17
73
13
74
0
42
0.000000001
43
0.0000000001
44
0.0000000001
40
-0.91020414159558416
40
-0.91020414159558416
40
-0.91020414159558416
40
-0.91020414159558416
40
-0.89696723254061628
40
-0.89696723254061628
40
-0.89696723254061628
40
-0.71237831905286375
40
-0.71237831905286375
40
-0.71237831905286375
40
-0.47037143594032105
40
-0.47037143594032105
40
-0.47037143594032105
40
-0.3557450466711089
40
-0.3557450466711089
40
-0.3557450466711089
40
-0.3557450466711089
10
85.676761572574222
20
14.823311092505598
30
0
10
85.676431162819995
20
14.83291943962605
30
0
10
85.676100753065782
20
14.842527786746524
30
0
10
85.675770343311569
20
14.85213613386702
30
0
10
85.670723487828852
20
14.99889917196281
30
0
10
85.663856471242568
20
15.328261734884187
30
0
10
85.658352192425369
20
15.784584014773236
30
0
10
85.65114625192578
20
16.38197947868667
30
0
10
85.645219916000286
20
17.210573066713021
30
0
10
85.640650628878291
20
18.265544302782416
30
0
10
85.638486424897081
20
18.765222455677407
30
0
10
85.636619798232729
20
19.315835854354308
30
0
10
85.635033955149737
20
19.917880024548559
30
0
0
SPLINE
5
325
100
AcDbEntity
8
0
100
AcDbSpline
70
0
71
3
72
8
73
4
74
0
42
0.000000001
43
0.0000000001
44
0.0000000001
40
-0.35574504667100759
40
-0.35574504667100759
40
-0.35574504667100759
40
-0.35574504667100759
40
0
40
0
40
0
40
0
10
85.635033955149737
20
19.917880024550129
30
0
10
85.630112262813668
20
21.786334861078043
30
0
10
85.627894528860082
20
24.150213193767726
30
0
10
85.627894528860082
20
27.023274840184609
30
0
0
SPLINE
5
326
100
AcDbEntity
8
0
100
AcDbSpline
70
0
71
3
72
20
73
16
74
0
42
0.000000001
43
0.0000000001
44
0.0000000001
40
-1
40
-1
40
-1
40
-1
40
-0.62294669441460893
40
-0.62294669441460893
40
-0.62294669441460893
40
-0.30885747662311891
40
-0.30885747662311891
40
-0.30885747662311891
40
-0.14392192403850884
40
-0.14392192403850884
40
-0.14392192403850884
40
-0.034025910403622947
40
-0.034025910403622947
40
-0.034025910403622947
40
0.00093132893585467016
40
0.00093132893585467016
40
0.00093132893585467016
40
0.00093132893585467016
10
85.627894528860082
20
27.023274840184609
30
0
10
85.627894528860082
20
32.004098056515382
30
0
10
85.631486258862068
20
34.980459553947952
30
0
10
85.613603697843942
20
36.879369042473201
30
0
10
85.598642595920055
20
38.468055269980027
30
0
10
85.589055996308531
20
39.253282206621357
30
0
10
85.479428820061571
20
40.141414372120153
30
0
10
85.425599214418853
20
40.577508832126334
30
0
10
85.304867620117875
20
41.128583644633885
30
0
10
85.202660999275167
20
41.464104790518121
30
0
10
85.127048679222796
20
41.7123228810661
30
0
10
85.081611790489944
20
41.83846525852686
30
0
10
85.048767807385076
20
41.930395094238051
30
0
10
85.03832034036347
20
41.959637403973431
30
0
10
85.031645350429073
20
41.977574212959858
30
0
10
85.017609522306799
20
42.019681697324401
30
0
0
SPLINE
5
327
100
AcDbEntity
8
0
100
AcDbSpline
70
0
71
3
72
17
73
13
74
0
42
0.000000001
43
0.0000000001
44
0.0000000001
40
-1.0003002801860983
40
-1.0003002801860983
40
-1.0003002801860983
40
-1.0003002801860983
40
-0.98393442564172928
40
-0.98393442564172928
40
-0.98393442564172928
40
-0.63303964991969852
40
-0.63303964991969852
40
-0.63303964991969852
40
-0.00088072587198908083
40
-0.00088072587198908083
40
-0.00088072587198908083
40
-0.00079262316607309267
40
-0.00079262316607309267
40
-0.00079262316607309267
40
-0.00079262316607309267
10
85.017608842554466
20
42.019681469750658
30
0
10
85.00307846798384
20
42.063052368143268
30
0
10
84.973359612762039
20
42.150135890069834
30
0
10
84.950204555883289
20
42.215690129558496
30
0
10
84.453744779324111
20
43.621216501593409
30
0
10
83.70750767751467
20
44.92860018906353
30
0
10
82.753305455426144
20
46.049371004375985
30
0
10
81.036318168916523
20
48.066081085778343
30
0
10
78.633488710887562
20
49.464057127140258
30
0
10
76.014292380183477
20
50.072379869896011
30
0
10
76.013905379958828
20
50.072469752825121
30
0
10
76.013518379734123
20
50.072559635754239
30
0
10
76.013131379512885
20
50.072649518682553
30
0
0
SPLINE
5
328
100
AcDbEntity
8
0
100
AcDbSpline
70
0
71
3
72
23
73
19
74
0
42
0.000000001
43
0.0000000001
44
0.0000000001
40
-0.99539369473523764
40
-0.99539369473523764
40
-0.99539369473523764
40
-0.99539369473523764
40
-0.9948715330803316
40
-0.9948715330803316
40
-0.9948715330803316
40
-0.90565150338892131
40
-0.90565150338892131
40
-0.90565150338892131
40
-0.75
40
-0.75
40
-0.75
40
-0.5
40
-0.5
40
-0.5
40
0
40
0
40
0
40
7.3513047025491574e-06
40
7.3513047025491574e-06
40
7.3513047025491574e-06
40
7.3513047025491574e-06
10
76.013131379636491
20
50.072649519208966
30
0
10
76.012744761820599
20
50.072740528158434
30
0
10
76.012358144007891
20
50.072831537107156
30
0
10
76.011971526195168
20
50.072922546055885
30
0
10
75.945876981490457
20
50.088481050688038
30
0
10
75.831623402851292
20
50.115344602807703
30
0
10
75.681373419913456
20
50.143772461960097
30
0
10
75.428892236602806
20
50.19154284687091
30
0
10
75.104696984902077
20
50.230788376732313
30
0
10
74.844491533329318
20
50.249769929430627
30
0
10
74.405363654351532
20
50.281803574097701
30
0
10
73.995339207612034
20
50.290325006153402
30
0
10
73.285268936673532
20
50.299506949312089
30
0
10
71.871299756333144
20
50.317791033540622
30
0
10
69.337588164873978
20
50.321697774756899
30
0
10
64.289535884673114
20
50.330426395414307
30
0
10
64.289461665977939
20
50.33042652374634
30
0
10
64.28938744728309
20
50.33042665207838
30
0
10
64.289313228584064
20
50.330426780410427
30
0
0
LINE
5
329
100
AcDbEntity
8
0
100
AcDbLine
10
64.289313228584078
20
50.330426780410427
30
0
11
41.328602683767372
21
50.382909224671096
31
0
0
LINE
5
330
100
AcDbEntity
8
0
100
AcDbLine
10
41.328602683767372
20
50.382909224671096
30
0
11
40.131366242725051
21
50.314606532345188
31
0
0
ENDSEC
0
SECTION
2
OBJECTS
0
DICTIONARY
5
C
100
AcDbDictionary
3
ACAD_GROUP
350
D
3
ACAD_MLINESTYLE
350
17
0
DICTIONARY
5
D
100
AcDbDictionary
0
DICTIONARY
5
1A
330
C
100
AcDbDictionary
0
DICTIONARY
5
17
100
AcDbDictionary
0
ENDSEC
0
EOF
