0
SECTION
2
HEADER
9
$INSUNITS
70
4
9
$ACADVER
1
AC1014
9
$HANDSEED
5
FFFF
0
ENDSEC
0
SECTION
2
TABLES
0
TABLE
2
VPORT
5
8
100
AcDbSymbolTable
0
ENDTAB
0
TABLE
2
LTYPE
5
5
100
AcDbSymbolTable
0
LTYPE
5
14
100
AcDbSymbolTableRecord
100
AcDbLinetypeTableRecord
2
BYBLOCK
70
0
0
LTYPE
5
15
100
AcDbSymbolTableRecord
100
AcDbLinetypeTableRecord
2
BYLAYER
70
0
0
LTYPE
5
16
100
AcDbSymbolTableRecord
100
AcDbLinetypeTableRecord
2
DASHED
70
0
3
Dashed __ __ __ __ __ __ __ __ __ __ __ __ __ _
72
65
73
2
40
0.75
49
0.5
74
0
49
-0.25
74
0
0
ENDTAB
0
TABLE
2
LAYER
5
2
100
AcDbSymbolTable
70
2
0
LAYER
5
50
100
AcDbSymbolTableRecord
100
AcDbLayerTableRecord
2
0
70
0
62
7
6
CONTINUOUS
0
ENDTAB
0
TABLE
2
STYLE
5
3
100
AcDbSymbolTable
70
1
0
STYLE
5
11
100
AcDbSymbolTableRecord
100
AcDbTextStyleTableRecord
2
STANDARD
70
0
0
ENDTAB
0
TABLE
2
VIEW
5
6
100
AcDbSymbolTable
70
0
0
ENDTAB
0
TABLE
2
UCS
5
7
100
AcDbSymbolTable
70
0
0
ENDTAB
0
TABLE
2
APPID
5
9
100
AcDbSymbolTable
70
2
0
APPID
5
12
100
AcDbSymbolTableRecord
100
AcDbRegAppTableRecord
2
ACAD
70
0
0
ENDTAB
0
TABLE
2
DIMSTYLE
5
A
100
AcDbSymbolTable
70
1
0
ENDTAB
0
TABLE
2
BLOCK_RECORD
5
1
100
AcDbSymbolTable
70
1
0
BLOCK_RECORD
5
1F
100
AcDbSymbolTableRecord
100
AcDbBlockTableRecord
2
*MODEL_SPACE
0
BLOCK_RECORD
5
1B
100
AcDbSymbolTableRecord
100
AcDbBlockTableRecord
2
*PAPER_SPACE
0
ENDTAB
0
ENDSEC
0
SECTION
2
BLOCKS
0
BLOCK
5
20
100
AcDbEntity
100
AcDbBlockBegin
2
*MODEL_SPACE
0
ENDBLK
5
21
100
AcDbEntity
100
AcDbBlockEnd
0
BLOCK
5
1C
100
AcDbEntity
100
AcDbBlockBegin
2
*PAPER_SPACE
0
ENDBLK
5
1D
100
AcDbEntity
100
AcDbBlockEnd
0
ENDSEC
0
SECTION
2
ENTITIES
0
CIRCLE
5
100
100
AcDbEntity
8
0
100
AcDbCircle
10
10.466910966566445
20
-3.4000000000000004
30
0
40
2.5
210
0
220
0
230
1
0
SPLINE
5
101
100
AcDbEntity
8
0
100
AcDbSpline
70
4
71
5
72
36
73
30
74
0
42
0.000000001
43
0.0000000001
44
0.0000000001
40
0
40
0
40
0
40
0
40
0
40
0
40
0.040000000000000001
40
0.080000000000000002
40
0.12
40
0.16
40
0.20000000000000001
40
0.24000000000000002
40
0.28000000000000003
40
0.32000000000000001
40
0.35999999999999999
40
0.39999999999999997
40
0.43999999999999995
40
0.47999999999999993
40
0.51999999999999991
40
0.55999999999999994
40
0.59999999999999998
40
0.64000000000000001
40
0.68000000000000005
40
0.72000000000000008
40
0.76000000000000012
40
0.80000000000000016
40
0.84000000000000019
40
0.88000000000000023
40
0.92000000000000026
40
0.9600000000000003
40
1
40
1
40
1
40
1
40
1
40
1
41
1
41
1
41
1
41
1
41
1
41
1
41
1
41
1
41
1
41
1
41
1
41
1
41
1
41
1
41
1
41
1
41
1
41
1
41
1
41
1
41
1
41
1
41
1
41
1
41
1
41
1
41
1
41
1
41
1
41
1
10
11.907837344036576
20
-1.3570288365444791
30
0
10
11.876535581361294
20
-1.3273217398863726
30
0
10
11.82324361969785
20
-1.2691771149735664
30
0
10
11.771240461300426
20
-1.1857688351185189
30
0
10
11.7579174842596
20
-1.0821953737757646
30
0
10
11.833194382291502
20
-0.96642672316180345
30
0
10
11.994599256228938
20
-0.86707434545668816
30
0
10
12.229366962554202
20
-0.78942299578415864
30
0
10
12.519558231432846
20
-0.7412429595787553
30
0
10
12.843725560872192
20
-0.73268499221340533
30
0
10
13.178556871467652
20
-0.77629422799075687
30
0
10
13.500478648052926
20
-0.88671987089794746
30
0
10
13.786998362467957
20
-1.0776373560187515
30
0
10
14.018158766782907
20
-1.3586701287184575
30
0
10
14.177821365122682
20
-1.7326176714426025
30
0
10
14.255480889515139
20
-2.1915394808129371
30
0
10
14.24631447637379
20
-2.7168887045059669
30
0
10
14.149656808707293
20
-3.2833005642939321
30
0
10
13.967996695040636
20
-3.8612432658611744
30
0
10
13.705830836640839
20
-4.4200866341578946
30
0
10
13.368658391369422
20
-4.9308971065850207
30
0
10
12.961932892538453
20
-5.3695143138265671
30
0
10
12.490169650463795
20
-5.7191314019030521
30
0
10
11.957035233193466
20
-5.968685395357074
30
0
10
11.365365569253097
20
-6.1117033537981671
30
0
10
10.717229891008213
20
-6.1450699575159105
30
0
10
10.154640852309003
20
-6.0833480864209726
30
0
10
9.7082381458213582
20
-5.9874561919236102
30
0
10
9.3997931237413432
20
-5.9015411151518666
30
0
10
9.2428598070712038
20
-5.8530867812826779
30
0
0
SPLINE
5
102
100
AcDbEntity
8
0
100
AcDbSpline
70
4
71
5
72
31
73
25
74
0
42
0.000000001
43
0.0000000001
44
0.0000000001
40
0
40
0
40
0
40
0
40
0
40
0
40
0.050000000000000003
40
0.10000000000000001
40
0.15000000000000002
40
0.20000000000000001
40
0.25
40
0.29999999999999999
40
0.34999999999999998
40
0.39999999999999997
40
0.44999999999999996
40
0.49999999999999994
40
0.54999999999999993
40
0.59999999999999998
40
0.65000000000000002
40
0.70000000000000007
40
0.75000000000000011
40
0.80000000000000016
40
0.8500000000000002
40
0.90000000000000024
40
0.95000000000000029
40
1
40
1
40
1
40
1
40
1
40
1
41
1
41
1
41
1
41
1
41
1
41
1
41
1
41
1
41
1
41
1
41
1
41
1
41
1
41
1
41
1
41
1
41
1
41
1
41
1
41
1
41
1
41
1
41
1
41
1
41
1
10
11.34434962765436
20
-1.0590383608379557
30
0
10
11.377263386236153
20
-1.0732201260233116
30
0
10
11.44216790054422
20
-1.0960966129063792
30
0
10
11.536752051291417
20
-1.1139518211801855
30
0
10
11.65732785417527
20
-1.1046913842274273
30
0
10
11.795605103105659
20
-1.0388503888159188
30
0
10
11.912578958627924
20
-0.92243031513267904
30
0
10
11.989490858435579
20
-0.76443337384347387
30
0
10
11.999501397682785
20
-0.57908581578882723
30
0
10
11.916655048655571
20
-0.3828153425915049
30
0
10
11.722365842441038
20
-0.19221569284374196
30
0
10
11.414651149946957
20
-0.021295145607353815
30
0
10
11.006042567300833
20
0.11867644823225233
30
0
10
10.51855257281326
20
0.21869850394112106
30
0
10
9.9799599643345225
20
0.2718361246586386
30
0
10
9.4196183425864017
20
0.27299561140463413
30
0
10
8.864905950084621
20
0.21876377743456649
30
0
10
8.3366139652264142
20
0.10737680165772359
30
0
10
7.8483290111889046
20
-0.061595785992429791
30
0
10
7.4084558293625253
20
-0.28775234090671503
30
0
10
7.021332502460317
20
-0.57023182654464466
30
0
10
6.7551423139831934
20
-0.84049962939484291
30
0
10
6.5800085163990021
20
-1.0677594219962174
30
0
10
6.4741015111829672
20
-1.2301366265363647
30
0
10
6.4238602052734031
20
-1.3140429009859589
30
0
0
SPLINE
5
103
100
AcDbEntity
8
0
100
AcDbSpline
70
4
71
5
72
46
73
40
74
0
42
0.000000001
43
0.0000000001
44
0.0000000001
40
0
40
0
40
0
40
0
40
0
40
0
40
0.028571428571428571
40
0.057142857142857141
40
0.085714285714285715
40
0.11428571428571428
40
0.14285714285714285
40
0.17142857142857143
40
0.20000000000000001
40
0.22857142857142859
40
0.25714285714285717
40
0.28571428571428575
40
0.31428571428571433
40
0.34285714285714292
40
0.3714285714285715
40
0.40000000000000008
40
0.42857142857142866
40
0.45714285714285724
40
0.48571428571428582
40
0.51428571428571435
40
0.54285714285714293
40
0.57142857142857151
40
0.60000000000000009
40
0.62857142857142867
40
0.65714285714285725
40
0.68571428571428583
40
0.71428571428571441
40
0.74285714285714299
40
0.77142857142857157
40
0.80000000000000016
40
0.82857142857142874
40
0.85714285714285732
40
0.8857142857142859
40
0.91428571428571448
40
0.94285714285714306
40
0.97142857142857164
40
1
40
1
40
1
40
1
40
1
40
1
41
1
41
1
41
1
41
1
41
1
41
1
41
1
41
1
41
1
41
1
41
1
41
1
41
1
41
1
41
1
41
1
41
1
41
1
41
1
41
1
41
1
41
1
41
1
41
1
41
1
41
1
41
1
41
1
41
1
41
1
41
1
41
1
41
1
41
1
41
1
41
1
41
1
41
1
41
1
41
1
10
13.393580102580867
20
-4.8579792459935458
30
0
10
13.450728179795606
20
-4.7929039106931981
30
0
10
13.560908935912861
20
-4.6567931061241756
30
0
10
13.71383442531757
20
-4.4347469946035165
30
0
10
13.893006163544621
20
-4.1028738118564441
30
0
10
14.076952272140542
20
-3.6299269788195905
30
0
10
14.224717246066525
20
-3.1040249912401641
30
0
10
14.344400206746069
20
-2.5359960562776367
30
0
10
14.449432183689808
20
-1.9439678265342923
30
0
10
14.561085603981173
20
-1.3562995472651538
30
0
10
14.704051387905261
20
-0.8082083633734517
30
0
10
14.899368457519282
20
-0.33585167154415074
30
0
10
15.157635391488553
20
0.029024439256067899
30
0
10
15.473283548717287
20
0.26412034217357477
30
0
10
15.815319106689333
20
0.3632047542125133
30
0
10
16.129958745639417
20
0.33727653900999433
30
0
10
16.364215915151885
20
0.2063628670268689
30
0
10
16.483287522320648
20
-0.0062428154006296012
30
0
10
16.493795959000035
20
-0.28120912599885961
30
0
10
16.428889463559564
20
-0.60360057229044273
30
0
10
16.3301432420301
20
-0.96251151366955257
30
0
10
16.227968132383893
20
-1.3511972528284599
30
0
10
16.131469459623041
20
-1.7663278876917166
30
0
10
16.036671671976837
20
-2.2059527968687029
30
0
10
15.930677340192492
20
-2.6676553177206079
30
0
10
15.797076618593223
20
-3.1468296054764182
30
0
10
15.62161341531376
20
-3.6343927738137447
30
0
10
15.393657216097218
20
-4.117207885292804
30
0
10
15.105146277300774
20
-4.5799576220134268
30
0
10
14.750349493901124
20
-5.0065747526165669
30
0
10
14.325312949901045
20
-5.3818041527102034
30
0
10
13.827449218453838
20
-5.6928269591936731
30
0
10
13.255115619072717
20
-5.9305370973105127
30
0
10
12.607436630477773
20
-6.0887433020736843
30
0
10
11.884097918711728
20
-6.1636572449415494
30
0
10
11.085163955899722
20
-6.1532934872227107
30
0
10
10.385750391446342
20
-6.0762011550730133
30
0
10
9.8274203712450774
20
-5.9796761541932621
30
0
10
9.4402114756920046
20
-5.898146514733563
30
0
10
9.2428598070712038
20
-5.8530867812826779
30
0
0
SPLINE
5
104
100
AcDbEntity
8
0
100
AcDbSpline
70
4
71
5
72
36
73
30
74
0
42
0.000000001
43
0.0000000001
44
0.0000000001
40
0
40
0
40
0
40
0
40
0
40
0
40
0.040000000000000001
40
0.080000000000000002
40
0.12
40
0.16
40
0.20000000000000001
40
0.24000000000000002
40
0.28000000000000003
40
0.32000000000000001
40
0.35999999999999999
40
0.39999999999999997
40
0.43999999999999995
40
0.47999999999999993
40
0.51999999999999991
40
0.55999999999999994
40
0.59999999999999998
40
0.64000000000000001
40
0.68000000000000005
40
0.72000000000000008
40
0.76000000000000012
40
0.80000000000000016
40
0.84000000000000019
40
0.88000000000000023
40
0.92000000000000026
40
0.9600000000000003
40
1
40
1
40
1
40
1
40
1
40
1
41
1
41
1
41
1
41
1
41
1
41
1
41
1
41
1
41
1
41
1
41
1
41
1
41
1
41
1
41
1
41
1
41
1
41
1
41
1
41
1
41
1
41
1
41
1
41
1
41
1
41
1
41
1
41
1
41
1
41
1
10
9.2428598070712038
20
-5.8530867812826779
30
0
10
9.4774699533395612
20
-5.9536977050459789
30
0
10
9.9363449430223021
20
-6.139096421095342
30
0
10
10.59361976868216
20
-6.3697254341860923
30
0
10
11.407764074651961
20
-6.5820420760860374
30
0
10
12.322864891679714
20
-6.6883917631254288
30
0
10
13.140710841077484
20
-6.6369842215654264
30
0
10
13.872774271244584
20
-6.4324572813744822
30
0
10
14.540536850962361
20
-6.0842288757970762
30
0
10
15.175145005539967
20
-5.6087498100516875
30
0
10
15.829164223693288
20
-5.0294769435973645
30
0
10
16.492793269264954
20
-4.4061639166898701
30
0
10
17.125932428816146
20
-3.80855232887706
30
0
10
17.676509335893428
20
-3.2988782421371834
30
0
10
18.102510096560778
20
-2.909791048803323
30
0
10
18.394790752006617
20
-2.626875384399205
30
0
10
18.597507533318623
20
-2.3593651515413265
30
0
10
18.681843956862686
20
-2.0553113744058966
30
0
10
18.60869212902664
20
-1.7115795380606891
30
0
10
18.356472407749646
20
-1.4299806139368452
30
0
10
17.945696141203516
20
-1.3819780979629286
30
0
10
17.418134818346363
20
-1.7067358405471256
30
0
10
16.834961009627985
20
-2.3298397256418086
30
0
10
16.250408163655557
20
-3.0406984487876381
30
0
10
15.696489426735846
20
-3.7493022041284041
30
0
10
15.193236316679632
20
-4.3836159219245525
30
0
10
14.838415469209655
20
-4.8094786254710034
30
0
10
14.600473819157633
20
-5.0778269552248592
30
0
10
14.454324361076642
20
-5.2342495428832496
30
0
10
14.384369836449748
20
-5.3068329260839935
30
0
0
SPLINE
5
105
100
AcDbEntity
8
0
100
AcDbSpline
70
4
71
5
72
31
73
25
74
0
42
0.000000001
43
0.0000000001
44
0.0000000001
40
0
40
0
40
0
40
0
40
0
40
0
40
0.050000000000000003
40
0.10000000000000001
40
0.15000000000000002
40
0.20000000000000001
40
0.25
40
0.29999999999999999
40
0.34999999999999998
40
0.39999999999999997
40
0.44999999999999996
40
0.49999999999999994
40
0.54999999999999993
40
0.59999999999999998
40
0.65000000000000002
40
0.70000000000000007
40
0.75000000000000011
40
0.80000000000000016
40
0.8500000000000002
40
0.90000000000000024
40
0.95000000000000029
40
1
40
1
40
1
40
1
40
1
40
1
41
1
41
1
41
1
41
1
41
1
41
1
41
1
41
1
41
1
41
1
41
1
41
1
41
1
41
1
41
1
41
1
41
1
41
1
41
1
41
1
41
1
41
1
41
1
41
1
41
1
10
9.2428598070712038
20
-5.8530867812826779
30
0
10
9.4448407166458068
20
-5.9588851923591255
30
0
10
9.8467471450753479
20
-6.1577879288862274
30
0
10
10.443445748100453
20
-6.4180588605035327
30
0
10
11.226626945357093
20
-6.6886175809590478
30
0
10
12.186164354831444
20
-6.8980583410257976
30
0
10
13.129738724259115
20
-6.9781799449447677
30
0
10
14.066208150061732
20
-6.9301160433398827
30
0
10
15.007768332150436
20
-6.7587861715305024
30
0
10
15.980000601268854
20
-6.4727926610206481
30
0
10
17.006701461001771
20
-6.0896286142960641
30
0
10
17.973305461989838
20
-5.6498675207107132
30
0
10
18.727732835673045
20
-5.2028862243896947
30
0
10
19.165748142824619
20
-4.7849845421807213
30
0
10
19.234372750865163
20
-4.4321187219477851
30
0
10
19.183323527848632
20
-4.1020603531337585
30
0
10
19.017331107138126
20
-3.8850519752370523
30
0
10
18.5108664569768
20
-3.9501506148886412
30
0
10
17.589615119726279
20
-4.35102720956883
30
0
10
16.431075202275348
20
-4.9664185253800426
30
0
10
15.338750636605186
20
-5.5884095862070478
30
0
10
14.792608640012467
20
-5.9024946247066801
30
0
10
14.694730530230014
20
-5.947282002971626
30
0
10
14.785079717900768
20
-5.8806183402417105
30
0
10
14.869152884537025
20
-5.8231574302949163
30
0
0
LINE
5
106
100
AcDbEntity
8
0
100
AcDbLine
10
-6.0412128910898391
20
-6.8423284191899603
30
0
11
-6.0412128910898391
21
-0.042328419189959082
31
0
0
LINE
5
107
100
AcDbEntity
8
0
100
AcDbLine
10
-6.0412128910898391
20
-6.8423284191899603
30
0
11
-1.0412128910898373
21
-6.8423284191899603
31
0
0
LINE
5
108
100
AcDbEntity
8
0
100
AcDbLine
10
-1.0412128910898373
20
-6.8423284191899603
30
0
11
-1.0412128910898391
21
-6.014042900985956
31
0
0
LINE
5
109
100
AcDbEntity
8
0
100
AcDbLine
10
-1.0412128910898391
20
-6.014042900985956
30
0
11
6.0000000894069672
21
-6.014042900985956
31
0
0
LINE
5
110
100
AcDbEntity
8
0
100
AcDbLine
10
-6.0412128910898391
20
-0.042328419189959082
30
0
11
-1.0412128910898388
21
-0.042328419189958305
31
0
0
LINE
5
111
100
AcDbEntity
8
0
100
AcDbLine
10
-1.0412128910898388
20
-0.042328419189958305
30
0
11
-1.0412128910898386
21
-1.3140429009859567
31
0
0
LINE
5
112
100
AcDbEntity
8
0
100
AcDbLine
10
-1.0412128910898386
20
-1.3140429009859567
30
0
11
6.4238602052734031
21
-1.3140429009859589
31
0
0
SPLINE
5
113
100
AcDbEntity
8
0
100
AcDbSpline
70
4
71
5
72
26
73
20
74
0
42
0.000000001
43
0.0000000001
44
0.0000000001
40
0
40
0
40
0
40
0
40
0
40
0
40
0.066666666666666666
40
0.13333333333333333
40
0.20000000000000001
40
0.26666666666666666
40
0.33333333333333331
40
0.39999999999999997
40
0.46666666666666662
40
0.53333333333333333
40
0.59999999999999998
40
0.66666666666666663
40
0.73333333333333328
40
0.79999999999999993
40
0.86666666666666659
40
0.93333333333333324
40
1
40
1
40
1
40
1
40
1
40
1
41
1
41
1
41
1
41
1
41
1
41
1
41
1
41
1
41
1
41
1
41
1
41
1
41
1
41
1
41
1
41
1
41
1
41
1
41
1
41
1
10
6.0000000894069672
20
-6.014042900985956
30
0
10
6.0768862093652265
20
-6.0680113350918159
30
0
10
6.2340843045132646
20
-6.1740716157584155
30
0
10
6.4801591453269829
20
-6.3275324221769136
30
0
10
6.8289626029172332
20
-6.5208045013759186
30
0
10
7.3002699204992014
20
-6.7426211946015293
30
0
10
7.8076649563371294
20
-6.9428906084421005
30
0
10
8.3514854609717837
20
-7.11877541821584
30
0
10
8.930870389759658
20
-7.2661194219052883
30
0
10
9.5438997908018735
20
-7.3797982564856444
30
0
10
10.188136585955769
20
-7.4543818761014169
30
0
10
10.860913364829143
20
-7.4848411233027603
30
0
10
11.559604662460812
20
-7.4672634850773756
30
0
10
12.281798380273417
20
-7.4000218079990319
30
0
10
13.025433631438222
20
-7.2833412632148047
30
0
10
13.788887936969756
20
-7.1183414598817674
30
0
10
14.414594577703383
20
-6.9488239289625309
30
0
10
14.891986490668778
20
-6.8011057982514771
30
0
10
15.213826962511224
20
-6.6935468928095032
30
0
10
15.375642002996665
20
-6.6374973731524278
30
0
0
ENDSEC
0
SECTION
2
OBJECTS
0
DICTIONARY
5
C
100
AcDbDictionary
3
ACAD_GROUP
350
D
3
ACAD_MLINESTYLE
350
17
0
DICTIONARY
5
D
100
AcDbDictionary
0
DICTIONARY
5
1A
330
C
100
AcDbDictionary
0
DICTIONARY
5
17
100
AcDbDictionary
0
ENDSEC
0
EOF
