                                                                        S      1
,,19HRemoteThumbstick v3,19HRemoteThumbstick v3,7Hunknown,7Hunknown,32, G      1
38,7,99,15,,1.,2,2HMM,1,0.08,15H20250912.001926,0.01,10000.,7Hunknown,7HG      2
unknown,11,0,15H20200218.015508;                                        G      3
     186       1                                                00000000D      1
     186            -343       1       0                               0D      2
     186       2                                                00000000D      3
     186            -343       1       0                               0D      4
     514       3                                                00010000D      5
     514                       2       1                               0D      6
     514       5                                                00010000D      7
     514                       1       1                               0D      8
     510       6                                                00010000D      9
     510            -343       1       1                               0D     10
     510       7                                                00010000D     11
     510            -343       1       1                               0D     12
     510       8                                                00010000D     13
     510            -343       1       1                               0D     14
     510       9                                                00010000D     15
     510            -343       1       1                               0D     16
     510      10                                                00010000D     17
     510            -343       1       1                               0D     18
     510      11                                                00010000D     19
     510            -343       1       1                               0D     20
     510      12                                                00010000D     21
     510            -343       1       1                               0D     22
     510      13                                                00010000D     23
     510            -343       1       1                               0D     24
     510      14                                                00010000D     25
     510            -343       1       1                               0D     26
     510      15                                                00010000D     27
     510            -343       1       1                               0D     28
     510      16                                                00010000D     29
     510            -343       1       1                               0D     30
     510      17                                                00010000D     31
     510            -343       1       1                               0D     32
     510      18                                                00010000D     33
     510            -343       1       1                               0D     34
     510      19                                                00010000D     35
     510            -343       1       1                               0D     36
     510      20                                                00010000D     37
     510            -343       1       1                               0D     38
     510      21                                                00010000D     39
     510            -343       1       1                               0D     40
     510      22                                                00010000D     41
     510            -343       1       1                               0D     42
     510      23                                                00010000D     43
     510            -343       1       1                               0D     44
     510      24                                                00010000D     45
     510            -343       1       1                               0D     46
     510      25                                                00010000D     47
     510            -343       1       1                               0D     48
     510      26                                                00010000D     49
     510            -343       1       1                               0D     50
     510      27                                                00010000D     51
     510            -343       1       1                               0D     52
     510      28                                                00010000D     53
     510            -343       1       1                               0D     54
     510      29                                                00010000D     55
     510            -343       1       1                               0D     56
     510      30                                                00010000D     57
     510            -343       1       1                               0D     58
     510      31                                                00010000D     59
     510            -343       1       1                               0D     60
     510      32                                                00010000D     61
     510            -343       1       1                               0D     62
     510      33                                                00010000D     63
     510            -343       1       1                               0D     64
     510      34                                                00010000D     65
     510            -343       1       1                               0D     66
     508      35                                                00010000D     67
     508                       1       1                               0D     68
     508      36                                                00010000D     69
     508                       1       1                               0D     70
     508      37                                                00010000D     71
     508                       2       1                               0D     72
     508      39                                                00010000D     73
     508                       2       1                               0D     74
     508      41                                                00010000D     75
     508                       1       1                               0D     76
     508      42                                                00010000D     77
     508                       2       1                               0D     78
     508      44                                                00010000D     79
     508                       1       1                               0D     80
     508      45                                                00010000D     81
     508                       1       1                               0D     82
     508      46                                                00010000D     83
     508                       1       1                               0D     84
     508      47                                                00010000D     85
     508                       1       1                               0D     86
     508      48                                                00010000D     87
     508                       1       1                               0D     88
     508      49                                                00010000D     89
     508                       1       1                               0D     90
     508      50                                                00010000D     91
     508                       1       1                               0D     92
     508      51                                                00010000D     93
     508                       1       1                               0D     94
     508      52                                                00010000D     95
     508                       1       1                               0D     96
     508      53                                                00010000D     97
     508                       1       1                               0D     98
     508      54                                                00010000D     99
     508                       1       1                               0D    100
     508      55                                                00010000D    101
     508                       3       1                               0D    102
     508      58                                                00010000D    103
     508                       4       1                               0D    104
     508      62                                                00010000D    105
     508                       1       1                               0D    106
     508      63                                                00010000D    107
     508                       1       1                               0D    108
     508      64                                                00010000D    109
     508                       1       1                               0D    110
     508      65                                                00010000D    111
     508                       1       1                               0D    112
     508      66                                                00010000D    113
     508                       1       1                               0D    114
     508      67                                                00010000D    115
     508                       1       1                               0D    116
     508      68                                                00010000D    117
     508                       1       1                               0D    118
     508      69                                                00010000D    119
     508                       1       1                               0D    120
     508      70                                                00010000D    121
     508                       2       1                               0D    122
     508      72                                                00010000D    123
     508                       2       1                               0D    124
     126      74                                                00010000D    125
     126       0               3       0                               0D    126
     126      77                                                00010000D    127
     126       0               2       0                               0D    128
     126      79                                                00010000D    129
     126       0               3       0                               0D    130
     126      82                                                00010000D    131
     126       0               3       0                               0D    132
     126      85                                                00010000D    133
     126       0               3       0                               0D    134
     126      88                                                00010000D    135
     126       0               2       0                               0D    136
     126      90                                                00010000D    137
     126       0               2       0                               0D    138
     126      92                                                00010000D    139
     126       0               3       0                               0D    140
     126      95                                                00010000D    141
     126       0               2       0                               0D    142
     126      97                                                00010000D    143
     126       0               2       0                               0D    144
     126      99                                                00010000D    145
     126       0               3       0                               0D    146
     126     102                                                00010000D    147
     126       0               2       0                               0D    148
     126     104                                                00010000D    149
     126       0               2       0                               0D    150
     126     106                                                00010000D    151
     126       0               2       0                               0D    152
     126     108                                                00010000D    153
     126       0               2       0                               0D    154
     126     110                                                00010000D    155
     126       0               2       0                               0D    156
     126     112                                                00010000D    157
     126       0               2       0                               0D    158
     126     114                                                00010000D    159
     126       0               2       0                               0D    160
     126     116                                                00010000D    161
     126       0               2       0                               0D    162
     126     118                                                00010000D    163
     126       0               2       0                               0D    164
     126     120                                                00010000D    165
     126       0               2       0                               0D    166
     126     122                                                00010000D    167
     126       0               2       0                               0D    168
     126     124                                                00010000D    169
     126       0               2       0                               0D    170
     126     126                                                00010000D    171
     126       0               2       0                               0D    172
     126     128                                                00010000D    173
     126       0               2       0                               0D    174
     126     130                                                00010000D    175
     126       0               2       0                               0D    176
     126     132                                                00010000D    177
     126       0               2       0                               0D    178
     126     134                                                00010000D    179
     126       0               2       0                               0D    180
     126     136                                                00010000D    181
     126       0               2       0                               0D    182
     126     138                                                00010000D    183
     126       0               2       0                               0D    184
     126     140                                                00010000D    185
     126       0               2       0                               0D    186
     126     142                                                00010000D    187
     126       0               2       0                               0D    188
     126     144                                                00010000D    189
     126       0               2       0                               0D    190
     126     146                                                00010000D    191
     126       0               2       0                               0D    192
     126     148                                                00010000D    193
     126       0               2       0                               0D    194
     126     150                                                00010000D    195
     126       0               2       0                               0D    196
     126     152                                                00010000D    197
     126       0               2       0                               0D    198
     126     154                                                00010000D    199
     126       0               2       0                               0D    200
     126     156                                                00010000D    201
     126       0               2       0                               0D    202
     126     158                                                00010000D    203
     126       0               2       0                               0D    204
     126     160                                                00010000D    205
     126       0               2       0                               0D    206
     126     162                                                00010000D    207
     126       0               2       0                               0D    208
     126     164                                                00010000D    209
     126       0               2       0                               0D    210
     126     166                                                00010000D    211
     126       0               2       0                               0D    212
     126     168                                                00010000D    213
     126       0               2       0                               0D    214
     126     170                                                00010000D    215
     126       0               2       0                               0D    216
     126     172                                                00010000D    217
     126       0               2       0                               0D    218
     126     174                                                00010000D    219
     126       0               2       0                               0D    220
     126     176                                                00010000D    221
     126       0               2       0                               0D    222
     126     178                                                00010000D    223
     126       0               2       0                               0D    224
     126     180                                                00010000D    225
     126       0               2       0                               0D    226
     126     182                                                00010000D    227
     126       0               2       0                               0D    228
     126     184                                                00010000D    229
     126       0               2       0                               0D    230
     126     186                                                00010000D    231
     126       0               2       0                               0D    232
     126     188                                                00010000D    233
     126       0               2       0                               0D    234
     126     190                                                00010000D    235
     126       0               2       0                               0D    236
     126     192                                                00010000D    237
     126       0               2       0                               0D    238
     126     194                                                00010000D    239
     126       0               2       0                               0D    240
     126     196                                                00010000D    241
     126       0               2       0                               0D    242
     126     198                                                00010000D    243
     126       0               2       0                               0D    244
     126     200                                                00010000D    245
     126       0               2       0                               0D    246
     126     202                                                00010000D    247
     126       0               2       0                               0D    248
     126     204                                                00010000D    249
     126       0               2       0                               0D    250
     126     206                                                00010000D    251
     126       0               2       0                               0D    252
     126     208                                                00010000D    253
     126       0               3       0                               0D    254
     126     211                                                00010000D    255
     126       0               3       0                               0D    256
     126     214                                                00010000D    257
     126       0               3       0                               0D    258
     126     217                                                00010000D    259
     126       0               3       0                               0D    260
     126     220                                                00010000D    261
     126       0               3       0                               0D    262
     126     223                                                00010000D    263
     126       0               3       0                               0D    264
     126     226                                                00010000D    265
     126       0               4       0                               0D    266
     126     230                                                00010000D    267
     126       0               4       0                               0D    268
     126     234                                                00010000D    269
     126       0               2       0                               0D    270
     126     236                                                00010000D    271
     126       0               2       0                               0D    272
     128     238                                                00010000D    273
     128       0    -343       6       0                               0D    274
     128     244                                                00010000D    275
     128       0    -343       5       0                               0D    276
     128     249                                                00010000D    277
     128       0    -343       4       0                               0D    278
     128     253                                                00010000D    279
     128       0    -343       4       0                               0D    280
     128     257                                                00010000D    281
     128       0    -343       3       0                               0D    282
     128     260                                                00010000D    283
     128       0    -343       4       0                               0D    284
     128     264                                                00010000D    285
     128       0    -343       3       0                               0D    286
     128     267                                                00010000D    287
     128       0    -343       4       0                               0D    288
     128     271                                                00010000D    289
     128       0    -343       3       0                               0D    290
     128     274                                                00010000D    291
     128       0    -343       3       0                               0D    292
     128     277                                                00010000D    293
     128       0    -343       3       0                               0D    294
     128     280                                                00010000D    295
     128       0    -343       3       0                               0D    296
     128     283                                                00010000D    297
     128       0    -343       4       0                               0D    298
     128     287                                                00010000D    299
     128       0    -343       3       0                               0D    300
     128     290                                                00010000D    301
     128       0    -343       3       0                               0D    302
     128     293                                                00010000D    303
     128       0    -343       3       0                               0D    304
     128     296                                                00010000D    305
     128       0    -343       4       0                               0D    306
     128     300                                                00010000D    307
     128       0    -343       4       0                               0D    308
     128     304                                                00010000D    309
     128       0    -343       3       0                               0D    310
     128     307                                                00010000D    311
     128       0    -343       3       0                               0D    312
     128     310                                                00010000D    313
     128       0    -343       3       0                               0D    314
     128     313                                                00010000D    315
     128       0    -343       3       0                               0D    316
     128     316                                                00010000D    317
     128       0    -343       3       0                               0D    318
     128     319                                                00010000D    319
     128       0    -343       6       0                               0D    320
     128     325                                                00010000D    321
     128       0    -343       6       0                               0D    322
     128     331                                                00010000D    323
     128       0    -343       6       0                               0D    324
     128     337                                                00010000D    325
     128       0    -343       3       0                               0D    326
     128     340                                                00010000D    327
     128       0    -343       3       0                               0D    328
     128     343                                                00010000D    329
     128       0    -343       3       0                               0D    330
     502     346                                                00010000D    331
     502                       9       1                               0D    332
     502     355                                                00010000D    333
     502                       6       1                               0D    334
     504     361                                                00010001D    335
     504                      15       1                               0D    336
     504     376                                                00010001D    337
     504                       7       1                               0D    338
     406     383                                                00000000D    339
     406                       1      15                               0D    340
     406     384                                                00000000D    341
     406                       1      15                               0D    342
     314     385                                                00000200D    343
     314                       2       0                               0D    344
186,5,1,0,0,1,339;                                                     1P      1
186,7,1,0,0,1,341;                                                     3P      2
514,19,9,1,11,1,13,1,15,1,17,1,19,1,21,1,23,1,25,1,27,1,29,1,31,       5P      3
1,33,1,35,1,37,1,39,1,41,1,43,1,45,1;                                  5P      4
514,10,47,1,49,1,51,1,53,1,55,1,57,1,59,1,61,1,63,1,65,1;              7P      5
510,273,1,1,67;                                                        9P      6
510,275,1,1,69;                                                       11P      7
510,277,1,1,71;                                                       13P      8
510,279,1,1,73;                                                       15P      9
510,281,1,1,75;                                                       17P     10
510,283,1,1,77;                                                       19P     11
510,285,1,1,79;                                                       21P     12
510,287,1,1,81;                                                       23P     13
510,289,1,1,83;                                                       25P     14
510,291,1,1,85;                                                       27P     15
510,293,1,1,87;                                                       29P     16
510,295,1,1,89;                                                       31P     17
510,297,1,1,91;                                                       33P     18
510,299,1,1,93;                                                       35P     19
510,301,1,1,95;                                                       37P     20
510,303,1,1,97;                                                       39P     21
510,305,1,1,99;                                                       41P     22
510,307,1,1,101;                                                      43P     23
510,309,1,1,103;                                                      45P     24
510,311,1,1,105;                                                      47P     25
510,313,1,1,107;                                                      49P     26
510,315,1,1,109;                                                      51P     27
510,317,1,1,111;                                                      53P     28
510,319,1,1,113;                                                      55P     29
510,321,1,1,115;                                                      57P     30
510,323,1,1,117;                                                      59P     31
510,325,1,1,119;                                                      61P     32
510,327,1,1,121;                                                      63P     33
510,329,1,1,123;                                                      65P     34
508,4,0,335,1,0,0,0,335,2,0,0,0,335,3,0,0,0,335,4,0,0;                67P     35
508,4,0,335,2,1,0,0,335,5,1,0,0,335,6,0,0,0,335,7,0,0;                69P     36
508,5,0,335,8,0,0,0,335,9,1,0,0,335,10,0,0,0,335,5,0,0,0,335,1,       71P     37
1,0;                                                                  71P     38
508,5,0,335,11,0,0,0,335,3,1,0,0,335,7,1,0,0,335,12,0,0,0,335,        73P     39
13,0,0;                                                               73P     40
508,4,0,335,12,1,0,0,335,6,1,0,0,335,10,1,0,0,335,14,1,0;             75P     41
508,8,0,335,11,1,0,0,335,15,1,0,0,335,16,1,0,0,335,17,0,0,0,335,      77P     42
18,0,0,0,335,19,1,0,0,335,8,1,0,0,335,4,1,0;                          77P     43
508,4,0,335,20,0,0,0,335,21,1,0,0,335,22,0,0,0,335,23,0,0;            79P     44
508,4,0,335,24,0,0,0,335,25,1,0,0,335,26,0,0,0,335,27,0,0;            81P     45
508,4,0,335,26,1,0,0,335,28,1,0,0,335,22,1,0,0,335,29,1,0;            83P     46
508,4,0,335,20,1,0,0,335,30,1,0,0,335,31,1,0,0,335,32,0,0;            85P     47
508,4,0,335,24,1,0,0,335,33,0,0,0,335,34,0,0,0,335,35,1,0;            87P     48
508,4,0,335,36,0,0,0,335,37,1,0,0,335,38,0,0,0,335,39,0,0;            89P     49
508,4,0,335,40,0,0,0,335,41,1,0,0,335,42,0,0,0,335,43,0,0;            91P     50
508,4,0,335,44,1,0,0,335,42,1,0,0,335,45,1,0,0,335,38,1,0;            93P     51
508,4,0,335,36,1,0,0,335,46,1,0,0,335,34,1,0,0,335,47,0,0;            95P     52
508,4,0,335,40,1,0,0,335,48,0,0,0,335,16,0,0,0,335,49,1,0;            97P     53
508,4,0,335,50,1,0,0,335,18,1,0,0,335,51,0,0,0,335,31,0,0;            99P     54
508,12,0,335,17,1,0,0,335,48,1,0,0,335,43,1,0,0,335,44,0,0,0,        101P     55
335,37,0,0,0,335,47,1,0,0,335,33,1,0,0,335,27,1,0,0,335,29,0,0,      101P     56
0,335,21,0,0,0,335,32,1,0,0,335,51,1,0;                              101P     57
508,16,0,335,19,0,0,0,335,50,0,0,0,335,30,0,0,0,335,23,1,0,0,        103P     58
335,28,0,0,0,335,25,0,0,0,335,35,0,0,0,335,46,0,0,0,335,39,1,0,      103P     59
0,335,45,0,0,0,335,41,0,0,0,335,49,0,0,0,335,15,0,0,0,335,13,1,      103P     60
0,0,335,14,0,0,0,335,9,0,0;                                          103P     61
508,4,0,337,1,0,0,0,337,2,1,0,0,337,3,0,0,0,337,4,0,0;               105P     62
508,4,0,337,5,0,0,0,337,4,1,0,0,337,6,0,0,0,337,7,0,0;               107P     63
508,4,0,337,8,0,0,0,337,7,1,0,0,337,9,0,0,0,337,10,0,0;              109P     64
508,4,0,337,11,0,0,0,337,10,1,0,0,337,12,0,0,0,337,13,0,0;           111P     65
508,4,0,337,14,0,0,0,337,13,1,0,0,337,15,0,0,0,337,16,0,0;           113P     66
508,4,0,337,17,0,0,0,337,16,1,0,0,337,18,0,0,0,337,19,0,0;           115P     67
508,4,0,337,20,0,0,0,337,19,1,0,0,337,21,0,0,0,337,13,0,0;           117P     68
508,4,0,337,22,0,0,0,337,13,1,0,0,337,23,0,0,0,337,2,0,0;            119P     69
508,8,0,337,23,1,0,0,337,21,1,0,0,337,18,1,0,0,337,15,1,0,0,337,     121P     70
12,1,0,0,337,9,1,0,0,337,6,1,0,0,337,3,1,0;                          121P     71
508,8,0,337,22,1,0,0,337,1,1,0,0,337,5,1,0,0,337,8,1,0,0,337,11,     123P     72
1,0,0,337,14,1,0,0,337,17,1,0,0,337,20,1,0;                          123P     73
126,1,1,0,0,1,0,0.,0.,0.511517915687337,0.511517915687337,1.,1.,     125P     74
3.7500774620429,5.,10.9,0.,8.47878956471783,10.9,0.,                 125P     75
0.511517915687337,0.,0.,0.;                                          125P     76
126,1,1,0,0,1,0,-0.43,-0.43,0.43,0.43,1.,1.,3.7500774620429,5.,      127P     77
2.3,3.7500774620429,5.,10.9,-0.43,0.43,0.,0.,0.;                     127P     78
126,1,1,0,0,1,0,-0.511517915687337,-0.511517915687337,0.,0.,1.,      129P     79
1.,0.,8.47878956471783,2.3,3.7500774620429,5.,2.3,                   129P     80
-0.511517915687337,0.,0.,0.,0.;                                      129P     81
126,1,1,0,0,1,0,0.115,0.115,0.975,0.975,1.,1.,                       131P     82
2.77555756156289D-16,8.47878956471783,10.9,2.77555756156289D-16,     131P     83
8.47878956471783,2.3,0.115,0.975,0.,0.,0.;                           131P     84
126,1,1,0,0,1,0,0.37500774620429,0.37500774620429,0.5,0.5,1.,1.,     133P     85
3.7500774620429,5.,10.9,5.,5.,10.9,0.37500774620429,0.5,0.,0.,       133P     86
0.;                                                                  133P     87
126,1,1,0,0,1,0,-0.86,-0.86,0.,0.,1.,1.,5.,5.,2.3,5.,5.,10.9,        135P     88
-0.86,0.,0.,0.,0.;                                                   135P     89
126,1,1,0,0,1,0,0.37500774620429,0.37500774620429,0.5,0.5,1.,1.,     137P     90
3.7500774620429,5.,2.3,5.,5.,2.3,0.37500774620429,0.5,0.,0.,0.;      137P     91
126,1,1,0,0,1,0,-0.25,-0.25,0.597878956471783,0.597878956471783,     139P     92
1.,1.,0.,0.,10.9,0.,8.47878956471783,10.9,-0.25,                     139P     93
0.597878956471783,0.,0.,0.;                                          139P     94
126,1,1,0,0,1,0,0.,0.,0.5,0.5,1.,1.,0.,0.,10.9,5.,0.,10.9,0.,        141P     95
0.5,0.,0.,0.;                                                        141P     96
126,1,1,0,0,1,0,-0.5,-0.5,0.,0.,1.,1.,5.,5.,10.9,5.,0.,10.9,         143P     97
-0.5,0.,0.,0.,0.;                                                    143P     98
126,1,1,0,0,1,0,-0.510909217353837,-0.510909217353837,               145P     99
0.336969739117946,0.336969739117946,1.,1.,0.,8.47878956471783,       145P    100
2.3,0.,0.,2.3,-0.510909217353837,0.336969739117946,0.,0.,0.;         145P    101
126,1,1,0,0,1,0,-0.5,-0.5,0.,0.,1.,1.,5.,0.,2.3,5.,5.,2.3,-0.5,      147P    102
0.,0.,0.,0.;                                                         147P    103
126,1,1,0,0,1,0,0.,0.,0.5,0.5,1.,1.,0.,0.,2.3,5.,0.,2.3,0.,0.5,      149P    104
0.,0.,0.;                                                            149P    105
126,1,1,0,0,1,0,-0.86,-0.86,0.,0.,1.,1.,5.,0.,10.9,5.,0.,2.3,        151P    106
-0.86,0.,0.,0.,0.;                                                   151P    107
126,1,1,0,0,1,0,1.09,1.09,1.32,1.32,1.,1.,0.,0.,2.3,0.,0.,0.,        153P    108
1.09,1.32,0.,0.,0.;                                                  153P    109
126,1,1,0,0,1,0,0.,0.,1.2,1.2,1.,1.,0.,0.,0.,0.,12.,0.,0.,1.2,       155P    110
0.,0.,0.;                                                            155P    111
126,1,1,0,0,1,0,0.,0.,1.32,1.32,1.,1.,0.,12.,13.2,0.,12.,0.,0.,      157P    112
1.32,0.,0.,0.;                                                       157P    113
126,1,1,0,0,1,0,0.,0.,1.2,1.2,1.,1.,0.,0.,13.2,0.,12.,13.2,0.,       159P    114
1.2,0.,0.,0.;                                                        159P    115
126,1,1,0,0,1,0,0.,0.,0.23,0.23,1.,1.,0.,0.,13.2,0.,0.,10.9,0.,      161P    116
0.23,0.,0.,0.;                                                       161P    117
126,1,1,0,0,1,0,-1.2,-1.2,0.,0.,1.,1.,-13.2,12.,11.4,-13.2,0.,       163P    118
11.4,-1.2,0.,0.,0.,0.;                                               163P    119
126,1,1,0,0,1,0,0.,0.,0.3,0.3,1.,1.,-13.2,12.,11.4,-16.2,12.,        165P    120
11.4,0.,0.3,0.,0.,0.;                                                165P    121
126,1,1,0,0,1,0,-1.2,-1.2,0.,0.,1.,1.,-16.2,0.,11.4,-16.2,12.,       167P    122
11.4,-1.2,0.,0.,0.,0.;                                               167P    123
126,1,1,0,0,1,0,0.,0.,0.3,0.3,1.,1.,-13.2,0.,11.4,-16.2,0.,11.4,     169P    124
0.,0.3,0.,0.,0.;                                                     169P    125
126,1,1,0,0,1,0,-0.6,-0.6,0.6,0.6,1.,1.,-13.2,0.,1.8,-13.2,12.,      171P    126
1.8,-0.6,0.6,0.,0.,0.;                                               171P    127
126,1,1,0,0,1,0,0.,0.,0.3,0.3,1.,1.,-13.2,0.,1.8,-16.2,0.,1.8,       173P    128
0.,0.3,0.,0.,0.;                                                     173P    129
126,1,1,0,0,1,0,-1.2,-1.2,0.,0.,1.,1.,-16.2,12.,1.8,-16.2,0.,        175P    130
1.8,-1.2,0.,0.,0.,0.;                                                175P    131
126,1,1,0,0,1,0,0.,0.,0.3,0.3,1.,1.,-13.2,12.,1.8,-16.2,12.,1.8,     177P    132
0.,0.3,0.,0.,0.;                                                     177P    133
126,1,1,0,0,1,0,-0.96,-0.96,0.,0.,1.,1.,-16.2,0.,1.8,-16.2,0.,       179P    134
11.4,-0.96,0.,0.,0.,0.;                                              179P    135
126,1,1,0,0,1,0,-0.96,-0.96,0.,0.,1.,1.,-16.2,12.,11.4,-16.2,        181P    136
12.,1.8,-0.96,0.,0.,0.,0.;                                           181P    137
126,1,1,0,0,1,0,1.14,1.14,1.32,1.32,1.,1.,-13.2,0.,11.4,-13.2,       183P    138
0.,13.2,1.14,1.32,0.,0.,0.;                                          183P    139
126,1,1,0,0,1,0,0.,0.,1.2,1.2,1.,1.,-13.2,0.,13.2,-13.2,12.,         185P    140
13.2,0.,1.2,0.,0.,0.;                                                185P    141
126,1,1,0,0,1,0,1.14,1.14,1.32,1.32,1.,1.,-13.2,12.,11.4,-13.2,      187P    142
12.,13.2,1.14,1.32,0.,0.,0.;                                         187P    143
126,1,1,0,0,1,0,0.,0.,0.18,0.18,1.,1.,-13.2,12.,0.,-13.2,12.,        189P    144
1.8,0.,0.18,0.,0.,0.;                                                189P    145
126,1,1,0,0,1,0,0.,0.,1.2,1.2,1.,1.,-13.2,0.,0.,-13.2,12.,0.,0.,     191P    146
1.2,0.,0.,0.;                                                        191P    147
126,1,1,0,0,1,0,0.,0.,0.18,0.18,1.,1.,-13.2,0.,0.,-13.2,0.,1.8,      193P    148
0.,0.18,0.,0.,0.;                                                    193P    149
126,1,1,0,0,1,0,-1.2,-1.2,0.,0.,1.,1.,-11.4,12.,0.,-11.4,0.,0.,      195P    150
-1.2,0.,0.,0.,0.;                                                    195P    151
126,1,1,0,0,1,0,0.,0.,0.3,0.3,1.,1.,-11.4,12.,0.,-11.4,12.,-3.,      197P    152
0.,0.3,0.,0.,0.;                                                     197P    153
126,1,1,0,0,1,0,-1.2,-1.2,0.,0.,1.,1.,-11.4,0.,-3.,-11.4,12.,        199P    154
-3.,-1.2,0.,0.,0.,0.;                                                199P    155
126,1,1,0,0,1,0,0.,0.,0.3,0.3,1.,1.,-11.4,0.,0.,-11.4,0.,-3.,0.,     201P    156
0.3,0.,0.,0.;                                                        201P    157
126,1,1,0,0,1,0,-0.6,-0.6,0.6,0.6,1.,1.,-1.8,0.,0.,-1.8,12.,0.,      203P    158
-0.6,0.6,0.,0.,0.;                                                   203P    159
126,1,1,0,0,1,0,0.,0.,0.3,0.3,1.,1.,-1.8,0.,0.,-1.8,0.,-3.,0.,       205P    160
0.3,0.,0.,0.;                                                        205P    161
126,1,1,0,0,1,0,-1.2,-1.2,0.,0.,1.,1.,-1.8,12.,-3.,-1.8,0.,-3.,      207P    162
-1.2,0.,0.,0.,0.;                                                    207P    163
126,1,1,0,0,1,0,0.,0.,0.3,0.3,1.,1.,-1.8,12.,0.,-1.8,12.,-3.,0.,     209P    164
0.3,0.,0.,0.;                                                        209P    165
126,1,1,0,0,1,0,-0.96,-0.96,0.,0.,1.,1.,-11.4,12.,-3.,-1.8,12.,      211P    166
-3.,-0.96,0.,0.,0.,0.;                                               211P    167
126,1,1,0,0,1,0,-0.96,-0.96,0.,0.,1.,1.,-1.8,0.,-3.,-11.4,0.,        213P    168
-3.,-0.96,0.,0.,0.,0.;                                               213P    169
126,1,1,0,0,1,0,1.14,1.14,1.32,1.32,1.,1.,-11.4,0.,0.,-13.2,0.,      215P    170
0.,1.14,1.32,0.,0.,0.;                                               215P    171
126,1,1,0,0,1,0,1.14,1.14,1.32,1.32,1.,1.,-11.4,12.,0.,-13.2,        217P    172
12.,0.,1.14,1.32,0.,0.,0.;                                           217P    173
126,1,1,0,0,1,0,0.,0.,0.18,0.18,1.,1.,0.,12.,0.,-1.8,12.,0.,0.,      219P    174
0.18,0.,0.,0.;                                                       219P    175
126,1,1,0,0,1,0,0.,0.,0.18,0.18,1.,1.,0.,0.,0.,-1.8,0.,0.,0.,        221P    176
0.18,0.,0.,0.;                                                       221P    177
126,1,1,0,0,1,0,0.,0.,1.32,1.32,1.,1.,-13.2,0.,13.2,0.,0.,13.2,      223P    178
0.,1.32,0.,0.,0.;                                                    223P    179
126,1,1,0,0,1,0,0.,0.,1.32,1.32,1.,1.,-13.2,12.,13.2,0.,12.,         225P    180
13.2,0.,1.32,0.,0.,0.;                                               225P    181
126,1,1,0,0,1,0,0.,0.,0.39,0.39,1.,1.,-8.05,12.,8.55,-8.05,12.,      227P    182
4.65,0.,0.39,0.,0.,0.;                                               227P    183
126,1,1,0,0,1,0,0.,0.,0.77,0.77,1.,1.,-8.05,12.,8.55,-8.05,19.7,     229P    184
8.55,0.,0.77,0.,0.,0.;                                               229P    185
126,1,1,0,0,1,0,-0.39,-0.39,0.,0.,1.,1.,-8.05,19.7,4.65,-8.05,       231P    186
19.7,8.55,-0.39,0.,0.,0.,0.;                                         231P    187
126,1,1,0,0,1,0,0.,0.,0.77,0.77,1.,1.,-8.05,12.,4.65,-8.05,19.7,     233P    188
4.65,0.,0.77,0.,0.,0.;                                               233P    189
126,1,1,0,0,1,0,0.,0.,0.29,0.29,1.,1.,-8.05,12.,4.65,-5.15,12.,      235P    190
4.65,0.,0.29,0.,0.,0.;                                               235P    191
126,1,1,0,0,1,0,-0.29,-0.29,0.,0.,1.,1.,-5.15,19.7,4.65,-8.05,       237P    192
19.7,4.65,-0.29,0.,0.,0.,0.;                                         237P    193
126,1,1,0,0,1,0,0.,0.,0.77,0.77,1.,1.,-5.15,12.,4.65,-5.15,19.7,     239P    194
4.65,0.,0.77,0.,0.,0.;                                               239P    195
126,1,1,0,0,1,0,0.,0.,0.39,0.39,1.,1.,-5.15,12.,4.65,-5.15,12.,      241P    196
8.55,0.,0.39,0.,0.,0.;                                               241P    197
126,1,1,0,0,1,0,-0.39,-0.39,0.,0.,1.,1.,-5.15,19.7,8.55,-5.15,       243P    198
19.7,4.65,-0.39,0.,0.,0.,0.;                                         243P    199
126,1,1,0,0,1,0,0.,0.,0.77,0.77,1.,1.,-5.15,12.,8.55,-5.15,19.7,     245P    200
8.55,0.,0.77,0.,0.,0.;                                               245P    201
126,1,1,0,0,1,0,0.,0.,0.145,0.145,1.,1.,-5.15,12.,8.55,-6.6,12.,     247P    202
8.55,0.,0.145,0.,0.,0.;                                              247P    203
126,1,1,0,0,1,0,-0.145,-0.145,0.,0.,1.,1.,-6.6,19.7,8.55,-5.15,      249P    204
19.7,8.55,-0.145,0.,0.,0.,0.;                                        249P    205
126,1,1,0,0,1,0,0.,0.,0.77,0.77,1.,1.,-6.6,12.,8.55,-6.6,19.7,       251P    206
8.55,0.,0.77,0.,0.,0.;                                               251P    207
126,1,1,0,0,1,0,0.,0.,0.329564833248056,0.329564833248056,1.,1.,     253P    208
-6.6,12.,8.55,-5.4515053606985,12.,5.4609454529132,0.,               253P    209
0.329564833248056,0.,0.,0.;                                          253P    210
126,1,1,0,0,1,0,-0.329564833248056,-0.329564833248056,0.,0.,1.,      255P    211
1.,-5.4515053606985,19.7,5.4609454529132,-6.6,19.7,8.55,             255P    212
-0.329564833248056,0.,0.,0.,0.;                                      255P    213
126,1,1,0,0,1,0,0.,0.,0.77,0.77,1.,1.,-5.4515053606985,12.,          257P    214
5.4609454529132,-5.4515053606985,19.7,5.4609454529132,0.,0.77,       257P    215
0.,0.,0.;                                                            257P    216
126,1,1,0,0,1,0,0.,0.,0.229698927860301,0.229698927860301,1.,1.,     259P    217
-5.4515053606985,12.,5.4609454529132,-7.7484946393015,12.,           259P    218
5.4609454529132,0.,0.229698927860301,0.,0.,0.;                       259P    219
126,1,1,0,0,1,0,-0.229698927860301,-0.229698927860301,0.,0.,1.,      261P    220
1.,-7.7484946393015,19.7,5.4609454529132,-5.4515053606985,19.7,      261P    221
5.4609454529132,-0.229698927860301,0.,0.,0.,0.;                      261P    222
126,1,1,0,0,1,0,0.,0.,0.77,0.77,1.,1.,-7.7484946393015,12.,          263P    223
5.4609454529132,-7.7484946393015,19.7,5.4609454529132,0.,0.77,       263P    224
0.,0.,0.;                                                            263P    225
126,1,1,0,0,1,0,0.0865180911792744,0.0865180911792744,               265P    226
0.416082924427331,0.416082924427331,1.,1.,-7.7484946393015,12.,      265P    227
5.4609454529132,-6.6,12.,8.55,0.0865180911792744,                    265P    228
0.416082924427331,0.,0.,0.;                                          265P    229
126,1,1,0,0,1,0,-0.416082924427331,-0.416082924427331,               267P    230
-0.0865180911792744,-0.0865180911792744,1.,1.,-6.6,19.7,8.55,        267P    231
-7.7484946393015,19.7,5.4609454529132,-0.416082924427331,            267P    232
-0.0865180911792744,0.,0.,0.;                                        267P    233
126,1,1,0,0,1,0,0.145,0.145,0.29,0.29,1.,1.,-6.6,12.,8.55,-8.05,     269P    234
12.,8.55,0.145,0.29,0.,0.,0.;                                        269P    235
126,1,1,0,0,1,0,-0.29,-0.29,-0.145,-0.145,1.,1.,-8.05,19.7,8.55,     271P    236
-6.6,19.7,8.55,-0.29,-0.145,0.,0.,0.;                                271P    237
128,1,1,1,1,0,0,1,0,0,-0.001,-0.001,0.512517915687337,               273P    238
0.512517915687337,-0.001,-0.001,0.861,0.861,1.,1.,1.,1.,             273P    239
-0.00733127295649819,8.48559047912968,10.91,3.75740873499939,        273P    240
4.99319908558815,10.91,-0.00733127295649819,8.48559047912968,        273P    241
2.29,3.75740873499939,4.99319908558815,2.29,-0.001,                  273P    242
0.512517915687337,-0.001,0.861;                                      273P    243
128,1,1,1,1,0,0,1,0,0,-0.00100000000000011,-0.00100000000000011,     275P    244
0.861,0.861,0.37400774620429,0.37400774620429,0.501,0.501,1.,1.,     275P    245
1.,1.,3.7400774620429,5.,2.29,3.7400774620429,5.,10.91,5.01,5.,      275P    246
2.29,5.01,5.,10.91,-0.00100000000000011,0.861,0.37400774620429,      275P    247
0.501;                                                               275P    248
128,1,1,1,1,0,0,1,0,0,-0.348878956471783,-0.348878956471783,         277P    249
0.501,0.501,-0.001,-0.001,0.501,0.501,1.,1.,1.,1.,-0.01,             277P    250
8.48878956471783,10.9,-0.01,-0.01,10.9,5.01,8.48878956471783,        277P    251
10.9,5.01,-0.01,10.9,-0.348878956471783,0.501,-0.001,0.501;          277P    252
128,1,1,1,1,0,0,1,0,0,-0.001,-0.001,0.848878956471783,               279P    253
0.848878956471783,-0.001,-0.001,0.501,0.501,1.,1.,1.,1.,-0.01,       279P    254
-0.01,2.3,-0.01,8.48878956471783,2.3,5.01,-0.01,2.3,5.01,            279P    255
8.48878956471783,2.3,-0.001,0.848878956471783,-0.001,0.501;          279P    256
128,1,1,1,1,0,0,1,0,0,-0.431,-0.431,0.431,0.431,-0.251,-0.251,       281P    257
0.251,0.251,1.,1.,1.,1.,5.,-0.01,10.91,5.,-0.01,2.29,5.,5.01,        281P    258
10.91,5.,5.01,2.29,-0.431,0.431,-0.251,0.251;                        281P    259
128,1,1,1,1,0,0,1,0,0,-0.001,-0.001,1.321,1.321,-0.001,-0.001,       283P    260
1.201,1.201,1.,1.,1.,1.,0.,-0.01,13.21,0.,-0.01,                     283P    261
-0.0099999999999989,0.,12.01,13.21,0.,12.01,-0.0099999999999989,     283P    262
-0.001,1.321,-0.001,1.201;                                           283P    263
128,1,1,1,1,0,0,1,0,0,-0.001,-0.001,1.201,1.201,-0.001,-0.001,       285P    264
0.301,0.301,1.,1.,1.,1.,-13.19,-0.01,11.4,-13.19,12.01,11.4,         285P    265
-16.21,-0.01,11.4,-16.21,12.01,11.4,-0.001,1.201,-0.001,0.301;       285P    266
128,1,1,1,1,0,0,1,0,0,-0.001,-0.001,1.201,1.201,-0.001,-0.001,       287P    267
0.301,0.301,1.,1.,1.,1.,-13.19,12.01,1.8,-13.19,                     287P    268
-0.0099999999999989,1.8,-16.21,12.01,1.8,-16.21,                     287P    269
-0.0099999999999989,1.8,-0.001,1.201,-0.001,0.301;                   287P    270
128,1,1,1,1,0,0,1,0,0,-0.481,-0.481,0.481,0.481,-0.601,-0.601,       289P    271
0.601,0.601,1.,1.,1.,1.,-16.2,-0.01,1.79,-16.2,-0.01,11.41,          289P    272
-16.2,12.01,1.79,-16.2,12.01,11.41,-0.481,0.481,-0.601,0.601;        289P    273
128,1,1,1,1,0,0,1,0,0,1.139,1.139,1.321,1.321,-0.001,-0.001,         291P    274
1.201,1.201,1.,1.,1.,1.,-13.2,-0.01,11.39,-13.2,-0.01,13.21,         291P    275
-13.2,12.01,11.39,-13.2,12.01,13.21,1.139,1.321,-0.001,1.201;        291P    276
128,1,1,1,1,0,0,1,0,0,-0.001,-0.001,0.181,0.181,-0.001,-0.001,       293P    277
1.201,1.201,1.,1.,1.,1.,-13.2,-0.01,-0.01,-13.2,-0.01,1.81,          293P    278
-13.2,12.01,-0.01,-13.2,12.01,1.81,-0.001,0.181,-0.001,1.201;        293P    279
128,1,1,1,1,0,0,1,0,0,-0.001,-0.001,1.201,1.201,-0.001,-0.001,       295P    280
0.301,0.301,1.,1.,1.,1.,-11.4,-0.01,0.01,-11.4,12.01,0.01,-11.4,     295P    281
-0.01,-3.01,-11.4,12.01,-3.01,-0.001,1.201,-0.001,0.301;             295P    282
128,1,1,1,1,0,0,1,0,0,-0.001,-0.001,1.201,1.201,-0.001,-0.001,       297P    283
0.301,0.301,1.,1.,1.,1.,-1.8,12.01,0.01,-1.8,                        297P    284
-0.0099999999999989,0.01,-1.8,12.01,-3.01,-1.8,                      297P    285
-0.0099999999999989,-3.01,-0.001,1.201,-0.001,0.301;                 297P    286
128,1,1,1,1,0,0,1,0,0,-0.481,-0.481,0.481,0.481,-0.601,-0.601,       299P    287
0.601,0.601,1.,1.,1.,1.,-1.79,-0.01,-3.,-11.41,-0.01,-3.,-1.79,      299P    288
12.01,-3.,-11.41,12.01,-3.,-0.481,0.481,-0.601,0.601;                299P    289
128,1,1,1,1,0,0,1,0,0,1.139,1.139,1.321,1.321,-0.001,-0.001,         301P    290
1.201,1.201,1.,1.,1.,1.,-11.39,-0.01,0.,-13.21,-0.01,0.,-11.39,      301P    291
12.01,0.,-13.21,12.01,0.,1.139,1.321,-0.001,1.201;                   301P    292
128,1,1,1,1,0,0,1,0,0,-0.001,-0.001,0.181,0.181,-0.001,-0.001,       303P    293
1.201,1.201,1.,1.,1.,1.,0.01,-0.01,0.,-1.81,-0.01,0.,0.01,12.01,     303P    294
0.,-1.81,12.01,0.,-0.001,0.181,-0.001,1.201;                         303P    295
128,1,1,1,1,0,0,1,0,0,-0.001,-0.001,1.321,1.321,-0.001,-0.001,       305P    296
1.201,1.201,1.,1.,1.,1.,-13.21,-0.01,13.2,0.0099999999999989,        305P    297
-0.01,13.2,-13.21,12.01,13.2,0.0099999999999989,12.01,13.2,          305P    298
-0.001,1.321,-0.001,1.201;                                           305P    299
128,1,1,1,1,0,0,1,0,0,-0.961,-0.961,0.661,0.661,-0.961,-0.961,       307P    300
0.661,0.661,1.,1.,1.,1.,-16.21,12.,-3.01,-16.21,12.,13.21,0.01,      307P    301
12.,-3.01,0.0099999999999989,12.,13.21,-0.961,0.661,-0.961,          307P    302
0.661;                                                               307P    303
128,1,1,1,1,0,0,1,0,0,-0.961,-0.961,1.161,1.161,-0.661,-0.661,       309P    304
0.961,0.961,1.,1.,1.,1.,5.01,0.,13.21,-16.21,0.,13.21,5.01,0.,       309P    305
-3.01,-16.21,0.,-3.01,-0.961,1.161,-0.661,0.961;                     309P    306
128,1,1,1,1,0,0,1,0,0,-0.001,-0.001,0.391,0.391,-0.001,-0.001,       311P    307
0.771,0.771,1.,1.,1.,1.,-8.05,11.99,4.64,-8.05,11.99,8.56,-8.05,     311P    308
19.71,4.64,-8.05,19.71,8.56,-0.001,0.391,-0.001,0.771;               311P    309
128,1,1,1,1,0,0,1,0,0,-0.001,-0.001,0.291,0.291,-0.001,-0.001,       313P    310
0.771,0.771,1.,1.,1.,1.,-5.14,11.99,4.65,-8.06,11.99,4.65,-5.14,     313P    311
19.71,4.65,-8.06,19.71,4.65,-0.001,0.291,-0.001,0.771;               313P    312
128,1,1,1,1,0,0,1,0,0,-0.001,-0.001,0.391,0.391,-0.001,-0.001,       315P    313
0.771,0.771,1.,1.,1.,1.,-5.15,11.99,8.56,-5.15,11.99,4.64,-5.15,     315P    314
19.71,8.56,-5.15,19.71,4.64,-0.001,0.391,-0.001,0.771;               315P    315
128,1,1,1,1,0,0,1,0,0,-0.001,-0.001,0.146,0.146,-0.001,-0.001,       317P    316
0.771,0.771,1.,1.,1.,1.,-6.61,11.99,8.55,-5.14,11.99,8.55,-6.61,     317P    317
19.71,8.55,-5.14,19.71,8.55,-0.001,0.146,-0.001,0.771;               317P    318
128,1,1,1,1,0,0,1,0,0,-0.00100000000000011,-0.00100000000000011,     319P    319
0.330564833248056,0.330564833248056,-0.001,-0.001,0.771,0.771,       319P    320
1.,1.,1.,1.,-5.44802047844337,11.99,5.45157232133043,                319P    321
-6.60348488225513,11.99,8.55937313158277,-5.44802047844337,          319P    322
19.71,5.45157232133043,-6.60348488225513,19.71,8.55937313158277,     319P    323
-0.00100000000000011,0.330564833248056,-0.001,0.771;                 319P    324
128,1,1,1,1,0,0,1,0,0,-0.001,-0.001,0.230698927860301,               321P    325
0.230698927860301,-0.001,-0.001,0.771,0.771,1.,1.,1.,1.,             321P    326
-7.7584946393015,11.99,5.4609454529132,-5.4415053606985,11.99,       321P    327
5.4609454529132,-7.7584946393015,19.71,5.4609454529132,              321P    328
-5.4415053606985,19.71,5.4609454529132,-0.001,0.230698927860301,     321P    329
-0.001,0.771;                                                        321P    330
128,1,1,1,1,0,0,1,0,0,-0.001,-0.001,0.330564833248057,               323P    331
0.330564833248057,-0.001,-0.001,0.771,0.771,1.,1.,1.,1.,             323P    332
-6.59651511774487,11.99,8.55937313158277,-7.75197952155664,          323P    333
11.99,5.45157232133043,-6.59651511774487,19.71,8.55937313158277,     323P    334
-7.75197952155664,19.71,5.45157232133043,-0.001,                     323P    335
0.330564833248057,-0.001,0.771;                                      323P    336
128,1,1,1,1,0,0,1,0,0,-0.001,-0.001,0.146,0.146,-0.001,-0.001,       325P    337
0.771,0.771,1.,1.,1.,1.,-8.06,11.99,8.55,-6.59,11.99,8.55,-8.06,     325P    338
19.71,8.55,-6.59,19.71,8.55,-0.001,0.146,-0.001,0.771;               325P    339
128,1,1,1,1,0,0,1,0,0,-0.196,-0.196,0.196,0.196,-0.146,-0.146,       327P    340
0.146,0.146,1.,1.,1.,1.,-8.06,19.7,4.64,-8.06,19.7,8.56,-5.14,       327P    341
19.7,4.64,-5.14,19.7,8.56,-0.196,0.196,-0.146,0.146;                 327P    342
128,1,1,1,1,0,0,1,0,0,-0.146,-0.146,0.146,0.146,-0.196,-0.196,       329P    343
0.196,0.196,1.,1.,1.,1.,-8.06,12.,4.64,-5.14,12.,4.64,-8.06,12.,     329P    344
8.56,-5.14,12.,8.56,-0.146,0.146,-0.196,0.196;                       329P    345
502,34,3.7500774620429,5.,10.9,2.16840434497101D-16,                 331P    346
8.47878956471783,10.9,3.7500774620429,5.,2.3,                        331P    347
2.16840434497101D-16,8.47878956471783,2.3,5.,5.,10.9,5.,5.,2.3,      331P    348
0.,0.,10.9,5.,0.,10.9,0.,0.,2.3,5.,0.,2.3,0.,0.,0.,0.,12.,0.,0.,     331P    349
12.,13.2,0.,0.,13.2,-13.2,12.,11.4,-13.2,0.,11.4,-16.2,12.,11.4,     331P    350
-16.2,0.,11.4,-13.2,0.,1.8,-13.2,12.,1.8,-16.2,0.,1.8,-16.2,12.,     331P    351
1.8,-13.2,0.,13.2,-13.2,12.,13.2,-13.2,12.,0.,-13.2,0.,0.,-11.4,     331P    352
12.,0.,-11.4,0.,0.,-11.4,12.,-3.,-11.4,0.,-3.,-1.8,0.,0.,-1.8,       331P    353
12.,0.,-1.8,0.,-3.,-1.8,12.,-3.;                                     331P    354
502,14,-8.05,12.,8.55,-8.05,12.,4.65,-8.05,19.7,8.55,-8.05,19.7,     333P    355
4.65,-5.15,12.,4.65,-5.15,19.7,4.65,-5.15,12.,8.55,-5.15,19.7,       333P    356
8.55,-6.6,12.,8.55,-6.6,19.7,8.55,-5.4515053606985,12.,              333P    357
5.4609454529132,-5.4515053606985,19.7,5.4609454529132,               333P    358
-7.7484946393015,12.,5.4609454529132,-7.7484946393015,19.7,          333P    359
5.4609454529132;                                                     333P    360
504,51,125,331,1,331,2,127,331,3,331,1,129,331,4,331,3,131,331,      335P    361
2,331,4,133,331,1,331,5,135,331,6,331,5,137,331,3,331,6,139,331,     335P    362
7,331,2,141,331,7,331,8,143,331,5,331,8,145,331,4,331,9,147,331,     335P    363
10,331,6,149,331,9,331,10,151,331,8,331,10,153,331,9,331,11,155,     335P    364
331,11,331,12,157,331,13,331,12,159,331,14,331,13,161,331,14,        335P    365
331,7,163,331,15,331,16,165,331,15,331,17,167,331,18,331,17,169,     335P    366
331,16,331,18,171,331,19,331,20,173,331,19,331,21,175,331,22,        335P    367
331,21,177,331,20,331,22,179,331,21,331,18,181,331,17,331,22,        335P    368
183,331,16,331,23,185,331,23,331,24,187,331,15,331,24,189,331,       335P    369
25,331,20,191,331,26,331,25,193,331,26,331,19,195,331,27,331,28,     335P    370
197,331,27,331,29,199,331,30,331,29,201,331,28,331,30,203,331,       335P    371
31,331,32,205,331,31,331,33,207,331,34,331,33,209,331,32,331,34,     335P    372
211,331,29,331,34,213,331,33,331,30,215,331,28,331,26,217,331,       335P    373
27,331,25,219,331,12,331,32,221,331,11,331,31,223,331,23,331,14,     335P    374
225,331,24,331,13;                                                   335P    375
504,23,227,333,1,333,2,229,333,1,333,3,231,333,4,333,3,233,333,      337P    376
2,333,4,235,333,2,333,5,237,333,6,333,4,239,333,5,333,6,241,333,     337P    377
5,333,7,243,333,8,333,6,245,333,7,333,8,247,333,7,333,9,249,333,     337P    378
10,333,8,251,333,9,333,10,253,333,9,333,11,255,333,12,333,10,        337P    379
257,333,11,333,12,259,333,11,333,13,261,333,14,333,12,263,333,       337P    380
13,333,14,265,333,13,333,9,267,333,10,333,14,269,333,9,333,1,        337P    381
271,333,3,333,10;                                                    337P    382
406,1,5HBody1;                                                       339P    383
406,1,5HBody3;                                                       341P    384
314,62.7450980392157,62.7450980392157,62.7450980392157,13HSteel      343P    385
- Satin;                                                             343P    386
S      1G      3D    344P    386                                        T      1
