0
SECTION
2
HEADER
9
$INSUNITS
70
4
9
$ACADVER
1
AC1014
9
$HANDSEED
5
FFFF
0
ENDSEC
0
SECTION
2
TABLES
0
TABLE
2
VPORT
5
8
100
AcDbSymbolTable
0
ENDTAB
0
TABLE
2
LTYPE
5
5
100
AcDbSymbolTable
0
LTYPE
5
14
100
AcDbSymbolTableRecord
100
AcDbLinetypeTableRecord
2
BYBLOCK
70
0
0
LTYPE
5
15
100
AcDbSymbolTableRecord
100
AcDbLinetypeTableRecord
2
BYLAYER
70
0
0
LTYPE
5
16
100
AcDbSymbolTableRecord
100
AcDbLinetypeTableRecord
2
DASHED
70
0
3
Dashed __ __ __ __ __ __ __ __ __ __ __ __ __ _
72
65
73
2
40
0.75
49
0.5
74
0
49
-0.25
74
0
0
ENDTAB
0
TABLE
2
LAYER
5
2
100
AcDbSymbolTable
70
2
0
LAYER
5
50
100
AcDbSymbolTableRecord
100
AcDbLayerTableRecord
2
0
70
0
62
7
6
CONTINUOUS
0
ENDTAB
0
TABLE
2
STYLE
5
3
100
AcDbSymbolTable
70
1
0
STYLE
5
11
100
AcDbSymbolTableRecord
100
AcDbTextStyleTableRecord
2
STANDARD
70
0
0
ENDTAB
0
TABLE
2
VIEW
5
6
100
AcDbSymbolTable
70
0
0
ENDTAB
0
TABLE
2
UCS
5
7
100
AcDbSymbolTable
70
0
0
ENDTAB
0
TABLE
2
APPID
5
9
100
AcDbSymbolTable
70
2
0
APPID
5
12
100
AcDbSymbolTableRecord
100
AcDbRegAppTableRecord
2
ACAD
70
0
0
ENDTAB
0
TABLE
2
DIMSTYLE
5
A
100
AcDbSymbolTable
70
1
0
ENDTAB
0
TABLE
2
BLOCK_RECORD
5
1
100
AcDbSymbolTable
70
1
0
BLOCK_RECORD
5
1F
100
AcDbSymbolTableRecord
100
AcDbBlockTableRecord
2
*MODEL_SPACE
0
BLOCK_RECORD
5
1B
100
AcDbSymbolTableRecord
100
AcDbBlockTableRecord
2
*PAPER_SPACE
0
ENDTAB
0
ENDSEC
0
SECTION
2
BLOCKS
0
BLOCK
5
20
100
AcDbEntity
100
AcDbBlockBegin
2
*MODEL_SPACE
0
ENDBLK
5
21
100
AcDbEntity
100
AcDbBlockEnd
0
BLOCK
5
1C
100
AcDbEntity
100
AcDbBlockBegin
2
*PAPER_SPACE
0
ENDBLK
5
1D
100
AcDbEntity
100
AcDbBlockEnd
0
ENDSEC
0
SECTION
2
ENTITIES
0
POINT
5
100
100
AcDbEntity
8
0
100
AcDbPoint
10
0
20
0
30
0
0
CIRCLE
5
101
100
AcDbEntity
8
0
100
AcDbCircle
10
-139.00000000000011
20
-97.5
30
0
40
1.5000000000000002
210
0
220
0
230
1
0
CIRCLE
5
102
100
AcDbEntity
8
0
100
AcDbCircle
10
139
20
-97.499999999999986
30
0
40
1.5000000000000002
210
0
220
0
230
1
0
CIRCLE
5
103
100
AcDbEntity
8
0
100
AcDbCircle
10
139
20
97.499999999999986
30
0
40
1.5000000000000002
210
0
220
0
230
1
0
CIRCLE
5
104
100
AcDbEntity
8
0
100
AcDbCircle
10
-138.99999999999994
20
97.500000000000014
30
0
40
1.5000000000000002
210
0
220
0
230
1
0
LINE
5
105
100
AcDbEntity
8
0
100
AcDbLine
10
139
20
-97.499999999999986
30
0
11
139
21
97.499999999999986
31
0
6
DASHED
0
LINE
5
106
100
AcDbEntity
8
0
100
AcDbLine
10
139
20
97.499999999999986
30
0
11
-138.99999999999994
21
97.500000000000014
31
0
6
DASHED
0
LINE
5
107
100
AcDbEntity
8
0
100
AcDbLine
10
-138.99999999999994
20
97.500000000000014
30
0
11
-139.00000000000011
21
-97.5
31
0
6
DASHED
0
LINE
5
108
100
AcDbEntity
8
0
100
AcDbLine
10
-139.00000000000011
20
-97.5
30
0
11
139
21
-97.499999999999986
31
0
6
DASHED
0
LINE
5
109
100
AcDbEntity
8
0
100
AcDbLine
10
-7.5094420109611407e-15
20
-97.5
30
0
11
2.6153203311527093e-14
21
97.5
31
0
6
DASHED
0
LINE
5
110
100
AcDbEntity
8
0
100
AcDbLine
10
138.99999999999997
20
-2.2204460492503131e-15
30
0
11
-138.99999999999997
21
1.5558047994627696e-15
31
0
6
DASHED
0
CIRCLE
5
111
100
AcDbEntity
8
0
100
AcDbCircle
10
-139.00000000000011
20
-97.5
30
0
40
4
210
0
220
0
230
1
0
CIRCLE
5
112
100
AcDbEntity
8
0
100
AcDbCircle
10
-138.99999999999994
20
97.500000000000014
30
0
40
4
210
0
220
0
230
1
0
CIRCLE
5
113
100
AcDbEntity
8
0
100
AcDbCircle
10
139
20
97.499999999999986
30
0
40
4
210
0
220
0
230
1
0
CIRCLE
5
114
100
AcDbEntity
8
0
100
AcDbCircle
10
139
20
-97.499999999999986
30
0
40
4
210
0
220
0
230
1
0
LWPOLYLINE
5
115
100
AcDbEntity
8
0
100
AcDbPolyline
90
4
70
1
43
0.0
10
-143.00000000000014
20
-97.500000000000014
10
-134.99999999999994
20
-97.500000000000014
10
-134.99999999999994
20
97.500000000000057
10
-143.00000000000014
20
97.500000000000028
0
LWPOLYLINE
5
116
100
AcDbEntity
8
0
100
AcDbPolyline
90
4
70
1
43
0.0
10
142.99999999999989
20
-97.499999999999986
10
134.99999999999989
20
-97.499999999999986
10
134.99999999999989
20
97.500000000000014
10
142.99999999999989
20
97.500000000000014
0
LWPOLYLINE
5
117
100
AcDbEntity
8
0
100
AcDbPolyline
90
4
70
1
43
0.0
10
-143.00000000000014
20
-5
10
142.99999999999989
20
-5
10
142.99999999999989
20
5
10
-143.00000000000014
20
5
0
LINE
5
118
100
AcDbEntity
8
0
100
AcDbLine
10
-35
20
-5
30
0
11
-136.25685482643917
21
-100.41121187081436
31
0
0
LINE
5
119
100
AcDbEntity
8
0
100
AcDbLine
10
-46.665441664713867
20
-5
30
0
11
-141.74314517356325
21
-94.588788129182845
31
0
0
LINE
5
120
100
AcDbEntity
8
0
100
AcDbLine
10
-136.25685482643917
20
-100.41121187081436
30
0
11
-141.74314517356325
21
-94.588788129182845
31
0
0
LINE
5
121
100
AcDbEntity
8
0
100
AcDbLine
10
35
20
-5.0000000000000124
30
0
11
136.25685482643919
21
-100.41121187081438
31
0
0
LINE
5
122
100
AcDbEntity
8
0
100
AcDbLine
10
46.665441664713882
20
-5.000000000000016
30
0
11
141.74314517356325
21
-94.588788129182888
31
0
0
LINE
5
123
100
AcDbEntity
8
0
100
AcDbLine
10
136.25685482643919
20
-100.41121187081438
30
0
11
141.74314517356325
21
-94.588788129182888
31
0
0
LINE
5
124
100
AcDbEntity
8
0
100
AcDbLine
10
-35
20
5
30
0
11
-136.25685482643607
21
100.41121187081436
31
0
0
LINE
5
125
100
AcDbEntity
8
0
100
AcDbLine
10
-46.665441664713882
20
4.9999999999999991
30
0
11
-141.74314517356325
21
94.588788129182859
31
0
0
LINE
5
126
100
AcDbEntity
8
0
100
AcDbLine
10
46.665441664713867
20
5.000000000000016
30
0
11
141.74314517356325
21
94.588788129182888
31
0
0
LINE
5
127
100
AcDbEntity
8
0
100
AcDbLine
10
35
20
5.0000000000000124
30
0
11
136.25685482643919
21
100.41121187081438
31
0
0
LINE
5
128
100
AcDbEntity
8
0
100
AcDbLine
10
136.25685482643919
20
100.41121187081438
30
0
11
141.74314517356325
21
94.588788129182888
31
0
0
LINE
5
129
100
AcDbEntity
8
0
100
AcDbLine
10
-136.25685482643607
20
100.41121187081436
30
0
11
-141.74314517356325
21
94.588788129182859
31
0
0
CIRCLE
5
130
100
AcDbEntity
8
0
100
AcDbCircle
10
-14.000000000000002
20
0
30
0
40
1.25
210
0
220
0
230
1
0
CIRCLE
5
131
100
AcDbEntity
8
0
100
AcDbCircle
10
14.000000208616257
20
0
30
0
40
1.25
210
0
220
0
230
1
0
ENDSEC
0
SECTION
2
OBJECTS
0
DICTIONARY
5
C
100
AcDbDictionary
3
ACAD_GROUP
350
D
3
ACAD_MLINESTYLE
350
17
0
DICTIONARY
5
D
100
AcDbDictionary
0
DICTIONARY
5
1A
330
C
100
AcDbDictionary
0
DICTIONARY
5
17
100
AcDbDictionary
0
ENDSEC
0
EOF
