0
SECTION
2
HEADER
9
$INSUNITS
70
4
9
$ACADVER
1
AC1014
9
$HANDSEED
5
FFFF
0
ENDSEC
0
SECTION
2
TABLES
0
TABLE
2
VPORT
5
8
100
AcDbSymbolTable
0
ENDTAB
0
TABLE
2
LTYPE
5
5
100
AcDbSymbolTable
0
LTYPE
5
14
100
AcDbSymbolTableRecord
100
AcDbLinetypeTableRecord
2
BYBLOCK
70
0
0
LTYPE
5
15
100
AcDbSymbolTableRecord
100
AcDbLinetypeTableRecord
2
BYLAYER
70
0
0
LTYPE
5
16
100
AcDbSymbolTableRecord
100
AcDbLinetypeTableRecord
2
DASHED
70
0
3
Dashed __ __ __ __ __ __ __ __ __ __ __ __ __ _
72
65
73
2
40
0.75
49
0.5
74
0
49
-0.25
74
0
0
ENDTAB
0
TABLE
2
LAYER
5
2
100
AcDbSymbolTable
70
2
0
LAYER
5
50
100
AcDbSymbolTableRecord
100
AcDbLayerTableRecord
2
0
70
0
62
7
6
CONTINUOUS
0
ENDTAB
0
TABLE
2
STYLE
5
3
100
AcDbSymbolTable
70
1
0
STYLE
5
11
100
AcDbSymbolTableRecord
100
AcDbTextStyleTableRecord
2
STANDARD
70
0
0
ENDTAB
0
TABLE
2
VIEW
5
6
100
AcDbSymbolTable
70
0
0
ENDTAB
0
TABLE
2
UCS
5
7
100
AcDbSymbolTable
70
0
0
ENDTAB
0
TABLE
2
APPID
5
9
100
AcDbSymbolTable
70
2
0
APPID
5
12
100
AcDbSymbolTableRecord
100
AcDbRegAppTableRecord
2
ACAD
70
0
0
ENDTAB
0
TABLE
2
DIMSTYLE
5
A
100
AcDbSymbolTable
70
1
0
ENDTAB
0
TABLE
2
BLOCK_RECORD
5
1
100
AcDbSymbolTable
70
1
0
BLOCK_RECORD
5
1F
100
AcDbSymbolTableRecord
100
AcDbBlockTableRecord
2
*MODEL_SPACE
0
BLOCK_RECORD
5
1B
100
AcDbSymbolTableRecord
100
AcDbBlockTableRecord
2
*PAPER_SPACE
0
ENDTAB
0
ENDSEC
0
SECTION
2
BLOCKS
0
BLOCK
5
20
100
AcDbEntity
100
AcDbBlockBegin
2
*MODEL_SPACE
0
ENDBLK
5
21
100
AcDbEntity
100
AcDbBlockEnd
0
BLOCK
5
1C
100
AcDbEntity
100
AcDbBlockBegin
2
*PAPER_SPACE
0
ENDBLK
5
1D
100
AcDbEntity
100
AcDbBlockEnd
0
ENDSEC
0
SECTION
2
ENTITIES
0
POINT
5
100
100
AcDbEntity
8
0
100
AcDbPoint
10
0
20
0
30
0
0
LINE
5
101
100
AcDbEntity
8
0
100
AcDbLine
10
0
20
0
30
0
11
0
21
-81.277952348014139
31
0
0
LINE
5
102
100
AcDbEntity
8
0
100
AcDbLine
10
0
20
0
30
0
11
0
21
74.063075290340365
31
0
0
LINE
5
103
100
AcDbEntity
8
0
100
AcDbLine
10
0
20
-81.277952348014139
30
0
11
-6.1094084578507966
21
-18.337945136042659
31
0
0
LINE
5
104
100
AcDbEntity
8
0
100
AcDbLine
10
-10.082762016665674
20
-18.268753882615879
30
0
11
-15.550526009200269
21
-59.580748492877113
31
0
0
LINE
5
105
100
AcDbEntity
8
0
100
AcDbLine
10
-17.73159786095286
20
-59.580056479738502
30
0
11
-23.619787852701691
21
-14.873428764607945
31
0
0
LINE
5
106
100
AcDbEntity
8
0
100
AcDbLine
10
-27.967959480906547
20
-14.781132383430513
30
0
11
-33.054043692195634
21
-43.818049516971811
31
0
0
LINE
5
107
100
AcDbEntity
8
0
100
AcDbLine
10
-35.034369528284707
20
-43.74213009257651
30
0
11
-38.720152394648352
21
-5.7706633309159638
31
0
0
SPLINE
5
108
100
AcDbEntity
8
0
100
AcDbSpline
70
4
71
5
72
16
73
10
74
0
42
0.000000001
43
0.0000000001
44
0.0000000001
40
0.018394561361471204
40
0.018394561361471204
40
0.018394561361471204
40
0.018394561361471204
40
0.018394561361471204
40
0.018394561361471204
40
0.20000000000000001
40
0.40000000000000002
40
0.60000000000000009
40
0.80000000000000004
40
1
40
1
40
1
40
1
40
1
40
1
41
1
41
1
41
1
41
1
41
1
41
1
41
1
41
1
41
1
41
1
10
-36.96842487449328
20
-2.7464767323047785
30
0
10
-33.161484883334921
20
-1.0280878707096399
30
0
10
-25.864696393712656
20
2.9064811078965547
30
0
10
-16.967559780700427
20
9.9277451910160455
30
0
10
-8.9477254943027784
20
21.177187004941594
30
0
10
-3.3443620842476287
20
37.363919555685769
30
0
10
-1.0643742285494655
20
51.609479436368716
30
0
10
-0.21810249874038201
20
62.691574896620963
30
0
10
-0.01285362447579539
20
70.245002848138057
30
0
10
0
20
74.063075290340365
30
0
0
ARC
5
109
100
AcDbEntity
8
0
100
AcDbCircle
10
-34.039047514867249
20
-43.645517000261826
30
0
40
0.99999999999999067
210
0
220
0
230
1
100
AcDbArc
50
185.54417031927198
51
350.06490230654981
0
ARC
5
110
100
AcDbEntity
8
0
100
AcDbCircle
10
-16.641016251789221
20
-59.436418901946233
30
0
40
1.0999999999999923
210
0
220
0
230
1
100
AcDbArc
50
187.50308739104884
51
352.46055486049124
0
ARC
5
111
100
AcDbEntity
8
0
100
AcDbCircle
10
-8.1000524846857385
20
-18.531171320672065
30
0
40
2.0000000000000169
210
0
220
-0
230
1
100
AcDbArc
50
5.5441703192730056
51
172.46055486049025
0
ARC
5
112
100
AcDbEntity
8
0
100
AcDbCircle
10
-25.800951071028976
20
-15.160703920192502
30
0
40
2.1999999999999948
210
0
220
-0
230
1
100
AcDbArc
50
7.503087391049263
51
170.06490230654939
0
ARC
5
113
100
AcDbEntity
8
0
100
AcDbCircle
10
-35.734186354395959
20
-5.4808240539718733
30
0
40
3.0000000000000009
210
0
220
0
230
1
100
AcDbArc
50
114.29361815163968
51
185.54417031927272
0
LINE
5
114
100
AcDbEntity
8
0
100
AcDbLine
10
0
20
-81.277952348014139
30
0
11
6.1094084578507966
21
-18.337945136042659
31
0
0
LINE
5
115
100
AcDbEntity
8
0
100
AcDbLine
10
27.967959480906547
20
-14.781132383430513
30
0
11
33.054043692195634
21
-43.818049516971811
31
0
0
ARC
5
116
100
AcDbEntity
8
0
100
AcDbCircle
10
8.1000524846857385
20
-18.531171320672065
30
0
40
2.0000000000000178
210
0
220
-0
230
1
100
AcDbArc
50
7.5394451395097803
51
174.45582968072699
0
LINE
5
117
100
AcDbEntity
8
0
100
AcDbLine
10
10.082762016665674
20
-18.268753882615879
30
0
11
15.550526009200269
21
-59.580748492877113
31
0
0
ARC
5
118
100
AcDbEntity
8
0
100
AcDbCircle
10
16.641016251789221
20
-59.436418901946233
30
0
40
1.0999999999999923
210
0
220
0
230
1
100
AcDbArc
50
187.53944513950876
51
352.49691260895122
0
LINE
5
119
100
AcDbEntity
8
0
100
AcDbLine
10
17.73159786095286
20
-59.580056479738502
30
0
11
23.619787852701691
21
-14.873428764607945
31
0
0
ARC
5
120
100
AcDbEntity
8
0
100
AcDbCircle
10
25.800951071028976
20
-15.160703920192502
30
0
40
2.1999999999999948
210
0
220
-0
230
1
100
AcDbArc
50
9.935097693450615
51
172.49691260895074
0
LINE
5
121
100
AcDbEntity
8
0
100
AcDbLine
10
35.034369528284707
20
-43.74213009257651
30
0
11
38.720152394648352
21
-5.7706633309159638
31
0
0
ARC
5
122
100
AcDbEntity
8
0
100
AcDbCircle
10
35.734186354395959
20
-5.4808240539718733
30
0
40
2.9999999999999978
210
0
220
0
230
1
100
AcDbArc
50
-5.5441703192727418
51
65.706381848360337
0
SPLINE
5
123
100
AcDbEntity
8
0
100
AcDbSpline
70
4
71
5
72
16
73
10
74
0
42
0.000000001
43
0.0000000001
44
0.0000000001
40
0.018394561361471204
40
0.018394561361471204
40
0.018394561361471204
40
0.018394561361471204
40
0.018394561361471204
40
0.018394561361471204
40
0.20000000000000001
40
0.40000000000000002
40
0.60000000000000009
40
0.80000000000000004
40
1
40
1
40
1
40
1
40
1
40
1
41
1
41
1
41
1
41
1
41
1
41
1
41
1
41
1
41
1
41
1
10
36.96842487449328
20
-2.7464767323047785
30
0
10
33.161484883334921
20
-1.0280878707096399
30
0
10
25.864696393712656
20
2.9064811078965547
30
0
10
16.967559780700427
20
9.9277451910160455
30
0
10
8.9477254943027784
20
21.177187004941594
30
0
10
3.3443620842476287
20
37.363919555685769
30
0
10
1.0643742285494655
20
51.609479436368716
30
0
10
0.21810249874038201
20
62.691574896620963
30
0
10
0.01285362447579539
20
70.245002848138057
30
0
10
0
20
74.063075290340365
30
0
0
ARC
5
124
100
AcDbEntity
8
0
100
AcDbCircle
10
34.039047514867249
20
-43.645517000261826
30
0
40
0.99999999999998856
210
0
220
0
230
1
100
AcDbArc
50
189.93509769345019
51
354.45582968072802
0
SPLINE
5
125
100
AcDbEntity
8
0
100
AcDbSpline
70
0
71
3
72
20
73
16
74
0
42
0.000000001
43
0.0000000001
44
0.0000000001
40
0.018394561361471204
40
0.018394561361471204
40
0.018394561361471204
40
0.018394561361471204
40
0.27564399734810213
40
0.27564399734810213
40
0.27564399734810213
40
0.54973282812020596
40
0.54973282812020596
40
0.54973282812020596
40
0.8409258807285438
40
0.8409258807285438
40
0.8409258807285438
40
1
40
1
40
1
40
13.016372409429437
40
13.016372409429437
40
13.016372409429437
40
13.016372409429437
10
38.557042214277509
20
0.77296582033036298
30
0
10
30.01173638353437
20
4.630173549524164
30
0
10
23.869072250512776
20
9.3669711681753558
30
0
10
19.287670880531266
20
14.821904547911632
30
0
10
14.406373706914898
20
20.633914616106061
30
0
10
11.219120185183669
20
27.302830767969883
30
0
10
8.9566560834626348
20
34.589994271962688
30
0
10
6.553005316880645
20
42.331905460412713
30
0
10
5.1996882643643092
20
50.729724226734291
30
0
10
4.4742541272340395
20
59.463700326408322
30
0
10
4.0779610308851391
20
64.234932137567995
30
0
10
3.8780628250398981
20
69.111199065634835
30
0
10
3.8613484628292483
20
74.076074604487147
30
0
10
2.5742323085616263
20
456.40424420184212
30
0
10
1.2871161542940044
20
838.73241379919705
30
0
10
2.6382229734167595e-11
20
1221.0605833965521
30
0
0
SPLINE
5
126
100
AcDbEntity
8
0
100
AcDbSpline
70
0
71
3
72
20
73
16
74
0
42
0.000000001
43
0.0000000001
44
0.0000000001
40
0.018394561361471204
40
0.018394561361471204
40
0.018394561361471204
40
0.018394561361471204
40
0.27564399734810213
40
0.27564399734810213
40
0.27564399734810213
40
0.54973282812020596
40
0.54973282812020596
40
0.54973282812020596
40
0.8409258807285438
40
0.8409258807285438
40
0.8409258807285438
40
1
40
1
40
1
40
13.016372409429435
40
13.016372409429435
40
13.016372409429435
40
13.016372409429435
10
-38.557042214277509
20
0.77296582033036298
30
0
10
-30.01173638353437
20
4.630173549524164
30
0
10
-23.869072250512776
20
9.3669711681753558
30
0
10
-19.287670880531266
20
14.821904547911632
30
0
10
-14.406373706914898
20
20.633914616106061
30
0
10
-11.219120185183669
20
27.302830767969883
30
0
10
-8.9566560834626348
20
34.589994271962688
30
0
10
-6.553005316880645
20
42.331905460412713
30
0
10
-5.1996882643643092
20
50.729724226734291
30
0
10
-4.4742541272340395
20
59.463700326408322
30
0
10
-4.0779610308851391
20
64.234932137567995
30
0
10
-3.8780628250398981
20
69.111199065634835
30
0
10
-3.8613484628292483
20
74.076074604487147
30
0
10
-2.5742323085616272
20
456.40424420184206
30
0
10
-1.2871161542940053
20
838.73241379919705
30
0
10
-2.6380564399630657e-11
20
1221.0605833965521
30
0
0
ARC
5
127
100
AcDbEntity
8
0
100
AcDbCircle
10
-35.734186354395959
20
-5.4808240539718733
30
0
40
6.8613703440051053
210
0
220
0
230
1
100
AcDbArc
50
114.29361815072667
51
185.54417031927272
0
LINE
5
128
100
AcDbEntity
8
0
100
AcDbLine
10
-38.877676433630349
20
-44.115189022083101
30
0
11
-42.563459299993987
21
-6.1437222604225594
31
0
0
ARC
5
129
100
AcDbEntity
8
0
100
AcDbCircle
10
-34.039047514867249
20
-43.645517000261826
30
0
40
4.8613703440050928
210
0
220
0
230
1
100
AcDbArc
50
185.54417031927255
51
350.06490230654964
0
LINE
5
130
100
AcDbEntity
8
0
100
AcDbLine
10
-26.033532744570365
20
-26.117851115259096
30
0
11
-29.250579142599754
21
-44.484261460372338
31
0
0
LINE
5
131
100
AcDbEntity
8
0
100
AcDbLine
10
-21.559906482172732
20
-60.084272737167453
30
0
11
-26.033532744570365
21
-26.117851115259096
31
0
0
ARC
5
132
100
AcDbEntity
8
0
100
AcDbCircle
10
-16.641016251789221
20
-59.436418901946233
30
0
40
4.9613703440050925
210
0
220
0
230
1
100
AcDbArc
50
187.50308739104929
51
352.46055486049136
0
LINE
5
133
100
AcDbEntity
8
0
100
AcDbLine
10
-8.384518111498334
20
-34.866798364232423
30
0
11
-11.72253811541851
21
-60.087393949407009
31
0
0
LINE
5
134
100
AcDbEntity
8
0
100
AcDbLine
10
1.1102230246251565e-15
20
-121.24531341153954
30
0
11
-8.384518111498334
21
-34.866798364232423
31
0
0
LINE
5
135
100
AcDbEntity
8
0
100
AcDbLine
10
1.1102230246251565e-15
20
-121.24531341153954
30
0
11
8.3845181114983305
21
-34.866798364232409
31
0
0
LINE
5
136
100
AcDbEntity
8
0
100
AcDbLine
10
8.3845181114983305
20
-34.866798364232409
30
0
11
11.722538115418518
21
-60.087393949407051
31
0
0
ARC
5
137
100
AcDbEntity
8
0
100
AcDbCircle
10
16.641016251789221
20
-59.436418901946233
30
0
40
4.9613703440050951
210
0
220
0
230
1
100
AcDbArc
50
187.53944513950918
51
352.49691260895133
0
LINE
5
138
100
AcDbEntity
8
0
100
AcDbLine
10
21.559906482172746
20
-60.084272737167396
30
0
11
26.033532744570365
21
-26.117851115259086
31
0
0
LINE
5
139
100
AcDbEntity
8
0
100
AcDbLine
10
26.033532744570365
20
-26.117851115259086
30
0
11
29.250579142599765
21
-44.484261460372359
31
0
0
ARC
5
140
100
AcDbEntity
8
0
100
AcDbCircle
10
34.039047514867249
20
-43.645517000261826
30
0
40
4.8613703440050884
210
0
220
0
230
1
100
AcDbArc
50
189.93509769345061
51
354.45582968072796
0
LINE
5
141
100
AcDbEntity
8
0
100
AcDbLine
10
38.877676433630349
20
-44.115189022083058
30
0
11
42.563459299993987
21
-6.143722260422555
31
0
0
ARC
5
142
100
AcDbEntity
8
0
100
AcDbCircle
10
35.734186354395959
20
-5.4808240539718733
30
0
40
6.8613703440051008
210
0
220
0
230
1
100
AcDbArc
50
-5.5441703192725891
51
65.706381849273342
0
ENDSEC
0
SECTION
2
OBJECTS
0
DICTIONARY
5
C
100
AcDbDictionary
3
ACAD_GROUP
350
D
3
ACAD_MLINESTYLE
350
17
0
DICTIONARY
5
D
100
AcDbDictionary
0
DICTIONARY
5
1A
330
C
100
AcDbDictionary
0
DICTIONARY
5
17
100
AcDbDictionary
0
ENDSEC
0
EOF
