                                                                        S      1
,,24Hmeasurement tape clip v1,24Hmeasurement tape clip v1,7Hunknown,7HunG      1
known,32,38,7,99,15,,1.,2,2HMM,1,0.08,15H20250912.001532,0.01,10000.,7HuG      2
nknown,7Hunknown,11,0,15H20240511.163215;                               G      3
     186       1                                                00000000D      1
     186             -71       1       0                               0D      2
     514       2                                                00010000D      3
     514                       1       1                               0D      4
     510       3                                                00010000D      5
     510             -71       1       1                               0D      6
     510       4                                                00010000D      7
     510             -71       1       1                               0D      8
     510       5                                                00010000D      9
     510             -71       1       1                               0D     10
     510       6                                                00010000D     11
     510             -71       1       1                               0D     12
     510       7                                                00010000D     13
     510             -71       1       1                               0D     14
     510       8                                                00010000D     15
     510             -71       1       1                               0D     16
     508       9                                                00010000D     17
     508                       1       1                               0D     18
     508      10                                                00010000D     19
     508                       1       1                               0D     20
     508      11                                                00010000D     21
     508                       1       1                               0D     22
     508      12                                                00010000D     23
     508                       1       1                               0D     24
     508      13                                                00010000D     25
     508                       1       1                               0D     26
     508      14                                                00010000D     27
     508                       1       1                               0D     28
     126      15                                                00010000D     29
     126       0               8       0                               0D     30
     126      23                                                00010000D     31
     126       0              12       0                               0D     32
     126      35                                                00010000D     33
     126       0               8       0                               0D     34
     126      43                                                00010000D     35
     126       0              12       0                               0D     36
     126      55                                                00010000D     37
     126       0               3       0                               0D     38
     126      58                                                00010000D     39
     126       0               8       0                               0D     40
     126      66                                                00010000D     41
     126       0               3       0                               0D     42
     126      69                                                00010000D     43
     126       0               3       0                               0D     44
     126      72                                                00010000D     45
     126       0               8       0                               0D     46
     126      80                                                00010000D     47
     126       0               3       0                               0D     48
     126      83                                                00010000D     49
     126       0              12       0                               0D     50
     126      95                                                00010000D     51
     126       0              12       0                               0D     52
     128     107                                                00010000D     53
     128       0     -71       7       0                               0D     54
     128     114                                                00010000D     55
     128       0     -71      12       0                               0D     56
     128     126                                                00010000D     57
     128       0     -71      12       0                               0D     58
     128     138                                                00010000D     59
     128       0     -71      19       0                               0D     60
     128     157                                                00010000D     61
     128       0     -71      19       0                               0D     62
     128     176                                                00010000D     63
     128       0     -71       7       0                               0D     64
     502     183                                                00010000D     65
     502                       6       1                               0D     66
     504     189                                                00010001D     67
     504                       3       1                               0D     68
     406     192                                                00000000D     69
     406                       1      15                               0D     70
     314     193                                                00000200D     71
     314                       2       0                               0D     72
186,3,1,0,0,1,69;                                                      1P      1
514,6,5,1,7,1,9,1,11,1,13,1,15,1;                                      3P      2
510,53,1,1,17;                                                         5P      3
510,55,1,1,19;                                                         7P      4
510,57,1,1,21;                                                         9P      5
510,59,1,1,23;                                                        11P      6
510,61,1,1,25;                                                        13P      7
510,63,1,1,27;                                                        15P      8
508,4,0,67,1,0,0,0,67,2,1,0,0,67,3,0,0,0,67,4,1,0;                    17P      9
508,4,0,67,1,1,0,0,67,5,1,0,0,67,6,1,0,0,67,7,1,0;                    19P     10
508,4,0,67,3,1,0,0,67,8,1,0,0,67,9,1,0,0,67,10,1,0;                   21P     11
508,4,0,67,5,0,0,0,67,4,0,0,0,67,10,0,0,0,67,11,1,0;                  23P     12
508,4,0,67,7,0,0,0,67,12,0,0,0,67,8,0,0,0,67,2,0,0;                   25P     13
508,4,0,67,6,0,0,0,67,11,0,0,0,67,9,0,0,0,67,12,1,0;                  27P     14
126,4,2,0,0,0,0,-0.750888011378418,-0.750888011378418,                29P     15
-0.750888011378418,0.819908315416478,0.819908315416478,               29P     16
2.39070464221137,2.39070464221137,2.39070464221137,1.,                29P     17
0.707106781186546,1.,0.707106781186548,1.,5.48116464783616,           29P     18
12.3372133848496,12.,4.56729698969915,12.7432255809856,12.,           29P     19
4.97330918583516,13.6570932391226,12.,5.37932138197117,               29P     20
14.5709608972596,12.,6.29318904010818,14.1649487011236,12.,           29P     21
-0.750888011378418,2.39070464221137,0.,0.,0.;                         29P     22
126,8,2,0,0,0,0,-7.43589547953755,-7.43589547953755,                  31P     23
-7.43589547953755,-6.07414222996112,-6.07414222996112,                31P     24
-4.71238898038469,-4.71238898038469,-3.35063573080826,                31P     25
-3.35063573080826,-1.98888248123183,-1.98888248123183,                31P     26
-1.98888248123183,1.,0.777021204498984,1.,0.777021204498984,1.,       31P     27
0.777021204498984,1.,0.777021204498984,1.,5.48116464783615,           31P     28
12.3372133848496,12.,15.4756927477895,7.89685457898317,12.,           31P     29
13.20610428354,-2.80157271050841,12.,10.9365158192906,-13.5,12.,      31P     30
-2.47990976827339D-15,-13.5,12.,-10.9365158192906,-13.5,12.,          31P     31
-13.20610428354,-2.80157271050842,12.,-15.4756927477895,              31P     32
7.89685457898317,12.,-5.48116464783615,12.3372133848496,12.,          31P     33
-7.43589547953755,-1.98888248123183,0.,0.,0.;                         31P     34
126,4,2,0,0,0,0,-0.819908315416479,-0.819908315416479,                33P     35
-0.819908315416479,0.750888011378416,0.750888011378416,               33P     36
2.32168433817331,2.32168433817331,2.32168433817331,1.,                33P     37
0.707106781186548,1.,0.707106781186546,1.,-6.29318904010817,          33P     38
14.1649487011236,12.,-5.37932138197117,14.5709608972596,12.,          33P     39
-4.97330918583516,13.6570932391226,12.,-4.56729698969915,             33P     40
12.7432255809856,12.,-5.48116464783615,12.3372133848496,12.,          33P     41
-0.819908315416479,2.32168433817331,0.,0.,0.;                         33P     42
126,8,2,0,0,0,0,1.98888248123183,1.98888248123183,                    35P     43
1.98888248123183,3.35063573080826,3.35063573080826,                   35P     44
4.71238898038469,4.71238898038469,6.07414222996112,                   35P     45
6.07414222996112,7.43589547953755,7.43589547953755,                   35P     46
7.43589547953755,1.,0.777021204498983,1.,0.777021204498984,1.,        35P     47
0.777021204498984,1.,0.777021204498984,1.,-6.29318904010818,          35P     48
14.1649487011236,12.,-17.7683879696843,9.06675896105476,12.,          35P     49
-15.1625641773978,-3.21662051947262,12.,-12.5567403851114,-15.5,      35P     50
12.,-2.8473038080176D-15,-15.5,12.,12.5567403851114,-15.5,12.,        35P     51
15.1625641773978,-3.21662051947262,12.,17.7683879696843,              35P     52
9.06675896105476,12.,6.29318904010817,14.1649487011236,12.,           35P     53
1.98888248123183,7.43589547953755,0.,0.,0.;                           35P     54
126,1,1,0,0,1,0,-1.2,-1.2,0.,0.,1.,1.,6.29318904010818,               37P     55
14.1649487011236,12.,6.29318904010818,14.1649487011236,0.,-1.2,       37P     56
0.,0.,0.,0.;                                                          37P     57
126,4,2,0,0,0,0,-0.819908315416479,-0.819908315416479,                39P     58
-0.819908315416479,0.750888011378417,0.750888011378417,               39P     59
2.32168433817331,2.32168433817331,2.32168433817331,1.,                39P     60
0.707106781186544,1.,0.707106781186546,1.,6.29318904010818,           39P     61
14.1649487011236,0.,5.37932138197117,14.5709608972596,0.,             39P     62
4.97330918583516,13.6570932391226,0.,4.56729698969915,                39P     63
12.7432255809856,0.,5.48116464783615,12.3372133848496,0.,             39P     64
-0.819908315416479,2.32168433817331,0.,0.,0.;                         39P     65
126,1,1,0,0,1,0,0.,0.,1.2,1.2,1.,1.,5.48116464783616,                 41P     66
12.3372133848496,0.,5.48116464783616,12.3372133848496,12.,0.,         41P     67
1.2,0.,0.,0.;                                                         41P     68
126,1,1,0,0,1,0,-1.2,-1.2,0.,0.,1.,1.,-5.48116464783615,              43P     69
12.3372133848496,12.,-5.48116464783615,12.3372133848496,0.,-1.2,      43P     70
0.,0.,0.,0.;                                                          43P     71
126,4,2,0,0,0,0,-2.32168433817331,-2.32168433817331,                  45P     72
-2.32168433817331,-0.750888011378416,-0.750888011378416,              45P     73
0.819908315416479,0.819908315416479,0.819908315416479,1.,             45P     74
0.707106781186546,1.,0.707106781186548,1.,-5.48116464783615,          45P     75
12.3372133848496,0.,-4.56729698969915,12.7432255809856,0.,            45P     76
-4.97330918583516,13.6570932391226,0.,-5.37932138197117,              45P     77
14.5709608972596,0.,-6.29318904010817,14.1649487011236,0.,            45P     78
-2.32168433817331,0.819908315416479,0.,0.,0.;                         45P     79
126,1,1,0,0,1,0,0.,0.,1.2,1.2,1.,1.,-6.29318904010818,                47P     80
14.1649487011236,0.,-6.29318904010818,14.1649487011236,12.,0.,        47P     81
1.2,0.,0.,0.;                                                         47P     82
126,8,2,0,0,0,0,1.98888248123183,1.98888248123183,                    49P     83
1.98888248123183,3.35063573080826,3.35063573080826,                   49P     84
4.71238898038469,4.71238898038469,6.07414222996112,                   49P     85
6.07414222996112,7.43589547953755,7.43589547953755,                   49P     86
7.43589547953755,1.,0.777021204498983,1.,0.777021204498984,1.,        49P     87
0.777021204498984,1.,0.777021204498984,1.,-6.29318904010818,          49P     88
14.1649487011236,0.,-17.7683879696843,9.06675896105476,0.,            49P     89
-15.1625641773978,-3.21662051947262,0.,-12.5567403851114,-15.5,       49P     90
0.,-2.8473038080176D-15,-15.5,0.,12.5567403851114,-15.5,0.,           49P     91
15.1625641773978,-3.21662051947262,0.,17.7683879696843,               49P     92
9.06675896105476,0.,6.29318904010817,14.1649487011236,0.,             49P     93
1.98888248123183,7.43589547953755,0.,0.,0.;                           49P     94
126,8,2,0,0,0,0,1.98888248123183,1.98888248123183,                    51P     95
1.98888248123183,3.35063573080826,3.35063573080826,                   51P     96
4.71238898038469,4.71238898038469,6.07414222996112,                   51P     97
6.07414222996112,7.43589547953755,7.43589547953755,                   51P     98
7.43589547953755,1.,0.777021204498984,1.,0.777021204498984,1.,        51P     99
0.777021204498984,1.,0.777021204498984,1.,-5.48116464783615,          51P    100
12.3372133848496,0.,-15.4756927477895,7.89685457898317,0.,            51P    101
-13.20610428354,-2.80157271050842,0.,-10.9365158192906,-13.5,0.,      51P    102
-2.47990976827339D-15,-13.5,0.,10.9365158192906,-13.5,0.,             51P    103
13.20610428354,-2.80157271050841,0.,15.4756927477895,                 51P    104
7.89685457898317,0.,5.48116464783615,12.3372133848496,0.,             51P    105
1.98888248123183,7.43589547953755,0.,0.,0.;                           51P    106
128,1,1,1,1,0,0,1,0,0,-1.77783879696843,-1.77783879696843,            53P    107
1.77783879696843,1.77783879696843,-1.50426178110908,                  53P    108
-1.50426178110908,1.50483430861688,1.50483430861688,1.,1.,1.,1.,      53P    109
-17.7783879696843,-15.51,12.,17.7783879696843,-15.51,12.,             53P    110
-17.7783879696843,14.5809608972596,12.,17.7783879696843,              53P    111
14.5809608972596,12.,-1.77783879696843,1.77783879696843,              53P    112
-1.50426178110908,1.50483430861688;                                   53P    113
128,1,4,1,2,0,0,0,0,0,0.,0.,12.,12.,-2.39070464221138,                55P    114
-2.39070464221138,-2.39070464221138,-0.81990831541648,                55P    115
-0.81990831541648,0.750888011378419,0.750888011378419,                55P    116
0.750888011378419,1.,1.,0.707106781186547,0.707106781186547,1.,       55P    117
1.,0.707106781186547,0.707106781186547,1.,1.,6.29318904010818,        55P    118
14.1649487011236,12.,6.29318904010818,14.1649487011236,0.,            55P    119
5.37932138197117,14.5709608972596,12.,5.37932138197117,               55P    120
14.5709608972596,0.,4.97330918583516,13.6570932391226,12.,            55P    121
4.97330918583516,13.6570932391226,0.,4.56729698969915,                55P    122
12.7432255809856,12.,4.56729698969915,12.7432255809856,0.,            55P    123
5.48116464783616,12.3372133848496,12.,5.48116464783616,               55P    124
12.3372133848496,0.,0.,12.,-2.39070464221138,0.750888011378419;       55P    125
128,1,4,1,2,0,0,0,0,0,0.,0.,12.,12.,-2.32168433817331,                57P    126
-2.32168433817331,-2.32168433817331,-0.750888011378416,               57P    127
-0.750888011378416,0.81990831541648,0.81990831541648,                 57P    128
0.81990831541648,1.,1.,0.707106781186548,0.707106781186548,1.,        57P    129
1.,0.707106781186548,0.707106781186548,1.,1.,-5.48116464783615,       57P    130
12.3372133848496,12.,-5.48116464783615,12.3372133848496,0.,           57P    131
-4.56729698969915,12.7432255809856,12.,-4.56729698969915,             57P    132
12.7432255809856,0.,-4.97330918583516,13.6570932391226,12.,           57P    133
-4.97330918583516,13.6570932391226,0.,-5.37932138197117,              57P    134
14.5709608972596,12.,-5.37932138197117,14.5709608972596,0.,           57P    135
-6.29318904010818,14.1649487011236,12.,-6.29318904010818,             57P    136
14.1649487011236,0.,0.,12.,-2.32168433817331,0.81990831541648;        57P    137
128,1,8,1,2,0,0,0,0,0,0.,0.,0.774193548387097,0.774193548387097,      59P    138
-4.29430282594776,-4.29430282594776,-4.29430282594776,                59P    139
-2.93254957637133,-2.93254957637133,-1.5707963267949,                 59P    140
-1.5707963267949,-0.209043077218465,-0.209043077218465,               59P    141
1.15271017235797,1.15271017235797,1.15271017235797,1.,1.,             59P    142
0.777021204498984,0.777021204498984,1.,1.,0.777021204498984,          59P    143
0.777021204498984,1.,1.,0.777021204498984,0.777021204498984,1.,       59P    144
1.,0.777021204498984,0.777021204498984,1.,1.,-6.29318904010817,       59P    145
14.1649487011236,12.,-6.29318904010817,14.1649487011236,0.,           59P    146
-17.7683879696843,9.06675896105476,12.,-17.7683879696843,             59P    147
9.06675896105476,0.,-15.1625641773978,-3.21662051947262,12.,          59P    148
-15.1625641773978,-3.21662051947262,0.,-12.5567403851114,-15.5,       59P    149
12.,-12.5567403851114,-15.5,0.,0.,-15.5,12.,0.,-15.5,0.,              59P    150
12.5567403851114,-15.5,12.,12.5567403851114,-15.5,0.,                 59P    151
15.1625641773978,-3.21662051947262,12.,15.1625641773978,              59P    152
-3.21662051947262,0.,17.7683879696843,9.06675896105476,12.,           59P    153
17.7683879696843,9.06675896105476,0.,6.29318904010817,                59P    154
14.1649487011236,12.,6.29318904010817,14.1649487011236,0.,0.,         59P    155
0.774193548387097,-4.29430282594776,1.15271017235797;                 59P    156
128,1,8,1,2,0,0,0,0,0,0.,0.,0.888888888888889,0.888888888888889,      61P    157
-4.29430282594776,-4.29430282594776,-4.29430282594776,                61P    158
-2.93254957637133,-2.93254957637133,-1.5707963267949,                 61P    159
-1.5707963267949,-0.209043077218465,-0.209043077218465,               61P    160
1.15271017235797,1.15271017235797,1.15271017235797,1.,1.,             61P    161
0.777021204498984,0.777021204498984,1.,1.,0.777021204498984,          61P    162
0.777021204498984,1.,1.,0.777021204498984,0.777021204498984,1.,       61P    163
1.,0.777021204498984,0.777021204498984,1.,1.,-5.48116464783615,       61P    164
12.3372133848496,0.,-5.48116464783615,12.3372133848496,12.,           61P    165
-15.4756927477895,7.89685457898317,0.,-15.4756927477895,              61P    166
7.89685457898317,12.,-13.20610428354,-2.80157271050841,0.,            61P    167
-13.20610428354,-2.80157271050841,12.,-10.9365158192906,-13.5,        61P    168
0.,-10.9365158192906,-13.5,12.,0.,-13.5,0.,0.,-13.5,12.,              61P    169
10.9365158192906,-13.5,0.,10.9365158192906,-13.5,12.,                 61P    170
13.20610428354,-2.80157271050841,0.,13.20610428354,                   61P    171
-2.80157271050841,12.,15.4756927477895,7.89685457898318,0.,           61P    172
15.4756927477895,7.89685457898318,12.,5.48116464783615,               61P    173
12.3372133848496,0.,5.48116464783615,12.3372133848496,12.,0.,         61P    174
0.888888888888889,-4.29430282594776,1.15271017235797;                 61P    175
128,1,1,1,1,0,0,1,0,0,-1.77783879696843,-1.77783879696843,            63P    176
1.77783879696843,1.77783879696843,-1.50426178110908,                  63P    177
-1.50426178110908,1.50483430861688,1.50483430861688,1.,1.,1.,1.,      63P    178
17.7783879696843,-15.51,0.,-17.7783879696843,-15.51,0.,               63P    179
17.7783879696843,14.5809608972596,0.,-17.7783879696843,               63P    180
14.5809608972596,0.,-1.77783879696843,1.77783879696843,               63P    181
-1.50426178110908,1.50483430861688;                                   63P    182
502,8,5.48116464783616,12.3372133848496,12.,6.29318904010818,         65P    183
14.1649487011236,12.,-5.48116464783615,12.3372133848496,12.,          65P    184
-6.29318904010818,14.1649487011236,12.,6.29318904010818,              65P    185
14.1649487011236,0.,5.48116464783616,12.3372133848496,0.,             65P    186
-5.48116464783615,12.3372133848496,0.,-6.29318904010818,              65P    187
14.1649487011236,0.;                                                  65P    188
504,12,29,65,1,65,2,31,65,1,65,3,33,65,4,65,3,35,65,4,65,2,37,        67P    189
65,2,65,5,39,65,5,65,6,41,65,6,65,1,43,65,3,65,7,45,65,7,65,8,        67P    190
47,65,8,65,4,49,65,8,65,5,51,65,7,65,6;                               67P    191
406,1,5HBody1;                                                        69P    192
314,62.7450980392157,62.7450980392157,62.7450980392157,13HSteel       71P    193
- Satin;                                                              71P    194
S      1G      3D     72P    194                                        T      1
