0
SECTION
2
HEADER
9
$INSUNITS
70
4
9
$ACADVER
1
AC1014
9
$HANDSEED
5
FFFF
0
ENDSEC
0
SECTION
2
TABLES
0
TABLE
2
VPORT
5
8
100
AcDbSymbolTable
0
ENDTAB
0
TABLE
2
LTYPE
5
5
100
AcDbSymbolTable
0
LTYPE
5
14
100
AcDbSymbolTableRecord
100
AcDbLinetypeTableRecord
2
BYBLOCK
70
0
0
LTYPE
5
15
100
AcDbSymbolTableRecord
100
AcDbLinetypeTableRecord
2
BYLAYER
70
0
0
LTYPE
5
16
100
AcDbSymbolTableRecord
100
AcDbLinetypeTableRecord
2
DASHED
70
0
3
Dashed __ __ __ __ __ __ __ __ __ __ __ __ __ _
72
65
73
2
40
0.75
49
0.5
74
0
49
-0.25
74
0
0
ENDTAB
0
TABLE
2
LAYER
5
2
100
AcDbSymbolTable
70
2
0
LAYER
5
50
100
AcDbSymbolTableRecord
100
AcDbLayerTableRecord
2
0
70
0
62
7
6
CONTINUOUS
0
ENDTAB
0
TABLE
2
STYLE
5
3
100
AcDbSymbolTable
70
1
0
STYLE
5
11
100
AcDbSymbolTableRecord
100
AcDbTextStyleTableRecord
2
STANDARD
70
0
0
ENDTAB
0
TABLE
2
VIEW
5
6
100
AcDbSymbolTable
70
0
0
ENDTAB
0
TABLE
2
UCS
5
7
100
AcDbSymbolTable
70
0
0
ENDTAB
0
TABLE
2
APPID
5
9
100
AcDbSymbolTable
70
2
0
APPID
5
12
100
AcDbSymbolTableRecord
100
AcDbRegAppTableRecord
2
ACAD
70
0
0
ENDTAB
0
TABLE
2
DIMSTYLE
5
A
100
AcDbSymbolTable
70
1
0
ENDTAB
0
TABLE
2
BLOCK_RECORD
5
1
100
AcDbSymbolTable
70
1
0
BLOCK_RECORD
5
1F
100
AcDbSymbolTableRecord
100
AcDbBlockTableRecord
2
*MODEL_SPACE
0
BLOCK_RECORD
5
1B
100
AcDbSymbolTableRecord
100
AcDbBlockTableRecord
2
*PAPER_SPACE
0
ENDTAB
0
ENDSEC
0
SECTION
2
BLOCKS
0
BLOCK
5
20
100
AcDbEntity
100
AcDbBlockBegin
2
*MODEL_SPACE
0
ENDBLK
5
21
100
AcDbEntity
100
AcDbBlockEnd
0
BLOCK
5
1C
100
AcDbEntity
100
AcDbBlockBegin
2
*PAPER_SPACE
0
ENDBLK
5
1D
100
AcDbEntity
100
AcDbBlockEnd
0
ENDSEC
0
SECTION
2
ENTITIES
0
SPLINE
5
100
100
AcDbEntity
8
0
100
AcDbSpline
70
4
71
3
72
8
73
4
74
0
42
0.000000001
43
0.0000000001
44
0.0000000001
40
0
40
0
40
0
40
0
40
1
40
1
40
1
40
1
41
1
41
1
41
1
41
1
10
29.310276905695602
20
-75.796817739364883
30
0
10
29.310276905695602
20
-75.27796920096614
30
0
10
29.482785352071129
20
-74.653287934817257
30
0
10
29.807163969675706
20
-73.997651274559288
30
0
0
SPLINE
5
101
100
AcDbEntity
8
0
100
AcDbSpline
70
4
71
3
72
8
73
4
74
0
42
0.000000001
43
0.0000000001
44
0.0000000001
40
0
40
0
40
0
40
0
40
1
40
1
40
1
40
1
41
1
41
1
41
1
41
1
10
29.807163969675706
20
-73.997651274559288
30
0
10
30.080215374628708
20
-73.445465381500512
30
0
10
30.410413646698004
20
-72.717067900853735
30
0
10
30.540589809417732
20
-72.379194871144875
30
0
0
SPLINE
5
102
100
AcDbEntity
8
0
100
AcDbSpline
70
4
71
3
72
8
73
4
74
0
42
0.000000001
43
0.0000000001
44
0.0000000001
40
0
40
0
40
0
40
0
40
1
40
1
40
1
40
1
41
1
41
1
41
1
41
1
10
30.540589809417732
20
-72.379194871144875
30
0
10
30.912064631779991
20
-71.416640575287133
30
0
10
34.806729602813725
20
-66.197205853022524
30
0
10
35.450460497538252
20
-65.799535520431789
30
0
0
SPLINE
5
103
100
AcDbEntity
8
0
100
AcDbSpline
70
4
71
3
72
8
73
4
74
0
42
0.000000001
43
0.0000000001
44
0.0000000001
40
0
40
0
40
0
40
0
40
1
40
1
40
1
40
1
41
1
41
1
41
1
41
1
10
35.450460497538252
20
-65.799535520431789
30
0
10
35.917982832590745
20
-65.510611780044826
30
0
10
35.510259819030765
20
-65.133315284607193
30
0
10
33.917467021942144
20
-64.381368692276268
30
0
0
SPLINE
5
104
100
AcDbEntity
8
0
100
AcDbSpline
70
4
71
3
72
8
73
4
74
0
42
0.000000001
43
0.0000000001
44
0.0000000001
40
0
40
0
40
0
40
0
40
1
40
1
40
1
40
1
41
1
41
1
41
1
41
1
10
33.917467021942144
20
-64.381368692276268
30
0
10
30.11513935724895
20
-62.586436263280504
30
0
10
30.474972852071129
20
-62.840964897033956
30
0
10
26.819489018122358
20
-59.361164783991768
30
0
0
SPLINE
5
105
100
AcDbEntity
8
0
100
AcDbSpline
70
4
71
3
72
8
73
4
74
0
42
0.000000001
43
0.0000000001
44
0.0000000001
40
0
40
0
40
0
40
0
40
1
40
1
40
1
40
1
41
1
41
1
41
1
41
1
10
26.819489018122358
20
-59.361164783991768
30
0
10
25.137534189224247
20
-57.759907952504733
30
0
10
29.279850387573244
20
-57.060083905416121
30
0
10
33.624043798446664
20
-58.211549877680724
30
0
0
SPLINE
5
106
100
AcDbEntity
8
0
100
AcDbSpline
70
4
71
3
72
8
73
4
74
0
42
0.000000001
43
0.0000000001
44
0.0000000001
40
0
40
0
40
0
40
0
40
1
40
1
40
1
40
1
41
1
41
1
41
1
41
1
10
33.624043798446664
20
-58.211549877680724
30
0
10
37.463677406311042
20
-59.229137555318459
30
0
10
41.622398853302009
20
-60.955279771047223
30
0
10
44.49206784566244
20
-62.722167642471582
30
0
0
LINE
5
107
100
AcDbEntity
8
0
100
AcDbLine
10
44.49206784566244
20
-62.722167642471582
30
0
11
45.720792102813732
21
-63.478611699300401
31
0
0
LINE
5
108
100
AcDbEntity
8
0
100
AcDbLine
10
45.720792102813732
20
-63.478611699300401
30
0
11
49.14318091074626
21
-63.363252138651795
31
0
0
SPLINE
5
109
100
AcDbEntity
8
0
100
AcDbSpline
70
4
71
3
72
8
73
4
74
0
42
0.000000001
43
0.0000000001
44
0.0000000001
40
0
40
0
40
0
40
0
40
1
40
1
40
1
40
1
41
1
41
1
41
1
41
1
10
49.143180910746267
20
-63.363252138651802
30
0
10
58.651511224110926
20
-63.042313233571633
30
0
10
60.902322642008471
20
-62.673220371760308
30
0
10
60.902322642008471
20
-61.434970291015887
30
0
0
SPLINE
5
110
100
AcDbEntity
8
0
100
AcDbSpline
70
4
71
3
72
8
73
4
74
0
42
0.000000001
43
0.0000000001
44
0.0000000001
40
0
40
0
40
0
40
0
40
1
40
1
40
1
40
1
41
1
41
1
41
1
41
1
10
60.902322642008471
20
-61.434970291015887
30
0
10
60.902322642008471
20
-60.774305271662655
30
0
10
57.504540697733574
20
-58.970640333053851
30
0
10
53.107695865631115
20
-57.296887119171409
30
0
0
SPLINE
5
111
100
AcDbEntity
8
0
100
AcDbSpline
70
4
71
3
72
8
73
4
74
0
42
0.000000001
43
0.0000000001
44
0.0000000001
40
0
40
0
40
0
40
0
40
1
40
1
40
1
40
1
41
1
41
1
41
1
41
1
10
53.107695865631115
20
-57.296887119171409
30
0
10
51.282072480519616
20
-56.602089412567409
30
0
10
48.162370300292977
20
-55.318860649622863
30
0
10
46.175084463755297
20
-54.445472422795888
30
0
0
SPLINE
5
112
100
AcDbEntity
8
0
100
AcDbSpline
70
4
71
3
72
8
73
4
74
0
42
0.000000001
43
0.0000000001
44
0.0000000001
40
0
40
0
40
0
40
0
40
1
40
1
40
1
40
1
41
1
41
1
41
1
41
1
10
46.175084463755297
20
-54.445472422795888
30
0
10
44.187532170613615
20
-53.572082177358254
30
0
10
41.624251937866219
20
-52.513219968038186
30
0
10
40.478868039449061
20
-52.092533436971294
30
0
0
SPLINE
5
113
100
AcDbEntity
8
0
100
AcDbSpline
70
4
71
3
72
8
73
4
74
0
42
0.000000001
43
0.0000000001
44
0.0000000001
40
0
40
0
40
0
40
0
40
1
40
1
40
1
40
1
41
1
41
1
41
1
41
1
10
40.478868039449061
20
-52.092533436971294
30
0
10
37.01414896647136
20
-50.819884212372095
30
0
10
36.522290261586512
20
-50.421422584411886
30
0
10
34.64612894058228
20
-47.368923989492046
30
0
0
SPLINE
5
114
100
AcDbEntity
8
0
100
AcDbSpline
70
4
71
3
72
8
73
4
74
0
42
0.000000001
43
0.0000000001
44
0.0000000001
40
0
40
0
40
0
40
0
40
1
40
1
40
1
40
1
41
1
41
1
41
1
41
1
10
34.64612894058228
20
-47.368923989492046
30
0
10
33.993403116861984
20
-46.307150943634298
30
0
10
33.00148005485535
20
-44.693986328003199
30
0
10
32.441884851455697
20
-43.784085471985122
30
0
0
SPLINE
5
115
100
AcDbEntity
8
0
100
AcDbSpline
70
4
71
3
72
8
73
4
74
0
42
0.000000001
43
0.0000000001
44
0.0000000001
40
0
40
0
40
0
40
0
40
1
40
1
40
1
40
1
41
1
41
1
41
1
41
1
10
32.441884851455697
20
-43.784085471985122
30
0
10
30.857824563980106
20
-41.208633017100276
30
0
10
30.801733430226648
20
-40.964950378296159
30
0
10
30.805173142751062
20
-36.655680950042992
30
0
0
LINE
5
116
100
AcDbEntity
8
0
100
AcDbLine
10
30.805173142751062
20
-36.655680950042992
30
0
11
30.808348417282112
21
-32.962891172923037
31
0
0
LINE
5
117
100
AcDbEntity
8
0
100
AcDbLine
10
30.808348417282112
20
-32.962891172923037
30
0
11
31.594954554239916
21
-31.573037377553561
31
0
0
SPLINE
5
118
100
AcDbEntity
8
0
100
AcDbSpline
70
4
71
3
72
8
73
4
74
0
42
0.000000001
43
0.0000000001
44
0.0000000001
40
0
40
0
40
0
40
0
40
1
40
1
40
1
40
1
41
1
41
1
41
1
41
1
10
31.594954554239912
20
-31.573037377553561
30
0
10
34.869702180226646
20
-25.788979092794044
30
0
10
41.119954554239911
20
-23.876042723215996
30
0
10
55.373852761586519
20
-24.295671502309418
30
0
0
SPLINE
5
119
100
AcDbEntity
8
0
100
AcDbSpline
70
4
71
3
72
8
73
4
74
0
42
0.000000001
43
0.0000000001
44
0.0000000001
40
0
40
0
40
0
40
0
40
1
40
1
40
1
40
1
41
1
41
1
41
1
41
1
10
55.373852761586519
20
-24.295671502309418
30
0
10
62.708894379933682
20
-24.511569984314221
30
0
10
63.658751614888516
20
-24.633808970011657
30
0
10
67.659512742360434
20
-25.878936457194275
30
0
0
SPLINE
5
120
100
AcDbEntity
8
0
100
AcDbSpline
70
4
71
3
72
8
73
4
74
0
42
0.000000001
43
0.0000000001
44
0.0000000001
40
0
40
0
40
0
40
0
40
1
40
1
40
1
40
1
41
1
41
1
41
1
41
1
10
67.659512742360434
20
-25.878936457194275
30
0
10
68.23868846893312
20
-26.059117642598729
30
0
10
70.994059689839702
20
-26.919808808522802
30
0
10
73.782237370808929
20
-27.791610407389584
30
0
0
SPLINE
5
121
100
AcDbEntity
8
0
100
AcDbSpline
70
4
71
3
72
8
73
4
74
0
42
0.000000001
43
0.0000000001
44
0.0000000001
40
0
40
0
40
0
40
0
40
1
40
1
40
1
40
1
41
1
41
1
41
1
41
1
10
73.782237370808929
20
-27.791610407389584
30
0
10
78.38571929931642
20
-29.230681967295588
30
0
10
78.938705571492534
20
-29.3664093092654
30
0
10
79.796477826436373
20
-29.265603931305193
30
0
0
SPLINE
5
122
100
AcDbEntity
8
0
100
AcDbSpline
70
4
71
3
72
8
73
4
74
0
42
0.000000001
43
0.0000000001
44
0.0000000001
40
0
40
0
40
0
40
0
40
1
40
1
40
1
40
1
41
1
41
1
41
1
41
1
10
79.796477826436373
20
-29.265603931305193
30
0
10
81.567073885599783
20
-29.057376169718687
30
0
10
82.650542958577489
20
-30.864747277455908
30
0
10
81.19665883382163
20
-31.600551040527609
30
0
0
SPLINE
5
123
100
AcDbEntity
8
0
100
AcDbSpline
70
4
71
3
72
8
73
4
74
0
42
0.000000001
43
0.0000000001
44
0.0000000001
40
0
40
0
40
0
40
0
40
1
40
1
40
1
40
1
41
1
41
1
41
1
41
1
10
81.19665883382163
20
-31.600551040527609
30
0
10
80.25394344329834
20
-32.077597180562599
30
0
10
80.051274935404479
20
-32.33900322075425
30
0
10
80.15049368540447
20
-32.950194112020121
30
0
0
SPLINE
5
124
100
AcDbEntity
8
0
100
AcDbSpline
70
4
71
3
72
8
73
4
74
0
42
0.000000001
43
0.0000000001
44
0.0000000001
40
0
40
0
40
0
40
0
40
1
40
1
40
1
40
1
41
1
41
1
41
1
41
1
10
80.15049368540447
20
-32.950194112020121
30
0
10
80.3079210917155
20
-33.919361376322684
30
0
10
79.874267005920416
20
-34.124940720754253
30
0
10
77.100381088256839
20
-34.396932355123148
30
0
0
SPLINE
5
125
100
AcDbEntity
8
0
100
AcDbSpline
70
4
71
3
72
8
73
4
74
0
42
0.000000001
43
0.0000000001
44
0.0000000001
40
0
40
0
40
0
40
0
40
1
40
1
40
1
40
1
41
1
41
1
41
1
41
1
10
77.100381088256839
20
-34.396932355123148
30
0
10
75.769260787963873
20
-34.527374974446872
30
0
10
74.16667772928875
20
-34.718666592794051
30
0
10
73.539350064595553
20
-34.821591511922463
30
0
0
SPLINE
5
126
100
AcDbEntity
8
0
100
AcDbSpline
70
4
71
3
72
8
73
4
74
0
42
0.000000001
43
0.0000000001
44
0.0000000001
40
0
40
0
40
0
40
0
40
1
40
1
40
1
40
1
41
1
41
1
41
1
41
1
10
73.539350064595553
20
-34.821591511922463
30
0
10
72.106370671590184
20
-35.056804060496276
30
0
10
68.358012580871588
20
-34.690357597229266
30
0
10
64.613897609710705
20
-33.948994580464948
30
0
0
SPLINE
5
127
100
AcDbEntity
8
0
100
AcDbSpline
70
4
71
3
72
8
73
4
74
0
42
0.000000001
43
0.0000000001
44
0.0000000001
40
0
40
0
40
0
40
0
40
1
40
1
40
1
40
1
41
1
41
1
41
1
41
1
10
64.613897609710705
20
-33.948994580464948
30
0
10
55.528102874755866
20
-32.149827106354024
30
0
10
47.085514195760098
20
-31.974672261434183
30
0
10
44.430419476826998
20
-33.530423553344988
30
0
0
SPLINE
5
128
100
AcDbEntity
8
0
100
AcDbSpline
70
4
71
3
72
8
73
4
74
0
42
0.000000001
43
0.0000000001
44
0.0000000001
40
0
40
0
40
0
40
0
40
1
40
1
40
1
40
1
41
1
41
1
41
1
41
1
10
44.430419476826998
20
-33.530423553344988
30
0
10
41.872165584564215
20
-35.029286360300958
30
0
10
40.51088320414226
20
-38.428921389140072
30
0
10
41.244571463267015
20
-41.486708743927267
30
0
0
SPLINE
5
129
100
AcDbEntity
8
0
100
AcDbSpline
70
4
71
3
72
8
73
4
74
0
42
0.000000001
43
0.0000000001
44
0.0000000001
40
0
40
0
40
0
40
0
40
1
40
1
40
1
40
1
41
1
41
1
41
1
41
1
10
41.244571463267015
20
-41.486708743927267
30
0
10
41.872165584564215
20
-44.102908873118345
30
0
10
47.583461030324308
20
-46.992687264638526
30
0
10
55.123557154337568
20
-48.509015090820576
30
0
0
SPLINE
5
130
100
AcDbEntity
8
0
100
AcDbSpline
70
4
71
3
72
8
73
4
74
0
42
0.000000001
43
0.0000000001
44
0.0000000001
40
0
40
0
40
0
40
0
40
1
40
1
40
1
40
1
41
1
41
1
41
1
41
1
10
55.123557154337568
20
-48.509015090820576
30
0
10
62.179727713267013
20
-49.92797725156683
30
0
10
66.011955038706475
20
-51.975849667745216
30
0
10
68.978727277119972
20
-55.912850959656026
30
0
0
SPLINE
5
131
100
AcDbEntity
8
0
100
AcDbSpline
70
4
71
3
72
8
73
4
74
0
42
0.000000001
43
0.0000000001
44
0.0000000001
40
0
40
0
40
0
40
0
40
1
40
1
40
1
40
1
41
1
41
1
41
1
41
1
10
68.978727277119972
20
-55.912850959656026
30
0
10
71.897872416178387
20
-59.787144112147281
30
0
10
72.802484512329102
20
-63.39553174133836
30
0
10
71.687799644470232
20
-66.718433324056264
30
0
0
SPLINE
5
132
100
AcDbEntity
8
0
100
AcDbSpline
70
4
71
3
72
8
73
4
74
0
42
0.000000001
43
0.0000000001
44
0.0000000001
40
0
40
0
40
0
40
0
40
1
40
1
40
1
40
1
41
1
41
1
41
1
41
1
10
71.687799644470232
20
-66.718433324056264
30
0
10
69.873286692301434
20
-72.126517303344997
30
0
10
67.651046689351404
20
-73.106269152519502
30
0
10
58.094297981262216
20
-72.710452913798278
30
0
0
SPLINE
5
133
100
AcDbEntity
8
0
100
AcDbSpline
70
4
71
3
72
8
73
4
74
0
42
0.000000001
43
0.0000000001
44
0.0000000001
40
0
40
0
40
0
40
0
40
1
40
1
40
1
40
1
41
1
41
1
41
1
41
1
10
58.094297981262216
20
-72.710452913798278
30
0
10
54.860560448964442
20
-72.576573609866102
30
0
10
50.753434689839693
20
-72.463067133781692
30
0
10
48.967759609222419
20
-72.458305231290453
30
0
0
SPLINE
5
134
100
AcDbEntity
8
0
100
AcDbSpline
70
4
71
3
72
8
73
4
74
0
42
0.000000001
43
0.0000000001
44
0.0000000001
40
0
40
0
40
0
40
0
40
1
40
1
40
1
40
1
41
1
41
1
41
1
41
1
10
48.967759609222419
20
-72.458305231290453
30
0
10
46.742612806955975
20
-72.452219120221727
30
0
10
45.554898643493658
20
-72.37893043315151
30
0
10
45.194273853302008
20
-72.225207177358257
30
0
0
SPLINE
5
135
100
AcDbEntity
8
0
100
AcDbSpline
70
4
71
3
72
8
73
4
74
0
42
0.000000001
43
0.0000000001
44
0.0000000001
40
0
40
0
40
0
40
0
40
1
40
1
40
1
40
1
41
1
41
1
41
1
41
1
10
45.194273853302008
20
-72.225207177358257
30
0
10
44.56033322016399
20
-71.955332056241616
30
0
10
41.688807106018075
20
-71.332767303344994
30
0
10
41.060159269968672
20
-71.329063152827217
30
0
0
SPLINE
5
136
100
AcDbEntity
8
0
100
AcDbSpline
70
4
71
3
72
8
73
4
74
0
42
0.000000001
43
0.0000000001
44
0.0000000001
40
0
40
0
40
0
40
0
40
1
40
1
40
1
40
1
41
1
41
1
41
1
41
1
10
41.060159269968672
20
-71.329063152827217
30
0
10
40.52728643417359
20
-71.325623440302792
30
0
10
39.750734996795657
20
-72.092386634704852
30
0
10
39.04932432174683
20
-73.314496914106002
30
0
0
SPLINE
5
137
100
AcDbEntity
8
0
100
AcDbSpline
70
4
71
3
72
8
73
4
74
0
42
0.000000001
43
0.0000000001
44
0.0000000001
40
0
40
0
40
0
40
0
40
1
40
1
40
1
40
1
41
1
41
1
41
1
41
1
10
39.04932432174683
20
-73.314496914106002
30
0
10
37.871929295857754
20
-75.365811061419436
30
0
10
36.849842135111494
20
-75.872488386986049
30
0
10
36.155310885111497
20
-74.748802534299472
30
0
0
SPLINE
5
138
100
AcDbEntity
8
0
100
AcDbSpline
70
4
71
3
72
8
73
4
74
0
42
0.000000001
43
0.0000000001
44
0.0000000001
40
0
40
0
40
0
40
0
40
1
40
1
40
1
40
1
41
1
41
1
41
1
41
1
10
36.155310885111497
20
-74.748802534299472
30
0
10
35.671918233235679
20
-73.966694871144881
30
0
10
35.863213888804125
20
-73.927801290708175
30
0
10
33.12027730941773
20
-75.362901234187078
30
0
0
SPLINE
5
139
100
AcDbEntity
8
0
100
AcDbSpline
70
4
71
3
72
8
73
4
74
0
42
0.000000001
43
0.0000000001
44
0.0000000001
40
0
40
0
40
0
40
0
40
1
40
1
40
1
40
1
41
1
41
1
41
1
41
1
10
33.12027730941773
20
-75.362901234187078
30
0
10
31.307353003819788
20
-76.31143224195381
30
0
10
30.605677890777592
20
-76.591625491338363
30
0
10
30.041320784886683
20
-76.591625491338363
30
0
0
LINE
5
140
100
AcDbEntity
8
0
100
AcDbLine
10
30.041320784886683
20
-76.591625491338363
30
0
11
29.310276905695602
21
-76.591625491338363
31
0
0
LINE
5
141
100
AcDbEntity
8
0
100
AcDbLine
10
29.310276905695602
20
-76.591625491338363
30
0
11
29.310276905695602
21
-75.796817739364883
31
0
0
SPLINE
5
142
100
AcDbEntity
8
0
100
AcDbSpline
70
4
71
3
72
8
73
4
74
0
42
0.000000001
43
0.0000000001
44
0.0000000001
40
0
40
0
40
0
40
0
40
1
40
1
40
1
40
1
41
1
41
1
41
1
41
1
10
35.877501614888516
20
-71.670375895060488
30
0
10
35.974600823720301
20
-71.57565460955837
30
0
10
35.913747787475586
20
-71.2369882658694
30
0
10
35.724042797088629
20
-70.8163007254972
30
0
0
SPLINE
5
143
100
AcDbEntity
8
0
100
AcDbSpline
70
4
71
3
72
8
73
4
74
0
42
0.000000001
43
0.0000000001
44
0.0000000001
40
0
40
0
40
0
40
0
40
1
40
1
40
1
40
1
41
1
41
1
41
1
41
1
10
35.724042797088629
20
-70.8163007254972
30
0
10
34.906214809417733
20
-69.002846534607201
30
0
10
36.496359189351402
20
-68.047700539785012
30
0
10
37.858436902364105
20
-69.534394152519496
30
0
0
LINE
5
144
100
AcDbEntity
8
0
100
AcDbLine
10
37.858436902364105
20
-69.534394152519511
30
0
11
38.420676485697435
21
-70.148492852407088
31
0
0
LINE
5
145
100
AcDbEntity
8
0
100
AcDbLine
10
38.420676485697435
20
-70.148492852407088
30
0
11
39.449639034271243
21
-69.859832540708183
31
0
0
SPLINE
5
146
100
AcDbEntity
8
0
100
AcDbSpline
70
4
71
3
72
8
73
4
74
0
42
0.000000001
43
0.0000000001
44
0.0000000001
40
0
40
0
40
0
40
0
40
1
40
1
40
1
40
1
41
1
41
1
41
1
41
1
10
39.449639034271243
20
-69.859832540708169
30
0
10
40.015318330128991
20
-69.701081935124989
30
0
10
40.992955684661865
20
-69.571171219703942
30
0
10
41.621869977315271
20
-69.571171219703942
30
0
0
LINE
5
147
100
AcDbEntity
8
0
100
AcDbLine
10
41.621869977315278
20
-69.571171219703942
30
0
11
42.765134334564216
21
-69.571171219703942
31
0
0
LINE
5
148
100
AcDbEntity
8
0
100
AcDbLine
10
42.765134334564216
20
-69.571171219703942
30
0
11
43.344306023915621
21
-68.764985568878444
31
0
0
SPLINE
5
149
100
AcDbEntity
8
0
100
AcDbSpline
70
4
71
3
72
8
73
4
74
0
42
0.000000001
43
0.0000000001
44
0.0000000001
40
0
40
0
40
0
40
0
40
1
40
1
40
1
40
1
41
1
41
1
41
1
41
1
10
43.344306023915621
20
-68.764985568878444
30
0
10
44.886032009124762
20
-66.617892384089416
30
0
10
46.831250000000004
20
-66.84596308823167
30
0
10
47.001112047831228
20
-69.193611295578265
30
0
0
SPLINE
5
150
100
AcDbEntity
8
0
100
AcDbSpline
70
4
71
3
72
8
73
4
74
0
42
0.000000001
43
0.0000000001
44
0.0000000001
40
0
40
0
40
0
40
0
40
1
40
1
40
1
40
1
41
1
41
1
41
1
41
1
10
47.001112047831228
20
-69.193611295578265
30
0
10
47.047677357991546
20
-69.836020000335964
30
0
10
47.159597206115727
20
-70.271788580772665
30
0
10
47.277601146698004
20
-70.269672067520403
30
0
0
SPLINE
5
151
100
AcDbEntity
8
0
100
AcDbSpline
70
4
71
3
72
8
73
4
74
0
42
0.000000001
43
0.0000000001
44
0.0000000001
40
0
40
0
40
0
40
0
40
1
40
1
40
1
40
1
41
1
41
1
41
1
41
1
10
47.277601146698004
20
-70.269672067520403
30
0
10
47.386610158284512
20
-70.267819992261522
30
0
10
48.331174596150717
20
-70.152461440918231
30
0
10
49.376540374755862
20
-70.013290349202734
30
0
0
SPLINE
5
152
100
AcDbEntity
8
0
100
AcDbSpline
70
4
71
3
72
8
73
4
74
0
42
0.000000001
43
0.0000000001
44
0.0000000001
40
0
40
0
40
0
40
0
40
1
40
1
40
1
40
1
41
1
41
1
41
1
41
1
10
49.376540374755862
20
-70.013290349202734
30
0
10
51.148190148671475
20
-69.77754690603156
30
0
10
51.388961950937919
20
-69.783367569801598
30
0
10
52.919577503204351
20
-70.098221373118349
30
0
0
SPLINE
5
153
100
AcDbEntity
8
0
100
AcDbSpline
70
4
71
3
72
8
73
4
74
0
42
0.000000001
43
0.0000000001
44
0.0000000001
40
0
40
0
40
0
40
0
40
1
40
1
40
1
40
1
41
1
41
1
41
1
41
1
10
52.919577503204351
20
-70.098221373118349
30
0
10
58.551234722137465
20
-71.257096655723842
30
0
10
65.412407493591317
20
-70.954677493927264
30
0
10
67.610303052266445
20
-69.450786327876045
30
0
0
SPLINE
5
154
100
AcDbEntity
8
0
100
AcDbSpline
70
4
71
3
72
8
73
4
74
0
42
0.000000001
43
0.0000000001
44
0.0000000001
40
0
40
0
40
0
40
0
40
1
40
1
40
1
40
1
41
1
41
1
41
1
41
1
10
67.610303052266445
20
-69.450786327876045
30
0
10
69.604730733235684
20
-68.086595129527041
30
0
10
70.581835174560553
20
-64.241933162567406
30
0
10
69.653411547342941
20
-61.413538701889301
30
0
0
SPLINE
5
155
100
AcDbEntity
8
0
100
AcDbSpline
70
4
71
3
72
8
73
4
74
0
42
0.000000001
43
0.0000000001
44
0.0000000001
40
0
40
0
40
0
40
0
40
1
40
1
40
1
40
1
41
1
41
1
41
1
41
1
10
69.653411547342941
20
-61.413538701889301
30
0
10
69.179280281066895
20
-59.969971696096053
30
0
10
68.976078859965014
20
-59.962298957067119
30
0
10
68.976078859965014
20
-61.388402962244939
30
0
0
SPLINE
5
156
100
AcDbEntity
8
0
100
AcDbSpline
70
4
71
3
72
8
73
4
74
0
42
0.000000001
43
0.0000000001
44
0.0000000001
40
0
40
0
40
0
40
0
40
1
40
1
40
1
40
1
41
1
41
1
41
1
41
1
10
68.976078859965014
20
-61.388402962244939
30
0
10
68.976078859965014
20
-63.983964816289536
30
0
10
67.876468976338714
20
-63.247365720627101
30
0
10
67.567439874013274
20
-60.444633856969467
30
0
0
SPLINE
5
157
100
AcDbEntity
8
0
100
AcDbSpline
70
4
71
3
72
8
73
4
74
0
42
0.000000001
43
0.0000000001
44
0.0000000001
40
0
40
0
40
0
40
0
40
1
40
1
40
1
40
1
41
1
41
1
41
1
41
1
10
67.567439874013274
20
-60.444633856969467
30
0
10
67.122675355275476
20
-56.410002461629496
30
0
10
65.743931992848729
20
-54.610837006129209
30
0
10
61.516682751973477
20
-52.548672826645166
30
0
0
SPLINE
5
158
100
AcDbEntity
8
0
100
AcDbSpline
70
4
71
3
72
8
73
4
74
0
42
0.000000001
43
0.0000000001
44
0.0000000001
40
0
40
0
40
0
40
0
40
1
40
1
40
1
40
1
41
1
41
1
41
1
41
1
10
61.516682751973477
20
-52.548672826645166
30
0
10
59.104212919871024
20
-51.371542238749448
30
0
10
57.624926598866786
20
-50.968316689687363
30
0
10
52.126885255177825
20
-49.989092707194274
30
0
0
SPLINE
5
159
100
AcDbEntity
8
0
100
AcDbSpline
70
4
71
3
72
8
73
4
74
0
42
0.000000001
43
0.0000000001
44
0.0000000001
40
0
40
0
40
0
40
0
40
1
40
1
40
1
40
1
41
1
41
1
41
1
41
1
10
52.126885255177825
20
-49.989092707194274
30
0
10
48.139350064595547
20
-49.278687103149679
30
0
10
43.809179941813163
20
-47.339290785349789
30
0
10
41.124185562133789
20
-45.061494580464945
30
0
0
SPLINE
5
160
100
AcDbEntity
8
0
100
AcDbSpline
70
4
71
3
72
8
73
4
74
0
42
0.000000001
43
0.0000000001
44
0.0000000001
40
0
40
0
40
0
40
0
40
1
40
1
40
1
40
1
41
1
41
1
41
1
41
1
10
41.124185562133789
20
-45.061494580464945
30
0
10
38.724679247538255
20
-43.025261473216005
30
0
10
38.220385901133227
20
-37.780688992696383
30
0
10
40.1499919573466
20
-34.925836602407081
30
0
0
SPLINE
5
161
100
AcDbEntity
8
0
100
AcDbSpline
70
4
71
3
72
8
73
4
74
0
42
0.000000001
43
0.0000000001
44
0.0000000001
40
0
40
0
40
0
40
0
40
1
40
1
40
1
40
1
41
1
41
1
41
1
41
1
10
40.1499919573466
20
-34.925836602407081
30
0
10
42.888431072235122
20
-30.874537539042414
30
0
10
45.833769702911383
20
-29.918333792246763
30
0
10
54.145128504435228
20
-30.382145920949561
30
0
0
SPLINE
5
162
100
AcDbEntity
8
0
100
AcDbSpline
70
4
71
3
72
8
73
4
74
0
42
0.000000001
43
0.0000000001
44
0.0000000001
40
0
40
0
40
0
40
0
40
1
40
1
40
1
40
1
41
1
41
1
41
1
41
1
10
54.145128504435228
20
-30.382145920949561
30
0
10
56.688303375244146
20
-30.523961392598729
30
0
10
57.213234996795663
20
-30.509411247131606
30
0
10
57.698747189839693
20
-30.282664751566834
30
0
0
SPLINE
5
163
100
AcDbEntity
8
0
100
AcDbSpline
70
4
71
3
72
8
73
4
74
0
42
0.000000001
43
0.0000000001
44
0.0000000001
40
0
40
0
40
0
40
0
40
1
40
1
40
1
40
1
41
1
41
1
41
1
41
1
10
57.698747189839693
20
-30.282664751566834
30
0
10
58.243259334564215
20
-30.028400555806741
30
0
10
58.368142700195321
20
-30.049301250335958
30
0
10
60.507034269968678
20
-30.754414057291932
30
0
0
SPLINE
5
164
100
AcDbEntity
8
0
100
AcDbSpline
70
4
71
3
72
8
73
4
74
0
42
0.000000001
43
0.0000000001
44
0.0000000001
40
0
40
0
40
0
40
0
40
1
40
1
40
1
40
1
41
1
41
1
41
1
41
1
10
60.507034269968678
20
-30.754414057291932
30
0
10
65.06236426035565
20
-32.255925281402853
30
0
10
68.611485481262221
20
-32.691694871144875
30
0
10
73.715300242106125
20
-32.376311182536071
30
0
0
SPLINE
5
165
100
AcDbEntity
8
0
100
AcDbSpline
70
4
71
3
72
8
73
4
74
0
42
0.000000001
43
0.0000000001
44
0.0000000001
40
0
40
0
40
0
40
0
40
1
40
1
40
1
40
1
41
1
41
1
41
1
41
1
10
73.715300242106125
20
-32.376311182536071
30
0
10
79.298268572489434
20
-32.031294289785009
30
0
10
79.257791392008471
20
-31.688659357584896
30
0
10
73.407591311136883
20
-29.763284309265394
30
0
0
SPLINE
5
166
100
AcDbEntity
8
0
100
AcDbSpline
70
4
71
3
72
8
73
4
74
0
42
0.000000001
43
0.0000000001
44
0.0000000001
40
0
40
0
40
0
40
0
40
1
40
1
40
1
40
1
41
1
41
1
41
1
41
1
10
73.407591311136883
20
-29.763284309265394
30
0
10
64.766294638315841
20
-26.91954638914007
30
0
10
60.493804295857757
20
-26.22580643450954
30
0
10
51.600362968444827
20
-26.222104302602389
30
0
0
SPLINE
5
167
100
AcDbEntity
8
0
100
AcDbSpline
70
4
71
3
72
8
73
4
74
0
42
0.000000001
43
0.0000000001
44
0.0000000001
40
0
40
0
40
0
40
0
40
1
40
1
40
1
40
1
41
1
41
1
41
1
41
1
10
51.600362968444827
20
-26.222104302602389
30
0
10
42.157916069030762
20
-26.218398133473968
30
0
10
35.357858753204347
20
-28.493816415029151
30
0
10
33.427723821004236
20
-32.302757048167166
30
0
0
LINE
5
168
100
AcDbEntity
8
0
100
AcDbLine
10
33.427723821004236
20
-32.302757048167173
30
0
11
32.90834539731344
21
-33.328017464833835
31
0
0
LINE
5
169
100
AcDbEntity
8
0
100
AcDbLine
10
32.90834539731344
20
-33.328017464833835
30
0
11
32.90834539731344
21
-36.750402235545096
31
0
0
LINE
5
170
100
AcDbEntity
8
0
100
AcDbLine
10
32.90834539731344
20
-36.750402235545096
30
0
11
32.90834539731344
21
-40.173053462860366
31
0
0
LINE
5
171
100
AcDbEntity
8
0
100
AcDbLine
10
32.90834539731344
20
-40.173053462860366
30
0
11
33.451799790064499
21
-41.313673440175634
31
0
0
SPLINE
5
172
100
AcDbEntity
8
0
100
AcDbSpline
70
4
71
3
72
8
73
4
74
0
42
0.000000001
43
0.0000000001
44
0.0000000001
40
0
40
0
40
0
40
0
40
1
40
1
40
1
40
1
41
1
41
1
41
1
41
1
10
33.451799790064499
20
-41.313673440175634
30
0
10
33.750513792037971
20
-41.941263524251568
30
0
10
34.421764405568446
20
-43.047486376322688
30
0
10
34.943522771199554
20
-43.772446163055683
30
0
0
SPLINE
5
173
100
AcDbEntity
8
0
100
AcDbSpline
70
4
71
3
72
8
73
4
74
0
42
0.000000001
43
0.0000000001
44
0.0000000001
40
0
40
0
40
0
40
0
40
1
40
1
40
1
40
1
41
1
41
1
41
1
41
1
10
34.943522771199554
20
-43.772446163055683
30
0
10
35.465281136830654
20
-44.497139493184676
30
0
10
36.198440519968671
20
-45.681676363505311
30
0
10
36.573090616861982
20
-46.405049522278091
30
0
0
SPLINE
5
174
100
AcDbEntity
8
0
100
AcDbSpline
70
4
71
3
72
8
73
4
74
0
42
0.000000001
43
0.0000000001
44
0.0000000001
40
0
40
0
40
0
40
0
40
1
40
1
40
1
40
1
41
1
41
1
41
1
41
1
10
36.573090616861982
20
-46.405049522278091
30
0
10
37.775621382395428
20
-48.726504238006854
30
0
10
38.342091973622644
20
-49.135018546936294
30
0
10
42.451866149902351
20
-50.644995824056252
30
0
0
SPLINE
5
175
100
AcDbEntity
8
0
100
AcDbSpline
70
4
71
3
72
8
73
4
74
0
42
0.000000001
43
0.0000000001
44
0.0000000001
40
0
40
0
40
0
40
0
40
1
40
1
40
1
40
1
41
1
41
1
41
1
41
1
10
42.451866149902351
20
-50.644995824056252
30
0
10
45.758895397186294
20
-51.859965268331152
30
0
10
48.266877810160331
20
-52.899511392471581
30
0
10
49.99143339792888
20
-53.76999080137152
30
0
0
SPLINE
5
176
100
AcDbEntity
8
0
100
AcDbSpline
70
4
71
3
72
8
73
4
74
0
42
0.000000001
43
0.0000000001
44
0.0000000001
40
0
40
0
40
0
40
0
40
1
40
1
40
1
40
1
41
1
41
1
41
1
41
1
10
49.99143339792888
20
-53.76999080137152
30
0
10
50.795764954884852
20
-54.176125168360656
30
0
10
53.070125484466566
20
-55.124391738134015
30
0
10
55.045505555470797
20
-55.877396082438423
30
0
0
SPLINE
5
177
100
AcDbEntity
8
0
100
AcDbSpline
70
4
71
3
72
8
73
4
74
0
42
0.000000001
43
0.0000000001
44
0.0000000001
40
0
40
0
40
0
40
0
40
1
40
1
40
1
40
1
41
1
41
1
41
1
41
1
10
55.045505555470797
20
-55.877396082438423
30
0
10
58.570811208089204
20
-57.221215462244935
30
0
10
59.530721124013269
20
-57.723659761307019
30
0
10
61.394710222880057
20
-59.202679625707262
30
0
0
SPLINE
5
178
100
AcDbEntity
8
0
100
AcDbSpline
70
4
71
3
72
8
73
4
74
0
42
0.000000001
43
0.0000000001
44
0.0000000001
40
0
40
0
40
0
40
0
40
1
40
1
40
1
40
1
41
1
41
1
41
1
41
1
10
61.394710222880057
20
-59.202679625707262
30
0
10
64.513883527119958
20
-61.677328721242532
30
0
10
62.957074483235687
20
-64.246961521662655
30
0
10
57.862521107991547
20
-65.033832096613821
30
0
0
SPLINE
5
179
100
AcDbEntity
8
0
100
AcDbSpline
70
4
71
3
72
8
73
4
74
0
42
0.000000001
43
0.0000000001
44
0.0000000001
40
0
40
0
40
0
40
0
40
1
40
1
40
1
40
1
41
1
41
1
41
1
41
1
10
57.862521107991547
20
-65.033832096613821
30
0
10
52.82591396967571
20
-65.81170774256924
30
0
10
43.702286434173594
20
-65.684442416387185
30
0
10
43.702286434173594
20
-64.836187910593935
30
0
0
SPLINE
5
180
100
AcDbEntity
8
0
100
AcDbSpline
70
4
71
3
72
8
73
4
74
0
42
0.000000001
43
0.0000000001
44
0.0000000001
40
0
40
0
40
0
40
0
40
1
40
1
40
1
40
1
41
1
41
1
41
1
41
1
10
43.702286434173594
20
-64.836187910593935
30
0
10
43.702286434173594
20
-64.344062749105078
30
0
10
41.730346075693774
20
-63.381508453247335
30
0
10
36.457731056213383
20
-61.299767787811547
30
0
0
SPLINE
5
181
100
AcDbEntity
8
0
100
AcDbSpline
70
4
71
3
72
8
73
4
74
0
42
0.000000001
43
0.0000000001
44
0.0000000001
40
0
40
0
40
0
40
0
40
1
40
1
40
1
40
1
41
1
41
1
41
1
41
1
10
36.457731056213383
20
-61.299767787811547
30
0
10
33.821687984466557
20
-60.259161893087018
30
0
10
30.714420445760098
20
-59.584738023636135
30
0
10
30.714420445760098
20
-60.053051654058081
30
0
0
SPLINE
5
182
100
AcDbEntity
8
0
100
AcDbSpline
70
4
71
3
72
8
73
4
74
0
42
0.000000001
43
0.0000000001
44
0.0000000001
40
0
40
0
40
0
40
0
40
1
40
1
40
1
40
1
41
1
41
1
41
1
41
1
10
30.714420445760098
20
-60.053051654058081
30
0
10
30.714420445760098
20
-60.362878107584891
30
0
10
31.439909108479824
20
-60.797587926742821
30
0
10
36.241037241617839
20
-63.363516576645161
30
0
0
SPLINE
5
183
100
AcDbEntity
8
0
100
AcDbSpline
70
4
71
3
72
8
73
4
74
0
42
0.000000001
43
0.0000000001
44
0.0000000001
40
0
40
0
40
0
40
0
40
1
40
1
40
1
40
1
41
1
41
1
41
1
41
1
10
36.241037241617839
20
-63.363516576645161
30
0
10
39.040329392751062
20
-64.859737022278097
30
0
10
39.193259334564218
20
-65.47568577881394
30
0
10
37.199094072977708
20
-67.224581773636132
30
0
0
SPLINE
5
184
100
AcDbEntity
8
0
100
AcDbSpline
70
4
71
3
72
8
73
4
74
0
42
0.000000001
43
0.0000000001
44
0.0000000001
40
0
40
0
40
0
40
0
40
1
40
1
40
1
40
1
41
1
41
1
41
1
41
1
10
37.199094072977708
20
-67.224581773636132
30
0
10
35.56529118220012
20
-68.657565203862774
30
0
10
32.469666989644374
20
-72.42258591607947
30
0
10
32.469666989644374
20
-72.976888322390494
30
0
0
SPLINE
5
185
100
AcDbEntity
8
0
100
AcDbSpline
70
4
71
3
72
8
73
4
74
0
42
0.000000001
43
0.0000000001
44
0.0000000001
40
0
40
0
40
0
40
0
40
1
40
1
40
1
40
1
41
1
41
1
41
1
41
1
10
32.469666989644374
20
-72.976888322390494
30
0
10
32.469666989644374
20
-73.222686465141564
30
0
10
35.461574967702234
20
-72.075717957374835
30
0
10
35.877501614888516
20
-71.670375895060488
30
0
0
SPLINE
5
186
100
AcDbEntity
8
0
100
AcDbSpline
70
4
71
3
72
8
73
4
74
0
42
0.000000001
43
0.0000000001
44
0.0000000001
40
0
40
0
40
0
40
0
40
1
40
1
40
1
40
1
41
1
41
1
41
1
41
1
10
53.179925791422534
20
-52.978091867325091
30
0
10
51.780281734466563
20
-52.342829044220238
30
0
10
50.535683123270672
20
-51.779531708913431
30
0
10
50.414239470163984
20
-51.726611812469741
30
0
0
SPLINE
5
187
100
AcDbEntity
8
0
100
AcDbSpline
70
4
71
3
72
8
73
4
74
0
42
0.000000001
43
0.0000000001
44
0.0000000001
40
0
40
0
40
0
40
0
40
1
40
1
40
1
40
1
41
1
41
1
41
1
41
1
10
50.414239470163984
20
-51.726611812469741
30
0
10
50.163677406311038
20
-51.617340381500512
30
0
10
49.921847852071139
20
-50.83179401512681
30
0
10
50.08747889200847
20
-50.666162975189479
30
0
0
SPLINE
5
188
100
AcDbEntity
8
0
100
AcDbSpline
70
4
71
3
72
8
73
4
74
0
42
0.000000001
43
0.0000000001
44
0.0000000001
40
0
40
0
40
0
40
0
40
1
40
1
40
1
40
1
41
1
41
1
41
1
41
1
10
50.08747889200847
20
-50.666162975189479
30
0
10
50.415297222137461
20
-50.338344645060488
30
0
10
57.03728885650635
20
-52.807436505513778
30
0
10
57.040462112426766
20
-53.258816011307033
30
0
0
SPLINE
5
189
100
AcDbEntity
8
0
100
AcDbSpline
70
4
71
3
72
8
73
4
74
0
42
0.000000001
43
0.0000000001
44
0.0000000001
40
0
40
0
40
0
40
0
40
1
40
1
40
1
40
1
41
1
41
1
41
1
41
1
10
57.040462112426766
20
-53.258816011307033
30
0
10
57.047870413462327
20
-54.313445194122579
30
0
10
55.944558397928887
20
-54.233276072698224
30
0
10
53.179925791422534
20
-52.978091867325091
30
0
0
SPLINE
5
190
100
AcDbEntity
8
0
100
AcDbSpline
70
4
71
3
72
8
73
4
74
0
42
0.000000001
43
0.0000000001
44
0.0000000001
40
0
40
0
40
0
40
0
40
1
40
1
40
1
40
1
41
1
41
1
41
1
41
1
10
36.792695267995207
20
-44.741613427358253
30
0
10
36.119593588511158
20
-43.590940769073747
30
0
10
36.075143782297772
20
-43.148558210886904
30
0
10
36.589760303497322
20
-42.721521130757914
30
0
0
SPLINE
5
191
100
AcDbEntity
8
0
100
AcDbSpline
70
4
71
3
72
8
73
4
74
0
42
0.000000001
43
0.0000000001
44
0.0000000001
40
0
40
0
40
0
40
0
40
1
40
1
40
1
40
1
41
1
41
1
41
1
41
1
10
36.589760303497322
20
-42.721521130757914
30
0
10
36.980018297831222
20
-42.397671389140072
30
0
10
37.471085707346603
20
-42.77919687386094
30
0
10
37.980938307444262
20
-43.802341786580669
30
0
0
SPLINE
5
192
100
AcDbEntity
8
0
100
AcDbSpline
70
4
71
3
72
8
73
4
74
0
42
0.000000001
43
0.0000000001
44
0.0000000001
40
0
40
0
40
0
40
0
40
1
40
1
40
1
40
1
41
1
41
1
41
1
41
1
10
37.980938307444262
20
-43.802341786580669
30
0
10
39.080544153849289
20
-46.008965817647564
30
0
10
38.023006153106692
20
-46.844787700531271
30
0
10
36.792695267995207
20
-44.741613427358253
30
0
0
LINE
5
193
100
AcDbEntity
8
0
100
AcDbLine
10
36.366715939839686
20
-33.717217707194266
30
0
11
35.9904751777649
21
-33.316902994669853
31
0
0
LINE
5
194
100
AcDbEntity
8
0
100
AcDbLine
10
35.9904751777649
20
-33.316902994669853
30
0
11
37.13691682815552
21
-31.303956579722346
31
0
0
SPLINE
5
195
100
AcDbEntity
8
0
100
AcDbSpline
70
4
71
3
72
8
73
4
74
0
42
0.000000001
43
0.0000000001
44
0.0000000001
40
0
40
0
40
0
40
0
40
1
40
1
40
1
40
1
41
1
41
1
41
1
41
1
10
37.13691682815552
20
-31.30395657972235
30
0
10
38.828399499257415
20
-28.334535924153911
30
0
10
38.714626566569017
20
-28.475560100433608
30
0
10
39.227918879191087
20
-28.709452477651219
30
0
0
SPLINE
5
196
100
AcDbEntity
8
0
100
AcDbSpline
70
4
71
3
72
8
73
4
74
0
42
0.000000001
43
0.0000000001
44
0.0000000001
40
0
40
0
40
0
40
0
40
1
40
1
40
1
40
1
41
1
41
1
41
1
41
1
10
39.227918879191087
20
-28.709452477651219
30
0
10
39.842016569773364
20
-28.989114832438414
30
0
10
39.792540423075366
20
-29.243116608815775
30
0
10
38.685259819030769
20
-31.503185375091817
30
0
0
SPLINE
5
197
100
AcDbEntity
8
0
100
AcDbSpline
70
4
71
3
72
8
73
4
74
0
42
0.000000001
43
0.0000000001
44
0.0000000001
40
0
40
0
40
0
40
0
40
1
40
1
40
1
40
1
41
1
41
1
41
1
41
1
10
38.685259819030769
20
-31.503185375091817
30
0
10
37.335087871551515
20
-34.258823052602388
30
0
10
37.09299589792888
20
-34.490333469269061
30
0
10
36.366715939839686
20
-33.717217707194266
30
0
0
SPLINE
5
198
100
AcDbEntity
8
0
100
AcDbSpline
70
4
71
3
72
8
73
4
74
0
42
0.000000001
43
0.0000000001
44
0.0000000001
40
0
40
0
40
0
40
0
40
1
40
1
40
1
40
1
41
1
41
1
41
1
41
1
10
59.514846769968685
20
-29.577019031402845
30
0
10
58.924560610453298
20
-29.411654448069513
30
0
10
58.665532493591321
20
-28.958157419718688
30
0
10
58.959486611684177
20
-28.603883178589129
30
0
0
SPLINE
5
199
100
AcDbEntity
8
0
100
AcDbSpline
70
4
71
3
72
8
73
4
74
0
42
0.000000001
43
0.0000000001
44
0.0000000001
40
0
40
0
40
0
40
0
40
1
40
1
40
1
40
1
41
1
41
1
41
1
41
1
10
58.959486611684177
20
-28.603883178589129
30
0
10
59.32328869501751
20
-28.165731628296157
30
0
10
61.276972738901783
20
-28.218118611531835
30
0
10
61.692104053497317
20
-28.676908436971289
30
0
0
SPLINE
5
200
100
AcDbEntity
8
0
100
AcDbSpline
70
4
71
3
72
8
73
4
74
0
42
0.000000001
43
0.0000000001
44
0.0000000001
40
0
40
0
40
0
40
0
40
1
40
1
40
1
40
1
41
1
41
1
41
1
41
1
10
61.692104053497317
20
-28.676908436971289
30
0
10
62.379755878448499
20
-29.436527768331153
30
0
10
61.020589001973484
20
-29.998234438456475
30
0
10
59.514846769968685
20
-29.577019031402845
30
0
0
SPLINE
5
201
100
AcDbEntity
8
0
100
AcDbSpline
70
4
71
3
72
8
73
4
74
0
42
0.000000001
43
0.0000000001
44
0.0000000001
40
0
40
0
40
0
40
0
40
1
40
1
40
1
40
1
41
1
41
1
41
1
41
1
10
93.658793830871602
20
-25.133608889140071
30
0
10
93.289702987670907
20
-24.562370339589698
30
0
10
93.175667635599794
20
-14.469841996389015
30
0
10
93.53338158925375
20
-14.038836327748871
30
0
0
SPLINE
5
202
100
AcDbEntity
8
0
100
AcDbSpline
70
4
71
3
72
8
73
4
74
0
42
0.000000001
43
0.0000000001
44
0.0000000001
40
0
40
0
40
0
40
0
40
1
40
1
40
1
40
1
41
1
41
1
41
1
41
1
10
93.53338158925375
20
-14.038836327748871
30
0
10
94.207541020711275
20
-13.226563556549333
30
0
10
94.951552454630544
20
-13.997293320851902
30
0
10
94.951552454630544
20
-15.508061893341321
30
0
0
SPLINE
5
203
100
AcDbEntity
8
0
100
AcDbSpline
70
4
71
3
72
8
73
4
74
0
42
0.000000001
43
0.0000000001
44
0.0000000001
40
0
40
0
40
0
40
0
40
1
40
1
40
1
40
1
41
1
41
1
41
1
41
1
10
94.951552454630544
20
-15.508061893341321
30
0
10
94.951552454630544
20
-16.556342545705416
30
0
10
95.187560335795098
20
-17.064346098460135
30
0
10
95.685236676534032
20
-17.087624716319027
30
0
0
SPLINE
5
204
100
AcDbEntity
8
0
100
AcDbSpline
70
4
71
3
72
8
73
4
74
0
42
0.000000001
43
0.0000000001
44
0.0000000001
40
0
40
0
40
0
40
0
40
1
40
1
40
1
40
1
41
1
41
1
41
1
41
1
10
95.685236676534032
20
-17.087624716319027
30
0
10
95.847694460550969
20
-17.095303511179864
30
0
10
96.797547658284515
20
-15.669195468780774
30
0
10
97.329887580871599
20
-14.618274473704282
30
0
0
SPLINE
5
205
100
AcDbEntity
8
0
100
AcDbSpline
70
4
71
3
72
8
73
4
74
0
42
0.000000001
43
0.0000000001
44
0.0000000001
40
0
40
0
40
0
40
0
40
1
40
1
40
1
40
1
41
1
41
1
41
1
41
1
10
97.329887580871599
20
-14.618274473704282
30
0
10
97.836034011840823
20
-13.61946593081691
30
0
10
98.430030377705918
20
-13.454634260691583
30
0
10
98.90601069132488
20
-14.18064776217677
30
0
0
SPLINE
5
206
100
AcDbEntity
8
0
100
AcDbSpline
70
4
71
3
72
8
73
4
74
0
42
0.000000001
43
0.0000000001
44
0.0000000001
40
0
40
0
40
0
40
0
40
1
40
1
40
1
40
1
41
1
41
1
41
1
41
1
10
98.90601069132488
20
-14.18064776217677
30
0
10
99.24679253896079
20
-14.700819499847668
30
0
10
99.059473546346041
20
-15.227345823801937
30
0
10
97.835775629679375
20
-17.191082548655451
30
0
0
LINE
5
207
100
AcDbEntity
8
0
100
AcDbLine
10
97.835775629679404
20
-17.191082548655451
30
0
11
97.030382283528667
21
-18.48304180260239
31
0
0
LINE
5
208
100
AcDbEntity
8
0
100
AcDbLine
10
97.030382283528667
20
-18.48304180260239
30
0
11
97.921493911743184
21
-19.584500733571634
31
0
0
SPLINE
5
209
100
AcDbEntity
8
0
100
AcDbSpline
70
4
71
3
72
8
73
4
74
0
42
0.000000001
43
0.0000000001
44
0.0000000001
40
0
40
0
40
0
40
0
40
1
40
1
40
1
40
1
41
1
41
1
41
1
41
1
10
97.921493911743184
20
-19.58450073357163
30
0
10
98.909716860453301
20
-20.806083146291357
30
0
10
99.058149337768555
20
-21.464893062469741
30
0
10
98.441665649414062
20
-21.896694063700615
30
0
0
SPLINE
5
210
100
AcDbEntity
8
0
100
AcDbSpline
70
4
71
3
72
8
73
4
74
0
42
0.000000001
43
0.0000000001
44
0.0000000001
40
0
40
0
40
0
40
0
40
1
40
1
40
1
40
1
41
1
41
1
41
1
41
1
10
98.441665649414062
20
-21.896694063700615
30
0
10
97.923351033528661
20
-22.259704851664488
30
0
10
97.750574111938491
20
-22.151487135447443
30
0
10
96.418928972880053
20
-20.630661844767513
30
0
0
SPLINE
5
211
100
AcDbEntity
8
0
100
AcDbSpline
70
4
71
3
72
8
73
4
74
0
42
0.000000001
43
0.0000000001
44
0.0000000001
40
0
40
0
40
0
40
0
40
1
40
1
40
1
40
1
41
1
41
1
41
1
41
1
10
96.418928972880053
20
-20.630661844767513
30
0
10
95.771754328409855
20
-19.891680788554133
30
0
10
95.203959528605168
20
-19.306953882731381
30
0
10
95.157127761840826
20
-19.331294289785006
30
0
0
SPLINE
5
212
100
AcDbEntity
8
0
100
AcDbSpline
70
4
71
3
72
8
73
4
74
0
42
0.000000001
43
0.0000000001
44
0.0000000001
40
0
40
0
40
0
40
0
40
1
40
1
40
1
40
1
41
1
41
1
41
1
41
1
10
95.157127761840826
20
-19.331294289785006
30
0
10
95.11003761291505
20
-19.355634696838635
30
0
10
95.085693168640148
20
-20.540442060984549
30
0
10
95.102891731262233
20
-21.964164105611424
30
0
0
SPLINE
5
213
100
AcDbEntity
8
0
100
AcDbSpline
70
4
71
3
72
8
73
4
74
0
42
0.000000001
43
0.0000000001
44
0.0000000001
40
0
40
0
40
0
40
0
40
1
40
1
40
1
40
1
41
1
41
1
41
1
41
1
10
95.102891731262233
20
-21.964164105611424
30
0
10
95.136497561136906
20
-24.752079367197936
30
0
10
94.992029635111507
20
-25.384962248362484
30
0
10
94.300146802266454
20
-25.484709874349221
30
0
0
SPLINE
5
214
100
AcDbEntity
8
0
100
AcDbSpline
70
4
71
3
72
8
73
4
74
0
42
0.000000001
43
0.0000000001
44
0.0000000001
40
0
40
0
40
0
40
0
40
1
40
1
40
1
40
1
41
1
41
1
41
1
41
1
10
94.300146802266454
20
-25.484709874349221
30
0
10
94.056201744079601
20
-25.519898294962822
30
0
10
93.82707328796387
20
-25.394486053344984
30
0
10
93.658793830871602
20
-25.133608889140071
30
0
0
SPLINE
5
215
100
AcDbEntity
8
0
100
AcDbSpline
70
4
71
3
72
8
73
4
74
0
42
0.000000001
43
0.0000000001
44
0.0000000001
40
0
40
0
40
0
40
0
40
1
40
1
40
1
40
1
41
1
41
1
41
1
41
1
10
34.786886660257977
20
-23.838205885447444
30
0
10
34.468858591715502
20
-23.615427978393811
30
0
10
34.400330797831224
20
-23.397676411824804
30
0
10
34.400330797831224
20
-22.6118635888471
30
0
0
LINE
5
216
100
AcDbEntity
8
0
100
AcDbLine
10
34.400330797831224
20
-22.611863588847104
30
0
11
34.400330797831224
21
-21.656451137420909
31
0
0
LINE
5
217
100
AcDbEntity
8
0
100
AcDbLine
10
34.400330797831224
20
-21.656451137420909
30
0
11
33.704477357864391
21
-21.656451137420916
31
0
0
SPLINE
5
218
100
AcDbEntity
8
0
100
AcDbSpline
70
4
71
3
72
8
73
4
74
0
42
0.000000001
43
0.0000000001
44
0.0000000001
40
0
40
0
40
0
40
0
40
1
40
1
40
1
40
1
41
1
41
1
41
1
41
1
10
33.704477357864384
20
-21.656451137420916
30
0
10
32.969993766148889
20
-21.656451137420916
30
0
10
32.645086272557585
20
-21.340009696838642
30
0
10
32.645086272557585
20
-20.624844208913427
30
0
0
SPLINE
5
219
100
AcDbEntity
8
0
100
AcDbSpline
70
4
71
3
72
8
73
4
74
0
42
0.000000001
43
0.0000000001
44
0.0000000001
40
0
40
0
40
0
40
0
40
1
40
1
40
1
40
1
41
1
41
1
41
1
41
1
10
32.645086272557585
20
-20.624844208913427
30
0
10
32.645086272557585
20
-20.181928737518568
30
0
10
33.278762467702236
20
-19.725787329234066
30
0
10
33.893917910257983
20
-19.725787329234066
30
0
0
SPLINE
5
220
100
AcDbEntity
8
0
100
AcDbSpline
70
4
71
3
72
8
73
4
74
0
42
0.000000001
43
0.0000000001
44
0.0000000001
40
0
40
0
40
0
40
0
40
1
40
1
40
1
40
1
41
1
41
1
41
1
41
1
10
33.893917910257983
20
-19.725787329234066
30
0
10
34.536062177022302
20
-19.725787329234066
30
0
10
34.57574806213379
20
-19.542695307291922
30
0
10
34.57574806213379
20
-16.587299958425142
30
0
0
SPLINE
5
221
100
AcDbEntity
8
0
100
AcDbSpline
70
4
71
3
72
8
73
4
74
0
42
0.000000001
43
0.0000000001
44
0.0000000001
40
0
40
0
40
0
40
0
40
1
40
1
40
1
40
1
41
1
41
1
41
1
41
1
10
34.57574806213379
20
-16.587299958425142
30
0
10
34.57574806213379
20
-13.855740268585466
30
0
10
34.650097529093429
20
-13.582953301625826
30
0
10
35.394371382395434
20
-13.582953301625826
30
0
0
SPLINE
5
222
100
AcDbEntity
8
0
100
AcDbSpline
70
4
71
3
72
8
73
4
74
0
42
0.000000001
43
0.0000000001
44
0.0000000001
40
0
40
0
40
0
40
0
40
1
40
1
40
1
40
1
41
1
41
1
41
1
41
1
10
35.394371382395434
20
-13.582953301625826
30
0
10
36.093133640289309
20
-13.582953301625826
30
0
10
36.221194299062098
20
-14.147841302114106
30
0
10
36.177802244822189
20
-17.038943902211763
30
0
0
LINE
5
223
100
AcDbEntity
8
0
100
AcDbLine
10
36.177802244822189
20
-17.038943902211763
30
0
11
36.138116359710693
21
-19.704886634704845
31
0
0
LINE
5
224
100
AcDbEntity
8
0
100
AcDbLine
10
36.138116359710693
20
-19.704886634704845
30
0
11
36.887150096893315
21
-19.759126702504737
31
0
0
SPLINE
5
225
100
AcDbEntity
8
0
100
AcDbSpline
70
4
71
3
72
8
73
4
74
0
42
0.000000001
43
0.0000000001
44
0.0000000001
40
0
40
0
40
0
40
0
40
1
40
1
40
1
40
1
41
1
41
1
41
1
41
1
10
36.887150096893315
20
-19.759126702504737
30
0
10
38.472268136342372
20
-19.874482225932066
30
0
10
38.530214373270674
20
-21.656451137420916
30
0
10
36.948798465728764
20
-21.656451137420916
30
0
0
SPLINE
5
226
100
AcDbEntity
8
0
100
AcDbSpline
70
4
71
3
72
8
73
4
74
0
42
0.000000001
43
0.0000000001
44
0.0000000001
40
0
40
0
40
0
40
0
40
1
40
1
40
1
40
1
41
1
41
1
41
1
41
1
10
36.948798465728764
20
-21.656451137420916
30
0
10
36.174096075693775
20
-21.656451137420916
30
0
10
36.155048465728761
20
-21.669947568135839
30
0
10
36.137849903106691
20
-22.226894354380555
30
0
0
SPLINE
5
227
100
AcDbEntity
8
0
100
AcDbSpline
70
4
71
3
72
8
73
4
74
0
42
0.000000001
43
0.0000000001
44
0.0000000001
40
0
40
0
40
0
40
0
40
1
40
1
40
1
40
1
41
1
41
1
41
1
41
1
10
36.137849903106691
20
-22.226894354380555
30
0
10
36.09498672485352
20
-23.62363161202012
30
0
10
35.497821140289311
20
-24.335890300628922
30
0
10
34.786886660257977
20
-23.838205885447444
30
0
0
SPLINE
5
228
100
AcDbEntity
8
0
100
AcDbSpline
70
4
71
3
72
8
73
4
74
0
42
0.000000001
43
0.0000000001
44
0.0000000001
40
0
40
0
40
0
40
0
40
1
40
1
40
1
40
1
41
1
41
1
41
1
41
1
10
9.8192165374755866
20
-21.55723238742091
30
0
10
9.514151986440023
20
-21.189728172180438
30
0
10
9.3625462532043464
20
-14.476721421437837
30
0
10
9.64750241438548
20
-13.944639881012222
30
0
0
SPLINE
5
229
100
AcDbEntity
8
0
100
AcDbSpline
70
4
71
3
72
8
73
4
74
0
42
0.000000001
43
0.0000000001
44
0.0000000001
40
0
40
0
40
0
40
0
40
1
40
1
40
1
40
1
41
1
41
1
41
1
41
1
10
9.64750241438548
20
-13.944639881012222
30
0
10
10.254456241925558
20
-12.810374489980321
30
0
10
11.232620453834535
20
-13.837225571828462
30
0
10
11.232620453834535
20
-15.609137765126802
30
0
0
SPLINE
5
230
100
AcDbEntity
8
0
100
AcDbSpline
70
4
71
3
72
8
73
4
74
0
42
0.000000001
43
0.0000000001
44
0.0000000001
40
0
40
0
40
0
40
0
40
1
40
1
40
1
40
1
41
1
41
1
41
1
41
1
10
11.232620453834535
20
-15.609137765126802
30
0
10
11.232620453834535
20
-17.006662280914568
30
0
10
11.598010174433393
20
-18.304443207936867
30
0
10
12.230629626909895
20
-19.155348149495701
30
0
0
SPLINE
5
231
100
AcDbEntity
8
0
100
AcDbSpline
70
4
71
3
72
8
73
4
74
0
42
0.000000001
43
0.0000000001
44
0.0000000001
40
0
40
0
40
0
40
0
40
1
40
1
40
1
40
1
41
1
41
1
41
1
41
1
10
12.230629626909895
20
-19.155348149495701
30
0
10
12.99871501127879
20
-20.188545743184669
30
0
10
13.103224539756777
20
-19.972909680562594
30
0
10
13.208264962832136
20
-17.137104900238292
30
0
0
SPLINE
5
232
100
AcDbEntity
8
0
100
AcDbSpline
70
4
71
3
72
8
73
4
74
0
42
0.000000001
43
0.0000000001
44
0.0000000001
40
0
40
0
40
0
40
0
40
1
40
1
40
1
40
1
41
1
41
1
41
1
41
1
10
13.208264962832136
20
-17.137104900238292
30
0
10
13.322035876909894
20
-14.076140252309424
30
0
10
13.460412645339968
20
-13.582953301625826
30
0
10
14.206008688608806
20
-13.582953301625826
30
0
0
SPLINE
5
233
100
AcDbEntity
8
0
100
AcDbSpline
70
4
71
3
72
8
73
4
74
0
42
0.000000001
43
0.0000000001
44
0.0000000001
40
0
40
0
40
0
40
0
40
1
40
1
40
1
40
1
41
1
41
1
41
1
41
1
10
14.206008688608806
20
-13.582953301625826
30
0
10
14.538589930534364
20
-13.582953301625826
30
0
10
14.794706201553346
20
-13.703076783376318
30
0
10
14.906096164385481
20
-13.911042125580089
30
0
0
SPLINE
5
234
100
AcDbEntity
8
0
100
AcDbSpline
70
4
71
3
72
8
73
4
74
0
42
0.000000001
43
0.0000000001
44
0.0000000001
40
0
40
0
40
0
40
0
40
1
40
1
40
1
40
1
41
1
41
1
41
1
41
1
10
14.906096164385481
20
-13.911042125580089
30
0
10
15.116174991925559
20
-14.303153204478205
30
0
10
14.842066844304405
20
-19.793257371144868
30
0
10
14.578012386957806
20
-20.488051040527601
30
0
0
SPLINE
5
235
100
AcDbEntity
8
0
100
AcDbSpline
70
4
71
3
72
8
73
4
74
0
42
0.000000001
43
0.0000000001
44
0.0000000001
40
0
40
0
40
0
40
0
40
1
40
1
40
1
40
1
41
1
41
1
41
1
41
1
10
14.578012386957806
20
-20.488051040527601
30
0
10
14.109699765841167
20
-21.71969017143784
30
0
10
12.787577422459922
20
-22.056236973958594
30
0
10
11.772635134061179
20
-21.202162813700618
30
0
0
SPLINE
5
236
100
AcDbEntity
8
0
100
AcDbSpline
70
4
71
3
72
8
73
4
74
0
42
0.000000001
43
0.0000000001
44
0.0000000001
40
0
40
0
40
0
40
0
40
1
40
1
40
1
40
1
41
1
41
1
41
1
41
1
10
11.772635134061179
20
-21.202162813700618
30
0
10
11.372585868835452
20
-20.865349554575864
30
0
10
11.232620453834535
20
-20.816664703247334
30
0
10
11.232620453834535
20
-21.014044451273861
30
0
0
SPLINE
5
237
100
AcDbEntity
8
0
100
AcDbSpline
70
4
71
3
72
8
73
4
74
0
42
0.000000001
43
0.0000000001
44
0.0000000001
40
0
40
0
40
0
40
0
40
1
40
1
40
1
40
1
41
1
41
1
41
1
41
1
10
11.232620453834535
20
-21.014044451273861
30
0
10
11.232620453834535
20
-21.697198811727148
30
0
10
10.249164454142255
20
-22.075288621144871
30
0
10
9.8192165374755866
20
-21.55723238742091
30
0
0
SPLINE
5
238
100
AcDbEntity
8
0
100
AcDbSpline
70
4
71
3
72
8
73
4
74
0
42
0.000000001
43
0.0000000001
44
0.0000000001
40
0
40
0
40
0
40
0
40
1
40
1
40
1
40
1
41
1
41
1
41
1
41
1
10
45.566275533040368
20
-21.457751218038183
30
0
10
45.257242393493655
20
-21.016426411824803
30
0
10
45.36042973200481
20
-10.518024102407075
30
0
10
45.677932961781821
20
-10.116651637909193
30
0
0
SPLINE
5
239
100
AcDbEntity
8
0
100
AcDbSpline
70
4
71
3
72
8
73
4
74
0
42
0.000000001
43
0.0000000001
44
0.0000000001
40
0
40
0
40
0
40
0
40
1
40
1
40
1
40
1
41
1
41
1
41
1
41
1
10
45.677932961781821
20
-10.116651637909193
30
0
10
46.406857299804692
20
-9.1951074357404128
30
0
10
47.037095801035569
20
-10.127762070851904
30
0
10
47.037095801035569
20
-12.128011424896501
30
0
0
LINE
5
240
100
AcDbEntity
8
0
100
AcDbLine
10
47.037095801035569
20
-12.128011424896501
30
0
11
47.037095801035569
21
-13.680056547678889
31
0
0
LINE
5
241
100
AcDbEntity
8
0
100
AcDbLine
10
47.037095801035569
20
-13.680056547678889
30
0
11
47.734271430969244
21
-13.613652332184099
31
0
0
SPLINE
5
242
100
AcDbEntity
8
0
100
AcDbSpline
70
4
71
3
72
8
73
4
74
0
42
0.000000001
43
0.0000000001
44
0.0000000001
40
0
40
0
40
0
40
0
40
1
40
1
40
1
40
1
41
1
41
1
41
1
41
1
10
47.734271430969244
20
-13.613652332184092
30
0
10
50.33009974161785
20
-13.366001104868825
30
0
10
51.859391085306811
20
-17.091597342051443
30
0
10
50.399685287475592
20
-20.107054431793472
30
0
0
SPLINE
5
243
100
AcDbEntity
8
0
100
AcDbSpline
70
4
71
3
72
8
73
4
74
0
42
0.000000001
43
0.0000000001
44
0.0000000001
40
0
40
0
40
0
40
0
40
1
40
1
40
1
40
1
41
1
41
1
41
1
41
1
10
50.399685287475592
20
-20.107054431793472
30
0
10
49.793262354532885
20
-21.359590220011651
30
0
10
48.190679295857748
20
-21.864678899007419
30
0
10
47.260669040679943
20
-21.096331095255792
30
0
0
SPLINE
5
244
100
AcDbEntity
8
0
100
AcDbSpline
70
4
71
3
72
8
73
4
74
0
42
0.000000001
43
0.0000000001
44
0.0000000001
40
0
40
0
40
0
40
0
40
1
40
1
40
1
40
1
41
1
41
1
41
1
41
1
10
47.260669040679943
20
-21.096331095255792
30
0
10
47.104828262329114
20
-20.967479141113543
30
0
10
46.988677406311041
20
-21.04420653140285
30
0
10
46.837600549062095
20
-21.375464574056249
30
0
0
SPLINE
5
245
100
AcDbEntity
8
0
100
AcDbSpline
70
4
71
3
72
8
73
4
74
0
42
0.000000001
43
0.0000000001
44
0.0000000001
40
0
40
0
40
0
40
0
40
1
40
1
40
1
40
1
41
1
41
1
41
1
41
1
10
46.837600549062095
20
-21.375464574056249
30
0
10
46.579630184173588
20
-21.941939202504734
30
0
10
45.934575080871589
20
-21.983740591563166
30
0
10
45.566275533040368
20
-21.457751218038183
30
0
0
SPLINE
5
246
100
AcDbEntity
8
0
100
AcDbSpline
70
4
71
3
72
8
73
4
74
0
42
0.000000001
43
0.0000000001
44
0.0000000001
40
0
40
0
40
0
40
0
40
1
40
1
40
1
40
1
41
1
41
1
41
1
41
1
10
63.399723498026539
20
-21.612530207194276
30
0
10
63.30156250000001
20
-21.491881886678321
30
0
10
63.166097577412934
20
-19.853052655416114
30
0
10
63.098627535502125
20
-17.970807241953793
30
0
0
SPLINE
5
247
100
AcDbEntity
8
0
100
AcDbSpline
70
4
71
3
72
8
73
4
74
0
42
0.000000001
43
0.0000000001
44
0.0000000001
40
0
40
0
40
0
40
0
40
1
40
1
40
1
40
1
41
1
41
1
41
1
41
1
10
63.098627535502125
20
-17.970807241953793
30
0
10
62.958398691813159
20
-14.055501977162939
30
0
10
63.042005507151295
20
-13.582953301625826
30
0
10
63.875707848866796
20
-13.582953301625826
30
0
0
SPLINE
5
248
100
AcDbEntity
8
0
100
AcDbSpline
70
4
71
3
72
8
73
4
74
0
42
0.000000001
43
0.0000000001
44
0.0000000001
40
0
40
0
40
0
40
0
40
1
40
1
40
1
40
1
41
1
41
1
41
1
41
1
10
63.875707848866796
20
-13.582953301625826
30
0
10
64.574474143981945
20
-13.582953301625826
30
0
10
64.693269379933696
20
-13.867650071340183
30
0
10
64.827680587768569
20
-15.864726169464367
30
0
0
SPLINE
5
249
100
AcDbEntity
8
0
100
AcDbSpline
70
4
71
3
72
8
73
4
74
0
42
0.000000001
43
0.0000000001
44
0.0000000001
40
0
40
0
40
0
40
0
40
1
40
1
40
1
40
1
41
1
41
1
41
1
41
1
10
64.827680587768569
20
-15.864726169464367
30
0
10
64.945418071746829
20
-17.614151040273292
30
0
10
65.534908898671475
20
-19.224404819366718
30
0
10
66.20324665705364
20
-19.623128866709649
30
0
0
SPLINE
5
250
100
AcDbEntity
8
0
100
AcDbSpline
70
4
71
3
72
8
73
4
74
0
42
0.000000001
43
0.0000000001
44
0.0000000001
40
0
40
0
40
0
40
0
40
1
40
1
40
1
40
1
41
1
41
1
41
1
41
1
10
66.20324665705364
20
-19.623128866709649
30
0
10
66.671293830871591
20
-19.902266382731383
30
0
10
66.713894589742026
20
-19.729755917745216
30
0
10
66.769721285502129
20
-17.330512022532403
30
0
0
SPLINE
5
251
100
AcDbEntity
8
0
100
AcDbSpline
70
4
71
3
72
8
73
4
74
0
42
0.000000001
43
0.0000000001
44
0.0000000001
40
0
40
0
40
0
40
0
40
1
40
1
40
1
40
1
41
1
41
1
41
1
41
1
10
66.769721285502129
20
-17.330512022532403
30
0
10
66.837982622782391
20
-14.412691092051446
30
0
10
67.050974305470788
20
-13.582953301625826
30
0
10
67.732538000742608
20
-13.582953301625826
30
0
0
SPLINE
5
252
100
AcDbEntity
8
0
100
AcDbSpline
70
4
71
3
72
8
73
4
74
0
42
0.000000001
43
0.0000000001
44
0.0000000001
40
0
40
0
40
0
40
0
40
1
40
1
40
1
40
1
41
1
41
1
41
1
41
1
10
67.732538000742608
20
-13.582953301625826
30
0
10
68.610952568054216
20
-13.582953301625826
30
0
10
68.655402374267581
20
-13.791185100433605
30
0
10
68.472314389546725
20
-17.044232662079118
30
0
0
SPLINE
5
253
100
AcDbEntity
8
0
100
AcDbSpline
70
4
71
3
72
8
73
4
74
0
42
0.000000001
43
0.0000000001
44
0.0000000001
40
0
40
0
40
0
40
0
40
1
40
1
40
1
40
1
41
1
41
1
41
1
41
1
10
68.472314389546725
20
-17.044232662079118
30
0
10
68.294248708089199
20
-20.204948973215995
30
0
10
68.070409011840823
20
-21.120142626322689
30
0
10
67.385934480031338
20
-21.486589089589696
30
0
0
SPLINE
5
254
100
AcDbEntity
8
0
100
AcDbSpline
70
4
71
3
72
8
73
4
74
0
42
0.000000001
43
0.0000000001
44
0.0000000001
40
0
40
0
40
0
40
0
40
1
40
1
40
1
40
1
41
1
41
1
41
1
41
1
10
67.385934480031338
20
-21.486589089589696
30
0
10
66.853065681457537
20
-21.771810698069515
30
0
10
65.692602761586514
20
-21.590571760691581
30
0
10
65.222173627217629
20
-21.148451621887467
30
0
0
LINE
5
255
100
AcDbEntity
8
0
100
AcDbLine
10
65.222173627217629
20
-21.148451621887471
30
0
11
64.837466812133798
21
-20.78703149910508
31
0
0
LINE
5
256
100
AcDbEntity
8
0
100
AcDbLine
10
64.837466812133798
20
-20.78703149910508
30
0
11
64.640353520711272
21
-21.309585197326921
31
0
0
SPLINE
5
257
100
AcDbEntity
8
0
100
AcDbSpline
70
4
71
3
72
8
73
4
74
0
42
0.000000001
43
0.0000000001
44
0.0000000001
40
0
40
0
40
0
40
0
40
1
40
1
40
1
40
1
41
1
41
1
41
1
41
1
10
64.640353520711272
20
-21.309585197326921
30
0
10
64.428157170613616
20
-21.871824780660248
30
0
10
63.74579814275107
20
-22.038509535349789
30
0
10
63.399723498026539
20
-21.612530207194276
30
0
0
SPLINE
5
258
100
AcDbEntity
8
0
100
AcDbSpline
70
4
71
3
72
8
73
4
74
0
42
0.000000001
43
0.0000000001
44
0.0000000001
40
0
40
0
40
0
40
0
40
1
40
1
40
1
40
1
41
1
41
1
41
1
41
1
10
80.58732102711997
20
-21.601948650238299
30
0
10
80.258707364400252
20
-21.206131402211767
30
0
10
80.233305168151858
20
-13.964753317393246
30
0
10
80.559803326924651
20
-13.756521518585467
30
0
0
SPLINE
5
259
100
AcDbEntity
8
0
100
AcDbSpline
70
4
71
3
72
8
73
4
74
0
42
0.000000001
43
0.0000000001
44
0.0000000001
40
0
40
0
40
0
40
0
40
1
40
1
40
1
40
1
41
1
41
1
41
1
41
1
10
80.559803326924651
20
-13.756521518585467
30
0
10
81.518651453653987
20
-13.144276912567401
30
0
10
81.882986450195318
20
-13.656511473216
30
0
10
82.015278116861992
20
-15.802811344024921
30
0
0
SPLINE
5
260
100
AcDbEntity
8
0
100
AcDbSpline
70
4
71
3
72
8
73
4
74
0
42
0.000000001
43
0.0000000001
44
0.0000000001
40
0
40
0
40
0
40
0
40
1
40
1
40
1
40
1
41
1
41
1
41
1
41
1
10
82.015278116861992
20
-15.802811344024921
30
0
10
82.154182751973494
20
-18.059173941172546
30
0
10
83.027570978800469
20
-19.961532791015884
30
0
10
83.789838727315271
20
-19.668902881500507
30
0
0
SPLINE
5
261
100
AcDbEntity
8
0
100
AcDbSpline
70
4
71
3
72
8
73
4
74
0
42
0.000000001
43
0.0000000001
44
0.0000000001
40
0
40
0
40
0
40
0
40
1
40
1
40
1
40
1
41
1
41
1
41
1
41
1
10
83.789838727315271
20
-19.668902881500507
30
0
10
83.995155652364119
20
-19.590055950042988
30
0
10
84.029811159769707
20
-19.33817371483384
30
0
10
83.956527519226086
20
-18.462928366221369
30
0
0
SPLINE
5
262
100
AcDbEntity
8
0
100
AcDbSpline
70
4
71
3
72
8
73
4
74
0
42
0.000000001
43
0.0000000001
44
0.0000000001
40
0
40
0
40
0
40
0
40
1
40
1
40
1
40
1
41
1
41
1
41
1
41
1
10
83.956527519226086
20
-18.462928366221369
30
0
10
83.681625048319503
20
-15.176274974701185
30
0
10
84.618244234720876
20
-12.603733356354017
30
0
10
85.641130765279158
20
-13.835901363250986
30
0
0
SPLINE
5
263
100
AcDbEntity
8
0
100
AcDbSpline
70
4
71
3
72
8
73
4
74
0
42
0.000000001
43
0.0000000001
44
0.0000000001
40
0
40
0
40
0
40
0
40
1
40
1
40
1
40
1
41
1
41
1
41
1
41
1
10
85.641130765279158
20
-13.835901363250986
30
0
10
85.954661369323745
20
-14.213987135447441
30
0
10
85.590592829386409
20
-20.044348310984557
30
0
10
85.206943766276055
20
-20.786240203735609
30
0
0
SPLINE
5
264
100
AcDbEntity
8
0
100
AcDbSpline
70
4
71
3
72
8
73
4
74
0
42
0.000000001
43
0.0000000001
44
0.0000000001
40
0
40
0
40
0
40
0
40
1
40
1
40
1
40
1
41
1
41
1
41
1
41
1
10
85.206943766276055
20
-20.786240203735609
30
0
10
84.662435658772793
20
-21.839014283376315
30
0
10
83.255641682942723
20
-21.961515688456473
30
0
10
82.32404479980471
20
-21.037064686971291
30
0
0
SPLINE
5
265
100
AcDbEntity
8
0
100
AcDbSpline
70
4
71
3
72
8
73
4
74
0
42
0.000000001
43
0.0000000001
44
0.0000000001
40
0
40
0
40
0
40
0
40
1
40
1
40
1
40
1
41
1
41
1
41
1
41
1
10
82.32404479980471
20
-21.037064686971291
30
0
10
82.102853520711264
20
-20.817460035838067
30
0
10
82.041471608479824
20
-20.852648456451675
30
0
10
81.84991353352865
20
-21.308527445353455
30
0
0
SPLINE
5
266
100
AcDbEntity
8
0
100
AcDbSpline
70
4
71
3
72
8
73
4
74
0
42
0.000000001
43
0.0000000001
44
0.0000000001
40
0
40
0
40
0
40
0
40
1
40
1
40
1
40
1
41
1
41
1
41
1
41
1
10
81.84991353352865
20
-21.308527445353455
30
0
10
81.610990778605156
20
-21.876584664540868
30
0
10
80.943977228800463
20
-22.031630110300959
30
0
10
80.58732102711997
20
-21.601948650238299
30
0
0
SPLINE
5
267
100
AcDbEntity
8
0
100
AcDbSpline
70
4
71
3
72
8
73
4
74
0
42
0.000000001
43
0.0000000001
44
0.0000000001
40
0
40
0
40
0
40
0
40
1
40
1
40
1
40
1
41
1
41
1
41
1
41
1
10
28.949121220906584
20
-21.490028802114107
30
0
10
26.505958414077764
20
-20.748665785349793
30
0
10
26.642483107248943
20
-18.494943530914565
30
0
10
29.222170607248948
20
-16.986024005768083
30
0
0
SPLINE
5
268
100
AcDbEntity
8
0
100
AcDbSpline
70
4
71
3
72
8
73
4
74
0
42
0.000000001
43
0.0000000001
44
0.0000000001
40
0
40
0
40
0
40
0
40
1
40
1
40
1
40
1
41
1
41
1
41
1
41
1
10
29.222170607248948
20
-16.986024005768083
30
0
10
31.019749434789027
20
-15.934311715322114
30
0
10
30.526302083333338
20
-14.992129238006848
30
0
10
28.510707251230876
20
-15.627660536326351
30
0
0
SPLINE
5
269
100
AcDbEntity
8
0
100
AcDbSpline
70
4
71
3
72
8
73
4
74
0
42
0.000000001
43
0.0000000001
44
0.0000000001
40
0
40
0
40
0
40
0
40
1
40
1
40
1
40
1
41
1
41
1
41
1
41
1
10
28.510707251230876
20
-15.627660536326351
30
0
10
27.454753859837851
20
-15.960505206939954
30
0
10
27.028774531682338
20
-15.800962296681984
30
0
10
27.028774531682338
20
-15.072825216807306
30
0
0
SPLINE
5
270
100
AcDbEntity
8
0
100
AcDbSpline
70
4
71
3
72
8
73
4
74
0
42
0.000000001
43
0.0000000001
44
0.0000000001
40
0
40
0
40
0
40
0
40
1
40
1
40
1
40
1
41
1
41
1
41
1
41
1
10
27.028774531682338
20
-15.072825216807306
30
0
10
27.028774531682338
20
-13.218093466319027
30
0
10
30.990645106633508
20
-13.102209066904962
30
0
10
31.858744573593146
20
-14.931538621144869
30
0
0
SPLINE
5
271
100
AcDbEntity
8
0
100
AcDbSpline
70
4
71
3
72
8
73
4
74
0
42
0.000000001
43
0.0000000001
44
0.0000000001
40
0
40
0
40
0
40
0
40
1
40
1
40
1
40
1
41
1
41
1
41
1
41
1
10
31.858744573593146
20
-14.931538621144869
30
0
10
32.505119848251347
20
-16.293616334157566
30
0
10
32.066441440582281
20
-17.192665139394386
30
0
10
30.143979247411096
20
-18.44467205162583
30
0
0
SPLINE
5
272
100
AcDbEntity
8
0
100
AcDbSpline
70
4
71
3
72
8
73
4
74
0
42
0.000000001
43
0.0000000001
44
0.0000000001
40
0
40
0
40
0
40
0
40
1
40
1
40
1
40
1
41
1
41
1
41
1
41
1
10
30.143979247411096
20
-18.44467205162583
30
0
10
28.904406976699835
20
-19.252184938944758
30
0
10
28.692475064595545
20
-19.613338605123147
30
0
10
29.354197835922243
20
-19.790875410593927
30
0
0
SPLINE
5
273
100
AcDbEntity
8
0
100
AcDbSpline
70
4
71
3
72
8
73
4
74
0
42
0.000000001
43
0.0000000001
44
0.0000000001
40
0
40
0
40
0
40
0
40
1
40
1
40
1
40
1
41
1
41
1
41
1
41
1
10
29.354197835922243
20
-19.790875410593927
30
0
10
30.095296414693202
20
-19.989312910593924
30
0
10
30.570223013559982
20
-19.901737506744645
30
0
10
30.894866069157921
20
-19.506449134704845
30
0
0
SPLINE
5
274
100
AcDbEntity
8
0
100
AcDbSpline
70
4
71
3
72
8
73
4
74
0
42
0.000000001
43
0.0000000001
44
0.0000000001
40
0
40
0
40
0
40
0
40
1
40
1
40
1
40
1
41
1
41
1
41
1
41
1
10
30.894866069157921
20
-19.506449134704845
30
0
10
31.394663969675705
20
-18.897906660593932
30
0
10
31.840488258997603
20
-19.269117044962822
30
0
10
31.91033824284872
20
-20.352319661336526
30
0
0
SPLINE
5
275
100
AcDbEntity
8
0
100
AcDbSpline
70
4
71
3
72
8
73
4
74
0
42
0.000000001
43
0.0000000001
44
0.0000000001
40
0
40
0
40
0
40
0
40
1
40
1
40
1
40
1
41
1
41
1
41
1
41
1
10
31.91033824284872
20
-20.352319661336526
30
0
10
31.989447593688972
20
-21.578665995158133
30
0
10
30.776597690582278
20
-22.044597665029151
30
0
10
28.949121220906584
20
-21.490028802114107
30
0
0
SPLINE
5
276
100
AcDbEntity
8
0
100
AcDbSpline
70
4
71
3
72
8
73
4
74
0
42
0.000000001
43
0.0000000001
44
0.0000000001
40
0
40
0
40
0
40
0
40
1
40
1
40
1
40
1
41
1
41
1
41
1
41
1
10
76.054740778605151
20
-21.463835310496275
30
0
10
73.892566553751635
20
-20.837831854380546
30
0
10
74.114290746053072
20
-18.431712571340189
30
0
10
76.464583333333337
20
-17.018305627065278
30
0
0
SPLINE
5
277
100
AcDbEntity
8
0
100
AcDbSpline
70
4
71
3
72
8
73
4
74
0
42
0.000000001
43
0.0000000001
44
0.0000000001
40
0
40
0
40
0
40
0
40
1
40
1
40
1
40
1
41
1
41
1
41
1
41
1
10
76.464583333333337
20
-17.018305627065278
30
0
10
78.327777099609392
20
-15.897799086131039
30
0
10
77.968738937377935
20
-14.995036037323253
30
0
10
75.899170494079598
20
-15.596703123606623
30
0
0
SPLINE
5
278
100
AcDbEntity
8
0
100
AcDbSpline
70
4
71
3
72
8
73
4
74
0
42
0.000000001
43
0.0000000001
44
0.0000000001
40
0
40
0
40
0
40
0
40
1
40
1
40
1
40
1
41
1
41
1
41
1
41
1
10
75.899170494079598
20
-15.596703123606623
30
0
10
74.585515213012712
20
-15.978495064931488
30
0
10
74.055549176534029
20
-15.673692933278662
30
0
10
74.410622787475603
20
-14.739980546193703
30
0
0
SPLINE
5
279
100
AcDbEntity
8
0
100
AcDbSpline
70
4
71
3
72
8
73
4
74
0
42
0.000000001
43
0.0000000001
44
0.0000000001
40
0
40
0
40
0
40
0
40
1
40
1
40
1
40
1
41
1
41
1
41
1
41
1
10
74.410622787475603
20
-14.739980546193703
30
0
10
74.891633478800472
20
-13.47500607923406
30
0
10
77.348024241129565
20
-13.186877671437838
30
0
10
78.609825452168792
20
-14.24759296532212
30
0
0
SPLINE
5
280
100
AcDbEntity
8
0
100
AcDbSpline
70
4
71
3
72
8
73
4
74
0
42
0.000000001
43
0.0000000001
44
0.0000000001
40
0
40
0
40
0
40
0
40
1
40
1
40
1
40
1
41
1
41
1
41
1
41
1
10
78.609825452168792
20
-14.24759296532212
30
0
10
80.034609285990413
20
-15.445355772532405
30
0
10
79.581907590230315
20
-17.110378495412448
30
0
10
77.474494234720879
20
-18.423775394317889
30
0
0
SPLINE
5
281
100
AcDbEntity
8
0
100
AcDbSpline
70
4
71
3
72
8
73
4
74
0
42
0.000000001
43
0.0000000001
44
0.0000000001
40
0
40
0
40
0
40
0
40
1
40
1
40
1
40
1
41
1
41
1
41
1
41
1
10
77.474494234720879
20
-18.423775394317889
30
0
10
76.08569819132488
20
-19.289488863505309
30
0
10
75.978017425537118
20
-19.434219208913426
30
0
10
76.511415100097665
20
-19.719703236775974
30
0
0
SPLINE
5
282
100
AcDbEntity
8
0
100
AcDbSpline
70
4
71
3
72
8
73
4
74
0
42
0.000000001
43
0.0000000001
44
0.0000000001
40
0
40
0
40
0
40
0
40
1
40
1
40
1
40
1
41
1
41
1
41
1
41
1
10
76.511415100097665
20
-19.719703236775974
30
0
10
77.056456120808932
20
-20.011537813700613
30
0
10
77.822688420613616
20
-19.932162006256362
30
0
10
78.149453035990405
20
-19.550370064931492
30
0
0
SPLINE
5
283
100
AcDbEntity
8
0
100
AcDbSpline
70
4
71
3
72
8
73
4
74
0
42
0.000000001
43
0.0000000001
44
0.0000000001
40
0
40
0
40
0
40
0
40
1
40
1
40
1
40
1
41
1
41
1
41
1
41
1
10
78.149453035990405
20
-19.550370064931492
30
0
10
78.97203687032065
20
-18.589668853637953
30
0
10
79.816058349609392
20
-20.184048278686781
30
0
10
79.058029683431002
20
-21.266455562469744
30
0
0
SPLINE
5
284
100
AcDbEntity
8
0
100
AcDbSpline
70
4
71
3
72
8
73
4
74
0
42
0.000000001
43
0.0000000001
44
0.0000000001
40
0
40
0
40
0
40
0
40
1
40
1
40
1
40
1
41
1
41
1
41
1
41
1
10
79.058029683431002
20
-21.266455562469744
30
0
10
78.757458559672045
20
-21.695612183766944
30
0
10
77.207004102071139
20
-21.797475313700616
30
0
10
76.054740778605151
20
-21.463835310496275
30
0
0
SPLINE
5
285
100
AcDbEntity
8
0
100
AcDbSpline
70
4
71
3
72
8
73
4
74
0
42
0.000000001
43
0.0000000001
44
0.0000000001
40
0
40
0
40
0
40
0
40
1
40
1
40
1
40
1
41
1
41
1
41
1
41
1
10
17.630246543884279
20
-21.234177978393809
30
0
10
16.404166666666669
20
-20.699984971242529
30
0
10
15.589779400825503
20
-19.173075588104503
30
0
10
15.562262709935508
20
-17.356447131988784
30
0
0
SPLINE
5
286
100
AcDbEntity
8
0
100
AcDbSpline
70
4
71
3
72
8
73
4
74
0
42
0.000000001
43
0.0000000001
44
0.0000000001
40
0
40
0
40
0
40
0
40
1
40
1
40
1
40
1
41
1
41
1
41
1
41
1
10
15.562262709935508
20
-17.356447131988784
30
0
10
15.495588000615442
20
-12.921494968292491
30
0
10
20.175272480646772
20
-12.210298068878433
30
0
10
21.069829877217611
20
-16.519563459910334
30
0
0
SPLINE
5
287
100
AcDbEntity
8
0
100
AcDbSpline
70
4
71
3
72
8
73
4
74
0
42
0.000000001
43
0.0000000001
44
0.0000000001
40
0
40
0
40
0
40
0
40
1
40
1
40
1
40
1
41
1
41
1
41
1
41
1
10
21.069829877217611
20
-16.519563459910334
30
0
10
21.727584060033166
20
-19.688216948069517
30
0
10
19.883702341715498
20
-22.215517464833834
30
0
10
17.630246543884279
20
-21.234177978393809
30
0
0
SPLINE
5
288
100
AcDbEntity
8
0
100
AcDbSpline
70
4
71
3
72
8
73
4
74
0
42
0.000000001
43
0.0000000001
44
0.0000000001
40
0
40
0
40
0
40
0
40
1
40
1
40
1
40
1
41
1
41
1
41
1
41
1
10
40.543160788218188
20
-21.357737135447444
30
0
10
38.126193491617848
20
-20.481438072082774
30
0
10
37.693334738413498
20
-15.407527009206392
30
0
10
39.928800678253175
20
-14.157102687713881
30
0
0
SPLINE
5
289
100
AcDbEntity
8
0
100
AcDbSpline
70
4
71
3
72
8
73
4
74
0
42
0.000000001
43
0.0000000001
44
0.0000000001
40
0
40
0
40
0
40
0
40
1
40
1
40
1
40
1
41
1
41
1
41
1
41
1
10
39.928800678253175
20
-14.157102687713881
30
0
10
41.684576098124197
20
-13.174967868683121
30
0
10
44.58996642430624
20
-14.084868724701183
30
0
10
44.371419525146493
20
-15.548547148264822
30
0
0
SPLINE
5
290
100
AcDbEntity
8
0
100
AcDbSpline
70
4
71
3
72
8
73
4
74
0
42
0.000000001
43
0.0000000001
44
0.0000000001
40
0
40
0
40
0
40
0
40
1
40
1
40
1
40
1
41
1
41
1
41
1
41
1
10
44.371419525146493
20
-15.548547148264822
30
0
10
44.272729651133233
20
-16.210530320363617
30
0
10
43.799656136830656
20
-16.334884810007992
30
0
10
43.029188791910819
20
-15.902030094024919
30
0
0
SPLINE
5
291
100
AcDbEntity
8
0
100
AcDbSpline
70
4
71
3
72
8
73
4
74
0
42
0.000000001
43
0.0000000001
44
0.0000000001
40
0
40
0
40
0
40
0
40
1
40
1
40
1
40
1
41
1
41
1
41
1
41
1
10
43.029188791910819
20
-15.902030094024919
30
0
10
42.174052842458096
20
-15.421285859304055
30
0
10
41.080797545115153
20
-15.393768159108738
30
0
10
40.530992603302003
20
-15.839323973215995
30
0
0
LINE
5
292
100
AcDbEntity
8
0
100
AcDbLine
10
40.530992603302003
20
-15.839323973215997
30
0
11
40.128824806213387
21
-16.16476438001531
31
0
0
LINE
5
293
100
AcDbEntity
8
0
100
AcDbLine
10
40.128824806213387
20
-16.16476438001531
30
0
11
41.672932751973477
21
-17.023860843536639
31
0
0
SPLINE
5
294
100
AcDbEntity
8
0
100
AcDbSpline
70
4
71
3
72
8
73
4
74
0
42
0.000000001
43
0.0000000001
44
0.0000000001
40
0
40
0
40
0
40
0
40
1
40
1
40
1
40
1
41
1
41
1
41
1
41
1
10
41.672932751973477
20
-17.023860843536632
30
0
10
43.96051921844483
20
-18.296506030914568
30
0
10
44.603458817799897
20
-19.388974070109306
30
0
10
43.767112096150726
20
-20.583038782633729
30
0
0
SPLINE
5
295
100
AcDbEntity
8
0
100
AcDbSpline
70
4
71
3
72
8
73
4
74
0
42
0.000000001
43
0.0000000001
44
0.0000000001
40
0
40
0
40
0
40
0
40
1
40
1
40
1
40
1
41
1
41
1
41
1
41
1
10
43.767112096150726
20
-20.583038782633729
30
0
10
43.260432751973482
20
-21.306145484802499
30
0
10
41.540907541910812
20
-21.719423714833841
30
0
10
40.543160788218188
20
-21.357737135447444
30
0
0
SPLINE
5
296
100
AcDbEntity
8
0
100
AcDbSpline
70
4
71
3
72
8
73
4
74
0
42
0.000000001
43
0.0000000001
44
0.0000000001
40
0
40
0
40
0
40
0
40
1
40
1
40
1
40
1
41
1
41
1
41
1
41
1
10
58.708662128448495
20
-21.232324893829606
30
0
10
57.40029560724895
20
-20.648389283376318
30
0
10
56.641471608479826
20
-19.223871906158703
30
0
10
56.635649935404466
20
-17.340572777944185
30
0
0
SPLINE
5
297
100
AcDbEntity
8
0
100
AcDbSpline
70
4
71
3
72
8
73
4
74
0
42
0.000000001
43
0.0000000001
44
0.0000000001
40
0
40
0
40
0
40
0
40
1
40
1
40
1
40
1
41
1
41
1
41
1
41
1
10
56.635649935404466
20
-17.340572777944185
30
0
10
56.621362209320083
20
-12.878635827260592
30
0
10
61.241780281066902
20
-12.195481466807303
30
0
10
62.140837160746266
20
-16.526442884959167
30
0
0
SPLINE
5
298
100
AcDbEntity
8
0
100
AcDbSpline
70
4
71
3
72
8
73
4
74
0
42
0.000000001
43
0.0000000001
44
0.0000000001
40
0
40
0
40
0
40
0
40
1
40
1
40
1
40
1
41
1
41
1
41
1
41
1
10
62.140837160746266
20
-16.526442884959167
30
0
10
62.799118200937912
20
-19.697211877065286
30
0
10
60.949679247538256
20
-22.232716027455908
30
0
10
58.708662128448495
20
-21.232324893829606
30
0
0
SPLINE
5
299
100
AcDbEntity
8
0
100
AcDbSpline
70
4
71
3
72
8
73
4
74
0
42
0.000000001
43
0.0000000001
44
0.0000000001
40
0
40
0
40
0
40
0
40
1
40
1
40
1
40
1
41
1
41
1
41
1
41
1
10
88.370042037963884
20
-21.276774700042978
30
0
10
86.07292772928875
20
-20.009422309753681
30
0
10
85.598796463012704
20
-15.695921873606622
30
0
10
87.599570655822774
20
-14.27113803978501
30
0
0
SPLINE
5
300
100
AcDbEntity
8
0
100
AcDbSpline
70
4
71
3
72
8
73
4
74
0
42
0.000000001
43
0.0000000001
44
0.0000000001
40
0
40
0
40
0
40
0
40
1
40
1
40
1
40
1
41
1
41
1
41
1
41
1
10
87.599570655822774
20
-14.27113803978501
30
0
10
89.192101033528658
20
-13.137131030914562
30
0
10
92.31894505818687
20
-13.938559825775405
30
0
10
92.31894505818687
20
-15.480552267588559
30
0
0
SPLINE
5
301
100
AcDbEntity
8
0
100
AcDbSpline
70
4
71
3
72
8
73
4
74
0
42
0.000000001
43
0.0000000001
44
0.0000000001
40
0
40
0
40
0
40
0
40
1
40
1
40
1
40
1
41
1
41
1
41
1
41
1
10
92.31894505818687
20
-15.480552267588559
30
0
10
92.31894505818687
20
-16.166879883962253
30
0
10
91.849044799804716
20
-16.313188782888037
30
0
10
90.987566375732442
20
-15.894617755768081
30
0
0
SPLINE
5
302
100
AcDbEntity
8
0
100
AcDbSpline
70
4
71
3
72
8
73
4
74
0
42
0.000000001
43
0.0000000001
44
0.0000000001
40
0
40
0
40
0
40
0
40
1
40
1
40
1
40
1
41
1
41
1
41
1
41
1
10
90.987566375732442
20
-15.894617755768081
30
0
10
90.024212710062685
20
-15.426574619171403
30
0
10
88.985726356506362
20
-15.401705336131037
30
0
10
88.45179576873781
20
-15.834293595510109
30
0
0
LINE
5
303
100
AcDbEntity
8
0
100
AcDbLine
10
88.45179576873781
20
-15.834293595510109
30
0
11
88.055712064107269
21
-16.154703624603535
31
0
0
LINE
5
304
100
AcDbEntity
8
0
100
AcDbLine
10
88.055712064107269
20
-16.154703624603535
30
0
11
89.59373995463055
21
-17.018039170461275
31
0
0
SPLINE
5
305
100
AcDbEntity
8
0
100
AcDbSpline
70
4
71
3
72
8
73
4
74
0
42
0.000000001
43
0.0000000001
44
0.0000000001
40
0
40
0
40
0
40
0
40
1
40
1
40
1
40
1
41
1
41
1
41
1
41
1
10
89.59373995463055
20
-17.018039170461279
30
0
10
91.87656250000002
20
-18.299420904673518
30
0
10
92.51632480621339
20
-19.39161845004298
30
0
10
91.681831169128429
20
-20.583038782633729
30
0
0
SPLINE
5
306
100
AcDbEntity
8
0
100
AcDbSpline
70
4
71
3
72
8
73
4
74
0
42
0.000000001
43
0.0000000001
44
0.0000000001
40
0
40
0
40
0
40
0
40
1
40
1
40
1
40
1
41
1
41
1
41
1
41
1
10
91.681831169128429
20
-20.583038782633729
30
0
10
91.132292683919275
20
-21.36752739703395
30
0
10
89.249518394470215
20
-21.762020436483009
30
0
10
88.370042037963884
20
-21.276774700042978
30
0
0
SPLINE
5
307
100
AcDbEntity
8
0
100
AcDbSpline
70
4
71
3
72
8
73
4
74
0
42
0.000000001
43
0.0000000001
44
0.0000000001
40
0
40
0
40
0
40
0
40
1
40
1
40
1
40
1
41
1
41
1
41
1
41
1
10
90.306527519226094
20
-19.540846259948992
30
0
10
90.407861773173025
20
-19.376539428589126
30
0
10
88.137998708089214
20
-18.056533598460138
30
0
10
87.996978569030773
20
-18.197553737518568
30
0
0
SPLINE
5
308
100
AcDbEntity
8
0
100
AcDbSpline
70
4
71
3
72
8
73
4
74
0
42
0.000000001
43
0.0000000001
44
0.0000000001
40
0
40
0
40
0
40
0
40
1
40
1
40
1
40
1
41
1
41
1
41
1
41
1
10
87.996978569030773
20
-18.197553737518568
30
0
10
87.851719347635907
20
-18.342546502309425
30
0
10
88.420313517252609
20
-19.328912329234065
30
0
10
88.804220962524425
20
-19.597730707682555
30
0
0
SPLINE
5
309
100
AcDbEntity
8
0
100
AcDbSpline
70
4
71
3
72
8
73
4
74
0
42
0.000000001
43
0.0000000001
44
0.0000000001
40
0
40
0
40
0
40
0
40
1
40
1
40
1
40
1
41
1
41
1
41
1
41
1
10
88.804220962524425
20
-19.597730707682555
30
0
10
89.15691261291505
20
-19.844849021789813
30
0
10
90.141687774658209
20
-19.807545097229262
30
0
10
90.306527519226094
20
-19.540846259948992
30
0
0
SPLINE
5
310
100
AcDbEntity
8
0
100
AcDbSpline
70
4
71
3
72
8
73
4
74
0
42
0.000000001
43
0.0000000001
44
0.0000000001
40
0
40
0
40
0
40
0
40
1
40
1
40
1
40
1
41
1
41
1
41
1
41
1
10
42.268245251973475
20
-19.572594968038182
30
0
10
42.438107299804699
20
-19.464910165029146
30
0
10
42.294438743591314
20
-19.304571922180436
30
0
10
41.741727002461758
20
-18.984953188456473
30
0
0
SPLINE
5
311
100
AcDbEntity
8
0
100
AcDbSpline
70
4
71
3
72
8
73
4
74
0
42
0.000000001
43
0.0000000001
44
0.0000000001
40
0
40
0
40
0
40
0
40
1
40
1
40
1
40
1
41
1
41
1
41
1
41
1
10
41.741727002461758
20
-18.984953188456473
30
0
10
40.230954392751066
20
-18.111036085642755
30
0
10
40.192059803009037
20
-18.09806853091456
30
0
10
40.192059803009037
20
-18.465576783376321
30
0
0
SPLINE
5
312
100
AcDbEntity
8
0
100
AcDbSpline
70
4
71
3
72
8
73
4
74
0
42
0.000000001
43
0.0000000001
44
0.0000000001
40
0
40
0
40
0
40
0
40
1
40
1
40
1
40
1
41
1
41
1
41
1
41
1
10
40.192059803009037
20
-18.465576783376321
30
0
10
40.192059803009037
20
-19.30827405408758
30
0
10
41.54619630177816
20
-20.030323004282895
30
0
10
42.268245251973475
20
-19.572594968038182
30
0
0
SPLINE
5
313
100
AcDbEntity
8
0
100
AcDbSpline
70
4
71
3
72
8
73
4
74
0
42
0.000000001
43
0.0000000001
44
0.0000000001
40
0
40
0
40
0
40
0
40
1
40
1
40
1
40
1
41
1
41
1
41
1
41
1
10
19.207162968317672
20
-19.211703721242532
30
0
10
19.685264841715497
20
-18.683594806549337
30
0
10
19.681296253204348
20
-16.746576412079115
30
0
10
19.201076857248943
20
-16.098352090077981
30
0
0
SPLINE
5
314
100
AcDbEntity
8
0
100
AcDbSpline
70
4
71
3
72
8
73
4
74
0
42
0.000000001
43
0.0000000001
44
0.0000000001
40
0
40
0
40
0
40
0
40
1
40
1
40
1
40
1
41
1
41
1
41
1
41
1
10
19.201076857248943
20
-16.098352090077981
30
0
10
18.395421091715498
20
-15.011176847971859
30
0
10
17.200034189224244
20
-15.665230917490902
30
0
10
17.200034189224244
20
-17.193198052602394
30
0
0
SPLINE
5
315
100
AcDbEntity
8
0
100
AcDbSpline
70
4
71
3
72
8
73
4
74
0
42
0.000000001
43
0.0000000001
44
0.0000000001
40
0
40
0
40
0
40
0
40
1
40
1
40
1
40
1
41
1
41
1
41
1
41
1
10
17.200034189224244
20
-17.193198052602394
30
0
10
17.200034189224244
20
-18.963523617940528
30
0
10
18.368434286117555
20
-20.138536683278659
30
0
10
19.207162968317672
20
-19.211703721242532
30
0
0
SPLINE
5
316
100
AcDbEntity
8
0
100
AcDbSpline
70
4
71
3
72
8
73
4
74
0
42
0.000000001
43
0.0000000001
44
0.0000000001
40
0
40
0
40
0
40
0
40
1
40
1
40
1
40
1
41
1
41
1
41
1
41
1
10
48.855048465728771
20
-19.327059244669861
30
0
10
50.103086789449065
20
-18.414514008718115
30
0
10
49.090261014302577
20
-15.319943530914566
30
0
10
47.632937177022299
20
-15.593263411082212
30
0
0
LINE
5
317
100
AcDbEntity
8
0
100
AcDbLine
10
47.632937177022299
20
-15.593263411082209
30
0
11
47.037095801035562
21
-15.704916802602396
31
0
0
LINE
5
318
100
AcDbEntity
8
0
100
AcDbLine
10
47.037095801035562
20
-15.704916802602396
30
0
11
47.037095801035569
21
-17.259343885935724
31
0
0
LINE
5
319
100
AcDbEntity
8
0
100
AcDbLine
10
47.037095801035569
20
-17.259343885935724
30
0
11
47.037095801035569
21
-18.813770969269054
31
0
0
LINE
5
320
100
AcDbEntity
8
0
100
AcDbLine
10
47.037095801035569
20
-18.813770969269054
30
0
11
47.607539017995208
21
-19.179159680562602
31
0
0
SPLINE
5
321
100
AcDbEntity
8
0
100
AcDbSpline
70
4
71
3
72
8
73
4
74
0
42
0.000000001
43
0.0000000001
44
0.0000000001
40
0
40
0
40
0
40
0
40
1
40
1
40
1
40
1
41
1
41
1
41
1
41
1
10
47.607539017995208
20
-19.179159680562599
30
0
10
48.276139195760095
20
-19.607254512665051
30
0
10
48.444414615631111
20
-19.627363911824808
30
0
10
48.855048465728771
20
-19.327059244669861
30
0
0
SPLINE
5
322
100
AcDbEntity
8
0
100
AcDbSpline
70
4
71
3
72
8
73
4
74
0
42
0.000000001
43
0.0000000001
44
0.0000000001
40
0
40
0
40
0
40
0
40
1
40
1
40
1
40
1
41
1
41
1
41
1
41
1
10
60.28848737080893
20
-19.199002623118339
30
0
10
60.772408898671479
20
-18.664280739980317
30
0
10
60.761298465728764
20
-16.759543966807307
30
0
10
60.270759932200122
20
-16.098085633473971
30
0
0
SPLINE
5
323
100
AcDbEntity
8
0
100
AcDbSpline
70
4
71
3
72
8
73
4
74
0
42
0.000000001
43
0.0000000001
44
0.0000000001
40
0
40
0
40
0
40
0
40
1
40
1
40
1
40
1
41
1
41
1
41
1
41
1
10
60.270759932200122
20
-16.098085633473971
30
0
10
59.45954895019532
20
-15.004297422923027
30
0
10
58.269715245564782
20
-15.665489299652355
30
0
10
58.269715245564782
20
-17.210396615224461
30
0
0
SPLINE
5
324
100
AcDbEntity
8
0
100
AcDbSpline
70
4
71
3
72
8
73
4
74
0
42
0.000000001
43
0.0000000001
44
0.0000000001
40
0
40
0
40
0
40
0
40
1
40
1
40
1
40
1
41
1
41
1
41
1
41
1
10
58.269715245564782
20
-17.210396615224461
30
0
10
58.269715245564782
20
-19.004271292246759
30
0
10
59.430178165435798
20
-20.147269192891699
30
0
10
60.28848737080893
20
-19.199002623118339
30
0
0
ENDSEC
0
SECTION
2
OBJECTS
0
DICTIONARY
5
C
100
AcDbDictionary
3
ACAD_GROUP
350
D
3
ACAD_MLINESTYLE
350
17
0
DICTIONARY
5
D
100
AcDbDictionary
0
DICTIONARY
5
1A
330
C
100
AcDbDictionary
0
DICTIONARY
5
17
100
AcDbDictionary
0
ENDSEC
0
EOF
