0
SECTION
2
HEADER
9
$INSUNITS
70
4
9
$ACADVER
1
AC1014
9
$HANDSEED
5
FFFF
0
ENDSEC
0
SECTION
2
TABLES
0
TABLE
2
VPORT
5
8
100
AcDbSymbolTable
0
ENDTAB
0
TABLE
2
LTYPE
5
5
100
AcDbSymbolTable
0
LTYPE
5
14
100
AcDbSymbolTableRecord
100
AcDbLinetypeTableRecord
2
BYBLOCK
70
0
0
LTYPE
5
15
100
AcDbSymbolTableRecord
100
AcDbLinetypeTableRecord
2
BYLAYER
70
0
0
LTYPE
5
16
100
AcDbSymbolTableRecord
100
AcDbLinetypeTableRecord
2
DASHED
70
0
3
Dashed __ __ __ __ __ __ __ __ __ __ __ __ __ _
72
65
73
2
40
0.75
49
0.5
74
0
49
-0.25
74
0
0
ENDTAB
0
TABLE
2
LAYER
5
2
100
AcDbSymbolTable
70
2
0
LAYER
5
50
100
AcDbSymbolTableRecord
100
AcDbLayerTableRecord
2
0
70
0
62
7
6
CONTINUOUS
0
ENDTAB
0
TABLE
2
STYLE
5
3
100
AcDbSymbolTable
70
1
0
STYLE
5
11
100
AcDbSymbolTableRecord
100
AcDbTextStyleTableRecord
2
STANDARD
70
0
0
ENDTAB
0
TABLE
2
VIEW
5
6
100
AcDbSymbolTable
70
0
0
ENDTAB
0
TABLE
2
UCS
5
7
100
AcDbSymbolTable
70
0
0
ENDTAB
0
TABLE
2
APPID
5
9
100
AcDbSymbolTable
70
2
0
APPID
5
12
100
AcDbSymbolTableRecord
100
AcDbRegAppTableRecord
2
ACAD
70
0
0
ENDTAB
0
TABLE
2
DIMSTYLE
5
A
100
AcDbSymbolTable
70
1
0
ENDTAB
0
TABLE
2
BLOCK_RECORD
5
1
100
AcDbSymbolTable
70
1
0
BLOCK_RECORD
5
1F
100
AcDbSymbolTableRecord
100
AcDbBlockTableRecord
2
*MODEL_SPACE
0
BLOCK_RECORD
5
1B
100
AcDbSymbolTableRecord
100
AcDbBlockTableRecord
2
*PAPER_SPACE
0
ENDTAB
0
ENDSEC
0
SECTION
2
BLOCKS
0
BLOCK
5
20
100
AcDbEntity
100
AcDbBlockBegin
2
*MODEL_SPACE
0
ENDBLK
5
21
100
AcDbEntity
100
AcDbBlockEnd
0
BLOCK
5
1C
100
AcDbEntity
100
AcDbBlockBegin
2
*PAPER_SPACE
0
ENDBLK
5
1D
100
AcDbEntity
100
AcDbBlockEnd
0
ENDSEC
0
SECTION
2
ENTITIES
0
POINT
5
100
100
AcDbEntity
8
0
100
AcDbPoint
10
0
20
0
30
0
0
LINE
5
101
100
AcDbEntity
8
0
100
AcDbLine
10
0
20
0
30
0
11
-21.000000000000007
21
-3.7244895984350593e-22
31
0
6
DASHED
0
LWPOLYLINE
5
102
100
AcDbEntity
8
0
100
AcDbPolyline
90
2
70
1
43
0.0
10
-10.000000000000009
20
-1.8197973476166609e-22
10
-18
20
-3.1432863277015052e-22
42
-0.99999999999999989
0
ARC
5
103
100
AcDbEntity
8
0
100
AcDbCircle
10
-14.000000000000004
20
-2.481541837659083e-22
30
0
40
3.9999999999999947
210
0
220
0
230
1
100
AcDbArc
50
-180
51
0
0
LWPOLYLINE
5
104
100
AcDbEntity
8
0
100
AcDbPolyline
90
2
70
1
43
0.0
10
0
20
0
10
-8.0000000000000089
20
-1.4268865566539727e-22
42
-0.99999999999999989
0
ARC
5
105
100
AcDbEntity
8
0
100
AcDbCircle
10
-4.0000000000000044
20
-7.1344327832698637e-23
30
0
40
4.0000000000000053
210
0
220
0
230
1
100
AcDbArc
50
-180
51
0
0
CIRCLE
5
106
100
AcDbEntity
8
0
100
AcDbCircle
10
-21.000000000000007
20
-3.7244895984350593e-22
30
0
40
2
210
0
220
0
230
1
0
LINE
5
107
100
AcDbEntity
8
0
100
AcDbLine
10
-4.0000000000000044
20
-7.1344327832698637e-23
30
0
11
-14.000000000000004
21
-2.481541837659083e-22
31
0
6
DASHED
0
LINE
5
108
100
AcDbEntity
8
0
100
AcDbLine
10
-9.0000000000000036
20
2.7000000000000002
30
0
11
-9.0000000000000036
21
-2.7000000000000002
31
0
6
DASHED
0
CIRCLE
5
109
100
AcDbEntity
8
0
100
AcDbCircle
10
-9.0000000000000036
20
-2.7000000000000002
30
0
40
1
210
0
220
0
230
1
0
CIRCLE
5
110
100
AcDbEntity
8
0
100
AcDbCircle
10
-9.0000000000000036
20
2.7000000000000002
30
0
40
1
210
0
220
0
230
1
0
LINE
5
111
100
AcDbEntity
8
0
100
AcDbLine
10
-4.0000000000000044
20
-7.1344327832698637e-23
30
0
11
-4.0000000000000044
21
-5.4000000000000004
31
0
6
DASHED
0
LINE
5
112
100
AcDbEntity
8
0
100
AcDbLine
10
-4.0000000000000044
20
-7.1344327832698637e-23
30
0
11
-4.0000000000000044
21
5.4000000000000004
31
0
6
DASHED
0
LINE
5
113
100
AcDbEntity
8
0
100
AcDbLine
10
-21.000000000000007
20
-3.7244895984350593e-22
30
0
11
-21.000000000000007
21
-3.0000000000000004
31
0
6
DASHED
0
LINE
5
114
100
AcDbEntity
8
0
100
AcDbLine
10
-21.000000000000007
20
-3.7244895984350593e-22
30
0
11
-21
21
3.0000000000000004
31
0
6
DASHED
0
LINE
5
115
100
AcDbEntity
8
0
100
AcDbLine
10
-14.000000000000004
20
-2.481541837659083e-22
30
0
11
-14.000000000000004
21
4.75
31
0
6
DASHED
0
CIRCLE
5
116
100
AcDbEntity
8
0
100
AcDbCircle
10
-14.000000000000004
20
-2.481541837659083e-22
30
0
40
4.75
210
0
220
0
230
1
0
LINE
5
117
100
AcDbEntity
8
0
100
AcDbLine
10
-9.0000000000000036
20
-1.7000000000000002
30
0
11
-9.0000000000000036
21
-3.7000000000000002
31
0
0
LINE
5
118
100
AcDbEntity
8
0
100
AcDbLine
10
-9.0000000000000036
20
3.7000000000000002
30
0
11
-9.0000000000000036
21
1.7000000000000002
31
0
0
CIRCLE
5
119
100
AcDbEntity
8
0
100
AcDbCircle
10
-9.0000000000000036
20
2.7000000000000002
30
0
40
1.7500000000000002
210
0
220
0
230
1
0
CIRCLE
5
120
100
AcDbEntity
8
0
100
AcDbCircle
10
-9.0000000000000036
20
-2.7000000000000002
30
0
40
1.7500000000000002
210
0
220
0
230
1
0
CIRCLE
5
121
100
AcDbEntity
8
0
100
AcDbCircle
10
-4.0000000000000044
20
-7.1344327832698637e-23
30
0
40
4.75
210
0
220
0
230
1
0
LINE
5
122
100
AcDbEntity
8
0
100
AcDbLine
10
-4.2897775389709221
20
4.7411527056094656
30
0
11
-9.1067601459366507
21
4.4467404704876996
31
0
0
LINE
5
123
100
AcDbEntity
8
0
100
AcDbLine
10
-8.8932398540631006
20
4.4467404704876836
30
0
11
-13.710222461029115
21
4.7411527056094682
31
0
0
LINE
5
124
100
AcDbEntity
8
0
100
AcDbLine
10
-15.357142857142863
20
4.551995525624573
30
0
11
-21.785714285714292
21
2.6353658306247496
31
0
0
LINE
5
125
100
AcDbEntity
8
0
100
AcDbLine
10
-21.785714285714292
20
-2.635365830624754
30
0
11
-15.357142857142861
21
-4.5519955256245712
31
0
0
LINE
5
126
100
AcDbEntity
8
0
100
AcDbLine
10
-13.710222461029115
20
-4.7411527056094673
30
0
11
-8.8932398540632533
21
-4.4467404704876916
31
0
0
LINE
5
127
100
AcDbEntity
8
0
100
AcDbLine
10
-9.1067601459366472
20
-4.4467404704877005
30
0
11
-4.2897775389709061
21
-4.7411527056094691
31
0
0
CIRCLE
5
128
100
AcDbEntity
8
0
100
AcDbCircle
10
-21.000000000000007
20
-3.7244895984350593e-22
30
0
40
2.75
210
0
220
0
230
1
0
ENDSEC
0
SECTION
2
OBJECTS
0
DICTIONARY
5
C
100
AcDbDictionary
3
ACAD_GROUP
350
D
3
ACAD_MLINESTYLE
350
17
0
DICTIONARY
5
D
100
AcDbDictionary
0
DICTIONARY
5
1A
330
C
100
AcDbDictionary
0
DICTIONARY
5
17
100
AcDbDictionary
0
ENDSEC
0
EOF
