                                                                        S      1
,,13Htree thing v1,13Htree thing v1,7Hunknown,7Hunknown,32,38,7,99,15,, G      1
1.,2,2HMM,1,0.08,15H20250912.002050,0.01,10000.,7Hunknown,7Hunknown,11, G      2
0,15H20201211.232310;                                                   G      3
     186       1                                                00000000D      1
     186            -115       1       0                               0D      2
     514       2                                                00010000D      3
     514                       1       1                               0D      4
     510       3                                                00010000D      5
     510            -115       1       1                               0D      6
     510       4                                                00010000D      7
     510            -115       1       1                               0D      8
     510       5                                                00010000D      9
     510            -115       1       1                               0D     10
     510       6                                                00010000D     11
     510            -115       1       1                               0D     12
     510       7                                                00010000D     13
     510            -115       1       1                               0D     14
     510       8                                                00010000D     15
     510            -115       1       1                               0D     16
     510       9                                                00010000D     17
     510            -115       1       1                               0D     18
     510      10                                                00010000D     19
     510            -115       1       1                               0D     20
     510      11                                                00010000D     21
     510            -115       1       1                               0D     22
     510      12                                                00010000D     23
     510            -115       1       1                               0D     24
     508      13                                                00010000D     25
     508                       2       1                               0D     26
     508      15                                                00010000D     27
     508                       2       1                               0D     28
     508      17                                                00010000D     29
     508                       1       1                               0D     30
     508      18                                                00010000D     31
     508                       1       1                               0D     32
     508      19                                                00010000D     33
     508                       1       1                               0D     34
     508      20                                                00010000D     35
     508                       1       1                               0D     36
     508      21                                                00010000D     37
     508                       1       1                               0D     38
     508      22                                                00010000D     39
     508                       1       1                               0D     40
     508      23                                                00010000D     41
     508                       1       1                               0D     42
     508      24                                                00010000D     43
     508                       1       1                               0D     44
     508      25                                                00010000D     45
     508                       1       1                               0D     46
     508      26                                                00010000D     47
     508                       1       1                               0D     48
     126      27                                                00010000D     49
     126       0              14       0                               0D     50
     126      41                                                00010000D     51
     126       0              37       0                               0D     52
     126      78                                                00010000D     53
     126       0               3       0                               0D     54
     126      81                                                00010000D     55
     126       0              12       0                               0D     56
     126      93                                                00010000D     57
     126       0              36       0                               0D     58
     126     129                                                00010000D     59
     126       0              15       0                               0D     60
     126     144                                                00010000D     61
     126       0               4       0                               0D     62
     126     148                                                00010000D     63
     126       0              12       0                               0D     64
     126     160                                                00010000D     65
     126       0               3       0                               0D     66
     126     163                                                00010000D     67
     126       0               2       0                               0D     68
     126     165                                                00010000D     69
     126       0               4       0                               0D     70
     126     169                                                00010000D     71
     126       0               2       0                               0D     72
     126     171                                                00010000D     73
     126       0               2       0                               0D     74
     126     173                                                00010000D     75
     126       0               2       0                               0D     76
     126     175                                                00010000D     77
     126       0               2       0                               0D     78
     126     177                                                00010000D     79
     126       0               3       0                               0D     80
     126     180                                                00010000D     81
     126       0               4       0                               0D     82
     126     184                                                00010000D     83
     126       0               2       0                               0D     84
     126     186                                                00010000D     85
     126       0               2       0                               0D     86
     126     188                                                00010000D     87
     126       0               2       0                               0D     88
     128     190                                                00010000D     89
     128       0    -115      21       0                               0D     90
     128     211                                                00010000D     91
     128       0    -115      21       0                               0D     92
     128     232                                                00010000D     93
     128       0    -115       5       0                               0D     94
     128     237                                                00010000D     95
     128       0    -115       5       0                               0D     96
     128     242                                                00010000D     97
     128       0    -115       3       0                               0D     98
     128     245                                                00010000D     99
     128       0    -115       4       0                               0D    100
     128     249                                                00010000D    101
     128       0    -115       3       0                               0D    102
     128     252                                                00010000D    103
     128       0    -115      10       0                               0D    104
     128     262                                                00010000D    105
     128       0    -115       5       0                               0D    106
     128     267                                                00010000D    107
     128       0    -115       4       0                               0D    108
     502     271                                                00010000D    109
     502                       6       1                               0D    110
     504     277                                                00010001D    111
     504                       6       1                               0D    112
     406     283                                                00000000D    113
     406                       1      15                               0D    114
     314     284                                                00000200D    115
     314                       2       0                               0D    116
186,3,1,0,0,1,113;                                                     1P      1
514,10,5,1,7,1,9,1,11,1,13,1,15,1,17,1,19,1,21,1,23,1;                 3P      2
510,89,1,1,25;                                                         5P      3
510,91,1,1,27;                                                         7P      4
510,93,2,1,29,31;                                                      9P      5
510,95,2,1,33,35;                                                     11P      6
510,97,1,1,37;                                                        13P      7
510,99,1,1,39;                                                        15P      8
510,101,1,1,41;                                                       17P      9
510,103,1,1,43;                                                       19P     10
510,105,1,1,45;                                                       21P     11
510,107,1,1,47;                                                       23P     12
508,5,0,111,1,0,0,0,111,2,0,0,0,111,3,1,0,0,111,4,0,0,0,111,3,0,      25P     13
0;                                                                    25P     14
508,5,0,111,5,0,0,0,111,6,0,0,0,111,7,1,0,0,111,8,0,0,0,111,7,0,      27P     15
0;                                                                    27P     16
508,1,0,111,8,1,0;                                                    29P     17
508,1,0,111,4,1,0;                                                    31P     18
508,4,0,111,9,1,0,0,111,10,1,0,0,111,11,0,0,0,111,12,0,0;             33P     19
508,2,0,111,5,1,0,0,111,6,1,0;                                        35P     20
508,4,0,111,13,1,0,0,111,12,1,0,0,111,14,0,0,0,111,15,0,0;            37P     21
508,4,0,111,16,0,0,0,111,15,1,0,0,111,17,0,0,0,111,18,0,0;            39P     22
508,4,0,111,19,0,0,0,111,18,1,0,0,111,20,0,0,0,111,10,0,0;            41P     23
508,2,0,111,1,1,0,0,111,2,1,0;                                        43P     24
508,4,0,111,11,1,0,0,111,20,1,0,0,111,17,1,0,0,111,14,1,0;            45P     25
508,4,0,111,9,0,0,0,111,13,0,0,0,111,16,1,0,0,111,19,1,0;             47P     26
126,9,3,0,0,1,0,0.,0.,0.,0.,0.150751787588296,0.150751787588296,      49P     27
0.301503575176592,0.301503575176592,0.452258347484548,                49P     28
0.452258347484548,0.603013119792504,0.603013119792504,                49P     29
0.603013119792504,0.603013119792504,1.,1.,1.,1.,1.,1.,1.,1.,1.,       49P     30
1.,36.3188714211987,20.,-30.6135522063422,36.3188714211987,           49P     31
19.4974940413723,-30.6135522063422,36.2541181261432,                  49P     32
18.9616592425523,-30.6908919969232,35.9881560080896,                  49P     33
17.9762195029874,-31.0023315200431,35.7866295946312,                  49P     34
17.5265940403695,-31.2360949314274,35.314891538619,                   49P     35
16.8165787582666,-31.7684580194351,35.0131217223986,                  49P     36
16.508774531264,-32.1025598574547,34.339278951839,                    49P     37
16.1004784672176,-32.822354626278,33.9668717987472,16.,               49P     38
-33.2077422063734,33.6117958475167,16.,-33.5633308821526,0.,          49P     39
0.603013119792504,0.,0.,0.;                                           49P     40
126,25,3,0,0,1,0,0.603013119792504,0.603013119792504,                 51P     41
0.603013119792504,0.603013119792504,0.753760764043925,                51P     42
0.753760764043925,0.904508408295346,0.904508408295346,                51P     43
1.05525946505663,1.05525946505663,1.20601052181792,                   51P     44
1.20601052181792,1.35676157857921,1.35676157857921,                   51P     45
1.5075126353405,1.5075126353405,1.65826027959192,                     51P     46
1.65826027959192,1.80900792384334,1.80900792384334,                   51P     47
1.9597626961513,1.9597626961513,2.11051746845926,                     51P     48
2.11051746845926,2.26126925604755,2.26126925604755,                   51P     49
2.41202104363585,2.41202104363585,2.41202104363585,                   51P     50
2.41202104363585,1.,1.,1.,1.,1.,1.,1.,1.,1.,1.,1.,1.,1.,1.,1.,        51P     51
1.,1.,1.,1.,1.,1.,1.,1.,1.,1.,1.,33.6117958475167,16.,                51P     52
-33.5633308821526,33.2567366851507,16.,-33.9189027448244,             51P     53
32.8719041277883,16.1004699709439,-34.2918494042294,                  51P     54
32.1531213207764,16.5087517661245,-34.9666956672166,                  51P     55
31.8194770716285,16.8165506658894,-35.2689289370784,                  51P     56
31.2878271887853,17.5265696253283,-35.7414093875883,                  51P     57
31.0543732783884,17.9762059489581,-35.9432584075427,                  51P     58
30.743348251193,18.9616593434705,-36.2096459952069,                   51P     59
30.6661129814014,19.4974964774624,-36.2745022655297,                  51P     60
30.6661129814014,20.5025035225376,-36.2745022655297,                  51P     61
30.743348251193,21.0383406565295,-36.2096459952069,                   51P     62
31.0543732783884,22.0237940510419,-35.9432584075427,                  51P     63
31.2878271887853,22.4734303746717,-35.7414093875883,                  51P     64
31.8194770716285,23.1834493341106,-35.2689289370784,                  51P     65
32.1531213207764,23.4912482338755,-34.9666956672166,                  51P     66
32.8719041277883,23.8995300290561,-34.2918494042294,                  51P     67
33.2567366851507,24.,-33.9189027448244,33.9668717987472,24.,          51P     68
-33.2077422063734,34.339278951839,23.8995215327825,                   51P     69
-32.822354626278,35.0131217223987,23.491225468736,                    51P     70
-32.1025598574547,35.314891538619,23.1834212417334,                   51P     71
-31.7684580194351,35.7866295946312,22.4734059596305,                  51P     72
-31.2360949314274,35.9881560080896,22.0237804970126,                  51P     73
-31.0023315200431,36.2541181261432,21.0383407574477,                  51P     74
-30.6908919969231,36.3188714211987,20.5025059586277,                  51P     75
-30.6135522063422,36.3188714211987,20.,-30.6135522063422,             51P     76
0.603013119792504,2.41202104363585,0.,0.,0.;                          51P     77
126,1,1,0,0,1,0,-0.196070902461757,-0.196070902461757,2.5,2.5,        53P     78
1.,1.,33.6117958475167,16.,-33.5633308821526,41.2374359182785,        53P     79
16.,-41.1889709529144,-0.196070902461757,2.5,0.,0.,0.;                53P     80
126,8,2,0,1,0,0,-3.14159265358979,-3.14159265358979,                  55P     81
-3.14159265358979,-1.5707963267949,-1.5707963267949,0.,0.,            55P     82
1.5707963267949,1.5707963267949,3.14159265358979,                     55P     83
3.14159265358979,3.14159265358979,1.,0.707106781186547,1.,            55P     84
0.707106781186547,1.,0.707106781186547,1.,0.707106781186547,1.,       55P     85
41.2374359182785,16.,-41.1889709529144,44.0658630430246,16.,          55P     86
-38.3605438281682,44.0658630430246,20.,-38.3605438281682,             55P     87
44.0658630430246,24.,-38.3605438281682,41.2374359182785,24.,          55P     88
-41.1889709529144,38.4090087935323,24.,-44.0173980776606,             55P     89
38.4090087935323,20.,-44.0173980776606,38.4090087935323,16.,          55P     90
-44.0173980776606,41.2374359182785,16.,-41.1889709529144,             55P     91
-3.14159265358979,3.14159265358979,0.,0.,0.;                          55P     92
126,25,3,0,0,1,0,0.,0.,0.,0.,0.283028899121515,                       57P     93
0.283028899121515,0.56605779824303,0.56605779824303,                  57P     94
0.849091929058702,0.849091929058702,1.13212605987437,                 57P     95
1.13212605987437,1.41513494933409,1.41513494933409,                   57P     96
1.69814383879381,1.69814383879381,1.98116994148886,                   57P     97
1.98116994148886,2.26419604418392,2.26419604418392,                   57P     98
2.54722214687897,2.54722214687897,2.83024824957402,                   57P     99
2.83024824957402,3.11325713903374,3.11325713903374,                   57P    100
3.39626602849346,3.39626602849346,3.39626602849346,                   57P    101
3.39626602849346,1.,1.,1.,1.,1.,1.,1.,1.,1.,1.,1.,1.,1.,1.,1.,        57P    102
1.,1.,1.,1.,1.,1.,1.,1.,1.,1.,1.,38.4898973781564,20.,                57P    103
-27.8348306949941,38.4898973781564,20.9434296637384,                  57P    104
-27.8348306949941,38.3786547253222,21.9486351666424,                  57P    105
-27.9906899355477,37.9173464585644,23.7959762736978,                  57P    106
-28.6124919833901,37.566147292356,24.638250614352,                    57P    107
-29.077180484658,36.7320717697209,25.9682436613122,                   57P    108
-30.1239567020868,36.1930516115783,26.545200564818,                   57P    109
-30.7761180319744,34.9668310055415,27.3111224625527,                  57P    110
-32.1625116474023,34.2784322112717,27.5,-32.8957319051101,            57P    111
32.9452189352692,27.5,-34.2308703218405,32.2130554390408,             57P    112
27.3111525983378,-34.9202708380234,30.8285767095576,                  57P    113
26.5452812464478,-36.1483763704385,30.1772759407116,                  57P    114
25.9683431748681,-36.6882780747481,29.1318273622755,                  57P    115
24.6383367271579,-37.5237847277186,28.6677176280472,                  57P    116
23.7960237671168,-37.8756091995246,28.0467005312276,                  57P    117
21.9486340724367,-38.3377411588931,27.8910452364799,                  57P    118
20.9434203423168,-38.449181988914,27.8910452364799,                   57P    119
19.0565796576832,-38.449181988914,28.0467005312276,                   57P    120
18.0513659275633,-38.3377411588931,28.6677176280472,                  57P    121
16.2039762328832,-37.8756091995246,29.1318273622755,                  57P    122
15.3616632728421,-37.5237847277186,30.1772759407116,                  57P    123
14.0316568251319,-36.6882780747481,30.8285767095575,                  57P    124
13.4547187535522,-36.1483763704385,32.2130554390407,                  57P    125
12.6888474016622,-34.9202708380234,32.9452189352692,12.5,             57P    126
-34.2308703218405,33.6117958475167,12.5,-33.5633308821526,0.,         57P    127
3.39626602849346,0.,0.,0.;                                            57P    128
126,9,3,0,0,1,0,3.39626602849346,3.39626602849346,                    59P    129
3.39626602849346,3.39626602849346,3.67930015930913,                   59P    130
3.67930015930913,3.9623342901248,3.9623342901248,                     59P    131
4.24536318924632,4.24536318924632,4.52839208836783,                   59P    132
4.52839208836783,4.52839208836783,4.52839208836783,1.,1.,1.,1.,       59P    133
1.,1.,1.,1.,1.,1.,33.6117958475167,12.5,-33.5633308821526,            59P    134
34.2784322112717,12.5,-32.8957319051101,34.9668310055415,             59P    135
12.6888775374473,-32.1625116474023,36.1930516115784,                  59P    136
13.454799435182,-30.7761180319744,36.7320717697209,                   59P    137
14.0317563386878,-30.1239567020868,37.566147292356,                   59P    138
15.361749385648,-29.077180484658,37.9173464585644,                    59P    139
16.2040237263022,-28.6124919833901,38.3786547253222,                  59P    140
18.0513648333576,-27.9906899355477,38.4898973781564,                  59P    141
19.0565703362616,-27.8348306949941,38.4898973781564,20.,              59P    142
-27.8348306949941,3.39626602849346,4.52839208836783,0.,0.,0.;         59P    143
126,1,1,0,0,1,0,-0.104571147979604,-0.104571147979604,                61P    144
1.33333333333333,1.33333333333333,1.,1.,33.6117958475167,12.5,        61P    145
-33.5633308821526,41.2374359182785,12.5,-41.1889709529144,            61P    146
-0.104571147979604,1.33333333333333,0.,0.,0.;                         61P    147
126,8,2,0,1,0,0,-3.14159265358979,-3.14159265358979,                  63P    148
-3.14159265358979,-1.5707963267949,-1.5707963267949,0.,0.,            63P    149
1.5707963267949,1.5707963267949,3.14159265358979,                     63P    150
3.14159265358979,3.14159265358979,1.,0.707106781186547,1.,            63P    151
0.707106781186547,1.,0.707106781186547,1.,0.707106781186547,1.,       63P    152
41.2374359182785,12.5,-41.1889709529144,35.9341350593793,12.5,        63P    153
-46.4922718118135,35.9341350593793,20.,-46.4922718118135,             63P    154
35.9341350593793,27.5,-46.4922718118135,41.2374359182785,27.5,        63P    155
-41.1889709529144,46.5407367771775,27.5,-35.8856700940153,            63P    156
46.5407367771775,20.,-35.8856700940153,46.5407367771775,12.5,         63P    157
-35.8856700940153,41.2374359182785,12.5,-41.1889709529144,            63P    158
-3.14159265358979,3.14159265358979,0.,0.,0.;                          63P    159
126,2,2,0,0,0,0,0.,0.,0.,1.5707963267949,1.5707963267949,             65P    160
1.5707963267949,1.,0.707106781186547,1.,47.5,0.,0.,47.5,0.,           65P    161
-47.5,2.90853614797496D-15,0.,-47.5,0.,1.5707963267949,0.,0.,0.;      65P    162
126,1,1,0,0,1,0,0.,0.,4.,4.,1.,1.,0.,0.,-47.5,0.,40.,-47.5,0.,        67P    163
4.,0.,0.,0.;                                                          67P    164
126,2,2,0,0,0,0,0.,0.,0.,1.5707963267949,1.5707963267949,             69P    165
1.5707963267949,1.,0.707106781186547,1.,47.5,40.,0.,47.5,40.,         69P    166
-47.5,2.90853614797496D-15,40.,-47.5,0.,1.5707963267949,0.,0.,        69P    167
0.;                                                                   69P    168
126,1,1,0,0,1,0,0.,0.,4.,4.,1.,1.,47.5,0.,0.,47.5,40.,0.,0.,4.,       71P    169
0.,0.,0.;                                                             71P    170
126,1,1,0,0,1,0,4.,4.,4.75,4.75,1.,1.,40.,0.,0.,47.5,0.,0.,4.,        73P    171
4.75,0.,0.,0.;                                                        73P    172
126,1,1,0,0,1,0,4.,4.,4.75,4.75,1.,1.,40.,40.,0.,47.5,40.,0.,4.,      75P    173
4.75,0.,0.,0.;                                                        75P    174
126,1,1,0,0,1,0,0.,0.,4.,4.,1.,1.,40.,0.,0.,40.,40.,0.,0.,4.,0.,      77P    175
0.,0.;                                                                77P    176
126,2,2,0,0,0,0,0.,0.,0.,1.5707963267949,1.5707963267949,             79P    177
1.5707963267949,1.,0.707106781186548,1.,40.,0.,0.,40.,0.,-40.,        79P    178
2.44929359829471D-15,0.,-40.,0.,1.5707963267949,0.,0.,0.;             79P    179
126,2,2,0,0,0,0,-1.5707963267949,-1.5707963267949,                    81P    180
-1.5707963267949,0.,0.,0.,1.,0.707106781186548,1.,                    81P    181
2.44929359829471D-15,40.,-40.,40.,40.,-40.,40.,40.,0.,                81P    182
-1.5707963267949,0.,0.,0.,0.;                                         81P    183
126,1,1,0,0,1,0,0.,0.,4.,4.,1.,1.,0.,0.,-40.,0.,40.,-40.,0.,4.,       83P    184
0.,0.,0.;                                                             83P    185
126,1,1,0,0,1,0,4.,4.,4.75,4.75,1.,1.,0.,0.,-40.,0.,0.,-47.5,4.,      85P    186
4.75,0.,0.,0.;                                                        85P    187
126,1,1,0,0,1,0,-4.75,-4.75,-4.,-4.,1.,1.,0.,40.,-47.5,0.,40.,        87P    188
-40.,-4.75,-4.,0.,0.,0.;                                              87P    189
128,1,8,1,2,0,1,0,0,1,-2.5,-2.5,0.238975154794267,                    89P    190
0.238975154794267,-3.14159265358979,-3.14159265358979,                89P    191
-3.14159265358979,-1.5707963267949,-1.5707963267949,0.,0.,            89P    192
1.5707963267949,1.5707963267949,3.14159265358979,                     89P    193
3.14159265358979,3.14159265358979,1.,1.,0.707106781186548,            89P    194
0.707106781186548,1.,1.,0.707106781186548,0.707106781186548,1.,       89P    195
1.,0.707106781186548,0.707106781186548,1.,1.,0.707106781186548,       89P    196
0.707106781186548,1.,1.,41.2374359182785,16.,-41.1889709529144,       89P    197
33.4904442964525,16.,-33.4419793310884,44.0658630430247,16.,          89P    198
-38.3605438281682,36.3188714211986,16.,-30.6135522063422,             89P    199
44.0658630430247,20.,-38.3605438281682,36.3188714211986,20.,          89P    200
-30.6135522063422,44.0658630430246,24.,-38.3605438281682,             89P    201
36.3188714211986,24.,-30.6135522063422,41.2374359182785,24.,          89P    202
-41.1889709529144,33.4904442964525,24.,-33.4419793310884,             89P    203
38.4090087935323,24.,-44.0173980776606,30.6620171717063,24.,          89P    204
-36.2704064558346,38.4090087935323,20.,-44.0173980776606,             89P    205
30.6620171717063,20.,-36.2704064558346,38.4090087935323,16.,          89P    206
-44.0173980776606,30.6620171717063,16.,-36.2704064558346,             89P    207
41.2374359182785,16.,-41.1889709529144,33.4904442964525,16.,          89P    208
-33.4419793310884,-2.5,0.238975154794267,-3.14159265358979,           89P    209
3.14159265358979;                                                     89P    210
128,1,8,1,2,0,1,0,0,1,-1.33333333333333,-1.33333333333333,            91P    211
0.184747502211116,0.184747502211116,-3.14159265358979,                91P    212
-3.14159265358979,-3.14159265358979,-1.5707963267949,                 91P    213
-1.5707963267949,0.,0.,1.5707963267949,1.5707963267949,               91P    214
3.14159265358979,3.14159265358979,3.14159265358979,1.,1.,             91P    215
0.707106781186548,0.707106781186548,1.,1.,0.707106781186548,          91P    216
0.707106781186548,1.,1.,0.707106781186548,0.707106781186548,1.,       91P    217
1.,0.707106781186548,0.707106781186548,1.,1.,33.1865965192573,        91P    218
12.5,-33.1381315538932,41.2374359182785,12.5,-41.1889709529144,       91P    219
38.4898973781564,12.5,-27.8348306949941,46.5407367771775,12.5,        91P    220
-35.8856700940153,38.4898973781564,20.,-27.8348306949941,             91P    221
46.5407367771775,20.,-35.8856700940153,38.4898973781564,27.5,         91P    222
-27.8348306949941,46.5407367771775,27.5,-35.8856700940153,            91P    223
33.1865965192573,27.5,-33.1381315538932,41.2374359182785,27.5,        91P    224
-41.1889709529144,27.8832956603582,27.5,-38.4414324127924,            91P    225
35.9341350593793,27.5,-46.4922718118135,27.8832956603582,20.,         91P    226
-38.4414324127924,35.9341350593793,20.,-46.4922718118135,             91P    227
27.8832956603582,12.5,-38.4414324127924,35.9341350593793,12.5,        91P    228
-46.4922718118135,33.1865965192573,12.5,-33.1381315538932,            91P    229
41.2374359182785,12.5,-41.1889709529144,-1.33333333333333,            91P    230
0.184747502211116,-3.14159265358979,3.14159265358979;                 91P    231
128,1,1,1,1,0,0,1,0,0,-0.751,-0.751,0.751,0.751,-0.751,-0.751,        93P    232
0.751,0.751,1.,1.,1.,1.,46.5478078449894,27.51,                       93P    233
-35.8785990262034,46.5478078449894,12.49,-35.8785990262034,           93P    234
35.9270639915675,27.51,-46.4993428796254,35.9270639915675,12.49,      93P    235
-46.4993428796254,-0.751,0.751,-0.751,0.751;                          93P    236
128,1,2,1,2,0,0,0,0,0,0.,0.,0.842105263157895,0.842105263157895,      95P    237
0.,0.,0.,1.5707963267949,1.5707963267949,1.5707963267949,1.,1.,       95P    238
0.707106781186548,0.707106781186548,1.,1.,47.5,40.,0.,47.5,0.,        95P    239
0.,47.5,40.,-47.5,47.5,0.,-47.5,0.,40.,-47.5,0.,0.,-47.5,0.,          95P    240
0.842105263157895,0.,1.5707963267949;                                 95P    241
128,1,1,1,1,0,0,1,0,0,-0.001,-0.001,0.751,0.751,-0.001,-0.001,        97P    242
4.001,4.001,1.,1.,1.,1.,39.99,-0.01,0.,47.51,-0.01,0.,39.99,          97P    243
40.01,0.,47.51,40.01,0.,-0.001,0.751,-0.001,4.001;                    97P    244
128,1,2,1,2,0,0,0,0,0,0.,0.,1.,1.,0.,0.,0.,1.5707963267949,           99P    245
1.5707963267949,1.5707963267949,1.,1.,0.707106781186548,              99P    246
0.707106781186548,1.,1.,40.,0.,0.,40.,40.,0.,40.,0.,-40.,40.,         99P    247
40.,-40.,0.,0.,-40.,0.,40.,-40.,0.,1.,0.,1.5707963267949;             99P    248
128,1,1,1,1,0,0,1,0,0,-0.001,-0.001,0.751,0.751,-0.001,-0.001,       101P    249
4.001,4.001,1.,1.,1.,1.,0.,-0.01,-47.51,0.,-0.01,-39.99,0.,          101P    250
40.01,-47.51,0.,40.01,-39.99,-0.001,0.751,-0.001,4.001;              101P    251
128,1,2,1,2,0,0,0,0,0,0.336842105263158,0.336842105263158,           103P    252
0.505263157894737,0.505263157894737,0.700363723797472,               103P    253
0.700363723797472,0.700363723797472,0.868984515845525,               103P    254
0.868984515845525,0.868984515845525,1.,1.,0.996447983358901,         103P    255
0.996447983358901,1.,1.,36.3188714211986,24.,-30.6135522063422,      103P    256
36.3188714211986,16.,-30.6135522063422,33.7316977177185,24.,         103P    257
-33.6828866124793,33.7316977177185,16.,-33.6828866124793,            103P    258
30.6661129814014,24.,-36.2745022655297,30.6661129814014,16.,         103P    259
-36.2745022655297,0.336842105263158,0.505263157894737,               103P    260
0.700363723797472,0.868984515845525;                                 103P    261
128,1,1,1,1,0,0,1,0,0,-2.376,-2.376,2.376,2.376,-2.376,-2.376,       105P    262
2.376,2.376,1.,1.,1.,1.,-0.0099999999999989,40.,                     105P    263
0.0099999999999989,47.51,40.,0.0099999999999989,                     105P    264
-0.0099999999999989,40.,-47.51,47.51,40.,-47.51,-2.376,2.376,        105P    265
-2.376,2.376;                                                        105P    266
128,1,1,1,1,0,0,1,0,0,-2.376,-2.376,2.376,2.376,-2.376,-2.376,       107P    267
2.376,2.376,1.,1.,1.,1.,47.51,0.,0.0099999999999989,                 107P    268
-0.0099999999999989,0.,0.0099999999999989,47.51,0.,-47.51,           107P    269
-0.0099999999999989,0.,-47.51,-2.376,2.376,-2.376,2.376;             107P    270
502,14,36.3188714211987,20.,-30.6135522063422,33.6117958475167,      109P    271
16.,-33.5633308821526,41.2374359182785,16.,-41.1889709529144,        109P    272
38.4898973781564,20.,-27.8348306949941,33.6117958475167,12.5,        109P    273
-33.5633308821526,41.2374359182785,12.5,-41.1889709529144,47.5,      109P    274
0.,0.,0.,0.,-47.5,0.,40.,-47.5,47.5,40.,0.,40.,0.,0.,40.,40.,0.,     109P    275
0.,0.,-40.,0.,40.,-40.;                                              109P    276
504,20,49,109,1,109,2,51,109,2,109,1,53,109,2,109,3,55,109,3,        111P    277
109,3,57,109,4,109,5,59,109,5,109,4,61,109,5,109,6,63,109,6,109,     111P    278
6,65,109,7,109,8,67,109,8,109,9,69,109,10,109,9,71,109,7,109,10,     111P    279
73,109,11,109,7,75,109,12,109,10,77,109,11,109,12,79,109,11,109,     111P    280
13,81,109,14,109,12,83,109,13,109,14,85,109,13,109,8,87,109,9,       111P    281
109,14;                                                              111P    282
406,1,5HBody1;                                                       113P    283
314,62.7450980392157,62.7450980392157,62.7450980392157,13HSteel      115P    284
- Satin;                                                             115P    285
S      1G      3D    116P    285                                        T      1
