                                                                        S      1
,,19HdadHeadphones_V1 v3,18HdadHeadphonesV1 v3,7Hunknown,7Hunknown,32,  G      1
38,7,99,15,,1.,2,2HMM,1,0.08,15H20250912.001626,0.01,10000.,7Hunknown,7HG      2
unknown,11,0,15H20210301.203145;                                        G      3
     186       1                                                00000000D      1
     186            -207       1       0                               0D      2
     514       2                                                00010000D      3
     514                       2       1                               0D      4
     510       4                                                00010000D      5
     510            -207       1       1                               0D      6
     510       5                                                00010000D      7
     510            -207       1       1                               0D      8
     510       6                                                00010000D      9
     510            -207       1       1                               0D     10
     510       7                                                00010000D     11
     510            -207       1       1                               0D     12
     510       8                                                00010000D     13
     510            -207       1       1                               0D     14
     510       9                                                00010000D     15
     510            -207       1       1                               0D     16
     510      10                                                00010000D     17
     510            -207       1       1                               0D     18
     510      11                                                00010000D     19
     510            -207       1       1                               0D     20
     510      12                                                00010000D     21
     510            -207       1       1                               0D     22
     510      13                                                00010000D     23
     510            -207       1       1                               0D     24
     510      14                                                00010000D     25
     510            -207       1       1                               0D     26
     510      15                                                00010000D     27
     510            -207       1       1                               0D     28
     510      16                                                00010000D     29
     510            -207       1       1                               0D     30
     510      17                                                00010000D     31
     510            -207       1       1                               0D     32
     510      18                                                00010000D     33
     510            -207       1       1                               0D     34
     510      19                                                00010000D     35
     510            -207       1       1                               0D     36
     510      20                                                00010000D     37
     510            -207       1       1                               0D     38
     508      21                                                00010000D     39
     508                       1       1                               0D     40
     508      22                                                00010000D     41
     508                       1       1                               0D     42
     508      23                                                00010000D     43
     508                       1       1                               0D     44
     508      24                                                00010000D     45
     508                       1       1                               0D     46
     508      25                                                00010000D     47
     508                       1       1                               0D     48
     508      26                                                00010000D     49
     508                       1       1                               0D     50
     508      27                                                00010000D     51
     508                       1       1                               0D     52
     508      28                                                00010000D     53
     508                       1       1                               0D     54
     508      29                                                00010000D     55
     508                       1       1                               0D     56
     508      30                                                00010000D     57
     508                       1       1                               0D     58
     508      31                                                00010000D     59
     508                       1       1                               0D     60
     508      32                                                00010000D     61
     508                       1       1                               0D     62
     508      33                                                00010000D     63
     508                       1       1                               0D     64
     508      34                                                00010000D     65
     508                       1       1                               0D     66
     508      35                                                00010000D     67
     508                       1       1                               0D     68
     508      36                                                00010000D     69
     508                       3       1                               0D     70
     508      39                                                00010000D     71
     508                       1       1                               0D     72
     508      40                                                00010000D     73
     508                       3       1                               0D     74
     508      43                                                00010000D     75
     508                       1       1                               0D     76
     126      44                                                00010000D     77
     126       0               3       0                               0D     78
     126      47                                                00010000D     79
     126       0               3       0                               0D     80
     126      50                                                00010000D     81
     126       0               3       0                               0D     82
     126      53                                                00010000D     83
     126       0               3       0                               0D     84
     126      56                                                00010000D     85
     126       0               3       0                               0D     86
     126      59                                                00010000D     87
     126       0               3       0                               0D     88
     126      62                                                00010000D     89
     126       0               2       0                               0D     90
     126      64                                                00010000D     91
     126       0               3       0                               0D     92
     126      67                                                00010000D     93
     126       0               3       0                               0D     94
     126      70                                                00010000D     95
     126       0               2       0                               0D     96
     126      72                                                00010000D     97
     126       0               2       0                               0D     98
     126      74                                                00010000D     99
     126       0               2       0                               0D    100
     126      76                                                00010000D    101
     126       0               2       0                               0D    102
     126      78                                                00010000D    103
     126       0               2       0                               0D    104
     126      80                                                00010000D    105
     126       0               2       0                               0D    106
     126      82                                                00010000D    107
     126       0               2       0                               0D    108
     126      84                                                00010000D    109
     126       0               2       0                               0D    110
     126      86                                                00010000D    111
     126       0               2       0                               0D    112
     126      88                                                00010000D    113
     126       0               2       0                               0D    114
     126      90                                                00010000D    115
     126       0               2       0                               0D    116
     126      92                                                00010000D    117
     126       0               2       0                               0D    118
     126      94                                                00010000D    119
     126       0               2       0                               0D    120
     126      96                                                00010000D    121
     126       0               2       0                               0D    122
     126      98                                                00010000D    123
     126       0               2       0                               0D    124
     126     100                                                00010000D    125
     126       0               2       0                               0D    126
     126     102                                                00010000D    127
     126       0               2       0                               0D    128
     126     104                                                00010000D    129
     126       0               2       0                               0D    130
     126     106                                                00010000D    131
     126       0               2       0                               0D    132
     126     108                                                00010000D    133
     126       0               2       0                               0D    134
     126     110                                                00010000D    135
     126       0               2       0                               0D    136
     126     112                                                00010000D    137
     126       0               2       0                               0D    138
     126     114                                                00010000D    139
     126       0               2       0                               0D    140
     126     116                                                00010000D    141
     126       0               2       0                               0D    142
     126     118                                                00010000D    143
     126       0               2       0                               0D    144
     126     120                                                00010000D    145
     126       0               2       0                               0D    146
     126     122                                                00010000D    147
     126       0               2       0                               0D    148
     126     124                                                00010000D    149
     126       0               3       0                               0D    150
     126     127                                                00010000D    151
     126       0               3       0                               0D    152
     126     130                                                00010000D    153
     126       0               3       0                               0D    154
     126     133                                                00010000D    155
     126       0               2       0                               0D    156
     126     135                                                00010000D    157
     126       0               3       0                               0D    158
     126     138                                                00010000D    159
     126       0               3       0                               0D    160
     126     141                                                00010000D    161
     126       0               2       0                               0D    162
     126     143                                                00010000D    163
     126       0               2       0                               0D    164
     126     145                                                00010000D    165
     126       0               2       0                               0D    166
     128     147                                                00010000D    167
     128       0    -207       6       0                               0D    168
     128     153                                                00010000D    169
     128       0    -207       5       0                               0D    170
     128     158                                                00010000D    171
     128       0    -207       6       0                               0D    172
     128     164                                                00010000D    173
     128       0    -207       3       0                               0D    174
     128     167                                                00010000D    175
     128       0    -207       3       0                               0D    176
     128     170                                                00010000D    177
     128       0    -207       5       0                               0D    178
     128     175                                                00010000D    179
     128       0    -207       5       0                               0D    180
     128     180                                                00010000D    181
     128       0    -207       3       0                               0D    182
     128     183                                                00010000D    183
     128       0    -207       4       0                               0D    184
     128     187                                                00010000D    185
     128       0    -207       4       0                               0D    186
     128     191                                                00010000D    187
     128       0    -207       3       0                               0D    188
     128     194                                                00010000D    189
     128       0    -207       4       0                               0D    190
     128     198                                                00010000D    191
     128       0    -207       6       0                               0D    192
     128     204                                                00010000D    193
     128       0    -207       6       0                               0D    194
     128     210                                                00010000D    195
     128       0    -207       4       0                               0D    196
     128     214                                                00010000D    197
     128       0    -207       3       0                               0D    198
     128     217                                                00010000D    199
     128       0    -207       3       0                               0D    200
     502     220                                                00010000D    201
     502                      11       1                               0D    202
     504     231                                                00010001D    203
     504                      13       1                               0D    204
     406     244                                                00000000D    205
     406                       1      15                               0D    206
     314     245                                                00000200D    207
     314                       2       0                               0D    208
186,3,1,0,0,1,205;                                                     1P      1
514,17,5,1,7,1,9,1,11,1,13,1,15,1,17,1,19,1,21,1,23,1,25,1,27,1,       3P      2
29,1,31,1,33,1,35,1,37,1;                                              3P      3
510,167,1,1,39;                                                        5P      4
510,169,1,1,41;                                                        7P      5
510,171,1,1,43;                                                        9P      6
510,173,1,1,45;                                                       11P      7
510,175,1,1,47;                                                       13P      8
510,177,1,1,49;                                                       15P      9
510,179,1,1,51;                                                       17P     10
510,181,1,1,53;                                                       19P     11
510,183,1,1,55;                                                       21P     12
510,185,1,1,57;                                                       23P     13
510,187,1,1,59;                                                       25P     14
510,189,1,1,61;                                                       27P     15
510,191,1,1,63;                                                       29P     16
510,193,1,1,65;                                                       31P     17
510,195,1,1,67;                                                       33P     18
510,197,2,1,69,71;                                                    35P     19
510,199,2,1,73,75;                                                    37P     20
508,4,0,203,1,1,0,0,203,2,1,0,0,203,3,0,0,0,203,4,0,0;                39P     21
508,4,0,203,5,1,0,0,203,4,1,0,0,203,6,0,0,0,203,7,0,0;                41P     22
508,4,0,203,8,1,0,0,203,7,1,0,0,203,9,0,0,0,203,2,0,0;                43P     23
508,4,0,203,10,0,0,0,203,11,1,0,0,203,12,0,0,0,203,13,0,0;            45P     24
508,4,0,203,14,0,0,0,203,13,1,0,0,203,15,0,0,0,203,16,0,0;            47P     25
508,4,0,203,17,0,0,0,203,16,1,0,0,203,18,0,0,0,203,19,0,0;            49P     26
508,4,0,203,20,0,0,0,203,19,1,0,0,203,21,0,0,0,203,22,0,0;            51P     27
508,4,0,203,23,0,0,0,203,22,1,0,0,203,24,0,0,0,203,25,0,0;            53P     28
508,4,0,203,26,0,0,0,203,25,1,0,0,203,27,0,0,0,203,28,0,0;            55P     29
508,4,0,203,29,0,0,0,203,28,1,0,0,203,30,0,0,0,203,31,0,0;            57P     30
508,4,0,203,32,0,0,0,203,31,1,0,0,203,33,0,0,0,203,34,0,0;            59P     31
508,4,0,203,35,0,0,0,203,34,1,0,0,203,36,0,0,0,203,37,0,0;            61P     32
508,4,0,203,38,0,0,0,203,37,1,0,0,203,39,0,0,0,203,40,0,0;            63P     33
508,4,0,203,41,1,0,0,203,40,1,0,0,203,42,0,0,0,203,43,0,0;            65P     34
508,4,0,203,44,0,0,0,203,43,1,0,0,203,45,0,0,0,203,11,0,0;            67P     35
508,12,0,203,45,1,0,0,203,42,1,0,0,203,39,1,0,0,203,36,1,0,0,         69P     36
203,33,1,0,0,203,30,1,0,0,203,27,1,0,0,203,24,1,0,0,203,21,1,0,       69P     37
0,203,18,1,0,0,203,15,1,0,0,203,12,1,0;                               69P     38
508,3,0,203,9,1,0,0,203,6,1,0,0,203,3,1,0;                            71P     39
508,12,0,203,44,1,0,0,203,10,1,0,0,203,14,1,0,0,203,17,1,0,0,         73P     40
203,20,1,0,0,203,23,1,0,0,203,26,1,0,0,203,29,1,0,0,203,32,1,0,       73P     41
0,203,35,1,0,0,203,38,1,0,0,203,41,0,0;                               73P     42
508,3,0,203,8,0,0,0,203,1,0,0,0,203,5,0,0;                            75P     43
126,1,1,0,0,1,0,-3.8,-3.8,-2.44980618739354,-2.44980618739354,        77P     44
1.,1.,-6.,0.,-4.71844785465692D-15,-19.5019381260646,0.,              77P     45
-1.11883644453407D-15,-3.8,-2.44980618739354,0.,0.,0.;                77P     46
126,1,1,0,0,1,0,0.,0.,1.5,1.5,1.,1.,-19.5019381260646,0.,             79P     47
2.22044604925031D-15,-19.5019381260646,15.,2.22044604925031D-15,      79P     48
0.,1.5,0.,0.,0.;                                                      79P     49
126,1,1,0,0,1,0,-3.8,-3.8,-2.44980618739354,-2.44980618739354,        81P     50
1.,1.,-6.,15.,-4.71844785465692D-15,-19.5019381260646,15.,            81P     51
-1.11883644453407D-15,-3.8,-2.44980618739354,0.,0.,0.;                81P     52
126,1,1,0,0,1,0,0.,0.,1.5,1.5,1.,1.,-6.,0.,                           83P     53
-4.71844785465692D-15,-6.,15.,-4.71844785465692D-15,0.,1.5,0.,        83P     54
0.,0.;                                                                83P     55
126,1,1,0,0,1,0,-1.92827660218945,-1.92827660218945,0.,0.,1.,1.,      85P     56
-6.,0.,-19.2827660218945,-6.,0.,-4.71844785465692D-15,                85P     57
-1.92827660218945,0.,0.,0.,0.;                                        85P     58
126,1,1,0,0,1,0,-1.92827660218945,-1.92827660218945,0.,0.,1.,1.,      87P     59
-6.,15.,-19.2827660218945,-6.,15.,-4.71844785465692D-15,              87P     60
-1.92827660218945,0.,0.,0.,0.;                                        87P     61
126,1,1,0,0,1,0,0.,0.,1.5,1.5,1.,1.,-6.,0.,-19.2827660218945,         89P     62
-6.,15.,-19.2827660218945,0.,1.5,0.,0.,0.;                            89P     63
126,1,1,0,0,1,0,-2.35399107605616,-2.35399107605616,0.,0.,1.,1.,      91P     64
-19.5019381260646,0.,2.22044604925031D-15,-6.,0.,                     91P     65
-19.2827660218945,-2.35399107605616,0.,0.,0.,0.;                      91P     66
126,1,1,0,0,1,0,-2.35399107605616,-2.35399107605616,0.,0.,1.,1.,      93P     67
-19.5019381260646,15.,2.22044604925031D-15,-6.,15.,                   93P     68
-19.2827660218945,-2.35399107605616,0.,0.,0.,0.;                      93P     69
126,1,1,0,0,1,0,0.,0.,0.8,0.8,1.,1.,40.,0.,-28.,40.,0.,-20.,0.,       95P     70
0.8,0.,0.,0.;                                                         95P     71
126,1,1,0,0,1,0,0.,0.,1.5,1.5,1.,1.,40.,0.,-28.,40.,15.,-28.,0.,      97P     72
1.5,0.,0.,0.;                                                         97P     73
126,1,1,0,0,1,0,-0.8,-0.8,0.,0.,1.,1.,40.,15.,-20.,40.,15.,-28.,      99P     74
-0.8,0.,0.,0.,0.;                                                     99P     75
126,1,1,0,0,1,0,0.,0.,1.5,1.5,1.,1.,40.,0.,-20.,40.,15.,-20.,0.,     101P     76
1.5,0.,0.,0.;                                                        101P     77
126,1,1,0,0,1,0,0.,0.,4.,4.,1.,1.,40.,0.,-20.,0.,0.,-20.,0.,4.,      103P     78
0.,0.,0.;                                                            103P     79
126,1,1,0,0,1,0,-4.,-4.,0.,0.,1.,1.,0.,15.,-20.,40.,15.,-20.,        105P     80
-4.,0.,0.,0.,0.;                                                     105P     81
126,1,1,0,0,1,0,0.,0.,1.5,1.5,1.,1.,1.28587913910472D-15,0.,         107P     82
-20.,1.28587913910472D-15,15.,-20.,0.,1.5,0.,0.,0.;                  107P     83
126,1,1,0,0,1,0,0.,0.,2.,2.,1.,1.,1.28587913910472D-15,0.,-20.,      109P     84
0.,0.,0.,0.,2.,0.,0.,0.;                                             109P     85
126,1,1,0,0,1,0,-2.,-2.,0.,0.,1.,1.,0.,15.,0.,                       111P     86
1.28587913910472D-15,15.,-20.,-2.,0.,0.,0.,0.;                       111P     87
126,1,1,0,0,1,0,0.,0.,1.5,1.5,1.,1.,0.,0.,0.,0.,15.,0.,0.,1.5,       113P     88
0.,0.,0.;                                                            113P     89
126,1,1,0,0,1,0,0.,0.,2.5,2.5,1.,1.,0.,0.,0.,25.,0.,                 115P     90
6.16297582203915D-32,0.,2.5,0.,0.,0.;                                115P     91
126,1,1,0,0,1,0,-2.5,-2.5,0.,0.,1.,1.,25.,15.,                       117P     92
6.16297582203915D-32,0.,15.,0.,-2.5,0.,0.,0.,0.;                     117P     93
126,1,1,0,0,1,0,0.,0.,1.5,1.5,1.,1.,25.,0.,6.16297582203915D-32,     119P     94
25.,15.,6.16297582203915D-32,0.,1.5,0.,0.,0.;                        119P     95
126,1,1,0,0,1,0,0.,0.,0.8,0.8,1.,1.,25.,0.,6.16297582203915D-32,     121P     96
25.,0.,8.,0.,0.8,0.,0.,0.;                                           121P     97
126,1,1,0,0,1,0,-0.8,-0.8,0.,0.,1.,1.,25.,15.,8.,25.,15.,            123P     98
6.16297582203915D-32,-0.8,0.,0.,0.,0.;                               123P     99
126,1,1,0,0,1,0,0.,0.,1.5,1.5,1.,1.,25.,0.,8.,25.,15.,8.,0.,1.5,     125P    100
0.,0.,0.;                                                            125P    101
126,1,1,0,0,1,0,0.,0.,6.1,6.1,1.,1.,25.,0.,8.,-36.,0.,               127P    102
8.00000000000002,0.,6.1,0.,0.,0.;                                    127P    103
126,1,1,0,0,1,0,-6.1,-6.1,0.,0.,1.,1.,-36.,15.,8.00000000000002,     129P    104
25.,15.,8.,-6.1,0.,0.,0.,0.;                                         129P    105
126,1,1,0,0,1,0,0.,0.,1.5,1.5,1.,1.,-36.,0.,8.00000000000002,        131P    106
-36.,15.,8.00000000000002,0.,1.5,0.,0.,0.;                           131P    107
126,1,1,0,0,1,0,0.,0.,1.3,1.3,1.,1.,-36.,0.,8.00000000000002,        133P    108
-36.,0.,21.,0.,1.3,0.,0.,0.;                                         133P    109
126,1,1,0,0,1,0,-1.3,-1.3,0.,0.,1.,1.,-36.,15.,21.,-36.,15.,         135P    110
8.00000000000002,-1.3,0.,0.,0.,0.;                                   135P    111
126,1,1,0,0,1,0,0.,0.,1.5,1.5,1.,1.,-36.,0.,21.,-36.,15.,21.,0.,     137P    112
1.5,0.,0.,0.;                                                        137P    113
126,1,1,0,0,1,0,0.,0.,0.8,0.8,1.,1.,-36.,0.,21.,-44.,0.,21.,0.,      139P    114
0.8,0.,0.,0.;                                                        139P    115
126,1,1,0,0,1,0,-0.8,-0.8,0.,0.,1.,1.,-44.,15.,21.,-36.,15.,21.,     141P    116
-0.8,0.,0.,0.,0.;                                                    141P    117
126,1,1,0,0,1,0,0.,0.,1.5,1.5,1.,1.,-44.,0.,21.,-44.,15.,21.,0.,     143P    118
1.5,0.,0.,0.;                                                        143P    119
126,1,1,0,0,1,0,0.,0.,2.1,2.1,1.,1.,-44.,0.,21.,-44.,0.,             145P    120
4.44089209850063D-15,0.,2.1,0.,0.,0.;                                145P    121
126,1,1,0,0,1,0,-2.1,-2.1,0.,0.,1.,1.,-44.,15.,                      147P    122
4.44089209850063D-15,-44.,15.,21.,-2.1,0.,0.,0.,0.;                  147P    123
126,1,1,0,0,1,0,0.,0.,1.5,1.5,1.,1.,-44.,0.,                         149P    124
5.41233724504764D-15,-44.,15.,5.41233724504764D-15,0.,1.5,0.,0.,     149P    125
0.;                                                                  149P    126
126,1,1,0,0,1,0,0.,0.,1.83941889301281,1.83941889301281,1.,1.,       151P    127
-44.,0.,5.41233724504764D-15,-25.6058110698719,0.,                   151P    128
5.08453688876782D-16,0.,1.83941889301281,0.,0.,0.;                   151P    129
126,1,1,0,0,1,0,-1.83941889301281,-1.83941889301281,0.,0.,1.,1.,     153P    130
-25.6058110698719,15.,5.08453688876782D-16,-44.,15.,                 153P    131
5.41233724504764D-15,-1.83941889301281,0.,0.,0.,0.;                  153P    132
126,1,1,0,0,1,0,0.,0.,1.5,1.5,1.,1.,-25.6058110698719,0.,0.,         155P    133
-25.6058110698719,15.,0.,0.,1.5,0.,0.,0.;                            155P    134
126,1,1,0,0,1,0,0.,0.,3.41816884853207,3.41816884853207,1.,1.,       157P    135
-6.,0.,-28.,-25.6058110698719,0.,0.,0.,3.41816884853207,0.,0.,       157P    136
0.;                                                                  157P    137
126,1,1,0,0,1,0,0.,0.,3.41816884853207,3.41816884853207,1.,1.,       159P    138
-6.,15.,-28.,-25.6058110698719,15.,0.,0.,3.41816884853207,0.,0.,     159P    139
0.;                                                                  159P    140
126,1,1,0,0,1,0,0.,0.,1.5,1.5,1.,1.,-6.,0.,-28.,-6.,15.,-28.,0.,     161P    141
1.5,0.,0.,0.;                                                        161P    142
126,1,1,0,0,1,0,0.,0.,4.6,4.6,1.,1.,-6.,0.,-28.,40.,0.,-28.,0.,      163P    143
4.6,0.,0.,0.;                                                        163P    144
126,1,1,0,0,1,0,-4.6,-4.6,0.,0.,1.,1.,40.,15.,-28.,-6.,15.,-28.,     165P    145
-4.6,0.,0.,0.,0.;                                                    165P    146
128,1,1,1,1,0,0,1,0,0,-0.00100000000000011,-0.00100000000000011,     167P    147
1.35119381260646,1.35119381260646,-0.001,-0.001,1.501,1.501,1.,      167P    148
1.,1.,1.,-5.99,-0.01,-4.72111385073578D-15,-19.5119381260646,        167P    149
-0.01,-1.11617044845521D-15,-5.99,15.01,-4.72111385073578D-15,       167P    150
-19.5119381260646,15.01,-1.11617044845521D-15,                       167P    151
-0.00100000000000011,1.35119381260646,-0.001,1.501;                  167P    152
128,1,1,1,1,0,0,1,0,0,-0.001,-0.001,1.92927660218945,                169P    153
1.92927660218945,-0.001,-0.001,1.501,1.501,1.,1.,1.,1.,-6.,          169P    154
-0.01,-19.2927660218945,-6.,-0.01,0.00999999999999446,-6.,15.01,     169P    155
-19.2927660218945,-6.,15.01,0.00999999999999446,-0.001,              169P    156
1.92927660218945,-0.001,1.501;                                       169P    157
128,1,1,1,1,0,0,1,0,0,-0.001,-0.001,2.35499107605616,                171P    158
2.35499107605616,-0.001,-0.001,1.501,1.501,1.,1.,1.,1.,              171P    159
-19.5076738904281,-0.01,0.00819152044289214,-5.99426423563649,       171P    160
-0.01,-19.2909575423374,-19.5076738904281,15.01,                     171P    161
0.00819152044289214,-5.99426423563649,15.01,-19.2909575423374,       171P    162
-0.001,2.35499107605616,-0.001,1.501;                                171P    163
128,1,1,1,1,0,0,1,0,0,-0.001,-0.001,0.801,0.801,-0.001,-0.001,       173P    164
1.501,1.501,1.,1.,1.,1.,40.,-0.01,-19.99,40.,-0.01,-28.01,40.,       173P    165
15.01,-19.99,40.,15.01,-28.01,-0.001,0.801,-0.001,1.501;             173P    166
128,1,1,1,1,0,0,1,0,0,-0.001,-0.001,4.001,4.001,-0.001,-0.001,       175P    167
1.501,1.501,1.,1.,1.,1.,-0.01,-0.01,-20.,40.01,-0.01,-20.,-0.01,     175P    168
15.01,-20.,40.01,15.01,-20.,-0.001,4.001,-0.001,1.501;               175P    169
128,1,1,1,1,0,0,1,0,0,-0.001,-0.001,2.001,2.001,-0.001,-0.001,       177P    170
1.501,1.501,1.,1.,1.,1.,-6.4293956955236D-19,-0.01,0.01,             177P    171
1.28652207867427D-15,-0.01,-20.01,-6.4293956955236D-19,15.01,        177P    172
0.01,1.28652207867427D-15,15.01,-20.01,-0.001,2.001,-0.001,          177P    173
1.501;                                                               177P    174
128,1,1,1,1,0,0,1,0,0,-0.001,-0.001,2.501,2.501,-0.001,-0.001,       179P    175
1.501,1.501,1.,1.,1.,1.,25.01,-0.01,6.16544101236797D-32,            179P    176
-0.0099999999999989,-0.01,-2.46519032881539D-35,25.01,15.01,         179P    177
6.16544101236797D-32,-0.0099999999999989,15.01,                      179P    178
-2.46519032881539D-35,-0.001,2.501,-0.001,1.501;                     179P    179
128,1,1,1,1,0,0,1,0,0,-0.001,-0.001,0.801,0.801,-0.001,-0.001,       181P    180
1.501,1.501,1.,1.,1.,1.,25.,-0.01,8.01,25.,-0.01,-0.01,25.,          181P    181
15.01,8.01,25.,15.01,-0.01,-0.001,0.801,-0.001,1.501;                181P    182
128,1,1,1,1,0,0,1,0,0,-0.00100000000000044,-0.00100000000000044,     183P    183
6.101,6.101,-0.001,-0.001,1.501,1.501,1.,1.,1.,1.,-36.01,-0.01,      183P    184
8.00000000000002,25.01,-0.01,8.,-36.01,15.01,8.00000000000002,       183P    185
25.01,15.01,8.,-0.00100000000000044,6.101,-0.001,1.501;              183P    186
128,1,1,1,1,0,0,1,0,0,-0.001,-0.001,1.301,1.301,-0.001,-0.001,       185P    187
1.501,1.501,1.,1.,1.,1.,-36.,-0.01,21.01,-36.,-0.01,                 185P    188
7.99000000000002,-36.,15.01,21.01,-36.,15.01,7.99000000000002,       185P    189
-0.001,1.301,-0.001,1.501;                                           185P    190
128,1,1,1,1,0,0,1,0,0,-0.001,-0.001,0.801,0.801,-0.001,-0.001,       187P    191
1.501,1.501,1.,1.,1.,1.,-44.01,-0.01,21.,-35.99,-0.01,21.,           187P    192
-44.01,15.01,21.,-35.99,15.01,21.,-0.001,0.801,-0.001,1.501;         187P    193
128,1,1,1,1,0,0,1,0,0,-0.001,-0.001,2.101,2.101,-0.001,-0.001,       189P    194
1.501,1.501,1.,1.,1.,1.,-44.,-0.01,-0.00999999999999556,-44.,        189P    195
-0.01,21.01,-44.,15.01,-0.00999999999999556,-44.,15.01,21.01,        189P    196
-0.001,2.101,-0.001,1.501;                                           189P    197
128,1,1,1,1,0,0,1,0,0,-0.001,-0.001,1.84041889301281,                191P    198
1.84041889301281,-0.001,-0.001,1.501,1.501,1.,1.,1.,1.,              191P    199
-25.5958110698719,-0.01,5.05787692797912D-16,-44.01,-0.01,           191P    200
5.41500324112651D-15,-25.5958110698719,15.01,                        191P    201
5.05787692797912D-16,-44.01,15.01,5.41500324112651D-15,-0.001,       191P    202
1.84041889301281,-0.001,1.501;                                       191P    203
128,1,1,1,1,0,0,1,0,0,-0.001,-0.001,3.41916884853207,                193P    204
3.41916884853207,-0.001,-0.001,1.501,1.501,1.,1.,1.,1.,              193P    205
-5.99426423563649,-0.01,-28.0081915204429,-25.6115468342354,         193P    206
-0.01,0.00819152044289062,-5.99426423563649,15.01,                   193P    207
-28.0081915204429,-25.6115468342354,15.01,0.00819152044289062,       193P    208
-0.001,3.41916884853207,-0.001,1.501;                                193P    209
128,1,1,1,1,0,0,1,0,0,-0.001,-0.001,4.601,4.601,-0.001,-0.001,       195P    210
1.501,1.501,1.,1.,1.,1.,40.01,-0.01,-28.,-6.01000000000001,          195P    211
-0.01,-28.,40.01,15.01,-28.,-6.01000000000001,15.01,-28.,-0.001,     195P    212
4.601,-0.001,1.501;                                                  195P    213
128,1,1,1,1,0,0,1,0,0,-2.451,-2.451,2.451,2.451,-4.201,-4.201,       197P    214
4.201,4.201,1.,1.,1.,1.,-44.01,15.,-28.01,-44.01,15.,21.01,          197P    215
40.01,15.,-28.01,40.01,15.,21.01,-2.451,2.451,-4.201,4.201;          197P    216
128,1,1,1,1,0,0,1,0,0,-4.201,-4.201,4.201,4.201,-2.451,-2.451,       199P    217
2.451,2.451,1.,1.,1.,1.,40.01,0.,21.01,-44.01,0.,21.01,40.01,0.,     199P    218
-28.01,-44.01,0.,-28.01,-4.201,4.201,-2.451,2.451;                   199P    219
502,30,-6.,0.,-4.71844785465692D-15,-19.5019381260646,0.,            201P    220
2.22044604925031D-15,-19.5019381260646,15.,2.22044604925031D-15,     201P    221
-6.,15.,-4.71844785465692D-15,-6.,0.,-19.2827660218945,-6.,15.,      201P    222
-19.2827660218945,40.,0.,-28.,40.,0.,-20.,40.,15.,-28.,40.,15.,      201P    223
-20.,1.28587913910472D-15,0.,-20.,2.22044604925031D-15,15.,-20.,     201P    224
0.,0.,0.,0.,15.,0.,25.,0.,6.16297582203915D-32,25.,15.,0.,25.,       201P    225
0.,8.,25.,15.,8.,-36.,0.,8.00000000000002,-36.,15.,                  201P    226
8.00000000000002,-36.,0.,21.,-36.,15.,21.,-44.,0.,21.,-44.,15.,      201P    227
21.,-44.,0.,5.41233724504764D-15,-44.,15.,5.41233724504764D-15,      201P    228
-25.6058110698719,0.,0.,-25.6058110698719,15.,0.,-6.,0.,-28.,        201P    229
-6.,15.,-28.;                                                        201P    230
504,45,77,201,1,201,2,79,201,2,201,3,81,201,4,201,3,83,201,1,        203P    231
201,4,85,201,5,201,1,87,201,6,201,4,89,201,5,201,6,91,201,2,201,     203P    232
5,93,201,3,201,6,95,201,7,201,8,97,201,7,201,9,99,201,10,201,9,      203P    233
101,201,8,201,10,103,201,8,201,11,105,201,12,201,10,107,201,11,      203P    234
201,12,109,201,11,201,13,111,201,14,201,12,113,201,13,201,14,        203P    235
115,201,13,201,15,117,201,16,201,14,119,201,15,201,16,121,201,       203P    236
15,201,17,123,201,18,201,16,125,201,17,201,18,127,201,17,201,19,     203P    237
129,201,20,201,18,131,201,19,201,20,133,201,19,201,21,135,201,       203P    238
22,201,20,137,201,21,201,22,139,201,21,201,23,141,201,24,201,22,     203P    239
143,201,23,201,24,145,201,23,201,25,147,201,26,201,24,149,201,       203P    240
25,201,26,151,201,25,201,27,153,201,28,201,26,155,201,27,201,28,     203P    241
157,201,29,201,27,159,201,30,201,28,161,201,29,201,30,163,201,       203P    242
29,201,7,165,201,9,201,30;                                           203P    243
406,1,5HBody1;                                                       205P    244
314,62.7450980392157,62.7450980392157,62.7450980392157,13HSteel      207P    245
- Satin;                                                             207P    246
S      1G      3D    208P    246                                        T      1
