                                                                        S      1
,,23HBoard Controller Lid v4,23HBoard Controller Lid v4,7Hunknown,7HunknG      1
own,32,38,7,99,15,,1.,2,2HMM,1,0.08,15H20250912.002442,0.01,10000.,7HunkG      2
nown,7Hunknown,11,0,15H20200530.013742;                                 G      3
     186       1                                                00000000D      1
     186            -263       1       0                               0D      2
     514       2                                                00010000D      3
     514                       2       1                               0D      4
     510       4                                                00010000D      5
     510            -263       1       1                               0D      6
     510       5                                                00010000D      7
     510            -263       1       1                               0D      8
     510       6                                                00010000D      9
     510            -263       1       1                               0D     10
     510       7                                                00010000D     11
     510            -263       1       1                               0D     12
     510       8                                                00010000D     13
     510            -263       1       1                               0D     14
     510       9                                                00010000D     15
     510            -263       1       1                               0D     16
     510      10                                                00010000D     17
     510            -263       1       1                               0D     18
     510      11                                                00010000D     19
     510            -263       1       1                               0D     20
     510      12                                                00010000D     21
     510            -263       1       1                               0D     22
     510      13                                                00010000D     23
     510            -263       1       1                               0D     24
     510      14                                                00010000D     25
     510            -263       1       1                               0D     26
     510      15                                                00010000D     27
     510            -263       1       1                               0D     28
     510      16                                                00010000D     29
     510            -263       1       1                               0D     30
     510      17                                                00010000D     31
     510            -263       1       1                               0D     32
     510      18                                                00010000D     33
     510            -263       1       1                               0D     34
     510      19                                                00010000D     35
     510            -263       1       1                               0D     36
     510      20                                                00010000D     37
     510            -263       1       1                               0D     38
     510      21                                                00010000D     39
     510            -263       1       1                               0D     40
     510      22                                                00010000D     41
     510            -263       1       1                               0D     42
     510      23                                                00010000D     43
     510            -263       1       1                               0D     44
     510      24                                                00010000D     45
     510            -263       1       1                               0D     46
     510      25                                                00010000D     47
     510            -263       1       1                               0D     48
     508      26                                                00010000D     49
     508                       1       1                               0D     50
     508      27                                                00010000D     51
     508                       1       1                               0D     52
     508      28                                                00010000D     53
     508                       1       1                               0D     54
     508      29                                                00010000D     55
     508                       1       1                               0D     56
     508      30                                                00010000D     57
     508                       1       1                               0D     58
     508      31                                                00010000D     59
     508                       1       1                               0D     60
     508      32                                                00010000D     61
     508                       1       1                               0D     62
     508      33                                                00010000D     63
     508                       1       1                               0D     64
     508      34                                                00010000D     65
     508                       1       1                               0D     66
     508      35                                                00010000D     67
     508                       1       1                               0D     68
     508      36                                                00010000D     69
     508                       1       1                               0D     70
     508      37                                                00010000D     71
     508                       1       1                               0D     72
     508      38                                                00010000D     73
     508                       1       1                               0D     74
     508      39                                                00010000D     75
     508                       1       1                               0D     76
     508      40                                                00010000D     77
     508                       1       1                               0D     78
     508      41                                                00010000D     79
     508                       1       1                               0D     80
     508      42                                                00010000D     81
     508                       1       1                               0D     82
     508      43                                                00010000D     83
     508                       1       1                               0D     84
     508      44                                                00010000D     85
     508                       1       1                               0D     86
     508      45                                                00010000D     87
     508                       1       1                               0D     88
     508      46                                                00010000D     89
     508                       5       1                               0D     90
     508      51                                                00010000D     91
     508                       5       1                               0D     92
     126      56                                                00010000D     93
     126       0               2       0                               0D     94
     126      58                                                00010000D     95
     126       0               2       0                               0D     96
     126      60                                                00010000D     97
     126       0               2       0                               0D     98
     126      62                                                00010000D     99
     126       0               2       0                               0D    100
     126      64                                                00010000D    101
     126       0               2       0                               0D    102
     126      66                                                00010000D    103
     126       0               2       0                               0D    104
     126      68                                                00010000D    105
     126       0               2       0                               0D    106
     126      70                                                00010000D    107
     126       0               2       0                               0D    108
     126      72                                                00010000D    109
     126       0               2       0                               0D    110
     126      74                                                00010000D    111
     126       0               2       0                               0D    112
     126      76                                                00010000D    113
     126       0               2       0                               0D    114
     126      78                                                00010000D    115
     126       0               2       0                               0D    116
     126      80                                                00010000D    117
     126       0               2       0                               0D    118
     126      82                                                00010000D    119
     126       0               2       0                               0D    120
     126      84                                                00010000D    121
     126       0               2       0                               0D    122
     126      86                                                00010000D    123
     126       0               2       0                               0D    124
     126      88                                                00010000D    125
     126       0               2       0                               0D    126
     126      90                                                00010000D    127
     126       0               2       0                               0D    128
     126      92                                                00010000D    129
     126       0               2       0                               0D    130
     126      94                                                00010000D    131
     126       0               2       0                               0D    132
     126      96                                                00010000D    133
     126       0               2       0                               0D    134
     126      98                                                00010000D    135
     126       0               2       0                               0D    136
     126     100                                                00010000D    137
     126       0               2       0                               0D    138
     126     102                                                00010000D    139
     126       0               2       0                               0D    140
     126     104                                                00010000D    141
     126       0               2       0                               0D    142
     126     106                                                00010000D    143
     126       0               2       0                               0D    144
     126     108                                                00010000D    145
     126       0               2       0                               0D    146
     126     110                                                00010000D    147
     126       0               2       0                               0D    148
     126     112                                                00010000D    149
     126       0               2       0                               0D    150
     126     114                                                00010000D    151
     126       0               2       0                               0D    152
     126     116                                                00010000D    153
     126       0               2       0                               0D    154
     126     118                                                00010000D    155
     126       0               2       0                               0D    156
     126     120                                                00010000D    157
     126       0               2       0                               0D    158
     126     122                                                00010000D    159
     126       0               2       0                               0D    160
     126     124                                                00010000D    161
     126       0               2       0                               0D    162
     126     126                                                00010000D    163
     126       0               2       0                               0D    164
     126     128                                                00010000D    165
     126       0               2       0                               0D    166
     126     130                                                00010000D    167
     126       0               2       0                               0D    168
     126     132                                                00010000D    169
     126       0               2       0                               0D    170
     126     134                                                00010000D    171
     126       0               2       0                               0D    172
     126     136                                                00010000D    173
     126       0               2       0                               0D    174
     126     138                                                00010000D    175
     126       0               2       0                               0D    176
     126     140                                                00010000D    177
     126       0               2       0                               0D    178
     126     142                                                00010000D    179
     126       0               2       0                               0D    180
     126     144                                                00010000D    181
     126       0               2       0                               0D    182
     126     146                                                00010000D    183
     126       0               2       0                               0D    184
     126     148                                                00010000D    185
     126       0               2       0                               0D    186
     126     150                                                00010000D    187
     126       0               2       0                               0D    188
     126     152                                                00010000D    189
     126       0               2       0                               0D    190
     126     154                                                00010000D    191
     126       0               2       0                               0D    192
     126     156                                                00010000D    193
     126       0               2       0                               0D    194
     126     158                                                00010000D    195
     126       0               2       0                               0D    196
     126     160                                                00010000D    197
     126       0               2       0                               0D    198
     126     162                                                00010000D    199
     126       0               2       0                               0D    200
     126     164                                                00010000D    201
     126       0               2       0                               0D    202
     126     166                                                00010000D    203
     126       0               2       0                               0D    204
     126     168                                                00010000D    205
     126       0               2       0                               0D    206
     126     170                                                00010000D    207
     126       0               2       0                               0D    208
     126     172                                                00010000D    209
     126       0               2       0                               0D    210
     126     174                                                00010000D    211
     126       0               2       0                               0D    212
     128     176                                                00010000D    213
     128       0    -263       3       0                               0D    214
     128     179                                                00010000D    215
     128       0    -263       3       0                               0D    216
     128     182                                                00010000D    217
     128       0    -263       3       0                               0D    218
     128     185                                                00010000D    219
     128       0    -263       4       0                               0D    220
     128     189                                                00010000D    221
     128       0    -263       3       0                               0D    222
     128     192                                                00010000D    223
     128       0    -263       3       0                               0D    224
     128     195                                                00010000D    225
     128       0    -263       3       0                               0D    226
     128     198                                                00010000D    227
     128       0    -263       3       0                               0D    228
     128     201                                                00010000D    229
     128       0    -263       3       0                               0D    230
     128     204                                                00010000D    231
     128       0    -263       3       0                               0D    232
     128     207                                                00010000D    233
     128       0    -263       3       0                               0D    234
     128     210                                                00010000D    235
     128       0    -263       3       0                               0D    236
     128     213                                                00010000D    237
     128       0    -263       3       0                               0D    238
     128     216                                                00010000D    239
     128       0    -263       3       0                               0D    240
     128     219                                                00010000D    241
     128       0    -263       3       0                               0D    242
     128     222                                                00010000D    243
     128       0    -263       3       0                               0D    244
     128     225                                                00010000D    245
     128       0    -263       3       0                               0D    246
     128     228                                                00010000D    247
     128       0    -263       3       0                               0D    248
     128     231                                                00010000D    249
     128       0    -263       3       0                               0D    250
     128     234                                                00010000D    251
     128       0    -263       3       0                               0D    252
     128     237                                                00010000D    253
     128       0    -263       3       0                               0D    254
     128     240                                                00010000D    255
     128       0    -263       3       0                               0D    256
     502     243                                                00010000D    257
     502                       9       1                               0D    258
     504     252                                                00010001D    259
     504                      17       1                               0D    260
     406     269                                                00000000D    261
     406                       1      15                               0D    262
     314     270                                                00000200D    263
     314                       2       0                               0D    264
186,3,1,0,0,1,261;                                                     1P      1
514,22,5,1,7,1,9,1,11,1,13,1,15,1,17,1,19,1,21,1,23,1,25,1,27,1,       3P      2
29,1,31,1,33,1,35,1,37,1,39,1,41,1,43,1,45,1,47,1;                     3P      3
510,213,1,1,49;                                                        5P      4
510,215,1,1,51;                                                        7P      5
510,217,1,1,53;                                                        9P      6
510,219,1,1,55;                                                       11P      7
510,221,1,1,57;                                                       13P      8
510,223,1,1,59;                                                       15P      9
510,225,1,1,61;                                                       17P     10
510,227,1,1,63;                                                       19P     11
510,229,1,1,65;                                                       21P     12
510,231,1,1,67;                                                       23P     13
510,233,1,1,69;                                                       25P     14
510,235,1,1,71;                                                       27P     15
510,237,1,1,73;                                                       29P     16
510,239,1,1,75;                                                       31P     17
510,241,1,1,77;                                                       33P     18
510,243,1,1,79;                                                       35P     19
510,245,1,1,81;                                                       37P     20
510,247,1,1,83;                                                       39P     21
510,249,1,1,85;                                                       41P     22
510,251,1,1,87;                                                       43P     23
510,253,1,1,89;                                                       45P     24
510,255,1,1,91;                                                       47P     25
508,4,0,259,1,0,0,0,259,2,0,0,0,259,3,0,0,0,259,4,0,0;                49P     26
508,4,0,259,5,0,0,0,259,6,0,0,0,259,7,0,0,0,259,8,0,0;                51P     27
508,4,0,259,6,1,0,0,259,9,0,0,0,259,10,0,0,0,259,11,0,0;              53P     28
508,4,0,259,4,1,0,0,259,12,0,0,0,259,13,0,0,0,259,14,0,0;             55P     29
508,4,0,259,15,1,0,0,259,16,0,0,0,259,17,0,0,0,259,18,0,0;            57P     30
508,4,0,259,19,1,0,0,259,20,0,0,0,259,21,0,0,0,259,22,0,0;            59P     31
508,4,0,259,2,1,0,0,259,23,0,0,0,259,24,0,0,0,259,25,0,0;             61P     32
508,4,0,259,26,1,0,0,259,27,0,0,0,259,28,0,0,0,259,29,0,0;            63P     33
508,4,0,259,8,1,0,0,259,30,0,0,0,259,31,0,0,0,259,32,0,0;             65P     34
508,4,0,259,33,1,0,0,259,34,0,0,0,259,35,0,0,0,259,36,0,0;            67P     35
508,4,0,259,37,0,0,0,259,33,0,0,0,259,38,0,0,0,259,15,0,0;            69P     36
508,4,0,259,39,0,0,0,259,19,0,0,0,259,40,0,0,0,259,26,0,0;            71P     37
508,4,0,259,13,1,0,0,259,41,0,0,0,259,42,0,0,0,259,43,1,0;            73P     38
508,4,0,259,24,1,0,0,259,44,1,0,0,259,45,1,0,0,259,46,0,0;            75P     39
508,4,0,259,21,1,0,0,259,47,1,0,0,259,48,1,0,0,259,49,0,0;            77P     40
508,4,0,259,31,1,0,0,259,50,0,0,0,259,51,0,0,0,259,52,1,0;            79P     41
508,4,0,259,10,1,0,0,259,53,1,0,0,259,42,1,0,0,259,54,0,0;            81P     42
508,4,0,259,35,1,0,0,259,55,1,0,0,259,51,1,0,0,259,56,0,0;            83P     43
508,4,0,259,28,1,0,0,259,57,0,0,0,259,45,0,0,0,259,58,1,0;            85P     44
508,4,0,259,17,1,0,0,259,59,0,0,0,259,48,0,0,0,259,60,1,0;            87P     45
508,20,0,259,25,1,0,0,259,46,1,0,0,259,57,1,0,0,259,27,1,0,0,         89P     46
259,40,1,0,0,259,22,1,0,0,259,49,1,0,0,259,59,1,0,0,259,16,1,0,       89P     47
0,259,38,1,0,0,259,36,1,0,0,259,56,1,0,0,259,50,1,0,0,259,30,1,       89P     48
0,0,259,7,1,0,0,259,11,1,0,0,259,54,1,0,0,259,41,1,0,0,259,12,1,      89P     49
0,0,259,3,1,0;                                                        89P     50
508,20,0,259,37,1,0,0,259,18,1,0,0,259,60,0,0,0,259,47,0,0,0,         91P     51
259,20,1,0,0,259,39,1,0,0,259,29,1,0,0,259,58,0,0,0,259,44,0,0,       91P     52
0,259,23,1,0,0,259,1,1,0,0,259,14,1,0,0,259,43,0,0,0,259,53,0,0,      91P     53
0,259,9,1,0,0,259,5,1,0,0,259,32,1,0,0,259,52,0,0,0,259,55,0,0,       91P     54
0,259,34,1,0;                                                         91P     55
126,1,1,0,0,1,0,-2.75,-2.75,0.25,0.25,1.,1.,20.,5.,22.,-10.,5.,       93P     56
22.,-2.75,0.25,0.,0.,0.;                                              93P     57
126,1,1,0,0,1,0,-0.5,-0.5,0.,0.,1.,1.,20.,10.,22.,20.,5.,22.,         95P     58
-0.5,0.,0.,0.,0.;                                                     95P     59
126,1,1,0,0,1,0,-0.25,-0.25,2.75,2.75,1.,1.,-10.,10.,22.,20.,         97P     60
10.,22.,-0.25,2.75,0.,0.,0.;                                          97P     61
126,1,1,0,0,1,0,0.,0.,0.5,0.5,1.,1.,-10.,5.,22.,-10.,10.,22.,0.,      99P     62
0.5,0.,0.,0.;                                                         99P     63
126,1,1,0,0,1,0,-5.75,-5.75,1.25,1.25,1.,1.,-16.,5.,16.,-16.,5.,     101P     64
-54.,-5.75,1.25,0.,0.,0.;                                            101P     65
126,1,1,0,0,1,0,-0.5,-0.5,0.,0.,1.,1.,-16.,10.,16.,-16.,5.,16.,      103P     66
-0.5,0.,0.,0.,0.;                                                    103P     67
126,1,1,0,0,1,0,-1.25,-1.25,5.75,5.75,1.,1.,-16.,10.,-54.,-16.,      105P     68
10.,16.,-1.25,5.75,0.,0.,0.;                                         105P     69
126,1,1,0,0,1,0,0.,0.,0.5,0.5,1.,1.,-16.,5.,-54.,-16.,10.,-54.,      107P     70
0.,0.5,0.,0.,0.;                                                     107P     71
126,1,1,0,0,1,0,-1.25,-1.25,-0.85,-0.85,1.,1.,-20.,5.,16.,-16.,      109P     72
5.,16.,-1.25,-0.85,0.,0.,0.;                                         109P     73
126,1,1,0,0,1,0,-0.25,-0.25,0.25,0.25,1.,1.,-20.,10.,16.,-20.,       111P     74
5.,16.,-0.25,0.25,0.,0.,0.;                                          111P     75
126,1,1,0,0,1,0,0.85,0.85,1.25,1.25,1.,1.,-16.,10.,16.,-20.,10.,     113P     76
16.,0.85,1.25,0.,0.,0.;                                              113P     77
126,1,1,0,0,1,0,-2.75,-2.75,-2.35,-2.35,1.,1.,-10.,10.,26.,-10.,     115P     78
10.,22.,-2.75,-2.35,0.,0.,0.;                                        115P     79
126,1,1,0,0,1,0,-0.25,-0.25,0.25,0.25,1.,1.,-10.,5.,26.,-10.,        117P     80
10.,26.,-0.25,0.25,0.,0.,0.;                                         117P     81
126,1,1,0,0,1,0,2.35,2.35,2.75,2.75,1.,1.,-10.,5.,22.,-10.,5.,       119P     82
26.,2.35,2.75,0.,0.,0.;                                              119P     83
126,1,1,0,0,1,0,0.,0.,0.5,0.5,1.,1.,20.,5.,-60.,20.,10.,-60.,0.,     121P     84
0.5,0.,0.,0.;                                                        121P     85
126,1,1,0,0,1,0,-2.75,-2.75,-2.35,-2.35,1.,1.,20.,10.,-64.,20.,      123P     86
10.,-60.,-2.75,-2.35,0.,0.,0.;                                       123P     87
126,1,1,0,0,1,0,-0.25,-0.25,0.25,0.25,1.,1.,20.,5.,-64.,20.,10.,     125P     88
-64.,-0.25,0.25,0.,0.,0.;                                            125P     89
126,1,1,0,0,1,0,2.35,2.35,2.75,2.75,1.,1.,20.,5.,-60.,20.,5.,        127P     90
-64.,2.35,2.75,0.,0.,0.;                                             127P     91
126,1,1,0,0,1,0,-0.5,-0.5,0.,0.,1.,1.,26.,10.,-54.,26.,5.,-54.,      129P     92
-0.5,0.,0.,0.,0.;                                                    129P     93
126,1,1,0,0,1,0,-1.25,-1.25,-0.85,-0.85,1.,1.,30.,5.,-54.,26.,       131P     94
5.,-54.,-1.25,-0.85,0.,0.,0.;                                        131P     95
126,1,1,0,0,1,0,-0.25,-0.25,0.25,0.25,1.,1.,30.,10.,-54.,30.,5.,     133P     96
-54.,-0.25,0.25,0.,0.,0.;                                            133P     97
126,1,1,0,0,1,0,0.85,0.85,1.25,1.25,1.,1.,26.,10.,-54.,30.,10.,      135P     98
-54.,0.85,1.25,0.,0.,0.;                                             135P     99
126,1,1,0,0,1,0,-2.25,-2.25,-1.85,-1.85,1.,1.,20.,5.,26.,20.,5.,     137P    100
22.,-2.25,-1.85,0.,0.,0.;                                            137P    101
126,1,1,0,0,1,0,-0.25,-0.25,0.25,0.25,1.,1.,20.,10.,26.,20.,5.,      139P    102
26.,-0.25,0.25,0.,0.,0.;                                             139P    103
126,1,1,0,0,1,0,1.85,1.85,2.25,2.25,1.,1.,20.,10.,22.,20.,10.,       141P    104
26.,1.85,2.25,0.,0.,0.;                                              141P    105
126,1,1,0,0,1,0,0.,0.,0.5,0.5,1.,1.,26.,5.,16.,26.,10.,16.,0.,       143P    106
0.5,0.,0.,0.;                                                        143P    107
126,1,1,0,0,1,0,-1.75,-1.75,-1.35,-1.35,1.,1.,30.,10.,16.,26.,       145P    108
10.,16.,-1.75,-1.35,0.,0.,0.;                                        145P    109
126,1,1,0,0,1,0,-0.25,-0.25,0.25,0.25,1.,1.,30.,5.,16.,30.,10.,      147P    110
16.,-0.25,0.25,0.,0.,0.;                                             147P    111
126,1,1,0,0,1,0,1.35,1.35,1.75,1.75,1.,1.,26.,5.,16.,30.,5.,16.,     149P    112
1.35,1.75,0.,0.,0.;                                                  149P    113
126,1,1,0,0,1,0,-1.75,-1.75,-1.35,-1.35,1.,1.,-20.,10.,-54.,         151P    114
-16.,10.,-54.,-1.75,-1.35,0.,0.,0.;                                  151P    115
126,1,1,0,0,1,0,-0.25,-0.25,0.25,0.25,1.,1.,-20.,5.,-54.,-20.,       153P    116
10.,-54.,-0.25,0.25,0.,0.,0.;                                        153P    117
126,1,1,0,0,1,0,1.35,1.35,1.75,1.75,1.,1.,-16.,5.,-54.,-20.,5.,      155P    118
-54.,1.35,1.75,0.,0.,0.;                                             155P    119
126,1,1,0,0,1,0,-0.5,-0.5,0.,0.,1.,1.,-10.,10.,-60.,-10.,5.,         157P    120
-60.,-0.5,0.,0.,0.,0.;                                               157P    121
126,1,1,0,0,1,0,-2.25,-2.25,-1.85,-1.85,1.,1.,-10.,5.,-64.,-10.,     159P    122
5.,-60.,-2.25,-1.85,0.,0.,0.;                                        159P    123
126,1,1,0,0,1,0,-0.25,-0.25,0.25,0.25,1.,1.,-10.,10.,-64.,-10.,      161P    124
5.,-64.,-0.25,0.25,0.,0.,0.;                                         161P    125
126,1,1,0,0,1,0,1.85,1.85,2.25,2.25,1.,1.,-10.,10.,-60.,-10.,        163P    126
10.,-64.,1.85,2.25,0.,0.,0.;                                         163P    127
126,1,1,0,0,1,0,-2.75,-2.75,0.25,0.25,1.,1.,-10.,5.,-60.,20.,5.,     165P    128
-60.,-2.75,0.25,0.,0.,0.;                                            165P    129
126,1,1,0,0,1,0,-0.25,-0.25,2.75,2.75,1.,1.,20.,10.,-60.,-10.,       167P    130
10.,-60.,-0.25,2.75,0.,0.,0.;                                        167P    131
126,1,1,0,0,1,0,-5.75,-5.75,1.25,1.25,1.,1.,26.,5.,-54.,26.,5.,      169P    132
16.,-5.75,1.25,0.,0.,0.;                                             169P    133
126,1,1,0,0,1,0,-1.25,-1.25,5.75,5.75,1.,1.,26.,10.,16.,26.,10.,     171P    134
-54.,-1.25,5.75,0.,0.,0.;                                            171P    135
126,1,1,0,0,1,0,0.,0.,1.,1.,1.,1.,-20.,10.,26.,-10.,10.,26.,0.,      173P    136
1.,0.,0.,0.;                                                         173P    137
126,1,1,0,0,1,0,0.,0.,0.5,0.5,1.,1.,-20.,5.,26.,-20.,10.,26.,0.,     175P    138
0.5,0.,0.,0.;                                                        175P    139
126,1,1,0,0,1,0,0.,0.,1.,1.,1.,1.,-20.,5.,26.,-10.,5.,26.,0.,1.,     177P    140
0.,0.,0.;                                                            177P    141
126,1,1,0,0,1,0,4.,4.,5.,5.,1.,1.,20.,5.,26.,30.,5.,26.,4.,5.,       179P    142
0.,0.,0.;                                                            179P    143
126,1,1,0,0,1,0,0.,0.,0.5,0.5,1.,1.,30.,5.,26.,30.,10.,26.,0.,       181P    144
0.5,0.,0.,0.;                                                        181P    145
126,1,1,0,0,1,0,4.,4.,5.,5.,1.,1.,20.,10.,26.,30.,10.,26.,4.,5.,     183P    146
0.,0.,0.;                                                            183P    147
126,1,1,0,0,1,0,8.,8.,9.,9.,1.,1.,30.,5.,-54.,30.,5.,-64.,8.,9.,     185P    148
0.,0.,0.;                                                            185P    149
126,1,1,0,0,1,0,0.,0.,0.5,0.5,1.,1.,30.,5.,-64.,30.,10.,-64.,0.,     187P    150
0.5,0.,0.,0.;                                                        187P    151
126,1,1,0,0,1,0,8.,8.,9.,9.,1.,1.,30.,10.,-54.,30.,10.,-64.,8.,      189P    152
9.,0.,0.,0.;                                                         189P    153
126,1,1,0,0,1,0,0.,0.,1.,1.,1.,1.,-20.,10.,-64.,-20.,10.,-54.,       191P    154
0.,1.,0.,0.,0.;                                                      191P    155
126,1,1,0,0,1,0,0.,0.,0.5,0.5,1.,1.,-20.,5.,-64.,-20.,10.,-64.,      193P    156
0.,0.5,0.,0.,0.;                                                     193P    157
126,1,1,0,0,1,0,0.,0.,1.,1.,1.,1.,-20.,5.,-64.,-20.,5.,-54.,0.,      195P    158
1.,0.,0.,0.;                                                         195P    159
126,1,1,0,0,1,0,8.,8.,9.,9.,1.,1.,-20.,5.,16.,-20.,5.,26.,8.,9.,     197P    160
0.,0.,0.;                                                            197P    161
126,1,1,0,0,1,0,8.,8.,9.,9.,1.,1.,-20.,10.,16.,-20.,10.,26.,8.,      199P    162
9.,0.,0.,0.;                                                         199P    163
126,1,1,0,0,1,0,4.,4.,5.,5.,1.,1.,-10.,5.,-64.,-20.,5.,-64.,4.,      201P    164
5.,0.,0.,0.;                                                         201P    165
126,1,1,0,0,1,0,4.,4.,5.,5.,1.,1.,-10.,10.,-64.,-20.,10.,-64.,       203P    166
4.,5.,0.,0.,0.;                                                      203P    167
126,1,1,0,0,1,0,0.,0.,1.,1.,1.,1.,30.,10.,26.,30.,10.,16.,0.,1.,     205P    168
0.,0.,0.;                                                            205P    169
126,1,1,0,0,1,0,0.,0.,1.,1.,1.,1.,30.,5.,26.,30.,5.,16.,0.,1.,       207P    170
0.,0.,0.;                                                            207P    171
126,1,1,0,0,1,0,0.,0.,1.,1.,1.,1.,30.,10.,-64.,20.,10.,-64.,0.,      209P    172
1.,0.,0.,0.;                                                         209P    173
126,1,1,0,0,1,0,0.,0.,1.,1.,1.,1.,30.,5.,-64.,20.,5.,-64.,0.,1.,     211P    174
0.,0.,0.;                                                            211P    175
128,1,1,1,1,0,0,1,0,0,0.999,0.999,4.001,4.001,0.499,0.499,1.001,     213P    176
1.001,1.,1.,1.,1.,-10.01,4.99,22.,20.01,4.99,22.,-10.01,10.01,       213P    177
22.,20.01,10.01,22.,0.999,4.001,0.499,1.001;                         213P    178
128,1,1,1,1,0,0,1,0,0,0.999,0.999,8.001,8.001,0.499,0.499,1.001,     215P    179
1.001,1.,1.,1.,1.,-16.,4.99,-54.01,-16.,4.99,16.01,-16.,10.01,       215P    180
-54.01,-16.,10.01,16.01,0.999,8.001,0.499,1.001;                     215P    181
128,1,1,1,1,0,0,1,0,0,-0.001,-0.001,0.401,0.401,-0.001,-0.001,       217P    182
0.501,0.501,1.,1.,1.,1.,-20.01,10.01,16.,-15.99,10.01,16.,           217P    183
-20.01,4.99,16.,-15.99,4.99,16.,-0.001,0.401,-0.001,0.501;           217P    184
128,1,1,1,1,0,0,1,0,0,0.599000000000001,0.599000000000001,1.001,     219P    185
1.001,-0.001,-0.001,0.501,0.501,1.,1.,1.,1.,-10.,10.01,21.99,        219P    186
-10.,10.01,26.01,-10.,4.99,21.99,-10.,4.99,26.01,                    219P    187
0.599000000000001,1.001,-0.001,0.501;                                219P    188
128,1,1,1,1,0,0,1,0,0,0.599,0.599,1.001,1.001,-0.001,-0.001,         221P    189
0.501,0.501,1.,1.,1.,1.,20.,10.01,-59.99,20.,10.01,-64.01,20.,       221P    190
4.99,-59.99,20.,4.99,-64.01,0.599,1.001,-0.001,0.501;                221P    191
128,1,1,1,1,0,0,1,0,0,-0.001,-0.001,0.401,0.401,-0.001,-0.001,       223P    192
0.501,0.501,1.,1.,1.,1.,30.01,10.01,-54.,25.99,10.01,-54.,30.01,     223P    193
4.99,-54.,25.99,4.99,-54.,-0.001,0.401,-0.001,0.501;                 223P    194
128,1,1,1,1,0,0,1,0,0,-0.001,-0.001,0.401,0.401,-0.001,-0.001,       225P    195
0.501,0.501,1.,1.,1.,1.,20.,10.01,26.01,20.,10.01,21.99,20.,         225P    196
4.99,26.01,20.,4.99,21.99,-0.001,0.401,-0.001,0.501;                 225P    197
128,1,1,1,1,0,0,1,0,0,0.599,0.599,1.001,1.001,-0.001,-0.001,         227P    198
0.501,0.501,1.,1.,1.,1.,25.99,10.01,16.,30.01,10.01,16.,25.99,       227P    199
4.99,16.,30.01,4.99,16.,0.599,1.001,-0.001,0.501;                    227P    200
128,1,1,1,1,0,0,1,0,0,0.599,0.599,1.001,1.001,-0.001,-0.001,         229P    201
0.501,0.501,1.,1.,1.,1.,-15.99,10.01,-54.,-20.01,10.01,-54.,         229P    202
-15.99,4.99,-54.,-20.01,4.99,-54.,0.599,1.001,-0.001,0.501;          229P    203
128,1,1,1,1,0,0,1,0,0,-0.001,-0.001,0.401,0.401,-0.001,-0.001,       231P    204
0.501,0.501,1.,1.,1.,1.,-10.,10.01,-64.01,-10.,10.01,-59.99,         231P    205
-10.,4.99,-64.01,-10.,4.99,-59.99,-0.001,0.401,-0.001,0.501;         231P    206
128,1,1,1,1,0,0,1,0,0,0.999,0.999,4.001,4.001,0.499,0.499,1.001,     233P    207
1.001,1.,1.,1.,1.,20.01,4.99,-60.,-10.01,4.99,-60.,20.01,10.01,      233P    208
-60.,-10.01,10.01,-60.,0.999,4.001,0.499,1.001;                      233P    209
128,1,1,1,1,0,0,1,0,0,0.999,0.999,8.001,8.001,0.499,0.499,1.001,     235P    210
1.001,1.,1.,1.,1.,26.,4.99,16.01,26.,4.99,-54.01,26.,10.01,          235P    211
16.01,26.,10.01,-54.01,0.999,8.001,0.499,1.001;                      235P    212
128,1,1,1,1,0,0,1,0,0,-0.001,-0.001,1.001,1.001,-0.001,-0.001,       237P    213
0.501,0.501,1.,1.,1.,1.,-20.01,4.99,26.,-9.99,4.99,26.,-20.01,       237P    214
10.01,26.,-9.99,10.01,26.,-0.001,1.001,-0.001,0.501;                 237P    215
128,1,1,1,1,0,0,1,0,0,3.999,3.999,5.001,5.001,-0.001,-0.001,         239P    216
0.501,0.501,1.,1.,1.,1.,19.99,4.99,26.,30.01,4.99,26.,19.99,         239P    217
10.01,26.,30.01,10.01,26.,3.999,5.001,-0.001,0.501;                  239P    218
128,1,1,1,1,0,0,1,0,0,7.999,7.999,9.001,9.001,-0.001,-0.001,         241P    219
0.501,0.501,1.,1.,1.,1.,30.,4.99,-53.99,30.,4.99,-64.01,30.,         241P    220
10.01,-53.99,30.,10.01,-64.01,7.999,9.001,-0.001,0.501;              241P    221
128,1,1,1,1,0,0,1,0,0,-0.001,-0.001,1.001,1.001,-0.001,-0.001,       243P    222
0.501,0.501,1.,1.,1.,1.,-20.,4.99,-64.01,-20.,4.99,-53.99,-20.,      243P    223
10.01,-64.01,-20.,10.01,-53.99,-0.001,1.001,-0.001,0.501;            243P    224
128,1,1,1,1,0,0,1,0,0,7.999,7.999,9.001,9.001,-0.001,-0.001,         245P    225
0.501,0.501,1.,1.,1.,1.,-20.,4.99,15.99,-20.,4.99,26.01,-20.,        245P    226
10.01,15.99,-20.,10.01,26.01,7.999,9.001,-0.001,0.501;               245P    227
128,1,1,1,1,0,0,1,0,0,3.999,3.999,5.001,5.001,-0.001,-0.001,         247P    228
0.501,0.501,1.,1.,1.,1.,-9.99,4.99,-64.,-20.01,4.99,-64.,-9.99,      247P    229
10.01,-64.,-20.01,10.01,-64.,3.999,5.001,-0.001,0.501;               247P    230
128,1,1,1,1,0,0,1,0,0,-0.001,-0.001,1.001,1.001,-0.001,-0.001,       249P    231
0.501,0.501,1.,1.,1.,1.,30.,4.99,26.01,30.,4.99,15.99,30.,10.01,     249P    232
26.01,30.,10.01,15.99,-0.001,1.001,-0.001,0.501;                     249P    233
128,1,1,1,1,0,0,1,0,0,-0.001,-0.001,1.001,1.001,-0.001,-0.001,       251P    234
0.501,0.501,1.,1.,1.,1.,30.01,4.99,-64.,19.99,4.99,-64.,30.01,       251P    235
10.01,-64.,19.99,10.01,-64.,-0.001,1.001,-0.001,0.501;               251P    236
128,1,1,1,1,0,0,1,0,0,-4.501,-4.501,4.501,4.501,-2.501,-2.501,       253P    237
2.501,2.501,1.,1.,1.,1.,-20.01,10.,-64.01,-20.01,10.,26.01,          253P    238
30.01,10.,-64.01,30.01,10.,26.01,-4.501,4.501,-2.501,2.501;          253P    239
128,1,1,1,1,0,0,1,0,0,-2.501,-2.501,2.501,2.501,-4.501,-4.501,       255P    240
4.501,4.501,1.,1.,1.,1.,30.01,5.,26.01,-20.01,5.,26.01,30.01,5.,     255P    241
-64.01,-20.01,5.,-64.01,-2.501,2.501,-4.501,4.501;                   255P    242
502,40,20.,5.,22.,-10.,5.,22.,20.,10.,22.,-10.,10.,22.,-16.,5.,      257P    243
16.,-16.,5.,-54.,-16.,10.,16.,-16.,10.,-54.,-20.,5.,16.,-20.,        257P    244
10.,16.,-10.,10.,26.,-10.,5.,26.,20.,5.,-60.,20.,10.,-60.,20.,       257P    245
10.,-64.,20.,5.,-64.,26.,10.,-54.,26.,5.,-54.,30.,5.,-54.,30.,       257P    246
10.,-54.,20.,5.,26.,20.,10.,26.,26.,5.,16.,26.,10.,16.,30.,10.,      257P    247
16.,30.,5.,16.,-20.,10.,-54.,-20.,5.,-54.,-10.,10.,-60.,-10.,5.,     257P    248
-60.,-10.,5.,-64.,-10.,10.,-64.,-20.,10.,26.,-20.,5.,26.,30.,5.,     257P    249
26.,30.,10.,26.,30.,5.,-64.,30.,10.,-64.,-20.,10.,-64.,-20.,5.,      257P    250
-64.;                                                                257P    251
504,60,93,257,1,257,2,95,257,3,257,1,97,257,4,257,3,99,257,2,        259P    252
257,4,101,257,5,257,6,103,257,7,257,5,105,257,8,257,7,107,257,6,     259P    253
257,8,109,257,9,257,5,111,257,10,257,9,113,257,7,257,10,115,257,     259P    254
11,257,4,117,257,12,257,11,119,257,2,257,12,121,257,13,257,14,       259P    255
123,257,15,257,14,125,257,16,257,15,127,257,13,257,16,129,257,       259P    256
17,257,18,131,257,19,257,18,133,257,20,257,19,135,257,17,257,20,     259P    257
137,257,21,257,1,139,257,22,257,21,141,257,3,257,22,143,257,23,      259P    258
257,24,145,257,25,257,24,147,257,26,257,25,149,257,23,257,26,        259P    259
151,257,27,257,8,153,257,28,257,27,155,257,6,257,28,157,257,29,      259P    260
257,30,159,257,31,257,30,161,257,32,257,31,163,257,29,257,32,        259P    261
165,257,30,257,13,167,257,14,257,29,169,257,18,257,23,171,257,       259P    262
24,257,17,173,257,33,257,11,175,257,34,257,33,177,257,34,257,12,     259P    263
179,257,21,257,35,181,257,35,257,36,183,257,22,257,36,185,257,       259P    264
19,257,37,187,257,37,257,38,189,257,20,257,38,191,257,39,257,27,     259P    265
193,257,40,257,39,195,257,40,257,28,197,257,9,257,34,199,257,10,     259P    266
257,33,201,257,31,257,40,203,257,32,257,39,205,257,36,257,25,        259P    267
207,257,35,257,26,209,257,38,257,15,211,257,37,257,16;               259P    268
406,1,5HBody1;                                                       261P    269
314,62.7450980392157,62.7450980392157,62.7450980392157,13HSteel      263P    270
- Satin;                                                             263P    271
S      1G      3D    264P    271                                        T      1
