                                                                        S      1
,,13HBig Button v2,13HBig Button v2,7Hunknown,7Hunknown,32,38,7,99,15,, G      1
1.,2,2HMM,1,0.08,15H20250912.002721,0.01,10000.,7Hunknown,7Hunknown,11, G      2
0,15H20200522.171453;                                                   G      3
     186       1                                                00000000D      1
     186            -147       1       0                               0D      2
     514       2                                                00010000D      3
     514                       2       1                               0D      4
     510       4                                                00010000D      5
     510            -147       1       1                               0D      6
     510       5                                                00010000D      7
     510            -147       1       1                               0D      8
     510       6                                                00010000D      9
     510            -147       1       1                               0D     10
     510       7                                                00010000D     11
     510            -147       1       1                               0D     12
     510       8                                                00010000D     13
     510            -147       1       1                               0D     14
     510       9                                                00010000D     15
     510            -147       1       1                               0D     16
     510      10                                                00010000D     17
     510            -147       1       1                               0D     18
     510      11                                                00010000D     19
     510            -147       1       1                               0D     20
     510      12                                                00010000D     21
     510            -147       1       1                               0D     22
     510      13                                                00010000D     23
     510            -147       1       1                               0D     24
     510      14                                                00010000D     25
     510            -147       1       1                               0D     26
     510      15                                                00010000D     27
     510            -147       1       1                               0D     28
     510      16                                                00010000D     29
     510            -147       1       1                               0D     30
     508      17                                                00010000D     31
     508                       1       1                               0D     32
     508      18                                                00010000D     33
     508                       1       1                               0D     34
     508      19                                                00010000D     35
     508                       1       1                               0D     36
     508      20                                                00010000D     37
     508                       1       1                               0D     38
     508      21                                                00010000D     39
     508                       1       1                               0D     40
     508      22                                                00010000D     41
     508                       1       1                               0D     42
     508      23                                                00010000D     43
     508                       1       1                               0D     44
     508      24                                                00010000D     45
     508                       1       1                               0D     46
     508      25                                                00010000D     47
     508                       1       1                               0D     48
     508      26                                                00010000D     49
     508                       1       1                               0D     50
     508      27                                                00010000D     51
     508                       1       1                               0D     52
     508      28                                                00010000D     53
     508                       1       1                               0D     54
     508      29                                                00010000D     55
     508                       1       1                               0D     56
     508      30                                                00010000D     57
     508                       1       1                               0D     58
     508      31                                                00010000D     59
     508                       1       1                               0D     60
     126      32                                                00010000D     61
     126       0               2       0                               0D     62
     126      34                                                00010000D     63
     126       0               2       0                               0D     64
     126      36                                                00010000D     65
     126       0               2       0                               0D     66
     126      38                                                00010000D     67
     126       0               2       0                               0D     68
     126      40                                                00010000D     69
     126       0               2       0                               0D     70
     126      42                                                00010000D     71
     126       0               2       0                               0D     72
     126      44                                                00010000D     73
     126       0               2       0                               0D     74
     126      46                                                00010000D     75
     126       0               2       0                               0D     76
     126      48                                                00010000D     77
     126       0               2       0                               0D     78
     126      50                                                00010000D     79
     126       0               2       0                               0D     80
     126      52                                                00010000D     81
     126       0               2       0                               0D     82
     126      54                                                00010000D     83
     126       0               2       0                               0D     84
     126      56                                                00010000D     85
     126       0               8       0                               0D     86
     126      64                                                00010000D     87
     126       0               2       0                               0D     88
     126      66                                                00010000D     89
     126       0               8       0                               0D     90
     126      74                                                00010000D     91
     126       0               2       0                               0D     92
     126      76                                                00010000D     93
     126       0               2       0                               0D     94
     126      78                                                00010000D     95
     126       0               2       0                               0D     96
     126      80                                                00010000D     97
     126       0               2       0                               0D     98
     126      82                                                00010000D     99
     126       0               2       0                               0D    100
     126      84                                                00010000D    101
     126       0               2       0                               0D    102
     126      86                                                00010000D    103
     126       0               2       0                               0D    104
     126      88                                                00010000D    105
     126       0               2       0                               0D    106
     126      90                                                00010000D    107
     126       0               2       0                               0D    108
     126      92                                                00010000D    109
     126       0               2       0                               0D    110
     126      94                                                00010000D    111
     126       0               2       0                               0D    112
     126      96                                                00010000D    113
     126       0               2       0                               0D    114
     128      98                                                00010000D    115
     128       0    -147       3       0                               0D    116
     128     101                                                00010000D    117
     128       0    -147       3       0                               0D    118
     128     104                                                00010000D    119
     128       0    -147       3       0                               0D    120
     128     107                                                00010000D    121
     128       0    -147       4       0                               0D    122
     128     111                                                00010000D    123
     128       0    -147       3       0                               0D    124
     128     114                                                00010000D    125
     128       0    -147      12       0                               0D    126
     128     126                                                00010000D    127
     128       0    -147       3       0                               0D    128
     128     129                                                00010000D    129
     128       0    -147       3       0                               0D    130
     128     132                                                00010000D    131
     128       0    -147       4       0                               0D    132
     128     136                                                00010000D    133
     128       0    -147       4       0                               0D    134
     128     140                                                00010000D    135
     128       0    -147       3       0                               0D    136
     128     143                                                00010000D    137
     128       0    -147       4       0                               0D    138
     128     147                                                00010000D    139
     128       0    -147       4       0                               0D    140
     502     151                                                00010000D    141
     502                       4       1                               0D    142
     504     155                                                00010001D    143
     504                       8       1                               0D    144
     406     163                                                00000000D    145
     406                       1      15                               0D    146
     314     164                                                00000200D    147
     314                       2       0                               0D    148
186,3,1,0,0,1,145;                                                     1P      1
514,13,5,1,7,1,9,1,11,1,13,1,15,1,17,1,19,1,21,1,23,1,25,1,27,1,       3P      2
29,1;                                                                  3P      3
510,115,1,1,31;                                                        5P      4
510,117,1,1,33;                                                        7P      5
510,119,1,1,35;                                                        9P      6
510,121,1,1,37;                                                       11P      7
510,123,1,1,39;                                                       13P      8
510,125,1,1,41;                                                       15P      9
510,127,1,1,43;                                                       17P     10
510,129,1,1,45;                                                       19P     11
510,131,2,1,47,49;                                                    21P     12
510,133,1,1,51;                                                       23P     13
510,135,1,1,53;                                                       25P     14
510,137,2,1,55,57;                                                    27P     15
510,139,1,1,59;                                                       29P     16
508,4,0,143,1,0,0,0,143,2,1,0,0,143,3,0,0,0,143,4,0,0;                31P     17
508,4,0,143,5,0,0,0,143,4,1,0,0,143,6,0,0,0,143,7,0,0;                33P     18
508,4,0,143,8,0,0,0,143,7,1,0,0,143,9,0,0,0,143,10,0,0;               35P     19
508,4,0,143,11,0,0,0,143,10,1,0,0,143,12,0,0,0,143,2,0,0;             37P     20
508,4,0,143,12,1,0,0,143,9,1,0,0,143,6,1,0,0,143,3,1,0;               39P     21
508,4,0,143,13,0,0,0,143,14,1,0,0,143,15,0,0,0,143,14,0,0;            41P     22
508,1,0,143,13,1,0;                                                   43P     23
508,4,0,143,16,0,0,0,143,17,1,0,0,143,18,0,0,0,143,19,0,0;            45P     24
508,4,0,143,20,0,0,0,143,19,1,0,0,143,21,0,0,0,143,22,0,0;            47P     25
508,4,0,143,1,1,0,0,143,5,1,0,0,143,8,1,0,0,143,11,1,0;               49P     26
508,4,0,143,23,0,0,0,143,22,1,0,0,143,24,0,0,0,143,25,0,0;            51P     27
508,4,0,143,26,0,0,0,143,25,1,0,0,143,27,0,0,0,143,17,0,0;            53P     28
508,4,0,143,27,1,0,0,143,24,1,0,0,143,21,1,0,0,143,18,1,0;            55P     29
508,1,0,143,15,1,0;                                                   57P     30
508,4,0,143,26,1,0,0,143,16,1,0,0,143,20,1,0,0,143,23,1,0;            59P     31
126,1,1,0,0,1,0,-0.8,-0.8,-0.13,-0.13,1.,1.,0.2,-2.6,0.,0.2,          61P     32
-9.3,0.,-0.8,-0.13,0.,0.,0.;                                          61P     33
126,1,1,0,0,1,0,0.,0.,0.46,0.46,1.,1.,0.2,-2.6,0.,0.2,-2.6,-4.6,      63P     34
0.,0.46,0.,0.,0.;                                                     63P     35
126,1,1,0,0,1,0,-0.67,-0.67,0.,0.,1.,1.,0.2,-9.3,-4.6,0.2,-2.6,       65P     36
-4.6,-0.67,0.,0.,0.,0.;                                               65P     37
126,1,1,0,0,1,0,0.,0.,0.46,0.46,1.,1.,0.2,-9.3,0.,0.2,-9.3,-4.6,      67P     38
0.,0.46,0.,0.,0.;                                                     67P     39
126,1,1,0,0,1,0,-0.07,-0.07,0.09,0.09,1.,1.,0.2,-9.3,0.,1.8,          69P     40
-9.3,0.,-0.07,0.09,0.,0.,0.;                                          69P     41
126,1,1,0,0,1,0,-0.16,-0.16,0.,0.,1.,1.,1.8,-9.3,-4.6,0.2,-9.3,       71P     42
-4.6,-0.16,0.,0.,0.,0.;                                               71P     43
126,1,1,0,0,1,0,0.,0.,0.46,0.46,1.,1.,1.8,-9.3,0.,1.8,-9.3,-4.6,      73P     44
0.,0.46,0.,0.,0.;                                                     73P     45
126,1,1,0,0,1,0,-0.205,-0.205,0.465,0.465,1.,1.,1.8,-9.3,0.,1.8,      75P     46
-2.6,0.,-0.205,0.465,0.,0.,0.;                                        75P     47
126,1,1,0,0,1,0,-0.67,-0.67,0.,0.,1.,1.,1.8,-2.6,-4.6,1.8,-9.3,       77P     48
-4.6,-0.67,0.,0.,0.,0.;                                               77P     49
126,1,1,0,0,1,0,0.,0.,0.46,0.46,1.,1.,1.8,-2.6,0.,1.8,-2.6,-4.6,      79P     50
0.,0.46,0.,0.,0.;                                                     79P     51
126,1,1,0,0,1,0,-0.17,-0.17,-0.01,-0.01,1.,1.,1.8,-2.6,0.,0.2,        81P     52
-2.6,0.,-0.17,-0.01,0.,0.,0.;                                         81P     53
126,1,1,0,0,1,0,-0.16,-0.16,0.,0.,1.,1.,0.2,-2.6,-4.6,1.8,-2.6,       83P     54
-4.6,-0.16,0.,0.,0.,0.;                                               83P     55
126,8,2,0,1,0,0,-3.14159265358979,-3.14159265358979,                  85P     56
-3.14159265358979,-1.5707963267949,-1.5707963267949,0.,0.,            85P     57
1.5707963267949,1.5707963267949,3.14159265358979,                     85P     58
3.14159265358979,3.14159265358979,1.,0.707106781186547,1.,            85P     59
0.707106781186548,1.,0.707106781186547,1.,0.707106781186547,1.,       85P     60
6.6,-9.3,5.95,6.6,-9.3,2.6,6.6,-5.95,2.6,6.6,-2.6,2.6,6.6,-2.6,       85P     61
5.95,6.6,-2.6,9.3,6.6,-5.95,9.3,6.6,-9.3,9.3,6.6,-9.3,5.95,           85P     62
-3.14159265358979,3.14159265358979,0.,0.,0.;                          85P     63
126,1,1,0,0,1,0,-0.835820895522388,-0.835820895522388,0.,0.,1.,       87P     64
1.,6.6,-9.3,5.95,3.8,-9.3,5.95,-0.835820895522388,0.,0.,0.,0.;        87P     65
126,8,2,0,1,0,0,-3.14159265358979,-3.14159265358979,                  89P     66
-3.14159265358979,-1.5707963267949,-1.5707963267949,0.,0.,            89P     67
1.5707963267949,1.5707963267949,3.14159265358979,                     89P     68
3.14159265358979,3.14159265358979,1.,0.707106781186547,1.,            89P     69
0.707106781186547,1.,0.707106781186548,1.,0.707106781186547,1.,       89P     70
3.8,-9.3,5.95,3.8,-9.3,9.3,3.8,-5.95,9.3,3.8,-2.6,9.3,3.8,-2.6,       89P     71
5.95,3.8,-2.6,2.6,3.8,-5.95,2.6,3.8,-9.3,2.6,3.8,-9.3,5.95,           89P     72
-3.14159265358979,3.14159265358979,0.,0.,0.;                          89P     73
126,1,1,0,0,1,0,0.,0.,1.19,1.19,1.,1.,0.,0.,11.9,0.,0.,0.,0.,         91P     74
1.19,0.,0.,0.;                                                        91P     75
126,1,1,0,0,1,0,0.,0.,0.38,0.38,1.,1.,0.,0.,11.9,3.8,0.,11.9,0.,      93P     76
0.38,0.,0.,0.;                                                        93P     77
126,1,1,0,0,1,0,-1.19,-1.19,0.,0.,1.,1.,3.8,0.,0.,3.8,0.,11.9,        95P     78
-1.19,0.,0.,0.,0.;                                                    95P     79
126,1,1,0,0,1,0,0.,0.,0.38,0.38,1.,1.,0.,0.,0.,3.8,0.,0.,0.,          97P     80
0.38,0.,0.,0.;                                                        97P     81
126,1,1,0,0,1,0,0.,0.,1.19,1.19,1.,1.,0.,0.,0.,0.,-11.9,0.,0.,        99P     82
1.19,0.,0.,0.;                                                        99P     83
126,1,1,0,0,1,0,-1.19,-1.19,0.,0.,1.,1.,3.8,-11.9,0.,3.8,0.,0.,      101P     84
-1.19,0.,0.,0.,0.;                                                   101P     85
126,1,1,0,0,1,0,0.,0.,0.38,0.38,1.,1.,0.,-11.9,0.,3.8,-11.9,0.,      103P     86
0.,0.38,0.,0.,0.;                                                    103P     87
126,1,1,0,0,1,0,0.,0.,1.19,1.19,1.,1.,0.,-11.9,0.,0.,-11.9,11.9,     105P     88
0.,1.19,0.,0.,0.;                                                    105P     89
126,1,1,0,0,1,0,-1.19,-1.19,0.,0.,1.,1.,3.8,-11.9,11.9,3.8,          107P     90
-11.9,0.,-1.19,0.,0.,0.,0.;                                          107P     91
126,1,1,0,0,1,0,0.,0.,0.38,0.38,1.,1.,0.,-11.9,11.9,3.8,-11.9,       109P     92
11.9,0.,0.38,0.,0.,0.;                                               109P     93
126,1,1,0,0,1,0,0.,0.,1.19,1.19,1.,1.,0.,-11.9,11.9,0.,0.,11.9,      111P     94
0.,1.19,0.,0.,0.;                                                    111P     95
126,1,1,0,0,1,0,-1.19,-1.19,0.,0.,1.,1.,3.8,0.,11.9,3.8,-11.9,       113P     96
11.9,-1.19,0.,0.,0.,0.;                                              113P     97
128,1,1,1,1,0,0,1,0,0,-0.001,-0.001,0.671,0.671,-0.001,-0.001,       115P     98
0.461,0.461,1.,1.,1.,1.,0.2,-9.31,0.01,0.2,-2.59,0.01,0.2,-9.31,     115P     99
-4.61,0.2,-2.59,-4.61,-0.001,0.671,-0.001,0.461;                     115P    100
128,1,1,1,1,0,0,1,0,0,-0.001,-0.001,0.161,0.161,-0.001,-0.001,       117P    101
0.461,0.461,1.,1.,1.,1.,1.81,-9.3,0.01,0.19,-9.3,0.01,1.81,-9.3,     117P    102
-4.61,0.19,-9.3,-4.61,-0.001,0.161,-0.001,0.461;                     117P    103
128,1,1,1,1,0,0,1,0,0,-0.001,-0.001,0.671,0.671,-0.001,-0.001,       119P    104
0.461,0.461,1.,1.,1.,1.,1.8,-2.59,0.01,1.8,-9.31,0.01,1.8,-2.59,     119P    105
-4.61,1.8,-9.31,-4.61,-0.001,0.671,-0.001,0.461;                     119P    106
128,1,1,1,1,0,0,1,0,0,-0.00100000000000001,-0.00100000000000001,     121P    107
0.161,0.161,-0.001,-0.001,0.461,0.461,1.,1.,1.,1.,0.19,-2.6,         121P    108
0.01,1.81,-2.6,0.01,0.19,-2.6,-4.61,1.81,-2.6,-4.61,                 121P    109
-0.00100000000000001,0.161,-0.001,0.461;                             121P    110
128,1,1,1,1,0,0,1,0,0,-0.081,-0.081,0.081,0.081,-0.336,-0.336,       123P    111
0.336,0.336,1.,1.,1.,1.,1.81,-9.31,-4.6,0.19,-9.31,-4.6,1.81,        123P    112
-2.59,-4.6,0.19,-2.59,-4.6,-0.081,0.081,-0.336,0.336;                123P    113
128,1,8,1,2,0,1,0,0,1,0.,0.,0.835820895522388,0.835820895522388,     125P    114
-3.14159265358979,-3.14159265358979,-3.14159265358979,               125P    115
-1.5707963267949,-1.5707963267949,0.,0.,1.5707963267949,             125P    116
1.5707963267949,3.14159265358979,3.14159265358979,                   125P    117
3.14159265358979,1.,1.,0.707106781186548,0.707106781186548,1.,       125P    118
1.,0.707106781186548,0.707106781186548,1.,1.,0.707106781186548,      125P    119
0.707106781186548,1.,1.,0.707106781186548,0.707106781186548,1.,      125P    120
1.,6.6,-9.3,5.95,3.8,-9.3,5.95,6.6,-9.3,2.6,3.8,-9.3,2.6,6.6,        125P    121
-5.95,2.6,3.8,-5.95,2.6,6.6,-2.6,2.6,3.8,-2.6,2.6,6.6,-2.6,5.95,     125P    122
3.8,-2.6,5.95,6.6,-2.6,9.3,3.8,-2.6,9.3,6.6,-5.95,9.3,3.8,-5.95,     125P    123
9.3,6.6,-9.3,9.3,3.8,-9.3,9.3,6.6,-9.3,5.95,3.8,-9.3,5.95,0.,        125P    124
0.835820895522388,-3.14159265358979,3.14159265358979;                125P    125
128,1,1,1,1,0,0,1,0,0,-0.336,-0.336,0.336,0.336,-0.336,-0.336,       127P    126
0.336,0.336,1.,1.,1.,1.,6.6,-9.31,2.59,6.6,-2.59,2.59,6.6,-9.31,     127P    127
9.31,6.6,-2.59,9.31,-0.336,0.336,-0.336,0.336;                       127P    128
128,1,1,1,1,0,0,1,0,0,-0.001,-0.001,1.191,1.191,-0.001,-0.001,       129P    129
0.381,0.381,1.,1.,1.,1.,-0.01,0.,-0.01,-0.01,0.,11.91,3.81,0.,       129P    130
-0.01,3.81,0.,11.91,-0.001,1.191,-0.001,0.381;                       129P    131
128,1,1,1,1,0,0,1,0,0,-0.001,-0.001,1.191,1.191,-0.001,-0.001,       131P    132
0.381,0.381,1.,1.,1.,1.,-0.01,-11.91,0.,-0.01,                       131P    133
0.0099999999999989,0.,3.81,-11.91,0.,3.81,0.0099999999999989,0.,     131P    134
-0.001,1.191,-0.001,0.381;                                           131P    135
128,1,1,1,1,0,0,1,0,0,-0.001,-0.001,1.191,1.191,-0.001,-0.001,       133P    136
0.381,0.381,1.,1.,1.,1.,-0.01,-11.9,11.91,-0.01,-11.9,               133P    137
-0.0099999999999989,3.81,-11.9,11.91,3.81,-11.9,                     133P    138
-0.0099999999999989,-0.001,1.191,-0.001,0.381;                       133P    139
128,1,1,1,1,0,0,1,0,0,-0.001,-0.001,1.191,1.191,-0.001,-0.001,       135P    140
0.381,0.381,1.,1.,1.,1.,-0.01,0.01,11.9,-0.01,-11.91,11.9,3.81,      135P    141
0.01,11.9,3.81,-11.91,11.9,-0.001,1.191,-0.001,0.381;                135P    142
128,1,1,1,1,0,0,1,0,0,-0.596,-0.596,0.596,0.596,-0.596,-0.596,       137P    143
0.596,0.596,1.,1.,1.,1.,3.8,-11.91,11.91,3.8,-11.91,-0.01,3.8,       137P    144
0.01,11.91,3.8,0.0099999999999989,-0.0099999999999989,-0.596,        137P    145
0.596,-0.596,0.596;                                                  137P    146
128,1,1,1,1,0,0,1,0,0,-0.596,-0.596,0.596,0.596,-0.596,-0.596,       139P    147
0.596,0.596,1.,1.,1.,1.,0.,0.01,-0.01,0.,-11.91,-0.01,0.,            139P    148
0.0099999999999989,11.91,0.,-11.91,11.91,-0.596,0.596,-0.596,        139P    149
0.596;                                                               139P    150
502,18,0.2,-2.6,0.,0.2,-9.3,0.,0.2,-2.6,-4.6,0.2,-9.3,-4.6,1.8,      141P    151
-9.3,0.,1.8,-9.3,-4.6,1.8,-2.6,0.,1.8,-2.6,-4.6,6.6,-9.3,5.95,       141P    152
3.8,-9.3,5.95,0.,0.,11.9,0.,0.,0.,3.8,0.,11.9,3.8,0.,0.,0.,          141P    153
-11.9,0.,3.8,-11.9,0.,0.,-11.9,11.9,3.8,-11.9,11.9;                  141P    154
504,27,61,141,1,141,2,63,141,1,141,3,65,141,4,141,3,67,141,2,        143P    155
141,4,69,141,2,141,5,71,141,6,141,4,73,141,5,141,6,75,141,5,141,     143P    156
7,77,141,8,141,6,79,141,7,141,8,81,141,7,141,1,83,141,3,141,8,       143P    157
85,141,9,141,9,87,141,9,141,10,89,141,10,141,10,91,141,11,141,       143P    158
12,93,141,11,141,13,95,141,14,141,13,97,141,12,141,14,99,141,12,     143P    159
141,15,101,141,16,141,14,103,141,15,141,16,105,141,15,141,17,        143P    160
107,141,18,141,16,109,141,17,141,18,111,141,17,141,11,113,141,       143P    161
13,141,18;                                                           143P    162
406,1,5HBody1;                                                       145P    163
314,62.7450980392157,62.7450980392157,62.7450980392157,13HSteel      147P    164
- Satin;                                                             147P    165
S      1G      3D    148P    165                                        T      1
