                                                                        S      1
,,19HdadHeadphones_V2 v1,18HdadHeadphonesV2 v1,7Hunknown,7Hunknown,32,  G      1
38,7,99,15,,1.,2,2HMM,1,0.08,15H20250912.001629,0.01,10000.,7Hunknown,7HG      2
unknown,11,0,15H20210301.203057;                                        G      3
     186       1                                                00000000D      1
     186            -255       1       0                               0D      2
     514       2                                                00010000D      3
     514                       2       1                               0D      4
     510       4                                                00010000D      5
     510            -255       1       1                               0D      6
     510       5                                                00010000D      7
     510            -255       1       1                               0D      8
     510       6                                                00010000D      9
     510            -255       1       1                               0D     10
     510       7                                                00010000D     11
     510            -255       1       1                               0D     12
     510       8                                                00010000D     13
     510            -255       1       1                               0D     14
     510       9                                                00010000D     15
     510            -255       1       1                               0D     16
     510      10                                                00010000D     17
     510            -255       1       1                               0D     18
     510      11                                                00010000D     19
     510            -255       1       1                               0D     20
     510      12                                                00010000D     21
     510            -255       1       1                               0D     22
     510      13                                                00010000D     23
     510            -255       1       1                               0D     24
     510      14                                                00010000D     25
     510            -255       1       1                               0D     26
     510      15                                                00010000D     27
     510            -255       1       1                               0D     28
     510      16                                                00010000D     29
     510            -255       1       1                               0D     30
     510      17                                                00010000D     31
     510            -255       1       1                               0D     32
     510      18                                                00010000D     33
     510            -255       1       1                               0D     34
     510      19                                                00010000D     35
     510            -255       1       1                               0D     36
     510      20                                                00010000D     37
     510            -255       1       1                               0D     38
     510      21                                                00010000D     39
     510            -255       1       1                               0D     40
     510      22                                                00010000D     41
     510            -255       1       1                               0D     42
     510      23                                                00010000D     43
     510            -255       1       1                               0D     44
     510      24                                                00010000D     45
     510            -255       1       1                               0D     46
     508      25                                                00010000D     47
     508                       1       1                               0D     48
     508      26                                                00010000D     49
     508                       1       1                               0D     50
     508      27                                                00010000D     51
     508                       1       1                               0D     52
     508      28                                                00010000D     53
     508                       1       1                               0D     54
     508      29                                                00010000D     55
     508                       1       1                               0D     56
     508      30                                                00010000D     57
     508                       1       1                               0D     58
     508      31                                                00010000D     59
     508                       1       1                               0D     60
     508      32                                                00010000D     61
     508                       1       1                               0D     62
     508      33                                                00010000D     63
     508                       1       1                               0D     64
     508      34                                                00010000D     65
     508                       1       1                               0D     66
     508      35                                                00010000D     67
     508                       1       1                               0D     68
     508      36                                                00010000D     69
     508                       1       1                               0D     70
     508      37                                                00010000D     71
     508                       1       1                               0D     72
     508      38                                                00010000D     73
     508                       1       1                               0D     74
     508      39                                                00010000D     75
     508                       1       1                               0D     76
     508      40                                                00010000D     77
     508                       1       1                               0D     78
     508      41                                                00010000D     79
     508                       1       1                               0D     80
     508      42                                                00010000D     81
     508                       1       1                               0D     82
     508      43                                                00010000D     83
     508                       1       1                               0D     84
     508      44                                                00010000D     85
     508                       4       1                               0D     86
     508      48                                                00010000D     87
     508                       1       1                               0D     88
     508      49                                                00010000D     89
     508                       4       1                               0D     90
     508      53                                                00010000D     91
     508                       1       1                               0D     92
     126      54                                                00010000D     93
     126       0               3       0                               0D     94
     126      57                                                00010000D     95
     126       0               3       0                               0D     96
     126      60                                                00010000D     97
     126       0               4       0                               0D     98
     126      64                                                00010000D     99
     126       0               3       0                               0D    100
     126      67                                                00010000D    101
     126       0               3       0                               0D    102
     126      70                                                00010000D    103
     126       0               3       0                               0D    104
     126      73                                                00010000D    105
     126       0               3       0                               0D    106
     126      76                                                00010000D    107
     126       0               3       0                               0D    108
     126      79                                                00010000D    109
     126       0               3       0                               0D    110
     126      82                                                00010000D    111
     126       0               3       0                               0D    112
     126      85                                                00010000D    113
     126       0               2       0                               0D    114
     126      87                                                00010000D    115
     126       0               3       0                               0D    116
     126      90                                                00010000D    117
     126       0               2       0                               0D    118
     126      92                                                00010000D    119
     126       0               2       0                               0D    120
     126      94                                                00010000D    121
     126       0               2       0                               0D    122
     126      96                                                00010000D    123
     126       0               2       0                               0D    124
     126      98                                                00010000D    125
     126       0               2       0                               0D    126
     126     100                                                00010000D    127
     126       0               2       0                               0D    128
     126     102                                                00010000D    129
     126       0               2       0                               0D    130
     126     104                                                00010000D    131
     126       0               2       0                               0D    132
     126     106                                                00010000D    133
     126       0               2       0                               0D    134
     126     108                                                00010000D    135
     126       0               2       0                               0D    136
     126     110                                                00010000D    137
     126       0               2       0                               0D    138
     126     112                                                00010000D    139
     126       0               2       0                               0D    140
     126     114                                                00010000D    141
     126       0               2       0                               0D    142
     126     116                                                00010000D    143
     126       0               2       0                               0D    144
     126     118                                                00010000D    145
     126       0               2       0                               0D    146
     126     120                                                00010000D    147
     126       0               2       0                               0D    148
     126     122                                                00010000D    149
     126       0               2       0                               0D    150
     126     124                                                00010000D    151
     126       0               2       0                               0D    152
     126     126                                                00010000D    153
     126       0               2       0                               0D    154
     126     128                                                00010000D    155
     126       0               2       0                               0D    156
     126     130                                                00010000D    157
     126       0               2       0                               0D    158
     126     132                                                00010000D    159
     126       0               2       0                               0D    160
     126     134                                                00010000D    161
     126       0               3       0                               0D    162
     126     137                                                00010000D    163
     126       0               3       0                               0D    164
     126     140                                                00010000D    165
     126       0               2       0                               0D    166
     126     142                                                00010000D    167
     126       0               3       0                               0D    168
     126     145                                                00010000D    169
     126       0               3       0                               0D    170
     126     148                                                00010000D    171
     126       0               2       0                               0D    172
     126     150                                                00010000D    173
     126       0               3       0                               0D    174
     126     153                                                00010000D    175
     126       0               3       0                               0D    176
     126     156                                                00010000D    177
     126       0               2       0                               0D    178
     126     158                                                00010000D    179
     126       0               3       0                               0D    180
     126     161                                                00010000D    181
     126       0               3       0                               0D    182
     126     164                                                00010000D    183
     126       0               2       0                               0D    184
     126     166                                                00010000D    185
     126       0               3       0                               0D    186
     126     169                                                00010000D    187
     126       0               3       0                               0D    188
     126     172                                                00010000D    189
     126       0               3       0                               0D    190
     126     175                                                00010000D    191
     126       0               2       0                               0D    192
     126     177                                                00010000D    193
     126       0               2       0                               0D    194
     126     179                                                00010000D    195
     126       0               2       0                               0D    196
     126     181                                                00010000D    197
     126       0               2       0                               0D    198
     126     183                                                00010000D    199
     126       0               2       0                               0D    200
     126     185                                                00010000D    201
     126       0               2       0                               0D    202
     126     187                                                00010000D    203
     126       0               2       0                               0D    204
     126     189                                                00010000D    205
     126       0               2       0                               0D    206
     128     191                                                00010000D    207
     128       0    -255       6       0                               0D    208
     128     197                                                00010000D    209
     128       0    -255       6       0                               0D    210
     128     203                                                00010000D    211
     128       0    -255       6       0                               0D    212
     128     209                                                00010000D    213
     128       0    -255       5       0                               0D    214
     128     214                                                00010000D    215
     128       0    -255       4       0                               0D    216
     128     218                                                00010000D    217
     128       0    -255       4       0                               0D    218
     128     222                                                00010000D    219
     128       0    -255       4       0                               0D    220
     128     226                                                00010000D    221
     128       0    -255       5       0                               0D    222
     128     231                                                00010000D    223
     128       0    -255       5       0                               0D    224
     128     236                                                00010000D    225
     128       0    -255       3       0                               0D    226
     128     239                                                00010000D    227
     128       0    -255       4       0                               0D    228
     128     243                                                00010000D    229
     128       0    -255       5       0                               0D    230
     128     248                                                00010000D    231
     128       0    -255       5       0                               0D    232
     128     253                                                00010000D    233
     128       0    -255       5       0                               0D    234
     128     258                                                00010000D    235
     128       0    -255       5       0                               0D    236
     128     263                                                00010000D    237
     128       0    -255       6       0                               0D    238
     128     269                                                00010000D    239
     128       0    -255       5       0                               0D    240
     128     274                                                00010000D    241
     128       0    -255       4       0                               0D    242
     128     278                                                00010000D    243
     128       0    -255       4       0                               0D    244
     128     282                                                00010000D    245
     128       0    -255       6       0                               0D    246
     128     288                                                00010000D    247
     128       0    -255       6       0                               0D    248
     502     294                                                00010000D    249
     502                      20       1                               0D    250
     504     314                                                00010001D    251
     504                      16       1                               0D    252
     406     330                                                00000000D    253
     406                       1      15                               0D    254
     314     331                                                00000200D    255
     314                       2       0                               0D    256
186,3,1,0,0,1,253;                                                     1P      1
514,21,5,1,7,1,9,1,11,1,13,1,15,1,17,1,19,1,21,1,23,1,25,1,27,1,       3P      2
29,1,31,1,33,1,35,1,37,1,39,1,41,1,43,1,45,1;                          3P      3
510,207,1,1,47;                                                        5P      4
510,209,1,1,49;                                                        7P      5
510,211,1,1,51;                                                        9P      6
510,213,1,1,53;                                                       11P      7
510,215,1,1,55;                                                       13P      8
510,217,1,1,57;                                                       15P      9
510,219,1,1,59;                                                       17P     10
510,221,1,1,61;                                                       19P     11
510,223,1,1,63;                                                       21P     12
510,225,1,1,65;                                                       23P     13
510,227,1,1,67;                                                       25P     14
510,229,1,1,69;                                                       27P     15
510,231,1,1,71;                                                       29P     16
510,233,1,1,73;                                                       31P     17
510,235,1,1,75;                                                       33P     18
510,237,1,1,77;                                                       35P     19
510,239,1,1,79;                                                       37P     20
510,241,1,1,81;                                                       39P     21
510,243,1,1,83;                                                       41P     22
510,245,2,1,85,87;                                                    43P     23
510,247,2,1,89,91;                                                    45P     24
508,4,0,251,1,1,0,0,251,2,1,0,0,251,3,0,0,0,251,4,0,0;                47P     25
508,4,0,251,5,1,0,0,251,4,1,0,0,251,6,0,0,0,251,7,0,0;                49P     26
508,4,0,251,8,1,0,0,251,7,1,0,0,251,9,0,0,0,251,2,0,0;                51P     27
508,4,0,251,10,0,0,0,251,11,1,0,0,251,12,0,0,0,251,13,0,0;            53P     28
508,4,0,251,14,0,0,0,251,13,1,0,0,251,15,0,0,0,251,16,0,0;            55P     29
508,4,0,251,17,0,0,0,251,16,1,0,0,251,18,0,0,0,251,19,0,0;            57P     30
508,4,0,251,20,0,0,0,251,19,1,0,0,251,21,0,0,0,251,22,0,0;            59P     31
508,4,0,251,23,0,0,0,251,22,1,0,0,251,24,0,0,0,251,25,0,0;            61P     32
508,4,0,251,26,0,0,0,251,25,1,0,0,251,27,0,0,0,251,28,0,0;            63P     33
508,4,0,251,29,0,0,0,251,28,1,0,0,251,30,0,0,0,251,31,0,0;            65P     34
508,4,0,251,32,0,0,0,251,31,1,0,0,251,33,0,0,0,251,34,0,0;            67P     35
508,4,0,251,35,0,0,0,251,34,1,0,0,251,36,0,0,0,251,37,0,0;            69P     36
508,4,0,251,38,0,0,0,251,37,1,0,0,251,39,0,0,0,251,40,0,0;            71P     37
508,4,0,251,41,0,0,0,251,40,1,0,0,251,42,0,0,0,251,43,0,0;            73P     38
508,4,0,251,44,0,0,0,251,43,1,0,0,251,45,0,0,0,251,46,0,0;            75P     39
508,4,0,251,47,1,0,0,251,46,1,0,0,251,48,0,0,0,251,49,0,0;            77P     40
508,4,0,251,50,0,0,0,251,49,1,0,0,251,51,0,0,0,251,52,0,0;            79P     41
508,4,0,251,53,1,0,0,251,52,1,0,0,251,54,0,0,0,251,55,0,0;            81P     42
508,4,0,251,56,1,0,0,251,55,1,0,0,251,57,0,0,0,251,11,0,0;            83P     43
508,16,0,251,57,1,0,0,251,54,1,0,0,251,51,1,0,0,251,48,1,0,0,         85P     44
251,45,1,0,0,251,42,1,0,0,251,39,1,0,0,251,36,1,0,0,251,33,1,0,       85P     45
0,251,30,1,0,0,251,27,1,0,0,251,24,1,0,0,251,21,1,0,0,251,18,1,       85P     46
0,0,251,15,1,0,0,251,12,1,0;                                          85P     47
508,3,0,251,9,1,0,0,251,6,1,0,0,251,3,1,0;                            87P     48
508,16,0,251,56,0,0,0,251,10,1,0,0,251,14,1,0,0,251,17,1,0,0,         89P     49
251,20,1,0,0,251,23,1,0,0,251,26,1,0,0,251,29,1,0,0,251,32,1,0,       89P     50
0,251,35,1,0,0,251,38,1,0,0,251,41,1,0,0,251,44,1,0,0,251,47,0,       89P     51
0,0,251,50,1,0,0,251,53,0,0;                                          89P     52
508,3,0,251,8,0,0,0,251,1,0,0,0,251,5,0,0;                            91P     53
126,1,1,0,0,1,0,-3.7,-3.7,-2.48684050468101,-2.48684050468101,        93P     54
1.,1.,-7.00000000000001,0.,1.346145417358D-14,-19.1315949531899,      93P     55
0.,1.05452161238468D-14,-3.7,-2.48684050468101,0.,0.,0.;              93P     56
126,1,1,0,0,1,0,0.,0.,1.,1.,1.,1.,-19.1315949531899,0.,               95P     57
8.88178419700125D-15,-19.1315949531899,10.,8.88178419700125D-15,      95P     58
0.,1.,0.,0.,0.;                                                       95P     59
126,1,1,0,0,1,0,-3.7,-3.7,-2.48684050468101,-2.48684050468101,        97P     60
1.,1.,-7.00000000000001,10.,1.346145417358D-14,                       97P     61
-19.1315949531899,10.,1.05452161238468D-14,-3.7,                      97P     62
-2.48684050468101,0.,0.,0.;                                           97P     63
126,1,1,0,0,1,0,0.,0.,1.,1.,1.,1.,-7.00000000000001,0.,               99P     64
1.346145417358D-14,-7.00000000000001,10.,1.346145417358D-14,0.,       99P     65
1.,0.,0.,0.;                                                          99P     66
126,1,1,0,0,1,0,-3.40996182468041,-3.40996182468041,0.,0.,1.,1.,     101P     67
-6.99999999999999,0.,-34.0996182468041,-7.00000000000001,0.,         101P     68
1.346145417358D-14,-3.40996182468041,0.,0.,0.,0.;                    101P     69
126,1,1,0,0,1,0,-3.40996182468041,-3.40996182468041,0.,0.,1.,1.,     103P     70
-6.99999999999999,10.,-34.0996182468041,-7.00000000000001,10.,       103P     71
1.346145417358D-14,-3.40996182468041,0.,0.,0.,0.;                    103P     72
126,1,1,0,0,1,0,0.,0.,1.,1.,1.,1.,-6.99999999999999,0.,              105P     73
-34.0996182468041,-6.99999999999999,10.,-34.0996182468041,0.,1.,     105P     74
0.,0.,0.;                                                            105P     75
126,1,1,0,0,1,0,-3.61933634895409,-3.61933634895409,0.,0.,1.,1.,     107P     76
-19.1315949531899,0.,8.88178419700125D-15,-6.99999999999999,0.,      107P     77
-34.0996182468041,-3.61933634895409,0.,0.,0.,0.;                     107P     78
126,1,1,0,0,1,0,-3.61933634895409,-3.61933634895409,0.,0.,1.,1.,     109P     79
-19.1315949531899,10.,8.88178419700125D-15,-6.99999999999999,        109P     80
10.,-34.0996182468041,-3.61933634895409,0.,0.,0.,0.;                 109P     81
126,1,1,0,0,1,0,0.,0.,0.700000000000001,0.700000000000001,1.,1.,     111P     82
31.,0.,-35.5000000000001,31.,0.,-42.5000000000001,0.,                111P     83
0.700000000000001,0.,0.,0.;                                          111P     84
126,1,1,0,0,1,0,0.,0.,1.,1.,1.,1.,31.,0.,-35.5000000000001,31.,      113P     85
10.,-35.5000000000001,0.,1.,0.,0.,0.;                                113P     86
126,1,1,0,0,1,0,-0.700000000000001,-0.700000000000001,0.,0.,1.,      115P     87
1.,31.,10.,-42.5000000000001,31.,10.,-35.5000000000001,              115P     88
-0.700000000000001,0.,0.,0.,0.;                                      115P     89
126,1,1,0,0,1,0,0.,0.,1.,1.,1.,1.,31.,0.,-42.5000000000001,31.,      117P     90
10.,-42.5000000000001,0.,1.,0.,0.,0.;                                117P     91
126,1,1,0,0,1,0,0.,0.,0.7,0.7,1.,1.,31.,0.,-42.5000000000001,        119P     92
38.,0.,-42.5000000000001,0.,0.7,0.,0.,0.;                            119P     93
126,1,1,0,0,1,0,-0.7,-0.7,0.,0.,1.,1.,38.,10.,-42.5000000000001,     121P     94
31.,10.,-42.5000000000001,-0.7,0.,0.,0.,0.;                          121P     95
126,1,1,0,0,1,0,0.,0.,1.,1.,1.,1.,38.,0.,-42.5000000000001,38.,      123P     96
10.,-42.5000000000001,0.,1.,0.,0.,0.;                                123P     97
126,1,1,0,0,1,0,0.,0.,0.25,0.25,1.,1.,38.,0.,-42.5000000000001,      125P     98
38.,0.,-45.0000000000001,0.,0.25,0.,0.,0.;                           125P     99
126,1,1,0,0,1,0,-0.25,-0.25,0.,0.,1.,1.,38.,10.,                     127P    100
-45.0000000000001,38.,10.,-42.5000000000001,-0.25,0.,0.,0.,0.;       127P    101
126,1,1,0,0,1,0,0.,0.,1.,1.,1.,1.,38.,0.,-45.0000000000001,38.,      129P    102
10.,-45.0000000000001,0.,1.,0.,0.,0.;                                129P    103
126,1,1,0,0,1,0,0.,0.,3.8,3.8,1.,1.,38.,0.,-45.0000000000001,        131P    104
-4.44089209850063D-15,0.,-45.,0.,3.8,0.,0.,0.;                       131P    105
126,1,1,0,0,1,0,-3.8,-3.8,0.,0.,1.,1.,-4.44089209850063D-15,10.,     133P    106
-45.,38.,10.,-45.0000000000001,-3.8,0.,0.,0.,0.;                     133P    107
126,1,1,0,0,1,0,0.,0.,1.,1.,1.,1.,-2.63677968348475D-15,0.,-45.,     135P    108
-2.63677968348475D-15,10.,-45.,0.,1.,0.,0.,0.;                       135P    109
126,1,1,0,0,1,0,0.,0.,4.5,4.5,1.,1.,-2.63677968348475D-15,0.,        137P    110
-45.,0.,0.,0.,0.,4.5,0.,0.,0.;                                       137P    111
126,1,1,0,0,1,0,-4.5,-4.5,0.,0.,1.,1.,0.,10.,0.,                     139P    112
-2.63677968348475D-15,10.,-45.,-4.5,0.,0.,0.,0.;                     139P    113
126,1,1,0,0,1,0,0.,0.,1.,1.,1.,1.,0.,0.,0.,0.,10.,0.,0.,1.,0.,       141P    114
0.,0.;                                                               141P    115
126,1,1,0,0,1,0,0.,0.,1.5,1.5,1.,1.,0.,0.,0.,15.,0.,                 143P    116
1.4637067577343D-31,0.,1.5,0.,0.,0.;                                 143P    117
126,1,1,0,0,1,0,-1.5,-1.5,0.,0.,1.,1.,15.,10.,                       145P    118
1.4637067577343D-31,0.,10.,0.,-1.5,0.,0.,0.,0.;                      145P    119
126,1,1,0,0,1,0,0.,0.,1.,1.,1.,1.,15.,0.,1.4637067577343D-31,        147P    120
15.,10.,1.4637067577343D-31,0.,1.,0.,0.,0.;                          147P    121
126,1,1,0,0,1,0,0.,0.,0.7,0.7,1.,1.,15.,0.,1.4637067577343D-31,      149P    122
15.,0.,7.,0.,0.7,0.,0.,0.;                                           149P    123
126,1,1,0,0,1,0,-0.7,-0.7,0.,0.,1.,1.,15.,10.,7.,15.,10.,            151P    124
1.4637067577343D-31,-0.7,0.,0.,0.,0.;                                151P    125
126,1,1,0,0,1,0,0.,0.,1.,1.,1.,1.,15.,0.,7.,15.,10.,7.,0.,1.,0.,     153P    126
0.,0.;                                                               153P    127
126,1,1,0,0,1,0,0.,0.,5.2,5.2,1.,1.,15.,0.,7.,-37.,0.,               155P    128
7.00000000000003,0.,5.2,0.,0.,0.;                                    155P    129
126,1,1,0,0,1,0,-5.2,-5.2,0.,0.,1.,1.,-37.,10.,7.00000000000003,     157P    130
15.,10.,7.,-5.2,0.,0.,0.,0.;                                         157P    131
126,1,1,0,0,1,0,0.,0.,1.,1.,1.,1.,-37.,0.,7.00000000000003,-37.,     159P    132
10.,7.00000000000003,0.,1.,0.,0.,0.;                                 159P    133
126,1,1,0,0,1,0,0.,0.,1.44549517466442,1.44549517466442,1.,1.,       161P    134
-37.,0.,7.00000000000003,-37.,0.,21.4549517466442,0.,                161P    135
1.44549517466442,0.,0.,0.;                                           161P    136
126,1,1,0,0,1,0,-1.44549517466442,-1.44549517466442,0.,0.,1.,1.,     163P    137
-37.,10.,21.4549517466442,-37.,10.,7.00000000000003,                 163P    138
-1.44549517466442,0.,0.,0.,0.;                                       163P    139
126,1,1,0,0,1,0,0.,0.,1.,1.,1.,1.,-37.,0.,21.4549517466442,-37.,     165P    140
10.,21.4549517466442,0.,1.,0.,0.,0.;                                 165P    141
126,1,1,0,0,1,0,0.,0.,0.700000000000001,0.700000000000001,1.,1.,     167P    142
-37.,0.,21.4549517466442,-44.,0.,21.4549517466442,0.,                167P    143
0.700000000000001,0.,0.,0.;                                          167P    144
126,1,1,0,0,1,0,-0.700000000000001,-0.700000000000001,0.,0.,1.,      169P    145
1.,-44.,10.,21.4549517466442,-37.,10.,21.4549517466442,              169P    146
-0.700000000000001,0.,0.,0.,0.;                                      169P    147
126,1,1,0,0,1,0,0.,0.,1.,1.,1.,1.,-44.,0.,21.4549517466442,-44.,     171P    148
10.,21.4549517466442,0.,1.,0.,0.,0.;                                 171P    149
126,1,1,0,0,1,0,0.,0.,2.14549517466442,2.14549517466442,1.,1.,       173P    150
-44.,0.,21.4549517466442,-44.,0.,4.44089209850063D-15,0.,            173P    151
2.14549517466442,0.,0.,0.;                                           173P    152
126,1,1,0,0,1,0,-2.14549517466442,-2.14549517466442,0.,0.,1.,1.,     175P    153
-44.,10.,4.44089209850063D-15,-44.,10.,21.4549517466442,             175P    154
-2.14549517466442,0.,0.,0.,0.;                                       175P    155
126,1,1,0,0,1,0,0.,0.,1.,1.,1.,1.,-44.,0.,4.56725615126987D-15,      177P    156
-44.,10.,4.56725615126987D-15,0.,1.,0.,0.,0.;                        177P    157
126,1,1,0,0,1,0,0.,0.,1.85,1.85,1.,1.,-44.,0.,                       179P    158
4.56725615126987D-15,-25.5,0.,9.01435516242495D-15,0.,1.85,0.,       179P    159
0.,0.;                                                               179P    160
126,1,1,0,0,1,0,-1.85,-1.85,0.,0.,1.,1.,-25.5,10.,                   181P    161
9.01435516242495D-15,-44.,10.,4.56725615126987D-15,-1.85,0.,0.,      181P    162
0.,0.;                                                               181P    163
126,1,1,0,0,1,0,0.,0.,1.,1.,1.,1.,-25.5,0.,8.88178419700125D-15,     183P    164
-25.5,10.,8.88178419700125D-15,0.,1.,0.,0.,0.;                       183P    165
126,1,1,0,0,1,0,0.,0.,5.51928437390212,5.51928437390212,1.,1.,       185P    166
-6.99999999999998,0.,-52.0000000000001,-25.5,0.,                     185P    167
8.88178419700125D-15,0.,5.51928437390212,0.,0.,0.;                   185P    168
126,1,1,0,0,1,0,0.,0.,5.51928437390212,5.51928437390212,1.,1.,       187P    169
-6.99999999999998,10.,-52.0000000000001,-25.5,10.,                   187P    170
8.88178419700125D-15,0.,5.51928437390212,0.,0.,0.;                   187P    171
126,1,1,0,0,1,0,0.,0.,1.,1.,1.,1.,-6.99999999999998,0.,              189P    172
-52.0000000000001,-6.99999999999998,10.,-52.0000000000001,0.,1.,     189P    173
0.,0.,0.;                                                            189P    174
126,1,1,0,0,1,0,0.,0.,5.2,5.2,1.,1.,-6.99999999999998,0.,            191P    175
-52.0000000000001,45.,0.,-52.0000000000001,0.,5.2,0.,0.,0.;          191P    176
126,1,1,0,0,1,0,-5.2,-5.2,0.,0.,1.,1.,45.,10.,-52.0000000000001,     193P    177
-6.99999999999998,10.,-52.0000000000001,-5.2,0.,0.,0.,0.;            193P    178
126,1,1,0,0,1,0,0.,0.,1.,1.,1.,1.,45.,0.,-52.0000000000001,45.,      195P    179
10.,-52.0000000000001,0.,1.,0.,0.,0.;                                195P    180
126,1,1,0,0,1,0,0.,0.,1.65,1.65,1.,1.,45.,0.,-35.5000000000001,      197P    181
45.,0.,-52.0000000000001,0.,1.65,0.,0.,0.;                           197P    182
126,1,1,0,0,1,0,0.,0.,1.65,1.65,1.,1.,45.,10.,-35.5000000000001,     199P    183
45.,10.,-52.0000000000001,0.,1.65,0.,0.,0.;                          199P    184
126,1,1,0,0,1,0,0.,0.,1.,1.,1.,1.,45.,0.,-35.5000000000001,45.,      201P    185
10.,-35.5000000000001,0.,1.,0.,0.,0.;                                201P    186
126,1,1,0,0,1,0,0.,0.,1.4,1.4,1.,1.,31.,0.,-35.5000000000001,        203P    187
45.,0.,-35.5000000000001,0.,1.4,0.,0.,0.;                            203P    188
126,1,1,0,0,1,0,0.,0.,1.4,1.4,1.,1.,31.,10.,-35.5000000000001,       205P    189
45.,10.,-35.5000000000001,0.,1.4,0.,0.,0.;                           205P    190
128,1,1,1,1,0,0,1,0,0,-0.001,-0.001,1.21415949531899,                207P    191
1.21415949531899,-0.001,-0.001,1.001,1.001,1.,1.,1.,1.,              207P    192
-6.99000000000001,-0.01,1.34638580108833D-14,-19.1415949531899,      207P    193
-0.01,1.05428122865435D-14,-6.99000000000001,10.01,                  207P    194
1.34638580108833D-14,-19.1415949531899,10.01,                        207P    195
1.05428122865435D-14,-0.001,1.21415949531899,-0.001,1.001;           207P    196
128,1,1,1,1,0,0,1,0,0,-0.001,-0.001,3.41096182468041,                209P    197
3.41096182468041,-0.001,-0.001,1.001,1.001,1.,1.,1.,1.,              209P    198
-6.99999999999999,-0.01,-34.1096182468041,-7.00000000000001,         209P    199
-0.01,0.0100000000000122,-6.99999999999999,10.01,                    209P    200
-34.1096182468041,-7.00000000000001,10.01,0.0100000000000122,        209P    201
-0.001,3.41096182468041,-0.001,1.001;                                209P    202
128,1,1,1,1,0,0,1,0,0,-0.001,-0.001,3.62033634895409,                211P    203
3.62033634895409,-0.001,-0.001,1.001,1.001,1.,1.,1.,1.,              211P    204
-19.1349468370115,-0.01,0.00942151128250079,-6.99664811617833,       211P    205
-0.01,-34.1090397580865,-19.1349468370115,10.01,                     211P    206
0.00942151128250079,-6.99664811617833,10.01,-34.1090397580865,       211P    207
-0.001,3.62033634895409,-0.001,1.001;                                211P    208
128,1,1,1,1,0,0,1,0,0,-0.001,-0.001,0.701000000000001,               213P    209
0.701000000000001,-0.001,-0.001,1.001,1.001,1.,1.,1.,1.,31.,         213P    210
-0.01,-42.5100000000001,31.,-0.01,-35.4900000000001,31.,10.01,       213P    211
-42.5100000000001,31.,10.01,-35.4900000000001,-0.001,                213P    212
0.701000000000001,-0.001,1.001;                                      213P    213
128,1,1,1,1,0,0,1,0,0,-0.001,-0.001,0.701,0.701,-0.001,-0.001,       215P    214
1.001,1.001,1.,1.,1.,1.,38.01,-0.01,-42.5000000000001,30.99,         215P    215
-0.01,-42.5000000000001,38.01,10.01,-42.5000000000001,30.99,         215P    216
10.01,-42.5000000000001,-0.001,0.701,-0.001,1.001;                   215P    217
128,1,1,1,1,0,0,1,0,0,-0.001,-0.001,0.251,0.251,-0.001,-0.001,       217P    218
1.001,1.001,1.,1.,1.,1.,38.,-0.01,-45.0100000000001,38.,-0.01,       217P    219
-42.4900000000001,38.,10.01,-45.0100000000001,38.,10.01,             217P    220
-42.4900000000001,-0.001,0.251,-0.001,1.001;                         217P    221
128,1,1,1,1,0,0,1,0,0,-0.001,-0.001,3.801,3.801,-0.001,-0.001,       219P    222
1.001,1.001,1.,1.,1.,1.,-0.0100000000000044,-0.01,-45.,38.01,        219P    223
-0.01,-45.0000000000001,-0.0100000000000044,10.01,-45.,38.01,        219P    224
10.01,-45.0000000000001,-0.001,3.801,-0.001,1.001;                   219P    225
128,1,1,1,1,0,0,1,0,0,-0.001,-0.001,4.501,4.501,-0.001,-0.001,       221P    226
1.001,1.001,1.,1.,1.,1.,5.85951040774388D-19,-0.01,0.01,             221P    227
-2.63736563452552D-15,-0.01,-45.01,5.85951040774388D-19,10.01,       221P    228
0.01,-2.63736563452552D-15,10.01,-45.01,-0.001,4.501,-0.001,         221P    229
1.001;                                                               221P    230
128,1,1,1,1,0,0,1,0,0,-0.001,-0.001,1.501,1.501,-0.001,-0.001,       223P    231
1.001,1.001,1.,1.,1.,1.,15.01,-0.01,1.46468256223946D-31,            223P    232
-0.0099999999999989,-0.01,-9.75804505156024D-35,15.01,10.01,         223P    233
1.46468256223946D-31,-0.0099999999999989,10.01,                      223P    234
-9.75804505156024D-35,-0.001,1.501,-0.001,1.001;                     223P    235
128,1,1,1,1,0,0,1,0,0,-0.001,-0.001,0.701,0.701,-0.001,-0.001,       225P    236
1.001,1.001,1.,1.,1.,1.,15.,-0.01,7.01,15.,-0.01,-0.01,15.,          225P    237
10.01,7.01,15.,10.01,-0.01,-0.001,0.701,-0.001,1.001;                225P    238
128,1,1,1,1,0,0,1,0,0,-0.001,-0.001,5.201,5.201,-0.001,-0.001,       227P    239
1.001,1.001,1.,1.,1.,1.,-37.01,-0.01,7.00000000000003,15.01,         227P    240
-0.01,7.,-37.01,10.01,7.00000000000003,15.01,10.01,7.,-0.001,        227P    241
5.201,-0.001,1.001;                                                  227P    242
128,1,1,1,1,0,0,1,0,0,-0.001,-0.001,1.44649517466442,                229P    243
1.44649517466442,-0.001,-0.001,1.001,1.001,1.,1.,1.,1.,-37.,         229P    244
-0.01,21.4649517466442,-37.,-0.01,6.99000000000003,-37.,10.01,       229P    245
21.4649517466442,-37.,10.01,6.99000000000003,-0.001,                 229P    246
1.44649517466442,-0.001,1.001;                                       229P    247
128,1,1,1,1,0,0,1,0,0,-0.001,-0.001,0.701000000000001,               231P    248
0.701000000000001,-0.001,-0.001,1.001,1.001,1.,1.,1.,1.,-44.01,      231P    249
-0.01,21.4549517466442,-36.99,-0.01,21.4549517466442,-44.01,         231P    250
10.01,21.4549517466442,-36.99,10.01,21.4549517466442,-0.001,         231P    251
0.701000000000001,-0.001,1.001;                                      231P    252
128,1,1,1,1,0,0,1,0,0,-0.001,-0.001,2.14649517466442,                233P    253
2.14649517466442,-0.001,-0.001,1.001,1.001,1.,1.,1.,1.,-44.,         233P    254
-0.01,-0.00999999999999556,-44.,-0.01,21.4649517466442,-44.,         233P    255
10.01,-0.00999999999999556,-44.,10.01,21.4649517466442,-0.001,       233P    256
2.14649517466442,-0.001,1.001;                                       233P    257
128,1,1,1,1,0,0,1,0,0,-0.001,-0.001,1.851,1.851,-0.001,-0.001,       235P    258
1.001,1.001,1.,1.,1.,1.,-25.49,-0.01,9.01675899972827D-15,           235P    259
-44.01,-0.01,4.56485231396654D-15,-25.49,10.01,                      235P    260
9.01675899972827D-15,-44.01,10.01,4.56485231396654D-15,-0.001,       235P    261
1.851,-0.001,1.001;                                                  235P    262
128,1,1,1,1,0,0,1,0,0,-0.001,-0.001,5.52028437390212,                237P    263
5.52028437390212,-0.001,-0.001,1.001,1.001,1.,1.,1.,1.,              237P    264
-6.99664811617832,-0.01,-52.0094215112826,-25.5033518838217,         237P    265
-0.01,0.00942151128251467,-6.99664811617832,10.01,                   237P    266
-52.0094215112826,-25.5033518838217,10.01,0.00942151128251467,       237P    267
-0.001,5.52028437390212,-0.001,1.001;                                237P    268
128,1,1,1,1,0,0,1,0,0,-0.001,-0.001,5.201,5.201,-0.001,-0.001,       239P    269
1.001,1.001,1.,1.,1.,1.,45.01,-0.01,-52.0000000000001,               239P    270
-7.00999999999998,-0.01,-52.0000000000001,45.01,10.01,               239P    271
-52.0000000000001,-7.00999999999998,10.01,-52.0000000000001,         239P    272
-0.001,5.201,-0.001,1.001;                                           239P    273
128,1,1,1,1,0,0,1,0,0,-0.001,-0.001,1.651,1.651,-0.001,-0.001,       241P    274
1.001,1.001,1.,1.,1.,1.,45.,-0.01,-35.4900000000001,45.,-0.01,       241P    275
-52.0100000000001,45.,10.01,-35.4900000000001,45.,10.01,             241P    276
-52.0100000000001,-0.001,1.651,-0.001,1.001;                         241P    277
128,1,1,1,1,0,0,1,0,0,-0.001,-0.001,1.401,1.401,-0.001,-0.001,       243P    278
1.001,1.001,1.,1.,1.,1.,30.99,-0.01,-35.5000000000001,45.01,         243P    279
-0.01,-35.5000000000001,30.99,10.01,-35.5000000000001,45.01,         243P    280
10.01,-35.5000000000001,-0.001,1.401,-0.001,1.001;                   243P    281
128,1,1,1,1,0,0,1,0,0,-3.67374758733221,-3.67374758733221,           245P    282
3.67374758733221,3.67374758733221,-4.451,-4.451,4.451,4.451,1.,      245P    283
1.,1.,1.,-44.01,10.,-52.0100000000001,-44.01,10.,                    245P    284
21.4649517466442,45.01,10.,-52.0100000000001,45.01,10.,              245P    285
21.4649517466442,-3.67374758733221,3.67374758733221,-4.451,          245P    286
4.451;                                                               245P    287
128,1,1,1,1,0,0,1,0,0,-4.451,-4.451,4.451,4.451,                     247P    288
-3.67374758733221,-3.67374758733221,3.67374758733221,                247P    289
3.67374758733221,1.,1.,1.,1.,45.01,0.,21.4649517466442,-44.01,       247P    290
0.,21.4649517466442,45.01,0.,-52.0100000000001,-44.01,0.,            247P    291
-52.0100000000001,-4.451,4.451,-3.67374758733221,                    247P    292
3.67374758733221;                                                    247P    293
502,38,-7.00000000000001,0.,1.346145417358D-14,                      249P    294
-19.1315949531899,0.,8.88178419700125D-15,-19.1315949531899,10.,     249P    295
8.88178419700125D-15,-7.00000000000001,10.,1.346145417358D-14,       249P    296
-6.99999999999999,0.,-34.0996182468041,-6.99999999999999,10.,        249P    297
-34.0996182468041,31.,0.,-35.5000000000001,31.,0.,                   249P    298
-42.5000000000001,31.,10.,-35.5000000000001,31.,10.,                 249P    299
-42.5000000000001,38.,0.,-42.5000000000001,38.,10.,                  249P    300
-42.5000000000001,38.,0.,-45.0000000000001,38.,10.,                  249P    301
-45.0000000000001,-2.63677968348475D-15,0.,-45.,                     249P    302
-2.22044604925031D-15,10.,-45.,0.,0.,0.,0.,10.,0.,15.,0.,            249P    303
1.4637067577343D-31,15.,10.,0.,15.,0.,7.,15.,10.,7.,-37.,0.,         249P    304
7.00000000000003,-37.,10.,7.00000000000003,-37.,0.,                  249P    305
21.4549517466442,-37.,10.,21.4549517466442,-44.,0.,                  249P    306
21.4549517466442,-44.,10.,21.4549517466442,-44.,0.,                  249P    307
4.56725615126987D-15,-44.,10.,4.56725615126987D-15,-25.5,0.,         249P    308
8.88178419700125D-15,-25.5,10.,8.88178419700125D-15,                 249P    309
-6.99999999999998,0.,-52.0000000000001,-6.99999999999998,10.,        249P    310
-52.0000000000001,45.,0.,-52.0000000000001,45.,10.,                  249P    311
-52.0000000000001,45.,0.,-35.5000000000001,45.,10.,                  249P    312
-35.5000000000001;                                                   249P    313
504,57,93,249,1,249,2,95,249,2,249,3,97,249,4,249,3,99,249,1,        251P    314
249,4,101,249,5,249,1,103,249,6,249,4,105,249,5,249,6,107,249,2,     251P    315
249,5,109,249,3,249,6,111,249,7,249,8,113,249,7,249,9,115,249,       251P    316
10,249,9,117,249,8,249,10,119,249,8,249,11,121,249,12,249,10,        251P    317
123,249,11,249,12,125,249,11,249,13,127,249,14,249,12,129,249,       251P    318
13,249,14,131,249,13,249,15,133,249,16,249,14,135,249,15,249,16,     251P    319
137,249,15,249,17,139,249,18,249,16,141,249,17,249,18,143,249,       251P    320
17,249,19,145,249,20,249,18,147,249,19,249,20,149,249,19,249,21,     251P    321
151,249,22,249,20,153,249,21,249,22,155,249,21,249,23,157,249,       251P    322
24,249,22,159,249,23,249,24,161,249,23,249,25,163,249,26,249,24,     251P    323
165,249,25,249,26,167,249,25,249,27,169,249,28,249,26,171,249,       251P    324
27,249,28,173,249,27,249,29,175,249,30,249,28,177,249,29,249,30,     251P    325
179,249,29,249,31,181,249,32,249,30,183,249,31,249,32,185,249,       251P    326
33,249,31,187,249,34,249,32,189,249,33,249,34,191,249,33,249,35,     251P    327
193,249,36,249,34,195,249,35,249,36,197,249,37,249,35,199,249,       251P    328
38,249,36,201,249,37,249,38,203,249,7,249,37,205,249,9,249,38;       251P    329
406,1,5HBody1;                                                       253P    330
314,62.7450980392157,62.7450980392157,62.7450980392157,13HSteel      255P    331
- Satin;                                                             255P    332
S      1G      3D    256P    332                                        T      1
