                                                                        S      1
,,18Hbike light part v1,18Hbike light part v1,7Hunknown,7Hunknown,32,38,G      1
7,99,15,,1.,2,2HMM,1,0.08,15H20250912.001543,0.01,10000.,7Hunknown,7HunkG      2
nown,11,0,15H20240601.210328;                                           G      3
     186       1                                                00000000D      1
     186            -231       1       0                               0D      2
     514       2                                                00010000D      3
     514                       2       1                               0D      4
     510       4                                                00010000D      5
     510            -231       1       1                               0D      6
     510       5                                                00010000D      7
     510            -231       1       1                               0D      8
     510       6                                                00010000D      9
     510            -231       1       1                               0D     10
     510       7                                                00010000D     11
     510            -231       1       1                               0D     12
     510       8                                                00010000D     13
     510            -231       1       1                               0D     14
     510       9                                                00010000D     15
     510            -231       1       1                               0D     16
     510      10                                                00010000D     17
     510            -231       1       1                               0D     18
     510      11                                                00010000D     19
     510            -231       1       1                               0D     20
     510      12                                                00010000D     21
     510            -231       1       1                               0D     22
     510      13                                                00010000D     23
     510            -231       1       1                               0D     24
     510      14                                                00010000D     25
     510            -231       1       1                               0D     26
     510      15                                                00010000D     27
     510            -231       1       1                               0D     28
     510      16                                                00010000D     29
     510            -231       1       1                               0D     30
     510      17                                                00010000D     31
     510            -231       1       1                               0D     32
     510      18                                                00010000D     33
     510            -231       1       1                               0D     34
     510      19                                                00010000D     35
     510            -231       1       1                               0D     36
     510      20                                                00010000D     37
     510            -231       1       1                               0D     38
     510      21                                                00010000D     39
     510            -231       1       1                               0D     40
     510      22                                                00010000D     41
     510            -231       1       1                               0D     42
     508      23                                                00010000D     43
     508                       1       1                               0D     44
     508      24                                                00010000D     45
     508                       1       1                               0D     46
     508      25                                                00010000D     47
     508                       3       1                               0D     48
     508      28                                                00010000D     49
     508                       1       1                               0D     50
     508      29                                                00010000D     51
     508                       1       1                               0D     52
     508      30                                                00010000D     53
     508                       1       1                               0D     54
     508      31                                                00010000D     55
     508                       1       1                               0D     56
     508      32                                                00010000D     57
     508                       1       1                               0D     58
     508      33                                                00010000D     59
     508                       1       1                               0D     60
     508      34                                                00010000D     61
     508                       1       1                               0D     62
     508      35                                                00010000D     63
     508                       1       1                               0D     64
     508      36                                                00010000D     65
     508                       1       1                               0D     66
     508      37                                                00010000D     67
     508                       1       1                               0D     68
     508      38                                                00010000D     69
     508                       1       1                               0D     70
     508      39                                                00010000D     71
     508                       1       1                               0D     72
     508      40                                                00010000D     73
     508                       1       1                               0D     74
     508      41                                                00010000D     75
     508                       1       1                               0D     76
     508      42                                                00010000D     77
     508                       1       1                               0D     78
     508      43                                                00010000D     79
     508                       1       1                               0D     80
     508      44                                                00010000D     81
     508                       1       1                               0D     82
     508      45                                                00010000D     83
     508                       1       1                               0D     84
     508      46                                                00010000D     85
     508                       3       1                               0D     86
     508      49                                                00010000D     87
     508                       1       1                               0D     88
     126      50                                                00010000D     89
     126       0               5       0                               0D     90
     126      55                                                00010000D     91
     126       0               3       0                               0D     92
     126      58                                                00010000D     93
     126       0               5       0                               0D     94
     126      63                                                00010000D     95
     126       0               3       0                               0D     96
     126      66                                                00010000D     97
     126       0               4       0                               0D     98
     126      70                                                00010000D     99
     126       0               3       0                               0D    100
     126      73                                                00010000D    101
     126       0               4       0                               0D    102
     126      77                                                00010000D    103
     126       0               3       0                               0D    104
     126      80                                                00010000D    105
     126       0               4       0                               0D    106
     126      84                                                00010000D    107
     126       0               5       0                               0D    108
     126      89                                                00010000D    109
     126       0               4       0                               0D    110
     126      93                                                00010000D    111
     126       0               5       0                               0D    112
     126      98                                                00010000D    113
     126       0               4       0                               0D    114
     126     102                                                00010000D    115
     126       0               6       0                               0D    116
     126     108                                                00010000D    117
     126       0               3       0                               0D    118
     126     111                                                00010000D    119
     126       0               6       0                               0D    120
     126     117                                                00010000D    121
     126       0               3       0                               0D    122
     126     120                                                00010000D    123
     126       0               6       0                               0D    124
     126     126                                                00010000D    125
     126       0               8       0                               0D    126
     126     134                                                00010000D    127
     126       0               3       0                               0D    128
     126     137                                                00010000D    129
     126       0               5       0                               0D    130
     126     142                                                00010000D    131
     126       0               2       0                               0D    132
     126     144                                                00010000D    133
     126       0               4       0                               0D    134
     126     148                                                00010000D    135
     126       0               2       0                               0D    136
     126     150                                                00010000D    137
     126       0               5       0                               0D    138
     126     155                                                00010000D    139
     126       0               3       0                               0D    140
     126     158                                                00010000D    141
     126       0               6       0                               0D    142
     126     164                                                00010000D    143
     126       0               2       0                               0D    144
     126     166                                                00010000D    145
     126       0               2       0                               0D    146
     126     168                                                00010000D    147
     126       0               3       0                               0D    148
     126     171                                                00010000D    149
     126       0               6       0                               0D    150
     126     177                                                00010000D    151
     126       0               2       0                               0D    152
     126     179                                                00010000D    153
     126       0               2       0                               0D    154
     126     181                                                00010000D    155
     126       0               3       0                               0D    156
     126     184                                                00010000D    157
     126       0               6       0                               0D    158
     126     190                                                00010000D    159
     126       0               3       0                               0D    160
     126     193                                                00010000D    161
     126       0               4       0                               0D    162
     126     197                                                00010000D    163
     126       0              10       0                               0D    164
     126     207                                                00010000D    165
     126       0               2       0                               0D    166
     126     209                                                00010000D    167
     126       0               8       0                               0D    168
     126     217                                                00010000D    169
     126       0               2       0                               0D    170
     126     219                                                00010000D    171
     126       0               4       0                               0D    172
     126     223                                                00010000D    173
     126       0              10       0                               0D    174
     126     233                                                00010000D    175
     126       0               3       0                               0D    176
     126     236                                                00010000D    177
     126       0              10       0                               0D    178
     126     246                                                00010000D    179
     126       0               4       0                               0D    180
     126     250                                                00010000D    181
     126       0              10       0                               0D    182
     126     260                                                00010000D    183
     126       0               4       0                               0D    184
     126     264                                                00010000D    185
     126       0               3       0                               0D    186
     128     267                                                00010000D    187
     128       0    -231       8       0                               0D    188
     128     275                                                00010000D    189
     128       0    -231       6       0                               0D    190
     128     281                                                00010000D    191
     128       0    -231       6       0                               0D    192
     128     287                                                00010000D    193
     128       0    -231       7       0                               0D    194
     128     294                                                00010000D    195
     128       0    -231       5       0                               0D    196
     128     299                                                00010000D    197
     128       0    -231       7       0                               0D    198
     128     306                                                00010000D    199
     128       0    -231       7       0                               0D    200
     128     313                                                00010000D    201
     128       0    -231       6       0                               0D    202
     128     319                                                00010000D    203
     128       0    -231       7       0                               0D    204
     128     326                                                00010000D    205
     128       0    -231       6       0                               0D    206
     128     332                                                00010000D    207
     128       0    -231       8       0                               0D    208
     128     340                                                00010000D    209
     128       0    -231       6       0                               0D    210
     128     346                                                00010000D    211
     128       0    -231      12       0                               0D    212
     128     358                                                00010000D    213
     128       0    -231       6       0                               0D    214
     128     364                                                00010000D    215
     128       0    -231      17       0                               0D    216
     128     381                                                00010000D    217
     128       0    -231      18       0                               0D    218
     128     399                                                00010000D    219
     128       0    -231      18       0                               0D    220
     128     417                                                00010000D    221
     128       0    -231       5       0                               0D    222
     128     422                                                00010000D    223
     128       0    -231       6       0                               0D    224
     502     428                                                00010000D    225
     502                      18       1                               0D    226
     504     446                                                00010001D    227
     504                      14       1                               0D    228
     406     460                                                00000000D    229
     406                       1      15                               0D    230
     314     461                                                00000200D    231
     314                       2       0                               0D    232
186,3,1,0,0,1,229;                                                     1P      1
514,19,5,1,7,1,9,1,11,1,13,1,15,1,17,1,19,1,21,1,23,1,25,1,27,1,       3P      2
29,1,31,1,33,1,35,1,37,1,39,1,41,1;                                    3P      3
510,187,1,1,43;                                                        5P      4
510,189,1,1,45;                                                        7P      5
510,191,2,1,47,49;                                                     9P      6
510,193,1,1,51;                                                       11P      7
510,195,1,1,53;                                                       13P      8
510,197,1,1,55;                                                       15P      9
510,199,1,1,57;                                                       17P     10
510,201,1,1,59;                                                       19P     11
510,203,1,1,61;                                                       21P     12
510,205,1,1,63;                                                       23P     13
510,207,1,1,65;                                                       25P     14
510,209,2,1,67,69;                                                    27P     15
510,211,1,1,71;                                                       29P     16
510,213,2,1,73,75;                                                    31P     17
510,215,1,1,77;                                                       33P     18
510,217,1,1,79;                                                       35P     19
510,219,1,1,81;                                                       37P     20
510,221,1,1,83;                                                       39P     21
510,223,2,1,85,87;                                                    41P     22
508,4,0,227,1,1,0,0,227,2,1,0,0,227,3,1,0,0,227,4,1,0;                43P     23
508,4,0,227,4,0,0,0,227,5,1,0,0,227,6,0,0,0,227,7,0,0;                45P     24
508,13,0,227,3,0,0,0,227,8,0,0,0,227,9,0,0,0,227,10,0,0,0,227,        47P     25
11,0,0,0,227,12,0,0,0,227,13,0,0,0,227,14,0,0,0,227,15,0,0,0,         47P     26
227,16,0,0,0,227,17,0,0,0,227,18,0,0,0,227,5,0,0;                     47P     27
508,1,0,227,19,1,0;                                                   49P     28
508,4,0,227,10,1,0,0,227,20,1,0,0,227,21,1,0,0,227,22,1,0;            51P     29
508,4,0,227,22,0,0,0,227,23,0,0,0,227,24,0,0,0,227,11,1,0;            53P     30
508,4,0,227,25,1,0,0,227,26,1,0,0,227,12,1,0,0,227,24,1,0;            55P     31
508,4,0,227,27,1,0,0,227,6,1,0,0,227,18,1,0,0,227,28,1,0;             57P     32
508,4,0,227,28,0,0,0,227,17,1,0,0,227,29,0,0,0,227,30,0,0;            59P     33
508,4,0,227,31,1,0,0,227,29,1,0,0,227,16,1,0,0,227,32,1,0;            61P     34
508,4,0,227,32,0,0,0,227,15,1,0,0,227,33,0,0,0,227,34,0,0;            63P     35
508,4,0,227,35,1,0,0,227,33,1,0,0,227,14,1,0,0,227,36,1,0;            65P     36
508,4,0,227,26,0,0,0,227,37,0,0,0,227,36,0,0,0,227,13,1,0;            67P     37
508,1,0,227,38,1,0;                                                   69P     38
508,4,0,227,19,0,0,0,227,39,1,0,0,227,40,0,0,0,227,39,0,0;            71P     39
508,4,0,227,20,0,0,0,227,9,1,0,0,227,41,1,0,0,227,42,1,0;             73P     40
508,1,0,227,43,1,0;                                                   75P     41
508,4,0,227,43,0,0,0,227,44,1,0,0,227,45,0,0,0,227,44,0,0;            77P     42
508,4,0,227,45,1,0,0,227,46,1,0,0,227,47,0,0,0,227,46,0,0;            79P     43
508,4,0,227,47,1,0,0,227,48,1,0,0,227,38,0,0,0,227,48,0,0;            81P     44
508,4,0,227,2,0,0,0,227,49,0,0,0,227,41,0,0,0,227,8,1,0;              83P     45
508,13,0,227,1,0,0,0,227,7,1,0,0,227,27,0,0,0,227,30,1,0,0,227,       85P     46
31,0,0,0,227,34,1,0,0,227,35,0,0,0,227,37,1,0,0,227,25,0,0,0,         85P     47
227,23,1,0,0,227,21,0,0,0,227,42,0,0,0,227,49,1,0;                    85P     48
508,1,0,227,40,1,0;                                                   87P     49
126,2,2,0,0,0,0,-0.349065850398867,-0.349065850398867,                89P     50
-0.349065850398867,0.349065850398865,0.349065850398865,               89P     51
0.349065850398865,1.,0.939692620785884,1.,-24.163547873739,12.,       89P     52
35.2756241087889,-25.,12.,35.977490779432,-26.0919107027986,12.,      89P     53
35.977490779432,-0.349065850398867,0.349065850398865,0.,0.,0.;        89P     54
126,1,1,0,0,1,0,-1.2,-1.2,0.,0.,1.,1.,-26.0919107027986,12.,          91P     55
35.977490779432,-26.0919107027986,0.,35.977490779432,-1.2,0.,0.,      91P     56
0.,0.;                                                                91P     57
126,2,2,0,0,0,0,-0.349065850398865,-0.349065850398865,                93P     58
-0.349065850398865,0.349065850398867,0.349065850398867,               93P     59
0.349065850398867,1.,0.939692620785884,1.,-26.0919107027986,0.,       93P     60
35.977490779432,-25.,0.,35.977490779432,-24.163547873739,0.,          93P     61
35.2756241087889,-0.349065850398865,0.349065850398867,0.,0.,0.;       93P     62
126,1,1,0,0,1,0,0.,0.,1.2,1.2,1.,1.,-24.163547873739,0.,              95P     63
35.2756241087889,-24.163547873739,12.,35.2756241087889,0.,1.2,        95P     64
0.,0.,0.;                                                             95P     65
126,1,1,0,0,1,0,0.109191070279861,0.109191070279861,                  97P     66
3.1236259258842,3.1236259258842,1.,1.,-24.163547873739,0.,            97P     67
35.2756241087889,-1.07163717094038,0.,15.8992103548919,               97P     68
0.109191070279861,3.1236259258842,0.,0.,0.;                           97P     69
126,1,1,0,0,1,0,-1.2,-1.2,0.,0.,1.,1.,-1.07163717094038,12.,          99P     70
15.8992103548919,-1.07163717094038,0.,15.8992103548919,-1.2,0.,       99P     71
0.,0.,0.;                                                             99P     72
126,1,1,0,0,1,0,0.109191070279861,0.109191070279861,                 101P     73
3.1236259258842,3.1236259258842,1.,1.,-24.163547873739,12.,          101P     74
35.2756241087889,-1.07163717094038,12.,15.8992103548919,             101P     75
0.109191070279861,3.1236259258842,0.,0.,0.;                          101P     76
126,1,1,0,0,1,0,1.2,1.2,1.39080892972014,1.39080892972014,1.,1.,     103P     77
-28.,0.,35.977490779432,-26.0919107027986,0.,35.977490779432,        103P     78
1.2,1.39080892972014,0.,0.,0.;                                       103P     79
126,1,1,0,0,1,0,-0.904967246314518,-0.904967246314518,               105P     80
0.0574471332302141,0.0574471332302141,1.,1.,-37.4931969619161,       105P     81
0.,34.3952912857793,-28.,0.,35.977490779432,-0.904967246314518,      105P     82
0.0574471332302141,0.,0.,0.;                                         105P     83
126,2,2,0,0,0,0,-0.702823824690133,-0.702823824690133,               107P     84
-0.702823824690133,0.702823824690138,0.702823824690138,              107P     85
0.702823824690138,1.,0.763019982472721,1.,-40.,0.,                   107P     86
31.4361095142829,-40.,0.,33.977490779432,-37.4931969619161,0.,       107P     87
34.3952912857793,-0.702823824690133,0.702823824690138,0.,0.,0.;      107P     88
126,1,1,0,0,1,0,0.139892297446498,0.139892297446498,                 109P     89
1.04586187348509,1.04586187348509,1.,1.,-40.,0.,22.376413753897,     109P     90
-40.,0.,31.4361095142829,0.139892297446498,1.04586187348509,0.,      109P     91
0.,0.;                                                               109P     92
126,2,2,0,0,0,0,-0.436332312998582,-0.436332312998582,               111P     93
-0.436332312998582,0.436332312998582,0.436332312998582,              111P     94
0.436332312998582,1.,0.90630778703667,1.,-38.9283628290596,0.,       111P     95
20.0782804245401,-40.,0.,20.977490779432,-40.,0.,                    111P     96
22.376413753897,-0.436332312998582,0.436332312998582,0.,0.,0.;       111P     97
126,1,1,0,0,1,0,0.109191070279861,0.109191070279861,                 113P     98
3.1236259258842,3.1236259258842,1.,1.,-15.836452126261,0.,           113P     99
0.701866670643067,-38.9283628290596,0.,20.0782804245401,             113P    100
0.109191070279861,3.1236259258842,0.,0.,0.;                          113P    101
126,2,2,0,0,0,0,-0.349065850398866,-0.349065850398866,               115P    102
-0.349065850398866,0.349065850398866,0.349065850398866,              115P    103
0.349065850398866,1.,0.939692620785913,1.,-13.9080892972014,0.,      115P    104
5.55111512312578D-16,-15.,0.,6.93889390390723D-16,                   115P    105
-15.836452126261,0.,0.701866670643066,-0.349065850398866,            115P    106
0.349065850398866,0.,0.,0.;                                          115P    107
126,1,1,0,0,1,0,0.3,0.3,1.39080892972014,1.39080892972014,1.,1.,     117P    108
-3.,0.,-2.46519032881566D-32,-13.9080892972014,0.,                   117P    109
-1.14286957425885D-31,0.3,1.39080892972014,0.,0.,0.;                 117P    110
126,2,2,0,0,0,0,-0.785398163397448,-0.785398163397448,               119P    111
-0.785398163397448,0.785398163397448,0.785398163397448,              119P    112
0.785398163397448,1.,0.707106781186547,1.,5.55111512312578D-16,      119P    113
0.,3.,5.55111512312578D-16,0.,-5.55111512312578D-16,-3.,0.,          119P    114
-5.55111512312578D-16,-0.785398163397448,0.785398163397448,0.,       119P    115
0.,0.;                                                               119P    116
126,1,1,0,0,1,0,0.1398922974465,0.1398922974465,1.2,1.2,1.,1.,       121P    117
-5.58820725747096D-32,0.,13.601077025535,-1.23259516440783D-32,      121P    118
0.,3.,0.1398922974465,1.2,0.,0.,0.;                                  121P    119
126,2,2,0,0,0,0,-0.436332312998583,-0.436332312998583,               123P    120
-0.436332312998583,0.436332312998582,0.436332312998582,              123P    121
0.436332312998582,1.,0.906307787036654,1.,-1.07163717094038,0.,      123P    122
15.8992103548919,4.16333634234434D-16,0.,15.,                        123P    123
5.55111512312578D-16,0.,13.601077025535,-0.436332312998583,          123P    124
0.436332312998582,0.,0.,0.;                                          123P    125
126,8,2,0,1,0,0,-3.14159265358979,-3.14159265358979,                 125P    126
-3.14159265358979,-1.5707963267949,-1.5707963267949,0.,0.,           125P    127
1.5707963267949,1.5707963267949,3.14159265358979,                    125P    128
3.14159265358979,3.14159265358979,1.,0.707106781186547,1.,           125P    129
0.707106781186548,1.,0.707106781186548,1.,0.707106781186547,1.,      125P    130
-11.,0.,7.5,-11.,0.,11.,-7.5,0.,11.,-4.,0.,11.,-4.,0.,7.5,-4.,       125P    131
0.,4.,-7.5,0.,4.,-11.,0.,4.,-11.,0.,7.5,-3.14159265358979,           125P    132
3.14159265358979,0.,0.,0.;                                           125P    133
126,1,1,0,0,1,0,0.,0.,1.2,1.2,1.,1.,-37.4931969619161,0.,            127P    134
34.3952912857793,-37.4931969619161,12.,34.3952912857793,0.,1.2,      127P    135
0.,0.,0.;                                                            127P    136
126,2,2,0,0,0,0,-0.702823824690138,-0.702823824690138,               129P    137
-0.702823824690138,0.702823824690133,0.702823824690133,              129P    138
0.702823824690133,1.,0.763019982472721,1.,-37.4931969619161,12.,     129P    139
34.3952912857793,-40.,12.,33.977490779432,-40.,12.,                  129P    140
31.4361095142829,-0.702823824690138,0.702823824690133,0.,0.,0.;      129P    141
126,1,1,0,0,1,0,-1.2,-1.2,0.,0.,1.,1.,-40.,12.,31.4361095142829,     131P    142
-40.,0.,31.4361095142829,-1.2,0.,0.,0.,0.;                           131P    143
126,1,1,0,0,1,0,0.139892297446498,0.139892297446498,                 133P    144
1.04586187348509,1.04586187348509,1.,1.,-40.,12.,                    133P    145
22.376413753897,-40.,12.,31.4361095142829,0.139892297446498,         133P    146
1.04586187348509,0.,0.,0.;                                           133P    147
126,1,1,0,0,1,0,0.,0.,1.2,1.2,1.,1.,-40.,0.,22.376413753897,         135P    148
-40.,12.,22.376413753897,0.,1.2,0.,0.,0.;                            135P    149
126,2,2,0,0,0,0,-0.436332312998582,-0.436332312998582,               137P    150
-0.436332312998582,0.436332312998582,0.436332312998582,              137P    151
0.436332312998582,1.,0.90630778703667,1.,-40.,12.,                   137P    152
22.376413753897,-40.,12.,20.977490779432,-38.9283628290596,12.,      137P    153
20.0782804245401,-0.436332312998582,0.436332312998582,0.,0.,0.;      137P    154
126,1,1,0,0,1,0,-1.2,-1.2,0.,0.,1.,1.,-38.9283628290596,12.,         139P    155
20.0782804245401,-38.9283628290596,0.,20.0782804245401,-1.2,0.,      139P    156
0.,0.,0.;                                                            139P    157
126,2,2,0,0,0,0,-0.436332312998582,-0.436332312998582,               141P    158
-0.436332312998582,0.436332312998583,0.436332312998583,              141P    159
0.436332312998583,1.,0.906307787036654,1.,5.55111512312578D-16,      141P    160
12.,13.601077025535,4.16333634234434D-16,12.,15.,                    141P    161
-1.07163717094038,12.,15.8992103548919,-0.436332312998582,           141P    162
0.436332312998583,0.,0.,0.;                                          141P    163
126,1,1,0,0,1,0,0.,0.,1.2,1.2,1.,1.,0.,0.,13.601077025535,0.,        143P    164
12.,13.601077025535,0.,1.2,0.,0.,0.;                                 143P    165
126,1,1,0,0,1,0,-1.2,-1.2,0.,0.,1.,1.,0.,12.,3.,0.,0.,3.,-1.2,       145P    166
0.,0.,0.,0.;                                                         145P    167
126,1,1,0,0,1,0,0.1398922974465,0.1398922974465,1.2,1.2,1.,1.,       147P    168
-5.58820725747096D-32,12.,13.601077025535,-1.23259516440783D-32,     147P    169
12.,3.,0.1398922974465,1.2,0.,0.,0.;                                 147P    170
126,2,2,0,0,0,0,-0.785398163397448,-0.785398163397448,               149P    171
-0.785398163397448,0.785398163397448,0.785398163397448,              149P    172
0.785398163397448,1.,0.707106781186547,1.,-3.,12.,                   149P    173
-5.55111512312578D-16,5.55111512312578D-16,12.,                      149P    174
-5.55111512312578D-16,5.55111512312578D-16,12.,3.,                   149P    175
-0.785398163397448,0.785398163397448,0.,0.,0.;                       149P    176
126,1,1,0,0,1,0,0.,0.,1.2,1.2,1.,1.,-3.,0.,0.,-3.,12.,0.,0.,1.2,     151P    177
0.,0.,0.;                                                            151P    178
126,1,1,0,0,1,0,-1.2,-1.2,0.,0.,1.,1.,-13.9080892972014,12.,0.,      153P    179
-13.9080892972014,0.,0.,-1.2,0.,0.,0.,0.;                            153P    180
126,1,1,0,0,1,0,0.3,0.3,1.39080892972014,1.39080892972014,1.,1.,     155P    181
-3.,12.,-2.46519032881566D-32,-13.9080892972014,12.,                 155P    182
-1.14286957425885D-31,0.3,1.39080892972014,0.,0.,0.;                 155P    183
126,2,2,0,0,0,0,-0.349065850398866,-0.349065850398866,               157P    184
-0.349065850398866,0.349065850398866,0.349065850398866,              157P    185
0.349065850398866,1.,0.939692620785913,1.,-15.836452126261,12.,      157P    186
0.701866670643066,-15.,12.,6.93889390390723D-16,                     157P    187
-13.9080892972014,12.,5.55111512312578D-16,-0.349065850398866,       157P    188
0.349065850398866,0.,0.,0.;                                          157P    189
126,1,1,0,0,1,0,0.,0.,1.2,1.2,1.,1.,-15.836452126261,0.,             159P    190
0.701866670643067,-15.836452126261,12.,0.701866670643067,0.,1.2,     159P    191
0.,0.,0.;                                                            159P    192
126,1,1,0,0,1,0,0.109191070279861,0.109191070279861,                 161P    193
3.1236259258842,3.1236259258842,1.,1.,-15.836452126261,12.,          161P    194
0.701866670643067,-38.9283628290596,12.,20.0782804245401,            161P    195
0.109191070279861,3.1236259258842,0.,0.,0.;                          161P    196
126,8,2,0,1,0,0,-3.14159265358979,-3.14159265358979,                 163P    197
-3.14159265358979,-1.5707963267949,-1.5707963267949,0.,0.,           163P    198
1.5707963267949,1.5707963267949,3.14159265358979,                    163P    199
3.14159265358979,3.14159265358979,1.,0.707106781186545,1.,           163P    200
0.707106781186548,1.,0.707106781186549,1.,0.707106781186546,1.,      163P    201
-28.,6.,10.9082952053046,-28.,10.5,10.9082952053046,-32.5,10.5,      163P    202
14.6842435456024,-37.,10.5,18.4601918859002,-37.,6.,                 163P    203
18.4601918859002,-37.,1.5,18.4601918859002,-32.5,1.5,                163P    204
14.6842435456024,-28.,1.5,10.9082952053046,-28.,6.,                  163P    205
10.9082952053046,-3.14159265358979,3.14159265358979,0.,0.,0.;        163P    206
126,1,1,0,0,1,0,0.,0.,3.42857142857143,3.42857142857143,1.,1.,       165P    207
-11.,0.,7.5,-11.,12.,7.5,0.,3.42857142857143,0.,0.,0.;               165P    208
126,8,2,0,1,0,0,-3.14159265358979,-3.14159265358979,                 167P    209
-3.14159265358979,-1.5707963267949,-1.5707963267949,0.,0.,           167P    210
1.5707963267949,1.5707963267949,3.14159265358979,                    167P    211
3.14159265358979,3.14159265358979,1.,0.707106781186547,1.,           167P    212
0.707106781186548,1.,0.707106781186548,1.,0.707106781186547,1.,      167P    213
-11.,12.,7.5,-11.,12.,4.,-7.5,12.,4.,-4.,12.,4.,-4.,12.,7.5,-4.,     167P    214
12.,11.,-7.5,12.,11.,-11.,12.,11.,-11.,12.,7.5,                      167P    215
-3.14159265358979,3.14159265358979,0.,0.,0.;                         167P    216
126,1,1,0,0,1,0,0.,0.,1.2,1.2,1.,1.,-28.,0.,35.977490779432,         169P    217
-28.,12.,35.977490779432,0.,1.2,0.,0.,0.;                            169P    218
126,1,1,0,0,1,0,-0.0574471332302141,-0.0574471332302141,             171P    219
0.904967246314518,0.904967246314518,1.,1.,-28.,12.,                  171P    220
35.977490779432,-37.4931969619161,12.,34.3952912857793,              171P    221
-0.0574471332302141,0.904967246314518,0.,0.,0.;                      171P    222
126,8,2,0,1,0,0,-3.14159265358979,-3.14159265358979,                 173P    223
-3.14159265358979,-1.5707963267949,-1.5707963267949,0.,0.,           173P    224
1.5707963267949,1.5707963267949,3.14159265358979,                    173P    225
3.14159265358979,3.14159265358979,1.,0.707106781186548,1.,           173P    226
0.707106781186548,1.,0.707106781186548,1.,0.707106781186548,1.,      173P    227
-30.,6.,35.6441574460987,-30.,3.5,35.6441574460987,-32.5,3.5,        173P    228
35.227490779432,-35.,3.5,34.8108241127653,-35.,6.,                   173P    229
34.8108241127653,-35.,8.5,34.8108241127653,-32.5,8.5,                173P    230
35.227490779432,-30.,8.5,35.6441574460987,-30.,6.,                   173P    231
35.6441574460987,-3.14159265358979,3.14159265358979,0.,0.,0.;        173P    232
126,1,1,0,0,1,0,0.133333333333332,0.133333333333332,4.2,4.2,1.,      175P    233
1.,-30.,6.,35.6441574460987,-30.,6.,25.477490779432,                 175P    234
0.133333333333332,4.2,0.,0.,0.;                                      175P    235
126,8,2,0,1,0,0,-3.14159265358979,-3.14159265358979,                 177P    236
-3.14159265358979,-1.5707963267949,-1.5707963267949,0.,0.,           177P    237
1.5707963267949,1.5707963267949,3.14159265358979,                    177P    238
3.14159265358979,3.14159265358979,1.,0.707106781186548,1.,           177P    239
0.707106781186548,1.,0.707106781186548,1.,0.707106781186548,1.,      177P    240
-30.,6.,25.477490779432,-30.,8.5,25.477490779432,-32.5,8.5,          177P    241
25.477490779432,-35.,8.5,25.477490779432,-35.,6.,                    177P    242
25.477490779432,-35.,3.5,25.477490779432,-32.5,3.5,                  177P    243
25.477490779432,-30.,3.5,25.477490779432,-30.,6.,                    177P    244
25.477490779432,-3.14159265358979,3.14159265358979,0.,0.,0.;         177P    245
126,1,1,0,0,1,0,-0.404061017820885,-0.404061017820885,               179P    246
0.404061017820884,0.404061017820884,1.,1.,-30.,6.,                   179P    247
25.477490779432,-28.,6.,23.477490779432,-0.404061017820885,          179P    248
0.404061017820884,0.,0.,0.;                                          179P    249
126,8,2,0,1,0,0,-3.14159265358979,-3.14159265358979,                 181P    250
-3.14159265358979,-1.5707963267949,-1.5707963267949,0.,0.,           181P    251
1.5707963267949,1.5707963267949,3.14159265358979,                    181P    252
3.14159265358979,3.14159265358979,1.,0.707106781186549,1.,           181P    253
0.707106781186549,1.,0.707106781186549,1.,0.707106781186549,1.,      181P    254
-28.,6.,23.477490779432,-28.,10.5,23.477490779432,-32.5,10.5,        181P    255
23.477490779432,-37.,10.5,23.477490779432,-37.,6.,                   181P    256
23.477490779432,-37.,1.5,23.477490779432,-32.5,1.5,                  181P    257
23.477490779432,-28.,1.5,23.477490779432,-28.,6.,                    181P    258
23.477490779432,-3.14159265358979,3.14159265358979,0.,0.,0.;         181P    259
126,1,1,0,0,1,0,-4.93432455388958D-16,-4.93432455388958D-16,         183P    260
2.7931545720283,2.7931545720283,1.,1.,-28.,6.,23.477490779432,       183P    261
-28.,6.,10.9082952053046,-4.93432455388958D-16,2.7931545720283,      183P    262
0.,0.,0.;                                                            183P    263
126,1,1,0,0,1,0,1.2,1.2,1.39080892972014,1.39080892972014,1.,1.,     185P    264
-28.,12.,35.977490779432,-26.0919107027986,12.,35.977490779432,      185P    265
1.2,1.39080892972014,0.,0.,0.;                                       185P    266
128,1,2,1,2,0,0,0,0,0,0.,0.,4.,4.,-0.349065850398865,                187P    267
-0.349065850398865,-0.349065850398865,0.349065850398867,             187P    268
0.349065850398867,0.349065850398867,1.,1.,0.939692620785908,         187P    269
0.939692620785908,1.,1.,-26.0919107027986,12.,35.977490779432,       187P    270
-26.0919107027986,0.,35.977490779432,-25.,12.,35.977490779432,       187P    271
-25.,0.,35.977490779432,-24.163547873739,12.,35.2756241087889,       187P    272
-24.163547873739,0.,35.2756241087889,0.,4.,-0.349065850398865,       187P    273
0.349065850398867;                                                   187P    274
128,1,1,1,1,0,0,1,0,0,0.108191070279861,0.108191070279861,           189P    275
3.1246259258842,3.1246259258842,-0.001,-0.001,1.201,1.201,1.,1.,     189P    276
1.,1.,-24.1712083181702,-0.01,35.2820519848858,                      189P    277
-1.06397672650919,-0.01,15.8927824787951,-24.1712083181702,          189P    278
12.01,35.2820519848858,-1.06397672650919,12.01,15.8927824787951,     189P    279
0.108191070279861,3.1246259258842,-0.001,1.201;                      189P    280
128,1,1,1,1,0,0,1,0,0,-2.001,-2.001,2.001,2.001,                     191P    281
-1.7998745389716,-1.7998745389716,1.7998745389716,                   191P    282
1.7998745389716,1.,1.,1.,1.,0.0100000000000011,0.,                   191P    283
35.987490779432,-40.01,0.,35.987490779432,0.0100000000000033,0.,     191P    284
-0.0099999999999989,-40.01,0.,-0.0099999999999989,-2.001,2.001,      191P    285
-1.7998745389716,1.7998745389716;                                    191P    286
128,1,2,1,2,0,0,0,0,0,-4.,-4.,0.,0.,-0.702823824690138,              193P    287
-0.702823824690138,-0.702823824690138,0.702823824690133,             193P    288
0.702823824690133,0.702823824690133,1.,1.,0.763019982472725,         193P    289
0.763019982472725,1.,1.,-37.4931969619161,0.,34.3952912857793,       193P    290
-37.4931969619161,12.,34.3952912857793,-40.,0.,33.977490779432,      193P    291
-40.,12.,33.977490779432,-40.,0.,31.4361095142829,-40.,12.,          193P    292
31.4361095142829,-4.,0.,-0.702823824690138,0.702823824690133;        193P    293
128,1,1,1,1,0,0,1,0,0,0.138892297446498,0.138892297446498,           195P    294
1.04686187348509,1.04686187348509,-0.001,-0.001,1.201,1.201,1.,      195P    295
1.,1.,1.,-40.,-0.01,22.366413753897,-40.,-0.01,31.4461095142829,     195P    296
-40.,12.01,22.366413753897,-40.,12.01,31.4461095142829,              195P    297
0.138892297446498,1.04686187348509,-0.001,1.201;                     195P    298
128,1,2,1,2,0,0,0,0,0,0.,0.,4.,4.,-0.436332312998582,                197P    299
-0.436332312998582,-0.436332312998582,0.436332312998582,             197P    300
0.436332312998582,0.436332312998582,1.,1.,0.90630778703665,          197P    301
0.90630778703665,1.,1.,-38.9283628290596,12.,20.0782804245401,       197P    302
-38.9283628290596,0.,20.0782804245401,-40.,12.,20.977490779432,      197P    303
-40.,0.,20.977490779432,-40.,12.,22.376413753897,-40.,0.,            197P    304
22.376413753897,0.,4.,-0.436332312998582,0.436332312998582;          197P    305
128,1,2,1,2,0,0,0,0,0,0.,0.,4.,4.,-0.436332312998583,                199P    306
-0.436332312998583,-0.436332312998583,0.436332312998582,             199P    307
0.436332312998582,0.436332312998582,1.,1.,0.90630778703665,          199P    308
0.90630778703665,1.,1.,-1.07163717094038,12.,15.8992103548919,       199P    309
-1.07163717094038,0.,15.8992103548919,0.,12.,15.,0.,0.,15.,          199P    310
5.55111512312578D-16,12.,13.601077025535,5.55111512312578D-16,       199P    311
0.,13.601077025535,0.,4.,-0.436332312998583,0.436332312998582;       199P    312
128,1,1,1,1,0,0,1,0,0,0.1388922974465,0.1388922974465,1.201,         201P    313
1.201,-0.001,-0.001,1.201,1.201,1.,1.,1.,1.,                         201P    314
-5.59231590801899D-32,-0.01,13.611077025535,                         201P    315
-1.22848651385981D-32,-0.01,2.99,-5.59231590801899D-32,12.01,        201P    316
13.611077025535,-1.22848651385981D-32,12.01,2.99,                    201P    317
0.1388922974465,1.201,-0.001,1.201;                                  201P    318
128,1,2,1,2,0,0,0,0,0,0.,0.,4.,4.,-0.785398163397448,                203P    319
-0.785398163397448,-0.785398163397448,0.785398163397448,             203P    320
0.785398163397448,0.785398163397448,1.,1.,0.707106781186548,         203P    321
0.707106781186548,1.,1.,5.55111512312578D-16,12.,3.,                 203P    322
5.55111512312578D-16,0.,3.,0.,12.,0.,0.,0.,0.,-3.,12.,               203P    323
-5.55111512312578D-16,-3.,0.,-5.55111512312578D-16,0.,4.,            203P    324
-0.785398163397448,0.785398163397448;                                203P    325
128,1,1,1,1,0,0,1,0,0,0.299,0.299,1.39180892972014,                  205P    326
1.39180892972014,-0.001,-0.001,1.201,1.201,1.,1.,1.,1.,-2.99,        205P    327
-0.01,-2.45697302771961D-32,-13.9180892972014,-0.01,                 205P    328
-1.14369130436845D-31,-2.99,12.01,-2.45697302771961D-32,             205P    329
-13.9180892972014,12.01,-1.14369130436845D-31,0.299,                 205P    330
1.39180892972014,-0.001,1.201;                                       205P    331
128,1,2,1,2,0,0,0,0,0,0.,0.,4.,4.,-0.349065850398866,                207P    332
-0.349065850398866,-0.349065850398866,0.349065850398866,             207P    333
0.349065850398866,0.349065850398866,1.,1.,0.939692620785908,         207P    334
0.939692620785908,1.,1.,-13.9080892972014,12.,                       207P    335
5.55111512312578D-16,-13.9080892972014,0.,5.55111512312578D-16,      207P    336
-15.,12.,-5.55111512312578D-16,-15.,0.,-5.55111512312578D-16,        207P    337
-15.836452126261,12.,0.701866670643066,-15.836452126261,0.,          207P    338
0.701866670643066,0.,4.,-0.349065850398866,0.349065850398866;        207P    339
128,1,1,1,1,0,0,1,0,0,0.10819107027986,0.10819107027986,             209P    340
3.1246259258842,3.1246259258842,-0.001,-0.001,1.201,1.201,1.,1.,     209P    341
1.,1.,-15.8287916818298,-0.01,0.695438794546198,                     209P    342
-38.9360232734908,-0.01,20.0847083006369,-15.8287916818298,          209P    343
12.01,0.695438794546198,-38.9360232734908,12.01,                     209P    344
20.0847083006369,0.10819107027986,3.1246259258842,-0.001,1.201;      209P    345
128,1,8,1,2,0,1,0,0,1,0.,0.,3.42857142857143,3.42857142857143,       211P    346
-3.14159265358979,-3.14159265358979,-3.14159265358979,               211P    347
-1.5707963267949,-1.5707963267949,0.,0.,1.5707963267949,             211P    348
1.5707963267949,3.14159265358979,3.14159265358979,                   211P    349
3.14159265358979,1.,1.,0.707106781186548,0.707106781186548,1.,       211P    350
1.,0.707106781186548,0.707106781186548,1.,1.,0.707106781186548,      211P    351
0.707106781186548,1.,1.,0.707106781186548,0.707106781186548,1.,      211P    352
1.,-11.,0.,7.5,-11.,12.,7.5,-11.,0.,11.,-11.,12.,11.,-7.5,0.,        211P    353
11.,-7.5,12.,11.,-4.,0.,11.,-4.,12.,11.,-4.,0.,7.5,-4.,12.,7.5,      211P    354
-4.,0.,4.,-4.,12.,4.,-7.5,0.,4.,-7.5,12.,4.,-11.,0.,4.,-11.,12.,     211P    355
4.,-11.,0.,7.5,-11.,12.,7.5,0.,3.42857142857143,                     211P    356
-3.14159265358979,3.14159265358979;                                  211P    357
128,1,1,1,1,0,0,1,0,0,-0.35513812651491,-0.35513812651491,           213P    358
0.609276253029822,0.609276253029822,-0.001,-0.001,1.201,1.201,       213P    359
1.,1.,1.,1.,-37.5030609011544,-0.01,34.3936472959063,                213P    360
-27.9901360607617,-0.01,35.9791347693051,-37.5030609011544,          213P    361
12.01,34.3936472959063,-27.9901360607617,12.01,35.9791347693051,     213P    362
-0.35513812651491,0.609276253029822,-0.001,1.201;                    213P    363
128,1,8,1,2,0,1,0,0,1,0.133333333333332,0.133333333333332,4.2,       215P    364
4.2,-3.14159265358979,-3.14159265358979,-3.14159265358979,           215P    365
-1.5707963267949,-1.5707963267949,0.,0.,1.5707963267949,             215P    366
1.5707963267949,3.14159265358979,3.14159265358979,                   215P    367
3.14159265358979,1.,1.,0.707106781186548,0.707106781186548,1.,       215P    368
1.,0.707106781186548,0.707106781186548,1.,1.,0.707106781186548,      215P    369
0.707106781186548,1.,1.,0.707106781186548,0.707106781186548,1.,      215P    370
1.,-30.,6.,35.6441574460987,-30.,6.,25.477490779432,-30.,3.5,        215P    371
35.6441574460987,-30.,3.5,25.477490779432,-32.5,3.5,                 215P    372
35.6441574460987,-32.5,3.5,25.477490779432,-35.,3.5,                 215P    373
35.6441574460987,-35.,3.5,25.477490779432,-35.,6.,                   215P    374
35.6441574460987,-35.,6.,25.477490779432,-35.,8.5,                   215P    375
35.6441574460987,-35.,8.5,25.477490779432,-32.5,8.5,                 215P    376
35.6441574460987,-32.5,8.5,25.477490779432,-30.,8.5,                 215P    377
35.6441574460987,-30.,8.5,25.477490779432,-30.,6.,                   215P    378
35.6441574460987,-30.,6.,25.477490779432,0.133333333333332,4.2,      215P    379
-3.14159265358979,3.14159265358979;                                  215P    380
128,1,8,1,2,0,1,0,0,1,-0.404061017820884,-0.404061017820884,         217P    381
0.404061017820885,0.404061017820885,-3.14159265358979,               217P    382
-3.14159265358979,-3.14159265358979,-1.5707963267949,                217P    383
-1.5707963267949,0.,0.,1.5707963267949,1.5707963267949,              217P    384
3.14159265358979,3.14159265358979,3.14159265358979,1.,1.,            217P    385
0.707106781186548,0.707106781186548,1.,1.,0.707106781186548,         217P    386
0.707106781186548,1.,1.,0.707106781186548,0.707106781186548,1.,      217P    387
1.,0.707106781186548,0.707106781186548,1.,1.,-28.,6.,                217P    388
23.477490779432,-30.,6.,25.477490779432,-28.,10.5,                   217P    389
23.477490779432,-30.,8.5,25.477490779432,-32.5,10.5,                 217P    390
23.477490779432,-32.5,8.5,25.477490779432,-37.,10.5,                 217P    391
23.477490779432,-35.,8.5,25.477490779432,-37.,6.,                    217P    392
23.477490779432,-35.,6.,25.477490779432,-37.,1.5,                    217P    393
23.477490779432,-35.,3.50000000000001,25.477490779432,-32.5,1.5,     217P    394
23.477490779432,-32.5,3.50000000000001,25.477490779432,-28.,1.5,     217P    395
23.477490779432,-30.,3.50000000000001,25.477490779432,-28.,6.,       217P    396
23.477490779432,-30.,6.,25.477490779432,-0.404061017820884,          217P    397
0.404061017820885,-3.14159265358979,3.14159265358979;                217P    398
128,1,8,1,2,0,1,0,0,1,-4.93432455388958D-16,                         219P    399
-4.93432455388958D-16,2.7931545720283,2.7931545720283,               219P    400
-3.14159265358979,-3.14159265358979,-3.14159265358979,               219P    401
-1.5707963267949,-1.5707963267949,0.,0.,1.5707963267949,             219P    402
1.5707963267949,3.14159265358979,3.14159265358979,                   219P    403
3.14159265358979,1.,1.,0.707106781186548,0.707106781186548,1.,       219P    404
1.,0.707106781186548,0.707106781186548,1.,1.,0.707106781186548,      219P    405
0.707106781186548,1.,1.,0.707106781186548,0.707106781186548,1.,      219P    406
1.,-28.,6.,23.477490779432,-28.,6.,10.9082952053046,-28.,1.5,        219P    407
23.477490779432,-28.,1.5,10.9082952053046,-32.5,1.5,                 219P    408
23.477490779432,-32.5,1.5,10.9082952053046,-37.,1.5,                 219P    409
23.477490779432,-37.,1.5,10.9082952053047,-37.,6.,                   219P    410
23.477490779432,-37.,6.,10.9082952053047,-37.,10.5,                  219P    411
23.477490779432,-37.,10.5,10.9082952053047,-32.5,10.5,               219P    412
23.477490779432,-32.5,10.5,10.9082952053046,-28.,10.5,               219P    413
23.477490779432,-28.,10.5,10.9082952053046,-28.,6.,                  219P    414
23.477490779432,-28.,6.,10.9082952053046,-4.93432455388958D-16,      219P    415
2.7931545720283,-3.14159265358979,3.14159265358979;                  219P    416
128,1,1,1,1,0,0,1,0,0,1.199,1.199,1.39180892972014,                  221P    417
1.39180892972014,-0.001,-0.001,1.201,1.201,1.,1.,1.,1.,-28.01,       221P    418
-0.01,35.977490779432,-26.0819107027986,-0.01,35.977490779432,       221P    419
-28.01,12.01,35.977490779432,-26.0819107027986,12.01,                221P    420
35.977490779432,1.199,1.39180892972014,-0.001,1.201;                 221P    421
128,1,1,1,1,0,0,1,0,0,-1.7998745389716,-1.7998745389716,             223P    422
1.7998745389716,1.7998745389716,-2.001,-2.001,2.001,2.001,1.,1.,     223P    423
1.,1.,-40.01,12.,-0.0099999999999989,-40.01,12.,35.987490779432,     223P    424
0.0100000000000011,12.,-0.0099999999999989,0.0100000000000033,       223P    425
12.,35.987490779432,-1.7998745389716,1.7998745389716,-2.001,         223P    426
2.001;                                                               223P    427
502,32,-24.163547873739,12.,35.2756241087889,-26.0919107027986,      225P    428
12.,35.977490779432,-26.0919107027986,0.,35.977490779432,            225P    429
-24.163547873739,0.,35.2756241087889,-1.07163717094038,0.,           225P    430
15.8992103548919,-1.07163717094038,12.,15.8992103548919,-28.,0.,     225P    431
35.977490779432,-37.4931969619161,0.,34.3952912857793,-40.,0.,       225P    432
31.4361095142829,-40.,0.,22.376413753897,-38.9283628290596,0.,       225P    433
20.0782804245401,-15.836452126261,0.,0.701866670643067,              225P    434
-13.9080892972014,0.,-1.14286957425885D-31,-3.,0.,                   225P    435
-2.46519032881566D-32,-1.23259516440783D-32,0.,3.,                   225P    436
-5.58820725747096D-32,0.,13.601077025535,-11.,0.,7.5,                225P    437
-37.4931969619161,12.,34.3952912857793,-40.,12.,                     225P    438
31.4361095142829,-40.,12.,22.376413753897,-38.9283628290596,12.,     225P    439
20.0782804245401,-5.58820725747096D-32,12.,13.601077025535,          225P    440
-1.23259516440783D-32,12.,3.,-3.,12.,-2.46519032881566D-32,          225P    441
-13.9080892972014,12.,-1.14286957425885D-31,-15.836452126261,        225P    442
12.,0.701866670643067,-28.,6.,10.9082952053046,-11.,12.,7.5,         225P    443
-28.,12.,35.977490779432,-30.,6.,35.6441574460987,-30.,6.,           225P    444
25.477490779432,-28.,6.,23.477490779432;                             225P    445
504,49,89,225,1,225,2,91,225,2,225,3,93,225,3,225,4,95,225,4,        227P    446
225,1,97,225,4,225,5,99,225,6,225,5,101,225,1,225,6,103,225,7,       227P    447
225,3,105,225,8,225,7,107,225,9,225,8,109,225,10,225,9,111,225,      227P    448
11,225,10,113,225,12,225,11,115,225,13,225,12,117,225,14,225,13,     227P    449
119,225,15,225,14,121,225,16,225,15,123,225,5,225,16,125,225,17,     227P    450
225,17,127,225,8,225,18,129,225,18,225,19,131,225,19,225,9,133,      227P    451
225,20,225,19,135,225,10,225,20,137,225,20,225,21,139,225,21,        227P    452
225,11,141,225,22,225,6,143,225,16,225,22,145,225,23,225,15,147,     227P    453
225,22,225,23,149,225,24,225,23,151,225,14,225,24,153,225,25,        227P    454
225,13,155,225,24,225,25,157,225,26,225,25,159,225,12,225,26,        227P    455
161,225,26,225,21,163,225,27,225,27,165,225,17,225,28,167,225,       227P    456
28,225,28,169,225,7,225,29,171,225,29,225,18,173,225,30,225,30,      227P    457
175,225,30,225,31,177,225,31,225,31,179,225,31,225,32,181,225,       227P    458
32,225,32,183,225,32,225,27,185,225,29,225,2;                        227P    459
406,1,5HBody1;                                                       229P    460
314,62.7450980392157,62.7450980392157,62.7450980392157,13HSteel      231P    461
- Satin;                                                             231P    462
S      1G      3D    232P    462                                        T      1
