                                                                        S      1
,,12Hpipe join v1,12Hpipe join v1,7Hunknown,7Hunknown,32,38,7,99,15,,1.,G      1
2,2HMM,1,0.08,15H20250912.001527,0.01,10000.,7Hunknown,7Hunknown,11,0,  G      2
15H20231116.220546;                                                     G      3
     186       1                                                00000000D      1
     186            -107       1       0                               0D      2
     514       2                                                00010000D      3
     514                       1       1                               0D      4
     510       3                                                00010000D      5
     510            -107       1       1                               0D      6
     510       4                                                00010000D      7
     510            -107       1       1                               0D      8
     510       5                                                00010000D      9
     510            -107       1       1                               0D     10
     510       6                                                00010000D     11
     510            -107       1       1                               0D     12
     510       7                                                00010000D     13
     510            -107       1       1                               0D     14
     510       8                                                00010000D     15
     510            -107       1       1                               0D     16
     510       9                                                00010000D     17
     510            -107       1       1                               0D     18
     510      10                                                00010000D     19
     510            -107       1       1                               0D     20
     508      11                                                00010000D     21
     508                       2       1                               0D     22
     508      13                                                00010000D     23
     508                       2       1                               0D     24
     508      15                                                00010000D     25
     508                       2       1                               0D     26
     508      17                                                00010000D     27
     508                       2       1                               0D     28
     508      19                                                00010000D     29
     508                       2       1                               0D     30
     508      21                                                00010000D     31
     508                       1       1                               0D     32
     508      22                                                00010000D     33
     508                       1       1                               0D     34
     508      23                                                00010000D     35
     508                       2       1                               0D     36
     508      25                                                00010000D     37
     508                       1       1                               0D     38
     508      26                                                00010000D     39
     508                       1       1                               0D     40
     126      27                                                00010000D     41
     126       0               8       0                               0D     42
     126      35                                                00010000D     43
     126       0              10       0                               0D     44
     126      45                                                00010000D     45
     126       0               4       0                               0D     46
     126      49                                                00010000D     47
     126       0              10       0                               0D     48
     126      59                                                00010000D     49
     126       0               8       0                               0D     50
     126      67                                                00010000D     51
     126       0               8       0                               0D     52
     126      75                                                00010000D     53
     126       0              10       0                               0D     54
     126      85                                                00010000D     55
     126       0               4       0                               0D     56
     126      89                                                00010000D     57
     126       0               8       0                               0D     58
     126      97                                                00010000D     59
     126       0              10       0                               0D     60
     126     107                                                00010000D     61
     126       0               4       0                               0D     62
     126     111                                                00010000D     63
     126       0               8       0                               0D     64
     126     119                                                00010000D     65
     126       0              10       0                               0D     66
     126     129                                                00010000D     67
     126       0               4       0                               0D     68
     126     133                                                00010000D     69
     126       0               8       0                               0D     70
     126     141                                                00010000D     71
     126       0              10       0                               0D     72
     126     151                                                00010000D     73
     126       0               4       0                               0D     74
     126     155                                                00010000D     75
     126       0               8       0                               0D     76
     126     163                                                00010000D     77
     126       0              10       0                               0D     78
     126     173                                                00010000D     79
     126       0               4       0                               0D     80
     126     177                                                00010000D     81
     126       0               8       0                               0D     82
     126     185                                                00010000D     83
     126       0              10       0                               0D     84
     128     195                                                00010000D     85
     128       0    -107      24       0                               0D     86
     128     219                                                00010000D     87
     128       0    -107      24       0                               0D     88
     128     243                                                00010000D     89
     128       0    -107      24       0                               0D     90
     128     267                                                00010000D     91
     128       0    -107      24       0                               0D     92
     128     291                                                00010000D     93
     128       0    -107      24       0                               0D     94
     128     315                                                00010000D     95
     128       0    -107       8       0                               0D     96
     128     323                                                00010000D     97
     128       0    -107      24       0                               0D     98
     128     347                                                00010000D     99
     128       0    -107       8       0                               0D    100
     502     355                                                00010000D    101
     502                      11       1                               0D    102
     504     366                                                00010001D    103
     504                       6       1                               0D    104
     406     372                                                00000000D    105
     406                       1      15                               0D    106
     314     373                                                00000200D    107
     314                       2       0                               0D    108
186,3,1,0,0,1,105;                                                     1P      1
514,8,5,1,7,1,9,1,11,1,13,1,15,1,17,1,19,1;                            3P      2
510,85,1,1,21;                                                         5P      3
510,87,1,1,23;                                                         7P      4
510,89,1,1,25;                                                         9P      5
510,91,1,1,27;                                                        11P      6
510,93,1,1,29;                                                        13P      7
510,95,2,1,31,33;                                                     15P      8
510,97,1,1,35;                                                        17P      9
510,99,2,1,37,39;                                                     19P     10
508,6,0,103,1,0,0,0,103,2,0,0,0,103,3,1,0,0,103,4,1,0,0,103,5,1,      21P     11
0,0,103,3,0,0;                                                        21P     12
508,6,0,103,6,0,0,0,103,7,0,0,0,103,8,1,0,0,103,2,1,0,0,103,1,1,      23P     13
0,0,103,8,0,0;                                                        23P     14
508,6,0,103,9,0,0,0,103,10,0,0,0,103,11,1,0,0,103,7,1,0,0,103,6,      25P     15
1,0,0,103,11,0,0;                                                     25P     16
508,6,0,103,12,0,0,0,103,13,0,0,0,103,14,1,0,0,103,10,1,0,0,103,      27P     17
9,1,0,0,103,14,0,0;                                                   27P     18
508,6,0,103,15,0,0,0,103,16,0,0,0,103,17,1,0,0,103,13,1,0,0,103,      29P     19
12,1,0,0,103,17,0,0;                                                  29P     20
508,2,0,103,15,1,0,0,103,16,1,0;                                      31P     21
508,2,0,103,18,0,0,0,103,19,0,0;                                      33P     22
508,6,0,103,18,1,0,0,103,20,1,0,0,103,21,0,0,0,103,22,0,0,0,103,      35P     23
20,0,0,0,103,19,1,0;                                                  35P     24
508,2,0,103,5,0,0,0,103,4,0,0;                                        37P     25
508,2,0,103,21,1,0,0,103,22,1,0;                                      39P     26
126,4,2,0,0,0,0,0.,0.,0.,1.5707963267949,1.5707963267949,             41P     27
3.14159265358979,3.14159265358979,3.14159265358979,1.,                41P     28
0.707106781186548,1.,0.707106781186548,1.,13.4496118076687,           41P     29
28.1021871959632,0.,13.4496118076687,28.1021871959632,                41P     30
13.4496118076687,8.23551202501796D-16,28.1021871959632,               41P     31
13.4496118076687,-13.4496118076687,28.1021871959632,                  41P     32
13.4496118076687,-13.4496118076687,28.1021871959632,                  41P     33
1.64710240500359D-15,0.,3.14159265358979,0.,0.,0.;                    41P     34
126,4,2,0,0,0,0,3.14159265358979,3.14159265358979,                    43P     35
3.14159265358979,4.71238898038469,4.71238898038469,                   43P     36
6.28318530717959,6.28318530717959,6.28318530717959,1.,                43P     37
0.707106781186548,1.,0.707106781186548,1.,-13.4496118076687,          43P     38
28.1021871959632,1.64710240500359D-15,-13.4496118076687,              43P     39
28.1021871959632,-13.4496118076687,-2.47065360750539D-15,             43P     40
28.1021871959632,-13.4496118076687,13.4496118076687,                  43P     41
28.1021871959632,-13.4496118076687,13.4496118076687,                  43P     42
28.1021871959632,-3.29420481000718D-15,3.14159265358979,              43P     43
6.28318530717959,0.,0.,0.;                                            43P     44
126,1,1,0,0,1,0,-0.743515883060521,-0.743515883060521,                45P     45
0.743515883060522,0.743515883060522,1.,1.,-13.4496118076687,          45P     46
28.1021871959632,0.,-13.4496118076687,48.1021871959632,0.,            45P     47
-0.743515883060521,0.743515883060522,0.,0.,0.;                        45P     48
126,4,2,0,0,0,0,3.14159265358979,3.14159265358979,                    47P     49
3.14159265358979,4.71238898038469,4.71238898038469,                   47P     50
6.28318530717959,6.28318530717959,6.28318530717959,1.,                47P     51
0.707106781186548,1.,0.707106781186547,1.,-13.4496118076687,          47P     52
48.1021871959632,1.64710240500359D-15,-13.4496118076687,              47P     53
48.1021871959632,-13.4496118076687,-2.47065360750538D-15,             47P     54
48.1021871959632,-13.4496118076687,13.4496118076687,                  47P     55
48.1021871959632,-13.4496118076687,13.4496118076687,                  47P     56
48.1021871959632,-3.29420481000718D-15,3.14159265358979,              47P     57
6.28318530717959,0.,0.,0.;                                            47P     58
126,4,2,0,0,0,0,0.,0.,0.,1.5707963267949,1.5707963267949,             49P     59
3.14159265358979,3.14159265358979,3.14159265358979,1.,                49P     60
0.707106781186548,1.,0.707106781186548,1.,13.4496118076687,           49P     61
48.1021871959632,0.,13.4496118076687,48.1021871959632,                49P     62
13.4496118076687,8.23551202501795D-16,48.1021871959632,               49P     63
13.4496118076687,-13.4496118076687,48.1021871959632,                  49P     64
13.4496118076687,-13.4496118076687,48.1021871959632,                  49P     65
1.64710240500359D-15,0.,3.14159265358979,0.,0.,0.;                    49P     66
126,4,2,0,0,0,0,0.,0.,0.,1.5707963267949,1.5707963267949,             51P     67
3.14159265358979,3.14159265358979,3.14159265358979,1.,                51P     68
0.707106781186548,1.,0.707106781186548,1.,15.9496118076687,           51P     69
26.5352742766881,0.,15.9496118076687,26.5352742766881,                51P     70
15.9496118076687,9.76632052395215D-16,26.5352742766881,               51P     71
15.9496118076687,-15.9496118076687,26.5352742766881,                  51P     72
15.9496118076687,-15.9496118076687,26.5352742766881,                  51P     73
1.95326410479043D-15,0.,3.14159265358979,0.,0.,0.;                    51P     74
126,4,2,0,0,0,0,3.14159265358979,3.14159265358979,                    53P     75
3.14159265358979,4.71238898038469,4.71238898038469,                   53P     76
6.28318530717959,6.28318530717959,6.28318530717959,1.,                53P     77
0.707106781186548,1.,0.707106781186548,1.,-15.9496118076687,          53P     78
26.5352742766881,1.95326410479043D-15,-15.9496118076687,              53P     79
26.5352742766881,-15.9496118076687,-2.92989615718564D-15,             53P     80
26.5352742766881,-15.9496118076687,15.9496118076687,                  53P     81
26.5352742766881,-15.9496118076687,15.9496118076687,                  53P     82
26.5352742766881,-3.90652820958086D-15,3.14159265358979,              53P     83
6.28318530717959,0.,0.,0.;                                            53P     84
126,1,1,0,0,1,0,-0.100358443408042,-0.100358443408042,                55P     85
0.100358443408042,0.100358443408042,1.,1.,-15.9496118076687,          55P     86
26.5352742766881,0.,-13.4496118076687,28.1021871959632,0.,            55P     87
-0.100358443408042,0.100358443408042,0.,0.,0.;                        55P     88
126,4,2,0,0,0,0,0.,0.,0.,1.5707963267949,1.5707963267949,             57P     89
3.14159265358979,3.14159265358979,3.14159265358979,1.,                57P     90
0.707106781186548,1.,0.707106781186548,1.,15.9496118076687,           57P     91
21.6691001152384,0.,15.9496118076687,21.6691001152384,                57P     92
15.9496118076687,9.76632052395215D-16,21.6691001152384,               57P     93
15.9496118076687,-15.9496118076687,21.6691001152384,                  57P     94
15.9496118076687,-15.9496118076687,21.6691001152384,                  57P     95
1.95326410479043D-15,0.,3.14159265358979,0.,0.,0.;                    57P     96
126,4,2,0,0,0,0,3.14159265358979,3.14159265358979,                    59P     97
3.14159265358979,4.71238898038469,4.71238898038469,                   59P     98
6.28318530717959,6.28318530717959,6.28318530717959,1.,                59P     99
0.707106781186548,1.,0.707106781186548,1.,-15.9496118076687,          59P    100
21.6691001152384,1.95326410479043D-15,-15.9496118076687,              59P    101
21.6691001152384,-15.9496118076687,-2.92989615718564D-15,             59P    102
21.6691001152384,-15.9496118076687,15.9496118076687,                  59P    103
21.6691001152384,-15.9496118076687,15.9496118076687,                  59P    104
21.6691001152384,-3.90652820958086D-15,3.14159265358979,              59P    105
6.28318530717959,0.,0.,0.;                                            59P    106
126,1,1,0,0,1,0,-0.15254835729325,-0.15254835729325,                  61P    107
0.15254835729325,0.15254835729325,1.,1.,-15.9496118076687,            61P    108
21.6691001152384,0.,-15.9496118076687,26.5352742766881,0.,            61P    109
-0.15254835729325,0.15254835729325,0.,0.,0.;                          61P    110
126,4,2,0,0,0,0,0.,0.,0.,1.5707963267949,1.5707963267949,             63P    111
3.14159265358979,3.14159265358979,3.14159265358979,1.,                63P    112
0.707106781186548,1.,0.707106781186548,1.,13.4496118076687,           63P    113
20.1021871959632,0.,13.4496118076687,20.1021871959632,                63P    114
13.4496118076687,8.23551202501796D-16,20.1021871959632,               63P    115
13.4496118076687,-13.4496118076687,20.1021871959632,                  63P    116
13.4496118076687,-13.4496118076687,20.1021871959632,                  63P    117
1.64710240500359D-15,0.,3.14159265358979,0.,0.,0.;                    63P    118
126,4,2,0,0,0,0,3.14159265358979,3.14159265358979,                    65P    119
3.14159265358979,4.71238898038469,4.71238898038469,                   65P    120
6.28318530717959,6.28318530717959,6.28318530717959,1.,                65P    121
0.707106781186548,1.,0.707106781186548,1.,-13.4496118076687,          65P    122
20.1021871959632,1.64710240500359D-15,-13.4496118076687,              65P    123
20.1021871959632,-13.4496118076687,-2.47065360750539D-15,             65P    124
20.1021871959632,-13.4496118076687,13.4496118076687,                  65P    125
20.1021871959632,-13.4496118076687,13.4496118076687,                  65P    126
20.1021871959632,-3.29420481000718D-15,3.14159265358979,              65P    127
6.28318530717959,0.,0.,0.;                                            65P    128
126,1,1,0,0,1,0,-0.100358443408042,-0.100358443408042,                67P    129
0.100358443408043,0.100358443408043,1.,1.,-13.4496118076687,          67P    130
20.1021871959632,0.,-15.9496118076687,21.6691001152384,0.,            67P    131
-0.100358443408042,0.100358443408043,0.,0.,0.;                        67P    132
126,4,2,0,0,0,0,0.,0.,0.,1.5707963267949,1.5707963267949,             69P    133
3.14159265358979,3.14159265358979,3.14159265358979,1.,                69P    134
0.707106781186548,1.,0.707106781186548,1.,13.4496118076687,           69P    135
0.102187195963239,0.,13.4496118076687,0.102187195963239,              69P    136
13.4496118076687,8.23551202501796D-16,0.102187195963239,              69P    137
13.4496118076687,-13.4496118076687,0.102187195963239,                 69P    138
13.4496118076687,-13.4496118076687,0.102187195963239,                 69P    139
1.64710240500359D-15,0.,3.14159265358979,0.,0.,0.;                    69P    140
126,4,2,0,0,0,0,3.14159265358979,3.14159265358979,                    71P    141
3.14159265358979,4.71238898038469,4.71238898038469,                   71P    142
6.28318530717959,6.28318530717959,6.28318530717959,1.,                71P    143
0.707106781186548,1.,0.707106781186547,1.,-13.4496118076687,          71P    144
0.102187195963239,1.64710240500359D-15,-13.4496118076687,             71P    145
0.102187195963239,-13.4496118076687,-2.47065360750539D-15,            71P    146
0.102187195963239,-13.4496118076687,13.4496118076687,                 71P    147
0.102187195963239,-13.4496118076687,13.4496118076687,                 71P    148
0.102187195963239,-3.29420481000718D-15,3.14159265358979,             71P    149
6.28318530717959,0.,0.,0.;                                            71P    150
126,1,1,0,0,1,0,-0.743515883060521,-0.743515883060521,                73P    151
0.743515883060521,0.743515883060521,1.,1.,-13.4496118076687,          73P    152
0.102187195963239,0.,-13.4496118076687,20.1021871959632,0.,           73P    153
-0.743515883060521,0.743515883060521,0.,0.,0.;                        73P    154
126,4,2,0,0,0,0,0.,0.,0.,1.5707963267949,1.5707963267949,             75P    155
3.14159265358979,3.14159265358979,3.14159265358979,1.,                75P    156
0.707106781186548,1.,0.707106781186548,1.,11.4496118076687,           75P    157
0.102187195963239,0.,11.4496118076687,0.102187195963239,              75P    158
11.4496118076687,7.0108652258706D-16,0.102187195963239,               75P    159
11.4496118076687,-11.4496118076687,0.102187195963239,                 75P    160
11.4496118076687,-11.4496118076687,0.102187195963239,                 75P    161
1.40217304517412D-15,0.,3.14159265358979,0.,0.,0.;                    75P    162
126,4,2,0,0,0,0,3.14159265358979,3.14159265358979,                    77P    163
3.14159265358979,4.71238898038469,4.71238898038469,                   77P    164
6.28318530717959,6.28318530717959,6.28318530717959,1.,                77P    165
0.707106781186548,1.,0.707106781186547,1.,-11.4496118076687,          77P    166
0.102187195963239,1.40217304517412D-15,-11.4496118076687,             77P    167
0.102187195963239,-11.4496118076687,-2.10325956776118D-15,            77P    168
0.102187195963239,-11.4496118076687,11.4496118076687,                 77P    169
0.102187195963239,-11.4496118076687,11.4496118076687,                 77P    170
0.102187195963239,-2.80434609034824D-15,3.14159265358979,             77P    171
6.28318530717959,0.,0.,0.;                                            77P    172
126,1,1,0,0,1,0,-2.09614093500754,-2.09614093500754,                  79P    173
2.09614093500754,2.09614093500754,1.,1.,-11.4496118076687,            79P    174
0.102187195963239,0.,-11.4496118076687,48.1021871959632,0.,           79P    175
-2.09614093500754,2.09614093500754,0.,0.,0.;                          79P    176
126,4,2,0,0,0,0,0.,0.,0.,1.5707963267949,1.5707963267949,             81P    177
3.14159265358979,3.14159265358979,3.14159265358979,1.,                81P    178
0.707106781186548,1.,0.707106781186548,1.,11.4496118076687,           81P    179
48.1021871959632,0.,11.4496118076687,48.1021871959632,                81P    180
11.4496118076687,7.0108652258706D-16,48.1021871959632,                81P    181
11.4496118076687,-11.4496118076687,48.1021871959632,                  81P    182
11.4496118076687,-11.4496118076687,48.1021871959632,                  81P    183
1.40217304517412D-15,0.,3.14159265358979,0.,0.,0.;                    81P    184
126,4,2,0,0,0,0,3.14159265358979,3.14159265358979,                    83P    185
3.14159265358979,4.71238898038469,4.71238898038469,                   83P    186
6.28318530717959,6.28318530717959,6.28318530717959,1.,                83P    187
0.707106781186548,1.,0.707106781186547,1.,-11.4496118076687,          83P    188
48.1021871959632,1.40217304517412D-15,-11.4496118076687,              83P    189
48.1021871959632,-11.4496118076687,-2.10325956776118D-15,             83P    190
48.1021871959632,-11.4496118076687,11.4496118076687,                  83P    191
48.1021871959632,-11.4496118076687,11.4496118076687,                  83P    192
48.1021871959632,-2.80434609034824D-15,3.14159265358979,              83P    193
6.28318530717959,0.,0.,0.;                                            83P    194
128,1,8,1,2,0,1,0,0,1,-0.743515883060522,-0.743515883060522,          85P    195
0.743515883060521,0.743515883060521,-3.14159265358979,                85P    196
-3.14159265358979,-3.14159265358979,-1.5707963267949,                 85P    197
-1.5707963267949,0.,0.,1.5707963267949,1.5707963267949,               85P    198
3.14159265358979,3.14159265358979,3.14159265358979,1.,1.,             85P    199
0.707106781186548,0.707106781186548,1.,1.,0.707106781186548,          85P    200
0.707106781186548,1.,1.,0.707106781186548,0.707106781186548,1.,       85P    201
1.,0.707106781186548,0.707106781186548,1.,1.,-13.4496118076687,       85P    202
28.1021871959632,0.,-13.4496118076687,48.1021871959632,0.,            85P    203
-13.4496118076687,28.1021871959632,-13.4496118076687,                 85P    204
-13.4496118076687,48.1021871959632,-13.4496118076687,0.,              85P    205
28.1021871959632,-13.4496118076687,0.,48.1021871959632,               85P    206
-13.4496118076687,13.4496118076687,28.1021871959632,                  85P    207
-13.4496118076687,13.4496118076687,48.1021871959632,                  85P    208
-13.4496118076687,13.4496118076687,28.1021871959632,0.,               85P    209
13.4496118076687,48.1021871959632,0.,13.4496118076687,                85P    210
28.1021871959632,13.4496118076687,13.4496118076687,                   85P    211
48.1021871959632,13.4496118076687,0.,28.1021871959632,                85P    212
13.4496118076687,0.,48.1021871959632,13.4496118076687,                85P    213
-13.4496118076687,28.1021871959632,13.4496118076687,                  85P    214
-13.4496118076687,48.1021871959632,13.4496118076687,                  85P    215
-13.4496118076687,28.1021871959632,0.,-13.4496118076687,              85P    216
48.1021871959632,0.,-0.743515883060522,0.743515883060521,             85P    217
-3.14159265358979,3.14159265358979;                                   85P    218
128,1,8,1,2,0,1,0,0,1,-0.100358443408042,-0.100358443408042,          87P    219
0.100358443408042,0.100358443408042,-3.14159265358979,                87P    220
-3.14159265358979,-3.14159265358979,-1.5707963267949,                 87P    221
-1.5707963267949,0.,0.,1.5707963267949,1.5707963267949,               87P    222
3.14159265358979,3.14159265358979,3.14159265358979,1.,1.,             87P    223
0.707106781186548,0.707106781186548,1.,1.,0.707106781186548,          87P    224
0.707106781186548,1.,1.,0.707106781186548,0.707106781186548,1.,       87P    225
1.,0.707106781186548,0.707106781186548,1.,1.,-15.9496118076687,       87P    226
26.5352742766881,0.,-13.4496118076687,28.1021871959632,0.,            87P    227
-15.9496118076687,26.5352742766881,-15.9496118076687,                 87P    228
-13.4496118076687,28.1021871959632,-13.4496118076687,0.,              87P    229
26.5352742766881,-15.9496118076687,0.,28.1021871959632,               87P    230
-13.4496118076687,15.9496118076687,26.5352742766881,                  87P    231
-15.9496118076687,13.4496118076687,28.1021871959632,                  87P    232
-13.4496118076687,15.9496118076687,26.5352742766881,0.,               87P    233
13.4496118076687,28.1021871959632,0.,15.9496118076687,                87P    234
26.5352742766881,15.9496118076687,13.4496118076687,                   87P    235
28.1021871959632,13.4496118076687,0.,26.5352742766881,                87P    236
15.9496118076687,0.,28.1021871959632,13.4496118076687,                87P    237
-15.9496118076687,26.5352742766881,15.9496118076687,                  87P    238
-13.4496118076687,28.1021871959632,13.4496118076687,                  87P    239
-15.9496118076687,26.5352742766881,0.,-13.4496118076687,              87P    240
28.1021871959632,0.,-0.100358443408042,0.100358443408042,             87P    241
-3.14159265358979,3.14159265358979;                                   87P    242
128,1,8,1,2,0,1,0,0,1,-0.15254835729325,-0.15254835729325,            89P    243
0.15254835729325,0.15254835729325,-3.14159265358979,                  89P    244
-3.14159265358979,-3.14159265358979,-1.5707963267949,                 89P    245
-1.5707963267949,0.,0.,1.5707963267949,1.5707963267949,               89P    246
3.14159265358979,3.14159265358979,3.14159265358979,1.,1.,             89P    247
0.707106781186548,0.707106781186548,1.,1.,0.707106781186548,          89P    248
0.707106781186548,1.,1.,0.707106781186548,0.707106781186548,1.,       89P    249
1.,0.707106781186548,0.707106781186548,1.,1.,-15.9496118076687,       89P    250
21.6691001152384,0.,-15.9496118076687,26.5352742766881,0.,            89P    251
-15.9496118076687,21.6691001152384,-15.9496118076687,                 89P    252
-15.9496118076687,26.5352742766881,-15.9496118076687,0.,              89P    253
21.6691001152384,-15.9496118076687,0.,26.5352742766881,               89P    254
-15.9496118076687,15.9496118076687,21.6691001152384,                  89P    255
-15.9496118076687,15.9496118076687,26.5352742766881,                  89P    256
-15.9496118076687,15.9496118076687,21.6691001152384,0.,               89P    257
15.9496118076687,26.5352742766881,0.,15.9496118076687,                89P    258
21.6691001152384,15.9496118076687,15.9496118076687,                   89P    259
26.5352742766881,15.9496118076687,0.,21.6691001152384,                89P    260
15.9496118076687,0.,26.5352742766881,15.9496118076687,                89P    261
-15.9496118076687,21.6691001152384,15.9496118076687,                  89P    262
-15.9496118076687,26.5352742766881,15.9496118076687,                  89P    263
-15.9496118076687,21.6691001152384,0.,-15.9496118076687,              89P    264
26.5352742766881,0.,-0.15254835729325,0.15254835729325,               89P    265
-3.14159265358979,3.14159265358979;                                   89P    266
128,1,8,1,2,0,1,0,0,1,-0.100358443408043,-0.100358443408043,          91P    267
0.100358443408042,0.100358443408042,-3.14159265358979,                91P    268
-3.14159265358979,-3.14159265358979,-1.5707963267949,                 91P    269
-1.5707963267949,0.,0.,1.5707963267949,1.5707963267949,               91P    270
3.14159265358979,3.14159265358979,3.14159265358979,1.,1.,             91P    271
0.707106781186548,0.707106781186548,1.,1.,0.707106781186548,          91P    272
0.707106781186548,1.,1.,0.707106781186548,0.707106781186548,1.,       91P    273
1.,0.707106781186548,0.707106781186548,1.,1.,-13.4496118076687,       91P    274
20.1021871959632,0.,-15.9496118076687,21.6691001152384,0.,            91P    275
-13.4496118076687,20.1021871959632,-13.4496118076687,                 91P    276
-15.9496118076687,21.6691001152384,-15.9496118076687,0.,              91P    277
20.1021871959632,-13.4496118076687,0.,21.6691001152384,               91P    278
-15.9496118076687,13.4496118076687,20.1021871959632,                  91P    279
-13.4496118076687,15.9496118076687,21.6691001152384,                  91P    280
-15.9496118076687,13.4496118076687,20.1021871959632,0.,               91P    281
15.9496118076687,21.6691001152384,0.,13.4496118076687,                91P    282
20.1021871959632,13.4496118076687,15.9496118076687,                   91P    283
21.6691001152384,15.9496118076687,0.,20.1021871959632,                91P    284
13.4496118076687,0.,21.6691001152384,15.9496118076687,                91P    285
-13.4496118076687,20.1021871959632,13.4496118076687,                  91P    286
-15.9496118076687,21.6691001152384,15.9496118076687,                  91P    287
-13.4496118076687,20.1021871959632,0.,-15.9496118076687,              91P    288
21.6691001152384,0.,-0.100358443408043,0.100358443408042,             91P    289
-3.14159265358979,3.14159265358979;                                   91P    290
128,1,8,1,2,0,1,0,0,1,-0.743515883060521,-0.743515883060521,          93P    291
0.743515883060521,0.743515883060521,-3.14159265358979,                93P    292
-3.14159265358979,-3.14159265358979,-1.5707963267949,                 93P    293
-1.5707963267949,0.,0.,1.5707963267949,1.5707963267949,               93P    294
3.14159265358979,3.14159265358979,3.14159265358979,1.,1.,             93P    295
0.707106781186548,0.707106781186548,1.,1.,0.707106781186548,          93P    296
0.707106781186548,1.,1.,0.707106781186548,0.707106781186548,1.,       93P    297
1.,0.707106781186548,0.707106781186548,1.,1.,-13.4496118076687,       93P    298
0.102187195963239,0.,-13.4496118076687,20.1021871959632,0.,           93P    299
-13.4496118076687,0.102187195963239,-13.4496118076687,                93P    300
-13.4496118076687,20.1021871959632,-13.4496118076687,0.,              93P    301
0.102187195963239,-13.4496118076687,0.,20.1021871959632,              93P    302
-13.4496118076687,13.4496118076687,0.102187195963239,                 93P    303
-13.4496118076687,13.4496118076687,20.1021871959632,                  93P    304
-13.4496118076687,13.4496118076687,0.102187195963239,0.,              93P    305
13.4496118076687,20.1021871959632,0.,13.4496118076687,                93P    306
0.102187195963239,13.4496118076687,13.4496118076687,                  93P    307
20.1021871959632,13.4496118076687,0.,0.102187195963239,               93P    308
13.4496118076687,0.,20.1021871959632,13.4496118076687,                93P    309
-13.4496118076687,0.102187195963239,13.4496118076687,                 93P    310
-13.4496118076687,20.1021871959632,13.4496118076687,                  93P    311
-13.4496118076687,0.102187195963239,0.,-13.4496118076687,             93P    312
20.1021871959632,0.,-0.743515883060521,0.743515883060521,             93P    313
-3.14159265358979,3.14159265358979;                                   93P    314
128,1,1,1,1,0,0,1,0,0,-1.34596118076687,-1.34596118076687,            95P    315
1.34596118076687,1.34596118076687,-2.49092236153374,                  95P    316
-2.49092236153374,0.201,0.201,1.,1.,1.,1.,-13.4596118076687,          95P    317
0.102187195963235,13.4596118076687,-13.4596118076687,                 95P    318
0.102187195963235,-13.4596118076687,13.4596118076687,                 95P    319
0.102187195963235,13.4596118076687,13.4596118076687,                  95P    320
0.102187195963235,-13.4596118076687,-1.34596118076687,                95P    321
1.34596118076687,-2.49092236153374,0.201;                             95P    322
128,1,8,1,2,0,1,0,0,1,-2.09614093500754,-2.09614093500754,            97P    323
2.09614093500754,2.09614093500754,-3.14159265358979,                  97P    324
-3.14159265358979,-3.14159265358979,-1.5707963267949,                 97P    325
-1.5707963267949,0.,0.,1.5707963267949,1.5707963267949,               97P    326
3.14159265358979,3.14159265358979,3.14159265358979,1.,1.,             97P    327
0.707106781186548,0.707106781186548,1.,1.,0.707106781186548,          97P    328
0.707106781186548,1.,1.,0.707106781186548,0.707106781186548,1.,       97P    329
1.,0.707106781186548,0.707106781186548,1.,1.,-11.4496118076687,       97P    330
48.1021871959632,0.,-11.4496118076687,0.102187195963239,0.,           97P    331
-11.4496118076687,48.1021871959632,-11.4496118076687,                 97P    332
-11.4496118076687,0.102187195963239,-11.4496118076687,0.,             97P    333
48.1021871959632,-11.4496118076687,0.,0.102187195963239,              97P    334
-11.4496118076687,11.4496118076687,48.1021871959632,                  97P    335
-11.4496118076687,11.4496118076687,0.102187195963239,                 97P    336
-11.4496118076687,11.4496118076687,48.1021871959632,0.,               97P    337
11.4496118076687,0.102187195963239,0.,11.4496118076687,               97P    338
48.1021871959632,11.4496118076687,11.4496118076687,                   97P    339
0.102187195963239,11.4496118076687,0.,48.1021871959632,               97P    340
11.4496118076687,0.,0.102187195963239,11.4496118076687,               97P    341
-11.4496118076687,48.1021871959632,11.4496118076687,                  97P    342
-11.4496118076687,0.102187195963239,11.4496118076687,                 97P    343
-11.4496118076687,48.1021871959632,0.,-11.4496118076687,              97P    344
0.102187195963239,0.,-2.09614093500754,2.09614093500754,              97P    345
-3.14159265358979,3.14159265358979;                                   97P    346
128,1,1,1,1,0,0,1,0,0,-1.34596118076687,-1.34596118076687,            99P    347
1.34596118076687,1.34596118076687,-2.69092236153374,                  99P    348
-2.69092236153374,0.001,0.001,1.,1.,1.,1.,-13.4596118076687,          99P    349
48.1021871959632,-13.4596118076687,-13.4596118076687,                 99P    350
48.1021871959632,13.4596118076687,13.4596118076687,                   99P    351
48.1021871959632,-13.4596118076687,13.4596118076687,                  99P    352
48.1021871959632,13.4596118076687,-1.34596118076687,                  99P    353
1.34596118076687,-2.69092236153374,0.001;                             99P    354
502,16,13.4496118076687,28.1021871959632,0.,-13.4496118076687,       101P    355
28.1021871959632,0.,-13.4496118076687,48.1021871959632,0.,           101P    356
13.4496118076687,48.1021871959632,0.,15.9496118076687,               101P    357
26.5352742766881,0.,-15.9496118076687,26.5352742766881,0.,           101P    358
15.9496118076687,21.6691001152384,0.,-15.9496118076687,              101P    359
21.6691001152384,0.,13.4496118076687,20.1021871959632,0.,            101P    360
-13.4496118076687,20.1021871959632,0.,13.4496118076687,              101P    361
0.102187195963235,0.,-13.4496118076687,0.102187195963239,0.,         101P    362
11.4496118076687,0.102187195963235,0.,-11.4496118076687,             101P    363
0.102187195963239,0.,-11.4496118076687,48.1021871959632,0.,          101P    364
11.4496118076687,48.1021871959632,0.;                                101P    365
504,22,41,101,1,101,2,43,101,2,101,1,45,101,2,101,3,47,101,3,        103P    366
101,4,49,101,4,101,3,51,101,5,101,6,53,101,6,101,5,55,101,6,101,     103P    367
2,57,101,7,101,8,59,101,8,101,7,61,101,8,101,6,63,101,9,101,10,      103P    368
65,101,10,101,9,67,101,10,101,8,69,101,11,101,12,71,101,12,101,      103P    369
11,73,101,12,101,10,75,101,13,101,14,77,101,14,101,13,79,101,14,     103P    370
101,15,81,101,16,101,15,83,101,15,101,16;                            103P    371
406,1,5HBody1;                                                       105P    372
314,62.7450980392157,62.7450980392157,62.7450980392157,13HSteel      107P    373
- Satin;                                                             107P    374
S      1G      3D    108P    374                                        T      1
