0
SECTION
2
HEADER
9
$INSUNITS
70
4
9
$ACADVER
1
AC1014
9
$HANDSEED
5
FFFF
0
ENDSEC
0
SECTION
2
TABLES
0
TABLE
2
VPORT
5
8
100
AcDbSymbolTable
0
ENDTAB
0
TABLE
2
LTYPE
5
5
100
AcDbSymbolTable
0
LTYPE
5
14
100
AcDbSymbolTableRecord
100
AcDbLinetypeTableRecord
2
BYBLOCK
70
0
0
LTYPE
5
15
100
AcDbSymbolTableRecord
100
AcDbLinetypeTableRecord
2
BYLAYER
70
0
0
LTYPE
5
16
100
AcDbSymbolTableRecord
100
AcDbLinetypeTableRecord
2
DASHED
70
0
3
Dashed __ __ __ __ __ __ __ __ __ __ __ __ __ _
72
65
73
2
40
0.75
49
0.5
74
0
49
-0.25
74
0
0
ENDTAB
0
TABLE
2
LAYER
5
2
100
AcDbSymbolTable
70
2
0
LAYER
5
50
100
AcDbSymbolTableRecord
100
AcDbLayerTableRecord
2
0
70
0
62
7
6
CONTINUOUS
0
ENDTAB
0
TABLE
2
STYLE
5
3
100
AcDbSymbolTable
70
1
0
STYLE
5
11
100
AcDbSymbolTableRecord
100
AcDbTextStyleTableRecord
2
STANDARD
70
0
0
ENDTAB
0
TABLE
2
VIEW
5
6
100
AcDbSymbolTable
70
0
0
ENDTAB
0
TABLE
2
UCS
5
7
100
AcDbSymbolTable
70
0
0
ENDTAB
0
TABLE
2
APPID
5
9
100
AcDbSymbolTable
70
2
0
APPID
5
12
100
AcDbSymbolTableRecord
100
AcDbRegAppTableRecord
2
ACAD
70
0
0
ENDTAB
0
TABLE
2
DIMSTYLE
5
A
100
AcDbSymbolTable
70
1
0
ENDTAB
0
TABLE
2
BLOCK_RECORD
5
1
100
AcDbSymbolTable
70
1
0
BLOCK_RECORD
5
1F
100
AcDbSymbolTableRecord
100
AcDbBlockTableRecord
2
*MODEL_SPACE
0
BLOCK_RECORD
5
1B
100
AcDbSymbolTableRecord
100
AcDbBlockTableRecord
2
*PAPER_SPACE
0
ENDTAB
0
ENDSEC
0
SECTION
2
BLOCKS
0
BLOCK
5
20
100
AcDbEntity
100
AcDbBlockBegin
2
*MODEL_SPACE
0
ENDBLK
5
21
100
AcDbEntity
100
AcDbBlockEnd
0
BLOCK
5
1C
100
AcDbEntity
100
AcDbBlockBegin
2
*PAPER_SPACE
0
ENDBLK
5
1D
100
AcDbEntity
100
AcDbBlockEnd
0
ENDSEC
0
SECTION
2
ENTITIES
0
POINT
5
100
100
AcDbEntity
8
0
100
AcDbPoint
10
0
20
0
30
0
0
LWPOLYLINE
5
101
100
AcDbEntity
8
0
100
AcDbPolyline
90
8
70
1
43
0.0
10
0
20
0
10
-50
20
0
10
-50
20
115
10
-5.5511151231257827e-15
20
139.38662942829308
10
-1.7534845871562865
20
142.98180561348968
10
-51.753484587156308
20
118.59517618519666
10
-50
20
115
10
2.4651903288156619e-31
20
115
0
LINE
5
102
100
AcDbEntity
8
0
100
AcDbLine
10
-5.4990734188464785e-15
20
139.38662942829308
30
0
11
2.4651903288156619e-31
21
115
31
0
0
SPLINE
5
103
100
AcDbEntity
8
0
100
AcDbSpline
70
4
71
5
72
21
73
15
74
0
42
0.000000001
43
0.0000000001
44
0.0000000001
40
0
40
0
40
0
40
0
40
0
40
0
40
0.10000000000000001
40
0.20000000000000001
40
0.30000000000000004
40
0.40000000000000002
40
0.5
40
0.59999999999999998
40
0.69999999999999996
40
0.79999999999999993
40
0.89999999999999991
40
1
40
1
40
1
40
1
40
1
40
1
41
1
41
1
41
1
41
1
41
1
41
1
41
1
41
1
41
1
41
1
41
1
41
1
41
1
41
1
41
1
10
-50
20
115
30
0
10
-49.12860886029631
20
114.11616545652819
30
0
10
-47.465058711503467
20
112.32429500322247
30
0
10
-45.207437988764184
20
109.56388274741299
30
0
10
-42.680437124118214
20
105.73575235698422
30
0
10
-40.378652770543681
20
100.68882983320327
30
0
10
-38.999171039738371
20
95.360190996897018
30
0
10
-38.599314441410726
20
89.732326751093154
30
0
10
-39.178108346113099
20
83.805534795273076
30
0
10
-40.667651989130526
20
77.600555342657316
30
0
10
-42.985476761668352
20
71.14257833827233
30
0
10
-45.441729863778178
20
65.792318554242883
30
0
10
-47.599976384790644
20
61.683084549669644
30
0
10
-49.17696442629385
20
58.901395302566868
30
0
10
-50
20
57.5
30
0
0
SPLINE
5
104
100
AcDbEntity
8
0
100
AcDbSpline
70
4
71
5
72
21
73
15
74
0
42
0.000000001
43
0.0000000001
44
0.0000000001
40
0
40
0
40
0
40
0
40
0
40
0
40
0.10000000000000001
40
0.20000000000000001
40
0.30000000000000004
40
0.40000000000000002
40
0.5
40
0.59999999999999998
40
0.69999999999999996
40
0.79999999999999993
40
0.89999999999999991
40
1
40
1
40
1
40
1
40
1
40
1
41
1
41
1
41
1
41
1
41
1
41
1
41
1
41
1
41
1
41
1
41
1
41
1
41
1
41
1
41
1
10
-5.4990734188464785e-15
20
139.38662942829308
30
0
10
-0.83610911766596319
20
137.49207656374216
30
0
10
-2.4376467322623911
20
133.72468117859253
30
0
10
-4.6279251095369727
20
128.13871488849861
30
0
10
-7.1171442371251423
20
120.82319301166541
30
0
10
-9.4592535703217635
20
111.91512496657445
30
0
10
-10.955898855652062
20
103.26675066901417
30
0
10
-11.525675276951443
20
94.903074519608893
30
0
10
-11.104345114695576
20
86.84382785306002
30
0
10
-9.6987608328488282
20
79.086905858337531
30
0
10
-7.3698804178799806
20
71.613584607450619
30
0
10
-4.8220053453462404
20
65.845262605891833
30
0
10
-2.5494009538179432
20
61.63012072148782
30
0
10
-0.8761613179222425
20
58.868609830899643
30
0
10
1.2325951644078309e-31
20
57.5
30
0
0
ENDSEC
0
SECTION
2
OBJECTS
0
DICTIONARY
5
C
100
AcDbDictionary
3
ACAD_GROUP
350
D
3
ACAD_MLINESTYLE
350
17
0
DICTIONARY
5
D
100
AcDbDictionary
0
DICTIONARY
5
1A
330
C
100
AcDbDictionary
0
DICTIONARY
5
17
100
AcDbDictionary
0
ENDSEC
0
EOF
