0
SECTION
2
HEADER
9
$INSUNITS
70
4
9
$ACADVER
1
AC1014
9
$HANDSEED
5
FFFF
0
ENDSEC
0
SECTION
2
TABLES
0
TABLE
2
VPORT
5
8
100
AcDbSymbolTable
0
ENDTAB
0
TABLE
2
LTYPE
5
5
100
AcDbSymbolTable
0
LTYPE
5
14
100
AcDbSymbolTableRecord
100
AcDbLinetypeTableRecord
2
BYBLOCK
70
0
0
LTYPE
5
15
100
AcDbSymbolTableRecord
100
AcDbLinetypeTableRecord
2
BYLAYER
70
0
0
LTYPE
5
16
100
AcDbSymbolTableRecord
100
AcDbLinetypeTableRecord
2
DASHED
70
0
3
Dashed __ __ __ __ __ __ __ __ __ __ __ __ __ _
72
65
73
2
40
0.75
49
0.5
74
0
49
-0.25
74
0
0
ENDTAB
0
TABLE
2
LAYER
5
2
100
AcDbSymbolTable
70
2
0
LAYER
5
50
100
AcDbSymbolTableRecord
100
AcDbLayerTableRecord
2
0
70
0
62
7
6
CONTINUOUS
0
ENDTAB
0
TABLE
2
STYLE
5
3
100
AcDbSymbolTable
70
1
0
STYLE
5
11
100
AcDbSymbolTableRecord
100
AcDbTextStyleTableRecord
2
STANDARD
70
0
0
ENDTAB
0
TABLE
2
VIEW
5
6
100
AcDbSymbolTable
70
0
0
ENDTAB
0
TABLE
2
UCS
5
7
100
AcDbSymbolTable
70
0
0
ENDTAB
0
TABLE
2
APPID
5
9
100
AcDbSymbolTable
70
2
0
APPID
5
12
100
AcDbSymbolTableRecord
100
AcDbRegAppTableRecord
2
ACAD
70
0
0
ENDTAB
0
TABLE
2
DIMSTYLE
5
A
100
AcDbSymbolTable
70
1
0
ENDTAB
0
TABLE
2
BLOCK_RECORD
5
1
100
AcDbSymbolTable
70
1
0
BLOCK_RECORD
5
1F
100
AcDbSymbolTableRecord
100
AcDbBlockTableRecord
2
*MODEL_SPACE
0
BLOCK_RECORD
5
1B
100
AcDbSymbolTableRecord
100
AcDbBlockTableRecord
2
*PAPER_SPACE
0
ENDTAB
0
ENDSEC
0
SECTION
2
BLOCKS
0
BLOCK
5
20
100
AcDbEntity
100
AcDbBlockBegin
2
*MODEL_SPACE
0
ENDBLK
5
21
100
AcDbEntity
100
AcDbBlockEnd
0
BLOCK
5
1C
100
AcDbEntity
100
AcDbBlockBegin
2
*PAPER_SPACE
0
ENDBLK
5
1D
100
AcDbEntity
100
AcDbBlockEnd
0
ENDSEC
0
SECTION
2
ENTITIES
0
POINT
5
100
100
AcDbEntity
8
0
100
AcDbPoint
10
0
20
0
30
0
0
LINE
5
101
100
AcDbEntity
8
0
100
AcDbLine
10
0
20
-8.0758482000186547
30
0
11
-5.930444107613102
21
-6.3647596891147273
31
0
0
LINE
5
102
100
AcDbEntity
8
0
100
AcDbLine
10
-5.930444107613102
20
-6.3647596891147273
30
0
11
-5.930444107613102
21
4.0964379212917281
31
0
0
SPLINE
5
103
100
AcDbEntity
8
0
100
AcDbSpline
70
4
71
5
72
16
73
10
74
0
42
0.000000001
43
0.0000000001
44
0.0000000001
40
0
40
0
40
0
40
0
40
0
40
0
40
0.20000000000000001
40
0.40000000000000002
40
0.60000000000000009
40
0.80000000000000004
40
1
40
1
40
1
40
1
40
1
40
1
41
1
41
1
41
1
41
1
41
1
41
1
41
1
41
1
41
1
41
1
10
-5.930444107613102
20
4.0964379212917281
30
0
10
-5.7685124449239114
20
4.3117668570212588
30
0
10
-5.4362465397771276
20
4.7366208004817381
30
0
10
-4.9126505410040089
20
5.3564972522252283
30
0
10
-4.1606262635772078
20
6.145771320764676
30
0
10
-3.0868231585712067
20
7.0399628250693631
30
0
10
-2.0533287128970716
20
7.6348165328048614
30
0
10
-1.1307889406271419
20
7.9791298836104216
30
0
10
-0.43975825006491209
20
8.1561736258741462
30
0
10
-0.075224752369251746
20
8.231559056731399
30
0
0
LINE
5
104
100
AcDbEntity
8
0
100
AcDbLine
10
0
20
0
30
0
11
0
21
-8.0758482000186547
31
0
0
LINE
5
105
100
AcDbEntity
8
0
100
AcDbLine
10
-0.075224752369251746
20
8.231559056731399
30
0
11
-0.075224752369251746
21
4.732906219240185
31
0
0
LINE
5
106
100
AcDbEntity
8
0
100
AcDbLine
10
-3.3568898702081107
20
1.7314614128332906
30
0
11
-3.3568898702081107
21
2.3745341129682629
31
0
0
LINE
5
107
100
AcDbEntity
8
0
100
AcDbLine
10
0
20
-8.0758482000186547
30
0
11
5.7999998703598976
21
-6.3999998569488525
31
0
0
LINE
5
108
100
AcDbEntity
8
0
100
AcDbLine
10
5.7999998703598976
20
-6.3999998569488525
30
0
11
5.7999998703598976
21
4.0690689856379683
31
0
0
LINE
5
109
100
AcDbEntity
8
0
100
AcDbLine
10
-5.930444107613102
20
-0.69109067990581252
30
0
11
5.7999998703598976
21
1.7999999597668648
31
0
0
LINE
5
110
100
AcDbEntity
8
0
100
AcDbLine
10
-3.3568898702081107
20
-0.14456772787366529
30
0
11
-3.3568898702081107
21
1.4546039381589537
31
0
0
LINE
5
111
100
AcDbEntity
8
0
100
AcDbLine
10
-0.18140026329331538
20
0.5297829148656239
30
0
11
-0.18140026329331538
21
3.1308845350410053
31
0
0
LINE
5
112
100
AcDbEntity
8
0
100
AcDbLine
10
0.029043015365162184
20
0.57447289272429769
30
0
11
0.029043015365162184
21
3.1264830074241896
31
0
0
LINE
5
113
100
AcDbEntity
8
0
100
AcDbLine
10
1.5318135115443048
20
0.89360297199817063
30
0
11
1.5318135115443048
21
2.5760687395734534
31
0
0
LINE
5
114
100
AcDbEntity
8
0
100
AcDbLine
10
1.7384491168202343
20
0.93748434793692936
30
0
11
1.7384491168202343
21
2.4693496172018445
31
0
0
LINE
5
115
100
AcDbEntity
8
0
100
AcDbLine
10
-5.930444107613102
20
-4.5161322908257127
30
0
11
5.7999998703598976
21
-2.0250416511530349
31
0
0
SPLINE
5
116
100
AcDbEntity
8
0
100
AcDbSpline
70
4
71
5
72
16
73
10
74
0
42
0.000000001
43
0.0000000001
44
0.0000000001
40
0
40
0
40
0
40
0
40
0
40
0
40
0.20000000000000001
40
0.40000000000000002
40
0.60000000000000009
40
0.80000000000000004
40
1
40
1
40
1
40
1
40
1
40
1
41
1
41
1
41
1
41
1
41
1
41
1
41
1
41
1
41
1
41
1
10
-3.3568898702081107
20
1.4546039381589537
30
0
10
-3.231484332438562
20
1.5644223638034929
30
0
10
-2.9839225420489162
20
1.7709383130274747
30
0
10
-2.622315402418729
20
2.0413855489093562
30
0
10
-2.1538933705252932
20
2.3347048620739792
30
0
10
-1.5619027155342726
20
2.6304402550868433
30
0
10
-1.0532460142848374
20
2.8377040905706878
30
0
10
-0.63461197578921502
20
2.9861799743557893
30
0
10
-0.33576666001696592
20
3.0830087223527207
30
0
10
-0.18140026329331538
20
3.1308845350410053
30
0
0
SPLINE
5
117
100
AcDbEntity
8
0
100
AcDbSpline
70
4
71
5
72
16
73
10
74
0
42
0.000000001
43
0.0000000001
44
0.0000000001
40
0
40
0
40
0
40
0
40
0
40
0
40
0.20000000000000001
40
0.40000000000000002
40
0.60000000000000009
40
0.80000000000000004
40
1
40
1
40
1
40
1
40
1
40
1
41
1
41
1
41
1
41
1
41
1
41
1
41
1
41
1
41
1
41
1
10
-3.3568898702081107
20
1.7314614128332906
30
0
10
-3.2467468975573981
20
1.8161759002658053
30
0
10
-3.021446561216016
20
1.9835621653834128
30
0
10
-2.6684653211667193
20
2.2285158215881999
30
0
10
-2.1709613464761932
20
2.5418545763549516
30
0
10
-1.5125726857853403
20
2.8996697193208352
30
0
10
-0.95808033029665274
20
3.1411553274744142
30
0
10
-0.52432619760776744
20
3.2842674079769725
30
0
10
-0.22638788213160649
20
3.3600689098259995
30
0
10
-0.075224752369251899
20
3.3930636024203427
30
0
0
LINE
5
118
100
AcDbEntity
8
0
100
AcDbLine
10
-1.6437100705253216
20
0.21924511425573875
30
0
11
-1.6437100705253216
21
2.578434474825797
31
0
0
LINE
5
119
100
AcDbEntity
8
0
100
AcDbLine
10
-1.8759263058696773
20
0.16993140615290953
30
0
11
-1.8759263058696773
21
2.4651101883474489
31
0
0
SPLINE
5
120
100
AcDbEntity
8
0
100
AcDbSpline
70
4
71
5
72
16
73
10
74
0
42
0.000000001
43
0.0000000001
44
0.0000000001
40
0
40
0
40
0
40
0
40
0
40
0
40
0.20000000000000001
40
0.40000000000000002
40
0.60000000000000009
40
0.80000000000000004
40
1
40
1
40
1
40
1
40
1
40
1
41
1
41
1
41
1
41
1
41
1
41
1
41
1
41
1
41
1
41
1
10
-3.3568898702081107
20
2.3745341129682629
30
0
10
-3.2294306782355959
20
2.5150910778898412
30
0
10
-2.9786649092164774
20
2.7848607598721209
30
0
10
-2.614957884258355
20
3.1555111124265189
30
0
10
-2.1471302855748782
20
3.5893173004785641
30
0
10
-1.5506517040655476
20
4.0520639572208603
30
0
10
-1.0226061886394584
20
4.3648435752725234
30
0
10
-0.57354886497295177
20
4.5639560457487853
30
0
10
-0.24602871692734382
20
4.6794640108105368
30
0
10
-0.075224752369251746
20
4.732906219240185
30
0
0
LINE
5
121
100
AcDbEntity
8
0
100
AcDbLine
10
-0.075224752369251746
20
4.732906219240185
30
0
11
-0.075224752369251899
21
3.3930636024203427
31
0
6
DASHED
0
SPLINE
5
122
100
AcDbEntity
8
0
100
AcDbSpline
70
4
71
5
72
16
73
10
74
0
42
0.000000001
43
0.0000000001
44
0.0000000001
40
0
40
0
40
0
40
0
40
0
40
0
40
0.20000000000000001
40
0.40000000000000002
40
0.60000000000000009
40
0.80000000000000004
40
1
40
1
40
1
40
1
40
1
40
1
41
1
41
1
41
1
41
1
41
1
41
1
41
1
41
1
41
1
41
1
10
3.4204286323691937
20
1.2946714616704724
30
0
10
3.3207214911464353
20
1.3797773285394981
30
0
10
3.117128038934263
20
1.5486133690922683
30
0
10
2.799205622541856
20
1.7977420855402271
30
0
10
2.3485028118682987
20
2.1210896622535187
30
0
10
1.7185900813960455
20
2.5033724937753443
30
0
10
1.1278931677473127
20
2.7806370099296061
30
0
10
0.61154909958276127
20
2.9644495680500826
30
0
10
0.22951771689269138
20
3.0745476633502338
30
0
10
0.029043015365162184
20
3.1264830074241896
30
0
0
LINE
5
123
100
AcDbEntity
8
0
100
AcDbLine
10
-5.2933199266345587
20
-0.55579025252859915
30
0
11
-5.2933199266345587
21
3.9181841171686012
31
0
0
LINE
5
124
100
AcDbEntity
8
0
100
AcDbLine
10
-5.2933199266345587
20
3.9181841171686012
30
0
11
-4.6277316922669005
21
4.6880296775807482
31
0
0
LINE
5
125
100
AcDbEntity
8
0
100
AcDbLine
10
-2.721008958677146
20
3.0395273247201935
30
0
11
-5.1110103551955177
21
5.1058597054554475
31
0
0
LINE
5
126
100
AcDbEntity
8
0
100
AcDbLine
10
-4.4565799566759301
20
5.8053289556731578
30
0
11
-2.2858532185485956
21
3.4466153645943862
31
0
0
LINE
5
127
100
AcDbEntity
8
0
100
AcDbLine
10
-4.1819764867021725
20
5.5069445826390524
30
0
11
-4.7464394628229991
21
5.5069445826390524
31
0
0
LINE
5
128
100
AcDbEntity
8
0
100
AcDbLine
10
-1.7500835404711172
20
3.8819128377648098
30
0
11
-3.6248749410573615
21
6.5588890217175724
31
0
0
LINE
5
129
100
AcDbEntity
8
0
100
AcDbLine
10
-3.3586374445768827
20
6.1787339617303196
30
0
11
-4.0655606071773134
21
6.1787339617303196
31
0
0
LINE
5
130
100
AcDbEntity
8
0
100
AcDbLine
10
-3.3707746534487337
20
6.7583943316923198
30
0
11
-2.4245628740979503
21
6.624792395464385
31
0
0
LINE
5
131
100
AcDbEntity
8
0
100
AcDbLine
10
-1.1435534306881046
20
4.2756668503119899
30
0
11
-2.7356465687112026
21
7.1952602069671396
31
0
0
LINE
5
132
100
AcDbEntity
8
0
100
AcDbLine
10
-0.38342538187813274
20
4.6274805145559661
30
0
11
-1.6033005321199048
21
7.7731107783146935
31
0
0
LINE
5
133
100
AcDbEntity
8
0
100
AcDbLine
10
-1.3832234537275634
20
7.2056091630769821
30
0
11
-2.4656872327936528
21
7.3552335993648477
31
0
0
LINE
5
134
100
AcDbEntity
8
0
100
AcDbLine
10
-4.6400712969934581
20
-0.41706561859882724
30
0
11
-4.6400712969934581
21
3.6999609625321157
31
0
0
LINE
5
135
100
AcDbEntity
8
0
100
AcDbLine
10
-4.6400712969934581
20
3.6999609625321157
30
0
11
-4.1459436771726734
21
4.2714884246385507
31
0
0
LINE
5
136
100
AcDbEntity
8
0
100
AcDbLine
10
-3.6544920624125772
20
3.8465922774552279
30
0
11
-4.0035786552898358
21
3.4428249783212843
31
0
0
LINE
5
137
100
AcDbEntity
8
0
100
AcDbLine
10
-4.0035786552898358
20
3.4428249783212843
30
0
11
-4.0035786552898358
21
-0.28189930563183413
31
0
0
SPLINE
5
138
100
AcDbEntity
8
0
100
AcDbSpline
70
4
71
5
72
16
73
10
74
0
42
0.000000001
43
0.0000000001
44
0.0000000001
40
0
40
0
40
0
40
0
40
0
40
0
40
0.20000000000000001
40
0.40000000000000002
40
0.60000000000000009
40
0.80000000000000004
40
1
40
1
40
1
40
1
40
1
40
1
41
1
41
1
41
1
41
1
41
1
41
1
41
1
41
1
41
1
41
1
10
3.2064403654696068
20
2.374534112968262
30
0
10
3.078981173497092
20
2.5150910778898403
30
0
10
2.8282154044779735
20
2.7848607598721205
30
0
10
2.4645083795198506
20
3.1555111124265185
30
0
10
1.9966807808363747
20
3.5893173004785632
30
0
10
1.4002021993270439
20
4.0520639572208603
30
0
10
0.8721566839009548
20
4.3648435752725234
30
0
10
0.42309936023444822
20
4.5639560457487853
30
0
10
0.095579212188840301
20
4.6794640108105368
30
0
10
-0.07522475236925176
20
4.732906219240185
30
0
0
SPLINE
5
139
100
AcDbEntity
8
0
100
AcDbSpline
70
4
71
5
72
16
73
10
74
0
42
0.000000001
43
0.0000000001
44
0.0000000001
40
0
40
0
40
0
40
0
40
0
40
0
40
0.20000000000000001
40
0.40000000000000002
40
0.60000000000000009
40
0.80000000000000004
40
1
40
1
40
1
40
1
40
1
40
1
41
1
41
1
41
1
41
1
41
1
41
1
41
1
41
1
41
1
41
1
10
3.2064403654696068
20
1.7314614128332897
30
0
10
3.0962973928188942
20
1.8161759002658044
30
0
10
2.8709970564775116
20
1.9835621653834121
30
0
10
2.5180158164282149
20
2.2285158215881991
30
0
10
2.0205118417376893
20
2.5418545763549512
30
0
10
1.3621231810468362
20
2.8996697193208347
30
0
10
0.8076308255581488
20
3.1411553274744142
30
0
10
0.37387669286926362
20
3.2842674079769725
30
0
10
0.075938377393102691
20
3.3600689098259995
30
0
10
-0.075224752369251913
20
3.3930636024203427
30
0
0
LINE
5
140
100
AcDbEntity
8
0
100
AcDbLine
10
3.2064403654696063
20
1.7314614128332901
30
0
11
3.2064403654696072
21
2.374534112968262
31
0
0
LINE
5
141
100
AcDbEntity
8
0
100
AcDbLine
10
3.5040425576740737
20
3.8465922774552275
30
0
11
3.8531291505513323
21
3.4428249783212839
31
0
0
LINE
5
142
100
AcDbEntity
8
0
100
AcDbLine
10
4.4896217922549546
20
3.6999609625321144
30
0
11
3.9954941724341704
21
4.2714884246385498
31
0
0
LINE
5
143
100
AcDbEntity
8
0
100
AcDbLine
10
5.1428704218960553
20
3.9181841171685998
30
0
11
4.477282187528397
21
4.6880296775807473
31
0
0
LINE
5
144
100
AcDbEntity
8
0
100
AcDbLine
10
0.23297587713962925
20
4.6274805145559661
30
0
11
1.4528510273814019
21
7.7731107783146935
31
0
0
LINE
5
145
100
AcDbEntity
8
0
100
AcDbLine
10
1.2327739489890606
20
7.2056091630769821
30
0
11
2.3152377280551502
21
7.3552335993648477
31
0
0
LINE
5
146
100
AcDbEntity
8
0
100
AcDbLine
10
0.99310392594960106
20
4.2756668503119899
30
0
11
2.5851970639727
21
7.1952602069671396
31
0
0
LINE
5
147
100
AcDbEntity
8
0
100
AcDbLine
10
3.2203251487102302
20
6.758394331692319
30
0
11
2.2741133693594473
21
6.624792395464385
31
0
0
LINE
5
148
100
AcDbEntity
8
0
100
AcDbLine
10
1.5996340357326138
20
3.8819128377648093
30
0
11
3.474425436318858
21
6.5588890217175706
31
0
0
LINE
5
149
100
AcDbEntity
8
0
100
AcDbLine
10
3.2081879398383792
20
6.1787339617303179
30
0
11
3.9151111024388103
21
6.1787339617303179
31
0
0
LINE
5
150
100
AcDbEntity
8
0
100
AcDbLine
10
4.3061304519374266
20
5.8053289556731569
30
0
11
2.1354037138100916
21
3.4466153645943858
31
0
0
LINE
5
151
100
AcDbEntity
8
0
100
AcDbLine
10
4.031526981963669
20
5.5069445826390515
30
0
11
4.5959899580844956
21
5.5069445826390515
31
0
0
LINE
5
152
100
AcDbEntity
8
0
100
AcDbLine
10
2.5705594539386425
20
3.039527324720193
30
0
11
4.9605608504570142
21
5.1058597054554467
31
0
0
SPLINE
5
153
100
AcDbEntity
8
0
100
AcDbSpline
70
4
71
5
72
16
73
10
74
0
42
0.000000001
43
0.0000000001
44
0.0000000001
40
0
40
0
40
0
40
0
40
0
40
0
40
0.20000000000000001
40
0.40000000000000002
40
0.60000000000000009
40
0.80000000000000004
40
1
40
1
40
1
40
1
40
1
40
1
41
1
41
1
41
1
41
1
41
1
41
1
41
1
41
1
41
1
41
1
10
5.7799946028745985
20
4.0964379212917272
30
0
10
5.6180629401854079
20
4.3117668570212579
30
0
10
5.2857970350386241
20
4.7366208004817372
30
0
10
4.7622010362655054
20
5.3564972522252274
30
0
10
4.0101767588387052
20
6.1457713207646751
30
0
10
2.9363736538327041
20
7.0399628250693622
30
0
10
1.9028792081585688
20
7.6348165328048614
30
0
10
0.98033943588863914
20
7.9791298836104216
30
0
10
0.28930874532640932
20
8.1561736258741462
30
0
10
-0.075224752369250941
20
8.231559056731399
30
0
0
LINE
5
154
100
AcDbEntity
8
0
100
AcDbLine
10
5.7999998703598976
20
4.0690689856379683
30
0
11
5.7799946028745985
21
4.0964379212917272
31
0
0
LINE
5
155
100
AcDbEntity
8
0
100
AcDbLine
10
5.1428704218960553
20
3.9181841171685998
30
0
11
5.1428704218960553
21
1.6604511906669579
31
0
0
LINE
5
156
100
AcDbEntity
8
0
100
AcDbLine
10
4.4896217922549546
20
3.6999609625321144
30
0
11
4.4896217922549546
21
1.5217265567371903
31
0
0
LINE
5
157
100
AcDbEntity
8
0
100
AcDbLine
10
3.8531291505513323
20
3.4428249783212839
30
0
11
3.8531291505513323
21
1.3865602437702012
31
0
0
LINE
5
158
100
AcDbEntity
8
0
100
AcDbLine
10
-3.3641500907022044
20
-3.9711511276081031
30
0
11
-3.3641500907022044
21
-4.4248458568749127
31
0
0
LINE
5
159
100
AcDbEntity
8
0
100
AcDbLine
10
-3.3641500907022044
20
-4.4248458568749127
30
0
11
3.2412988999394292
21
-4.4248458568749127
31
0
0
LINE
5
160
100
AcDbEntity
8
0
100
AcDbLine
10
3.2412988999394292
20
-4.4248458568749127
30
0
11
3.2412988999394301
21
-2.5684103462428891
31
0
0
LINE
5
161
100
AcDbEntity
8
0
100
AcDbLine
10
3.1416935353701367
20
-7.168089230472944
30
0
11
1.8475914717482989
21
-6.1928309725744102
31
0
0
LINE
5
162
100
AcDbEntity
8
0
100
AcDbLine
10
1.8475914717482989
20
-6.1928309725744102
30
0
11
1.1199553405045903
21
-7.4244645132096396
31
0
0
LINE
5
163
100
AcDbEntity
8
0
100
AcDbLine
10
1.1199553405045903
20
-7.4244645132096396
30
0
11
-1.7876916800362976
21
-7.560052310327718
31
0
0
LINE
5
164
100
AcDbEntity
8
0
100
AcDbLine
10
-2.1573204914702728
20
-7.4534047134417092
30
0
11
-2.3513065595489131
21
-7.0857652895349519
31
0
0
LINE
5
165
100
AcDbEntity
8
0
100
AcDbLine
10
-2.3513065595489131
20
-7.0857652895349519
30
0
11
-1.9535478389987015
21
-7.1643791399462824
31
0
0
LINE
5
166
100
AcDbEntity
8
0
100
AcDbLine
10
-1.9535478389987015
20
-7.1643791399462824
30
0
11
-1.0888821803978019
21
-6.8588854267863564
31
0
0
LINE
5
167
100
AcDbEntity
8
0
100
AcDbLine
10
-1.0888821803978019
20
-6.8588854267863564
30
0
11
-1.6188087169605918
21
-6.0810116116483171
31
0
0
LINE
5
168
100
AcDbEntity
8
0
100
AcDbLine
10
-1.6188087169605918
20
-6.0810116116483171
30
0
11
-3.1355219799049898
21
-7.1711679537931259
31
0
0
LINE
5
169
100
AcDbEntity
8
0
100
AcDbLine
10
5.1596532995605893
20
-2.1610263889566501
30
0
11
5.1596532995605893
21
-5.7258241912730679
31
0
0
LINE
5
170
100
AcDbEntity
8
0
100
AcDbLine
10
5.1596532995605893
20
-5.7258241912730679
30
0
11
3.5923511695067361
21
-6.1915312110534373
31
0
0
LINE
5
171
100
AcDbEntity
8
0
100
AcDbLine
10
3.5923511695067361
20
-6.1915312110534373
30
0
11
1.9170388014099204
21
-4.8573262581103558
31
0
0
LINE
5
172
100
AcDbEntity
8
0
100
AcDbLine
10
1.9170388014099204
20
-4.8573262581103558
30
0
11
0.85053840213179321
21
-7.1349738719533198
31
0
0
LINE
5
173
100
AcDbEntity
8
0
100
AcDbLine
10
0.85053840213179321
20
-7.1349738719533198
30
0
11
-0.51820907386483095
21
-7.2925741333851075
31
0
0
LINE
5
174
100
AcDbEntity
8
0
100
AcDbLine
10
-0.51820907386483095
20
-7.2925741333851075
30
0
11
-0.2483456125090297
21
-6.7355759491467335
31
0
0
LINE
5
175
100
AcDbEntity
8
0
100
AcDbLine
10
-0.2483456125090297
20
-6.7355759491467335
30
0
11
-0.74921219678539763
21
-6.8327267952348256
31
0
0
LINE
5
176
100
AcDbEntity
8
0
100
AcDbLine
10
-0.74921219678539763
20
-6.8327267952348256
30
0
11
-1.6753835961585066
21
-4.77744667354904
31
0
0
LINE
5
177
100
AcDbEntity
8
0
100
AcDbLine
10
-1.6753835961585066
20
-4.77744667354904
30
0
11
-3.2859287335299352
21
-6.2714107956147691
31
0
0
LINE
5
178
100
AcDbEntity
8
0
100
AcDbLine
10
-3.2859287335299352
20
-6.2714107956147691
30
0
11
-5.2764416244903201
21
-5.6431686575784514
31
0
0
LINE
5
179
100
AcDbEntity
8
0
100
AcDbLine
10
-5.2764416244903201
20
-5.6431686575784514
30
0
11
-5.2764416244903201
21
-4.3772475676993707
31
0
0
LINE
5
180
100
AcDbEntity
8
0
100
AcDbLine
10
-4.6450016228365909
20
-5.8424626277316403
30
0
11
-4.6450016228365909
21
-4.2431542392125561
31
0
0
LINE
5
181
100
AcDbEntity
8
0
100
AcDbLine
10
-4.001664738864263
20
-4.1065344750477069
30
0
11
-4.001664738864263
21
-6.0455114707207418
31
0
0
LINE
5
182
100
AcDbEntity
8
0
100
AcDbLine
10
3.8626203232121012
20
-2.4364658107548034
30
0
11
3.8626203232121012
21
-6.1112236304682153
31
0
0
LINE
5
183
100
AcDbEntity
8
0
100
AcDbLine
10
4.5100084389640021
20
-5.9188591946349742
30
0
11
4.5100084389640021
21
-2.2989857223273606
31
0
0
LINE
5
184
100
AcDbEntity
8
0
100
AcDbLine
10
-1.6753835961585066
20
-4.77744667354904
30
0
11
1.9170388014099204
21
-4.8573262581103558
31
0
0
ENDSEC
0
SECTION
2
OBJECTS
0
DICTIONARY
5
C
100
AcDbDictionary
3
ACAD_GROUP
350
D
3
ACAD_MLINESTYLE
350
17
0
DICTIONARY
5
D
100
AcDbDictionary
0
DICTIONARY
5
1A
330
C
100
AcDbDictionary
0
DICTIONARY
5
17
100
AcDbDictionary
0
ENDSEC
0
EOF
