0
SECTION
2
HEADER
9
$INSUNITS
70
4
9
$ACADVER
1
AC1014
9
$HANDSEED
5
FFFF
0
ENDSEC
0
SECTION
2
TABLES
0
TABLE
2
VPORT
5
8
100
AcDbSymbolTable
0
ENDTAB
0
TABLE
2
LTYPE
5
5
100
AcDbSymbolTable
0
LTYPE
5
14
100
AcDbSymbolTableRecord
100
AcDbLinetypeTableRecord
2
BYBLOCK
70
0
0
LTYPE
5
15
100
AcDbSymbolTableRecord
100
AcDbLinetypeTableRecord
2
BYLAYER
70
0
0
LTYPE
5
16
100
AcDbSymbolTableRecord
100
AcDbLinetypeTableRecord
2
DASHED
70
0
3
Dashed __ __ __ __ __ __ __ __ __ __ __ __ __ _
72
65
73
2
40
0.75
49
0.5
74
0
49
-0.25
74
0
0
ENDTAB
0
TABLE
2
LAYER
5
2
100
AcDbSymbolTable
70
2
0
LAYER
5
50
100
AcDbSymbolTableRecord
100
AcDbLayerTableRecord
2
0
70
0
62
7
6
CONTINUOUS
0
ENDTAB
0
TABLE
2
STYLE
5
3
100
AcDbSymbolTable
70
1
0
STYLE
5
11
100
AcDbSymbolTableRecord
100
AcDbTextStyleTableRecord
2
STANDARD
70
0
0
ENDTAB
0
TABLE
2
VIEW
5
6
100
AcDbSymbolTable
70
0
0
ENDTAB
0
TABLE
2
UCS
5
7
100
AcDbSymbolTable
70
0
0
ENDTAB
0
TABLE
2
APPID
5
9
100
AcDbSymbolTable
70
2
0
APPID
5
12
100
AcDbSymbolTableRecord
100
AcDbRegAppTableRecord
2
ACAD
70
0
0
ENDTAB
0
TABLE
2
DIMSTYLE
5
A
100
AcDbSymbolTable
70
1
0
ENDTAB
0
TABLE
2
BLOCK_RECORD
5
1
100
AcDbSymbolTable
70
1
0
BLOCK_RECORD
5
1F
100
AcDbSymbolTableRecord
100
AcDbBlockTableRecord
2
*MODEL_SPACE
0
BLOCK_RECORD
5
1B
100
AcDbSymbolTableRecord
100
AcDbBlockTableRecord
2
*PAPER_SPACE
0
ENDTAB
0
ENDSEC
0
SECTION
2
BLOCKS
0
BLOCK
5
20
100
AcDbEntity
100
AcDbBlockBegin
2
*MODEL_SPACE
0
ENDBLK
5
21
100
AcDbEntity
100
AcDbBlockEnd
0
BLOCK
5
1C
100
AcDbEntity
100
AcDbBlockBegin
2
*PAPER_SPACE
0
ENDBLK
5
1D
100
AcDbEntity
100
AcDbBlockEnd
0
ENDSEC
0
SECTION
2
ENTITIES
0
SPLINE
5
100
100
AcDbEntity
8
0
100
AcDbSpline
70
4
71
3
72
8
73
4
74
0
42
0.000000001
43
0.0000000001
44
0.0000000001
40
-1
40
-1
40
-1
40
-1
40
0
40
0
40
0
40
0
41
1
41
1
41
1
41
1
10
-0.036331546948156213
20
-10.647940247983758
30
0
10
-0.17469407418886806
20
-12.118050511954728
30
0
10
-0.15739892322570892
20
-12.239117888232279
30
0
10
0.11932745079115126
20
-12.239117888232279
30
0
0
SPLINE
5
101
100
AcDbEntity
8
0
100
AcDbSpline
70
4
71
3
72
8
73
4
74
0
42
0.000000001
43
0.0000000001
44
0.0000000001
40
-1
40
-1
40
-1
40
-1
40
0
40
0
40
0
40
0
41
1
41
1
41
1
41
1
10
0.03285037643991684
20
-8.3995363148516944
30
0
10
0.067440678366235129
20
-8.7454446122566267
30
0
10
0.03285037643991684
20
-9.7658743535082682
30
0
10
-0.036331546948156213
20
-10.647940247983758
30
0
0
SPLINE
5
102
100
AcDbEntity
8
0
100
AcDbSpline
70
4
71
3
72
8
73
4
74
0
42
0.000000001
43
0.0000000001
44
0.0000000001
40
-1
40
-1
40
-1
40
-1
40
0
40
0
40
0
40
0
41
1
41
1
41
1
41
1
10
0.60359959497223059
20
-7.655832947616914
30
0
10
-0.036331546948156213
20
-7.7596064924667418
30
0
10
-0.053626697911315357
20
-7.776901643429901
30
0
10
0.03285037643991684
20
-8.3995363148516944
30
0
0
SPLINE
5
103
100
AcDbEntity
8
0
100
AcDbSpline
70
4
71
3
72
8
73
4
74
0
42
0.000000001
43
0.0000000001
44
0.0000000001
40
-1
40
-1
40
-1
40
-1
40
0
40
0
40
0
40
0
41
1
41
1
41
1
41
1
10
1.9872327845919635
20
-8.5378988420924067
30
0
10
1.9872327845919635
20
-7.8287870963193811
30
0
10
1.4856654894477228
20
-7.5001739498776061
30
0
10
0.60359959497223059
20
-7.655832947616914
30
0
0
SPLINE
5
104
100
AcDbEntity
8
0
100
AcDbSpline
70
4
71
3
72
8
73
4
74
0
42
0.000000001
43
0.0000000001
44
0.0000000001
40
-1
40
-1
40
-1
40
-1
40
0
40
0
40
0
40
0
41
1
41
1
41
1
41
1
10
2.0910050099063571
20
-10.647938928448323
30
0
10
2.0391195570168796
20
-9.7831681849359917
30
0
10
1.9872327845919635
20
-8.831920367072426
30
0
10
1.9872327845919635
20
-8.5378988420924067
30
0
0
SPLINE
5
105
100
AcDbEntity
8
0
100
AcDbSpline
70
4
71
3
72
8
73
4
74
0
42
0.000000001
43
0.0000000001
44
0.0000000001
40
-1
40
-1
40
-1
40
-1
40
0
40
0
40
0
40
0
41
1
41
1
41
1
41
1
10
1.831573786852656
20
-12.239117888232279
30
0
10
2.1947772352207506
20
-12.239117888232279
30
0
10
2.2120723861839098
20
-12.187231115807364
30
0
10
2.0910050099063571
20
-10.647938928448323
30
0
0
SPLINE
5
106
100
AcDbEntity
8
0
100
AcDbSpline
70
4
71
3
72
8
73
4
74
0
42
0.000000001
43
0.0000000001
44
0.0000000001
40
-1
40
-1
40
-1
40
-1
40
0
40
0
40
0
40
0
41
1
41
1
41
1
41
1
10
1.4683703384845637
20
-11.564597763921007
30
0
10
1.4683703384845637
20
-12.135344343382449
30
0
10
1.5202557913740433
20
-12.239117888232279
30
0
10
1.831573786852656
20
-12.239117888232279
30
0
0
SPLINE
5
107
100
AcDbEntity
8
0
100
AcDbSpline
70
4
71
3
72
8
73
4
74
0
42
0.000000001
43
0.0000000001
44
0.0000000001
40
-1
40
-1
40
-1
40
-1
40
0
40
0
40
0
40
0
41
1
41
1
41
1
41
1
10
0.69007666932346501
20
-10.682531869445512
30
0
10
1.0878717391533121
20
-10.353918723003744
30
0
10
1.4683703384845637
20
-10.769008943796749
30
0
10
1.4683703384845637
20
-11.564597763921007
30
0
0
SPLINE
5
108
100
AcDbEntity
8
0
100
AcDbSpline
70
4
71
3
72
8
73
4
74
0
42
0.000000001
43
0.0000000001
44
0.0000000001
40
-1
40
-1
40
-1
40
-1
40
0
40
0
40
0
40
0
41
1
41
1
41
1
41
1
10
0.43064544626976398
20
-11.564597763921007
30
0
10
0.43064544626976398
20
-11.184099164589757
30
0
10
0.53441767158415754
20
-10.803599245723067
30
0
10
0.69007666932346501
20
-10.682531869445512
30
0
0
SPLINE
5
109
100
AcDbEntity
8
0
100
AcDbSpline
70
4
71
3
72
8
73
4
74
0
42
0.000000001
43
0.0000000001
44
0.0000000001
40
-1
40
-1
40
-1
40
-1
40
0
40
0
40
0
40
0
41
1
41
1
41
1
41
1
10
0.11932745079115126
20
-12.239117888232279
30
0
10
0.36146352288169092
20
-12.239117888232279
30
0
10
0.43064544626976398
20
-12.100756680527006
30
0
10
0.43064544626976398
20
-11.564597763921007
30
0
0
SPLINE
5
110
100
AcDbEntity
8
0
100
AcDbSpline
70
4
71
3
72
8
73
4
74
0
42
0.000000001
43
0.0000000001
44
0.0000000001
40
-1
40
-1
40
-1
40
-1
40
0
40
0
40
0
40
0
41
1
41
1
41
1
41
1
10
4.9966339163865348
20
-12.083460210028406
30
0
10
5.1868832160521583
20
-12.273708190158597
30
0
10
10.116076454072456
20
-11.754845744051199
30
0
10
10.116076454072456
20
-11.547301293422411
30
0
0
SPLINE
5
111
100
AcDbEntity
8
0
100
AcDbSpline
70
4
71
3
72
8
73
4
74
0
42
0.000000001
43
0.0000000001
44
0.0000000001
40
-1
40
-1
40
-1
40
-1
40
0
40
0
40
0
40
0
41
1
41
1
41
1
41
1
10
4.9274519929984617
20
-11.443530387643456
30
0
10
4.9274519929984617
20
-11.754848383122072
30
0
10
4.9620436144602165
20
-12.048869908102088
30
0
10
4.9966339163865348
20
-12.083460210028406
30
0
0
SPLINE
5
112
100
AcDbEntity
8
0
100
AcDbSpline
70
4
71
3
72
8
73
4
74
0
42
0.000000001
43
0.0000000001
44
0.0000000001
40
-1
40
-1
40
-1
40
-1
40
0
40
0
40
0
40
0
41
1
41
1
41
1
41
1
10
5.411724137179541
20
-10.941963092499215
30
0
10
4.96204229492478
20
-10.872781169111141
30
0
10
4.9274519929984617
20
-10.907372790572897
30
0
10
4.9274519929984617
20
-11.443530387643456
30
0
0
SPLINE
5
113
100
AcDbEntity
8
0
100
AcDbSpline
70
4
71
3
72
8
73
4
74
0
42
0.000000001
43
0.0000000001
44
0.0000000001
40
-1
40
-1
40
-1
40
-1
40
0
40
0
40
0
40
0
41
1
41
1
41
1
41
1
10
7.3488100748329899
20
-11.114917241201683
30
0
10
6.5359261037455729
20
-11.06303046877677
30
0
10
5.6711553602332421
20
-10.976553394425533
30
0
10
5.411724137179541
20
-10.941963092499215
30
0
0
SPLINE
5
114
100
AcDbEntity
8
0
100
AcDbSpline
70
4
71
3
72
8
73
4
74
0
42
0.000000001
43
0.0000000001
44
0.0000000001
40
-1
40
-1
40
-1
40
-1
40
0
40
0
40
0
40
0
41
1
41
1
41
1
41
1
10
10.116076454072456
20
-11.547301293422411
30
0
10
10.116076454072456
20
-11.391643615218543
30
0
10
9.2167154086338066
20
-11.235984617479232
30
0
10
7.3488100748329899
20
-11.114917241201683
30
0
0
SPLINE
5
115
100
AcDbEntity
8
0
100
AcDbSpline
70
4
71
3
72
8
73
4
74
0
42
0.000000001
43
0.0000000001
44
0.0000000001
40
-1
40
-1
40
-1
40
-1
40
0
40
0
40
0
40
0
41
1
41
1
41
1
41
1
10
-0.33035439146361201
20
-6.5316309810508795
30
0
10
0.18850277650204417
20
-6.6872926178610603
30
0
10
1.1916373667905233
20
-6.6008155435098281
30
0
10
1.624022738546691
20
-6.3586794714192862
30
0
0
SPLINE
5
116
100
AcDbEntity
8
0
100
AcDbSpline
70
4
71
3
72
8
73
4
74
0
42
0.000000001
43
0.0000000001
44
0.0000000001
40
-1
40
-1
40
-1
40
-1
40
0
40
0
40
0
40
0
41
1
41
1
41
1
41
1
10
-1.9215320317121298
20
-5.026930415153597
30
0
10
-1.6275105067321105
20
-5.7187470099634634
30
0
10
-0.98758068434716018
20
-6.324086530422095
30
0
10
-0.33035439146361201
20
-6.5316309810508795
30
0
0
SPLINE
5
117
100
AcDbEntity
8
0
100
AcDbSpline
70
4
71
3
72
8
73
4
74
0
42
0.000000001
43
0.0000000001
44
0.0000000001
40
-1
40
-1
40
-1
40
-1
40
0
40
0
40
0
40
0
41
1
41
1
41
1
41
1
10
-1.5929188852703557
20
-3.8681381466612441
30
0
10
-2.2328500271907448
20
-4.1448645206781043
30
0
10
-2.2674403291170631
20
-4.2313415950293365
30
0
10
-1.9215320317121298
20
-5.026930415153597
30
0
0
SPLINE
5
118
100
AcDbEntity
8
0
100
AcDbSpline
70
4
71
3
72
8
73
4
74
0
42
0.000000001
43
0.0000000001
44
0.0000000001
40
-1
40
-1
40
-1
40
-1
40
0
40
0
40
0
40
0
41
1
41
1
41
1
41
1
10
-0.45142176774116471
20
-2.4499146551151929
30
0
10
-0.19199054468746368
20
-2.7612313310583714
30
0
10
-0.81462521610925709
20
-3.5568201511826292
30
0
10
-1.5929188852703557
20
-3.8681381466612441
30
0
0
SPLINE
5
119
100
AcDbEntity
8
0
100
AcDbSpline
70
4
71
3
72
8
73
4
74
0
42
0.000000001
43
0.0000000001
44
0.0000000001
40
-1
40
-1
40
-1
40
-1
40
0
40
0
40
0
40
0
41
1
41
1
41
1
41
1
10
-1.5064418109191235
20
-2.6401639547808187
30
0
10
-0.91839744142364843
20
-2.138596659636578
30
0
10
-0.72814814175802267
20
-2.1040063577102597
30
0
10
-0.45142176774116471
20
-2.4499146551151929
30
0
0
SPLINE
5
120
100
AcDbEntity
8
0
100
AcDbSpline
70
4
71
3
72
8
73
4
74
0
42
0.000000001
43
0.0000000001
44
0.0000000001
40
-1
40
-1
40
-1
40
-1
40
0
40
0
40
0
40
0
41
1
41
1
41
1
41
1
10
-3.7375505930880282
20
-2.5709820313927456
30
0
10
-3.0803243002044822
20
-3.2282083242762938
30
0
10
-2.2328487076553083
20
-3.2455034752394529
30
0
10
-1.5064418109191235
20
-2.6401639547808187
30
0
0
SPLINE
5
121
100
AcDbEntity
8
0
100
AcDbSpline
70
4
71
3
72
8
73
4
74
0
42
0.000000001
43
0.0000000001
44
0.0000000001
40
-1
40
-1
40
-1
40
-1
40
0
40
0
40
0
40
0
41
1
41
1
41
1
41
1
10
-4.2391178882322684
20
-1.8099835131948061
30
0
10
-4.2391178882322684
20
-1.9483473599709522
30
0
10
-4.0142769671048883
20
-2.2942556573758854
30
0
10
-3.7375505930880282
20
-2.5709820313927456
30
0
0
SPLINE
5
122
100
AcDbEntity
8
0
100
AcDbSpline
70
4
71
3
72
8
73
4
74
0
42
0.000000001
43
0.0000000001
44
0.0000000001
40
-1
40
-1
40
-1
40
-1
40
0
40
0
40
0
40
0
41
1
41
1
41
1
41
1
10
-5.069297670050565
20
-1.5851425920674234
30
0
10
-4.7752754853028279
20
-1.2911210670874063
30
0
10
-4.2391178882322684
20
-1.4294849138635524
30
0
10
-4.2391178882322684
20
-1.8099835131948061
30
0
0
SPLINE
5
123
100
AcDbEntity
8
0
100
AcDbSpline
70
4
71
3
72
8
73
4
74
0
42
0.000000001
43
0.0000000001
44
0.0000000001
40
-1
40
-1
40
-1
40
-1
40
0
40
0
40
0
40
0
41
1
41
1
41
1
41
1
10
-3.8932095908273356
20
-3.7470694508482572
30
0
10
-4.7752754853028279
20
-3.2455021557040165
30
0
10
-5.4670920801126943
20
-1.9829376618972727
30
0
10
-5.069297670050565
20
-1.5851425920674234
30
0
0
SPLINE
5
124
100
AcDbEntity
8
0
100
AcDbSpline
70
4
71
3
72
8
73
4
74
0
42
0.000000001
43
0.0000000001
44
0.0000000001
40
-1
40
-1
40
-1
40
-1
40
0
40
0
40
0
40
0
41
1
41
1
41
1
41
1
10
-4.8444574086909036
20
-5.4939060888360824
30
0
10
-3.2186881469806283
20
-5.4939060888360824
30
0
10
-2.647940247983751
20
-4.4388860456581236
30
0
10
-3.8932095908273356
20
-3.7470694508482572
30
0
0
SPLINE
5
125
100
AcDbEntity
8
0
100
AcDbSpline
70
4
71
3
72
8
73
4
74
0
42
0.000000001
43
0.0000000001
44
0.0000000001
40
-1
40
-1
40
-1
40
-1
40
0
40
0
40
0
40
0
41
1
41
1
41
1
41
1
10
-6.5739988957155679
20
-4.3869992732332079
30
0
10
-7.1966335671373605
20
-4.6291353453237498
30
0
10
-5.8475913392116645
20
-5.4939060888360824
30
0
10
-4.8444574086909036
20
-5.4939060888360824
30
0
0
SPLINE
5
126
100
AcDbEntity
8
0
100
AcDbSpline
70
4
71
3
72
8
73
4
74
0
42
0.000000001
43
0.0000000001
44
0.0000000001
40
-1
40
-1
40
-1
40
-1
40
0
40
0
40
0
40
0
41
1
41
1
41
1
41
1
10
-6.3491586343559048
20
-3.9027271290521282
30
0
10
-6.3145676726618678
20
-4.1275680501795087
30
0
10
-6.4010447470131018
20
-4.3351125008082931
30
0
10
-6.5739988957155679
20
-4.3869992732332079
30
0
0
SPLINE
5
127
100
AcDbEntity
8
0
100
AcDbSpline
70
4
71
3
72
8
73
4
74
0
42
0.000000001
43
0.0000000001
44
0.0000000001
40
-1
40
-1
40
-1
40
-1
40
0
40
0
40
0
40
0
41
1
41
1
41
1
41
1
10
-7.0928613418229682
20
-3.5568188316471949
30
0
10
-6.4875218213643349
20
-3.5049320592222788
30
0
10
-6.4010447470131018
20
-3.5568188316471949
30
0
10
-6.3491586343559048
20
-3.9027271290521282
30
0
0
SPLINE
5
128
100
AcDbEntity
8
0
100
AcDbSpline
70
4
71
3
72
8
73
4
74
0
42
0.000000001
43
0.0000000001
44
0.0000000001
40
-1
40
-1
40
-1
40
-1
40
0
40
0
40
0
40
0
41
1
41
1
41
1
41
1
10
-10.223331169430525
20
-1.7580954212344535
30
0
10
-9.7044687233231244
20
-3.1071383089278681
30
0
10
-8.7186306035332404
20
-3.6605910569615863
30
0
10
-7.0928613418229682
20
-3.5568188316471949
30
0
0
SPLINE
5
129
100
AcDbEntity
8
0
100
AcDbSpline
70
4
71
3
72
8
73
4
74
0
42
0.000000001
43
0.0000000001
44
0.0000000001
40
-1
40
-1
40
-1
40
-1
40
0
40
0
40
0
40
0
41
1
41
1
41
1
41
1
10
-10.30980824378176
20
-0.30528030822664753
30
0
10
-10.482762392484224
20
-0.87602952675896129
30
0
10
-10.465467241521065
20
-1.1008691283509076
30
0
10
-10.223331169430525
20
-1.7580954212344535
30
0
0
SPLINE
5
130
100
AcDbEntity
8
0
100
AcDbSpline
70
4
71
3
72
8
73
4
74
0
42
0.000000001
43
0.0000000001
44
0.0000000001
40
-1
40
-1
40
-1
40
-1
40
0
40
0
40
0
40
0
41
1
41
1
41
1
41
1
10
-8.2170633083889992
20
1.7009875528148777
30
0
10
-9.0645382411704549
20
1.5626243658064476
30
0
10
-10.015786059034022
20
0.66326266060007799
30
0
10
-10.30980824378176
20
-0.30528030822664753
30
0
0
SPLINE
5
131
100
AcDbEntity
8
0
100
AcDbSpline
70
4
71
3
72
8
73
4
74
0
42
0.000000001
43
0.0000000001
44
0.0000000001
40
-1
40
-1
40
-1
40
-1
40
0
40
0
40
0
40
0
41
1
41
1
41
1
41
1
10
-7.3522925648766684
20
2.5311673346331731
30
0
10
-7.0409752291657712
20
2.1679638862650807
30
0
10
-7.3868835265707045
20
1.8393507398233067
30
0
10
-8.2170633083889992
20
1.7009875528148777
30
0
0
SPLINE
5
132
100
AcDbEntity
8
0
100
AcDbSpline
70
4
71
3
72
8
73
4
74
0
42
0.000000001
43
0.0000000001
44
0.0000000001
40
-1
40
-1
40
-1
40
-1
40
0
40
0
40
0
40
0
41
1
41
1
41
1
41
1
10
-7.9230411236412639
20
2.8424846703440698
30
0
10
-7.7154960132447599
20
2.807893708650032
30
0
10
-7.4560647901910606
20
2.6695305216416032
30
0
10
-7.3522925648766684
20
2.5311673346331731
30
0
0
SPLINE
5
133
100
AcDbEntity
8
0
100
AcDbSpline
70
4
71
3
72
8
73
4
74
0
42
0.000000001
43
0.0000000001
44
0.0000000001
40
-1
40
-1
40
-1
40
-1
40
0
40
0
40
0
40
0
41
1
41
1
41
1
41
1
10
-7.8365640492900299
20
3.3613471164514697
30
0
10
-8.3035403827402341
20
2.8943707830012655
30
0
10
-8.3035403827402341
20
2.8943707830012655
30
0
10
-7.9230411236412639
20
2.8424846703440698
30
0
0
SPLINE
5
134
100
AcDbEntity
8
0
100
AcDbSpline
70
4
71
3
72
8
73
4
74
0
42
0.000000001
43
0.0000000001
44
0.0000000001
40
-1
40
-1
40
-1
40
-1
40
0
40
0
40
0
40
0
41
1
41
1
41
1
41
1
10
-6.6777711210299611
20
3.8456186008648316
30
0
10
-7.1966335671373605
20
3.8456186008648316
30
0
10
-7.4733606009219375
20
3.724550564819562
30
0
10
-7.8365640492900299
20
3.3613471164514697
30
0
0
LINE
5
135
100
AcDbEntity
8
0
100
AcDbLine
10
-6.6777711210299611
20
3.8456186008648316
30
0
11
-5.9686593752569355
21
3.8456186008648316
31
0
0
LINE
5
136
100
AcDbEntity
8
0
100
AcDbLine
10
-5.9686593752569355
20
3.8456186008648316
30
0
11
-6.3318628236250269
21
3.1710971570181243
31
0
0
SPLINE
5
137
100
AcDbEntity
8
0
100
AcDbSpline
70
4
71
3
72
8
73
4
74
0
42
0.000000001
43
0.0000000001
44
0.0000000001
40
-1
40
-1
40
-1
40
-1
40
0
40
0
40
0
40
0
41
1
41
1
41
1
41
1
10
-6.1416135239594016
20
1.5107369336138154
30
0
10
-6.7296572336871572
20
1.5107369336138154
30
0
10
-6.7988391570752302
20
2.2544403008485956
30
0
10
-6.3318628236250269
20
3.1710971570181243
30
0
0
SPLINE
5
138
100
AcDbEntity
8
0
100
AcDbSpline
70
4
71
3
72
8
73
4
74
0
42
0.000000001
43
0.0000000001
44
0.0000000001
40
-1
40
-1
40
-1
40
-1
40
0
40
0
40
0
40
0
41
1
41
1
41
1
41
1
10
-5.6054559268888422
20
2.1160764540724486
30
0
10
-5.7092281522032344
20
1.6145091589282079
30
0
10
-5.7957052265544684
20
1.5107369336138154
30
0
10
-6.1416135239594016
20
1.5107369336138154
30
0
0
SPLINE
5
139
100
AcDbEntity
8
0
100
AcDbSpline
70
4
71
3
72
8
73
4
74
0
42
0.000000001
43
0.0000000001
44
0.0000000001
40
-1
40
-1
40
-1
40
-1
40
0
40
0
40
0
40
0
41
1
41
1
41
1
41
1
10
-5.0001164064302088
20
3.1192103845932104
30
0
10
-5.2595476294839099
20
2.8943701232335473
30
0
10
-5.5362740035007674
20
2.4446896005142218
30
0
10
-5.6054559268888422
20
2.1160764540724486
30
0
0
SPLINE
5
140
100
AcDbEntity
8
0
100
AcDbSpline
70
4
71
3
72
8
73
4
74
0
42
0.000000001
43
0.0000000001
44
0.0000000001
40
-1
40
-1
40
-1
40
-1
40
0
40
0
40
0
40
0
41
1
41
1
41
1
41
1
10
-3.5645964443855616
20
3.4651186819981437
30
0
10
-4.3774817350084172
20
3.5170047946553407
30
0
10
-4.6196178070989564
20
3.4651186819981437
30
0
10
-5.0001164064302088
20
3.1192103845932104
30
0
0
SPLINE
5
141
100
AcDbEntity
8
0
100
AcDbSpline
70
4
71
3
72
8
73
4
74
0
42
0.000000001
43
0.0000000001
44
0.0000000001
40
-1
40
-1
40
-1
40
-1
40
0
40
0
40
0
40
0
41
1
41
1
41
1
41
1
10
-2.544166703133921
20
3.7764360177090395
30
0
10
-2.5960534755588371
20
3.4478235310349845
30
0
10
-2.6825305499100693
20
3.4132325693409471
30
0
10
-3.5645964443855616
20
3.4651186819981437
30
0
0
SPLINE
5
142
100
AcDbEntity
8
0
100
AcDbSpline
70
4
71
3
72
8
73
4
74
0
42
0.000000001
43
0.0000000001
44
0.0000000001
40
-1
40
-1
40
-1
40
-1
40
0
40
0
40
0
40
0
41
1
41
1
41
1
41
1
10
-4.3082984920849077
20
4.5028435742129433
30
0
10
-3.3051652213318627
20
4.6066157995273365
30
0
10
-2.474984779745848
20
4.2780033128532802
30
0
10
-2.544166703133921
20
3.7764360177090395
30
0
0
SPLINE
5
143
100
AcDbEntity
8
0
100
AcDbSpline
70
4
71
3
72
8
73
4
74
0
42
0.000000001
43
0.0000000001
44
0.0000000001
40
-1
40
-1
40
-1
40
-1
40
0
40
0
40
0
40
0
41
1
41
1
41
1
41
1
10
-4.412070717399299
20
5.6962271342831912
30
0
10
-5.8129997177499089
20
4.9525240969322688
30
0
10
-5.7611136050927136
20
4.3298894255104772
30
0
10
-4.3082984920849077
20
4.5028435742129433
30
0
0
SPLINE
5
144
100
AcDbEntity
8
0
100
AcDbSpline
70
4
71
3
72
8
73
4
74
0
42
0.000000001
43
0.0000000001
44
0.0000000001
40
-1
40
-1
40
-1
40
-1
40
0
40
0
40
0
40
0
41
1
41
1
41
1
41
1
10
-1.5929188852703557
20
5.8518858021386393
30
0
10
-2.4403931582840932
20
6.2150895803905906
30
0
10
-3.5645951248501251
20
6.1459079868863764
30
0
10
-4.412070717399299
20
5.6962271342831912
30
0
0
SPLINE
5
145
100
AcDbEntity
8
0
100
AcDbSpline
70
4
71
3
72
8
73
4
74
0
42
0.000000001
43
0.0000000001
44
0.0000000001
40
-1
40
-1
40
-1
40
-1
40
0
40
0
40
0
40
0
41
1
41
1
41
1
41
1
10
0.084735829329396495
20
4.1223443151139723
30
0
10
0.084735829329396495
20
4.5028435742129433
30
0
10
-0.9875793648117237
20
5.6097500599319572
30
0
10
-1.5929188852703557
20
5.8518858021386393
30
0
0
SPLINE
5
146
100
AcDbEntity
8
0
100
AcDbSpline
70
4
71
3
72
8
73
4
74
0
42
0.000000001
43
0.0000000001
44
0.0000000001
40
-1
40
-1
40
-1
40
-1
40
0
40
0
40
0
40
0
41
1
41
1
41
1
41
1
10
0.84573434752733601
20
3.6034818690065729
30
0
10
0.51712120108556192
20
3.4824138329613028
30
0
10
0.084735829329396495
20
3.7764360177090395
30
0
10
0.084735829329396495
20
4.1223443151139723
30
0
0
SPLINE
5
147
100
AcDbEntity
8
0
100
AcDbSpline
70
4
71
3
72
8
73
4
74
0
42
0.000000001
43
0.0000000001
44
0.0000000001
40
-1
40
-1
40
-1
40
-1
40
0
40
0
40
0
40
0
41
1
41
1
41
1
41
1
10
0.84573434752733601
20
4.9179331352382318
30
0
10
1.1916426449322692
20
4.2261165404283663
30
0
10
1.1916426449322692
20
3.7418450560150029
30
0
10
0.84573434752733601
20
3.6034818690065729
30
0
0
SPLINE
5
148
100
AcDbEntity
8
0
100
AcDbSpline
70
4
71
3
72
8
73
4
74
0
42
0.000000001
43
0.0000000001
44
0.0000000001
40
-1
40
-1
40
-1
40
-1
40
0
40
0
40
0
40
0
41
1
41
1
41
1
41
1
10
0.86302949849049515
20
5.6789313235523133
30
0
10
0.58630312447363497
20
5.4713865430396691
30
0
10
0.58630312447363497
20
5.4195001004986132
30
0
10
0.84573434752733601
20
4.9179331352382318
30
0
0
SPLINE
5
149
100
AcDbEntity
8
0
100
AcDbSpline
70
4
71
3
72
8
73
4
74
0
42
0.000000001
43
0.0000000001
44
0.0000000001
40
-1
40
-1
40
-1
40
-1
40
0
40
0
40
0
40
0
41
1
41
1
41
1
41
1
10
3.4054549566025782
20
6.0075441401102285
30
0
10
2.713638361792714
20
6.1459076570025157
30
0
10
1.2608245683203423
20
5.9729535083000496
30
0
10
0.86302949849049515
20
5.6789313235523133
30
0
0
SPLINE
5
150
100
AcDbEntity
8
0
100
AcDbSpline
70
4
71
3
72
8
73
4
74
0
42
0.000000001
43
0.0000000001
44
0.0000000001
40
-1
40
-1
40
-1
40
-1
40
0
40
0
40
0
40
0
41
1
41
1
41
1
41
1
10
4.6334291484830059
20
5.5405678066600252
30
0
10
4.2702257001149135
20
5.7308174362095095
30
0
10
3.7167729520811932
20
5.9383625466060135
30
0
10
3.4054549566025782
20
6.0075441401102285
30
0
0
SPLINE
5
151
100
AcDbEntity
8
0
100
AcDbSpline
70
4
71
3
72
8
73
4
74
0
42
0.000000001
43
0.0000000001
44
0.0000000001
40
-1
40
-1
40
-1
40
-1
40
0
40
0
40
0
40
0
41
1
41
1
41
1
41
1
10
4.9966325968510983
20
4.8660463628133179
30
0
10
5.2906554413665541
20
5.194659509255092
30
0
10
5.2906554413665541
20
5.2119549901021101
30
0
10
4.6334291484830059
20
5.5405678066600252
30
0
0
SPLINE
5
152
100
AcDbEntity
8
0
100
AcDbSpline
70
4
71
3
72
8
73
4
74
0
42
0.000000001
43
0.0000000001
44
0.0000000001
40
-1
40
-1
40
-1
40
-1
40
0
40
0
40
0
40
0
41
1
41
1
41
1
41
1
10
4.2875208510780727
20
4.5374332163715438
30
0
10
4.5123604526700145
20
4.5374332163715438
30
0
10
4.8409735991117886
20
4.6930922141108509
30
0
10
4.9966325968510983
20
4.8660463628133179
30
0
0
SPLINE
5
153
100
AcDbEntity
8
0
100
AcDbSpline
70
4
71
3
72
8
73
4
74
0
42
0.000000001
43
0.0000000001
44
0.0000000001
40
-1
40
-1
40
-1
40
-1
40
0
40
0
40
0
40
0
41
1
41
1
41
1
41
1
10
2.5406842130902474
20
3.8110256598676404
30
0
10
2.8347057380702645
20
4.1396388063094145
30
0
10
3.7686584049706728
20
4.5374332163715438
30
0
10
4.2875208510780727
20
4.5374332163715438
30
0
0
SPLINE
5
154
100
AcDbEntity
8
0
100
AcDbSpline
70
4
71
3
72
8
73
4
74
0
42
0.000000001
43
0.0000000001
44
0.0000000001
40
-1
40
-1
40
-1
40
-1
40
0
40
0
40
0
40
0
41
1
41
1
41
1
41
1
10
2.8347057380702645
20
2.9808458780493452
30
0
10
2.4369119877758538
20
2.9808458780493452
30
0
10
2.2812529900365464
20
3.4824125134258663
30
0
10
2.5406842130902474
20
3.8110256598676404
30
0
0
SPLINE
5
155
100
AcDbEntity
8
0
100
AcDbSpline
70
4
71
3
72
8
73
4
74
0
42
0.000000001
43
0.0000000001
44
0.0000000001
40
-1
40
-1
40
-1
40
-1
40
0
40
0
40
0
40
0
41
1
41
1
41
1
41
1
10
3.4400452585288988
20
3.2402771011030449
30
0
10
3.2670911098264321
20
3.1019139140946148
30
0
10
2.990364735809572
20
2.9808458780493452
30
0
10
2.8347057380702645
20
2.9808458780493452
30
0
0
SPLINE
5
156
100
AcDbEntity
8
0
100
AcDbSpline
70
4
71
3
72
8
73
4
74
0
42
0.000000001
43
0.0000000001
44
0.0000000001
40
-1
40
-1
40
-1
40
-1
40
0
40
0
40
0
40
0
41
1
41
1
41
1
41
1
10
6.2073116377683624
20
2.2025522088882452
30
0
10
5.9478804147146613
20
3.257572252066204
30
0
10
4.2875208510780727
20
3.8802075832557148
30
0
10
3.4400452585288988
20
3.2402771011030449
30
0
0
SPLINE
5
157
100
AcDbEntity
8
0
100
AcDbSpline
70
4
71
3
72
8
73
4
74
0
42
0.000000001
43
0.0000000001
44
0.0000000001
40
-1
40
-1
40
-1
40
-1
40
0
40
0
40
0
40
0
41
1
41
1
41
1
41
1
10
6.6742873114508505
20
1.7701668371320789
30
0
10
6.4321525588957451
20
1.7701668371320789
30
0
10
6.2764922416209989
20
1.9258258348713864
30
0
10
6.2073116377683624
20
2.2025522088882452
30
0
0
SPLINE
5
158
100
AcDbEntity
8
0
100
AcDbSpline
70
4
71
3
72
8
73
4
74
0
42
0.000000001
43
0.0000000001
44
0.0000000001
40
-1
40
-1
40
-1
40
-1
40
0
40
0
40
0
40
0
41
1
41
1
41
1
41
1
10
6.3802657864708312
20
3.7937305089044813
30
0
10
7.2796268319094803
20
2.9289597653921486
30
0
10
7.4525809806119492
20
1.7701668371320789
30
0
10
6.6742873114508505
20
1.7701668371320789
30
0
0
LINE
5
159
100
AcDbEntity
8
0
100
AcDbLine
10
6.3802657864708312
20
3.7937305089044813
30
0
11
5.7749262660121978
21
4.3471839167059185
31
0
0
LINE
5
160
100
AcDbEntity
8
0
100
AcDbLine
10
5.7749262660121978
20
4.3471839167059185
30
0
11
6.3283790140459173
21
4.6412061014536548
31
0
0
SPLINE
5
161
100
AcDbEntity
8
0
100
AcDbSpline
70
4
71
3
72
8
73
4
74
0
42
0.000000001
43
0.0000000001
44
0.0000000001
40
-1
40
-1
40
-1
40
-1
40
0
40
0
40
0
40
0
41
1
41
1
41
1
41
1
10
9.2685995419878466
20
4.2607068423546846
30
0
10
8.5940794176765767
20
4.900637324507354
30
0
10
7.1931497575582481
20
5.0735914732098211
30
0
10
6.3283790140459173
20
4.6412061014536548
30
0
0
SPLINE
5
162
100
AcDbEntity
8
0
100
AcDbSpline
70
4
71
3
72
8
73
4
74
0
42
0.000000001
43
0.0000000001
44
0.0000000001
40
-1
40
-1
40
-1
40
-1
40
0
40
0
40
0
40
0
41
1
41
1
41
1
41
1
10
9.4242572201917163
20
3.638072170932892
30
0
10
9.7701655175966486
20
3.7591395472104439
30
0
10
9.7701655175966486
20
3.7937305089044813
30
0
10
9.2685995419878466
20
4.2607068423546846
30
0
0
SPLINE
5
163
100
AcDbEntity
8
0
100
AcDbSpline
70
4
71
3
72
8
73
4
74
0
42
0.000000001
43
0.0000000001
44
0.0000000001
40
-1
40
-1
40
-1
40
-1
40
0
40
0
40
0
40
0
41
1
41
1
41
1
41
1
10
9.1129392247131058
20
3.1192097248254926
30
0
10
9.078348922786784
20
3.3786409478791923
30
0
10
9.1648259971380206
20
3.551595096581659
30
0
10
9.4242572201917163
20
3.638072170932892
30
0
0
SPLINE
5
164
100
AcDbEntity
8
0
100
AcDbSpline
70
4
71
3
72
8
73
4
74
0
42
0.000000001
43
0.0000000001
44
0.0000000001
40
-1
40
-1
40
-1
40
-1
40
0
40
0
40
0
40
0
41
1
41
1
41
1
41
1
10
9.9604134977268401
20
2.7733014274205594
30
0
10
9.2513030714892519
20
2.7214153147633633
30
0
10
9.1648259971380206
20
2.7560062764574003
30
0
10
9.1129392247131058
20
3.1192097248254926
30
0
0
SPLINE
5
165
100
AcDbEntity
8
0
100
AcDbSpline
70
4
71
3
72
8
73
4
74
0
42
0.000000001
43
0.0000000001
44
0.0000000001
40
-1
40
-1
40
-1
40
-1
40
0
40
0
40
0
40
0
41
1
41
1
41
1
41
1
10
11.776432059102738
20
0.47301138163129641
30
0
10
12.295294505210141
20
1.7182813842426004
30
0
10
11.395933459771488
20
2.8597785017717925
30
0
10
9.9604134977268401
20
2.7733014274205594
30
0
0
SPLINE
5
166
100
AcDbEntity
8
0
100
AcDbSpline
70
4
71
3
72
8
73
4
74
0
42
0.000000001
43
0.0000000001
44
0.0000000001
40
-1
40
-1
40
-1
40
-1
40
0
40
0
40
0
40
0
41
1
41
1
41
1
41
1
10
11.240273142496747
20
-0.23610036414172919
30
0
10
11.395933459771488
20
-0.1842142514845313
30
0
10
11.638068212326594
20
0.14439823518952455
30
0
10
11.776432059102738
20
0.47301138163129641
30
0
0
SPLINE
5
167
100
AcDbEntity
8
0
100
AcDbSpline
70
4
71
3
72
8
73
4
74
0
42
0.000000001
43
0.0000000001
44
0.0000000001
40
-1
40
-1
40
-1
40
-1
40
0
40
0
40
0
40
0
41
1
41
1
41
1
41
1
10
10.980841919443044
20
-0.75496347001684727
30
0
10
10.980841919443044
20
-0.53012254888946453
30
0
10
11.101909295720596
20
-0.28798647679892486
30
0
10
11.240273142496747
20
-0.23610036414172919
30
0
0
SPLINE
5
168
100
AcDbEntity
8
0
100
AcDbSpline
70
4
71
3
72
8
73
4
74
0
42
0.000000001
43
0.0000000001
44
0.0000000001
40
-1
40
-1
40
-1
40
-1
40
0
40
0
40
0
40
0
41
1
41
1
41
1
41
1
10
12.277998034711546
20
-0.65119124470245371
30
0
10
11.655362043754316
20
-1.3084162180505654
30
0
10
10.980841919443044
20
-1.3603029904754793
30
0
10
10.980841919443044
20
-0.75496347001684727
30
0
0
SPLINE
5
169
100
AcDbEntity
8
0
100
AcDbSpline
70
4
71
3
72
8
73
4
74
0
42
0.000000001
43
0.0000000001
44
0.0000000001
40
-1
40
-1
40
-1
40
-1
40
0
40
0
40
0
40
0
41
1
41
1
41
1
41
1
10
13.056291703872645
20
-1.2219404632347675
30
0
10
13.056291703872645
20
-0.18421491125224954
30
0
10
12.848747253243857
20
-0.045851724243819447
30
0
10
12.277998034711546
20
-0.65119124470245371
30
0
0
SPLINE
5
170
100
AcDbEntity
8
0
100
AcDbSpline
70
4
71
3
72
8
73
4
74
0
42
0.000000001
43
0.0000000001
44
0.0000000001
40
-1
40
-1
40
-1
40
-1
40
0
40
0
40
0
40
0
41
1
41
1
41
1
41
1
10
12.226111262286633
20
-3.1071409479987411
30
0
10
12.848747253243857
20
-2.4326195041520338
30
0
10
13.056291703872645
20
-1.982938981432707
30
0
10
13.056291703872645
20
-1.2219404632347675
30
0
0
SPLINE
5
171
100
AcDbEntity
8
0
100
AcDbSpline
70
4
71
3
72
8
73
4
74
0
42
0.000000001
43
0.0000000001
44
0.0000000001
40
-1
40
-1
40
-1
40
-1
40
0
40
0
40
0
40
0
41
1
41
1
41
1
41
1
10
9.0091630407924015
20
-2.8823000268713606
30
0
10
9.8566399528770141
20
-3.8854346171598397
30
0
10
11.395930820700615
20
-4.0065019934373929
30
0
10
12.226111262286633
20
-3.1071409479987411
30
0
0
SPLINE
5
172
100
AcDbEntity
8
0
100
AcDbSpline
70
4
71
3
72
8
73
4
74
0
42
0.000000001
43
0.0000000001
44
0.0000000001
40
-1
40
-1
40
-1
40
-1
40
0
40
0
40
0
40
0
41
1
41
1
41
1
41
1
10
8.1098019953537523
20
-3.4184576239419195
30
0
10
7.5217563063228399
20
-2.4326195041520338
30
0
10
8.2654596735576202
20
-2.0002341323958683
30
0
10
9.0091630407924015
20
-2.8823000268713606
30
0
0
SPLINE
5
173
100
AcDbEntity
8
0
100
AcDbSpline
70
4
71
3
72
8
73
4
74
0
42
0.000000001
43
0.0000000001
44
0.0000000001
40
-1
40
-1
40
-1
40
-1
40
0
40
0
40
0
40
0
41
1
41
1
41
1
41
1
10
8.3865296889060481
20
-4.0929790677886242
30
0
10
8.3865296889060481
20
-3.9892068424742333
30
0
10
8.2654596735576202
20
-3.6951839979587775
30
0
10
8.1098019953537523
20
-3.4184576239419195
30
0
0
SPLINE
5
174
100
AcDbEntity
8
0
100
AcDbSpline
70
4
71
3
72
8
73
4
74
0
42
0.000000001
43
0.0000000001
44
0.0000000001
40
-1
40
-1
40
-1
40
-1
40
0
40
0
40
0
40
0
41
1
41
1
41
1
41
1
10
6.7088749743062959
20
-5.7706337823883764
30
0
10
7.2796241928386074
20
-5.5457941807964328
30
0
10
8.3865296889060481
20
-4.4215922142303992
30
0
10
8.3865296889060481
20
-4.0929790677886242
30
0
0
SPLINE
5
175
100
AcDbEntity
8
0
100
AcDbSpline
70
4
71
3
72
8
73
4
74
0
42
0.000000001
43
0.0000000001
44
0.0000000001
40
-1
40
-1
40
-1
40
-1
40
0
40
0
40
0
40
0
41
1
41
1
41
1
41
1
10
4.4085842687493138
20
-5.8398157057764504
30
0
10
4.8582661110040792
20
-6.0819517778669923
30
0
10
6.0516486814227477
20
-6.0473601564052366
30
0
10
6.7088749743062959
20
-5.7706337823883764
30
0
0
SPLINE
5
176
100
AcDbEntity
8
0
100
AcDbSpline
70
4
71
3
72
8
73
4
74
0
42
0.000000001
43
0.0000000001
44
0.0000000001
40
-1
40
-1
40
-1
40
-1
40
0
40
0
40
0
40
0
41
1
41
1
41
1
41
1
10
4.5123564940637095
20
-5.0269317346890325
30
0
10
4.0972662732706988
20
-5.632271255147665
30
0
10
4.0972662732706988
20
-5.6668615570739833
30
0
10
4.4085842687493138
20
-5.8398157057764504
30
0
0
SPLINE
5
177
100
AcDbEntity
8
0
100
AcDbSpline
70
4
71
3
72
8
73
4
74
0
42
0.000000001
43
0.0000000001
44
0.0000000001
40
-1
40
-1
40
-1
40
-1
40
0
40
0
40
0
40
0
41
1
41
1
41
1
41
1
10
4.4950613431005504
20
-3.3319805495906851
30
0
10
5.0312189401711072
20
-3.3319805495906851
30
0
10
5.0485140911342663
20
-4.231342914564773
30
0
10
4.5123564940637095
20
-5.0269317346890325
30
0
0
SPLINE
5
178
100
AcDbEntity
8
0
100
AcDbSpline
70
4
71
3
72
8
73
4
74
0
42
0.000000001
43
0.0000000001
44
0.0000000001
40
-1
40
-1
40
-1
40
-1
40
0
40
0
40
0
40
0
41
1
41
1
41
1
41
1
10
3.9589037460299892
20
-3.920024919086158
30
0
10
4.0972662732706988
20
-3.5049346982931517
30
0
10
4.2529252710100085
20
-3.3319805495906851
30
0
10
4.4950613431005504
20
-3.3319805495906851
30
0
0
SPLINE
5
179
100
AcDbEntity
8
0
100
AcDbSpline
70
4
71
3
72
8
73
4
74
0
42
0.000000001
43
0.0000000001
44
0.0000000001
40
-1
40
-1
40
-1
40
-1
40
0
40
0
40
0
40
0
41
1
41
1
41
1
41
1
10
1.2781144411417578
20
-4.7675005116353315
30
0
10
2.2985441823933961
20
-5.5284990298332737
30
0
10
3.5784051466987377
20
-5.1307039600034248
30
0
10
3.9589037460299892
20
-3.920024919086158
30
0
0
SPLINE
5
180
100
AcDbEntity
8
0
100
AcDbSpline
70
4
71
3
72
8
73
4
74
0
42
0.000000001
43
0.0000000001
44
0.0000000001
40
-1
40
-1
40
-1
40
-1
40
0
40
0
40
0
40
0
41
1
41
1
41
1
41
1
10
0.49982077198065689
20
-4.6637282863209411
30
0
10
0.74195684407119877
20
-4.40429706326724
30
0
10
0.81113876745927183
20
-4.4215922142303992
30
0
10
1.2781144411417578
20
-4.7675005116353315
30
0
0
SPLINE
5
181
100
AcDbEntity
8
0
100
AcDbSpline
70
4
71
3
72
8
73
4
74
0
42
0.000000001
43
0.0000000001
44
0.0000000001
40
-1
40
-1
40
-1
40
-1
40
0
40
0
40
0
40
0
41
1
41
1
41
1
41
1
10
1.2262276687168416
20
-5.9262940996631208
30
0
10
0.41334369762942469
20
-5.5284990298332737
30
0
10
0.11932217264940537
20
-5.0442268856521917
30
0
10
0.49982077198065689
20
-4.6637282863209411
30
0
0
SPLINE
5
182
100
AcDbEntity
8
0
100
AcDbSpline
70
4
71
3
72
8
73
4
74
0
42
0.000000001
43
0.0000000001
44
0.0000000001
40
-1
40
-1
40
-1
40
-1
40
0
40
0
40
0
40
0
41
1
41
1
41
1
41
1
10
1.624022738546691
20
-6.3586794714192862
30
0
10
1.7969768872491576
20
-6.272202397068054
30
0
10
1.6932033423993276
20
-6.1511350207905018
30
0
10
1.2262276687168416
20
-5.9262940996631208
30
0
0
SPLINE
5
183
100
AcDbEntity
8
0
100
AcDbSpline
70
4
71
3
72
8
73
4
74
0
42
0.000000001
43
0.0000000001
44
0.0000000001
40
-1
40
-1
40
-1
40
-1
40
0
40
0
40
0
40
0
41
1
41
1
41
1
41
1
10
3.1287285825857203
20
-11.702958971626281
30
0
10
3.2152056569369525
20
-12.083460210028406
30
0
10
3.3362730332145052
20
-12.239117888232279
30
0
10
3.5957042562682062
20
-12.239117888232279
30
0
0
SPLINE
5
184
100
AcDbEntity
8
0
100
AcDbSpline
70
4
71
3
72
8
73
4
74
0
42
0.000000001
43
0.0000000001
44
0.0000000001
40
-1
40
-1
40
-1
40
-1
40
0
40
0
40
0
40
0
41
1
41
1
41
1
41
1
10
3.0249563572713267
20
-9.7139862615479178
30
0
10
3.0249563572713267
20
-10.509575081672175
30
0
10
3.0768418101608064
20
-11.408937446646267
30
0
10
3.1287285825857203
20
-11.702958971626281
30
0
0
SPLINE
5
185
100
AcDbEntity
8
0
100
AcDbSpline
70
4
71
3
72
8
73
4
74
0
42
0.000000001
43
0.0000000001
44
0.0000000001
40
-1
40
-1
40
-1
40
-1
40
0
40
0
40
0
40
0
41
1
41
1
41
1
41
1
10
3.37086465467626
20
-8.2611711485401091
30
0
10
3.0595466591976472
20
-8.2611711485401091
30
0
10
3.0249563572713267
20
-8.3822398443530979
30
0
10
3.0249563572713267
20
-9.7139862615479178
30
0
0
SPLINE
5
186
100
AcDbEntity
8
0
100
AcDbSpline
70
4
71
3
72
8
73
4
74
0
42
0.000000001
43
0.0000000001
44
0.0000000001
40
-1
40
-1
40
-1
40
-1
40
0
40
0
40
0
40
0
41
1
41
1
41
1
41
1
10
3.7167729520811932
20
-9.0913515901261235
30
0
10
3.7167729520811932
20
-8.3822385248176623
30
0
10
3.6648861796562793
20
-8.2611711485401091
30
0
10
3.37086465467626
20
-8.2611711485401091
30
0
0
SPLINE
5
187
100
AcDbEntity
8
0
100
AcDbSpline
70
4
71
3
72
8
73
4
74
0
42
0.000000001
43
0.0000000001
44
0.0000000001
40
-1
40
-1
40
-1
40
-1
40
0
40
0
40
0
40
0
41
1
41
1
41
1
41
1
10
3.8378403283587459
20
-11.080324300204492
30
0
10
3.7686597245061071
20
-10.423098007320943
30
0
10
3.7167729520811932
20
-9.5410321128454498
30
0
10
3.7167729520811932
20
-9.0913515901261235
30
0
0
SPLINE
5
188
100
AcDbEntity
8
0
100
AcDbSpline
70
4
71
3
72
8
73
4
74
0
42
0.000000001
43
0.0000000001
44
0.0000000001
40
-1
40
-1
40
-1
40
-1
40
0
40
0
40
0
40
0
41
1
41
1
41
1
41
1
10
3.5957042562682062
20
-12.239117888232279
30
0
10
3.9243174027099781
20
-12.239117888232279
30
0
10
3.9243174027099781
20
-12.169934645308768
30
0
10
3.8378403283587459
20
-11.080324300204492
30
0
0
SPLINE
5
189
100
AcDbEntity
8
0
100
AcDbSpline
70
4
71
3
72
8
73
4
74
0
42
0.000000001
43
0.0000000001
44
0.0000000001
40
-1
40
-1
40
-1
40
-1
40
0
40
0
40
0
40
0
41
1
41
1
41
1
41
1
10
-8.113291083074607
20
-5.6668602375385486
30
0
10
-7.8365653688254664
20
-5.8571108567396113
30
0
10
-7.438770958763337
20
-6.0127698544789165
30
0
10
-7.231225848366833
20
-6.0127698544789165
30
0
0
SPLINE
5
190
100
AcDbEntity
8
0
100
AcDbSpline
70
4
71
3
72
8
73
4
74
0
42
0.000000001
43
0.0000000001
44
0.0000000001
40
-1
40
-1
40
-1
40
-1
40
0
40
0
40
0
40
0
41
1
41
1
41
1
41
1
10
-8.8742896012725474
20
-4.871271417414289
30
0
10
-8.7359257544963995
20
-5.1307026404679874
30
0
10
-8.4073132678223459
20
-5.4939060888360824
30
0
10
-8.113291083074607
20
-5.6668602375385486
30
0
0
LINE
5
191
100
AcDbEntity
8
0
100
AcDbLine
10
-8.8742896012725474
20
-4.871271417414289
30
0
11
-9.1164256733630893
21
-4.4042957437318035
31
0
0
LINE
5
192
100
AcDbEntity
8
0
100
AcDbLine
10
-9.1164256733630893
20
-4.4042957437318035
30
0
11
-8.545677114598492
21
-4.5253631200093558
31
0
0
SPLINE
5
193
100
AcDbEntity
8
0
100
AcDbSpline
70
4
71
3
72
8
73
4
74
0
42
0.000000001
43
0.0000000001
44
0.0000000001
40
-1
40
-1
40
-1
40
-1
40
0
40
0
40
0
40
0
41
1
41
1
41
1
41
1
10
-7.8884514814826634
20
-4.8539762664511299
30
0
10
-7.9230424431766995
20
-4.7329075706381403
30
0
10
-8.2170639681567188
20
-4.5772498924342697
30
0
10
-8.545677114598492
20
-4.5253631200093558
30
0
0
SPLINE
5
194
100
AcDbEntity
8
0
100
AcDbSpline
70
4
71
3
72
8
73
4
74
0
42
0.000000001
43
0.0000000001
44
0.0000000001
40
-1
40
-1
40
-1
40
-1
40
0
40
0
40
0
40
0
41
1
41
1
41
1
41
1
10
-7.3349980736812261
20
-5.5284977102978372
30
0
10
-7.5944292967349263
20
-5.2690664872441362
30
0
10
-7.8538605197886255
20
-4.9577484917655212
30
0
10
-7.8884514814826634
20
-4.8539762664511299
30
0
0
SPLINE
5
195
100
AcDbEntity
8
0
100
AcDbSpline
70
4
71
3
72
8
73
4
74
0
42
0.000000001
43
0.0000000001
44
0.0000000001
40
-1
40
-1
40
-1
40
-1
40
0
40
0
40
0
40
0
41
1
41
1
41
1
41
1
10
-7.231225848366833
20
-6.0127698544789165
30
0
10
-6.8680217402310229
20
-6.0127698544789165
30
0
10
-6.8853175509619007
20
-5.9954733839803209
30
0
10
-7.3349980736812261
20
-5.5284977102978372
30
0
0
SPLINE
5
196
100
AcDbEntity
8
0
100
AcDbSpline
70
4
71
3
72
8
73
4
74
0
42
0.000000001
43
0.0000000001
44
0.0000000001
40
-1
40
-1
40
-1
40
-1
40
0
40
0
40
0
40
0
41
1
41
1
41
1
41
1
10
2.5060939111639269
20
-7.1023801995831963
30
0
10
2.5060939111639269
20
-7.3272211207105764
30
0
10
3.4919333504892491
20
-7.2234488953961833
30
0
10
3.699477801118034
20
-6.9986079742688023
30
0
0
SPLINE
5
197
100
AcDbEntity
8
0
100
AcDbSpline
70
4
71
3
72
8
73
4
74
0
42
0.000000001
43
0.0000000001
44
0.0000000001
40
-1
40
-1
40
-1
40
-1
40
0
40
0
40
0
40
0
41
1
41
1
41
1
41
1
10
2.7828202851807871
20
-6.6872899787901874
30
0
10
2.6271612874414796
20
-6.8602441274926544
30
0
10
2.5060939111639269
20
-7.0504934271582798
30
0
10
2.5060939111639269
20
-7.1023801995831963
30
0
0
SPLINE
5
198
100
AcDbEntity
8
0
100
AcDbSpline
70
4
71
3
72
8
73
4
74
0
42
0.000000001
43
0.0000000001
44
0.0000000001
40
-1
40
-1
40
-1
40
-1
40
0
40
0
40
0
40
0
41
1
41
1
41
1
41
1
10
3.4746368799906535
20
-6.5662226025126369
30
0
10
3.1287285825857203
20
-6.4105636047733299
30
0
10
3.0076612063081676
20
-6.4451539066996482
30
0
10
2.7828202851807871
20
-6.6872899787901874
30
0
0
SPLINE
5
199
100
AcDbEntity
8
0
100
AcDbSpline
70
4
71
3
72
8
73
4
74
0
42
0.000000001
43
0.0000000001
44
0.0000000001
40
-1
40
-1
40
-1
40
-1
40
0
40
0
40
0
40
0
41
1
41
1
41
1
41
1
10
3.699477801118034
20
-6.9986079742688023
30
0
10
3.8378403283587459
20
-6.808358674603177
30
0
10
3.7859548754692685
20
-6.7218816002519421
30
0
10
3.4746368799906535
20
-6.5662226025126369
30
0
0
SPLINE
5
200
100
AcDbEntity
8
0
100
AcDbSpline
70
4
71
3
72
8
73
4
74
0
42
0.000000001
43
0.0000000001
44
0.0000000001
40
-1
40
-1
40
-1
40
-1
40
0
40
0
40
0
40
0
41
1
41
1
41
1
41
1
10
10.877073652734964
20
3.7937318284399177
30
0
10
11.361345796916043
20
3.2575735716016405
30
0
10
11.499709643692189
20
3.2229832696753213
30
0
10
11.499709643692189
20
3.5861867180434137
30
0
0
SPLINE
5
201
100
AcDbEntity
8
0
100
AcDbSpline
70
4
71
3
72
8
73
4
74
0
42
0.000000001
43
0.0000000001
44
0.0000000001
40
-1
40
-1
40
-1
40
-1
40
0
40
0
40
0
40
0
41
1
41
1
41
1
41
1
10
10.548461825828625
20
4.3298894255104772
30
0
10
10.496575053403706
20
4.2780033128532802
30
0
10
10.65223273160758
20
4.0358679005304579
30
0
10
10.877073652734964
20
3.7937318284399177
30
0
0
SPLINE
5
202
100
AcDbEntity
8
0
100
AcDbSpline
70
4
71
3
72
8
73
4
74
0
42
0.000000001
43
0.0000000001
44
0.0000000001
40
-1
40
-1
40
-1
40
-1
40
0
40
0
40
0
40
0
41
1
41
1
41
1
41
1
10
11.499709643692189
20
3.5861867180434137
30
0
10
11.499709643692189
20
3.8456179410971139
30
0
10
10.686825672604773
20
4.4682526125189064
30
0
10
10.548461825828625
20
4.3298894255104772
30
0
0
LINE
5
203
100
AcDbEntity
8
0
100
AcDbLine
10
-7.4387696392278997
20
4.9006379842750727
30
0
11
-7.0236794184348934
21
5.2292511307168468
31
0
0
SPLINE
5
204
100
AcDbEntity
8
0
100
AcDbSpline
70
4
71
3
72
8
73
4
74
0
42
0.000000001
43
0.0000000001
44
0.0000000001
40
-1
40
-1
40
-1
40
-1
40
0
40
0
40
0
40
0
41
1
41
1
41
1
41
1
10
-6.4875218213643349
20
5.2292511307168468
30
0
10
-6.2453857492737939
20
5.6789319833200311
30
0
10
-6.504816972327494
20
5.6789319833200311
30
0
10
-7.0236794184348934
20
5.2292511307168468
30
0
0
SPLINE
5
205
100
AcDbEntity
8
0
100
AcDbSpline
70
4
71
3
72
8
73
4
74
0
42
0.000000001
43
0.0000000001
44
0.0000000001
40
-1
40
-1
40
-1
40
-1
40
0
40
0
40
0
40
0
41
1
41
1
41
1
41
1
10
-7.0582703801289304
20
4.8833428333119135
30
0
10
-6.8507252697324272
20
4.8833428333119135
30
0
10
-6.5912940466787271
20
5.0390018310512206
30
0
10
-6.4875218213643349
20
5.2292511307168468
30
0
0
LINE
5
206
100
AcDbEntity
8
0
100
AcDbLine
10
-7.0582703801289304
20
4.8833428333119135
30
0
11
-7.4387696392278997
21
4.9006379842750727
31
0
0
SPLINE
5
207
100
AcDbEntity
8
0
100
AcDbSpline
70
4
71
3
72
8
73
4
74
0
42
0.000000001
43
0.0000000001
44
0.0000000001
40
-1
40
-1
40
-1
40
-1
40
0
40
0
40
0
40
0
41
1
41
1
41
1
41
1
10
-1.0221709862734785
20
6.6128843203365779
30
0
10
-0.74544593179205476
20
6.4399305015179724
30
0
10
-0.43412793631343982
20
6.2842718336625234
30
0
10
-0.34765086196220762
20
6.2842718336625234
30
0
0
LINE
5
208
100
AcDbEntity
8
0
100
AcDbLine
10
-1.0221709862734785
20
6.6128843203365779
30
0
11
-1.5064431304545596
21
6.9242016560474751
31
0
0
LINE
5
209
100
AcDbEntity
8
0
100
AcDbLine
10
-1.5064431304545596
20
6.9242016560474751
30
0
11
-1.0740577586983924
21
7.2009283599481932
31
0
0
SPLINE
5
210
100
AcDbEntity
8
0
100
AcDbSpline
70
4
71
3
72
8
73
4
74
0
42
0.000000001
43
0.0000000001
44
0.0000000001
40
-1
40
-1
40
-1
40
-1
40
0
40
0
40
0
40
0
41
1
41
1
41
1
41
1
10
1.2089364763599919
20
7.4084734703446973
30
0
10
0.44793927769748887
20
7.7197908060555935
30
0
10
-0.4168314658148442
20
7.6506092125513785
30
0
10
-1.0740577586983924
20
7.2009283599481932
30
0
0
SPLINE
5
211
100
AcDbEntity
8
0
100
AcDbSpline
70
4
71
3
72
8
73
4
74
0
42
0.000000001
43
0.0000000001
44
0.0000000001
40
-1
40
-1
40
-1
40
-1
40
0
40
0
40
0
40
0
41
1
41
1
41
1
41
1
10
1.76238922439371
20
7.0106790602825679
30
0
10
1.8142759968186239
20
7.079860653786783
30
0
10
1.5721399247280843
20
7.2528148024892491
30
0
10
1.2089364763599919
20
7.4084734703446973
30
0
0
SPLINE
5
212
100
AcDbEntity
8
0
100
AcDbSpline
70
4
71
3
72
8
73
4
74
0
42
0.000000001
43
0.0000000001
44
0.0000000001
40
-1
40
-1
40
-1
40
-1
40
0
40
0
40
0
40
0
41
1
41
1
41
1
41
1
10
-0.34765086196220762
20
6.2842718336625234
30
0
10
-0.12281126037026135
20
6.2842718336625234
30
0
10
1.6240253776175617
20
6.8723158732741378
30
0
10
1.76238922439371
20
7.0106790602825679
30
0
0
SPLINE
5
213
100
AcDbEntity
8
0
100
AcDbSpline
70
4
71
3
72
8
73
4
74
0
42
0.000000001
43
0.0000000001
44
0.0000000001
40
-1
40
-1
40
-1
40
-1
40
0
40
0
40
0
40
0
41
1
41
1
41
1
41
1
10
-3.720255442124869
20
-12.066163739529809
30
0
10
-1.2816008897917408
20
-12.273710829229469
30
0
10
-1.2297154369022634
20
-12.256414358730874
30
0
10
-1.1605335135141903
20
-11.495415840532935
30
0
0
SPLINE
5
214
100
AcDbEntity
8
0
100
AcDbSpline
70
4
71
3
72
8
73
4
74
0
42
0.000000001
43
0.0000000001
44
0.0000000001
40
-1
40
-1
40
-1
40
-1
40
0
40
0
40
0
40
0
41
1
41
1
41
1
41
1
10
-7.0063842674717343
20
-11.530006142459253
30
0
10
-7.0063842674717343
20
-11.702958971626281
30
0
10
-5.9340684135628985
20
-11.87591312032875
30
0
10
-3.720255442124869
20
-12.066163739529809
30
0
0
SPLINE
5
215
100
AcDbEntity
8
0
100
AcDbSpline
70
4
71
3
72
8
73
4
74
0
42
0.000000001
43
0.0000000001
44
0.0000000001
40
-1
40
-1
40
-1
40
-1
40
0
40
0
40
0
40
0
41
1
41
1
41
1
41
1
10
-6.8507252697324272
20
-11.374347144719948
30
0
10
-6.9372023440836603
20
-11.374347144719948
30
0
10
-7.0063842674717343
20
-11.44352906810802
30
0
10
-7.0063842674717343
20
-11.530006142459253
30
0
0
SPLINE
5
216
100
AcDbEntity
8
0
100
AcDbSpline
70
4
71
3
72
8
73
4
74
0
42
0.000000001
43
0.0000000001
44
0.0000000001
40
-1
40
-1
40
-1
40
-1
40
0
40
0
40
0
40
0
41
1
41
1
41
1
41
1
10
-5.4152059674554991
20
-11.218688146980638
30
0
10
-6.1070225622653638
20
-11.305165221331869
30
0
10
-6.7642481953811942
20
-11.374347144719948
30
0
10
-6.8507252697324272
20
-11.374347144719948
30
0
0
SPLINE
5
217
100
AcDbEntity
8
0
100
AcDbSpline
70
4
71
3
72
8
73
4
74
0
42
0.000000001
43
0.0000000001
44
0.0000000001
40
-1
40
-1
40
-1
40
-1
40
0
40
0
40
0
40
0
41
1
41
1
41
1
41
1
10
-2.6306437774851554
20
-10.941961772963777
30
0
10
-3.4608242190711702
20
-11.011143696351851
30
0
10
-4.7233900324133504
20
-11.132211072629406
30
0
10
-5.4152059674554991
20
-11.218688146980638
30
0
0
LINE
5
218
100
AcDbEntity
8
0
100
AcDbLine
10
-2.6306437774851554
20
-10.941961772963777
30
0
11
-1.1086467410892751
21
-10.838189547649383
31
0
0
LINE
5
219
100
AcDbEntity
8
0
100
AcDbLine
10
-1.1086467410892751
20
-10.838189547649383
30
0
11
-1.1605335135141901
21
-11.495415840532935
31
0
0
SPLINE
5
220
100
AcDbEntity
8
0
100
AcDbSpline
70
4
71
3
72
8
73
4
74
0
42
0.000000001
43
0.0000000001
44
0.0000000001
40
-1
40
-1
40
-1
40
-1
40
0
40
0
40
0
40
0
41
1
41
1
41
1
41
1
10
-3.5473012934224024
20
-7.2580378777870669
30
0
10
-3.2186894665160648
20
-7.4309907069540966
30
0
10
-2.8727811691111316
20
-7.5693545537302427
30
0
10
-2.8035992457230585
20
-7.5693545537302427
30
0
0
SPLINE
5
221
100
AcDbEntity
8
0
100
AcDbSpline
70
4
71
3
72
8
73
4
74
0
42
0.000000001
43
0.0000000001
44
0.0000000001
40
-1
40
-1
40
-1
40
-1
40
0
40
0
40
0
40
0
41
1
41
1
41
1
41
1
10
-3.4435290681080111
20
-6.203017834609108
30
0
10
-4.3082998116203424
20
-6.5835164339403596
30
0
10
-4.3428901135466624
20
-6.8775392784558136
30
0
10
-3.5473012934224024
20
-7.2580378777870669
30
0
0
LINE
5
222
100
AcDbEntity
8
0
100
AcDbLine
10
-3.4435290681080111
20
-6.203017834609108
30
0
11
-2.7344173223349855
21
-5.874404688167334
31
0
0
LINE
5
223
100
AcDbEntity
8
0
100
AcDbLine
10
-2.7344173223349855
20
-5.874404688167334
30
0
11
-2.2674416486524995
21
-6.4797442086259665
31
0
0
SPLINE
5
224
100
AcDbEntity
8
0
100
AcDbSpline
70
4
71
3
72
8
73
4
74
0
42
0.000000001
43
0.0000000001
44
0.0000000001
40
-1
40
-1
40
-1
40
-1
40
0
40
0
40
0
40
0
41
1
41
1
41
1
41
1
10
-1.852351427859491
20
-7.1196740310109181
30
0
10
-1.8177611259331727
20
-7.102378880047759
30
0
10
-1.9907152746356394
20
-6.8083573550677396
30
0
10
-2.2674416486524995
20
-6.4797442086259665
30
0
0
SPLINE
5
225
100
AcDbEntity
8
0
100
AcDbSpline
70
4
71
3
72
8
73
4
74
0
42
0.000000001
43
0.0000000001
44
0.0000000001
40
-1
40
-1
40
-1
40
-1
40
0
40
0
40
0
40
0
41
1
41
1
41
1
41
1
10
-2.8035992457230585
20
-7.5693545537302427
30
0
10
-2.6825318694455058
20
-7.5693545537302427
30
0
10
-1.9907152746356394
20
-7.2580378777870669
30
0
10
-1.852351427859491
20
-7.1196740310109181
30
0
0
SPLINE
5
226
100
AcDbEntity
8
0
100
AcDbSpline
70
4
71
3
72
8
73
4
74
0
42
0.000000001
43
0.0000000001
44
0.0000000001
40
-1
40
-1
40
-1
40
-1
40
0
40
0
40
0
40
0
41
1
41
1
41
1
41
1
10
8.6978529625264045
20
-6.2203129855722672
30
0
10
9.4588475221180381
20
-6.3932671342747334
30
0
10
10.634936261108985
20
-5.6841553885017078
30
0
10
10.634936261108985
20
-5.0615207170799152
30
0
0
SPLINE
5
227
100
AcDbEntity
8
0
100
AcDbSpline
70
4
71
3
72
8
73
4
74
0
42
0.000000001
43
0.0000000001
44
0.0000000001
40
-1
40
-1
40
-1
40
-1
40
0
40
0
40
0
40
0
41
1
41
1
41
1
41
1
10
8.8535106407302777
20
-5.3555422420599346
30
0
10
8.3000578926965574
20
-6.099245609294714
30
0
10
8.3000578926965574
20
-6.1338359112210323
30
0
10
8.6978529625264045
20
-6.2203129855722672
30
0
0
SPLINE
5
228
100
AcDbEntity
8
0
100
AcDbSpline
70
4
71
3
72
8
73
4
74
0
42
0.000000001
43
0.0000000001
44
0.0000000001
40
-1
40
-1
40
-1
40
-1
40
0
40
0
40
0
40
0
41
1
41
1
41
1
41
1
10
9.3550766163390797
20
-4.6637256472500681
30
0
10
9.3377827849113579
20
-4.6983159491763864
30
0
10
9.1129418637839734
20
-5.0096339446550004
30
0
10
8.8535106407302777
20
-5.3555422420599346
30
0
0
SPLINE
5
229
100
AcDbEntity
8
0
100
AcDbSpline
70
4
71
3
72
8
73
4
74
0
42
0.000000001
43
0.0000000001
44
0.0000000001
40
-1
40
-1
40
-1
40
-1
40
0
40
0
40
0
40
0
41
1
41
1
41
1
41
1
10
10.634936261108985
20
-5.0615207170799152
30
0
10
10.634936261108985
20
-4.8712700978788526
30
0
10
9.4588501611889075
20
-4.5080666495107602
30
0
10
9.3550766163390797
20
-4.6637256472500681
30
0
0
SPLINE
5
230
100
AcDbEntity
8
0
100
AcDbSpline
70
4
71
3
72
8
73
4
74
0
42
0.000000001
43
0.0000000001
44
0.0000000001
40
-1
40
-1
40
-1
40
-1
40
0
40
0
40
0
40
0
41
1
41
1
41
1
41
1
10
-2.7690076242613038
20
-20.956005927208246
30
0
10
-1.0394661372366376
20
-21.0597768329872
30
0
10
6.8126511582269966
20
-20.904119154783331
30
0
10
8.5594891157502584
20
-20.713868535582268
30
0
0
SPLINE
5
231
100
AcDbEntity
8
0
100
AcDbSpline
70
4
71
3
72
8
73
4
74
0
42
0.000000001
43
0.0000000001
44
0.0000000001
40
-1
40
-1
40
-1
40
-1
40
0
40
0
40
0
40
0
41
1
41
1
41
1
41
1
10
-9.6525826106659292
20
-20.022054579843275
30
0
10
-9.9293096444505071
20
-20.264189332398381
30
0
10
-6.643180819103641
20
-20.713871174653139
30
0
10
-2.7690076242613038
20
-20.956005927208246
30
0
0
SPLINE
5
232
100
AcDbEntity
8
0
100
AcDbSpline
70
4
71
3
72
8
73
4
74
0
42
0.000000001
43
0.0000000001
44
0.0000000001
40
-1
40
-1
40
-1
40
-1
40
0
40
0
40
0
40
0
41
1
41
1
41
1
41
1
10
-5.8821823009057006
20
-19.416715059384639
30
0
10
-7.5771328262363298
20
-19.537782435662194
30
0
10
-9.4623333110003038
20
-19.849100431140808
30
0
10
-9.6525826106659292
20
-20.022054579843275
30
0
0
SPLINE
5
233
100
AcDbEntity
8
0
100
AcDbSpline
70
4
71
3
72
8
73
4
74
0
42
0.000000001
43
0.0000000001
44
0.0000000001
40
-1
40
-1
40
-1
40
-1
40
0
40
0
40
0
40
0
41
1
41
1
41
1
41
1
10
-4.1180505119547162
20
-19.22646444018358
30
0
10
-4.3255949625835033
20
-19.278351212608491
30
0
10
-5.1211837827077611
20
-19.347534455532003
30
0
10
-5.8821823009057006
20
-19.416715059384639
30
0
0
SPLINE
5
234
100
AcDbEntity
8
0
100
AcDbSpline
70
4
71
3
72
8
73
4
74
0
42
0.000000001
43
0.0000000001
44
0.0000000001
40
-1
40
-1
40
-1
40
-1
40
0
40
0
40
0
40
0
41
1
41
1
41
1
41
1
10
-3.6337783677736368
20
-19.520485965163598
30
0
10
-3.7029602911617099
20
-19.261054742109899
30
0
10
-3.8586192889010174
20
-19.174577667758665
30
0
10
-4.1180505119547162
20
-19.22646444018358
30
0
0
SPLINE
5
235
100
AcDbEntity
8
0
100
AcDbSpline
70
4
71
3
72
8
73
4
74
0
42
0.000000001
43
0.0000000001
44
0.0000000001
40
-1
40
-1
40
-1
40
-1
40
0
40
0
40
0
40
0
41
1
41
1
41
1
41
1
10
-3.1495062235925553
20
-19.814507490143619
30
0
10
-3.3916422956830949
20
-19.849097792069937
30
0
10
-3.5473012934224024
20
-19.762620717718701
30
0
10
-3.6337783677736368
20
-19.520485965163598
30
0
0
SPLINE
5
236
100
AcDbEntity
8
0
100
AcDbSpline
70
4
71
3
72
8
73
4
74
0
42
0.000000001
43
0.0000000001
44
0.0000000001
40
-1
40
-1
40
-1
40
-1
40
0
40
0
40
0
40
0
41
1
41
1
41
1
41
1
10
-0.72814814175802267
20
-14.850723950196997
30
0
10
-1.2124202859391042
20
-16.874286962201683
30
0
10
-2.6133486265219963
20
-19.745326886290975
30
0
10
-3.1495062235925553
20
-19.814507490143619
30
0
0
SPLINE
5
237
100
AcDbEntity
8
0
100
AcDbSpline
70
4
71
3
72
8
73
4
74
0
42
0.000000001
43
0.0000000001
44
0.0000000001
40
-1
40
-1
40
-1
40
-1
40
0
40
0
40
0
40
0
41
1
41
1
41
1
41
1
10
0.050145527403075985
20
-13.276840141376205
30
0
10
-0.31305792096501639
20
-13.276840141376205
30
0
10
-0.38223984435308944
20
-13.432500458650946
30
0
10
-0.72814814175802267
20
-14.850723950196997
30
0
0
SPLINE
5
238
100
AcDbEntity
8
0
100
AcDbSpline
70
4
71
3
72
8
73
4
74
0
42
0.000000001
43
0.0000000001
44
0.0000000001
40
-1
40
-1
40
-1
40
-1
40
0
40
0
40
0
40
0
41
1
41
1
41
1
41
1
10
0.36146352288169092
20
-14.193497657313454
30
0
10
0.44794059723292534
20
-13.32872691380112
30
0
10
0.43064412673432972
20
-13.276840141376205
30
0
10
0.050145527403075985
20
-13.276840141376205
30
0
0
SPLINE
5
239
100
AcDbEntity
8
0
100
AcDbSpline
70
4
71
3
72
8
73
4
74
0
42
0.000000001
43
0.0000000001
44
0.0000000001
40
-1
40
-1
40
-1
40
-1
40
0
40
0
40
0
40
0
41
1
41
1
41
1
41
1
10
-0.019035076449560595
20
-19.589666569016234
30
0
10
-0.10551215080079501
20
-19.364825647888853
30
0
10
0.03285037643991684
20
-17.289375863459252
30
0
10
0.36146352288169092
20
-14.193497657313454
30
0
0
SPLINE
5
240
100
AcDbEntity
8
0
100
AcDbSpline
70
4
71
3
72
8
73
4
74
0
42
0.000000001
43
0.0000000001
44
0.0000000001
40
-1
40
-1
40
-1
40
-1
40
0
40
0
40
0
40
0
41
1
41
1
41
1
41
1
10
0.74196344174837892
20
-19.555076267089916
30
0
10
0.55171414208275316
20
-19.918278395922574
30
0
10
0.10203229982799211
20
-19.93557486642117
30
0
10
-0.019035076449560595
20
-19.589666569016234
30
0
0
SPLINE
5
241
100
AcDbEntity
8
0
100
AcDbSpline
70
4
71
3
72
8
73
4
74
0
42
0.000000001
43
0.0000000001
44
0.0000000001
40
-1
40
-1
40
-1
40
-1
40
0
40
0
40
0
40
0
41
1
41
1
41
1
41
1
10
1.1051668901164713
20
-17.168308487181704
30
0
10
1.0013946648020799
20
-18.309806924246331
30
0
10
0.82844051609961333
20
-19.38212211838745
30
0
10
0.74196344174837892
20
-19.555076267089916
30
0
0
SPLINE
5
242
100
AcDbEntity
8
0
100
AcDbSpline
70
4
71
3
72
8
73
4
74
0
42
0.000000001
43
0.0000000001
44
0.0000000001
40
-1
40
-1
40
-1
40
-1
40
0
40
0
40
0
40
0
41
1
41
1
41
1
41
1
10
1.831573786852656
20
-13.276840141376205
30
0
10
1.4683703384845637
20
-13.276840141376205
30
0
10
1.4683703384845637
20
-13.190363067024972
30
0
10
1.1051668901164713
20
-17.168308487181704
30
0
0
SPLINE
5
243
100
AcDbEntity
8
0
100
AcDbSpline
70
4
71
3
72
8
73
4
74
0
42
0.000000001
43
0.0000000001
44
0.0000000001
40
-1
40
-1
40
-1
40
-1
40
0
40
0
40
0
40
0
41
1
41
1
41
1
41
1
10
2.1601869332944301
20
-13.415203988152351
30
0
10
2.1601869332944301
20
-13.32872691380112
30
0
10
2.0045279355551227
20
-13.276840141376205
30
0
10
1.831573786852656
20
-13.276840141376205
30
0
0
SPLINE
5
244
100
AcDbEntity
8
0
100
AcDbSpline
70
4
71
3
72
8
73
4
74
0
42
0.000000001
43
0.0000000001
44
0.0000000001
40
-1
40
-1
40
-1
40
-1
40
0
40
0
40
0
40
0
41
1
41
1
41
1
41
1
10
2.67904937940183
20
-17.877421552490166
30
0
10
2.5579820031242773
20
-17.566103557011552
30
0
10
2.1601869332944301
20
-14.141610884888536
30
0
10
2.1601869332944301
20
-13.415203988152351
30
0
0
SPLINE
5
245
100
AcDbEntity
8
0
100
AcDbSpline
70
4
71
3
72
8
73
4
74
0
42
0.000000001
43
0.0000000001
44
0.0000000001
40
-1
40
-1
40
-1
40
-1
40
0
40
0
40
0
40
0
41
1
41
1
41
1
41
1
10
3.5957068953390769
20
-18.067672171691228
30
0
10
3.4400478975997717
20
-18.448170771022482
30
0
10
2.8520035281042966
20
-18.327103394744924
30
0
10
2.67904937940183
20
-17.877421552490166
30
0
0
SPLINE
5
246
100
AcDbEntity
8
0
100
AcDbSpline
70
4
71
3
72
8
73
4
74
0
42
0.000000001
43
0.0000000001
44
0.0000000001
40
-1
40
-1
40
-1
40
-1
40
0
40
0
40
0
40
0
41
1
41
1
41
1
41
1
10
3.543820122914163
20
-17.064537581402746
30
0
10
3.6130020463022383
20
-17.496922953158915
30
0
10
3.6475936677639931
20
-17.929308324915077
30
0
10
3.5957068953390769
20
-18.067672171691228
30
0
0
SPLINE
5
247
100
AcDbEntity
8
0
100
AcDbSpline
70
4
71
3
72
8
73
4
74
0
42
0.000000001
43
0.0000000001
44
0.0000000001
40
-1
40
-1
40
-1
40
-1
40
0
40
0
40
0
40
0
41
1
41
1
41
1
41
1
10
3.2843888998604642
20
-14.798837177772084
30
0
10
3.3535708232485373
20
-15.629017619358102
30
0
10
3.47463819952609
20
-16.649448680145177
30
0
10
3.543820122914163
20
-17.064537581402746
30
0
0
LINE
5
248
100
AcDbEntity
8
0
100
AcDbLine
10
3.2843888998604642
20
-14.798837177772084
30
0
11
3.163321523582912
21
-13.276840141376203
31
0
0
LINE
5
249
100
AcDbEntity
8
0
100
AcDbLine
10
3.163321523582912
20
-13.276840141376203
30
0
11
3.6994791206534705
21
-13.276840141376205
31
0
0
SPLINE
5
250
100
AcDbEntity
8
0
100
AcDbSpline
70
4
71
3
72
8
73
4
74
0
42
0.000000001
43
0.0000000001
44
0.0000000001
40
-1
40
-1
40
-1
40
-1
40
0
40
0
40
0
40
0
41
1
41
1
41
1
41
1
10
4.2356367177240317
20
-13.674635211206052
30
0
10
4.2356367177240317
20
-13.346020745228842
30
0
10
4.1491596433727951
20
-13.276840141376205
30
0
10
3.6994791206534705
20
-13.276840141376205
30
0
0
SPLINE
5
251
100
AcDbEntity
8
0
100
AcDbSpline
70
4
71
3
72
8
73
4
74
0
42
0.000000001
43
0.0000000001
44
0.0000000001
40
-1
40
-1
40
-1
40
-1
40
0
40
0
40
0
40
0
41
1
41
1
41
1
41
1
10
5.3771338352532227
20
-17.773648007640336
30
0
10
4.8928630106075754
20
-16.684036343000624
30
0
10
4.2356367177240317
20
-14.349155335517324
30
0
10
4.2356367177240317
20
-13.674635211206052
30
0
0
SPLINE
5
252
100
AcDbEntity
8
0
100
AcDbSpline
70
4
71
3
72
8
73
4
74
0
42
0.000000001
43
0.0000000001
44
0.0000000001
40
-1
40
-1
40
-1
40
-1
40
0
40
0
40
0
40
0
41
1
41
1
41
1
41
1
10
6.3283816531167902
20
-19.261054742109899
30
0
10
6.0516552790999301
20
-18.984327048557603
30
0
10
5.6192699073437602
20
-18.327100755674053
30
0
10
5.3771338352532227
20
-17.773648007640336
30
0
0
SPLINE
5
253
100
AcDbEntity
8
0
100
AcDbSpline
70
4
71
3
72
8
73
4
74
0
42
0.000000001
43
0.0000000001
44
0.0000000001
40
-1
40
-1
40
-1
40
-1
40
0
40
0
40
0
40
0
41
1
41
1
41
1
41
1
10
7.0893788517792933
20
-19.503189494665001
30
0
10
6.8645405697227835
20
-19.693440113866064
30
0
10
6.74347055437436
20
-19.658849811939746
30
0
10
6.3283816531167902
20
-19.261054742109899
30
0
0
SPLINE
5
254
100
AcDbEntity
8
0
100
AcDbSpline
70
4
71
3
72
8
73
4
74
0
42
0.000000001
43
0.0000000001
44
0.0000000001
40
-1
40
-1
40
-1
40
-1
40
0
40
0
40
0
40
0
41
1
41
1
41
1
41
1
10
8.7324432644527228
20
-19.38212211838745
30
0
10
7.7293086741642458
20
-19.312938875463939
30
0
10
7.2796294709803533
20
-19.347531816461128
30
0
10
7.0893788517792933
20
-19.503189494665001
30
0
0
SPLINE
5
255
100
AcDbEntity
8
0
100
AcDbSpline
70
4
71
3
72
8
73
4
74
0
42
0.000000001
43
0.0000000001
44
0.0000000001
40
-1
40
-1
40
-1
40
-1
40
0
40
0
40
0
40
0
41
1
41
1
41
1
41
1
10
12.364480387204523
20
-20.0220519407724
30
0
10
12.364480387204523
20
-19.849097792069937
30
0
10
10.513871523902303
20
-19.520485965163598
30
0
10
8.7324432644527228
20
-19.38212211838745
30
0
0
SPLINE
5
256
100
AcDbEntity
8
0
100
AcDbSpline
70
4
71
3
72
8
73
4
74
0
42
0.000000001
43
0.0000000001
44
0.0000000001
40
-1
40
-1
40
-1
40
-1
40
0
40
0
40
0
40
0
41
1
41
1
41
1
41
1
10
8.5594891157502584
20
-20.713868535582268
30
0
10
10.686825672604773
20
-20.506324084953484
30
0
10
12.364480387204523
20
-20.19500608947487
30
0
10
12.364480387204523
20
-20.0220519407724
30
0
0
SPLINE
5
257
100
AcDbEntity
8
0
100
AcDbSpline
70
4
71
3
72
8
73
4
74
0
42
0.000000001
43
0.0000000001
44
0.0000000001
40
0
40
0
40
0
40
0
40
1
40
1
40
1
40
1
41
1
41
1
41
1
41
1
10
-11.295651641713389
20
-19.900987203565723
30
0
10
-11.503196752109892
20
-20.973302397706842
30
0
10
-9.3066789316350231
20
-21.561348086737748
30
0
10
-3.7894413241192515
20
-21.92455021557041
30
0
0
SPLINE
5
258
100
AcDbEntity
8
0
100
AcDbSpline
70
4
71
3
72
8
73
4
74
0
42
0.000000001
43
0.0000000001
44
0.0000000001
40
0
40
0
40
0
40
0
40
1
40
1
40
1
40
1
41
1
41
1
41
1
41
1
10
-3.7894413241192515
20
-21.92455021557041
30
0
10
-1.0567652468061062
20
-22.097504364272872
30
0
10
6.6742846723799776
20
-21.993730819423046
30
0
10
8.9053974131551925
20
-21.734299596369343
30
0
0
SPLINE
5
259
100
AcDbEntity
8
0
100
AcDbSpline
70
4
71
3
72
8
73
4
74
0
42
0.000000001
43
0.0000000001
44
0.0000000001
40
0
40
0
40
0
40
0
40
1
40
1
40
1
40
1
41
1
41
1
41
1
41
1
10
8.9053974131551925
20
-21.734299596369343
30
0
10
10.911666593732154
20
-21.509458675241962
30
0
10
12.727685155108052
20
-21.146256546409305
30
0
10
13.367614977493005
20
-20.852232382358416
30
0
0
SPLINE
5
260
100
AcDbEntity
8
0
100
AcDbSpline
70
4
71
3
72
8
73
4
74
0
42
0.000000001
43
0.0000000001
44
0.0000000001
40
0
40
0
40
0
40
0
40
1
40
1
40
1
40
1
41
1
41
1
41
1
41
1
10
13.367614977493005
20
-20.852232382358416
30
0
10
13.938364196025317
20
-20.57550468880612
30
0
10
14.076728042801467
20
-19.866394262568534
30
0
10
13.627046200546701
20
-19.45130272224009
30
0
0
SPLINE
5
261
100
AcDbEntity
8
0
100
AcDbSpline
70
4
71
3
72
8
73
4
74
0
42
0.000000001
43
0.0000000001
44
0.0000000001
40
0
40
0
40
0
40
0
40
1
40
1
40
1
40
1
41
1
41
1
41
1
41
1
10
13.627046200546701
20
-19.45130272224009
30
0
10
13.073593452512986
20
-18.967030578059006
30
0
10
10.790599217454599
20
-18.534645206302841
30
0
10
7.2623330004817577
20
-18.24062368132282
30
0
0
SPLINE
5
262
100
AcDbEntity
8
0
100
AcDbSpline
70
4
71
3
72
8
73
4
74
0
42
0.000000001
43
0.0000000001
44
0.0000000001
40
0
40
0
40
0
40
0
40
1
40
1
40
1
40
1
41
1
41
1
41
1
41
1
10
7.2623330004817577
20
-18.24062368132282
30
0
10
6.8645379306519105
20
-18.223327210824223
30
0
10
6.674289950521719
20
-18.050373062121761
30
0
10
6.3629719550431085
20
-17.514216784586637
30
0
0
SPLINE
5
263
100
AcDbEntity
8
0
100
AcDbSpline
70
4
71
3
72
8
73
4
74
0
42
0.000000001
43
0.0000000001
44
0.0000000001
40
0
40
0
40
0
40
0
40
1
40
1
40
1
40
1
41
1
41
1
41
1
41
1
10
6.3629719550431085
20
-17.514216784586637
30
0
10
5.982473355711857
20
-16.822400189776769
30
0
10
5.342542213791468
20
-14.660473330995938
30
0
10
5.2387699884770722
20
-13.70922551313237
30
0
0
SPLINE
5
264
100
AcDbEntity
8
0
100
AcDbSpline
70
4
71
3
72
8
73
4
74
0
42
0.000000001
43
0.0000000001
44
0.0000000001
40
0
40
0
40
0
40
0
40
1
40
1
40
1
40
1
41
1
41
1
41
1
41
1
10
5.2387699884770722
20
-13.70922551313237
30
0
10
5.1868832160521583
20
-13.207659537523568
30
0
10
5.2214748375139131
20
-13.190363067024972
30
0
10
5.8786998108620248
20
-13.155772765098654
30
0
0
SPLINE
5
265
100
AcDbEntity
8
0
100
AcDbSpline
70
4
71
3
72
8
73
4
74
0
42
0.000000001
43
0.0000000001
44
0.0000000001
40
0
40
0
40
0
40
0
40
1
40
1
40
1
40
1
41
1
41
1
41
1
41
1
10
5.8786998108620248
20
-13.155772765098654
30
0
10
7.4871739216091404
20
-13.051999220248822
30
0
10
9.9258258348713966
20
-12.723387393342485
30
0
10
10.756006276457409
20
-12.481252640787384
30
0
0
SPLINE
5
266
100
AcDbEntity
8
0
100
AcDbSpline
70
4
71
3
72
8
73
4
74
0
42
0.000000001
43
0.0000000001
44
0.0000000001
40
0
40
0
40
0
40
0
40
1
40
1
40
1
40
1
41
1
41
1
41
1
41
1
10
10.756006276457409
20
-12.481252640787384
30
0
10
12.122342995578546
20
-12.100754041456131
30
0
10
12.364480387204523
20
-11.305163901796433
30
0
10
11.309459024491129
20
-10.751711153762717
30
0
0
SPLINE
5
267
100
AcDbEntity
8
0
100
AcDbSpline
70
4
71
3
72
8
73
4
74
0
42
0.000000001
43
0.0000000001
44
0.0000000001
40
0
40
0
40
0
40
0
40
1
40
1
40
1
40
1
41
1
41
1
41
1
41
1
10
11.309459024491129
20
-10.751711153762717
30
0
10
10.756006276457409
20
-10.474984779745856
30
0
10
8.2135808183453243
20
-10.059894558952852
30
0
10
6.103539412453971
20
-9.8869404102503822
30
0
0
LINE
5
268
100
AcDbEntity
8
0
100
AcDbLine
10
6.103539412453971
20
-9.8869404102503839
30
0
11
4.789088146222312
21
-9.7831681849359899
31
0
0
LINE
5
269
100
AcDbEntity
8
0
100
AcDbLine
10
4.789088146222312
20
-9.7831681849359899
30
0
11
4.7199062228342381
21
-8.728148141758032
31
0
0
SPLINE
5
270
100
AcDbEntity
8
0
100
AcDbSpline
70
4
71
3
72
8
73
4
74
0
42
0.000000001
43
0.0000000001
44
0.0000000001
40
0
40
0
40
0
40
0
40
1
40
1
40
1
40
1
41
1
41
1
41
1
41
1
10
4.7199062228342381
20
-8.728148141758032
30
0
10
4.6507242994461651
20
-7.4309920264895339
30
0
10
4.8236784481486294
20
-7.0504934271582798
30
0
10
5.5500866644202507
20
-7.0504934271582798
30
0
0
SPLINE
5
271
100
AcDbEntity
8
0
100
AcDbSpline
70
4
71
3
72
8
73
4
74
0
42
0.000000001
43
0.0000000001
44
0.0000000001
40
0
40
0
40
0
40
0
40
1
40
1
40
1
40
1
41
1
41
1
41
1
41
1
10
5.5500866644202507
20
-7.0504934271582798
30
0
10
5.84410818940027
20
-7.0504934271582798
30
0
10
6.3283816531167902
20
-6.9640163528070476
30
0
10
6.6396970095245278
20
-6.8602441274926544
30
0
0
SPLINE
5
272
100
AcDbEntity
8
0
100
AcDbSpline
70
4
71
3
72
8
73
4
74
0
42
0.000000001
43
0.0000000001
44
0.0000000001
40
0
40
0
40
0
40
0
40
1
40
1
40
1
40
1
41
1
41
1
41
1
41
1
10
6.6396970095245278
20
-6.8602441274926544
30
0
10
7.0720823812806977
20
-6.7045851297533465
30
0
10
7.296923302408076
20
-6.7218802807165083
30
0
10
7.7638989760905641
20
-6.9467212018438884
30
0
0
SPLINE
5
273
100
AcDbEntity
8
0
100
AcDbSpline
70
4
71
3
72
8
73
4
74
0
42
0.000000001
43
0.0000000001
44
0.0000000001
40
0
40
0
40
0
40
0
40
1
40
1
40
1
40
1
41
1
41
1
41
1
41
1
10
7.7638989760905641
20
-6.9467212018438884
30
0
10
8.576782947177982
20
-7.3272198011751399
30
0
10
9.7355752156703304
20
-7.2926294992488216
30
0
10
10.427391810480199
20
-6.8775392784558136
30
0
0
SPLINE
5
274
100
AcDbEntity
8
0
100
AcDbSpline
70
4
71
3
72
8
73
4
74
0
42
0.000000001
43
0.0000000001
44
0.0000000001
40
0
40
0
40
0
40
0
40
1
40
1
40
1
40
1
41
1
41
1
41
1
41
1
10
10.427391810480199
20
-6.8775392784558136
30
0
10
11.050027801437427
20
-6.4970406791245612
30
0
10
11.672661153323784
20
-5.5976783141504738
30
0
10
11.672661153323784
20
-5.0615207170799152
30
0
0
SPLINE
5
275
100
AcDbEntity
8
0
100
AcDbSpline
70
4
71
3
72
8
73
4
74
0
42
0.000000001
43
0.0000000001
44
0.0000000001
40
0
40
0
40
0
40
0
40
1
40
1
40
1
40
1
41
1
41
1
41
1
41
1
10
11.672661153323784
20
-5.0615207170799152
30
0
10
11.672661153323784
20
-4.8366797959525343
30
0
10
11.932092376377486
20
-4.5772485728988332
30
0
10
12.364477748133652
20
-4.317817349845134
30
0
0
SPLINE
5
276
100
AcDbEntity
8
0
100
AcDbSpline
70
4
71
3
72
8
73
4
74
0
42
0.000000001
43
0.0000000001
44
0.0000000001
40
0
40
0
40
0
40
0
40
1
40
1
40
1
40
1
41
1
41
1
41
1
41
1
10
12.364477748133652
20
-4.317817349845134
30
0
10
14.024838631305677
20
-3.3838646829447283
30
0
10
14.491814304988164
20
-1.3948919728663611
30
0
10
13.488679714699682
20
0.30005855246426627
30
0
0
SPLINE
5
277
100
AcDbEntity
8
0
100
AcDbSpline
70
4
71
3
72
8
73
4
74
0
42
0.000000001
43
0.0000000001
44
0.0000000001
40
0
40
0
40
0
40
0
40
1
40
1
40
1
40
1
41
1
41
1
41
1
41
1
10
13.488679714699682
20
0.30005855246426627
30
0
10
12.883340194241049
20
1.3031924829850294
30
0
10
12.675795743612266
20
1.9777139268317367
30
0
10
12.693089575039988
20
2.790597897919155
30
0
0
SPLINE
5
278
100
AcDbEntity
8
0
100
AcDbSpline
70
4
71
3
72
8
73
4
74
0
42
0.000000001
43
0.0000000001
44
0.0000000001
40
0
40
0
40
0
40
0
40
1
40
1
40
1
40
1
41
1
41
1
41
1
41
1
10
12.693089575039988
20
2.790597897919155
30
0
10
12.727679876966306
20
3.6034825287742911
30
0
10
12.139636827006267
20
4.7449796463034835
30
0
10
11.499707004621316
20
5.1081834245554356
30
0
0
SPLINE
5
279
100
AcDbEntity
8
0
100
AcDbSpline
70
4
71
3
72
8
73
4
74
0
42
0.000000001
43
0.0000000001
44
0.0000000001
40
0
40
0
40
0
40
0
40
1
40
1
40
1
40
1
41
1
41
1
41
1
41
1
10
11.499707004621316
20
5.1081834245554356
30
0
10
11.153798707216382
20
5.3157285349519388
30
0
10
10.686823033533898
20
5.419500760266331
30
0
10
10.150664116927906
20
5.3849101284561538
30
0
0
SPLINE
5
280
100
AcDbEntity
8
0
100
AcDbSpline
70
4
71
3
72
8
73
4
74
0
42
0.000000001
43
0.0000000001
44
0.0000000001
40
0
40
0
40
0
40
0
40
1
40
1
40
1
40
1
41
1
41
1
41
1
41
1
10
10.150664116927906
20
5.3849101284561538
30
0
10
9.7009822746731409
20
5.3676146476091358
30
0
10
9.1129392247131058
20
5.4540917219603688
30
0
10
8.8189176997330865
20
5.5578642771586209
30
0
0
SPLINE
5
281
100
AcDbEntity
8
0
100
AcDbSpline
70
4
71
3
72
8
73
4
74
0
42
0.000000001
43
0.0000000001
44
0.0000000001
40
0
40
0
40
0
40
0
40
1
40
1
40
1
40
1
41
1
41
1
41
1
41
1
10
8.8189176997330865
20
5.5578642771586209
30
0
10
8.5421900061807889
20
5.6789323132038909
30
0
10
7.8157831094446051
20
5.748113906708106
30
0
10
7.2450338909122891
20
5.713522945014069
30
0
0
SPLINE
5
282
100
AcDbEntity
8
0
100
AcDbSpline
70
4
71
3
72
8
73
4
74
0
42
0.000000001
43
0.0000000001
44
0.0000000001
40
0
40
0
40
0
40
0
40
1
40
1
40
1
40
1
41
1
41
1
41
1
41
1
10
7.2450338909122891
20
5.713522945014069
30
0
10
6.6396943704536593
20
5.6962274641670501
30
0
10
6.0862416224199389
20
5.748113906708106
30
0
10
5.9478777756437928
20
5.8518861320224982
30
0
0
SPLINE
5
283
100
AcDbEntity
8
0
100
AcDbSpline
70
4
71
3
72
8
73
4
74
0
42
0.000000001
43
0.0000000001
44
0.0000000001
40
0
40
0
40
0
40
0
40
1
40
1
40
1
40
1
41
1
41
1
41
1
41
1
10
5.9478777756437928
20
5.8518861320224982
30
0
10
5.4981972529244638
20
6.2150899102744495
30
0
10
4.252926590545445
20
6.785838469039045
30
0
10
3.9070182931405117
20
6.785838469039045
30
0
0
SPLINE
5
284
100
AcDbEntity
8
0
100
AcDbSpline
70
4
71
3
72
8
73
4
74
0
42
0.000000001
43
0.0000000001
44
0.0000000001
40
0
40
0
40
0
40
0
40
1
40
1
40
1
40
1
41
1
41
1
41
1
41
1
10
3.9070182931405117
20
6.785838469039045
30
0
10
3.7167689934748838
20
6.785838469039045
30
0
10
3.2843836217187183
20
7.045269692092746
30
0
10
2.9730656262401034
20
7.3738825086506594
30
0
0
SPLINE
5
285
100
AcDbEntity
8
0
100
AcDbSpline
70
4
71
3
72
8
73
4
74
0
42
0.000000001
43
0.0000000001
44
0.0000000001
40
0
40
0
40
0
40
0
40
1
40
1
40
1
40
1
41
1
41
1
41
1
41
1
10
2.9730656262401034
20
7.3738825086506594
30
0
10
1.624022738546691
20
8.7229249015182848
30
0
10
-0.036336825089902103
20
8.9823561245719858
30
0
10
-1.5237422400240264
20
8.1175853810596514
30
0
0
SPLINE
5
286
100
AcDbEntity
8
0
100
AcDbSpline
70
4
71
3
72
8
73
4
74
0
42
0.000000001
43
0.0000000001
44
0.0000000001
40
0
40
0
40
0
40
0
40
1
40
1
40
1
40
1
41
1
41
1
41
1
41
1
10
-1.5237422400240264
20
8.1175853810596514
30
0
10
-1.9907179137065123
20
7.8408586771589341
30
0
10
-2.4058081344995186
20
7.5122460255429493
30
0
10
-2.4576949069244347
20
7.3738825086506594
30
0
0
SPLINE
5
287
100
AcDbEntity
8
0
100
AcDbSpline
70
4
71
3
72
8
73
4
74
0
42
0.000000001
43
0.0000000001
44
0.0000000001
40
0
40
0
40
0
40
0
40
1
40
1
40
1
40
1
41
1
41
1
41
1
41
1
10
-2.4576949069244347
20
7.3738825086506594
30
0
10
-2.5095816793493486
20
7.2355193216422311
30
0
10
-2.7863080533662066
20
7.1317467664439782
30
0
10
-3.097624729309385
20
7.1317467664439782
30
0
0
SPLINE
5
288
100
AcDbEntity
8
0
100
AcDbSpline
70
4
71
3
72
8
73
4
74
0
42
0.000000001
43
0.0000000001
44
0.0000000001
40
0
40
0
40
0
40
0
40
1
40
1
40
1
40
1
41
1
41
1
41
1
41
1
10
-3.097624729309385
20
7.1317467664439782
30
0
10
-3.3916462542894044
20
7.114451285596961
30
0
10
-3.945100321858559
20
6.993383579435549
30
0
10
-4.32559892118981
20
6.8377245816962429
30
0
0
SPLINE
5
289
100
AcDbEntity
8
0
100
AcDbSpline
70
4
71
3
72
8
73
4
74
0
42
0.000000001
43
0.0000000001
44
0.0000000001
40
0
40
0
40
0
40
0
40
1
40
1
40
1
40
1
41
1
41
1
41
1
41
1
10
-4.32559892118981
20
6.8377245816962429
30
0
10
-4.7060975205210624
20
6.6993613946878128
30
0
10
-5.3806189643677698
20
6.5955888394895616
30
0
10
-5.8303001468548139
20
6.5955888394895616
30
0
0
SPLINE
5
290
100
AcDbEntity
8
0
100
AcDbSpline
70
4
71
3
72
8
73
4
74
0
42
0.000000001
43
0.0000000001
44
0.0000000001
40
0
40
0
40
0
40
0
40
1
40
1
40
1
40
1
41
1
41
1
41
1
41
1
10
-5.8303001468548139
20
6.5955888394895616
30
0
10
-6.2972764803050172
20
6.6128843203365779
30
0
10
-6.9199111517268097
20
6.5091117651383268
30
0
10
-7.2831146000949021
20
6.3361576164358606
30
0
0
SPLINE
5
291
100
AcDbEntity
8
0
100
AcDbSpline
70
4
71
3
72
8
73
4
74
0
42
0.000000001
43
0.0000000001
44
0.0000000001
40
0
40
0
40
0
40
0
40
1
40
1
40
1
40
1
41
1
41
1
41
1
41
1
10
-7.2831146000949021
20
6.3361576164358606
30
0
10
-7.9749311949047685
20
6.0075447998779463
30
0
10
-8.7359297131027098
20
5.0044108693571836
30
0
10
-8.7359297131027098
20
4.4163664998617103
30
0
0
SPLINE
5
292
100
AcDbEntity
8
0
100
AcDbSpline
70
4
71
3
72
8
73
4
74
0
42
0.000000001
43
0.0000000001
44
0.0000000001
40
0
40
0
40
0
40
0
40
1
40
1
40
1
40
1
41
1
41
1
41
1
41
1
10
-8.7359297131027098
20
4.4163664998617103
30
0
10
-8.7359297131027098
20
4.2088213894652062
30
0
10
-8.8915887108420151
20
3.7764360177090395
30
0
10
-9.0818380105076422
20
3.4651186819981437
30
0
0
SPLINE
5
293
100
AcDbEntity
8
0
100
AcDbSpline
70
4
71
3
72
8
73
4
74
0
42
0.000000001
43
0.0000000001
44
0.0000000001
40
0
40
0
40
0
40
0
40
1
40
1
40
1
40
1
41
1
41
1
41
1
41
1
10
-9.0818380105076422
20
3.4651186819981437
30
0
10
-9.2720873101732675
20
3.1538013462872474
30
0
10
-9.4277463079125763
20
2.7733020871882772
30
0
10
-9.4277463079125763
20
2.6349389001798471
30
0
0
SPLINE
5
294
100
AcDbEntity
8
0
100
AcDbSpline
70
4
71
3
72
8
73
4
74
0
42
0.000000001
43
0.0000000001
44
0.0000000001
40
0
40
0
40
0
40
0
40
1
40
1
40
1
40
1
41
1
41
1
41
1
41
1
10
-9.4277463079125763
20
2.6349389001798471
30
0
10
-9.4450414588757354
20
2.4965757131714184
30
0
10
-9.7390636436234708
20
2.1679625667296443
30
0
10
-10.102267751759282
20
1.9258271544068217
30
0
0
SPLINE
5
295
100
AcDbEntity
8
0
100
AcDbSpline
70
4
71
3
72
8
73
4
74
0
42
0.000000001
43
0.0000000001
44
0.0000000001
40
0
40
0
40
0
40
0
40
1
40
1
40
1
40
1
41
1
41
1
41
1
41
1
10
-10.102267751759282
20
1.9258271544068217
30
0
10
-10.949743014424595
20
1.3204876339481886
30
0
10
-11.399423867027782
20
0.38653496704778245
30
0
10
-11.399423867027782
20
-0.82414407386948385
30
0
0
SPLINE
5
296
100
AcDbEntity
8
0
100
AcDbSpline
70
4
71
3
72
8
73
4
74
0
42
0.000000001
43
0.0000000001
44
0.0000000001
40
0
40
0
40
0
40
0
40
1
40
1
40
1
40
1
41
1
41
1
41
1
41
1
10
-11.399423867027782
20
-0.82414407386948385
30
0
10
-11.382128386180764
20
-1.7926870426962083
30
0
10
-10.932447533577578
20
-2.9514806307239971
30
0
10
-10.396289936507019
20
-3.4011611534433239
30
0
0
SPLINE
5
297
100
AcDbEntity
8
0
100
AcDbSpline
70
4
71
3
72
8
73
4
74
0
42
0.000000001
43
0.0000000001
44
0.0000000001
40
0
40
0
40
0
40
0
40
1
40
1
40
1
40
1
41
1
41
1
41
1
41
1
10
-10.396289936507019
20
-3.4011611534433239
30
0
10
-10.240630938767712
20
-3.53952500021947
30
0
10
-10.119563562490159
20
-3.8335465251994894
30
0
10
-10.119563562490159
20
-4.0929777482531904
30
0
0
SPLINE
5
298
100
AcDbEntity
8
0
100
AcDbSpline
70
4
71
3
72
8
73
4
74
0
42
0.000000001
43
0.0000000001
44
0.0000000001
40
0
40
0
40
0
40
0
40
1
40
1
40
1
40
1
41
1
41
1
41
1
41
1
10
-10.119563562490159
20
-4.0929777482531904
30
0
10
-10.102268411527
20
-4.9058617193406073
30
0
10
-9.4969288910683662
20
-5.9608830820540026
30
0
10
-8.7186345621395507
20
-6.479745528161402
30
0
0
SPLINE
5
299
100
AcDbEntity
8
0
100
AcDbSpline
70
4
71
3
72
8
73
4
74
0
42
0.000000001
43
0.0000000001
44
0.0000000001
40
0
40
0
40
0
40
0
40
1
40
1
40
1
40
1
41
1
41
1
41
1
41
1
10
-8.7186345621395507
20
-6.479745528161402
30
0
10
-8.1305901926440765
20
-6.8775405979912492
30
0
10
-7.8019777059700202
20
-6.964017672342484
30
0
10
-7.0236840368089206
20
-6.9467212018438884
30
0
0
SPLINE
5
300
100
AcDbEntity
8
0
100
AcDbSpline
70
4
71
3
72
8
73
4
74
0
42
0.000000001
43
0.0000000001
44
0.0000000001
40
0
40
0
40
0
40
0
40
1
40
1
40
1
40
1
41
1
41
1
41
1
41
1
10
-7.0236840368089206
20
-6.9467212018438884
30
0
10
-6.4875264397383612
20
-6.9467212018438884
30
0
10
-5.8994820702428878
20
-6.8948344294189745
30
0
10
-5.7092327705772616
20
-6.8256538255663362
30
0
0
SPLINE
5
301
100
AcDbEntity
8
0
100
AcDbSpline
70
4
71
3
72
8
73
4
74
0
42
0.000000001
43
0.0000000001
44
0.0000000001
40
0
40
0
40
0
40
0
40
1
40
1
40
1
40
1
41
1
41
1
41
1
41
1
10
-5.7092327705772616
20
-6.8256538255663362
30
0
10
-5.4325063965604041
20
-6.7218816002519421
30
0
10
-5.2768473988210962
20
-6.8256538255663362
30
0
10
-4.9828252140733582
20
-7.2926294992488216
30
0
0
SPLINE
5
302
100
AcDbEntity
8
0
100
AcDbSpline
70
4
71
3
72
8
73
4
74
0
42
0.000000001
43
0.0000000001
44
0.0000000001
40
0
40
0
40
0
40
0
40
1
40
1
40
1
40
1
41
1
41
1
41
1
41
1
10
-4.9828252140733582
20
-7.2926294992488216
30
0
10
-4.2564183173371735
20
-8.4168314658148535
30
0
10
-2.7171261299781335
20
-8.8146265356447007
30
0
10
-1.5064470890608672
20
-8.1919905446874726
30
0
0
LINE
5
303
100
AcDbEntity
8
0
100
AcDbLine
10
-1.5064470890608681
20
-8.1919905446874726
30
0
11
-0.95299434102714864
21
-7.897969019707455
31
0
0
LINE
5
304
100
AcDbEntity
8
0
100
AcDbLine
10
-0.95299434102714864
20
-7.897969019707455
30
0
11
-0.95299434102714908
21
-9.7831695044714291
31
0
0
LINE
5
305
100
AcDbEntity
8
0
100
AcDbLine
10
-0.95299434102714908
20
-9.7831695044714291
30
0
11
-2.4576949069244347
21
-9.8869417297858178
31
0
0
SPLINE
5
306
100
AcDbEntity
8
0
100
AcDbSpline
70
4
71
3
72
8
73
4
74
0
42
0.000000001
43
0.0000000001
44
0.0000000001
40
0
40
0
40
0
40
0
40
1
40
1
40
1
40
1
41
1
41
1
41
1
41
1
10
-2.4576949069244347
20
-9.8869417297858178
30
0
10
-4.930939101416163
20
-10.059895878488287
30
0
10
-7.6463193679984309
20
-10.474986099281294
30
0
10
-8.1824769650689895
20
-10.751712473298154
30
0
0
SPLINE
5
307
100
AcDbEntity
8
0
100
AcDbSpline
70
4
71
3
72
8
73
4
74
0
42
0.000000001
43
0.0000000001
44
0.0000000001
40
0
40
0
40
0
40
0
40
1
40
1
40
1
40
1
41
1
41
1
41
1
41
1
10
-8.1824769650689895
20
-10.751712473298154
30
0
10
-9.0991338212385191
20
-11.235984617479232
30
0
10
-9.08183867027536
20
-11.858619288901027
30
0
10
-8.1132950416809173
20
-12.32559496258351
30
0
0
SPLINE
5
308
100
AcDbEntity
8
0
100
AcDbSpline
70
4
71
3
72
8
73
4
74
0
42
0.000000001
43
0.0000000001
44
0.0000000001
40
0
40
0
40
0
40
0
40
1
40
1
40
1
40
1
41
1
41
1
41
1
41
1
10
-8.1132950416809173
20
-12.32559496258351
30
0
10
-7.43877359783421
20
-12.636912958062126
30
0
10
-4.3083037702266509
20
-13.10388863174461
30
0
10
-2.7171261299781335
20
-13.10388863174461
30
0
0
SPLINE
5
309
100
AcDbEntity
8
0
100
AcDbSpline
70
4
71
3
72
8
73
4
74
0
42
0.000000001
43
0.0000000001
44
0.0000000001
40
0
40
0
40
0
40
0
40
1
40
1
40
1
40
1
41
1
41
1
41
1
41
1
10
-2.7171261299781335
20
-13.10388863174461
30
0
10
-1.8869456883921187
20
-13.10388863174461
30
0
10
-1.6102193143752608
20
-13.17306923559725
30
0
10
-1.5237422400240264
20
-13.380616325296906
30
0
0
SPLINE
5
310
100
AcDbEntity
8
0
100
AcDbSpline
70
4
71
3
72
8
73
4
74
0
42
0.000000001
43
0.0000000001
44
0.0000000001
40
0
40
0
40
0
40
0
40
1
40
1
40
1
40
1
41
1
41
1
41
1
41
1
10
-1.5237422400240264
20
-13.380616325296906
30
0
10
-1.4026748637464759
20
-13.69193432077552
30
0
10
-2.0080143842051079
20
-15.853861179556352
30
0
10
-2.5960574341651443
20
-17.168311126252576
30
0
0
LINE
5
311
100
AcDbEntity
8
0
100
AcDbLine
10
-2.5960574341651443
20
-17.168311126252576
30
0
11
-2.9938525039949919
21
-18.084968642189821
31
0
0
LINE
5
312
100
AcDbEntity
8
0
100
AcDbLine
10
-2.9938525039949919
20
-18.084968642189821
30
0
11
-4.1872363939490986
21
-18.188742187039651
31
0
0
SPLINE
5
313
100
AcDbEntity
8
0
100
AcDbSpline
70
4
71
3
72
8
73
4
74
0
42
0.000000001
43
0.0000000001
44
0.0000000001
40
0
40
0
40
0
40
0
40
1
40
1
40
1
40
1
41
1
41
1
41
1
41
1
10
-4.1872363939490986
20
-18.188742187039651
30
0
10
-9.0472477085813239
20
-18.62112755879582
30
0
10
-11.157288454704959
20
-19.122693534404625
30
0
10
-11.295651641713389
20
-19.900987203565723
30
0
0
ENDSEC
0
SECTION
2
OBJECTS
0
DICTIONARY
5
C
100
AcDbDictionary
3
ACAD_GROUP
350
D
3
ACAD_MLINESTYLE
350
17
0
DICTIONARY
5
D
100
AcDbDictionary
0
DICTIONARY
5
1A
330
C
100
AcDbDictionary
0
DICTIONARY
5
17
100
AcDbDictionary
0
ENDSEC
0
EOF
