0
SECTION
2
HEADER
9
$INSUNITS
70
4
9
$ACADVER
1
AC1014
9
$HANDSEED
5
FFFF
0
ENDSEC
0
SECTION
2
TABLES
0
TABLE
2
VPORT
5
8
100
AcDbSymbolTable
0
ENDTAB
0
TABLE
2
LTYPE
5
5
100
AcDbSymbolTable
0
LTYPE
5
14
100
AcDbSymbolTableRecord
100
AcDbLinetypeTableRecord
2
BYBLOCK
70
0
0
LTYPE
5
15
100
AcDbSymbolTableRecord
100
AcDbLinetypeTableRecord
2
BYLAYER
70
0
0
LTYPE
5
16
100
AcDbSymbolTableRecord
100
AcDbLinetypeTableRecord
2
DASHED
70
0
3
Dashed __ __ __ __ __ __ __ __ __ __ __ __ __ _
72
65
73
2
40
0.75
49
0.5
74
0
49
-0.25
74
0
0
ENDTAB
0
TABLE
2
LAYER
5
2
100
AcDbSymbolTable
70
2
0
LAYER
5
50
100
AcDbSymbolTableRecord
100
AcDbLayerTableRecord
2
0
70
0
62
7
6
CONTINUOUS
0
ENDTAB
0
TABLE
2
STYLE
5
3
100
AcDbSymbolTable
70
1
0
STYLE
5
11
100
AcDbSymbolTableRecord
100
AcDbTextStyleTableRecord
2
STANDARD
70
0
0
ENDTAB
0
TABLE
2
VIEW
5
6
100
AcDbSymbolTable
70
0
0
ENDTAB
0
TABLE
2
UCS
5
7
100
AcDbSymbolTable
70
0
0
ENDTAB
0
TABLE
2
APPID
5
9
100
AcDbSymbolTable
70
2
0
APPID
5
12
100
AcDbSymbolTableRecord
100
AcDbRegAppTableRecord
2
ACAD
70
0
0
ENDTAB
0
TABLE
2
DIMSTYLE
5
A
100
AcDbSymbolTable
70
1
0
ENDTAB
0
TABLE
2
BLOCK_RECORD
5
1
100
AcDbSymbolTable
70
1
0
BLOCK_RECORD
5
1F
100
AcDbSymbolTableRecord
100
AcDbBlockTableRecord
2
*MODEL_SPACE
0
BLOCK_RECORD
5
1B
100
AcDbSymbolTableRecord
100
AcDbBlockTableRecord
2
*PAPER_SPACE
0
ENDTAB
0
ENDSEC
0
SECTION
2
BLOCKS
0
BLOCK
5
20
100
AcDbEntity
100
AcDbBlockBegin
2
*MODEL_SPACE
0
ENDBLK
5
21
100
AcDbEntity
100
AcDbBlockEnd
0
BLOCK
5
1C
100
AcDbEntity
100
AcDbBlockBegin
2
*PAPER_SPACE
0
ENDBLK
5
1D
100
AcDbEntity
100
AcDbBlockEnd
0
ENDSEC
0
SECTION
2
ENTITIES
0
LWPOLYLINE
5
100
100
AcDbEntity
8
0
100
AcDbPolyline
90
4
70
1
43
0.0
10
-2.868648123572175
20
-21.662011283281714
10
5.9996338448337294
20
-21.662011283281714
10
5.9996338448337294
20
-34.212804982885814
10
-2.868648123572175
20
-34.212804982885814
0
LWPOLYLINE
5
101
100
AcDbEntity
8
0
100
AcDbPolyline
90
4
70
1
43
0.0
10
12.386918304209578
20
-18.973273009666201
10
18.954259872871482
20
-18.973273009666201
10
18.954259872871482
20
-21.126807092497618
10
12.386918304209578
20
-21.126807092497618
0
LWPOLYLINE
5
102
100
AcDbEntity
8
0
100
AcDbPolyline
90
4
70
1
43
0.0
10
-9.73333622755632
20
-18.975954664050221
10
-16.429464638840368
20
-18.975954664050221
10
-16.429464638840368
20
-21.143558950373922
10
-9.73333622755632
20
-21.143558950373922
0
LWPOLYLINE
5
103
100
AcDbEntity
8
0
100
AcDbPolyline
90
4
70
1
43
0.0
10
10.155523444652665
20
-10.477643430349818
10
19.000000283122063
20
-10.477643430349818
10
19.000000283122063
20
-12.565886640173801
10
10.155523444652665
20
-12.565886640173801
0
LWPOLYLINE
5
104
100
AcDbEntity
8
0
100
AcDbPolyline
90
4
70
1
43
0.0
10
-7.0448076035906562
20
-10.449681669484463
10
-17.014924403253385
20
-10.449681669484463
10
-17.014924403253385
20
-12.603096834553504
10
-7.0448076035906562
20
-12.603096834553504
0
SPLINE
5
105
100
AcDbEntity
8
0
100
AcDbSpline
70
4
71
3
72
8
73
4
74
0
42
0.000000001
43
0.0000000001
44
0.0000000001
40
0
40
0
40
0
40
0
40
1
40
1
40
1
40
1
41
1
41
1
41
1
41
1
10
-2.4576949069244347
20
-9.8869417297858178
30
0
10
-4.930939101416163
20
-10.059895878488287
30
0
10
-7.6463193679984309
20
-10.474986099281294
30
0
10
-8.1824769650689895
20
-10.751712473298154
30
0
0
LWPOLYLINE
5
106
100
AcDbEntity
8
0
100
AcDbPolyline
90
5
70
1
43
0.0
10
-7.7380699576491967
20
5.4735488905003704
10
-14.500000216066837
20
15.000000223517418
10
-10.500000156462193
20
17.500000260770321
10
-5.5000000819563866
20
17.500000260770321
10
0.28984988121517841
20
8.0790490652767151
0
LWPOLYLINE
5
107
100
AcDbEntity
8
0
100
AcDbPolyline
90
6
70
1
43
0.0
10
6.5000000968575478
20
5.4735488905003704
10
15.262166635907022
20
17.500000260770321
10
19.965641142726334
20
11.486774575635346
10
19.000000283122063
20
6.5000000968575478
10
12.349343336447378
20
3.6464552892166333
10
9.8938030626786997
20
5.0732276930370901
0
LWPOLYLINE
5
108
100
AcDbEntity
8
0
100
AcDbPolyline
90
4
70
1
43
0.0
10
13.219468487214122
20
0.20628635509052362
10
19.000000283122063
20
0.20628635509052362
10
19.000000283122063
20
-3.3977015218978779
10
13.219468487214122
20
-3.3977015218978779
0
LWPOLYLINE
5
109
100
AcDbEntity
8
0
100
AcDbPolyline
90
4
70
1
43
0.0
10
-10.500000156462193
20
1.1732761209343123
10
-17.00000025331974
20
1.1732761209343123
10
-17.00000025331974
20
-2.8415951716569854
10
-10.500000156462193
20
-2.8415951716569854
0
ENDSEC
0
SECTION
2
OBJECTS
0
DICTIONARY
5
C
100
AcDbDictionary
3
ACAD_GROUP
350
D
3
ACAD_MLINESTYLE
350
17
0
DICTIONARY
5
D
100
AcDbDictionary
0
DICTIONARY
5
1A
330
C
100
AcDbDictionary
0
DICTIONARY
5
17
100
AcDbDictionary
0
ENDSEC
0
EOF
