0
SECTION
2
HEADER
9
$INSUNITS
70
4
9
$ACADVER
1
AC1014
9
$HANDSEED
5
FFFF
0
ENDSEC
0
SECTION
2
TABLES
0
TABLE
2
VPORT
5
8
100
AcDbSymbolTable
0
ENDTAB
0
TABLE
2
LTYPE
5
5
100
AcDbSymbolTable
0
LTYPE
5
14
100
AcDbSymbolTableRecord
100
AcDbLinetypeTableRecord
2
BYBLOCK
70
0
0
LTYPE
5
15
100
AcDbSymbolTableRecord
100
AcDbLinetypeTableRecord
2
BYLAYER
70
0
0
LTYPE
5
16
100
AcDbSymbolTableRecord
100
AcDbLinetypeTableRecord
2
DASHED
70
0
3
Dashed __ __ __ __ __ __ __ __ __ __ __ __ __ _
72
65
73
2
40
0.75
49
0.5
74
0
49
-0.25
74
0
0
ENDTAB
0
TABLE
2
LAYER
5
2
100
AcDbSymbolTable
70
2
0
LAYER
5
50
100
AcDbSymbolTableRecord
100
AcDbLayerTableRecord
2
0
70
0
62
7
6
CONTINUOUS
0
ENDTAB
0
TABLE
2
STYLE
5
3
100
AcDbSymbolTable
70
1
0
STYLE
5
11
100
AcDbSymbolTableRecord
100
AcDbTextStyleTableRecord
2
STANDARD
70
0
0
ENDTAB
0
TABLE
2
VIEW
5
6
100
AcDbSymbolTable
70
0
0
ENDTAB
0
TABLE
2
UCS
5
7
100
AcDbSymbolTable
70
0
0
ENDTAB
0
TABLE
2
APPID
5
9
100
AcDbSymbolTable
70
2
0
APPID
5
12
100
AcDbSymbolTableRecord
100
AcDbRegAppTableRecord
2
ACAD
70
0
0
ENDTAB
0
TABLE
2
DIMSTYLE
5
A
100
AcDbSymbolTable
70
1
0
ENDTAB
0
TABLE
2
BLOCK_RECORD
5
1
100
AcDbSymbolTable
70
1
0
BLOCK_RECORD
5
1F
100
AcDbSymbolTableRecord
100
AcDbBlockTableRecord
2
*MODEL_SPACE
0
BLOCK_RECORD
5
1B
100
AcDbSymbolTableRecord
100
AcDbBlockTableRecord
2
*PAPER_SPACE
0
ENDTAB
0
ENDSEC
0
SECTION
2
BLOCKS
0
BLOCK
5
20
100
AcDbEntity
100
AcDbBlockBegin
2
*MODEL_SPACE
0
ENDBLK
5
21
100
AcDbEntity
100
AcDbBlockEnd
0
BLOCK
5
1C
100
AcDbEntity
100
AcDbBlockBegin
2
*PAPER_SPACE
0
ENDBLK
5
1D
100
AcDbEntity
100
AcDbBlockEnd
0
ENDSEC
0
SECTION
2
ENTITIES
0
SPLINE
5
100
100
AcDbEntity
8
0
100
AcDbSpline
70
4
71
3
72
8
73
4
74
0
42
0.000000001
43
0.0000000001
44
0.0000000001
40
0
40
0
40
0
40
0
40
1
40
1
40
1
40
1
41
1
41
1
41
1
41
1
10
35.71901645660401
20
-1.0847916414340339
30
0
10
35.583018620808929
20
-1.8377958595752719
30
0
10
35.711870574951178
20
-15.857802446683252
30
0
10
35.856334463755296
20
-16.001999878883364
30
0
0
SPLINE
5
101
100
AcDbEntity
8
0
100
AcDbSpline
70
4
71
3
72
8
73
4
74
0
42
0.000000001
43
0.0000000001
44
0.0000000001
40
0
40
0
40
0
40
0
40
1
40
1
40
1
40
1
41
1
41
1
41
1
41
1
10
35.856334463755296
20
-16.001999878883364
30
0
10
36.072232945760099
20
-16.217900379498801
30
0
10
69.507627487182631
20
-16.258381597201033
30
0
10
69.802110481262218
20
-16.043275419871016
30
0
0
SPLINE
5
102
100
AcDbEntity
8
0
100
AcDbSpline
70
4
71
3
72
8
73
4
74
0
42
0.000000001
43
0.0000000001
44
0.0000000001
40
0
40
0
40
0
40
0
40
1
40
1
40
1
40
1
41
1
41
1
41
1
41
1
10
69.802110481262218
20
-16.043275419871016
30
0
10
70.003721237182631
20
-15.89563726584117
30
0
10
70.008751614888524
20
-15.710694177945456
30
0
10
70.008751614888524
20
-8.4275081435839354
30
0
0
SPLINE
5
103
100
AcDbEntity
8
0
100
AcDbSpline
70
4
71
3
72
8
73
4
74
0
42
0.000000001
43
0.0000000001
44
0.0000000001
40
0
40
0
40
0
40
0
40
1
40
1
40
1
40
1
41
1
41
1
41
1
41
1
10
70.008751614888524
20
-8.4275081435839354
30
0
10
70.008751614888524
20
0.32146875883142156
30
0
10
70.074098078409847
20
-0.056091666004310058
30
0
10
68.844586563110369
20
-1.7160875161488853
30
0
0
SPLINE
5
104
100
AcDbEntity
8
0
100
AcDbSpline
70
4
71
3
72
8
73
4
74
0
42
0.000000001
43
0.0000000001
44
0.0000000001
40
0
40
0
40
0
40
0
40
1
40
1
40
1
40
1
41
1
41
1
41
1
41
1
10
68.844586563110369
20
-1.7160875161488853
30
0
10
64.463083171844488
20
-7.6311122496922827
30
0
10
59.687353197733572
20
-7.679795587062836
30
0
10
54.113113339742036
20
-1.8661062429348629
30
0
0
SPLINE
5
105
100
AcDbEntity
8
0
100
AcDbSpline
70
4
71
3
72
8
73
4
74
0
42
0.000000001
43
0.0000000001
44
0.0000000001
40
0
40
0
40
0
40
0
40
1
40
1
40
1
40
1
41
1
41
1
41
1
41
1
10
54.113113339742036
20
-1.8661062429348629
30
0
10
53.51965392430624
20
-1.2472458928823473
30
0
10
52.960854053497322
20
-0.74083332071701702
30
0
10
52.87115910847983
20
-0.74083332071701702
30
0
0
SPLINE
5
106
100
AcDbEntity
8
0
100
AcDbSpline
70
4
71
3
72
8
73
4
74
0
42
0.000000001
43
0.0000000001
44
0.0000000001
40
0
40
0
40
0
40
0
40
1
40
1
40
1
40
1
41
1
41
1
41
1
41
1
10
52.87115910847983
20
-0.74083332071701702
30
0
10
52.781464163462324
20
-0.74083332071701702
30
0
10
52.100162887573248
20
-1.3499042292435968
30
0
10
51.357213242848722
20
-2.0944416373968129
30
0
0
SPLINE
5
107
100
AcDbEntity
8
0
100
AcDbSpline
70
4
71
3
72
8
73
4
74
0
42
0.000000001
43
0.0000000001
44
0.0000000001
40
0
40
0
40
0
40
0
40
1
40
1
40
1
40
1
41
1
41
1
41
1
41
1
10
51.357213242848722
20
-2.0944416373968129
30
0
10
45.743549919128419
20
-7.7192185481389375
30
0
10
41.553075726826989
20
-7.6258209665616361
30
0
10
36.900113614400233
20
-1.7727082828680676
30
0
0
SPLINE
5
108
100
AcDbEntity
8
0
100
AcDbSpline
70
4
71
3
72
8
73
4
74
0
42
0.000000001
43
0.0000000001
44
0.0000000001
40
0
40
0
40
0
40
0
40
1
40
1
40
1
40
1
41
1
41
1
41
1
41
1
10
36.900113614400233
20
-1.7727082828680676
30
0
10
36.017730458577482
20
-0.66278128027915972
30
0
10
35.816644541422534
20
-0.54557084292173397
30
0
10
35.71901645660401
20
-1.0847916414340339
30
0
0
SPLINE
5
109
100
AcDbEntity
8
0
100
AcDbSpline
70
4
71
3
72
8
73
4
74
0
42
0.000000001
43
0.0000000001
44
0.0000000001
40
0
40
0
40
0
40
0
40
1
40
1
40
1
40
1
41
1
41
1
41
1
41
1
10
0.6350000252326331
20
-11.629231015841167
30
0
10
0.22304374861220522
20
-11.744589567184448
30
0
10
0.25876249608894192
20
-12.076377495129904
30
0
10
0.7948083197077116
20
-13.114602438608806
30
0
0
SPLINE
5
110
100
AcDbEntity
8
0
100
AcDbSpline
70
4
71
3
72
8
73
4
74
0
42
0.000000001
43
0.0000000001
44
0.0000000001
40
0
40
0
40
0
40
0
40
1
40
1
40
1
40
1
41
1
41
1
41
1
41
1
10
0.7948083197077116
20
-13.114602438608806
30
0
10
2.1296311934789025
20
-15.698787403106691
30
0
10
3.7576124111811327
20
-16.973814551035566
30
0
10
6.213474802176159
20
-17.357724014918013
30
0
0
SPLINE
5
111
100
AcDbEntity
8
0
100
AcDbSpline
70
4
71
3
72
8
73
4
74
0
42
0.000000001
43
0.0000000001
44
0.0000000001
40
0
40
0
40
0
40
0
40
1
40
1
40
1
40
1
41
1
41
1
41
1
41
1
10
6.213474802176159
20
-17.357724014918013
30
0
10
7.3075269460678118
20
-17.528910271326701
30
0
10
7.2747189720471708
20
-17.504038969675701
30
0
10
7.5221042474110931
20
-18.341974337895714
30
0
0
SPLINE
5
112
100
AcDbEntity
8
0
100
AcDbSpline
70
4
71
3
72
8
73
4
74
0
42
0.000000001
43
0.0000000001
44
0.0000000001
40
0
40
0
40
0
40
0
40
1
40
1
40
1
40
1
41
1
41
1
41
1
41
1
10
7.5221042474110931
20
-18.341974337895714
30
0
10
8.2973334948221851
20
-20.967964728673302
30
0
10
9.7837626695632949
20
-22.162293879191083
30
0
10
12.730162080128991
20
-22.526889276504519
30
0
0
SPLINE
5
113
100
AcDbEntity
8
0
100
AcDbSpline
70
4
71
3
72
8
73
4
74
0
42
0.000000001
43
0.0000000001
44
0.0000000001
40
0
40
0
40
0
40
0
40
1
40
1
40
1
40
1
41
1
41
1
41
1
41
1
10
12.730162080128991
20
-22.526889276504519
30
0
10
13.726583615938825
20
-22.650186014175418
30
0
10
13.75595238208771
20
-22.672675355275477
30
0
10
14.30893158912659
20
-23.735770591100056
30
0
0
SPLINE
5
114
100
AcDbEntity
8
0
100
AcDbSpline
70
4
71
3
72
8
73
4
74
0
42
0.000000001
43
0.0000000001
44
0.0000000001
40
0
40
0
40
0
40
0
40
1
40
1
40
1
40
1
41
1
41
1
41
1
41
1
10
14.30893158912659
20
-23.735770591100056
30
0
10
15.725510780016583
20
-26.458333333333339
30
0
10
17.165901501973472
20
-26.902568976084392
30
0
10
24.659165859222412
20
-26.928498029708866
30
0
0
LWPOLYLINE
5
115
100
AcDbEntity
8
0
100
AcDbPolyline
90
4
70
1
43
0.0
10
24.659165859222412
20
-26.928498029708866
10
29.368750000000002
20
-26.944901259740199
10
30.446926275889084
20
-27.657688824335736
10
29.368750000000002
20
-26.944901259740199
0
SPLINE
5
116
100
AcDbEntity
8
0
100
AcDbSpline
70
4
71
3
72
8
73
4
74
0
42
0.000000001
43
0.0000000001
44
0.0000000001
40
0
40
0
40
0
40
0
40
1
40
1
40
1
40
1
41
1
41
1
41
1
41
1
10
30.446926275889084
20
-27.657688824335736
30
0
10
33.81216216087342
20
-29.882571188608811
30
0
10
38.332039292653405
20
-30.836657412846886
30
0
10
42.829955959320074
20
-30.27150901158651
30
0
0
SPLINE
5
117
100
AcDbEntity
8
0
100
AcDbSpline
70
4
71
3
72
8
73
4
74
0
42
0.000000001
43
0.0000000001
44
0.0000000001
40
0
40
0
40
0
40
0
40
1
40
1
40
1
40
1
41
1
41
1
41
1
41
1
10
42.829955959320074
20
-30.27150901158651
30
0
10
44.718551921844487
20
-30.034176921844487
30
0
10
44.720405006408697
20
-29.899503294626875
30
0
10
42.846359189351404
20
-29.056541585922243
30
0
0
SPLINE
5
118
100
AcDbEntity
8
0
100
AcDbSpline
70
4
71
3
72
8
73
4
74
0
42
0.000000001
43
0.0000000001
44
0.0000000001
40
0
40
0
40
0
40
0
40
1
40
1
40
1
40
1
41
1
41
1
41
1
41
1
10
42.846359189351404
20
-29.056541585922243
30
0
10
36.369626776377366
20
-26.1432140827179
30
0
10
32.255884011586517
20
-21.228050597508748
30
0
10
29.524059883753463
20
-13.139737168947859
30
0
0
SPLINE
5
119
100
AcDbEntity
8
0
100
AcDbSpline
70
4
71
3
72
8
73
4
74
0
42
0.000000001
43
0.0000000001
44
0.0000000001
40
0
40
0
40
0
40
0
40
1
40
1
40
1
40
1
41
1
41
1
41
1
41
1
10
29.524059883753463
20
-13.139737168947859
30
0
10
29.297842264175419
20
-12.470341658592226
30
0
10
29.037756395339969
20
-11.847512467702233
30
0
10
28.945945946375534
20
-11.755702018737795
30
0
0
SPLINE
5
120
100
AcDbEntity
8
0
100
AcDbSpline
70
4
71
3
72
8
73
4
74
0
42
0.000000001
43
0.0000000001
44
0.0000000001
40
0
40
0
40
0
40
0
40
1
40
1
40
1
40
1
41
1
41
1
41
1
41
1
10
28.945945946375534
20
-11.755702018737795
30
0
10
28.768940035502123
20
-11.578431669871014
30
0
10
1.256241705020269
20
-11.455664817492169
30
0
10
0.6350000252326331
20
-11.629231015841167
30
0
0
SPLINE
5
121
100
AcDbEntity
8
0
100
AcDbSpline
70
4
71
3
72
8
73
4
74
0
42
0.000000001
43
0.0000000001
44
0.0000000001
40
0
40
0
40
0
40
0
40
1
40
1
40
1
40
1
41
1
41
1
41
1
41
1
10
77.0704814275106
20
-11.610974701245627
30
0
10
76.725194040934255
20
-11.677120534578961
30
0
10
76.593968200683605
20
-11.929269226392112
30
0
10
75.982773272196468
20
-13.699331363042198
30
0
0
SPLINE
5
122
100
AcDbEntity
8
0
100
AcDbSpline
70
4
71
3
72
8
73
4
74
0
42
0.000000001
43
0.0000000001
44
0.0000000001
40
0
40
0
40
0
40
0
40
1
40
1
40
1
40
1
41
1
41
1
41
1
41
1
10
75.982773272196468
20
-13.699331363042198
30
0
10
73.299636014302578
20
-21.47305340766907
30
0
10
69.059423255920422
20
-26.360967667897548
30
0
10
62.527655442555755
20
-29.210529279708869
30
0
0
SPLINE
5
123
100
AcDbEntity
8
0
100
AcDbSpline
70
4
71
3
72
8
73
4
74
0
42
0.000000001
43
0.0000000001
44
0.0000000001
40
0
40
0
40
0
40
0
40
1
40
1
40
1
40
1
41
1
41
1
41
1
41
1
10
62.527655442555755
20
-29.210529279708869
30
0
10
61.005509980519619
20
-29.874369573593142
30
0
10
61.052870623270678
20
-30.066720962524421
30
0
10
62.78535935084026
20
-30.260132122039799
30
0
0
SPLINE
5
124
100
AcDbEntity
8
0
100
AcDbSpline
70
4
71
3
72
8
73
4
74
0
42
0.000000001
43
0.0000000001
44
0.0000000001
40
0
40
0
40
0
40
0
40
1
40
1
40
1
40
1
41
1
41
1
41
1
41
1
10
62.78535935084026
20
-30.260132122039799
30
0
10
67.668511708577483
20
-30.804379828770962
30
0
10
71.912164179484066
20
-29.908764680226646
30
0
10
75.353330103556317
20
-27.607154925664268
30
0
0
LWPOLYLINE
5
125
100
AcDbEntity
8
0
100
AcDbPolyline
90
4
70
1
43
0.0
10
75.353330103556317
20
-27.607154925664268
10
76.358751614888519
20
-26.934584140777595
10
79.745415051778167
20
-26.966068410873419
10
76.358751614888519
20
-26.934584140777595
0
SPLINE
5
126
100
AcDbEntity
8
0
100
AcDbSpline
70
4
71
3
72
8
73
4
74
0
42
0.000000001
43
0.0000000001
44
0.0000000001
40
0
40
0
40
0
40
0
40
1
40
1
40
1
40
1
41
1
41
1
41
1
41
1
10
79.745415051778167
20
-26.966068410873415
30
0
10
88.073443539937344
20
-27.043326695760097
30
0
10
90.002250226338717
20
-26.484526824951175
30
0
10
91.502974192301437
20
-23.559557994206749
30
0
0
SPLINE
5
127
100
AcDbEntity
8
0
100
AcDbSpline
70
4
71
3
72
8
73
4
74
0
42
0.000000001
43
0.0000000001
44
0.0000000001
40
0
40
0
40
0
40
0
40
1
40
1
40
1
40
1
41
1
41
1
41
1
41
1
10
91.502974192301437
20
-23.559557994206749
30
0
10
91.96361306508382
20
-22.661827341715501
30
0
10
92.044042587280302
20
-22.612084738413497
30
0
10
93.221966489156102
20
-22.492229731877647
30
0
0
SPLINE
5
128
100
AcDbEntity
8
0
100
AcDbSpline
70
4
71
3
72
8
73
4
74
0
42
0.000000001
43
0.0000000001
44
0.0000000001
40
0
40
0
40
0
40
0
40
1
40
1
40
1
40
1
41
1
41
1
41
1
41
1
10
93.221966489156102
20
-22.492229731877647
30
0
10
95.736307525634771
20
-22.236641327540081
30
0
10
97.353965568542492
20
-20.955530087153118
30
0
10
98.072574806213396
20
-18.651007477442427
30
0
0
SPLINE
5
129
100
AcDbEntity
8
0
100
AcDbSpline
70
4
71
3
72
8
73
4
74
0
42
0.000000001
43
0.0000000001
44
0.0000000001
40
0
40
0
40
0
40
0
40
1
40
1
40
1
40
1
41
1
41
1
41
1
41
1
10
98.072574806213396
20
-18.651007477442427
30
0
10
98.416529909769707
20
-17.54769546190898
30
0
10
98.449869283040385
20
-17.515946753819787
30
0
10
99.414280700683605
20
-17.372542635599775
30
0
0
SPLINE
5
130
100
AcDbEntity
8
0
100
AcDbSpline
70
4
71
3
72
8
73
4
74
0
42
0.000000001
43
0.0000000001
44
0.0000000001
40
0
40
0
40
0
40
0
40
1
40
1
40
1
40
1
41
1
41
1
41
1
41
1
10
99.414280700683605
20
-17.372542635599775
30
0
10
101.97147280375164
20
-16.992335303624472
30
0
10
103.78122183481852
20
-15.544535271326703
30
0
10
105.05678189595542
20
-12.858485158284507
30
0
0
SPLINE
5
131
100
AcDbEntity
8
0
100
AcDbSpline
70
4
71
3
72
8
73
4
74
0
42
0.000000001
43
0.0000000001
44
0.0000000001
40
0
40
0
40
0
40
0
40
1
40
1
40
1
40
1
41
1
41
1
41
1
41
1
10
105.05678189595542
20
-12.858485158284507
30
0
10
105.47138029734296
20
-11.985360360145572
30
0
10
105.47825972239178
20
-11.73797458012899
30
0
10
105.09197031656903
20
-11.630289777119955
30
0
0
SPLINE
5
132
100
AcDbEntity
8
0
100
AcDbSpline
70
4
71
3
72
8
73
4
74
0
42
0.000000001
43
0.0000000001
44
0.0000000001
40
0
40
0
40
0
40
0
40
1
40
1
40
1
40
1
41
1
41
1
41
1
41
1
10
105.09197031656903
20
-11.630289777119955
30
0
10
104.81018842061361
20
-11.551972730954489
30
0
10
77.476617813110366
20
-11.532923102378847
30
0
10
77.0704814275106
20
-11.610974701245627
30
0
0
SPLINE
5
133
100
AcDbEntity
8
0
100
AcDbSpline
70
4
71
3
72
8
73
4
74
0
42
0.000000001
43
0.0000000001
44
0.0000000001
40
0
40
0
40
0
40
0
40
1
40
1
40
1
40
1
41
1
41
1
41
1
41
1
10
52.358133252461762
20
-27.854275258382163
30
0
10
51.943793233235681
20
-28.589023288091028
30
0
10
48.247563743591321
20
-35.572437063852952
30
0
10
47.326548417409271
20
-37.360490067799887
30
0
0
SPLINE
5
134
100
AcDbEntity
8
0
100
AcDbSpline
70
4
71
3
72
8
73
4
74
0
42
0.000000001
43
0.0000000001
44
0.0000000001
40
0
40
0
40
0
40
0
40
1
40
1
40
1
40
1
41
1
41
1
41
1
41
1
10
47.326548417409271
20
-37.360490067799887
30
0
10
46.347857348124194
20
-39.260725339253753
30
0
10
46.346799596150717
20
-39.193788210550949
30
0
10
47.364385255177822
20
-39.885408624013273
30
0
0
SPLINE
5
135
100
AcDbEntity
8
0
100
AcDbSpline
70
4
71
3
72
8
73
4
74
0
42
0.000000001
43
0.0000000001
44
0.0000000001
40
0
40
0
40
0
40
0
40
1
40
1
40
1
40
1
41
1
41
1
41
1
41
1
10
47.364385255177822
20
-39.885408624013273
30
0
10
49.40696891148886
20
-41.273675791422527
30
0
10
49.8474983851115
20
-42.755344072977707
30
0
10
49.8474983851115
20
-48.239097690582284
30
0
0
SPLINE
5
136
100
AcDbEntity
8
0
100
AcDbSpline
70
4
71
3
72
8
73
4
74
0
42
0.000000001
43
0.0000000001
44
0.0000000001
40
0
40
0
40
0
40
0
40
1
40
1
40
1
40
1
41
1
41
1
41
1
41
1
10
49.8474983851115
20
-48.239097690582284
30
0
10
49.8474983851115
20
-52.575355943044038
30
0
10
49.979527632395431
20
-52.187738291422534
30
0
10
48.418221124013272
20
-52.435655975341803
30
0
0
SPLINE
5
137
100
AcDbEntity
8
0
100
AcDbSpline
70
4
71
3
72
8
73
4
74
0
42
0.000000001
43
0.0000000001
44
0.0000000001
40
0
40
0
40
0
40
0
40
1
40
1
40
1
40
1
41
1
41
1
41
1
41
1
10
48.418221124013272
20
-52.435655975341803
30
0
10
36.694796689351406
20
-54.297525533040371
30
0
10
27.836547819773362
20
-64.112773482004812
30
0
10
27.140958817799891
20
-76.011615180969244
30
0
0
SPLINE
5
138
100
AcDbEntity
8
0
100
AcDbSpline
70
4
71
3
72
8
73
4
74
0
42
0.000000001
43
0.0000000001
44
0.0000000001
40
0
40
0
40
0
40
0
40
1
40
1
40
1
40
1
41
1
41
1
41
1
41
1
10
27.140958817799891
20
-76.011615180969244
30
0
10
27.035653956731164
20
-77.813427035013845
30
0
10
27.604244089126592
20
-77.629281298319512
30
0
10
22.154092264175418
20
-77.625575129191091
30
0
0
SPLINE
5
139
100
AcDbEntity
8
0
100
AcDbSpline
70
4
71
3
72
8
73
4
74
0
42
0.000000001
43
0.0000000001
44
0.0000000001
40
0
40
0
40
0
40
0
40
1
40
1
40
1
40
1
41
1
41
1
41
1
41
1
10
22.154092264175418
20
-77.625575129191091
30
0
10
15.621264680226645
20
-77.620811208089208
30
0
10
14.232731056213382
20
-77.223144912719746
30
0
10
12.885472973187767
20
-74.970480410257977
30
0
0
SPLINE
5
140
100
AcDbEntity
8
0
100
AcDbSpline
70
4
71
3
72
8
73
4
74
0
42
0.000000001
43
0.0000000001
44
0.0000000001
40
0
40
0
40
0
40
0
40
1
40
1
40
1
40
1
41
1
41
1
41
1
41
1
10
12.885472973187767
20
-74.970480410257977
30
0
10
12.39096686045329
20
-74.14365749359132
30
0
10
12.420335626602174
20
-74.139426485697442
30
0
10
10.075598255793254
20
-75.386669476826995
30
0
0
SPLINE
5
141
100
AcDbEntity
8
0
100
AcDbSpline
70
4
71
3
72
8
73
4
74
0
42
0.000000001
43
0.0000000001
44
0.0000000001
40
0
40
0
40
0
40
0
40
1
40
1
40
1
40
1
41
1
41
1
41
1
41
1
10
10.075598255793254
20
-75.386669476826995
30
0
10
8.928628738721212
20
-75.996532122294113
30
0
10
7.3236667474110924
20
-76.828651873270687
30
0
10
6.5087501009305324
20
-77.235579554239919
30
0
0
SPLINE
5
142
100
AcDbEntity
8
0
100
AcDbSpline
70
4
71
3
72
8
73
4
74
0
42
0.000000001
43
0.0000000001
44
0.0000000001
40
0
40
0
40
0
40
0
40
1
40
1
40
1
40
1
41
1
41
1
41
1
41
1
10
6.5087501009305324
20
-77.235579554239919
30
0
10
4.3690647125244144
20
-78.30423202514649
30
0
10
0.81782710452874507
20
-80.205795542399102
30
0
10
0.65061044593652095
20
-80.372742716471365
30
0
0
SPLINE
5
143
100
AcDbEntity
8
0
100
AcDbSpline
70
4
71
3
72
8
73
4
74
0
42
0.000000001
43
0.0000000001
44
0.0000000001
40
0
40
0
40
0
40
0
40
1
40
1
40
1
40
1
41
1
41
1
41
1
41
1
10
0.65061044593652095
20
-80.372742716471365
30
0
10
0.32570206920305889
20
-80.696592458089199
30
0
10
0.62891460806131372
20
-80.920956993103047
30
0
10
3.3086146136124932
20
-82.339394315083837
30
0
0
SPLINE
5
144
100
AcDbEntity
8
0
100
AcDbSpline
70
4
71
3
72
8
73
4
74
0
42
0.000000001
43
0.0000000001
44
0.0000000001
40
0
40
0
40
0
40
0
40
1
40
1
40
1
40
1
41
1
41
1
41
1
41
1
10
3.3086146136124932
20
-82.339394315083837
30
0
10
4.7775810400644945
20
-83.117003504435232
30
0
10
6.9320835351943977
20
-84.261854489644378
30
0
10
8.0962501009305328
20
-84.883626937866211
30
0
0
SPLINE
5
145
100
AcDbEntity
8
0
100
AcDbSpline
70
4
71
3
72
8
73
4
74
0
42
0.000000001
43
0.0000000001
44
0.0000000001
40
0
40
0
40
0
40
0
40
1
40
1
40
1
40
1
41
1
41
1
41
1
41
1
10
8.0962501009305328
20
-84.883626937866211
30
0
10
12.583848134676616
20
-87.280751291910818
30
0
10
12.352073280016583
20
-87.211165746053069
30
0
10
12.886531734466555
20
-86.317664082845056
30
0
0
SPLINE
5
146
100
AcDbEntity
8
0
100
AcDbSpline
70
4
71
3
72
8
73
4
74
0
42
0.000000001
43
0.0000000001
44
0.0000000001
40
0
40
0
40
0
40
0
40
1
40
1
40
1
40
1
41
1
41
1
41
1
41
1
10
12.886531734466555
20
-86.317664082845056
30
0
10
13.548518943786622
20
-85.210649935404476
30
0
10
14.832012144724532
20
-84.325351905822771
30
0
10
16.4570835351944
20
-83.854393895467126
30
0
0
SPLINE
5
147
100
AcDbEntity
8
0
100
AcDbSpline
70
4
71
3
72
8
73
4
74
0
42
0.000000001
43
0.0000000001
44
0.0000000001
40
0
40
0
40
0
40
0
40
1
40
1
40
1
40
1
41
1
41
1
41
1
41
1
10
16.4570835351944
20
-83.854393895467126
30
0
10
17.527323643366501
20
-83.544036547342955
30
0
10
27.538098255793258
20
-83.507265535990399
30
0
10
27.799506314595543
20
-83.812592506408691
30
0
0
SPLINE
5
148
100
AcDbEntity
8
0
100
AcDbSpline
70
4
71
3
72
8
73
4
74
0
42
0.000000001
43
0.0000000001
44
0.0000000001
40
0
40
0
40
0
40
0
40
1
40
1
40
1
40
1
41
1
41
1
41
1
41
1
10
27.799506314595543
20
-83.812592506408691
30
0
10
28.653844912846886
20
-84.81033522288007
30
0
10
28.805981540679934
20
-87.498502858479839
30
0
10
28.105628617604577
20
-89.220143572489434
30
0
0
SPLINE
5
149
100
AcDbEntity
8
0
100
AcDbSpline
70
4
71
3
72
8
73
4
74
0
42
0.000000001
43
0.0000000001
44
0.0000000001
40
0
40
0
40
0
40
0
40
1
40
1
40
1
40
1
41
1
41
1
41
1
41
1
10
28.105628617604577
20
-89.220143572489434
30
0
10
27.432528956731165
20
-90.874847157796239
30
0
10
27.03750704129537
20
-93.058459027608251
30
0
10
27.201018540064496
20
-94.218917910257986
30
0
0
SPLINE
5
150
100
AcDbEntity
8
0
100
AcDbSpline
70
4
71
3
72
8
73
4
74
0
42
0.000000001
43
0.0000000001
44
0.0000000001
40
0
40
0
40
0
40
0
40
1
40
1
40
1
40
1
41
1
41
1
41
1
41
1
10
27.201018540064496
20
-94.218917910257986
30
0
10
27.580430539449061
20
-96.909992345174174
30
0
10
34.480764357248944
20
-102.44666989644371
30
0
10
37.455473772684741
20
-102.44666989644371
30
0
0
SPLINE
5
151
100
AcDbEntity
8
0
100
AcDbSpline
70
4
71
3
72
8
73
4
74
0
42
0.000000001
43
0.0000000001
44
0.0000000001
40
0
40
0
40
0
40
0
40
1
40
1
40
1
40
1
41
1
41
1
41
1
41
1
10
37.455473772684741
20
-102.44666989644371
30
0
10
39.334812386830656
20
-102.44666989644371
30
0
10
40.967819945017503
20
-99.763524564107286
30
0
10
41.899945704142254
20
-95.144168281555181
30
0
0
SPLINE
5
152
100
AcDbEntity
8
0
100
AcDbSpline
70
4
71
3
72
8
73
4
74
0
42
0.000000001
43
0.0000000001
44
0.0000000001
40
0
40
0
40
0
40
0
40
1
40
1
40
1
40
1
41
1
41
1
41
1
41
1
10
41.899945704142254
20
-95.144168281555181
30
0
10
42.859326744079596
20
-90.389072545369487
30
0
10
42.366935125986743
20
-88.647326469421415
30
0
10
39.585107994079593
20
-86.95742638905844
30
0
0
SPLINE
5
153
100
AcDbEntity
8
0
100
AcDbSpline
70
4
71
3
72
8
73
4
74
0
42
0.000000001
43
0.0000000001
44
0.0000000001
40
0
40
0
40
0
40
0
40
1
40
1
40
1
40
1
41
1
41
1
41
1
41
1
10
39.585107994079593
20
-86.95742638905844
30
0
10
37.974587758382164
20
-85.978997739156114
30
0
10
36.821799596150719
20
-84.29386965433757
30
0
10
37.380333010355635
20
-83.735336240132654
30
0
0
SPLINE
5
154
100
AcDbEntity
8
0
100
AcDbSpline
70
4
71
3
72
8
73
4
74
0
42
0.000000001
43
0.0000000001
44
0.0000000001
40
0
40
0
40
0
40
0
40
1
40
1
40
1
40
1
41
1
41
1
41
1
41
1
10
37.380333010355635
20
-83.735336240132654
30
0
10
37.620838356018076
20
-83.494830894470226
30
0
10
49.452476469675702
20
-83.558853149414062
30
0
10
49.672347577412935
20
-83.801740455627453
30
0
0
SPLINE
5
155
100
AcDbEntity
8
0
100
AcDbSpline
70
4
71
3
72
8
73
4
74
0
42
0.000000001
43
0.0000000001
44
0.0000000001
40
0
40
0
40
0
40
0
40
1
40
1
40
1
40
1
41
1
41
1
41
1
41
1
10
49.672347577412935
20
-83.801740455627453
30
0
10
49.900680700937912
20
-84.05415560404461
30
0
10
49.938779958089199
20
-98.669211514790874
30
0
10
49.711767005920422
20
-98.961312548319512
30
0
0
SPLINE
5
156
100
AcDbEntity
8
0
100
AcDbSpline
70
4
71
3
72
8
73
4
74
0
42
0.000000001
43
0.0000000001
44
0.0000000001
40
0
40
0
40
0
40
0
40
1
40
1
40
1
40
1
41
1
41
1
41
1
41
1
10
49.711767005920422
20
-98.961312548319512
30
0
10
49.640861288706468
20
-99.052327664693223
30
0
10
49.130479812622085
20
-99.452109464009624
30
0
10
48.577501614888519
20
-99.849517377217637
30
0
0
SPLINE
5
157
100
AcDbEntity
8
0
100
AcDbSpline
70
4
71
3
72
8
73
4
74
0
42
0.000000001
43
0.0000000001
44
0.0000000001
40
0
40
0
40
0
40
0
40
1
40
1
40
1
40
1
41
1
41
1
41
1
41
1
10
48.577501614888519
20
-99.849517377217637
30
0
10
42.428845914204921
20
-104.2680622736613
30
0
10
38.566194089253749
20
-110.03650054931641
30
0
10
37.341967296600352
20
-116.62833010355634
30
0
0
SPLINE
5
158
100
AcDbEntity
8
0
100
AcDbSpline
70
4
71
3
72
8
73
4
74
0
42
0.000000001
43
0.0000000001
44
0.0000000001
40
0
40
0
40
0
40
0
40
1
40
1
40
1
40
1
41
1
41
1
41
1
41
1
10
37.341967296600352
20
-116.62833010355634
30
0
10
37.164168071746829
20
-117.58612855275473
30
0
10
37.165225823720299
20
-121.3281239827474
30
0
10
37.343557961781826
20
-122.44916343688968
30
0
0
SPLINE
5
159
100
AcDbEntity
8
0
100
AcDbSpline
70
4
71
3
72
8
73
4
74
0
42
0.000000001
43
0.0000000001
44
0.0000000001
40
0
40
0
40
0
40
0
40
1
40
1
40
1
40
1
41
1
41
1
41
1
41
1
10
37.343557961781826
20
-122.44916343688968
30
0
10
38.309019056955982
20
-128.51368344624839
30
0
10
42.214800516764328
20
-134.95416564941408
30
0
10
48.285400581359866
20
-140.49110158284509
30
0
0
SPLINE
5
160
100
AcDbEntity
8
0
100
AcDbSpline
70
4
71
3
72
8
73
4
74
0
42
0.000000001
43
0.0000000001
44
0.0000000001
40
0
40
0
40
0
40
0
40
1
40
1
40
1
40
1
41
1
41
1
41
1
41
1
10
48.285400581359866
20
-140.49110158284509
30
0
10
49.027026017506927
20
-141.16764297485355
30
0
10
49.681871382395435
20
-141.81085306803388
30
0
10
49.740608914693205
20
-141.92064933776857
30
0
0
SPLINE
5
161
100
AcDbEntity
8
0
100
AcDbSpline
70
4
71
3
72
8
73
4
74
0
42
0.000000001
43
0.0000000001
44
0.0000000001
40
0
40
0
40
0
40
0
40
1
40
1
40
1
40
1
41
1
41
1
41
1
41
1
10
49.740608914693205
20
-141.92064933776857
30
0
10
49.937988662719732
20
-142.28921534220379
30
0
10
49.881100177764907
20
-158.27824261983238
30
0
10
49.679227002461758
20
-159.25641288757328
30
0
0
SPLINE
5
162
100
AcDbEntity
8
0
100
AcDbSpline
70
4
71
3
72
8
73
4
74
0
42
0.000000001
43
0.0000000001
44
0.0000000001
40
0
40
0
40
0
40
0
40
1
40
1
40
1
40
1
41
1
41
1
41
1
41
1
10
49.679227002461758
20
-159.25641288757328
30
0
10
49.291346931457525
20
-161.13443133036299
30
0
10
48.484100500742599
20
-162.41130752563478
30
0
10
47.173622512817388
20
-163.22119026184083
30
0
0
SPLINE
5
163
100
AcDbEntity
8
0
100
AcDbSpline
70
4
71
3
72
8
73
4
74
0
42
0.000000001
43
0.0000000001
44
0.0000000001
40
0
40
0
40
0
40
0
40
1
40
1
40
1
40
1
41
1
41
1
41
1
41
1
10
47.173622512817388
20
-163.22119026184083
30
0
10
46.290968863169361
20
-163.76650581359866
30
0
10
46.236732832590747
20
-163.55456784566246
30
0
10
48.215815035502125
20
-167.30319239298507
30
0
0
SPLINE
5
164
100
AcDbEntity
8
0
100
AcDbSpline
70
4
71
3
72
8
73
4
74
0
42
0.000000001
43
0.0000000001
44
0.0000000001
40
0
40
0
40
0
40
0
40
1
40
1
40
1
40
1
41
1
41
1
41
1
41
1
10
48.215815035502125
20
-167.30319239298507
30
0
10
49.189217344919847
20
-169.14733047485353
30
0
10
50.48646939595541
20
-171.60874354044597
30
0
10
51.098714001973477
20
-172.7729166666667
30
0
0
SPLINE
5
165
100
AcDbEntity
8
0
100
AcDbSpline
70
4
71
3
72
8
73
4
74
0
42
0.000000001
43
0.0000000001
44
0.0000000001
40
0
40
0
40
0
40
0
40
1
40
1
40
1
40
1
41
1
41
1
41
1
41
1
10
51.098714001973477
20
-172.7729166666667
30
0
10
52.681982994079597
20
-175.78387629191084
30
0
10
52.79151684443157
20
-175.93548202514651
30
0
10
53.104256153106697
20
-175.55104166666669
30
0
0
SPLINE
5
166
100
AcDbEntity
8
0
100
AcDbSpline
70
4
71
3
72
8
73
4
74
0
42
0.000000001
43
0.0000000001
44
0.0000000001
40
0
40
0
40
0
40
0
40
1
40
1
40
1
40
1
41
1
41
1
41
1
41
1
10
53.104256153106697
20
-175.55104166666669
30
0
10
53.285495090484631
20
-175.3279932657878
30
0
10
59.138343588511155
20
-164.2083554585775
30
0
10
59.162950452168786
20
-164.04034245808924
30
0
0
SPLINE
5
167
100
AcDbEntity
8
0
100
AcDbSpline
70
4
71
3
72
8
73
4
74
0
42
0.000000001
43
0.0000000001
44
0.0000000001
40
0
40
0
40
0
40
0
40
1
40
1
40
1
40
1
41
1
41
1
41
1
41
1
10
59.162950452168786
20
-164.04034245808924
30
0
10
59.213221931457525
20
-163.69611282348637
30
0
10
59.133846124013274
20
-163.59954249064131
30
0
10
58.427671527862557
20
-163.14711532592776
30
0
0
SPLINE
5
168
100
AcDbEntity
8
0
100
AcDbSpline
70
4
71
3
72
8
73
4
74
0
42
0.000000001
43
0.0000000001
44
0.0000000001
40
0
40
0
40
0
40
0
40
1
40
1
40
1
40
1
41
1
41
1
41
1
41
1
10
58.427671527862557
20
-163.14711532592776
30
0
10
57.678900210062672
20
-162.66715431213382
30
0
10
57.064540100097659
20
-161.96945788065594
30
0
10
56.632739098866793
20
-161.10902913411462
30
0
0
SPLINE
5
169
100
AcDbEntity
8
0
100
AcDbSpline
70
4
71
3
72
8
73
4
74
0
42
0.000000001
43
0.0000000001
44
0.0000000001
40
0
40
0
40
0
40
0
40
1
40
1
40
1
40
1
41
1
41
1
41
1
41
1
10
56.632739098866793
20
-161.10902913411462
30
0
10
56.265497303009042
20
-160.37745234171553
30
0
10
56.325821463267019
20
-160.10440699259445
30
0
10
57.080680910746267
20
-159.07966334025068
30
0
0
SPLINE
5
170
100
AcDbEntity
8
0
100
AcDbSpline
70
4
71
3
72
8
73
4
74
0
42
0.000000001
43
0.0000000001
44
0.0000000001
40
0
40
0
40
0
40
0
40
1
40
1
40
1
40
1
41
1
41
1
41
1
41
1
10
57.080680910746267
20
-159.07966334025068
30
0
10
58.53932895660401
20
-157.09926096598309
30
0
10
59.190468152364105
20
-155.92292772928874
30
0
10
59.793980248769138
20
-154.17720095316571
30
0
0
SPLINE
5
171
100
AcDbEntity
8
0
100
AcDbSpline
70
4
71
3
72
8
73
4
74
0
42
0.000000001
43
0.0000000001
44
0.0000000001
40
0
40
0
40
0
40
0
40
1
40
1
40
1
40
1
41
1
41
1
41
1
41
1
10
59.793980248769138
20
-154.17720095316571
30
0
10
61.86011301676433
20
-148.20132217407229
30
0
10
60.806543604532884
20
-143.05861282348636
30
0
10
56.192209625244153
20
-136.59565137227378
30
0
0
LWPOLYLINE
5
172
100
AcDbEntity
8
0
100
AcDbPolyline
90
4
70
1
43
0.0
10
56.192209625244146
20
-136.59565137227378
10
55.827083333333348
20
-136.08447456359866
10
55.827083333333348
20
-121.14397824605308
10
55.827083333333348
20
-136.08447456359866
0
SPLINE
5
173
100
AcDbEntity
8
0
100
AcDbSpline
70
4
71
3
72
8
73
4
74
0
42
0.000000001
43
0.0000000001
44
0.0000000001
40
0
40
0
40
0
40
0
40
1
40
1
40
1
40
1
41
1
41
1
41
1
41
1
10
55.827083333333348
20
-121.14397824605307
30
0
10
55.827083333333348
20
-109.815309270223
30
0
10
55.857511870066332
20
-106.15083656311036
30
0
10
55.952495574951186
20
-105.98520552317304
30
0
0
SPLINE
5
174
100
AcDbEntity
8
0
100
AcDbSpline
70
4
71
3
72
8
73
4
74
0
42
0.000000001
43
0.0000000001
44
0.0000000001
40
0
40
0
40
0
40
0
40
1
40
1
40
1
40
1
41
1
41
1
41
1
41
1
10
55.952495574951186
20
-105.98520552317304
30
0
10
56.077378940582285
20
-105.76797879536947
30
0
10
58.694374402364105
20
-103.98309904734296
30
0
10
62.229999192555752
20
-101.70424912770591
30
0
0
SPLINE
5
175
100
AcDbEntity
8
0
100
AcDbSpline
70
4
71
3
72
8
73
4
74
0
42
0.000000001
43
0.0000000001
44
0.0000000001
40
0
40
0
40
0
40
0
40
1
40
1
40
1
40
1
41
1
41
1
41
1
41
1
10
62.229999192555752
20
-101.70424912770591
30
0
10
70.110610707600912
20
-96.624512354532897
30
0
10
74.089155006408703
20
-91.943766085306819
30
0
10
76.261115455627447
20
-85.195833333333354
30
0
0
SPLINE
5
176
100
AcDbEntity
8
0
100
AcDbSpline
70
4
71
3
72
8
73
4
74
0
42
0.000000001
43
0.0000000001
44
0.0000000001
40
0
40
0
40
0
40
0
40
1
40
1
40
1
40
1
41
1
41
1
41
1
41
1
10
76.261115455627447
20
-85.195833333333354
30
0
10
76.834998385111504
20
-83.413868459065768
30
0
10
76.081200726826992
20
-83.592192522684741
30
0
10
82.859033139546739
20
-83.633993911743175
30
0
0
SPLINE
5
177
100
AcDbEntity
8
0
100
AcDbSpline
70
4
71
3
72
8
73
4
74
0
42
0.000000001
43
0.0000000001
44
0.0000000001
40
0
40
0
40
0
40
0
40
1
40
1
40
1
40
1
41
1
41
1
41
1
41
1
10
82.859033139546739
20
-83.633993911743175
30
0
10
88.518732897440614
20
-83.668923950195321
30
0
10
88.651557477315279
20
-83.674479166666686
30
0
10
89.428375371297207
20
-83.911019961039244
30
0
0
SPLINE
5
178
100
AcDbEntity
8
0
100
AcDbSpline
70
4
71
3
72
8
73
4
74
0
42
0.000000001
43
0.0000000001
44
0.0000000001
40
0
40
0
40
0
40
0
40
1
40
1
40
1
40
1
41
1
41
1
41
1
41
1
10
89.428375371297207
20
-83.911019961039244
30
0
10
91.003699111938502
20
-84.390706443786627
30
0
10
92.09298985799154
20
-85.155089696248382
30
0
10
92.774028714497888
20
-86.258397674560555
30
0
0
SPLINE
5
179
100
AcDbEntity
8
0
100
AcDbSpline
70
4
71
3
72
8
73
4
74
0
42
0.000000001
43
0.0000000001
44
0.0000000001
40
0
40
0
40
0
40
0
40
1
40
1
40
1
40
1
41
1
41
1
41
1
41
1
10
92.774028714497888
20
-86.258397674560555
30
0
10
93.391570154825857
20
-87.259055264790874
30
0
10
92.358372561136903
20
-87.666515858968111
30
0
10
101.52141952514651
20
-82.807437451680514
30
0
0
SPLINE
5
180
100
AcDbEntity
8
0
100
AcDbSpline
70
4
71
3
72
8
73
4
74
0
42
0.000000001
43
0.0000000001
44
0.0000000001
40
0
40
0
40
0
40
0
40
1
40
1
40
1
40
1
41
1
41
1
41
1
41
1
10
101.52141952514651
20
-82.807437451680514
30
0
10
105.02688223520917
20
-80.948474693298351
30
0
10
105.37137025197347
20
-80.716439437866228
30
0
10
105.10388011932375
20
-80.394172286987313
30
0
0
SPLINE
5
181
100
AcDbEntity
8
0
100
AcDbSpline
70
4
71
3
72
8
73
4
74
0
42
0.000000001
43
0.0000000001
44
0.0000000001
40
0
40
0
40
0
40
0
40
1
40
1
40
1
40
1
41
1
41
1
41
1
41
1
10
105.10388011932375
20
-80.394172286987313
30
0
10
105.04249013264975
20
-80.320089276631691
30
0
10
103.64549045562745
20
-79.555181185404479
30
0
10
101.99952341715496
20
-78.693961143493667
30
0
0
SPLINE
5
182
100
AcDbEntity
8
0
100
AcDbSpline
70
4
71
3
72
8
73
4
74
0
42
0.000000001
43
0.0000000001
44
0.0000000001
40
0
40
0
40
0
40
0
40
1
40
1
40
1
40
1
41
1
41
1
41
1
41
1
10
101.99952341715496
20
-78.693961143493667
30
0
10
92.442774709065759
20
-73.694928423563653
30
0
10
93.344738388061543
20
-74.062428601582852
30
0
10
92.836734835306828
20
-74.96121902465822
30
0
0
SPLINE
5
183
100
AcDbEntity
8
0
100
AcDbSpline
70
4
71
3
72
8
73
4
74
0
42
0.000000001
43
0.0000000001
44
0.0000000001
40
0
40
0
40
0
40
0
40
1
40
1
40
1
40
1
41
1
41
1
41
1
41
1
10
92.836734835306828
20
-74.96121902465822
30
0
10
91.538162612915045
20
-77.258866246541359
30
0
10
89.773121770223
20
-77.711567942301443
30
0
10
82.315582784016939
20
-77.659439341227227
30
0
0
SPLINE
5
184
100
AcDbEntity
8
0
100
AcDbSpline
70
4
71
3
72
8
73
4
74
0
42
0.000000001
43
0.0000000001
44
0.0000000001
40
0
40
0
40
0
40
0
40
1
40
1
40
1
40
1
41
1
41
1
41
1
41
1
10
82.315582784016939
20
-77.659439341227227
30
0
10
77.03079554239909
20
-77.622668329874685
30
0
10
77.581125322977712
20
-77.828776550292986
30
0
10
77.459419250488281
20
-75.840695381164551
30
0
0
SPLINE
5
185
100
AcDbEntity
8
0
100
AcDbSpline
70
4
71
3
72
8
73
4
74
0
42
0.000000001
43
0.0000000001
44
0.0000000001
40
0
40
0
40
0
40
0
40
1
40
1
40
1
40
1
41
1
41
1
41
1
41
1
10
77.459419250488281
20
-75.840695381164551
30
0
10
76.759332784016948
20
-64.400110594431567
30
0
10
68.475487645467126
20
-54.912685012817391
30
0
10
57.170371818542485
20
-52.603136062622077
30
0
0
SPLINE
5
186
100
AcDbEntity
8
0
100
AcDbSpline
70
4
71
3
72
8
73
4
74
0
42
0.000000001
43
0.0000000001
44
0.0000000001
40
0
40
0
40
0
40
0
40
1
40
1
40
1
40
1
41
1
41
1
41
1
41
1
10
57.170371818542485
20
-52.603136062622077
30
0
10
55.704844347635913
20
-52.303893184661874
30
0
10
55.826554457346603
20
-52.695737806955982
30
0
10
55.830789502461755
20
-48.282223288218191
30
0
0
SPLINE
5
187
100
AcDbEntity
8
0
100
AcDbSpline
70
4
71
3
72
8
73
4
74
0
42
0.000000001
43
0.0000000001
44
0.0000000001
40
0
40
0
40
0
40
0
40
1
40
1
40
1
40
1
41
1
41
1
41
1
41
1
10
55.830789502461755
20
-48.282223288218191
30
0
10
55.835815842946381
20
-42.719889195760096
30
0
10
56.433510303497329
20
-40.885004425048834
30
0
10
58.631668281555179
20
-39.681149450937909
30
0
0
SPLINE
5
188
100
AcDbEntity
8
0
100
AcDbSpline
70
4
71
3
72
8
73
4
74
0
42
0.000000001
43
0.0000000001
44
0.0000000001
40
0
40
0
40
0
40
0
40
1
40
1
40
1
40
1
41
1
41
1
41
1
41
1
10
58.631668281555179
20
-39.681149450937909
30
0
10
59.477805264790859
20
-39.217599741617846
30
0
10
59.860921414693209
20
-40.114274660746261
30
0
10
54.472417958577488
20
-29.950832525889084
30
0
0
SPLINE
5
189
100
AcDbEntity
8
0
100
AcDbSpline
70
4
71
3
72
8
73
4
74
0
42
0.000000001
43
0.0000000001
44
0.0000000001
40
0
40
0
40
0
40
0
40
1
40
1
40
1
40
1
41
1
41
1
41
1
41
1
10
54.472417958577488
20
-29.950832525889084
30
0
10
52.965613937377938
20
-27.108414777119961
30
0
10
52.845756912231458
20
-26.98961752255758
30
0
10
52.358133252461762
20
-27.854275258382163
30
0
0
SPLINE
5
190
100
AcDbEntity
8
0
100
AcDbSpline
70
4
71
3
72
8
73
4
74
0
42
0.000000001
43
0.0000000001
44
0.0000000001
40
0
40
0
40
0
40
0
40
1
40
1
40
1
40
1
41
1
41
1
41
1
41
1
10
49.681076049804688
20
-63.137255668640144
30
0
10
49.920261224110931
20
-63.37617438634237
30
0
10
49.935606702168791
20
-77.09719975789389
30
0
10
49.697216860453295
20
-77.423431460062673
30
0
0
SPLINE
5
191
100
AcDbEntity
8
0
100
AcDbSpline
70
4
71
3
72
8
73
4
74
0
42
0.000000001
43
0.0000000001
44
0.0000000001
40
0
40
0
40
0
40
0
40
1
40
1
40
1
40
1
41
1
41
1
41
1
41
1
10
49.697216860453295
20
-77.423431460062673
30
0
10
49.504072157541913
20
-77.687748336791998
30
0
10
37.218937015533456
20
-77.802050145467135
30
0
10
36.724167474110928
20
-77.544079780578627
30
0
0
SPLINE
5
192
100
AcDbEntity
8
0
100
AcDbSpline
70
4
71
3
72
8
73
4
74
0
42
0.000000001
43
0.0000000001
44
0.0000000001
40
0
40
0
40
0
40
0
40
1
40
1
40
1
40
1
41
1
41
1
41
1
41
1
10
36.724167474110928
20
-77.544079780578627
30
0
10
35.998945267995204
20
-77.165994008382171
30
0
10
36.940065956115731
20
-73.358635965983083
30
0
10
38.377546850840261
20
-70.855413436889663
30
0
0
SPLINE
5
193
100
AcDbEntity
8
0
100
AcDbSpline
70
4
71
3
72
8
73
4
74
0
42
0.000000001
43
0.0000000001
44
0.0000000001
40
0
40
0
40
0
40
0
40
1
40
1
40
1
40
1
41
1
41
1
41
1
41
1
10
57.890834140777592
20
-63.677270348866784
30
0
10
63.064230410257984
20
-65.585446834564209
30
0
10
67.057587273915615
20
-70.374136288960784
30
0
10
68.073590342203786
20
-75.888060061136883
30
0
0
SPLINE
5
194
100
AcDbEntity
8
0
100
AcDbSpline
70
4
71
3
72
8
73
4
74
0
42
0.000000001
43
0.0000000001
44
0.0000000001
40
0
40
0
40
0
40
0
40
1
40
1
40
1
40
1
41
1
41
1
41
1
41
1
10
68.073590342203786
20
-75.888060061136883
30
0
10
68.32097511291505
20
-77.231348546346041
30
0
10
68.299279085795092
20
-77.421049499511724
30
0
10
67.880974515279149
20
-77.580067571004236
30
0
0
SPLINE
5
195
100
AcDbEntity
8
0
100
AcDbSpline
70
4
71
3
72
8
73
4
74
0
42
0.000000001
43
0.0000000001
44
0.0000000001
40
0
40
0
40
0
40
0
40
1
40
1
40
1
40
1
41
1
41
1
41
1
41
1
10
67.880974515279149
20
-77.580067571004236
30
0
10
67.32005510330201
20
-77.793321673075368
30
0
10
56.238508478800462
20
-77.662354214986181
30
0
10
56.015997028350839
20
-77.439838727315276
30
0
0
SPLINE
5
196
100
AcDbEntity
8
0
100
AcDbSpline
70
4
71
3
72
8
73
4
74
0
42
0.000000001
43
0.0000000001
44
0.0000000001
40
0
40
0
40
0
40
0
40
1
40
1
40
1
40
1
41
1
41
1
41
1
41
1
10
56.015997028350839
20
-77.439838727315276
30
0
10
55.755115826924644
20
-77.178961563110363
30
0
10
55.719660949707041
20
-63.661924870808932
30
0
10
55.978955523173028
20
-63.3494520187378
30
0
0
SPLINE
5
197
100
AcDbEntity
8
0
100
AcDbSpline
70
4
71
3
72
8
73
4
74
0
42
0.000000001
43
0.0000000001
44
0.0000000001
40
0
40
0
40
0
40
0
40
1
40
1
40
1
40
1
41
1
41
1
41
1
41
1
10
55.978955523173028
20
-63.3494520187378
30
0
10
56.172895558675144
20
-63.115826098124195
30
0
10
56.539342021942147
20
-63.178794638315843
30
0
10
57.890834140777592
20
-63.677270348866784
30
0
0
SPLINE
5
198
100
AcDbEntity
8
0
100
AcDbSpline
70
4
71
3
72
8
73
4
74
0
42
0.000000001
43
0.0000000001
44
0.0000000001
40
0
40
0
40
0
40
0
40
1
40
1
40
1
40
1
41
1
41
1
41
1
41
1
10
67.309469509124767
20
-83.76628557840985
30
0
10
67.676711304982518
20
-84.208934593200695
30
0
10
65.918029085795098
20
-87.630794525146484
30
0
10
64.344812774658209
20
-89.534998385111507
30
0
0
SPLINE
5
199
100
AcDbEntity
8
0
100
AcDbSpline
70
4
71
3
72
8
73
4
74
0
42
0.000000001
43
0.0000000001
44
0.0000000001
40
0
40
0
40
0
40
0
40
1
40
1
40
1
40
1
41
1
41
1
41
1
41
1
10
57.48178691864014
20
-94.94149977366132
30
0
10
56.167602761586515
20
-95.665397771199565
30
0
10
56.015468152364107
20
-95.675716908772799
30
0
10
55.854334576924657
20
-95.053411547342947
30
0
0
SPLINE
5
200
100
AcDbEntity
8
0
100
AcDbSpline
70
4
71
3
72
8
73
4
74
0
42
0.000000001
43
0.0000000001
44
0.0000000001
40
0
40
0
40
0
40
0
40
1
40
1
40
1
40
1
41
1
41
1
41
1
41
1
10
55.854334576924657
20
-95.053411547342947
30
0
10
55.695320542653413
20
-94.43958435058596
30
0
10
55.804591973622649
20
-83.985102971394866
30
0
10
55.972338517506927
20
-83.783225758870458
30
0
0
SPLINE
5
201
100
AcDbEntity
8
0
100
AcDbSpline
70
4
71
3
72
8
73
4
74
0
42
0.000000001
43
0.0000000001
44
0.0000000001
40
0
40
0
40
0
40
0
40
1
40
1
40
1
40
1
41
1
41
1
41
1
41
1
10
55.972338517506927
20
-83.783225758870458
30
0
10
56.182681783040366
20
-83.529752858479824
30
0
10
67.09965511957806
20
-83.513612047831231
30
0
10
67.309469509124767
20
-83.76628557840985
30
0
0
SPLINE
5
202
100
AcDbEntity
8
0
100
AcDbSpline
70
4
71
3
72
8
73
4
74
0
42
0.000000001
43
0.0000000001
44
0.0000000001
40
0
40
0
40
0
40
0
40
1
40
1
40
1
40
1
41
1
41
1
41
1
41
1
10
47.095566876729336
20
-117.95733489990235
30
0
10
47.632937177022299
20
-115.52290662129721
30
0
10
49.133653068542486
20
-112.35107987721763
30
0
10
49.664672819773365
20
-112.52808780670168
30
0
0
SPLINE
5
203
100
AcDbEntity
8
0
100
AcDbSpline
70
4
71
3
72
8
73
4
74
0
42
0.000000001
43
0.0000000001
44
0.0000000001
40
0
40
0
40
0
40
0
40
1
40
1
40
1
40
1
41
1
41
1
41
1
41
1
10
49.664672819773365
20
-112.52808780670168
30
0
10
49.765478197733572
20
-112.5616855621338
30
0
10
49.800670655568446
20
-114.36243966420493
30
0
10
49.821833769480392
20
-120.56586430867515
30
0
0
LWPOLYLINE
5
204
100
AcDbEntity
8
0
100
AcDbPolyline
90
8
70
1
43
0.0
10
0
20
-88.000418281555199
10
0
20
-176.0008365631104
10
52.916666666666679
20
-176.0008365631104
10
105.83333333333336
20
-176.0008365631104
10
105.83333333333336
20
-88.000418281555199
10
105.83333333333336
20
0
10
52.916666666666679
20
0
10
0
20
0
0
SPLINE
5
205
100
AcDbEntity
8
0
100
AcDbSpline
70
4
71
3
72
8
73
4
74
0
42
0.000000001
43
0.0000000001
44
0.0000000001
40
0
40
0
40
0
40
0
40
1
40
1
40
1
40
1
41
1
41
1
41
1
41
1
10
36.900113614400233
20
-1.7727082828680676
30
0
10
41.553075726826989
20
-7.6258209665616361
30
0
10
45.743549919128419
20
-7.7192185481389375
30
0
10
51.357213242848722
20
-2.0944416373968129
30
0
0
SPLINE
5
206
100
AcDbEntity
8
0
100
AcDbSpline
70
4
71
3
72
8
73
4
74
0
42
0.000000001
43
0.0000000001
44
0.0000000001
40
0
40
0
40
0
40
0
40
1
40
1
40
1
40
1
41
1
41
1
41
1
41
1
10
51.357213242848722
20
-2.0944416373968129
30
0
10
52.100162887573248
20
-1.3499042292435968
30
0
10
52.781464163462324
20
-0.74083332071701702
30
0
10
52.87115910847983
20
-0.74083332071701702
30
0
0
SPLINE
5
207
100
AcDbEntity
8
0
100
AcDbSpline
70
4
71
3
72
8
73
4
74
0
42
0.000000001
43
0.0000000001
44
0.0000000001
40
0
40
0
40
0
40
0
40
1
40
1
40
1
40
1
41
1
41
1
41
1
41
1
10
52.87115910847983
20
-0.74083332071701702
30
0
10
52.960854053497322
20
-0.74083332071701702
30
0
10
53.51965392430624
20
-1.2472458928823473
30
0
10
54.113113339742036
20
-1.8661062429348629
30
0
0
SPLINE
5
208
100
AcDbEntity
8
0
100
AcDbSpline
70
4
71
3
72
8
73
4
74
0
42
0.000000001
43
0.0000000001
44
0.0000000001
40
0
40
0
40
0
40
0
40
1
40
1
40
1
40
1
41
1
41
1
41
1
41
1
10
54.113113339742036
20
-1.8661062429348629
30
0
10
59.687353197733572
20
-7.679795587062836
30
0
10
64.463083171844488
20
-7.6311122496922827
30
0
10
68.844586563110369
20
-1.7160875161488853
30
0
0
SPLINE
5
209
100
AcDbEntity
8
0
100
AcDbSpline
70
4
71
3
72
8
73
4
74
0
42
0.000000001
43
0.0000000001
44
0.0000000001
40
0
40
0
40
0
40
0
40
1
40
1
40
1
40
1
41
1
41
1
41
1
41
1
10
68.844586563110369
20
-1.7160875161488853
30
0
10
70.074098078409847
20
-0.056091666004310058
30
0
10
70.008751614888524
20
0.32146875883142156
30
0
10
70.008751614888524
20
-8.4275081435839354
30
0
0
SPLINE
5
210
100
AcDbEntity
8
0
100
AcDbSpline
70
4
71
3
72
8
73
4
74
0
42
0.000000001
43
0.0000000001
44
0.0000000001
40
0
40
0
40
0
40
0
40
1
40
1
40
1
40
1
41
1
41
1
41
1
41
1
10
70.008751614888524
20
-8.4275081435839354
30
0
10
70.008751614888524
20
-15.710694177945456
30
0
10
70.003721237182631
20
-15.89563726584117
30
0
10
69.802110481262218
20
-16.043275419871016
30
0
0
SPLINE
5
211
100
AcDbEntity
8
0
100
AcDbSpline
70
4
71
3
72
8
73
4
74
0
42
0.000000001
43
0.0000000001
44
0.0000000001
40
0
40
0
40
0
40
0
40
1
40
1
40
1
40
1
41
1
41
1
41
1
41
1
10
69.802110481262218
20
-16.043275419871016
30
0
10
69.507627487182631
20
-16.258381597201033
30
0
10
36.072232945760099
20
-16.217900379498801
30
0
10
35.856334463755296
20
-16.001999878883364
30
0
0
SPLINE
5
212
100
AcDbEntity
8
0
100
AcDbSpline
70
4
71
3
72
8
73
4
74
0
42
0.000000001
43
0.0000000001
44
0.0000000001
40
0
40
0
40
0
40
0
40
1
40
1
40
1
40
1
41
1
41
1
41
1
41
1
10
35.856334463755296
20
-16.001999878883364
30
0
10
35.711870574951178
20
-15.857802446683252
30
0
10
35.583018620808929
20
-1.8377958595752719
30
0
10
35.71901645660401
20
-1.0847916414340339
30
0
0
SPLINE
5
213
100
AcDbEntity
8
0
100
AcDbSpline
70
4
71
3
72
8
73
4
74
0
42
0.000000001
43
0.0000000001
44
0.0000000001
40
0
40
0
40
0
40
0
40
1
40
1
40
1
40
1
41
1
41
1
41
1
41
1
10
35.71901645660401
20
-1.0847916414340339
30
0
10
35.816644541422534
20
-0.54557084292173397
30
0
10
36.017730458577482
20
-0.66278128027915972
30
0
10
36.900113614400233
20
-1.7727082828680676
30
0
0
SPLINE
5
214
100
AcDbEntity
8
0
100
AcDbSpline
70
4
71
3
72
8
73
4
74
0
42
0.000000001
43
0.0000000001
44
0.0000000001
40
0
40
0
40
0
40
0
40
1
40
1
40
1
40
1
41
1
41
1
41
1
41
1
10
28.945945946375534
20
-11.755702018737795
30
0
10
29.037756395339969
20
-11.847512467702233
30
0
10
29.297842264175419
20
-12.470341658592226
30
0
10
29.524059883753463
20
-13.139737168947859
30
0
0
SPLINE
5
215
100
AcDbEntity
8
0
100
AcDbSpline
70
4
71
3
72
8
73
4
74
0
42
0.000000001
43
0.0000000001
44
0.0000000001
40
0
40
0
40
0
40
0
40
1
40
1
40
1
40
1
41
1
41
1
41
1
41
1
10
29.524059883753463
20
-13.139737168947859
30
0
10
32.255884011586517
20
-21.228050597508748
30
0
10
36.369626776377366
20
-26.1432140827179
30
0
10
42.846359189351404
20
-29.056541585922243
30
0
0
SPLINE
5
216
100
AcDbEntity
8
0
100
AcDbSpline
70
4
71
3
72
8
73
4
74
0
42
0.000000001
43
0.0000000001
44
0.0000000001
40
0
40
0
40
0
40
0
40
1
40
1
40
1
40
1
41
1
41
1
41
1
41
1
10
42.846359189351404
20
-29.056541585922243
30
0
10
44.720405006408697
20
-29.899503294626875
30
0
10
44.718551921844487
20
-30.034176921844487
30
0
10
42.829955959320074
20
-30.27150901158651
30
0
0
SPLINE
5
217
100
AcDbEntity
8
0
100
AcDbSpline
70
4
71
3
72
8
73
4
74
0
42
0.000000001
43
0.0000000001
44
0.0000000001
40
0
40
0
40
0
40
0
40
1
40
1
40
1
40
1
41
1
41
1
41
1
41
1
10
42.829955959320074
20
-30.27150901158651
30
0
10
38.332039292653405
20
-30.836657412846886
30
0
10
33.81216216087342
20
-29.882571188608811
30
0
10
30.446926275889084
20
-27.657688824335736
30
0
0
SPLINE
5
218
100
AcDbEntity
8
0
100
AcDbSpline
70
4
71
3
72
8
73
4
74
0
42
0.000000001
43
0.0000000001
44
0.0000000001
40
0
40
0
40
0
40
0
40
1
40
1
40
1
40
1
41
1
41
1
41
1
41
1
10
24.659165859222412
20
-26.928498029708866
30
0
10
17.165901501973472
20
-26.902568976084392
30
0
10
15.725510780016583
20
-26.458333333333339
30
0
10
14.30893158912659
20
-23.735770591100056
30
0
0
SPLINE
5
219
100
AcDbEntity
8
0
100
AcDbSpline
70
4
71
3
72
8
73
4
74
0
42
0.000000001
43
0.0000000001
44
0.0000000001
40
0
40
0
40
0
40
0
40
1
40
1
40
1
40
1
41
1
41
1
41
1
41
1
10
14.30893158912659
20
-23.735770591100056
30
0
10
13.75595238208771
20
-22.672675355275477
30
0
10
13.726583615938825
20
-22.650186014175418
30
0
10
12.730162080128991
20
-22.526889276504519
30
0
0
SPLINE
5
220
100
AcDbEntity
8
0
100
AcDbSpline
70
4
71
3
72
8
73
4
74
0
42
0.000000001
43
0.0000000001
44
0.0000000001
40
0
40
0
40
0
40
0
40
1
40
1
40
1
40
1
41
1
41
1
41
1
41
1
10
12.730162080128991
20
-22.526889276504519
30
0
10
9.7837626695632949
20
-22.162293879191083
30
0
10
8.2973334948221851
20
-20.967964728673302
30
0
10
7.5221042474110931
20
-18.341974337895714
30
0
0
SPLINE
5
221
100
AcDbEntity
8
0
100
AcDbSpline
70
4
71
3
72
8
73
4
74
0
42
0.000000001
43
0.0000000001
44
0.0000000001
40
0
40
0
40
0
40
0
40
1
40
1
40
1
40
1
41
1
41
1
41
1
41
1
10
7.5221042474110931
20
-18.341974337895714
30
0
10
7.2747189720471708
20
-17.504038969675701
30
0
10
7.3075269460678118
20
-17.528910271326701
30
0
10
6.213474802176159
20
-17.357724014918013
30
0
0
SPLINE
5
222
100
AcDbEntity
8
0
100
AcDbSpline
70
4
71
3
72
8
73
4
74
0
42
0.000000001
43
0.0000000001
44
0.0000000001
40
0
40
0
40
0
40
0
40
1
40
1
40
1
40
1
41
1
41
1
41
1
41
1
10
6.213474802176159
20
-17.357724014918013
30
0
10
3.7576124111811327
20
-16.973814551035566
30
0
10
2.1296311934789025
20
-15.698787403106691
30
0
10
0.7948083197077116
20
-13.114602438608806
30
0
0
SPLINE
5
223
100
AcDbEntity
8
0
100
AcDbSpline
70
4
71
3
72
8
73
4
74
0
42
0.000000001
43
0.0000000001
44
0.0000000001
40
0
40
0
40
0
40
0
40
1
40
1
40
1
40
1
41
1
41
1
41
1
41
1
10
0.7948083197077116
20
-13.114602438608806
30
0
10
0.25876249608894192
20
-12.076377495129904
30
0
10
0.22304374861220522
20
-11.744589567184448
30
0
10
0.6350000252326331
20
-11.629231015841167
30
0
0
SPLINE
5
224
100
AcDbEntity
8
0
100
AcDbSpline
70
4
71
3
72
8
73
4
74
0
42
0.000000001
43
0.0000000001
44
0.0000000001
40
0
40
0
40
0
40
0
40
1
40
1
40
1
40
1
41
1
41
1
41
1
41
1
10
0.6350000252326331
20
-11.629231015841167
30
0
10
1.256241705020269
20
-11.455664817492169
30
0
10
28.768940035502123
20
-11.578431669871014
30
0
10
28.945945946375534
20
-11.755702018737795
30
0
0
SPLINE
5
225
100
AcDbEntity
8
0
100
AcDbSpline
70
4
71
3
72
8
73
4
74
0
42
0.000000001
43
0.0000000001
44
0.0000000001
40
0
40
0
40
0
40
0
40
1
40
1
40
1
40
1
41
1
41
1
41
1
41
1
10
105.09197031656903
20
-11.630289777119955
30
0
10
105.47825972239178
20
-11.73797458012899
30
0
10
105.47138029734296
20
-11.985360360145572
30
0
10
105.05678189595542
20
-12.858485158284507
30
0
0
SPLINE
5
226
100
AcDbEntity
8
0
100
AcDbSpline
70
4
71
3
72
8
73
4
74
0
42
0.000000001
43
0.0000000001
44
0.0000000001
40
0
40
0
40
0
40
0
40
1
40
1
40
1
40
1
41
1
41
1
41
1
41
1
10
105.05678189595542
20
-12.858485158284507
30
0
10
103.78122183481852
20
-15.544535271326703
30
0
10
101.97147280375164
20
-16.992335303624472
30
0
10
99.414280700683605
20
-17.372542635599775
30
0
0
SPLINE
5
227
100
AcDbEntity
8
0
100
AcDbSpline
70
4
71
3
72
8
73
4
74
0
42
0.000000001
43
0.0000000001
44
0.0000000001
40
0
40
0
40
0
40
0
40
1
40
1
40
1
40
1
41
1
41
1
41
1
41
1
10
99.414280700683605
20
-17.372542635599775
30
0
10
98.449869283040385
20
-17.515946753819787
30
0
10
98.416529909769707
20
-17.54769546190898
30
0
10
98.072574806213396
20
-18.651007477442427
30
0
0
SPLINE
5
228
100
AcDbEntity
8
0
100
AcDbSpline
70
4
71
3
72
8
73
4
74
0
42
0.000000001
43
0.0000000001
44
0.0000000001
40
0
40
0
40
0
40
0
40
1
40
1
40
1
40
1
41
1
41
1
41
1
41
1
10
98.072574806213396
20
-18.651007477442427
30
0
10
97.353965568542492
20
-20.955530087153118
30
0
10
95.736307525634771
20
-22.236641327540081
30
0
10
93.221966489156102
20
-22.492229731877647
30
0
0
SPLINE
5
229
100
AcDbEntity
8
0
100
AcDbSpline
70
4
71
3
72
8
73
4
74
0
42
0.000000001
43
0.0000000001
44
0.0000000001
40
0
40
0
40
0
40
0
40
1
40
1
40
1
40
1
41
1
41
1
41
1
41
1
10
93.221966489156102
20
-22.492229731877647
30
0
10
92.044042587280302
20
-22.612084738413497
30
0
10
91.96361306508382
20
-22.661827341715501
30
0
10
91.502974192301437
20
-23.559557994206749
30
0
0
SPLINE
5
230
100
AcDbEntity
8
0
100
AcDbSpline
70
4
71
3
72
8
73
4
74
0
42
0.000000001
43
0.0000000001
44
0.0000000001
40
0
40
0
40
0
40
0
40
1
40
1
40
1
40
1
41
1
41
1
41
1
41
1
10
91.502974192301437
20
-23.559557994206749
30
0
10
90.002250226338717
20
-26.484526824951175
30
0
10
88.073443539937344
20
-27.043326695760097
30
0
10
79.745415051778167
20
-26.966068410873415
30
0
0
SPLINE
5
231
100
AcDbEntity
8
0
100
AcDbSpline
70
4
71
3
72
8
73
4
74
0
42
0.000000001
43
0.0000000001
44
0.0000000001
40
0
40
0
40
0
40
0
40
1
40
1
40
1
40
1
41
1
41
1
41
1
41
1
10
75.353330103556317
20
-27.607154925664268
30
0
10
71.912164179484066
20
-29.908764680226646
30
0
10
67.668511708577483
20
-30.804379828770962
30
0
10
62.78535935084026
20
-30.260132122039799
30
0
0
SPLINE
5
232
100
AcDbEntity
8
0
100
AcDbSpline
70
4
71
3
72
8
73
4
74
0
42
0.000000001
43
0.0000000001
44
0.0000000001
40
0
40
0
40
0
40
0
40
1
40
1
40
1
40
1
41
1
41
1
41
1
41
1
10
62.78535935084026
20
-30.260132122039799
30
0
10
61.052870623270678
20
-30.066720962524421
30
0
10
61.005509980519619
20
-29.874369573593142
30
0
10
62.527655442555755
20
-29.210529279708869
30
0
0
SPLINE
5
233
100
AcDbEntity
8
0
100
AcDbSpline
70
4
71
3
72
8
73
4
74
0
42
0.000000001
43
0.0000000001
44
0.0000000001
40
0
40
0
40
0
40
0
40
1
40
1
40
1
40
1
41
1
41
1
41
1
41
1
10
62.527655442555755
20
-29.210529279708869
30
0
10
69.059423255920422
20
-26.360967667897548
30
0
10
73.299636014302578
20
-21.47305340766907
30
0
10
75.982773272196468
20
-13.699331363042198
30
0
0
SPLINE
5
234
100
AcDbEntity
8
0
100
AcDbSpline
70
4
71
3
72
8
73
4
74
0
42
0.000000001
43
0.0000000001
44
0.0000000001
40
0
40
0
40
0
40
0
40
1
40
1
40
1
40
1
41
1
41
1
41
1
41
1
10
75.982773272196468
20
-13.699331363042198
30
0
10
76.593968200683605
20
-11.929269226392112
30
0
10
76.725194040934255
20
-11.677120534578961
30
0
10
77.0704814275106
20
-11.610974701245627
30
0
0
SPLINE
5
235
100
AcDbEntity
8
0
100
AcDbSpline
70
4
71
3
72
8
73
4
74
0
42
0.000000001
43
0.0000000001
44
0.0000000001
40
0
40
0
40
0
40
0
40
1
40
1
40
1
40
1
41
1
41
1
41
1
41
1
10
77.0704814275106
20
-11.610974701245627
30
0
10
77.476617813110366
20
-11.532923102378847
30
0
10
104.81018842061361
20
-11.551972730954489
30
0
10
105.09197031656903
20
-11.630289777119955
30
0
0
SPLINE
5
236
100
AcDbEntity
8
0
100
AcDbSpline
70
4
71
3
72
8
73
4
74
0
42
0.000000001
43
0.0000000001
44
0.0000000001
40
0
40
0
40
0
40
0
40
1
40
1
40
1
40
1
41
1
41
1
41
1
41
1
10
54.472417958577488
20
-29.950832525889084
30
0
10
59.860921414693209
20
-40.114274660746261
30
0
10
59.477805264790859
20
-39.217599741617846
30
0
10
58.631668281555179
20
-39.681149450937909
30
0
0
SPLINE
5
237
100
AcDbEntity
8
0
100
AcDbSpline
70
4
71
3
72
8
73
4
74
0
42
0.000000001
43
0.0000000001
44
0.0000000001
40
0
40
0
40
0
40
0
40
1
40
1
40
1
40
1
41
1
41
1
41
1
41
1
10
58.631668281555179
20
-39.681149450937909
30
0
10
56.433510303497329
20
-40.885004425048834
30
0
10
55.835815842946381
20
-42.719889195760096
30
0
10
55.830789502461755
20
-48.282223288218191
30
0
0
SPLINE
5
238
100
AcDbEntity
8
0
100
AcDbSpline
70
4
71
3
72
8
73
4
74
0
42
0.000000001
43
0.0000000001
44
0.0000000001
40
0
40
0
40
0
40
0
40
1
40
1
40
1
40
1
41
1
41
1
41
1
41
1
10
55.830789502461755
20
-48.282223288218191
30
0
10
55.826554457346603
20
-52.695737806955982
30
0
10
55.704844347635913
20
-52.303893184661874
30
0
10
57.170371818542485
20
-52.603136062622077
30
0
0
SPLINE
5
239
100
AcDbEntity
8
0
100
AcDbSpline
70
4
71
3
72
8
73
4
74
0
42
0.000000001
43
0.0000000001
44
0.0000000001
40
0
40
0
40
0
40
0
40
1
40
1
40
1
40
1
41
1
41
1
41
1
41
1
10
57.170371818542485
20
-52.603136062622077
30
0
10
68.475487645467126
20
-54.912685012817391
30
0
10
76.759332784016948
20
-64.400110594431567
30
0
10
77.459419250488281
20
-75.840695381164551
30
0
0
SPLINE
5
240
100
AcDbEntity
8
0
100
AcDbSpline
70
4
71
3
72
8
73
4
74
0
42
0.000000001
43
0.0000000001
44
0.0000000001
40
0
40
0
40
0
40
0
40
1
40
1
40
1
40
1
41
1
41
1
41
1
41
1
10
77.459419250488281
20
-75.840695381164551
30
0
10
77.581125322977712
20
-77.828776550292986
30
0
10
77.03079554239909
20
-77.622668329874685
30
0
10
82.315582784016939
20
-77.659439341227227
30
0
0
SPLINE
5
241
100
AcDbEntity
8
0
100
AcDbSpline
70
4
71
3
72
8
73
4
74
0
42
0.000000001
43
0.0000000001
44
0.0000000001
40
0
40
0
40
0
40
0
40
1
40
1
40
1
40
1
41
1
41
1
41
1
41
1
10
82.315582784016939
20
-77.659439341227227
30
0
10
89.773121770223
20
-77.711567942301443
30
0
10
91.538162612915045
20
-77.258866246541359
30
0
10
92.836734835306828
20
-74.96121902465822
30
0
0
SPLINE
5
242
100
AcDbEntity
8
0
100
AcDbSpline
70
4
71
3
72
8
73
4
74
0
42
0.000000001
43
0.0000000001
44
0.0000000001
40
0
40
0
40
0
40
0
40
1
40
1
40
1
40
1
41
1
41
1
41
1
41
1
10
92.836734835306828
20
-74.96121902465822
30
0
10
93.344738388061543
20
-74.062428601582852
30
0
10
92.442774709065759
20
-73.694928423563653
30
0
10
101.99952341715496
20
-78.693961143493667
30
0
0
SPLINE
5
243
100
AcDbEntity
8
0
100
AcDbSpline
70
4
71
3
72
8
73
4
74
0
42
0.000000001
43
0.0000000001
44
0.0000000001
40
0
40
0
40
0
40
0
40
1
40
1
40
1
40
1
41
1
41
1
41
1
41
1
10
101.99952341715496
20
-78.693961143493667
30
0
10
103.64549045562745
20
-79.555181185404479
30
0
10
105.04249013264975
20
-80.320089276631691
30
0
10
105.10388011932375
20
-80.394172286987313
30
0
0
SPLINE
5
244
100
AcDbEntity
8
0
100
AcDbSpline
70
4
71
3
72
8
73
4
74
0
42
0.000000001
43
0.0000000001
44
0.0000000001
40
0
40
0
40
0
40
0
40
1
40
1
40
1
40
1
41
1
41
1
41
1
41
1
10
105.10388011932375
20
-80.394172286987313
30
0
10
105.37137025197347
20
-80.716439437866228
30
0
10
105.02688223520917
20
-80.948474693298351
30
0
10
101.52141952514651
20
-82.807437451680514
30
0
0
SPLINE
5
245
100
AcDbEntity
8
0
100
AcDbSpline
70
4
71
3
72
8
73
4
74
0
42
0.000000001
43
0.0000000001
44
0.0000000001
40
0
40
0
40
0
40
0
40
1
40
1
40
1
40
1
41
1
41
1
41
1
41
1
10
101.52141952514651
20
-82.807437451680514
30
0
10
92.358372561136903
20
-87.666515858968111
30
0
10
93.391570154825857
20
-87.259055264790874
30
0
10
92.774028714497888
20
-86.258397674560555
30
0
0
SPLINE
5
246
100
AcDbEntity
8
0
100
AcDbSpline
70
4
71
3
72
8
73
4
74
0
42
0.000000001
43
0.0000000001
44
0.0000000001
40
0
40
0
40
0
40
0
40
1
40
1
40
1
40
1
41
1
41
1
41
1
41
1
10
92.774028714497888
20
-86.258397674560555
30
0
10
92.09298985799154
20
-85.155089696248382
30
0
10
91.003699111938502
20
-84.390706443786627
30
0
10
89.428375371297207
20
-83.911019961039244
30
0
0
SPLINE
5
247
100
AcDbEntity
8
0
100
AcDbSpline
70
4
71
3
72
8
73
4
74
0
42
0.000000001
43
0.0000000001
44
0.0000000001
40
0
40
0
40
0
40
0
40
1
40
1
40
1
40
1
41
1
41
1
41
1
41
1
10
89.428375371297207
20
-83.911019961039244
30
0
10
88.651557477315279
20
-83.674479166666686
30
0
10
88.518732897440614
20
-83.668923950195321
30
0
10
82.859033139546739
20
-83.633993911743175
30
0
0
SPLINE
5
248
100
AcDbEntity
8
0
100
AcDbSpline
70
4
71
3
72
8
73
4
74
0
42
0.000000001
43
0.0000000001
44
0.0000000001
40
0
40
0
40
0
40
0
40
1
40
1
40
1
40
1
41
1
41
1
41
1
41
1
10
82.859033139546739
20
-83.633993911743175
30
0
10
76.081200726826992
20
-83.592192522684741
30
0
10
76.834998385111504
20
-83.413868459065768
30
0
10
76.261115455627447
20
-85.195833333333354
30
0
0
SPLINE
5
249
100
AcDbEntity
8
0
100
AcDbSpline
70
4
71
3
72
8
73
4
74
0
42
0.000000001
43
0.0000000001
44
0.0000000001
40
0
40
0
40
0
40
0
40
1
40
1
40
1
40
1
41
1
41
1
41
1
41
1
10
76.261115455627447
20
-85.195833333333354
30
0
10
74.089155006408703
20
-91.943766085306819
30
0
10
70.110610707600912
20
-96.624512354532897
30
0
10
62.229999192555752
20
-101.70424912770591
30
0
0
SPLINE
5
250
100
AcDbEntity
8
0
100
AcDbSpline
70
4
71
3
72
8
73
4
74
0
42
0.000000001
43
0.0000000001
44
0.0000000001
40
0
40
0
40
0
40
0
40
1
40
1
40
1
40
1
41
1
41
1
41
1
41
1
10
62.229999192555752
20
-101.70424912770591
30
0
10
58.694374402364105
20
-103.98309904734296
30
0
10
56.077378940582285
20
-105.76797879536947
30
0
10
55.952495574951186
20
-105.98520552317304
30
0
0
SPLINE
5
251
100
AcDbEntity
8
0
100
AcDbSpline
70
4
71
3
72
8
73
4
74
0
42
0.000000001
43
0.0000000001
44
0.0000000001
40
0
40
0
40
0
40
0
40
1
40
1
40
1
40
1
41
1
41
1
41
1
41
1
10
55.952495574951186
20
-105.98520552317304
30
0
10
55.857511870066332
20
-106.15083656311036
30
0
10
55.827083333333348
20
-109.815309270223
30
0
10
55.827083333333348
20
-121.14397824605307
30
0
0
SPLINE
5
252
100
AcDbEntity
8
0
100
AcDbSpline
70
4
71
3
72
8
73
4
74
0
42
0.000000001
43
0.0000000001
44
0.0000000001
40
0
40
0
40
0
40
0
40
1
40
1
40
1
40
1
41
1
41
1
41
1
41
1
10
56.192209625244153
20
-136.59565137227378
30
0
10
60.806543604532884
20
-143.05861282348636
30
0
10
61.86011301676433
20
-148.20132217407229
30
0
10
59.793980248769138
20
-154.17720095316571
30
0
0
SPLINE
5
253
100
AcDbEntity
8
0
100
AcDbSpline
70
4
71
3
72
8
73
4
74
0
42
0.000000001
43
0.0000000001
44
0.0000000001
40
0
40
0
40
0
40
0
40
1
40
1
40
1
40
1
41
1
41
1
41
1
41
1
10
59.793980248769138
20
-154.17720095316571
30
0
10
59.190468152364105
20
-155.92292772928874
30
0
10
58.53932895660401
20
-157.09926096598309
30
0
10
57.080680910746267
20
-159.07966334025068
30
0
0
SPLINE
5
254
100
AcDbEntity
8
0
100
AcDbSpline
70
4
71
3
72
8
73
4
74
0
42
0.000000001
43
0.0000000001
44
0.0000000001
40
0
40
0
40
0
40
0
40
1
40
1
40
1
40
1
41
1
41
1
41
1
41
1
10
57.080680910746267
20
-159.07966334025068
30
0
10
56.325821463267019
20
-160.10440699259445
30
0
10
56.265497303009042
20
-160.37745234171553
30
0
10
56.632739098866793
20
-161.10902913411462
30
0
0
SPLINE
5
255
100
AcDbEntity
8
0
100
AcDbSpline
70
4
71
3
72
8
73
4
74
0
42
0.000000001
43
0.0000000001
44
0.0000000001
40
0
40
0
40
0
40
0
40
1
40
1
40
1
40
1
41
1
41
1
41
1
41
1
10
56.632739098866793
20
-161.10902913411462
30
0
10
57.064540100097659
20
-161.96945788065594
30
0
10
57.678900210062672
20
-162.66715431213382
30
0
10
58.427671527862557
20
-163.14711532592776
30
0
0
SPLINE
5
256
100
AcDbEntity
8
0
100
AcDbSpline
70
4
71
3
72
8
73
4
74
0
42
0.000000001
43
0.0000000001
44
0.0000000001
40
0
40
0
40
0
40
0
40
1
40
1
40
1
40
1
41
1
41
1
41
1
41
1
10
58.427671527862557
20
-163.14711532592776
30
0
10
59.133846124013274
20
-163.59954249064131
30
0
10
59.213221931457525
20
-163.69611282348637
30
0
10
59.162950452168786
20
-164.04034245808924
30
0
0
SPLINE
5
257
100
AcDbEntity
8
0
100
AcDbSpline
70
4
71
3
72
8
73
4
74
0
42
0.000000001
43
0.0000000001
44
0.0000000001
40
0
40
0
40
0
40
0
40
1
40
1
40
1
40
1
41
1
41
1
41
1
41
1
10
59.162950452168786
20
-164.04034245808924
30
0
10
59.138343588511155
20
-164.2083554585775
30
0
10
53.285495090484631
20
-175.3279932657878
30
0
10
53.104256153106697
20
-175.55104166666669
30
0
0
SPLINE
5
258
100
AcDbEntity
8
0
100
AcDbSpline
70
4
71
3
72
8
73
4
74
0
42
0.000000001
43
0.0000000001
44
0.0000000001
40
0
40
0
40
0
40
0
40
1
40
1
40
1
40
1
41
1
41
1
41
1
41
1
10
53.104256153106697
20
-175.55104166666669
30
0
10
52.79151684443157
20
-175.93548202514651
30
0
10
52.681982994079597
20
-175.78387629191084
30
0
10
51.098714001973477
20
-172.7729166666667
30
0
0
SPLINE
5
259
100
AcDbEntity
8
0
100
AcDbSpline
70
4
71
3
72
8
73
4
74
0
42
0.000000001
43
0.0000000001
44
0.0000000001
40
0
40
0
40
0
40
0
40
1
40
1
40
1
40
1
41
1
41
1
41
1
41
1
10
51.098714001973477
20
-172.7729166666667
30
0
10
50.48646939595541
20
-171.60874354044597
30
0
10
49.189217344919847
20
-169.14733047485353
30
0
10
48.215815035502125
20
-167.30319239298507
30
0
0
SPLINE
5
260
100
AcDbEntity
8
0
100
AcDbSpline
70
4
71
3
72
8
73
4
74
0
42
0.000000001
43
0.0000000001
44
0.0000000001
40
0
40
0
40
0
40
0
40
1
40
1
40
1
40
1
41
1
41
1
41
1
41
1
10
48.215815035502125
20
-167.30319239298507
30
0
10
46.236732832590747
20
-163.55456784566246
30
0
10
46.290968863169361
20
-163.76650581359866
30
0
10
47.173622512817388
20
-163.22119026184083
30
0
0
SPLINE
5
261
100
AcDbEntity
8
0
100
AcDbSpline
70
4
71
3
72
8
73
4
74
0
42
0.000000001
43
0.0000000001
44
0.0000000001
40
0
40
0
40
0
40
0
40
1
40
1
40
1
40
1
41
1
41
1
41
1
41
1
10
47.173622512817388
20
-163.22119026184083
30
0
10
48.484100500742599
20
-162.41130752563478
30
0
10
49.291346931457525
20
-161.13443133036299
30
0
10
49.679227002461758
20
-159.25641288757328
30
0
0
SPLINE
5
262
100
AcDbEntity
8
0
100
AcDbSpline
70
4
71
3
72
8
73
4
74
0
42
0.000000001
43
0.0000000001
44
0.0000000001
40
0
40
0
40
0
40
0
40
1
40
1
40
1
40
1
41
1
41
1
41
1
41
1
10
49.679227002461758
20
-159.25641288757328
30
0
10
49.881100177764907
20
-158.27824261983238
30
0
10
49.937988662719732
20
-142.28921534220379
30
0
10
49.740608914693205
20
-141.92064933776857
30
0
0
SPLINE
5
263
100
AcDbEntity
8
0
100
AcDbSpline
70
4
71
3
72
8
73
4
74
0
42
0.000000001
43
0.0000000001
44
0.0000000001
40
0
40
0
40
0
40
0
40
1
40
1
40
1
40
1
41
1
41
1
41
1
41
1
10
49.740608914693205
20
-141.92064933776857
30
0
10
49.681871382395435
20
-141.81085306803388
30
0
10
49.027026017506927
20
-141.16764297485355
30
0
10
48.285400581359866
20
-140.49110158284509
30
0
0
SPLINE
5
264
100
AcDbEntity
8
0
100
AcDbSpline
70
4
71
3
72
8
73
4
74
0
42
0.000000001
43
0.0000000001
44
0.0000000001
40
0
40
0
40
0
40
0
40
1
40
1
40
1
40
1
41
1
41
1
41
1
41
1
10
48.285400581359866
20
-140.49110158284509
30
0
10
42.214800516764328
20
-134.95416564941408
30
0
10
38.309019056955982
20
-128.51368344624839
30
0
10
37.343557961781826
20
-122.44916343688968
30
0
0
SPLINE
5
265
100
AcDbEntity
8
0
100
AcDbSpline
70
4
71
3
72
8
73
4
74
0
42
0.000000001
43
0.0000000001
44
0.0000000001
40
0
40
0
40
0
40
0
40
1
40
1
40
1
40
1
41
1
41
1
41
1
41
1
10
37.343557961781826
20
-122.44916343688968
30
0
10
37.165225823720299
20
-121.3281239827474
30
0
10
37.164168071746829
20
-117.58612855275473
30
0
10
37.341967296600352
20
-116.62833010355634
30
0
0
SPLINE
5
266
100
AcDbEntity
8
0
100
AcDbSpline
70
4
71
3
72
8
73
4
74
0
42
0.000000001
43
0.0000000001
44
0.0000000001
40
0
40
0
40
0
40
0
40
1
40
1
40
1
40
1
41
1
41
1
41
1
41
1
10
37.341967296600352
20
-116.62833010355634
30
0
10
38.566194089253749
20
-110.03650054931641
30
0
10
42.428845914204921
20
-104.2680622736613
30
0
10
48.577501614888519
20
-99.849517377217637
30
0
0
SPLINE
5
267
100
AcDbEntity
8
0
100
AcDbSpline
70
4
71
3
72
8
73
4
74
0
42
0.000000001
43
0.0000000001
44
0.0000000001
40
0
40
0
40
0
40
0
40
1
40
1
40
1
40
1
41
1
41
1
41
1
41
1
10
48.577501614888519
20
-99.849517377217637
30
0
10
49.130479812622085
20
-99.452109464009624
30
0
10
49.640861288706468
20
-99.052327664693223
30
0
10
49.711767005920422
20
-98.961312548319512
30
0
0
SPLINE
5
268
100
AcDbEntity
8
0
100
AcDbSpline
70
4
71
3
72
8
73
4
74
0
42
0.000000001
43
0.0000000001
44
0.0000000001
40
0
40
0
40
0
40
0
40
1
40
1
40
1
40
1
41
1
41
1
41
1
41
1
10
49.711767005920422
20
-98.961312548319512
30
0
10
49.938779958089199
20
-98.669211514790874
30
0
10
49.900680700937912
20
-84.05415560404461
30
0
10
49.672347577412935
20
-83.801740455627453
30
0
0
SPLINE
5
269
100
AcDbEntity
8
0
100
AcDbSpline
70
4
71
3
72
8
73
4
74
0
42
0.000000001
43
0.0000000001
44
0.0000000001
40
0
40
0
40
0
40
0
40
1
40
1
40
1
40
1
41
1
41
1
41
1
41
1
10
49.672347577412935
20
-83.801740455627453
30
0
10
49.452476469675702
20
-83.558853149414062
30
0
10
37.620838356018076
20
-83.494830894470226
30
0
10
37.380333010355635
20
-83.735336240132654
30
0
0
SPLINE
5
270
100
AcDbEntity
8
0
100
AcDbSpline
70
4
71
3
72
8
73
4
74
0
42
0.000000001
43
0.0000000001
44
0.0000000001
40
0
40
0
40
0
40
0
40
1
40
1
40
1
40
1
41
1
41
1
41
1
41
1
10
37.380333010355635
20
-83.735336240132654
30
0
10
36.821799596150719
20
-84.29386965433757
30
0
10
37.974587758382164
20
-85.978997739156114
30
0
10
39.585107994079593
20
-86.95742638905844
30
0
0
SPLINE
5
271
100
AcDbEntity
8
0
100
AcDbSpline
70
4
71
3
72
8
73
4
74
0
42
0.000000001
43
0.0000000001
44
0.0000000001
40
0
40
0
40
0
40
0
40
1
40
1
40
1
40
1
41
1
41
1
41
1
41
1
10
39.585107994079593
20
-86.95742638905844
30
0
10
42.366935125986743
20
-88.647326469421415
30
0
10
42.859326744079596
20
-90.389072545369487
30
0
10
41.899945704142254
20
-95.144168281555181
30
0
0
SPLINE
5
272
100
AcDbEntity
8
0
100
AcDbSpline
70
4
71
3
72
8
73
4
74
0
42
0.000000001
43
0.0000000001
44
0.0000000001
40
0
40
0
40
0
40
0
40
1
40
1
40
1
40
1
41
1
41
1
41
1
41
1
10
41.899945704142254
20
-95.144168281555181
30
0
10
40.967819945017503
20
-99.763524564107286
30
0
10
39.334812386830656
20
-102.44666989644371
30
0
10
37.455473772684741
20
-102.44666989644371
30
0
0
SPLINE
5
273
100
AcDbEntity
8
0
100
AcDbSpline
70
4
71
3
72
8
73
4
74
0
42
0.000000001
43
0.0000000001
44
0.0000000001
40
0
40
0
40
0
40
0
40
1
40
1
40
1
40
1
41
1
41
1
41
1
41
1
10
37.455473772684741
20
-102.44666989644371
30
0
10
34.480764357248944
20
-102.44666989644371
30
0
10
27.580430539449061
20
-96.909992345174174
30
0
10
27.201018540064496
20
-94.218917910257986
30
0
0
SPLINE
5
274
100
AcDbEntity
8
0
100
AcDbSpline
70
4
71
3
72
8
73
4
74
0
42
0.000000001
43
0.0000000001
44
0.0000000001
40
0
40
0
40
0
40
0
40
1
40
1
40
1
40
1
41
1
41
1
41
1
41
1
10
27.201018540064496
20
-94.218917910257986
30
0
10
27.03750704129537
20
-93.058459027608251
30
0
10
27.432528956731165
20
-90.874847157796239
30
0
10
28.105628617604577
20
-89.220143572489434
30
0
0
SPLINE
5
275
100
AcDbEntity
8
0
100
AcDbSpline
70
4
71
3
72
8
73
4
74
0
42
0.000000001
43
0.0000000001
44
0.0000000001
40
0
40
0
40
0
40
0
40
1
40
1
40
1
40
1
41
1
41
1
41
1
41
1
10
28.105628617604577
20
-89.220143572489434
30
0
10
28.805981540679934
20
-87.498502858479839
30
0
10
28.653844912846886
20
-84.81033522288007
30
0
10
27.799506314595543
20
-83.812592506408691
30
0
0
SPLINE
5
276
100
AcDbEntity
8
0
100
AcDbSpline
70
4
71
3
72
8
73
4
74
0
42
0.000000001
43
0.0000000001
44
0.0000000001
40
0
40
0
40
0
40
0
40
1
40
1
40
1
40
1
41
1
41
1
41
1
41
1
10
27.799506314595543
20
-83.812592506408691
30
0
10
27.538098255793258
20
-83.507265535990399
30
0
10
17.527323643366501
20
-83.544036547342955
30
0
10
16.4570835351944
20
-83.854393895467126
30
0
0
SPLINE
5
277
100
AcDbEntity
8
0
100
AcDbSpline
70
4
71
3
72
8
73
4
74
0
42
0.000000001
43
0.0000000001
44
0.0000000001
40
0
40
0
40
0
40
0
40
1
40
1
40
1
40
1
41
1
41
1
41
1
41
1
10
16.4570835351944
20
-83.854393895467126
30
0
10
14.832012144724532
20
-84.325351905822771
30
0
10
13.548518943786622
20
-85.210649935404476
30
0
10
12.886531734466555
20
-86.317664082845056
30
0
0
SPLINE
5
278
100
AcDbEntity
8
0
100
AcDbSpline
70
4
71
3
72
8
73
4
74
0
42
0.000000001
43
0.0000000001
44
0.0000000001
40
0
40
0
40
0
40
0
40
1
40
1
40
1
40
1
41
1
41
1
41
1
41
1
10
12.886531734466555
20
-86.317664082845056
30
0
10
12.352073280016583
20
-87.211165746053069
30
0
10
12.583848134676616
20
-87.280751291910818
30
0
10
8.0962501009305328
20
-84.883626937866211
30
0
0
SPLINE
5
279
100
AcDbEntity
8
0
100
AcDbSpline
70
4
71
3
72
8
73
4
74
0
42
0.000000001
43
0.0000000001
44
0.0000000001
40
0
40
0
40
0
40
0
40
1
40
1
40
1
40
1
41
1
41
1
41
1
41
1
10
8.0962501009305328
20
-84.883626937866211
30
0
10
6.9320835351943977
20
-84.261854489644378
30
0
10
4.7775810400644945
20
-83.117003504435232
30
0
10
3.3086146136124932
20
-82.339394315083837
30
0
0
SPLINE
5
280
100
AcDbEntity
8
0
100
AcDbSpline
70
4
71
3
72
8
73
4
74
0
42
0.000000001
43
0.0000000001
44
0.0000000001
40
0
40
0
40
0
40
0
40
1
40
1
40
1
40
1
41
1
41
1
41
1
41
1
10
3.3086146136124932
20
-82.339394315083837
30
0
10
0.62891460806131372
20
-80.920956993103047
30
0
10
0.32570206920305889
20
-80.696592458089199
30
0
10
0.65061044593652095
20
-80.372742716471365
30
0
0
SPLINE
5
281
100
AcDbEntity
8
0
100
AcDbSpline
70
4
71
3
72
8
73
4
74
0
42
0.000000001
43
0.0000000001
44
0.0000000001
40
0
40
0
40
0
40
0
40
1
40
1
40
1
40
1
41
1
41
1
41
1
41
1
10
0.65061044593652095
20
-80.372742716471365
30
0
10
0.81782710452874507
20
-80.205795542399102
30
0
10
4.3690647125244144
20
-78.30423202514649
30
0
10
6.5087501009305324
20
-77.235579554239919
30
0
0
SPLINE
5
282
100
AcDbEntity
8
0
100
AcDbSpline
70
4
71
3
72
8
73
4
74
0
42
0.000000001
43
0.0000000001
44
0.0000000001
40
0
40
0
40
0
40
0
40
1
40
1
40
1
40
1
41
1
41
1
41
1
41
1
10
6.5087501009305324
20
-77.235579554239919
30
0
10
7.3236667474110924
20
-76.828651873270687
30
0
10
8.928628738721212
20
-75.996532122294113
30
0
10
10.075598255793254
20
-75.386669476826995
30
0
0
SPLINE
5
283
100
AcDbEntity
8
0
100
AcDbSpline
70
4
71
3
72
8
73
4
74
0
42
0.000000001
43
0.0000000001
44
0.0000000001
40
0
40
0
40
0
40
0
40
1
40
1
40
1
40
1
41
1
41
1
41
1
41
1
10
10.075598255793254
20
-75.386669476826995
30
0
10
12.420335626602174
20
-74.139426485697442
30
0
10
12.39096686045329
20
-74.14365749359132
30
0
10
12.885472973187767
20
-74.970480410257977
30
0
0
SPLINE
5
284
100
AcDbEntity
8
0
100
AcDbSpline
70
4
71
3
72
8
73
4
74
0
42
0.000000001
43
0.0000000001
44
0.0000000001
40
0
40
0
40
0
40
0
40
1
40
1
40
1
40
1
41
1
41
1
41
1
41
1
10
12.885472973187767
20
-74.970480410257977
30
0
10
14.232731056213382
20
-77.223144912719746
30
0
10
15.621264680226645
20
-77.620811208089208
30
0
10
22.154092264175418
20
-77.625575129191091
30
0
0
SPLINE
5
285
100
AcDbEntity
8
0
100
AcDbSpline
70
4
71
3
72
8
73
4
74
0
42
0.000000001
43
0.0000000001
44
0.0000000001
40
0
40
0
40
0
40
0
40
1
40
1
40
1
40
1
41
1
41
1
41
1
41
1
10
22.154092264175418
20
-77.625575129191091
30
0
10
27.604244089126592
20
-77.629281298319512
30
0
10
27.035653956731164
20
-77.813427035013845
30
0
10
27.140958817799891
20
-76.011615180969244
30
0
0
SPLINE
5
286
100
AcDbEntity
8
0
100
AcDbSpline
70
4
71
3
72
8
73
4
74
0
42
0.000000001
43
0.0000000001
44
0.0000000001
40
0
40
0
40
0
40
0
40
1
40
1
40
1
40
1
41
1
41
1
41
1
41
1
10
27.140958817799891
20
-76.011615180969244
30
0
10
27.836547819773362
20
-64.112773482004812
30
0
10
36.694796689351406
20
-54.297525533040371
30
0
10
48.418221124013272
20
-52.435655975341803
30
0
0
SPLINE
5
287
100
AcDbEntity
8
0
100
AcDbSpline
70
4
71
3
72
8
73
4
74
0
42
0.000000001
43
0.0000000001
44
0.0000000001
40
0
40
0
40
0
40
0
40
1
40
1
40
1
40
1
41
1
41
1
41
1
41
1
10
48.418221124013272
20
-52.435655975341803
30
0
10
49.979527632395431
20
-52.187738291422534
30
0
10
49.8474983851115
20
-52.575355943044038
30
0
10
49.8474983851115
20
-48.239097690582284
30
0
0
SPLINE
5
288
100
AcDbEntity
8
0
100
AcDbSpline
70
4
71
3
72
8
73
4
74
0
42
0.000000001
43
0.0000000001
44
0.0000000001
40
0
40
0
40
0
40
0
40
1
40
1
40
1
40
1
41
1
41
1
41
1
41
1
10
49.8474983851115
20
-48.239097690582284
30
0
10
49.8474983851115
20
-42.755344072977707
30
0
10
49.40696891148886
20
-41.273675791422527
30
0
10
47.364385255177822
20
-39.885408624013273
30
0
0
SPLINE
5
289
100
AcDbEntity
8
0
100
AcDbSpline
70
4
71
3
72
8
73
4
74
0
42
0.000000001
43
0.0000000001
44
0.0000000001
40
0
40
0
40
0
40
0
40
1
40
1
40
1
40
1
41
1
41
1
41
1
41
1
10
47.364385255177822
20
-39.885408624013273
30
0
10
46.346799596150717
20
-39.193788210550949
30
0
10
46.347857348124194
20
-39.260725339253753
30
0
10
47.326548417409271
20
-37.360490067799887
30
0
0
SPLINE
5
290
100
AcDbEntity
8
0
100
AcDbSpline
70
4
71
3
72
8
73
4
74
0
42
0.000000001
43
0.0000000001
44
0.0000000001
40
0
40
0
40
0
40
0
40
1
40
1
40
1
40
1
41
1
41
1
41
1
41
1
10
47.326548417409271
20
-37.360490067799887
30
0
10
48.247563743591321
20
-35.572437063852952
30
0
10
51.943793233235681
20
-28.589023288091028
30
0
10
52.358133252461762
20
-27.854275258382163
30
0
0
SPLINE
5
291
100
AcDbEntity
8
0
100
AcDbSpline
70
4
71
3
72
8
73
4
74
0
42
0.000000001
43
0.0000000001
44
0.0000000001
40
0
40
0
40
0
40
0
40
1
40
1
40
1
40
1
41
1
41
1
41
1
41
1
10
52.358133252461762
20
-27.854275258382163
30
0
10
52.845756912231458
20
-26.98961752255758
30
0
10
52.965613937377938
20
-27.108414777119961
30
0
10
54.472417958577488
20
-29.950832525889084
30
0
0
SPLINE
5
292
100
AcDbEntity
8
0
100
AcDbSpline
70
4
71
3
72
8
73
4
74
0
42
0.000000001
43
0.0000000001
44
0.0000000001
40
0
40
0
40
0
40
0
40
1
40
1
40
1
40
1
41
1
41
1
41
1
41
1
10
48.842084948221853
20
-63.042534383138033
30
0
10
44.61774654388428
20
-63.98551219304403
30
0
10
40.599520397186282
20
-66.985619767506932
30
0
10
38.377546850840261
20
-70.855413436889663
30
0
0
SPLINE
5
293
100
AcDbEntity
8
0
100
AcDbSpline
70
4
71
3
72
8
73
4
74
0
42
0.000000001
43
0.0000000001
44
0.0000000001
40
0
40
0
40
0
40
0
40
1
40
1
40
1
40
1
41
1
41
1
41
1
41
1
10
38.377546850840261
20
-70.855413436889663
30
0
10
36.940065956115731
20
-73.358635965983083
30
0
10
35.998945267995204
20
-77.165994008382171
30
0
10
36.724167474110928
20
-77.544079780578627
30
0
0
SPLINE
5
294
100
AcDbEntity
8
0
100
AcDbSpline
70
4
71
3
72
8
73
4
74
0
42
0.000000001
43
0.0000000001
44
0.0000000001
40
0
40
0
40
0
40
0
40
1
40
1
40
1
40
1
41
1
41
1
41
1
41
1
10
36.724167474110928
20
-77.544079780578627
30
0
10
37.218937015533456
20
-77.802050145467135
30
0
10
49.504072157541913
20
-77.687748336791998
30
0
10
49.697216860453295
20
-77.423431460062673
30
0
0
SPLINE
5
295
100
AcDbEntity
8
0
100
AcDbSpline
70
4
71
3
72
8
73
4
74
0
42
0.000000001
43
0.0000000001
44
0.0000000001
40
0
40
0
40
0
40
0
40
1
40
1
40
1
40
1
41
1
41
1
41
1
41
1
10
49.697216860453295
20
-77.423431460062673
30
0
10
49.935606702168791
20
-77.09719975789389
30
0
10
49.920261224110931
20
-63.37617438634237
30
0
10
49.681076049804688
20
-63.137255668640144
30
0
0
SPLINE
5
296
100
AcDbEntity
8
0
100
AcDbSpline
70
4
71
3
72
8
73
4
74
0
42
0.000000001
43
0.0000000001
44
0.0000000001
40
0
40
0
40
0
40
0
40
1
40
1
40
1
40
1
41
1
41
1
41
1
41
1
10
55.978955523173028
20
-63.3494520187378
30
0
10
55.719660949707041
20
-63.661924870808932
30
0
10
55.755115826924644
20
-77.178961563110363
30
0
10
56.015997028350839
20
-77.439838727315276
30
0
0
SPLINE
5
297
100
AcDbEntity
8
0
100
AcDbSpline
70
4
71
3
72
8
73
4
74
0
42
0.000000001
43
0.0000000001
44
0.0000000001
40
0
40
0
40
0
40
0
40
1
40
1
40
1
40
1
41
1
41
1
41
1
41
1
10
56.015997028350839
20
-77.439838727315276
30
0
10
56.238508478800462
20
-77.662354214986181
30
0
10
67.32005510330201
20
-77.793321673075368
30
0
10
67.880974515279149
20
-77.580067571004236
30
0
0
SPLINE
5
298
100
AcDbEntity
8
0
100
AcDbSpline
70
4
71
3
72
8
73
4
74
0
42
0.000000001
43
0.0000000001
44
0.0000000001
40
0
40
0
40
0
40
0
40
1
40
1
40
1
40
1
41
1
41
1
41
1
41
1
10
67.880974515279149
20
-77.580067571004236
30
0
10
68.299279085795092
20
-77.421049499511724
30
0
10
68.32097511291505
20
-77.231348546346041
30
0
10
68.073590342203786
20
-75.888060061136883
30
0
0
SPLINE
5
299
100
AcDbEntity
8
0
100
AcDbSpline
70
4
71
3
72
8
73
4
74
0
42
0.000000001
43
0.0000000001
44
0.0000000001
40
0
40
0
40
0
40
0
40
1
40
1
40
1
40
1
41
1
41
1
41
1
41
1
10
68.073590342203786
20
-75.888060061136883
30
0
10
67.057587273915615
20
-70.374136288960784
30
0
10
63.064230410257984
20
-65.585446834564209
30
0
10
57.890834140777592
20
-63.677270348866784
30
0
0
SPLINE
5
300
100
AcDbEntity
8
0
100
AcDbSpline
70
4
71
3
72
8
73
4
74
0
42
0.000000001
43
0.0000000001
44
0.0000000001
40
0
40
0
40
0
40
0
40
1
40
1
40
1
40
1
41
1
41
1
41
1
41
1
10
57.890834140777592
20
-63.677270348866784
30
0
10
56.539342021942147
20
-63.178794638315843
30
0
10
56.172895558675144
20
-63.115826098124195
30
0
10
55.978955523173028
20
-63.3494520187378
30
0
0
SPLINE
5
301
100
AcDbEntity
8
0
100
AcDbSpline
70
4
71
3
72
8
73
4
74
0
42
0.000000001
43
0.0000000001
44
0.0000000001
40
0
40
0
40
0
40
0
40
1
40
1
40
1
40
1
41
1
41
1
41
1
41
1
10
55.972338517506927
20
-83.783225758870458
30
0
10
55.804591973622649
20
-83.985102971394866
30
0
10
55.695320542653413
20
-94.43958435058596
30
0
10
55.854334576924657
20
-95.053411547342947
30
0
0
SPLINE
5
302
100
AcDbEntity
8
0
100
AcDbSpline
70
4
71
3
72
8
73
4
74
0
42
0.000000001
43
0.0000000001
44
0.0000000001
40
0
40
0
40
0
40
0
40
1
40
1
40
1
40
1
41
1
41
1
41
1
41
1
10
55.854334576924657
20
-95.053411547342947
30
0
10
56.015468152364107
20
-95.675716908772799
30
0
10
56.167602761586515
20
-95.665397771199565
30
0
10
57.48178691864014
20
-94.94149977366132
30
0
0
SPLINE
5
303
100
AcDbEntity
8
0
100
AcDbSpline
70
4
71
3
72
8
73
4
74
0
42
0.000000001
43
0.0000000001
44
0.0000000001
40
0
40
0
40
0
40
0
40
1
40
1
40
1
40
1
41
1
41
1
41
1
41
1
10
57.48178691864014
20
-94.94149977366132
30
0
10
60.360717296600356
20
-93.356115277608254
30
0
10
62.729532655080163
20
-91.48974018096925
30
0
10
64.344812774658209
20
-89.534998385111507
30
0
0
SPLINE
5
304
100
AcDbEntity
8
0
100
AcDbSpline
70
4
71
3
72
8
73
4
74
0
42
0.000000001
43
0.0000000001
44
0.0000000001
40
0
40
0
40
0
40
0
40
1
40
1
40
1
40
1
41
1
41
1
41
1
41
1
10
64.344812774658209
20
-89.534998385111507
30
0
10
65.918029085795098
20
-87.630794525146484
30
0
10
67.676711304982518
20
-84.208934593200695
30
0
10
67.309469509124767
20
-83.76628557840985
30
0
0
SPLINE
5
305
100
AcDbEntity
8
0
100
AcDbSpline
70
4
71
3
72
8
73
4
74
0
42
0.000000001
43
0.0000000001
44
0.0000000001
40
0
40
0
40
0
40
0
40
1
40
1
40
1
40
1
41
1
41
1
41
1
41
1
10
67.309469509124767
20
-83.76628557840985
30
0
10
67.09965511957806
20
-83.513612047831231
30
0
10
56.182681783040366
20
-83.529752858479824
30
0
10
55.972338517506927
20
-83.783225758870458
30
0
0
SPLINE
5
306
100
AcDbEntity
8
0
100
AcDbSpline
70
4
71
3
72
8
73
4
74
0
42
0.000000001
43
0.0000000001
44
0.0000000001
40
0
40
0
40
0
40
0
40
1
40
1
40
1
40
1
41
1
41
1
41
1
41
1
10
47.095566876729336
20
-117.95733489990235
30
0
10
46.372464211781825
20
-121.23366915384929
30
0
10
47.378672981262213
20
-126.18402105967206
30
0
10
49.219908301035566
20
-128.40626106262209
30
0
0
SPLINE
5
307
100
AcDbEntity
8
0
100
AcDbSpline
70
4
71
3
72
8
73
4
74
0
42
0.000000001
43
0.0000000001
44
0.0000000001
40
0
40
0
40
0
40
0
40
1
40
1
40
1
40
1
41
1
41
1
41
1
41
1
10
49.219908301035566
20
-128.40626106262209
30
0
10
49.870252164204921
20
-129.19128259023034
30
0
10
49.851733430226652
20
-129.43231277465821
30
0
10
49.821833769480392
20
-120.56586430867515
30
0
0
SPLINE
5
308
100
AcDbEntity
8
0
100
AcDbSpline
70
4
71
5
72
21
73
15
74
0
42
0.000000001
43
0.0000000001
44
0.0000000001
40
0
40
0
40
0
40
0
40
0
40
0
40
0.10000000000000001
40
0.20000000000000001
40
0.30000000000000004
40
0.40000000000000002
40
0.5
40
0.59999999999999998
40
0.69999999999999996
40
0.79999999999999993
40
0.89999999999999991
40
1
40
1
40
1
40
1
40
1
40
1
41
1
41
1
41
1
41
1
41
1
41
1
41
1
41
1
41
1
41
1
41
1
41
1
41
1
41
1
41
1
10
48.842084948221853
20
-63.042534383138033
30
0
10
48.869617470194228
20
-63.0347291573663
30
0
10
48.923762753903432
20
-63.019948390815578
30
0
10
49.002221558373847
20
-63.000266151986402
30
0
10
49.101222889674801
20
-62.979084128566811
30
0
10
49.214972439389385
20
-62.961629172658313
30
0
10
49.317763948890409
20
-62.954059098837327
30
0
10
49.408601204406551
20
-62.957272558257003
30
0
10
49.486768175351735
20
-62.971915458178188
30
0
10
49.552512226653604
20
-62.997764658950743
30
0
10
49.606667606173332
20
-63.034067613435134
30
0
10
49.641428680773664
20
-63.070834579868354
30
0
10
49.662981116007586
20
-63.102485675980304
30
0
10
49.675373689209792
20
-63.125368634986494
30
0
10
49.681076049804688
20
-63.137255668640144
30
0
0
ENDSEC
0
SECTION
2
OBJECTS
0
DICTIONARY
5
C
100
AcDbDictionary
3
ACAD_GROUP
350
D
3
ACAD_MLINESTYLE
350
17
0
DICTIONARY
5
D
100
AcDbDictionary
0
DICTIONARY
5
1A
330
C
100
AcDbDictionary
0
DICTIONARY
5
17
100
AcDbDictionary
0
ENDSEC
0
EOF
