                                                                        S      1
,,15HFusionComponent,10HComponent1,7Hunknown,7Hunknown,32,38,7,99,15,,  G      1
1.,2,2HMM,1,0.08,15H20250912.002056,0.01,10000.,7Hunknown,7Hunknown,11, G      2
0,;                                                                     G      3
     186       1                                                00000000D      1
     186             -63       1       0                               0D      2
     514       2                                                00010000D      3
     514                       1       1                               0D      4
     510       3                                                00010000D      5
     510             -63       1       1                               0D      6
     510       4                                                00010000D      7
     510             -63       1       1                               0D      8
     510       5                                                00010000D      9
     510             -63       1       1                               0D     10
     510       6                                                00010000D     11
     510             -63       1       1                               0D     12
     510       7                                                00010000D     13
     510             -63       1       1                               0D     14
     508       8                                                00010000D     15
     508                       2       1                               0D     16
     508      10                                                00010000D     17
     508                       1       1                               0D     18
     508      11                                                00010000D     19
     508                       1       1                               0D     20
     508      12                                                00010000D     21
     508                       2       1                               0D     22
     508      14                                                00010000D     23
     508                       1       1                               0D     24
     508      15                                                00010000D     25
     508                       1       1                               0D     26
     126      16                                                00010000D     27
     126       0               8       0                               0D     28
     126      24                                                00010000D     29
     126       0               8       0                               0D     30
     126      32                                                00010000D     31
     126       0               4       0                               0D     32
     126      36                                                00010000D     33
     126       0               7       0                               0D     34
     126      43                                                00010000D     35
     126       0               7       0                               0D     36
     126      50                                                00010000D     37
     126       0               6       0                               0D     38
     126      56                                                00010000D     39
     126       0               7       0                               0D     40
     126      63                                                00010000D     41
     126       0               7       0                               0D     42
     126      70                                                00010000D     43
     126       0               7       0                               0D     44
     126      77                                                00010000D     45
     126       0               4       0                               0D     46
     128      81                                                00010000D     47
     128       0     -63      25       0                               0D     48
     128     106                                                00010000D     49
     128       0     -63       9       0                               0D     50
     128     115                                                00010000D     51
     128       0     -63       4       0                               0D     52
     128     119                                                00010000D     53
     128       0     -63      18       0                               0D     54
     128     137                                                00010000D     55
     128       0     -63       4       0                               0D     56
     502     141                                                00010000D     57
     502                       5       1                               0D     58
     504     146                                                00010001D     59
     504                       3       1                               0D     60
     406     149                                                00000000D     61
     406                       1      15                               0D     62
     314     150                                                00000200D     63
     314                       2       0                               0D     64
186,3,1,0,0,1,61;                                                      1P      1
514,5,5,1,7,1,9,1,11,1,13,1;                                           3P      2
510,47,1,1,15;                                                         5P      3
510,49,1,1,17;                                                         7P      4
510,51,1,1,19;                                                         9P      5
510,53,1,1,21;                                                        11P      6
510,55,2,1,23,25;                                                     13P      7
508,6,0,59,1,0,0,0,59,2,0,0,0,59,3,1,0,0,59,4,1,0,0,59,5,1,0,0,       15P      8
59,3,0,0;                                                             15P      9
508,2,0,59,1,1,0,0,59,2,1,0;                                          17P     10
508,2,0,59,6,0,0,0,59,7,0,0;                                          19P     11
508,6,0,59,8,0,0,0,59,9,0,0,0,59,10,1,0,0,59,7,1,0,0,59,6,1,0,0,      21P     12
59,10,0,0;                                                            21P     13
508,2,0,59,5,0,0,0,59,4,0,0;                                          23P     14
508,2,0,59,8,1,0,0,59,9,1,0;                                          25P     15
126,4,2,0,0,0,0,-3.14159265358979,-3.14159265358979,                  27P     16
-3.14159265358979,-1.5707963267949,-1.5707963267949,0.,0.,0.,1.,      27P     17
0.707106781186548,1.,0.707106781186548,1.,-11.9999997317791,          27P     18
1.46957612612924D-15,-3.72231275648862D-23,-11.9999997317791,         27P     19
11.9999997317791,-3.72231279133776D-23,5.19682352043497D-16,          27P     20
11.9999997317791,-1.66533453693773D-15,11.9999997317791,              27P     21
11.9999997317791,-3.33066903665234D-15,11.9999997317791,0.,           27P     22
-3.33066903665234D-15,-3.14159265358979,0.,0.,0.,0.;                  27P     23
126,4,2,0,0,0,0,0.,0.,0.,1.5707963267949,1.5707963267949,             29P     24
3.14159265358979,3.14159265358979,3.14159265358979,1.,                29P     25
0.707106781186548,1.,0.707106781186548,1.,11.9999997317791,0.,        29P     26
-3.33066903665234D-15,11.9999997317791,-11.9999997317791,             29P     27
-3.33066903665234D-15,5.19682352043497D-16,-11.9999997317791,         29P     28
-1.66533453693773D-15,-11.9999997317791,-11.9999997317791,            29P     29
-3.72231279133776D-23,-11.9999997317791,-1.46957612612924D-15,        29P     30
-3.72231275648862D-23,0.,3.14159265358979,0.,0.,0.;                   29P     31
126,1,1,0,0,1,0,-0.0625000013969821,-0.0625000013969821,              31P     32
0.0625000013969821,0.0625000013969821,1.,1.,11.9999997317791,0.,      31P     33
-3.46944695195361D-15,11.9999997317791,0.,1.49999999999995,           31P     34
-0.0625000013969821,0.0625000013969821,0.,0.,0.;                      31P     35
126,4,2,0,0,0,0,0.,0.,0.,1.5707963267949,1.5707963267949,             33P     36
3.14159265358979,3.14159265358979,3.14159265358979,1.,                33P     37
0.707106781186548,1.,0.707106781186548,1.,12.,0.,                     33P     38
1.49999999999995,12.,-12.,1.49999999999995,7.27849185584501D-16,      33P     39
-12.,1.49999999999995,-12.,-12.,1.49999999999996,-12.,                33P     40
-1.46957615897682D-15,1.49999999999996,0.,3.14159265358979,0.,        33P     41
0.,0.;                                                                33P     42
126,4,2,0,0,0,0,-3.14159265358979,-3.14159265358979,                  35P     43
-3.14159265358979,-1.5707963267949,-1.5707963267949,0.,0.,0.,1.,      35P     44
0.707106781186548,1.,0.707106781186548,1.,-12.,                       35P     45
1.46957615897682D-15,1.49999999999996,-12.,12.,1.49999999999996,      35P     46
7.27849185584501D-16,12.,1.49999999999995,12.,12.,                    35P     47
1.49999999999995,12.,0.,1.49999999999995,-3.14159265358979,0.,        35P     48
0.,0.,0.;                                                             35P     49
126,4,2,0,0,0,0,-3.14159265358979,-3.14159265358979,                  37P     50
-3.14159265358979,-1.5707963267949,-1.5707963267949,0.,0.,0.,1.,      37P     51
0.707106781186548,1.,0.707106781186548,1.,-1.,                        37P     52
1.22464679914735D-16,3.09999999999996,-1.,1.,3.09999999999996,        37P     53
2.76338050978489D-16,1.,3.09999999999996,1.,1.,3.09999999999996,      37P     54
1.,0.,3.09999999999996,-3.14159265358979,0.,0.,0.,0.;                 37P     55
126,4,2,0,0,0,0,0.,0.,0.,1.5707963267949,1.5707963267949,             39P     56
3.14159265358979,3.14159265358979,3.14159265358979,1.,                39P     57
0.707106781186548,1.,0.707106781186548,1.,1.,0.,                      39P     58
3.09999999999996,1.,-1.,3.09999999999996,2.76338050978489D-16,        39P     59
-1.,3.09999999999996,-1.,-1.,3.09999999999996,-1.,                    39P     60
-1.22464679914735D-16,3.09999999999996,0.,3.14159265358979,0.,        39P     61
0.,0.;                                                                39P     62
126,4,2,0,0,0,0,-3.14159265358979,-3.14159265358979,                  41P     63
-3.14159265358979,-1.5707963267949,-1.5707963267949,0.,0.,0.,1.,      41P     64
0.707106781186548,1.,0.707106781186548,1.,-2.5,                       41P     65
3.06161699786838D-16,1.49999999999996,-2.5,2.5,1.49999999999996,      41P     66
1.46141955989509D-16,2.5,1.49999999999996,2.5,2.5,                    41P     67
1.49999999999996,2.5,0.,1.49999999999996,-3.14159265358979,0.,        41P     68
0.,0.,0.;                                                             41P     69
126,4,2,0,0,0,0,0.,0.,0.,1.5707963267949,1.5707963267949,             43P     70
3.14159265358979,3.14159265358979,3.14159265358979,1.,                43P     71
0.707106781186548,1.,0.707106781186548,1.,2.5,0.,                     43P     72
1.49999999999996,2.5,-2.5,1.49999999999996,1.46141955989509D-16,      43P     73
-2.5,1.49999999999996,-2.5,-2.5,1.49999999999996,-2.5,                43P     74
-3.06161699786838D-16,1.49999999999996,0.,3.14159265358979,0.,        43P     75
0.,0.;                                                                43P     76
126,1,1,0,0,1,0,-0.626620348556038,-0.626620348556038,                45P     77
0.626620348556038,0.626620348556038,1.,1.,2.5,0.,                     45P     78
1.49999999999996,1.,0.,3.09999999999996,-0.626620348556038,           45P     79
0.626620348556038,0.,0.,0.;                                           45P     80
128,1,8,1,2,0,1,0,0,1,-0.0625000013969821,-0.0625000013969821,        47P     81
0.0625000013969821,0.0625000013969821,-3.14159265358979,              47P     82
-3.14159265358979,-3.14159265358979,-1.5707963267949,                 47P     83
-1.5707963267949,0.,0.,1.5707963267949,1.5707963267949,               47P     84
3.14159265358979,3.14159265358979,3.14159265358979,1.,1.,             47P     85
0.707106781186548,0.707106781186548,1.,1.,0.707106781186548,          47P     86
0.707106781186548,1.,1.,0.707106781186548,0.707106781186548,1.,       47P     87
1.,0.707106781186548,0.707106781186548,1.,1.,11.9999997317791,        47P     88
0.,-3.46944695195361D-15,11.9999997317791,0.,1.49999999999995,        47P     89
11.9999997317791,-11.9999997317791,-3.46944695195361D-15,             47P     90
11.9999997317791,-11.9999997317791,1.49999999999995,                  47P     91
-2.15105711021121D-16,-11.9999997317791,-1.80411241501588D-15,        47P     92
-6.9388939039105D-18,-11.9999997317791,1.49999999999995,              47P     93
-11.9999997317791,-11.9999997317791,-1.38777878078145D-16,            47P     94
-11.9999997317791,-11.9999997317791,1.49999999999996,                 47P     95
-11.9999997317791,0.,-1.38777878078145D-16,-11.9999997317791,0.,      47P     96
1.49999999999996,-11.9999997317791,11.9999997317791,                  47P     97
-1.38777878078145D-16,-11.9999997317791,11.9999997317791,             47P     98
1.49999999999996,-2.15105711021121D-16,11.9999997317791,              47P     99
-1.80411241501588D-15,-6.9388939039105D-18,11.9999997317791,          47P    100
1.49999999999995,11.9999997317791,11.9999997317791,                   47P    101
-3.46944695195361D-15,11.9999997317791,11.9999997317791,              47P    102
1.49999999999995,11.9999997317791,0.,-3.46944695195361D-15,           47P    103
11.9999997317791,0.,1.49999999999995,-0.0625000013969821,             47P    104
0.0625000013969821,-3.14159265358979,3.14159265358979;                47P    105
128,1,1,1,1,0,0,1,0,0,-1.20099997317791,-1.20099997317791,            49P    106
1.20099997317791,1.20099997317791,-1.20099997317791,                  49P    107
-1.20099997317791,1.20099997317791,1.20099997317791,1.,1.,1.,1.,      49P    108
12.0099997317791,-12.0099997317791,-1.66672227849539D-15,             49P    109
-12.0099997317791,-12.0099997317791,1.66672227849539D-15,             49P    110
12.0099997317791,12.0099997317791,-1.66672227849539D-15,              49P    111
-12.0099997317791,12.0099997317791,1.66672227849539D-15,              49P    112
-1.20099997317791,1.20099997317791,-1.20099997317791,                 49P    113
1.20099997317791;                                                     49P    114
128,1,1,1,1,0,0,1,0,0,-0.001,-0.001,0.201,0.201,-0.101,-0.101,        51P    115
0.101,0.101,1.,1.,1.,1.,-1.01,-1.01,3.09999999999996,1.01,-1.01,      51P    116
3.09999999999996,-1.01,1.01,3.09999999999996,1.01,1.01,               51P    117
3.09999999999996,-0.001,0.201,-0.101,0.101;                           51P    118
128,1,8,1,2,0,1,0,0,1,-0.626620348556038,-0.626620348556038,          53P    119
0.626620348556038,0.626620348556038,-3.14159265358979,                53P    120
-3.14159265358979,-3.14159265358979,-1.5707963267949,                 53P    121
-1.5707963267949,0.,0.,1.5707963267949,1.5707963267949,               53P    122
3.14159265358979,3.14159265358979,3.14159265358979,1.,1.,             53P    123
0.707106781186548,0.707106781186548,1.,1.,0.707106781186548,          53P    124
0.707106781186548,1.,1.,0.707106781186548,0.707106781186548,1.,       53P    125
1.,0.707106781186548,0.707106781186548,1.,1.,2.5,0.,                  53P    126
1.49999999999996,1.,0.,3.09999999999996,2.5,-2.5,                     53P    127
1.49999999999996,1.,-1.,3.09999999999996,-6.93889390391013D-18,       53P    128
-2.5,1.49999999999996,2.15105711021121D-16,-1.,3.09999999999996,      53P    129
-2.5,-2.5,1.49999999999996,-1.,-1.,3.09999999999996,-2.5,0.,          53P    130
1.49999999999996,-1.,0.,3.09999999999996,-2.5,2.5,                    53P    131
1.49999999999996,-1.,1.,3.09999999999996,-6.93889390391013D-18,       53P    132
2.5,1.49999999999996,2.15105711021121D-16,1.,3.09999999999996,        53P    133
2.5,2.5,1.49999999999996,1.,1.,3.09999999999996,2.5,0.,               53P    134
1.49999999999996,1.,0.,3.09999999999996,-0.626620348556038,           53P    135
0.626620348556038,-3.14159265358979,3.14159265358979;                 53P    136
128,1,1,1,1,0,0,1,0,0,-0.001,-0.001,2.401,2.401,-1.201,-1.201,        55P    137
1.201,1.201,1.,1.,1.,1.,-12.01,-12.01,1.49999999999996,12.01,         55P    138
-12.01,1.49999999999995,-12.01,12.01,1.49999999999996,12.01,          55P    139
12.01,1.49999999999995,-0.001,2.401,-1.201,1.201;                     55P    140
502,8,-11.9999997317791,0.,0.,11.9999997317791,0.,                    57P    141
-3.46944695195361D-15,11.9999997317791,0.,1.49999999999995,-12.,      57P    142
0.,1.49999999999996,-1.,0.,3.09999999999996,1.,0.,                    57P    143
3.09999999999996,-2.5,0.,1.49999999999996,2.5,0.,                     57P    144
1.49999999999996;                                                     57P    145
504,10,27,57,1,57,2,29,57,2,57,1,31,57,2,57,3,33,57,3,57,4,35,        59P    146
57,4,57,3,37,57,5,57,6,39,57,6,57,5,41,57,7,57,8,43,57,8,57,7,        59P    147
45,57,8,57,6;                                                         59P    148
406,1,5HBody1;                                                        61P    149
314,62.7450980392157,62.7450980392157,62.7450980392157,13HSteel       63P    150
- Satin;                                                              63P    151
S      1G      3D     64P    151                                        T      1
