0
SECTION
2
HEADER
9
$INSUNITS
70
4
9
$ACADVER
1
AC1014
9
$HANDSEED
5
FFFF
0
ENDSEC
0
SECTION
2
TABLES
0
TABLE
2
VPORT
5
8
100
AcDbSymbolTable
0
ENDTAB
0
TABLE
2
LTYPE
5
5
100
AcDbSymbolTable
0
LTYPE
5
14
100
AcDbSymbolTableRecord
100
AcDbLinetypeTableRecord
2
BYBLOCK
70
0
0
LTYPE
5
15
100
AcDbSymbolTableRecord
100
AcDbLinetypeTableRecord
2
BYLAYER
70
0
0
LTYPE
5
16
100
AcDbSymbolTableRecord
100
AcDbLinetypeTableRecord
2
DASHED
70
0
3
Dashed __ __ __ __ __ __ __ __ __ __ __ __ __ _
72
65
73
2
40
0.75
49
0.5
74
0
49
-0.25
74
0
0
ENDTAB
0
TABLE
2
LAYER
5
2
100
AcDbSymbolTable
70
2
0
LAYER
5
50
100
AcDbSymbolTableRecord
100
AcDbLayerTableRecord
2
0
70
0
62
7
6
CONTINUOUS
0
ENDTAB
0
TABLE
2
STYLE
5
3
100
AcDbSymbolTable
70
1
0
STYLE
5
11
100
AcDbSymbolTableRecord
100
AcDbTextStyleTableRecord
2
STANDARD
70
0
0
ENDTAB
0
TABLE
2
VIEW
5
6
100
AcDbSymbolTable
70
0
0
ENDTAB
0
TABLE
2
UCS
5
7
100
AcDbSymbolTable
70
0
0
ENDTAB
0
TABLE
2
APPID
5
9
100
AcDbSymbolTable
70
2
0
APPID
5
12
100
AcDbSymbolTableRecord
100
AcDbRegAppTableRecord
2
ACAD
70
0
0
ENDTAB
0
TABLE
2
DIMSTYLE
5
A
100
AcDbSymbolTable
70
1
0
ENDTAB
0
TABLE
2
BLOCK_RECORD
5
1
100
AcDbSymbolTable
70
1
0
BLOCK_RECORD
5
1F
100
AcDbSymbolTableRecord
100
AcDbBlockTableRecord
2
*MODEL_SPACE
0
BLOCK_RECORD
5
1B
100
AcDbSymbolTableRecord
100
AcDbBlockTableRecord
2
*PAPER_SPACE
0
ENDTAB
0
ENDSEC
0
SECTION
2
BLOCKS
0
BLOCK
5
20
100
AcDbEntity
100
AcDbBlockBegin
2
*MODEL_SPACE
0
ENDBLK
5
21
100
AcDbEntity
100
AcDbBlockEnd
0
BLOCK
5
1C
100
AcDbEntity
100
AcDbBlockBegin
2
*PAPER_SPACE
0
ENDBLK
5
1D
100
AcDbEntity
100
AcDbBlockEnd
0
ENDSEC
0
SECTION
2
ENTITIES
0
SPLINE
5
100
100
AcDbEntity
8
0
100
AcDbSpline
70
4
71
5
72
21
73
15
74
0
42
0.000000001
43
0.0000000001
44
0.0000000001
40
0
40
0
40
0
40
0
40
0
40
0
40
0.10000000000000001
40
0.20000000000000001
40
0.30000000000000004
40
0.40000000000000002
40
0.5
40
0.59999999999999998
40
0.69999999999999996
40
0.79999999999999993
40
0.89999999999999991
40
1
40
1
40
1
40
1
40
1
40
1
41
1
41
1
41
1
41
1
41
1
41
1
41
1
41
1
41
1
41
1
41
1
41
1
41
1
41
1
41
1
10
7.4999998323619366
20
-3.3999999240040779
30
0
10
7.4531584260302211
20
-3.3999999240040779
30
0
10
7.3606390490647833
20
-3.4038865790014841
30
0
10
7.2253374465797249
20
-3.4214044603302174
30
0
10
7.0460540926384931
20
-3.4664811785791416
30
0
10
6.7917357117173882
20
-3.5549553628303867
30
0
10
6.4713288524168586
20
-3.6722766328287992
30
0
10
6.053697462998521
20
-3.8298981886764589
30
0
10
5.534909335812392
20
-4.0357895237150752
30
0
10
4.940389487602264
20
-4.2623267277121784
30
0
10
4.3073101270434186
20
-4.4719872005626007
30
0
10
3.8023625899001621
20
-4.5919856137489949
30
0
10
3.4392097418723191
20
-4.6394528453571873
30
0
10
3.2060090274613771
20
-4.6499998960644016
30
0
10
3.0916337693211289
20
-4.6499998960644016
30
0
0
LINE
5
101
100
AcDbEntity
8
0
100
AcDbLine
10
7.5005432464152602
20
-4.6499998960644007
30
0
11
3.0916337693211289
21
-4.6499998960644016
31
0
0
LINE
5
102
100
AcDbEntity
8
0
100
AcDbLine
10
10.99999975413084
20
-4.999999888241291
30
0
11
0.99999997764825821
21
-4.999999888241291
31
0
0
CIRCLE
5
103
100
AcDbEntity
8
0
100
AcDbCircle
10
7.5002715393885993
20
-4.0249999100342393
30
0
40
0.62500004508992646
210
0
220
0
230
1
0
SPLINE
5
104
100
AcDbEntity
8
0
100
AcDbSpline
70
4
71
5
72
16
73
10
74
0
42
0.000000001
43
0.0000000001
44
0.0000000001
40
0
40
0
40
0
40
0
40
0
40
0
40
0.20000000000000001
40
0.40000000000000002
40
0.60000000000000009
40
0.80000000000000004
40
1
40
1
40
1
40
1
40
1
40
1
41
1
41
1
41
1
41
1
41
1
41
1
41
1
41
1
41
1
41
1
10
7.5005432464152602
20
-4.6499998960644007
30
0
10
7.4292840634579864
20
-4.6458216586484768
30
0
10
7.2958825944406724
20
-4.6310963293948193
30
0
10
7.1231064772763748
20
-4.5899189602678367
30
0
10
6.9398513188314901
20
-4.5021037451053605
30
0
10
6.7630502157721075
20
-4.3558216121524254
30
0
10
6.6472604568990636
20
-4.2208766210104818
30
0
10
6.5701069105148058
20
-4.1128995239039483
30
0
10
6.5226975370406004
20
-4.0381020951053577
30
0
10
6.4999998547136784
20
-3.9999999105930328
30
0
0
CIRCLE
5
105
100
AcDbEntity
8
0
100
AcDbCircle
10
3.0916337693211289
20
-2.7499998960644016
30
0
40
1.8999999999999999
210
0
220
0
230
1
0
CIRCLE
5
106
100
AcDbEntity
8
0
100
AcDbCircle
10
3.0916337693211289
20
-2.7499998960644016
30
0
40
1.3999999999999999
210
0
220
0
230
1
0
CIRCLE
5
107
100
AcDbEntity
8
0
100
AcDbCircle
10
3.0916337693211289
20
-2.7499998960644016
30
0
40
0.69999999999999996
210
0
220
0
230
1
0
LINE
5
108
100
AcDbEntity
8
0
100
AcDbLine
10
3.0916337693211289
20
-2.7499998960644016
30
0
11
1.1916337693211287
21
-2.7499998960644016
31
0
0
LINE
5
109
100
AcDbEntity
8
0
100
AcDbLine
10
0.99999997764825821
20
-4.999999888241291
30
0
11
0.99999997764825821
21
0
31
0
0
LINE
5
110
100
AcDbEntity
8
0
100
AcDbLine
10
3.0916337693211289
20
-4.6499998960644016
30
0
11
3.0916337693211289
21
-2.7499998960644016
31
0
0
SPLINE
5
111
100
AcDbEntity
8
0
100
AcDbSpline
70
4
71
5
72
16
73
10
74
0
42
0.000000001
43
0.0000000001
44
0.0000000001
40
0
40
0
40
0
40
0
40
0
40
0
40
0.20000000000000001
40
0.40000000000000002
40
0.60000000000000009
40
0.80000000000000004
40
1
40
1
40
1
40
1
40
1
40
1
41
1
41
1
41
1
41
1
41
1
41
1
41
1
41
1
41
1
41
1
10
3.0916337693211289
20
-4.6499998960644016
30
0
10
2.9841713977292845
20
-4.6499998960644016
30
0
10
2.7755516443653705
20
-4.6296653845336522
30
0
10
2.4815256213029278
20
-4.5382132032521136
30
0
10
2.1269755440221072
20
-4.3096711222378827
30
0
10
1.7599996187230216
20
-3.8949594690180738
30
0
10
1.554744595019804
20
-3.4840344668118388
30
0
10
1.4723229931630877
20
-3.1340805364647464
30
0
10
1.4539962580393699
20
-2.8812788686725206
30
0
10
1.4539962580393699
20
-2.7499998960644016
30
0
0
LINE
5
112
100
AcDbEntity
8
0
100
AcDbLine
10
1.4539962580393699
20
-2.7499998960644016
30
0
11
1.4539962580393699
21
-4.999999888241291
31
0
0
LINE
5
113
100
AcDbEntity
8
0
100
AcDbLine
10
3.0916337693211289
20
-1.349999896064402
30
0
11
0.99999997764825821
21
-1.349999896064402
31
0
0
LINE
5
114
100
AcDbEntity
8
0
100
AcDbLine
10
4.1398720701671143
20
-2.7499998960644016
30
0
11
4.1398720701671143
21
-4.999999888241291
31
0
0
SPLINE
5
115
100
AcDbEntity
8
0
100
AcDbSpline
70
4
71
5
72
16
73
10
74
0
42
0.000000001
43
0.0000000001
44
0.0000000001
40
0
40
0
40
0
40
0
40
0
40
0
40
0.20000000000000001
40
0.40000000000000002
40
0.60000000000000009
40
0.80000000000000004
40
1
40
1
40
1
40
1
40
1
40
1
41
1
41
1
41
1
41
1
41
1
41
1
41
1
41
1
41
1
41
1
10
1.4539962580393699
20
-2.7499998960644016
30
0
10
1.4539962580393699
20
-2.645474196206183
30
0
10
1.4738470160146115
20
-2.446403645967401
30
0
10
1.563121157404836
20
-2.1777174126499199
30
0
10
1.7841307685281089
20
-1.8744978723970056
30
0
10
2.1692586733972639
20
-1.5808977859873194
30
0
10
2.5245094397650281
20
-1.4237884680280033
30
0
10
2.804051250959418
20
-1.3621926123204486
30
0
10
2.9950071727788514
20
-1.3493556614523885
30
0
10
3.0916337693211289
20
-1.349999896064402
30
0
0
SPLINE
5
116
100
AcDbEntity
8
0
100
AcDbSpline
70
4
71
5
72
16
73
10
74
0
42
0.000000001
43
0.0000000001
44
0.0000000001
40
0
40
0
40
0
40
0
40
0
40
0
40
0.20000000000000001
40
0.40000000000000002
40
0.60000000000000009
40
0.80000000000000004
40
1
40
1
40
1
40
1
40
1
40
1
41
1
41
1
41
1
41
1
41
1
41
1
41
1
41
1
41
1
41
1
10
3.0916337693211289
20
-1.349999896064402
30
0
10
3.1772478554063048
20
-1.3521971699638931
30
0
10
3.3381331494673816
20
-1.3743197235506859
30
0
10
3.5484580787746345
20
-1.4606378003193179
30
0
10
3.7734565587215414
20
-1.6656694062828146
30
0
10
3.9791757584132093
20
-2.0099358047846581
30
0
10
4.0860522755831559
20
-2.3111634841721256
30
0
10
4.1289561888142874
20
-2.5338257595686269
30
0
10
4.139282008340663
20
-2.6785608225188851
30
0
10
4.1398720701671143
20
-2.7499998960644016
30
0
0
LINE
5
117
100
AcDbEntity
8
0
100
AcDbLine
10
3.0916337693211289
20
-2.7499998960644016
30
0
11
3.0916337693211289
21
-1.1584072935793484
31
0
0
SPLINE
5
118
100
AcDbEntity
8
0
100
AcDbSpline
70
4
71
5
72
16
73
10
74
0
42
0.000000001
43
0.0000000001
44
0.0000000001
40
0
40
0
40
0
40
0
40
0
40
0
40
0.20000000000000001
40
0.40000000000000002
40
0.60000000000000009
40
0.80000000000000004
40
1
40
1
40
1
40
1
40
1
40
1
41
1
41
1
41
1
41
1
41
1
41
1
41
1
41
1
41
1
41
1
10
4.1398720701671143
20
-2.7499998960644016
30
0
10
4.1405317204529748
20
-2.8128627591229578
30
0
10
4.1284327769489861
20
-2.92963223588445
30
0
10
4.0700667825692962
20
-3.077940713923061
30
0
10
3.9237201660038372
20
-3.2283967005203329
30
0
10
3.6705242645345315
20
-3.3569001024955929
30
0
10
3.44195692768769
20
-3.4200221286623345
30
0
10
3.2670548022752639
20
-3.4445471878557923
30
0
10
3.1501564789573742
20
-3.4499998960644018
30
0
10
3.0916337693211289
20
-3.4499998960644018
30
0
0
SPLINE
5
119
100
AcDbEntity
8
0
100
AcDbSpline
70
4
71
5
72
16
73
10
74
0
42
0.000000001
43
0.0000000001
44
0.0000000001
40
0
40
0
40
0
40
0
40
0
40
0
40
0.20000000000000001
40
0.40000000000000002
40
0.60000000000000009
40
0.80000000000000004
40
1
40
1
40
1
40
1
40
1
40
1
41
1
41
1
41
1
41
1
41
1
41
1
41
1
41
1
41
1
41
1
10
3.0916337693211289
20
-3.4499998960644018
30
0
10
3.0425875627393886
20
-3.4513233093449553
30
0
10
2.9483411719037389
20
-3.445509776153894
30
0
10
2.8185014585639094
20
-3.4114311364273804
30
0
10
2.667152025917142
20
-3.3221919062492495
30
0
10
2.515503102283577
20
-3.1614786496485676
30
0
10
2.4322924602751557
20
-3.0079407341490452
30
0
10
2.3990297534011957
20
-2.882727888930261
30
0
10
2.3916337693211287
20
-2.7949585869078035
30
0
10
2.3916337693211287
20
-2.7499998960644016
30
0
0
LINE
5
120
100
AcDbEntity
8
0
100
AcDbLine
10
3.0916337693211289
20
-3.4499998960644018
30
0
11
0.99999997764825821
21
-3.4499998960644018
31
0
0
ENDSEC
0
SECTION
2
OBJECTS
0
DICTIONARY
5
C
100
AcDbDictionary
3
ACAD_GROUP
350
D
3
ACAD_MLINESTYLE
350
17
0
DICTIONARY
5
D
100
AcDbDictionary
0
DICTIONARY
5
1A
330
C
100
AcDbDictionary
0
DICTIONARY
5
17
100
AcDbDictionary
0
ENDSEC
0
EOF
