0
SECTION
2
HEADER
9
$INSUNITS
70
4
9
$ACADVER
1
AC1014
9
$HANDSEED
5
FFFF
0
ENDSEC
0
SECTION
2
TABLES
0
TABLE
2
VPORT
5
8
100
AcDbSymbolTable
0
ENDTAB
0
TABLE
2
LTYPE
5
5
100
AcDbSymbolTable
0
LTYPE
5
14
100
AcDbSymbolTableRecord
100
AcDbLinetypeTableRecord
2
BYBLOCK
70
0
0
LTYPE
5
15
100
AcDbSymbolTableRecord
100
AcDbLinetypeTableRecord
2
BYLAYER
70
0
0
LTYPE
5
16
100
AcDbSymbolTableRecord
100
AcDbLinetypeTableRecord
2
DASHED
70
0
3
Dashed __ __ __ __ __ __ __ __ __ __ __ __ __ _
72
65
73
2
40
0.75
49
0.5
74
0
49
-0.25
74
0
0
ENDTAB
0
TABLE
2
LAYER
5
2
100
AcDbSymbolTable
70
2
0
LAYER
5
50
100
AcDbSymbolTableRecord
100
AcDbLayerTableRecord
2
0
70
0
62
7
6
CONTINUOUS
0
ENDTAB
0
TABLE
2
STYLE
5
3
100
AcDbSymbolTable
70
1
0
STYLE
5
11
100
AcDbSymbolTableRecord
100
AcDbTextStyleTableRecord
2
STANDARD
70
0
0
ENDTAB
0
TABLE
2
VIEW
5
6
100
AcDbSymbolTable
70
0
0
ENDTAB
0
TABLE
2
UCS
5
7
100
AcDbSymbolTable
70
0
0
ENDTAB
0
TABLE
2
APPID
5
9
100
AcDbSymbolTable
70
2
0
APPID
5
12
100
AcDbSymbolTableRecord
100
AcDbRegAppTableRecord
2
ACAD
70
0
0
ENDTAB
0
TABLE
2
DIMSTYLE
5
A
100
AcDbSymbolTable
70
1
0
ENDTAB
0
TABLE
2
BLOCK_RECORD
5
1
100
AcDbSymbolTable
70
1
0
BLOCK_RECORD
5
1F
100
AcDbSymbolTableRecord
100
AcDbBlockTableRecord
2
*MODEL_SPACE
0
BLOCK_RECORD
5
1B
100
AcDbSymbolTableRecord
100
AcDbBlockTableRecord
2
*PAPER_SPACE
0
ENDTAB
0
ENDSEC
0
SECTION
2
BLOCKS
0
BLOCK
5
20
100
AcDbEntity
100
AcDbBlockBegin
2
*MODEL_SPACE
0
ENDBLK
5
21
100
AcDbEntity
100
AcDbBlockEnd
0
BLOCK
5
1C
100
AcDbEntity
100
AcDbBlockBegin
2
*PAPER_SPACE
0
ENDBLK
5
1D
100
AcDbEntity
100
AcDbBlockEnd
0
ENDSEC
0
SECTION
2
ENTITIES
0
POINT
5
100
100
AcDbEntity
8
0
100
AcDbPoint
10
3.2999999329447736
20
4.5374999441206469
30
0
0
POINT
5
101
100
AcDbEntity
8
0
100
AcDbPoint
10
3.2999999329447749
20
4.0374999441206469
30
0
0
LINE
5
102
100
AcDbEntity
8
0
100
AcDbLine
10
8.2706014722041701
20
3.5002769795871327
30
0
11
8.7630053487102764
21
3.5871010684205968
31
0
0
SPLINE
5
103
100
AcDbEntity
8
0
100
AcDbSpline
70
0
71
3
72
17
73
13
74
0
42
0.000000001
43
0.0000000001
44
0.0000000001
40
0
40
0
40
0
40
0
40
1.7628711306066709
40
1.7628711306066709
40
1.7628711306066709
40
3.3967482890709464
40
3.3967482890709464
40
3.3967482890709464
40
4.9496573265237878
40
4.9496573265237878
40
4.9496573265237878
40
5.3407075111026483
40
5.3407075111026483
40
5.3407075111026483
40
5.3407075111026483
10
8.7630053487102764
20
3.5871010684205977
30
0
10
8.7026419251923386
20
3.6062918058621722
30
0
10
8.6868082975694403
20
3.7602369365229995
30
0
10
8.8160756651543757
20
3.8140916770515476
30
0
10
8.9358841954348307
20
3.8640057228923999
30
0
10
9.1499765720916866
20
3.7730491105777726
30
0
10
9.1853952715431522
20
3.5656337975910199
30
0
10
9.2190587683293508
20
3.3684971203478025
30
0
10
9.0525913942377372
20
3.1065258738550612
30
0
10
8.7794781047031609
20
3.0741542020534158
30
0
10
8.7107033086863801
20
3.0660024378947606
30
0
10
8.6378229263060486
20
3.0716472074929864
30
0
10
8.5667578941590037
20
3.0924588113764107
30
0
0
LINE
5
104
100
AcDbEntity
8
0
100
AcDbLine
10
8.5667578941590037
20
3.0924588113764107
30
0
11
8.3475723207644634
21
2.6430617882268259
31
0
0
SPLINE
5
105
100
AcDbEntity
8
0
100
AcDbSpline
70
0
71
3
72
17
73
13
74
0
42
0.000000001
43
0.0000000001
44
0.0000000001
40
0
40
0
40
0
40
0
40
1.4906344978858594
40
1.4906344978858594
40
1.4906344978858594
40
2.9025462170123744
40
2.9025462170123744
40
2.9025462170123744
40
4.2814083656094652
40
4.2814083656094652
40
4.2814083656094652
40
5.3407075111026483
40
5.3407075111026483
40
5.3407075111026483
40
5.3407075111026483
10
8.2706014722041701
20
3.5002769795871327
30
0
10
8.1764188563970279
20
3.7611688652271456
30
0
10
8.3168505359632015
20
4.1332023863189651
30
0
10
8.6378093711118638
20
4.2657937046322116
30
0
10
8.9418178596758313
20
4.3913826645324541
30
0
10
9.3720697998021212
20
4.2666294136505831
30
0
10
9.569678046626672
20
3.9282154980305375
30
0
10
9.7626607438491106
20
3.5977230653339012
30
0
10
9.6953749822524813
20
3.0943416268086104
30
0
10
9.3580049905211951
20
2.8074121263164153
30
0
10
9.0988233570855375
20
2.5869809722685555
30
0
10
8.6987593124371525
20
2.509291759677605
30
0
10
8.3475723207644634
20
2.6430617882268272
30
0
0
SPLINE
5
106
100
AcDbEntity
8
0
100
AcDbSpline
70
4
71
5
72
16
73
10
74
0
42
0.000000001
43
0.0000000001
44
0.0000000001
40
0
40
0
40
0
40
0
40
0
40
0
40
0.20000000000000001
40
0.40000000000000002
40
0.60000000000000009
40
0.80000000000000004
40
1
40
1
40
1
40
1
40
1
40
1
41
1
41
1
41
1
41
1
41
1
41
1
41
1
41
1
41
1
41
1
10
3.2999999329447736
20
4.5374999441206469
30
0
10
3.5149263589950639
20
4.5322654651108101
30
0
10
3.9435370323148931
20
4.506454362424372
30
0
10
4.5827298582966112
20
4.4217526791832888
30
0
10
5.42856780550136
20
4.2295341573760954
30
0
10
6.4787437365764857
20
3.9013033536911927
30
0
10
7.3153895114081857
20
3.5955523512691441
30
0
10
7.9415537455645522
20
3.3499345876031104
30
0
10
8.3584479809776724
20
3.1794138117778568
30
0
10
8.5667578941590037
20
3.0924588113764107
30
0
0
SPLINE
5
107
100
AcDbEntity
8
0
100
AcDbSpline
70
4
71
5
72
16
73
10
74
0
42
0.000000001
43
0.0000000001
44
0.0000000001
40
0
40
0
40
0
40
0
40
0
40
0
40
0.20000000000000001
40
0.40000000000000002
40
0.60000000000000009
40
0.80000000000000004
40
1
40
1
40
1
40
1
40
1
40
1
41
1
41
1
41
1
41
1
41
1
41
1
41
1
41
1
41
1
41
1
10
8.3475723207644634
20
2.6430617882268259
30
0
10
8.1319828563728613
20
2.7307690895108703
30
0
10
7.7023950604441218
20
2.9024716942391544
30
0
10
7.0627847582036978
20
3.1488942897896606
30
0
10
6.2201769518132712
20
3.4536480543389225
30
0
10
5.1922487272941344
20
3.7754936250359479
30
0
10
4.4029407936288418
20
3.9559026424605337
30
0
10
3.8388754505017082
20
4.0260843136483402
30
0
10
3.4772242231974815
20
4.0392958186003254
30
0
10
3.2999999329447749
20
4.0374999441206469
30
0
0
LINE
5
108
100
AcDbEntity
8
0
100
AcDbLine
10
8.5667578941590037
20
3.0924588113764107
30
0
11
8.3475723207644634
21
2.6430617882268259
31
0
0
LINE
5
109
100
AcDbEntity
8
0
100
AcDbLine
10
3.2999999329447736
20
4.5374999441206469
30
0
11
3.2999999329447749
21
4.0374999441206469
31
0
0
ENDSEC
0
SECTION
2
OBJECTS
0
DICTIONARY
5
C
100
AcDbDictionary
3
ACAD_GROUP
350
D
3
ACAD_MLINESTYLE
350
17
0
DICTIONARY
5
D
100
AcDbDictionary
0
DICTIONARY
5
1A
330
C
100
AcDbDictionary
0
DICTIONARY
5
17
100
AcDbDictionary
0
ENDSEC
0
EOF
