0
SECTION
2
HEADER
9
$INSUNITS
70
4
9
$ACADVER
1
AC1014
9
$HANDSEED
5
FFFF
0
ENDSEC
0
SECTION
2
TABLES
0
TABLE
2
VPORT
5
8
100
AcDbSymbolTable
0
ENDTAB
0
TABLE
2
LTYPE
5
5
100
AcDbSymbolTable
0
LTYPE
5
14
100
AcDbSymbolTableRecord
100
AcDbLinetypeTableRecord
2
BYBLOCK
70
0
0
LTYPE
5
15
100
AcDbSymbolTableRecord
100
AcDbLinetypeTableRecord
2
BYLAYER
70
0
0
LTYPE
5
16
100
AcDbSymbolTableRecord
100
AcDbLinetypeTableRecord
2
DASHED
70
0
3
Dashed __ __ __ __ __ __ __ __ __ __ __ __ __ _
72
65
73
2
40
0.75
49
0.5
74
0
49
-0.25
74
0
0
ENDTAB
0
TABLE
2
LAYER
5
2
100
AcDbSymbolTable
70
2
0
LAYER
5
50
100
AcDbSymbolTableRecord
100
AcDbLayerTableRecord
2
0
70
0
62
7
6
CONTINUOUS
0
ENDTAB
0
TABLE
2
STYLE
5
3
100
AcDbSymbolTable
70
1
0
STYLE
5
11
100
AcDbSymbolTableRecord
100
AcDbTextStyleTableRecord
2
STANDARD
70
0
0
ENDTAB
0
TABLE
2
VIEW
5
6
100
AcDbSymbolTable
70
0
0
ENDTAB
0
TABLE
2
UCS
5
7
100
AcDbSymbolTable
70
0
0
ENDTAB
0
TABLE
2
APPID
5
9
100
AcDbSymbolTable
70
2
0
APPID
5
12
100
AcDbSymbolTableRecord
100
AcDbRegAppTableRecord
2
ACAD
70
0
0
ENDTAB
0
TABLE
2
DIMSTYLE
5
A
100
AcDbSymbolTable
70
1
0
ENDTAB
0
TABLE
2
BLOCK_RECORD
5
1
100
AcDbSymbolTable
70
1
0
BLOCK_RECORD
5
1F
100
AcDbSymbolTableRecord
100
AcDbBlockTableRecord
2
*MODEL_SPACE
0
BLOCK_RECORD
5
1B
100
AcDbSymbolTableRecord
100
AcDbBlockTableRecord
2
*PAPER_SPACE
0
ENDTAB
0
ENDSEC
0
SECTION
2
BLOCKS
0
BLOCK
5
20
100
AcDbEntity
100
AcDbBlockBegin
2
*MODEL_SPACE
0
ENDBLK
5
21
100
AcDbEntity
100
AcDbBlockEnd
0
BLOCK
5
1C
100
AcDbEntity
100
AcDbBlockBegin
2
*PAPER_SPACE
0
ENDBLK
5
1D
100
AcDbEntity
100
AcDbBlockEnd
0
ENDSEC
0
SECTION
2
ENTITIES
0
LINE
5
100
100
AcDbEntity
8
0
100
AcDbLine
10
3.8499999329447752
20
2.4999999441206455
30
0
11
3.3499999329447752
21
2.4999999441206455
31
0
0
SPLINE
5
101
100
AcDbEntity
8
0
100
AcDbSpline
70
0
71
3
72
29
73
25
74
0
42
0.000000001
43
0.0000000001
44
0.0000000001
40
0
40
0
40
0
40
0
40
1.6277051421646427
40
1.6277051421646427
40
1.6277051421646427
40
3.1554061289226096
40
3.1554061289226096
40
3.1554061289226096
40
4.5973452097698653
40
4.5973452097698653
40
4.5973452097698653
40
5.9700976627583895
40
5.9700976627583895
40
5.9700976627583895
40
7.3098034414120523
40
7.3098034414120523
40
7.3098034414120523
40
8.5888703040927261
40
8.5888703040927261
40
8.5888703040927261
40
9.8436450022209883
40
9.8436450022209883
40
9.8436450022209883
40
10.995574287564276
40
10.995574287564276
40
10.995574287564276
40
10.995574287564276
10
3.3499999329447752
20
2.4999999441206455
30
0
10
3.4233995067383951
20
2.4728715250845683
30
0
10
3.4351703251745946
20
2.2951809858810388
30
0
10
3.284631542310918
20
2.2302386392506248
30
0
10
3.1433416728076855
20
2.1692862686648064
30
0
10
2.8887058173524922
20
2.2628209367747569
30
0
10
2.8231767179331388
20
2.5065869488047197
30
0
10
2.7613262837156345
20
2.736668451909734
30
0
10
2.9095031166803764
20
3.0658290393798984
30
0
10
3.2228682070247663
20
3.1674949648884372
30
0
10
3.5211975207697477
20
3.2642827907272314
30
0
10
3.9361867624615314
20
3.118453546437518
30
0
10
4.1159523109449685
20
2.764152575395884
30
0
10
4.291390310404962
20
2.4183807960384813
30
0
10
4.2034874808508613
20
1.9030517029462728
30
0
10
3.83784523510871
20
1.6111807344342235
30
0
10
3.4887530033838265
20
1.3325206808981056
30
0
10
2.9094256758901818
20
1.2972090655267063
30
0
10
2.4874040606367971
20
1.6008721787413827
30
0
10
2.0733975217031317
20
1.8987680920309133
30
0
10
1.8544266597843797
20
2.5110108542152147
30
0
10
2.0377793742662798
20
3.0619586267022205
30
0
10
2.2061039042986006
20
3.5677489289526081
30
0
10
2.7096361742063388
20
3.9855549594951478
30
0
10
3.2999999329447745
20
4.0374999441206461
30
0
0
LINE
5
102
100
AcDbEntity
8
0
100
AcDbLine
10
3.2999999329447749
20
4.0374999441206469
30
0
11
3.2999999329447736
21
4.5374999441206469
31
0
0
SPLINE
5
103
100
AcDbEntity
8
0
100
AcDbSpline
70
0
71
3
72
32
73
28
74
0
42
0.000000001
43
0.0000000001
44
0.0000000001
40
0
40
0
40
0
40
0
40
1.4403812353343506
40
1.4403812353343506
40
1.4403812353343506
40
2.8075640607033892
40
2.8075640607033892
40
2.8075640607033892
40
4.1166380559833575
40
4.1166380559833575
40
4.1166380559833575
40
5.3784764243801586
40
5.3784764243801586
40
5.3784764243801586
40
6.601207343830926
40
6.601207343830926
40
6.601207343830926
40
7.8074404045786148
40
7.8074404045786148
40
7.8074404045786148
40
8.9753773762468754
40
8.9753773762468754
40
8.9753773762468754
40
10.127507784748838
40
10.127507784748838
40
10.127507784748838
40
10.995574287564276
40
10.995574287564276
40
10.995574287564276
40
10.995574287564276
10
3.8499999329447752
20
2.4999999441206455
30
0
10
3.9149523411145193
20
2.2359300509760143
30
0
10
3.7430078059363323
20
1.872376627436535
30
0
10
3.3968654272375511
20
1.7614680484526164
30
0
10
3.0683135802124761
20
1.6561957075937037
30
0
10
2.6187475636670117
20
1.8150516210972345
30
0
10
2.4215793144706828
20
2.1951595704948406
30
0
10
2.2327912292721104
20
2.559111942278979
30
0
10
2.3122073143272686
20
3.0963243251730215
30
0
10
2.6788813567919818
20
3.4162161670119326
30
0
10
3.0323246129756631
20
3.7245652757902583
30
0
10
3.6317816289900802
20
3.7918302495779788
30
0
10
4.0894533274596432
20
3.5045143672952865
30
0
10
4.5329406636287617
20
3.22610310503301
30
0
10
4.8021957775237833
20
2.6246752551591959
30
0
10
4.6706632283289977
20
2.0487835371531671
30
0
10
4.5409053994565269
20
1.4806621143452057
30
0
10
4.0173164053836397
20
0.97991659540674392
30
0
10
3.3747276489449982
20
0.89553539467821408
30
0
10
2.7525401209743943
20
0.8138331704135906
30
0
10
2.0567800814558108
20
1.1378341673611962
30
0
10
1.7109675743609674
20
1.7335842208047136
30
0
10
1.3698352061517716
20
2.3212715439130234
30
0
10
1.3979024737165173
20
3.1446795897406221
30
0
10
1.8348341799760928
20
3.7409449986736543
30
0
10
2.1640380404271782
20
4.1901979864107908
30
0
10
2.7104380997826221
20
4.4983554395782344
30
0
10
3.2999999329447736
20
4.5374999441206469
30
0
0
LINE
5
104
100
AcDbEntity
8
0
100
AcDbLine
10
3.2999999329447736
20
4.5374999441206469
30
0
11
3.2999999329447749
21
4.0374999441206469
31
0
0
ENDSEC
0
SECTION
2
OBJECTS
0
DICTIONARY
5
C
100
AcDbDictionary
3
ACAD_GROUP
350
D
3
ACAD_MLINESTYLE
350
17
0
DICTIONARY
5
D
100
AcDbDictionary
0
DICTIONARY
5
1A
330
C
100
AcDbDictionary
0
DICTIONARY
5
17
100
AcDbDictionary
0
ENDSEC
0
EOF
