0
SECTION
2
HEADER
9
$INSUNITS
70
4
9
$ACADVER
1
AC1014
9
$HANDSEED
5
FFFF
0
ENDSEC
0
SECTION
2
TABLES
0
TABLE
2
VPORT
5
8
100
AcDbSymbolTable
0
ENDTAB
0
TABLE
2
LTYPE
5
5
100
AcDbSymbolTable
0
LTYPE
5
14
100
AcDbSymbolTableRecord
100
AcDbLinetypeTableRecord
2
BYBLOCK
70
0
0
LTYPE
5
15
100
AcDbSymbolTableRecord
100
AcDbLinetypeTableRecord
2
BYLAYER
70
0
0
LTYPE
5
16
100
AcDbSymbolTableRecord
100
AcDbLinetypeTableRecord
2
DASHED
70
0
3
Dashed __ __ __ __ __ __ __ __ __ __ __ __ __ _
72
65
73
2
40
0.75
49
0.5
74
0
49
-0.25
74
0
0
ENDTAB
0
TABLE
2
LAYER
5
2
100
AcDbSymbolTable
70
2
0
LAYER
5
50
100
AcDbSymbolTableRecord
100
AcDbLayerTableRecord
2
0
70
0
62
7
6
CONTINUOUS
0
ENDTAB
0
TABLE
2
STYLE
5
3
100
AcDbSymbolTable
70
1
0
STYLE
5
11
100
AcDbSymbolTableRecord
100
AcDbTextStyleTableRecord
2
STANDARD
70
0
0
ENDTAB
0
TABLE
2
VIEW
5
6
100
AcDbSymbolTable
70
0
0
ENDTAB
0
TABLE
2
UCS
5
7
100
AcDbSymbolTable
70
0
0
ENDTAB
0
TABLE
2
APPID
5
9
100
AcDbSymbolTable
70
2
0
APPID
5
12
100
AcDbSymbolTableRecord
100
AcDbRegAppTableRecord
2
ACAD
70
0
0
ENDTAB
0
TABLE
2
DIMSTYLE
5
A
100
AcDbSymbolTable
70
1
0
ENDTAB
0
TABLE
2
BLOCK_RECORD
5
1
100
AcDbSymbolTable
70
1
0
BLOCK_RECORD
5
1F
100
AcDbSymbolTableRecord
100
AcDbBlockTableRecord
2
*MODEL_SPACE
0
BLOCK_RECORD
5
1B
100
AcDbSymbolTableRecord
100
AcDbBlockTableRecord
2
*PAPER_SPACE
0
ENDTAB
0
ENDSEC
0
SECTION
2
BLOCKS
0
BLOCK
5
20
100
AcDbEntity
100
AcDbBlockBegin
2
*MODEL_SPACE
0
ENDBLK
5
21
100
AcDbEntity
100
AcDbBlockEnd
0
BLOCK
5
1C
100
AcDbEntity
100
AcDbBlockBegin
2
*PAPER_SPACE
0
ENDBLK
5
1D
100
AcDbEntity
100
AcDbBlockEnd
0
ENDSEC
0
SECTION
2
ENTITIES
0
ARC
5
100
100
AcDbEntity
8
0
100
AcDbCircle
10
0.64999999999999958
20
0.35000000000000026
30
0
40
0.62500000000000022
210
0
220
0
230
1
100
AcDbArc
50
270
51
360
0
LINE
5
101
100
AcDbEntity
8
0
100
AcDbLine
10
0.64999999999999969
20
-0.27500000000000002
30
0
11
-0.27500000000000013
21
-0.27500000000000002
31
0
0
LINE
5
102
100
AcDbEntity
8
0
100
AcDbLine
10
-0.27500000000000013
20
-0.27500000000000002
30
0
11
-0.27500000000000002
21
7.2750000000000012
31
0
0
LINE
5
103
100
AcDbEntity
8
0
100
AcDbLine
10
-0.27500000000000002
20
7.2750000000000012
30
0
11
0.65000000000000058
21
7.2750000000000004
31
0
0
ARC
5
104
100
AcDbEntity
8
0
100
AcDbCircle
10
0.64999999999999891
20
6.6500000000000004
30
0
40
0.62500000000000089
210
0
220
0
230
1
100
AcDbArc
50
0
51
89.999999999999844
0
LINE
5
105
100
AcDbEntity
8
0
100
AcDbLine
10
1.2749999999999997
20
6.6500000000000004
30
0
11
1.2749999999999997
21
6.3500000000000014
31
0
0
ARC
5
106
100
AcDbEntity
8
0
100
AcDbCircle
10
1.3499999999999999
20
6.3500000000000014
30
0
40
0.075000000000000067
210
0
220
0
230
1
100
AcDbArc
50
180
51
270
0
LINE
5
107
100
AcDbEntity
8
0
100
AcDbLine
10
1.3499999999999999
20
6.2750000000000021
30
0
11
8.669805699114546
21
6.2750000000000004
31
0
0
ARC
5
108
100
AcDbEntity
8
0
100
AcDbCircle
10
8.6698056991145407
20
4.4999999999999805
30
0
40
1.775000000000021
210
0
220
-0
230
1
100
AcDbArc
50
57.994619525910814
51
89.999999999999844
0
LINE
5
109
100
AcDbEntity
8
0
100
AcDbLine
10
9.6105537457964054
20
6.0051970344988961
30
0
11
11.931741601284138
21
4.5544547788454919
31
0
0
ARC
5
110
100
AcDbEntity
8
0
100
AcDbCircle
10
12.944842617553702
20
3.0969736191615778
30
0
40
1.7750000000000019
210
0
220
0
230
1
100
AcDbArc
50
-188.81408009441643
51
124.80331914632492
0
LINE
5
111
100
AcDbEntity
8
0
100
AcDbLine
10
11.190804025201142
20
3.3689545312452305
30
0
11
9.3505233963679064
21
4.5191298021509931
31
0
0
LINE
5
112
100
AcDbEntity
8
0
100
AcDbLine
10
9.3505233963679064
20
4.5191298021509931
30
0
11
9.3505233963650536
21
4.491365311500271
31
0
0
SPLINE
5
113
100
AcDbEntity
8
0
100
AcDbSpline
70
0
71
3
72
11
73
7
74
0
42
0.000000001
43
0.0000000001
44
0.0000000001
40
2.3188482085488102
40
2.3188482085488102
40
2.3188482085488102
40
2.3188482085488102
40
3.7582919997437028
40
3.7582919997437028
40
3.7582919997437028
40
5.3431399438510407
40
5.3431399438510407
40
5.3431399438510407
40
5.3431399438510407
10
9.3505233963615701
20
4.4913653114930625
30
0
10
9.7924915471680158
20
4.2547587654357049
30
0
10
10.082573661510308
20
3.655442862440192
30
0
10
9.8932126182472793
20
3.1158139431024749
30
0
10
9.6847234351717066
20
2.5216748814560925
30
0
10
8.9064854670443321
20
2.1371164953874859
30
0
10
8.2466352765452218
20
2.3872392670867311
30
0
0
SPLINE
5
114
100
AcDbEntity
8
0
100
AcDbSpline
70
0
71
3
72
10
73
6
74
0
42
0.000000001
43
0.0000000001
44
0.0000000001
40
0
40
0
40
0
40
0
40
0.076276174111580372
40
0.076276174111580372
40
0.13454172576805706
40
0.13454172576805706
40
0.13454172576805706
40
0.13454172576805706
10
8.2466352769480515
20
2.3872392669227076
30
0
10
8.0111248178005976
20
2.4830509377493919
30
0
10
7.1354620081150397
20
2.8392929372787306
30
0
10
5.5379155375602496
20
3.3826998108016957
30
0
10
4.9091737840768586
20
3.5633717886870784
30
0
10
4.3397013980888781
20
3.666047583898655
30
0
0
SPLINE
5
115
100
AcDbEntity
8
0
100
AcDbSpline
70
0
71
3
72
14
73
10
74
0
42
0.000000001
43
0.0000000001
44
0.0000000001
40
5.4589507380575695
40
5.4589507380575695
40
5.4589507380575695
40
5.4589507380575695
40
6.078630781816595
40
6.078630781816595
40
6.078630781816595
40
7.7302373822331401
40
7.7302373822331401
40
7.7302373822331401
40
9.2216722539122102
40
9.2216722539122102
40
9.2216722539122102
40
9.2216722539122102
10
4.339701398088879
20
3.6660475838986537
30
0
10
4.5964122460609129
20
3.4646072388289166
30
0
10
4.8041594589869385
20
3.1873927284791703
30
0
10
4.9062042721753727
20
2.8607695700874824
30
0
10
5.1781799291255766
20
1.9902348971032624
30
0
10
4.5656295299613889
20
0.86126508695658632
30
0
10
3.5538363909474113
20
0.64738778378580841
30
0
10
2.6401662893200073
20
0.45425216170175708
30
0
10
1.5706541688809048
20
1.0875441503325667
30
0
10
1.2750000054836306
20
2.0618892388821624
30
0
0
LINE
5
116
100
AcDbEntity
8
0
100
AcDbLine
10
1.2750000054836303
20
2.0618892388821624
30
0
11
1.2749999999999999
21
0.3500000000000002
31
0
0
LWPOLYLINE
5
117
100
AcDbEntity
8
0
100
AcDbPolyline
90
4
70
1
43
0.0
10
-2.2749999999999999
20
9.2749999999999879
10
-2.2749999999999999
20
-1.9999999999999996
10
17.725000000000001
20
-2
10
17.725000000000001
20
9.2749999999999879
0
LWPOLYLINE
5
118
100
AcDbEntity
8
0
100
AcDbPolyline
90
4
70
1
43
0.0
10
2.5999999418854713
20
3.4999999217689037
10
4.1999999061226845
20
3.4999999217689037
10
4.1999999061226845
20
2.0999999530613422
10
2.5999999418854713
20
2.0999999530613422
0
LWPOLYLINE
5
119
100
AcDbEntity
8
0
100
AcDbPolyline
90
4
70
1
43
0.0
10
8.5999998077750206
20
3.6999999172985554
10
9.2999997921288013
20
3.6999999172985554
10
9.2999997921288013
20
2.9999999329447746
10
8.5999998077750206
20
2.9999999329447746
0
LWPOLYLINE
5
120
100
AcDbEntity
8
0
100
AcDbPolyline
90
4
70
1
43
0.0
10
0.89999997988343239
20
4.999999888241291
10
2.8999999351799488
20
4.999999888241291
10
2.8999999351799488
20
2.9999999329447746
10
0.89999997988343239
20
2.9999999329447746
0
LWPOLYLINE
5
121
100
AcDbEntity
8
0
100
AcDbPolyline
90
4
70
1
43
0.0
10
3.899999912828207
20
5.1999998837709427
10
8.9999997988343239
20
5.1999998837709427
10
8.9999997988343239
20
3.9999999105930328
10
3.899999912828207
20
3.9999999105930328
0
LWPOLYLINE
5
122
100
AcDbEntity
8
0
100
AcDbPolyline
90
4
70
1
43
0.0
10
6.69999985024333
20
3.4999999217689037
10
8.4999998100101948
20
3.4999999217689037
10
8.4999998100101948
20
4.1999999061226845
10
6.69999985024333
20
4.1999999061226845
0
LWPOLYLINE
5
123
100
AcDbEntity
8
0
100
AcDbPolyline
90
4
70
1
43
0.0
10
9.7683819202454778
20
4.7999998927116394
10
9.1999997943639755
20
4.7999998927116394
10
9.1999997943639755
20
3.9873066831893826
10
9.7683819202454778
20
3.9873066831893826
0
ENDSEC
0
SECTION
2
OBJECTS
0
DICTIONARY
5
C
100
AcDbDictionary
3
ACAD_GROUP
350
D
3
ACAD_MLINESTYLE
350
17
0
DICTIONARY
5
D
100
AcDbDictionary
0
DICTIONARY
5
1A
330
C
100
AcDbDictionary
0
DICTIONARY
5
17
100
AcDbDictionary
0
ENDSEC
0
EOF
