                                                                        S      1
,,11HvrHolder v4,11HvrHolder v4,7Hunknown,7Hunknown,32,38,7,99,15,,1.,2,G      1
2HMM,1,0.08,15H20250912.002104,0.01,10000.,7Hunknown,7Hunknown,11,0,15H2G      2
0200404.161202;                                                         G      3
     186       1                                                00000000D      1
     186            -279       1       0                               0D      2
     514       2                                                00010000D      3
     514                       2       1                               0D      4
     510       4                                                00010000D      5
     510            -279       1       1                               0D      6
     510       5                                                00010000D      7
     510            -279       1       1                               0D      8
     510       6                                                00010000D      9
     510            -279       1       1                               0D     10
     510       7                                                00010000D     11
     510            -279       1       1                               0D     12
     510       8                                                00010000D     13
     510            -279       1       1                               0D     14
     510       9                                                00010000D     15
     510            -279       1       1                               0D     16
     510      10                                                00010000D     17
     510            -279       1       1                               0D     18
     510      11                                                00010000D     19
     510            -279       1       1                               0D     20
     510      12                                                00010000D     21
     510            -279       1       1                               0D     22
     510      13                                                00010000D     23
     510            -279       1       1                               0D     24
     510      14                                                00010000D     25
     510            -279       1       1                               0D     26
     510      15                                                00010000D     27
     510            -279       1       1                               0D     28
     510      16                                                00010000D     29
     510            -279       1       1                               0D     30
     510      17                                                00010000D     31
     510            -279       1       1                               0D     32
     510      18                                                00010000D     33
     510            -279       1       1                               0D     34
     510      19                                                00010000D     35
     510            -279       1       1                               0D     36
     510      20                                                00010000D     37
     510            -279       1       1                               0D     38
     510      21                                                00010000D     39
     510            -279       1       1                               0D     40
     510      22                                                00010000D     41
     510            -279       1       1                               0D     42
     510      23                                                00010000D     43
     510            -279       1       1                               0D     44
     510      24                                                00010000D     45
     510            -279       1       1                               0D     46
     510      25                                                00010000D     47
     510            -279       1       1                               0D     48
     510      26                                                00010000D     49
     510            -279       1       1                               0D     50
     508      27                                                00010000D     51
     508                       1       1                               0D     52
     508      28                                                00010000D     53
     508                       1       1                               0D     54
     508      29                                                00010000D     55
     508                       1       1                               0D     56
     508      30                                                00010000D     57
     508                       1       1                               0D     58
     508      31                                                00010000D     59
     508                       1       1                               0D     60
     508      32                                                00010000D     61
     508                       1       1                               0D     62
     508      33                                                00010000D     63
     508                       1       1                               0D     64
     508      34                                                00010000D     65
     508                       1       1                               0D     66
     508      35                                                00010000D     67
     508                       1       1                               0D     68
     508      36                                                00010000D     69
     508                       1       1                               0D     70
     508      37                                                00010000D     71
     508                       1       1                               0D     72
     508      38                                                00010000D     73
     508                       1       1                               0D     74
     508      39                                                00010000D     75
     508                       1       1                               0D     76
     508      40                                                00010000D     77
     508                       1       1                               0D     78
     508      41                                                00010000D     79
     508                       1       1                               0D     80
     508      42                                                00010000D     81
     508                       1       1                               0D     82
     508      43                                                00010000D     83
     508                       1       1                               0D     84
     508      44                                                00010000D     85
     508                       1       1                               0D     86
     508      45                                                00010000D     87
     508                       1       1                               0D     88
     508      46                                                00010000D     89
     508                       1       1                               0D     90
     508      47                                                00010000D     91
     508                       1       1                               0D     92
     508      48                                                00010000D     93
     508                       4       1                               0D     94
     508      52                                                00010000D     95
     508                       2       1                               0D     96
     508      54                                                00010000D     97
     508                       4       1                               0D     98
     508      58                                                00010000D     99
     508                       2       1                               0D    100
     126      60                                                00010000D    101
     126       0               4       0                               0D    102
     126      64                                                00010000D    103
     126       0               2       0                               0D    104
     126      66                                                00010000D    105
     126       0               4       0                               0D    106
     126      70                                                00010000D    107
     126       0               2       0                               0D    108
     126      72                                                00010000D    109
     126       0               3       0                               0D    110
     126      75                                                00010000D    111
     126       0               3       0                               0D    112
     126      78                                                00010000D    113
     126       0               3       0                               0D    114
     126      81                                                00010000D    115
     126       0               3       0                               0D    116
     126      84                                                00010000D    117
     126       0               3       0                               0D    118
     126      87                                                00010000D    119
     126       0               2       0                               0D    120
     126      89                                                00010000D    121
     126       0               2       0                               0D    122
     126      91                                                00010000D    123
     126       0               2       0                               0D    124
     126      93                                                00010000D    125
     126       0               2       0                               0D    126
     126      95                                                00010000D    127
     126       0               3       0                               0D    128
     126      98                                                00010000D    129
     126       0               3       0                               0D    130
     126     101                                                00010000D    131
     126       0               2       0                               0D    132
     126     103                                                00010000D    133
     126       0               3       0                               0D    134
     126     106                                                00010000D    135
     126       0               3       0                               0D    136
     126     109                                                00010000D    137
     126       0               2       0                               0D    138
     126     111                                                00010000D    139
     126       0               2       0                               0D    140
     126     113                                                00010000D    141
     126       0               2       0                               0D    142
     126     115                                                00010000D    143
     126       0               2       0                               0D    144
     126     117                                                00010000D    145
     126       0               2       0                               0D    146
     126     119                                                00010000D    147
     126       0               2       0                               0D    148
     126     121                                                00010000D    149
     126       0               2       0                               0D    150
     126     123                                                00010000D    151
     126       0               2       0                               0D    152
     126     125                                                00010000D    153
     126       0               2       0                               0D    154
     126     127                                                00010000D    155
     126       0               2       0                               0D    156
     126     129                                                00010000D    157
     126       0               2       0                               0D    158
     126     131                                                00010000D    159
     126       0               2       0                               0D    160
     126     133                                                00010000D    161
     126       0               2       0                               0D    162
     126     135                                                00010000D    163
     126       0               2       0                               0D    164
     126     137                                                00010000D    165
     126       0               2       0                               0D    166
     126     139                                                00010000D    167
     126       0               2       0                               0D    168
     126     141                                                00010000D    169
     126       0               2       0                               0D    170
     126     143                                                00010000D    171
     126       0               2       0                               0D    172
     126     145                                                00010000D    173
     126       0               2       0                               0D    174
     126     147                                                00010000D    175
     126       0               2       0                               0D    176
     126     149                                                00010000D    177
     126       0               2       0                               0D    178
     126     151                                                00010000D    179
     126       0               2       0                               0D    180
     126     153                                                00010000D    181
     126       0               2       0                               0D    182
     126     155                                                00010000D    183
     126       0               2       0                               0D    184
     126     157                                                00010000D    185
     126       0               2       0                               0D    186
     126     159                                                00010000D    187
     126       0               3       0                               0D    188
     126     162                                                00010000D    189
     126       0               3       0                               0D    190
     126     165                                                00010000D    191
     126       0               2       0                               0D    192
     126     167                                                00010000D    193
     126       0               2       0                               0D    194
     126     169                                                00010000D    195
     126       0               2       0                               0D    196
     126     171                                                00010000D    197
     126       0               2       0                               0D    198
     126     173                                                00010000D    199
     126       0               2       0                               0D    200
     126     175                                                00010000D    201
     126       0               2       0                               0D    202
     126     177                                                00010000D    203
     126       0               2       0                               0D    204
     126     179                                                00010000D    205
     126       0               3       0                               0D    206
     126     182                                                00010000D    207
     126       0               3       0                               0D    208
     126     185                                                00010000D    209
     126       0               2       0                               0D    210
     126     187                                                00010000D    211
     126       0               2       0                               0D    212
     126     189                                                00010000D    213
     126       0               2       0                               0D    214
     126     191                                                00010000D    215
     126       0               2       0                               0D    216
     126     193                                                00010000D    217
     126       0               2       0                               0D    218
     126     195                                                00010000D    219
     126       0               2       0                               0D    220
     126     197                                                00010000D    221
     126       0               3       0                               0D    222
     126     200                                                00010000D    223
     126       0               2       0                               0D    224
     126     202                                                00010000D    225
     126       0               2       0                               0D    226
     128     204                                                00010000D    227
     128       0    -279       5       0                               0D    228
     128     209                                                00010000D    229
     128       0    -279       6       0                               0D    230
     128     215                                                00010000D    231
     128       0    -279       5       0                               0D    232
     128     220                                                00010000D    233
     128       0    -279       4       0                               0D    234
     128     224                                                00010000D    235
     128       0    -279       4       0                               0D    236
     128     228                                                00010000D    237
     128       0    -279       6       0                               0D    238
     128     234                                                00010000D    239
     128       0    -279       4       0                               0D    240
     128     238                                                00010000D    241
     128       0    -279       4       0                               0D    242
     128     242                                                00010000D    243
     128       0    -279       4       0                               0D    244
     128     246                                                00010000D    245
     128       0    -279       3       0                               0D    246
     128     249                                                00010000D    247
     128       0    -279       3       0                               0D    248
     128     252                                                00010000D    249
     128       0    -279       4       0                               0D    250
     128     256                                                00010000D    251
     128       0    -279       4       0                               0D    252
     128     260                                                00010000D    253
     128       0    -279       4       0                               0D    254
     128     264                                                00010000D    255
     128       0    -279       5       0                               0D    256
     128     269                                                00010000D    257
     128       0    -279       4       0                               0D    258
     128     273                                                00010000D    259
     128       0    -279       4       0                               0D    260
     128     277                                                00010000D    261
     128       0    -279       6       0                               0D    262
     128     283                                                00010000D    263
     128       0    -279       3       0                               0D    264
     128     286                                                00010000D    265
     128       0    -279       4       0                               0D    266
     128     290                                                00010000D    267
     128       0    -279       4       0                               0D    268
     128     294                                                00010000D    269
     128       0    -279       5       0                               0D    270
     128     299                                                00010000D    271
     128       0    -279       5       0                               0D    272
     502     304                                                00010000D    273
     502                      15       1                               0D    274
     504     319                                                00010001D    275
     504                      18       1                               0D    276
     406     337                                                00000000D    277
     406                       1      15                               0D    278
     314     338                                                00000200D    279
     314                       2       0                               0D    280
186,3,1,0,0,1,277;                                                     1P      1
514,23,5,1,7,1,9,1,11,1,13,1,15,1,17,1,19,1,21,1,23,1,25,1,27,1,       3P      2
29,1,31,1,33,1,35,1,37,1,39,1,41,1,43,1,45,1,47,1,49,1;                3P      3
510,227,1,1,51;                                                        5P      4
510,229,1,1,53;                                                        7P      5
510,231,1,1,55;                                                        9P      6
510,233,1,1,57;                                                       11P      7
510,235,1,1,59;                                                       13P      8
510,237,1,1,61;                                                       15P      9
510,239,1,1,63;                                                       17P     10
510,241,1,1,65;                                                       19P     11
510,243,1,1,67;                                                       21P     12
510,245,1,1,69;                                                       23P     13
510,247,1,1,71;                                                       25P     14
510,249,1,1,73;                                                       27P     15
510,251,1,1,75;                                                       29P     16
510,253,1,1,77;                                                       31P     17
510,255,1,1,79;                                                       33P     18
510,257,1,1,81;                                                       35P     19
510,259,1,1,83;                                                       37P     20
510,261,1,1,85;                                                       39P     21
510,263,1,1,87;                                                       41P     22
510,265,1,1,89;                                                       43P     23
510,267,1,1,91;                                                       45P     24
510,269,2,1,93,95;                                                    47P     25
510,271,2,1,97,99;                                                    49P     26
508,4,0,275,1,1,0,0,275,2,1,0,0,275,3,0,0,0,275,4,0,0;                51P     27
508,4,0,275,5,1,0,0,275,4,1,0,0,275,6,0,0,0,275,7,0,0;                53P     28
508,4,0,275,8,1,0,0,275,7,1,0,0,275,9,0,0,0,275,10,0,0;               55P     29
508,4,0,275,11,1,0,0,275,10,1,0,0,275,12,0,0,0,275,13,0,0;            57P     30
508,4,0,275,14,1,0,0,275,13,1,0,0,275,15,0,0,0,275,16,0,0;            59P     31
508,4,0,275,17,1,0,0,275,16,1,0,0,275,18,0,0,0,275,2,0,0;             61P     32
508,4,0,275,19,0,0,0,275,20,1,0,0,275,21,0,0,0,275,22,0,0;            63P     33
508,4,0,275,23,0,0,0,275,22,1,0,0,275,24,0,0,0,275,25,0,0;            65P     34
508,4,0,275,26,0,0,0,275,25,1,0,0,275,27,0,0,0,275,28,0,0;            67P     35
508,4,0,275,29,0,0,0,275,28,1,0,0,275,30,0,0,0,275,31,0,0;            69P     36
508,4,0,275,32,0,0,0,275,31,1,0,0,275,33,0,0,0,275,34,0,0;            71P     37
508,4,0,275,35,0,0,0,275,34,1,0,0,275,36,0,0,0,275,37,0,0;            73P     38
508,4,0,275,38,0,0,0,275,37,1,0,0,275,39,0,0,0,275,40,0,0;            75P     39
508,4,0,275,41,0,0,0,275,40,1,0,0,275,42,0,0,0,275,43,0,0;            77P     40
508,4,0,275,44,0,0,0,275,43,1,0,0,275,45,0,0,0,275,46,0,0;            79P     41
508,4,0,275,47,0,0,0,275,46,1,0,0,275,48,0,0,0,275,49,0,0;            81P     42
508,4,0,275,50,1,0,0,275,49,1,0,0,275,51,0,0,0,275,52,0,0;            83P     43
508,4,0,275,53,0,0,0,275,52,1,0,0,275,54,0,0,0,275,55,0,0;            85P     44
508,4,0,275,56,1,0,0,275,55,1,0,0,275,57,0,0,0,275,58,0,0;            87P     45
508,4,0,275,59,1,0,0,275,58,1,0,0,275,60,0,0,0,275,61,0,0;            89P     46
508,4,0,275,62,1,0,0,275,61,1,0,0,275,63,0,0,0,275,20,0,0;            91P     47
508,15,0,275,63,1,0,0,275,60,1,0,0,275,57,1,0,0,275,54,1,0,0,         93P     48
275,51,1,0,0,275,48,1,0,0,275,45,1,0,0,275,42,1,0,0,275,39,1,0,       93P     49
0,275,36,1,0,0,275,33,1,0,0,275,30,1,0,0,275,27,1,0,0,275,24,1,       93P     50
0,0,275,21,1,0;                                                       93P     51
508,6,0,275,18,1,0,0,275,15,1,0,0,275,12,1,0,0,275,9,1,0,0,275,       95P     52
6,1,0,0,275,3,1,0;                                                    95P     53
508,15,0,275,62,0,0,0,275,19,1,0,0,275,23,1,0,0,275,26,1,0,0,         97P     54
275,29,1,0,0,275,32,1,0,0,275,35,1,0,0,275,38,1,0,0,275,41,1,0,       97P     55
0,275,44,1,0,0,275,47,1,0,0,275,50,0,0,0,275,53,1,0,0,275,56,0,       97P     56
0,0,275,59,0,0;                                                       97P     57
508,6,0,275,17,0,0,0,275,1,0,0,0,275,5,0,0,0,275,8,0,0,0,275,11,      99P     58
0,0,0,275,14,0,0;                                                     99P     59
126,1,1,0,0,1,0,1.24801047859594,1.24801047859594,                   101P     60
5.06994377154139,5.06994377154139,1.,1.,0.,24.2,                     101P     61
-35.5198952140406,0.,24.2,2.69943771541391,1.24801047859594,         101P     62
5.06994377154139,0.,0.,0.;                                           101P     63
126,1,1,0,0,1,0,0.,0.,2.2,2.2,1.,1.,0.,24.2,2.69943771541391,        103P     64
22.,24.2,2.69943771541391,0.,2.2,0.,0.,0.;                           103P     65
126,1,1,0,0,1,0,1.24801047859594,1.24801047859594,                   105P     66
5.06994377154139,5.06994377154139,1.,1.,22.,24.2,                    105P     67
-35.5198952140406,22.,24.2,2.69943771541391,1.24801047859594,        105P     68
5.06994377154139,0.,0.,0.;                                           105P     69
126,1,1,0,0,1,0,0.,0.,2.2,2.2,1.,1.,0.,24.2,-35.5198952140406,       107P     70
22.,24.2,-35.5198952140406,0.,2.2,0.,0.,0.;                          107P     71
126,1,1,0,0,1,0,0.,0.,9.6008030966203,9.6008030966203,1.,1.,0.,      109P     72
70.3573196440861,48.6646868261469,0.,24.2,-35.5198952140406,0.,      109P     73
9.6008030966203,0.,0.,0.;                                            109P     74
126,1,1,0,0,1,0,0.,0.,9.6008030966203,9.6008030966203,1.,1.,22.,     111P     75
70.3573196440861,48.6646868261469,22.,24.2,-35.5198952140406,0.,     111P     76
9.6008030966203,0.,0.,0.;                                            111P     77
126,1,1,0,0,1,0,0.,0.,2.2,2.2,1.,1.,0.,70.3573196440861,             113P     78
48.6646868261469,22.,70.3573196440861,48.6646868261469,0.,2.2,       113P     79
0.,0.,0.;                                                            113P     80
126,1,1,0,0,1,0,0.6,0.6,3.7157319644086,3.7157319644086,1.,1.,       115P     81
0.,39.2,48.6646868261469,0.,70.3573196440861,48.6646868261469,       115P     82
0.6,3.7157319644086,0.,0.,0.;                                        115P     83
126,1,1,0,0,1,0,0.6,0.6,3.7157319644086,3.7157319644086,1.,1.,       117P     84
22.,39.2,48.6646868261469,22.,70.3573196440861,48.6646868261469,     117P     85
0.6,3.7157319644086,0.,0.,0.;                                        117P     86
126,1,1,0,0,1,0,0.,0.,2.2,2.2,1.,1.,0.,39.2,48.6646868261469,        119P     87
22.,39.2,48.6646868261469,0.,2.2,0.,0.,0.;                           119P     88
126,1,1,0,0,1,0,0.,0.,1.,1.,1.,1.,0.,33.2,40.6646868261469,0.,       121P     89
39.2,48.6646868261469,0.,1.,0.,0.,0.;                                121P     90
126,1,1,0,0,1,0,0.,0.,1.,1.,1.,1.,22.,33.2,40.6646868261469,22.,     123P     91
39.2,48.6646868261469,0.,1.,0.,0.,0.;                                123P     92
126,1,1,0,0,1,0,0.,0.,2.2,2.2,1.,1.,0.,33.2,40.6646868261469,        125P     93
22.,33.2,40.6646868261469,0.,2.2,0.,0.,0.;                           125P     94
126,1,1,0,0,1,0,0.,0.,1.86646868261469,1.86646868261469,1.,1.,       127P     95
0.,33.2,22.,0.,33.2,40.6646868261469,0.,1.86646868261469,0.,0.,      127P     96
0.;                                                                  127P     97
126,1,1,0,0,1,0,0.,0.,1.86646868261469,1.86646868261469,1.,1.,       129P     98
22.,33.2,22.,22.,33.2,40.6646868261469,0.,1.86646868261469,0.,       129P     99
0.,0.;                                                               129P    100
126,1,1,0,0,1,0,0.,0.,2.2,2.2,1.,1.,0.,33.2,22.,22.,33.2,22.,0.,     131P    101
2.2,0.,0.,0.;                                                        131P    102
126,1,1,0,0,1,0,-2.12958142483725,-2.12958142483725,0.,0.,1.,1.,     133P    103
0.,24.2,2.69943771541391,0.,33.2,22.,-2.12958142483725,0.,0.,0.,     133P    104
0.;                                                                  133P    105
126,1,1,0,0,1,0,-2.12958142483725,-2.12958142483725,0.,0.,1.,1.,     135P    106
22.,24.2,2.69943771541391,22.,33.2,22.,-2.12958142483725,0.,0.,      135P    107
0.,0.;                                                               135P    108
126,1,1,0,0,1,0,0.,0.,4.,4.,1.,1.,0.,0.,0.,0.,0.,-40.,0.,4.,0.,      137P    109
0.,0.;                                                               137P    110
126,1,1,0,0,1,0,0.,0.,2.2,2.2,1.,1.,0.,0.,0.,22.,0.,0.,0.,2.2,       139P    111
0.,0.,0.;                                                            139P    112
126,1,1,0,0,1,0,-4.,-4.,0.,0.,1.,1.,22.,0.,-40.,22.,0.,0.,-4.,       141P    113
0.,0.,0.,0.;                                                         141P    114
126,1,1,0,0,1,0,0.,0.,2.2,2.2,1.,1.,0.,0.,-40.,22.,0.,-40.,0.,       143P    115
2.2,0.,0.,0.;                                                        143P    116
126,1,1,0,0,1,0,0.,0.,1.82,1.82,1.,1.,0.,0.,-40.,0.,18.2,-40.,       145P    117
0.,1.82,0.,0.,0.;                                                    145P    118
126,1,1,0,0,1,0,-1.82,-1.82,0.,0.,1.,1.,22.,18.2,-40.,22.,0.,        147P    119
-40.,-1.82,0.,0.,0.,0.;                                              147P    120
126,1,1,0,0,1,0,0.,0.,2.2,2.2,1.,1.,0.,18.2,-40.,22.,18.2,-40.,      149P    121
0.,2.2,0.,0.,0.;                                                     149P    122
126,1,1,0,0,1,0,0.,0.,7.,7.,1.,1.,0.,18.2,-40.,0.,18.2,30.,0.,       151P    123
7.,0.,0.,0.;                                                         151P    124
126,1,1,0,0,1,0,-7.,-7.,0.,0.,1.,1.,22.,18.2,30.,22.,18.2,-40.,      153P    125
-7.,0.,0.,0.,0.;                                                     153P    126
126,1,1,0,0,1,0,0.,0.,2.2,2.2,1.,1.,0.,18.2,30.,22.,18.2,30.,0.,     155P    127
2.2,0.,0.,0.;                                                        155P    128
126,1,1,0,0,1,0,0.,0.,0.9,0.9,1.,1.,0.,18.2,30.,0.,27.2,30.,0.,      157P    129
0.9,0.,0.,0.;                                                        157P    130
126,1,1,0,0,1,0,-0.9,-0.9,0.,0.,1.,1.,22.,27.2,30.,22.,18.2,30.,     159P    131
-0.9,0.,0.,0.,0.;                                                    159P    132
126,1,1,0,0,1,0,0.,0.,2.2,2.2,1.,1.,0.,27.2,30.,22.,27.2,30.,0.,     161P    133
2.2,0.,0.,0.;                                                        161P    134
126,1,1,0,0,1,0,0.,0.,1.865,1.865,1.,1.,0.,27.2,30.,0.,27.2,         163P    135
48.65,0.,1.865,0.,0.,0.;                                             163P    136
126,1,1,0,0,1,0,-1.865,-1.865,0.,0.,1.,1.,22.,27.2,48.65,22.,        165P    137
27.2,30.,-1.865,0.,0.,0.,0.;                                         165P    138
126,1,1,0,0,1,0,0.,0.,2.2,2.2,1.,1.,0.,27.2,48.65,22.,27.2,          167P    139
48.65,0.,2.2,0.,0.,0.;                                               167P    140
126,1,1,0,0,1,0,0.,0.,2.,2.,1.,1.,0.,27.2,48.65,0.,                  169P    141
7.20000000000002,48.65,0.,2.,0.,0.,0.;                               169P    142
126,1,1,0,0,1,0,-2.,-2.,0.,0.,1.,1.,22.,7.20000000000002,48.65,      171P    143
22.,27.2,48.65,-2.,0.,0.,0.,0.;                                      171P    144
126,1,1,0,0,1,0,0.,0.,2.2,2.2,1.,1.,0.,7.20000000000002,48.65,       173P    145
22.,7.20000000000002,48.65,0.,2.2,0.,0.,0.;                          173P    146
126,1,1,0,0,1,0,0.,0.,0.6,0.6,1.,1.,0.,7.20000000000002,48.65,       175P    147
0.,7.20000000000002,54.65,0.,0.6,0.,0.,0.;                           175P    148
126,1,1,0,0,1,0,-0.6,-0.6,0.,0.,1.,1.,22.,7.20000000000002,          177P    149
54.65,22.,7.20000000000002,48.65,-0.6,0.,0.,0.,0.;                   177P    150
126,1,1,0,0,1,0,0.,0.,2.2,2.2,1.,1.,0.,7.20000000000002,54.65,       179P    151
22.,7.20000000000002,54.65,0.,2.2,0.,0.,0.;                          179P    152
126,1,1,0,0,1,0,0.,0.,6.4,6.4,1.,1.,0.,7.20000000000002,54.65,       181P    153
0.,71.2,54.65,0.,6.4,0.,0.,0.;                                       181P    154
126,1,1,0,0,1,0,-6.4,-6.4,0.,0.,1.,1.,22.,71.2,54.65,22.,            183P    155
7.20000000000002,54.65,-6.4,0.,0.,0.,0.;                             183P    156
126,1,1,0,0,1,0,0.,0.,2.2,2.2,1.,1.,0.,71.2,54.65,22.,71.2,          185P    157
54.65,0.,2.2,0.,0.,0.;                                               185P    158
126,1,1,0,0,1,0,0.,0.,1.40146868261469,1.40146868261469,1.,1.,       187P    159
0.,71.2,54.65,0.,71.2,68.6646868261469,0.,1.40146868261469,0.,       187P    160
0.,0.;                                                               187P    161
126,1,1,0,0,1,0,-1.40146868261469,-1.40146868261469,0.,0.,1.,1.,     189P    162
22.,71.2,68.6646868261469,22.,71.2,54.65,-1.40146868261469,0.,       189P    163
0.,0.,0.;                                                            189P    164
126,1,1,0,0,1,0,0.,0.,2.2,2.2,1.,1.,0.,71.2,68.6646868261469,        191P    165
22.,71.2,68.6646868261469,0.,2.2,0.,0.,0.;                           191P    166
126,1,1,0,0,1,0,0.,0.,0.6,0.6,1.,1.,0.,71.2,68.6646868261469,0.,     193P    167
77.2,68.6646868261469,0.,0.6,0.,0.,0.;                               193P    168
126,1,1,0,0,1,0,-0.6,-0.6,0.,0.,1.,1.,22.,77.2,68.6646868261469,     195P    169
22.,71.2,68.6646868261469,-0.6,0.,0.,0.,0.;                          195P    170
126,1,1,0,0,1,0,0.,0.,2.2,2.2,1.,1.,0.,77.2,68.6646868261469,        197P    171
22.,77.2,68.6646868261469,0.,2.2,0.,0.,0.;                           197P    172
126,1,1,0,0,1,0,0.,0.,2.,2.,1.,1.,0.,77.2,48.6646868261469,0.,       199P    173
77.2,68.6646868261469,0.,2.,0.,0.,0.;                                199P    174
126,1,1,0,0,1,0,0.,0.,2.,2.,1.,1.,22.,77.2,48.6646868261469,22.,     201P    175
77.2,68.6646868261469,0.,2.,0.,0.,0.;                                201P    176
126,1,1,0,0,1,0,0.,0.,2.2,2.2,1.,1.,0.,77.2,48.6646868261469,        203P    177
22.,77.2,48.6646868261469,0.,2.2,0.,0.,0.;                           203P    178
126,1,1,0,0,1,0,0.,0.,11.0240925609308,11.0240925609308,1.,1.,       205P    179
0.,77.2,48.6646868261469,0.,24.2,-48.,0.,11.0240925609308,0.,0.,     205P    180
0.;                                                                  205P    181
126,1,1,0,0,1,0,-11.0240925609308,-11.0240925609308,0.,0.,1.,1.,     207P    182
22.,24.2,-48.,22.,77.2,48.6646868261469,-11.0240925609308,0.,0.,     207P    183
0.,0.;                                                               207P    184
126,1,1,0,0,1,0,0.,0.,2.2,2.2,1.,1.,0.,24.2,-48.,22.,24.2,-48.,      209P    185
0.,2.2,0.,0.,0.;                                                     209P    186
126,1,1,0,0,1,0,0.,0.,3.22,3.22,1.,1.,0.,-8.,-48.,0.,24.2,-48.,      211P    187
0.,3.22,0.,0.,0.;                                                    211P    188
126,1,1,0,0,1,0,0.,0.,3.22,3.22,1.,1.,22.,-8.,-48.,22.,24.2,         213P    189
-48.,0.,3.22,0.,0.,0.;                                               213P    190
126,1,1,0,0,1,0,0.,0.,2.2,2.2,1.,1.,0.,-8.,-48.,22.,-8.,-48.,0.,     215P    191
2.2,0.,0.,0.;                                                        215P    192
126,1,1,0,0,1,0,0.,0.,4.8,4.8,1.,1.,0.,-8.,                          217P    193
-9.79717439317883D-16,0.,-8.,-48.,0.,4.8,0.,0.,0.;                   217P    194
126,1,1,0,0,1,0,0.,0.,4.8,4.8,1.,1.,22.,-8.,                         219P    195
-9.79717439317883D-16,22.,-8.,-48.,0.,4.8,0.,0.,0.;                  219P    196
126,1,1,0,0,1,0,0.,0.,2.2,2.2,1.,1.,0.,-8.,                          221P    197
-9.79717439317883D-16,22.,-8.,-9.79717439317883D-16,0.,2.2,0.,       221P    198
0.,0.;                                                               221P    199
126,1,1,0,0,1,0,0.,0.,0.8,0.8,1.,1.,0.,0.,0.,0.,-8.,                 223P    200
-9.79717439317883D-16,0.,0.8,0.,0.,0.;                               223P    201
126,1,1,0,0,1,0,0.,0.,0.8,0.8,1.,1.,22.,0.,0.,22.,-8.,               225P    202
-9.79717439317883D-16,0.,0.8,0.,0.,0.;                               225P    203
128,1,1,1,1,0,0,1,0,0,-0.001,-0.001,3.82293329294545,                227P    204
3.82293329294545,-0.001,-0.001,2.201,2.201,1.,1.,1.,1.,-0.01,        227P    205
24.2,-35.5298952140406,-0.01,24.2,2.70943771541391,22.01,24.2,       227P    206
-35.5298952140406,22.01,24.2,2.70943771541391,-0.001,                227P    207
3.82293329294545,-0.001,2.201;                                       227P    208
128,1,1,1,1,0,0,1,0,0,-0.001,-0.001,9.6018030966203,                 229P    209
9.6018030966203,-0.001,-0.001,2.201,2.201,1.,1.,1.,1.,-0.01,         229P    210
70.3621272960272,48.6734553199065,-0.01,24.1951923480589,            229P    211
-35.5286637078003,22.01,70.3621272960272,48.6734553199065,22.01,     229P    212
24.1951923480589,-35.5286637078003,-0.001,9.6018030966203,           229P    213
-0.001,2.201;                                                        229P    214
128,1,1,1,1,0,0,1,0,0,-0.001,-0.001,3.1167319644086,                 231P    215
3.1167319644086,-0.001,-0.001,2.201,2.201,1.,1.,1.,1.,-0.01,         231P    216
39.19,48.6646868261469,-0.01,70.3673196440861,48.6646868261469,      231P    217
22.01,39.19,48.6646868261469,22.01,70.3673196440861,                 231P    218
48.6646868261469,-0.001,3.1167319644086,-0.001,2.201;                231P    219
128,1,1,1,1,0,0,1,0,0,-0.001,-0.001,1.001,1.001,-0.001,-0.001,       233P    220
2.201,2.201,1.,1.,1.,1.,-0.01,33.194,40.6566868261469,-0.01,         233P    221
39.206,48.6726868261469,22.01,33.194,40.6566868261469,22.01,         233P    222
39.206,48.6726868261469,-0.001,1.001,-0.001,2.201;                   233P    223
128,1,1,1,1,0,0,1,0,0,-0.001,-0.001,1.86746868261469,                235P    224
1.86746868261469,-0.001,-0.001,2.201,2.201,1.,1.,1.,1.,-0.01,        235P    225
33.2,21.99,-0.01,33.2,40.6746868261469,22.01,33.2,21.99,22.01,       235P    226
33.2,40.6746868261469,-0.001,1.86746868261469,-0.001,2.201;          235P    227
128,1,1,1,1,0,0,1,0,0,-0.001,-0.001,2.13058142483725,                237P    228
2.13058142483725,-0.001,-0.001,2.201,2.201,1.,1.,1.,1.,-0.01,        237P    229
24.1957738173826,2.69037463754355,-0.01,33.2042261826174,            237P    230
22.0090630778704,22.01,24.1957738173826,2.69037463754355,22.01,      237P    231
33.2042261826174,22.0090630778704,-0.001,2.13058142483725,           237P    232
-0.001,2.201;                                                        237P    233
128,1,1,1,1,0,0,1,0,0,-0.001,-0.001,4.001,4.001,-0.001,-0.001,       239P    234
2.201,2.201,1.,1.,1.,1.,-0.01,0.,-40.01,-0.01,0.,                    239P    235
0.0100000000000033,22.01,0.,-40.01,22.01,0.,0.0100000000000033,      239P    236
-0.001,4.001,-0.001,2.201;                                           239P    237
128,1,1,1,1,0,0,1,0,0,-0.001,-0.001,1.821,1.821,-0.001,-0.001,       241P    238
2.201,2.201,1.,1.,1.,1.,-0.01,18.21,-40.,-0.01,                      241P    239
-0.0099999999999989,-40.,22.01,18.21,-40.,22.01,                     241P    240
-0.0099999999999989,-40.,-0.001,1.821,-0.001,2.201;                  241P    241
128,1,1,1,1,0,0,1,0,0,-0.00100000000000044,-0.00100000000000044,     243P    242
7.001,7.001,-0.001,-0.001,2.201,2.201,1.,1.,1.,1.,-0.01,18.2,        243P    243
30.01,-0.01,18.2,-40.01,22.01,18.2,30.01,22.01,18.2,-40.01,          243P    244
-0.00100000000000044,7.001,-0.001,2.201;                             243P    245
128,1,1,1,1,0,0,1,0,0,-0.001,-0.001,0.901,0.901,-0.001,-0.001,       245P    246
2.201,2.201,1.,1.,1.,1.,-0.01,27.21,30.,-0.01,18.19,30.,22.01,       245P    247
27.21,30.,22.01,18.19,30.,-0.001,0.901,-0.001,2.201;                 245P    248
128,1,1,1,1,0,0,1,0,0,-0.001,-0.001,1.866,1.866,-0.001,-0.001,       247P    249
2.201,2.201,1.,1.,1.,1.,-0.01,27.2,48.66,-0.01,27.2,29.99,22.01,     247P    250
27.2,48.66,22.01,27.2,29.99,-0.001,1.866,-0.001,2.201;               247P    251
128,1,1,1,1,0,0,1,0,0,-0.00100000000000022,-0.00100000000000022,     249P    252
2.001,2.001,-0.001,-0.001,2.201,2.201,1.,1.,1.,1.,-0.01,             249P    253
7.19000000000002,48.65,-0.01,27.21,48.65,22.01,7.19000000000002,     249P    254
48.65,22.01,27.21,48.65,-0.00100000000000022,2.001,-0.001,2.201;     249P    255
128,1,1,1,1,0,0,1,0,0,-0.001,-0.001,0.601,0.601,-0.001,-0.001,       251P    256
2.201,2.201,1.,1.,1.,1.,-0.01,7.20000000000002,54.66,-0.01,          251P    257
7.20000000000002,48.64,22.01,7.20000000000002,54.66,22.01,           251P    258
7.20000000000002,48.64,-0.001,0.601,-0.001,2.201;                    251P    259
128,1,1,1,1,0,0,1,0,0,-0.001,-0.001,6.401,6.401,-0.001,-0.001,       253P    260
2.201,2.201,1.,1.,1.,1.,-0.01,71.21,54.65,-0.01,                     253P    261
7.19000000000002,54.65,22.01,71.21,54.65,22.01,7.19000000000002,     253P    262
54.65,-0.001,6.401,-0.001,2.201;                                     253P    263
128,1,1,1,1,0,0,1,0,0,-0.001,-0.001,1.40246868261469,                255P    264
1.40246868261469,-0.001,-0.001,2.201,2.201,1.,1.,1.,1.,-0.01,        255P    265
71.2,68.6746868261469,-0.01,71.2,54.64,22.01,71.2,                   255P    266
68.6746868261469,22.01,71.2,54.64,-0.001,1.40246868261469,           255P    267
-0.001,2.201;                                                        255P    268
128,1,1,1,1,0,0,1,0,0,-0.001,-0.001,0.601,0.601,-0.001,-0.001,       257P    269
2.201,2.201,1.,1.,1.,1.,-0.01,77.21,68.6646868261469,-0.01,          257P    270
71.19,68.6646868261469,22.01,77.21,68.6646868261469,22.01,71.19,     257P    271
68.6646868261469,-0.001,0.601,-0.001,2.201;                          257P    272
128,1,1,1,1,0,0,1,0,0,-0.001,-0.001,2.001,2.001,-0.001,-0.001,       259P    273
2.201,2.201,1.,1.,1.,1.,-0.01,77.2,48.6546868261469,-0.01,77.2,      259P    274
68.6746868261469,22.01,77.2,48.6546868261469,22.01,77.2,             259P    275
68.6746868261469,-0.001,2.001,-0.001,2.201;                          259P    276
128,1,1,1,1,0,0,1,0,0,-0.001,-0.001,11.0250925609308,                261P    277
11.0250925609308,-0.001,-0.001,2.201,2.201,1.,1.,1.,1.,-0.01,        261P    278
24.1951923480588,-48.0087684937596,-0.01,77.2048076519412,           261P    279
48.6734553199065,22.01,24.1951923480588,-48.0087684937596,22.01,     261P    280
77.2048076519412,48.6734553199065,-0.001,11.0250925609308,           261P    281
-0.001,2.201;                                                        261P    282
128,1,1,1,1,0,0,1,0,0,-0.001,-0.001,3.221,3.221,-0.001,-0.001,       263P    283
2.201,2.201,1.,1.,1.,1.,-0.01,-8.01,-48.,-0.01,24.21,-48.,22.01,     263P    284
-8.01,-48.,22.01,24.21,-48.,-0.001,3.221,-0.001,2.201;               263P    285
128,1,1,1,1,0,0,1,0,0,-0.001,-0.001,4.801,4.801,-0.001,-0.001,       265P    286
2.201,2.201,1.,1.,1.,1.,-0.01,-8.,0.00999999999999902,-0.01,-8.,     265P    287
-48.01,22.01,-8.,0.00999999999999902,22.01,-8.,-48.01,-0.001,        265P    288
4.801,-0.001,2.201;                                                  265P    289
128,1,1,1,1,0,0,1,0,0,-0.001,-0.001,0.801,0.801,-0.001,-0.001,       267P    290
2.201,2.201,1.,1.,1.,1.,-0.01,0.01,1.22464679914735D-18,-0.01,       267P    291
-8.01,-9.8094208611703D-16,22.01,0.01,1.22464679914735D-18,          267P    292
22.01,-8.01,-9.8094208611703D-16,-0.001,0.801,-0.001,2.201;          267P    293
128,1,1,1,1,0,0,1,0,0,-5.83423434130734,-5.83423434130734,           269P    294
5.83423434130734,5.83423434130734,-4.261,-4.261,4.261,4.261,1.,      269P    295
1.,1.,1.,22.,-8.01,68.6746868261469,22.,-8.01,-48.01,22.,77.21,      269P    296
68.6746868261469,22.,77.21,-48.01,-5.83423434130734,                 269P    297
5.83423434130734,-4.261,4.261;                                       269P    298
128,1,1,1,1,0,0,1,0,0,-4.261,-4.261,4.261,4.261,                     271P    299
-5.83423434130734,-5.83423434130734,5.83423434130734,                271P    300
5.83423434130734,1.,1.,1.,1.,0.,77.21,-48.01,0.,-8.01,-48.01,0.,     271P    301
77.21,68.6746868261469,0.,-8.01,68.6746868261469,-4.261,4.261,       271P    302
-5.83423434130734,5.83423434130734;                                  271P    303
502,42,0.,24.2,-35.5198952140406,0.,24.2,2.69943771541391,22.,       273P    304
24.2,2.69943771541391,22.,24.2,-35.5198952140406,0.,                 273P    305
70.3573196440861,48.6646868261469,22.,70.3573196440861,              273P    306
48.6646868261469,0.,39.2,48.6646868261469,22.,39.2,                  273P    307
48.6646868261469,0.,33.2,40.6646868261469,22.,33.2,                  273P    308
40.6646868261469,0.,33.2,22.,22.,33.2,22.,0.,0.,0.,0.,0.,-40.,       273P    309
22.,0.,0.,22.,0.,-40.,0.,18.2,-40.,22.,18.2,-40.,0.,18.2,30.,        273P    310
22.,18.2,30.,0.,27.2,30.,22.,27.2,30.,0.,27.2,48.65,22.,27.2,        273P    311
48.65,0.,7.20000000000002,48.65,22.,7.20000000000002,48.65,0.,       273P    312
7.20000000000002,54.65,22.,7.20000000000002,54.65,0.,71.2,54.65,     273P    313
22.,71.2,54.65,0.,71.2,68.6646868261469,22.,71.2,                    273P    314
68.6646868261469,0.,77.2,68.6646868261469,22.,77.2,                  273P    315
68.6646868261469,0.,77.2,48.6646868261469,22.,77.2,                  273P    316
48.6646868261469,0.,24.2,-48.,22.,24.2,-48.,0.,-8.,-48.,22.,-8.,     273P    317
-48.,0.,-8.,-9.79717439317883D-16,22.,-8.,-1.11022302462516D-15;     273P    318
504,63,101,273,1,273,2,103,273,2,273,3,105,273,4,273,3,107,273,      275P    319
1,273,4,109,273,5,273,1,111,273,6,273,4,113,273,5,273,6,115,273,     275P    320
7,273,5,117,273,8,273,6,119,273,7,273,8,121,273,9,273,7,123,273,     275P    321
10,273,8,125,273,9,273,10,127,273,11,273,9,129,273,12,273,10,        275P    322
131,273,11,273,12,133,273,2,273,11,135,273,3,273,12,137,273,13,      275P    323
273,14,139,273,13,273,15,141,273,16,273,15,143,273,14,273,16,        275P    324
145,273,14,273,17,147,273,18,273,16,149,273,17,273,18,151,273,       275P    325
17,273,19,153,273,20,273,18,155,273,19,273,20,157,273,19,273,21,     275P    326
159,273,22,273,20,161,273,21,273,22,163,273,21,273,23,165,273,       275P    327
24,273,22,167,273,23,273,24,169,273,23,273,25,171,273,26,273,24,     275P    328
173,273,25,273,26,175,273,25,273,27,177,273,28,273,26,179,273,       275P    329
27,273,28,181,273,27,273,29,183,273,30,273,28,185,273,29,273,30,     275P    330
187,273,29,273,31,189,273,32,273,30,191,273,31,273,32,193,273,       275P    331
31,273,33,195,273,34,273,32,197,273,33,273,34,199,273,35,273,33,     275P    332
201,273,36,273,34,203,273,35,273,36,205,273,35,273,37,207,273,       275P    333
38,273,36,209,273,37,273,38,211,273,39,273,37,213,273,40,273,38,     275P    334
215,273,39,273,40,217,273,41,273,39,219,273,42,273,40,221,273,       275P    335
41,273,42,223,273,13,273,41,225,273,15,273,42;                       275P    336
406,1,5HBody1;                                                       277P    337
314,62.7450980392157,62.7450980392157,62.7450980392157,13HSteel      279P    338
- Satin;                                                             279P    339
S      1G      3D    280P    339                                        T      1
