0
SECTION
2
HEADER
9
$INSUNITS
70
4
9
$ACADVER
1
AC1014
9
$HANDSEED
5
FFFF
0
ENDSEC
0
SECTION
2
TABLES
0
TABLE
2
VPORT
5
8
100
AcDbSymbolTable
0
ENDTAB
0
TABLE
2
LTYPE
5
5
100
AcDbSymbolTable
0
LTYPE
5
14
100
AcDbSymbolTableRecord
100
AcDbLinetypeTableRecord
2
BYBLOCK
70
0
0
LTYPE
5
15
100
AcDbSymbolTableRecord
100
AcDbLinetypeTableRecord
2
BYLAYER
70
0
0
LTYPE
5
16
100
AcDbSymbolTableRecord
100
AcDbLinetypeTableRecord
2
DASHED
70
0
3
Dashed __ __ __ __ __ __ __ __ __ __ __ __ __ _
72
65
73
2
40
0.75
49
0.5
74
0
49
-0.25
74
0
0
ENDTAB
0
TABLE
2
LAYER
5
2
100
AcDbSymbolTable
70
2
0
LAYER
5
50
100
AcDbSymbolTableRecord
100
AcDbLayerTableRecord
2
0
70
0
62
7
6
CONTINUOUS
0
ENDTAB
0
TABLE
2
STYLE
5
3
100
AcDbSymbolTable
70
1
0
STYLE
5
11
100
AcDbSymbolTableRecord
100
AcDbTextStyleTableRecord
2
STANDARD
70
0
0
ENDTAB
0
TABLE
2
VIEW
5
6
100
AcDbSymbolTable
70
0
0
ENDTAB
0
TABLE
2
UCS
5
7
100
AcDbSymbolTable
70
0
0
ENDTAB
0
TABLE
2
APPID
5
9
100
AcDbSymbolTable
70
2
0
APPID
5
12
100
AcDbSymbolTableRecord
100
AcDbRegAppTableRecord
2
ACAD
70
0
0
ENDTAB
0
TABLE
2
DIMSTYLE
5
A
100
AcDbSymbolTable
70
1
0
ENDTAB
0
TABLE
2
BLOCK_RECORD
5
1
100
AcDbSymbolTable
70
1
0
BLOCK_RECORD
5
1F
100
AcDbSymbolTableRecord
100
AcDbBlockTableRecord
2
*MODEL_SPACE
0
BLOCK_RECORD
5
1B
100
AcDbSymbolTableRecord
100
AcDbBlockTableRecord
2
*PAPER_SPACE
0
ENDTAB
0
ENDSEC
0
SECTION
2
BLOCKS
0
BLOCK
5
20
100
AcDbEntity
100
AcDbBlockBegin
2
*MODEL_SPACE
0
ENDBLK
5
21
100
AcDbEntity
100
AcDbBlockEnd
0
BLOCK
5
1C
100
AcDbEntity
100
AcDbBlockBegin
2
*PAPER_SPACE
0
ENDBLK
5
1D
100
AcDbEntity
100
AcDbBlockEnd
0
ENDSEC
0
SECTION
2
ENTITIES
0
POINT
5
100
100
AcDbEntity
8
0
100
AcDbPoint
10
-27.501182205439498
20
-100.05707687054266
30
0
0
LINE
5
101
100
AcDbEntity
8
0
100
AcDbLine
10
-27.501182205439498
20
-50.057076870542652
30
0
11
-27.501182205439498
21
-100.05707687054266
31
0
0
LINE
5
102
100
AcDbEntity
8
0
100
AcDbLine
10
-27.501182205439498
20
-50.057076870542652
30
0
11
-27.501182205439498
21
49.942923129457348
31
0
0
LINE
5
103
100
AcDbEntity
8
0
100
AcDbLine
10
-27.501182205439498
20
49.942923129457348
30
0
11
-27.501182205439498
21
59.942923129457348
31
0
0
SPLINE
5
104
100
AcDbEntity
8
0
100
AcDbSpline
70
4
71
5
72
36
73
30
74
0
42
0.000000001
43
0.0000000001
44
0.0000000001
40
0
40
0
40
0
40
0
40
0
40
0
40
0.040000000000000001
40
0.080000000000000002
40
0.12
40
0.16
40
0.20000000000000001
40
0.24000000000000002
40
0.28000000000000003
40
0.32000000000000001
40
0.35999999999999999
40
0.39999999999999997
40
0.43999999999999995
40
0.47999999999999993
40
0.51999999999999991
40
0.55999999999999994
40
0.59999999999999998
40
0.64000000000000001
40
0.68000000000000005
40
0.72000000000000008
40
0.76000000000000012
40
0.80000000000000016
40
0.84000000000000019
40
0.88000000000000023
40
0.92000000000000026
40
0.9600000000000003
40
1
40
1
40
1
40
1
40
1
40
1
41
1
41
1
41
1
41
1
41
1
41
1
41
1
41
1
41
1
41
1
41
1
41
1
41
1
41
1
41
1
41
1
41
1
41
1
41
1
41
1
41
1
41
1
41
1
41
1
41
1
41
1
41
1
41
1
41
1
41
1
10
-27.501182205439498
20
-100.05707687054266
30
0
10
-25.246056523264716
20
-99.998817079336078
30
-6.7375594913674816e-15
10
-20.866710929667079
20
-99.625568276629991
30
-1.877395622715747e-14
10
-14.690405442279374
20
-98.295514944843319
30
-3.2512365887419548e-14
10
-7.205867673021114
20
-95.073891281094788
30
-4.2226660407476453e-14
10
1.0962035827801562
20
-89.171986433890737
30
-4.0471040645956334e-14
10
8.5882061890600898
20
-82.092529425771787
30
-2.5864770606324423e-14
10
15.498072192127179
20
-74.544819193120333
30
-2.9890618583119967e-16
10
21.973554424834244
20
-67.100501930880441
30
3.3220273226005965e-14
10
28.024884015597653
20
-60.052838459527287
30
7.0354269293844218e-14
10
33.586515265584524
20
-53.460752797200129
30
1.0624741505520894e-13
10
38.577001129562383
20
-47.178734964834483
30
1.3632633754396501e-13
10
42.950551892901373
20
-40.895813235801782
30
1.5702474670760163e-13
10
46.774664960556784
20
-34.153085781346533
30
1.66751711480114e-13
10
50.182233758098263
20
-26.451745308456442
30
1.6574454386100649e-13
10
53.250591069029156
20
-17.418989310602427
30
1.5533456481397593e-13
10
55.918243425577529
20
-6.9371624359839634
30
1.3745574708921339e-13
10
57.850875979301975
20
4.6633772798335285
30
1.1397039724676729e-13
10
58.432947710794217
20
16.57724591865157
30
8.6375418034926026e-14
10
56.986098400843623
20
27.82005897222281
30
5.614804938626307e-14
10
53.004312804385904
20
37.523222820780816
30
2.5130175178808864e-14
10
46.253562261317711
20
45.092366178286852
30
-4.4399088651824156e-15
10
37.242065373841378
20
50.751550172817261
30
-2.8934344279216241e-14
10
26.59370086812412
20
54.937381091036116
30
-4.5212409527060456e-14
10
14.636754928184555
20
57.849887640209204
30
-5.1519342066957456e-14
10
1.6102915833789402
20
59.654093078896608
30
-4.6791445439034977e-14
10
-9.578298080871221
20
60.269333920569792
30
-3.3844493301278251e-14
10
-18.380259544941001
20
60.280887919542366
30
-1.8937356523405066e-14
10
-24.430507128316318
20
60.088855320539807
30
-6.6963082160615343e-15
10
-27.501182205439498
20
59.942923129457348
30
0
0
ENDSEC
0
SECTION
2
OBJECTS
0
DICTIONARY
5
C
100
AcDbDictionary
3
ACAD_GROUP
350
D
3
ACAD_MLINESTYLE
350
17
0
DICTIONARY
5
D
100
AcDbDictionary
0
DICTIONARY
5
1A
330
C
100
AcDbDictionary
0
DICTIONARY
5
17
100
AcDbDictionary
0
ENDSEC
0
EOF
