0
SECTION
2
HEADER
9
$INSUNITS
70
4
9
$ACADVER
1
AC1014
9
$HANDSEED
5
FFFF
0
ENDSEC
0
SECTION
2
TABLES
0
TABLE
2
VPORT
5
8
100
AcDbSymbolTable
0
ENDTAB
0
TABLE
2
LTYPE
5
5
100
AcDbSymbolTable
0
LTYPE
5
14
100
AcDbSymbolTableRecord
100
AcDbLinetypeTableRecord
2
BYBLOCK
70
0
0
LTYPE
5
15
100
AcDbSymbolTableRecord
100
AcDbLinetypeTableRecord
2
BYLAYER
70
0
0
LTYPE
5
16
100
AcDbSymbolTableRecord
100
AcDbLinetypeTableRecord
2
DASHED
70
0
3
Dashed __ __ __ __ __ __ __ __ __ __ __ __ __ _
72
65
73
2
40
0.75
49
0.5
74
0
49
-0.25
74
0
0
ENDTAB
0
TABLE
2
LAYER
5
2
100
AcDbSymbolTable
70
2
0
LAYER
5
50
100
AcDbSymbolTableRecord
100
AcDbLayerTableRecord
2
0
70
0
62
7
6
CONTINUOUS
0
ENDTAB
0
TABLE
2
STYLE
5
3
100
AcDbSymbolTable
70
1
0
STYLE
5
11
100
AcDbSymbolTableRecord
100
AcDbTextStyleTableRecord
2
STANDARD
70
0
0
ENDTAB
0
TABLE
2
VIEW
5
6
100
AcDbSymbolTable
70
0
0
ENDTAB
0
TABLE
2
UCS
5
7
100
AcDbSymbolTable
70
0
0
ENDTAB
0
TABLE
2
APPID
5
9
100
AcDbSymbolTable
70
2
0
APPID
5
12
100
AcDbSymbolTableRecord
100
AcDbRegAppTableRecord
2
ACAD
70
0
0
ENDTAB
0
TABLE
2
DIMSTYLE
5
A
100
AcDbSymbolTable
70
1
0
ENDTAB
0
TABLE
2
BLOCK_RECORD
5
1
100
AcDbSymbolTable
70
1
0
BLOCK_RECORD
5
1F
100
AcDbSymbolTableRecord
100
AcDbBlockTableRecord
2
*MODEL_SPACE
0
BLOCK_RECORD
5
1B
100
AcDbSymbolTableRecord
100
AcDbBlockTableRecord
2
*PAPER_SPACE
0
ENDTAB
0
ENDSEC
0
SECTION
2
BLOCKS
0
BLOCK
5
20
100
AcDbEntity
100
AcDbBlockBegin
2
*MODEL_SPACE
0
ENDBLK
5
21
100
AcDbEntity
100
AcDbBlockEnd
0
BLOCK
5
1C
100
AcDbEntity
100
AcDbBlockBegin
2
*PAPER_SPACE
0
ENDBLK
5
1D
100
AcDbEntity
100
AcDbBlockEnd
0
ENDSEC
0
SECTION
2
ENTITIES
0
SPLINE
5
100
100
AcDbEntity
8
0
100
AcDbSpline
70
4
71
5
72
26
73
20
74
0
42
0.000000001
43
0.0000000001
44
0.0000000001
40
0
40
0
40
0
40
0
40
0
40
0
40
0.066666666666666666
40
0.13333333333333333
40
0.20000000000000001
40
0.26666666666666666
40
0.33333333333333331
40
0.39999999999999997
40
0.46666666666666662
40
0.53333333333333333
40
0.59999999999999998
40
0.66666666666666663
40
0.73333333333333328
40
0.79999999999999993
40
0.86666666666666659
40
0.93333333333333324
40
1
40
1
40
1
40
1
40
1
40
1
41
1
41
1
41
1
41
1
41
1
41
1
41
1
41
1
41
1
41
1
41
1
41
1
41
1
41
1
41
1
41
1
41
1
41
1
41
1
41
1
10
4.4408920985006262e-15
20
-100
30
0
10
2.4905160963355337
20
-99.88195736578399
30
0
10
7.5099594315505644
20
-99.559995698419627
30
0
10
15.154386970588924
20
-98.819445257627208
30
0
10
25.656860601731964
20
-97.353976448032824
30
0
10
39.716125036269567
20
-94.903307219087694
30
0
10
55.154633736061349
20
-91.996036843985124
30
0
10
72.279792568895729
20
-88.686434410385303
30
0
10
91.052272930996708
20
-84.809205911986183
30
0
10
111.14793101091296
20
-80.063490801896904
30
0
10
132.04292972676336
20
-74.119606208539324
30
0
10
153.07933678138107
20
-66.717751814981284
30
0
10
173.53122719125483
20
-57.77734406861201
30
0
10
192.66602030691305
20
-47.506097558469648
30
0
10
209.81021580126827
20
-36.536032678442581
30
0
10
224.37354196849836
20
-25.727240194347868
30
0
10
233.57674250079751
20
-17.913299891142444
30
0
10
238.95461430018756
20
-12.835953099826028
30
0
10
241.84497311981983
20
-9.8400142797755308
30
0
10
243.11642818014849
20
-8.439288561660705
30
0
0
SPLINE
5
101
100
AcDbEntity
8
0
100
AcDbSpline
70
4
71
5
72
26
73
20
74
0
42
0.000000001
43
0.0000000001
44
0.0000000001
40
0
40
0
40
0
40
0
40
0
40
0
40
0.066666666666666666
40
0.13333333333333333
40
0.20000000000000001
40
0.26666666666666666
40
0.33333333333333331
40
0.39999999999999997
40
0.46666666666666662
40
0.53333333333333333
40
0.59999999999999998
40
0.66666666666666663
40
0.73333333333333328
40
0.79999999999999993
40
0.86666666666666659
40
0.93333333333333324
40
1
40
1
40
1
40
1
40
1
40
1
41
1
41
1
41
1
41
1
41
1
41
1
41
1
41
1
41
1
41
1
41
1
41
1
41
1
41
1
41
1
41
1
41
1
41
1
41
1
41
1
10
243.11642818014849
20
-8.439288561660705
30
0
10
243.19638717586386
20
-8.3669187182384466
30
0
10
243.35784370274223
20
-8.2174352710138923
30
0
10
243.60464412045366
20
-7.9789788434855424
30
0
10
243.943009568489
20
-7.6323672809340248
30
0
10
244.38115213107707
20
-7.1506646255006814
30
0
10
244.83281734392452
20
-6.6207570203018493
30
0
10
245.29407314285953
20
-6.0449036204449946
30
0
10
245.75766816523756
20
-5.4287541257665071
30
0
10
246.21202901116362
20
-4.7827199132794851
30
0
10
246.64303652955999
20
-4.1200165047849131
30
0
10
247.0355805673459
20
-3.45504855417302
30
0
10
247.37533108906487
20
-2.8016986537024642
30
0
10
247.65029838957983
20
-2.1718713464131052
30
0
10
247.85332095814255
20
-1.5733808990941021
30
0
10
247.98204133717451
20
-1.0098539966550255
30
0
10
248.02565981462692
20
-0.58795928093623051
30
0
10
248.02551801975659
20
-0.28772798724323356
30
0
10
248.01092485115416
20
-0.094718580819536907
30
0
10
248.00000369548798
20
0
30
0
0
ENDSEC
0
SECTION
2
OBJECTS
0
DICTIONARY
5
C
100
AcDbDictionary
3
ACAD_GROUP
350
D
3
ACAD_MLINESTYLE
350
17
0
DICTIONARY
5
D
100
AcDbDictionary
0
DICTIONARY
5
1A
330
C
100
AcDbDictionary
0
DICTIONARY
5
17
100
AcDbDictionary
0
ENDSEC
0
EOF
