                                                                        S      1
,,22Hsensor holder thing v3,22Hsensor holder thing v3,7Hunknown,7HunknowG      1
n,32,38,7,99,15,,1.,2,2HMM,1,0.08,15H20250912.001509,0.01,10000.,7HunknoG      2
wn,7Hunknown,11,0,15H20250113.202306;                                   G      3
     186       1                                                00000000D      1
     186            -195       1       0                               0D      2
     514       2                                                00010000D      3
     514                       2       1                               0D      4
     510       4                                                00010000D      5
     510            -195       1       1                               0D      6
     510       5                                                00010000D      7
     510            -195       1       1                               0D      8
     510       6                                                00010000D      9
     510            -195       1       1                               0D     10
     510       7                                                00010000D     11
     510            -195       1       1                               0D     12
     510       8                                                00010000D     13
     510            -195       1       1                               0D     14
     510       9                                                00010000D     15
     510            -195       1       1                               0D     16
     510      10                                                00010000D     17
     510            -195       1       1                               0D     18
     510      11                                                00010000D     19
     510            -195       1       1                               0D     20
     510      12                                                00010000D     21
     510            -195       1       1                               0D     22
     510      13                                                00010000D     23
     510            -195       1       1                               0D     24
     510      14                                                00010000D     25
     510            -195       1       1                               0D     26
     510      15                                                00010000D     27
     510            -195       1       1                               0D     28
     510      16                                                00010000D     29
     510            -195       1       1                               0D     30
     510      17                                                00010000D     31
     510            -195       1       1                               0D     32
     510      18                                                00010000D     33
     510            -195       1       1                               0D     34
     510      19                                                00010000D     35
     510            -195       1       1                               0D     36
     510      20                                                00010000D     37
     510            -195       1       1                               0D     38
     508      21                                                00010000D     39
     508                       1       1                               0D     40
     508      22                                                00010000D     41
     508                       3       1                               0D     42
     508      25                                                00010000D     43
     508                       2       1                               0D     44
     508      27                                                00010000D     45
     508                       2       1                               0D     46
     508      29                                                00010000D     47
     508                       1       1                               0D     48
     508      30                                                00010000D     49
     508                       1       1                               0D     50
     508      31                                                00010000D     51
     508                       1       1                               0D     52
     508      32                                                00010000D     53
     508                       2       1                               0D     54
     508      34                                                00010000D     55
     508                       1       1                               0D     56
     508      35                                                00010000D     57
     508                       1       1                               0D     58
     508      36                                                00010000D     59
     508                       1       1                               0D     60
     508      37                                                00010000D     61
     508                       1       1                               0D     62
     508      38                                                00010000D     63
     508                       1       1                               0D     64
     508      39                                                00010000D     65
     508                       1       1                               0D     66
     508      40                                                00010000D     67
     508                       1       1                               0D     68
     508      41                                                00010000D     69
     508                       1       1                               0D     70
     508      42                                                00010000D     71
     508                       2       1                               0D     72
     126      44                                                00010000D     73
     126       0               7       0                               0D     74
     126      51                                                00010000D     75
     126       0              13       0                               0D     76
     126      64                                                00010000D     77
     126       0               6       0                               0D     78
     126      70                                                00010000D     79
     126       0              13       0                               0D     80
     126      83                                                00010000D     81
     126       0               4       0                               0D     82
     126      87                                                00010000D     83
     126       0               4       0                               0D     84
     126      91                                                00010000D     85
     126       0               4       0                               0D     86
     126      95                                                00010000D     87
     126       0               4       0                               0D     88
     126      99                                                00010000D     89
     126       0               4       0                               0D     90
     126     103                                                00010000D     91
     126       0               8       0                               0D     92
     126     111                                                00010000D     93
     126       0               6       0                               0D     94
     126     117                                                00010000D     95
     126       0              13       0                               0D     96
     126     130                                                00010000D     97
     126       0               7       0                               0D     98
     126     137                                                00010000D     99
     126       0               8       0                               0D    100
     126     145                                                00010000D    101
     126       0               4       0                               0D    102
     126     149                                                00010000D    103
     126       0               3       0                               0D    104
     126     152                                                00010000D    105
     126       0               5       0                               0D    106
     126     157                                                00010000D    107
     126       0               3       0                               0D    108
     126     160                                                00010000D    109
     126       0               8       0                               0D    110
     126     168                                                00010000D    111
     126       0               3       0                               0D    112
     126     171                                                00010000D    113
     126       0               2       0                               0D    114
     126     173                                                00010000D    115
     126       0               2       0                               0D    116
     126     175                                                00010000D    117
     126       0               3       0                               0D    118
     126     178                                                00010000D    119
     126       0               3       0                               0D    120
     126     181                                                00010000D    121
     126       0               4       0                               0D    122
     126     185                                                00010000D    123
     126       0               3       0                               0D    124
     126     188                                                00010000D    125
     126       0               3       0                               0D    126
     126     191                                                00010000D    127
     126       0               4       0                               0D    128
     126     195                                                00010000D    129
     126       0               3       0                               0D    130
     126     198                                                00010000D    131
     126       0               5       0                               0D    132
     126     203                                                00010000D    133
     126       0               2       0                               0D    134
     126     205                                                00010000D    135
     126       0               4       0                               0D    136
     126     209                                                00010000D    137
     126       0               5       0                               0D    138
     126     214                                                00010000D    139
     126       0               2       0                               0D    140
     126     216                                                00010000D    141
     126       0               5       0                               0D    142
     126     221                                                00010000D    143
     126       0               3       0                               0D    144
     126     224                                                00010000D    145
     126       0               4       0                               0D    146
     126     228                                                00010000D    147
     126       0               3       0                               0D    148
     126     231                                                00010000D    149
     126       0               4       0                               0D    150
     126     235                                                00010000D    151
     126       0               3       0                               0D    152
     126     238                                                00010000D    153
     126       0               2       0                               0D    154
     128     240                                                00010000D    155
     128       0    -195       7       0                               0D    156
     128     247                                                00010000D    157
     128       0    -195       7       0                               0D    158
     128     254                                                00010000D    159
     128       0    -195       6       0                               0D    160
     128     260                                                00010000D    161
     128       0    -195      20       0                               0D    162
     128     280                                                00010000D    163
     128       0    -195      11       0                               0D    164
     128     291                                                00010000D    165
     128       0    -195      21       0                               0D    166
     128     312                                                00010000D    167
     128       0    -195      13       0                               0D    168
     128     325                                                00010000D    169
     128       0    -195       6       0                               0D    170
     128     331                                                00010000D    171
     128       0    -195       6       0                               0D    172
     128     337                                                00010000D    173
     128       0    -195       7       0                               0D    174
     128     344                                                00010000D    175
     128       0    -195       8       0                               0D    176
     128     352                                                00010000D    177
     128       0    -195       8       0                               0D    178
     128     360                                                00010000D    179
     128       0    -195       9       0                               0D    180
     128     369                                                00010000D    181
     128       0    -195       8       0                               0D    182
     128     377                                                00010000D    183
     128       0    -195       8       0                               0D    184
     128     385                                                00010000D    185
     128       0    -195       8       0                               0D    186
     128     393                                                00010000D    187
     128       0    -195       5       0                               0D    188
     502     398                                                00010000D    189
     502                      16       1                               0D    190
     504     414                                                00010001D    191
     504                      12       1                               0D    192
     406     426                                                00000000D    193
     406                       1      15                               0D    194
     314     427                                                00000200D    195
     314                       2       0                               0D    196
186,3,1,0,0,1,193;                                                     1P      1
514,17,5,1,7,1,9,1,11,1,13,1,15,1,17,1,19,1,21,1,23,1,25,1,27,1,       3P      2
29,1,31,1,33,1,35,1,37,1;                                              3P      3
510,155,1,1,39;                                                        5P      4
510,157,1,1,41;                                                        7P      5
510,159,1,1,43;                                                        9P      6
510,161,1,1,45;                                                       11P      7
510,163,1,1,47;                                                       13P      8
510,165,1,1,49;                                                       15P      9
510,167,1,1,51;                                                       17P     10
510,169,1,1,53;                                                       19P     11
510,171,1,1,55;                                                       21P     12
510,173,1,1,57;                                                       23P     13
510,175,1,1,59;                                                       25P     14
510,177,1,1,61;                                                       27P     15
510,179,1,1,63;                                                       29P     16
510,181,1,1,65;                                                       31P     17
510,183,1,1,67;                                                       33P     18
510,185,1,1,69;                                                       35P     19
510,187,1,1,71;                                                       37P     20
508,4,0,191,1,1,0,0,191,2,1,0,0,191,3,1,0,0,191,4,1,0;                39P     21
508,10,0,191,5,0,0,0,191,6,0,0,0,191,7,0,0,0,191,8,0,0,0,191,9,       41P     22
1,0,0,191,10,1,0,0,191,11,0,0,0,191,12,0,0,0,191,13,0,0,0,191,        41P     23
14,1,0;                                                               41P     24
508,5,0,191,15,0,0,0,191,16,1,0,0,191,17,0,0,0,191,18,0,0,0,191,      43P     25
9,0,0;                                                                43P     26
508,8,0,191,10,0,0,0,191,18,1,0,0,191,19,0,0,0,191,20,0,0,0,191,      45P     27
14,0,0,0,191,21,1,0,0,191,4,0,0,0,191,22,0,0;                         45P     28
508,4,0,191,11,1,0,0,191,22,1,0,0,191,3,0,0,0,191,23,0,0;             47P     29
508,4,0,191,12,1,0,0,191,23,1,0,0,191,2,0,0,0,191,24,0,0;             49P     30
508,4,0,191,13,1,0,0,191,24,1,0,0,191,1,0,0,0,191,21,0,0;             51P     31
508,5,0,191,25,0,0,0,191,5,1,0,0,191,20,1,0,0,191,26,0,0,0,191,       53P     32
27,0,0;                                                               53P     33
508,4,0,191,28,0,0,0,191,27,1,0,0,191,29,0,0,0,191,16,0,0;            55P     34
508,4,0,191,19,1,0,0,191,17,1,0,0,191,29,1,0,0,191,26,1,0;            57P     35
508,4,0,191,8,1,0,0,191,30,0,0,0,191,31,0,0,0,191,32,1,0;             59P     36
508,4,0,191,7,1,0,0,191,33,0,0,0,191,34,0,0,0,191,30,1,0;             61P     37
508,4,0,191,6,1,0,0,191,35,0,0,0,191,36,0,0,0,191,33,1,0;             63P     38
508,4,0,191,25,1,0,0,191,37,0,0,0,191,38,0,0,0,191,35,1,0;            65P     39
508,4,0,191,28,1,0,0,191,39,0,0,0,191,40,0,0,0,191,37,1,0;            67P     40
508,4,0,191,15,1,0,0,191,32,0,0,0,191,41,0,0,0,191,39,1,0;            69P     41
508,6,0,191,41,1,0,0,191,31,1,0,0,191,34,1,0,0,191,36,1,0,0,191,      71P     42
38,1,0,0,191,40,1,0;                                                  71P     43
126,4,2,0,0,0,0,0.,0.,0.,1.57079631934432,1.57079631934432,           73P     44
3.14159263868863,3.14159263868863,3.14159263868863,1.,                73P     45
0.70710678382072,1.,0.707106783820729,1.,13.2585,                     73P     46
22.964395632152,28.5,14.2760348527174,22.3769216110257,28.5,          73P     47
14.8635088814249,23.3944564593661,28.5,15.4509829101324,              73P     48
24.4119913077065,28.5,14.433448066169,24.9994653439952,28.5,0.,       73P     49
3.14159263868863,0.,0.,0.;                                            73P     50
126,8,2,0,0,0,0,-2.0943951023932,-2.0943951023932,                    75P     51
-2.0943951023932,-0.785398163397449,-0.785398163397449,               75P     52
0.523598775598298,0.523598775598298,1.83259571459405,                 75P     53
1.83259571459405,3.14159265358979,3.14159265358979,                   75P     54
3.14159265358979,1.,0.793353340291235,1.,0.793353340291235,1.,        75P     55
0.793353340291234,1.,0.793353340291235,1.,14.4334480510065,           75P     56
24.9994653527493,28.5,0.245915504589059,33.19064108756,28.5,          75P     57
-11.3381563113617,21.6065692716093,28.5,-22.9222281273124,            75P     58
10.0224974556586,28.5,-14.7310523925017,-4.16503509075889,28.5,       75P     59
-6.53987665769096,-18.3525676371764,28.5,9.28425972216104,            75P     60
-14.1125030732751,28.5,25.108396102013,-9.8724385093738,28.5,         75P     61
25.108396102013,6.50991296024762,28.5,-2.0943951023932,               75P     62
3.14159265358979,0.,0.,0.;                                            75P     63
126,4,2,0,0,0,0,0.,0.,0.,1.5707963267949,1.5707963267949,             77P     64
3.14159265358979,3.14159265358979,3.14159265358979,1.,                77P     65
0.707106781186552,1.,0.707106781186552,1.,25.108396102013,            77P     66
6.50991296024762,28.5,25.108396102013,7.68486101125415,28.5,          77P     67
23.9334480510065,7.68486101125415,28.5,22.7585,7.68486101125415,      77P     68
28.5,22.7585,6.50991296024762,28.5,0.,3.14159265358979,0.,0.,0.;      77P     69
126,8,2,0,0,0,0,-3.14159265358979,-3.14159265358979,                  79P     70
-3.14159265358979,-1.83259571459405,-1.83259571459405,                79P     71
-0.523598775598299,-0.523598775598299,0.785398163397448,              79P     72
0.785398163397448,2.0943951023932,2.0943951023932,                    79P     73
2.0943951023932,1.,0.793353340291236,1.,0.793353340291235,1.,         79P     74
0.793353340291235,1.,0.793353340291235,1.,22.7585,                    79P     75
6.50991296024762,28.5,22.7585,-8.06929981135262,28.5,                 79P     76
8.6760618569479,-11.8426777392447,28.5,-5.40637628610421,             79P     77
-15.6160556671367,28.5,-12.6959826719043,-2.99008703975238,28.5,      79P     78
-19.9855890577045,9.63588158763198,28.5,-9.67652884254441,            79P     79
19.944941802792,28.5,0.632531372615647,30.2540020179521,28.5,         79P     80
13.2585,22.964395632152,28.5,-3.14159265358979,2.0943951023932,       79P     81
0.,0.,0.;                                                             79P     82
126,1,1,0,0,1,0,0.782739936188181,0.782739936188181,                  81P     83
2.16633155760021,2.16633155760021,1.,1.,-0.155199680940907,           81P     84
13.2886396532034,14.,-13.9911158950612,13.2886396532034,14.,          81P     85
0.782739936188181,2.16633155760021,0.,0.,0.;                          81P     86
126,1,1,0,0,1,0,-0.0155199680940906,-0.0155199680940906,              83P     87
0.76721996809409,0.76721996809409,1.,1.,-4.06889936188181,            83P     88
6.50991296024763,14.,-0.155199680940905,13.2886396532034,14.,         83P     89
-0.0155199680940906,0.76721996809409,0.,0.,0.;                        83P     90
126,1,1,0,0,1,0,-0.0155199680940908,-0.0155199680940908,              85P     91
0.767219968094091,0.767219968094091,1.,1.,-0.155199680940906,         85P     92
-0.26881373270813,14.,-4.06889936188181,6.50991296024763,14.,         85P     93
-0.0155199680940908,0.767219968094091,0.,0.,0.;                       85P     94
126,1,1,0,0,1,0,-0.0155199680940905,-0.0155199680940905,              87P     95
0.767219968094091,0.767219968094091,1.,1.,7.67219968094091,           87P     96
-0.268813732708129,14.,-0.155199680940906,-0.268813732708129,         87P     97
14.,-0.0155199680940905,0.767219968094091,0.,0.,0.;                   87P     98
126,1,1,0,0,1,0,0.782739936188181,0.782739936188181,                  89P     99
2.16633155760021,2.16633155760021,1.,1.,7.6721996809409,              89P    100
-0.268813732708131,14.,0.754241573880754,-12.2510686587693,14.,       89P    101
0.782739936188181,2.16633155760021,0.,0.,0.;                          89P    102
126,4,2,0,0,0,0,1.41201106716146,1.41201106716146,                    91P    103
1.41201106716146,2.27680186037563,2.27680186037563,                   91P    104
3.14159265358979,3.14159265358979,3.14159265358979,1.,                91P    105
0.907964571936748,1.,0.907964571936748,1.,0.754241573880758,          91P    106
-12.2510686587693,14.,9.41287445581349,-13.6376043594307,14.,         91P    107
16.0856872279067,-7.948318433949,14.,22.7585,-2.25903250846727,       91P    108
14.,22.7585,6.50991296024762,14.,1.41201106716146,                    91P    109
3.14159265358979,0.,0.,0.;                                            91P    110
126,4,2,0,0,0,0,0.,0.,0.,1.5707963267949,1.5707963267949,             93P    111
3.14159265358979,3.14159265358979,3.14159265358979,1.,                93P    112
0.707106781186552,1.,0.707106781186552,1.,25.108396102013,            93P    113
6.50991296024762,14.,25.108396102013,7.68486101125415,14.,            93P    114
23.9334480510065,7.68486101125415,14.,22.7585,7.68486101125415,       93P    115
14.,22.7585,6.50991296024762,14.,0.,3.14159265358979,0.,0.,0.;        93P    116
126,8,2,0,0,0,0,-2.0943951023932,-2.0943951023932,                    95P    117
-2.0943951023932,-0.785398163397449,-0.785398163397449,               95P    118
0.523598775598298,0.523598775598298,1.83259571459405,                 95P    119
1.83259571459405,3.14159265358979,3.14159265358979,                   95P    120
3.14159265358979,1.,0.793353340291235,1.,0.793353340291235,1.,        95P    121
0.793353340291234,1.,0.793353340291235,1.,14.4334480510065,           95P    122
24.9994653527493,14.,0.245915504589059,33.19064108756,14.,            95P    123
-11.3381563113617,21.6065692716093,14.,-22.9222281273124,             95P    124
10.0224974556586,14.,-14.7310523925017,-4.16503509075889,14.,         95P    125
-6.53987665769096,-18.3525676371764,14.,9.28425972216104,             95P    126
-14.1125030732751,14.,25.108396102013,-9.8724385093738,14.,           95P    127
25.108396102013,6.50991296024762,14.,-2.0943951023932,                95P    128
3.14159265358979,0.,0.,0.;                                            95P    129
126,4,2,0,0,0,0,0.,0.,0.,1.57079631934432,1.57079631934432,           97P    130
3.14159263868863,3.14159263868863,3.14159263868863,1.,                97P    131
0.70710678382072,1.,0.707106783820729,1.,13.2585,                     97P    132
22.964395632152,14.,14.2760348527174,22.3769216110257,14.,            97P    133
14.8635088814249,23.3944564593661,14.,15.4509829101324,               97P    134
24.4119913077065,14.,14.433448066169,24.9994653439952,14.,0.,         97P    135
3.14159263868863,0.,0.,0.;                                            97P    136
126,4,2,0,0,0,0,-2.0943951023932,-2.0943951023932,                    99P    137
-2.0943951023932,-1.22960430917903,-1.22960430917903,                 99P    138
-0.364813515964863,-0.364813515964863,-0.364813515964863,1.,          99P    139
0.907964571936751,1.,0.907964571936749,1.,13.2585,                    99P    140
22.964395632152,14.,5.66437045969246,27.3488683665094,14.,            99P    141
-2.59910206721461,24.4146859539202,14.,-10.8625745941217,             99P    142
21.4805035413311,14.,-13.9911158950612,13.2886396532034,14.,          99P    143
-2.0943951023932,-0.364813515964863,0.,0.,0.;                         99P    144
126,1,1,0,0,1,0,-0.0155199680940906,-0.0155199680940906,             101P    145
0.767219968094091,0.767219968094091,1.,1.,11.5858993618818,          101P    146
6.50991296024763,14.,7.67219968094091,-0.26881373270813,14.,         101P    147
-0.0155199680940906,0.767219968094091,0.,0.,0.;                      101P    148
126,1,1,0,0,1,0,0.,0.,0.15,0.15,1.,1.,11.5858993618818,              103P    149
6.50991296024763,14.,11.5858993618818,6.50991296024763,15.5,0.,      103P    150
0.15,0.,0.,0.;                                                       103P    151
126,1,1,0,0,1,0,-2.16633155760021,-2.16633155760021,                 105P    152
-4.44089209850063D-16,-4.44089209850063D-16,1.,1.,                   105P    153
0.754241573880754,-12.2510686587693,15.5,11.5858993618818,           105P    154
6.50991296024762,15.5,-2.16633155760021,-4.44089209850063D-16,       105P    155
0.,0.,0.;                                                            105P    156
126,1,1,0,0,1,0,0.,0.,0.15,0.15,1.,1.,0.754241573880754,             107P    157
-12.2510686587693,14.,0.754241573880754,-12.2510686587693,15.5,      107P    158
0.,0.15,0.,0.,0.;                                                    107P    159
126,4,2,0,0,0,0,-0.364813515964863,-0.364813515964863,               109P    160
-0.364813515964863,0.523598775598299,0.523598775598299,              109P    161
1.41201106716146,1.41201106716146,1.41201106716146,1.,               109P    162
0.902952101749722,1.,0.902952101749724,1.,-13.9911158950612,         109P    163
13.2886396532034,15.5,-17.2173093567841,4.84108049607637,15.5,       109P    164
-12.6959826719043,-2.99008703975237,15.5,-8.17465598702455,          109P    165
-10.8212545755811,15.5,0.754241573880753,-12.2510686587693,15.5,     109P    166
-0.364813515964863,1.41201106716146,0.,0.,0.;                        109P    167
126,1,1,0,0,1,0,0.,0.,0.15,0.15,1.,1.,-13.9911158950612,             111P    168
13.2886396532034,14.,-13.9911158950612,13.2886396532034,15.5,0.,     111P    169
0.15,0.,0.,0.;                                                       111P    170
126,1,1,0,0,1,0,0.,0.,1.45,1.45,1.,1.,13.2585,22.964395632152,       113P    171
14.,13.2585,22.964395632152,28.5,0.,1.45,0.,0.,0.;                   113P    172
126,1,1,0,0,1,0,0.,0.,1.45,1.45,1.,1.,22.7585,6.50991296024762,      115P    173
14.,22.7585,6.50991296024762,28.5,0.,1.45,0.,0.,0.;                  115P    174
126,1,1,0,0,1,0,0.,0.,1.45,1.45,1.,1.,25.108396102013,               117P    175
6.50991296024762,14.,25.108396102013,6.50991296024762,28.5,0.,       117P    176
1.45,0.,0.,0.;                                                       117P    177
126,1,1,0,0,1,0,0.,0.,1.45,1.45,1.,1.,14.433448066169,               119P    178
24.9994653439952,14.,14.433448066169,24.9994653439952,28.5,0.,       119P    179
1.45,0.,0.,0.;                                                       119P    180
126,1,1,0,0,1,0,-0.0155199680940908,-0.0155199680940908,             121P    181
0.767219968094091,0.767219968094091,1.,1.,-0.155199680940907,        121P    182
13.2886396532034,14.,7.67219968094091,13.2886396532034,14.,          121P    183
-0.0155199680940908,0.767219968094091,0.,0.,0.;                      121P    184
126,1,1,0,0,1,0,0.,0.,2.16633155760021,2.16633155760021,1.,1.,       123P    185
7.67219968094091,13.2886396532034,15.5,-13.9911158950612,            123P    186
13.2886396532034,15.5,0.,2.16633155760021,0.,0.,0.;                  123P    187
126,1,1,0,0,1,0,0.,0.,0.15,0.15,1.,1.,7.67219968094091,              125P    188
13.2886396532034,14.,7.67219968094091,13.2886396532034,15.5,0.,      125P    189
0.15,0.,0.,0.;                                                       125P    190
126,1,1,0,0,1,0,-0.0155199680940907,-0.0155199680940907,             127P    191
0.767219968094091,0.767219968094091,1.,1.,7.67219968094091,          127P    192
13.2886396532034,14.,11.5858993618818,6.50991296024763,14.,          127P    193
-0.0155199680940907,0.767219968094091,0.,0.,0.;                      127P    194
126,1,1,0,0,1,0,0.,0.,0.782739936188181,0.782739936188181,1.,1.,     129P    195
11.5858993618818,6.50991296024763,15.5,7.67219968094091,             129P    196
13.2886396532034,15.5,0.,0.782739936188181,0.,0.,0.;                 129P    197
126,1,1,0,0,1,0,0.00416553344837358,0.00416553344837358,             131P    198
1.40450959032817,1.40450959032817,1.,1.,1.51381728333289D-16,        131P    199
-7.36037749846097D-16,-2.60208521396521D-17,-0.155199680940906,      131P    200
-0.26881373270813,14.,0.00416553344837358,1.40450959032817,0.,       131P    201
0.,0.;                                                               131P    202
126,1,1,0,0,1,0,0.,0.,0.7517,0.7517,1.,1.,7.517,                     133P    203
-4.60283499459533D-16,0.,0.,0.,0.,0.,0.7517,0.,0.,0.;                133P    204
126,1,1,0,0,1,0,0.00416553344837361,0.00416553344837361,             135P    205
1.40450959032817,1.40450959032817,1.,1.,7.517,                       135P    206
2.80943887945306D-16,0.,7.67219968094091,-0.268813732708129,14.,     135P    207
0.00416553344837361,1.40450959032817,0.,0.,0.;                       135P    208
126,1,1,0,0,1,0,0.00416553344837363,0.00416553344837363,             137P    209
1.40450959032817,1.40450959032817,1.,1.,-3.7585,                     137P    210
6.50991296024762,-2.60208521396521D-17,-4.06889936188181,            137P    211
6.50991296024763,14.,0.00416553344837363,1.40450959032817,0.,0.,     137P    212
0.;                                                                  137P    213
126,1,1,0,0,1,0,0.,0.,0.7517,0.7517,1.,1.,0.,0.,0.,-3.7585,          139P    214
6.50991296024763,0.,0.,0.7517,0.,0.,0.;                              139P    215
126,1,1,0,0,1,0,0.00416553344837356,0.00416553344837356,             141P    216
1.40450959032817,1.40450959032817,1.,1.,5.65546958222751D-16,        141P    217
13.0198259204952,-2.60208521396521D-17,-0.155199680940907,           141P    218
13.2886396532034,14.,0.00416553344837356,1.40450959032817,0.,0.,     141P    219
0.;                                                                  141P    220
126,1,1,0,0,1,0,0.,0.,0.751699999999999,0.751699999999999,1.,1.,     143P    221
-3.7585,6.50991296024763,0.,1.11022302462516D-15,                    143P    222
13.0198259204952,0.,0.,0.751699999999999,0.,0.,0.;                   143P    223
126,1,1,0,0,1,0,0.00416553344837359,0.00416553344837359,             145P    224
1.40450959032817,1.40450959032817,1.,1.,7.517,13.0198259204953,      145P    225
-8.67361737988404D-18,7.67219968094091,13.2886396532034,14.,         145P    226
0.00416553344837359,1.40450959032817,0.,0.,0.;                       145P    227
126,1,1,0,0,1,0,0.,0.,0.7517,0.7517,1.,1.,1.11022302462516D-15,      147P    228
13.0198259204952,0.,7.517,13.0198259204953,0.,0.,0.7517,0.,0.,       147P    229
0.;                                                                  147P    230
126,1,1,0,0,1,0,0.00416553344837359,0.00416553344837359,             149P    231
1.40450959032817,1.40450959032817,1.,1.,11.2755,                     149P    232
6.50991296024763,0.,11.5858993618818,6.50991296024763,14.,           149P    233
0.00416553344837359,1.40450959032817,0.,0.,0.;                       149P    234
126,1,1,0,0,1,0,0.,0.,0.7517,0.7517,1.,1.,7.517,                     151P    235
13.0198259204953,0.,11.2755,6.50991296024763,0.,0.,0.7517,0.,0.,     151P    236
0.;                                                                  151P    237
126,1,1,0,0,1,0,0.,0.,0.7517,0.7517,1.,1.,11.2755,                   153P    238
6.50991296024763,0.,7.517,0.,0.,0.,0.7517,0.,0.,0.;                  153P    239
128,1,1,1,1,0,0,1,0,0,-2.1359896102013,-2.1359896102013,             155P    240
2.66907281273124,2.66907281273124,-2.66907281273124,                 155P    241
-2.66907281273124,2.4872480597424,2.4872480597424,1.,1.,1.,1.,       155P    242
25.118396102013,33.20064108756,28.5,-22.9322281273124,               155P    243
33.20064108756,28.5,25.118396102013,-18.3625676371764,28.5,          155P    244
-22.9322281273124,-18.3625676371764,28.5,-2.1359896102013,           155P    245
2.66907281273124,-2.66907281273124,2.4872480597424;                  155P    246
128,1,1,1,1,0,0,1,0,0,-2.1359896102013,-2.1359896102013,             157P    247
2.66907281273124,2.66907281273124,-2.66907281273124,                 157P    248
-2.66907281273124,2.4872480597424,2.4872480597424,1.,1.,1.,1.,       157P    249
-22.9322281273124,33.20064108756,14.,25.118396102013,                157P    250
33.20064108756,14.,-22.9322281273124,-18.3625676371764,14.,          157P    251
25.118396102013,-18.3625676371764,14.,-2.1359896102013,              157P    252
2.66907281273124,-2.66907281273124,2.4872480597424;                  157P    253
128,1,1,1,1,0,0,1,0,0,-0.001,-0.001,2.16733155760021,                159P    254
2.16733155760021,-0.001,-0.001,0.151,0.151,1.,1.,1.,1.,              159P    255
0.749241573880754,-12.2597289128072,13.99,11.5908993618818,          159P    256
6.51857321428547,13.99,0.749241573880754,-12.2597289128072,          159P    257
15.51,11.5908993618818,6.51857321428547,15.51,-0.001,                159P    258
2.16733155760021,-0.001,0.151;                                       159P    259
128,1,8,1,2,0,0,0,0,0,0.,0.,0.763157894736842,0.763157894736842,     161P    260
-2.0943951023932,-2.0943951023932,-2.0943951023932,                  161P    261
-0.785398163397449,-0.785398163397449,0.523598775598298,             161P    262
0.523598775598298,1.83259571459405,1.83259571459405,                 161P    263
3.14159265358979,3.14159265358979,3.14159265358979,1.,1.,            161P    264
0.793353340291235,0.793353340291235,1.,1.,0.793353340291235,         161P    265
0.793353340291235,1.,1.,0.793353340291235,0.793353340291235,1.,      161P    266
1.,0.793353340291235,0.793353340291235,1.,1.,13.2585,                161P    267
22.964395632152,14.,13.2585,22.964395632152,28.5,                    161P    268
0.632531372615665,30.2540020179521,14.,0.632531372615665,            161P    269
30.2540020179521,28.5,-9.6765288425444,19.944941802792,14.,          161P    270
-9.6765288425444,19.944941802792,28.5,-19.9855890577045,             161P    271
9.63588158763198,14.,-19.9855890577045,9.63588158763198,28.5,        161P    272
-12.6959826719043,-2.99008703975237,14.,-12.6959826719043,           161P    273
-2.99008703975237,28.5,-5.40637628610421,-15.6160556671367,14.,      161P    274
-5.40637628610421,-15.6160556671367,28.5,8.6760618569479,            161P    275
-11.8426777392447,14.,8.6760618569479,-11.8426777392447,28.5,        161P    276
22.7585,-8.06929981135262,14.,22.7585,-8.06929981135262,28.5,        161P    277
22.7585,6.50991296024762,14.,22.7585,6.50991296024762,28.5,0.,       161P    278
0.763157894736842,-2.0943951023932,3.14159265358979;                 161P    279
128,1,4,1,2,0,0,0,0,0,0.,0.,12.3409711498126,12.3409711498126,       163P    280
0.,0.,0.,1.5707963267949,1.5707963267949,3.14159265358979,           163P    281
3.14159265358979,3.14159265358979,1.,1.,0.707106781186548,           163P    282
0.707106781186548,1.,1.,0.707106781186548,0.707106781186548,1.,      163P    283
1.,25.108396102013,6.50991296024762,28.5,25.108396102013,            163P    284
6.50991296024762,14.,25.108396102013,7.68486101125415,28.5,          163P    285
25.108396102013,7.68486101125415,14.,23.9334480510065,               163P    286
7.68486101125415,28.5,23.9334480510065,7.68486101125415,14.,         163P    287
22.7585,7.68486101125415,28.5,22.7585,7.68486101125415,14.,          163P    288
22.7585,6.50991296024762,28.5,22.7585,6.50991296024762,14.,0.,       163P    289
12.3409711498126,0.,3.14159265358979;                                163P    290
128,1,8,1,2,0,0,0,0,0,0.,0.,0.679160213741407,0.679160213741407,     165P    291
-2.09439510321325,-2.09439510321325,-2.09439510321325,               165P    292
-0.78539816401249,-0.78539816401249,0.523598775188271,               165P    293
0.523598775188271,1.83259571438903,1.83259571438903,                 165P    294
3.14159265358979,3.14159265358979,3.14159265358979,1.,1.,            165P    295
0.793353340228833,0.793353340228833,1.,1.,0.793353340228833,         165P    296
0.793353340228833,1.,1.,0.793353340228833,0.793353340228833,1.,      165P    297
1.,0.793353340228833,0.793353340228833,1.,1.,14.433448066169,        165P    298
24.9994653439952,28.5,14.433448066169,24.9994653439952,14.,          165P    299
0.245915523457473,33.190641092179,28.5,0.245915523457473,            165P    300
33.190641092179,14.,-11.3381563020766,21.6065692808944,28.5,         165P    301
-11.3381563020766,21.6065692808944,14.,-22.9222281276107,            165P    302
10.0224974696097,28.5,-22.9222281276107,10.0224974696097,14.,        165P    303
-14.7310523968787,-4.16503508317767,28.5,-14.7310523968787,          165P    304
-4.16503508317767,14.,-6.53987666614671,-18.352567635965,28.5,       165P    305
-6.53987666614671,-18.352567635965,14.,9.28425971793317,             165P    306
-14.1125030744079,28.5,9.28425971793317,-14.1125030744079,14.,       165P    307
25.108396102013,-9.87243851285088,28.5,25.108396102013,              165P    308
-9.87243851285088,14.,25.108396102013,6.50991296024762,28.5,         165P    309
25.108396102013,6.50991296024762,14.,0.,0.679160213741407,           165P    310
-2.09439510321325,3.14159265358979;                                  165P    311
128,1,4,1,2,0,0,0,0,0,0.,0.,12.3409711498126,12.3409711498126,       167P    312
-5.90570272273997D-17,-5.90570272273997D-17,                         167P    313
-5.90570272273997D-17,1.57079631934432,1.57079631934432,             167P    314
3.14159263868863,3.14159263868863,3.14159263868863,1.,1.,            167P    315
0.707106783820726,0.707106783820726,1.,1.,0.707106783820726,         167P    316
0.707106783820726,1.,1.,13.2585,22.964395632152,28.5,13.2585,        167P    317
22.964395632152,14.,14.2760348527174,22.3769216110257,28.5,          167P    318
14.2760348527174,22.3769216110257,14.,14.8635088814249,              167P    319
23.3944564593661,28.5,14.8635088814249,23.3944564593661,14.,         167P    320
15.4509829101324,24.4119913077065,28.5,15.4509829101324,             167P    321
24.4119913077065,14.,14.433448066169,24.9994653439952,28.5,          167P    322
14.433448066169,24.9994653439952,14.,0.,12.3409711498126,            167P    323
-5.90570272273997D-17,3.14159263868863;                              167P    324
128,1,1,1,1,0,0,1,0,0,-0.001,-0.001,2.16733155760021,                169P    325
2.16733155760021,-0.001,-0.001,0.151,0.151,1.,1.,1.,1.,              169P    326
7.68219968094091,13.2886396532034,13.99,-14.0011158950612,           169P    327
13.2886396532034,13.99,7.68219968094091,13.2886396532034,15.51,      169P    328
-14.0011158950612,13.2886396532034,15.51,-0.001,                     169P    329
2.16733155760021,-0.001,0.151;                                       169P    330
128,1,1,1,1,0,0,1,0,0,-0.001,-0.001,0.783739936188181,               171P    331
0.783739936188181,-0.001,-0.001,0.151,0.151,1.,1.,1.,1.,             171P    332
11.5908993618818,6.50125270620978,13.99,7.66719968094091,            171P    333
13.2972999072412,13.99,11.5908993618818,6.50125270620978,15.51,      171P    334
7.66719968094091,13.2972999072412,15.51,-0.001,                      171P    335
0.783739936188181,-0.001,0.151;                                      171P    336
128,1,1,1,1,0,0,1,0,0,-0.783739936188181,-0.783739936188181,         173P    337
2.09858093567841,2.09858093567841,-0.678872669295576,                173P    338
-0.678872669295576,1.87709816190169,1.87709816190169,1.,1.,1.,       173P    339
1.,11.5958993618818,13.2986396532034,15.5,-17.2273093567841,         173P    340
13.2986396532034,15.5,11.5958993618818,-12.2610686587693,15.5,       173P    341
-17.2273093567841,-12.2610686587693,15.5,-0.783739936188181,         173P    342
2.09858093567841,-0.678872669295576,1.87709816190169;                173P    343
128,1,1,1,1,0,0,1,0,0,-0.768219968094091,-0.768219968094091,         175P    344
0.0165199680940905,0.0165199680940905,-0.001,-0.001,                 175P    345
1.40125805058529,1.40125805058529,1.,1.,1.,1.,                       175P    346
-0.165199680940906,0.000191974423996907,-0.00999815712121646,        175P    347
7.68219968094091,0.000191974423996427,-0.00999815712121646,          175P    348
-0.165199680940906,-0.269005707132126,14.0099981571212,              175P    349
7.68219968094091,-0.269005707132127,14.0099981571212,                175P    350
-0.768219968094091,0.0165199680940905,-0.001,1.40125805058529;       175P    351
128,1,1,1,1,0,0,1,0,0,-0.768219968094091,-0.768219968094091,         177P    352
0.0165199680940907,0.0165199680940907,-0.001,-0.001,                 177P    353
1.40125805058529,1.40125805058529,1.,1.,1.,1.,-3.84093358574239,     177P    354
6.65307606785154,-0.00999815712121647,0.0827660951985119,            177P    355
-0.142971133179911,-0.00999815712121647,-4.07406561660987,           177P    356
6.51847722707347,14.0099981571212,-0.150365935668964,                177P    357
-0.277569973957973,14.0099981571212,-0.768219968094091,              177P    358
0.0165199680940907,-0.001,1.40125805058529;                          177P    359
128,1,1,1,1,0,0,1,0,0,-0.76821996809409,-0.76821996809409,           179P    360
0.0165199680940907,0.0165199680940907,-0.00100000000000011,          179P    361
-0.00100000000000011,1.40125805058529,1.40125805058529,1.,1.,1.,     179P    362
1.,0.0827660951985135,13.1627970536752,-0.00999815712121755,         179P    363
-3.84093358574239,6.36674985264372,-0.00999815712121755,             179P    364
-0.150365935668963,13.2973958944532,14.0099981571212,                179P    365
-4.07406561660987,6.50134869342178,14.0099981571212,                 179P    366
-0.76821996809409,0.0165199680940907,-0.00100000000000011,           179P    367
1.40125805058529;                                                    179P    368
128,1,1,1,1,0,0,1,0,0,-0.768219968094091,-0.768219968094091,         181P    369
0.0165199680940908,0.0165199680940908,-0.001,-0.001,                 181P    370
1.40125805058529,1.40125805058529,1.,1.,1.,1.,7.68219968094091,      181P    371
13.0196339460713,-0.00999815712121648,-0.165199680940907,            181P    372
13.0196339460712,-0.00999815712121648,7.68219968094091,              181P    373
13.2888316276274,14.0099981571212,-0.165199680940907,                181P    374
13.2888316276274,14.0099981571212,-0.768219968094091,                181P    375
0.0165199680940908,-0.001,1.40125805058529;                          181P    376
128,1,1,1,1,0,0,1,0,0,-0.768219968094091,-0.768219968094091,         183P    377
0.0165199680940908,0.0165199680940908,-0.001,-0.001,                 183P    378
1.40125805058529,1.40125805058529,1.,1.,1.,1.,11.3579335857424,      183P    379
6.36674985264372,-0.00999815712121647,7.43423390480149,              183P    380
13.1627970536752,-0.00999815712121647,11.5910656166099,              183P    381
6.50134869342178,14.0099981571212,7.66736593566897,                  183P    382
13.2973958944532,14.0099981571212,-0.768219968094091,                183P    383
0.0165199680940908,-0.001,1.40125805058529;                          183P    384
128,1,1,1,1,0,0,1,0,0,-0.768219968094091,-0.768219968094091,         185P    385
0.0165199680940907,0.0165199680940907,-0.001,-0.001,                 185P    386
1.40125805058529,1.40125805058529,1.,1.,1.,1.,7.43423390480149,      185P    387
-0.142971133179913,-0.00999815712121646,11.3579335857424,            185P    388
6.65307606785153,-0.00999815712121646,7.66736593566896,              185P    389
-0.277569973957974,14.0099981571212,11.5910656166099,                185P    390
6.51847722707347,14.0099981571212,-0.768219968094091,                185P    391
0.0165199680940907,-0.001,1.40125805058529;                          185P    392
128,1,1,1,1,0,0,1,0,0,-0.7527,-0.7527,0.7527,0.7527,                 187P    393
-0.651991296024763,-0.651991296024763,0.651991296024763,             187P    394
0.651991296024763,1.,1.,1.,1.,11.2855,-0.01,0.,-3.7685,-0.01,0.,     187P    395
11.2855,13.0298259204953,0.,-3.7685,13.0298259204953,0.,-0.7527,     187P    396
0.7527,-0.651991296024763,0.651991296024763;                         187P    397
502,26,13.2585,22.964395632152,28.5,14.433448066169,                 189P    398
24.9994653439952,28.5,25.108396102013,6.50991296024762,28.5,         189P    399
22.7585,6.50991296024762,28.5,-0.155199680940907,                    189P    400
13.2886396532034,14.,-13.9911158950612,13.2886396532034,14.,         189P    401
-4.06889936188181,6.50991296024763,14.,-0.155199680940906,           189P    402
-0.26881373270813,14.,7.67219968094091,-0.268813732708129,14.,       189P    403
0.754241573880754,-12.2510686587693,14.,22.7585,                     189P    404
6.50991296024762,14.,25.108396102013,6.50991296024762,14.,           189P    405
14.433448066169,24.9994653439952,14.,13.2585,22.964395632152,        189P    406
14.,11.5858993618818,6.50991296024763,14.,11.5858993618818,          189P    407
6.50991296024763,15.5,0.754241573880754,-12.2510686587693,15.5,      189P    408
-13.9911158950612,13.2886396532034,15.5,7.67219968094091,            189P    409
13.2886396532034,14.,7.67219968094091,13.2886396532034,15.5,0.,      189P    410
0.,0.,7.517,-4.60283499459533D-16,0.,-3.7585,6.50991296024763,       189P    411
0.,1.11022302462516D-15,13.0198259204952,0.,7.517,                   189P    412
13.0198259204953,0.,11.2755,6.50991296024763,0.;                     189P    413
504,41,73,189,1,189,2,75,189,2,189,3,77,189,3,189,4,79,189,4,        191P    414
189,1,81,189,5,189,6,83,189,7,189,5,85,189,8,189,7,87,189,9,189,     191P    415
8,89,189,9,189,10,91,189,10,189,11,93,189,12,189,11,95,189,13,       191P    416
189,12,97,189,14,189,13,99,189,14,189,6,101,189,15,189,9,103,        191P    417
189,15,189,16,105,189,17,189,16,107,189,10,189,17,109,189,18,        191P    418
189,17,111,189,6,189,18,113,189,14,189,1,115,189,11,189,4,117,       191P    419
189,12,189,3,119,189,13,189,2,121,189,5,189,19,123,189,20,189,       191P    420
18,125,189,19,189,20,127,189,19,189,15,129,189,16,189,20,131,        191P    421
189,21,189,8,133,189,22,189,21,135,189,22,189,9,137,189,23,189,      191P    422
7,139,189,21,189,23,141,189,24,189,5,143,189,23,189,24,145,189,      191P    423
25,189,19,147,189,24,189,25,149,189,26,189,15,151,189,25,189,26,     191P    424
153,189,26,189,22;                                                   191P    425
406,1,5HBody1;                                                       193P    426
314,62.7450980392157,62.7450980392157,62.7450980392157,13HSteel      195P    427
- Satin;                                                             195P    428
S      1G      3D    196P    428                                        T      1
