                                                                        S      1
,,18Hlack table join v6,18Hlack table join v6,7Hunknown,7Hunknown,32,38,G      1
7,99,15,,1.,2,2HMM,1,0.08,15H20250912.001554,0.01,10000.,7Hunknown,7HunkG      2
nown,11,0,15H20231130.110243;                                           G      3
     186       1                                                00000000D      1
     186            -183       1       0                               0D      2
     514       2                                                00010000D      3
     514                       2       1                               0D      4
     510       4                                                00010000D      5
     510            -183       1       1                               0D      6
     510       5                                                00010000D      7
     510            -183       1       1                               0D      8
     510       6                                                00010000D      9
     510            -183       1       1                               0D     10
     510       7                                                00010000D     11
     510            -183       1       1                               0D     12
     510       8                                                00010000D     13
     510            -183       1       1                               0D     14
     510       9                                                00010000D     15
     510            -183       1       1                               0D     16
     510      10                                                00010000D     17
     510            -183       1       1                               0D     18
     510      11                                                00010000D     19
     510            -183       1       1                               0D     20
     510      12                                                00010000D     21
     510            -183       1       1                               0D     22
     510      13                                                00010000D     23
     510            -183       1       1                               0D     24
     510      14                                                00010000D     25
     510            -183       1       1                               0D     26
     510      15                                                00010000D     27
     510            -183       1       1                               0D     28
     510      16                                                00010000D     29
     510            -183       1       1                               0D     30
     510      17                                                00010000D     31
     510            -183       1       1                               0D     32
     510      18                                                00010000D     33
     510            -183       1       1                               0D     34
     510      19                                                00010000D     35
     510            -183       1       1                               0D     36
     508      20                                                00010000D     37
     508                       1       1                               0D     38
     508      21                                                00010000D     39
     508                       1       1                               0D     40
     508      22                                                00010000D     41
     508                       1       1                               0D     42
     508      23                                                00010000D     43
     508                       1       1                               0D     44
     508      24                                                00010000D     45
     508                       1       1                               0D     46
     508      25                                                00010000D     47
     508                       1       1                               0D     48
     508      26                                                00010000D     49
     508                       1       1                               0D     50
     508      27                                                00010000D     51
     508                       1       1                               0D     52
     508      28                                                00010000D     53
     508                       1       1                               0D     54
     508      29                                                00010000D     55
     508                       1       1                               0D     56
     508      30                                                00010000D     57
     508                       1       1                               0D     58
     508      31                                                00010000D     59
     508                       1       1                               0D     60
     508      32                                                00010000D     61
     508                       1       1                               0D     62
     508      33                                                00010000D     63
     508                       1       1                               0D     64
     508      34                                                00010000D     65
     508                       1       1                               0D     66
     508      35                                                00010000D     67
     508                       1       1                               0D     68
     508      36                                                00010000D     69
     508                       1       1                               0D     70
     508      37                                                00010000D     71
     508                       1       1                               0D     72
     126      38                                                00010000D     73
     126       0               2       0                               0D     74
     126      40                                                00010000D     75
     126       0               2       0                               0D     76
     126      42                                                00010000D     77
     126       0               2       0                               0D     78
     126      44                                                00010000D     79
     126       0               2       0                               0D     80
     126      46                                                00010000D     81
     126       0               2       0                               0D     82
     126      48                                                00010000D     83
     126       0               2       0                               0D     84
     126      50                                                00010000D     85
     126       0               2       0                               0D     86
     126      52                                                00010000D     87
     126       0               3       0                               0D     88
     126      55                                                00010000D     89
     126       0               4       0                               0D     90
     126      59                                                00010000D     91
     126       0               2       0                               0D     92
     126      61                                                00010000D     93
     126       0               2       0                               0D     94
     126      63                                                00010000D     95
     126       0               2       0                               0D     96
     126      65                                                00010000D     97
     126       0               2       0                               0D     98
     126      67                                                00010000D     99
     126       0               2       0                               0D    100
     126      69                                                00010000D    101
     126       0               2       0                               0D    102
     126      71                                                00010000D    103
     126       0               2       0                               0D    104
     126      73                                                00010000D    105
     126       0               2       0                               0D    106
     126      75                                                00010000D    107
     126       0               2       0                               0D    108
     126      77                                                00010000D    109
     126       0               2       0                               0D    110
     126      79                                                00010000D    111
     126       0               2       0                               0D    112
     126      81                                                00010000D    113
     126       0               2       0                               0D    114
     126      83                                                00010000D    115
     126       0               2       0                               0D    116
     126      85                                                00010000D    117
     126       0               2       0                               0D    118
     126      87                                                00010000D    119
     126       0               2       0                               0D    120
     126      89                                                00010000D    121
     126       0               2       0                               0D    122
     126      91                                                00010000D    123
     126       0               2       0                               0D    124
     126      93                                                00010000D    125
     126       0               2       0                               0D    126
     126      95                                                00010000D    127
     126       0               2       0                               0D    128
     126      97                                                00010000D    129
     126       0               2       0                               0D    130
     126      99                                                00010000D    131
     126       0               2       0                               0D    132
     126     101                                                00010000D    133
     126       0               2       0                               0D    134
     126     103                                                00010000D    135
     126       0               2       0                               0D    136
     126     105                                                00010000D    137
     126       0               2       0                               0D    138
     126     107                                                00010000D    139
     126       0               2       0                               0D    140
     126     109                                                00010000D    141
     126       0               2       0                               0D    142
     126     111                                                00010000D    143
     126       0               2       0                               0D    144
     128     113                                                00010000D    145
     128       0    -183       3       0                               0D    146
     128     116                                                00010000D    147
     128       0    -183       4       0                               0D    148
     128     120                                                00010000D    149
     128       0    -183       4       0                               0D    150
     128     124                                                00010000D    151
     128       0    -183       5       0                               0D    152
     128     129                                                00010000D    153
     128       0    -183       3       0                               0D    154
     128     132                                                00010000D    155
     128       0    -183       3       0                               0D    156
     128     135                                                00010000D    157
     128       0    -183       3       0                               0D    158
     128     138                                                00010000D    159
     128       0    -183       3       0                               0D    160
     128     141                                                00010000D    161
     128       0    -183       3       0                               0D    162
     128     144                                                00010000D    163
     128       0    -183       3       0                               0D    164
     128     147                                                00010000D    165
     128       0    -183       4       0                               0D    166
     128     151                                                00010000D    167
     128       0    -183       5       0                               0D    168
     128     156                                                00010000D    169
     128       0    -183       5       0                               0D    170
     128     161                                                00010000D    171
     128       0    -183       5       0                               0D    172
     128     166                                                00010000D    173
     128       0    -183       4       0                               0D    174
     128     170                                                00010000D    175
     128       0    -183       4       0                               0D    176
     502     174                                                00010000D    177
     502                       7       1                               0D    178
     504     181                                                00010001D    179
     504                      10       1                               0D    180
     406     191                                                00000000D    181
     406                       1      15                               0D    182
     314     192                                                00000200D    183
     314                       2       0                               0D    184
186,3,1,0,0,1,181;                                                     1P      1
514,16,5,1,7,1,9,1,11,1,13,1,15,1,17,1,19,1,21,1,23,1,25,1,27,1,       3P      2
29,1,31,1,33,1,35,1;                                                   3P      3
510,145,1,1,37;                                                        5P      4
510,147,1,1,39;                                                        7P      5
510,149,1,1,41;                                                        9P      6
510,151,1,1,43;                                                       11P      7
510,153,1,1,45;                                                       13P      8
510,155,1,1,47;                                                       15P      9
510,157,1,1,49;                                                       17P     10
510,159,1,1,51;                                                       19P     11
510,161,2,1,53,55;                                                    21P     12
510,163,2,1,57,59;                                                    23P     13
510,165,1,1,61;                                                       25P     14
510,167,1,1,63;                                                       27P     15
510,169,1,1,65;                                                       29P     16
510,171,1,1,67;                                                       31P     17
510,173,1,1,69;                                                       33P     18
510,175,1,1,71;                                                       35P     19
508,4,0,179,1,0,0,0,179,2,1,0,0,179,3,0,0,0,179,4,0,0;                37P     20
508,4,0,179,5,0,0,0,179,6,1,0,0,179,7,0,0,0,179,2,0,0;                39P     21
508,4,0,179,8,0,0,0,179,4,1,0,0,179,9,0,0,0,179,10,0,0;               41P     22
508,4,0,179,11,0,0,0,179,10,1,0,0,179,12,0,0,0,179,6,0,0;             43P     23
508,4,0,179,13,1,0,0,179,14,1,0,0,179,15,0,0,0,179,16,0,0;            45P     24
508,4,0,179,17,1,0,0,179,16,1,0,0,179,18,0,0,0,179,19,0,0;            47P     25
508,4,0,179,20,1,0,0,179,19,1,0,0,179,21,0,0,0,179,22,0,0;            49P     26
508,4,0,179,23,1,0,0,179,22,1,0,0,179,24,0,0,0,179,14,0,0;            51P     27
508,4,0,179,24,1,0,0,179,21,1,0,0,179,18,1,0,0,179,15,1,0;            53P     28
508,4,0,179,7,1,0,0,179,12,1,0,0,179,9,1,0,0,179,3,1,0;               55P     29
508,4,0,179,23,0,0,0,179,13,0,0,0,179,17,0,0,0,179,20,0,0;            57P     30
508,4,0,179,25,0,0,0,179,26,0,0,0,179,27,0,0,0,179,28,0,0;            59P     31
508,4,0,179,26,1,0,0,179,29,0,0,0,179,30,1,0,0,179,31,1,0;            61P     32
508,4,0,179,25,1,0,0,179,32,0,0,0,179,33,1,0,0,179,29,1,0;            63P     33
508,4,0,179,28,1,0,0,179,34,0,0,0,179,35,1,0,0,179,32,1,0;            65P     34
508,4,0,179,27,1,0,0,179,31,0,0,0,179,36,1,0,0,179,34,1,0;            67P     35
508,4,0,179,5,1,0,0,179,1,1,0,0,179,8,1,0,0,179,11,1,0;               69P     36
508,4,0,179,33,0,0,0,179,35,0,0,0,179,36,0,0,0,179,30,0,0;            71P     37
126,1,1,0,0,1,0,-5.06,-5.06,0.,0.,1.,1.,-50.6,50.6,200.,-50.6,        73P     38
-4.62223186652937D-32,200.,-5.06,0.,0.,0.,0.;                         73P     39
126,1,1,0,0,1,0,0.5,0.5,2.5,2.5,1.,1.,-50.6,50.6,200.,-50.6,          75P     40
50.6,220.,0.5,2.5,0.,0.,0.;                                           75P     41
126,1,1,0,0,1,0,0.,0.,5.06,5.06,1.,1.,-50.6,                          77P     42
-4.62223186652937D-32,220.,-50.6,50.6,220.,0.,5.06,0.,0.,0.;          77P     43
126,1,1,0,0,1,0,0.5,0.5,2.5,2.5,1.,1.,-50.6,0.,200.,-50.6,0.,         79P     44
220.,0.5,2.5,0.,0.,0.;                                                79P     45
126,1,1,0,0,1,0,-5.06,-5.06,0.,0.,1.,1.,0.,50.6,200.,-50.6,50.6,      81P     46
200.,-5.06,0.,0.,0.,0.;                                               81P     47
126,1,1,0,0,1,0,0.5,0.5,2.5,2.5,1.,1.,0.,50.6,200.,0.,50.6,220.,      83P     48
0.5,2.5,0.,0.,0.;                                                     83P     49
126,1,1,0,0,1,0,0.,0.,5.06,5.06,1.,1.,-50.6,50.6,220.,0.,50.6,        85P     50
220.,0.,5.06,0.,0.,0.;                                                85P     51
126,1,1,0,0,1,0,-5.06,-5.06,0.,0.,1.,1.,-50.6,                        87P     52
-4.62223186652937D-32,200.,-1.71056941445901D-48,                     87P     53
-1.56257874652626D-81,200.,-5.06,0.,0.,0.,0.;                         87P     54
126,1,1,0,0,1,0,1.71056941445901D-49,1.71056941445901D-49,5.06,       89P     55
5.06,1.,1.,-1.71056941445901D-48,-1.56257874652626D-81,220.,          89P     56
-50.6,-4.62223186652937D-32,220.,1.71056941445901D-49,5.06,0.,        89P     57
0.,0.;                                                                89P     58
126,1,1,0,0,1,0,0.5,0.5,2.5,2.5,1.,1.,0.,0.,200.,0.,0.,220.,0.5,      91P     59
2.5,0.,0.,0.;                                                         91P     60
126,1,1,0,0,1,0,-5.06,-5.06,0.,0.,1.,1.,-1.71056941445901D-48,        93P     61
0.,200.,-1.54074395550979D-32,50.6,200.,-5.06,0.,0.,0.,0.;            93P     62
126,1,1,0,0,1,0,0.,0.,5.06,5.06,1.,1.,-1.54074395550979D-32,          95P     63
50.6,220.,-1.71056941445901D-48,0.,220.,0.,5.06,0.,0.,0.;             95P     64
126,1,1,0,0,1,0,0.,0.,5.84,5.84,1.,1.,-55.4,-3.,195.,3.,-3.,          97P     65
195.,0.,5.84,0.,0.,0.;                                                97P     66
126,1,1,0,0,1,0,0.,0.,2.5,2.5,1.,1.,3.,-3.,195.,3.,-3.,220.,0.,       99P     67
2.5,0.,0.,0.;                                                         99P     68
126,1,1,0,0,1,0,0.,0.,5.84,5.84,1.,1.,-55.4,-3.,220.,3.,-3.,         101P     69
220.,0.,5.84,0.,0.,0.;                                               101P     70
126,1,1,0,0,1,0,0.,0.,2.5,2.5,1.,1.,-55.4,-3.,195.,-55.4,-3.,        103P     71
220.,0.,2.5,0.,0.,0.;                                                103P     72
126,1,1,0,0,1,0,-5.54,-5.54,0.3,0.3,1.,1.,-55.4,55.4,195.,-55.4,     105P     73
-3.,195.,-5.54,0.3,0.,0.,0.;                                         105P     74
126,1,1,0,0,1,0,-5.54,-5.54,0.3,0.3,1.,1.,-55.4,55.4,220.,-55.4,     107P     75
-3.,220.,-5.54,0.3,0.,0.,0.;                                         107P     76
126,1,1,0,0,1,0,0.,0.,2.5,2.5,1.,1.,-55.4,55.4,195.,-55.4,55.4,      109P     77
220.,0.,2.5,0.,0.,0.;                                                109P     78
126,1,1,0,0,1,0,0.,0.,5.84,5.84,1.,1.,3.,55.4,195.,-55.4,55.4,       111P     79
195.,0.,5.84,0.,0.,0.;                                               111P     80
126,1,1,0,0,1,0,0.,0.,5.84,5.84,1.,1.,3.,55.4,220.,-55.4,55.4,       113P     81
220.,0.,5.84,0.,0.,0.;                                               113P     82
126,1,1,0,0,1,0,0.,0.,2.5,2.5,1.,1.,3.,55.4,195.,3.,55.4,220.,       115P     83
0.,2.5,0.,0.,0.;                                                     115P     84
126,1,1,0,0,1,0,-5.66,-5.66,0.18,0.18,1.,1.,3.,-3.,195.,3.,55.4,     117P     85
195.,-5.66,0.18,0.,0.,0.;                                            117P     86
126,1,1,0,0,1,0,-5.66,-5.66,0.18,0.18,1.,1.,3.,-3.,220.,3.,55.4,     119P     87
220.,-5.66,0.18,0.,0.,0.;                                            119P     88
126,1,1,0,0,1,0,-3.775,-3.775,1.245,1.245,1.,1.,-50.4,50.4,195.,     121P     89
-0.2,50.4,195.,-3.775,1.245,0.,0.,0.;                                121P     90
126,1,1,0,0,1,0,-3.775,-3.775,1.245,1.245,1.,1.,-50.4,0.2,195.,      123P     91
-50.4,50.4,195.,-3.775,1.245,0.,0.,0.;                               123P     92
126,1,1,0,0,1,0,-3.775,-3.775,1.245,1.245,1.,1.,-0.2,0.2,195.,       125P     93
-50.4,0.2,195.,-3.775,1.245,0.,0.,0.;                                125P     94
126,1,1,0,0,1,0,-3.775,-3.775,1.245,1.245,1.,1.,-0.2,50.4,195.,      127P     95
-0.2,0.2,195.,-3.775,1.245,0.,0.,0.;                                 127P     96
126,1,1,0,0,1,0,0.,0.,2.,2.,1.,1.,-50.4,50.4,175.,-50.4,50.4,        129P     97
195.,0.,2.,0.,0.,0.;                                                 129P     98
126,1,1,0,0,1,0,-1.245,-1.245,3.775,3.775,1.,1.,-50.4,50.4,175.,     131P     99
-50.4,0.2,175.,-1.245,3.775,0.,0.,0.;                                131P    100
126,1,1,0,0,1,0,0.,0.,2.,2.,1.,1.,-50.4,0.199999999999996,175.,      133P    101
-50.4,0.199999999999996,195.,0.,2.,0.,0.,0.;                         133P    102
126,1,1,0,0,1,0,0.,0.,2.,2.,1.,1.,-0.2,50.4,175.,-0.2,50.4,195.,     135P    103
0.,2.,0.,0.,0.;                                                      135P    104
126,1,1,0,0,1,0,-1.245,-1.245,3.775,3.775,1.,1.,-0.2,50.4,175.,      137P    105
-50.4,50.4,175.,-1.245,3.775,0.,0.,0.;                               137P    106
126,1,1,0,0,1,0,0.,0.,2.,2.,1.,1.,-0.2,0.2,175.,-0.2,0.2,195.,       139P    107
0.,2.,0.,0.,0.;                                                      139P    108
126,1,1,0,0,1,0,-1.245,-1.245,3.775,3.775,1.,1.,-0.2,0.2,175.,       141P    109
-0.2,50.4,175.,-1.245,3.775,0.,0.,0.;                                141P    110
126,1,1,0,0,1,0,-1.245,-1.245,3.775,3.775,1.,1.,-50.4,0.2,175.,      143P    111
-0.2,0.2,175.,-1.245,3.775,0.,0.,0.;                                 143P    112
128,1,1,1,1,0,0,1,0,0,-0.001,-0.001,5.061,5.061,0.499,0.499,         145P    113
2.501,2.501,1.,1.,1.,1.,-50.6,-0.01,199.99,-50.6,50.61,199.99,       145P    114
-50.6,-0.01,220.01,-50.6,50.61,220.01,-0.001,5.061,0.499,2.501;      145P    115
128,1,1,1,1,0,0,1,0,0,-0.001,-0.001,5.061,5.061,0.499,0.499,         147P    116
2.501,2.501,1.,1.,1.,1.,-50.61,50.6,199.99,0.0100000000000033,       147P    117
50.6,199.99,-50.61,50.6,220.01,0.0100000000000033,50.6,220.01,       147P    118
-0.001,5.061,0.499,2.501;                                            147P    119
128,1,1,1,1,0,0,1,0,0,-0.001,-0.001,5.061,5.061,0.499,0.499,         149P    120
2.501,2.501,1.,1.,1.,1.,0.01,9.13484558602641D-36,199.99,-50.61,     149P    121
-4.62314535108797D-32,199.99,0.01,9.13484558602641D-36,220.01,       149P    122
-50.61,-4.62314535108797D-32,220.01,-0.001,5.061,0.499,2.501;        149P    123
128,1,1,1,1,0,0,1,0,0,-0.001,-0.001,5.061,5.061,0.499,0.499,         151P    124
2.501,2.501,1.,1.,1.,1.,-1.54104845036266D-32,50.61,199.99,          151P    125
3.04494852867716D-36,-0.0100000000000033,199.99,                     151P    126
-1.54104845036266D-32,50.61,220.01,3.04494852867716D-36,             151P    127
-0.0100000000000033,220.01,-0.001,5.061,0.499,2.501;                 151P    128
128,1,1,1,1,0,0,1,0,0,-0.001,-0.001,5.841,5.841,-0.001,-0.001,       153P    129
2.501,2.501,1.,1.,1.,1.,-55.41,-3.,194.99,3.01,-3.,194.99,           153P    130
-55.41,-3.,220.01,3.01,-3.,220.01,-0.001,5.841,-0.001,2.501;         153P    131
128,1,1,1,1,0,0,1,0,0,-0.001,-0.001,5.841,5.841,-0.001,-0.001,       155P    132
2.501,2.501,1.,1.,1.,1.,-55.4,55.41,194.99,-55.4,-3.01,194.99,       155P    133
-55.4,55.41,220.01,-55.4,-3.01,220.01,-0.001,5.841,-0.001,2.501;     155P    134
128,1,1,1,1,0,0,1,0,0,-0.001,-0.001,5.841,5.841,-0.001,-0.001,       157P    135
2.501,2.501,1.,1.,1.,1.,3.01,55.4,194.99,-55.41,55.4,194.99,         157P    136
3.01,55.4,220.01,-55.41,55.4,220.01,-0.001,5.841,-0.001,2.501;       157P    137
128,1,1,1,1,0,0,1,0,0,-0.001,-0.001,5.841,5.841,-0.001,-0.001,       159P    138
2.501,2.501,1.,1.,1.,1.,3.,-3.01,194.99,3.,55.41,194.99,3.,          159P    139
-3.01,220.01,3.,55.41,220.01,-0.001,5.841,-0.001,2.501;              159P    140
128,1,1,1,1,0,0,1,0,0,-3.011,-3.011,2.831,2.831,-2.831,-2.831,       161P    141
3.011,3.011,1.,1.,1.,1.,-55.41,-3.01,220.,3.01,-3.01,220.,           161P    142
-55.41,55.41,220.,3.01,55.41,220.,-3.011,2.831,-2.831,3.011;         161P    143
128,1,1,1,1,0,0,1,0,0,-3.011,-3.011,2.831,2.831,-2.831,-2.831,       163P    144
3.011,3.011,1.,1.,1.,1.,3.01,-3.01,195.,-55.41,-3.01,195.,3.01,      163P    145
55.41,195.,-55.41,55.41,195.,-3.011,2.831,-2.831,3.011;              163P    146
128,1,1,1,1,0,0,1,0,0,0.0189999999999996,0.0189999999999996,         165P    147
5.041,5.041,-0.001,-0.001,2.001,2.001,1.,1.,1.,1.,-50.4,50.41,       165P    148
174.99,-50.4,0.189999999999992,174.99,-50.4,50.41,195.01,-50.4,      165P    149
0.189999999999992,195.01,0.0189999999999996,5.041,-0.001,2.001;      165P    150
128,1,1,1,1,0,0,1,0,0,0.0189999999999996,0.0189999999999996,         167P    151
5.041,5.041,-0.001,-0.001,2.001,2.001,1.,1.,1.,1.,                   167P    152
-0.189999999999996,50.4,174.99,-50.41,50.4,174.99,                   167P    153
-0.189999999999996,50.4,195.01,-50.41,50.4,195.01,                   167P    154
0.0189999999999996,5.041,-0.001,2.001;                               167P    155
128,1,1,1,1,0,0,1,0,0,0.0189999999999996,0.0189999999999996,         169P    156
5.041,5.041,-0.001,-0.001,2.001,2.001,1.,1.,1.,1.,-0.2,              169P    157
0.189999999999996,174.99,-0.2,50.41,174.99,-0.2,                     169P    158
0.189999999999996,195.01,-0.2,50.41,195.01,0.0189999999999996,       169P    159
5.041,-0.001,2.001;                                                  169P    160
128,1,1,1,1,0,0,1,0,0,0.0189999999999996,0.0189999999999996,         171P    161
5.041,5.041,-0.001,-0.001,2.001,2.001,1.,1.,1.,1.,-50.41,0.2,        171P    162
174.99,-0.189999999999992,0.2,174.99,-50.41,0.2,195.01,              171P    163
-0.189999999999992,0.2,195.01,0.0189999999999996,5.041,-0.001,       171P    164
2.001;                                                               171P    165
128,1,1,1,1,0,0,1,0,0,-2.531,-2.531,2.531,2.531,-2.531,-2.531,       173P    166
2.531,2.531,1.,1.,1.,1.,-50.61,-0.0099999999999989,200.,             173P    167
0.0099999999999989,-0.0099999999999989,200.,-50.61,50.61,200.,       173P    168
0.00999999999999446,50.61,200.,-2.531,2.531,-2.531,2.531;            173P    169
128,1,1,1,1,0,0,1,0,0,-2.511,-2.511,2.511,2.511,-2.511,-2.511,       175P    170
2.511,2.511,1.,1.,1.,1.,-0.189999999999997,0.189999999999997,        175P    171
175.,-50.41,0.189999999999997,175.,-0.190000000000001,50.41,         175P    172
175.,-50.41,50.41,175.,-2.511,2.511,-2.511,2.511;                    175P    173
502,24,-50.6,50.6,200.,-50.6,0.,200.,-50.6,50.6,220.,-50.6,0.,       177P    174
220.,0.,50.6,200.,0.,50.6,220.,0.,0.,200.,0.,0.,220.,-55.4,-3.,      177P    175
195.,3.,-3.,195.,3.,-3.,220.,-55.4,-3.,220.,-55.4,55.4,195.,         177P    176
-55.4,55.4,220.,3.,55.4,195.,3.,55.4,220.,-50.4,50.4,195.,-0.2,      177P    177
50.4,195.,-50.4,0.199999999999999,195.,-0.199999999999999,0.2,       177P    178
195.,-50.4,50.4,175.,-50.4,0.199999999999999,175.,-0.2,50.4,         177P    179
175.,-0.199999999999999,0.2,175.;                                    177P    180
504,36,73,177,1,177,2,75,177,1,177,3,77,177,4,177,3,79,177,2,        179P    181
177,4,81,177,5,177,1,83,177,5,177,6,85,177,3,177,6,87,177,2,177,     179P    182
7,89,177,8,177,4,91,177,7,177,8,93,177,7,177,5,95,177,6,177,8,       179P    183
97,177,9,177,10,99,177,10,177,11,101,177,12,177,11,103,177,9,        179P    184
177,12,105,177,13,177,9,107,177,14,177,12,109,177,13,177,14,111,     179P    185
177,15,177,13,113,177,16,177,14,115,177,15,177,16,117,177,10,        179P    186
177,15,119,177,11,177,16,121,177,17,177,18,123,177,19,177,17,        179P    187
125,177,20,177,19,127,177,18,177,20,129,177,21,177,17,131,177,       179P    188
21,177,22,133,177,22,177,19,135,177,23,177,18,137,177,23,177,21,     179P    189
139,177,24,177,20,141,177,24,177,23,143,177,22,177,24;               179P    190
406,1,5HBody2;                                                       181P    191
314,62.7450980392157,62.7450980392157,62.7450980392157,13HSteel      183P    192
- Satin;                                                             183P    193
S      1G      3D    184P    193                                        T      1
