0
SECTION
2
HEADER
9
$INSUNITS
70
4
9
$ACADVER
1
AC1014
9
$HANDSEED
5
FFFF
0
ENDSEC
0
SECTION
2
TABLES
0
TABLE
2
VPORT
5
8
100
AcDbSymbolTable
0
ENDTAB
0
TABLE
2
LTYPE
5
5
100
AcDbSymbolTable
0
LTYPE
5
14
100
AcDbSymbolTableRecord
100
AcDbLinetypeTableRecord
2
BYBLOCK
70
0
0
LTYPE
5
15
100
AcDbSymbolTableRecord
100
AcDbLinetypeTableRecord
2
BYLAYER
70
0
0
LTYPE
5
16
100
AcDbSymbolTableRecord
100
AcDbLinetypeTableRecord
2
DASHED
70
0
3
Dashed __ __ __ __ __ __ __ __ __ __ __ __ __ _
72
65
73
2
40
0.75
49
0.5
74
0
49
-0.25
74
0
0
ENDTAB
0
TABLE
2
LAYER
5
2
100
AcDbSymbolTable
70
2
0
LAYER
5
50
100
AcDbSymbolTableRecord
100
AcDbLayerTableRecord
2
0
70
0
62
7
6
CONTINUOUS
0
ENDTAB
0
TABLE
2
STYLE
5
3
100
AcDbSymbolTable
70
1
0
STYLE
5
11
100
AcDbSymbolTableRecord
100
AcDbTextStyleTableRecord
2
STANDARD
70
0
0
ENDTAB
0
TABLE
2
VIEW
5
6
100
AcDbSymbolTable
70
0
0
ENDTAB
0
TABLE
2
UCS
5
7
100
AcDbSymbolTable
70
0
0
ENDTAB
0
TABLE
2
APPID
5
9
100
AcDbSymbolTable
70
2
0
APPID
5
12
100
AcDbSymbolTableRecord
100
AcDbRegAppTableRecord
2
ACAD
70
0
0
ENDTAB
0
TABLE
2
DIMSTYLE
5
A
100
AcDbSymbolTable
70
1
0
ENDTAB
0
TABLE
2
BLOCK_RECORD
5
1
100
AcDbSymbolTable
70
1
0
BLOCK_RECORD
5
1F
100
AcDbSymbolTableRecord
100
AcDbBlockTableRecord
2
*MODEL_SPACE
0
BLOCK_RECORD
5
1B
100
AcDbSymbolTableRecord
100
AcDbBlockTableRecord
2
*PAPER_SPACE
0
ENDTAB
0
ENDSEC
0
SECTION
2
BLOCKS
0
BLOCK
5
20
100
AcDbEntity
100
AcDbBlockBegin
2
*MODEL_SPACE
0
ENDBLK
5
21
100
AcDbEntity
100
AcDbBlockEnd
0
BLOCK
5
1C
100
AcDbEntity
100
AcDbBlockBegin
2
*PAPER_SPACE
0
ENDBLK
5
1D
100
AcDbEntity
100
AcDbBlockEnd
0
ENDSEC
0
SECTION
2
ENTITIES
0
LINE
5
100
100
AcDbEntity
8
0
100
AcDbLine
10
-11.99392211353274
20
-15.545907804205692
30
0
11
0.16245071306279502
21
-14.461185305832554
31
0
0
LINE
5
101
100
AcDbEntity
8
0
100
AcDbLine
10
0.16245071306279502
20
-14.461185305832554
30
0
11
0.16245071306279626
21
-17.936789665383955
31
0
0
LINE
5
102
100
AcDbEntity
8
0
100
AcDbLine
10
0.16245071306279724
20
-21.031071303674306
30
0
11
6.0509907865813446
21
-21.031071303674306
31
0
0
LINE
5
103
100
AcDbEntity
8
0
100
AcDbLine
10
6.0509907865813446
20
-21.031071303674306
30
0
11
6.0509907865813464
21
-17.985932650137446
31
0
0
LINE
5
104
100
AcDbEntity
8
0
100
AcDbLine
10
6.0509907865813464
20
-17.985932650137446
30
0
11
6.0509907865813464
21
-13.847102013617931
31
0
0
LINE
5
105
100
AcDbEntity
8
0
100
AcDbLine
10
6.0509907865813464
20
-13.847102013617931
30
0
11
7.524090823716918
21
-13.478827004334036
31
0
0
LINE
5
106
100
AcDbEntity
8
0
100
AcDbLine
10
7.524090823716918
20
-13.478827004334036
30
0
11
7.524090823716918
21
-10.815472896807098
31
0
0
LINE
5
107
100
AcDbEntity
8
0
100
AcDbLine
10
7.524090823716918
20
-10.815472896807098
30
0
11
6.4110473160937209
21
-10.815472896807098
31
0
0
LINE
5
108
100
AcDbEntity
8
0
100
AcDbLine
10
6.4110473160937209
20
-10.815472896807098
30
0
11
5.9340286699695
21
5.6814219483224537
31
0
0
LINE
5
109
100
AcDbEntity
8
0
100
AcDbLine
10
5.9340286699695
20
5.6814219483224537
30
0
11
14.759540573204859
21
5.9366174732352794
31
0
0
LINE
5
110
100
AcDbEntity
8
0
100
AcDbLine
10
14.759540573204859
20
5.9366174732352794
30
0
11
14.759540573204859
21
9.6963288865347064
31
0
0
LINE
5
111
100
AcDbEntity
8
0
100
AcDbLine
10
14.759540573204859
20
9.6963288865347064
30
0
11
20.363842715227392
21
9.6963288865347064
31
0
0
LINE
5
112
100
AcDbEntity
8
0
100
AcDbLine
10
20.363842715227392
20
9.6963288865347064
30
0
11
20.833806641889829
21
7.8164731798849925
31
0
0
LINE
5
113
100
AcDbEntity
8
0
100
AcDbLine
10
20.833806641889829
20
7.8164731798849925
30
0
11
23.583718576565929
21
8.7564010332098494
31
0
0
LINE
5
114
100
AcDbEntity
8
0
100
AcDbLine
10
23.583718576565929
20
8.7564010332098494
30
0
11
23.262448517581319
21
9.6963288865347064
31
0
0
LINE
5
115
100
AcDbEntity
8
0
100
AcDbLine
10
23.262448517581319
20
9.6963288865347064
30
0
11
25.373072658915913
21
9.7573589821877533
31
0
0
LINE
5
116
100
AcDbEntity
8
0
100
AcDbLine
10
25.373072658915913
20
9.7573589821877533
30
0
11
25.323186971610099
21
11.482572334847102
31
0
0
LINE
5
117
100
AcDbEntity
8
0
100
AcDbLine
10
25.323186971610099
20
11.482572334847102
30
0
11
21.397383115163215
21
19.157198701331886
31
0
0
LINE
5
118
100
AcDbEntity
8
0
100
AcDbLine
10
21.397383115163215
20
19.157198701331886
30
0
11
-10.761623944378487
21
19.157198701331886
31
0
0
LINE
5
119
100
AcDbEntity
8
0
100
AcDbLine
10
-10.761623944378487
20
19.157198701331886
30
0
11
-24.952928666574273
21
-3.7794478664747411
31
0
6
DASHED
0
LINE
5
120
100
AcDbEntity
8
0
100
AcDbLine
10
-24.952928666574273
20
-3.7794478664747411
30
0
11
-10.761623944378487
21
0.19570751789382612
31
0
0
LINE
5
121
100
AcDbEntity
8
0
100
AcDbLine
10
-10.761623944378487
20
0.19570751789382612
30
0
11
-11.516903467408515
21
-12.56454126592927
31
0
0
LINE
5
122
100
AcDbEntity
8
0
100
AcDbLine
10
-11.516903467408515
20
-12.56454126592927
30
0
11
-12.43118920581329
21
-13.280069235115617
31
0
0
LINE
5
123
100
AcDbEntity
8
0
100
AcDbLine
10
-12.43118920581329
20
-13.280069235115617
30
0
11
-11.99392211353274
21
-15.545907804205692
31
0
0
LINE
5
124
100
AcDbEntity
8
0
100
AcDbLine
10
0.16245071306279613
20
-17.936789665383955
30
0
11
0.16245071306279724
21
-21.031071303674306
31
0
0
SPLINE
5
125
100
AcDbEntity
8
0
100
AcDbSpline
70
4
71
5
72
16
73
10
74
0
42
0.000000001
43
0.0000000001
44
0.0000000001
40
0
40
0
40
0
40
0
40
0
40
0
40
0.20000000000000001
40
0.40000000000000002
40
0.60000000000000009
40
0.80000000000000004
40
1
40
1
40
1
40
1
40
1
40
1
41
1
41
1
41
1
41
1
41
1
41
1
41
1
41
1
41
1
41
1
10
-24.952928666574273
20
-3.7794478664747411
30
0
10
-24.984425626138393
20
-3.0226148318506754
30
0
10
-24.977765426457083
20
-1.4902743839085963
30
0
10
-24.758900625896295
20
0.86423586991829737
30
0
10
-24.02030169677171
20
4.1233650791951861
30
0
10
-21.988128889272506
20
8.4945808967102252
30
0
10
-18.916251719335119
20
12.379265668416064
30
0
10
-15.390298171842048
20
15.620411611421897
30
0
10
-12.40961741221196
20
17.950091644292819
30
0
10
-10.761623944378487
20
19.157198701331886
30
0
0
LWPOLYLINE
5
126
100
AcDbEntity
8
0
100
AcDbPolyline
90
4
70
1
43
0.0
10
-4.3282072351661327
20
6.8179339793905331
10
-5.7934087449043936
20
-4.3638670159804231
42
0.99999999999999989
10
1.8391402995078376
20
-4.1431668026480235
10
1.4842933973594459
20
8.1286218966507011
0
LINE
5
127
100
AcDbEntity
8
0
100
AcDbLine
10
-5.7934087449043936
20
-4.3638670159804231
30
0
11
1.8391402995078376
21
-4.1431668026480235
31
0
6
DASHED
0
LINE
5
128
100
AcDbEntity
8
0
100
AcDbLine
10
6.8509907865813471
20
-17.985932650137446
30
0
11
6.8509907865813453
21
-14.471723138741464
31
0
0
LINE
5
129
100
AcDbEntity
8
0
100
AcDbLine
10
6.8509907865813453
20
-14.471723138741464
30
0
11
8.3240908237169187
21
-14.103448129457568
31
0
0
LINE
5
130
100
AcDbEntity
8
0
100
AcDbLine
10
8.3240908237169187
20
-14.103448129457568
30
0
11
8.3240908237169187
21
-10.015472896807097
31
0
0
LINE
5
131
100
AcDbEntity
8
0
100
AcDbLine
10
8.3240908237169187
20
-10.015472896807097
30
0
11
7.1882491623121378
21
-10.015472896807097
31
0
0
LINE
5
132
100
AcDbEntity
8
0
100
AcDbLine
10
7.1882491623121378
20
-10.015472896807097
30
0
11
6.7568172987782447
21
4.9048790504069384
31
0
0
LINE
5
133
100
AcDbEntity
8
0
100
AcDbLine
10
6.7568172987782447
20
4.9048790504069384
30
0
11
15.55954057320486
21
5.1594156270168607
31
0
0
LINE
5
134
100
AcDbEntity
8
0
100
AcDbLine
10
15.55954057320486
20
5.1594156270168607
30
0
11
15.55954057320486
21
8.8963288865347057
31
0
0
LINE
5
135
100
AcDbEntity
8
0
100
AcDbLine
10
15.55954057320486
20
8.8963288865347057
30
0
11
19.739221590103863
21
8.8963288865347057
31
0
0
LINE
5
136
100
AcDbEntity
8
0
100
AcDbLine
10
19.739221590103863
20
8.8963288865347057
30
0
11
20.268823975856556
21
6.7779193435239726
31
0
0
LINE
5
137
100
AcDbEntity
8
0
100
AcDbLine
10
20.268823975856556
20
6.7779193435239726
30
0
11
24.599465059494271
21
8.2581449921840537
31
0
0
LINE
5
138
100
AcDbEntity
8
0
100
AcDbLine
10
24.599465059494271
20
8.2581449921840537
30
0
11
24.370494920153938
21
8.9280344061738113
31
0
0
LINE
5
139
100
AcDbEntity
8
0
100
AcDbLine
10
24.370494920153938
20
8.9280344061738113
30
0
11
26.195861287724661
21
8.9808160842722398
31
0
0
LINE
5
140
100
AcDbEntity
8
0
100
AcDbLine
10
26.195861287724661
20
8.9808160842722398
30
0
11
26.117634385357604
21
11.686163124466155
31
0
0
LINE
5
141
100
AcDbEntity
8
0
100
AcDbLine
10
26.117634385357604
20
11.686163124466155
30
0
11
21.886749152134016
21
19.95719870133189
31
0
0
LINE
5
142
100
AcDbEntity
8
0
100
AcDbLine
10
21.886749152134016
20
19.95719870133189
30
0
11
-11.023271836316706
21
19.957198701331883
31
0
0
SPLINE
5
143
100
AcDbEntity
8
0
100
AcDbSpline
70
0
71
3
72
20
73
16
74
0
42
0.000000001
43
0.0000000001
44
0.0000000001
40
-0.053362035721321893
40
-0.053362035721321893
40
-0.053362035721321893
40
-0.053362035721321893
40
0
40
0
40
0
40
0.36194247288265302
40
0.36194247288265302
40
0.36194247288265302
40
0.78536233986901927
40
0.78536233986901927
40
0.78536233986901927
40
1
40
1
40
1
40
1.0051233445510592
40
1.0051233445510592
40
1.0051233445510592
40
1.0051233445510592
10
-25.71021823534533
20
-4.822366288182967
30
0
10
-25.72422441769011
20
-4.4858150262772538
30
0
10
-25.738230600034893
20
-4.1492637643715389
30
0
10
-25.752236782379676
20
-3.8127125024658257
30
0
10
-25.850965847311965
20
-1.4403750180751342
30
0
10
-25.593613909416504
20
1.0191351831454076
30
0
10
-24.772775846737616
20
3.6374830805267013
30
0
10
-23.812515116492992
20
6.7005679669270402
30
0
10
-22.074019548628122
20
9.9735289409992021
30
0
10
-18.421624314746463
20
13.709712330392776
30
0
10
-16.570172297500545
20
15.603637776610668
30
0
10
-14.208731598102895
20
17.623942512263877
30
0
10
-11.234352795156866
20
19.802588067251218
30
0
10
-11.163992475543481
20
19.854124945278102
30
0
10
-11.093632155930099
20
19.905661823304985
30
0
10
-11.023271836316722
20
19.957198701331865
30
0
0
LINE
5
144
100
AcDbEntity
8
0
100
AcDbLine
10
-25.71021823534533
20
-4.822366288182967
30
0
11
-11.62653888846009
21
-0.87735806776695735
31
0
0
LINE
5
145
100
AcDbEntity
8
0
100
AcDbLine
10
-11.62653888846009
20
-0.87735806776695735
30
0
11
-12.294179945533614
21
-12.156978032009068
31
0
0
LINE
5
146
100
AcDbEntity
8
0
100
AcDbLine
10
-12.294179945533614
20
-12.156978032009068
30
0
11
-13.309363851933171
21
-12.951469784843511
31
0
0
LINE
5
147
100
AcDbEntity
8
0
100
AcDbLine
10
-13.309363851933171
20
-12.951469784843511
30
0
11
-12.642514716621866
21
-16.406960758729301
31
0
0
LINE
5
148
100
AcDbEntity
8
0
100
AcDbLine
10
-12.642514716621866
20
-16.406960758729301
30
0
11
-0.63754928693720458
21
-15.33574845884975
31
0
0
LINE
5
149
100
AcDbEntity
8
0
100
AcDbLine
10
-0.63754928693720458
20
-15.33574845884975
30
0
11
-0.63754928693720392
21
-17.936789665383955
31
0
0
LINE
5
150
100
AcDbEntity
8
0
100
AcDbLine
10
-0.63754928693720392
20
-17.936789665383955
30
0
11
-0.63754928693720259
21
-21.831071303674307
31
0
0
LINE
5
151
100
AcDbEntity
8
0
100
AcDbLine
10
-0.63754928693720259
20
-21.831071303674307
30
0
11
6.8509907865813453
21
-21.831071303674307
31
0
0
LINE
5
152
100
AcDbEntity
8
0
100
AcDbLine
10
6.8509907865813453
20
-21.831071303674307
30
0
11
6.8509907865813471
21
-17.985932650137446
31
0
0
LWPOLYLINE
5
153
100
AcDbEntity
8
0
100
AcDbPolyline
90
4
70
1
43
0.0
10
2.2389731811889031
20
-4.1316053699247188
10
1.870088396718028
20
8.6256600930265428
10
-4.6885438662520107
20
7.1467234693082995
10
-6.1940599978514292
20
-4.3427417455293851
42
1.0038835433927977
0
LWPOLYLINE
5
154
100
AcDbEntity
8
0
100
AcDbPolyline
90
4
70
1
43
0.0
10
1.4393074178267722
20
-4.1547282353713344
10
1.0984983980008634
20
7.6315837002748648
10
-3.9678706040802547
20
6.4891444894727695
10
-5.39253818197162
20
-4.3833186049613531
42
0.99547082407969223
0
ENDSEC
0
SECTION
2
OBJECTS
0
DICTIONARY
5
C
100
AcDbDictionary
3
ACAD_GROUP
350
D
3
ACAD_MLINESTYLE
350
17
0
DICTIONARY
5
D
100
AcDbDictionary
0
DICTIONARY
5
1A
330
C
100
AcDbDictionary
0
DICTIONARY
5
17
100
AcDbDictionary
0
ENDSEC
0
EOF
