0
SECTION
2
HEADER
9
$INSUNITS
70
4
9
$ACADVER
1
AC1014
9
$HANDSEED
5
FFFF
0
ENDSEC
0
SECTION
2
TABLES
0
TABLE
2
VPORT
5
8
100
AcDbSymbolTable
0
ENDTAB
0
TABLE
2
LTYPE
5
5
100
AcDbSymbolTable
0
LTYPE
5
14
100
AcDbSymbolTableRecord
100
AcDbLinetypeTableRecord
2
BYBLOCK
70
0
0
LTYPE
5
15
100
AcDbSymbolTableRecord
100
AcDbLinetypeTableRecord
2
BYLAYER
70
0
0
LTYPE
5
16
100
AcDbSymbolTableRecord
100
AcDbLinetypeTableRecord
2
DASHED
70
0
3
Dashed __ __ __ __ __ __ __ __ __ __ __ __ __ _
72
65
73
2
40
0.75
49
0.5
74
0
49
-0.25
74
0
0
ENDTAB
0
TABLE
2
LAYER
5
2
100
AcDbSymbolTable
70
2
0
LAYER
5
50
100
AcDbSymbolTableRecord
100
AcDbLayerTableRecord
2
0
70
0
62
7
6
CONTINUOUS
0
ENDTAB
0
TABLE
2
STYLE
5
3
100
AcDbSymbolTable
70
1
0
STYLE
5
11
100
AcDbSymbolTableRecord
100
AcDbTextStyleTableRecord
2
STANDARD
70
0
0
ENDTAB
0
TABLE
2
VIEW
5
6
100
AcDbSymbolTable
70
0
0
ENDTAB
0
TABLE
2
UCS
5
7
100
AcDbSymbolTable
70
0
0
ENDTAB
0
TABLE
2
APPID
5
9
100
AcDbSymbolTable
70
2
0
APPID
5
12
100
AcDbSymbolTableRecord
100
AcDbRegAppTableRecord
2
ACAD
70
0
0
ENDTAB
0
TABLE
2
DIMSTYLE
5
A
100
AcDbSymbolTable
70
1
0
ENDTAB
0
TABLE
2
BLOCK_RECORD
5
1
100
AcDbSymbolTable
70
1
0
BLOCK_RECORD
5
1F
100
AcDbSymbolTableRecord
100
AcDbBlockTableRecord
2
*MODEL_SPACE
0
BLOCK_RECORD
5
1B
100
AcDbSymbolTableRecord
100
AcDbBlockTableRecord
2
*PAPER_SPACE
0
ENDTAB
0
ENDSEC
0
SECTION
2
BLOCKS
0
BLOCK
5
20
100
AcDbEntity
100
AcDbBlockBegin
2
*MODEL_SPACE
0
ENDBLK
5
21
100
AcDbEntity
100
AcDbBlockEnd
0
BLOCK
5
1C
100
AcDbEntity
100
AcDbBlockBegin
2
*PAPER_SPACE
0
ENDBLK
5
1D
100
AcDbEntity
100
AcDbBlockEnd
0
ENDSEC
0
SECTION
2
ENTITIES
0
LINE
5
100
100
AcDbEntity
8
0
100
AcDbLine
10
-9.4271803386075081
20
-1.8512986475839344
30
0
11
-10.317673839977822
21
13.193354717672374
31
0
0
LINE
5
101
100
AcDbEntity
8
0
100
AcDbLine
10
-10.317673839977822
20
13.193354717672374
30
0
11
-11.076287721819158
21
13.787052538243858
31
0
0
LINE
5
102
100
AcDbEntity
8
0
100
AcDbLine
10
-11.076287721819158
20
13.787052538243858
30
0
11
-10.993233828672933
21
14.217422711819744
31
0
0
LINE
5
103
100
AcDbEntity
8
0
100
AcDbLine
10
-10.993233828672933
20
14.217422711819744
30
0
11
1.3967395780220548
21
13.111855853991576
31
0
0
LINE
5
104
100
AcDbEntity
8
0
100
AcDbLine
10
1.3967395780220548
20
13.111855853991576
30
0
11
1.3967395780220548
21
19.796782438715052
31
0
0
LINE
5
105
100
AcDbEntity
8
0
100
AcDbLine
10
1.3967395780220548
20
19.796782438715052
30
0
11
4.8167019216220908
21
19.796782438715052
31
0
0
LINE
5
106
100
AcDbEntity
8
0
100
AcDbLine
10
4.8167019216220908
20
19.796782438715052
30
0
11
4.8167019216220925
21
12.883398389170059
31
0
0
LINE
5
107
100
AcDbEntity
8
0
100
AcDbLine
10
4.8167019216220925
20
12.883398389170059
30
0
11
6.2898019587576623
21
12.515123379886168
31
0
0
LINE
5
108
100
AcDbEntity
8
0
100
AcDbLine
10
6.2898019587576623
20
12.515123379886168
30
0
11
6.2898019587576623
21
12.049761761766351
31
0
0
LINE
5
109
100
AcDbEntity
8
0
100
AcDbLine
10
6.2898019587576623
20
12.049761761766351
30
0
11
5.2119328353272607
21
12.049761761766351
31
0
0
LINE
5
110
100
AcDbEntity
8
0
100
AcDbLine
10
5.2119328353272607
20
12.049761761766351
30
0
11
4.6645801165273406
21
-6.8795197633978429
31
0
0
LINE
5
111
100
AcDbEntity
8
0
100
AcDbLine
10
4.6645801165273406
20
-6.8795197633978429
30
0
11
13.525251708245605
21
-7.1357319540017405
31
0
0
LINE
5
112
100
AcDbEntity
8
0
100
AcDbLine
10
13.525251708245605
20
-7.1357319540017405
30
0
11
13.525251708245605
21
-10.93061775149396
31
0
0
LINE
5
113
100
AcDbEntity
8
0
100
AcDbLine
10
13.525251708245605
20
-10.93061775149396
30
0
11
21.327546339675262
21
-10.93061775149396
31
0
0
LINE
5
114
100
AcDbEntity
8
0
100
AcDbLine
10
21.327546339675262
20
-10.93061775149396
30
0
11
21.705496408864661
21
-9.4188174747363984
31
0
0
LINE
5
115
100
AcDbEntity
8
0
100
AcDbLine
10
21.705496408864661
20
-9.4188174747363984
30
0
11
22.016562859690954
21
-9.5251408873808767
31
0
0
LINE
5
116
100
AcDbEntity
8
0
100
AcDbLine
10
22.016562859690954
20
-9.5251408873808767
30
0
11
21.55288684688939
21
-10.881700539183596
31
0
0
LINE
5
117
100
AcDbEntity
8
0
100
AcDbLine
10
21.55288684688939
20
-10.881700539183596
30
0
11
24.103624105473752
21
-10.955456797263142
31
0
0
LINE
5
118
100
AcDbEntity
8
0
100
AcDbLine
10
24.103624105473752
20
-10.955456797263142
30
0
11
24.097464975879824
21
-11.168460029053273
31
0
0
LINE
5
119
100
AcDbEntity
8
0
100
AcDbLine
10
24.097464975879824
20
-11.168460029053273
30
0
11
20.642359302260335
21
-17.922909836372632
31
0
0
LINE
5
120
100
AcDbEntity
8
0
100
AcDbLine
10
20.642359302260335
20
-17.922909836372632
30
0
11
-10.356345122900251
21
-17.922909836372636
31
0
0
SPLINE
5
121
100
AcDbEntity
8
0
100
AcDbSpline
70
0
71
3
72
17
73
13
74
0
42
0.000000001
43
0.0000000001
44
0.0000000001
40
-0.99195866444241765
40
-0.99195866444241765
40
-0.99195866444241765
40
-0.99195866444241765
40
-0.76225432214835276
40
-0.76225432214835276
40
-0.76225432214835276
40
-0.51862899332845025
40
-0.51862899332845025
40
-0.51862899332845025
40
-0.25614449047363874
40
-0.25614449047363874
40
-0.25614449047363874
40
-0.087548862402636402
40
-0.087548862402636402
40
-0.087548862402636402
40
-0.087548862402636402
10
-10.356345122900253
20
-17.922909836372636
30
0
10
-13.416367607975763
20
-15.659332691665568
30
0
10
-15.752964077940014
20
-13.59968533283949
30
0
10
-17.516273644931964
20
-11.713149905594156
30
0
10
-19.386446706439617
20
-9.7122830120782488
30
0
10
-20.631009649224843
20
-7.9022662327740489
30
0
10
-21.517876837918251
20
-6.2000817546891334
30
0
10
-22.473396915613122
20
-4.3661302166387284
30
0
10
-23.022219047625761
20
-2.6500262226032936
30
0
10
-23.352347974777267
20
-0.98549638852694965
30
0
10
-23.564392088666537
20
0.083642740704802238
30
0
10
-23.681945102553371
20
1.1296311436553801
30
0
10
-23.721533368746478
20
2.1527218090376277
30
0
0
LINE
5
122
100
AcDbEntity
8
0
100
AcDbLine
10
-23.721533368746481
20
2.1527218090376272
30
0
11
-9.4271803386075081
21
-1.8512986475839344
31
0
0
LINE
5
123
100
AcDbEntity
8
0
100
AcDbLine
10
-12.960982494231068
20
2.532949197457067
30
0
11
-26.878610838200217
21
6.4314445319021889
31
0
0
SPLINE
5
124
100
AcDbEntity
8
0
100
AcDbSpline
70
0
71
3
72
26
73
22
74
0
42
0.000000001
43
0.0000000001
44
0.0000000001
40
-1.0130279534644637
40
-1.0130279534644637
40
-1.0130279534644637
40
-1.0130279534644637
40
-1.0051233445510592
40
-1.0051233445510592
40
-1.0051233445510592
40
-1
40
-1
40
-1
40
-0.78536233986901927
40
-0.78536233986901927
40
-0.78536233986901927
40
-0.36194247288265302
40
-0.36194247288265302
40
-0.36194247288265302
40
0
40
0
40
0
40
0.053362035721321893
40
0.053362035721321893
40
0.053362035721321893
40
0.13569224384930634
40
0.13569224384930634
40
0.13569224384930634
40
0.13569224384930634
10
-11.426958185765926
20
-21.191487566291141
30
0
10
-11.535514384558155
20
-21.111973322936951
30
0
10
-11.644070583350388
20
-21.03245907958275
30
0
10
-11.75262678214262
20
-20.952944836228561
30
0
10
-11.822987101755995
20
-20.901407958201684
30
0
10
-11.893347421369375
20
-20.849871080174797
30
0
10
-11.963707740982787
20
-20.798334202147895
30
0
10
-14.980299705665363
20
-18.588768739753942
30
0
10
-17.392771802322869
20
-16.527850881521861
30
0
10
-19.304239045664385
20
-14.572533423626531
30
0
10
-23.071655965225062
20
-10.71868968152318
30
0
10
-24.938156549265717
20
-7.2360747574049489
30
0
10
-25.950545857110381
20
-4.0067076799630721
30
0
10
-26.815354443475034
20
-1.2481005359970931
30
0
10
-27.08936617805762
20
1.3672540311404189
30
0
10
-26.985458166142386
20
3.8640352147167252
30
0
10
-26.971451983797607
20
4.2005864766224379
30
0
10
-26.957445801452824
20
4.5371377385281528
30
0
10
-26.943439619108041
20
4.873689000433866
30
0
10
-26.921830025472104
20
5.3929408442566409
30
0
10
-26.900220431836157
20
5.912192688079414
30
0
10
-26.878610838200217
20
6.4314445319021889
30
0
0
LINE
5
125
100
AcDbEntity
8
0
100
AcDbLine
10
-11.426958185765926
20
-21.191487566291141
30
0
11
22.641772965036893
21
-21.191487566291141
31
0
0
LINE
5
126
100
AcDbEntity
8
0
100
AcDbLine
10
22.641772965036893
20
-21.191487566291141
30
0
11
27.343356381087883
21
-12.000275430259999
31
0
0
LINE
5
127
100
AcDbEntity
8
0
100
AcDbLine
10
27.343356381087883
20
-12.000275430259999
30
0
11
27.465309841166821
21
-7.7827182691968506
31
0
0
LINE
5
128
100
AcDbEntity
8
0
100
AcDbLine
10
27.465309841166821
20
-7.7827182691968506
30
0
11
26.080056590845864
21
-7.7426627535249199
31
0
0
LINE
5
129
100
AcDbEntity
8
0
100
AcDbLine
10
26.080056590845864
20
-7.7426627535249199
30
0
11
26.166620776369246
21
-7.4894051380130255
31
0
0
LINE
5
130
100
AcDbEntity
8
0
100
AcDbLine
10
26.166620776369246
20
-7.4894051380130255
30
0
11
19.397134208881727
21
-5.1755750486725685
31
0
0
LINE
5
131
100
AcDbEntity
8
0
100
AcDbLine
10
19.397134208881727
20
-5.1755750486725685
30
0
11
18.775517965655993
21
-7.6620400215754501
31
0
0
LINE
5
132
100
AcDbEntity
8
0
100
AcDbLine
10
18.775517965655993
20
-7.6620400215754501
30
0
11
16.79382943816411
21
-7.6620400215754501
31
0
0
LINE
5
133
100
AcDbEntity
8
0
100
AcDbLine
10
16.79382943816411
20
-7.6620400215754501
30
0
11
16.79382943816411
21
-3.9603011462504014
31
0
0
LINE
5
134
100
AcDbEntity
8
0
100
AcDbLine
10
16.79382943816411
20
-3.9603011462504014
30
0
11
8.0262658522204049
21
-3.706781235331551
31
0
0
LINE
5
135
100
AcDbEntity
8
0
100
AcDbLine
10
8.0262658522204049
20
-3.706781235331551
30
0
11
8.3873636430785972
21
8.7811840318478396
31
0
0
LINE
5
136
100
AcDbEntity
8
0
100
AcDbLine
10
8.3873636430785972
20
8.7811840318478396
30
0
11
9.5583796886761743
21
8.7811840318478396
31
0
0
LINE
5
137
100
AcDbEntity
8
0
100
AcDbLine
10
9.5583796886761743
20
8.7811840318478396
30
0
11
9.558379688676176
21
15.067151753905437
31
0
0
LINE
5
138
100
AcDbEntity
8
0
100
AcDbLine
10
9.558379688676176
20
15.067151753905437
30
0
11
8.0852796515406045
21
15.435426763189334
31
0
0
LINE
5
139
100
AcDbEntity
8
0
100
AcDbLine
10
8.0852796515406045
20
15.435426763189334
30
0
11
8.0852796515406009
21
23.065360168633564
31
0
0
LINE
5
140
100
AcDbEntity
8
0
100
AcDbLine
10
8.0852796515406009
20
23.065360168633564
30
0
11
-1.8718381518964577
21
23.065360168633564
31
0
0
LINE
5
141
100
AcDbEntity
8
0
100
AcDbLine
10
-1.8718381518964577
20
23.065360168633564
30
0
11
-1.8718381518964593
21
16.685077910690726
31
0
0
LINE
5
142
100
AcDbEntity
8
0
100
AcDbLine
10
-1.8718381518964593
20
16.685077910690726
30
0
11
-13.643203001481673
21
17.735445851115252
31
0
0
LINE
5
143
100
AcDbEntity
8
0
100
AcDbLine
10
-13.643203001481673
20
17.735445851115252
30
0
11
-14.664265335927302
21
12.444486481715272
31
0
0
LINE
5
144
100
AcDbEntity
8
0
100
AcDbLine
10
-14.664265335927302
20
12.444486481715272
30
0
11
-13.49340957296431
21
11.528164580265965
31
0
0
LINE
5
145
100
AcDbEntity
8
0
100
AcDbLine
10
-13.49340957296431
20
11.528164580265965
30
0
11
-12.960982494231068
21
2.532949197457067
31
0
0
SPLINE
5
146
100
AcDbEntity
8
0
100
AcDbSpline
70
4
71
5
72
16
73
10
74
0
42
0.000000001
43
0.0000000001
44
0.0000000001
40
0
40
0
40
0
40
0
40
0
40
0
40
0.20000000000000001
40
0.40000000000000002
40
0.60000000000000009
40
0.80000000000000004
40
1
40
1
40
1
40
1
40
1
40
1
41
1
41
1
41
1
41
1
41
1
41
1
41
1
41
1
41
1
41
1
10
-23.721533368746481
20
2.1527218090376272
30
0
10
-23.143283279093513
20
1.6126752946576062
30
0
10
-21.935009288675388
20
0.54524361108453245
30
0
10
-19.967342172502519
20
-1.0179358485869519
30
0
10
-17.01169565384264
20
-3.0209620468915404
30
0
10
-12.492875706520504
20
-5.3231706217051933
30
0
10
-7.8029066671470302
20
-6.9020662484253146
30
0
10
-3.3770850148031881
20
-7.8641011827750678
30
0
10
0.041774384574745083
20
-8.3909316564574397
30
0
10
1.8683874086644161
20
-8.6256895762399068
30
0
0
SPLINE
5
147
100
AcDbEntity
8
0
100
AcDbSpline
70
4
71
5
72
16
73
10
74
0
42
0.000000001
43
0.0000000001
44
0.0000000001
40
0
40
0
40
0
40
0
40
0
40
0
40
0.20000000000000001
40
0.40000000000000002
40
0.60000000000000009
40
0.80000000000000004
40
1
40
1
40
1
40
1
40
1
40
1
41
1
41
1
41
1
41
1
41
1
41
1
41
1
41
1
41
1
41
1
10
1.8683874086644161
20
-8.6256895762399068
30
0
10
2.3061199962691603
20
-8.689551201814977
30
0
10
3.1849033215187728
20
-8.8029216116283422
30
0
10
4.5130285742999625
20
-8.929936805710728
30
0
10
6.3051457011207637
20
-9.0072276309859838
30
0
10
8.598118514785698
20
-8.8753376283249512
30
0
10
10.501387249302031
20
-8.4718360330323996
30
0
10
11.987054035100353
20
-7.9173966213767937
30
0
10
13.007512348259848
20
-7.4179440429904666
30
0
10
13.525251708245605
20
-7.1357319540017405
30
0
0
SPLINE
5
148
100
AcDbEntity
8
0
100
AcDbSpline
70
4
71
5
72
16
73
10
74
0
42
0.000000001
43
0.0000000001
44
0.0000000001
40
0
40
0
40
0
40
0
40
0
40
0
40
0.20000000000000001
40
0.40000000000000002
40
0.60000000000000009
40
0.80000000000000004
40
1
40
1
40
1
40
1
40
1
40
1
41
1
41
1
41
1
41
1
41
1
41
1
41
1
41
1
41
1
41
1
10
-9.9469776932712577
20
6.9305408706825444
30
0
10
-9.4355657140601785
20
7.1272369228152019
30
0
10
-8.4024878628886981
20
7.4944583863487404
30
0
10
-6.8221223412140954
20
7.9668116687269928
30
0
10
-4.6491972419613141
20
8.4287509139260752
30
0
10
-1.7697943943825443
20
8.5895268823836162
30
0
10
0.7466162767910467
20
8.1748002876984067
30
0
10
2.8138235517394423
20
7.4046049176316151
30
0
10
4.2847116627718798
20
6.6544190413905184
30
0
10
5.0433640781639308
20
6.2200922432011083
30
0
0
ENDSEC
0
SECTION
2
OBJECTS
0
DICTIONARY
5
C
100
AcDbDictionary
3
ACAD_GROUP
350
D
3
ACAD_MLINESTYLE
350
17
0
DICTIONARY
5
D
100
AcDbDictionary
0
DICTIONARY
5
1A
330
C
100
AcDbDictionary
0
DICTIONARY
5
17
100
AcDbDictionary
0
ENDSEC
0
EOF
