0
SECTION
2
HEADER
9
$INSUNITS
70
4
9
$ACADVER
1
AC1014
9
$HANDSEED
5
FFFF
0
ENDSEC
0
SECTION
2
TABLES
0
TABLE
2
VPORT
5
8
100
AcDbSymbolTable
0
ENDTAB
0
TABLE
2
LTYPE
5
5
100
AcDbSymbolTable
0
LTYPE
5
14
100
AcDbSymbolTableRecord
100
AcDbLinetypeTableRecord
2
BYBLOCK
70
0
0
LTYPE
5
15
100
AcDbSymbolTableRecord
100
AcDbLinetypeTableRecord
2
BYLAYER
70
0
0
LTYPE
5
16
100
AcDbSymbolTableRecord
100
AcDbLinetypeTableRecord
2
DASHED
70
0
3
Dashed __ __ __ __ __ __ __ __ __ __ __ __ __ _
72
65
73
2
40
0.75
49
0.5
74
0
49
-0.25
74
0
0
ENDTAB
0
TABLE
2
LAYER
5
2
100
AcDbSymbolTable
70
2
0
LAYER
5
50
100
AcDbSymbolTableRecord
100
AcDbLayerTableRecord
2
0
70
0
62
7
6
CONTINUOUS
0
ENDTAB
0
TABLE
2
STYLE
5
3
100
AcDbSymbolTable
70
1
0
STYLE
5
11
100
AcDbSymbolTableRecord
100
AcDbTextStyleTableRecord
2
STANDARD
70
0
0
ENDTAB
0
TABLE
2
VIEW
5
6
100
AcDbSymbolTable
70
0
0
ENDTAB
0
TABLE
2
UCS
5
7
100
AcDbSymbolTable
70
0
0
ENDTAB
0
TABLE
2
APPID
5
9
100
AcDbSymbolTable
70
2
0
APPID
5
12
100
AcDbSymbolTableRecord
100
AcDbRegAppTableRecord
2
ACAD
70
0
0
ENDTAB
0
TABLE
2
DIMSTYLE
5
A
100
AcDbSymbolTable
70
1
0
ENDTAB
0
TABLE
2
BLOCK_RECORD
5
1
100
AcDbSymbolTable
70
1
0
BLOCK_RECORD
5
1F
100
AcDbSymbolTableRecord
100
AcDbBlockTableRecord
2
*MODEL_SPACE
0
BLOCK_RECORD
5
1B
100
AcDbSymbolTableRecord
100
AcDbBlockTableRecord
2
*PAPER_SPACE
0
ENDTAB
0
ENDSEC
0
SECTION
2
BLOCKS
0
BLOCK
5
20
100
AcDbEntity
100
AcDbBlockBegin
2
*MODEL_SPACE
0
ENDBLK
5
21
100
AcDbEntity
100
AcDbBlockEnd
0
BLOCK
5
1C
100
AcDbEntity
100
AcDbBlockBegin
2
*PAPER_SPACE
0
ENDBLK
5
1D
100
AcDbEntity
100
AcDbBlockEnd
0
ENDSEC
0
SECTION
2
ENTITIES
0
POINT
5
100
100
AcDbEntity
8
0
100
AcDbPoint
10
0
20
0
30
0
0
POINT
5
101
100
AcDbEntity
8
0
100
AcDbPoint
10
3.6397023426620234
20
-10
30
0
0
LINE
5
102
100
AcDbEntity
8
0
100
AcDbLine
10
0
20
0
30
0
11
3.2804747187977252
21
-9.0130302149885022
31
0
0
LINE
5
103
100
AcDbEntity
8
0
100
AcDbLine
10
4.6900136499765885
20
-10
30
0
11
5.6397023426620239
21
-10
31
0
0
LINE
5
104
100
AcDbEntity
8
0
100
AcDbLine
10
5.6397023426620239
20
-10
30
0
11
2.000000000000004
21
-1.1102230246251565e-15
31
0
0
LINE
5
105
100
AcDbEntity
8
0
100
AcDbLine
10
2.000000000000004
20
-1.1102230246251565e-15
30
0
11
0
21
0
31
0
0
LINE
5
106
100
AcDbEntity
8
0
100
AcDbLine
10
3.2757321083958195
20
-8.9999999999999964
30
0
11
-16.724267891604182
21
-8.9999999999999964
31
0
0
LINE
5
107
100
AcDbEntity
8
0
100
AcDbLine
10
-16.724267891604182
20
-8.9999999999999964
30
0
11
-20.921036814999159
21
2.9577035265404561e-15
31
0
0
LINE
5
108
100
AcDbEntity
8
0
100
AcDbLine
10
-20.921036814999159
20
2.9577035265404561e-15
30
0
11
0
21
0
31
0
0
LWPOLYLINE
5
109
100
AcDbEntity
8
0
100
AcDbPolyline
90
9
70
1
43
0.0
10
-15.012258619336281
20
-1.9802297431489047
10
-15.012881542820981
20
-4.0929317825867626
10
-16.852508570690588
20
-6.999495185046217
10
-15.66432768444022
20
-6.9998455164059168
10
-14.482409400483316
20
-5.014185330431391
10
-13.325631663927581
20
-7.0005350734980016
10
-12.157995498994802
20
-7.0008793473118871
10
-14.002754735144428
20
-4.0863813393078932
10
-14.002133830851964
20
-1.9805275752338267
0
LWPOLYLINE
5
110
100
AcDbEntity
8
0
100
AcDbPolyline
90
12
70
1
43
0.0
10
-11.649740663565318
20
-1.9812211708861238
10
-11.651220737888483
20
-7.0010287682402792
10
-7.9291665373791629
20
-7.0021262040970846
10
-7.9289161564875146
20
-6.1529364827083075
10
-10.637421430830623
20
-6.1521378885325415
10
-10.637093310642491
20
-5.0392882245333128
10
-8.1169172479313296
20
-5.0400312904393125
10
-8.1166678765918672
20
-4.1942655577208274
10
-10.636843939303027
20
-4.1935224918148268
10
-10.6364411086507
20
-2.8272854472624385
10
-7.8320599792144989
20
-2.8281123101295007
10
-7.8318106079629048
20
-1.9823468754342253
0
LWPOLYLINE
5
111
100
AcDbEntity
8
0
100
AcDbPolyline
90
12
70
1
43
0.0
10
-6.9689243358465438
20
-1.9826012947103433
10
-6.9704044101697082
20
-7.0024088920644987
10
-3.2483508057068082
20
-7.003506327745562
10
-3.2481004248151608
20
-6.1543166063567858
10
-5.9566045070654265
20
-6.153518012532504
10
-5.9562763868772954
20
-5.0406683485332753
10
-3.4361003241661319
20
-5.041411414439275
10
-3.4358509528266685
20
-4.195645681720789
10
-5.9560270155378303
20
-4.1949026158147893
10
-5.9556241848855009
20
-2.8286655712624009
10
-3.1512436514957227
20
-2.8294924339537202
10
-3.1509942802441291
20
-1.9837269992584448
0
LWPOLYLINE
5
112
100
AcDbEntity
8
0
100
AcDbPolyline
90
8
70
1
43
0.0
10
-1.158138102753874
20
-1.9843145865714773
10
-1.1593677961853919
20
-6.1549324625368564
10
-2.648873499262832
20
-6.154493286512162
10
-2.6491238801544785
20
-7.0036830079009382
10
1.340014549658799
20
-7.0048591926942816
10
1.3402649305504464
20
-6.1556694713055045
10
-0.14581827397275732
20
-6.1552313043936371
10
-0.14458858054123971
20
-1.9846134284282591
0
ARC
5
113
100
AcDbEntity
8
0
100
AcDbCircle
10
4.6900136499765885
20
-8.4999999999999982
30
0
40
1.5000000000000011
210
0
220
0
230
1
100
AcDbArc
50
200
51
270
0
ENDSEC
0
SECTION
2
OBJECTS
0
DICTIONARY
5
C
100
AcDbDictionary
3
ACAD_GROUP
350
D
3
ACAD_MLINESTYLE
350
17
0
DICTIONARY
5
D
100
AcDbDictionary
0
DICTIONARY
5
1A
330
C
100
AcDbDictionary
0
DICTIONARY
5
17
100
AcDbDictionary
0
ENDSEC
0
EOF
