0
SECTION
2
HEADER
9
$INSUNITS
70
4
9
$ACADVER
1
AC1014
9
$HANDSEED
5
FFFF
0
ENDSEC
0
SECTION
2
TABLES
0
TABLE
2
VPORT
5
8
100
AcDbSymbolTable
0
ENDTAB
0
TABLE
2
LTYPE
5
5
100
AcDbSymbolTable
0
LTYPE
5
14
100
AcDbSymbolTableRecord
100
AcDbLinetypeTableRecord
2
BYBLOCK
70
0
0
LTYPE
5
15
100
AcDbSymbolTableRecord
100
AcDbLinetypeTableRecord
2
BYLAYER
70
0
0
LTYPE
5
16
100
AcDbSymbolTableRecord
100
AcDbLinetypeTableRecord
2
DASHED
70
0
3
Dashed __ __ __ __ __ __ __ __ __ __ __ __ __ _
72
65
73
2
40
0.75
49
0.5
74
0
49
-0.25
74
0
0
ENDTAB
0
TABLE
2
LAYER
5
2
100
AcDbSymbolTable
70
2
0
LAYER
5
50
100
AcDbSymbolTableRecord
100
AcDbLayerTableRecord
2
0
70
0
62
7
6
CONTINUOUS
0
ENDTAB
0
TABLE
2
STYLE
5
3
100
AcDbSymbolTable
70
1
0
STYLE
5
11
100
AcDbSymbolTableRecord
100
AcDbTextStyleTableRecord
2
STANDARD
70
0
0
ENDTAB
0
TABLE
2
VIEW
5
6
100
AcDbSymbolTable
70
0
0
ENDTAB
0
TABLE
2
UCS
5
7
100
AcDbSymbolTable
70
0
0
ENDTAB
0
TABLE
2
APPID
5
9
100
AcDbSymbolTable
70
2
0
APPID
5
12
100
AcDbSymbolTableRecord
100
AcDbRegAppTableRecord
2
ACAD
70
0
0
ENDTAB
0
TABLE
2
DIMSTYLE
5
A
100
AcDbSymbolTable
70
1
0
ENDTAB
0
TABLE
2
BLOCK_RECORD
5
1
100
AcDbSymbolTable
70
1
0
BLOCK_RECORD
5
1F
100
AcDbSymbolTableRecord
100
AcDbBlockTableRecord
2
*MODEL_SPACE
0
BLOCK_RECORD
5
1B
100
AcDbSymbolTableRecord
100
AcDbBlockTableRecord
2
*PAPER_SPACE
0
ENDTAB
0
ENDSEC
0
SECTION
2
BLOCKS
0
BLOCK
5
20
100
AcDbEntity
100
AcDbBlockBegin
2
*MODEL_SPACE
0
ENDBLK
5
21
100
AcDbEntity
100
AcDbBlockEnd
0
BLOCK
5
1C
100
AcDbEntity
100
AcDbBlockBegin
2
*PAPER_SPACE
0
ENDBLK
5
1D
100
AcDbEntity
100
AcDbBlockEnd
0
ENDSEC
0
SECTION
2
ENTITIES
0
LWPOLYLINE
5
100
100
AcDbEntity
8
0
100
AcDbPolyline
90
5
70
1
43
0.0
10
17.416864943645773
20
11.072324295940838
10
15.864510238538276
20
10.936510857472799
42
0.087488663525915389
10
15.922936730724086
20
10.718460220127323
10
20.921036814999159
20
-2.2204460492503131e-15
10
22.579974556418613
20
-3.2663155304966272e-15
0
LINE
5
101
100
AcDbEntity
8
0
100
AcDbLine
10
19.817658896036669
20
-2.3960868011929648e-15
30
0
11
15.214528107592812
21
9.8714458318284883
31
0
0
LINE
5
102
100
AcDbEntity
8
0
100
AcDbLine
10
16.15225246647811
20
14.416264165835235
30
0
11
16.192805229101364
21
14.435174229605803
31
0
0
LINE
5
103
100
AcDbEntity
8
0
100
AcDbLine
10
18.063788244284716
20
12.051194383834254
30
0
11
23.683352475381199
21
-2.1412992906588713e-15
31
0
0
LINE
5
104
100
AcDbEntity
8
0
100
AcDbLine
10
23.683352475381199
20
-2.1412992906588713e-15
30
0
11
19.817658896036669
21
-2.3960868011929648e-15
31
0
0
LINE
5
105
100
AcDbEntity
8
0
100
AcDbLine
10
20.921036814999159
20
-2.9577035265404561e-15
30
0
11
0
21
0
31
0
0
LINE
5
106
100
AcDbEntity
8
0
100
AcDbLine
10
16.724267891604182
20
8.9999999999999964
30
0
11
20.921036814999159
21
-3.3306690738754696e-15
31
0
0
SPLINE
5
107
100
AcDbEntity
8
0
100
AcDbSpline
70
4
71
5
72
36
73
30
74
0
42
0.000000001
43
0.0000000001
44
0.0000000001
40
0
40
0
40
0
40
0
40
0
40
0
40
0.040000000000000001
40
0.080000000000000002
40
0.12
40
0.16
40
0.20000000000000001
40
0.24000000000000002
40
0.28000000000000003
40
0.32000000000000001
40
0.35999999999999999
40
0.39999999999999997
40
0.43999999999999995
40
0.47999999999999993
40
0.51999999999999991
40
0.55999999999999994
40
0.59999999999999998
40
0.64000000000000001
40
0.68000000000000005
40
0.72000000000000008
40
0.76000000000000012
40
0.80000000000000016
40
0.84000000000000019
40
0.88000000000000023
40
0.92000000000000026
40
0.9600000000000003
40
1
40
1
40
1
40
1
40
1
40
1
41
1
41
1
41
1
41
1
41
1
41
1
41
1
41
1
41
1
41
1
41
1
41
1
41
1
41
1
41
1
41
1
41
1
41
1
41
1
41
1
41
1
41
1
41
1
41
1
41
1
41
1
41
1
41
1
41
1
41
1
10
15.214528107592812
20
9.8714458318284883
30
0
10
15.202771641534973
20
9.9132819627177486
30
0
10
15.179794213558388
20
9.9980124762279861
30
0
10
15.146934528964772
20
10.128282987163608
30
0
10
15.10634338311271
20
10.308343176043399
30
0
10
15.061288992950566
20
10.544012825423932
30
0
10
15.022789294733149
20
10.790061561170933
30
0
10
14.992509427108686
20
11.04592215393507
30
0
10
14.97321036543936
20
11.310529745142478
30
0
10
14.968891666119237
20
11.58213240292395
30
0
10
14.984173246106781
20
11.857922231036195
30
0
10
15.023781201472946
20
12.133678993536119
30
0
10
15.091987443404207
20
12.403393009506015
30
0
10
15.192056004429631
20
12.658876616204557
30
0
10
15.325663105103505
20
12.889362013239623
30
0
10
15.492803462403042
20
13.083246010686961
30
0
10
15.691663728131982
20
13.229862130271211
30
0
10
15.918490186142352
20
13.321213263112277
30
0
10
16.167387062411887
20
13.353878127162957
30
0
10
16.430212201997474
20
13.330585567419622
30
0
10
16.697626341363833
20
13.258155209406517
30
0
10
16.960034168115396
20
13.145786790351206
30
0
10
17.208555265870242
20
13.003273481143049
30
0
10
17.435994270007512
20
12.839270572272438
30
0
10
17.637814649024172
20
12.659573353653705
30
0
10
17.811507448240722
20
12.467712768047123
30
0
10
17.927105919645363
20
12.305947083649997
30
0
10
18.000577570630274
20
12.180262160914179
30
0
10
18.043695257066311
20
12.094539151888311
30
0
10
18.063788244284716
20
12.051194383834254
30
0
0
ENDSEC
0
SECTION
2
OBJECTS
0
DICTIONARY
5
C
100
AcDbDictionary
3
ACAD_GROUP
350
D
3
ACAD_MLINESTYLE
350
17
0
DICTIONARY
5
D
100
AcDbDictionary
0
DICTIONARY
5
1A
330
C
100
AcDbDictionary
0
DICTIONARY
5
17
100
AcDbDictionary
0
ENDSEC
0
EOF
