0
SECTION
2
HEADER
9
$INSUNITS
70
4
9
$ACADVER
1
AC1014
9
$HANDSEED
5
FFFF
0
ENDSEC
0
SECTION
2
TABLES
0
TABLE
2
VPORT
5
8
100
AcDbSymbolTable
0
ENDTAB
0
TABLE
2
LTYPE
5
5
100
AcDbSymbolTable
0
LTYPE
5
14
100
AcDbSymbolTableRecord
100
AcDbLinetypeTableRecord
2
BYBLOCK
70
0
0
LTYPE
5
15
100
AcDbSymbolTableRecord
100
AcDbLinetypeTableRecord
2
BYLAYER
70
0
0
LTYPE
5
16
100
AcDbSymbolTableRecord
100
AcDbLinetypeTableRecord
2
DASHED
70
0
3
Dashed __ __ __ __ __ __ __ __ __ __ __ __ __ _
72
65
73
2
40
0.75
49
0.5
74
0
49
-0.25
74
0
0
ENDTAB
0
TABLE
2
LAYER
5
2
100
AcDbSymbolTable
70
2
0
LAYER
5
50
100
AcDbSymbolTableRecord
100
AcDbLayerTableRecord
2
0
70
0
62
7
6
CONTINUOUS
0
ENDTAB
0
TABLE
2
STYLE
5
3
100
AcDbSymbolTable
70
1
0
STYLE
5
11
100
AcDbSymbolTableRecord
100
AcDbTextStyleTableRecord
2
STANDARD
70
0
0
ENDTAB
0
TABLE
2
VIEW
5
6
100
AcDbSymbolTable
70
0
0
ENDTAB
0
TABLE
2
UCS
5
7
100
AcDbSymbolTable
70
0
0
ENDTAB
0
TABLE
2
APPID
5
9
100
AcDbSymbolTable
70
2
0
APPID
5
12
100
AcDbSymbolTableRecord
100
AcDbRegAppTableRecord
2
ACAD
70
0
0
ENDTAB
0
TABLE
2
DIMSTYLE
5
A
100
AcDbSymbolTable
70
1
0
ENDTAB
0
TABLE
2
BLOCK_RECORD
5
1
100
AcDbSymbolTable
70
1
0
BLOCK_RECORD
5
1F
100
AcDbSymbolTableRecord
100
AcDbBlockTableRecord
2
*MODEL_SPACE
0
BLOCK_RECORD
5
1B
100
AcDbSymbolTableRecord
100
AcDbBlockTableRecord
2
*PAPER_SPACE
0
ENDTAB
0
ENDSEC
0
SECTION
2
BLOCKS
0
BLOCK
5
20
100
AcDbEntity
100
AcDbBlockBegin
2
*MODEL_SPACE
0
ENDBLK
5
21
100
AcDbEntity
100
AcDbBlockEnd
0
BLOCK
5
1C
100
AcDbEntity
100
AcDbBlockBegin
2
*PAPER_SPACE
0
ENDBLK
5
1D
100
AcDbEntity
100
AcDbBlockEnd
0
ENDSEC
0
SECTION
2
ENTITIES
0
LINE
5
100
100
AcDbEntity
8
0
100
AcDbLine
10
16.724267891604182
20
8.9999999999999964
30
0
11
-3.2757321083958191
21
8.9999999999999964
31
0
0
LINE
5
101
100
AcDbEntity
8
0
100
AcDbLine
10
-3.2757321083958191
20
8.9999999999999964
30
0
11
-3.2804747187977252
21
9.0130302149885022
31
0
0
LINE
5
102
100
AcDbEntity
8
0
100
AcDbLine
10
-4.6900136499765885
20
10
30
0
11
-5.6397023426620239
21
10
31
0
0
LINE
5
103
100
AcDbEntity
8
0
100
AcDbLine
10
-5.6397023426620239
20
10
30
0
11
-2.000000000000004
21
1.1102230246251565e-15
31
0
0
LINE
5
104
100
AcDbEntity
8
0
100
AcDbLine
10
-2.000000000000004
20
1.1102230246251565e-15
30
0
11
20.921036814999159
21
-2.9577035265404561e-15
31
0
0
LINE
5
105
100
AcDbEntity
8
0
100
AcDbLine
10
20.921036814999159
20
-2.9577035265404561e-15
30
0
11
16.724267891604182
21
8.9999999999999964
31
0
0
LWPOLYLINE
5
106
100
AcDbEntity
8
0
100
AcDbPolyline
90
9
70
1
43
0.0
10
-0.11005912605673074
20
2.0200000298023224
10
-0.11005912605673074
20
4.1800067913532253
10
-1.9900000298023224
20
7.1522037279605861
10
-0.77521507326513528
20
7.1522037279605861
10
0.43256814893335105
20
5.1217276942729946
10
1.6158459645137191
20
7.1522037279605861
10
2.8096259694918988
20
7.1522037279605861
10
0.92268328484147788
20
4.1730050337314601
10
0.92268328484147788
20
2.0200000298023224
0
LWPOLYLINE
5
107
100
AcDbEntity
8
0
100
AcDbPolyline
90
12
70
1
43
0.0
10
3.3277476888522504
20
2.0200000298023224
10
3.3277476888522504
20
7.1522037279605861
10
7.1331406694278119
20
7.1522037279605861
10
7.1331406694278119
20
6.2840000879764553
10
4.3639905315265057
20
6.2840000879764553
10
4.3639905315265057
20
5.1462332499027248
10
6.9405950170382855
20
5.1462332499027248
10
6.9405950170382855
20
4.2815304887294765
10
4.3639905315265057
20
4.2815304887294765
10
4.3639905315265057
20
2.8847030889987946
10
7.2311628919467328
20
2.8847030889987946
10
7.2311628919467328
20
2.0200000298023224
0
LWPOLYLINE
5
108
100
AcDbEntity
8
0
100
AcDbPolyline
90
12
70
1
43
0.0
10
8.1133700471743939
20
2.0200000298023224
10
8.1133700471743939
20
7.1522037279605861
10
11.918763027749954
20
7.1522037279605861
10
11.918763027749954
20
6.2840000879764553
10
9.1496134858950953
20
6.2840000879764553
10
9.149613485895097
20
5.1462332499027248
10
11.726217375360427
20
5.1462332499027248
10
11.726217375360427
20
4.2815304887294765
10
9.1496134858950953
20
4.2815304887294765
10
9.149613485895097
20
2.8847030889987946
10
12.016785250268875
20
2.8847030889987946
10
12.016785250268875
20
2.0200000298023224
0
LWPOLYLINE
5
109
100
AcDbEntity
8
0
100
AcDbPolyline
90
8
70
1
43
0.0
10
14.054263935647903
20
2.0200000298023224
10
14.054263935647903
20
6.2840000879764553
10
12.531406984888015
20
6.2840000879764553
10
12.531406984888015
20
7.1522037279605861
10
16.609863148294387
20
7.1522037279605861
10
16.609863148294387
20
6.2840000879764553
10
15.090507374368606
20
6.2840000879764553
10
15.090507374368606
20
2.0200000298023224
0
ARC
5
110
100
AcDbEntity
8
0
100
AcDbCircle
10
-4.6900136499765885
20
8.4999999999999982
30
0
40
1.5000000000000011
210
0
220
-0
230
1
100
AcDbArc
50
20.000000000000011
51
90
0
ENDSEC
0
SECTION
2
OBJECTS
0
DICTIONARY
5
C
100
AcDbDictionary
3
ACAD_GROUP
350
D
3
ACAD_MLINESTYLE
350
17
0
DICTIONARY
5
D
100
AcDbDictionary
0
DICTIONARY
5
1A
330
C
100
AcDbDictionary
0
DICTIONARY
5
17
100
AcDbDictionary
0
ENDSEC
0
EOF
