                                                                        S      1
,,15Hframe hanger v3,15Hframe hanger v3,7Hunknown,7Hunknown,32,38,7,99, G      1
15,,1.,2,2HMM,1,0.08,15H20250912.001424,0.01,10000.,7Hunknown,7Hunknown,G      2
11,0,15H20240622.135508;                                                G      3
     186       1                                                00000000D      1
     186            -159       1       0                               0D      2
     514       2                                                00010000D      3
     514                       2       1                               0D      4
     510       4                                                00010000D      5
     510            -159       1       1                               0D      6
     510       5                                                00010000D      7
     510            -159       1       1                               0D      8
     510       6                                                00010000D      9
     510            -159       1       1                               0D     10
     510       7                                                00010000D     11
     510            -159       1       1                               0D     12
     510       8                                                00010000D     13
     510            -159       1       1                               0D     14
     510       9                                                00010000D     15
     510            -159       1       1                               0D     16
     510      10                                                00010000D     17
     510            -159       1       1                               0D     18
     510      11                                                00010000D     19
     510            -159       1       1                               0D     20
     510      12                                                00010000D     21
     510            -159       1       1                               0D     22
     510      13                                                00010000D     23
     510            -159       1       1                               0D     24
     510      14                                                00010000D     25
     510            -159       1       1                               0D     26
     510      15                                                00010000D     27
     510            -159       1       1                               0D     28
     510      16                                                00010000D     29
     510            -159       1       1                               0D     30
     508      17                                                00010000D     31
     508                       2       1                               0D     32
     508      19                                                00010000D     33
     508                       1       1                               0D     34
     508      20                                                00010000D     35
     508                       2       1                               0D     36
     508      22                                                00010000D     37
     508                       1       1                               0D     38
     508      23                                                00010000D     39
     508                       2       1                               0D     40
     508      25                                                00010000D     41
     508                       1       1                               0D     42
     508      26                                                00010000D     43
     508                       2       1                               0D     44
     508      28                                                00010000D     45
     508                       1       1                               0D     46
     508      29                                                00010000D     47
     508                       2       1                               0D     48
     508      31                                                00010000D     49
     508                       1       1                               0D     50
     508      32                                                00010000D     51
     508                       1       1                               0D     52
     508      33                                                00010000D     53
     508                       1       1                               0D     54
     508      34                                                00010000D     55
     508                       1       1                               0D     56
     508      35                                                00010000D     57
     508                       2       1                               0D     58
     126      37                                                00010000D     59
     126       0               3       0                               0D     60
     126      40                                                00010000D     61
     126       0               4       0                               0D     62
     126      44                                                00010000D     63
     126       0               8       0                               0D     64
     126      52                                                00010000D     65
     126       0               4       0                               0D     66
     126      56                                                00010000D     67
     126       0               3       0                               0D     68
     126      59                                                00010000D     69
     126       0               4       0                               0D     70
     126      63                                                00010000D     71
     126       0               2       0                               0D     72
     126      65                                                00010000D     73
     126       0               4       0                               0D     74
     126      69                                                00010000D     75
     126       0               5       0                               0D     76
     126      74                                                00010000D     77
     126       0              10       0                               0D     78
     126      84                                                00010000D     79
     126       0               5       0                               0D     80
     126      89                                                00010000D     81
     126       0               4       0                               0D     82
     126      93                                                00010000D     83
     126       0               3       0                               0D     84
     126      96                                                00010000D     85
     126       0               5       0                               0D     86
     126     101                                                00010000D     87
     126       0               3       0                               0D     88
     126     104                                                00010000D     89
     126       0               2       0                               0D     90
     126     106                                                00010000D     91
     126       0               4       0                               0D     92
     126     110                                                00010000D     93
     126       0               3       0                               0D     94
     126     113                                                00010000D     95
     126       0               2       0                               0D     96
     126     115                                                00010000D     97
     126       0               2       0                               0D     98
     126     117                                                00010000D     99
     126       0               3       0                               0D    100
     126     120                                                00010000D    101
     126       0               2       0                               0D    102
     126     122                                                00010000D    103
     126       0               3       0                               0D    104
     126     125                                                00010000D    105
     126       0               5       0                               0D    106
     126     130                                                00010000D    107
     126       0               4       0                               0D    108
     126     134                                                00010000D    109
     126       0               2       0                               0D    110
     126     136                                                00010000D    111
     126       0               3       0                               0D    112
     126     139                                                00010000D    113
     126       0               2       0                               0D    114
     126     141                                                00010000D    115
     126       0               2       0                               0D    116
     126     143                                                00010000D    117
     126       0               2       0                               0D    118
     126     145                                                00010000D    119
     126       0               2       0                               0D    120
     126     147                                                00010000D    121
     126       0               3       0                               0D    122
     126     150                                                00010000D    123
     126       0               3       0                               0D    124
     126     153                                                00010000D    125
     126       0               4       0                               0D    126
     128     157                                                00010000D    127
     128       0    -159       6       0                               0D    128
     128     163                                                00010000D    129
     128       0    -159      17       0                               0D    130
     128     180                                                00010000D    131
     128       0    -159       9       0                               0D    132
     128     189                                                00010000D    133
     128       0    -159       6       0                               0D    134
     128     195                                                00010000D    135
     128       0    -159       7       0                               0D    136
     128     202                                                00010000D    137
     128       0    -159       7       0                               0D    138
     128     209                                                00010000D    139
     128       0    -159       9       0                               0D    140
     128     218                                                00010000D    141
     128       0    -159       7       0                               0D    142
     128     225                                                00010000D    143
     128       0    -159       4       0                               0D    144
     128     229                                                00010000D    145
     128       0    -159       3       0                               0D    146
     128     232                                                00010000D    147
     128       0    -159       6       0                               0D    148
     128     238                                                00010000D    149
     128       0    -159       7       0                               0D    150
     128     245                                                00010000D    151
     128       0    -159       7       0                               0D    152
     502     252                                                00010000D    153
     502                      12       1                               0D    154
     504     264                                                00010001D    155
     504                      10       1                               0D    156
     406     274                                                00000000D    157
     406                       1      15                               0D    158
     314     275                                                00000200D    159
     314                       2       0                               0D    160
186,3,1,0,0,1,157;                                                     1P      1
514,13,5,1,7,1,9,1,11,1,13,1,15,1,17,1,19,1,21,1,23,1,25,1,27,1,       3P      2
29,1;                                                                  3P      3
510,127,1,1,31;                                                        5P      4
510,129,1,1,33;                                                        7P      5
510,131,1,1,35;                                                        9P      6
510,133,1,1,37;                                                       11P      7
510,135,1,1,39;                                                       13P      8
510,137,1,1,41;                                                       15P      9
510,139,1,1,43;                                                       17P     10
510,141,1,1,45;                                                       19P     11
510,143,1,1,47;                                                       21P     12
510,145,1,1,49;                                                       23P     13
510,147,2,1,51,53;                                                    25P     14
510,149,1,1,55;                                                       27P     15
510,151,1,1,57;                                                       29P     16
508,8,0,155,1,0,0,0,155,2,0,0,0,155,3,0,0,0,155,4,0,0,0,155,5,0,      31P     17
0,0,155,6,0,0,0,155,7,0,0,0,155,8,0,0;                                31P     18
508,4,0,155,3,1,0,0,155,9,1,0,0,155,10,0,0,0,155,11,0,0;              33P     19
508,5,0,155,2,1,0,0,155,12,0,0,0,155,13,1,0,0,155,14,0,0,0,155,       35P     20
9,0,0;                                                                35P     21
508,4,0,155,1,1,0,0,155,15,0,0,0,155,16,0,0,0,155,12,1,0;             37P     22
508,6,0,155,8,1,0,0,155,17,1,0,0,155,18,1,0,0,155,19,1,0,0,155,       39P     23
20,1,0,0,155,15,1,0;                                                  39P     24
508,4,0,155,21,0,0,0,155,13,0,0,0,155,22,0,0,0,155,23,1,0;            41P     25
508,5,0,155,4,1,0,0,155,11,1,0,0,155,24,0,0,0,155,23,0,0,0,155,       43P     26
25,0,0;                                                               43P     27
508,4,0,155,5,1,0,0,155,25,1,0,0,155,26,0,0,0,155,27,1,0;             45P     28
508,6,0,155,28,1,0,0,155,26,1,0,0,155,22,1,0,0,155,16,1,0,0,155,      47P     29
20,0,0,0,155,29,0,0;                                                  47P     30
508,4,0,155,30,0,0,0,155,29,1,0,0,155,19,0,0,0,155,31,0,0;            49P     31
508,4,0,155,32,1,0,0,155,31,1,0,0,155,18,0,0,0,155,33,0,0;            51P     32
508,4,0,155,24,1,0,0,155,10,1,0,0,155,14,1,0,0,155,21,1,0;            53P     33
508,4,0,155,7,1,0,0,155,34,1,0,0,155,33,1,0,0,155,17,0,0;             55P     34
508,6,0,155,6,1,0,0,155,27,0,0,0,155,28,0,0,0,155,30,1,0,0,155,       57P     35
32,0,0,0,155,34,0,0;                                                  57P     36
126,1,1,0,0,1,0,0.523153106883898,0.523153106883898,1.,1.,1.,1.,      59P     37
34.8897782969469,15.231531068839,5.,34.8897782969469,20.,5.,          59P     38
0.523153106883898,1.,0.,0.,0.;                                        59P     39
126,1,1,0,0,1,0,-2.93742917300124,-2.93742917300124,                  61P     40
-1.33704617247242,-1.33704617247242,1.,1.,50.4409642793819,           61P     41
11.4522203674174,5.,34.8897782969469,15.231531068839,5.,              61P     42
-2.93742917300124,-1.33704617247242,0.,0.,0.;                         61P     43
126,4,2,0,0,0,0,-1.31772067463029,-1.31772067463029,                  63P     44
-1.31772067463029,1.11022302462516D-16,1.11022302462516D-16,          63P     45
1.31772067463029,1.31772067463029,1.31772067463029,1.,                63P     46
0.790690464710597,1.,0.790690464710596,1.,50.4409642793819,           63P     47
8.54777963258259,5.,51.6375531874728,8.83857939992239,5.,             63P     48
51.6375531874728,9.99999999999999,5.,51.6375531874728,                63P     49
11.1614206000776,5.,50.4409642793819,11.4522203674174,5.,             63P     50
-1.31772067463029,1.31772067463029,0.,0.,0.;                          63P     51
126,1,1,0,0,1,0,-0.038161513985764,-0.038161513985764,                65P     52
1.56222148654306,1.56222148654306,1.,1.,34.8897782969469,             65P     53
4.76846893116101,5.,50.4409642793819,8.54777963258258,5.,             65P     54
-0.038161513985764,1.56222148654306,0.,0.,0.;                         65P     55
126,1,1,0,0,1,0,-1.,-1.,-0.523153106883899,-0.523153106883899,        67P     56
1.,1.,34.8897782969469,0.,5.,34.8897782969469,4.76846893116101,       67P     57
5.,-1.,-0.523153106883899,0.,0.,0.;                                   67P     58
126,1,1,0,0,1,0,-3.1851852799741,-3.1851852799741,                    69P     59
-1.21171496507923,-1.21171496507923,1.,1.,54.6244814458957,0.,        69P     60
5.,34.8897782969469,0.,5.,-3.1851852799741,-1.21171496507923,0.,      69P     61
0.,0.;                                                                69P     62
126,1,1,0,0,1,0,-1.,-1.,1.,1.,1.,1.,54.6244814458957,20.,5.,          71P     63
54.6244814458957,0.,5.,-1.,1.,0.,0.,0.;                               71P     64
126,1,1,0,0,1,0,1.21171496507923,1.21171496507923,                    73P     65
3.1851852799741,3.1851852799741,1.,1.,34.8897782969469,20.,5.,        73P     66
54.6244814458957,20.,5.,1.21171496507923,3.1851852799741,0.,0.,       73P     67
0.;                                                                   73P     68
126,1,1,0,0,1,0,0.531881885859656,0.531881885859656,                  75P     69
1.06397077209761,1.06397077209761,1.,1.,50.4409642793819,             75P     70
11.4522203674174,5.,52.260815450713,11.4522203674174,                 75P     71
3.33066907387547D-15,0.531881885859656,1.06397077209761,0.,0.,        75P     72
0.;                                                                   75P     73
126,4,2,0,0,0,0,-1.31772067463029,-1.31772067463029,                  77P     74
-1.31772067463029,1.11022302462516D-16,1.11022302462516D-16,          77P     75
1.31772067463029,1.31772067463029,1.31772067463029,1.,                77P     76
0.790690464710597,1.,0.790690464710596,1.,52.260815450713,            77P     77
8.54777963258259,1.25355400806519D-16,53.4574043588038,               77P     78
8.83857939992239,5.00654956362292D-16,53.4574043588038,               77P     79
9.99999999999999,5.00654956362292D-16,53.4574043588038,               77P     80
11.1614206000776,5.00654956362292D-16,52.260815450713,                77P     81
11.4522203674174,1.25355400806519D-16,-1.31772067463029,              77P     82
1.31772067463029,0.,0.,0.;                                            77P     83
126,1,1,0,0,1,0,0.531881885859656,0.531881885859656,                  79P     84
1.06397077209761,1.06397077209761,1.,1.,50.4409642793819,             79P     85
8.54777963258258,5.,52.260815450713,8.54777963258258,                 79P     86
3.33066907387547D-15,0.531881885859656,1.06397077209761,0.,0.,        79P     87
0.;                                                                   79P     88
126,1,1,0,0,1,0,-0.219084969222453,-0.219084969222453,                81P     89
0.686915256083037,0.686915256083037,1.,1.,26.6473460385831,17.5,      81P     90
2.,34.8897782969469,15.231531068839,5.,-0.219084969222453,            81P     91
0.686915256083037,0.,0.,0.;                                           81P     92
126,1,1,0,0,1,0,0.,0.,0.212835554495183,0.212835554495183,1.,1.,      83P     93
26.6473460385831,17.5,2.,27.3752865071155,17.5,                       83P     94
-6.66133814775094D-15,0.,0.212835554495183,0.,0.,0.;                  83P     95
126,1,1,0,0,1,0,-0.977378890423563,-0.977378890423563,                85P     96
1.58360761732479,1.58360761732479,1.,1.,52.260815450713,              85P     97
11.4522203674174,-3.74464749796674D-16,27.3752865071155,17.5,         85P     98
-7.39321961412169D-15,-0.977378890423563,1.58360761732479,0.,0.,      85P     99
0.;                                                                   85P    100
126,1,1,0,0,1,0,0.,0.,0.877141320048926,0.877141320048926,1.,1.,      87P    101
26.6473460385831,20.,2.,34.8897782969469,20.,5.,0.,                   87P    102
0.877141320048926,0.,0.,0.;                                           87P    103
126,1,1,0,0,1,0,1.75,1.75,2.,2.,1.,1.,26.6473460385831,17.5,2.,       89P    104
26.6473460385831,20.,2.,1.75,2.,0.,0.,0.;                             89P    105
126,1,1,0,0,1,0,0.474966599949297,0.474966599949297,                  91P    106
1.00705548618725,1.00705548618725,1.,1.,54.6244814458957,20.,5.,      91P    107
56.4443326172267,20.,2.22044604925031D-15,0.474966599949297,          91P    108
1.00705548618725,0.,0.,0.;                                            91P    109
126,1,1,0,0,1,0,0.,0.,5.64443326172267,5.64443326172267,1.,1.,        93P    110
56.4443326172267,20.,9.71445146547012D-16,0.,20.,                     93P    111
-1.49482057886872D-14,0.,5.64443326172267,0.,0.,0.;                   93P    112
126,1,1,0,0,1,0,-0.2,-0.2,0.,0.,1.,1.,0.,20.,0.,0.,20.,2.,-0.2,       95P    113
0.,0.,0.,0.;                                                          95P    114
126,1,1,0,0,1,0,0.,0.,2.66473460385831,2.66473460385831,1.,1.,        97P    115
0.,20.,2.,26.6473460385831,20.,2.,0.,2.66473460385831,0.,0.,0.;       97P    116
126,1,1,0,0,1,0,-1.625,-1.625,-0.125,-0.125,1.,1.,                    99P    117
27.3752865071155,17.5,-7.21644966006352D-15,27.3752865071155,         99P    118
2.5,-7.21644966006352D-15,-1.625,-0.125,0.,0.,0.;                     99P    119
126,1,1,0,0,1,0,0.25,0.25,1.75,1.75,1.,1.,26.6473460385831,2.5,      101P    120
2.,26.6473460385831,17.5,2.,0.25,1.75,0.,0.,0.;                      101P    121
126,1,1,0,0,1,0,0.,0.,0.212835554495183,0.212835554495183,1.,1.,     103P    122
26.6473460385831,2.5,2.,27.3752865071155,2.5,                        103P    123
-6.10622663543836D-15,0.,0.212835554495183,0.,0.,0.;                 103P    124
126,1,1,0,0,1,0,-2.48651452326071,-2.48651452326071,                 105P    125
0.0744719844876363,0.0744719844876363,1.,1.,27.3752865071155,        105P    126
2.5,-7.36976510480462D-15,52.260815450713,8.54777963258259,          105P    127
-3.510102404796D-16,-2.48651452326071,0.0744719844876363,0.,0.,      105P    128
0.;                                                                  105P    129
126,1,1,0,0,1,0,0.27040850202346,0.27040850202346,                   107P    130
1.17640872732895,1.17640872732895,1.,1.,34.8897782969469,            107P    131
4.76846893116101,5.,26.6473460385831,2.5,2.,0.27040850202346,        107P    132
1.17640872732895,0.,0.,0.;                                           107P    133
126,1,1,0,0,1,0,0.,0.,0.25,0.25,1.,1.,26.6473460385831,0.,2.,        109P    134
26.6473460385831,2.5,2.,0.,0.25,0.,0.,0.;                            109P    135
126,1,1,0,0,1,0,0.,0.,0.877141320048926,0.877141320048926,1.,1.,     111P    136
26.6473460385831,0.,2.,34.8897782969469,0.,5.,0.,                    111P    137
0.877141320048926,0.,0.,0.;                                          111P    138
126,1,1,0,0,1,0,0.,0.,2.66473460385831,2.66473460385831,1.,1.,       113P    139
0.,0.,2.,26.6473460385831,0.,2.,0.,2.66473460385831,0.,0.,0.;        113P    140
126,1,1,0,0,1,0,0.,0.,2.,2.,1.,1.,0.,0.,2.,0.,20.,2.,0.,2.,0.,       115P    141
0.,0.;                                                               115P    142
126,1,1,0,0,1,0,0.,0.,0.2,0.2,1.,1.,0.,0.,2.,0.,0.,0.,0.,0.2,0.,     117P    143
0.,0.;                                                               117P    144
126,1,1,0,0,1,0,0.,0.,2.,2.,1.,1.,0.,0.,0.,0.,20.,0.,0.,2.,0.,       119P    145
0.,0.;                                                               119P    146
126,1,1,0,0,1,0,0.,0.,5.64443326172267,5.64443326172267,1.,1.,       121P    147
56.4443326172267,0.,9.71445146547012D-16,0.,0.,                      121P    148
-1.49482057886872D-14,0.,5.64443326172267,0.,0.,0.;                  121P    149
126,1,1,0,0,1,0,0.,0.,2.,2.,1.,1.,56.4443326172267,0.,               123P    150
9.71445146547012D-16,56.4443326172267,20.,9.71445146547012D-16,      123P    151
0.,2.,0.,0.,0.;                                                      123P    152
126,1,1,0,0,1,0,0.474966599949297,0.474966599949297,                 125P    153
1.00705548618725,1.00705548618725,1.,1.,54.6244814458957,0.,5.,      125P    154
56.4443326172267,0.,2.22044604925031D-15,0.474966599949297,          125P    155
1.00705548618725,0.,0.,0.;                                           125P    156
128,1,1,1,1,0,0,1,0,0,1.75566873132509,1.75566873132509,             127P    157
3.73113904621996,3.73113904621996,-0.001,-0.001,2.001,2.001,1.,      127P    158
1.,1.,1.,54.6344814458956,20.01,5.,34.8797782969469,20.01,5.,        127P    159
54.6344814458956,-0.0099999999999989,5.,34.8797782969469,            127P    160
-0.0099999999999989,5.,1.75566873132509,3.73113904621996,-0.001,     127P    161
2.001;                                                               127P    162
128,1,4,1,2,0,0,0,0,0,3.54587923906436,3.54587923906436,             129P    163
7.39567585639337,7.39567585639337,-2.63544134926058,                 129P    164
-2.63544134926058,-2.63544134926058,-1.31772067463029,               129P    165
-1.31772067463029,-2.40548322002116D-15,-2.40548322002116D-15,       129P    166
-2.40548322002116D-15,1.,1.,0.790690464710598,0.790690464710598,     129P    167
1.,1.,0.790690464710598,0.790690464710598,1.,1.,                     129P    168
50.4409642793819,11.4522203674174,5.,52.4160262656323,               129P    169
11.4522203674174,-0.42643820924596,51.4975788752977,                 129P    170
11.1614206000776,5.38457626200457,53.4726408615481,                  129P    171
11.1614206000776,-0.0418619472413951,51.4975788752977,               129P    172
9.99999999999999,5.38457626200457,53.4726408615481,                  129P    173
9.99999999999999,-0.0418619472413966,51.4975788752977,               129P    174
8.83857939992239,5.38457626200456,53.4726408615481,                  129P    175
8.83857939992239,-0.0418619472413985,50.4409642793819,               129P    176
8.54777963258258,5.,52.4160262656323,8.54777963258258,               129P    177
-0.426438209245965,3.54587923906436,7.39567585639337,                129P    178
-2.63544134926058,-2.40548322002116D-15;                             129P    179
128,1,1,1,1,0,0,1,0,0,-0.0010000000000001,-0.0010000000000001,       131P    180
2.41641316015003,2.41641316015003,-0.00100000000000005,              131P    181
-0.00100000000000005,1.06497077209761,1.06497077209761,1.,1.,1.,     131P    182
1.,48.627498494695,11.4497165391977,10.0107630163827,                131P    183
26.634828232063,17.5025038282197,2.00608566875316,                   131P    184
52.273333257233,11.4497165391977,-0.00608566875316324,               131P    185
30.280662994601,17.5025038282197,-8.01076301638267,                  131P    186
-0.0010000000000001,2.41641316015003,-0.00100000000000005,           131P    187
1.06497077209761;                                                    131P    188
128,1,1,1,1,0,0,1,0,0,-0.001,-0.001,0.878141320048926,               133P    189
0.878141320048926,1.5221531068839,1.5221531068839,2.001,2.001,       133P    190
1.,1.,1.,1.,26.6379491123752,15.221531068839,1.99657979856674,       133P    191
34.8991752231548,15.221531068839,5.00342020143326,                   133P    192
26.6379491123752,20.01,1.99657979856674,34.8991752231548,20.01,      133P    193
5.00342020143326,-0.001,0.878141320048926,1.5221531068839,2.001;     133P    194
128,1,1,1,1,0,0,1,0,0,-0.568130566624656,-0.568130566624656,         135P    195
-0.0661305666246542,-0.0661305666246542,-2.82321663086133,           135P    196
-2.82321663086133,2.82321663086133,2.82321663086133,1.,1.,1.,1.,     135P    197
-0.0099999999999989,20.,-0.0100000000000144,-0.0099999999999989,     135P    198
20.,5.01,56.4543326172267,20.,-0.0100000000000144,                   135P    199
56.4543326172267,20.,5.01,-0.568130566624656,                        135P    200
-0.0661305666246542,-2.82321663086133,2.82321663086133;              135P    201
128,1,1,1,1,0,0,1,0,0,-0.00100000000000001,-0.00100000000000001,     137P    202
1.501,1.501,-0.00100000000000033,-0.00100000000000033,               137P    203
0.213835554495183,0.213835554495183,1.,1.,1.,1.,                     137P    204
26.6439258371498,17.51,2.00939692620786,26.6439258371498,2.49,       137P    205
2.00939692620786,27.3787067085487,17.51,-0.00939692620786581,        137P    206
27.3787067085487,2.49,-0.00939692620786553,-0.00100000000000001,     137P    207
1.501,-0.00100000000000033,0.213835554495183;                        137P    208
128,1,1,1,1,0,0,1,0,0,-0.00100000000000048,-0.00100000000000048,     139P    209
2.41641316015003,2.41641316015003,-0.00100000000000011,              139P    210
-0.00100000000000011,1.06497077209761,1.06497077209761,1.,1.,1.,     139P    211
1.,26.634828232063,2.49749617178031,2.00608566875316,                139P    212
48.627498494695,8.55028346080227,10.0107630163827,                   139P    213
30.280662994601,2.49749617178031,-8.01076301638267,                  139P    214
52.273333257233,8.55028346080227,-0.00608566875315963,               139P    215
-0.00100000000000048,2.41641316015003,-0.00100000000000011,          139P    216
1.06497077209761;                                                    139P    217
128,1,1,1,1,0,0,1,0,0,-0.001,-0.001,0.878141320048926,               141P    218
0.878141320048926,-0.001,-0.001,0.477846893116101,                   141P    219
0.477846893116101,1.,1.,1.,1.,26.6379491123752,-0.01,                141P    220
1.99657979856674,34.8991752231548,-0.01,5.00342020143326,            141P    221
26.6379491123752,4.77846893116101,1.99657979856674,                  141P    222
34.8991752231548,4.77846893116101,5.00342020143326,-0.001,           141P    223
0.878141320048926,-0.001,0.477846893116101;                          141P    224
128,1,1,1,1,0,0,1,0,0,-0.001,-0.001,2.66573460385831,                143P    225
2.66573460385831,-0.001,-0.001,2.001,2.001,1.,1.,1.,1.,-0.01,        143P    226
-0.01,2.,26.6573460385831,-0.01,2.,-0.01,20.01,2.,                   143P    227
26.6573460385831,20.01,2.,-0.001,2.66573460385831,-0.001,2.001;      143P    228
128,1,1,1,1,0,0,1,0,0,-0.001,-0.001,0.201,0.201,-0.001,-0.001,       145P    229
2.001,2.001,1.,1.,1.,1.,0.,-0.01,-0.01,0.,-0.01,2.01,0.,20.01,       145P    230
-0.01,0.,20.01,2.01,-0.001,0.201,-0.001,2.001;                       145P    231
128,1,1,1,1,0,0,1,0,0,-0.001,-0.001,5.64543326172267,                147P    232
5.64543326172267,-0.001,-0.001,2.001,2.001,1.,1.,1.,1.,              147P    233
56.4543326172267,-0.01,9.74265562733557D-16,-0.0100000000000033,     147P    234
-0.01,-1.49510262048737D-14,56.4543326172267,20.01,                  147P    235
9.74265562733557D-16,-0.0100000000000033,20.01,                      147P    236
-1.49510262048737D-14,-0.001,5.64543326172267,-0.001,2.001;          147P    237
128,1,1,1,1,0,0,1,0,0,0.673966599949297,0.673966599949297,           149P    238
1.20805548618725,1.20805548618725,-0.001,-0.001,2.001,2.001,1.,      149P    239
1.,1.,1.,54.6210612444624,-0.01,5.00939692620786,                    149P    240
56.4477528186599,-0.01,-0.00939692620785637,54.6210612444624,        149P    241
20.01,5.00939692620786,56.4477528186599,20.01,                       149P    242
-0.00939692620785637,0.673966599949297,1.20805548618725,-0.001,      149P    243
2.001;                                                               149P    244
128,1,1,1,1,0,0,1,0,0,-2.82321663086133,-2.82321663086133,           151P    245
2.82321663086133,2.82321663086133,0.0661305666246542,                151P    246
0.0661305666246542,0.568130566624656,0.568130566624656,1.,1.,1.,     151P    247
1.,56.4543326172267,0.,5.01,-0.0099999999999989,0.,5.01,             151P    248
56.4543326172267,0.,-0.0100000000000144,-0.0099999999999989,0.,      151P    249
-0.0100000000000144,-2.82321663086133,2.82321663086133,              151P    250
0.0661305666246542,0.568130566624656;                                151P    251
502,22,34.8897782969469,15.231531068839,5.,34.8897782969469,20.,     153P    252
5.,50.4409642793819,11.4522203674174,5.,50.4409642793819,            153P    253
8.54777963258258,5.,34.8897782969469,4.76846893116101,5.,            153P    254
34.8897782969469,0.,5.,54.6244814458957,0.,5.,54.6244814458957,      153P    255
20.,5.,52.260815450713,11.4522203674174,1.11022302462516D-15,        153P    256
52.260815450713,8.54777963258258,1.11022302462516D-15,               153P    257
26.6473460385831,17.5,2.,27.3752865071155,17.5,                      153P    258
-7.21644966006352D-15,26.6473460385831,20.,2.,56.4443326172267,      153P    259
20.,0.,0.,20.,0.,0.,20.,2.,27.3752865071155,2.5,                     153P    260
-6.93889390390723D-15,26.6473460385831,2.5,2.,26.6473460385831,      153P    261
0.,2.,0.,0.,2.,0.,0.,0.,56.4443326172267,0.,                         153P    262
9.71445146547012D-16;                                                153P    263
504,34,59,153,1,153,2,61,153,3,153,1,63,153,4,153,3,65,153,5,        155P    264
153,4,67,153,6,153,5,69,153,7,153,6,71,153,8,153,7,73,153,2,153,     155P    265
8,75,153,3,153,9,77,153,10,153,9,79,153,4,153,10,81,153,11,153,      155P    266
1,83,153,11,153,12,85,153,9,153,12,87,153,13,153,2,89,153,11,        155P    267
153,13,91,153,8,153,14,93,153,14,153,15,95,153,15,153,16,97,153,     155P    268
16,153,13,99,153,12,153,17,101,153,18,153,11,103,153,18,153,17,      155P    269
105,153,17,153,10,107,153,5,153,18,109,153,19,153,18,111,153,19,     155P    270
153,6,113,153,20,153,19,115,153,20,153,16,117,153,20,153,21,119,     155P    271
153,21,153,15,121,153,22,153,21,123,153,22,153,14,125,153,7,153,     155P    272
22;                                                                  155P    273
406,1,5HBody1;                                                       157P    274
314,62.7450980392157,62.7450980392157,62.7450980392157,13HSteel      159P    275
- Satin;                                                             159P    276
S      1G      3D    160P    276                                        T      1
