                                                                        S      1
,,15HCamera Mount v1,15HCamera Mount v1,7Hunknown,7Hunknown,32,38,7,99, G      1
15,,1.,2,2HMM,1,0.08,15H20250912.001617,0.01,10000.,7Hunknown,7Hunknown,G      2
11,0,15H20200603.194532;                                                G      3
     186       1                                                00000000D      1
     186            -233       1       0                               0D      2
     514       2                                                00010000D      3
     514                       2       1                               0D      4
     510       4                                                00010000D      5
     510            -233       1       1                               0D      6
     510       5                                                00010000D      7
     510            -233       1       1                               0D      8
     510       6                                                00010000D      9
     510            -233       1       1                               0D     10
     510       7                                                00010000D     11
     510            -233       1       1                               0D     12
     510       8                                                00010000D     13
     510            -233       1       1                               0D     14
     510       9                                                00010000D     15
     510            -233       1       1                               0D     16
     510      10                                                00010000D     17
     510            -233       1       1                               0D     18
     510      11                                                00010000D     19
     510            -233       1       1                               0D     20
     510      12                                                00010000D     21
     510            -233       1       1                               0D     22
     510      13                                                00010000D     23
     510            -233       1       1                               0D     24
     510      14                                                00010000D     25
     510            -233       1       1                               0D     26
     510      15                                                00010000D     27
     510            -233       1       1                               0D     28
     510      16                                                00010000D     29
     510            -233       1       1                               0D     30
     510      17                                                00010000D     31
     510            -233       1       1                               0D     32
     510      18                                                00010000D     33
     510            -233       1       1                               0D     34
     510      19                                                00010000D     35
     510            -233       1       1                               0D     36
     510      20                                                00010000D     37
     510            -233       1       1                               0D     38
     510      21                                                00010000D     39
     510            -233       1       1                               0D     40
     510      22                                                00010000D     41
     510            -233       1       1                               0D     42
     510      23                                                00010000D     43
     510            -233       1       1                               0D     44
     508      24                                                00010000D     45
     508                       1       1                               0D     46
     508      25                                                00010000D     47
     508                       2       1                               0D     48
     508      27                                                00010000D     49
     508                       1       1                               0D     50
     508      28                                                00010000D     51
     508                       1       1                               0D     52
     508      29                                                00010000D     53
     508                       2       1                               0D     54
     508      31                                                00010000D     55
     508                       2       1                               0D     56
     508      33                                                00010000D     57
     508                       2       1                               0D     58
     508      35                                                00010000D     59
     508                       1       1                               0D     60
     508      36                                                00010000D     61
     508                       2       1                               0D     62
     508      38                                                00010000D     63
     508                       1       1                               0D     64
     508      39                                                00010000D     65
     508                       1       1                               0D     66
     508      40                                                00010000D     67
     508                       1       1                               0D     68
     508      41                                                00010000D     69
     508                       1       1                               0D     70
     508      42                                                00010000D     71
     508                       1       1                               0D     72
     508      43                                                00010000D     73
     508                       1       1                               0D     74
     508      44                                                00010000D     75
     508                       2       1                               0D     76
     508      46                                                00010000D     77
     508                       1       1                               0D     78
     508      47                                                00010000D     79
     508                       1       1                               0D     80
     508      48                                                00010000D     81
     508                       1       1                               0D     82
     508      49                                                00010000D     83
     508                       1       1                               0D     84
     508      50                                                00010000D     85
     508                       2       1                               0D     86
     126      52                                                00010000D     87
     126       0               2       0                               0D     88
     126      54                                                00010000D     89
     126       0               5       0                               0D     90
     126      59                                                00010000D     91
     126       0               2       0                               0D     92
     126      61                                                00010000D     93
     126       0               5       0                               0D     94
     126      66                                                00010000D     95
     126       0               3       0                               0D     96
     126      69                                                00010000D     97
     126       0               3       0                               0D     98
     126      72                                                00010000D     99
     126       0               6       0                               0D    100
     126      78                                                00010000D    101
     126       0              10       0                               0D    102
     126      88                                                00010000D    103
     126       0               3       0                               0D    104
     126      91                                                00010000D    105
     126       0               2       0                               0D    106
     126      93                                                00010000D    107
     126       0               3       0                               0D    108
     126      96                                                00010000D    109
     126       0               2       0                               0D    110
     126      98                                                00010000D    111
     126       0               2       0                               0D    112
     126     100                                                00010000D    113
     126       0               2       0                               0D    114
     126     102                                                00010000D    115
     126       0               2       0                               0D    116
     126     104                                                00010000D    117
     126       0               2       0                               0D    118
     126     106                                                00010000D    119
     126       0               2       0                               0D    120
     126     108                                                00010000D    121
     126       0               4       0                               0D    122
     126     112                                                00010000D    123
     126       0               3       0                               0D    124
     126     115                                                00010000D    125
     126       0               4       0                               0D    126
     126     119                                                00010000D    127
     126       0               3       0                               0D    128
     126     122                                                00010000D    129
     126       0               8       0                               0D    130
     126     130                                                00010000D    131
     126       0               3       0                               0D    132
     126     133                                                00010000D    133
     126       0              10       0                               0D    134
     126     143                                                00010000D    135
     126       0               2       0                               0D    136
     126     145                                                00010000D    137
     126       0               2       0                               0D    138
     126     147                                                00010000D    139
     126       0               2       0                               0D    140
     126     149                                                00010000D    141
     126       0               2       0                               0D    142
     126     151                                                00010000D    143
     126       0               2       0                               0D    144
     126     153                                                00010000D    145
     126       0               2       0                               0D    146
     126     155                                                00010000D    147
     126       0               2       0                               0D    148
     126     157                                                00010000D    149
     126       0               2       0                               0D    150
     126     159                                                00010000D    151
     126       0               2       0                               0D    152
     126     161                                                00010000D    153
     126       0               2       0                               0D    154
     126     163                                                00010000D    155
     126       0               2       0                               0D    156
     126     165                                                00010000D    157
     126       0               2       0                               0D    158
     126     167                                                00010000D    159
     126       0               2       0                               0D    160
     126     169                                                00010000D    161
     126       0               2       0                               0D    162
     126     171                                                00010000D    163
     126       0               2       0                               0D    164
     126     173                                                00010000D    165
     126       0               2       0                               0D    166
     126     175                                                00010000D    167
     126       0               2       0                               0D    168
     126     177                                                00010000D    169
     126       0               2       0                               0D    170
     126     179                                                00010000D    171
     126       0               2       0                               0D    172
     126     181                                                00010000D    173
     126       0               2       0                               0D    174
     126     183                                                00010000D    175
     126       0               2       0                               0D    176
     126     185                                                00010000D    177
     126       0               2       0                               0D    178
     126     187                                                00010000D    179
     126       0               2       0                               0D    180
     126     189                                                00010000D    181
     126       0               2       0                               0D    182
     126     191                                                00010000D    183
     126       0               9       0                               0D    184
     126     200                                                00010000D    185
     126       0              10       0                               0D    186
     128     210                                                00010000D    187
     128       0    -233       7       0                               0D    188
     128     217                                                00010000D    189
     128       0    -233       7       0                               0D    190
     128     224                                                00010000D    191
     128       0    -233       4       0                               0D    192
     128     228                                                00010000D    193
     128       0    -233       3       0                               0D    194
     128     231                                                00010000D    195
     128       0    -233       5       0                               0D    196
     128     236                                                00010000D    197
     128       0    -233       5       0                               0D    198
     128     241                                                00010000D    199
     128       0    -233      13       0                               0D    200
     128     254                                                00010000D    201
     128       0    -233       3       0                               0D    202
     128     257                                                00010000D    203
     128       0    -233       3       0                               0D    204
     128     260                                                00010000D    205
     128       0    -233       3       0                               0D    206
     128     263                                                00010000D    207
     128       0    -233       3       0                               0D    208
     128     266                                                00010000D    209
     128       0    -233       3       0                               0D    210
     128     269                                                00010000D    211
     128       0    -233       3       0                               0D    212
     128     272                                                00010000D    213
     128       0    -233       3       0                               0D    214
     128     275                                                00010000D    215
     128       0    -233       3       0                               0D    216
     128     278                                                00010000D    217
     128       0    -233       3       0                               0D    218
     128     281                                                00010000D    219
     128       0    -233       3       0                               0D    220
     128     284                                                00010000D    221
     128       0    -233      15       0                               0D    222
     128     299                                                00010000D    223
     128       0    -233       6       0                               0D    224
     128     305                                                00010000D    225
     128       0    -233       6       0                               0D    226
     502     311                                                00010000D    227
     502                      11       1                               0D    228
     504     322                                                00010001D    229
     504                      14       1                               0D    230
     406     336                                                00000000D    231
     406                       1      15                               0D    232
     314     337                                                00000200D    233
     314                       2       0                               0D    234
186,3,1,0,0,1,231;                                                     1P      1
514,20,5,1,7,1,9,1,11,1,13,1,15,1,17,1,19,1,21,1,23,1,25,1,27,1,       3P      2
29,1,31,1,33,1,35,1,37,1,39,1,41,1,43,1;                               3P      3
510,187,1,1,45;                                                        5P      4
510,189,1,1,47;                                                        7P      5
510,191,1,1,49;                                                        9P      6
510,193,1,1,51;                                                       11P      7
510,195,1,1,53;                                                       13P      8
510,197,1,1,55;                                                       15P      9
510,199,1,1,57;                                                       17P     10
510,201,1,1,59;                                                       19P     11
510,203,1,1,61;                                                       21P     12
510,205,1,1,63;                                                       23P     13
510,207,1,1,65;                                                       25P     14
510,209,1,1,67;                                                       27P     15
510,211,1,1,69;                                                       29P     16
510,213,1,1,71;                                                       31P     17
510,215,1,1,73;                                                       33P     18
510,217,1,1,75;                                                       35P     19
510,219,2,1,77,79;                                                    37P     20
510,221,1,1,81;                                                       39P     21
510,223,1,1,83;                                                       41P     22
510,225,1,1,85;                                                       43P     23
508,4,0,229,1,0,0,0,229,2,0,0,0,229,3,0,0,0,229,4,0,0;                45P     24
508,7,0,229,2,1,0,0,229,5,1,0,0,229,6,1,0,0,229,7,1,0,0,229,8,1,      47P     25
0,0,229,9,1,0,0,229,10,1,0;                                           47P     26
508,4,0,229,1,1,0,0,229,11,0,0,0,229,12,0,0,0,229,5,0,0;              49P     27
508,4,0,229,3,1,0,0,229,10,0,0,0,229,13,1,0,0,229,14,0,0;             51P     28
508,5,0,229,15,0,0,0,229,16,1,0,0,229,17,0,0,0,229,13,0,0,0,229,      53P     29
9,0,0;                                                                53P     30
508,6,0,229,18,0,0,0,229,19,0,0,0,229,20,1,0,0,229,21,0,0,0,229,      55P     31
6,0,0,0,229,12,1,0;                                                   55P     32
508,8,0,229,21,1,0,0,229,22,1,0,0,229,15,1,0,0,229,8,0,0,0,229,       57P     33
23,1,0,0,229,24,0,0,0,229,23,0,0,0,229,7,0,0;                         57P     34
508,4,0,229,25,1,0,0,229,26,1,0,0,229,27,0,0,0,229,28,0,0;            59P     35
508,8,0,229,29,1,0,0,229,28,1,0,0,229,30,0,0,0,229,31,1,0,0,229,      61P     36
32,1,0,0,229,33,1,0,0,229,34,0,0,0,229,35,0,0;                        61P     37
508,4,0,229,36,1,0,0,229,30,1,0,0,229,27,1,0,0,229,37,1,0;            63P     38
508,4,0,229,38,1,0,0,229,39,1,0,0,229,40,1,0,0,229,34,1,0;            65P     39
508,4,0,229,32,0,0,0,229,41,0,0,0,229,42,0,0,0,229,43,0,0;            67P     40
508,4,0,229,38,0,0,0,229,33,0,0,0,229,43,1,0,0,229,44,0,0;            69P     41
508,4,0,229,36,0,0,0,229,45,0,0,0,229,41,1,0,0,229,31,0,0;            71P     42
508,4,0,229,46,1,0,0,229,35,1,0,0,229,40,0,0,0,229,47,0,0;            73P     43
508,8,0,229,48,1,0,0,229,47,1,0,0,229,39,0,0,0,229,44,1,0,0,229,      75P     44
42,1,0,0,229,45,1,0,0,229,37,0,0,0,229,26,0,0;                        75P     45
508,1,0,229,24,1,0;                                                   77P     46
508,4,0,229,29,0,0,0,229,46,0,0,0,229,48,0,0,0,229,25,0,0;            79P     47
508,4,0,229,17,1,0,0,229,49,0,0,0,229,19,1,0,0,229,50,1,0;            81P     48
508,4,0,229,16,0,0,0,229,22,0,0,0,229,20,0,0,0,229,49,1,0;            83P     49
508,5,0,229,4,1,0,0,229,14,1,0,0,229,50,0,0,0,229,18,1,0,0,229,       85P     50
11,1,0;                                                               85P     51
126,1,1,0,0,1,0,-0.9,-0.9,-0.65,-0.65,1.,1.,9.,-10.,0.,6.5,-10.,      87P     52
0.,-0.9,-0.65,0.,0.,0.;                                               87P     53
126,4,2,0,0,0,0,0.,0.,0.,1.5707963267949,1.5707963267949,             89P     54
3.14159265358979,3.14159265358979,3.14159265358979,1.,                89P     55
0.707106781186548,1.,0.707106781186548,1.,9.,10.,0.,9.,10.,-10.,      89P     56
9.,6.12323399573677D-16,-10.,9.,-10.,-10.,9.,-10.,                    89P     57
-1.22464679914735D-15,0.,3.14159265358979,0.,0.,0.;                   89P     58
126,1,1,0,0,1,0,0.65,0.65,0.9,0.9,1.,1.,6.5,10.,0.,9.,10.,0.,         91P     59
0.65,0.9,0.,0.,0.;                                                    91P     60
126,4,2,0,0,0,0,-3.14159265358979,-3.14159265358979,                  93P     61
-3.14159265358979,-1.5707963267949,-1.5707963267949,0.,0.,0.,1.,      93P     62
0.707106781186548,1.,0.707106781186548,1.,6.5,-10.,                   93P     63
-1.22464679914735D-15,6.5,-10.,-10.,6.5,6.12323399573677D-16,         93P     64
-10.,6.5,10.,-10.,6.5,10.,0.,-3.14159265358979,0.,0.,0.,0.;           93P     65
126,1,1,0,0,1,0,2.375,2.375,4.07500008121133,4.07500008121133,        95P     66
1.,1.,9.,-10.,0.,9.,-27.0000008121133,0.,2.375,4.07500008121133,      95P     67
0.,0.,0.;                                                             95P     68
126,1,1,0,0,1,0,0.,0.,2.22710564667661,2.22710564667661,1.,1.,        97P     69
9.,-27.0000008121133,0.,9.,-27.0000008121133,22.2710564667661,        97P     70
0.,2.22710564667661,0.,0.,0.;                                         97P     71
126,2,2,0,0,0,0,-3.83130577109544,-3.83130577109544,                  99P     72
-3.83130577109544,-3.14159265358979,-3.14159265358979,                99P     73
-3.14159265358979,1.,0.941123954278023,1.,9.,-27.0000008121133,       99P     74
22.271056466766,9.,-35.,12.5723704213971,9.,-35.,                     99P     75
-4.28626379701574D-15,-3.83130577109544,-3.14159265358979,0.,0.,      99P     76
0.;                                                                   99P     77
126,6,2,0,0,0,0,-3.14159265358979,-3.14159265358979,                 101P     78
-3.14159265358979,-1.87207965422531,-1.87207965422531,               101P     79
-0.602566654860822,-0.602566654860822,0.666946344503664,             101P     80
0.666946344503664,0.666946344503664,1.,0.805216111517949,1.,         101P     81
0.805216111517949,1.,0.805216111517948,1.,9.,-35.,                   101P     82
-4.28626379701574D-15,9.,-35.,-25.7748831123341,9.,                  101P     83
-10.386109037366,-33.4234758674789,9.,14.2277819252679,              101P     84
-41.0720686226236,9.,28.8359279465111,-19.8365637009947,9.,          101P     85
43.4440739677542,1.39894122063416,9.,27.5,21.650635094611,           101P     86
-3.14159265358979,0.666946344503664,0.,0.,0.;                        101P     87
126,1,1,0,0,1,0,-0.165063509461097,-0.165063509461097,2.,2.,1.,      103P     88
1.,9.,27.5,21.650635094611,9.,27.5,0.,-0.165063509461097,2.,0.,      103P     89
0.,0.;                                                               103P     90
126,1,1,0,0,1,0,-1.375,-1.375,0.375,0.375,1.,1.,9.,27.5,0.,9.,       105P     91
10.,0.,-1.375,0.375,0.,0.,0.;                                        105P     92
126,1,1,0,0,1,0,-4.07500008121133,-4.07500008121133,-2.375,          107P     93
-2.375,1.,1.,6.5,-27.0000008121133,0.,6.5,-10.,0.,                   107P     94
-4.07500008121133,-2.375,0.,0.,0.;                                   107P     95
126,1,1,0,0,1,0,0.,0.,0.25,0.25,1.,1.,9.,-27.0000008121133,0.,       109P     96
6.5,-27.0000008121133,0.,0.,0.25,0.,0.,0.;                           109P     97
126,1,1,0,0,1,0,0.,0.,0.25,0.25,1.,1.,9.,27.5,0.,6.5,27.5,0.,0.,     111P     98
0.25,0.,0.,0.;                                                       111P     99
126,1,1,0,0,1,0,-0.375,-0.375,1.375,1.375,1.,1.,6.5,10.,0.,6.5,      113P    100
27.5,0.,-0.375,1.375,0.,0.,0.;                                       113P    101
126,1,1,0,0,1,0,0.,0.,0.9,0.9,1.,1.,0.,27.5,21.650635094611,9.,      115P    102
27.5,21.650635094611,0.,0.9,0.,0.,0.;                                115P    103
126,1,1,0,0,1,0,-2.1650635094611,-2.1650635094611,0.,0.,1.,1.,       117P    104
0.,27.5,21.650635094611,0.,27.5,0.,-2.1650635094611,0.,0.,0.,0.;     117P    105
126,1,1,0,0,1,0,-0.65,-0.65,0.,0.,1.,1.,6.5,27.5,0.,0.,27.5,0.,      119P    106
-0.65,0.,0.,0.,0.;                                                   119P    107
126,1,1,0,0,1,0,-0.797014905399055,-0.797014905399055,               121P    108
-0.274999999999966,-0.274999999999966,1.,1.,6.5,                     121P    109
-27.0000008121133,5.22014905399089,6.5,-27.0000008121133,0.,         121P    110
-0.797014905399055,-0.274999999999966,0.,0.,0.;                      121P    111
126,1,1,0,0,1,0,0.,0.,0.65,0.65,1.,1.,0.,-27.0000008121133,          123P    112
5.22014905399089,6.5,-27.0000008121133,5.22014905399089,0.,0.65,     123P    113
0.,0.,0.;                                                            123P    114
126,1,1,0,0,1,0,-3.47798509460091,-3.47798509460091,                 125P    115
-1.77289435332339,-1.77289435332339,1.,1.,0.,-27.0000008121133,      125P    116
5.22014905399089,0.,-27.0000008121133,22.2710564667661,              125P    117
-3.47798509460091,-1.77289435332339,0.,0.,0.;                        125P    118
126,1,1,0,0,1,0,-0.9,-0.9,0.,0.,1.,1.,9.,-27.0000008121133,          127P    119
22.2710564667661,0.,-27.0000008121133,22.2710564667661,-0.9,0.,      127P    120
0.,0.,0.;                                                            127P    121
126,4,2,0,0,0,0,-2.45187953608414,-2.45187953608414,                 129P    122
-2.45187953608414,-1.5594129402939,-1.5594129402939,                 129P    123
-0.666946344503664,-0.666946344503664,-0.666946344503664,1.,         129P    124
0.90207909628698,1.,0.902079096286981,1.,0.,-27.0000008121133,       129P    125
22.2710564667661,0.,-16.3451298919368,35.1883387666434,0.,           129P    126
0.398409922979516,34.9977323484433,0.,17.1419497378958,              129P    127
34.8071259302431,0.,27.5,21.650635094611,-2.45187953608414,          129P    128
-0.666946344503664,0.,0.,0.;                                         129P    129
126,1,1,0,0,1,0,-0.257142857142857,-0.257142857142857,               131P    130
0.0571428571428571,0.0571428571428571,1.,1.,9.,-35.,0.,-2.,-35.,     131P    131
0.,-0.257142857142857,0.0571428571428571,0.,0.,0.;                   131P    132
126,8,2,0,1,0,0,-3.14159265358979,-3.14159265358979,                 133P    133
-3.14159265358979,-1.5707963267949,-1.5707963267949,0.,0.,           133P    134
1.5707963267949,1.5707963267949,3.14159265358979,                    133P    135
3.14159265358979,3.14159265358979,1.,0.707106781186547,1.,           133P    136
0.707106781186547,1.,0.707106781186547,1.,0.707106781186547,1.,      133P    137
-2.,-35.,4.28626379701574D-15,-2.,-35.,35.,-2.,                      133P    138
2.14313189850787D-15,35.,-2.,35.,35.,-2.,35.,0.,-2.,35.,-35.,        133P    139
-2.,2.14313189850787D-15,-35.,-2.,-35.,-35.,-2.,-35.,                133P    140
-4.28626379701574D-15,-3.14159265358979,3.14159265358979,0.,0.,      133P    141
0.;                                                                  133P    142
126,1,1,0,0,1,0,-1.25,-1.25,3.75,3.75,1.,1.,-2.,-17.5,-25.,-2.,      135P    143
-17.5,25.,-1.25,3.75,0.,0.,0.;                                       135P    144
126,1,1,0,0,1,0,0.2,0.2,2.3,2.3,1.,1.,-2.,-17.5,25.,-23.,-17.5,      137P    145
25.,0.2,2.3,0.,0.,0.;                                                137P    146
126,1,1,0,0,1,0,0.,0.,5.,5.,1.,1.,-23.,-17.5,-25.,-23.,-17.5,        139P    147
25.,0.,5.,0.,0.,0.;                                                  139P    148
126,1,1,0,0,1,0,0.2,0.2,2.3,2.3,1.,1.,-2.,-17.5,-25.,-23.,-17.5,     141P    149
-25.,0.2,2.3,0.,0.,0.;                                               141P    150
126,1,1,0,0,1,0,-0.875,-0.875,2.625,2.625,1.,1.,-2.,17.5,-25.,       143P    151
-2.,-17.5,-25.,-0.875,2.625,0.,0.,0.;                                143P    152
126,1,1,0,0,1,0,3.1,3.1,3.5,3.5,1.,1.,-23.,-13.5,-25.,-23.,          145P    153
-17.5,-25.,3.1,3.5,0.,0.,0.;                                         145P    154
126,1,1,0,0,1,0,-1.15,-1.15,0.35,0.35,1.,1.,-23.,-13.5,-25.,-8.,     147P    155
-13.5,-25.,-1.15,0.35,0.,0.,0.;                                      147P    156
126,1,1,0,0,1,0,-2.225,-2.225,0.475,0.475,1.,1.,-8.,-13.5,-25.,      149P    157
-8.,13.5,-25.,-2.225,0.475,0.,0.,0.;                                 149P    158
126,1,1,0,0,1,0,-0.35,-0.35,1.15,1.15,1.,1.,-8.,13.5,-25.,-23.,      151P    159
13.5,-25.,-0.35,1.15,0.,0.,0.;                                       151P    160
126,1,1,0,0,1,0,0.,0.,0.4,0.4,1.,1.,-23.,17.5,-25.,-23.,13.5,        153P    161
-25.,0.,0.4,0.,0.,0.;                                                153P    162
126,1,1,0,0,1,0,0.2,0.2,2.3,2.3,1.,1.,-2.,17.5,-25.,-23.,17.5,       155P    163
-25.,0.2,2.3,0.,0.,0.;                                               155P    164
126,1,1,0,0,1,0,-1.25,-1.25,3.75,3.75,1.,1.,-23.,-13.5,25.,-23.,     157P    165
-13.5,-25.,-1.25,3.75,0.,0.,0.;                                      157P    166
126,1,1,0,0,1,0,0.,0.,0.4,0.4,1.,1.,-23.,-17.5,25.,-23.,-13.5,       159P    167
25.,0.,0.4,0.,0.,0.;                                                 159P    168
126,1,1,0,0,1,0,-1.25,-1.25,3.75,3.75,1.,1.,-23.,13.5,-25.,-23.,     161P    169
13.5,25.,-1.25,3.75,0.,0.,0.;                                        161P    170
126,1,1,0,0,1,0,3.1,3.1,3.5,3.5,1.,1.,-23.,13.5,25.,-23.,17.5,       163P    171
25.,3.1,3.5,0.,0.,0.;                                                163P    172
126,1,1,0,0,1,0,0.,0.,5.,5.,1.,1.,-23.,17.5,25.,-23.,17.5,-25.,      165P    173
0.,5.,0.,0.,0.;                                                      165P    174
126,1,1,0,0,1,0,0.,0.,5.,5.,1.,1.,-8.,-13.5,25.,-8.,-13.5,-25.,      167P    175
0.,5.,0.,0.,0.;                                                      167P    176
126,1,1,0,0,1,0,-2.225,-2.225,0.475,0.475,1.,1.,-8.,13.5,25.,        169P    177
-8.,-13.5,25.,-2.225,0.475,0.,0.,0.;                                 169P    178
126,1,1,0,0,1,0,0.,0.,5.,5.,1.,1.,-8.,13.5,-25.,-8.,13.5,25.,0.,     171P    179
5.,0.,0.,0.;                                                         171P    180
126,1,1,0,0,1,0,-1.15,-1.15,0.35,0.35,1.,1.,-23.,13.5,25.,-8.,       173P    181
13.5,25.,-1.15,0.35,0.,0.,0.;                                        173P    182
126,1,1,0,0,1,0,-0.35,-0.35,1.15,1.15,1.,1.,-8.,-13.5,25.,-23.,      175P    183
-13.5,25.,-0.35,1.15,0.,0.,0.;                                       175P    184
126,1,1,0,0,1,0,-1.25,-1.25,3.75,3.75,1.,1.,-2.,17.5,25.,-2.,        177P    185
17.5,-25.,-1.25,3.75,0.,0.,0.;                                       177P    186
126,1,1,0,0,1,0,0.2,0.2,2.3,2.3,1.,1.,-2.,17.5,25.,-23.,17.5,        179P    187
25.,0.2,2.3,0.,0.,0.;                                                179P    188
126,1,1,0,0,1,0,-0.875,-0.875,2.625,2.625,1.,1.,-2.,-17.5,25.,       181P    189
-2.,17.5,25.,-0.875,2.625,0.,0.,0.;                                  181P    190
126,6,2,0,0,0,0,-3.33257513233775,-3.33257513233775,                 183P    191
-3.33257513233775,-2.22171675489183,-2.22171675489183,               183P    192
-1.11085837744592,-1.11085837744592,0.,0.,0.,1.,                     183P    193
0.849674203877602,1.,0.849674203877603,1.,0.849674203877603,1.,      183P    194
0.,-27.0000008121133,5.22014905399088,0.,-30.2396265954791,          183P    195
-11.536058072882,0.,-16.6627693973125,-21.8769768480927,0.,          183P    196
-3.08591219914595,-32.2178956233034,0.,12.207043900427,              183P    197
-24.6422011844122,0.,27.5,-17.066506745521,0.,27.5,0.,               183P    198
-3.33257513233775,0.,0.,0.,0.;                                       183P    199
126,6,2,0,0,0,0,2.95061017484184,2.95061017484184,                   185P    200
2.95061017484184,4.06146855228775,4.06146855228775,                  185P    201
5.17232692973367,5.17232692973367,6.28318530717959,                  185P    202
6.28318530717959,6.28318530717959,1.,0.849674203877602,1.,           185P    203
0.849674203877603,1.,0.849674203877603,1.,6.5,-27.0000008121133,     185P    204
5.22014905399089,6.5,-30.2396265954791,-11.536058072882,6.5,         185P    205
-16.6627693973125,-21.8769768480927,6.5,-3.08591219914596,           185P    206
-32.2178956233035,6.5,12.207043900427,-24.6422011844122,6.5,         185P    207
27.5,-17.066506745521,6.5,27.5,-6.73555739531044D-15,                185P    208
2.95061017484184,6.28318530717959,0.,0.,0.;                          185P    209
128,1,4,1,2,0,0,0,0,0,0.65,0.65,0.9,0.9,-3.14159265358979,           187P    210
-3.14159265358979,-3.14159265358979,-1.5707963267949,                187P    211
-1.5707963267949,0.,0.,0.,1.,1.,0.707106781186548,                   187P    212
0.707106781186548,1.,1.,0.707106781186548,0.707106781186548,1.,      187P    213
1.,6.5,-10.,0.,9.,-10.,0.,6.5,-10.,-10.,9.,-10.,-10.,6.5,0.,         187P    214
-10.,9.,0.,-10.,6.5,10.,-10.,9.,10.,-10.,6.5,10.,0.,9.,10.,0.,       187P    215
0.65,0.9,-3.14159265358979,0.;                                       187P    216
128,1,1,1,1,0,0,1,0,0,-4.77455229490662,-4.77455229490662,           189P    217
4.7667877285854,4.7667877285854,-4.78284648737479,                   189P    218
-4.78284648737479,2.2281056466766,2.2281056466766,1.,1.,1.,1.,       189P    219
9.,-47.7455229490662,-47.8284648737479,9.,47.667877285854,           189P    220
-47.8284648737479,9.,-47.7455229490662,22.281056466766,9.,           189P    221
47.667877285854,22.281056466766,-4.77455229490662,                   189P    222
4.7667877285854,-4.78284648737479,2.2281056466766;                   189P    223
128,1,1,1,1,0,0,1,0,0,3.749,3.749,5.45100008121133,                  191P    224
5.45100008121133,-0.001,-0.001,0.251,0.251,1.,1.,1.,1.,9.01,         191P    225
-27.0100008121133,0.,9.01,-9.99,0.,6.49,-27.0100008121133,0.,        191P    226
6.49,-9.99,0.,3.749,5.45100008121133,-0.001,0.251;                   191P    227
128,1,1,1,1,0,0,1,0,0,-0.001,-0.001,1.751,1.751,-0.001,-0.001,       193P    228
0.251,0.251,1.,1.,1.,1.,9.01,9.99,0.,9.01,27.51,0.,6.49,9.99,0.,     193P    229
6.49,27.51,0.,-0.001,1.751,-0.001,0.251;                             193P    230
128,1,1,1,1,0,0,1,0,0,1.8339364905389,1.8339364905389,4.001,         195P    231
4.001,-0.001,-0.001,0.901,0.901,1.,1.,1.,1.,9.01,27.5,               195P    232
-0.0100000000000033,9.01,27.5,21.660635094611,-0.01,27.5,            195P    233
-0.0100000000000033,-0.01,27.5,21.660635094611,1.8339364905389,      195P    234
4.001,-0.001,0.901;                                                  195P    235
128,1,1,1,1,0,0,1,0,0,-0.001,-0.001,2.2281056466766,                 197P    236
2.2281056466766,-0.001,-0.001,0.901,0.901,1.,1.,1.,1.,9.01,          197P    237
-27.0000008121133,22.281056466766,9.01,-27.0000008121133,-0.01,      197P    238
-0.01,-27.0000008121133,22.281056466766,-0.01,-27.0000008121133,     197P    239
-0.01,-0.001,2.2281056466766,-0.001,0.901;                           197P    240
128,1,8,1,2,0,1,0,0,1,-0.0571428571428571,-0.0571428571428571,       199P    241
0.257142857142857,0.257142857142857,-3.14159265358979,               199P    242
-3.14159265358979,-3.14159265358979,-1.5707963267949,                199P    243
-1.5707963267949,0.,0.,1.5707963267949,1.5707963267949,              199P    244
3.14159265358979,3.14159265358979,3.14159265358979,1.,1.,            199P    245
0.707106781186548,0.707106781186548,1.,1.,0.707106781186548,         199P    246
0.707106781186548,1.,1.,0.707106781186548,0.707106781186548,1.,      199P    247
1.,0.707106781186548,0.707106781186548,1.,1.,9.,-35.,0.,-2.,         199P    248
-35.,0.,9.,-35.,-35.,-2.,-35.,-35.,9.,0.,-35.,-2.,0.,-35.,9.,        199P    249
35.,-35.,-2.,35.,-35.,9.,35.,0.,-2.,35.,0.,9.,35.,35.,-2.,35.,       199P    250
35.,9.,0.,35.,-2.,0.,35.,9.,-35.,35.,-2.,-35.,35.,9.,-35.,0.,        199P    251
-2.,-35.,0.,-0.0571428571428571,0.257142857142857,                   199P    252
-3.14159265358979,3.14159265358979;                                  199P    253
128,1,1,1,1,0,0,1,0,0,-0.001,-0.001,5.001,5.001,0.199,0.199,         201P    254
2.301,2.301,1.,1.,1.,1.,-1.99,-17.5,-25.01,-1.99,-17.5,25.01,        201P    255
-23.01,-17.5,-25.01,-23.01,-17.5,25.01,-0.001,5.001,0.199,2.301;     201P    256
128,1,1,1,1,0,0,1,0,0,-0.001,-0.001,3.501,3.501,0.199,0.199,         203P    257
2.301,2.301,1.,1.,1.,1.,-1.99,17.51,-25.,-1.99,-17.51,-25.,          203P    258
-23.01,17.51,-25.,-23.01,-17.51,-25.,-0.001,3.501,0.199,2.301;       203P    259
128,1,1,1,1,0,0,1,0,0,-2.501,-2.501,2.501,2.501,-1.751,-1.751,       205P    260
-1.349,-1.349,1.,1.,1.,1.,-23.,-17.51,-25.01,-23.,-17.51,25.01,      205P    261
-23.,-13.49,-25.01,-23.,-13.49,25.01,-2.501,2.501,-1.751,-1.349;     205P    262
128,1,1,1,1,0,0,1,0,0,-2.501,-2.501,2.501,2.501,1.349,1.349,         207P    263
1.751,1.751,1.,1.,1.,1.,-23.,13.49,-25.01,-23.,13.49,25.01,-23.,     207P    264
17.51,-25.01,-23.,17.51,25.01,-2.501,2.501,1.349,1.751;              207P    265
128,1,1,1,1,0,0,1,0,0,-2.501,-2.501,2.501,2.501,-1.351,-1.351,       209P    266
1.351,1.351,1.,1.,1.,1.,-8.,-13.51,-25.01,-8.,-13.51,25.01,-8.,      209P    267
13.51,-25.01,-8.,13.51,25.01,-2.501,2.501,-1.351,1.351;              209P    268
128,1,1,1,1,0,0,1,0,0,-0.001,-0.001,5.001,5.001,-0.001,-0.001,       211P    269
1.501,1.501,1.,1.,1.,1.,-23.01,13.5,25.01,-23.01,13.5,-25.01,        211P    270
-7.99,13.5,25.01,-7.99,13.5,-25.01,-0.001,5.001,-0.001,1.501;        211P    271
128,1,1,1,1,0,0,1,0,0,-0.001,-0.001,5.001,5.001,-0.001,-0.001,       213P    272
1.501,1.501,1.,1.,1.,1.,-23.01,-13.5,-25.01,-23.01,-13.5,25.01,      213P    273
-7.99,-13.5,-25.01,-7.99,-13.5,25.01,-0.001,5.001,-0.001,1.501;      213P    274
128,1,1,1,1,0,0,1,0,0,-0.001,-0.001,5.001,5.001,0.199,0.199,         215P    275
2.301,2.301,1.,1.,1.,1.,-1.99,17.5,25.01,-1.99,17.5,-25.01,          215P    276
-23.01,17.5,25.01,-23.01,17.5,-25.01,-0.001,5.001,0.199,2.301;       215P    277
128,1,1,1,1,0,0,1,0,0,-0.001,-0.001,3.501,3.501,0.199,0.199,         217P    278
2.301,2.301,1.,1.,1.,1.,-1.99,-17.51,25.,-1.99,17.51,25.,-23.01,     217P    279
-17.51,25.,-23.01,17.51,25.,-0.001,3.501,0.199,2.301;                217P    280
128,1,1,1,1,0,0,1,0,0,-3.501,-3.501,3.501,3.501,-3.501,-3.501,       219P    281
3.501,3.501,1.,1.,1.,1.,-2.,35.01,-35.01,-2.,-35.01,-35.01,-2.,      219P    282
35.01,35.01,-2.,-35.01,35.01,-3.501,3.501,-3.501,3.501;              219P    283
128,1,6,1,2,0,0,0,0,0,0.,0.,0.236363636363636,0.236363636363636,     221P    284
-3.33257513233775,-3.33257513233775,-3.33257513233775,               221P    285
-2.22171675489183,-2.22171675489183,-1.11085837744592,               221P    286
-1.11085837744592,0.,0.,0.,1.,1.,0.849674203877602,                  221P    287
0.849674203877602,1.,1.,0.849674203877602,0.849674203877602,1.,      221P    288
1.,0.849674203877602,0.849674203877602,1.,1.,0.,                     221P    289
-27.0000008121133,5.22014905399088,6.5,-27.0000008121133,            221P    290
5.22014905399088,0.,-30.2396265954791,-11.536058072882,6.5,          221P    291
-30.2396265954791,-11.536058072882,0.,-16.6627693973125,             221P    292
-21.8769768480927,6.5,-16.6627693973125,-21.8769768480927,0.,        221P    293
-3.08591219914595,-32.2178956233035,6.5,-3.08591219914595,           221P    294
-32.2178956233035,0.,12.207043900427,-24.6422011844122,6.5,          221P    295
12.207043900427,-24.6422011844122,0.,27.5,-17.066506745521,6.5,      221P    296
27.5,-17.066506745521,0.,27.5,0.,6.5,27.5,0.,0.,                     221P    297
0.236363636363636,-3.33257513233775,0.;                              221P    298
128,1,1,1,1,0,0,1,0,0,-3.02496265954791,-3.02496265954791,2.751,     223P    299
2.751,-2.67278956233041,-2.67278956233041,4.06983387666428,          223P    300
4.06983387666428,1.,1.,1.,1.,0.,-30.2496265954791,                   223P    301
-32.2278956233035,0.,27.51,-32.2278956233035,0.,                     223P    302
-30.2496265954791,35.1983387666434,0.,27.51,35.1983387666434,        223P    303
-3.02496265954791,2.751,-2.67278956233041,4.06983387666428;          223P    304
128,1,1,1,1,0,0,1,0,0,-3.02496265954791,-3.02496265954791,2.751,     225P    305
2.751,-2.67278956233041,-2.67278956233041,1.07301490539902,          225P    306
1.07301490539902,1.,1.,1.,1.,6.5,27.51,-32.2278956233035,6.5,        225P    307
-30.2496265954791,-32.2278956233035,6.5,27.51,5.23014905399089,      225P    308
6.5,-30.2496265954791,5.23014905399089,-3.02496265954791,2.751,      225P    309
-2.67278956233041,1.07301490539902;                                  225P    310
502,33,9.,-10.,0.,6.5,-10.,0.,9.,10.,0.,6.5,10.,0.,9.,               227P    311
-27.0000008121133,0.,9.,-27.0000008121133,22.2710564667661,9.,       227P    312
-35.,0.,9.,27.5,21.650635094611,9.,27.5,0.,6.5,                      227P    313
-27.0000008121133,0.,6.5,27.5,0.,0.,27.5,21.650635094611,0.,         227P    314
27.5,0.,6.5,-27.0000008121133,5.22014905399089,0.,                   227P    315
-27.0000008121133,5.22014905399089,0.,-27.0000008121133,             227P    316
22.2710564667661,-2.,-35.,-4.28626379701574D-15,-2.,-17.5,-25.,      227P    317
-2.,-17.5,25.,-23.,-17.5,25.,-23.,-17.5,-25.,-2.,17.5,-25.,-23.,     227P    318
-13.5,-25.,-8.,-13.5,-25.,-8.,13.5,-25.,-23.,13.5,-25.,-23.,         227P    319
17.5,-25.,-23.,-13.5,25.,-23.,13.5,25.,-23.,17.5,25.,-8.,-13.5,      227P    320
25.,-8.,13.5,25.,-2.,17.5,25.;                                       227P    321
504,50,87,227,1,227,2,89,227,3,227,1,91,227,4,227,3,93,227,2,        229P    322
227,4,95,227,1,227,5,97,227,5,227,6,99,227,6,227,7,101,227,7,        229P    323
227,8,103,227,8,227,9,105,227,9,227,3,107,227,10,227,2,109,227,      229P    324
5,227,10,111,227,9,227,11,113,227,4,227,11,115,227,12,227,8,117,     229P    325
227,12,227,13,119,227,11,227,13,121,227,14,227,10,123,227,15,        229P    326
227,14,125,227,15,227,16,127,227,6,227,16,129,227,16,227,12,131,     229P    327
227,7,227,17,133,227,17,227,17,135,227,18,227,19,137,227,19,227,     229P    328
20,139,227,21,227,20,141,227,18,227,21,143,227,22,227,18,145,        229P    329
227,23,227,21,147,227,23,227,24,149,227,24,227,25,151,227,25,        229P    330
227,26,153,227,27,227,26,155,227,22,227,27,157,227,28,227,23,        229P    331
159,227,20,227,28,161,227,26,227,29,163,227,29,227,30,165,227,       229P    332
30,227,27,167,227,31,227,24,169,227,32,227,31,171,227,25,227,32,     229P    333
173,227,29,227,32,175,227,31,227,28,177,227,33,227,22,179,227,       229P    334
33,227,30,181,227,19,227,33,183,227,15,227,13,185,227,14,227,11;     229P    335
406,1,5HBody1;                                                       231P    336
314,62.7450980392157,62.7450980392157,62.7450980392157,13HSteel      233P    337
- Satin;                                                             233P    338
S      1G      3D    234P    338                                        T      1
