0
SECTION
2
HEADER
9
$INSUNITS
70
4
9
$ACADVER
1
AC1014
9
$HANDSEED
5
FFFF
0
ENDSEC
0
SECTION
2
TABLES
0
TABLE
2
VPORT
5
8
100
AcDbSymbolTable
0
ENDTAB
0
TABLE
2
LTYPE
5
5
100
AcDbSymbolTable
0
LTYPE
5
14
100
AcDbSymbolTableRecord
100
AcDbLinetypeTableRecord
2
BYBLOCK
70
0
0
LTYPE
5
15
100
AcDbSymbolTableRecord
100
AcDbLinetypeTableRecord
2
BYLAYER
70
0
0
LTYPE
5
16
100
AcDbSymbolTableRecord
100
AcDbLinetypeTableRecord
2
DASHED
70
0
3
Dashed __ __ __ __ __ __ __ __ __ __ __ __ __ _
72
65
73
2
40
0.75
49
0.5
74
0
49
-0.25
74
0
0
ENDTAB
0
TABLE
2
LAYER
5
2
100
AcDbSymbolTable
70
2
0
LAYER
5
50
100
AcDbSymbolTableRecord
100
AcDbLayerTableRecord
2
0
70
0
62
7
6
CONTINUOUS
0
ENDTAB
0
TABLE
2
STYLE
5
3
100
AcDbSymbolTable
70
1
0
STYLE
5
11
100
AcDbSymbolTableRecord
100
AcDbTextStyleTableRecord
2
STANDARD
70
0
0
ENDTAB
0
TABLE
2
VIEW
5
6
100
AcDbSymbolTable
70
0
0
ENDTAB
0
TABLE
2
UCS
5
7
100
AcDbSymbolTable
70
0
0
ENDTAB
0
TABLE
2
APPID
5
9
100
AcDbSymbolTable
70
2
0
APPID
5
12
100
AcDbSymbolTableRecord
100
AcDbRegAppTableRecord
2
ACAD
70
0
0
ENDTAB
0
TABLE
2
DIMSTYLE
5
A
100
AcDbSymbolTable
70
1
0
ENDTAB
0
TABLE
2
BLOCK_RECORD
5
1
100
AcDbSymbolTable
70
1
0
BLOCK_RECORD
5
1F
100
AcDbSymbolTableRecord
100
AcDbBlockTableRecord
2
*MODEL_SPACE
0
BLOCK_RECORD
5
1B
100
AcDbSymbolTableRecord
100
AcDbBlockTableRecord
2
*PAPER_SPACE
0
ENDTAB
0
ENDSEC
0
SECTION
2
BLOCKS
0
BLOCK
5
20
100
AcDbEntity
100
AcDbBlockBegin
2
*MODEL_SPACE
0
ENDBLK
5
21
100
AcDbEntity
100
AcDbBlockEnd
0
BLOCK
5
1C
100
AcDbEntity
100
AcDbBlockBegin
2
*PAPER_SPACE
0
ENDBLK
5
1D
100
AcDbEntity
100
AcDbBlockEnd
0
ENDSEC
0
SECTION
2
ENTITIES
0
POINT
5
100
100
AcDbEntity
8
0
100
AcDbPoint
10
0
20
0
30
0
0
LWPOLYLINE
5
101
100
AcDbEntity
8
0
100
AcDbPolyline
90
4
70
1
43
0.0
10
0
20
0
10
-33.999999999969994
20
0
10
-33.999999999970001
20
-10.000000291445215
10
-1.5407439555097887e-32
20
-10
0
LINE
5
102
100
AcDbEntity
8
0
100
AcDbLine
10
0
20
-5
30
0
11
-33.999999999969994
21
-5.0000001457226073
31
0
6
DASHED
0
CIRCLE
5
103
100
AcDbEntity
8
0
100
AcDbCircle
10
-16.999999999984997
20
-5.0000000728613037
30
0
40
4
210
0
220
0
230
1
0
CIRCLE
5
104
100
AcDbEntity
8
0
100
AcDbCircle
10
-29.999999999969994
20
-5.0000001285787707
30
0
40
2
210
0
220
0
230
1
0
LINE
5
105
100
AcDbEntity
8
0
100
AcDbLine
10
-16.999999999988738
20
-2.5000000364306523
30
0
11
0
21
-2.5000000366443969
31
0
6
DASHED
0
LINE
5
106
100
AcDbEntity
8
0
100
AcDbLine
10
-16.999999999984997
20
-5.0000000728613037
30
0
11
-16.999999999984997
21
0
31
0
6
DASHED
0
LINE
5
107
100
AcDbEntity
8
0
100
AcDbLine
10
-16.999999999985
20
-5.0000000728613037
30
0
11
-16.999999999992511
21
-10.000000145722607
31
0
6
DASHED
0
LWPOLYLINE
5
108
100
AcDbEntity
8
0
100
AcDbPolyline
90
2
70
1
43
0.0
10
-22.000000357612851
20
-5.0000000942911003
10
-26.999999642327129
20
-5.0000001157208915
42
-0.99999999999999989
0
ARC
5
109
100
AcDbEntity
8
0
100
AcDbCircle
10
-24.49999999996999
20
-5.0000001050059959
30
0
40
2.4999996423871496
210
0
220
0
230
1
100
AcDbArc
50
-180
51
0
0
LWPOLYLINE
5
110
100
AcDbEntity
8
0
100
AcDbPolyline
90
2
70
1
43
0.0
10
-6.9999998435228097
20
-5.0000000300017122
10
-12.0000001564472
20
-5.0000000514315079
42
-0.99999999999999989
0
ARC
5
111
100
AcDbEntity
8
0
100
AcDbCircle
10
-9.499999999985004
20
-5.0000000407166141
30
0
40
2.5000001564621943
210
0
220
0
230
1
100
AcDbArc
50
-180
51
0
0
LINE
5
112
100
AcDbEntity
8
0
100
AcDbLine
10
-9.499999999985004
20
-5.0000000407166141
30
0
11
-9.4999999571254108
21
-10.000000081433223
31
0
6
DASHED
0
LINE
5
113
100
AcDbEntity
8
0
100
AcDbLine
10
-9.499999999985004
20
-5.0000000407166141
30
0
11
-9.499999999985004
21
0
31
0
6
DASHED
0
LINE
5
114
100
AcDbEntity
8
0
100
AcDbLine
10
-29.999999999969994
20
-5.0000001285787707
30
0
11
-29.999999957110397
21
-10.000000257157541
31
0
6
DASHED
0
LINE
5
115
100
AcDbEntity
8
0
100
AcDbLine
10
-29.999999999969994
20
-5.0000001285787707
30
0
11
-29.999999999969994
21
0
31
0
6
DASHED
0
CIRCLE
5
116
100
AcDbEntity
8
0
100
AcDbCircle
10
-9.499999999985004
20
-5.0000000407166105
30
0
40
3.5
210
0
220
0
230
1
0
CIRCLE
5
117
100
AcDbEntity
8
0
100
AcDbCircle
10
-16.999999999984997
20
-5.0000000728613037
30
0
40
5
210
0
220
0
230
1
0
CIRCLE
5
118
100
AcDbEntity
8
0
100
AcDbCircle
10
-24.49999999996999
20
-5.0000001050059959
30
0
40
3.5
210
0
220
0
230
1
0
CIRCLE
5
119
100
AcDbEntity
8
0
100
AcDbCircle
10
-29.999999999969994
20
-5.0000001285787707
30
0
40
3.0000000000000004
210
0
220
0
230
1
0
LINE
5
120
100
AcDbEntity
8
0
100
AcDbLine
10
-8.8000000146827801
20
-1.5707143978199887
30
0
11
-16.000000020981819
21
-0.10102058300898784
31
0
0
LINE
5
121
100
AcDbEntity
8
0
100
AcDbLine
10
-8.7999999852872239
20
-8.4292856776128886
30
0
11
-15.999999978988168
21
-9.8989795541417021
31
0
0
LINE
5
122
100
AcDbEntity
8
0
100
AcDbLine
10
-25.199999985273614
20
-8.4292857479023322
30
0
11
-17.999999978990168
21
-9.89897956271321
31
0
0
LINE
5
123
100
AcDbEntity
8
0
100
AcDbLine
10
-18.00000002098383
20
-0.1010205915813177
30
0
11
-25.200000014669182
21
-1.5707144681100074
31
0
0
LINE
5
124
100
AcDbEntity
8
0
100
AcDbLine
10
-24.818181833090552
20
-1.5144929222459251
30
0
11
-30.272727285501905
21
-2.0124225433558527
31
0
0
LINE
5
125
100
AcDbEntity
8
0
100
AcDbLine
10
-24.818181803213065
20
-8.4855072904934943
30
0
11
-30.272727259892633
21
-7.9875777161394854
31
0
0
ENDSEC
0
SECTION
2
OBJECTS
0
DICTIONARY
5
C
100
AcDbDictionary
3
ACAD_GROUP
350
D
3
ACAD_MLINESTYLE
350
17
0
DICTIONARY
5
D
100
AcDbDictionary
0
DICTIONARY
5
1A
330
C
100
AcDbDictionary
0
DICTIONARY
5
17
100
AcDbDictionary
0
ENDSEC
0
EOF
