0
SECTION
2
HEADER
9
$INSUNITS
70
4
9
$ACADVER
1
AC1014
9
$HANDSEED
5
FFFF
0
ENDSEC
0
SECTION
2
TABLES
0
TABLE
2
VPORT
5
8
100
AcDbSymbolTable
0
ENDTAB
0
TABLE
2
LTYPE
5
5
100
AcDbSymbolTable
0
LTYPE
5
14
100
AcDbSymbolTableRecord
100
AcDbLinetypeTableRecord
2
BYBLOCK
70
0
0
LTYPE
5
15
100
AcDbSymbolTableRecord
100
AcDbLinetypeTableRecord
2
BYLAYER
70
0
0
LTYPE
5
16
100
AcDbSymbolTableRecord
100
AcDbLinetypeTableRecord
2
DASHED
70
0
3
Dashed __ __ __ __ __ __ __ __ __ __ __ __ __ _
72
65
73
2
40
0.75
49
0.5
74
0
49
-0.25
74
0
0
ENDTAB
0
TABLE
2
LAYER
5
2
100
AcDbSymbolTable
70
2
0
LAYER
5
50
100
AcDbSymbolTableRecord
100
AcDbLayerTableRecord
2
0
70
0
62
7
6
CONTINUOUS
0
ENDTAB
0
TABLE
2
STYLE
5
3
100
AcDbSymbolTable
70
1
0
STYLE
5
11
100
AcDbSymbolTableRecord
100
AcDbTextStyleTableRecord
2
STANDARD
70
0
0
ENDTAB
0
TABLE
2
VIEW
5
6
100
AcDbSymbolTable
70
0
0
ENDTAB
0
TABLE
2
UCS
5
7
100
AcDbSymbolTable
70
0
0
ENDTAB
0
TABLE
2
APPID
5
9
100
AcDbSymbolTable
70
2
0
APPID
5
12
100
AcDbSymbolTableRecord
100
AcDbRegAppTableRecord
2
ACAD
70
0
0
ENDTAB
0
TABLE
2
DIMSTYLE
5
A
100
AcDbSymbolTable
70
1
0
ENDTAB
0
TABLE
2
BLOCK_RECORD
5
1
100
AcDbSymbolTable
70
1
0
BLOCK_RECORD
5
1F
100
AcDbSymbolTableRecord
100
AcDbBlockTableRecord
2
*MODEL_SPACE
0
BLOCK_RECORD
5
1B
100
AcDbSymbolTableRecord
100
AcDbBlockTableRecord
2
*PAPER_SPACE
0
ENDTAB
0
ENDSEC
0
SECTION
2
BLOCKS
0
BLOCK
5
20
100
AcDbEntity
100
AcDbBlockBegin
2
*MODEL_SPACE
0
ENDBLK
5
21
100
AcDbEntity
100
AcDbBlockEnd
0
BLOCK
5
1C
100
AcDbEntity
100
AcDbBlockBegin
2
*PAPER_SPACE
0
ENDBLK
5
1D
100
AcDbEntity
100
AcDbBlockEnd
0
ENDSEC
0
SECTION
2
ENTITIES
0
SPLINE
5
100
100
AcDbEntity
8
0
100
AcDbSpline
70
0
71
2
72
6
73
3
74
0
42
0.000000001
43
0.0000000001
44
0.0000000001
40
-1
40
-1
40
-1
40
0
40
0
40
0
10
-126.41500616073608
20
-36.347338914871216
30
0
10
-129.18253684043884
20
-36.347338914871216
30
0
10
-130.84133648872375
20
-34.619781732559204
30
0
0
SPLINE
5
101
100
AcDbEntity
8
0
100
AcDbSpline
70
0
71
2
72
6
73
3
74
0
42
0.000000001
43
0.0000000001
44
0.0000000001
40
-1
40
-1
40
-1
40
0
40
0
40
0
10
-130.84133648872375
20
-34.619781732559204
30
0
10
-132.50013613700867
20
-32.892223358154297
30
0
10
-132.50013613700867
20
-29.909822106361389
30
0
0
SPLINE
5
102
100
AcDbEntity
8
0
100
AcDbSpline
70
0
71
2
72
6
73
3
74
0
42
0.000000001
43
0.0000000001
44
0.0000000001
40
-1
40
-1
40
-1
40
0
40
0
40
0
10
-132.50013613700867
20
-29.909822106361389
30
0
10
-132.50013613700867
20
-27.219645738601685
30
0
10
-131.24529266357422
20
-25.54365611076355
30
0
0
LINE
5
103
100
AcDbEntity
8
0
100
AcDbLine
10
-131.24529266357422
20
-25.543656110763557
30
0
11
-132.71500611305237
21
-23.893451452255249
31
0
0
LINE
5
104
100
AcDbEntity
8
0
100
AcDbLine
10
-132.71500611305237
20
-23.893451452255249
30
0
11
-131.49454259872437
21
-22.827694177627563
31
0
0
LINE
5
105
100
AcDbEntity
8
0
100
AcDbLine
10
-131.49454259872437
20
-22.827694177627563
30
0
11
-130.10218286514282
21
-24.391950130462646
31
0
0
SPLINE
5
106
100
AcDbEntity
8
0
100
AcDbSpline
70
0
71
2
72
6
73
3
74
0
42
0.000000001
43
0.0000000001
44
0.0000000001
40
-1
40
-1
40
-1
40
0
40
0
40
0
10
-130.10218286514282
20
-24.391950130462646
30
0
10
-128.68403816223145
20
-23.317599058151245
30
0
10
-126.32046365737915
20
-23.317599058151245
30
0
0
SPLINE
5
107
100
AcDbEntity
8
0
100
AcDbSpline
70
0
71
2
72
6
73
3
74
0
42
0.000000001
43
0.0000000001
44
0.0000000001
40
-1
40
-1
40
-1
40
0
40
0
40
0
10
-126.32046365737915
20
-23.317599058151245
30
0
10
-123.59590673446655
20
-23.317599058151245
30
0
10
-121.93710708618164
20
-25.040858745574951
30
0
0
SPLINE
5
108
100
AcDbEntity
8
0
100
AcDbSpline
70
0
71
2
72
6
73
3
74
0
42
0.000000001
43
0.0000000001
44
0.0000000001
40
-1
40
-1
40
-1
40
0
40
0
40
0
10
-121.93710708618164
20
-25.040858745574951
30
0
10
-120.27830743789673
20
-26.764119625091553
30
0
10
-120.27830743789673
20
-29.763710260391235
30
0
0
SPLINE
5
109
100
AcDbEntity
8
0
100
AcDbSpline
70
0
71
2
72
6
73
3
74
0
42
0.000000001
43
0.0000000001
44
0.0000000001
40
-1
40
-1
40
-1
40
0
40
0
40
0
10
-120.27830743789673
20
-29.763710260391235
30
0
10
-120.27830743789673
20
-31.035743117332458
30
0
10
-120.59631729125977
20
-32.165961623191833
30
0
0
SPLINE
5
110
100
AcDbEntity
8
0
100
AcDbSpline
70
0
71
2
72
6
73
3
74
0
42
0.000000001
43
0.0000000001
44
0.0000000001
40
-1
40
-1
40
-1
40
0
40
0
40
0
10
-120.59631729125977
20
-32.165961623191833
30
0
10
-120.91432476043701
20
-33.296179533004761
30
0
10
-121.49017715454102
20
-34.069713115692139
30
0
0
LINE
5
111
100
AcDbEntity
8
0
100
AcDbLine
10
-121.49017715454102
20
-34.069713115692139
30
0
11
-120.05484247207642
21
-35.68553900718689
31
0
0
LINE
5
112
100
AcDbEntity
8
0
100
AcDbLine
10
-120.05484247207642
20
-35.68553900718689
30
0
11
-121.24952220916748
21
-36.734106302261353
31
0
0
LINE
5
113
100
AcDbEntity
8
0
100
AcDbLine
10
-121.24952220916748
20
-36.734106302261353
30
0
11
-122.60750198364258
21
-35.212824106216431
31
0
0
SPLINE
5
114
100
AcDbEntity
8
0
100
AcDbSpline
70
0
71
2
72
6
73
3
74
0
42
0.000000001
43
0.0000000001
44
0.0000000001
40
-1
40
-1
40
-1
40
0
40
0
40
0
10
-122.60750198364258
20
-35.212824106216431
30
0
10
-124.12019038200378
20
-36.347338914871216
30
0
10
-126.41500616073608
20
-36.347338914871216
30
0
0
LINE
5
115
100
AcDbEntity
8
0
100
AcDbLine
10
-117.38185548782349
20
-28.938607931137085
30
0
11
-117.37326049804688
21
-26.772714614868164
31
0
0
SPLINE
5
116
100
AcDbEntity
8
0
100
AcDbSpline
70
0
71
2
72
6
73
3
74
0
42
0.000000001
43
0.0000000001
44
0.0000000001
40
-1
40
-1
40
-1
40
0
40
0
40
0
10
-117.37326049804688
20
-26.772714614868164
30
0
10
-117.37326049804688
20
-25.930422306060791
30
0
10
-117.64829540252686
20
-25.71555233001709
30
0
0
SPLINE
5
117
100
AcDbEntity
8
0
100
AcDbSpline
70
0
71
2
72
6
73
3
74
0
42
0.000000001
43
0.0000000001
44
0.0000000001
40
-1
40
-1
40
-1
40
0
40
0
40
0
10
-117.64829540252686
20
-25.71555233001709
30
0
10
-117.92333030700684
20
-25.500681161880493
30
0
10
-118.72264766693115
20
-25.500681161880493
30
0
0
LINE
5
118
100
AcDbEntity
8
0
100
AcDbLine
10
-118.72264766693115
20
-25.500681161880493
30
0
11
-119.28990507125854
21
-25.509276151657104
31
0
0
LINE
5
119
100
AcDbEntity
8
0
100
AcDbLine
10
-119.28990507125854
20
-25.509276151657104
30
0
11
-119.28990507125857
21
-23.541064023971558
31
0
0
SPLINE
5
120
100
AcDbEntity
8
0
100
AcDbSpline
70
0
71
2
72
6
73
3
74
0
42
0.000000001
43
0.0000000001
44
0.0000000001
40
-1
40
-1
40
-1
40
0
40
0
40
0
10
-119.28990507125854
20
-23.541064023971558
30
0
10
-118.1124153137207
20
-23.45511531829834
30
0
10
-117.66548538208008
20
-23.45511531829834
30
0
0
SPLINE
5
121
100
AcDbEntity
8
0
100
AcDbSpline
70
0
71
2
72
6
73
3
74
0
42
0.000000001
43
0.0000000001
44
0.0000000001
40
-1
40
-1
40
-1
40
0
40
0
40
0
10
-117.66548538208008
20
-23.45511531829834
30
0
10
-116.39345073699951
20
-23.45511531829834
30
0
10
-115.79611206054688
20
-23.96650767326355
30
0
0
SPLINE
5
122
100
AcDbEntity
8
0
100
AcDbSpline
70
0
71
2
72
6
73
3
74
0
42
0.000000001
43
0.0000000001
44
0.0000000001
40
-1
40
-1
40
-1
40
0
40
0
40
0
10
-115.79611206054688
20
-23.96650767326355
30
0
10
-115.19877338409424
20
-24.477898836135864
30
0
10
-115.04406595230103
20
-25.393247365951538
30
0
0
SPLINE
5
123
100
AcDbEntity
8
0
100
AcDbSpline
70
0
71
2
72
6
73
3
74
0
42
0.000000001
43
0.0000000001
44
0.0000000001
40
-1
40
-1
40
-1
40
0
40
0
40
0
10
-115.04406595230103
20
-25.393247365951538
30
0
10
-114.88935852050781
20
-26.308594703674316
30
0
10
-114.88935852050781
20
-28.620600461959839
30
0
0
LINE
5
124
100
AcDbEntity
8
0
100
AcDbLine
10
-114.88935852050781
20
-28.620600461959839
30
0
11
-114.88935852050781
21
-34.000954389572144
31
0
0
LINE
5
125
100
AcDbEntity
8
0
100
AcDbLine
10
-114.88935852050781
20
-34.000954389572144
30
0
11
-111.09904432296753
21
-34.000954389572144
31
0
0
LINE
5
126
100
AcDbEntity
8
0
100
AcDbLine
10
-111.09904432296753
20
-34.000954389572144
30
0
11
-111.09904432296753
21
-23.532469034194946
31
0
0
LINE
5
127
100
AcDbEntity
8
0
100
AcDbLine
10
-111.09904432296753
20
-23.532469034194946
30
0
11
-108.55497980117798
21
-23.532469034194946
31
0
0
LINE
5
128
100
AcDbEntity
8
0
100
AcDbLine
10
-108.55497980117798
20
-23.532469034194946
30
0
11
-108.55497980117798
21
-36.132468938827515
31
0
0
LINE
5
129
100
AcDbEntity
8
0
100
AcDbLine
10
-108.55497980117798
20
-36.132468938827515
30
0
11
-117.38185548782349
21
-36.132468938827515
31
0
0
LINE
5
130
100
AcDbEntity
8
0
100
AcDbLine
10
-117.38185548782349
20
-36.132468938827515
30
0
11
-117.38185548782349
21
-28.938607931137085
31
0
0
LWPOLYLINE
5
131
100
AcDbEntity
8
0
100
AcDbPolyline
90
7
70
1
43
0.0
10
-103.06289100646973
20
-36.906002521514893
10
-100.8282413482666
20
-36.906002521514893
10
-99.049114227294922
20
-39.441473245620728
10
-100.99153900146484
20
-39.441473245620728
10
-101.98853874206543
20
-38.160845994949341
10
-102.91677856445312
20
-39.441473245620728
10
-104.86780309677124
20
-39.441473245620728
0
SPLINE
5
132
100
AcDbEntity
8
0
100
AcDbSpline
70
0
71
2
72
6
73
3
74
0
42
0.000000001
43
0.0000000001
44
0.0000000001
40
-1
40
-1
40
-1
40
0
40
0
40
0
10
-88.142293930053711
20
-27.202455759048462
30
0
10
-88.460301399230957
20
-26.205457210540771
30
0
10
-89.001773834228516
20
-25.801499843597412
30
0
0
SPLINE
5
133
100
AcDbEntity
8
0
100
AcDbSpline
70
0
71
2
72
6
73
3
74
0
42
0.000000001
43
0.0000000001
44
0.0000000001
40
-1
40
-1
40
-1
40
0
40
0
40
0
10
-89.001773834228516
20
-25.801499843597412
30
0
10
-89.543246269226074
20
-25.397543668746948
30
0
10
-90.574625968933105
20
-25.397543668746948
30
0
0
SPLINE
5
134
100
AcDbEntity
8
0
100
AcDbSpline
70
0
71
2
72
6
73
3
74
0
42
0.000000001
43
0.0000000001
44
0.0000000001
40
-1
40
-1
40
-1
40
0
40
0
40
0
10
-90.574625968933105
20
-25.397543668746948
30
0
10
-91.502865791320801
20
-25.397543668746948
30
0
10
-92.130288124084473
20
-25.775716066360474
30
0
0
SPLINE
5
135
100
AcDbEntity
8
0
100
AcDbSpline
70
0
71
2
72
6
73
3
74
0
42
0.000000001
43
0.0000000001
44
0.0000000001
40
-1
40
-1
40
-1
40
0
40
0
40
0
10
-92.130288124084473
20
-25.775716066360474
30
0
10
-92.878035545349121
20
-26.23124098777771
30
0
10
-92.878035545349121
20
-27.107912063598633
30
0
0
SPLINE
5
136
100
AcDbEntity
8
0
100
AcDbSpline
70
0
71
2
72
6
73
3
74
0
42
0.000000001
43
0.0000000001
44
0.0000000001
40
-1
40
-1
40
-1
40
0
40
0
40
0
10
-92.878035545349121
20
-27.107912063598633
30
0
10
-92.878035545349121
20
-28.036153078079224
30
0
10
-92.044338226318359
20
-28.483083009719849
30
0
0
SPLINE
5
137
100
AcDbEntity
8
0
100
AcDbSpline
70
0
71
2
72
6
73
3
74
0
42
0.000000001
43
0.0000000001
44
0.0000000001
40
-1
40
-1
40
-1
40
0
40
0
40
0
10
-92.044338226318359
20
-28.483083009719849
30
0
10
-91.399725914001465
20
-28.826875448226929
30
0
10
-90.376943588256836
20
-28.826875448226929
30
0
0
LINE
5
138
100
AcDbEntity
8
0
100
AcDbLine
10
-90.376943588256822
20
-28.826875448226929
30
0
11
-89.801091194152832
21
-28.826875448226929
31
0
0
LINE
5
139
100
AcDbEntity
8
0
100
AcDbLine
10
-89.801091194152832
20
-28.826875448226929
30
0
11
-89.801091194152832
21
-30.726329445838928
31
0
0
LINE
5
140
100
AcDbEntity
8
0
100
AcDbLine
10
-89.801091194152832
20
-30.726329445838928
30
0
11
-90.093316078186064
21
-30.726329445838928
31
0
0
SPLINE
5
141
100
AcDbEntity
8
0
100
AcDbSpline
70
0
71
2
72
6
73
3
74
0
42
0.000000001
43
0.0000000001
44
0.0000000001
40
-1
40
-1
40
-1
40
0
40
0
40
0
10
-90.093316078186035
20
-30.726329445838928
30
0
10
-91.124695777893066
20
-30.726329445838928
30
0
10
-91.760710716247559
20
-31.156070590019226
30
0
0
SPLINE
5
142
100
AcDbEntity
8
0
100
AcDbSpline
70
0
71
2
72
6
73
3
74
0
42
0.000000001
43
0.0000000001
44
0.0000000001
40
-1
40
-1
40
-1
40
0
40
0
40
0
10
-91.760710716247559
20
-31.156070590019226
30
0
10
-92.499865531921387
20
-31.663164258003235
30
0
10
-92.499865531921387
20
-32.64297342300415
30
0
0
SPLINE
5
143
100
AcDbEntity
8
0
100
AcDbSpline
70
0
71
2
72
6
73
3
74
0
42
0.000000001
43
0.0000000001
44
0.0000000001
40
-1
40
-1
40
-1
40
0
40
0
40
0
10
-92.499865531921387
20
-32.64297342300415
30
0
10
-92.499865531921387
20
-33.433696389198303
30
0
10
-91.90682315826416
20
-33.87203311920166
30
0
0
SPLINE
5
144
100
AcDbEntity
8
0
100
AcDbSpline
70
0
71
2
72
6
73
3
74
0
42
0.000000001
43
0.0000000001
44
0.0000000001
40
-1
40
-1
40
-1
40
0
40
0
40
0
10
-91.90682315826416
20
-33.87203311920166
30
0
10
-91.373943328857422
20
-34.275989294052124
30
0
10
-90.557435989379883
20
-34.275989294052124
30
0
0
SPLINE
5
145
100
AcDbEntity
8
0
100
AcDbSpline
70
0
71
2
72
6
73
3
74
0
42
0.000000001
43
0.0000000001
44
0.0000000001
40
-1
40
-1
40
-1
40
0
40
0
40
0
10
-90.557435989379883
20
-34.275989294052124
30
0
10
-88.95880126953125
20
-34.275989294052124
30
0
10
-88.511871337890625
20
-32.694542169570923
30
0
0
LINE
5
146
100
AcDbEntity
8
0
100
AcDbLine
10
-88.511871337890625
20
-32.694542169570923
30
0
11
-86.036561965942383
21
-33.270395159721375
31
0
0
SPLINE
5
147
100
AcDbEntity
8
0
100
AcDbSpline
70
0
71
2
72
6
73
3
74
0
42
0.000000001
43
0.0000000001
44
0.0000000001
40
-1
40
-1
40
-1
40
0
40
0
40
0
10
-86.036561965942383
20
-33.270395159721375
30
0
10
-86.835879325866699
20
-36.347340106964111
30
0
10
-90.583218574523926
20
-36.347340106964111
30
0
0
SPLINE
5
148
100
AcDbEntity
8
0
100
AcDbSpline
70
0
71
2
72
6
73
3
74
0
42
0.000000001
43
0.0000000001
44
0.0000000001
40
-1
40
-1
40
-1
40
0
40
0
40
0
10
-90.583218574523926
20
-36.347340106964111
30
0
10
-92.345155715942383
20
-36.347340106964111
30
0
10
-93.574217796325684
20
-35.616780281066895
30
0
0
SPLINE
5
149
100
AcDbEntity
8
0
100
AcDbSpline
70
0
71
2
72
6
73
3
74
0
42
0.000000001
43
0.0000000001
44
0.0000000001
40
-1
40
-1
40
-1
40
0
40
0
40
0
10
-93.574217796325684
20
-35.616780281066895
30
0
10
-95.06112003326416
20
-34.73151421546936
30
0
10
-95.06112003326416
20
-33.081308960914612
30
0
0
SPLINE
5
150
100
AcDbEntity
8
0
100
AcDbSpline
70
0
71
2
72
6
73
3
74
0
42
0.000000001
43
0.0000000001
44
0.0000000001
40
-1
40
-1
40
-1
40
0
40
0
40
0
10
-95.06112003326416
20
-33.081308960914612
30
0
10
-95.06112003326416
20
-31.276398062705994
30
0
10
-92.99836540222168
20
-30.176261425018311
30
0
0
SPLINE
5
151
100
AcDbEntity
8
0
100
AcDbSpline
70
0
71
2
72
6
73
3
74
0
42
0.000000001
43
0.0000000001
44
0.0000000001
40
-1
40
-1
40
-1
40
0
40
0
40
0
10
-92.99836540222168
20
-30.176261425018311
30
0
10
-95.508049964904785
20
-29.31678032875061
30
0
10
-95.508049964904785
20
-27.021964550018311
30
0
0
SPLINE
5
152
100
AcDbEntity
8
0
100
AcDbSpline
70
0
71
2
72
6
73
3
74
0
42
0.000000001
43
0.0000000001
44
0.0000000001
40
-1
40
-1
40
-1
40
0
40
0
40
0
10
-95.508049964904785
20
-27.021964550018311
30
0
10
-95.508049964904785
20
-25.088131189346313
30
0
10
-93.978170394897461
20
-24.125511407852173
30
0
0
SPLINE
5
153
100
AcDbEntity
8
0
100
AcDbSpline
70
0
71
2
72
6
73
3
74
0
42
0.000000001
43
0.0000000001
44
0.0000000001
40
-1
40
-1
40
-1
40
0
40
0
40
0
10
-93.978170394897461
20
-24.125511407852173
30
0
10
-92.706140518188477
20
-23.317599058151245
30
0
10
-90.651978492736816
20
-23.317599058151245
30
0
0
SPLINE
5
154
100
AcDbEntity
8
0
100
AcDbSpline
70
0
71
2
72
6
73
3
74
0
42
0.000000001
43
0.0000000001
44
0.0000000001
40
-1
40
-1
40
-1
40
0
40
0
40
0
10
-90.651978492736816
20
-23.317599058151245
30
0
10
-88.666576385498047
20
-23.317599058151245
30
0
10
-87.600821495056152
20
-23.945020198822021
30
0
0
SPLINE
5
155
100
AcDbEntity
8
0
100
AcDbSpline
70
0
71
2
72
6
73
3
74
0
42
0.000000001
43
0.0000000001
44
0.0000000001
40
-1
40
-1
40
-1
40
0
40
0
40
0
10
-87.600821495056152
20
-23.945020198822021
30
0
10
-86.380356788635254
20
-24.658390045166016
30
0
10
-85.81309700012207
20
-26.437517166137695
30
0
0
LINE
5
156
100
AcDbEntity
8
0
100
AcDbLine
10
-85.81309700012207
20
-26.437517166137695
30
0
11
-88.142293930053711
21
-27.202455759048462
31
0
0
LWPOLYLINE
5
157
100
AcDbEntity
8
0
100
AcDbPolyline
90
8
70
1
43
0.0
10
-100.55320644378662
20
-23.532469034194946
10
-100.55320644378662
20
-34.000954389572144
10
-96.823057174682617
20
-34.000954389572144
10
-96.823057174682617
20
-36.132468938827515
10
-106.83601522445679
20
-36.132468938827515
10
-106.83601522445679
20
-34.000954389572144
10
-103.09727096557617
20
-34.000954389572144
10
-103.09727096557617
20
-23.532469034194946
0
LWPOLYLINE
5
158
100
AcDbEntity
8
0
100
AcDbPolyline
90
7
70
1
43
0.0
10
-68.932880401611328
20
-36.906002521514893
10
-66.698230743408203
20
-36.906002521514893
10
-64.919103622436523
20
-39.441473245620728
10
-66.861533164978027
20
-39.441473245620728
10
-67.858532905578613
20
-38.160845994949341
10
-68.786772727966309
20
-39.441473245620728
10
-70.737794876098633
20
-39.441473245620728
0
LINE
5
159
100
AcDbEntity
8
0
100
AcDbLine
10
-69.869712829589844
20
-5.9818551540374765
30
0
11
-70.918282508850098
21
-5.9818551540374765
31
0
0
LINE
5
160
100
AcDbEntity
8
0
100
AcDbLine
10
-70.918282508850098
20
-5.9818551540374765
30
0
11
-71.55429744720459
21
-7.3226473331451425
31
0
0
SPLINE
5
161
100
AcDbEntity
8
0
100
AcDbSpline
70
0
71
2
72
6
73
3
74
0
42
0.000000001
43
0.0000000001
44
0.0000000001
40
-1
40
-1
40
-1
40
0
40
0
40
0
10
-71.55429744720459
20
-7.3226473331451425
30
0
10
-72.147339820861816
20
-8.568894624710083
30
0
10
-72.766164779663086
20
-9.3854019641876221
30
0
0
SPLINE
5
162
100
AcDbEntity
8
0
100
AcDbSpline
70
0
71
2
72
6
73
3
74
0
42
0.000000001
43
0.0000000001
44
0.0000000001
40
-1
40
-1
40
-1
40
0
40
0
40
0
10
-72.766164779663086
20
-9.3854019641876221
30
0
10
-73.316234588623047
20
-10.115961790084839
30
0
10
-74.175714492797852
20
-10.356616735458374
30
0
0
SPLINE
5
163
100
AcDbEntity
8
0
100
AcDbSpline
70
0
71
2
72
6
73
3
74
0
42
0.000000001
43
0.0000000001
44
0.0000000001
40
-1
40
-1
40
-1
40
0
40
0
40
0
10
-74.175714492797852
20
-10.356616735458374
30
0
10
-73.548296928405762
20
-10.709004163742065
30
0
10
-73.238882064819336
20
-11.15593409538269
30
0
0
SPLINE
5
164
100
AcDbEntity
8
0
100
AcDbSpline
70
0
71
2
72
6
73
3
74
0
42
0.000000001
43
0.0000000001
44
0.0000000001
40
-1
40
-1
40
-1
40
0
40
0
40
0
10
-73.238882064819336
20
-11.15593409538269
30
0
10
-72.989629745483398
20
-11.499728918075562
30
0
10
-72.714599609375
20
-12.273258924484253
30
0
0
SPLINE
5
165
100
AcDbEntity
8
0
100
AcDbSpline
70
0
71
2
72
6
73
3
74
0
42
0.000000001
43
0.0000000001
44
0.0000000001
40
-1
40
-1
40
-1
40
0
40
0
40
0
10
-72.714599609375
20
-12.273258924484253
30
0
10
-72.276262283325195
20
-13.502321004867554
30
0
10
-72.052797317504883
20
-13.897680997848511
30
0
0
SPLINE
5
166
100
AcDbEntity
8
0
100
AcDbSpline
70
0
71
2
72
6
73
3
74
0
42
0.000000001
43
0.0000000001
44
0.0000000001
40
-1
40
-1
40
-1
40
0
40
0
40
0
10
-72.052797317504883
20
-13.897680997848511
30
0
10
-71.597270011901855
20
-14.71418833732605
30
0
10
-70.325240135192871
20
-14.679808378219604
30
0
0
LINE
5
167
100
AcDbEntity
8
0
100
AcDbLine
10
-70.325240135192871
20
-14.679808378219604
30
0
11
-69.964255332946777
21
-14.671215772628784
31
0
0
LINE
5
168
100
AcDbEntity
8
0
100
AcDbLine
10
-69.964255332946777
20
-14.671215772628784
30
0
11
-69.964255332946792
21
-16.553478002548218
31
0
0
SPLINE
5
169
100
AcDbEntity
8
0
100
AcDbSpline
70
0
71
2
72
6
73
3
74
0
42
0.000000001
43
0.0000000001
44
0.0000000001
40
-1
40
-1
40
-1
40
0
40
0
40
0
10
-69.964255332946777
20
-16.553478002548218
30
0
10
-70.24788761138916
20
-16.544885396957397
30
0
10
-70.333832740783691
20
-16.544885396957397
30
0
0
SPLINE
5
170
100
AcDbEntity
8
0
100
AcDbSpline
70
0
71
2
72
6
73
3
74
0
42
0.000000001
43
0.0000000001
44
0.0000000001
40
-1
40
-1
40
-1
40
0
40
0
40
0
10
-70.333832740783691
20
-16.544885396957397
30
0
10
-72.23328971862793
20
-16.544885396957397
30
0
10
-73.032607078552246
20
-15.926055669784546
30
0
0
SPLINE
5
171
100
AcDbEntity
8
0
100
AcDbSpline
70
0
71
2
72
6
73
3
74
0
42
0.000000001
43
0.0000000001
44
0.0000000001
40
-1
40
-1
40
-1
40
0
40
0
40
0
10
-73.032607078552246
20
-15.926055669784546
30
0
10
-73.754571914672852
20
-15.367393255233765
30
0
10
-74.476536750793457
20
-13.502321004867554
30
0
0
SPLINE
5
172
100
AcDbEntity
8
0
100
AcDbSpline
70
0
71
2
72
6
73
3
74
0
42
0.000000001
43
0.0000000001
44
0.0000000001
40
-1
40
-1
40
-1
40
0
40
0
40
0
10
-74.476536750793457
20
-13.502321004867554
30
0
10
-75.035199165344238
20
-12.075581312179565
30
0
10
-75.146931648254395
20
-11.886493921279907
30
0
0
SPLINE
5
173
100
AcDbEntity
8
0
100
AcDbSpline
70
0
71
2
72
6
73
3
74
0
42
0.000000001
43
0.0000000001
44
0.0000000001
40
-1
40
-1
40
-1
40
0
40
0
40
0
10
-75.146931648254395
20
-11.886493921279907
30
0
10
-75.60245418548584
20
-11.198909044265747
30
0
10
-76.55648136138916
20
-11.104364156723022
30
0
0
LINE
5
174
100
AcDbEntity
8
0
100
AcDbLine
10
-76.55648136138916
20
-11.104364156723022
30
0
11
-76.55648136138916
21
-16.467530488967896
31
0
0
LINE
5
175
100
AcDbEntity
8
0
100
AcDbLine
10
-76.55648136138916
20
-16.467530488967896
30
0
11
-79.100545883178711
21
-16.467530488967896
31
0
0
LINE
5
176
100
AcDbEntity
8
0
100
AcDbLine
10
-79.100545883178711
20
-16.467530488967896
30
0
11
-79.100545883178711
21
-3.867530584335328
31
0
0
LINE
5
177
100
AcDbEntity
8
0
100
AcDbLine
10
-79.100545883178711
20
-3.867530584335328
30
0
11
-76.55648136138916
21
-3.867530584335328
31
0
0
LINE
5
178
100
AcDbEntity
8
0
100
AcDbLine
10
-76.55648136138916
20
-3.867530584335328
30
0
11
-76.55648136138916
21
-9.3854019641876221
31
0
0
SPLINE
5
179
100
AcDbEntity
8
0
100
AcDbSpline
70
0
71
2
72
6
73
3
74
0
42
0.000000001
43
0.0000000001
44
0.0000000001
40
-1
40
-1
40
-1
40
0
40
0
40
0
10
-76.55648136138916
20
-9.3854019641876221
30
0
10
-75.825919151306152
20
-9.3768069744110107
30
0
10
-75.447749137878418
20
-9.015826940536499
30
0
0
SPLINE
5
180
100
AcDbEntity
8
0
100
AcDbSpline
70
0
71
2
72
6
73
3
74
0
42
0.000000001
43
0.0000000001
44
0.0000000001
40
-1
40
-1
40
-1
40
0
40
0
40
0
10
-75.447749137878418
20
-9.015826940536499
30
0
10
-75.224284172058105
20
-8.7923595905303955
30
0
10
-74.794544219970703
20
-7.9844472408294687
30
0
0
SPLINE
5
181
100
AcDbEntity
8
0
100
AcDbSpline
70
0
71
2
72
6
73
3
74
0
42
0.000000001
43
0.0000000001
44
0.0000000001
40
-1
40
-1
40
-1
40
0
40
0
40
0
10
-74.794544219970703
20
-7.9844472408294687
30
0
10
-74.536699295043945
20
-7.494542360305787
30
0
10
-74.476536750793457
20
-7.3914048671722421
30
0
0
SPLINE
5
182
100
AcDbEntity
8
0
100
AcDbSpline
70
0
71
2
72
6
73
3
74
0
42
0.000000001
43
0.0000000001
44
0.0000000001
40
-1
40
-1
40
-1
40
0
40
0
40
0
10
-74.476536750793457
20
-7.3914048671722421
30
0
10
-74.364804267883301
20
-7.1937248706817636
30
0
10
-74.330424308776855
20
-7.124964952468873
30
0
0
LINE
5
183
100
AcDbEntity
8
0
100
AcDbLine
10
-74.330424308776855
20
-7.1249649524688721
30
0
11
-72.826332092285156
21
-3.867530584335328
31
0
0
LINE
5
184
100
AcDbEntity
8
0
100
AcDbLine
10
-72.826332092285156
20
-3.867530584335328
30
0
11
-71.984037399291992
21
-3.867530584335328
31
0
0
LINE
5
185
100
AcDbEntity
8
0
100
AcDbLine
10
-71.984037399291992
20
-3.867530584335328
30
0
11
-71.984037399291992
21
-1.1171886920928964
31
0
0
LINE
5
186
100
AcDbEntity
8
0
100
AcDbLine
10
-71.984037399291992
20
-1.1171886920928964
30
0
11
-69.869712829589844
21
-1.1171886920928964
31
0
0
LINE
5
187
100
AcDbEntity
8
0
100
AcDbLine
10
-69.869712829589844
20
-1.1171886920928964
30
0
11
-69.869712829589844
21
-5.9818551540374765
31
0
0
LINE
5
188
100
AcDbEntity
8
0
100
AcDbLine
10
-83.251842498779297
20
-28.938607931137085
30
0
11
-83.243249893188477
21
-26.772714614868164
31
0
0
SPLINE
5
189
100
AcDbEntity
8
0
100
AcDbSpline
70
0
71
2
72
6
73
3
74
0
42
0.000000001
43
0.0000000001
44
0.0000000001
40
-1
40
-1
40
-1
40
0
40
0
40
0
10
-83.243249893188477
20
-26.772714614868164
30
0
10
-83.243249893188477
20
-25.930422306060791
30
0
10
-83.518280029296875
20
-25.71555233001709
30
0
0
SPLINE
5
190
100
AcDbEntity
8
0
100
AcDbSpline
70
0
71
2
72
6
73
3
74
0
42
0.000000001
43
0.0000000001
44
0.0000000001
40
-1
40
-1
40
-1
40
0
40
0
40
0
10
-83.518280029296875
20
-25.71555233001709
30
0
10
-83.793314933776855
20
-25.500681161880493
30
0
10
-84.592632293701172
20
-25.500681161880493
30
0
0
LINE
5
191
100
AcDbEntity
8
0
100
AcDbLine
10
-84.592632293701172
20
-25.500681161880493
30
0
11
-85.159892082214355
21
-25.509276151657104
31
0
0
LINE
5
192
100
AcDbEntity
8
0
100
AcDbLine
10
-85.159892082214355
20
-25.509276151657104
30
0
11
-85.159892082214355
21
-23.541064023971558
31
0
0
SPLINE
5
193
100
AcDbEntity
8
0
100
AcDbSpline
70
0
71
2
72
6
73
3
74
0
42
0.000000001
43
0.0000000001
44
0.0000000001
40
-1
40
-1
40
-1
40
0
40
0
40
0
10
-85.159892082214355
20
-23.541064023971558
30
0
10
-83.982399940490723
20
-23.45511531829834
30
0
10
-83.535470008850098
20
-23.45511531829834
30
0
0
SPLINE
5
194
100
AcDbEntity
8
0
100
AcDbSpline
70
0
71
2
72
6
73
3
74
0
42
0.000000001
43
0.0000000001
44
0.0000000001
40
-1
40
-1
40
-1
40
0
40
0
40
0
10
-83.535470008850098
20
-23.45511531829834
30
0
10
-82.263440132141113
20
-23.45511531829834
30
0
10
-81.666101455688477
20
-23.96650767326355
30
0
0
SPLINE
5
195
100
AcDbEntity
8
0
100
AcDbSpline
70
0
71
2
72
6
73
3
74
0
42
0.000000001
43
0.0000000001
44
0.0000000001
40
-1
40
-1
40
-1
40
0
40
0
40
0
10
-81.666101455688477
20
-23.96650767326355
30
0
10
-81.068758010864258
20
-24.477898836135864
30
0
10
-80.914052963256836
20
-25.393247365951538
30
0
0
SPLINE
5
196
100
AcDbEntity
8
0
100
AcDbSpline
70
0
71
2
72
6
73
3
74
0
42
0.000000001
43
0.0000000001
44
0.0000000001
40
-1
40
-1
40
-1
40
0
40
0
40
0
10
-80.914052963256836
20
-25.393247365951538
30
0
10
-80.759347915649414
20
-26.308594703674316
30
0
10
-80.759347915649414
20
-28.620600461959839
30
0
0
LINE
5
197
100
AcDbEntity
8
0
100
AcDbLine
10
-80.759347915649414
20
-28.620600461959839
30
0
11
-80.759347915649414
21
-34.000954389572144
31
0
0
LINE
5
198
100
AcDbEntity
8
0
100
AcDbLine
10
-80.759347915649414
20
-34.000954389572144
30
0
11
-76.96903133392334
21
-34.000954389572144
31
0
0
LINE
5
199
100
AcDbEntity
8
0
100
AcDbLine
10
-76.96903133392334
20
-34.000954389572144
30
0
11
-76.96903133392334
21
-23.532469034194946
31
0
0
LINE
5
200
100
AcDbEntity
8
0
100
AcDbLine
10
-76.96903133392334
20
-23.532469034194946
30
0
11
-74.424966812133789
21
-23.532469034194946
31
0
0
LINE
5
201
100
AcDbEntity
8
0
100
AcDbLine
10
-74.424966812133789
20
-23.532469034194946
30
0
11
-74.424966812133789
21
-36.132468938827515
31
0
0
LINE
5
202
100
AcDbEntity
8
0
100
AcDbLine
10
-74.424966812133789
20
-36.132468938827515
30
0
11
-83.251842498779297
21
-36.132468938827515
31
0
0
LINE
5
203
100
AcDbEntity
8
0
100
AcDbLine
10
-83.251842498779297
20
-36.132468938827515
30
0
11
-83.251842498779297
21
-28.938607931137085
31
0
0
LWPOLYLINE
5
204
100
AcDbEntity
8
0
100
AcDbPolyline
90
8
70
1
43
0.0
10
-66.423195838928223
20
-23.532469034194946
10
-66.423195838928223
20
-34.000954389572144
10
-62.693046569824219
20
-34.000954389572144
10
-62.693046569824219
20
-36.132468938827515
10
-72.70600700378418
20
-36.132468938827515
10
-72.70600700378418
20
-34.000954389572144
10
-68.967260360717773
20
-34.000954389572144
10
-68.967260360717773
20
-23.532469034194946
0
SPLINE
5
205
100
AcDbEntity
8
0
100
AcDbSpline
70
0
71
2
72
6
73
3
74
0
42
0.000000001
43
0.0000000001
44
0.0000000001
40
-1
40
-1
40
-1
40
0
40
0
40
0
10
-61.360849380493164
20
-7.5375173091888437
30
0
10
-61.678852081298828
20
-6.5405175685882577
30
0
10
-62.220329284667969
20
-6.1365625858306894
30
0
0
SPLINE
5
206
100
AcDbEntity
8
0
100
AcDbSpline
70
0
71
2
72
6
73
3
74
0
42
0.000000001
43
0.0000000001
44
0.0000000001
40
-1
40
-1
40
-1
40
0
40
0
40
0
10
-62.220329284667969
20
-6.1365625858306894
30
0
10
-62.761806488037109
20
-5.73260521888733
30
0
10
-63.793176651000977
20
-5.73260521888733
30
0
0
SPLINE
5
207
100
AcDbEntity
8
0
100
AcDbSpline
70
0
71
2
72
6
73
3
74
0
42
0.000000001
43
0.0000000001
44
0.0000000001
40
-1
40
-1
40
-1
40
0
40
0
40
0
10
-63.793176651000977
20
-5.73260521888733
30
0
10
-64.721421241760254
20
-5.73260521888733
30
0
10
-65.348843574523926
20
-6.1107776165008554
30
0
0
SPLINE
5
208
100
AcDbEntity
8
0
100
AcDbSpline
70
0
71
2
72
6
73
3
74
0
42
0.000000001
43
0.0000000001
44
0.0000000001
40
-1
40
-1
40
-1
40
0
40
0
40
0
10
-65.348843574523926
20
-6.1107776165008554
30
0
10
-66.096590995788574
20
-6.5663025379180917
30
0
10
-66.096590995788574
20
-7.4429748058319101
30
0
0
SPLINE
5
209
100
AcDbEntity
8
0
100
AcDbSpline
70
0
71
2
72
6
73
3
74
0
42
0.000000001
43
0.0000000001
44
0.0000000001
40
-1
40
-1
40
-1
40
0
40
0
40
0
10
-66.096590995788574
20
-7.4429748058319101
30
0
10
-66.096590995788574
20
-8.3712146282196045
30
0
10
-65.262893676757812
20
-8.8181445598602295
30
0
0
SPLINE
5
210
100
AcDbEntity
8
0
100
AcDbSpline
70
0
71
2
72
6
73
3
74
0
42
0.000000001
43
0.0000000001
44
0.0000000001
40
-1
40
-1
40
-1
40
0
40
0
40
0
10
-65.262893676757812
20
-8.8181445598602295
30
0
10
-64.618281364440918
20
-9.1619369983673096
30
0
10
-63.595499038696289
20
-9.1619369983673096
30
0
0
LINE
5
211
100
AcDbEntity
8
0
100
AcDbLine
10
-63.595499038696289
20
-9.1619369983673096
30
0
11
-63.019651412963867
21
-9.1619369983673096
31
0
0
LINE
5
212
100
AcDbEntity
8
0
100
AcDbLine
10
-63.019651412963867
20
-9.1619369983673096
30
0
11
-63.019651412963867
21
-11.061391592025757
31
0
0
LINE
5
213
100
AcDbEntity
8
0
100
AcDbLine
10
-63.019651412963867
20
-11.061391592025757
30
0
11
-63.311866760253906
21
-11.061391592025757
31
0
0
SPLINE
5
214
100
AcDbEntity
8
0
100
AcDbSpline
70
0
71
2
72
6
73
3
74
0
42
0.000000001
43
0.0000000001
44
0.0000000001
40
-1
40
-1
40
-1
40
0
40
0
40
0
10
-63.311866760253906
20
-11.061391592025757
30
0
10
-64.34325122833252
20
-11.061391592025757
30
0
10
-64.979266166687012
20
-11.491131544113159
30
0
0
SPLINE
5
215
100
AcDbEntity
8
0
100
AcDbSpline
70
0
71
2
72
6
73
3
74
0
42
0.000000001
43
0.0000000001
44
0.0000000001
40
-1
40
-1
40
-1
40
0
40
0
40
0
10
-64.979266166687012
20
-11.491131544113159
30
0
10
-65.71842098236084
20
-11.998226404190063
30
0
10
-65.71842098236084
20
-12.978033781051636
30
0
0
SPLINE
5
216
100
AcDbEntity
8
0
100
AcDbSpline
70
0
71
2
72
6
73
3
74
0
42
0.000000001
43
0.0000000001
44
0.0000000001
40
-1
40
-1
40
-1
40
0
40
0
40
0
10
-65.71842098236084
20
-12.978033781051636
30
0
10
-65.71842098236084
20
-13.768758535385132
30
0
10
-65.125378608703613
20
-14.207095861434937
30
0
0
SPLINE
5
217
100
AcDbEntity
8
0
100
AcDbSpline
70
0
71
2
72
6
73
3
74
0
42
0.000000001
43
0.0000000001
44
0.0000000001
40
-1
40
-1
40
-1
40
0
40
0
40
0
10
-65.125378608703613
20
-14.207095861434937
30
0
10
-64.592498779296875
20
-14.611050844192505
30
0
10
-63.775991439819336
20
-14.611050844192505
30
0
0
SPLINE
5
218
100
AcDbEntity
8
0
100
AcDbSpline
70
0
71
2
72
6
73
3
74
0
42
0.000000001
43
0.0000000001
44
0.0000000001
40
-1
40
-1
40
-1
40
0
40
0
40
0
10
-63.775991439819336
20
-14.611050844192505
30
0
10
-62.177356719970703
20
-14.611050844192505
30
0
10
-61.730426788330078
20
-13.029603719711304
30
0
0
LINE
5
219
100
AcDbEntity
8
0
100
AcDbLine
10
-61.730426788330078
20
-13.029603719711304
30
0
11
-59.25511741638185
21
-13.605456113815308
31
0
0
SPLINE
5
220
100
AcDbEntity
8
0
100
AcDbSpline
70
0
71
2
72
6
73
3
74
0
42
0.000000001
43
0.0000000001
44
0.0000000001
40
-1
40
-1
40
-1
40
0
40
0
40
0
10
-59.255117416381836
20
-13.605456113815308
30
0
10
-60.054439544677734
20
-16.682400465011597
30
0
10
-63.801778793334961
20
-16.682400465011597
30
0
0
SPLINE
5
221
100
AcDbEntity
8
0
100
AcDbSpline
70
0
71
2
72
6
73
3
74
0
42
0.000000001
43
0.0000000001
44
0.0000000001
40
-1
40
-1
40
-1
40
0
40
0
40
0
10
-63.801778793334961
20
-16.682400465011597
30
0
10
-65.563711166381836
20
-16.682400465011597
30
0
10
-66.792773246765137
20
-15.951843023300171
30
0
0
SPLINE
5
222
100
AcDbEntity
8
0
100
AcDbSpline
70
0
71
2
72
6
73
3
74
0
42
0.000000001
43
0.0000000001
44
0.0000000001
40
-1
40
-1
40
-1
40
0
40
0
40
0
10
-66.792773246765137
20
-15.951843023300171
30
0
10
-68.279675483703613
20
-15.066575765609741
30
0
10
-68.279675483703613
20
-13.41637110710144
30
0
0
SPLINE
5
223
100
AcDbEntity
8
0
100
AcDbSpline
70
0
71
2
72
6
73
3
74
0
42
0.000000001
43
0.0000000001
44
0.0000000001
40
-1
40
-1
40
-1
40
0
40
0
40
0
10
-68.279675483703613
20
-13.41637110710144
30
0
10
-68.279675483703613
20
-11.611459016799927
30
0
10
-66.216920852661133
20
-10.511321783065796
30
0
0
SPLINE
5
224
100
AcDbEntity
8
0
100
AcDbSpline
70
0
71
2
72
6
73
3
74
0
42
0.000000001
43
0.0000000001
44
0.0000000001
40
-1
40
-1
40
-1
40
0
40
0
40
0
10
-66.216920852661133
20
-10.511321783065796
30
0
10
-68.726605415344238
20
-9.6518418788909912
30
0
10
-68.726605415344238
20
-7.3570249080657968
30
0
0
SPLINE
5
225
100
AcDbEntity
8
0
100
AcDbSpline
70
0
71
2
72
6
73
3
74
0
42
0.000000001
43
0.0000000001
44
0.0000000001
40
-1
40
-1
40
-1
40
0
40
0
40
0
10
-68.726605415344238
20
-7.3570249080657968
30
0
10
-68.726605415344238
20
-5.4231927394866952
30
0
10
-67.196725845336914
20
-4.4605729579925546
30
0
0
SPLINE
5
226
100
AcDbEntity
8
0
100
AcDbSpline
70
0
71
2
72
6
73
3
74
0
42
0.000000001
43
0.0000000001
44
0.0000000001
40
-1
40
-1
40
-1
40
0
40
0
40
0
10
-67.196725845336914
20
-4.4605729579925546
30
0
10
-65.92469596862793
20
-3.6526606082916269
30
0
10
-63.870538711547852
20
-3.6526606082916269
30
0
0
SPLINE
5
227
100
AcDbEntity
8
0
100
AcDbSpline
70
0
71
2
72
6
73
3
74
0
42
0.000000001
43
0.0000000001
44
0.0000000001
40
-1
40
-1
40
-1
40
0
40
0
40
0
10
-63.870538711547852
20
-3.6526606082916269
30
0
10
-61.8851318359375
20
-3.6526606082916269
30
0
10
-60.819372177124023
20
-4.2800805568695077
30
0
0
SPLINE
5
228
100
AcDbEntity
8
0
100
AcDbSpline
70
0
71
2
72
6
73
3
74
0
42
0.000000001
43
0.0000000001
44
0.0000000001
40
-1
40
-1
40
-1
40
0
40
0
40
0
10
-60.819372177124023
20
-4.2800805568695077
30
0
10
-59.598907470703125
20
-4.9934504032135019
30
0
10
-59.031652450561523
20
-6.7725775241851816
30
0
0
LINE
5
229
100
AcDbEntity
8
0
100
AcDbLine
10
-59.031652450561523
20
-6.7725775241851816
30
0
11
-61.360849380493164
21
-7.5375173091888437
31
0
0
LINE
5
230
100
AcDbEntity
8
0
100
AcDbLine
10
-46.620744705200195
20
-10.966849088668823
30
0
11
-47.927154541015625
21
-10.966849088668823
31
0
0
LINE
5
231
100
AcDbEntity
8
0
100
AcDbLine
10
-47.927154541015625
20
-10.966849088668823
30
0
11
-47.927154541015625
21
-9.3682119846343994
31
0
0
LINE
5
232
100
AcDbEntity
8
0
100
AcDbLine
10
-47.927154541015625
20
-9.3682119846343994
30
0
11
-46.620744705200195
21
-9.3682119846343994
31
0
0
LINE
5
233
100
AcDbEntity
8
0
100
AcDbLine
10
-46.620744705200195
20
-9.3682119846343994
30
0
11
-46.620744705200195
21
-3.867530584335328
31
0
0
LINE
5
234
100
AcDbEntity
8
0
100
AcDbLine
10
-46.620744705200195
20
-3.867530584335328
30
0
11
-41.842025756835938
21
-3.867530584335328
31
0
0
SPLINE
5
235
100
AcDbEntity
8
0
100
AcDbSpline
70
0
71
2
72
6
73
3
74
0
42
0.000000001
43
0.0000000001
44
0.0000000001
40
-1
40
-1
40
-1
40
0
40
0
40
0
10
-41.842025756835938
20
-3.867530584335328
30
0
10
-40.423883438110352
20
-3.867530584335328
30
0
10
-39.581588745117188
20
-4.1339704990386972
30
0
0
SPLINE
5
236
100
AcDbEntity
8
0
100
AcDbSpline
70
0
71
2
72
6
73
3
74
0
42
0.000000001
43
0.0000000001
44
0.0000000001
40
-1
40
-1
40
-1
40
0
40
0
40
0
10
-39.581588745117188
20
-4.1339704990386972
30
0
10
-38.464263916015625
20
-4.4949529170989999
30
0
10
-37.802461624145508
20
-5.1223728656768808
30
0
0
SPLINE
5
237
100
AcDbEntity
8
0
100
AcDbSpline
70
0
71
2
72
6
73
3
74
0
42
0.000000001
43
0.0000000001
44
0.0000000001
40
-1
40
-1
40
-1
40
0
40
0
40
0
10
-37.802461624145508
20
-5.1223728656768808
30
0
10
-36.942981719970703
20
-5.9560701847076425
30
0
10
-36.500343322753906
20
-7.2066161632537851
30
0
0
SPLINE
5
238
100
AcDbEntity
8
0
100
AcDbSpline
70
0
71
2
72
6
73
3
74
0
42
0.000000001
43
0.0000000001
44
0.0000000001
40
-1
40
-1
40
-1
40
0
40
0
40
0
10
-36.500343322753906
20
-7.2066161632537851
30
0
10
-36.057714462280273
20
-8.4571621417999268
30
0
10
-36.057714462280273
20
-10.012824296951294
30
0
0
SPLINE
5
239
100
AcDbEntity
8
0
100
AcDbSpline
70
0
71
2
72
6
73
3
74
0
42
0.000000001
43
0.0000000001
44
0.0000000001
40
-1
40
-1
40
-1
40
0
40
0
40
0
10
-36.057714462280273
20
-10.012824296951294
30
0
10
-36.057714462280273
20
-11.783356428146362
30
0
10
-36.457370758056641
20
-12.986631155014038
30
0
0
SPLINE
5
240
100
AcDbEntity
8
0
100
AcDbSpline
70
0
71
2
72
6
73
3
74
0
42
0.000000001
43
0.0000000001
44
0.0000000001
40
-1
40
-1
40
-1
40
0
40
0
40
0
10
-36.457370758056641
20
-12.986631155014038
30
0
10
-36.857036590576172
20
-14.189905881881714
30
0
10
-37.647756576538086
20
-15.036492109298706
30
0
0
SPLINE
5
241
100
AcDbEntity
8
0
100
AcDbSpline
70
0
71
2
72
6
73
3
74
0
42
0.000000001
43
0.0000000001
44
0.0000000001
40
-1
40
-1
40
-1
40
0
40
0
40
0
10
-37.647756576538086
20
-15.036492109298706
30
0
10
-38.4384765625
20
-15.88308310508728
30
0
10
-39.555801391601562
20
-16.218280553817749
30
0
0
SPLINE
5
242
100
AcDbEntity
8
0
100
AcDbSpline
70
0
71
2
72
6
73
3
74
0
42
0.000000001
43
0.0000000001
44
0.0000000001
40
-1
40
-1
40
-1
40
0
40
0
40
0
10
-39.555801391601562
20
-16.218280553817749
30
0
10
-40.380910873413086
20
-16.467530488967896
30
0
10
-41.979545593261719
20
-16.467530488967896
30
0
0
LINE
5
243
100
AcDbEntity
8
0
100
AcDbLine
10
-41.979545593261712
20
-16.467530488967896
30
0
11
-46.620744705200195
21
-16.467530488967896
31
0
0
LINE
5
244
100
AcDbEntity
8
0
100
AcDbLine
10
-46.620744705200195
20
-16.467530488967896
30
0
11
-46.620744705200195
21
-10.966849088668823
31
0
0
SPLINE
5
245
100
AcDbEntity
8
0
100
AcDbSpline
70
0
71
2
72
6
73
3
74
0
42
0.000000001
43
0.0000000001
44
0.0000000001
40
-1
40
-1
40
-1
40
0
40
0
40
0
10
-26.869844436645511
20
-7.5375173091888437
30
0
10
-27.187856674194339
20
-6.5405175685882577
30
0
10
-27.72933387756348
20
-6.1365625858306894
30
0
0
SPLINE
5
246
100
AcDbEntity
8
0
100
AcDbSpline
70
0
71
2
72
6
73
3
74
0
42
0.000000001
43
0.0000000001
44
0.0000000001
40
-1
40
-1
40
-1
40
0
40
0
40
0
10
-27.72933387756348
20
-6.1365625858306894
30
0
10
-28.270801544189457
20
-5.73260521888733
30
0
10
-29.302181243896488
20
-5.73260521888733
30
0
0
SPLINE
5
247
100
AcDbEntity
8
0
100
AcDbSpline
70
0
71
2
72
6
73
3
74
0
42
0.000000001
43
0.0000000001
44
0.0000000001
40
-1
40
-1
40
-1
40
0
40
0
40
0
10
-29.302181243896488
20
-5.73260521888733
30
0
10
-30.230421066284183
20
-5.73260521888733
30
0
10
-30.857843399047855
20
-6.1107776165008554
30
0
0
SPLINE
5
248
100
AcDbEntity
8
0
100
AcDbSpline
70
0
71
2
72
6
73
3
74
0
42
0.000000001
43
0.0000000001
44
0.0000000001
40
-1
40
-1
40
-1
40
0
40
0
40
0
10
-30.857843399047855
20
-6.1107776165008554
30
0
10
-31.605590820312504
20
-6.5663025379180917
30
0
10
-31.605590820312504
20
-7.4429748058319101
30
0
0
SPLINE
5
249
100
AcDbEntity
8
0
100
AcDbSpline
70
0
71
2
72
6
73
3
74
0
42
0.000000001
43
0.0000000001
44
0.0000000001
40
-1
40
-1
40
-1
40
0
40
0
40
0
10
-31.605590820312504
20
-7.4429748058319101
30
0
10
-31.605590820312504
20
-8.3712146282196045
30
0
10
-30.771898269653324
20
-8.8181445598602295
30
0
0
SPLINE
5
250
100
AcDbEntity
8
0
100
AcDbSpline
70
0
71
2
72
6
73
3
74
0
42
0.000000001
43
0.0000000001
44
0.0000000001
40
-1
40
-1
40
-1
40
0
40
0
40
0
10
-30.771898269653324
20
-8.8181445598602295
30
0
10
-30.127281188964847
20
-9.1619369983673096
30
0
10
-29.1045036315918
20
-9.1619369983673096
30
0
0
LINE
5
251
100
AcDbEntity
8
0
100
AcDbLine
10
-29.1045036315918
20
-9.1619369983673096
30
0
11
-28.528646469116214
21
-9.1619369983673096
31
0
0
LINE
5
252
100
AcDbEntity
8
0
100
AcDbLine
10
-28.528646469116214
20
-9.1619369983673096
30
0
11
-28.528646469116214
21
-11.061391592025757
31
0
0
LINE
5
253
100
AcDbEntity
8
0
100
AcDbLine
10
-28.528646469116214
20
-11.061391592025757
30
0
11
-28.820871353149418
21
-11.061391592025757
31
0
0
SPLINE
5
254
100
AcDbEntity
8
0
100
AcDbSpline
70
0
71
2
72
6
73
3
74
0
42
0.000000001
43
0.0000000001
44
0.0000000001
40
-1
40
-1
40
-1
40
0
40
0
40
0
10
-28.820871353149418
20
-11.061391592025757
30
0
10
-29.852251052856449
20
-11.061391592025757
30
0
10
-30.488265991210941
20
-11.491131544113159
30
0
0
SPLINE
5
255
100
AcDbEntity
8
0
100
AcDbSpline
70
0
71
2
72
6
73
3
74
0
42
0.000000001
43
0.0000000001
44
0.0000000001
40
-1
40
-1
40
-1
40
0
40
0
40
0
10
-30.488265991210941
20
-11.491131544113159
30
0
10
-31.227420806884769
20
-11.998226404190063
30
0
10
-31.227420806884769
20
-12.978033781051636
30
0
0
SPLINE
5
256
100
AcDbEntity
8
0
100
AcDbSpline
70
0
71
2
72
6
73
3
74
0
42
0.000000001
43
0.0000000001
44
0.0000000001
40
-1
40
-1
40
-1
40
0
40
0
40
0
10
-31.227420806884769
20
-12.978033781051636
30
0
10
-31.227420806884769
20
-13.768758535385132
30
0
10
-30.634378433227543
20
-14.207095861434937
30
0
0
SPLINE
5
257
100
AcDbEntity
8
0
100
AcDbSpline
70
0
71
2
72
6
73
3
74
0
42
0.000000001
43
0.0000000001
44
0.0000000001
40
-1
40
-1
40
-1
40
0
40
0
40
0
10
-30.634378433227543
20
-14.207095861434937
30
0
10
-30.101503372192386
20
-14.611050844192505
30
0
10
-29.284996032714847
20
-14.611050844192505
30
0
0
SPLINE
5
258
100
AcDbEntity
8
0
100
AcDbSpline
70
0
71
2
72
6
73
3
74
0
42
0.000000001
43
0.0000000001
44
0.0000000001
40
-1
40
-1
40
-1
40
0
40
0
40
0
10
-29.284996032714847
20
-14.611050844192505
30
0
10
-27.68635177612305
20
-14.611050844192505
30
0
10
-27.239421844482425
20
-13.029603719711304
30
0
0
LINE
5
259
100
AcDbEntity
8
0
100
AcDbLine
10
-27.239421844482429
20
-13.029603719711304
30
0
11
-24.764122009277347
21
-13.605456113815308
31
0
0
SPLINE
5
260
100
AcDbEntity
8
0
100
AcDbSpline
70
0
71
2
72
6
73
3
74
0
42
0.000000001
43
0.0000000001
44
0.0000000001
40
-1
40
-1
40
-1
40
0
40
0
40
0
10
-24.764122009277347
20
-13.605456113815308
30
0
10
-25.563434600830082
20
-16.682400465011597
30
0
10
-29.310773849487308
20
-16.682400465011597
30
0
0
SPLINE
5
261
100
AcDbEntity
8
0
100
AcDbSpline
70
0
71
2
72
6
73
3
74
0
42
0.000000001
43
0.0000000001
44
0.0000000001
40
-1
40
-1
40
-1
40
0
40
0
40
0
10
-29.310773849487308
20
-16.682400465011597
30
0
10
-31.072715759277347
20
-16.682400465011597
30
0
10
-32.301773071289062
20
-15.951843023300171
30
0
0
SPLINE
5
262
100
AcDbEntity
8
0
100
AcDbSpline
70
0
71
2
72
6
73
3
74
0
42
0.000000001
43
0.0000000001
44
0.0000000001
40
-1
40
-1
40
-1
40
0
40
0
40
0
10
-32.301773071289062
20
-15.951843023300171
30
0
10
-33.788675308227539
20
-15.066575765609741
30
0
10
-33.788675308227539
20
-13.41637110710144
30
0
0
SPLINE
5
263
100
AcDbEntity
8
0
100
AcDbSpline
70
0
71
2
72
6
73
3
74
0
42
0.000000001
43
0.0000000001
44
0.0000000001
40
-1
40
-1
40
-1
40
0
40
0
40
0
10
-33.788675308227539
20
-13.41637110710144
30
0
10
-33.788675308227539
20
-11.611459016799927
30
0
10
-31.72591590881348
20
-10.511321783065796
30
0
0
SPLINE
5
264
100
AcDbEntity
8
0
100
AcDbSpline
70
0
71
2
72
6
73
3
74
0
42
0.000000001
43
0.0000000001
44
0.0000000001
40
-1
40
-1
40
-1
40
0
40
0
40
0
10
-31.72591590881348
20
-10.511321783065796
30
0
10
-34.235605239868164
20
-9.6518418788909912
30
0
10
-34.235605239868164
20
-7.3570249080657968
30
0
0
SPLINE
5
265
100
AcDbEntity
8
0
100
AcDbSpline
70
0
71
2
72
6
73
3
74
0
42
0.000000001
43
0.0000000001
44
0.0000000001
40
-1
40
-1
40
-1
40
0
40
0
40
0
10
-34.235605239868164
20
-7.3570249080657968
30
0
10
-34.235605239868164
20
-5.4231927394866952
30
0
10
-32.705730438232422
20
-4.4605729579925546
30
0
0
SPLINE
5
266
100
AcDbEntity
8
0
100
AcDbSpline
70
0
71
2
72
6
73
3
74
0
42
0.000000001
43
0.0000000001
44
0.0000000001
40
-1
40
-1
40
-1
40
0
40
0
40
0
10
-32.705730438232422
20
-4.4605729579925546
30
0
10
-31.433691024780277
20
-3.6526606082916269
30
0
10
-29.379533767700199
20
-3.6526606082916269
30
0
0
SPLINE
5
267
100
AcDbEntity
8
0
100
AcDbSpline
70
0
71
2
72
6
73
3
74
0
42
0.000000001
43
0.0000000001
44
0.0000000001
40
-1
40
-1
40
-1
40
0
40
0
40
0
10
-29.379533767700199
20
-3.6526606082916269
30
0
10
-27.394126892089847
20
-3.6526606082916269
30
0
10
-26.328376770019535
20
-4.2800805568695077
30
0
0
SPLINE
5
268
100
AcDbEntity
8
0
100
AcDbSpline
70
0
71
2
72
6
73
3
74
0
42
0.000000001
43
0.0000000001
44
0.0000000001
40
-1
40
-1
40
-1
40
0
40
0
40
0
10
-26.328376770019535
20
-4.2800805568695077
30
0
10
-25.107912063598636
20
-4.9934504032135019
30
0
10
-24.540657043457035
20
-6.7725775241851816
30
0
0
LINE
5
269
100
AcDbEntity
8
0
100
AcDbLine
10
-24.540657043457031
20
-6.7725775241851816
30
0
11
-26.869844436645511
21
-7.5375173091888437
31
0
0
LWPOLYLINE
5
270
100
AcDbEntity
8
0
100
AcDbPolyline
90
14
70
1
43
0.0
10
-58.567537307739258
20
-9.041609525680542
10
-58.567537307739258
20
-7.0046374797821054
10
-57.235340118408203
20
-8.1133697032928467
10
-57.235340118408203
20
-3.867530584335328
10
-48.36549186706543
20
-3.867530584335328
10
-48.36549186706543
20
-5.9904501438140878
10
-54.699872970581055
20
-5.9904501438140878
10
-54.699872970581055
20
-10.227694272994995
10
-51.872171401977539
20
-12.59126877784729
10
-51.872171401977539
20
-14.671213388442993
10
-54.699872970581055
20
-12.299046277999878
10
-54.699872970581055
20
-16.467530488967896
10
-57.235340118408203
20
-16.467530488967896
10
-57.235340118408203
20
-10.158934354782104
0
SPLINE
5
271
100
AcDbEntity
8
0
100
AcDbSpline
70
0
71
2
72
6
73
3
74
0
42
0.000000001
43
0.0000000001
44
0.0000000001
40
-1
40
-1
40
-1
40
0
40
0
40
0
10
-15.53328895568848
20
-10.380253553390503
30
0
10
-14.842485427856449
20
-4.997749090194703
30
0
10
-8.1191864013671911
20
-2.7211973667144784
30
0
0
LINE
5
272
100
AcDbEntity
8
0
100
AcDbLine
10
-8.1191864013671911
20
-2.721197366714478
30
0
11
-7.5025119781494176
21
-4.6829650402069101
31
0
0
SPLINE
5
273
100
AcDbEntity
8
0
100
AcDbSpline
70
0
71
2
72
6
73
3
74
0
42
0.000000001
43
0.0000000001
44
0.0000000001
40
-1
40
-1
40
-1
40
0
40
0
40
0
10
-7.5025119781494176
20
-4.6829650402069101
30
0
10
-12.981704711914066
20
-6.5867159366607675
30
0
10
-13.649953842163089
20
-10.269593954086304
30
0
0
LINE
5
274
100
AcDbEntity
8
0
100
AcDbLine
10
-13.649953842163089
20
-10.269593954086304
30
0
11
-13.772434234619144
21
-10.646691083908081
31
0
0
LINE
5
275
100
AcDbEntity
8
0
100
AcDbLine
10
-13.772434234619144
20
-10.646691083908081
30
0
11
-11.317533493041996
21
-10.646691083908081
31
0
0
LINE
5
276
100
AcDbEntity
8
0
100
AcDbLine
10
-11.317533493041996
20
-10.646691083908081
30
0
11
-11.317533493041996
21
-10.06976580619812
31
0
0
LINE
5
277
100
AcDbEntity
8
0
100
AcDbLine
10
-11.317533493041996
20
-10.06976580619812
30
0
11
-9.2558517456054723
21
-10.06976580619812
31
0
0
LINE
5
278
100
AcDbEntity
8
0
100
AcDbLine
10
-9.2558517456054723
20
-10.06976580619812
30
0
11
-9.2558517456054723
21
-17.155115365982056
31
0
0
LINE
5
279
100
AcDbEntity
8
0
100
AcDbLine
10
-9.2558517456054723
20
-17.155115365982056
30
0
11
-20.890010833740238
21
-17.155115365982056
31
0
0
LINE
5
280
100
AcDbEntity
8
0
100
AcDbLine
10
-20.890010833740238
20
-17.155115365982056
30
0
11
-20.890010833740238
21
-10.815365076065063
31
0
0
SPLINE
5
281
100
AcDbEntity
8
0
100
AcDbSpline
70
0
71
2
72
6
73
3
74
0
42
0.000000001
43
0.0000000001
44
0.0000000001
40
-1
40
-1
40
-1
40
0
40
0
40
0
10
-20.890010833740238
20
-10.815365076065063
30
0
10
-20.890010833740238
20
-6.2031719684600839
30
0
10
-23.421186447143558
20
-3.7106750011444101
30
0
0
LINE
5
282
100
AcDbEntity
8
0
100
AcDbLine
10
-23.421186447143555
20
-3.7106750011444101
30
0
11
-21.919235229492191
21
-2.3172423839569101
31
0
0
SPLINE
5
283
100
AcDbEntity
8
0
100
AcDbSpline
70
0
71
2
72
6
73
3
74
0
42
0.000000001
43
0.0000000001
44
0.0000000001
40
-1
40
-1
40
-1
40
0
40
0
40
0
10
-21.919235229492191
20
-2.3172423839569101
30
0
10
-18.828329086303714
20
-5.7476470470428476
30
0
10
-18.828329086303714
20
-9.8720834255218506
30
0
0
LINE
5
284
100
AcDbEntity
8
0
100
AcDbLine
10
-18.828329086303714
20
-9.8720834255218506
30
0
11
-18.828329086303714
21
-10.646691083908081
31
0
0
LINE
5
285
100
AcDbEntity
8
0
100
AcDbLine
10
-18.828329086303714
20
-10.646691083908081
30
0
11
-15.574115753173832
21
-10.646691083908081
31
0
0
LINE
5
286
100
AcDbEntity
8
0
100
AcDbLine
10
-15.574115753173832
20
-10.646691083908081
30
0
11
-15.53328895568848
21
-10.380253553390503
31
0
0
LINE
5
287
100
AcDbEntity
8
0
100
AcDbLine
10
-133.44556713104248
20
-25.646793603897095
30
0
11
-134.4941338300705
21
-25.646793603897095
31
0
0
LINE
5
288
100
AcDbEntity
8
0
100
AcDbLine
10
-134.4941338300705
20
-25.646793603897095
30
0
11
-135.13014996051788
21
-26.987584590911865
31
0
0
SPLINE
5
289
100
AcDbEntity
8
0
100
AcDbSpline
70
0
71
2
72
6
73
3
74
0
42
0.000000001
43
0.0000000001
44
0.0000000001
40
-1
40
-1
40
-1
40
0
40
0
40
0
10
-135.13014996051788
20
-26.987584590911865
30
0
10
-135.72319233417511
20
-28.233833074569702
30
0
10
-136.34201908111572
20
-29.050340414047241
30
0
0
SPLINE
5
290
100
AcDbEntity
8
0
100
AcDbSpline
70
0
71
2
72
6
73
3
74
0
42
0.000000001
43
0.0000000001
44
0.0000000001
40
-1
40
-1
40
-1
40
0
40
0
40
0
10
-136.34201908111572
20
-29.050340414047241
30
0
10
-136.89208769798279
20
-29.780900239944458
30
0
10
-137.75156879425049
20
-30.021555185317993
30
0
0
SPLINE
5
291
100
AcDbEntity
8
0
100
AcDbSpline
70
0
71
2
72
6
73
3
74
0
42
0.000000001
43
0.0000000001
44
0.0000000001
40
-1
40
-1
40
-1
40
0
40
0
40
0
10
-137.75156879425049
20
-30.021555185317993
30
0
10
-137.12414765357971
20
-30.373942613601685
30
0
10
-136.81473398208618
20
-30.82087254524231
30
0
0
SPLINE
5
292
100
AcDbEntity
8
0
100
AcDbSpline
70
0
71
2
72
6
73
3
74
0
42
0.000000001
43
0.0000000001
44
0.0000000001
40
-1
40
-1
40
-1
40
0
40
0
40
0
10
-136.81473398208618
20
-30.82087254524231
30
0
10
-136.56548464298248
20
-31.164666175842285
30
0
10
-136.29045033454895
20
-31.938198566436768
30
0
0
SPLINE
5
293
100
AcDbEntity
8
0
100
AcDbSpline
70
0
71
2
72
6
73
3
74
0
42
0.000000001
43
0.0000000001
44
0.0000000001
40
-1
40
-1
40
-1
40
0
40
0
40
0
10
-136.29045033454895
20
-31.938198566436768
30
0
10
-135.85211479663849
20
-33.167258262634277
30
0
10
-135.62864923477173
20
-33.56261944770813
30
0
0
SPLINE
5
294
100
AcDbEntity
8
0
100
AcDbSpline
70
0
71
2
72
6
73
3
74
0
42
0.000000001
43
0.0000000001
44
0.0000000001
40
-1
40
-1
40
-1
40
0
40
0
40
0
10
-135.62864923477173
20
-33.56261944770813
30
0
10
-135.17312431335449
20
-34.379126787185669
30
0
10
-133.90109205245972
20
-34.344748020172119
30
0
0
LINE
5
295
100
AcDbEntity
8
0
100
AcDbLine
10
-133.90109205245972
20
-34.344748020172119
30
0
11
-133.54010963439941
21
-34.336153030395508
31
0
0
LINE
5
296
100
AcDbEntity
8
0
100
AcDbLine
10
-133.54010963439941
20
-34.336153030395508
30
0
11
-133.54010963439941
21
-36.218417644500732
31
0
0
SPLINE
5
297
100
AcDbEntity
8
0
100
AcDbSpline
70
0
71
2
72
6
73
3
74
0
42
0.000000001
43
0.0000000001
44
0.0000000001
40
-1
40
-1
40
-1
40
0
40
0
40
0
10
-133.54010963439941
20
-36.218417644500732
30
0
10
-133.82373833656311
20
-36.209822654724121
30
0
10
-133.90968704223633
20
-36.209822654724121
30
0
0
SPLINE
5
298
100
AcDbEntity
8
0
100
AcDbSpline
70
0
71
2
72
6
73
3
74
0
42
0.000000001
43
0.0000000001
44
0.0000000001
40
-1
40
-1
40
-1
40
0
40
0
40
0
10
-133.90968704223633
20
-36.209822654724121
30
0
10
-135.80914044380188
20
-36.209822654724121
30
0
10
-136.60845839977264
20
-35.590995311737061
30
0
0
SPLINE
5
299
100
AcDbEntity
8
0
100
AcDbSpline
70
0
71
2
72
6
73
3
74
0
42
0.000000001
43
0.0000000001
44
0.0000000001
40
-1
40
-1
40
-1
40
0
40
0
40
0
10
-136.60845839977264
20
-35.590995311737061
30
0
10
-137.33042323589325
20
-35.032332897186279
30
0
10
-138.05238747596741
20
-33.167258262634277
30
0
0
SPLINE
5
300
100
AcDbEntity
8
0
100
AcDbSpline
70
0
71
2
72
6
73
3
74
0
42
0.000000001
43
0.0000000001
44
0.0000000001
40
-1
40
-1
40
-1
40
0
40
0
40
0
10
-138.05238747596741
20
-33.167258262634277
30
0
10
-138.61105048656464
20
-31.740518569946289
30
0
10
-138.72278356552124
20
-31.551432371139526
30
0
0
SPLINE
5
301
100
AcDbEntity
8
0
100
AcDbSpline
70
0
71
2
72
6
73
3
74
0
42
0.000000001
43
0.0000000001
44
0.0000000001
40
-1
40
-1
40
-1
40
0
40
0
40
0
10
-138.72278356552124
20
-31.551432371139526
30
0
10
-139.17830848693848
20
-30.863847494125366
30
0
10
-140.13233298063278
20
-30.769303798675537
30
0
0
LINE
5
302
100
AcDbEntity
8
0
100
AcDbLine
10
-140.13233298063278
20
-30.769303798675534
30
0
11
-140.13233298063278
21
-36.132468938827515
31
0
0
LINE
5
303
100
AcDbEntity
8
0
100
AcDbLine
10
-140.13233298063278
20
-36.132468938827515
30
0
11
-142.676398396492
21
-36.132468938827515
31
0
0
LINE
5
304
100
AcDbEntity
8
0
100
AcDbLine
10
-142.676398396492
20
-36.132468938827515
30
0
11
-142.676398396492
21
-23.532469034194946
31
0
0
LINE
5
305
100
AcDbEntity
8
0
100
AcDbLine
10
-142.676398396492
20
-23.532469034194946
30
0
11
-140.13233298063278
21
-23.532469034194946
31
0
0
LINE
5
306
100
AcDbEntity
8
0
100
AcDbLine
10
-140.13233298063278
20
-23.532469034194946
30
0
11
-140.13233298063278
21
-29.050340414047241
31
0
0
SPLINE
5
307
100
AcDbEntity
8
0
100
AcDbSpline
70
0
71
2
72
6
73
3
74
0
42
0.000000001
43
0.0000000001
44
0.0000000001
40
-1
40
-1
40
-1
40
0
40
0
40
0
10
-140.13233298063278
20
-29.050340414047241
30
0
10
-139.40177345275879
20
-29.04174542427063
30
0
10
-139.02360165119171
20
-28.680764198303223
30
0
0
SPLINE
5
308
100
AcDbEntity
8
0
100
AcDbSpline
70
0
71
2
72
6
73
3
74
0
42
0.000000001
43
0.0000000001
44
0.0000000001
40
-1
40
-1
40
-1
40
0
40
0
40
0
10
-139.02360165119171
20
-28.680764198303223
30
0
10
-138.80013608932495
20
-28.457298040390015
30
0
10
-138.37039613723755
20
-27.649385690689087
30
0
0
SPLINE
5
309
100
AcDbEntity
8
0
100
AcDbSpline
70
0
71
2
72
6
73
3
74
0
42
0.000000001
43
0.0000000001
44
0.0000000001
40
-1
40
-1
40
-1
40
0
40
0
40
0
10
-138.37039613723755
20
-27.649385690689087
30
0
10
-138.11255121231079
20
-27.159480810165405
30
0
10
-138.05238747596741
20
-27.05634331703186
30
0
0
SPLINE
5
310
100
AcDbEntity
8
0
100
AcDbSpline
70
0
71
2
72
6
73
3
74
0
42
0.000000001
43
0.0000000001
44
0.0000000001
40
-1
40
-1
40
-1
40
0
40
0
40
0
10
-138.05238747596741
20
-27.05634331703186
30
0
10
-137.94065499305725
20
-26.858663320541382
30
0
10
-137.90627562999725
20
-26.789904594421387
30
0
0
LINE
5
311
100
AcDbEntity
8
0
100
AcDbLine
10
-137.90627562999725
20
-26.789904594421387
30
0
11
-136.40218281745911
21
-23.532469034194946
31
0
0
LINE
5
312
100
AcDbEntity
8
0
100
AcDbLine
10
-136.40218281745911
20
-23.532469034194946
30
0
11
-135.55989110469818
21
-23.532469034194946
31
0
0
LINE
5
313
100
AcDbEntity
8
0
100
AcDbLine
10
-135.55989110469818
20
-23.532469034194946
30
0
11
-135.55989110469818
21
-20.78212833404541
31
0
0
LINE
5
314
100
AcDbEntity
8
0
100
AcDbLine
10
-135.55989110469818
20
-20.78212833404541
30
0
11
-133.44556713104248
21
-20.78212833404541
31
0
0
LINE
5
315
100
AcDbEntity
8
0
100
AcDbLine
10
-133.44556713104248
20
-20.78212833404541
30
0
11
-133.44556713104248
21
-25.646793603897095
31
0
0
LWPOLYLINE
5
316
100
AcDbEntity
8
0
100
AcDbPolyline
90
4
70
1
43
0.0
10
-148
20
-42
10
0
20
-42
10
0
20
0
10
-148
20
0
0
LWPOLYLINE
5
317
100
AcDbEntity
8
0
100
AcDbPolyline
90
4
70
1
43
0.0
10
-140
20
-5
10
-8
20
-5
10
-8
20
-37
10
-140
20
-37
0
ENDSEC
0
SECTION
2
OBJECTS
0
DICTIONARY
5
C
100
AcDbDictionary
3
ACAD_GROUP
350
D
3
ACAD_MLINESTYLE
350
17
0
DICTIONARY
5
D
100
AcDbDictionary
0
DICTIONARY
5
1A
330
C
100
AcDbDictionary
0
DICTIONARY
5
17
100
AcDbDictionary
0
ENDSEC
0
EOF
