0
SECTION
2
HEADER
9
$INSUNITS
70
4
9
$ACADVER
1
AC1014
9
$HANDSEED
5
FFFF
0
ENDSEC
0
SECTION
2
TABLES
0
TABLE
2
VPORT
5
8
100
AcDbSymbolTable
0
ENDTAB
0
TABLE
2
LTYPE
5
5
100
AcDbSymbolTable
0
LTYPE
5
14
100
AcDbSymbolTableRecord
100
AcDbLinetypeTableRecord
2
BYBLOCK
70
0
0
LTYPE
5
15
100
AcDbSymbolTableRecord
100
AcDbLinetypeTableRecord
2
BYLAYER
70
0
0
LTYPE
5
16
100
AcDbSymbolTableRecord
100
AcDbLinetypeTableRecord
2
DASHED
70
0
3
Dashed __ __ __ __ __ __ __ __ __ __ __ __ __ _
72
65
73
2
40
0.75
49
0.5
74
0
49
-0.25
74
0
0
ENDTAB
0
TABLE
2
LAYER
5
2
100
AcDbSymbolTable
70
2
0
LAYER
5
50
100
AcDbSymbolTableRecord
100
AcDbLayerTableRecord
2
0
70
0
62
7
6
CONTINUOUS
0
ENDTAB
0
TABLE
2
STYLE
5
3
100
AcDbSymbolTable
70
1
0
STYLE
5
11
100
AcDbSymbolTableRecord
100
AcDbTextStyleTableRecord
2
STANDARD
70
0
0
ENDTAB
0
TABLE
2
VIEW
5
6
100
AcDbSymbolTable
70
0
0
ENDTAB
0
TABLE
2
UCS
5
7
100
AcDbSymbolTable
70
0
0
ENDTAB
0
TABLE
2
APPID
5
9
100
AcDbSymbolTable
70
2
0
APPID
5
12
100
AcDbSymbolTableRecord
100
AcDbRegAppTableRecord
2
ACAD
70
0
0
ENDTAB
0
TABLE
2
DIMSTYLE
5
A
100
AcDbSymbolTable
70
1
0
ENDTAB
0
TABLE
2
BLOCK_RECORD
5
1
100
AcDbSymbolTable
70
1
0
BLOCK_RECORD
5
1F
100
AcDbSymbolTableRecord
100
AcDbBlockTableRecord
2
*MODEL_SPACE
0
BLOCK_RECORD
5
1B
100
AcDbSymbolTableRecord
100
AcDbBlockTableRecord
2
*PAPER_SPACE
0
ENDTAB
0
ENDSEC
0
SECTION
2
BLOCKS
0
BLOCK
5
20
100
AcDbEntity
100
AcDbBlockBegin
2
*MODEL_SPACE
0
ENDBLK
5
21
100
AcDbEntity
100
AcDbBlockEnd
0
BLOCK
5
1C
100
AcDbEntity
100
AcDbBlockBegin
2
*PAPER_SPACE
0
ENDBLK
5
1D
100
AcDbEntity
100
AcDbBlockEnd
0
ENDSEC
0
SECTION
2
ENTITIES
0
LWPOLYLINE
5
100
100
AcDbEntity
8
0
100
AcDbPolyline
90
15
70
1
43
0.0
10
-1.0000000000000009
20
199
10
-8.8355980712200459
20
199
42
-0.22695884686209392
10
-9.208296139799879
20
198.22122385319236
10
-22.404483469435696
20
187.59173316681714
10
-13.263613365727773
20
165.52372059055472
42
-0.76033099600055876
10
-14.782139077527736
20
164.33704964494243
10
-33.806223176918571
20
178.40766484452331
10
-62.76009982627901
20
155.08540103521381
42
-0.79717482032330822
10
-64.290792903699682
20
156.29299466922069
10
-48.599782899748462
20
189.34929468617352
10
-60.560930373016802
20
198.19601248675281
42
-0.23783058188831846
10
-60.966284193728143
20
199
10
-69
20
199
10
-69
20
1.2598263208403893
10
-0.99999999999999645
20
1.2598263208403782
0
LWPOLYLINE
5
101
100
AcDbEntity
8
0
100
AcDbPolyline
90
6
70
1
43
0.0
10
-62.5
20
91.259826320840389
10
-7.4999999999999982
20
91.259826320840389
10
-32.500000000000007
20
101.2598263208404
10
-32.499999999999993
20
61.259826320840382
10
-7.4999999999999982
20
71.259826320840375
10
-62.5
20
71.259826320840389
0
LINE
5
102
100
AcDbEntity
8
0
100
AcDbLine
10
-7.4999999999999982
20
91.259826320840389
30
0
11
-7.4999999999999982
21
71.259826320840375
31
0
0
LINE
5
103
100
AcDbEntity
8
0
100
AcDbLine
10
-37.499999999999993
20
101.25982632084039
30
0
11
-32.500000000000007
21
101.2598263208404
31
0
0
LWPOLYLINE
5
104
100
AcDbEntity
8
0
100
AcDbPolyline
90
3
70
1
43
0.0
10
-32.499999999999993
20
61.259826320840382
10
-37.500000000000007
20
61.259826320840382
10
-35
20
61.259826320840382
0
LINE
5
105
100
AcDbEntity
8
0
100
AcDbLine
10
-37.500000000000007
20
61.259826320840382
30
0
11
-37.499999999999993
21
101.25982632084039
31
0
0
LINE
5
106
100
AcDbEntity
8
0
100
AcDbLine
10
-37.499999999999993
20
101.25982632084039
30
0
11
-62.5
21
91.259826320840389
31
0
0
LINE
5
107
100
AcDbEntity
8
0
100
AcDbLine
10
-62.5
20
71.259826320840389
30
0
11
-37.500000000000007
21
61.259826320840382
31
0
0
LINE
5
108
100
AcDbEntity
8
0
100
AcDbLine
10
-35
20
101.25982632084039
30
0
11
-35
21
61.259826320840382
31
0
0
LINE
5
109
100
AcDbEntity
8
0
100
AcDbLine
10
-36.25
20
61.259826320840382
30
0
11
-36.25
21
71.259826320840389
31
0
0
LINE
5
110
100
AcDbEntity
8
0
100
AcDbLine
10
-33.75
20
61.259826320840382
30
0
11
-33.75
21
71.259826320840375
31
0
0
CIRCLE
5
111
100
AcDbEntity
8
0
100
AcDbCircle
10
-35
20
68.259826320840375
30
0
40
2.9999999999999982
210
0
220
0
230
1
0
LINE
5
112
100
AcDbEntity
8
0
100
AcDbLine
10
-35
20
68.259826320840375
30
0
11
-36.25
21
68.259826320840375
31
0
0
LINE
5
113
100
AcDbEntity
8
0
100
AcDbLine
10
-35
20
68.259826320840375
30
0
11
-33.75
21
68.259826320840375
31
0
0
LWPOLYLINE
5
114
100
AcDbEntity
8
0
100
AcDbPolyline
90
10
70
1
43
0.0
10
-50.025435388088226
20
86.37982716007383
10
-50.025435388088226
20
82.562683719827248
10
-44.768291413784027
20
82.562683719827248
10
-44.768291413784027
20
79.728398222161843
10
-50.025435388088226
20
79.728398222161843
10
-50.025435388088226
20
73.259825605584695
10
-54.025435149669647
20
73.25982560558468
10
-54.025435149669654
20
89.259827036096169
10
-43.808291852474213
20
89.259827036096183
10
-43.808291852474213
20
86.37982716007383
0
LWPOLYLINE
5
115
100
AcDbEntity
8
0
100
AcDbPolyline
90
12
70
1
43
0.0
10
-28.539718091487885
20
73.259825605584709
10
-32.539719045162201
20
73.259825605584709
10
-32.539719045162201
20
79.888397354318229
10
-37.454005181789405
20
79.888397354318215
10
-37.454005181789405
20
73.259825605584709
10
-41.454006135463715
20
73.259825605584695
10
-41.454006135463722
20
89.259827036096183
10
-37.454005181789398
20
89.259827036096183
10
-37.454005181789405
20
82.974111932946769
10
-32.539719045162208
20
82.974111932946769
10
-32.539719045162208
20
89.259827036096183
10
-28.539718091487888
20
89.259827036096183
0
LWPOLYLINE
5
116
100
AcDbEntity
8
0
100
AcDbPolyline
90
6
70
1
43
0.0
10
-14.59685891866684
20
76.299824613763448
10
-14.59685891866684
20
73.259825605584737
10
-24.60829108953476
20
73.259825605584723
10
-24.608291089534763
20
89.259827036096198
10
-20.608292520046238
20
89.259827036096198
10
-20.608292520046238
20
76.299824613763434
0
ENDSEC
0
SECTION
2
OBJECTS
0
DICTIONARY
5
C
100
AcDbDictionary
3
ACAD_GROUP
350
D
3
ACAD_MLINESTYLE
350
17
0
DICTIONARY
5
D
100
AcDbDictionary
0
DICTIONARY
5
1A
330
C
100
AcDbDictionary
0
DICTIONARY
5
17
100
AcDbDictionary
0
ENDSEC
0
EOF
