0
SECTION
2
HEADER
9
$INSUNITS
70
4
9
$ACADVER
1
AC1014
9
$HANDSEED
5
FFFF
0
ENDSEC
0
SECTION
2
TABLES
0
TABLE
2
VPORT
5
8
100
AcDbSymbolTable
0
ENDTAB
0
TABLE
2
LTYPE
5
5
100
AcDbSymbolTable
0
LTYPE
5
14
100
AcDbSymbolTableRecord
100
AcDbLinetypeTableRecord
2
BYBLOCK
70
0
0
LTYPE
5
15
100
AcDbSymbolTableRecord
100
AcDbLinetypeTableRecord
2
BYLAYER
70
0
0
LTYPE
5
16
100
AcDbSymbolTableRecord
100
AcDbLinetypeTableRecord
2
DASHED
70
0
3
Dashed __ __ __ __ __ __ __ __ __ __ __ __ __ _
72
65
73
2
40
0.75
49
0.5
74
0
49
-0.25
74
0
0
ENDTAB
0
TABLE
2
LAYER
5
2
100
AcDbSymbolTable
70
2
0
LAYER
5
50
100
AcDbSymbolTableRecord
100
AcDbLayerTableRecord
2
0
70
0
62
7
6
CONTINUOUS
0
ENDTAB
0
TABLE
2
STYLE
5
3
100
AcDbSymbolTable
70
1
0
STYLE
5
11
100
AcDbSymbolTableRecord
100
AcDbTextStyleTableRecord
2
STANDARD
70
0
0
ENDTAB
0
TABLE
2
VIEW
5
6
100
AcDbSymbolTable
70
0
0
ENDTAB
0
TABLE
2
UCS
5
7
100
AcDbSymbolTable
70
0
0
ENDTAB
0
TABLE
2
APPID
5
9
100
AcDbSymbolTable
70
2
0
APPID
5
12
100
AcDbSymbolTableRecord
100
AcDbRegAppTableRecord
2
ACAD
70
0
0
ENDTAB
0
TABLE
2
DIMSTYLE
5
A
100
AcDbSymbolTable
70
1
0
ENDTAB
0
TABLE
2
BLOCK_RECORD
5
1
100
AcDbSymbolTable
70
1
0
BLOCK_RECORD
5
1F
100
AcDbSymbolTableRecord
100
AcDbBlockTableRecord
2
*MODEL_SPACE
0
BLOCK_RECORD
5
1B
100
AcDbSymbolTableRecord
100
AcDbBlockTableRecord
2
*PAPER_SPACE
0
ENDTAB
0
ENDSEC
0
SECTION
2
BLOCKS
0
BLOCK
5
20
100
AcDbEntity
100
AcDbBlockBegin
2
*MODEL_SPACE
0
ENDBLK
5
21
100
AcDbEntity
100
AcDbBlockEnd
0
BLOCK
5
1C
100
AcDbEntity
100
AcDbBlockBegin
2
*PAPER_SPACE
0
ENDBLK
5
1D
100
AcDbEntity
100
AcDbBlockEnd
0
ENDSEC
0
SECTION
2
ENTITIES
0
LWPOLYLINE
5
100
100
AcDbEntity
8
0
100
AcDbPolyline
90
15
70
1
43
0.0
10
-1.0000000000000009
20
199
10
-8.8355980712200459
20
199
42
-0.22695884686209392
10
-9.208296139799879
20
198.22122385319236
10
-22.404483469435696
20
187.59173316681714
10
-13.263613365727773
20
165.52372059055472
42
-0.76033099600055876
10
-14.782139077527736
20
164.33704964494243
10
-33.806223176918571
20
178.40766484452331
10
-62.76009982627901
20
155.08540103521381
42
-0.79717482032330822
10
-64.290792903699682
20
156.29299466922069
10
-48.599782899748462
20
189.34929468617352
10
-60.560930373016802
20
198.19601248675281
42
-0.23783058188831846
10
-60.966284193728143
20
199
10
-69
20
199
10
-69
20
1.2598263208403893
10
-0.99999999999999645
20
1.2598263208403782
0
LWPOLYLINE
5
101
100
AcDbEntity
8
0
100
AcDbPolyline
90
30
70
1
43
0.0
10
-33.603448275862071
20
70.91494275553913
42
0.56429743091302498
10
-33.75
20
70.826438874382504
10
-33.749999999999993
20
68.959826320840392
42
-0.41421356237309503
10
-34.449999999999996
20
68.259826320840375
10
-35.549999999999997
20
68.259826320840375
42
-0.41421356237309503
10
-36.249999999999993
20
68.959826320840392
10
-36.25
20
70.826438874382504
42
0.56429743091298212
10
-36.396551724137929
20
70.91494275553913
42
0.57997995862847462
10
-36.581081081081081
20
65.710280750538203
42
-0.25952646079045522
10
-36.249999999999993
20
65.115386784134358
10
-36.25
20
61.967189860330947
42
-0.43392178548414095
10
-36.996736584844932
20
61.268751823253197
42
-0.078583695748421181
10
-38.215233091147411
20
61.545919557299342
10
-59.985562705416413
20
70.254051403006955
42
-0.30667844155888507
10
-62.5
20
73.967958166548001
10
-62.499999999999986
20
88.551694475132791
42
-0.30667844155888541
10
-59.985562705416406
20
92.265601238673838
10
-38.215233091147397
20
100.97373308438145
42
-0.09541457239975841
10
-36.729670385730998
20
101.2598263208404
10
-33.270329614269009
20
101.25982632084039
42
-0.095414572399760991
10
-31.784766908852575
20
100.97373308438144
10
-10.014437294583587
20
92.265601238673838
42
-0.30667844155888513
10
-7.5000000000000009
20
88.551694475132791
10
-7.5
20
73.967958166547987
42
-0.30667844155888457
10
-10.014437294583578
20
70.25405140300694
10
-31.78476690885261
20
61.545919557299335
42
-0.078583695748419835
10
-33.003263415155061
20
61.268751823253197
42
-0.43392178548414068
10
-33.75
20
61.967189860330947
10
-33.750000000000007
20
65.115386784134358
42
-0.25952646079045522
10
-33.418918918918912
20
65.710280750538203
42
0.57997995862847418
0
LWPOLYLINE
5
102
100
AcDbEntity
8
0
100
AcDbPolyline
90
4
70
1
43
0.0
10
-69
20
1.2598263208403893
10
-0.99999999999999645
20
1.2598263208403893
10
-0.99999999999999778
20
61.259826320840389
10
-69
20
61.259826320840389
0
LINE
5
103
100
AcDbEntity
8
0
100
AcDbLine
10
-35
20
1.2598263208403837
30
0
11
-35
21
61.259826320840389
31
0
0
LINE
5
104
100
AcDbEntity
8
0
100
AcDbLine
10
-41.799999999999997
20
61.259826320840389
30
0
11
-41.800000000000004
21
1.2598263208403848
31
0
0
LINE
5
105
100
AcDbEntity
8
0
100
AcDbLine
10
-48.599999999999994
20
1.2598263208403848
30
0
11
-48.599999999999994
21
61.259826320840389
31
0
0
LINE
5
106
100
AcDbEntity
8
0
100
AcDbLine
10
-55.399999999999991
20
61.259826320840389
30
0
11
-55.399999999999999
21
1.2598263208403873
31
0
0
LINE
5
107
100
AcDbEntity
8
0
100
AcDbLine
10
-62.199999999999989
20
1.2598263208403873
30
0
11
-62.199999999999989
21
61.259826320840389
31
0
0
LINE
5
108
100
AcDbEntity
8
0
100
AcDbLine
10
-28.200000000000003
20
61.259826320840389
30
0
11
-28.199999999999996
21
1.2598263208403848
31
0
0
LINE
5
109
100
AcDbEntity
8
0
100
AcDbLine
10
-21.400000000000006
20
1.2598263208403848
30
0
11
-21.400000000000006
21
61.259826320840389
31
0
0
LINE
5
110
100
AcDbEntity
8
0
100
AcDbLine
10
-14.600000000000009
20
61.259826320840389
30
0
11
-14.6
21
1.2598263208403873
31
0
0
LINE
5
111
100
AcDbEntity
8
0
100
AcDbLine
10
-7.8000000000000114
20
1.2598263208403873
30
0
11
-7.8000000000000114
21
61.259826320840389
31
0
0
LINE
5
112
100
AcDbEntity
8
0
100
AcDbLine
10
-58.238277003296268
20
47.756699428893583
30
0
11
-55.685319468506229
21
47.756699428893583
31
0
0
SPLINE
5
113
100
AcDbEntity
8
0
100
AcDbSpline
70
0
71
2
72
6
73
3
74
0
42
0.000000001
43
0.0000000001
44
0.0000000001
40
0
40
0
40
0
40
1
40
1
40
1
10
-55.685319468506229
20
47.756699428893583
30
0
10
-55.168125197418583
20
47.756699428893583
30
0
10
-54.884769484523098
20
48.007043109275358
30
0
0
SPLINE
5
114
100
AcDbEntity
8
0
100
AcDbSpline
70
0
71
2
72
6
73
3
74
0
42
0.000000001
43
0.0000000001
44
0.0000000001
40
0
40
0
40
0
40
1
40
1
40
1
10
-54.884769484523098
20
48.007043109275358
30
0
10
-54.60141257953471
20
48.257386789657133
30
0
10
-54.601412579525942
20
48.708556399680631
30
0
0
LINE
5
115
100
AcDbEntity
8
0
100
AcDbLine
10
-54.601412579525942
20
48.708556399680631
30
0
11
-54.601412579525629
21
48.72506271395828
31
0
0
SPLINE
5
116
100
AcDbEntity
8
0
100
AcDbSpline
70
0
71
2
72
6
73
3
74
0
42
0.000000001
43
0.0000000001
44
0.0000000001
40
0
40
0
40
0
40
1
40
1
40
1
10
-54.601412579525629
20
48.72506271395828
30
0
10
-54.601412579519746
20
49.027675495482939
30
0
10
-54.727960392931109
20
49.242256388999479
30
0
0
SPLINE
5
117
100
AcDbEntity
8
0
100
AcDbSpline
70
0
71
2
72
6
73
3
74
0
42
0.000000001
43
0.0000000001
44
0.0000000001
40
0
40
0
40
0
40
1
40
1
40
1
10
-54.727960392931109
20
49.242256388999479
30
0
10
-54.854507014249563
20
49.45683728251602
30
0
10
-55.099349781962829
20
49.569629536010282
30
0
0
SPLINE
5
118
100
AcDbEntity
8
0
100
AcDbSpline
70
0
71
2
72
6
73
3
74
0
42
0.000000001
43
0.0000000001
44
0.0000000001
40
0
40
0
40
0
40
1
40
1
40
1
10
-55.099349781962829
20
49.569629536010282
30
0
10
-55.344191357583199
20
49.682421789504545
30
0
10
-55.685319468468819
20
49.682421789504545
30
0
0
LINE
5
119
100
AcDbEntity
8
0
100
AcDbLine
10
-55.685319468468819
20
49.682421789504545
30
0
11
-58.238277003258858
21
49.682421789504545
31
0
0
LINE
5
120
100
AcDbEntity
8
0
100
AcDbLine
10
-58.238277003258858
20
49.682421789504545
30
0
11
-58.238277003230642
21
51.134966121055143
31
0
0
LINE
5
121
100
AcDbEntity
8
0
100
AcDbLine
10
-58.238277003230642
20
51.134966121055143
30
0
11
-55.685319468440596
21
51.134966121055143
31
0
0
SPLINE
5
122
100
AcDbEntity
8
0
100
AcDbSpline
70
0
71
2
72
6
73
3
74
0
42
0.000000001
43
0.0000000001
44
0.0000000001
40
0
40
0
40
0
40
1
40
1
40
1
10
-55.685319468440596
20
51.134966121055143
30
0
10
-55.217643544139449
20
51.134966121055143
30
0
10
-54.96179775899386
20
51.371554837562101
30
0
0
SPLINE
5
123
100
AcDbEntity
8
0
100
AcDbSpline
70
0
71
2
72
6
73
3
74
0
42
0.000000001
43
0.0000000001
44
0.0000000001
40
0
40
0
40
0
40
1
40
1
40
1
10
-54.96179775899386
20
51.371554837562101
30
0
10
-54.705951973848272
20
51.608143554069059
30
0
10
-54.70595197383993
20
52.037304745055692
30
0
0
SPLINE
5
124
100
AcDbEntity
8
0
100
AcDbSpline
70
0
71
2
72
6
73
3
74
0
42
0.000000001
43
0.0000000001
44
0.0000000001
40
0
40
0
40
0
40
1
40
1
40
1
10
-54.70595197383993
20
52.037304745055692
30
0
10
-54.705951973832455
20
52.422449097968595
30
0
10
-54.961797758969276
20
52.637029395438688
30
0
0
SPLINE
5
125
100
AcDbEntity
8
0
100
AcDbSpline
70
0
71
2
72
6
73
3
74
0
42
0.000000001
43
0.0000000001
44
0.0000000001
40
0
40
0
40
0
40
1
40
1
40
1
10
-54.961797758969276
20
52.637029395438688
30
0
10
-55.217643544106096
20
52.851609692908781
30
0
10
-55.685319468407243
20
52.851609692908781
30
0
0
LINE
5
126
100
AcDbEntity
8
0
100
AcDbLine
10
-55.685319468407243
20
52.851609692908781
30
0
11
-58.238277003197283
21
52.851609692908781
31
0
0
LINE
5
127
100
AcDbEntity
8
0
100
AcDbLine
10
-58.238277003197283
20
52.851609692908781
30
0
11
-58.23827700316906
21
54.304154620505827
31
0
0
LINE
5
128
100
AcDbEntity
8
0
100
AcDbLine
10
-58.23827700316906
20
54.304154620505827
30
0
11
-55.635799929499626
21
54.304154620505827
31
0
0
SPLINE
5
129
100
AcDbEntity
8
0
100
AcDbSpline
70
0
71
2
72
6
73
3
74
0
42
0.000000001
43
0.0000000001
44
0.0000000001
40
0
40
0
40
0
40
1
40
1
40
1
10
-55.635799929499626
20
54.304154620505827
30
0
10
-54.860009714961052
20
54.304154620505827
30
0
10
-54.309804007415977
20
54.048308835364836
30
0
0
SPLINE
5
130
100
AcDbEntity
8
0
100
AcDbSpline
70
0
71
2
72
6
73
3
74
0
42
0.000000001
43
0.0000000001
44
0.0000000001
40
0
40
0
40
0
40
1
40
1
40
1
10
-54.309804007415977
20
54.048308835364836
30
0
10
-53.759597107777999
20
53.792463050223844
30
0
10
-53.473488852401104
20
53.305530057288664
30
0
0
SPLINE
5
131
100
AcDbEntity
8
0
100
AcDbSpline
70
0
71
2
72
6
73
3
74
0
42
0.000000001
43
0.0000000001
44
0.0000000001
40
0
40
0
40
0
40
1
40
1
40
1
10
-53.473488852401104
20
53.305530057288664
30
0
10
-53.187381789117119
20
52.818597660399931
30
0
10
-53.18738178913037
20
52.136342034675138
30
0
0
SPLINE
5
132
100
AcDbEntity
8
0
100
AcDbSpline
70
0
71
2
72
6
73
3
74
0
42
0.000000001
43
0.0000000001
44
0.0000000001
40
0
40
0
40
0
40
1
40
1
40
1
10
-53.18738178913037
20
52.136342034675138
30
0
10
-53.187381789139458
20
51.668666110373991
30
0
10
-53.371700808464084
20
51.308280930854337
30
0
0
SPLINE
5
133
100
AcDbEntity
8
0
100
AcDbSpline
70
0
71
2
72
6
73
3
74
0
42
0.000000001
43
0.0000000001
44
0.0000000001
40
0
40
0
40
0
40
1
40
1
40
1
10
-53.371700808464084
20
51.308280930854337
30
0
10
-53.556019827788717
20
50.947896347381132
30
0
10
-53.908152148197253
20
50.716809139586942
30
0
0
SPLINE
5
134
100
AcDbEntity
8
0
100
AcDbSpline
70
0
71
2
72
6
73
3
74
0
42
0.000000001
43
0.0000000001
44
0.0000000001
40
0
40
0
40
0
40
1
40
1
40
1
10
-53.908152148197253
20
50.716809139586942
30
0
10
-54.260284468605803
20
50.485723123885649
30
0
10
-54.755470320658183
20
50.403192148543852
30
0
0
SPLINE
5
135
100
AcDbEntity
8
0
100
AcDbSpline
70
0
71
2
72
6
73
3
74
0
42
0.000000001
43
0.0000000001
44
0.0000000001
40
0
40
0
40
0
40
1
40
1
40
1
10
-54.755470320658183
20
50.403192148543852
30
0
10
-54.227273032146392
20
50.33166478667404
30
0
10
-53.850380942307503
20
50.081321106292265
30
0
0
SPLINE
5
136
100
AcDbEntity
8
0
100
AcDbSpline
70
0
71
2
72
6
73
3
74
0
42
0.000000001
43
0.0000000001
44
0.0000000001
40
0
40
0
40
0
40
1
40
1
40
1
10
-53.850380942307503
20
50.081321106292265
30
0
10
-53.47348885246862
20
49.830976829864042
30
0
10
-53.278166815733258
20
49.42932616267349
30
0
0
SPLINE
5
137
100
AcDbEntity
8
0
100
AcDbSpline
70
0
71
2
72
6
73
3
74
0
42
0.000000001
43
0.0000000001
44
0.0000000001
40
0
40
0
40
0
40
1
40
1
40
1
10
-53.278166815733258
20
49.42932616267349
30
0
10
-53.082842394812104
20
49.027675495482939
30
0
10
-53.082842394822372
20
48.499477610923307
30
0
0
LINE
5
138
100
AcDbEntity
8
0
100
AcDbLine
10
-53.082842394822372
20
48.4994776109233
30
0
11
-53.082842394822691
21
48.482971296645658
31
0
0
SPLINE
5
139
100
AcDbEntity
8
0
100
AcDbSpline
70
0
71
2
72
6
73
3
74
0
42
0.000000001
43
0.0000000001
44
0.0000000001
40
0
40
0
40
0
40
1
40
1
40
1
10
-53.082842394822691
20
48.482971296645658
30
0
10
-53.082842394836049
20
47.79521356616165
30
0
10
-53.371700808541853
20
47.305530414916532
30
0
0
SPLINE
5
140
100
AcDbEntity
8
0
100
AcDbSpline
70
0
71
2
72
6
73
3
74
0
42
0.000000001
43
0.0000000001
44
0.0000000001
40
0
40
0
40
0
40
1
40
1
40
1
10
-53.371700808541853
20
47.305530414916532
30
0
10
-53.660559222247656
20
46.81584607157852
30
0
10
-54.213517472298406
20
46.560000286437528
30
0
0
SPLINE
5
141
100
AcDbEntity
8
0
100
AcDbSpline
70
0
71
2
72
6
73
3
74
0
42
0.000000001
43
0.0000000001
44
0.0000000001
40
0
40
0
40
0
40
1
40
1
40
1
10
-54.213517472298406
20
46.560000286437528
30
0
10
-54.766474530256261
20
46.304154501296537
30
0
10
-55.542265936887731
20
46.304154501296537
30
0
0
LINE
5
142
100
AcDbEntity
8
0
100
AcDbLine
10
-55.542265936887731
20
46.304154501296537
30
0
11
-58.238277003324498
21
46.304154501296537
31
0
0
LINE
5
143
100
AcDbEntity
8
0
100
AcDbLine
10
-58.238277003324498
20
46.304154501296537
30
0
11
-58.238277003296268
21
47.756699428893583
31
0
0
LWPOLYLINE
5
144
100
AcDbEntity
8
0
100
AcDbPolyline
90
4
70
1
43
0.0
10
-58.898524805903435
20
54.304154620505827
10
-57.390958830714226
20
54.304154620505827
10
-57.390958830869664
20
46.304154501296537
10
-58.898524806058873
20
46.304154501296537
0
SPLINE
5
145
100
AcDbEntity
8
0
100
AcDbSpline
70
0
71
2
72
6
73
3
74
0
42
0.000000001
43
0.0000000001
44
0.0000000001
40
0
40
0
40
0
40
1
40
1
40
1
10
-49.286419913329752
20
46.22162352595474
30
0
10
-50.111729666747721
20
46.22162352595474
30
0
10
-50.697699353250073
20
46.521486149169462
30
0
0
SPLINE
5
146
100
AcDbEntity
8
0
100
AcDbSpline
70
0
71
2
72
6
73
3
74
0
42
0.000000001
43
0.0000000001
44
0.0000000001
40
0
40
0
40
0
40
1
40
1
40
1
10
-50.697699353250073
20
46.521486149169462
30
0
10
-51.283669039752425
20
46.821348772384184
30
0
10
-51.591784522071585
20
47.39631424937393
30
0
0
SPLINE
5
147
100
AcDbEntity
8
0
100
AcDbSpline
70
0
71
2
72
6
73
3
74
0
42
0.000000001
43
0.0000000001
44
0.0000000001
40
0
40
0
40
0
40
1
40
1
40
1
10
-51.591784522071585
20
47.39631424937393
30
0
10
-51.899900004390737
20
47.971279726363676
30
0
10
-51.899900004375027
20
48.780083165503996
30
0
0
LINE
5
148
100
AcDbEntity
8
0
100
AcDbLine
10
-51.899900004375027
20
48.780083165503989
30
0
11
-51.899900004362522
21
49.423824653960722
31
0
0
SPLINE
5
149
100
AcDbEntity
8
0
100
AcDbSpline
70
0
71
2
72
6
73
3
74
0
42
0.000000001
43
0.0000000001
44
0.0000000001
40
0
40
0
40
0
40
1
40
1
40
1
10
-51.899900004362522
20
49.423824653960722
30
0
10
-51.899900004346051
20
50.271142230369108
30
0
10
-51.605538889832445
20
50.870866880752104
30
0
0
SPLINE
5
150
100
AcDbEntity
8
0
100
AcDbSpline
70
0
71
2
72
6
73
3
74
0
42
0.000000001
43
0.0000000001
44
0.0000000001
40
0
40
0
40
0
40
1
40
1
40
1
10
-51.605538889832445
20
50.870866880752104
30
0
10
-51.311178967411735
20
51.470592127181547
30
0
10
-50.747217699934325
20
51.784209714271086
30
0
0
SPLINE
5
151
100
AcDbEntity
8
0
100
AcDbSpline
70
0
71
2
72
6
73
3
74
0
42
0.000000001
43
0.0000000001
44
0.0000000001
40
0
40
0
40
0
40
1
40
1
40
1
10
-50.747217699934325
20
51.784209714271086
30
0
10
-50.183256432456922
20
52.097827301360624
30
0
10
-49.385456606788587
20
52.097827301360624
30
0
0
SPLINE
5
152
100
AcDbEntity
8
0
100
AcDbSpline
70
0
71
2
72
6
73
3
74
0
42
0.000000001
43
0.0000000001
44
0.0000000001
40
0
40
0
40
0
40
1
40
1
40
1
10
-49.385456606788587
20
52.097827301360624
30
0
10
-48.637177512092542
20
52.097827301360624
30
0
10
-48.103477522780963
20
51.723687157966154
30
0
0
SPLINE
5
153
100
AcDbEntity
8
0
100
AcDbSpline
70
0
71
2
72
6
73
3
74
0
42
0.000000001
43
0.0000000001
44
0.0000000001
40
0
40
0
40
0
40
1
40
1
40
1
10
-48.103477522780963
20
51.723687157966154
30
0
10
-47.569777533469384
20
51.349546418525243
30
0
10
-47.291922137212481
20
50.637029514647985
30
0
0
SPLINE
5
154
100
AcDbEntity
8
0
100
AcDbSpline
70
0
71
2
72
6
73
3
74
0
42
0.000000001
43
0.0000000001
44
0.0000000001
40
0
40
0
40
0
40
1
40
1
40
1
10
-47.291922137212481
20
50.637029514647985
30
0
10
-47.01406674095557
20
49.924512014724279
30
0
10
-47.014066740975132
20
48.917634592391515
30
0
0
LINE
5
155
100
AcDbEntity
8
0
100
AcDbLine
10
-47.014066740975132
20
48.917634592391515
30
0
11
-47.0140667409824
21
48.543494448997045
31
0
0
LINE
5
156
100
AcDbEntity
8
0
100
AcDbLine
10
-47.0140667409824
20
48.543494448997045
30
0
11
-50.920532509796494
21
48.543494448997045
31
0
0
LINE
5
157
100
AcDbEntity
8
0
100
AcDbLine
10
-50.920532509796494
20
48.543494448997045
30
0
11
-50.920532509776706
21
49.561376080848234
31
0
0
LINE
5
158
100
AcDbEntity
8
0
100
AcDbLine
10
-50.920532509776706
20
49.561376080848234
30
0
11
-48.389584586116435
21
49.561376080848234
31
0
0
LINE
5
159
100
AcDbEntity
8
0
100
AcDbLine
10
-48.389584586116435
20
49.561376080848234
30
0
11
-48.406090304345064
21
49.69342540297653
31
0
0
SPLINE
5
160
100
AcDbEntity
8
0
100
AcDbSpline
70
0
71
2
72
6
73
3
74
0
42
0.000000001
43
0.0000000001
44
0.0000000001
40
0
40
0
40
0
40
1
40
1
40
1
10
-48.406090304345071
20
49.69342540297653
30
0
10
-48.466612860640375
20
50.188611255027311
30
0
10
-48.716957137063368
20
50.458212004043119
30
0
0
SPLINE
5
161
100
AcDbEntity
8
0
100
AcDbSpline
70
0
71
2
72
6
73
3
74
0
42
0.000000001
43
0.0000000001
44
0.0000000001
40
0
40
0
40
0
40
1
40
1
40
1
10
-48.716957137063368
20
50.458212004043119
30
0
10
-48.967301413486346
20
50.727813349105375
30
0
10
-49.385456606815204
20
50.727813349105375
30
0
0
SPLINE
5
162
100
AcDbEntity
8
0
100
AcDbSpline
70
0
71
2
72
6
73
3
74
0
42
0.000000001
43
0.0000000001
44
0.0000000001
40
0
40
0
40
0
40
1
40
1
40
1
10
-49.385456606815204
20
50.727813349105375
30
0
10
-49.93016199774538
20
50.727813349105375
30
0
10
-50.230023428873515
20
50.403192148543852
30
0
0
SPLINE
5
163
100
AcDbEntity
8
0
100
AcDbSpline
70
0
71
2
72
6
73
3
74
0
42
0.000000001
43
0.0000000001
44
0.0000000001
40
0
40
0
40
0
40
1
40
1
40
1
10
-50.230023428873515
20
50.403192148543852
30
0
10
-50.52988605209454
20
50.078569755889433
30
0
10
-50.529886052106086
20
49.484347210265653
30
0
0
LINE
5
164
100
AcDbEntity
8
0
100
AcDbLine
10
-50.529886052106086
20
49.484347210265653
30
0
11
-50.529886052120204
21
48.75807474646713
31
0
0
SPLINE
5
165
100
AcDbEntity
8
0
100
AcDbSpline
70
0
71
2
72
6
73
3
74
0
42
0.000000001
43
0.0000000001
44
0.0000000001
40
0
40
0
40
0
40
1
40
1
40
1
10
-50.529886052120204
20
48.75807474646713
30
0
10
-50.529886052131531
20
48.174855814315336
30
0
10
-50.202513501173378
20
47.855736122466581
30
0
0
SPLINE
5
166
100
AcDbEntity
8
0
100
AcDbSpline
70
0
71
2
72
6
73
3
74
0
42
0.000000001
43
0.0000000001
44
0.0000000001
40
0
40
0
40
0
40
1
40
1
40
1
10
-50.202513501173378
20
47.855736122466581
30
0
10
-49.875142142308121
20
47.536616430617826
30
0
10
-49.286419913304215
20
47.536616430617826
30
0
0
SPLINE
5
167
100
AcDbEntity
8
0
100
AcDbSpline
70
0
71
2
72
6
73
3
74
0
42
0.000000001
43
0.0000000001
44
0.0000000001
40
0
40
0
40
0
40
1
40
1
40
1
10
-49.286419913304215
20
47.536616430617826
30
0
10
-48.983804747593766
20
47.536616430617826
30
0
10
-48.686694666872683
20
47.64390717539932
30
0
0
SPLINE
5
168
100
AcDbEntity
8
0
100
AcDbSpline
70
0
71
2
72
6
73
3
74
0
42
0.000000001
43
0.0000000001
44
0.0000000001
40
0
40
0
40
0
40
1
40
1
40
1
10
-48.686694666872683
20
47.64390717539932
30
0
10
-48.389584586151599
20
47.751197324134367
30
0
10
-48.147494360928029
20
47.949271307326811
30
0
0
LINE
5
169
100
AcDbEntity
8
0
100
AcDbLine
10
-48.147494360928029
20
47.949271307326811
30
0
11
-47.162622973463336
21
47.074443207122343
31
0
0
SPLINE
5
170
100
AcDbEntity
8
0
100
AcDbSpline
70
0
71
2
72
6
73
3
74
0
42
0.000000001
43
0.0000000001
44
0.0000000001
40
0
40
0
40
0
40
1
40
1
40
1
10
-47.162622973463336
20
47.074443207122343
30
0
10
-47.608291670828429
20
46.667291031219023
30
0
10
-48.163997695002678
20
46.444456682540434
30
0
0
SPLINE
5
171
100
AcDbEntity
8
0
100
AcDbSpline
70
0
71
2
72
6
73
3
74
0
42
0.000000001
43
0.0000000001
44
0.0000000001
40
0
40
0
40
0
40
1
40
1
40
1
10
-48.163997695002678
20
46.444456682540434
30
0
10
-48.719708487548502
20
46.22162352595474
30
0
10
-49.286419913329752
20
46.22162352595474
30
0
0
SPLINE
5
172
100
AcDbEntity
8
0
100
AcDbSpline
70
0
71
2
72
6
73
3
74
0
42
0.000000001
43
0.0000000001
44
0.0000000001
40
0
40
0
40
0
40
1
40
1
40
1
10
-43.509251639403971
20
46.221623525954747
30
0
10
-44.020945593871744
20
46.221623525954747
30
0
10
-44.505126044309442
20
46.312407360412145
30
0
0
SPLINE
5
173
100
AcDbEntity
8
0
100
AcDbSpline
70
0
71
2
72
6
73
3
74
0
42
0.000000001
43
0.0000000001
44
0.0000000001
40
0
40
0
40
0
40
1
40
1
40
1
10
-44.505126044309442
20
46.312407360412145
30
0
10
-44.989306494747126
20
46.403191194869542
30
0
10
-45.412966773064021
20
46.579257355071569
30
0
0
SPLINE
5
174
100
AcDbEntity
8
0
100
AcDbSpline
70
0
71
2
72
6
73
3
74
0
42
0.000000001
43
0.0000000001
44
0.0000000001
40
0
40
0
40
0
40
1
40
1
40
1
10
-45.412966773064021
20
46.579257355071569
30
0
10
-45.836627051380916
20
46.755323515273595
30
0
10
-46.161248251937636
20
47.002916441298986
30
0
0
LINE
5
175
100
AcDbEntity
8
0
100
AcDbLine
10
-46.161248251937636
20
47.002916441298986
30
0
11
-45.231396719932647
21
48.163851604796911
31
0
0
SPLINE
5
176
100
AcDbEntity
8
0
100
AcDbSpline
70
0
71
2
72
6
73
3
74
0
42
0.000000001
43
0.0000000001
44
0.0000000001
40
0
40
0
40
0
40
1
40
1
40
1
10
-45.231396719932647
20
48.163851604796911
30
0
10
-44.818744227414591
20
47.899752960540319
30
0
10
-44.36757282925452
20
47.75669942889359
30
0
0
SPLINE
5
177
100
AcDbEntity
8
0
100
AcDbSpline
70
0
71
2
72
6
73
3
74
0
42
0.000000001
43
0.0000000001
44
0.0000000001
40
0
40
0
40
0
40
1
40
1
40
1
10
-44.36757282925452
20
47.75669942889359
30
0
10
-43.916403815280262
20
47.613645897246862
30
0
10
-43.509251639376942
20
47.613645897246862
30
0
0
SPLINE
5
178
100
AcDbEntity
8
0
100
AcDbSpline
70
0
71
2
72
6
73
3
74
0
42
0.000000001
43
0.0000000001
44
0.0000000001
40
0
40
0
40
0
40
1
40
1
40
1
10
-43.509251639376942
20
47.613645897246862
30
0
10
-42.981054350863758
20
47.613645897246862
30
0
10
-42.68944458676232
20
47.731939659453893
30
0
0
SPLINE
5
179
100
AcDbEntity
8
0
100
AcDbSpline
70
0
71
2
72
6
73
3
74
0
42
0.000000001
43
0.0000000001
44
0.0000000001
40
0
40
0
40
0
40
1
40
1
40
1
10
-42.68944458676232
20
47.731939659453893
30
0
10
-42.397834822660911
20
47.85023461375382
30
0
10
-42.397834822656847
20
48.059312806464696
30
0
0
SPLINE
5
180
100
AcDbEntity
8
0
100
AcDbSpline
70
0
71
2
72
6
73
3
74
0
42
0.000000001
43
0.0000000001
44
0.0000000001
40
0
40
0
40
0
40
1
40
1
40
1
10
-42.397834822656847
20
48.059312806464696
30
0
10
-42.397834822653103
20
48.251885280944371
30
0
10
-42.524382636066704
20
48.35092197451737
30
0
0
SPLINE
5
181
100
AcDbEntity
8
0
100
AcDbSpline
70
0
71
2
72
6
73
3
74
0
42
0.000000001
43
0.0000000001
44
0.0000000001
40
0
40
0
40
0
40
1
40
1
40
1
10
-42.524382636066704
20
48.35092197451737
30
0
10
-42.650930449480313
20
48.449959264136815
30
0
10
-42.849003836625513
20
48.491224751807714
30
0
0
SPLINE
5
182
100
AcDbEntity
8
0
100
AcDbSpline
70
0
71
2
72
6
73
3
74
0
42
0.000000001
43
0.0000000001
44
0.0000000001
40
0
40
0
40
0
40
1
40
1
40
1
10
-42.849003836625513
20
48.491224751807714
30
0
10
-43.047079607956498
20
48.532490239478612
30
0
10
-43.404714629165568
20
48.565502271987462
30
0
0
SPLINE
5
183
100
AcDbEntity
8
0
100
AcDbSpline
70
0
71
2
72
6
73
3
74
0
42
0.000000001
43
0.0000000001
44
0.0000000001
40
0
40
0
40
0
40
1
40
1
40
1
10
-43.404714629165568
20
48.565502271987462
30
0
10
-43.503748938552562
20
48.576506481505895
30
0
10
-43.60553936671397
20
48.587510691024328
30
0
0
SPLINE
5
184
100
AcDbEntity
8
0
100
AcDbSpline
70
0
71
2
72
6
73
3
74
0
42
0.000000001
43
0.0000000001
44
0.0000000001
40
0
40
0
40
0
40
1
40
1
40
1
10
-43.60553936671397
20
48.587510691024328
30
0
10
-43.707327410689587
20
48.59851490054276
30
0
10
-43.811866805068036
20
48.609519110061193
30
0
0
SPLINE
5
185
100
AcDbEntity
8
0
100
AcDbSpline
70
0
71
2
72
6
73
3
74
0
42
0.000000001
43
0.0000000001
44
0.0000000001
40
0
40
0
40
0
40
1
40
1
40
1
10
-43.811866805068036
20
48.609519110061193
30
0
10
-43.833872839919003
20
48.615021214820409
30
0
10
-43.858634993544435
20
48.617771969176793
30
0
0
SPLINE
5
186
100
AcDbEntity
8
0
100
AcDbSpline
70
0
71
2
72
6
73
3
74
0
42
0.000000001
43
0.0000000001
44
0.0000000001
40
0
40
0
40
0
40
1
40
1
40
1
10
-43.858634993544435
20
48.617771969176793
30
0
10
-43.883392378798291
20
48.620523319579625
30
0
10
-43.905400797835156
20
48.620523319579625
30
0
0
SPLINE
5
187
100
AcDbEntity
8
0
100
AcDbSpline
70
0
71
2
72
6
73
3
74
0
42
0.000000001
43
0.0000000001
44
0.0000000001
40
0
40
0
40
0
40
1
40
1
40
1
10
-43.905400797835156
20
48.620523319579625
30
0
10
-44.54364018153106
20
48.703054294921422
30
0
10
-44.928786322580962
20
48.824099407531286
30
0
0
SPLINE
5
188
100
AcDbEntity
8
0
100
AcDbSpline
70
0
71
2
72
6
73
3
74
0
42
0.000000001
43
0.0000000001
44
0.0000000001
40
0
40
0
40
0
40
1
40
1
40
1
10
-44.928786322580962
20
48.824099407531286
30
0
10
-45.31392769525926
20
48.945144520141149
30
0
10
-45.580780074097795
20
49.289023981429601
30
0
0
SPLINE
5
189
100
AcDbEntity
8
0
100
AcDbSpline
70
0
71
2
72
6
73
3
74
0
42
0.000000001
43
0.0000000001
44
0.0000000001
40
0
40
0
40
0
40
1
40
1
40
1
10
-45.580780074097795
20
49.289023981429601
30
0
10
-45.847627684564749
20
49.632902846671605
30
0
10
-45.84762768455203
20
50.287648544646764
30
0
0
SPLINE
5
190
100
AcDbEntity
8
0
100
AcDbSpline
70
0
71
2
72
6
73
3
74
0
42
0.000000001
43
0.0000000001
44
0.0000000001
40
0
40
0
40
0
40
1
40
1
40
1
10
-45.84762768455203
20
50.287648544646764
30
0
10
-45.84762768454091
20
50.859862671233678
30
0
10
-45.57252602285088
20
51.267015443183446
30
0
0
SPLINE
5
191
100
AcDbEntity
8
0
100
AcDbSpline
70
0
71
2
72
6
73
3
74
0
42
0.000000001
43
0.0000000001
44
0.0000000001
40
0
40
0
40
0
40
1
40
1
40
1
10
-45.57252602285088
20
51.267015443183446
30
0
10
-45.297424361160836
20
51.674168215133214
30
0
10
-44.774727389263411
20
51.885997758246923
30
0
0
SPLINE
5
192
100
AcDbEntity
8
0
100
AcDbSpline
70
0
71
2
72
6
73
3
74
0
42
0.000000001
43
0.0000000001
44
0.0000000001
40
0
40
0
40
0
40
1
40
1
40
1
10
-44.774727389263411
20
51.885997758246923
30
0
10
-44.25203041736598
20
52.097827301360631
30
0
10
-43.509251639289808
20
52.097827301360631
30
0
0
SPLINE
5
193
100
AcDbEntity
8
0
100
AcDbSpline
70
0
71
2
72
6
73
3
74
0
42
0.000000001
43
0.0000000001
44
0.0000000001
40
0
40
0
40
0
40
1
40
1
40
1
10
-43.509251639289808
20
52.097827301360631
30
0
10
-43.074590727729749
20
52.097827301360631
30
0
10
-42.642676398202646
20
52.009794221259618
30
0
0
SPLINE
5
194
100
AcDbEntity
8
0
100
AcDbSpline
70
0
71
2
72
6
73
3
74
0
42
0.000000001
43
0.0000000001
44
0.0000000001
40
0
40
0
40
0
40
1
40
1
40
1
10
-42.642676398202646
20
52.009794221259618
30
0
10
-42.210766837047146
20
51.921761141158605
30
0
10
-41.81461767857256
20
51.756699190475011
30
0
0
SPLINE
5
195
100
AcDbEntity
8
0
100
AcDbSpline
70
0
71
2
72
6
73
3
74
0
42
0.000000001
43
0.0000000001
44
0.0000000001
40
0
40
0
40
0
40
1
40
1
40
1
10
-41.81461767857256
20
51.756699190475011
30
0
10
-41.418468520097989
20
51.591637239791417
30
0
10
-41.08284191792962
20
51.360550628043676
30
0
0
LINE
5
196
100
AcDbEntity
8
0
100
AcDbLine
10
-41.08284191792962
20
51.360550628043676
30
0
11
-41.979677245099332
21
50.265640125609899
31
0
0
SPLINE
5
197
100
AcDbEntity
8
0
100
AcDbSpline
70
0
71
2
72
6
73
3
74
0
42
0.000000001
43
0.0000000001
44
0.0000000001
40
0
40
0
40
0
40
1
40
1
40
1
10
-41.979677245099332
20
50.265640125609899
30
0
10
-42.353817984536178
20
50.474718914367223
30
0
10
-42.760972544623058
20
50.59026192221787
30
0
0
SPLINE
5
198
100
AcDbEntity
8
0
100
AcDbSpline
70
0
71
2
72
6
73
3
74
0
42
0.000000001
43
0.0000000001
44
0.0000000001
40
0
40
0
40
0
40
1
40
1
40
1
10
-42.760972544623058
20
50.59026192221787
30
0
10
-43.168124720524126
20
50.705804930068517
30
0
10
-43.542265459965044
20
50.705804930068517
30
0
0
SPLINE
5
199
100
AcDbEntity
8
0
100
AcDbSpline
70
0
71
2
72
6
73
3
74
0
42
0.000000001
43
0.0000000001
44
0.0000000001
40
0
40
0
40
0
40
1
40
1
40
1
10
-43.542265459965044
20
50.705804930068517
30
0
10
-43.998934790561968
20
50.705804930068517
30
0
10
-44.252030417395062
20
50.601266131736303
30
0
0
SPLINE
5
200
100
AcDbEntity
8
0
100
AcDbSpline
70
0
71
2
72
6
73
3
74
0
42
0.000000001
43
0.0000000001
44
0.0000000001
40
0
40
0
40
0
40
1
40
1
40
1
10
-44.252030417395062
20
50.601266131736303
30
0
10
-44.505126044228135
20
50.496726737357641
30
0
10
-44.50512604423178
20
50.309656963683629
30
0
0
SPLINE
5
201
100
AcDbEntity
8
0
100
AcDbSpline
70
0
71
2
72
6
73
3
74
0
42
0.000000001
43
0.0000000001
44
0.0000000001
40
0
40
0
40
0
40
1
40
1
40
1
10
-44.50512604423178
20
50.309656963683629
30
0
10
-44.505126044234551
20
50.166603432036901
30
0
10
-44.370324179612084
20
50.086823211051488
30
0
0
SPLINE
5
202
100
AcDbEntity
8
0
100
AcDbSpline
70
0
71
2
72
6
73
3
74
0
42
0.000000001
43
0.0000000001
44
0.0000000001
40
0
40
0
40
0
40
1
40
1
40
1
10
-44.370324179612084
20
50.086823211051488
30
0
10
-44.2355246991754
20
50.007042990066076
30
0
10
-44.034699961627268
20
49.971279607154393
30
0
0
SPLINE
5
203
100
AcDbEntity
8
0
100
AcDbSpline
70
0
71
2
72
6
73
3
74
0
42
0.000000001
43
0.0000000001
44
0.0000000001
40
0
40
0
40
0
40
1
40
1
40
1
10
-44.034699961627268
20
49.971279607154393
30
0
10
-43.833872839893345
20
49.935516224242711
30
0
10
-43.448729083027743
20
49.891499982215429
30
0
0
SPLINE
5
204
100
AcDbEntity
8
0
100
AcDbSpline
70
0
71
2
72
6
73
3
74
0
42
0.000000001
43
0.0000000001
44
0.0000000001
40
0
40
0
40
0
40
1
40
1
40
1
10
-43.448729083027743
20
49.891499982215429
30
0
10
-43.399211928334239
20
49.885997877456212
30
0
10
-43.349692389454958
20
49.880495772696996
30
0
0
SPLINE
5
205
100
AcDbEntity
8
0
100
AcDbSpline
70
0
71
2
72
6
73
3
74
0
42
0.000000001
43
0.0000000001
44
0.0000000001
40
0
40
0
40
0
40
1
40
1
40
1
10
-43.349692389454958
20
49.880495772696996
30
0
10
-43.300172850575663
20
49.87499366793778
30
0
10
-43.250655695882173
20
49.869491563178563
30
0
0
SPLINE
5
206
100
AcDbEntity
8
0
100
AcDbSpline
70
0
71
2
72
6
73
3
74
0
42
0.000000001
43
0.0000000001
44
0.0000000001
40
0
40
0
40
0
40
1
40
1
40
1
10
-43.250655695882173
20
49.869491563178563
30
0
10
-43.228647276845408
20
49.863989458419347
30
0
10
-43.201138541188669
20
49.863989458419347
30
0
0
SPLINE
5
207
100
AcDbEntity
8
0
100
AcDbSpline
70
0
71
2
72
6
73
3
74
0
42
0.000000001
43
0.0000000001
44
0.0000000001
40
0
40
0
40
0
40
1
40
1
40
1
10
-43.201138541188669
20
49.863989458419347
30
0
10
-43.173625037160349
20
49.863989458419347
30
0
10
-43.151619002309388
20
49.858487353660131
30
0
0
SPLINE
5
208
100
AcDbEntity
8
0
100
AcDbSpline
70
0
71
2
72
6
73
3
74
0
42
0.000000001
43
0.0000000001
44
0.0000000001
40
0
40
0
40
0
40
1
40
1
40
1
10
-43.151619002309388
20
49.858487353660131
30
0
10
-42.485868498770849
20
49.78145848307755
30
0
10
-42.067710921258552
20
49.660413370467687
30
0
0
SPLINE
5
209
100
AcDbEntity
8
0
100
AcDbSpline
70
0
71
2
72
6
73
3
74
0
42
0.000000001
43
0.0000000001
44
0.0000000001
40
0
40
0
40
0
40
1
40
1
40
1
10
-42.067710921258552
20
49.660413370467687
30
0
10
-41.649555727932047
20
49.539367661811376
30
0
10
-41.355194613437149
20
49.176231727935338
30
0
0
SPLINE
5
210
100
AcDbEntity
8
0
100
AcDbSpline
70
0
71
2
72
6
73
3
74
0
42
0.000000001
43
0.0000000001
44
0.0000000001
40
0
40
0
40
0
40
1
40
1
40
1
10
-41.355194613437149
20
49.176231727935338
30
0
10
-41.060833498942259
20
48.813095198012853
30
0
10
-41.06083349895593
20
48.108831153251195
30
0
0
SPLINE
5
211
100
AcDbEntity
8
0
100
AcDbSpline
70
0
71
2
72
6
73
3
74
0
42
0.000000001
43
0.0000000001
44
0.0000000001
40
0
40
0
40
0
40
1
40
1
40
1
10
-41.06083349895593
20
48.108831153251195
30
0
10
-41.060833498967483
20
47.514608607627416
30
0
10
-41.346942946454952
20
47.090948925353551
30
0
0
SPLINE
5
212
100
AcDbEntity
8
0
100
AcDbSpline
70
0
71
2
72
6
73
3
74
0
42
0.000000001
43
0.0000000001
44
0.0000000001
40
0
40
0
40
0
40
1
40
1
40
1
10
-41.346942946454952
20
47.090948925353551
30
0
10
-41.633050009756651
20
46.66729103121903
30
0
10
-42.183255717311027
20
46.444456682540441
30
0
0
SPLINE
5
213
100
AcDbEntity
8
0
100
AcDbSpline
70
0
71
2
72
6
73
3
74
0
42
0.000000001
43
0.0000000001
44
0.0000000001
40
0
40
0
40
0
40
1
40
1
40
1
10
-42.183255717311027
20
46.444456682540441
30
0
10
-42.733461424865396
20
46.221623525954747
30
0
10
-43.509251639403971
20
46.221623525954747
30
0
0
SPLINE
5
214
100
AcDbEntity
8
0
100
AcDbSpline
70
0
71
2
72
6
73
3
74
0
42
0.000000001
43
0.0000000001
44
0.0000000001
40
0
40
0
40
0
40
1
40
1
40
1
10
-38.254782721556225
20
46.276644573546911
30
0
10
-39.003064200438061
20
46.276644573546911
30
0
10
-39.352445170431857
20
46.659038172103429
30
0
0
SPLINE
5
215
100
AcDbEntity
8
0
100
AcDbSpline
70
0
71
2
72
6
73
3
74
0
42
0.000000001
43
0.0000000001
44
0.0000000001
40
0
40
0
40
0
40
1
40
1
40
1
10
-39.352445170431857
20
46.659038172103429
30
0
10
-39.701826140425645
20
47.041430578567052
30
0
10
-39.701826140411107
20
47.78971146140244
30
0
0
LINE
5
216
100
AcDbEntity
8
0
100
AcDbLine
10
-39.701826140411107
20
47.78971146140244
30
0
11
-39.701826140296724
21
53.676919446326757
31
0
0
LINE
5
217
100
AcDbEntity
8
0
100
AcDbLine
10
-39.701826140296724
20
53.676919446326757
30
0
11
-38.194260165107522
21
53.676919446326757
31
0
0
LINE
5
218
100
AcDbEntity
8
0
100
AcDbLine
10
-38.194260165107522
20
53.676919446326757
30
0
11
-38.194260165214629
21
48.163851604796911
31
0
0
SPLINE
5
219
100
AcDbEntity
8
0
100
AcDbSpline
70
0
71
2
72
6
73
3
74
0
42
0.000000001
43
0.0000000001
44
0.0000000001
40
0
40
0
40
0
40
1
40
1
40
1
10
-38.194260165214629
20
48.163851604796911
30
0
10
-38.194260165218694
20
47.954773412086034
30
0
10
-38.111729189879085
20
47.841981158591771
30
0
0
SPLINE
5
220
100
AcDbEntity
8
0
100
AcDbSpline
70
0
71
2
72
6
73
3
74
0
42
0.000000001
43
0.0000000001
44
0.0000000001
40
0
40
0
40
0
40
1
40
1
40
1
10
-38.111729189879085
20
47.841981158591771
30
0
10
-38.029198214539484
20
47.729188905097509
30
0
10
-37.869638964661554
20
47.729188905097509
30
0
0
LINE
5
221
100
AcDbEntity
8
0
100
AcDbLine
10
-37.869638964661554
20
47.729188905097509
30
0
11
-37.495498225220636
21
47.729188905097509
31
0
0
LINE
5
222
100
AcDbEntity
8
0
100
AcDbLine
10
-37.495498225220636
20
47.729188905097509
30
0
11
-37.495498225248852
21
46.276644573546911
31
0
0
LINE
5
223
100
AcDbEntity
8
0
100
AcDbLine
10
-37.495498225248852
20
46.276644573546911
30
0
11
-38.254782721556225
21
46.276644573546911
31
0
0
LWPOLYLINE
5
224
100
AcDbEntity
8
0
100
AcDbPolyline
90
4
70
1
43
0.0
10
-40.290545985147119
20
52.015296326018834
10
-37.495498225137354
20
52.015296326018834
10
-37.495498225162372
20
50.727813349105382
10
-40.290545985172137
20
50.727813349105382
0
LWPOLYLINE
5
225
100
AcDbEntity
8
0
100
AcDbPolyline
90
4
70
1
43
0.0
10
-28.659183546900753
20
54.304154620505841
10
-27.151619955897335
20
54.304154620505841
10
-27.151619956052766
20
46.304154501296551
10
-28.659183547056184
20
46.304154501296551
0
LWPOLYLINE
5
226
100
AcDbEntity
8
0
100
AcDbPolyline
90
4
70
1
43
0.0
10
-33.038825556635857
20
54.304154620505841
10
-31.531259581446651
20
54.304154620505841
10
-31.531259581602082
20
46.304154501296551
10
-33.038825556791295
20
46.304154501296551
0
LWPOLYLINE
5
227
100
AcDbEntity
8
0
100
AcDbPolyline
90
4
70
1
43
0.0
10
-32.340063616697662
20
50.997414694167645
10
-27.679817244474766
20
50.997414694167645
10
-27.679817244502981
20
49.544869766570599
10
-32.340063616725885
20
49.544869766570599
0
SPLINE
5
228
100
AcDbEntity
8
0
100
AcDbSpline
70
0
71
2
72
6
73
3
74
0
42
0.000000001
43
0.0000000001
44
0.0000000001
40
0
40
0
40
0
40
1
40
1
40
1
10
-22.359320685352539
20
49.924512014724286
30
0
10
-22.359320685344848
20
50.320661173202069
30
0
10
-22.623421713783056
20
50.535241470672162
30
0
0
SPLINE
5
229
100
AcDbEntity
8
0
100
AcDbSpline
70
0
71
2
72
6
73
3
74
0
42
0.000000001
43
0.0000000001
44
0.0000000001
40
0
40
0
40
0
40
1
40
1
40
1
10
-22.623421713783056
20
50.535241470672162
30
0
10
-22.88751797384969
20
50.749821768142255
30
0
10
-23.371703192660725
20
50.749821768142255
30
0
0
SPLINE
5
230
100
AcDbEntity
8
0
100
AcDbSpline
70
0
71
2
72
6
73
3
74
0
42
0.000000001
43
0.0000000001
44
0.0000000001
40
0
40
0
40
0
40
1
40
1
40
1
10
-23.371703192660725
20
50.749821768142255
30
0
10
-23.690821692416584
20
50.749821768142255
30
0
10
-24.004437491368815
20
50.645282373763592
30
0
0
SPLINE
5
231
100
AcDbEntity
8
0
100
AcDbSpline
70
0
71
2
72
6
73
3
74
0
42
0.000000001
43
0.0000000001
44
0.0000000001
40
0
40
0
40
0
40
1
40
1
40
1
10
-24.004437491368815
20
50.645282373763592
30
0
10
-24.318053290321036
20
50.54074297938493
30
0
10
-24.560143515544397
20
50.353673205710919
30
0
0
LINE
5
232
100
AcDbEntity
8
0
100
AcDbLine
10
-24.560143515544397
20
50.353673205710919
30
0
11
-25.495497748314627
21
51.27251754794267
31
0
0
SPLINE
5
233
100
AcDbEntity
8
0
100
AcDbSpline
70
0
71
2
72
6
73
3
74
0
42
0.000000001
43
0.0000000001
44
0.0000000001
40
0
40
0
40
0
40
1
40
1
40
1
10
-25.495497748314637
20
51.27251754794267
30
0
10
-25.154368445328529
20
51.663164005614789
30
0
10
-24.593159720348723
20
51.880495653487714
30
0
0
SPLINE
5
234
100
AcDbEntity
8
0
100
AcDbSpline
70
0
71
2
72
6
73
3
74
0
42
0.000000001
43
0.0000000001
44
0.0000000001
40
0
40
0
40
0
40
1
40
1
40
1
10
-24.593159720348723
20
51.880495653487714
30
0
10
-24.031950995368909
20
52.097827301360638
30
0
10
-23.349692389411878
20
52.097827301360638
30
0
0
SPLINE
5
235
100
AcDbEntity
8
0
100
AcDbSpline
70
0
71
2
72
6
73
3
74
0
42
0.000000001
43
0.0000000001
44
0.0000000001
40
0
40
0
40
0
40
1
40
1
40
1
10
-23.349692389411878
20
52.097827301360638
30
0
10
-22.601410910530042
20
52.097827301360638
30
0
10
-22.073213622021726
20
51.847483620978863
30
0
0
SPLINE
5
236
100
AcDbEntity
8
0
100
AcDbSpline
70
0
71
2
72
6
73
3
74
0
42
0.000000001
43
0.0000000001
44
0.0000000001
40
0
40
0
40
0
40
1
40
1
40
1
10
-22.073213622021726
20
51.847483620978863
30
0
10
-21.545016333513402
20
51.597139344550641
30
0
10
-21.267163321437693
20
51.12121115718034
30
0
0
SPLINE
5
237
100
AcDbEntity
8
0
100
AcDbSpline
70
0
71
2
72
6
73
3
74
0
42
0.000000001
43
0.0000000001
44
0.0000000001
40
0
40
0
40
0
40
1
40
1
40
1
10
-21.267163321437693
20
51.12121115718034
30
0
10
-20.989310309361979
20
50.645282373763592
30
0
10
-20.989310309375018
20
49.974030361510785
30
0
0
LINE
5
238
100
AcDbEntity
8
0
100
AcDbLine
10
-20.989310309375018
20
49.974030361510785
30
0
11
-20.989310309446321
21
46.304154501296551
31
0
0
LINE
5
239
100
AcDbEntity
8
0
100
AcDbLine
10
-20.989310309446321
20
46.304154501296551
30
0
11
-22.359320685422883
21
46.304154501296551
31
0
0
LINE
5
240
100
AcDbEntity
8
0
100
AcDbLine
10
-22.359320685422883
20
46.304154501296551
30
0
11
-22.359320685352539
21
49.924512014724286
31
0
0
SPLINE
5
241
100
AcDbEntity
8
0
100
AcDbSpline
70
0
71
2
72
6
73
3
74
0
42
0.000000001
43
0.0000000001
44
0.0000000001
40
0
40
0
40
0
40
1
40
1
40
1
10
-23.949420020141279
20
46.221623525954755
30
0
10
-24.868261382140791
20
46.221623525954755
30
0
10
-25.322181746512182
20
46.659038172103436
30
0
0
SPLINE
5
242
100
AcDbEntity
8
0
100
AcDbSpline
70
0
71
2
72
6
73
3
74
0
42
0.000000001
43
0.0000000001
44
0.0000000001
40
0
40
0
40
0
40
1
40
1
40
1
10
-25.322181746512182
20
46.659038172103436
30
0
10
-25.776102110883564
20
47.096451626159222
30
0
10
-25.776102110866248
20
47.987786040641339
30
0
0
SPLINE
5
243
100
AcDbEntity
8
0
100
AcDbSpline
70
0
71
2
72
6
73
3
74
0
42
0.000000001
43
0.0000000001
44
0.0000000001
40
0
40
0
40
0
40
1
40
1
40
1
10
-25.776102110866248
20
47.987786040641339
30
0
10
-25.776102110849777
20
48.835103617049725
30
0
10
-25.267159506776615
20
49.258762703277142
30
0
0
SPLINE
5
244
100
AcDbEntity
8
0
100
AcDbSpline
70
0
71
2
72
6
73
3
74
0
42
0.000000001
43
0.0000000001
44
0.0000000001
40
0
40
0
40
0
40
1
40
1
40
1
10
-25.267159506776615
20
49.258762703277142
30
0
10
-24.75822167107502
20
49.682421789504559
30
0
10
-23.740336462945137
20
49.682421789504559
30
0
0
LINE
5
245
100
AcDbEntity
8
0
100
AcDbLine
10
-23.740336462945137
20
49.682421789504559
30
0
11
-22.309801146477852
21
49.682421789504559
31
0
0
LINE
5
246
100
AcDbEntity
8
0
100
AcDbLine
10
-22.309801146477852
20
49.682421789504559
30
0
11
-22.232772871964062
21
48.532490239478619
31
0
0
LINE
5
247
100
AcDbEntity
8
0
100
AcDbLine
10
-22.232772871964062
20
48.532490239478619
30
0
11
-23.734833762161813
21
48.532490239478619
31
0
0
SPLINE
5
248
100
AcDbEntity
8
0
100
AcDbSpline
70
0
71
2
72
6
73
3
74
0
42
0.000000001
43
0.0000000001
44
0.0000000001
40
0
40
0
40
0
40
1
40
1
40
1
10
-23.734833762161813
20
48.532490239478619
30
0
10
-24.075963065140328
20
48.532490239478619
30
0
10
-24.246527716632205
20
48.397689566947491
30
0
0
SPLINE
5
249
100
AcDbEntity
8
0
100
AcDbSpline
70
0
71
2
72
6
73
3
74
0
42
0.000000001
43
0.0000000001
44
0.0000000001
40
0
40
0
40
0
40
1
40
1
40
1
10
-24.246527716632205
20
48.397689566947491
30
0
10
-24.417092368124081
20
48.262888894416363
30
0
10
-24.417092368129431
20
47.987786040641339
30
0
0
SPLINE
5
250
100
AcDbEntity
8
0
100
AcDbSpline
70
0
71
2
72
6
73
3
74
0
42
0.000000001
43
0.0000000001
44
0.0000000001
40
0
40
0
40
0
40
1
40
1
40
1
10
-24.417092368129431
20
47.987786040641339
30
0
10
-24.417092368134881
20
47.707180486060651
30
0
10
-24.202510878574515
20
47.57238040957597
30
0
0
SPLINE
5
251
100
AcDbEntity
8
0
100
AcDbSpline
70
0
71
2
72
6
73
3
74
0
42
0.000000001
43
0.0000000001
44
0.0000000001
40
0
40
0
40
0
40
1
40
1
40
1
10
-24.202510878574515
20
47.57238040957597
30
0
10
-23.987929389014138
20
47.437579737044842
30
0
10
-23.553268477454079
20
47.437579737044842
30
0
0
SPLINE
5
252
100
AcDbEntity
8
0
100
AcDbSpline
70
0
71
2
72
6
73
3
74
0
42
0.000000001
43
0.0000000001
44
0.0000000001
40
0
40
0
40
0
40
1
40
1
40
1
10
-23.553268477454079
20
47.437579737044842
30
0
10
-22.948042914404763
20
47.437579737044842
30
0
10
-22.653681799900145
20
47.575131163932355
30
0
0
SPLINE
5
253
100
AcDbEntity
8
0
100
AcDbSpline
70
0
71
2
72
6
73
3
74
0
42
0.000000001
43
0.0000000001
44
0.0000000001
40
0
40
0
40
0
40
1
40
1
40
1
10
-22.653681799900145
20
47.575131163932355
30
0
10
-22.359320685395517
20
47.712682590819867
30
0
10
-22.359320685389854
20
48.004292354918988
30
0
0
LINE
5
254
100
AcDbEntity
8
0
100
AcDbLine
10
-22.359320685389854
20
48.004292354918988
30
0
11
-22.243778273601794
21
47.173479900695355
31
0
0
SPLINE
5
255
100
AcDbEntity
8
0
100
AcDbSpline
70
0
71
2
72
6
73
3
74
0
42
0.000000001
43
0.0000000001
44
0.0000000001
40
0
40
0
40
0
40
1
40
1
40
1
10
-22.243778273601791
20
47.173479900695355
30
0
10
-22.276789710070179
20
46.865364418365033
30
0
10
-22.527133986502577
20
46.65078412089494
30
0
0
SPLINE
5
256
100
AcDbEntity
8
0
100
AcDbSpline
70
0
71
2
72
6
73
3
74
0
42
0.000000001
43
0.0000000001
44
0.0000000001
40
0
40
0
40
0
40
1
40
1
40
1
10
-22.527133986502577
20
46.65078412089494
30
0
10
-22.777478262934963
20
46.436203823424847
30
0
10
-23.154370352780802
20
46.328914270736249
30
0
0
SPLINE
5
257
100
AcDbEntity
8
0
100
AcDbSpline
70
0
71
2
72
6
73
3
74
0
42
0.000000001
43
0.0000000001
44
0.0000000001
40
0
40
0
40
0
40
1
40
1
40
1
10
-23.154370352780802
20
46.328914270736249
30
0
10
-23.53126244262663
20
46.221623525954755
30
0
10
-23.949420020141279
20
46.221623525954755
30
0
0
SPLINE
5
258
100
AcDbEntity
8
0
100
AcDbSpline
70
0
71
2
72
6
73
3
74
0
42
0.000000001
43
0.0000000001
44
0.0000000001
40
0
40
0
40
0
40
1
40
1
40
1
10
-17.08834366516081
20
46.221623525954769
30
0
10
-17.902648016967451
20
46.221623525954769
30
0
10
-18.483116194756821
20
46.532490358687923
30
0
0
SPLINE
5
259
100
AcDbEntity
8
0
100
AcDbSpline
70
0
71
2
72
6
73
3
74
0
42
0.000000001
43
0.0000000001
44
0.0000000001
40
0
40
0
40
0
40
1
40
1
40
1
10
-18.483116194756821
20
46.532490358687923
30
0
10
-19.063584372546192
20
46.843357191421063
30
0
10
-19.366194769873513
20
47.437579737044842
30
0
0
SPLINE
5
260
100
AcDbEntity
8
0
100
AcDbSpline
70
0
71
2
72
6
73
3
74
0
42
0.000000001
43
0.0000000001
44
0.0000000001
40
0
40
0
40
0
40
1
40
1
40
1
10
-19.366194769873513
20
47.437579737044842
30
0
10
-19.668809935572426
20
48.031802282668636
30
0
10
-19.668809935556169
20
48.868116245605037
30
0
0
LINE
5
261
100
AcDbEntity
8
0
100
AcDbLine
10
-19.668809935556169
20
48.868116245605037
30
0
11
-19.668809935544303
21
49.478845105506466
31
0
0
SPLINE
5
262
100
AcDbEntity
8
0
100
AcDbSpline
70
0
71
2
72
6
73
3
74
0
42
0.000000001
43
0.0000000001
44
0.0000000001
40
0
40
0
40
0
40
1
40
1
40
1
10
-19.668809935544303
20
49.478845105506466
30
0
10
-19.668809935528166
20
50.309656963683651
30
0
10
-19.366194769806331
20
50.895626650191829
30
0
0
SPLINE
5
263
100
AcDbEntity
8
0
100
AcDbSpline
70
0
71
2
72
6
73
3
74
0
42
0.000000001
43
0.0000000001
44
0.0000000001
40
0
40
0
40
0
40
1
40
1
40
1
10
-19.366194769806331
20
50.895626650191829
30
0
10
-19.063584372456077
20
51.481596336700008
30
0
10
-18.483116194654681
20
51.78971181903033
30
0
0
SPLINE
5
264
100
AcDbEntity
8
0
100
AcDbSpline
70
0
71
2
72
6
73
3
74
0
42
0.000000001
43
0.0000000001
44
0.0000000001
40
0
40
0
40
0
40
1
40
1
40
1
10
-18.483116194654681
20
51.78971181903033
30
0
10
-17.902648016853284
20
52.097827301360653
30
0
10
-17.088343665046644
20
52.097827301360653
30
0
0
SPLINE
5
265
100
AcDbEntity
8
0
100
AcDbSpline
70
0
71
2
72
6
73
3
74
0
42
0.000000001
43
0.0000000001
44
0.0000000001
40
0
40
0
40
0
40
1
40
1
40
1
10
-17.088343665046644
20
52.097827301360653
30
0
10
-16.620666548652601
20
52.097827301360653
30
0
10
-16.205260321542873
20
51.990537152625606
30
0
0
SPLINE
5
266
100
AcDbEntity
8
0
100
AcDbSpline
70
0
71
2
72
6
73
3
74
0
42
0.000000001
43
0.0000000001
44
0.0000000001
40
0
40
0
40
0
40
1
40
1
40
1
10
-16.205260321542873
20
51.990537152625606
30
0
10
-15.789854094433142
20
51.88324700389056
30
0
10
-15.459730193069907
20
51.679670319892452
30
0
0
SPLINE
5
267
100
AcDbEntity
8
0
100
AcDbSpline
70
0
71
2
72
6
73
3
74
0
42
0.000000001
43
0.0000000001
44
0.0000000001
40
0
40
0
40
0
40
1
40
1
40
1
10
-15.459730193069907
20
51.679670319892452
30
0
10
-15.129606291706672
20
51.476094231940792
30
0
10
-14.909526869715268
20
51.184485063888118
30
0
0
LINE
5
268
100
AcDbEntity
8
0
100
AcDbLine
10
-14.909526869715268
20
51.184485063888118
30
0
11
-15.883390471418226
21
50.238130197860286
31
0
0
SPLINE
5
269
100
AcDbEntity
8
0
100
AcDbSpline
70
0
71
2
72
6
73
3
74
0
42
0.000000001
43
0.0000000001
44
0.0000000001
40
0
40
0
40
0
40
1
40
1
40
1
10
-15.883390471418224
20
50.238130197860286
30
0
10
-16.092469260171811
20
50.430702076293514
30
0
10
-16.373073622657515
20
50.53799222502856
30
0
0
SPLINE
5
270
100
AcDbEntity
8
0
100
AcDbSpline
70
0
71
2
72
6
73
3
74
0
42
0.000000001
43
0.0000000001
44
0.0000000001
40
0
40
0
40
0
40
1
40
1
40
1
10
-16.373073622657515
20
50.53799222502856
30
0
10
-16.653677985143229
20
50.645282373763607
30
0
10
-16.961795851659343
20
50.645282373763607
30
0
0
SPLINE
5
271
100
AcDbEntity
8
0
100
AcDbSpline
70
0
71
2
72
6
73
3
74
0
42
0.000000001
43
0.0000000001
44
0.0000000001
40
0
40
0
40
0
40
1
40
1
40
1
10
-16.961795851659343
20
50.645282373763607
30
0
10
-17.534009978246257
20
50.645282373763607
30
0
10
-17.847625777202385
20
50.339918241836116
30
0
0
SPLINE
5
272
100
AcDbEntity
8
0
100
AcDbSpline
70
0
71
2
72
6
73
3
74
0
42
0.000000001
43
0.0000000001
44
0.0000000001
40
0
40
0
40
0
40
1
40
1
40
1
10
-17.847625777202385
20
50.339918241836116
30
0
10
-18.161246344530095
20
50.034553513862178
30
0
10
-18.161246344540885
20
49.478845105506466
30
0
0
LINE
5
273
100
AcDbEntity
8
0
100
AcDbLine
10
-18.161246344540885
20
49.478845105506466
30
0
11
-18.161246344552751
21
48.868116245605037
31
0
0
SPLINE
5
274
100
AcDbEntity
8
0
100
AcDbSpline
70
0
71
2
72
6
73
3
74
0
42
0.000000001
43
0.0000000001
44
0.0000000001
40
0
40
0
40
0
40
1
40
1
40
1
10
-18.161246344552751
20
48.868116245605037
30
0
10
-18.161246344563871
20
48.295901522971675
30
0
10
-17.847625777248133
20
47.985034690238521
30
0
0
SPLINE
5
275
100
AcDbEntity
8
0
100
AcDbSpline
70
0
71
2
72
6
73
3
74
0
42
0.000000001
43
0.0000000001
44
0.0000000001
40
0
40
0
40
0
40
1
40
1
40
1
10
-17.847625777248133
20
47.985034690238521
30
0
10
-17.534009978303978
20
47.674168453551815
30
0
10
-16.961795851717063
20
47.674168453551815
30
0
0
SPLINE
5
276
100
AcDbEntity
8
0
100
AcDbSpline
70
0
71
2
72
6
73
3
74
0
42
0.000000001
43
0.0000000001
44
0.0000000001
40
0
40
0
40
0
40
1
40
1
40
1
10
-16.961795851717063
20
47.674168453551815
30
0
10
-16.648175284395286
20
47.674168453551815
30
0
10
-16.367570921905248
20
47.789711461402462
30
0
0
SPLINE
5
277
100
AcDbEntity
8
0
100
AcDbSpline
70
0
71
2
72
6
73
3
74
0
42
0.000000001
43
0.0000000001
44
0.0000000001
40
0
40
0
40
0
40
1
40
1
40
1
10
-16.367570921905248
20
47.789711461402462
30
0
10
-16.08696655941521
20
47.905255065299556
30
0
10
-15.883390471459382
20
48.119835362769649
30
0
0
LINE
5
278
100
AcDbEntity
8
0
100
AcDbLine
10
-15.883390471459384
20
48.119835362769649
30
0
11
-14.909526869794266
21
47.118460045196102
31
0
0
SPLINE
5
279
100
AcDbEntity
8
0
100
AcDbSpline
70
0
71
2
72
6
73
3
74
0
42
0.000000001
43
0.0000000001
44
0.0000000001
40
0
40
0
40
0
40
1
40
1
40
1
10
-14.909526869794272
20
47.118460045196102
30
0
10
-15.135108992602557
20
46.832352981902645
30
0
10
-15.465232893973653
20
46.631527052260921
30
0
0
SPLINE
5
280
100
AcDbEntity
8
0
100
AcDbSpline
70
0
71
2
72
6
73
3
74
0
42
0.000000001
43
0.0000000001
44
0.0000000001
40
0
40
0
40
0
40
1
40
1
40
1
10
-15.465232893973653
20
46.631527052260921
30
0
10
-15.795356795344739
20
46.430702314712093
30
0
10
-16.208011672055758
20
46.326162920333431
30
0
0
SPLINE
5
281
100
AcDbEntity
8
0
100
AcDbSpline
70
0
71
2
72
6
73
3
74
0
42
0.000000001
43
0.0000000001
44
0.0000000001
40
0
40
0
40
0
40
1
40
1
40
1
10
-16.208011672055758
20
46.326162920333431
30
0
10
-16.620666548766767
20
46.221623525954769
30
0
10
-17.08834366516081
20
46.221623525954769
30
0
0
LWPOLYLINE
5
282
100
AcDbEntity
8
0
100
AcDbPolyline
90
4
70
1
43
0.0
10
-13.187381789203698
20
48.361926184035823
10
-10.524384543344143
20
52.015296326018856
10
-8.9287872761932707
20
52.015296326018856
10
-12.983805701284329
20
46.700302467681453
0
LWPOLYLINE
5
283
100
AcDbEntity
8
0
100
AcDbPolyline
90
4
70
1
43
0.0
10
-13.891646429896358
20
54.304154620505855
10
-12.38408283889294
20
54.304154620505855
10
-12.384082839048371
20
46.304154501296566
10
-13.891646430051789
20
46.304154501296566
0
LWPOLYLINE
5
284
100
AcDbEntity
8
0
100
AcDbPolyline
90
4
70
1
43
0.0
10
-11.833874747255235
20
49.25326059851794
10
-10.59040741630808
20
50.001541481353328
10
-8.6481781454448559
20
46.304154501296566
10
-10.392334029233918
20
46.304154501296566
0
LINE
5
285
100
AcDbEntity
8
0
100
AcDbLine
10
-45.702341884374633
20
36.491263257537241
30
0
11
-43.128408282995238
21
39.875032054458018
31
0
0
SPLINE
5
286
100
AcDbEntity
8
0
100
AcDbSpline
70
0
71
2
72
6
73
3
74
0
42
0.000000001
43
0.0000000001
44
0.0000000001
40
0
40
0
40
0
40
1
40
1
40
1
10
-43.128408282995238
20
39.875032054458018
30
0
10
-42.95302996039392
20
40.101991640601511
30
0
10
-42.857602924108527
20
40.341847287688609
30
0
0
SPLINE
5
287
100
AcDbEntity
8
0
100
AcDbSpline
70
0
71
2
72
6
73
3
74
0
42
0.000000001
43
0.0000000001
44
0.0000000001
40
0
40
0
40
0
40
1
40
1
40
1
10
-42.857602924108527
20
40.341847287688609
30
0
10
-42.762175887823126
20
40.581702934775706
30
0
10
-42.762175887823126
20
40.788030373130198
30
0
0
LINE
5
288
100
AcDbEntity
8
0
100
AcDbLine
10
-42.762175887823126
20
40.788030373130198
30
0
11
-42.762175887823126
21
40.798346745047922
31
0
0
SPLINE
5
289
100
AcDbEntity
8
0
100
AcDbSpline
70
0
71
2
72
6
73
3
74
0
42
0.000000001
43
0.0000000001
44
0.0000000001
40
0
40
0
40
0
40
1
40
1
40
1
10
-42.762175887823126
20
40.798346745047922
30
0
10
-42.762175887823126
20
41.102679716620798
30
0
10
-42.958189338445685
20
41.267741667304392
30
0
0
SPLINE
5
290
100
AcDbEntity
8
0
100
AcDbSpline
70
0
71
2
72
6
73
3
74
0
42
0.000000001
43
0.0000000001
44
0.0000000001
40
0
40
0
40
0
40
1
40
1
40
1
10
-42.958189338445685
20
41.267741667304392
30
0
10
-43.154198020696661
20
41.432803021941538
30
0
10
-43.515271037817023
20
41.432803021941538
30
0
0
SPLINE
5
291
100
AcDbEntity
8
0
100
AcDbSpline
70
0
71
2
72
6
73
3
74
0
42
0.000000001
43
0.0000000001
44
0.0000000001
40
0
40
0
40
0
40
1
40
1
40
1
10
-43.515271037817023
20
41.432803021941538
30
0
10
-43.866027683019659
20
41.432803021941538
30
0
10
-44.082671493291876
20
41.203264342818613
30
0
0
SPLINE
5
292
100
AcDbEntity
8
0
100
AcDbSpline
70
0
71
2
72
6
73
3
74
0
42
0.000000001
43
0.0000000001
44
0.0000000001
40
0
40
0
40
0
40
1
40
1
40
1
10
-44.082671493291876
20
41.203264342818613
30
0
10
-44.299315303564093
20
40.973725067649241
30
0
10
-44.345740169286749
20
40.550753819022532
30
0
0
LINE
5
293
100
AcDbEntity
8
0
100
AcDbLine
10
-44.345740169286756
20
40.550753819022525
30
0
11
-44.345740169286749
21
40.54559563306367
31
0
0
LINE
5
294
100
AcDbEntity
8
0
100
AcDbLine
10
-44.345740169286749
20
40.54559563306367
30
0
11
-45.795189231634161
21
40.54559563306367
31
0
0
LINE
5
295
100
AcDbEntity
8
0
100
AcDbLine
10
-45.795189231634161
20
40.54559563306367
30
0
11
-45.795189231634161
21
40.550753819022532
31
0
0
SPLINE
5
296
100
AcDbEntity
8
0
100
AcDbSpline
70
0
71
2
72
6
73
3
74
0
42
0.000000001
43
0.0000000001
44
0.0000000001
40
0
40
0
40
0
40
1
40
1
40
1
10
-45.795189231634161
20
40.550753819022532
30
0
10
-45.748766750097296
20
41.252267109427805
30
0
10
-45.457328647375128
20
41.757768737349863
30
0
0
SPLINE
5
297
100
AcDbEntity
8
0
100
AcDbSpline
70
0
71
2
72
6
73
3
74
0
42
0.000000001
43
0.0000000001
44
0.0000000001
40
0
40
0
40
0
40
1
40
1
40
1
10
-45.457328647375128
20
41.757768737349863
30
0
10
-45.16589054465296
20
42.263270961318369
30
0
10
-44.670704692602179
20
42.528917538199778
30
0
0
SPLINE
5
298
100
AcDbEntity
8
0
100
AcDbSpline
70
0
71
2
72
6
73
3
74
0
42
0.000000001
43
0.0000000001
44
0.0000000001
40
0
40
0
40
0
40
1
40
1
40
1
10
-44.670704692602179
20
42.528917538199778
30
0
10
-44.175518840551398
20
42.794564115081187
30
0
10
-43.525587409734747
20
42.794564115081187
30
0
0
SPLINE
5
299
100
AcDbEntity
8
0
100
AcDbSpline
70
0
71
2
72
6
73
3
74
0
42
0.000000001
43
0.0000000001
44
0.0000000001
40
0
40
0
40
0
40
1
40
1
40
1
10
-43.525587409734747
20
42.794564115081187
30
0
10
-42.824074119329474
20
42.794564115081187
30
0
10
-42.326310962438605
20
42.565024839911814
30
0
0
SPLINE
5
300
100
AcDbEntity
8
0
100
AcDbSpline
70
0
71
2
72
6
73
3
74
0
42
0.000000001
43
0.0000000001
44
0.0000000001
40
0
40
0
40
0
40
1
40
1
40
1
10
-42.326310962438605
20
42.565024839911814
30
0
10
-41.828545421361945
20
42.335485564742442
30
0
10
-41.56805643439295
20
41.897039758239146
30
0
0
SPLINE
5
301
100
AcDbEntity
8
0
100
AcDbSpline
70
0
71
2
72
6
73
3
74
0
42
0.000000001
43
0.0000000001
44
0.0000000001
40
0
40
0
40
0
40
1
40
1
40
1
10
-41.56805643439295
20
41.897039758239146
30
0
10
-41.307569831609747
20
41.45859395173585
30
0
10
-41.307569831609747
20
40.839612232718821
30
0
0
LINE
5
302
100
AcDbEntity
8
0
100
AcDbLine
10
-41.307569831609747
20
40.839612232718821
30
0
11
-41.307569831609747
21
40.834454046759959
31
0
0
SPLINE
5
303
100
AcDbEntity
8
0
100
AcDbSpline
70
0
71
2
72
6
73
3
74
0
42
0.000000001
43
0.0000000001
44
0.0000000001
40
0
40
0
40
0
40
1
40
1
40
1
10
-41.307569831609747
20
40.834454046759959
30
0
10
-41.307569831609747
20
40.32379363683259
30
0
10
-41.485525459051146
20
39.820870505843516
30
0
0
SPLINE
5
304
100
AcDbEntity
8
0
100
AcDbSpline
70
0
71
2
72
6
73
3
74
0
42
0.000000001
43
0.0000000001
44
0.0000000001
40
0
40
0
40
0
40
1
40
1
40
1
10
-41.485525459051146
20
39.820870505843516
30
0
10
-41.663483470678344
20
39.317947970900889
30
0
10
-41.983291000127807
20
38.910451280150767
30
0
0
LINE
5
305
100
AcDbEntity
8
0
100
AcDbLine
10
-41.983291000127807
20
38.910451280150767
30
0
11
-43.829921573400512
21
36.5789524188379
31
0
0
LINE
5
306
100
AcDbEntity
8
0
100
AcDbLine
10
-43.829921573400512
20
36.5789524188379
30
0
11
-41.266304343938842
21
36.5789524188379
31
0
0
LINE
5
307
100
AcDbEntity
8
0
100
AcDbLine
10
-41.266304343938842
20
36.5789524188379
30
0
11
-41.266304343938842
21
35.217191325698252
31
0
0
LINE
5
308
100
AcDbEntity
8
0
100
AcDbLine
10
-41.266304343938842
20
35.217191325698252
30
0
11
-45.702341884374633
21
35.217191325698252
31
0
0
LINE
5
309
100
AcDbEntity
8
0
100
AcDbLine
10
-45.702341884374633
20
35.217191325698252
30
0
11
-45.702341884374633
21
36.491263257537241
31
0
0
SPLINE
5
310
100
AcDbEntity
8
0
100
AcDbSpline
70
0
71
2
72
6
73
3
74
0
42
0.000000001
43
0.0000000001
44
0.0000000001
40
0
40
0
40
0
40
1
40
1
40
1
10
-37.887693732976928
20
35.139818536315317
30
0
10
-38.986386150121703
20
35.139818536315317
30
0
10
-39.558943599462523
20
35.704639302764292
30
0
0
SPLINE
5
311
100
AcDbEntity
8
0
100
AcDbSpline
70
0
71
2
72
6
73
3
74
0
42
0.000000001
43
0.0000000001
44
0.0000000001
40
0
40
0
40
0
40
1
40
1
40
1
10
-39.558943599462523
20
35.704639302764292
30
0
10
-40.131503432989135
20
36.269461261306162
30
0
10
-40.131503432989135
20
37.270148145232554
30
0
0
LINE
5
312
100
AcDbEntity
8
0
100
AcDbLine
10
-40.131503432989135
20
37.270148145232554
30
0
11
-40.131503432989135
21
40.679708467994089
31
0
0
SPLINE
5
313
100
AcDbEntity
8
0
100
AcDbSpline
70
0
71
2
72
6
73
3
74
0
42
0.000000001
43
0.0000000001
44
0.0000000001
40
0
40
0
40
0
40
1
40
1
40
1
10
-40.131503432989142
20
40.679708467994089
30
0
10
-40.131503432989142
20
41.690712319884653
30
0
10
-39.556366294622435
20
42.250375496421213
30
0
0
SPLINE
5
314
100
AcDbEntity
8
0
100
AcDbSpline
70
0
71
2
72
6
73
3
74
0
42
0.000000001
43
0.0000000001
44
0.0000000001
40
0
40
0
40
0
40
1
40
1
40
1
10
-39.556366294622435
20
42.250375496421213
30
0
10
-38.981229156255736
20
42.810038672957774
30
0
10
-37.887693732976928
20
42.810038672957774
30
0
0
SPLINE
5
315
100
AcDbEntity
8
0
100
AcDbSpline
70
0
71
2
72
6
73
3
74
0
42
0.000000001
43
0.0000000001
44
0.0000000001
40
0
40
0
40
0
40
1
40
1
40
1
10
-37.887693732976928
20
42.810038672957774
30
0
10
-36.788998931646361
20
42.810038672957774
30
0
10
-36.216441482305541
20
42.252954589400645
30
0
0
SPLINE
5
316
100
AcDbEntity
8
0
100
AcDbSpline
70
0
71
2
72
6
73
3
74
0
42
0.000000001
43
0.0000000001
44
0.0000000001
40
0
40
0
40
0
40
1
40
1
40
1
10
-36.216441482305541
20
42.252954589400645
30
0
10
-35.643884032964721
20
41.695870505843516
30
0
10
-35.643884032964721
20
40.679708467994089
30
0
0
LINE
5
317
100
AcDbEntity
8
0
100
AcDbLine
10
-35.643884032964721
20
40.679708467994104
30
0
11
-35.643884032964721
21
37.270148145232554
31
0
0
SPLINE
5
318
100
AcDbEntity
8
0
100
AcDbSpline
70
0
71
2
72
6
73
3
74
0
42
0.000000001
43
0.0000000001
44
0.0000000001
40
0
40
0
40
0
40
1
40
1
40
1
10
-35.643884032964721
20
37.270148145232554
30
0
10
-35.643884032964721
20
36.259144889388438
30
0
10
-36.21902117133142
20
35.69948111680543
30
0
0
SPLINE
5
319
100
AcDbEntity
8
0
100
AcDbSpline
70
0
71
2
72
6
73
3
74
0
42
0.000000001
43
0.0000000001
44
0.0000000001
40
0
40
0
40
0
40
1
40
1
40
1
10
-36.21902117133142
20
35.69948111680543
30
0
10
-36.794158309698119
20
35.139818536315317
30
0
10
-37.887693732976928
20
35.139818536315317
30
0
0
SPLINE
5
320
100
AcDbEntity
8
0
100
AcDbSpline
70
0
71
2
72
6
73
3
74
0
42
0.000000001
43
0.0000000001
44
0.0000000001
40
0
40
0
40
0
40
1
40
1
40
1
10
-37.887693732976928
20
36.501579629454966
30
0
10
-37.459563106298461
20
36.501579629454966
30
0
10
-37.258392661809935
20
36.793016540084238
30
0
0
SPLINE
5
321
100
AcDbEntity
8
0
100
AcDbSpline
70
0
71
2
72
6
73
3
74
0
42
0.000000001
43
0.0000000001
44
0.0000000001
40
0
40
0
40
0
40
1
40
1
40
1
10
-37.258392661809935
20
36.793016540084238
30
0
10
-37.057224601507201
20
37.084454642806406
30
0
10
-37.057224601507201
20
37.631221162352915
30
0
0
LINE
5
322
100
AcDbEntity
8
0
100
AcDbLine
10
-37.057224601507201
20
37.631221162352922
30
0
11
-37.057224601507201
21
40.318635450873728
31
0
0
SPLINE
5
323
100
AcDbEntity
8
0
100
AcDbSpline
70
0
71
2
72
6
73
3
74
0
42
0.000000001
43
0.0000000001
44
0.0000000001
40
0
40
0
40
0
40
1
40
1
40
1
10
-37.057224601507201
20
40.318635450873728
30
0
10
-37.057224601507201
20
40.865403162513132
30
0
10
-37.258392661809935
20
41.156840669188853
30
0
0
SPLINE
5
324
100
AcDbEntity
8
0
100
AcDbSpline
70
0
71
2
72
6
73
3
74
0
42
0.000000001
43
0.0000000001
44
0.0000000001
40
0
40
0
40
0
40
1
40
1
40
1
10
-37.258392661809935
20
41.156840669188853
30
0
10
-37.459563106298461
20
41.448277579818125
30
0
10
-37.887693732976928
20
41.448277579818125
30
0
0
SPLINE
5
325
100
AcDbEntity
8
0
100
AcDbSpline
70
0
71
2
72
6
73
3
74
0
42
0.000000001
43
0.0000000001
44
0.0000000001
40
0
40
0
40
0
40
1
40
1
40
1
10
-37.887693732976928
20
41.448277579818125
30
0
10
-38.315821975469603
20
41.448277579818125
30
0
10
-38.516990035772338
20
41.156840669188853
30
0
0
SPLINE
5
326
100
AcDbEntity
8
0
100
AcDbSpline
70
0
71
2
72
6
73
3
74
0
42
0.000000001
43
0.0000000001
44
0.0000000001
40
0
40
0
40
0
40
1
40
1
40
1
10
-38.516990035772338
20
41.156840669188853
30
0
10
-38.718160480260863
20
40.865403162513132
30
0
10
-38.718160480260863
20
40.318635450873728
30
0
0
LINE
5
327
100
AcDbEntity
8
0
100
AcDbLine
10
-38.718160480260863
20
40.318635450873728
30
0
11
-38.718160480260863
21
37.631221162352915
31
0
0
SPLINE
5
328
100
AcDbEntity
8
0
100
AcDbSpline
70
0
71
2
72
6
73
3
74
0
42
0.000000001
43
0.0000000001
44
0.0000000001
40
0
40
0
40
0
40
1
40
1
40
1
10
-38.718160480260863
20
37.631221162352915
30
0
10
-38.718160480260863
20
37.084454642806406
30
0
10
-38.516990035772338
20
36.793016540084238
30
0
0
SPLINE
5
329
100
AcDbEntity
8
0
100
AcDbSpline
70
0
71
2
72
6
73
3
74
0
42
0.000000001
43
0.0000000001
44
0.0000000001
40
0
40
0
40
0
40
1
40
1
40
1
10
-38.516990035772338
20
36.793016540084238
30
0
10
-38.315821975469603
20
36.501579629454966
30
0
10
-37.887693732976928
20
36.501579629454966
30
0
0
LINE
5
330
100
AcDbEntity
8
0
100
AcDbLine
10
-34.416233390569701
20
36.491263257537241
30
0
11
-31.842299789190307
21
39.875032054458018
31
0
0
SPLINE
5
331
100
AcDbEntity
8
0
100
AcDbSpline
70
0
71
2
72
6
73
3
74
0
42
0.000000001
43
0.0000000001
44
0.0000000001
40
0
40
0
40
0
40
1
40
1
40
1
10
-31.842299789190307
20
39.875032054458018
30
0
10
-31.666923850774779
20
40.101991640601511
30
0
10
-31.571494430303591
20
40.341847287688609
30
0
0
SPLINE
5
332
100
AcDbEntity
8
0
100
AcDbSpline
70
0
71
2
72
6
73
3
74
0
42
0.000000001
43
0.0000000001
44
0.0000000001
40
0
40
0
40
0
40
1
40
1
40
1
10
-31.571494430303591
20
40.341847287688609
30
0
10
-31.476069778203982
20
40.581702934775706
30
0
10
-31.476069778203982
20
40.788030373130198
30
0
0
LINE
5
333
100
AcDbEntity
8
0
100
AcDbLine
10
-31.476069778203982
20
40.788030373130198
30
0
11
-31.476069778203982
21
40.798346745047922
31
0
0
SPLINE
5
334
100
AcDbEntity
8
0
100
AcDbSpline
70
0
71
2
72
6
73
3
74
0
42
0.000000001
43
0.0000000001
44
0.0000000001
40
0
40
0
40
0
40
1
40
1
40
1
10
-31.476069778203982
20
40.798346745047922
30
0
10
-31.476069778203982
20
41.102679716620798
30
0
10
-31.67208084464075
20
41.267741667304392
30
0
0
SPLINE
5
335
100
AcDbEntity
8
0
100
AcDbSpline
70
0
71
2
72
6
73
3
74
0
42
0.000000001
43
0.0000000001
44
0.0000000001
40
0
40
0
40
0
40
1
40
1
40
1
10
-31.67208084464075
20
41.267741667304392
30
0
10
-31.868091911077517
20
41.432803021941538
30
0
10
-32.229164928197875
20
41.432803021941538
30
0
0
SPLINE
5
336
100
AcDbEntity
8
0
100
AcDbSpline
70
0
71
2
72
6
73
3
74
0
42
0.000000001
43
0.0000000001
44
0.0000000001
40
0
40
0
40
0
40
1
40
1
40
1
10
-32.229164928197875
20
41.432803021941538
30
0
10
-32.579921573400512
20
41.432803021941538
30
0
10
-32.796565383672728
20
41.203264342818613
30
0
0
SPLINE
5
337
100
AcDbEntity
8
0
100
AcDbSpline
70
0
71
2
72
6
73
3
74
0
42
0.000000001
43
0.0000000001
44
0.0000000001
40
0
40
0
40
0
40
1
40
1
40
1
10
-32.796565383672728
20
41.203264342818613
30
0
10
-33.013206809759154
20
40.973725067649241
30
0
10
-33.05963167548181
20
40.550753819022532
30
0
0
LINE
5
338
100
AcDbEntity
8
0
100
AcDbLine
10
-33.05963167548181
20
40.550753819022525
30
0
11
-33.05963167548181
21
40.54559563306367
31
0
0
LINE
5
339
100
AcDbEntity
8
0
100
AcDbLine
10
-33.05963167548181
20
40.54559563306367
30
0
11
-34.509083122015014
21
40.54559563306367
31
0
0
LINE
5
340
100
AcDbEntity
8
0
100
AcDbLine
10
-34.509083122015014
20
40.54559563306367
30
0
11
-34.509083122015014
21
40.550753819022532
31
0
0
SPLINE
5
341
100
AcDbEntity
8
0
100
AcDbSpline
70
0
71
2
72
6
73
3
74
0
42
0.000000001
43
0.0000000001
44
0.0000000001
40
0
40
0
40
0
40
1
40
1
40
1
10
-34.509083122015014
20
40.550753819022532
30
0
10
-34.462658256292357
20
41.252267109427805
30
0
10
-34.171220153570189
20
41.757768737349863
30
0
0
SPLINE
5
342
100
AcDbEntity
8
0
100
AcDbSpline
70
0
71
2
72
6
73
3
74
0
42
0.000000001
43
0.0000000001
44
0.0000000001
40
0
40
0
40
0
40
1
40
1
40
1
10
-34.171220153570189
20
41.757768737349863
30
0
10
-33.879782050848021
20
42.263270961318369
30
0
10
-33.38459619879724
20
42.528917538199778
30
0
0
SPLINE
5
343
100
AcDbEntity
8
0
100
AcDbSpline
70
0
71
2
72
6
73
3
74
0
42
0.000000001
43
0.0000000001
44
0.0000000001
40
0
40
0
40
0
40
1
40
1
40
1
10
-33.38459619879724
20
42.528917538199778
30
0
10
-32.88941273093225
20
42.794564115081187
30
0
10
-32.2394813001156
20
42.794564115081187
30
0
0
SPLINE
5
344
100
AcDbEntity
8
0
100
AcDbSpline
70
0
71
2
72
6
73
3
74
0
42
0.000000001
43
0.0000000001
44
0.0000000001
40
0
40
0
40
0
40
1
40
1
40
1
10
-32.2394813001156
20
42.794564115081187
30
0
10
-31.53796800971033
20
42.794564115081187
30
0
10
-31.040202468633669
20
42.565024839911814
30
0
0
SPLINE
5
345
100
AcDbEntity
8
0
100
AcDbSpline
70
0
71
2
72
6
73
3
74
0
42
0.000000001
43
0.0000000001
44
0.0000000001
40
0
40
0
40
0
40
1
40
1
40
1
10
-31.040202468633669
20
42.565024839911814
30
0
10
-30.542436927557009
20
42.335485564742442
30
0
10
-30.281950324773806
20
41.897039758239146
30
0
0
SPLINE
5
346
100
AcDbEntity
8
0
100
AcDbSpline
70
0
71
2
72
6
73
3
74
0
42
0.000000001
43
0.0000000001
44
0.0000000001
40
0
40
0
40
0
40
1
40
1
40
1
10
-30.281950324773806
20
41.897039758239146
30
0
10
-30.021461337804812
20
41.45859395173585
30
0
10
-30.021461337804812
20
40.839612232718821
30
0
0
LINE
5
347
100
AcDbEntity
8
0
100
AcDbLine
10
-30.021461337804812
20
40.839612232718821
30
0
11
-30.021461337804812
21
40.834454046759959
31
0
0
SPLINE
5
348
100
AcDbEntity
8
0
100
AcDbSpline
70
0
71
2
72
6
73
3
74
0
42
0.000000001
43
0.0000000001
44
0.0000000001
40
0
40
0
40
0
40
1
40
1
40
1
10
-30.021461337804812
20
40.834454046759959
30
0
10
-30.021461337804812
20
40.32379363683259
30
0
10
-30.199419349432006
20
39.820870505843516
30
0
0
SPLINE
5
349
100
AcDbEntity
8
0
100
AcDbSpline
70
0
71
2
72
6
73
3
74
0
42
0.000000001
43
0.0000000001
44
0.0000000001
40
0
40
0
40
0
40
1
40
1
40
1
10
-30.199419349432006
20
39.820870505843516
30
0
10
-30.377374976873412
20
39.317947970900889
30
0
10
-30.697184890508666
20
38.910451280150767
30
0
0
LINE
5
350
100
AcDbEntity
8
0
100
AcDbLine
10
-30.697184890508669
20
38.910451280150767
30
0
11
-32.54381307959558
21
36.5789524188379
31
0
0
LINE
5
351
100
AcDbEntity
8
0
100
AcDbLine
10
-32.54381307959558
20
36.5789524188379
30
0
11
-29.98019585013391
21
36.5789524188379
31
0
0
LINE
5
352
100
AcDbEntity
8
0
100
AcDbLine
10
-29.98019585013391
20
36.5789524188379
30
0
11
-29.98019585013391
21
35.217191325698252
31
0
0
LINE
5
353
100
AcDbEntity
8
0
100
AcDbLine
10
-29.98019585013391
20
35.217191325698252
30
0
11
-34.416233390569701
21
35.217191325698252
31
0
0
LINE
5
354
100
AcDbEntity
8
0
100
AcDbLine
10
-34.416233390569701
20
35.217191325698252
30
0
11
-34.416233390569701
21
36.491263257537241
31
0
0
SPLINE
5
355
100
AcDbEntity
8
0
100
AcDbSpline
70
0
71
2
72
6
73
3
74
0
42
0.000000001
43
0.0000000001
44
0.0000000001
40
0
40
0
40
0
40
1
40
1
40
1
10
-26.751176208257689
20
35.139818536315317
30
0
10
-27.432051986455932
20
35.139818536315317
30
0
10
-27.963343948125853
20
35.387411462340708
30
0
0
SPLINE
5
356
100
AcDbEntity
8
0
100
AcDbSpline
70
0
71
2
72
6
73
3
74
0
42
0.000000001
43
0.0000000001
44
0.0000000001
40
0
40
0
40
0
40
1
40
1
40
1
10
-27.963343948125853
20
35.387411462340708
30
0
10
-28.494640678167357
20
35.635004388366099
30
0
10
-28.809291213750853
20
36.109557496581431
30
0
0
SPLINE
5
357
100
AcDbEntity
8
0
100
AcDbSpline
70
0
71
2
72
6
73
3
74
0
42
0.000000001
43
0.0000000001
44
0.0000000001
40
0
40
0
40
0
40
1
40
1
40
1
10
-28.809291213750853
20
36.109557496581431
30
0
10
-29.123936980962768
20
36.584110604796763
30
0
10
-29.154888480901732
20
37.23919902947938
30
0
0
LINE
5
358
100
AcDbEntity
8
0
100
AcDbLine
10
-29.154888480901732
20
37.23919902947938
30
0
11
-27.695123046636596
21
37.23919902947938
31
0
0
SPLINE
5
359
100
AcDbEntity
8
0
100
AcDbSpline
70
0
71
2
72
6
73
3
74
0
42
0.000000001
43
0.0000000001
44
0.0000000001
40
0
40
0
40
0
40
1
40
1
40
1
10
-27.695123046636596
20
37.23919902947938
30
0
10
-27.664171546697631
20
37.007080661330576
30
0
10
-27.558428138494506
20
36.844598399672861
30
0
0
SPLINE
5
360
100
AcDbEntity
8
0
100
AcDbSpline
70
0
71
2
72
6
73
3
74
0
42
0.000000001
43
0.0000000001
44
0.0000000001
40
0
40
0
40
0
40
1
40
1
40
1
10
-27.558428138494506
20
36.844598399672861
30
0
10
-27.452689498662963
20
36.682116138015147
30
0
10
-27.287627547979369
20
36.597005473647471
30
0
0
SPLINE
5
361
100
AcDbEntity
8
0
100
AcDbSpline
70
0
71
2
72
6
73
3
74
0
42
0.000000001
43
0.0000000001
44
0.0000000001
40
0
40
0
40
0
40
1
40
1
40
1
10
-27.287627547979369
20
36.597005473647471
30
0
10
-27.122565597295775
20
36.511896001372691
30
0
10
-26.905919402837768
20
36.511896001372691
30
0
0
SPLINE
5
362
100
AcDbEntity
8
0
100
AcDbSpline
70
0
71
2
72
6
73
3
74
0
42
0.000000001
43
0.0000000001
44
0.0000000001
40
0
40
0
40
0
40
1
40
1
40
1
10
-26.905919402837768
20
36.511896001372691
30
0
10
-26.503583282232299
20
36.511896001372691
30
0
10
-26.284357398748412
20
36.736276494536753
30
0
0
SPLINE
5
363
100
AcDbEntity
8
0
100
AcDbSpline
70
0
71
2
72
6
73
3
74
0
42
0.000000001
43
0.0000000001
44
0.0000000001
40
0
40
0
40
0
40
1
40
1
40
1
10
-26.284357398748412
20
36.736276494536753
30
0
10
-26.065131515264525
20
36.960658179793711
30
0
10
-26.065131515264525
20
37.368153678450938
30
0
0
LINE
5
364
100
AcDbEntity
8
0
100
AcDbLine
10
-26.065131515264525
20
37.368153678450938
30
0
11
-26.065131515264525
21
37.543532001052256
31
0
0
SPLINE
5
365
100
AcDbEntity
8
0
100
AcDbSpline
70
0
71
2
72
6
73
3
74
0
42
0.000000001
43
0.0000000001
44
0.0000000001
40
0
40
0
40
0
40
1
40
1
40
1
10
-26.065131515264525
20
37.543532001052256
30
0
10
-26.065131515264525
20
37.971661435637827
30
0
10
-26.243091911077514
20
38.203779803786631
30
0
0
SPLINE
5
366
100
AcDbEntity
8
0
100
AcDbSpline
70
0
71
2
72
6
73
3
74
0
42
0.000000001
43
0.0000000001
44
0.0000000001
40
0
40
0
40
0
40
1
40
1
40
1
10
-26.243091911077514
20
38.203779803786631
30
0
10
-26.421052306890502
20
38.435898171935435
30
0
10
-26.751176208257689
20
38.435898171935435
30
0
0
LINE
5
367
100
AcDbEntity
8
0
100
AcDbLine
10
-26.751176208257689
20
38.435898171935435
30
0
11
-27.385627120733275
21
38.435898171935435
31
0
0
LINE
5
368
100
AcDbEntity
8
0
100
AcDbLine
10
-27.385627120733275
20
38.435898171935435
30
0
11
-27.385627120733275
21
39.797659265075083
31
0
0
LINE
5
369
100
AcDbEntity
8
0
100
AcDbLine
10
-27.385627120733275
20
39.797659265075083
30
0
11
-26.751176208257689
21
39.797659265075083
31
0
0
SPLINE
5
370
100
AcDbEntity
8
0
100
AcDbSpline
70
0
71
2
72
6
73
3
74
0
42
0.000000001
43
0.0000000001
44
0.0000000001
40
0
40
0
40
0
40
1
40
1
40
1
10
-26.751176208257689
20
39.797659265075083
30
0
10
-26.482945770025268
20
39.797659265075083
30
0
10
-26.335936874151244
20
40.001407014403696
30
0
0
SPLINE
5
371
100
AcDbEntity
8
0
100
AcDbSpline
70
0
71
2
72
6
73
3
74
0
42
0.000000001
43
0.0000000001
44
0.0000000001
40
0
40
0
40
0
40
1
40
1
40
1
10
-26.335936874151244
20
40.001407014403696
30
0
10
-26.188927978277221
20
40.205155359778757
30
0
10
-26.188927978277221
20
40.571386562857981
30
0
0
LINE
5
372
100
AcDbEntity
8
0
100
AcDbLine
10
-26.188927978277221
20
40.571386562857981
30
0
11
-26.188927978277221
21
40.700341211829539
31
0
0
SPLINE
5
373
100
AcDbEntity
8
0
100
AcDbSpline
70
0
71
2
72
6
73
3
74
0
42
0.000000001
43
0.0000000001
44
0.0000000001
40
0
40
0
40
0
40
1
40
1
40
1
10
-26.188927978277221
20
40.700341211829539
30
0
10
-26.188927978277221
20
41.045939671073313
30
0
10
-26.351415008306518
20
41.234213458571787
30
0
0
SPLINE
5
374
100
AcDbEntity
8
0
100
AcDbSpline
70
0
71
2
72
6
73
3
74
0
42
0.000000001
43
0.0000000001
44
0.0000000001
40
0
40
0
40
0
40
1
40
1
40
1
10
-26.351415008306518
20
41.234213458571787
30
0
10
-26.513897269964232
20
41.422486650023814
30
0
10
-26.807915061712279
20
41.422486650023814
30
0
0
SPLINE
5
375
100
AcDbEntity
8
0
100
AcDbSpline
70
0
71
2
72
6
73
3
74
0
42
0.000000001
43
0.0000000001
44
0.0000000001
40
0
40
0
40
0
40
1
40
1
40
1
10
-26.807915061712279
20
41.422486650023814
30
0
10
-26.99876913428308
20
41.422486650023814
30
0
10
-27.156092017889037
20
41.32448111680543
30
0
0
SPLINE
5
376
100
AcDbEntity
8
0
100
AcDbSpline
70
0
71
2
72
6
73
3
74
0
42
0.000000001
43
0.0000000001
44
0.0000000001
40
0
40
0
40
0
40
1
40
1
40
1
10
-27.156092017889037
20
41.32448111680543
30
0
10
-27.313414901494994
20
41.226476179633494
30
0
10
-27.421737998723998
20
41.040781485114451
30
0
0
SPLINE
5
377
100
AcDbEntity
8
0
100
AcDbSpline
70
0
71
2
72
6
73
3
74
0
42
0.000000001
43
0.0000000001
44
0.0000000001
40
0
40
0
40
0
40
1
40
1
40
1
10
-27.421737998723998
20
41.040781485114451
30
0
10
-27.530061095953002
20
40.855086790595408
30
0
10
-27.576485961675658
20
40.59201930669343
30
0
0
LINE
5
378
100
AcDbEntity
8
0
100
AcDbLine
10
-27.576485961675658
20
40.592019306693444
30
0
11
-29.031092017889037
21
40.59201930669343
31
0
0
SPLINE
5
379
100
AcDbEntity
8
0
100
AcDbSpline
70
0
71
2
72
6
73
3
74
0
42
0.000000001
43
0.0000000001
44
0.0000000001
40
0
40
0
40
0
40
1
40
1
40
1
10
-29.031092017889037
20
40.59201930669343
30
0
10
-28.969193786382689
20
41.278058039222117
30
0
10
-28.66228231787683
20
41.775822388205881
30
0
0
SPLINE
5
380
100
AcDbEntity
8
0
100
AcDbSpline
70
0
71
2
72
6
73
3
74
0
42
0.000000001
43
0.0000000001
44
0.0000000001
40
0
40
0
40
0
40
1
40
1
40
1
10
-28.66228231787683
20
41.775822388205881
30
0
10
-28.355370849370971
20
42.273587333236094
30
0
10
-27.860184997320189
20
42.53407572415864
30
0
0
SPLINE
5
381
100
AcDbEntity
8
0
100
AcDbSpline
70
0
71
2
72
6
73
3
74
0
42
0.000000001
43
0.0000000001
44
0.0000000001
40
0
40
0
40
0
40
1
40
1
40
1
10
-27.860184997320189
20
42.53407572415864
30
0
10
-27.364999145269408
20
42.794564115081187
30
0
10
-26.756330817937865
20
42.794564115081187
30
0
0
SPLINE
5
382
100
AcDbEntity
8
0
100
AcDbSpline
70
0
71
2
72
6
73
3
74
0
42
0.000000001
43
0.0000000001
44
0.0000000001
40
0
40
0
40
0
40
1
40
1
40
1
10
-26.756330817937865
20
42.794564115081187
30
0
10
-25.760804504156127
20
42.794564115081187
30
0
10
-25.21661409735681
20
42.28648279813325
30
0
0
SPLINE
5
383
100
AcDbEntity
8
0
100
AcDbSpline
70
0
71
2
72
6
73
3
74
0
42
0.000000001
43
0.0000000001
44
0.0000000001
40
0
40
0
40
0
40
1
40
1
40
1
10
-25.21661409735681
20
42.28648279813325
30
0
10
-24.672423690557494
20
41.778401481185313
30
0
10
-24.672423690557494
20
40.844770418677683
30
0
0
LINE
5
384
100
AcDbEntity
8
0
100
AcDbLine
10
-24.672423690557494
20
40.844770418677697
30
0
11
-24.672423690557494
21
40.617810236487742
31
0
0
SPLINE
5
385
100
AcDbEntity
8
0
100
AcDbSpline
70
0
71
2
72
6
73
3
74
0
42
0.000000001
43
0.0000000001
44
0.0000000001
40
0
40
0
40
0
40
1
40
1
40
1
10
-24.672423690557494
20
40.617810236487742
30
0
10
-24.672423690557494
20
40.096833454642649
30
0
10
-24.935494750738158
20
39.709970103774424
30
0
0
SPLINE
5
386
100
AcDbEntity
8
0
100
AcDbSpline
70
0
71
2
72
6
73
3
74
0
42
0.000000001
43
0.0000000001
44
0.0000000001
40
0
40
0
40
0
40
1
40
1
40
1
10
-24.935494750738158
20
39.709970103774424
30
0
10
-25.198556274175658
20
39.323106156859751
30
0
10
-25.683432906866088
20
39.132253276381846
30
0
0
SPLINE
5
387
100
AcDbEntity
8
0
100
AcDbSpline
70
0
71
2
72
6
73
3
74
0
42
0.000000001
43
0.0000000001
44
0.0000000001
40
0
40
0
40
0
40
1
40
1
40
1
10
-25.683432906866088
20
39.132253276381846
30
0
10
-25.14182218909265
20
39.00845681336915
30
0
10
-24.845224708318725
20
38.564852820906992
30
0
0
SPLINE
5
388
100
AcDbEntity
8
0
100
AcDbSpline
70
0
71
2
72
6
73
3
74
0
42
0.000000001
43
0.0000000001
44
0.0000000001
40
0
40
0
40
0
40
1
40
1
40
1
10
-24.845224708318725
20
38.564852820906992
30
0
10
-24.548627227544799
20
38.121248828444834
30
0
10
-24.548627227544799
20
37.435210095916148
30
0
0
LINE
5
389
100
AcDbEntity
8
0
100
AcDbLine
10
-24.548627227544799
20
37.435210095916148
30
0
11
-24.548627227544799
21
37.208249913726206
31
0
0
SPLINE
5
390
100
AcDbEntity
8
0
100
AcDbSpline
70
0
71
2
72
6
73
3
74
0
42
0.000000001
43
0.0000000001
44
0.0000000001
40
0
40
0
40
0
40
1
40
1
40
1
10
-24.548627227544799
20
37.208249913726206
30
0
10
-24.548627227544799
20
36.553161489043589
30
0
10
-24.806538909673705
20
36.088924752745982
30
0
0
SPLINE
5
391
100
AcDbEntity
8
0
100
AcDbSpline
70
0
71
2
72
6
73
3
74
0
42
0.000000001
43
0.0000000001
44
0.0000000001
40
0
40
0
40
0
40
1
40
1
40
1
10
-24.806538909673705
20
36.088924752745982
30
0
10
-25.064450591802611
20
35.624688016448374
30
0
10
-25.559636443853393
20
35.382253276381846
30
0
0
SPLINE
5
392
100
AcDbEntity
8
0
100
AcDbSpline
70
0
71
2
72
6
73
3
74
0
42
0.000000001
43
0.0000000001
44
0.0000000001
40
0
40
0
40
0
40
1
40
1
40
1
10
-25.559636443853393
20
35.382253276381846
30
0
10
-26.054822295904174
20
35.139818536315317
30
0
10
-26.751176208257689
20
35.139818536315317
30
0
0
ENDSEC
0
SECTION
2
OBJECTS
0
DICTIONARY
5
C
100
AcDbDictionary
3
ACAD_GROUP
350
D
3
ACAD_MLINESTYLE
350
17
0
DICTIONARY
5
D
100
AcDbDictionary
0
DICTIONARY
5
1A
330
C
100
AcDbDictionary
0
DICTIONARY
5
17
100
AcDbDictionary
0
ENDSEC
0
EOF
