0
SECTION
2
HEADER
9
$INSUNITS
70
4
9
$ACADVER
1
AC1014
9
$HANDSEED
5
FFFF
0
ENDSEC
0
SECTION
2
TABLES
0
TABLE
2
VPORT
5
8
100
AcDbSymbolTable
0
ENDTAB
0
TABLE
2
LTYPE
5
5
100
AcDbSymbolTable
0
LTYPE
5
14
100
AcDbSymbolTableRecord
100
AcDbLinetypeTableRecord
2
BYBLOCK
70
0
0
LTYPE
5
15
100
AcDbSymbolTableRecord
100
AcDbLinetypeTableRecord
2
BYLAYER
70
0
0
LTYPE
5
16
100
AcDbSymbolTableRecord
100
AcDbLinetypeTableRecord
2
DASHED
70
0
3
Dashed __ __ __ __ __ __ __ __ __ __ __ __ __ _
72
65
73
2
40
0.75
49
0.5
74
0
49
-0.25
74
0
0
ENDTAB
0
TABLE
2
LAYER
5
2
100
AcDbSymbolTable
70
2
0
LAYER
5
50
100
AcDbSymbolTableRecord
100
AcDbLayerTableRecord
2
0
70
0
62
7
6
CONTINUOUS
0
ENDTAB
0
TABLE
2
STYLE
5
3
100
AcDbSymbolTable
70
1
0
STYLE
5
11
100
AcDbSymbolTableRecord
100
AcDbTextStyleTableRecord
2
STANDARD
70
0
0
ENDTAB
0
TABLE
2
VIEW
5
6
100
AcDbSymbolTable
70
0
0
ENDTAB
0
TABLE
2
UCS
5
7
100
AcDbSymbolTable
70
0
0
ENDTAB
0
TABLE
2
APPID
5
9
100
AcDbSymbolTable
70
2
0
APPID
5
12
100
AcDbSymbolTableRecord
100
AcDbRegAppTableRecord
2
ACAD
70
0
0
ENDTAB
0
TABLE
2
DIMSTYLE
5
A
100
AcDbSymbolTable
70
1
0
ENDTAB
0
TABLE
2
BLOCK_RECORD
5
1
100
AcDbSymbolTable
70
1
0
BLOCK_RECORD
5
1F
100
AcDbSymbolTableRecord
100
AcDbBlockTableRecord
2
*MODEL_SPACE
0
BLOCK_RECORD
5
1B
100
AcDbSymbolTableRecord
100
AcDbBlockTableRecord
2
*PAPER_SPACE
0
ENDTAB
0
ENDSEC
0
SECTION
2
BLOCKS
0
BLOCK
5
20
100
AcDbEntity
100
AcDbBlockBegin
2
*MODEL_SPACE
0
ENDBLK
5
21
100
AcDbEntity
100
AcDbBlockEnd
0
BLOCK
5
1C
100
AcDbEntity
100
AcDbBlockBegin
2
*PAPER_SPACE
0
ENDBLK
5
1D
100
AcDbEntity
100
AcDbBlockEnd
0
ENDSEC
0
SECTION
2
ENTITIES
0
POINT
5
100
100
AcDbEntity
8
0
100
AcDbPoint
10
-69
20
61.259826320840389
30
0
0
POINT
5
101
100
AcDbEntity
8
0
100
AcDbPoint
10
-0.99999999999999645
20
1.2598263208403782
30
0
0
LWPOLYLINE
5
102
100
AcDbEntity
8
0
100
AcDbPolyline
90
4
70
1
43
0.0
10
-69
20
61.259826320840389
10
-0.99999999999999645
20
61.259826320840389
10
-0.99999999999999645
20
1.2598263208403782
10
-69
20
1.2598263208403804
0
LINE
5
103
100
AcDbEntity
8
0
100
AcDbLine
10
-0.99999999999999778
20
61.259826320840389
30
0
11
-69
21
61.259826320840389
31
0
0
SPLINE
5
104
100
AcDbEntity
8
0
100
AcDbSpline
70
0
71
2
72
6
73
3
74
0
42
0.000000001
43
0.0000000001
44
0.0000000001
40
0
40
0
40
0
40
1
40
1
40
1
10
-53.153746316732537
20
11.752522725072517
30
0
10
-53.670634219946038
20
11.752522725072513
30
0
10
-54.074008653463494
20
11.890767353978763
30
0
0
SPLINE
5
105
100
AcDbEntity
8
0
100
AcDbSpline
70
0
71
2
72
6
73
3
74
0
42
0.000000001
43
0.0000000001
44
0.0000000001
40
0
40
0
40
0
40
1
40
1
40
1
10
-54.074008653463494
20
11.890767353978763
30
0
10
-54.477384279073846
20
12.029013174977909
30
0
10
-54.758725354971062
20
12.333354491201053
30
0
0
SPLINE
5
106
100
AcDbEntity
8
0
100
AcDbSpline
70
0
71
2
72
6
73
3
74
0
42
0.000000001
43
0.0000000001
44
0.0000000001
40
0
40
0
40
0
40
1
40
1
40
1
10
-54.758725354971062
20
12.333354491201053
30
0
10
-55.040065238775384
20
12.637695807424198
30
0
10
-55.159502218069207
20
13.186175364461551
30
0
0
LINE
5
107
100
AcDbEntity
8
0
100
AcDbLine
10
-55.159502218069193
20
13.186175364461555
30
0
11
-54.416765163244378
21
13.442713755574832
31
0
0
SPLINE
5
108
100
AcDbEntity
8
0
100
AcDbSpline
70
0
71
2
72
6
73
3
74
0
42
0.000000001
43
0.0000000001
44
0.0000000001
40
0
40
0
40
0
40
1
40
1
40
1
10
-54.416765163244378
20
13.442713755574832
30
0
10
-54.264283368887078
20
12.920283812490116
30
0
10
-53.948129604162347
20
12.714179295507083
30
0
0
SPLINE
5
109
100
AcDbEntity
8
0
100
AcDbSpline
70
0
71
2
72
6
73
3
74
0
42
0.000000001
43
0.0000000001
44
0.0000000001
40
0
40
0
40
0
40
1
40
1
40
1
10
-53.948129604162347
20
12.714179295507083
30
0
10
-53.631977031530511
20
12.508074778524051
30
0
10
-53.153746316732537
20
12.508074778524055
30
0
0
SPLINE
5
110
100
AcDbEntity
8
0
100
AcDbSpline
70
0
71
2
72
6
73
3
74
0
42
0.000000001
43
0.0000000001
44
0.0000000001
40
0
40
0
40
0
40
1
40
1
40
1
10
-53.153746316732537
20
12.508074778524055
30
0
10
-52.5547625520841
20
12.508074778524055
30
0
10
-52.248655746282708
20
12.758517998662604
30
0
0
SPLINE
5
111
100
AcDbEntity
8
0
100
AcDbSpline
70
0
71
2
72
6
73
3
74
0
42
0.000000001
43
0.0000000001
44
0.0000000001
40
0
40
0
40
0
40
1
40
1
40
1
10
-52.248655746282708
20
12.758517998662604
30
0
10
-51.942547748388421
20
13.008960026708259
30
0
10
-51.942547748388421
20
13.488783377614631
30
0
0
LINE
5
112
100
AcDbEntity
8
0
100
AcDbLine
10
-51.942547748388421
20
13.488783377614631
30
0
11
-51.942547748388421
21
13.675697583165778
31
0
0
SPLINE
5
113
100
AcDbEntity
8
0
100
AcDbSpline
70
0
71
2
72
6
73
3
74
0
42
0.000000001
43
0.0000000001
44
0.0000000001
40
0
40
0
40
0
40
1
40
1
40
1
10
-51.942547748388421
20
13.675697583165778
30
0
10
-51.942547748388421
20
13.979900616613044
30
0
10
-52.09167022496618
20
14.17415811440052
30
0
0
SPLINE
5
114
100
AcDbEntity
8
0
100
AcDbSpline
70
0
71
2
72
6
73
3
74
0
42
0.000000001
43
0.0000000001
44
0.0000000001
40
0
40
0
40
0
40
1
40
1
40
1
10
-52.09167022496618
20
14.17415811440052
30
0
10
-52.240792701543938
20
14.3684144200951
30
0
10
-52.48673219472326
20
14.48823167702259
30
0
0
SPLINE
5
115
100
AcDbEntity
8
0
100
AcDbSpline
70
0
71
2
72
6
73
3
74
0
42
0.000000001
43
0.0000000001
44
0.0000000001
40
0
40
0
40
0
40
1
40
1
40
1
10
-52.48673219472326
20
14.48823167702259
30
0
10
-52.732670495809685
20
14.608050126042976
30
0
10
-53.134279439748894
20
14.738847750630988
30
0
0
SPLINE
5
116
100
AcDbEntity
8
0
100
AcDbSpline
70
0
71
2
72
6
73
3
74
0
42
0.000000001
43
0.0000000001
44
0.0000000001
40
0
40
0
40
0
40
1
40
1
40
1
10
-53.134279439748894
20
14.738847750630988
30
0
10
-53.148065994085442
20
14.743212002721442
30
0
10
-53.161089608968865
20
14.747576254811896
30
0
0
SPLINE
5
117
100
AcDbEntity
8
0
100
AcDbSpline
70
0
71
2
72
6
73
3
74
0
42
0.000000001
43
0.0000000001
44
0.0000000001
40
0
40
0
40
0
40
1
40
1
40
1
10
-53.161089608968865
20
14.747576254811896
30
0
10
-53.174114415945184
20
14.751941698995246
30
0
10
-53.187139222921502
20
14.756236809697761
30
0
0
LINE
5
118
100
AcDbEntity
8
0
100
AcDbLine
10
-53.187139222921488
20
14.756236809697761
30
0
11
-53.286969850362908
21
14.791222351995124
31
0
0
SPLINE
5
119
100
AcDbEntity
8
0
100
AcDbSpline
70
0
71
2
72
6
73
3
74
0
42
0.000000001
43
0.0000000001
44
0.0000000001
40
0
40
0
40
0
40
1
40
1
40
1
10
-53.286969850362908
20
14.791222351995124
30
0
10
-53.838981578649651
20
14.959985751119266
30
0
10
-54.180594871343743
20
15.12396766563953
30
0
0
SPLINE
5
120
100
AcDbEntity
8
0
100
AcDbSpline
70
0
71
2
72
6
73
3
74
0
42
0.000000001
43
0.0000000001
44
0.0000000001
40
0
40
0
40
0
40
1
40
1
40
1
10
-54.180594871343743
20
15.12396766563953
30
0
10
-54.522206971944939
20
15.287950772252689
30
0
10
-54.76478714734472
20
15.613629359212528
30
0
0
SPLINE
5
121
100
AcDbEntity
8
0
100
AcDbSpline
70
0
71
2
72
6
73
3
74
0
42
0.000000001
43
0.0000000001
44
0.0000000001
40
0
40
0
40
0
40
1
40
1
40
1
10
-54.76478714734472
20
15.613629359212528
30
0
10
-55.007366130651604
20
15.939307946172367
30
0
10
-55.007366130651604
20
16.479681271520267
30
0
0
LINE
5
122
100
AcDbEntity
8
0
100
AcDbLine
10
-55.007366130651604
20
16.479681271520267
30
0
11
-55.007366130651604
21
16.636182803121219
31
0
0
SPLINE
5
123
100
AcDbEntity
8
0
100
AcDbSpline
70
0
71
2
72
6
73
3
74
0
42
0.000000001
43
0.0000000001
44
0.0000000001
40
0
40
0
40
0
40
1
40
1
40
1
10
-55.007366130651604
20
16.636182803121219
30
0
10
-55.007366130651604
20
17.200872439351688
30
0
10
-54.777256439031731
20
17.589733141866336
30
0
0
SPLINE
5
124
100
AcDbEntity
8
0
100
AcDbSpline
70
0
71
2
72
6
73
3
74
0
42
0.000000001
43
0.0000000001
44
0.0000000001
40
0
40
0
40
0
40
1
40
1
40
1
10
-54.777256439031731
20
17.589733141866336
30
0
10
-54.547147939504754
20
17.978593844380985
30
0
10
-54.103453347982537
20
18.179883498159061
30
0
0
SPLINE
5
125
100
AcDbEntity
8
0
100
AcDbSpline
70
0
71
2
72
6
73
3
74
0
42
0.000000001
43
0.0000000001
44
0.0000000001
40
0
40
0
40
0
40
1
40
1
40
1
10
-54.103453347982537
20
18.179883498159061
30
0
10
-53.659757564367425
20
18.381173151937137
30
0
10
-53.032024095358025
20
18.381173151937141
30
0
0
SPLINE
5
126
100
AcDbEntity
8
0
100
AcDbSpline
70
0
71
2
72
6
73
3
74
0
42
0.000000001
43
0.0000000001
44
0.0000000001
40
0
40
0
40
0
40
1
40
1
40
1
10
-53.032024095358025
20
18.381173151937141
30
0
10
-52.54416365415014
20
18.381173151937141
30
0
10
-52.183118055166375
20
18.242303866353645
30
0
0
SPLINE
5
127
100
AcDbEntity
8
0
100
AcDbSpline
70
0
71
2
72
6
73
3
74
0
42
0.000000001
43
0.0000000001
44
0.0000000001
40
0
40
0
40
0
40
1
40
1
40
1
10
-52.183118055166375
20
18.242303866353645
30
0
10
-51.82207245618261
20
18.103434580770148
30
0
10
-51.587356517614495
20
17.815858859029426
30
0
0
SPLINE
5
128
100
AcDbEntity
8
0
100
AcDbSpline
70
0
71
2
72
6
73
3
74
0
42
0.000000001
43
0.0000000001
44
0.0000000001
40
0
40
0
40
0
40
1
40
1
40
1
10
-51.587356517614495
20
17.815858859029426
30
0
10
-51.352639386953484
20
17.528283137288703
30
0
10
-51.226067731680047
20
17.003705042806281
30
0
0
LINE
5
129
100
AcDbEntity
8
0
100
AcDbLine
10
-51.226067731680047
20
17.003705042806281
30
0
11
-51.959660241903435
21
16.751808661428107
31
0
0
SPLINE
5
130
100
AcDbEntity
8
0
100
AcDbSpline
70
0
71
2
72
6
73
3
74
0
42
0.000000001
43
0.0000000001
44
0.0000000001
40
0
40
0
40
0
40
1
40
1
40
1
10
-51.959660241903435
20
16.751808661428107
30
0
10
-52.123296449484002
20
17.244656819310798
30
0
10
-52.373287866415154
20
17.435137766805305
30
0
0
SPLINE
5
131
100
AcDbEntity
8
0
100
AcDbSpline
70
0
71
2
72
6
73
3
74
0
42
0.000000001
43
0.0000000001
44
0.0000000001
40
0
40
0
40
0
40
1
40
1
40
1
10
-52.373287866415154
20
17.435137766805305
30
0
10
-52.623279283346307
20
17.625619906392707
30
0
10
-53.032024095358025
20
17.625619906392707
30
0
0
SPLINE
5
132
100
AcDbEntity
8
0
100
AcDbSpline
70
0
71
2
72
6
73
3
74
0
42
0.000000001
43
0.0000000001
44
0.0000000001
40
0
40
0
40
0
40
1
40
1
40
1
10
-53.032024095358025
20
17.625619906392707
30
0
10
-53.61438054829992
20
17.625619906392703
30
0
10
-53.911342809499871
20
17.378155726400028
30
0
0
SPLINE
5
133
100
AcDbEntity
8
0
100
AcDbSpline
70
0
71
2
72
6
73
3
74
0
42
0.000000001
43
0.0000000001
44
0.0000000001
40
0
40
0
40
0
40
1
40
1
40
1
10
-53.911342809499871
20
17.378155726400028
30
0
10
-54.208306262792718
20
17.130693930593143
30
0
10
-54.208306262792718
20
16.6623003663689
30
0
0
LINE
5
134
100
AcDbEntity
8
0
100
AcDbLine
10
-54.208306262792718
20
16.6623003663689
30
0
11
-54.208306262792718
21
16.505800026860843
31
0
0
SPLINE
5
135
100
AcDbEntity
8
0
100
AcDbSpline
70
0
71
2
72
6
73
3
74
0
42
0.000000001
43
0.0000000001
44
0.0000000001
40
0
40
0
40
0
40
1
40
1
40
1
10
-54.208306262792718
20
16.505800026860843
30
0
10
-54.208306262792718
20
16.20132042786182
30
0
10
-54.041933009924065
20
16.013401287999759
30
0
0
SPLINE
5
136
100
AcDbEntity
8
0
100
AcDbSpline
70
0
71
2
72
6
73
3
74
0
42
0.000000001
43
0.0000000001
44
0.0000000001
40
0
40
0
40
0
40
1
40
1
40
1
10
-54.041933009924065
20
16.013401287999759
30
0
10
-53.875560949148309
20
15.825483340230594
30
0
10
-53.615869472326409
20
15.714187163320194
30
0
0
SPLINE
5
137
100
AcDbEntity
8
0
100
AcDbSpline
70
0
71
2
72
6
73
3
74
0
42
0.000000001
43
0.0000000001
44
0.0000000001
40
0
40
0
40
0
40
1
40
1
40
1
10
-53.615869472326409
20
15.714187163320194
30
0
10
-53.35617799550451
20
15.602890986409793
30
0
10
-52.88937825948156
20
15.458999413457526
30
0
0
SPLINE
5
138
100
AcDbEntity
8
0
100
AcDbSpline
70
0
71
2
72
6
73
3
74
0
42
0.000000001
43
0.0000000001
44
0.0000000001
40
0
40
0
40
0
40
1
40
1
40
1
10
-52.88937825948156
20
15.458999413457526
30
0
10
-52.871643493475091
20
15.455466050115241
30
0
10
-52.848539541067254
20
15.448849934545173
30
0
0
SPLINE
5
139
100
AcDbEntity
8
0
100
AcDbSpline
70
0
71
2
72
6
73
3
74
0
42
0.000000001
43
0.0000000001
44
0.0000000001
40
0
40
0
40
0
40
1
40
1
40
1
10
-52.848539541067254
20
15.448849934545173
30
0
10
-52.825434396566521
20
15.442233818975104
30
0
10
-52.815320680441033
20
15.435444849935188
30
0
0
SPLINE
5
140
100
AcDbEntity
8
0
100
AcDbSpline
70
0
71
2
72
6
73
3
74
0
42
0.000000001
43
0.0000000001
44
0.0000000001
40
0
40
0
40
0
40
1
40
1
40
1
10
-52.815320680441033
20
15.435444849935188
30
0
10
-52.803404519857537
20
15.433089274373664
30
0
10
-52.783451268972527
20
15.425087946859016
30
0
0
SPLINE
5
141
100
AcDbEntity
8
0
100
AcDbSpline
70
0
71
2
72
6
73
3
74
0
42
0.000000001
43
0.0000000001
44
0.0000000001
40
0
40
0
40
0
40
1
40
1
40
1
10
-52.783451268972527
20
15.425087946859016
30
0
10
-52.763500402273309
20
15.417085427251472
30
0
10
-52.742438504995476
20
15.411819952932014
30
0
0
SPLINE
5
142
100
AcDbEntity
8
0
100
AcDbSpline
70
0
71
2
72
6
73
3
74
0
42
0.000000001
43
0.0000000001
44
0.0000000001
40
0
40
0
40
0
40
1
40
1
40
1
10
-52.742438504995476
20
15.411819952932014
30
0
10
-52.261991689504754
20
15.26204063316883
30
0
10
-51.927237699331414
20
15.079837578740729
30
0
0
SPLINE
5
143
100
AcDbEntity
8
0
100
AcDbSpline
70
0
71
2
72
6
73
3
74
0
42
0.000000001
43
0.0000000001
44
0.0000000001
40
0
40
0
40
0
40
1
40
1
40
1
10
-51.927237699331414
20
15.079837578740729
30
0
10
-51.592482517065179
20
14.897634524312629
30
0
10
-51.367985198797356
20
14.559692877736701
30
0
0
SPLINE
5
144
100
AcDbEntity
8
0
100
AcDbSpline
70
0
71
2
72
6
73
3
74
0
42
0.000000001
43
0.0000000001
44
0.0000000001
40
0
40
0
40
0
40
1
40
1
40
1
10
-51.367985198797356
20
14.559692877736701
30
0
10
-51.143487880529534
20
14.221752423253669
30
0
10
-51.143487880529534
20
13.701815146413459
30
0
0
LINE
5
145
100
AcDbEntity
8
0
100
AcDbLine
10
-51.143487880529534
20
13.701815146413459
30
0
11
-51.143487880529534
21
13.497513073888435
31
0
0
SPLINE
5
146
100
AcDbEntity
8
0
100
AcDbSpline
70
0
71
2
72
6
73
3
74
0
42
0.000000001
43
0.0000000001
44
0.0000000001
40
0
40
0
40
0
40
1
40
1
40
1
10
-51.143487880529534
20
13.497513073888435
30
0
10
-51.143487880529534
20
12.934762972798957
30
0
10
-51.376333425344598
20
12.5428528966576
30
0
0
SPLINE
5
147
100
AcDbEntity
8
0
100
AcDbSpline
70
0
71
2
72
6
73
3
74
0
42
0.000000001
43
0.0000000001
44
0.0000000001
40
0
40
0
40
0
40
1
40
1
40
1
10
-51.376333425344598
20
12.5428528966576
30
0
10
-51.609178970159661
20
12.150944012609138
30
0
10
-52.060252616705071
20
11.951733368840827
30
0
0
SPLINE
5
148
100
AcDbEntity
8
0
100
AcDbSpline
70
0
71
2
72
6
73
3
74
0
42
0.000000001
43
0.0000000001
44
0.0000000001
40
0
40
0
40
0
40
1
40
1
40
1
10
-52.060252616705071
20
11.951733368840827
30
0
10
-52.511325071157586
20
11.752522725072517
30
0
10
-53.153746316732537
20
11.752522725072517
30
0
0
SPLINE
5
149
100
AcDbEntity
8
0
100
AcDbSpline
70
0
71
2
72
6
73
3
74
0
42
0.000000001
43
0.0000000001
44
0.0000000001
40
0
40
0
40
0
40
1
40
1
40
1
10
-48.548379133047234
20
11.752522725072518
30
0
10
-49.099629113973748
20
11.752522725072518
30
0
10
-49.499089906515252
20
11.970611351934091
30
0
0
SPLINE
5
150
100
AcDbEntity
8
0
100
AcDbSpline
70
0
71
2
72
6
73
3
74
0
42
0.000000001
43
0.0000000001
44
0.0000000001
40
0
40
0
40
0
40
1
40
1
40
1
10
-49.499089906515252
20
11.970611351934091
30
0
10
-49.898550699056756
20
12.188701170888557
30
0
10
-50.106802175344598
20
12.60527326485218
30
0
0
SPLINE
5
151
100
AcDbEntity
8
0
100
AcDbSpline
70
0
71
2
72
6
73
3
74
0
42
0.000000001
43
0.0000000001
44
0.0000000001
40
0
40
0
40
0
40
1
40
1
40
1
10
-50.106802175344598
20
12.60527326485218
30
0
10
-50.315053651632439
20
13.021845358815803
30
0
10
-50.315053651632439
20
13.601846236196174
30
0
0
LINE
5
152
100
AcDbEntity
8
0
100
AcDbLine
10
-50.315053651632439
20
13.60184623619617
30
0
11
-50.315053651632439
21
14.63645412346424
31
0
0
SPLINE
5
153
100
AcDbEntity
8
0
100
AcDbSpline
70
0
71
2
72
6
73
3
74
0
42
0.000000001
43
0.0000000001
44
0.0000000001
40
0
40
0
40
0
40
1
40
1
40
1
10
-50.315053651632439
20
14.63645412346424
30
0
10
-50.315053651632439
20
15.244304675069465
30
0
10
-50.114839265646111
20
15.678889292684211
30
0
0
SPLINE
5
154
100
AcDbEntity
8
0
100
AcDbSpline
70
0
71
2
72
6
73
3
74
0
42
0.000000001
43
0.0000000001
44
0.0000000001
40
0
40
0
40
0
40
1
40
1
40
1
10
-50.114839265646111
20
15.678889292684211
30
0
10
-49.914622495473992
20
16.113475102391853
30
0
10
-49.527528474630486
20
16.345281142202033
30
0
0
SPLINE
5
155
100
AcDbEntity
8
0
100
AcDbSpline
70
0
71
2
72
6
73
3
74
0
42
0.000000001
43
0.0000000001
44
0.0000000001
40
0
40
0
40
0
40
1
40
1
40
1
10
-49.527528474630486
20
16.345281142202033
30
0
10
-49.14043445378698
20
16.577087182012214
30
0
10
-48.604910562338006
20
16.577087182012214
30
0
0
SPLINE
5
156
100
AcDbEntity
8
0
100
AcDbSpline
70
0
71
2
72
6
73
3
74
0
42
0.000000001
43
0.0000000001
44
0.0000000001
40
0
40
0
40
0
40
1
40
1
40
1
10
-48.604910562338006
20
16.577087182012214
30
0
10
-48.08379668980993
20
16.577087182012214
30
0
10
-47.708547303976189
20
16.354703444448127
30
0
0
SPLINE
5
157
100
AcDbEntity
8
0
100
AcDbSpline
70
0
71
2
72
6
73
3
74
0
42
0.000000001
43
0.0000000001
44
0.0000000001
40
0
40
0
40
0
40
1
40
1
40
1
10
-47.708547303976189
20
16.354703444448127
30
0
10
-47.33330030232824
20
16.132318514791145
30
0
10
-47.137866208852898
20
15.713874834981576
30
0
0
SPLINE
5
158
100
AcDbEntity
8
0
100
AcDbSpline
70
0
71
2
72
6
73
3
74
0
42
0.000000001
43
0.0000000001
44
0.0000000001
40
0
40
0
40
0
40
1
40
1
40
1
10
-47.137866208852898
20
15.713874834981576
30
0
10
-46.942432115377557
20
15.295432347264901
30
0
10
-46.942432115377557
20
14.71473886391224
30
0
0
LINE
5
159
100
AcDbEntity
8
0
100
AcDbLine
10
-46.942432115377557
20
14.71473886391224
30
0
11
-46.942432115377557
21
13.808781641927377
31
0
0
LINE
5
160
100
AcDbEntity
8
0
100
AcDbLine
10
-46.942432115377557
20
13.808781641927377
30
0
11
-49.910812566579949
21
13.808781641927375
31
0
0
LINE
5
161
100
AcDbEntity
8
0
100
AcDbLine
10
-49.910812566579949
20
13.808781641927375
30
0
11
-49.910812566579949
21
14.559970635381354
31
0
0
LINE
5
162
100
AcDbEntity
8
0
100
AcDbLine
10
-49.910812566579949
20
14.559970635381354
30
0
11
-47.728464792074334
21
14.559970635381356
31
0
0
LINE
5
163
100
AcDbEntity
8
0
100
AcDbLine
10
-47.728464792074334
20
14.559970635381356
30
0
11
-47.728464792074334
21
14.7538120927483
31
0
0
SPLINE
5
164
100
AcDbEntity
8
0
100
AcDbSpline
70
0
71
2
72
6
73
3
74
0
42
0.000000001
43
0.0000000001
44
0.0000000001
40
0
40
0
40
0
40
1
40
1
40
1
10
-47.728464792074334
20
14.7538120927483
30
0
10
-47.728464792074334
20
15.266681450811044
30
0
10
-47.958195398153435
20
15.541926163640634
30
0
0
SPLINE
5
165
100
AcDbEntity
8
0
100
AcDbSpline
70
0
71
2
72
6
73
3
74
0
42
0.000000001
43
0.0000000001
44
0.0000000001
40
0
40
0
40
0
40
1
40
1
40
1
10
-47.958195398153435
20
15.541926163640634
30
0
10
-48.187921235860955
20
15.817169684377328
30
0
10
-48.604910562338006
20
15.817169684377328
30
0
0
SPLINE
5
166
100
AcDbEntity
8
0
100
AcDbSpline
70
0
71
2
72
6
73
3
74
0
42
0.000000001
43
0.0000000001
44
0.0000000001
40
0
40
0
40
0
40
1
40
1
40
1
10
-48.604910562338006
20
15.817169684377328
30
0
10
-49.046008775533807
20
15.817169684377328
30
0
10
-49.287512491048943
20
15.528139609304086
30
0
0
SPLINE
5
167
100
AcDbEntity
8
0
100
AcDbSpline
70
0
71
2
72
6
73
3
74
0
42
0.000000001
43
0.0000000001
44
0.0000000001
40
0
40
0
40
0
40
1
40
1
40
1
10
-49.287512491048943
20
15.528139609304086
30
0
10
-49.529018590749871
20
15.239109534230844
30
0
10
-49.529018590749871
20
14.68425585648121
30
0
0
LINE
5
168
100
AcDbEntity
8
0
100
AcDbLine
10
-49.529018590749871
20
14.68425585648121
30
0
11
-49.529018590749871
21
13.584457177129403
31
0
0
SPLINE
5
169
100
AcDbEntity
8
0
100
AcDbSpline
70
0
71
2
72
6
73
3
74
0
42
0.000000001
43
0.0000000001
44
0.0000000001
40
0
40
0
40
0
40
1
40
1
40
1
10
-49.529018590749871
20
13.584457177129403
30
0
10
-49.529018590749871
20
13.0650754155785
30
0
10
-49.274385164083611
20
12.788723248448983
30
0
0
SPLINE
5
170
100
AcDbEntity
8
0
100
AcDbSpline
70
0
71
2
72
6
73
3
74
0
42
0.000000001
43
0.0000000001
44
0.0000000001
40
0
40
0
40
0
40
1
40
1
40
1
10
-49.274385164083611
20
12.788723248448983
30
0
10
-49.01974935323156
20
12.512371081319467
30
0
10
-48.548379133047234
20
12.512371081319467
30
0
0
SPLINE
5
171
100
AcDbEntity
8
0
100
AcDbSpline
70
0
71
2
72
6
73
3
74
0
42
0.000000001
43
0.0000000001
44
0.0000000001
40
0
40
0
40
0
40
1
40
1
40
1
10
-48.548379133047234
20
12.512371081319467
30
0
10
-48.247432897390496
20
12.512371081319467
30
0
10
-48.040740678609978
20
12.660557764974252
30
0
0
SPLINE
5
172
100
AcDbEntity
8
0
100
AcDbSpline
70
0
71
2
72
6
73
3
74
0
42
0.000000001
43
0.0000000001
44
0.0000000001
40
0
40
0
40
0
40
1
40
1
40
1
10
-48.040740678609978
20
12.660557764974252
30
0
10
-47.83404607564367
20
12.808744448629037
30
0
10
-47.730682084859978
20
13.142736691442147
30
0
0
LINE
5
173
100
AcDbEntity
8
0
100
AcDbLine
10
-47.730682084859978
20
13.142736691442147
30
0
11
-46.994598100484978
21
12.92388512512745
31
0
0
SPLINE
5
174
100
AcDbEntity
8
0
100
AcDbSpline
70
0
71
2
72
6
73
3
74
0
42
0.000000001
43
0.0000000001
44
0.0000000001
40
0
40
0
40
0
40
1
40
1
40
1
10
-46.994598100484978
20
12.92388512512745
30
0
10
-47.126643846334588
20
12.323724764791146
30
0
10
-47.535317132772576
20
12.038123148885385
30
0
0
SPLINE
5
175
100
AcDbEntity
8
0
100
AcDbSpline
70
0
71
2
72
6
73
3
74
0
42
0.000000001
43
0.0000000001
44
0.0000000001
40
0
40
0
40
0
40
1
40
1
40
1
10
-47.535317132772576
20
12.038123148885385
30
0
10
-47.943990419210564
20
11.752522725072518
30
0
10
-48.548379133047234
20
11.752522725072518
30
0
0
LWPOLYLINE
5
176
100
AcDbEntity
8
0
100
AcDbPolyline
90
4
70
1
43
0.0
10
-45.989849756063592
20
16.507532137838023
10
-45.182058999838006
20
16.507532137838023
10
-45.182058999838006
20
11.81771351715626
10
-45.989849756063592
20
11.81771351715626
0
SPLINE
5
177
100
AcDbEntity
8
0
100
AcDbSpline
70
0
71
2
72
6
73
3
74
0
42
0.000000001
43
0.0000000001
44
0.0000000001
40
0
40
0
40
0
40
1
40
1
40
1
10
-43.424947450460564
20
14.866874951329844
30
0
10
-43.424947450460564
20
15.339771050420421
30
0
10
-43.650171945394646
20
15.580652493444102
30
0
0
SPLINE
5
178
100
AcDbEntity
8
0
100
AcDbSpline
70
0
71
2
72
6
73
3
74
0
42
0.000000001
43
0.0000000001
44
0.0000000001
40
0
40
0
40
0
40
1
40
1
40
1
10
-43.650171945394646
20
15.580652493444102
30
0
10
-43.875396440328728
20
15.821535128560679
30
0
10
-44.314415643514764
20
15.821535128560679
30
0
0
SPLINE
5
179
100
AcDbEntity
8
0
100
AcDbSpline
70
0
71
2
72
6
73
3
74
0
42
0.000000001
43
0.0000000001
44
0.0000000001
40
0
40
0
40
0
40
1
40
1
40
1
10
-44.314415643514764
20
15.821535128560679
30
0
10
-44.737637231649529
20
15.821535128560679
30
0
10
-44.959848115743767
20
15.587650078740733
30
0
0
SPLINE
5
180
100
AcDbEntity
8
0
100
AcDbSpline
70
0
71
2
72
6
73
3
74
0
42
0.000000001
43
0.0000000001
44
0.0000000001
40
0
40
0
40
0
40
1
40
1
40
1
10
-44.959848115743767
20
15.587650078740733
30
0
10
-45.182058999838006
20
15.353765028920787
30
0
10
-45.182058999838006
20
14.804247158971446
30
0
0
LINE
5
181
100
AcDbEntity
8
0
100
AcDbLine
10
-45.182058999838006
20
14.804247158971446
30
0
11
-45.455086419881951
21
15.668221253362315
31
0
0
SPLINE
5
182
100
AcDbEntity
8
0
100
AcDbSpline
70
0
71
2
72
6
73
3
74
0
42
0.000000001
43
0.0000000001
44
0.0000000001
40
0
40
0
40
0
40
1
40
1
40
1
10
-45.455086419881951
20
15.668221253362315
30
0
10
-45.2368595102445
20
16.144649523702281
30
0
10
-44.881391713918816
20
16.363017100301402
30
0
0
SPLINE
5
183
100
AcDbEntity
8
0
100
AcDbSpline
70
0
71
2
72
6
73
3
74
0
42
0.000000001
43
0.0000000001
44
0.0000000001
40
0
40
0
40
0
40
1
40
1
40
1
10
-44.881391713918816
20
16.363017100301402
30
0
10
-44.525921533407342
20
16.581382292714732
30
0
10
-44.053580949606072
20
16.581382292714732
30
0
0
SPLINE
5
184
100
AcDbEntity
8
0
100
AcDbSpline
70
0
71
2
72
6
73
3
74
0
42
0.000000001
43
0.0000000001
44
0.0000000001
40
0
40
0
40
0
40
1
40
1
40
1
10
-44.053580949606072
20
16.581382292714732
30
0
10
-43.353381345571648
20
16.581382292714732
30
0
10
-42.985270211996209
20
16.136406201329844
30
0
0
SPLINE
5
185
100
AcDbEntity
8
0
100
AcDbSpline
70
0
71
2
72
6
73
3
74
0
42
0.000000001
43
0.0000000001
44
0.0000000001
40
0
40
0
40
0
40
1
40
1
40
1
10
-42.985270211996209
20
16.136406201329844
30
0
10
-42.617156694234978
20
15.691428917852061
30
0
10
-42.617156694234978
20
14.871239203420298
30
0
0
LINE
5
186
100
AcDbEntity
8
0
100
AcDbLine
10
-42.617156694234978
20
14.871239203420302
30
0
11
-42.617156694234978
21
11.81771351715626
31
0
0
LINE
5
187
100
AcDbEntity
8
0
100
AcDbLine
10
-42.617156694234978
20
11.81771351715626
30
0
11
-43.424947450460564
21
11.81771351715626
31
0
0
LINE
5
188
100
AcDbEntity
8
0
100
AcDbLine
10
-43.424947450460564
20
11.81771351715626
30
0
11
-43.424947450460564
21
14.866874951329844
31
0
0
SPLINE
5
189
100
AcDbEntity
8
0
100
AcDbSpline
70
0
71
2
72
6
73
3
74
0
42
0.000000001
43
0.0000000001
44
0.0000000001
40
0
40
0
40
0
40
1
40
1
40
1
10
-39.125859926046502
20
14.98859717270436
30
0
10
-39.125859926046502
20
15.408079165425917
30
0
10
-39.34828061849035
20
15.634378928151747
30
0
0
SPLINE
5
190
100
AcDbEntity
8
0
100
AcDbSpline
70
0
71
2
72
6
73
3
74
0
42
0.000000001
43
0.0000000001
44
0.0000000001
40
0
40
0
40
0
40
1
40
1
40
1
10
-39.34828061849035
20
15.634378928151747
30
0
10
-39.570696542562615
20
15.860676306691786
30
0
10
-39.989278505148064
20
15.860676306691786
30
0
0
SPLINE
5
191
100
AcDbEntity
8
0
100
AcDbSpline
70
0
71
2
72
6
73
3
74
0
42
0.000000001
43
0.0000000001
44
0.0000000001
40
0
40
0
40
0
40
1
40
1
40
1
10
-39.989278505148064
20
15.860676306691786
30
0
10
-40.283091256918084
20
15.860676306691786
30
0
10
-40.505891034902703
20
15.722639101949355
30
0
0
SPLINE
5
192
100
AcDbEntity
8
0
100
AcDbSpline
70
0
71
2
72
6
73
3
74
0
42
0.000000001
43
0.0000000001
44
0.0000000001
40
0
40
0
40
0
40
1
40
1
40
1
10
-40.505891034902703
20
15.722639101949355
30
0
10
-40.728690812887322
20
15.584601897206923
30
0
10
-40.86662549764074
20
15.278112429586074
30
0
0
LINE
5
193
100
AcDbEntity
8
0
100
AcDbLine
10
-40.86662549764074
20
15.27811242958607
30
0
11
-41.538627336324822
21
15.461771029439589
31
0
0
SPLINE
5
194
100
AcDbEntity
8
0
100
AcDbSpline
70
0
71
2
72
6
73
3
74
0
42
0.000000001
43
0.0000000001
44
0.0000000001
40
0
40
0
40
0
40
1
40
1
40
1
10
-41.538627336324822
20
15.461771029439589
30
0
10
-41.400692651571404
20
16.039692896810195
30
0
10
-40.993230531515252
20
16.310537594762465
30
0
0
SPLINE
5
195
100
AcDbEntity
8
0
100
AcDbSpline
70
0
71
2
72
6
73
3
74
0
42
0.000000001
43
0.0000000001
44
0.0000000001
40
0
40
0
40
0
40
1
40
1
40
1
10
-40.993230531515252
20
16.310537594762465
30
0
10
-40.5857684114591
20
16.581382292714736
30
0
10
-39.989278505148064
20
16.581382292714736
30
0
0
SPLINE
5
196
100
AcDbEntity
8
0
100
AcDbSpline
70
0
71
2
72
6
73
3
74
0
42
0.000000001
43
0.0000000001
44
0.0000000001
40
0
40
0
40
0
40
1
40
1
40
1
10
-39.989278505148064
20
16.581382292714736
30
0
10
-39.47654981404699
20
16.581382292714736
30
0
10
-39.103067109884392
20
16.39349891563954
30
0
0
SPLINE
5
197
100
AcDbEntity
8
0
100
AcDbSpline
70
0
71
2
72
6
73
3
74
0
42
0.000000001
43
0.0000000001
44
0.0000000001
40
0
40
0
40
0
40
1
40
1
40
1
10
-39.103067109884392
20
16.39349891563954
30
0
10
-38.729584405721795
20
16.205615538564345
30
0
10
-38.53470582753576
20
15.853021878209733
30
0
0
SPLINE
5
198
100
AcDbEntity
8
0
100
AcDbSpline
70
0
71
2
72
6
73
3
74
0
42
0.000000001
43
0.0000000001
44
0.0000000001
40
0
40
0
40
0
40
1
40
1
40
1
10
-38.53470582753576
20
15.853021878209733
30
0
10
-38.339824865163934
20
15.500428217855118
30
0
10
-38.339824865163934
20
15.010350483861588
30
0
0
LINE
5
199
100
AcDbEntity
8
0
100
AcDbLine
10
-38.339824865163934
20
15.010350483861588
30
0
11
-38.339824865163934
21
11.817713517156266
31
0
0
LINE
5
200
100
AcDbEntity
8
0
100
AcDbLine
10
-38.339824865163934
20
11.817713517156266
30
0
11
-39.125859926046502
21
11.817713517156266
31
0
0
LINE
5
201
100
AcDbEntity
8
0
100
AcDbLine
10
-39.125859926046502
20
11.817713517156266
30
0
11
-39.125859926046502
21
14.98859717270436
31
0
0
SPLINE
5
202
100
AcDbEntity
8
0
100
AcDbSpline
70
0
71
2
72
6
73
3
74
0
42
0.000000001
43
0.0000000001
44
0.0000000001
40
0
40
0
40
0
40
1
40
1
40
1
10
-40.184853265585076
20
11.752522725072524
30
0
10
-40.911863038839471
20
11.752522725072524
30
0
10
-41.303494165243279
20
12.118521470037123
30
0
0
SPLINE
5
203
100
AcDbEntity
8
0
100
AcDbSpline
70
0
71
2
72
6
73
3
74
0
42
0.000000001
43
0.0000000001
44
0.0000000001
40
0
40
0
40
0
40
1
40
1
40
1
10
-41.303494165243279
20
12.118521470037123
30
0
10
-41.695127675832879
20
12.484520215001723
30
0
10
-41.695127675832879
20
13.171418446508071
30
0
0
SPLINE
5
204
100
AcDbEntity
8
0
100
AcDbSpline
70
0
71
2
72
6
73
3
74
0
42
0.000000001
43
0.0000000001
44
0.0000000001
40
0
40
0
40
0
40
1
40
1
40
1
10
-41.695127675832879
20
13.171418446508071
30
0
10
-41.695127675832879
20
13.907988804784438
30
0
10
-41.296775529684197
20
14.296988982167861
30
0
0
SPLINE
5
205
100
AcDbEntity
8
0
100
AcDbSpline
70
0
71
2
72
6
73
3
74
0
42
0.000000001
43
0.0000000001
44
0.0000000001
40
0
40
0
40
0
40
1
40
1
40
1
10
-41.296775529684197
20
14.296988982167861
30
0
10
-40.898423383535516
20
14.685987967458388
30
0
10
-40.150075147451531
20
14.685987967458388
30
0
0
LINE
5
206
100
AcDbEntity
8
0
100
AcDbLine
10
-40.150075147451538
20
14.685987967458388
30
0
11
-38.915736863912713
21
14.685987967458388
31
0
0
LINE
5
207
100
AcDbEntity
8
0
100
AcDbLine
10
-38.915736863912713
20
14.685987967458388
30
0
11
-38.844104001821648
21
13.991331595388077
31
0
0
LINE
5
208
100
AcDbEntity
8
0
100
AcDbLine
10
-38.844104001821648
20
13.991331595388077
30
0
11
-40.145781228841912
21
13.991331595388077
31
0
0
SPLINE
5
209
100
AcDbEntity
8
0
100
AcDbSpline
70
0
71
2
72
6
73
3
74
0
42
0.000000001
43
0.0000000001
44
0.0000000001
40
0
40
0
40
0
40
1
40
1
40
1
10
-40.145781228841912
20
13.991331595388075
30
0
10
-40.529930780233514
20
13.991331595388075
30
0
10
-40.723841378988396
20
13.787824648824355
30
0
0
SPLINE
5
210
100
AcDbEntity
8
0
100
AcDbSpline
70
0
71
2
72
6
73
3
74
0
42
0.000000001
43
0.0000000001
44
0.0000000001
40
0
40
0
40
0
40
1
40
1
40
1
10
-40.723841378988396
20
13.787824648824355
30
0
10
-40.917751977743279
20
13.58431889435353
30
0
10
-40.917751977743279
20
13.171418446508071
30
0
0
SPLINE
5
211
100
AcDbEntity
8
0
100
AcDbSpline
70
0
71
2
72
6
73
3
74
0
42
0.000000001
43
0.0000000001
44
0.0000000001
40
0
40
0
40
0
40
1
40
1
40
1
10
-40.917751977743279
20
13.171418446508071
30
0
10
-40.917751977743279
20
12.818097609487197
30
0
10
-40.706174562276971
20
12.637003201451918
30
0
0
SPLINE
5
212
100
AcDbEntity
8
0
100
AcDbSpline
70
0
71
2
72
6
73
3
74
0
42
0.000000001
43
0.0000000001
44
0.0000000001
40
0
40
0
40
0
40
1
40
1
40
1
10
-40.706174562276971
20
12.637003201451918
30
0
10
-40.494597146810662
20
12.45590879341664
30
0
10
-40.067494104208123
20
12.45590879341664
30
0
0
SPLINE
5
213
100
AcDbEntity
8
0
100
AcDbSpline
70
0
71
2
72
6
73
3
74
0
42
0.000000001
43
0.0000000001
44
0.0000000001
40
0
40
0
40
0
40
1
40
1
40
1
10
-40.067494104208123
20
12.45590879341664
30
0
10
-39.592244813741814
20
12.45590879341664
30
0
10
-39.359052369894158
20
12.604960936513564
30
0
0
SPLINE
5
214
100
AcDbEntity
8
0
100
AcDbSpline
70
0
71
2
72
6
73
3
74
0
42
0.000000001
43
0.0000000001
44
0.0000000001
40
0
40
0
40
0
40
1
40
1
40
1
10
-39.359052369894158
20
12.604960936513564
30
0
10
-39.125859926046502
20
12.754014271703383
30
0
10
-39.125859926046502
20
13.120983380284926
30
0
0
LINE
5
215
100
AcDbEntity
8
0
100
AcDbLine
10
-39.125859926046502
20
13.120983380284926
30
0
11
-38.852832506002557
21
12.542367714849135
31
0
0
SPLINE
5
216
100
AcDbEntity
8
0
100
AcDbSpline
70
0
71
2
72
6
73
3
74
0
42
0.000000001
43
0.0000000001
44
0.0000000001
40
0
40
0
40
0
40
1
40
1
40
1
10
-38.852832506002557
20
12.542367714849137
30
0
10
-38.933127115072381
20
12.271835345235489
30
0
10
-39.114706704916131
20
12.097460764852187
30
0
0
SPLINE
5
217
100
AcDbEntity
8
0
100
AcDbSpline
70
0
71
2
72
6
73
3
74
0
42
0.000000001
43
0.0000000001
44
0.0000000001
40
0
40
0
40
0
40
1
40
1
40
1
10
-39.114706704916131
20
12.097460764852187
30
0
10
-39.296286294759881
20
11.923086184468886
30
0
10
-39.565952012838494
20
11.837803858724257
30
0
0
SPLINE
5
218
100
AcDbEntity
8
0
100
AcDbSpline
70
0
71
2
72
6
73
3
74
0
42
0.000000001
43
0.0000000001
44
0.0000000001
40
0
40
0
40
0
40
1
40
1
40
1
10
-39.565952012838494
20
11.837803858724257
30
0
10
-39.835620115102898
20
11.752522725072524
30
0
10
-40.184853265585076
20
11.752522725072524
30
0
0
LWPOLYLINE
5
219
100
AcDbEntity
8
0
100
AcDbPolyline
90
4
70
1
43
0.0
10
-40.434396455587517
20
17.556479710546157
10
-39.206223676504266
20
19.207112926450392
10
-38.591997812093865
20
18.739758867231032
10
-39.908361623586785
20
17.177872199025771
0
LWPOLYLINE
5
220
100
AcDbEntity
8
0
100
AcDbPolyline
90
4
70
1
43
0.0
10
-37.281799505056512
20
16.507532137838027
10
-36.474011133016717
20
16.507532137838027
10
-36.474011133016717
20
11.817713517156266
10
-37.281799505056512
20
11.817713517156266
0
SPLINE
5
221
100
AcDbEntity
8
0
100
AcDbSpline
70
0
71
2
72
6
73
3
74
0
42
0.000000001
43
0.0000000001
44
0.0000000001
40
0
40
0
40
0
40
1
40
1
40
1
10
-34.716897199453484
20
14.866874951329851
30
0
10
-34.716897199453484
20
15.339771050420428
30
0
10
-34.942121694387566
20
15.580652493444109
30
0
0
SPLINE
5
222
100
AcDbEntity
8
0
100
AcDbSpline
70
0
71
2
72
6
73
3
74
0
42
0.000000001
43
0.0000000001
44
0.0000000001
40
0
40
0
40
0
40
1
40
1
40
1
10
-34.942121694387566
20
15.580652493444109
30
0
10
-35.167346189321648
20
15.821535128560686
30
0
10
-35.606365392507684
20
15.821535128560685
30
0
0
SPLINE
5
223
100
AcDbEntity
8
0
100
AcDbSpline
70
0
71
2
72
6
73
3
74
0
42
0.000000001
43
0.0000000001
44
0.0000000001
40
0
40
0
40
0
40
1
40
1
40
1
10
-35.606365392507684
20
15.821535128560685
30
0
10
-36.02958936482824
20
15.821535128560685
30
0
10
-36.251800248922478
20
15.587650078740738
30
0
0
SPLINE
5
224
100
AcDbEntity
8
0
100
AcDbSpline
70
0
71
2
72
6
73
3
74
0
42
0.000000001
43
0.0000000001
44
0.0000000001
40
0
40
0
40
0
40
1
40
1
40
1
10
-36.251800248922478
20
15.587650078740738
30
0
10
-36.474011133016717
20
15.353765028920792
30
0
10
-36.474011133016717
20
14.804247158971451
30
0
0
LINE
5
225
100
AcDbEntity
8
0
100
AcDbLine
10
-36.474011133016717
20
14.804247158971451
30
0
11
-36.747038553060662
21
15.66822125336232
31
0
0
SPLINE
5
226
100
AcDbEntity
8
0
100
AcDbSpline
70
0
71
2
72
6
73
3
74
0
42
0.000000001
43
0.0000000001
44
0.0000000001
40
0
40
0
40
0
40
1
40
1
40
1
10
-36.747038553060662
20
15.66822125336232
30
0
10
-36.52880925923742
20
16.144649523702284
30
0
10
-36.173341462911736
20
16.363017100301406
30
0
0
SPLINE
5
227
100
AcDbEntity
8
0
100
AcDbSpline
70
0
71
2
72
6
73
3
74
0
42
0.000000001
43
0.0000000001
44
0.0000000001
40
0
40
0
40
0
40
1
40
1
40
1
10
-36.173341462911736
20
16.363017100301406
30
0
10
-35.817873666586053
20
16.581382292714736
30
0
10
-35.345530698598992
20
16.581382292714739
30
0
0
SPLINE
5
228
100
AcDbEntity
8
0
100
AcDbSpline
70
0
71
2
72
6
73
3
74
0
42
0.000000001
43
0.0000000001
44
0.0000000001
40
0
40
0
40
0
40
1
40
1
40
1
10
-35.345530698598992
20
16.581382292714739
30
0
10
-34.645331094564568
20
16.581382292714739
30
0
10
-34.277219960989129
20
16.136406201329851
30
0
0
SPLINE
5
229
100
AcDbEntity
8
0
100
AcDbSpline
70
0
71
2
72
6
73
3
74
0
42
0.000000001
43
0.0000000001
44
0.0000000001
40
0
40
0
40
0
40
1
40
1
40
1
10
-34.277219960989129
20
16.136406201329851
30
0
10
-33.909106443227898
20
15.691428917852068
30
0
10
-33.909106443227898
20
14.871239203420306
30
0
0
LINE
5
230
100
AcDbEntity
8
0
100
AcDbLine
10
-33.909106443227898
20
14.871239203420307
30
0
11
-33.909106443227898
21
11.817713517156267
31
0
0
LINE
5
231
100
AcDbEntity
8
0
100
AcDbLine
10
-33.909106443227898
20
11.817713517156267
30
0
11
-34.716897199453484
21
11.817713517156267
31
0
0
LINE
5
232
100
AcDbEntity
8
0
100
AcDbLine
10
-34.716897199453484
20
11.817713517156267
30
0
11
-34.716897199453484
21
14.866874951329851
31
0
0
LWPOLYLINE
5
233
100
AcDbEntity
8
0
100
AcDbPolyline
90
4
70
1
43
0.0
10
-28.298089692892205
20
18.315981167760519
10
-27.490298936666619
20
18.315981167760519
10
-27.490298936666619
20
11.817713517156271
10
-28.298089692892205
20
11.817713517156271
0
SPLINE
5
234
100
AcDbEntity
8
0
100
AcDbSpline
70
0
71
2
72
6
73
3
74
0
42
0.000000001
43
0.0000000001
44
0.0000000001
40
0
40
0
40
0
40
1
40
1
40
1
10
-29.387567231954705
20
11.748157280889179
30
0
10
-29.836144635976922
20
11.748157280889179
30
0
10
-30.160370061697137
20
11.948754328694966
30
0
0
SPLINE
5
235
100
AcDbEntity
8
0
100
AcDbSpline
70
0
71
2
72
6
73
3
74
0
42
0.000000001
43
0.0000000001
44
0.0000000001
40
0
40
0
40
0
40
1
40
1
40
1
10
-30.160370061697137
20
11.948754328694966
30
0
10
-30.48459310323156
20
12.149350184407856
30
0
10
-30.65203923970617
20
12.525603312459614
30
0
0
SPLINE
5
236
100
AcDbEntity
8
0
100
AcDbSpline
70
0
71
2
72
6
73
3
74
0
42
0.000000001
43
0.0000000001
44
0.0000000001
40
0
40
0
40
0
40
1
40
1
40
1
10
-30.65203923970617
20
12.525603312459614
30
0
10
-30.819485376180779
20
12.901855248418476
30
0
10
-30.819485376180779
20
13.423592585530903
30
0
0
LINE
5
237
100
AcDbEntity
8
0
100
AcDbLine
10
-30.819485376180779
20
13.423592585530903
30
0
11
-30.819485376180779
21
14.871239203420307
31
0
0
SPLINE
5
238
100
AcDbEntity
8
0
100
AcDbSpline
70
0
71
2
72
6
73
3
74
0
42
0.000000001
43
0.0000000001
44
0.0000000001
40
0
40
0
40
0
40
1
40
1
40
1
10
-30.819485376180779
20
14.871239203420307
30
0
10
-30.819485376180779
20
15.402744549718525
30
0
10
-30.654361436666619
20
15.78575207611623
30
0
0
SPLINE
5
239
100
AcDbEntity
8
0
100
AcDbSpline
70
0
71
2
72
6
73
3
74
0
42
0.000000001
43
0.0000000001
44
0.0000000001
40
0
40
0
40
0
40
1
40
1
40
1
10
-30.654361436666619
20
15.78575207611623
30
0
10
-30.489235112966668
20
16.168758410421042
30
0
10
-30.170381257833611
20
16.375070351567892
30
0
0
SPLINE
5
240
100
AcDbEntity
8
0
100
AcDbSpline
70
0
71
2
72
6
73
3
74
0
42
0.000000001
43
0.0000000001
44
0.0000000001
40
0
40
0
40
0
40
1
40
1
40
1
10
-30.170381257833611
20
16.375070351567892
30
0
10
-29.851525018514764
20
16.581382292714743
30
0
10
-29.409251401723992
20
16.581382292714743
30
0
0
SPLINE
5
241
100
AcDbEntity
8
0
100
AcDbSpline
70
0
71
2
72
6
73
3
74
0
42
0.000000001
43
0.0000000001
44
0.0000000001
40
0
40
0
40
0
40
1
40
1
40
1
10
-29.409251401723992
20
16.581382292714743
30
0
10
-28.958041856588494
20
16.581382292714743
30
0
10
-28.601772973837029
20
16.364886301961569
30
0
0
SPLINE
5
242
100
AcDbEntity
8
0
100
AcDbSpline
70
0
71
2
72
6
73
3
74
0
42
0.000000001
43
0.0000000001
44
0.0000000001
40
0
40
0
40
0
40
1
40
1
40
1
10
-28.601772973837029
20
16.364886301961569
30
0
10
-28.245508859457146
20
16.148390311208395
30
0
10
-28.02506227284826
20
15.694269675222067
30
0
0
LINE
5
243
100
AcDbEntity
8
0
100
AcDbLine
10
-28.02506227284826
20
15.694269675222067
30
0
11
-28.298089692892205
21
14.84775378128591
31
0
0
SPLINE
5
244
100
AcDbEntity
8
0
100
AcDbSpline
70
0
71
2
72
6
73
3
74
0
42
0.000000001
43
0.0000000001
44
0.0000000001
40
0
40
0
40
0
40
1
40
1
40
1
10
-28.298089692892205
20
14.847753781285908
30
0
10
-28.298089692892205
20
15.201628941503193
30
0
10
-28.398788163961541
20
15.408875483480122
30
0
0
SPLINE
5
245
100
AcDbEntity
8
0
100
AcDbSpline
70
0
71
2
72
6
73
3
74
0
42
0.000000001
43
0.0000000001
44
0.0000000001
40
0
40
0
40
0
40
1
40
1
40
1
10
-28.398788163961541
20
15.408875483480122
30
0
10
-28.499486635030877
20
15.616123217549946
30
0
10
-28.692739198507439
20
15.738399762120869
30
0
0
SPLINE
5
246
100
AcDbEntity
8
0
100
AcDbSpline
70
0
71
2
72
6
73
3
74
0
42
0.000000001
43
0.0000000001
44
0.0000000001
40
0
40
0
40
0
40
1
40
1
40
1
10
-28.692739198507439
20
15.738399762120869
30
0
10
-28.885991761984002
20
15.860676306691792
30
0
10
-29.14841432362951
20
15.860676306691792
30
0
0
SPLINE
5
247
100
AcDbEntity
8
0
100
AcDbSpline
70
0
71
2
72
6
73
3
74
0
42
0.000000001
43
0.0000000001
44
0.0000000001
40
0
40
0
40
0
40
1
40
1
40
1
10
-29.14841432362951
20
15.860676306691792
30
0
10
-29.560623357595574
20
15.860676306691792
30
0
10
-29.786160180868279
20
15.603721875157978
30
0
0
SPLINE
5
248
100
AcDbEntity
8
0
100
AcDbSpline
70
0
71
2
72
6
73
3
74
0
42
0.000000001
43
0.0000000001
44
0.0000000001
40
0
40
0
40
0
40
1
40
1
40
1
10
-29.786160180868279
20
15.603721875157978
30
0
10
-30.011697004140984
20
15.346767443624165
30
0
10
-30.011697004140984
20
14.862510699239399
30
0
0
LINE
5
249
100
AcDbEntity
8
0
100
AcDbLine
10
-30.011697004140984
20
14.862510699239399
30
0
11
-30.011697004140984
21
13.423592585530903
31
0
0
SPLINE
5
250
100
AcDbEntity
8
0
100
AcDbSpline
70
0
71
2
72
6
73
3
74
0
42
0.000000001
43
0.0000000001
44
0.0000000001
40
0
40
0
40
0
40
1
40
1
40
1
10
-30.011697004140984
20
13.423592585530903
30
0
10
-30.011697004140984
20
12.960464495626118
30
0
10
-29.787373731435906
20
12.714699048009541
30
0
0
SPLINE
5
251
100
AcDbEntity
8
0
100
AcDbSpline
70
0
71
2
72
6
73
3
74
0
42
0.000000001
43
0.0000000001
44
0.0000000001
40
0
40
0
40
0
40
1
40
1
40
1
10
-29.787373731435906
20
12.714699048009541
30
0
10
-29.563048074545037
20
12.468932408300068
30
0
10
-29.14841432362951
20
12.468932408300068
30
0
0
SPLINE
5
252
100
AcDbEntity
8
0
100
AcDbSpline
70
0
71
2
72
6
73
3
74
0
42
0.000000001
43
0.0000000001
44
0.0000000001
40
0
40
0
40
0
40
1
40
1
40
1
10
-29.14841432362951
20
12.468932408300068
30
0
10
-28.883769700826775
20
12.468932408300068
30
0
10
-28.691699693502557
20
12.590447205510761
30
0
0
SPLINE
5
253
100
AcDbEntity
8
0
100
AcDbSpline
70
0
71
2
72
6
73
3
74
0
42
0.000000001
43
0.0000000001
44
0.0000000001
40
0
40
0
40
0
40
1
40
1
40
1
10
-28.691699693502557
20
12.590447205510761
30
0
10
-28.499620149435174
20
12.711962002721455
30
0
10
-28.398854921163689
20
12.921356696096089
30
0
0
SPLINE
5
254
100
AcDbEntity
8
0
100
AcDbSpline
70
0
71
2
72
6
73
3
74
0
42
0.000000001
43
0.0000000001
44
0.0000000001
40
0
40
0
40
0
40
1
40
1
40
1
10
-28.398854921163689
20
12.921356696096089
30
0
10
-28.298089692892205
20
13.130751389470722
30
0
10
-28.298089692892205
20
13.477491873708393
30
0
0
LINE
5
255
100
AcDbEntity
8
0
100
AcDbLine
10
-28.298089692892205
20
13.477491873708393
30
0
11
-28.055474946798455
21
12.602501648870136
31
0
0
SPLINE
5
256
100
AcDbEntity
8
0
100
AcDbSpline
70
0
71
2
72
6
73
3
74
0
42
0.000000001
43
0.0000000001
44
0.0000000001
40
0
40
0
40
0
40
1
40
1
40
1
10
-28.055474946798455
20
12.602501648870138
30
0
10
-28.221051881612908
20
12.164107102361349
30
0
10
-28.564536760152947
20
11.956132191625263
30
0
0
SPLINE
5
257
100
AcDbEntity
8
0
100
AcDbSpline
70
0
71
2
72
6
73
3
74
0
42
0.000000001
43
0.0000000001
44
0.0000000001
40
0
40
0
40
0
40
1
40
1
40
1
10
-28.564536760152947
20
11.956132191625263
30
0
10
-28.908021638692986
20
11.748157280889179
30
0
10
-29.387567231954705
20
11.748157280889179
30
0
0
LWPOLYLINE
5
258
100
AcDbEntity
8
0
100
AcDbPolyline
90
4
70
1
43
0.0
10
-26.62348527699865
20
18.315981167760519
10
-25.815699289144646
20
18.315981167760519
10
-25.815699289144646
20
15.921504038777975
10
-26.62348527699865
20
15.921504038777975
0
LWPOLYLINE
5
259
100
AcDbEntity
8
0
100
AcDbPolyline
90
7
70
1
43
0.0
10
-23.504216859640252
20
18.315982359853418
10
-22.611358354391228
20
18.315982359853418
10
-20.692475030721795
20
11.817713517156276
10
-21.549241731466424
20
11.817713517156276
10
-23.05778760701574
20
17.460460204091696
10
-24.566328714193475
20
11.817713517156271
10
-25.421502778829705
20
11.817713517156275
0
LWPOLYLINE
5
260
100
AcDbEntity
8
0
100
AcDbPolyline
90
4
70
1
43
0.0
10
-24.296348283590447
20
13.934800166097315
10
-21.739347169698846
20
13.934800166097316
10
-21.739347169698846
20
13.529657858815821
10
-24.296348283590447
20
13.529657858815817
0
LWPOLYLINE
5
261
100
AcDbEntity
8
0
100
AcDbPolyline
90
4
70
1
43
0.0
10
-20.034187028707635
20
16.507532137838041
10
-19.226396272482049
20
16.507532137838041
10
-19.226396272482049
20
11.817713517156276
10
-20.034187028707635
20
11.817713517156276
0
SPLINE
5
262
100
AcDbEntity
8
0
100
AcDbSpline
70
0
71
2
72
6
73
3
74
0
42
0.000000001
43
0.0000000001
44
0.0000000001
40
0
40
0
40
0
40
1
40
1
40
1
10
-17.547013948263299
20
15.673694151845607
30
0
10
-17.708919236959588
20
15.758906144109401
30
0
10
-17.801025102438103
20
15.790221232381496
30
0
0
SPLINE
5
263
100
AcDbEntity
8
0
100
AcDbSpline
70
0
71
2
72
6
73
3
74
0
42
0.000000001
43
0.0000000001
44
0.0000000001
40
0
40
0
40
0
40
1
40
1
40
1
10
-17.801025102438103
20
15.790221232381496
30
0
10
-17.893130967916619
20
15.821535128560695
30
0
10
-18.019635865987908
20
15.821535128560695
30
0
0
SPLINE
5
264
100
AcDbEntity
8
0
100
AcDbSpline
70
0
71
2
72
6
73
3
74
0
42
0.000000001
43
0.0000000001
44
0.0000000001
40
0
40
0
40
0
40
1
40
1
40
1
10
-18.019635865987908
20
15.821535128560695
30
0
10
-18.583495805563103
20
15.821535128560695
30
0
10
-18.897569368185174
20
15.54348422905508
30
0
0
SPLINE
5
265
100
AcDbEntity
8
0
100
AcDbSpline
70
0
71
2
72
6
73
3
74
0
42
0.000000001
43
0.0000000001
44
0.0000000001
40
0
40
0
40
0
40
1
40
1
40
1
10
-18.897569368185174
20
15.54348422905508
30
0
10
-19.211642930807244
20
15.26543452164236
30
0
10
-19.270184228719842
20
14.673864382711086
30
0
0
LINE
5
266
100
AcDbEntity
8
0
100
AcDbLine
10
-19.270184228719838
20
14.673864382711088
30
0
11
-19.499423692525994
21
15.652355689016018
31
0
0
SPLINE
5
267
100
AcDbEntity
8
0
100
AcDbSpline
70
0
71
2
72
6
73
3
74
0
42
0.000000001
43
0.0000000001
44
0.0000000001
40
0
40
0
40
0
40
1
40
1
40
1
10
-19.499423692525994
20
15.652355689016018
30
0
10
-19.223077485860955
20
16.10543801209036
30
0
10
-18.802068422140252
20
16.343410748449003
30
0
0
SPLINE
5
268
100
AcDbEntity
8
0
100
AcDbSpline
70
0
71
2
72
6
73
3
74
0
42
0.000000001
43
0.0000000001
44
0.0000000001
40
0
40
0
40
0
40
1
40
1
40
1
10
-18.802068422140252
20
16.343410748449003
30
0
10
-18.381059358419549
20
16.58138229271475
30
0
10
-17.880523393453728
20
16.58138229271475
30
0
0
SPLINE
5
269
100
AcDbEntity
8
0
100
AcDbSpline
70
0
71
2
72
6
73
3
74
0
42
0.000000001
43
0.0000000001
44
0.0000000001
40
0
40
0
40
0
40
1
40
1
40
1
10
-17.880523393453728
20
16.58138229271475
30
0
10
-17.707050035299432
20
16.58138229271475
30
0
10
-17.566659639181267
20
16.529700297322904
30
0
0
SPLINE
5
270
100
AcDbEntity
8
0
100
AcDbSpline
70
0
71
2
72
6
73
3
74
0
42
0.000000001
43
0.0000000001
44
0.0000000001
40
0
40
0
40
0
40
1
40
1
40
1
10
-17.566659639181267
20
16.529700297322904
30
0
10
-17.426264474691521
20
16.478018301931058
30
0
10
-17.28750009328283
20
16.338421839681303
30
0
0
LINE
5
271
100
AcDbEntity
8
0
100
AcDbLine
10
-17.28750009328283
20
16.338421839681303
30
0
11
-17.547013948263299
21
15.673694151845607
31
0
0
SPLINE
5
272
100
AcDbEntity
8
0
100
AcDbSpline
70
0
71
2
72
6
73
3
74
0
42
0.000000001
43
0.0000000001
44
0.0000000001
40
0
40
0
40
0
40
1
40
1
40
1
10
-15.410878846944938
20
11.795960205999052
30
0
10
-16.000921914877068
20
11.795960205999052
30
0
10
-16.278417299093377
20
12.125691908803617
30
0
0
SPLINE
5
273
100
AcDbEntity
8
0
100
AcDbSpline
70
0
71
2
72
6
73
3
74
0
42
0.000000001
43
0.0000000001
44
0.0000000001
40
0
40
0
40
0
40
1
40
1
40
1
10
-16.278417299093377
20
12.125691908803617
30
0
10
-16.555917451681267
20
12.455423611608182
30
0
10
-16.555917451681267
20
13.080178040471708
30
0
0
LINE
5
274
100
AcDbEntity
8
0
100
AcDbLine
10
-16.555917451681267
20
13.080178040471708
30
0
11
-16.555917451681267
21
17.820362585988676
31
0
0
LINE
5
275
100
AcDbEntity
8
0
100
AcDbLine
10
-16.555917451681267
20
17.820362585988676
30
0
11
-15.74812669545568
21
17.820362585988676
31
0
0
LINE
5
276
100
AcDbEntity
8
0
100
AcDbLine
10
-15.74812669545568
20
17.820362585988676
30
0
11
-15.74812669545568
21
13.0714495362908
31
0
0
SPLINE
5
277
100
AcDbEntity
8
0
100
AcDbSpline
70
0
71
2
72
6
73
3
74
0
42
0.000000001
43
0.0000000001
44
0.0000000001
40
0
40
0
40
0
40
1
40
1
40
1
10
-15.74812669545568
20
13.0714495362908
30
0
10
-15.74812669545568
20
12.809437054601347
30
0
10
-15.642478654684195
20
12.682656783071195
30
0
0
SPLINE
5
278
100
AcDbEntity
8
0
100
AcDbSpline
70
0
71
2
72
6
73
3
74
0
42
0.000000001
43
0.0000000001
44
0.0000000001
40
0
40
0
40
0
40
1
40
1
40
1
10
-15.642478654684195
20
12.682656783071195
30
0
10
-15.536825845541129
20
12.555877703633939
30
0
10
-15.32393235951818
20
12.555877703633939
30
0
0
LINE
5
279
100
AcDbEntity
8
0
100
AcDbLine
10
-15.32393235951818
20
12.555877703633939
30
0
11
-14.848263452352652
21
12.555877703633939
31
0
0
LINE
5
280
100
AcDbEntity
8
0
100
AcDbLine
10
-14.848263452352652
20
12.555877703633939
30
0
11
-14.848263452352652
21
11.795960205999052
31
0
0
LINE
5
281
100
AcDbEntity
8
0
100
AcDbLine
10
-14.848263452352652
20
11.795960205999052
30
0
11
-15.410878846944938
21
11.795960205999052
31
0
0
LWPOLYLINE
5
282
100
AcDbEntity
8
0
100
AcDbPolyline
90
4
70
1
43
0.0
10
-17.021119783224236
20
16.507532137838041
10
-14.848263452352652
20
16.507532137838044
10
-14.848263452352652
20
15.76936795136038
10
-17.021119783224236
20
15.769367951360378
0
ENDSEC
0
SECTION
2
OBJECTS
0
DICTIONARY
5
C
100
AcDbDictionary
3
ACAD_GROUP
350
D
3
ACAD_MLINESTYLE
350
17
0
DICTIONARY
5
D
100
AcDbDictionary
0
DICTIONARY
5
1A
330
C
100
AcDbDictionary
0
DICTIONARY
5
17
100
AcDbDictionary
0
ENDSEC
0
EOF
