0
SECTION
2
HEADER
9
$INSUNITS
70
4
9
$ACADVER
1
AC1014
9
$HANDSEED
5
FFFF
0
ENDSEC
0
SECTION
2
TABLES
0
TABLE
2
VPORT
5
8
100
AcDbSymbolTable
0
ENDTAB
0
TABLE
2
LTYPE
5
5
100
AcDbSymbolTable
0
LTYPE
5
14
100
AcDbSymbolTableRecord
100
AcDbLinetypeTableRecord
2
BYBLOCK
70
0
0
LTYPE
5
15
100
AcDbSymbolTableRecord
100
AcDbLinetypeTableRecord
2
BYLAYER
70
0
0
LTYPE
5
16
100
AcDbSymbolTableRecord
100
AcDbLinetypeTableRecord
2
DASHED
70
0
3
Dashed __ __ __ __ __ __ __ __ __ __ __ __ __ _
72
65
73
2
40
0.75
49
0.5
74
0
49
-0.25
74
0
0
ENDTAB
0
TABLE
2
LAYER
5
2
100
AcDbSymbolTable
70
2
0
LAYER
5
50
100
AcDbSymbolTableRecord
100
AcDbLayerTableRecord
2
0
70
0
62
7
6
CONTINUOUS
0
ENDTAB
0
TABLE
2
STYLE
5
3
100
AcDbSymbolTable
70
1
0
STYLE
5
11
100
AcDbSymbolTableRecord
100
AcDbTextStyleTableRecord
2
STANDARD
70
0
0
ENDTAB
0
TABLE
2
VIEW
5
6
100
AcDbSymbolTable
70
0
0
ENDTAB
0
TABLE
2
UCS
5
7
100
AcDbSymbolTable
70
0
0
ENDTAB
0
TABLE
2
APPID
5
9
100
AcDbSymbolTable
70
2
0
APPID
5
12
100
AcDbSymbolTableRecord
100
AcDbRegAppTableRecord
2
ACAD
70
0
0
ENDTAB
0
TABLE
2
DIMSTYLE
5
A
100
AcDbSymbolTable
70
1
0
ENDTAB
0
TABLE
2
BLOCK_RECORD
5
1
100
AcDbSymbolTable
70
1
0
BLOCK_RECORD
5
1F
100
AcDbSymbolTableRecord
100
AcDbBlockTableRecord
2
*MODEL_SPACE
0
BLOCK_RECORD
5
1B
100
AcDbSymbolTableRecord
100
AcDbBlockTableRecord
2
*PAPER_SPACE
0
ENDTAB
0
ENDSEC
0
SECTION
2
BLOCKS
0
BLOCK
5
20
100
AcDbEntity
100
AcDbBlockBegin
2
*MODEL_SPACE
0
ENDBLK
5
21
100
AcDbEntity
100
AcDbBlockEnd
0
BLOCK
5
1C
100
AcDbEntity
100
AcDbBlockBegin
2
*PAPER_SPACE
0
ENDBLK
5
1D
100
AcDbEntity
100
AcDbBlockEnd
0
ENDSEC
0
SECTION
2
ENTITIES
0
SPLINE
5
100
100
AcDbEntity
8
0
100
AcDbSpline
70
6
71
5
72
41
73
35
74
0
42
0.000000001
43
0.0000000001
44
0.0000000001
40
0
40
0
40
0
40
0
40
0
40
0
40
0.033333333333333333
40
0.066666666666666666
40
0.10000000000000001
40
0.13333333333333333
40
0.16666666666666666
40
0.19999999999999998
40
0.23333333333333331
40
0.26666666666666666
40
0.29999999999999999
40
0.33333333333333331
40
0.36666666666666664
40
0.39999999999999997
40
0.43333333333333329
40
0.46666666666666662
40
0.49999999999999994
40
0.53333333333333333
40
0.56666666666666665
40
0.59999999999999998
40
0.6333333333333333
40
0.66666666666666663
40
0.69999999999999996
40
0.73333333333333328
40
0.76666666666666661
40
0.79999999999999993
40
0.83333333333333326
40
0.86666666666666659
40
0.89999999999999991
40
0.93333333333333324
40
0.96666666666666656
40
1
40
1
40
1
40
1
40
1
40
1
41
1
41
1
41
1
41
1
41
1
41
1
41
1
41
1
41
1
41
1
41
1
41
1
41
1
41
1
41
1
41
1
41
1
41
1
41
1
41
1
41
1
41
1
41
1
41
1
41
1
41
1
41
1
41
1
41
1
41
1
41
1
41
1
41
1
41
1
41
1
10
38.500000573694706
20
0
30
0
10
38.514853661088836
20
0.18328997248923734
30
0
10
38.554027076653412
20
0.54964305988727247
30
0
10
38.63799110650011
20
1.0909213516247038
30
0
10
38.806507359978291
20
1.7663983620929127
30
0
10
39.181938197818226
20
2.4704962466898381
30
0
10
39.807100584861864
20
2.9909493049958242
30
0
10
40.74334198394002
20
3.3120940346173566
30
0
10
41.983785254224166
20
3.4565651574805827
30
0
10
43.46384133373455
20
3.4710886304099295
30
0
10
45.077897668734593
20
3.4064436638468849
30
0
10
46.69736622575104
20
3.3034165542037108
30
0
10
48.17913571822465
20
3.167586730786724
30
0
10
49.398409266969566
20
2.9687712930347949
30
0
10
50.220687654027145
20
2.5799166676176832
30
0
10
50.694219552704418
20
1.933904575913207
30
0
10
50.933796988856542
20
1.0493041687695372
30
0
10
51.057259447842441
20
0.0021390592373409217
30
0
10
50.950989808328671
20
-1.0539171876913767
30
0
10
50.522291357981608
20
-1.955143993609757
30
0
10
49.911256081774276
20
-2.6082591419939085
30
0
10
49.236655280387282
20
-2.980726310532384
30
0
10
48.470682715352346
20
-3.1442295683954202
30
0
10
47.354080726545149
20
-3.2540103838641703
30
0
10
45.904990623213784
20
-3.3473308413543892
30
0
10
44.226395719072002
20
-3.4196709177901292
30
0
10
42.509738511111372
20
-3.4238735182856117
30
0
10
40.958271483345932
20
-3.300667207284584
30
0
10
39.747033408297433
20
-2.9949991537981981
30
0
10
38.962246581918031
20
-2.4799253338796703
30
0
10
38.562742542563115
20
-1.7732216440533675
30
0
10
38.4661496894267
20
-1.0934167850095293
30
0
10
38.464908552288641
20
-0.55009677504815246
30
0
10
38.485147486300598
20
-0.18328997248923795
30
0
10
38.500000573694706
20
0
30
0
0
ENDSEC
0
SECTION
2
OBJECTS
0
DICTIONARY
5
C
100
AcDbDictionary
3
ACAD_GROUP
350
D
3
ACAD_MLINESTYLE
350
17
0
DICTIONARY
5
D
100
AcDbDictionary
0
DICTIONARY
5
1A
330
C
100
AcDbDictionary
0
DICTIONARY
5
17
100
AcDbDictionary
0
ENDSEC
0
EOF
