0
SECTION
2
HEADER
9
$INSUNITS
70
4
9
$ACADVER
1
AC1014
9
$HANDSEED
5
FFFF
0
ENDSEC
0
SECTION
2
TABLES
0
TABLE
2
VPORT
5
8
100
AcDbSymbolTable
0
ENDTAB
0
TABLE
2
LTYPE
5
5
100
AcDbSymbolTable
0
LTYPE
5
14
100
AcDbSymbolTableRecord
100
AcDbLinetypeTableRecord
2
BYBLOCK
70
0
0
LTYPE
5
15
100
AcDbSymbolTableRecord
100
AcDbLinetypeTableRecord
2
BYLAYER
70
0
0
LTYPE
5
16
100
AcDbSymbolTableRecord
100
AcDbLinetypeTableRecord
2
DASHED
70
0
3
Dashed __ __ __ __ __ __ __ __ __ __ __ __ __ _
72
65
73
2
40
0.75
49
0.5
74
0
49
-0.25
74
0
0
ENDTAB
0
TABLE
2
LAYER
5
2
100
AcDbSymbolTable
70
2
0
LAYER
5
50
100
AcDbSymbolTableRecord
100
AcDbLayerTableRecord
2
0
70
0
62
7
6
CONTINUOUS
0
ENDTAB
0
TABLE
2
STYLE
5
3
100
AcDbSymbolTable
70
1
0
STYLE
5
11
100
AcDbSymbolTableRecord
100
AcDbTextStyleTableRecord
2
STANDARD
70
0
0
ENDTAB
0
TABLE
2
VIEW
5
6
100
AcDbSymbolTable
70
0
0
ENDTAB
0
TABLE
2
UCS
5
7
100
AcDbSymbolTable
70
0
0
ENDTAB
0
TABLE
2
APPID
5
9
100
AcDbSymbolTable
70
2
0
APPID
5
12
100
AcDbSymbolTableRecord
100
AcDbRegAppTableRecord
2
ACAD
70
0
0
ENDTAB
0
TABLE
2
DIMSTYLE
5
A
100
AcDbSymbolTable
70
1
0
ENDTAB
0
TABLE
2
BLOCK_RECORD
5
1
100
AcDbSymbolTable
70
1
0
BLOCK_RECORD
5
1F
100
AcDbSymbolTableRecord
100
AcDbBlockTableRecord
2
*MODEL_SPACE
0
BLOCK_RECORD
5
1B
100
AcDbSymbolTableRecord
100
AcDbBlockTableRecord
2
*PAPER_SPACE
0
ENDTAB
0
ENDSEC
0
SECTION
2
BLOCKS
0
BLOCK
5
20
100
AcDbEntity
100
AcDbBlockBegin
2
*MODEL_SPACE
0
ENDBLK
5
21
100
AcDbEntity
100
AcDbBlockEnd
0
BLOCK
5
1C
100
AcDbEntity
100
AcDbBlockBegin
2
*PAPER_SPACE
0
ENDBLK
5
1D
100
AcDbEntity
100
AcDbBlockEnd
0
ENDSEC
0
SECTION
2
ENTITIES
0
SPLINE
5
100
100
AcDbEntity
8
0
100
AcDbSpline
70
6
71
5
72
41
73
35
74
0
42
0.000000001
43
0.0000000001
44
0.0000000001
40
0
40
0
40
0
40
0
40
0
40
0
40
0.033333333333333333
40
0.066666666666666666
40
0.10000000000000001
40
0.13333333333333333
40
0.16666666666666666
40
0.19999999999999998
40
0.23333333333333331
40
0.26666666666666666
40
0.29999999999999999
40
0.33333333333333331
40
0.36666666666666664
40
0.39999999999999997
40
0.43333333333333329
40
0.46666666666666662
40
0.49999999999999994
40
0.53333333333333333
40
0.56666666666666665
40
0.59999999999999998
40
0.6333333333333333
40
0.66666666666666663
40
0.69999999999999996
40
0.73333333333333328
40
0.76666666666666661
40
0.79999999999999993
40
0.83333333333333326
40
0.86666666666666659
40
0.89999999999999991
40
0.93333333333333324
40
0.96666666666666656
40
1
40
1
40
1
40
1
40
1
40
1
41
1
41
1
41
1
41
1
41
1
41
1
41
1
41
1
41
1
41
1
41
1
41
1
41
1
41
1
41
1
41
1
41
1
41
1
41
1
41
1
41
1
41
1
41
1
41
1
41
1
41
1
41
1
41
1
41
1
41
1
41
1
41
1
41
1
41
1
41
1
10
-44.763362132972937
20
60.034263334180196
30
0
10
-44.511325429307355
20
60.03812421389091
30
0
10
-44.007625807981647
20
60.030577688390366
30
0
10
-43.279013101606495
20
59.968210128586783
30
0
10
-42.464194027650983
20
59.749651886710502
30
0
10
-41.755057236355356
20
59.222052220264075
30
0
10
-41.334029982128996
20
58.422740599027058
30
0
10
-41.117682074439543
20
57.361753633871274
30
0
10
-41.029908459128706
20
56.068081882836374
30
0
10
-41.015053199075822
20
54.591612423618812
30
0
10
-41.042764139707877
20
53.006938457251294
30
0
10
-41.107377756927704
20
51.406870218460028
30
0
10
-41.244543296129763
20
49.923497460988543
30
0
10
-41.506667727302748
20
48.684149597812585
30
0
10
-42.038751826989291
20
47.925176406695527
30
0
10
-42.837493305875711
20
47.60671875819547
30
0
10
-43.787292155759296
20
47.511806888580885
30
0
10
-44.746047668031878
20
47.417417448463155
30
0
10
-45.718940038886544
20
47.414066307371812
30
0
10
-46.688174496630772
20
47.659210860035408
30
0
10
-47.497969619127872
20
48.111650049067705
30
0
10
-48.02049272852657
20
48.73718877099131
30
0
10
-48.269039032869401
20
49.606914760862878
30
0
10
-48.402127655284055
20
50.86525562542959
30
0
10
-48.472310688271648
20
52.437371318396956
30
0
10
-48.513235485024701
20
54.184860595540897
30
0
10
-48.513301141531429
20
55.909194381943493
30
0
10
-48.436328198628914
20
57.420413794970955
30
0
10
-48.222175110262135
20
58.572949559401195
30
0
10
-47.7947549153523
20
59.327559666434652
30
0
10
-47.074671974340063
20
59.759816238939436
30
0
10
-46.251822810399361
20
59.932365405632325
30
0
10
-45.519846029975177
20
60.007412410126193
30
0
10
-45.015398836638518
20
60.030402454469481
30
0
10
-44.763362132972937
20
60.034263334180196
30
0
0
ENDSEC
0
SECTION
2
OBJECTS
0
DICTIONARY
5
C
100
AcDbDictionary
3
ACAD_GROUP
350
D
3
ACAD_MLINESTYLE
350
17
0
DICTIONARY
5
D
100
AcDbDictionary
0
DICTIONARY
5
1A
330
C
100
AcDbDictionary
0
DICTIONARY
5
17
100
AcDbDictionary
0
ENDSEC
0
EOF
