0
SECTION
2
HEADER
9
$INSUNITS
70
4
9
$ACADVER
1
AC1014
9
$HANDSEED
5
FFFF
0
ENDSEC
0
SECTION
2
TABLES
0
TABLE
2
VPORT
5
8
100
AcDbSymbolTable
0
ENDTAB
0
TABLE
2
LTYPE
5
5
100
AcDbSymbolTable
0
LTYPE
5
14
100
AcDbSymbolTableRecord
100
AcDbLinetypeTableRecord
2
BYBLOCK
70
0
0
LTYPE
5
15
100
AcDbSymbolTableRecord
100
AcDbLinetypeTableRecord
2
BYLAYER
70
0
0
LTYPE
5
16
100
AcDbSymbolTableRecord
100
AcDbLinetypeTableRecord
2
DASHED
70
0
3
Dashed __ __ __ __ __ __ __ __ __ __ __ __ __ _
72
65
73
2
40
0.75
49
0.5
74
0
49
-0.25
74
0
0
ENDTAB
0
TABLE
2
LAYER
5
2
100
AcDbSymbolTable
70
2
0
LAYER
5
50
100
AcDbSymbolTableRecord
100
AcDbLayerTableRecord
2
0
70
0
62
7
6
CONTINUOUS
0
ENDTAB
0
TABLE
2
STYLE
5
3
100
AcDbSymbolTable
70
1
0
STYLE
5
11
100
AcDbSymbolTableRecord
100
AcDbTextStyleTableRecord
2
STANDARD
70
0
0
ENDTAB
0
TABLE
2
VIEW
5
6
100
AcDbSymbolTable
70
0
0
ENDTAB
0
TABLE
2
UCS
5
7
100
AcDbSymbolTable
70
0
0
ENDTAB
0
TABLE
2
APPID
5
9
100
AcDbSymbolTable
70
2
0
APPID
5
12
100
AcDbSymbolTableRecord
100
AcDbRegAppTableRecord
2
ACAD
70
0
0
ENDTAB
0
TABLE
2
DIMSTYLE
5
A
100
AcDbSymbolTable
70
1
0
ENDTAB
0
TABLE
2
BLOCK_RECORD
5
1
100
AcDbSymbolTable
70
1
0
BLOCK_RECORD
5
1F
100
AcDbSymbolTableRecord
100
AcDbBlockTableRecord
2
*MODEL_SPACE
0
BLOCK_RECORD
5
1B
100
AcDbSymbolTableRecord
100
AcDbBlockTableRecord
2
*PAPER_SPACE
0
ENDTAB
0
ENDSEC
0
SECTION
2
BLOCKS
0
BLOCK
5
20
100
AcDbEntity
100
AcDbBlockBegin
2
*MODEL_SPACE
0
ENDBLK
5
21
100
AcDbEntity
100
AcDbBlockEnd
0
BLOCK
5
1C
100
AcDbEntity
100
AcDbBlockBegin
2
*PAPER_SPACE
0
ENDBLK
5
1D
100
AcDbEntity
100
AcDbBlockEnd
0
ENDSEC
0
SECTION
2
ENTITIES
0
LINE
5
100
100
AcDbEntity
8
0
100
AcDbLine
10
-19.149999999999999
20
0
30
0
11
-12.435267239012797
21
232.77740238088984
31
0
0
ARC
5
101
100
AcDbEntity
8
0
100
AcDbCircle
10
-13.434851448183803
20
232.80623654076979
30
0
40
1.0000000000000029
210
-0
220
0
230
1
100
AcDbArc
50
-1.6523046776520847
51
71.554200173183872
0
ARC
5
102
100
AcDbEntity
8
0
100
AcDbCircle
10
1.7763568394002505e-14
20
273.08536163930933
30
0
40
41.460607062765391
210
0
220
0
230
1
100
AcDbArc
50
105.36137990953401
51
251.55420017318389
0
ARC
5
103
100
AcDbEntity
8
0
100
AcDbCircle
10
-11.248078528875318
20
314.02902881198469
30
0
40
0.99999999999998801
210
-0
220
0
230
1
100
AcDbArc
50
-74.638620090464727
51
0
0
LINE
5
104
100
AcDbEntity
8
0
100
AcDbLine
10
-10.248078528875318
20
314.02902881198469
30
0
11
-10.248078528875313
21
333.68373463123902
31
0
0
ARC
5
105
100
AcDbEntity
8
0
100
AcDbCircle
10
-9.2480785288753236
20
333.68373463123902
30
0
40
1.0000000000000142
210
0
220
0
230
1
100
AcDbArc
50
90.000000000000611
51
180
0
LINE
5
106
100
AcDbEntity
8
0
100
AcDbLine
10
-9.2480785288753342
20
334.68373463123902
30
0
11
-5.0180785288754537
21
334.68373463123908
31
0
0
ARC
5
107
100
AcDbEntity
8
0
100
AcDbCircle
10
-5.0180785288754652
20
335.68373463123913
30
0
40
1.0000000000000142
210
-0
220
0
230
1
100
AcDbArc
50
-89.999999999999332
51
0
0
LINE
5
108
100
AcDbEntity
8
0
100
AcDbLine
10
-4.0180785288754652
20
335.68373463123913
30
0
11
-4.0180785288752503
21
444.58565209959909
31
0
0
ARC
5
109
100
AcDbEntity
8
0
100
AcDbCircle
10
6.5308869423574833e-13
20
444.58564775792559
30
0
40
4.0180785288782142
210
0
220
-0
230
1
100
AcDbArc
50
9.3069159897572179e-05
51
179.99993809110734
0
LINE
5
110
100
AcDbEntity
8
0
100
AcDbLine
10
4.0180785288735654
20
444.58565428494308
30
0
11
4.0180785288747334
21
335.68373463123703
31
0
0
ARC
5
111
100
AcDbEntity
8
0
100
AcDbCircle
10
5.0180785288747574
20
335.68373463123703
30
0
40
1.0000000000000242
210
0
220
0
230
1
100
AcDbArc
50
180
51
269.99999999999937
0
LINE
5
112
100
AcDbEntity
8
0
100
AcDbLine
10
5.0180785288747467
20
334.68373463123703
30
0
11
9.2480785288734442
21
334.68373463123703
31
0
0
ARC
5
113
100
AcDbEntity
8
0
100
AcDbCircle
10
9.2480785288734335
20
333.68373463123703
30
0
40
1.0000000000000009
210
0
220
-0
230
1
100
AcDbArc
50
0
51
89.999999999999389
0
LINE
5
114
100
AcDbEntity
8
0
100
AcDbLine
10
10.248078528873435
20
333.68373463123703
30
0
11
10.248078528873313
21
314.02902881198338
31
0
0
ARC
5
115
100
AcDbEntity
8
0
100
AcDbCircle
10
11.248078528873336
20
314.02902881198338
30
0
40
1.0000000000000231
210
0
220
0
230
1
100
AcDbArc
50
180
51
254.6386200904679
0
ARC
5
116
100
AcDbEntity
8
0
100
AcDbCircle
10
1.7763568394002505e-14
20
273.08536163930933
30
0
40
41.460607062763586
210
-0
220
0
230
1
100
AcDbArc
50
-71.554200173185819
51
74.638620090468137
0
ARC
5
117
100
AcDbEntity
8
0
100
AcDbCircle
10
13.434851448181925
20
232.80623654077104
30
0
40
1.0000000000000349
210
0
220
0
230
1
100
AcDbArc
50
108.44579982681486
51
181.65230467765207
0
LINE
5
118
100
AcDbEntity
8
0
100
AcDbLine
10
12.435267239010923
20
232.77740238089109
30
0
11
19.149999999998158
21
0
31
0
0
LINE
5
119
100
AcDbEntity
8
0
100
AcDbLine
10
19.149999999998158
20
0
30
0
11
25.349999999998207
21
0
31
0
0
LINE
5
120
100
AcDbEntity
8
0
100
AcDbLine
10
-25.350000000000001
20
0
30
0
11
-19.149999999999999
21
0
31
0
0
LINE
5
121
100
AcDbEntity
8
0
100
AcDbLine
10
25.349999999998207
20
0
30
0
11
18.755832111994401
21
228.59782011746518
31
0
0
ARC
5
122
100
AcDbEntity
8
0
100
AcDbCircle
10
19.755416321165434
20
228.62665427734512
30
0
40
1.0000000000000102
210
0
220
0
230
1
100
AcDbArc
50
113.95817429626922
51
181.65230467765207
0
ARC
5
123
100
AcDbEntity
8
0
100
AcDbCircle
10
1.7763568394002505e-14
20
273.08536163930933
30
0
40
47.650314842962082
210
-0
220
0
230
1
100
AcDbArc
50
-66.041825703729671
51
68.985607666820201
0
ARC
5
124
100
AcDbEntity
8
0
100
AcDbCircle
10
17.44612198239939
20
318.49996239825663
30
0
40
1.0000000000000009
210
0
220
0
230
1
100
AcDbArc
50
180
51
248.98560766681845
0
LINE
5
125
100
AcDbEntity
8
0
100
AcDbLine
10
16.44612198239939
20
318.49996239825663
30
0
11
16.446121982399472
21
339.88177808476308
31
0
0
ARC
5
126
100
AcDbEntity
8
0
100
AcDbCircle
10
15.446121982399497
20
339.88177808476308
30
0
40
0.99999999999997424
210
0
220
0
230
1
100
AcDbArc
50
0
51
89.999999999999389
0
LINE
5
127
100
AcDbEntity
8
0
100
AcDbLine
10
15.446121982399507
20
340.88177808476308
30
0
11
11.216121982400809
21
340.88177808476314
31
0
0
ARC
5
128
100
AcDbEntity
8
0
100
AcDbCircle
10
11.21612198240082
20
341.8817780847632
30
0
40
1.0000000000000009
210
0
220
0
230
1
100
AcDbArc
50
180
51
269.99999999999937
0
LINE
5
129
100
AcDbEntity
8
0
100
AcDbLine
10
10.216121982400818
20
341.8817780847632
30
0
11
10.216121982399692
21
444.58565791731212
31
0
0
ARC
5
130
100
AcDbEntity
8
0
100
AcDbCircle
10
6.5308869423574833e-13
20
444.58564775792559
30
0
40
10.21612198240409
210
0
220
-0
230
1
100
AcDbArc
50
5.697300055304723e-05
51
179.9999621151473
0
LINE
5
131
100
AcDbEntity
8
0
100
AcDbLine
10
-10.216121982401226
20
444.58565451411977
30
0
11
-10.216121982401416
21
341.88177808476502
31
0
0
ARC
5
132
100
AcDbEntity
8
0
100
AcDbCircle
10
-11.216121982401443
20
341.88177808476502
30
0
40
1.0000000000000142
210
-0
220
0
230
1
100
AcDbArc
50
-89.999999999999389
51
0
0
LINE
5
133
100
AcDbEntity
8
0
100
AcDbLine
10
-11.216121982401432
20
340.88177808476502
30
0
11
-15.44612198240131
21
340.88177808476496
31
0
0
ARC
5
134
100
AcDbEntity
8
0
100
AcDbCircle
10
-15.4461219824013
20
339.88177808476496
30
0
40
1.0000000000000142
210
0
220
0
230
1
100
AcDbArc
50
90.000000000000611
51
180
0
LINE
5
135
100
AcDbEntity
8
0
100
AcDbLine
10
-16.446121982401301
20
339.88177808476496
30
0
11
-16.44612198240128
21
318.49996239825788
31
0
0
ARC
5
136
100
AcDbEntity
8
0
100
AcDbCircle
10
-17.446121982401316
20
318.49996239825788
30
0
40
1.0000000000000124
210
-0
220
0
230
1
100
AcDbArc
50
-68.985607666819007
51
0
0
ARC
5
137
100
AcDbEntity
8
0
100
AcDbCircle
10
1.7763568394002505e-14
20
273.08536163930933
30
0
40
47.650314842963944
210
0
220
0
230
1
100
AcDbArc
50
111.01439233318148
51
246.04182570372828
0
ARC
5
138
100
AcDbEntity
8
0
100
AcDbCircle
10
-19.755416321167235
20
228.62665427734387
30
0
40
0.99999999999999967
210
-0
220
0
230
1
100
AcDbArc
50
-1.6523046776538659
51
66.041825703729216
0
LINE
5
139
100
AcDbEntity
8
0
100
AcDbLine
10
-18.755832111996234
20
228.5978201174639
30
0
11
-25.350000000000001
21
0
31
0
0
LINE
5
140
100
AcDbEntity
8
0
100
AcDbLine
10
-19.149999999999999
20
0
30
0
11
-18.755374965570851
21
13.68033452687725
31
0
0
LINE
5
141
100
AcDbEntity
8
0
100
AcDbLine
10
-24.955374965570847
20
13.68033452687725
30
0
11
-25.350000000000001
21
0
31
0
0
LINE
5
142
100
AcDbEntity
8
0
100
AcDbLine
10
-24.955374965570847
20
13.68033452687725
30
0
11
-18.755374965570851
21
13.68033452687725
31
0
0
LINE
5
143
100
AcDbEntity
8
0
100
AcDbLine
10
-25.350000000000001
20
0
30
0
11
-25.533253874557417
21
-6.3528009846570104
31
0
0
LINE
5
144
100
AcDbEntity
8
0
100
AcDbLine
10
-25.533253874557417
20
-6.3528009846570104
30
0
11
-19.3384086089685
21
-6.5314984442413184
31
0
0
LINE
5
145
100
AcDbEntity
8
0
100
AcDbLine
10
-19.3384086089685
20
-6.5314984442413184
30
0
11
-19.149999999999999
21
0
31
0
0
LWPOLYLINE
5
146
100
AcDbEntity
8
0
100
AcDbPolyline
90
4
70
1
43
0.0
10
18.842811740353675
20
10.649193001008648
10
19.420705650601636
20
-9.3844625542539362
10
25.620705650601685
20
-9.3844625542539362
10
25.043515196414337
20
10.624806524241048
0
ENDSEC
0
SECTION
2
OBJECTS
0
DICTIONARY
5
C
100
AcDbDictionary
3
ACAD_GROUP
350
D
3
ACAD_MLINESTYLE
350
17
0
DICTIONARY
5
D
100
AcDbDictionary
0
DICTIONARY
5
1A
330
C
100
AcDbDictionary
0
DICTIONARY
5
17
100
AcDbDictionary
0
ENDSEC
0
EOF
