0
SECTION
2
HEADER
9
$INSUNITS
70
4
9
$ACADVER
1
AC1014
9
$HANDSEED
5
FFFF
0
ENDSEC
0
SECTION
2
TABLES
0
TABLE
2
VPORT
5
8
100
AcDbSymbolTable
0
ENDTAB
0
TABLE
2
LTYPE
5
5
100
AcDbSymbolTable
0
LTYPE
5
14
100
AcDbSymbolTableRecord
100
AcDbLinetypeTableRecord
2
BYBLOCK
70
0
0
LTYPE
5
15
100
AcDbSymbolTableRecord
100
AcDbLinetypeTableRecord
2
BYLAYER
70
0
0
LTYPE
5
16
100
AcDbSymbolTableRecord
100
AcDbLinetypeTableRecord
2
DASHED
70
0
3
Dashed __ __ __ __ __ __ __ __ __ __ __ __ __ _
72
65
73
2
40
0.75
49
0.5
74
0
49
-0.25
74
0
0
ENDTAB
0
TABLE
2
LAYER
5
2
100
AcDbSymbolTable
70
2
0
LAYER
5
50
100
AcDbSymbolTableRecord
100
AcDbLayerTableRecord
2
0
70
0
62
7
6
CONTINUOUS
0
ENDTAB
0
TABLE
2
STYLE
5
3
100
AcDbSymbolTable
70
1
0
STYLE
5
11
100
AcDbSymbolTableRecord
100
AcDbTextStyleTableRecord
2
STANDARD
70
0
0
ENDTAB
0
TABLE
2
VIEW
5
6
100
AcDbSymbolTable
70
0
0
ENDTAB
0
TABLE
2
UCS
5
7
100
AcDbSymbolTable
70
0
0
ENDTAB
0
TABLE
2
APPID
5
9
100
AcDbSymbolTable
70
2
0
APPID
5
12
100
AcDbSymbolTableRecord
100
AcDbRegAppTableRecord
2
ACAD
70
0
0
ENDTAB
0
TABLE
2
DIMSTYLE
5
A
100
AcDbSymbolTable
70
1
0
ENDTAB
0
TABLE
2
BLOCK_RECORD
5
1
100
AcDbSymbolTable
70
1
0
BLOCK_RECORD
5
1F
100
AcDbSymbolTableRecord
100
AcDbBlockTableRecord
2
*MODEL_SPACE
0
BLOCK_RECORD
5
1B
100
AcDbSymbolTableRecord
100
AcDbBlockTableRecord
2
*PAPER_SPACE
0
ENDTAB
0
ENDSEC
0
SECTION
2
BLOCKS
0
BLOCK
5
20
100
AcDbEntity
100
AcDbBlockBegin
2
*MODEL_SPACE
0
ENDBLK
5
21
100
AcDbEntity
100
AcDbBlockEnd
0
BLOCK
5
1C
100
AcDbEntity
100
AcDbBlockBegin
2
*PAPER_SPACE
0
ENDBLK
5
1D
100
AcDbEntity
100
AcDbBlockEnd
0
ENDSEC
0
SECTION
2
ENTITIES
0
CIRCLE
5
100
100
AcDbEntity
8
0
100
AcDbCircle
10
4.2418022237187242e-15
20
3.7499999999999956
30
0
40
5
210
0
220
-0
230
1
0
LWPOLYLINE
5
101
100
AcDbEntity
8
0
100
AcDbPolyline
90
4
70
1
43
0.0
10
70.000000000000028
20
-2.5
10
70.000000000000028
20
12.000000000000002
10
-70
20
12.000000000000002
10
-70.000000000000014
20
-2.5
0
LINE
5
102
100
AcDbEntity
8
0
100
AcDbLine
10
-13.169897287167178
20
1.5315334093651489
30
0
11
-12.525286017931567
21
1.5861038458428101
31
0
0
SPLINE
5
103
100
AcDbEntity
8
0
100
AcDbSpline
70
0
71
2
72
6
73
3
74
0
42
0.000000001
43
0.0000000001
44
0.0000000001
40
0
40
0
40
0
40
1
40
1
40
1
10
-12.525286017931567
20
1.5861038458428101
30
0
10
-12.453662543572054
20
1.1154351723274902
30
0
10
-12.192748575485812
20
0.87839584470603027
30
0
0
SPLINE
5
104
100
AcDbEntity
8
0
100
AcDbSpline
70
0
71
2
72
6
73
3
74
0
42
0.000000001
43
0.0000000001
44
0.0000000001
40
0
40
0
40
0
40
1
40
1
40
1
10
-12.192748575485812
20
0.87839584470603027
30
0
10
-11.931834309376345
20
0.64135592103812256
30
0
10
-11.563485353268252
20
0.64135592103812256
30
0
0
SPLINE
5
105
100
AcDbEntity
8
0
100
AcDbSpline
70
0
71
2
72
6
73
3
74
0
42
0.000000001
43
0.0000000001
44
0.0000000001
40
0
40
0
40
0
40
1
40
1
40
1
10
-11.563485353268252
20
0.64135592103812256
30
0
10
-11.120101897991763
20
0.64135592103812256
30
0
10
-10.813144235886202
20
0.9755990994057373
30
0
0
SPLINE
5
106
100
AcDbEntity
8
0
100
AcDbSpline
70
0
71
2
72
6
73
3
74
0
42
0.000000001
43
0.0000000001
44
0.0000000001
40
0
40
0
40
0
40
1
40
1
40
1
10
-10.813144235886202
20
0.9755990994057373
30
0
10
-10.506186573780642
20
1.3098416817269043
30
0
10
-10.506186573780642
20
1.8623654139122685
30
0
0
SPLINE
5
107
100
AcDbEntity
8
0
100
AcDbSpline
70
0
71
2
72
6
73
3
74
0
42
0.000000001
43
0.0000000001
44
0.0000000001
40
0
40
0
40
0
40
1
40
1
40
1
10
-10.506186573780642
20
1.8623654139122685
30
0
10
-10.506186573780642
20
2.3876045239052495
30
0
10
-10.801206915653811
20
2.691151310213538
30
0
0
SPLINE
5
108
100
AcDbEntity
8
0
100
AcDbSpline
70
0
71
2
72
6
73
3
74
0
42
0.000000001
43
0.0000000001
44
0.0000000001
40
0
40
0
40
0
40
1
40
1
40
1
10
-10.801206915653811
20
2.691151310213538
30
0
10
-11.09622725752698
20
2.9946986925682744
30
0
10
-11.573717086590396
20
2.9946986925682744
30
0
0
SPLINE
5
109
100
AcDbEntity
8
0
100
AcDbSpline
70
0
71
2
72
6
73
3
74
0
42
0.000000001
43
0.0000000001
44
0.0000000001
40
0
40
0
40
0
40
1
40
1
40
1
10
-11.573717086590396
20
2.9946986925682744
30
0
10
-11.870443015373812
20
2.9946986925682744
30
0
10
-12.109187780893908
20
2.8599784863075932
30
0
0
SPLINE
5
110
100
AcDbEntity
8
0
100
AcDbSpline
70
0
71
2
72
6
73
3
74
0
42
0.000000001
43
0.0000000001
44
0.0000000001
40
0
40
0
40
0
40
1
40
1
40
1
10
-12.109187780893908
20
2.8599784863075932
30
0
10
-12.347932695425616
20
2.7252579820236882
30
0
10
-12.484358339584933
20
2.5103877079567627
30
0
0
LINE
5
111
100
AcDbEntity
8
0
100
AcDbLine
10
-12.484358339584933
20
2.5103877079567627
30
0
11
-13.060756712235079
21
2.5854216110787109
31
0
0
LINE
5
112
100
AcDbEntity
8
0
100
AcDbLine
10
-13.060756712235079
20
2.5854216110787109
30
0
11
-12.576445727623568
21
5.1536346566757878
31
0
0
LINE
5
113
100
AcDbEntity
8
0
100
AcDbLine
10
-12.576445727623568
20
5.1536346566757878
30
0
11
-10.090088336742983
21
5.1536346566757878
31
0
0
LINE
5
114
100
AcDbEntity
8
0
100
AcDbLine
10
-10.090088336742983
20
5.1536346566757878
30
0
11
-10.090088336742983
21
4.5670045507034978
31
0
0
LINE
5
115
100
AcDbEntity
8
0
100
AcDbLine
10
-10.090088336742983
20
4.5670045507034978
30
0
11
-12.085313289440737
21
4.5670045507034978
31
0
0
LINE
5
116
100
AcDbEntity
8
0
100
AcDbLine
10
-12.085313289440737
20
4.5670045507034978
30
0
11
-12.354753999985324
21
3.2232118737778381
31
0
0
SPLINE
5
117
100
AcDbEntity
8
0
100
AcDbSpline
70
0
71
2
72
6
73
3
74
0
42
0.000000001
43
0.0000000001
44
0.0000000001
40
0
40
0
40
0
40
1
40
1
40
1
10
-12.354753999985324
20
3.2232118737778386
30
0
10
-11.904549389160739
20
3.5369906914314946
30
0
10
-11.41000637320386
20
3.5369906914314946
30
0
0
SPLINE
5
118
100
AcDbEntity
8
0
100
AcDbSpline
70
0
71
2
72
6
73
3
74
0
42
0.000000001
43
0.0000000001
44
0.0000000001
40
0
40
0
40
0
40
1
40
1
40
1
10
-11.41000637320386
20
3.5369906914314946
30
0
10
-10.755163221634493
20
3.5369906914314946
30
0
10
-10.304958610809908
20
3.0833755028328618
30
0
0
SPLINE
5
119
100
AcDbEntity
8
0
100
AcDbSpline
70
0
71
2
72
6
73
3
74
0
42
0.000000001
43
0.0000000001
44
0.0000000001
40
0
40
0
40
0
40
1
40
1
40
1
10
-10.304958610809908
20
3.0833755028328618
30
0
10
-9.8547539999853235
20
2.6297600162110051
30
0
10
-9.8547539999853235
20
1.9169358503899296
30
0
0
SPLINE
5
120
100
AcDbEntity
8
0
100
AcDbSpline
70
0
71
2
72
6
73
3
74
0
42
0.000000001
43
0.0000000001
44
0.0000000001
40
0
40
0
40
0
40
1
40
1
40
1
10
-9.8547539999853235
20
1.9169358503899296
30
0
10
-9.8547539999853235
20
1.238218356379005
30
0
10
-10.250388472355471
20
0.74367504239890247
30
0
0
SPLINE
5
121
100
AcDbEntity
8
0
100
AcDbSpline
70
0
71
2
72
6
73
3
74
0
42
0.000000001
43
0.0000000001
44
0.0000000001
40
0
40
0
40
0
40
1
40
1
40
1
10
-10.250388472355471
20
0.74367504239890247
30
0
10
-10.731288879192935
20
0.13658087373587646
30
0
10
-11.563485353268252
20
0.13658087373587646
30
0
0
SPLINE
5
122
100
AcDbEntity
8
0
100
AcDbSpline
70
0
71
2
72
6
73
3
74
0
42
0.000000001
43
0.0000000001
44
0.0000000001
40
0
40
0
40
0
40
1
40
1
40
1
10
-11.563485353268252
20
0.13658087373587646
30
0
10
-12.245613425053225
20
0.13658087373587646
30
0
10
-12.677059560097323
20
0.51857273698660888
30
0
0
SPLINE
5
123
100
AcDbEntity
8
0
100
AcDbSpline
70
0
71
2
72
6
73
3
74
0
42
0.000000001
43
0.0000000001
44
0.0000000001
40
0
40
0
40
0
40
1
40
1
40
1
10
-12.677059560097323
20
0.51857273698660888
30
0
10
-13.108505695141421
20
0.90056460023734131
30
0
10
-13.169897287167178
20
1.5315334093651489
30
0
0
LINE
5
124
100
AcDbEntity
8
0
100
AcDbLine
10
-8.1085056951414209
20
0.22184710622641712
30
0
11
-9.4864047458540064
21
3.8439480555138319
31
0
0
LINE
5
125
100
AcDbEntity
8
0
100
AcDbLine
10
-9.4864047458540064
20
3.8439480555138319
30
0
11
-8.8383830478559595
21
3.843948055513831
31
0
0
LINE
5
126
100
AcDbEntity
8
0
100
AcDbLine
10
-8.8383830478559595
20
3.843948055513831
30
0
11
-8.0607570102583033
21
1.6747800600609501
31
0
0
SPLINE
5
127
100
AcDbEntity
8
0
100
AcDbSpline
70
0
71
2
72
6
73
3
74
0
42
0.000000001
43
0.0000000001
44
0.0000000001
40
0
40
0
40
0
40
1
40
1
40
1
10
-8.0607570102583033
20
1.6747800600609508
30
0
10
-7.9345632484327417
20
1.3234839928230968
30
0
10
-7.8288329532514673
20
0.94490330339285999
30
0
0
SPLINE
5
128
100
AcDbEntity
8
0
100
AcDbSpline
70
0
71
2
72
6
73
3
74
0
42
0.000000001
43
0.0000000001
44
0.0000000001
40
0
40
0
40
0
40
1
40
1
40
1
10
-7.8288329532514673
20
0.94490330339285999
30
0
10
-7.7469778945814234
20
1.2313966047844616
30
0
10
-7.600320070065127
20
1.6338525307259288
30
0
0
LINE
5
129
100
AcDbEntity
8
0
100
AcDbLine
10
-7.600320070065127
20
1.6338525307259288
30
0
11
-6.7954088142286402
21
3.8439480555138319
31
0
0
LINE
5
130
100
AcDbEntity
8
0
100
AcDbLine
10
-6.7954088142286402
20
3.8439480555138319
30
0
11
-6.1644400051008326
21
3.8439480555138319
31
0
0
LINE
5
131
100
AcDbEntity
8
0
100
AcDbLine
10
-6.1644400051008326
20
3.8439480555138319
30
0
11
-7.5355179002653223
21
0.22184710622641712
31
0
0
LINE
5
132
100
AcDbEntity
8
0
100
AcDbLine
10
-7.5355179002653223
20
0.22184710622641712
30
0
11
-8.1085056951414209
21
0.22184710622641712
31
0
0
ENDSEC
0
SECTION
2
OBJECTS
0
DICTIONARY
5
C
100
AcDbDictionary
3
ACAD_GROUP
350
D
3
ACAD_MLINESTYLE
350
17
0
DICTIONARY
5
D
100
AcDbDictionary
0
DICTIONARY
5
1A
330
C
100
AcDbDictionary
0
DICTIONARY
5
17
100
AcDbDictionary
0
ENDSEC
0
EOF
