                                                                        S      1
,,8H608zz v2,8H608zz v2,7Hunknown,7Hunknown,32,38,7,99,15,,1.,2,2HMM,1, G      1
0.08,15H20250912.001547,0.01,10000.,7Hunknown,7Hunknown,11,0,15H20231106G      2
.192434;                                                                G      3
     186       1                                                00000000D      1
     186            -131       1       0                               0D      2
     514       2                                                00010000D      3
     514                       1       1                               0D      4
     510       3                                                00010000D      5
     510            -131       1       1                               0D      6
     510       4                                                00010000D      7
     510            -131       1       1                               0D      8
     510       5                                                00010000D      9
     510            -131       1       1                               0D     10
     510       6                                                00010000D     11
     510            -131       1       1                               0D     12
     510       7                                                00010000D     13
     510            -131       1       1                               0D     14
     510       8                                                00010000D     15
     510            -131       1       1                               0D     16
     510       9                                                00010000D     17
     510            -131       1       1                               0D     18
     510      10                                                00010000D     19
     510            -131       1       1                               0D     20
     510      11                                                00010000D     21
     510            -131       1       1                               0D     22
     510      12                                                00010000D     23
     510            -131       1       1                               0D     24
     510      13                                                00010000D     25
     510            -131       1       1                               0D     26
     510      14                                                00010000D     27
     510            -131       1       1                               0D     28
     508      15                                                00010000D     29
     508                       1       1                               0D     30
     508      16                                                00010000D     31
     508                       1       1                               0D     32
     508      17                                                00010000D     33
     508                       1       1                               0D     34
     508      18                                                00010000D     35
     508                       1       1                               0D     36
     508      19                                                00010000D     37
     508                       1       1                               0D     38
     508      20                                                00010000D     39
     508                       1       1                               0D     40
     508      21                                                00010000D     41
     508                       1       1                               0D     42
     508      22                                                00010000D     43
     508                       1       1                               0D     44
     508      23                                                00010000D     45
     508                       1       1                               0D     46
     508      24                                                00010000D     47
     508                       1       1                               0D     48
     508      25                                                00010000D     49
     508                       1       1                               0D     50
     508      26                                                00010000D     51
     508                       1       1                               0D     52
     508      27                                                00010000D     53
     508                       1       1                               0D     54
     508      28                                                00010000D     55
     508                       1       1                               0D     56
     508      29                                                00010000D     57
     508                       1       1                               0D     58
     508      30                                                00010000D     59
     508                       1       1                               0D     60
     508      31                                                00010000D     61
     508                       1       1                               0D     62
     508      32                                                00010000D     63
     508                       1       1                               0D     64
     126      33                                                00010000D     65
     126       0              12       0                               0D     66
     126      45                                                00010000D     67
     126       0               3       0                               0D     68
     126      48                                                00010000D     69
     126       0              13       0                               0D     70
     126      61                                                00010000D     71
     126       0              12       0                               0D     72
     126      73                                                00010000D     73
     126       0               3       0                               0D     74
     126      76                                                00010000D     75
     126       0              13       0                               0D     76
     126      89                                                00010000D     77
     126       0               9       0                               0D     78
     126      98                                                00010000D     79
     126       0               9       0                               0D     80
     126     107                                                00010000D     81
     126       0               2       0                               0D     82
     126     109                                                00010000D     83
     126       0              10       0                               0D     84
     126     119                                                00010000D     85
     126       0               9       0                               0D     86
     126     128                                                00010000D     87
     126       0               2       0                               0D     88
     126     130                                                00010000D     89
     126       0              10       0                               0D     90
     126     140                                                00010000D     91
     126       0               9       0                               0D     92
     126     149                                                00010000D     93
     126       0               9       0                               0D     94
     126     158                                                00010000D     95
     126       0               2       0                               0D     96
     126     160                                                00010000D     97
     126       0               9       0                               0D     98
     126     169                                                00010000D     99
     126       0               2       0                               0D    100
     128     171                                                00010000D    101
     128       0    -131      18       0                               0D    102
     128     189                                                00010000D    103
     128       0    -131      18       0                               0D    104
     128     207                                                00010000D    105
     128       0    -131       7       0                               0D    106
     128     214                                                00010000D    107
     128       0    -131       3       0                               0D    108
     128     217                                                00010000D    109
     128       0    -131      11       0                               0D    110
     128     228                                                00010000D    111
     128       0    -131      11       0                               0D    112
     128     239                                                00010000D    113
     128       0    -131       3       0                               0D    114
     128     242                                                00010000D    115
     128       0    -131       3       0                               0D    116
     128     245                                                00010000D    117
     128       0    -131      11       0                               0D    118
     128     256                                                00010000D    119
     128       0    -131      12       0                               0D    120
     128     268                                                00010000D    121
     128       0    -131       3       0                               0D    122
     128     271                                                00010000D    123
     128       0    -131       7       0                               0D    124
     502     278                                                00010000D    125
     502                       8       1                               0D    126
     504     286                                                00010001D    127
     504                       5       1                               0D    128
     406     291                                                00000000D    129
     406                       1      15                               0D    130
     314     292                                                00000200D    131
     314                       2       0                               0D    132
186,3,1,0,0,1,129;                                                     1P      1
514,12,5,1,7,1,9,1,11,1,13,1,15,1,17,1,19,1,21,1,23,1,25,1,27,1;       3P      2
510,101,1,1,29;                                                        5P      3
510,103,1,1,31;                                                        7P      4
510,105,2,1,33,35;                                                     9P      5
510,107,2,1,37,39;                                                    11P      6
510,109,1,1,41;                                                       13P      7
510,111,1,1,43;                                                       15P      8
510,113,2,1,45,47;                                                    17P      9
510,115,2,1,49,51;                                                    19P     10
510,117,1,1,53;                                                       21P     11
510,119,1,1,55;                                                       23P     12
510,121,2,1,57,59;                                                    25P     13
510,123,2,1,61,63;                                                    27P     14
508,4,0,127,1,0,0,0,127,2,1,0,0,127,3,1,0,0,127,2,0,0;                29P     15
508,4,0,127,4,0,0,0,127,5,1,0,0,127,6,1,0,0,127,5,0,0;                31P     16
508,1,0,127,6,0,0;                                                    33P     17
508,1,0,127,3,0,0;                                                    35P     18
508,1,0,127,7,0,0;                                                    37P     19
508,1,0,127,4,1,0;                                                    39P     20
508,4,0,127,8,0,0,0,127,9,1,0,0,127,10,1,0,0,127,9,0,0;               41P     21
508,4,0,127,11,0,0,0,127,12,1,0,0,127,13,1,0,0,127,12,0,0;            43P     22
508,1,0,127,13,0,0;                                                   45P     23
508,1,0,127,10,0,0;                                                   47P     24
508,1,0,127,14,1,0;                                                   49P     25
508,1,0,127,11,1,0;                                                   51P     26
508,4,0,127,15,0,0,0,127,16,1,0,0,127,17,1,0,0,127,16,0,0;            53P     27
508,4,0,127,14,0,0,0,127,18,1,0,0,127,7,1,0,0,127,18,0,0;             55P     28
508,1,0,127,8,1,0;                                                    57P     29
508,1,0,127,15,1,0;                                                   59P     30
508,1,0,127,1,1,0;                                                    61P     31
508,1,0,127,17,0,0;                                                   63P     32
126,8,2,0,1,0,0,-3.14159265358979,-3.14159265358979,                  65P     33
-3.14159265358979,-1.5707963267949,-1.5707963267949,0.,0.,            65P     34
1.5707963267949,1.5707963267949,3.14159265358979,                     65P     35
3.14159265358979,3.14159265358979,1.,0.707106781186548,1.,            65P     36
0.707106781186548,1.,0.707106781186548,1.,0.707106781186548,1.,       65P     37
-5.00000007450581,0.,-6.12323408698006D-16,-5.00000007450581,0.,      65P     38
-5.00000007450581,3.06161704349003D-16,0.,-5.00000007450581,          65P     39
5.00000007450581,0.,-5.00000007450581,5.00000007450581,0.,0.,         65P     40
5.00000007450581,0.,5.00000007450581,3.06161704349003D-16,0.,         65P     41
5.00000007450581,-5.00000007450581,0.,5.00000007450581,               65P     42
-5.00000007450581,0.,6.12323408698006D-16,-3.14159265358979,          65P     43
3.14159265358979,0.,0.,0.;                                            65P     44
126,1,1,0,0,1,0,0.,0.,0.00199999997019768,0.00199999997019768,        67P     45
1.,1.,-5.00000007450581,0.,0.,-5.00000007450581,0.01,0.,0.,           67P     46
0.00199999997019768,0.,0.,0.;                                         67P     47
126,8,2,0,1,0,0,-3.14159265358979,-3.14159265358979,                  69P     48
-3.14159265358979,-1.5707963267949,-1.5707963267949,0.,0.,            69P     49
1.5707963267949,1.5707963267949,3.14159265358979,                     69P     50
3.14159265358979,3.14159265358979,1.,0.707106781186548,1.,            69P     51
0.707106781186548,1.,0.707106781186548,1.,0.707106781186548,1.,       69P     52
-5.00000007450581,0.01,-6.12323408698006D-16,-5.00000007450581,       69P     53
0.01,-5.00000007450581,3.06161704349003D-16,0.01,                     69P     54
-5.00000007450581,5.00000007450581,0.01,-5.00000007450581,            69P     55
5.00000007450581,0.01,0.,5.00000007450581,0.01,5.00000007450581,      69P     56
3.06161704349003D-16,0.01,5.00000007450581,-5.00000007450581,         69P     57
0.01,5.00000007450581,-5.00000007450581,0.01,                         69P     58
6.12323408698006D-16,-3.14159265358979,3.14159265358979,0.,0.,        69P     59
0.;                                                                   69P     60
126,8,2,0,1,0,0,-3.14159265358979,-3.14159265358979,                  71P     61
-3.14159265358979,-1.5707963267949,-1.5707963267949,0.,0.,            71P     62
1.5707963267949,1.5707963267949,3.14159265358979,                     71P     63
3.14159265358979,3.14159265358979,1.,0.707106781186548,1.,            71P     64
0.707106781186548,1.,0.707106781186548,1.,0.707106781186548,1.,       71P     65
-10.0000001490116,0.,1.22464681739601D-15,-10.0000001490116,0.,       71P     66
10.0000001490116,6.12323408698006D-16,0.,10.0000001490116,            71P     67
10.0000001490116,0.,10.0000001490116,10.0000001490116,0.,0.,          71P     68
10.0000001490116,0.,-10.0000001490116,6.12323408698006D-16,0.,        71P     69
-10.0000001490116,-10.0000001490116,0.,-10.0000001490116,             71P     70
-10.0000001490116,0.,-1.22464681739601D-15,-3.14159265358979,         71P     71
3.14159265358979,0.,0.,0.;                                            71P     72
126,1,1,0,0,1,0,0.,0.,0.000999999985098839,0.000999999985098839,      73P     73
1.,1.,-10.0000001490116,0.,0.,-10.0000001490116,0.01,0.,0.,           73P     74
0.000999999985098839,0.,0.,0.;                                        73P     75
126,8,2,0,1,0,0,-3.14159265358979,-3.14159265358979,                  75P     76
-3.14159265358979,-1.5707963267949,-1.5707963267949,0.,0.,            75P     77
1.5707963267949,1.5707963267949,3.14159265358979,                     75P     78
3.14159265358979,3.14159265358979,1.,0.707106781186548,1.,            75P     79
0.707106781186548,1.,0.707106781186548,1.,0.707106781186548,1.,       75P     80
-10.0000001490116,0.01,1.22464681739601D-15,-10.0000001490116,        75P     81
0.01,10.0000001490116,6.12323408698006D-16,0.01,                      75P     82
10.0000001490116,10.0000001490116,0.01,10.0000001490116,              75P     83
10.0000001490116,0.01,0.,10.0000001490116,0.01,                       75P     84
-10.0000001490116,6.12323408698006D-16,0.01,-10.0000001490116,        75P     85
-10.0000001490116,0.01,-10.0000001490116,-10.0000001490116,0.01,      75P     86
-1.22464681739601D-15,-3.14159265358979,3.14159265358979,0.,0.,       75P     87
0.;                                                                   75P     88
126,8,2,0,1,0,0,-3.14159265358979,-3.14159265358979,                  77P     89
-3.14159265358979,-1.5707963267949,-1.5707963267949,0.,0.,            77P     90
1.5707963267949,1.5707963267949,3.14159265358979,                     77P     91
3.14159265358979,3.14159265358979,1.,0.707106781186548,1.,            77P     92
0.707106781186548,1.,0.707106781186548,1.,0.707106781186548,1.,       77P     93
-11.,0.,1.34711147906209D-15,-11.,0.,11.,6.73555739531044D-16,        77P     94
0.,11.,11.,0.,11.,11.,0.,0.,11.,0.,-11.,6.73555739531044D-16,0.,      77P     95
-11.,-11.,0.,-11.,-11.,0.,-1.34711147906209D-15,                      77P     96
-3.14159265358979,3.14159265358979,0.,0.,0.;                          77P     97
126,8,2,0,1,0,0,-3.14159265358979,-3.14159265358979,                  79P     98
-3.14159265358979,-1.5707963267949,-1.5707963267949,0.,0.,            79P     99
1.5707963267949,1.5707963267949,3.14159265358979,                     79P    100
3.14159265358979,3.14159265358979,1.,0.707106781186548,1.,            79P    101
0.707106781186548,1.,0.707106781186548,1.,0.707106781186548,1.,       79P    102
5.,7.,-6.12323399573677D-16,5.,7.,-5.,-3.06161699786838D-16,7.,       79P    103
-5.,-5.,7.,-5.,-5.,7.,0.,-5.,7.,5.,-3.06161699786838D-16,7.,5.,       79P    104
5.,7.,5.,5.,7.,6.12323399573677D-16,-3.14159265358979,                79P    105
3.14159265358979,0.,0.,0.;                                            79P    106
126,1,1,0,0,1,0,0.,0.,0.002,0.002,1.,1.,5.,7.,0.,5.,6.99,0.,0.,       81P    107
0.002,0.,0.,0.;                                                       81P    108
126,8,2,0,1,0,0,-3.14159265358979,-3.14159265358979,                  83P    109
-3.14159265358979,-1.5707963267949,-1.5707963267949,0.,0.,            83P    110
1.5707963267949,1.5707963267949,3.14159265358979,                     83P    111
3.14159265358979,3.14159265358979,1.,0.707106781186548,1.,            83P    112
0.707106781186548,1.,0.707106781186548,1.,0.707106781186548,1.,       83P    113
5.,6.99,-6.12323399573677D-16,5.,6.99,-5.,-3.06161699786838D-16,      83P    114
6.99,-5.,-5.,6.99,-5.,-5.,6.99,0.,-5.,6.99,5.,                        83P    115
-3.06161699786838D-16,6.99,5.,5.,6.99,5.,5.,6.99,                     83P    116
6.12323399573677D-16,-3.14159265358979,3.14159265358979,0.,0.,        83P    117
0.;                                                                   83P    118
126,8,2,0,1,0,0,-3.14159265358979,-3.14159265358979,                  85P    119
-3.14159265358979,-1.5707963267949,-1.5707963267949,0.,0.,            85P    120
1.5707963267949,1.5707963267949,3.14159265358979,                     85P    121
3.14159265358979,3.14159265358979,1.,0.707106781186548,1.,            85P    122
0.707106781186548,1.,0.707106781186548,1.,0.707106781186548,1.,       85P    123
10.,7.,1.22464679914735D-15,10.,7.,10.,-6.12323399573677D-16,7.,      85P    124
10.,-10.,7.,10.,-10.,7.,0.,-10.,7.,-10.,-6.12323399573677D-16,        85P    125
7.,-10.,10.,7.,-10.,10.,7.,-1.22464679914735D-15,                     85P    126
-3.14159265358979,3.14159265358979,0.,0.,0.;                          85P    127
126,1,1,0,0,1,0,0.,0.,0.001,0.001,1.,1.,10.,7.,0.,10.,6.99,0.,        87P    128
0.,0.001,0.,0.,0.;                                                    87P    129
126,8,2,0,1,0,0,-3.14159265358979,-3.14159265358979,                  89P    130
-3.14159265358979,-1.5707963267949,-1.5707963267949,0.,0.,            89P    131
1.5707963267949,1.5707963267949,3.14159265358979,                     89P    132
3.14159265358979,3.14159265358979,1.,0.707106781186548,1.,            89P    133
0.707106781186548,1.,0.707106781186548,1.,0.707106781186548,1.,       89P    134
10.,6.99,1.22464679914735D-15,10.,6.99,10.,                           89P    135
-6.12323399573677D-16,6.99,10.,-10.,6.99,10.,-10.,6.99,0.,-10.,       89P    136
6.99,-10.,-6.12323399573677D-16,6.99,-10.,10.,6.99,-10.,10.,          89P    137
6.99,-1.22464679914735D-15,-3.14159265358979,3.14159265358979,        89P    138
0.,0.,0.;                                                             89P    139
126,8,2,0,1,0,0,-3.14159265358979,-3.14159265358979,                  91P    140
-3.14159265358979,-1.5707963267949,-1.5707963267949,0.,0.,            91P    141
1.5707963267949,1.5707963267949,3.14159265358979,                     91P    142
3.14159265358979,3.14159265358979,1.,0.707106781186548,1.,            91P    143
0.707106781186548,1.,0.707106781186548,1.,0.707106781186548,1.,       91P    144
-11.,7.,1.34711147906209D-15,-11.,7.,11.,6.73555739531044D-16,        91P    145
7.,11.,11.,7.,11.,11.,7.,0.,11.,7.,-11.,6.73555739531044D-16,7.,      91P    146
-11.,-11.,7.,-11.,-11.,7.,-1.34711147906209D-15,                      91P    147
-3.14159265358979,3.14159265358979,0.,0.,0.;                          91P    148
126,8,2,0,1,0,0,-3.14159265358979,-3.14159265358979,                  93P    149
-3.14159265358979,-1.5707963267949,-1.5707963267949,0.,0.,            93P    150
1.5707963267949,1.5707963267949,3.14159265358979,                     93P    151
3.14159265358979,3.14159265358979,1.,0.707106781186548,1.,            93P    152
0.707106781186548,1.,0.707106781186548,1.,0.707106781186548,1.,       93P    153
-4.,7.,-4.89858719658941D-16,-4.,7.,-4.,2.44929359829471D-16,7.,      93P    154
-4.,4.,7.,-4.,4.,7.,0.,4.,7.,4.,2.44929359829471D-16,7.,4.,-4.,       93P    155
7.,4.,-4.,7.,4.89858719658941D-16,-3.14159265358979,                  93P    156
3.14159265358979,0.,0.,0.;                                            93P    157
126,1,1,0,0,1,0,-1.75,-1.75,0.,0.,1.,1.,-4.,7.,0.,-4.,0.,0.,          95P    158
-1.75,0.,0.,0.,0.;                                                    95P    159
126,8,2,0,1,0,0,-3.14159265358979,-3.14159265358979,                  97P    160
-3.14159265358979,-1.5707963267949,-1.5707963267949,0.,0.,            97P    161
1.5707963267949,1.5707963267949,3.14159265358979,                     97P    162
3.14159265358979,3.14159265358979,1.,0.707106781186548,1.,            97P    163
0.707106781186548,1.,0.707106781186548,1.,0.707106781186548,1.,       97P    164
-4.,0.,-4.89858719658941D-16,-4.,0.,-4.,2.44929359829471D-16,0.,      97P    165
-4.,4.,0.,-4.,4.,0.,0.,4.,0.,4.,2.44929359829471D-16,0.,4.,-4.,       97P    166
0.,4.,-4.,0.,4.89858719658941D-16,-3.14159265358979,                  97P    167
3.14159265358979,0.,0.,0.;                                            97P    168
126,1,1,0,0,1,0,-0.636363636363636,-0.636363636363636,0.,0.,1.,       99P    169
1.,-11.,7.,0.,-11.,0.,0.,-0.636363636363636,0.,0.,0.,0.;              99P    170
128,1,8,1,2,0,1,0,0,1,0.,0.,0.00199999997019768,                     101P    171
0.00199999997019768,-3.14159265358979,-3.14159265358979,             101P    172
-3.14159265358979,-1.5707963267949,-1.5707963267949,0.,0.,           101P    173
1.5707963267949,1.5707963267949,3.14159265358979,                    101P    174
3.14159265358979,3.14159265358979,1.,1.,0.707106781186548,           101P    175
0.707106781186548,1.,1.,0.707106781186548,0.707106781186548,1.,      101P    176
1.,0.707106781186548,0.707106781186548,1.,1.,0.707106781186548,      101P    177
0.707106781186548,1.,1.,-5.00000007450581,0.01,0.,                   101P    178
-5.00000007450581,0.,0.,-5.00000007450581,0.01,5.00000007450581,     101P    179
-5.00000007450581,0.,5.00000007450581,0.,0.01,5.00000007450581,      101P    180
0.,0.,5.00000007450581,5.00000007450581,0.01,5.00000007450581,       101P    181
5.00000007450581,0.,5.00000007450581,5.00000007450581,0.01,0.,       101P    182
5.00000007450581,0.,0.,5.00000007450581,0.01,-5.00000007450581,      101P    183
5.00000007450581,0.,-5.00000007450581,0.,0.01,-5.00000007450581,     101P    184
0.,0.,-5.00000007450581,-5.00000007450581,0.01,                      101P    185
-5.00000007450581,-5.00000007450581,0.,-5.00000007450581,            101P    186
-5.00000007450581,0.01,0.,-5.00000007450581,0.,0.,0.,                101P    187
0.00199999997019768,-3.14159265358979,3.14159265358979;              101P    188
128,1,8,1,2,0,1,0,0,1,0.,0.,0.000999999985098839,                    103P    189
0.000999999985098839,-3.14159265358979,-3.14159265358979,            103P    190
-3.14159265358979,-1.5707963267949,-1.5707963267949,0.,0.,           103P    191
1.5707963267949,1.5707963267949,3.14159265358979,                    103P    192
3.14159265358979,3.14159265358979,1.,1.,0.707106781186548,           103P    193
0.707106781186548,1.,1.,0.707106781186548,0.707106781186548,1.,      103P    194
1.,0.707106781186548,0.707106781186548,1.,1.,0.707106781186548,      103P    195
0.707106781186548,1.,1.,-10.0000001490116,0.,0.,                     103P    196
-10.0000001490116,0.01,0.,-10.0000001490116,0.,10.0000001490116,     103P    197
-10.0000001490116,0.01,10.0000001490116,0.,0.,10.0000001490116,      103P    198
0.,0.01,10.0000001490116,10.0000001490116,0.,10.0000001490116,       103P    199
10.0000001490116,0.01,10.0000001490116,10.0000001490116,0.,0.,       103P    200
10.0000001490116,0.01,0.,10.0000001490116,0.,-10.0000001490116,      103P    201
10.0000001490116,0.01,-10.0000001490116,0.,0.,-10.0000001490116,     103P    202
0.,0.01,-10.0000001490116,-10.0000001490116,0.,                      103P    203
-10.0000001490116,-10.0000001490116,0.01,-10.0000001490116,          103P    204
-10.0000001490116,0.,0.,-10.0000001490116,0.01,0.,0.,                103P    205
0.000999999985098839,-3.14159265358979,3.14159265358979;             103P    206
128,1,1,1,1,0,0,1,0,0,-1.00100001490116,-1.00100001490116,           105P    207
1.00100001490116,1.00100001490116,-1.00100001490116,                 105P    208
-1.00100001490116,1.00100001490116,1.00100001490116,1.,1.,1.,1.,     105P    209
-10.0100001490116,0.01,-10.0100001490116,10.0100001490116,0.01,      105P    210
-10.0100001490116,-10.0100001490116,0.01,10.0100001490116,           105P    211
10.0100001490116,0.01,10.0100001490116,-1.00100001490116,            105P    212
1.00100001490116,-1.00100001490116,1.00100001490116;                 105P    213
128,1,1,1,1,0,0,1,0,0,-1.101,-1.101,1.101,1.101,-1.101,-1.101,       107P    214
1.101,1.101,1.,1.,1.,1.,11.01,0.,11.01,-11.01,0.,11.01,11.01,0.,     107P    215
-11.01,-11.01,0.,-11.01,-1.101,1.101,-1.101,1.101;                   107P    216
128,1,8,1,2,0,1,0,0,1,0.,0.,0.002,0.002,-3.14159265358979,           109P    217
-3.14159265358979,-3.14159265358979,-1.5707963267949,                109P    218
-1.5707963267949,0.,0.,1.5707963267949,1.5707963267949,              109P    219
3.14159265358979,3.14159265358979,3.14159265358979,1.,1.,            109P    220
0.707106781186548,0.707106781186548,1.,1.,0.707106781186548,         109P    221
0.707106781186548,1.,1.,0.707106781186548,0.707106781186548,1.,      109P    222
1.,0.707106781186548,0.707106781186548,1.,1.,5.,6.99,0.,5.,7.,       109P    223
0.,5.,6.99,5.,5.,7.,5.,0.,6.99,5.,0.,7.,5.,-5.,6.99,5.,-5.,7.,       109P    224
5.,-5.,6.99,0.,-5.,7.,0.,-5.,6.99,-5.,-5.,7.,-5.,0.,6.99,-5.,0.,     109P    225
7.,-5.,5.,6.99,-5.,5.,7.,-5.,5.,6.99,0.,5.,7.,0.,0.,0.002,           109P    226
-3.14159265358979,3.14159265358979;                                  109P    227
128,1,8,1,2,0,1,0,0,1,0.,0.,0.001,0.001,-3.14159265358979,           111P    228
-3.14159265358979,-3.14159265358979,-1.5707963267949,                111P    229
-1.5707963267949,0.,0.,1.5707963267949,1.5707963267949,              111P    230
3.14159265358979,3.14159265358979,3.14159265358979,1.,1.,            111P    231
0.707106781186548,0.707106781186548,1.,1.,0.707106781186548,         111P    232
0.707106781186548,1.,1.,0.707106781186548,0.707106781186548,1.,      111P    233
1.,0.707106781186548,0.707106781186548,1.,1.,10.,7.,0.,10.,6.99,     111P    234
0.,10.,7.,10.,10.,6.99,10.,0.,7.,10.,0.,6.99,10.,-10.,7.,10.,        111P    235
-10.,6.99,10.,-10.,7.,0.,-10.,6.99,0.,-10.,7.,-10.,-10.,6.99,        111P    236
-10.,0.,7.,-10.,0.,6.99,-10.,10.,7.,-10.,10.,6.99,-10.,10.,7.,       111P    237
0.,10.,6.99,0.,0.,0.001,-3.14159265358979,3.14159265358979;          111P    238
128,1,1,1,1,0,0,1,0,0,-1.001,-1.001,1.001,1.001,-1.001,-1.001,       113P    239
1.001,1.001,1.,1.,1.,1.,10.01,6.99,-10.01,-10.01,6.99,-10.01,        113P    240
10.01,6.99,10.01,-10.01,6.99,10.01,-1.001,1.001,-1.001,1.001;        113P    241
128,1,1,1,1,0,0,1,0,0,-1.101,-1.101,1.101,1.101,-1.101,-1.101,       115P    242
1.101,1.101,1.,1.,1.,1.,-11.01,7.,11.01,11.01,7.,11.01,-11.01,       115P    243
7.,-11.01,11.01,7.,-11.01,-1.101,1.101,-1.101,1.101;                 115P    244
128,1,8,1,2,0,1,0,0,1,0.,0.,1.75,1.75,-3.14159265358979,             117P    245
-3.14159265358979,-3.14159265358979,-1.5707963267949,                117P    246
-1.5707963267949,0.,0.,1.5707963267949,1.5707963267949,              117P    247
3.14159265358979,3.14159265358979,3.14159265358979,1.,1.,            117P    248
0.707106781186548,0.707106781186548,1.,1.,0.707106781186548,         117P    249
0.707106781186548,1.,1.,0.707106781186548,0.707106781186548,1.,      117P    250
1.,0.707106781186548,0.707106781186548,1.,1.,-4.,0.,0.,-4.,7.,       117P    251
0.,-4.,0.,4.,-4.,7.,4.,0.,0.,4.,0.,7.,4.,4.,0.,4.,4.,7.,4.,4.,       117P    252
0.,0.,4.,7.,0.,4.,0.,-4.,4.,7.,-4.,0.,0.,-4.,0.,7.,-4.,-4.,0.,       117P    253
-4.,-4.,7.,-4.,-4.,0.,0.,-4.,7.,0.,0.,1.75,-3.14159265358979,        117P    254
3.14159265358979;                                                    117P    255
128,1,8,1,2,0,1,0,0,1,0.,0.,0.636363636363636,0.636363636363636,     119P    256
-3.14159265358979,-3.14159265358979,-3.14159265358979,               119P    257
-1.5707963267949,-1.5707963267949,0.,0.,1.5707963267949,             119P    258
1.5707963267949,3.14159265358979,3.14159265358979,                   119P    259
3.14159265358979,1.,1.,0.707106781186548,0.707106781186548,1.,       119P    260
1.,0.707106781186548,0.707106781186548,1.,1.,0.707106781186548,      119P    261
0.707106781186548,1.,1.,0.707106781186548,0.707106781186548,1.,      119P    262
1.,-11.,7.,0.,-11.,0.,0.,-11.,7.,11.,-11.,0.,11.,0.,7.,11.,0.,       119P    263
0.,11.,11.,7.,11.,11.,0.,11.,11.,7.,0.,11.,0.,0.,11.,7.,-11.,        119P    264
11.,0.,-11.,0.,7.,-11.,0.,0.,-11.,-11.,7.,-11.,-11.,0.,-11.,         119P    265
-11.,7.,0.,-11.,0.,0.,0.,0.636363636363636,-3.14159265358979,        119P    266
3.14159265358979;                                                    119P    267
128,1,1,1,1,0,0,1,0,0,-0.501,-0.501,0.501,0.501,-0.501,-0.501,       121P    268
0.501,0.501,1.,1.,1.,1.,-5.01,7.,5.01,5.01,7.,5.01,-5.01,7.,         121P    269
-5.01,5.01,7.,-5.01,-0.501,0.501,-0.501,0.501;                       121P    270
128,1,1,1,1,0,0,1,0,0,-0.501000007450581,-0.501000007450581,         123P    271
0.501000007450581,0.501000007450581,-0.501000007450581,              123P    272
-0.501000007450581,0.501000007450581,0.501000007450581,1.,1.,1.,     123P    273
1.,5.01000007450581,0.,5.01000007450581,-5.01000007450581,0.,        123P    274
5.01000007450581,5.01000007450581,0.,-5.01000007450581,              123P    275
-5.01000007450581,0.,-5.01000007450581,-0.501000007450581,           123P    276
0.501000007450581,-0.501000007450581,0.501000007450581;              123P    277
502,12,-5.00000007450581,0.,-6.12323408698006D-16,                   125P    278
-5.00000007450581,0.01,-6.12323408698006D-16,-10.0000001490116,      125P    279
0.,-1.22464681739601D-15,-10.0000001490116,0.01,                     125P    280
-1.22464681739601D-15,-11.,0.,1.34711147906209D-15,5.,7.,            125P    281
-6.12323399573677D-16,5.,6.99,-6.12323399573677D-16,10.,7.,          125P    282
-1.22464679914735D-15,10.,6.99,-1.22464679914735D-15,-11.,7.,        125P    283
1.34711147906209D-15,-4.,7.,4.89858719658941D-16,-4.,0.,             125P    284
4.89858719658941D-16;                                                125P    285
504,18,65,125,1,125,1,67,125,1,125,2,69,125,2,125,2,71,125,3,        127P    286
125,3,73,125,3,125,4,75,125,4,125,4,77,125,5,125,5,79,125,6,125,     127P    287
6,81,125,6,125,7,83,125,7,125,7,85,125,8,125,8,87,125,8,125,9,       127P    288
89,125,9,125,9,91,125,10,125,10,93,125,11,125,11,95,125,11,125,      127P    289
12,97,125,12,125,12,99,125,10,125,5;                                 127P    290
406,1,5HBody1;                                                       129P    291
314,62.7450980392157,62.7450980392157,62.7450980392157,13HSteel      131P    292
- Satin;                                                             131P    293
S      1G      3D    132P    293                                        T      1
