                                                                        S      1
,,15HSmall Button v6,15HSmall Button v6,7Hunknown,7Hunknown,32,38,7,99, G      1
15,,1.,2,2HMM,1,0.08,15H20250912.002715,0.01,10000.,7Hunknown,7Hunknown,G      2
11,0,15H20200524.113121;                                                G      3
     186       1                                                00000000D      1
     186            -323       1       0                               0D      2
     514       2                                                00010000D      3
     514                       3       1                               0D      4
     510       5                                                00010000D      5
     510            -323       1       1                               0D      6
     510       6                                                00010000D      7
     510            -323       1       1                               0D      8
     510       7                                                00010000D      9
     510            -323       1       1                               0D     10
     510       8                                                00010000D     11
     510            -323       1       1                               0D     12
     510       9                                                00010000D     13
     510            -323       1       1                               0D     14
     510      10                                                00010000D     15
     510            -323       1       1                               0D     16
     510      11                                                00010000D     17
     510            -323       1       1                               0D     18
     510      12                                                00010000D     19
     510            -323       1       1                               0D     20
     510      13                                                00010000D     21
     510            -323       1       1                               0D     22
     510      14                                                00010000D     23
     510            -323       1       1                               0D     24
     510      15                                                00010000D     25
     510            -323       1       1                               0D     26
     510      16                                                00010000D     27
     510            -323       1       1                               0D     28
     510      17                                                00010000D     29
     510            -323       1       1                               0D     30
     510      18                                                00010000D     31
     510            -323       1       1                               0D     32
     510      19                                                00010000D     33
     510            -323       1       1                               0D     34
     510      20                                                00010000D     35
     510            -323       1       1                               0D     36
     510      21                                                00010000D     37
     510            -323       1       1                               0D     38
     510      22                                                00010000D     39
     510            -323       1       1                               0D     40
     510      23                                                00010000D     41
     510            -323       1       1                               0D     42
     510      24                                                00010000D     43
     510            -323       1       1                               0D     44
     510      25                                                00010000D     45
     510            -323       1       1                               0D     46
     510      26                                                00010000D     47
     510            -323       1       1                               0D     48
     510      27                                                00010000D     49
     510            -323       1       1                               0D     50
     510      28                                                00010000D     51
     510            -323       1       1                               0D     52
     510      29                                                00010000D     53
     510            -323       1       1                               0D     54
     510      30                                                00010000D     55
     510            -323       1       1                               0D     56
     510      31                                                00010000D     57
     510            -323       1       1                               0D     58
     510      32                                                00010000D     59
     510            -323       1       1                               0D     60
     508      33                                                00010000D     61
     508                       1       1                               0D     62
     508      34                                                00010000D     63
     508                       1       1                               0D     64
     508      35                                                00010000D     65
     508                       2       1                               0D     66
     508      37                                                00010000D     67
     508                       1       1                               0D     68
     508      38                                                00010000D     69
     508                       1       1                               0D     70
     508      39                                                00010000D     71
     508                       1       1                               0D     72
     508      40                                                00010000D     73
     508                       2       1                               0D     74
     508      42                                                00010000D     75
     508                       1       1                               0D     76
     508      43                                                00010000D     77
     508                       1       1                               0D     78
     508      44                                                00010000D     79
     508                       1       1                               0D     80
     508      45                                                00010000D     81
     508                       2       1                               0D     82
     508      47                                                00010000D     83
     508                       1       1                               0D     84
     508      48                                                00010000D     85
     508                       1       1                               0D     86
     508      49                                                00010000D     87
     508                       2       1                               0D     88
     508      51                                                00010000D     89
     508                       1       1                               0D     90
     508      52                                                00010000D     91
     508                       1       1                               0D     92
     508      53                                                00010000D     93
     508                       2       1                               0D     94
     508      55                                                00010000D     95
     508                       2       1                               0D     96
     508      57                                                00010000D     97
     508                       1       1                               0D     98
     508      58                                                00010000D     99
     508                       1       1                               0D    100
     508      59                                                00010000D    101
     508                       1       1                               0D    102
     508      60                                                00010000D    103
     508                       1       1                               0D    104
     508      61                                                00010000D    105
     508                       1       1                               0D    106
     508      62                                                00010000D    107
     508                       1       1                               0D    108
     508      63                                                00010000D    109
     508                       3       1                               0D    110
     508      66                                                00010000D    111
     508                       3       1                               0D    112
     508      69                                                00010000D    113
     508                       1       1                               0D    114
     508      70                                                00010000D    115
     508                       1       1                               0D    116
     508      71                                                00010000D    117
     508                       2       1                               0D    118
     126      73                                                00010000D    119
     126       0               2       0                               0D    120
     126      75                                                00010000D    121
     126       0               2       0                               0D    122
     126      77                                                00010000D    123
     126       0               2       0                               0D    124
     126      79                                                00010000D    125
     126       0               2       0                               0D    126
     126      81                                                00010000D    127
     126       0               2       0                               0D    128
     126      83                                                00010000D    129
     126       0               2       0                               0D    130
     126      85                                                00010000D    131
     126       0               2       0                               0D    132
     126      87                                                00010000D    133
     126       0               2       0                               0D    134
     126      89                                                00010000D    135
     126       0               2       0                               0D    136
     126      91                                                00010000D    137
     126       0               2       0                               0D    138
     126      93                                                00010000D    139
     126       0               2       0                               0D    140
     126      95                                                00010000D    141
     126       0               2       0                               0D    142
     126      97                                                00010000D    143
     126       0               2       0                               0D    144
     126      99                                                00010000D    145
     126       0               2       0                               0D    146
     126     101                                                00010000D    147
     126       0               3       0                               0D    148
     126     104                                                00010000D    149
     126       0               2       0                               0D    150
     126     106                                                00010000D    151
     126       0               3       0                               0D    152
     126     109                                                00010000D    153
     126       0               2       0                               0D    154
     126     111                                                00010000D    155
     126       0               2       0                               0D    156
     126     113                                                00010000D    157
     126       0               2       0                               0D    158
     126     115                                                00010000D    159
     126       0               2       0                               0D    160
     126     117                                                00010000D    161
     126       0               2       0                               0D    162
     126     119                                                00010000D    163
     126       0               2       0                               0D    164
     126     121                                                00010000D    165
     126       0               3       0                               0D    166
     126     124                                                00010000D    167
     126       0               4       0                               0D    168
     126     128                                                00010000D    169
     126       0               3       0                               0D    170
     126     131                                                00010000D    171
     126       0               2       0                               0D    172
     126     133                                                00010000D    173
     126       0               2       0                               0D    174
     126     135                                                00010000D    175
     126       0               3       0                               0D    176
     126     138                                                00010000D    177
     126       0               2       0                               0D    178
     126     140                                                00010000D    179
     126       0               2       0                               0D    180
     126     142                                                00010000D    181
     126       0               2       0                               0D    182
     126     144                                                00010000D    183
     126       0               2       0                               0D    184
     126     146                                                00010000D    185
     126       0               2       0                               0D    186
     126     148                                                00010000D    187
     126       0               2       0                               0D    188
     126     150                                                00010000D    189
     126       0               2       0                               0D    190
     126     152                                                00010000D    191
     126       0               2       0                               0D    192
     126     154                                                00010000D    193
     126       0               2       0                               0D    194
     126     156                                                00010000D    195
     126       0               2       0                               0D    196
     126     158                                                00010000D    197
     126       0               2       0                               0D    198
     126     160                                                00010000D    199
     126       0               2       0                               0D    200
     126     162                                                00010000D    201
     126       0               2       0                               0D    202
     126     164                                                00010000D    203
     126       0               2       0                               0D    204
     126     166                                                00010000D    205
     126       0               2       0                               0D    206
     126     168                                                00010000D    207
     126       0               2       0                               0D    208
     126     170                                                00010000D    209
     126       0               2       0                               0D    210
     126     172                                                00010000D    211
     126       0               2       0                               0D    212
     126     174                                                00010000D    213
     126       0               2       0                               0D    214
     126     176                                                00010000D    215
     126       0               2       0                               0D    216
     126     178                                                00010000D    217
     126       0               3       0                               0D    218
     126     181                                                00010000D    219
     126       0               2       0                               0D    220
     126     183                                                00010000D    221
     126       0               3       0                               0D    222
     126     186                                                00010000D    223
     126       0               2       0                               0D    224
     126     188                                                00010000D    225
     126       0               2       0                               0D    226
     126     190                                                00010000D    227
     126       0               2       0                               0D    228
     126     192                                                00010000D    229
     126       0               2       0                               0D    230
     126     194                                                00010000D    231
     126       0               2       0                               0D    232
     126     196                                                00010000D    233
     126       0               3       0                               0D    234
     126     199                                                00010000D    235
     126       0               2       0                               0D    236
     126     201                                                00010000D    237
     126       0               2       0                               0D    238
     126     203                                                00010000D    239
     126       0               3       0                               0D    240
     126     206                                                00010000D    241
     126       0               2       0                               0D    242
     126     208                                                00010000D    243
     126       0               2       0                               0D    244
     126     210                                                00010000D    245
     126       0               2       0                               0D    246
     126     212                                                00010000D    247
     126       0               8       0                               0D    248
     126     220                                                00010000D    249
     126       0               2       0                               0D    250
     126     222                                                00010000D    251
     126       0               8       0                               0D    252
     126     230                                                00010000D    253
     126       0               2       0                               0D    254
     126     232                                                00010000D    255
     126       0               2       0                               0D    256
     126     234                                                00010000D    257
     126       0               2       0                               0D    258
     126     236                                                00010000D    259
     126       0               2       0                               0D    260
     128     238                                                00010000D    261
     128       0    -323       3       0                               0D    262
     128     241                                                00010000D    263
     128       0    -323       3       0                               0D    264
     128     244                                                00010000D    265
     128       0    -323       3       0                               0D    266
     128     247                                                00010000D    267
     128       0    -323       3       0                               0D    268
     128     250                                                00010000D    269
     128       0    -323       3       0                               0D    270
     128     253                                                00010000D    271
     128       0    -323       5       0                               0D    272
     128     258                                                00010000D    273
     128       0    -323       4       0                               0D    274
     128     262                                                00010000D    275
     128       0    -323       4       0                               0D    276
     128     266                                                00010000D    277
     128       0    -323       4       0                               0D    278
     128     270                                                00010000D    279
     128       0    -323       5       0                               0D    280
     128     275                                                00010000D    281
     128       0    -323       3       0                               0D    282
     128     278                                                00010000D    283
     128       0    -323       3       0                               0D    284
     128     281                                                00010000D    285
     128       0    -323       3       0                               0D    286
     128     284                                                00010000D    287
     128       0    -323       3       0                               0D    288
     128     287                                                00010000D    289
     128       0    -323       3       0                               0D    290
     128     290                                                00010000D    291
     128       0    -323       4       0                               0D    292
     128     294                                                00010000D    293
     128       0    -323       3       0                               0D    294
     128     297                                                00010000D    295
     128       0    -323       4       0                               0D    296
     128     301                                                00010000D    297
     128       0    -323       4       0                               0D    298
     128     305                                                00010000D    299
     128       0    -323       4       0                               0D    300
     128     309                                                00010000D    301
     128       0    -323       5       0                               0D    302
     128     314                                                00010000D    303
     128       0    -323       5       0                               0D    304
     128     319                                                00010000D    305
     128       0    -323      12       0                               0D    306
     128     331                                                00010000D    307
     128       0    -323       3       0                               0D    308
     128     334                                                00010000D    309
     128       0    -323       3       0                               0D    310
     128     337                                                00010000D    311
     128       0    -323       3       0                               0D    312
     128     340                                                00010000D    313
     128       0    -323       3       0                               0D    314
     128     343                                                00010000D    315
     128       0    -323       3       0                               0D    316
     502     346                                                00010000D    317
     502                      11       1                               0D    318
     504     357                                                00010001D    319
     504                      20       1                               0D    320
     406     377                                                00000000D    321
     406                       1      15                               0D    322
     314     378                                                00000200D    323
     314                       2       0                               0D    324
186,3,1,0,0,1,321;                                                     1P      1
514,28,5,1,7,1,9,1,11,1,13,1,15,1,17,1,19,1,21,1,23,1,25,1,27,1,       3P      2
29,1,31,1,33,1,35,1,37,1,39,1,41,1,43,1,45,1,47,1,49,1,51,1,53,        3P      3
1,55,1,57,1,59,1;                                                      3P      4
510,261,1,1,61;                                                        5P      5
510,263,1,1,63;                                                        7P      6
510,265,1,1,65;                                                        9P      7
510,267,1,1,67;                                                       11P      8
510,269,1,1,69;                                                       13P      9
510,271,1,1,71;                                                       15P     10
510,273,1,1,73;                                                       17P     11
510,275,1,1,75;                                                       19P     12
510,277,1,1,77;                                                       21P     13
510,279,1,1,79;                                                       23P     14
510,281,1,1,81;                                                       25P     15
510,283,1,1,83;                                                       27P     16
510,285,1,1,85;                                                       29P     17
510,287,1,1,87;                                                       31P     18
510,289,1,1,89;                                                       33P     19
510,291,1,1,91;                                                       35P     20
510,293,1,1,93;                                                       37P     21
510,295,1,1,95;                                                       39P     22
510,297,1,1,97;                                                       41P     23
510,299,1,1,99;                                                       43P     24
510,301,1,1,101;                                                      45P     25
510,303,1,1,103;                                                      47P     26
510,305,1,1,105;                                                      49P     27
510,307,1,1,107;                                                      51P     28
510,309,1,1,109;                                                      53P     29
510,311,1,1,111;                                                      55P     30
510,313,2,1,113,115;                                                  57P     31
510,315,1,1,117;                                                      59P     32
508,4,0,319,1,0,0,0,319,2,1,0,0,319,3,1,0,0,319,4,0,0;                61P     33
508,4,0,319,5,1,0,0,319,6,1,0,0,319,7,1,0,0,319,8,0,0;                63P     34
508,5,0,319,9,1,0,0,319,10,0,0,0,319,4,1,0,0,319,11,1,0,0,319,6,      65P     35
0,0;                                                                  65P     36
508,4,0,319,11,0,0,0,319,3,0,0,0,319,12,0,0,0,319,7,0,0;              67P     37
508,4,0,319,13,1,0,0,319,9,0,0,0,319,5,0,0,0,319,14,0,0;              69P     38
508,4,0,319,15,1,0,0,319,16,1,0,0,319,17,1,0,0,319,18,1,0;            71P     39
508,5,0,319,18,0,0,0,319,19,1,0,0,319,20,1,0,0,319,21,0,0,0,319,      73P     40
22,0,0;                                                               73P     41
508,4,0,319,17,0,0,0,319,23,1,0,0,319,24,1,0,0,319,19,0,0;            75P     42
508,4,0,319,25,0,0,0,319,21,1,0,0,319,26,1,0,0,319,27,0,0;            77P     43
508,4,0,319,26,0,0,0,319,20,0,0,0,319,24,0,0,0,319,28,0,0;            79P     44
508,8,0,319,10,1,0,0,319,29,1,0,0,319,22,1,0,0,319,25,1,0,0,319,      81P     45
30,1,0,0,319,31,0,0,0,319,32,0,0,0,319,1,1,0;                         81P     46
508,4,0,319,33,0,0,0,319,34,1,0,0,319,35,0,0,0,319,36,0,0;            83P     47
508,4,0,319,37,0,0,0,319,38,1,0,0,319,39,0,0,0,319,40,0,0;            85P     48
508,5,0,319,41,0,0,0,319,40,1,0,0,319,42,0,0,0,319,34,0,0,0,319,      87P     49
43,0,0;                                                               87P     50
508,4,0,319,42,1,0,0,319,39,1,0,0,319,44,1,0,0,319,35,1,0;            89P     51
508,4,0,319,45,1,0,0,319,46,1,0,0,319,37,1,0,0,319,41,1,0;            91P     52
508,8,0,319,43,1,0,0,319,33,1,0,0,319,47,1,0,0,319,48,0,0,0,319,      93P     53
49,0,0,0,319,50,1,0,0,319,51,1,0,0,319,52,1,0;                        93P     54
508,5,0,319,53,1,0,0,319,51,0,0,0,319,54,1,0,0,319,55,0,0,0,319,      95P     55
56,0,0;                                                               95P     56
508,4,0,319,57,1,0,0,319,56,1,0,0,319,58,0,0,0,319,59,0,0;            97P     57
508,4,0,319,50,0,0,0,319,60,1,0,0,319,61,0,0,0,319,54,0,0;            99P     58
508,4,0,319,61,1,0,0,319,62,1,0,0,319,58,1,0,0,319,55,1,0;           101P     59
508,4,0,319,63,1,0,0,319,53,0,0,0,319,57,0,0,0,319,64,0,0;           103P     60
508,4,0,319,65,0,0,0,319,66,1,0,0,319,67,0,0,0,319,66,0,0;           105P     61
508,1,0,319,65,1,0;                                                  107P     62
508,12,0,319,68,1,0,0,319,64,1,0,0,319,59,1,0,0,319,62,0,0,0,        109P     63
319,60,0,0,0,319,49,1,0,0,319,69,0,0,0,319,30,0,0,0,319,27,1,0,      109P     64
0,319,28,1,0,0,319,23,0,0,0,319,16,0,0;                              109P     65
508,12,0,319,70,1,0,0,319,14,1,0,0,319,8,1,0,0,319,12,1,0,0,319,     111P     66
2,0,0,0,319,32,1,0,0,319,71,0,0,0,319,47,0,0,0,319,36,1,0,0,319,     111P     67
44,0,0,0,319,38,0,0,0,319,46,0,0;                                    111P     68
508,4,0,319,48,1,0,0,319,71,1,0,0,319,31,1,0,0,319,69,1,0;           113P     69
508,1,0,319,67,1,0;                                                  115P     70
508,8,0,319,63,0,0,0,319,68,0,0,0,319,15,0,0,0,319,29,0,0,0,319,     117P     71
13,0,0,0,319,70,0,0,0,319,45,0,0,0,319,52,0,0;                       117P     72
126,1,1,0,0,1,0,0.,0.,0.19,0.19,1.,1.,-7.,2.5,0.,-7.,2.5,1.9,0.,     119P     73
0.19,0.,0.,0.;                                                       119P     74
126,1,1,0,0,1,0,0.,0.,0.16,0.16,1.,1.,-7.,2.5,0.,-8.6,2.5,0.,0.,     121P     75
0.16,0.,0.,0.;                                                       121P     76
126,1,1,0,0,1,0,-0.19,-0.19,0.,0.,1.,1.,-8.6,2.5,0.,-8.6,2.5,        123P     77
1.9,-0.19,0.,0.,0.,0.;                                               123P     78
126,1,1,0,0,1,0,0.,0.,0.16,0.16,1.,1.,-7.,2.5,1.9,-8.6,2.5,1.9,      125P     79
0.,0.16,0.,0.,0.;                                                    125P     80
126,1,1,0,0,1,0,0.,0.,0.19,0.19,1.,1.,-7.,-1.,0.,-7.,-1.,1.9,0.,     127P     81
0.19,0.,0.,0.;                                                       127P     82
126,1,1,0,0,1,0,0.,0.,0.16,0.16,1.,1.,-7.,-1.,1.9,-8.6,-1.,1.9,      129P     83
0.,0.16,0.,0.,0.;                                                    129P     84
126,1,1,0,0,1,0,-0.19,-0.19,0.,0.,1.,1.,-8.6,-1.,1.9,-8.6,-1.,       131P     85
0.,-0.19,0.,0.,0.,0.;                                                131P     86
126,1,1,0,0,1,0,0.,0.,0.16,0.16,1.,1.,-7.,-1.,0.,-8.6,-1.,0.,0.,     133P     87
0.16,0.,0.,0.;                                                       133P     88
126,1,1,0,0,1,0,0.,0.,0.1,0.1,1.,1.,-7.,-1.,1.9,-7.,0.,1.9,0.,       135P     89
0.1,0.,0.,0.;                                                        135P     90
126,1,1,0,0,1,0,-0.125,-0.125,0.125,0.125,1.,1.,-7.,2.5,1.9,-7.,     137P     91
0.,1.9,-0.125,0.125,0.,0.,0.;                                        137P     92
126,1,1,0,0,1,0,-0.35,-0.35,0.,0.,1.,1.,-8.6,2.5,1.9,-8.6,-1.,       139P     93
1.9,-0.35,0.,0.,0.,0.;                                               139P     94
126,1,1,0,0,1,0,-0.35,-0.35,0.,0.,1.,1.,-8.6,-1.,0.,-8.6,2.5,0.,     141P     95
-0.35,0.,0.,0.,0.;                                                   141P     96
126,1,1,0,0,1,0,0.,0.,0.19,0.19,1.,1.,-7.,0.,0.,-7.,0.,1.9,0.,       143P     97
0.19,0.,0.,0.;                                                       143P     98
126,1,1,0,0,1,0,0.25,0.25,0.35,0.35,1.,1.,-7.,0.,0.,-7.,-1.,0.,      145P     99
0.25,0.35,0.,0.,0.;                                                  145P    100
126,1,1,0,0,1,0,0.509999989941716,0.509999989941716,0.7,0.7,1.,      147P    101
1.,-7.,0.,5.09999989941716,-7.,0.,7.,0.509999989941716,0.7,0.,       147P    102
0.,0.;                                                               147P    103
126,1,1,0,0,1,0,0.25,0.25,0.35,0.35,1.,1.,-7.,0.,7.,-7.,-1.,7.,      149P    104
0.25,0.35,0.,0.,0.;                                                  149P    105
126,1,1,0,0,1,0,0.,0.,0.190000010058284,0.190000010058284,1.,1.,     151P    106
-7.,-1.,7.,-7.,-1.,5.09999989941716,0.,0.190000010058284,0.,0.,      151P    107
0.;                                                                  151P    108
126,1,1,0,0,1,0,0.,0.,0.1,0.1,1.,1.,-7.,-1.,5.09999989941716,        153P    109
-7.,0.,5.09999989941716,0.,0.1,0.,0.,0.;                             153P    110
126,1,1,0,0,1,0,0.,0.,0.16,0.16,1.,1.,-7.,-1.,5.09999989941716,      155P    111
-8.6,-1.,5.09999989941716,0.,0.16,0.,0.,0.;                          155P    112
126,1,1,0,0,1,0,0.,0.,0.35,0.35,1.,1.,-8.6,-1.,5.09999989941716,     157P    113
-8.6,2.5,5.09999989941716,0.,0.35,0.,0.,0.;                          157P    114
126,1,1,0,0,1,0,0.,0.,0.16,0.16,1.,1.,-7.,2.5,5.09999989941716,      159P    115
-8.6,2.5,5.09999989941716,0.,0.16,0.,0.,0.;                          159P    116
126,1,1,0,0,1,0,0.05,0.05,0.3,0.3,1.,1.,-7.,0.,5.09999989941716,     161P    117
-7.,2.5,5.09999989941716,0.05,0.3,0.,0.,0.;                          161P    118
126,1,1,0,0,1,0,0.,0.,0.16,0.16,1.,1.,-7.,-1.,7.,-8.6,-1.,7.,0.,     163P    119
0.16,0.,0.,0.;                                                       163P    120
126,1,1,0,0,1,0,0.,0.,0.190000010058284,0.190000010058284,1.,1.,     165P    121
-8.6,-1.,7.,-8.6,-1.,5.09999989941716,0.,0.190000010058284,0.,       165P    122
0.,0.;                                                               165P    123
126,1,1,0,0,1,0,0.254999994970858,0.254999994970858,                 167P    124
0.445000005029142,0.445000005029142,1.,1.,-7.,2.5,                   167P    125
5.09999989941716,-7.,2.5,7.,0.254999994970858,0.445000005029142,     167P    126
0.,0.,0.;                                                            167P    127
126,1,1,0,0,1,0,0.,0.,0.190000010058284,0.190000010058284,1.,1.,     169P    128
-8.6,2.5,5.09999989941716,-8.6,2.5,7.,0.,0.190000010058284,0.,       169P    129
0.,0.;                                                               169P    130
126,1,1,0,0,1,0,0.,0.,0.16,0.16,1.,1.,-7.,2.5,7.,-8.6,2.5,7.,0.,     171P    131
0.16,0.,0.,0.;                                                       171P    132
126,1,1,0,0,1,0,0.,0.,0.35,0.35,1.,1.,-8.6,2.5,7.,-8.6,-1.,7.,       173P    133
0.,0.35,0.,0.,0.;                                                    173P    134
126,1,1,0,0,1,0,0.19,0.19,0.509999989941716,0.509999989941716,       175P    135
1.,1.,-7.,0.,1.9,-7.,0.,5.09999989941716,0.19,0.509999989941716,     175P    136
0.,0.,0.;                                                            175P    137
126,1,1,0,0,1,0,0.25,0.25,0.4,0.4,1.,1.,-7.,2.5,7.,-7.,4.,7.,        177P    138
0.25,0.4,0.,0.,0.;                                                   177P    139
126,1,1,0,0,1,0,0.,0.,0.7,0.7,1.,1.,-7.,4.,0.,-7.,4.,7.,0.,0.7,      179P    140
0.,0.,0.;                                                            179P    141
126,1,1,0,0,1,0,0.25,0.25,0.4,0.4,1.,1.,-7.,2.5,0.,-7.,4.,0.,        181P    142
0.25,0.4,0.,0.,0.;                                                   181P    143
126,1,1,0,0,1,0,0.16,0.16,0.35,0.35,1.,1.,0.,2.5,1.9,0.,2.5,0.,      183P    144
0.16,0.35,0.,0.,0.;                                                  183P    145
126,1,1,0,0,1,0,0.,0.,0.16,0.16,1.,1.,0.,2.5,1.9,1.6,2.5,1.9,0.,     185P    146
0.16,0.,0.,0.;                                                       185P    147
126,1,1,0,0,1,0,-0.19,-0.19,0.,0.,1.,1.,1.6,2.5,0.,1.6,2.5,1.9,      187P    148
-0.19,0.,0.,0.,0.;                                                   187P    149
126,1,1,0,0,1,0,0.,0.,0.16,0.16,1.,1.,0.,2.5,0.,1.6,2.5,0.,0.,       189P    150
0.16,0.,0.,0.;                                                       189P    151
126,1,1,0,0,1,0,0.,0.,0.19,0.19,1.,1.,0.,-1.,0.,0.,-1.,1.9,0.,       191P    152
0.19,0.,0.,0.;                                                       191P    153
126,1,1,0,0,1,0,0.,0.,0.16,0.16,1.,1.,0.,-1.,0.,1.6,-1.,0.,0.,       193P    154
0.16,0.,0.,0.;                                                       193P    155
126,1,1,0,0,1,0,-0.19,-0.19,0.,0.,1.,1.,1.6,-1.,1.9,1.6,-1.,0.,      195P    156
-0.19,0.,0.,0.,0.;                                                   195P    157
126,1,1,0,0,1,0,0.,0.,0.16,0.16,1.,1.,0.,-1.,1.9,1.6,-1.,1.9,0.,     197P    158
0.16,0.,0.,0.;                                                       197P    159
126,1,1,0,0,1,0,0.,0.,0.1,0.1,1.,1.,0.,-1.,1.9,0.,0.,1.9,0.,0.1,     199P    160
0.,0.,0.;                                                            199P    161
126,1,1,0,0,1,0,-0.35,-0.35,0.,0.,1.,1.,1.6,2.5,1.9,1.6,-1.,1.9,     201P    162
-0.35,0.,0.,0.,0.;                                                   201P    163
126,1,1,0,0,1,0,-0.125,-0.125,0.125,0.125,1.,1.,0.,0.,1.9,0.,        203P    164
2.5,1.9,-0.125,0.125,0.,0.,0.;                                       203P    165
126,1,1,0,0,1,0,-0.35,-0.35,0.,0.,1.,1.,1.6,-1.,0.,1.6,2.5,0.,       205P    166
-0.35,0.,0.,0.,0.;                                                   205P    167
126,1,1,0,0,1,0,0.51,0.51,0.7,0.7,1.,1.,0.,0.,1.9,0.,0.,0.,0.51,     207P    168
0.7,0.,0.,0.;                                                        207P    169
126,1,1,0,0,1,0,0.25,0.25,0.35,0.35,1.,1.,0.,0.,0.,0.,-1.,0.,        209P    170
0.25,0.35,0.,0.,0.;                                                  209P    171
126,1,1,0,0,1,0,0.25,0.25,0.4,0.4,1.,1.,0.,2.5,0.,0.,4.,0.,0.25,     211P    172
0.4,0.,0.,0.;                                                        211P    173
126,1,1,0,0,1,0,0.,0.,0.7,0.7,1.,1.,0.,4.,7.,0.,4.,0.,0.,0.7,0.,     213P    174
0.,0.;                                                               213P    175
126,1,1,0,0,1,0,0.25,0.25,0.4,0.4,1.,1.,0.,2.5,7.,0.,4.,7.,0.25,     215P    176
0.4,0.,0.,0.;                                                        215P    177
126,1,1,0,0,1,0,-0.095000005029142,-0.095000005029142,               217P    178
0.095000005029142,0.095000005029142,1.,1.,0.,2.5,7.,0.,2.5,          217P    179
5.09999989941716,-0.095000005029142,0.095000005029142,0.,0.,0.;      217P    180
126,1,1,0,0,1,0,-0.3,-0.3,-0.05,-0.05,1.,1.,0.,2.5,                  219P    181
5.09999989941716,0.,0.,5.09999989941716,-0.3,-0.05,0.,0.,0.;         219P    182
126,1,1,0,0,1,0,0.190000010058284,0.190000010058284,0.51,0.51,       221P    183
1.,1.,0.,0.,5.09999989941716,0.,0.,1.9,0.190000010058284,0.51,       221P    184
0.,0.,0.;                                                            221P    185
126,1,1,0,0,1,0,0.,0.,0.1,0.1,1.,1.,0.,-1.,5.09999989941716,0.,      223P    186
0.,5.09999989941716,0.,0.1,0.,0.,0.;                                 223P    187
126,1,1,0,0,1,0,0.,0.,0.16,0.16,1.,1.,0.,2.5,5.09999989941716,       225P    188
1.6,2.5,5.09999989941716,0.,0.16,0.,0.,0.;                           225P    189
126,1,1,0,0,1,0,0.,0.,0.35,0.35,1.,1.,1.6,-1.,5.09999989941716,      227P    190
1.6,2.5,5.09999989941716,0.,0.35,0.,0.,0.;                           227P    191
126,1,1,0,0,1,0,0.,0.,0.16,0.16,1.,1.,0.,-1.,5.09999989941716,       229P    192
1.6,-1.,5.09999989941716,0.,0.16,0.,0.,0.;                           229P    193
126,1,1,0,0,1,0,0.,0.,0.190000010058284,0.190000010058284,1.,1.,     231P    194
0.,-1.,7.,0.,-1.,5.09999989941716,0.,0.190000010058284,0.,0.,0.;     231P    195
126,1,1,0,0,1,0,0.,0.,0.190000010058284,0.190000010058284,1.,1.,     233P    196
1.6,-1.,7.,1.6,-1.,5.09999989941716,0.,0.190000010058284,0.,0.,      233P    197
0.;                                                                  233P    198
126,1,1,0,0,1,0,0.,0.,0.16,0.16,1.,1.,0.,-1.,7.,1.6,-1.,7.,0.,       235P    199
0.16,0.,0.,0.;                                                       235P    200
126,1,1,0,0,1,0,0.,0.,0.16,0.16,1.,1.,0.,2.5,7.,1.6,2.5,7.,0.,       237P    201
0.16,0.,0.,0.;                                                       237P    202
126,1,1,0,0,1,0,0.,0.,0.190000010058284,0.190000010058284,1.,1.,     239P    203
1.6,2.5,5.09999989941716,1.6,2.5,7.,0.,0.190000010058284,0.,0.,      239P    204
0.;                                                                  239P    205
126,1,1,0,0,1,0,0.,0.,0.35,0.35,1.,1.,1.6,2.5,7.,1.6,-1.,7.,0.,      241P    206
0.35,0.,0.,0.;                                                       241P    207
126,1,1,0,0,1,0,0.,0.,0.190000010058284,0.190000010058284,1.,1.,     243P    208
0.,0.,7.,0.,0.,5.09999989941716,0.,0.190000010058284,0.,0.,0.;       243P    209
126,1,1,0,0,1,0,0.25,0.25,0.35,0.35,1.,1.,0.,0.,7.,0.,-1.,7.,        245P    210
0.25,0.35,0.,0.,0.;                                                  245P    211
126,8,2,0,1,0,0,-3.14159265358979,-3.14159265358979,                 247P    212
-3.14159265358979,-1.5707963267949,-1.5707963267949,0.,0.,           247P    213
1.5707963267949,1.5707963267949,3.14159265358979,                    247P    214
3.14159265358979,3.14159265358979,1.,0.707106781186547,1.,           247P    215
0.707106781186548,1.,0.707106781186549,1.,0.707106781186548,1.,      247P    216
-1.8,12.7,3.5,-1.8,12.7,1.8,-3.5,12.7,1.8,-5.2,12.7,1.8,-5.2,        247P    217
12.7,3.5,-5.2,12.7,5.2,-3.5,12.7,5.2,-1.8,12.7,5.2,-1.8,12.7,        247P    218
3.5,-3.14159265358979,3.14159265358979,0.,0.,0.;                     247P    219
126,1,1,0,0,1,0,-5.11764705882353,-5.11764705882353,0.,0.,1.,1.,     249P    220
-1.8,12.7,3.5,-1.8,4.,3.5,-5.11764705882353,0.,0.,0.,0.;             249P    221
126,8,2,0,1,0,0,-3.14159265358979,-3.14159265358979,                 251P    222
-3.14159265358979,-1.5707963267949,-1.5707963267949,0.,0.,           251P    223
1.5707963267949,1.5707963267949,3.14159265358979,                    251P    224
3.14159265358979,3.14159265358979,1.,0.707106781186548,1.,           251P    225
0.707106781186549,1.,0.707106781186548,1.,0.707106781186547,1.,      251P    226
-1.8,4.,3.5,-1.8,4.,5.2,-3.5,4.,5.2,-5.2,4.,5.2,-5.2,4.,3.5,         251P    227
-5.2,4.,1.8,-3.5,4.,1.8,-1.8,4.,1.8,-1.8,4.,3.5,                     251P    228
-3.14159265358979,3.14159265358979,0.,0.,0.;                         251P    229
126,1,1,0,0,1,0,0.,0.,0.7,0.7,1.,1.,-7.,0.,7.,0.,0.,7.,0.,0.7,       253P    230
0.,0.,0.;                                                            253P    231
126,1,1,0,0,1,0,0.,0.,0.7,0.7,1.,1.,-7.,4.,7.,0.,4.,7.,0.,0.7,       255P    232
0.,0.,0.;                                                            255P    233
126,1,1,0,0,1,0,0.,0.,0.7,0.7,1.,1.,0.,0.,0.,-7.,0.,0.,0.,0.7,       257P    234
0.,0.,0.;                                                            257P    235
126,1,1,0,0,1,0,0.,0.,0.7,0.7,1.,1.,0.,4.,0.,-7.,4.,0.,0.,0.7,       259P    236
0.,0.,0.;                                                            259P    237
128,1,1,1,1,0,0,1,0,0,-0.001,-0.001,0.191,0.191,-0.001,-0.001,       261P    238
0.161,0.161,1.,1.,1.,1.,-6.99,2.5,1.91,-6.99,2.5,-0.01,-8.61,        261P    239
2.5,1.91,-8.61,2.5,-0.01,-0.001,0.191,-0.001,0.161;                  261P    240
128,1,1,1,1,0,0,1,0,0,-0.001,-0.001,0.191,0.191,-0.001,-0.001,       263P    241
0.161,0.161,1.,1.,1.,1.,-6.99,-1.,-0.01,-6.99,-1.,1.91,-8.61,        263P    242
-1.,-0.01,-8.61,-1.,1.91,-0.001,0.191,-0.001,0.161;                  263P    243
128,1,1,1,1,0,0,1,0,0,-0.001,-0.001,0.351,0.351,-0.001,-0.001,       265P    244
0.161,0.161,1.,1.,1.,1.,-6.99,-1.01,1.9,-6.99,2.51,1.9,-8.61,        265P    245
-1.01,1.9,-8.61,2.51,1.9,-0.001,0.351,-0.001,0.161;                  265P    246
128,1,1,1,1,0,0,1,0,0,-0.096,-0.096,0.096,0.096,-0.176,-0.176,       267P    247
0.176,0.176,1.,1.,1.,1.,-8.6,-1.01,-0.01,-8.6,-1.01,1.91,-8.6,       267P    248
2.51,-0.01,-8.6,2.51,1.91,-0.096,0.096,-0.176,0.176;                 267P    249
128,1,1,1,1,0,0,1,0,0,-0.176,-0.176,-0.074,-0.074,-0.096,-0.096,     269P    250
0.096,0.096,1.,1.,1.,1.,-7.,-1.01,-0.01,-7.,0.01,-0.01,-7.,          269P    251
-1.01,1.91,-7.,0.01,1.91,-0.176,-0.074,-0.096,0.096;                 269P    252
128,1,1,1,1,0,0,1,0,0,-0.176,-0.176,-0.074,-0.074,                   271P    253
-0.096000005029142,-0.096000005029142,0.096000005029142,             271P    254
0.096000005029142,1.,1.,1.,1.,-7.,-1.01,5.08999989941716,-7.,        271P    255
0.01,5.08999989941716,-7.,-1.01,7.01,-7.,0.01,7.01,-0.176,           271P    256
-0.074,-0.096000005029142,0.096000005029142;                         271P    257
128,1,1,1,1,0,0,1,0,0,-0.001,-0.001,0.351,0.351,-0.001,-0.001,       273P    258
0.161,0.161,1.,1.,1.,1.,-6.99,2.51,5.09999989941716,-6.99,-1.01,     273P    259
5.09999989941716,-8.61,2.51,5.09999989941716,-8.61,-1.01,            273P    260
5.09999989941716,-0.001,0.351,-0.001,0.161;                          273P    261
128,1,1,1,1,0,0,1,0,0,-0.001,-0.001,0.191000010058284,               275P    262
0.191000010058284,-0.001,-0.001,0.161,0.161,1.,1.,1.,1.,-6.99,       275P    263
-1.,5.08999989941716,-6.99,-1.,7.01,-8.61,-1.,5.08999989941716,      275P    264
-8.61,-1.,7.01,-0.001,0.191000010058284,-0.001,0.161;                275P    265
128,1,1,1,1,0,0,1,0,0,-0.001,-0.001,0.191000010058284,               277P    266
0.191000010058284,-0.001,-0.001,0.161,0.161,1.,1.,1.,1.,-6.99,       277P    267
2.5,7.01,-6.99,2.5,5.08999989941716,-8.61,2.5,7.01,-8.61,2.5,        277P    268
5.08999989941716,-0.001,0.191000010058284,-0.001,0.161;              277P    269
128,1,1,1,1,0,0,1,0,0,-0.096000005029142,-0.096000005029142,         279P    270
0.096000005029142,0.096000005029142,-0.176,-0.176,0.176,0.176,       279P    271
1.,1.,1.,1.,-8.6,-1.01,5.08999989941716,-8.6,-1.01,7.01,-8.6,        279P    272
2.51,5.08999989941716,-8.6,2.51,7.01,-0.096000005029142,             279P    273
0.096000005029142,-0.176,0.176;                                      279P    274
128,1,1,1,1,0,0,1,0,0,-0.001,-0.001,0.701,0.701,-0.001,-0.001,       281P    275
0.401,0.401,1.,1.,1.,1.,-7.,-0.01,-0.01,-7.,-0.01,7.01,-7.,4.01,     281P    276
-0.01,-7.,4.01,7.01,-0.001,0.701,-0.001,0.401;                       281P    277
128,1,1,1,1,0,0,1,0,0,-0.001,-0.001,0.191,0.191,-0.001,-0.001,       283P    278
0.161,0.161,1.,1.,1.,1.,-0.01,2.5,-0.01,-0.01,2.5,1.91,1.61,2.5,     283P    279
-0.01,1.61,2.5,1.91,-0.001,0.191,-0.001,0.161;                       283P    280
128,1,1,1,1,0,0,1,0,0,-0.001,-0.001,0.191,0.191,-0.001,-0.001,       285P    281
0.161,0.161,1.,1.,1.,1.,-0.01,-1.,1.91,-0.01,-1.,-0.01,1.61,-1.,     285P    282
1.91,1.61,-1.,-0.01,-0.001,0.191,-0.001,0.161;                       285P    283
128,1,1,1,1,0,0,1,0,0,-0.001,-0.001,0.351,0.351,-0.001,-0.001,       287P    284
0.161,0.161,1.,1.,1.,1.,-0.01,2.51,1.9,-0.01,-1.01,1.9,1.61,         287P    285
2.51,1.9,1.61,-1.01,1.9,-0.001,0.351,-0.001,0.161;                   287P    286
128,1,1,1,1,0,0,1,0,0,-0.096,-0.096,0.096,0.096,-0.176,-0.176,       289P    287
0.176,0.176,1.,1.,1.,1.,1.6,-1.01,1.91,1.6,-1.01,-0.01,1.6,2.51,     289P    288
1.91,1.6,2.51,-0.01,-0.096,0.096,-0.176,0.176;                       289P    289
128,1,1,1,1,0,0,1,0,0,-0.176,-0.176,-0.074,-0.074,-0.096,-0.096,     291P    290
0.0960000000000001,0.0960000000000001,1.,1.,1.,1.,0.,0.01,-0.01,     291P    291
0.,-1.01,-0.01,0.,0.01,1.91,0.,-1.01,1.91,-0.176,-0.074,-0.096,      291P    292
0.0960000000000001;                                                  291P    293
128,1,1,1,1,0,0,1,0,0,-0.001,-0.001,0.701,0.701,-0.001,-0.001,       293P    294
0.401,0.401,1.,1.,1.,1.,0.,-0.01,7.01,0.,-0.01,-0.01,0.,4.01,        293P    295
7.01,0.,4.01,-0.01,-0.001,0.701,-0.001,0.401;                        293P    296
128,1,1,1,1,0,0,1,0,0,-0.001,-0.001,0.351,0.351,-0.001,-0.001,       295P    297
0.161,0.161,1.,1.,1.,1.,-0.01,-1.01,5.09999989941716,-0.01,2.51,     295P    298
5.09999989941716,1.61,-1.01,5.09999989941716,1.61,2.51,              295P    299
5.09999989941716,-0.001,0.351,-0.001,0.161;                          295P    300
128,1,1,1,1,0,0,1,0,0,-0.001,-0.001,0.191000010058284,               297P    301
0.191000010058284,-0.001,-0.001,0.161,0.161,1.,1.,1.,1.,-0.01,       297P    302
-1.,7.01,-0.01,-1.,5.08999989941716,1.61,-1.,7.01,1.61,-1.,          297P    303
5.08999989941716,-0.001,0.191000010058284,-0.001,0.161;              297P    304
128,1,1,1,1,0,0,1,0,0,-0.001,-0.001,0.191000010058284,               299P    305
0.191000010058284,-0.001,-0.001,0.161,0.161,1.,1.,1.,1.,-0.01,       299P    306
2.5,5.08999989941716,-0.01,2.5,7.01,1.61,2.5,5.08999989941716,       299P    307
1.61,2.5,7.01,-0.001,0.191000010058284,-0.001,0.161;                 299P    308
128,1,1,1,1,0,0,1,0,0,-0.096000005029142,-0.096000005029142,         301P    309
0.096000005029142,0.096000005029142,-0.176,-0.176,0.176,0.176,       301P    310
1.,1.,1.,1.,1.6,-1.01,7.01,1.6,-1.01,5.08999989941716,1.6,2.51,      301P    311
7.01,1.6,2.51,5.08999989941716,-0.096000005029142,                   301P    312
0.096000005029142,-0.176,0.176;                                      301P    313
128,1,1,1,1,0,0,1,0,0,-0.176,-0.176,-0.074,-0.074,                   303P    314
-0.096000005029142,-0.096000005029142,0.096000005029142,             303P    315
0.096000005029142,1.,1.,1.,1.,0.,0.01,5.08999989941716,0.,-1.01,     303P    316
5.08999989941716,0.,0.01,7.01,0.,-1.01,7.01,-0.176,-0.074,           303P    317
-0.096000005029142,0.096000005029142;                                303P    318
128,1,8,1,2,0,1,0,0,1,0.,0.,5.11764705882353,5.11764705882353,       305P    319
-3.14159265358979,-3.14159265358979,-3.14159265358979,               305P    320
-1.5707963267949,-1.5707963267949,0.,0.,1.5707963267949,             305P    321
1.5707963267949,3.14159265358979,3.14159265358979,                   305P    322
3.14159265358979,1.,1.,0.707106781186548,0.707106781186548,1.,       305P    323
1.,0.707106781186548,0.707106781186548,1.,1.,0.707106781186548,      305P    324
0.707106781186548,1.,1.,0.707106781186548,0.707106781186548,1.,      305P    325
1.,-1.8,12.7,3.5,-1.8,4.,3.5,-1.8,12.7,1.8,-1.8,4.,1.8,-3.5,         305P    326
12.7,1.8,-3.5,4.,1.8,-5.2,12.7,1.8,-5.2,4.,1.8,-5.2,12.7,3.5,        305P    327
-5.2,4.,3.5,-5.2,12.7,5.2,-5.2,4.,5.2,-3.5,12.7,5.2,-3.5,4.,5.2,     305P    328
-1.8,12.7,5.2,-1.8,4.,5.2,-1.8,12.7,3.5,-1.8,4.,3.5,0.,              305P    329
5.11764705882353,-3.14159265358979,3.14159265358979;                 305P    330
128,1,1,1,1,0,0,1,0,0,-0.171,-0.171,0.171,0.171,-0.171,-0.171,       307P    331
0.171,0.171,1.,1.,1.,1.,-1.79,12.7,1.79,-5.21,12.7,1.79,-1.79,       307P    332
12.7,5.21,-5.21,12.7,5.21,-0.171,0.171,-0.171,0.171;                 307P    333
128,1,1,1,1,0,0,1,0,0,-0.161,-0.161,0.861,0.861,-0.101,-0.101,       309P    334
0.401,0.401,1.,1.,1.,1.,-8.61,-1.01,7.,1.61,-1.01,7.,-8.61,4.01,     309P    335
7.,1.61,4.01,7.,-0.161,0.861,-0.101,0.401;                           309P    336
128,1,1,1,1,0,0,1,0,0,-0.161,-0.161,0.861,0.861,-0.101,-0.101,       311P    337
0.401,0.401,1.,1.,1.,1.,1.61,-1.01,0.,-8.61,-1.01,0.,1.61,4.01,      311P    338
0.,-8.61,4.01,0.,-0.161,0.861,-0.101,0.401;                          311P    339
128,1,1,1,1,0,0,1,0,0,-0.351,-0.351,0.351,0.351,-0.351,-0.351,       313P    340
0.351,0.351,1.,1.,1.,1.,-7.01,4.,-0.01,-7.01,4.,7.01,0.01,4.,        313P    341
-0.01,0.01,4.,7.01,-0.351,0.351,-0.351,0.351;                        313P    342
128,1,1,1,1,0,0,1,0,0,-0.351,-0.351,0.351,0.351,-0.351,-0.351,       315P    343
0.351,0.351,1.,1.,1.,1.,0.01,0.,7.01,-7.01,0.,7.01,0.01,0.,          315P    344
-0.01,-7.01,0.,-0.01,-0.351,0.351,-0.351,0.351;                      315P    345
502,46,-7.,2.5,0.,-7.,2.5,1.9,-8.6,2.5,0.,-8.6,2.5,1.9,-7.,-1.,      317P    346
0.,-7.,-1.,1.9,-8.6,-1.,1.9,-8.6,-1.,0.,-7.,0.,1.9,-7.,0.,0.,        317P    347
-7.,0.,5.09999989941716,-7.,0.,7.,-7.,-1.,7.,-7.,-1.,                317P    348
5.09999989941716,-8.6,-1.,5.09999989941716,-8.6,2.5,                 317P    349
5.09999989941716,-7.,2.5,5.09999989941716,-8.6,-1.,7.,-7.,2.5,       317P    350
7.,-8.6,2.5,7.,-7.,4.,7.,-7.,4.,0.,0.,2.5,1.9,0.,2.5,0.,1.6,2.5,     317P    351
1.9,1.6,2.5,0.,0.,-1.,0.,0.,-1.,1.9,1.6,-1.,0.,1.6,-1.,1.9,0.,       317P    352
0.,1.9,0.,0.,0.,0.,4.,0.,0.,4.,7.,0.,2.5,7.,0.,2.5,                  317P    353
5.09999989941716,0.,0.,5.09999989941716,0.,-1.,5.09999989941716,     317P    354
1.6,2.5,5.09999989941716,1.6,-1.,5.09999989941716,0.,-1.,7.,1.6,     317P    355
-1.,7.,1.6,2.5,7.,0.,0.,7.,-1.8,12.7,3.5,-1.8,4.,3.5;                317P    356
504,71,119,317,1,317,2,121,317,1,317,3,123,317,3,317,4,125,317,      319P    357
2,317,4,127,317,5,317,6,129,317,6,317,7,131,317,7,317,8,133,317,     319P    358
5,317,8,135,317,6,317,9,137,317,2,317,9,139,317,4,317,7,141,317,     319P    359
8,317,3,143,317,10,317,9,145,317,10,317,5,147,317,11,317,12,149,     319P    360
317,12,317,13,151,317,13,317,14,153,317,14,317,11,155,317,14,        319P    361
317,15,157,317,15,317,16,159,317,17,317,16,161,317,11,317,17,        319P    362
163,317,13,317,18,165,317,18,317,15,167,317,17,317,19,169,317,       319P    363
16,317,20,171,317,19,317,20,173,317,20,317,18,175,317,9,317,11,      319P    364
177,317,19,317,21,179,317,22,317,21,181,317,1,317,22,183,317,23,     319P    365
317,24,185,317,23,317,25,187,317,26,317,25,189,317,24,317,26,        319P    366
191,317,27,317,28,193,317,27,317,29,195,317,30,317,29,197,317,       319P    367
28,317,30,199,317,28,317,31,201,317,25,317,30,203,317,31,317,23,     319P    368
205,317,29,317,26,207,317,31,317,32,209,317,32,317,27,211,317,       319P    369
24,317,33,213,317,34,317,33,215,317,35,317,34,217,317,35,317,36,     319P    370
219,317,36,317,37,221,317,37,317,31,223,317,38,317,37,225,317,       319P    371
36,317,39,227,317,40,317,39,229,317,38,317,40,231,317,41,317,38,     319P    372
233,317,42,317,40,235,317,41,317,42,237,317,35,317,43,239,317,       319P    373
39,317,43,241,317,43,317,42,243,317,44,317,37,245,317,44,317,41,     319P    374
247,317,45,317,45,249,317,45,317,46,251,317,46,317,46,253,317,       319P    375
12,317,44,255,317,21,317,34,257,317,32,317,10,259,317,33,317,22;     319P    376
406,1,5HBody1;                                                       321P    377
314,62.7450980392157,62.7450980392157,62.7450980392157,13HSteel      323P    378
- Satin;                                                             323P    379
S      1G      3D    324P    379                                        T      1
