                                                                        S      1
,,14HTable thing v1,14HTable thing v1,7Hunknown,7Hunknown,32,38,7,99,15,G      1
,1.,2,2HMM,1,0.08,15H20250912.002042,0.01,10000.,7Hunknown,7Hunknown,11,G      2
0,15H20240831.130020;                                                   G      3
     186       1                                                00000000D      1
     186            -139       1       0                               0D      2
     514       2                                                00010000D      3
     514                       1       1                               0D      4
     510       3                                                00010000D      5
     510            -139       1       1                               0D      6
     510       4                                                00010000D      7
     510            -139       1       1                               0D      8
     510       5                                                00010000D      9
     510            -139       1       1                               0D     10
     510       6                                                00010000D     11
     510            -139       1       1                               0D     12
     510       7                                                00010000D     13
     510            -139       1       1                               0D     14
     510       8                                                00010000D     15
     510            -139       1       1                               0D     16
     510       9                                                00010000D     17
     510            -139       1       1                               0D     18
     510      10                                                00010000D     19
     510            -139       1       1                               0D     20
     510      11                                                00010000D     21
     510            -139       1       1                               0D     22
     510      12                                                00010000D     23
     510            -139       1       1                               0D     24
     510      13                                                00010000D     25
     510            -139       1       1                               0D     26
     510      14                                                00010000D     27
     510            -139       1       1                               0D     28
     508      15                                                00010000D     29
     508                       1       1                               0D     30
     508      16                                                00010000D     31
     508                       2       1                               0D     32
     508      18                                                00010000D     33
     508                       2       1                               0D     34
     508      20                                                00010000D     35
     508                       1       1                               0D     36
     508      21                                                00010000D     37
     508                       1       1                               0D     38
     508      22                                                00010000D     39
     508                       1       1                               0D     40
     508      23                                                00010000D     41
     508                       2       1                               0D     42
     508      25                                                00010000D     43
     508                       1       1                               0D     44
     508      26                                                00010000D     45
     508                       2       1                               0D     46
     508      28                                                00010000D     47
     508                       1       1                               0D     48
     508      29                                                00010000D     49
     508                       1       1                               0D     50
     508      30                                                00010000D     51
     508                       2       1                               0D     52
     126      32                                                00010000D     53
     126       0              28       0                               0D     54
     126      60                                                00010000D     55
     126       0              32       0                               0D     56
     126      92                                                00010000D     57
     126       0               2       0                               0D     58
     126      94                                                00010000D     59
     126       0               6       0                               0D     60
     126     100                                                00010000D     61
     126       0               2       0                               0D     62
     126     102                                                00010000D     63
     126       0               4       0                               0D     64
     126     106                                                00010000D     65
     126       0               2       0                               0D     66
     126     108                                                00010000D     67
     126       0               2       0                               0D     68
     126     110                                                00010000D     69
     126       0               4       0                               0D     70
     126     114                                                00010000D     71
     126       0               2       0                               0D     72
     126     116                                                00010000D     73
     126       0               5       0                               0D     74
     126     121                                                00010000D     75
     126       0               2       0                               0D     76
     126     123                                                00010000D     77
     126       0               2       0                               0D     78
     126     125                                                00010000D     79
     126       0               4       0                               0D     80
     126     129                                                00010000D     81
     126       0               2       0                               0D     82
     126     131                                                00010000D     83
     126       0               2       0                               0D     84
     126     133                                                00010000D     85
     126       0               2       0                               0D     86
     126     135                                                00010000D     87
     126       0               2       0                               0D     88
     126     137                                                00010000D     89
     126       0               6       0                               0D     90
     126     143                                                00010000D     91
     126       0               2       0                               0D     92
     126     145                                                00010000D     93
     126       0               2       0                               0D     94
     126     147                                                00010000D     95
     126       0               2       0                               0D     96
     126     149                                                00010000D     97
     126       0               4       0                               0D     98
     126     153                                                00010000D     99
     126       0               2       0                               0D    100
     126     155                                                00010000D    101
     126       0               2       0                               0D    102
     126     157                                                00010000D    103
     126       0               2       0                               0D    104
     126     159                                                00010000D    105
     126       0               5       0                               0D    106
     126     164                                                00010000D    107
     126       0               2       0                               0D    108
     128     166                                                00010000D    109
     128       0    -139      88       0                               0D    110
     128     254                                                00010000D    111
     128       0    -139       6       0                               0D    112
     128     260                                                00010000D    113
     128       0    -139       5       0                               0D    114
     128     265                                                00010000D    115
     128       0    -139       7       0                               0D    116
     128     272                                                00010000D    117
     128       0    -139       3       0                               0D    118
     128     275                                                00010000D    119
     128       0    -139       7       0                               0D    120
     128     282                                                00010000D    121
     128       0    -139       3       0                               0D    122
     128     285                                                00010000D    123
     128       0    -139       6       0                               0D    124
     128     291                                                00010000D    125
     128       0    -139       3       0                               0D    126
     128     294                                                00010000D    127
     128       0    -139       7       0                               0D    128
     128     301                                                00010000D    129
     128       0    -139       4       0                               0D    130
     128     305                                                00010000D    131
     128       0    -139       4       0                               0D    132
     502     309                                                00010000D    133
     502                       4       1                               0D    134
     504     313                                                00010001D    135
     504                       8       1                               0D    136
     406     321                                                00000000D    137
     406                       1      15                               0D    138
     314     322                                                00000200D    139
     314                       2       0                               0D    140
186,3,1,0,0,1,137;                                                     1P      1
514,12,5,1,7,1,9,1,11,1,13,1,15,1,17,1,19,1,21,1,23,1,25,1,27,1;       3P      2
510,109,1,1,29;                                                        5P      3
510,111,1,1,31;                                                        7P      4
510,113,1,1,33;                                                        9P      5
510,115,1,1,35;                                                       11P      6
510,117,1,1,37;                                                       13P      7
510,119,1,1,39;                                                       15P      8
510,121,1,1,41;                                                       17P      9
510,123,1,1,43;                                                       19P     10
510,125,1,1,45;                                                       21P     11
510,127,1,1,47;                                                       23P     12
510,129,1,1,49;                                                       25P     13
510,131,1,1,51;                                                       27P     14
508,2,0,135,1,0,0,0,135,2,0,0;                                        29P     15
508,6,0,135,1,1,0,0,135,3,1,0,0,135,4,0,0,0,135,5,1,0,0,135,6,0,      31P     16
0,0,135,7,1,0;                                                        31P     17
508,6,0,135,2,1,0,0,135,8,1,0,0,135,9,0,0,0,135,10,1,0,0,135,11,      33P     18
0,0,0,135,12,1,0;                                                     33P     19
508,4,0,135,6,1,0,0,135,13,1,0,0,135,14,1,0,0,135,15,1,0;             35P     20
508,4,0,135,13,0,0,0,135,5,0,0,0,135,16,0,0,0,135,17,1,0;             37P     21
508,4,0,135,4,1,0,0,135,18,1,0,0,135,19,1,0,0,135,16,1,0;             39P     22
508,5,0,135,18,0,0,0,135,3,0,0,0,135,12,0,0,0,135,20,0,0,0,135,       41P     23
21,1,0;                                                               41P     24
508,4,0,135,9,1,0,0,135,22,1,0,0,135,23,1,0,0,135,24,1,0;             43P     25
508,5,0,135,15,0,0,0,135,25,1,0,0,135,22,0,0,0,135,8,0,0,0,135,       45P     26
7,0,0;                                                                45P     27
508,4,0,135,11,1,0,0,135,26,1,0,0,135,27,1,0,0,135,20,1,0;            47P     28
508,4,0,135,24,0,0,0,135,28,1,0,0,135,26,0,0,0,135,10,0,0;            49P     29
508,8,0,135,14,0,0,0,135,17,0,0,0,135,19,0,0,0,135,21,0,0,0,135,      51P     30
27,0,0,0,135,28,0,0,0,135,23,0,0,0,135,25,0,0;                        51P     31
126,23,3,0,0,1,0,0.,0.,0.,0.,0.499398798534758,                       53P     32
0.499398798534758,1.02709250723483,1.02709250723483,                  53P     33
1.6933626328511,1.6933626328511,2.78346599631622,                     53P     34
2.78346599631622,4.5774010919867,4.5774010919867,                     53P     35
6.24347129923908,6.24347129923908,7.73292490355415,                   53P     36
7.73292490355415,8.9195194072,8.9195194072,9.61985708471489,          53P     37
9.61985708471489,10.2201027577313,10.2201027577313,                   53P     38
10.3690747196356,10.3690747196356,10.3690747196356,                   53P     39
10.3690747196356,1.,1.,1.,1.,1.,1.,1.,1.,1.,1.,1.,1.,1.,1.,1.,        53P     40
1.,1.,1.,1.,1.,1.,1.,1.,1.,-80.0000000000001,30.,20.,-80.,30.,        53P     41
18.3353373382175,-79.6729728954985,29.9999999999999,                  53P     42
16.7095016659558,-78.4018945164556,29.9999999999999,                  53P     43
13.5771553491834,-77.4514662342967,30.,12.1455585934939,              53P     44
-74.8173459038276,30.,9.2929179988724,-73.0500191617047,30.,          53P     45
8.01817334789398,-68.1145990511148,30.,5.29831601964202,              53P     46
-64.628435814616,30.,4.1843966301363,-55.76777844309,30.,             53P     47
2.15076192848645,-49.6041064435002,30.0000000000002,                  53P     48
1.59815353040689,-38.9739961595968,30.0000000000002,                  53P     49
1.26294578619423,-33.5684917590884,30.0000000001003,                  53P     50
1.40398638823362,-24.0672432193166,30.0000000001003,                  53P     51
2.31668430708126,-19.2777802321819,30.,3.08122946303211,              53P     52
-11.6085129303983,30.,5.47335859705212,-8.21101303599658,30.,         53P     53
6.99324379781142,-3.89226158489563,30.,10.5234422653265,              53P     54
-2.54242496112637,30.,12.063936600285,-0.745536487081863,30.,         53P     55
15.3851794837109,-0.234115030569005,29.9999999999992,                 53P     56
17.0327918044525,-0.020955507220906,29.9999999999992,                 53P     57
19.1571368580238,1.31894436104889D-14,30.,19.5793070796357,           53P     58
1.78893358460108D-14,30.,20.,0.,10.3690747196356,0.,0.,0.;            53P     59
126,23,3,0,0,1,0,10.3690747196356,10.3690747196356,                   55P     60
10.3690747196356,10.3690747196356,10.806363410272,                    55P     61
10.806363410272,11.420154665002,11.420154665002,                      55P     62
12.1614261350012,12.1614261350012,13.314169148717,                    55P     63
13.314169148717,15.0135221857958,15.0135221857958,                    55P     64
16.978228303328,16.978228303328,18.7407534851327,                     55P     65
18.7407534851327,19.8842942001381,19.8842942001381,                   55P     66
20.5029210558159,20.5029210558159,20.8580859121626,                   55P     67
20.8580859121626,21.221507448817,21.221507448817,                     55P     68
21.221507448817,21.221507448817,1.,1.,1.,1.,1.,1.,1.,1.,1.,1.,        55P     69
1.,1.,1.,1.,1.,1.,1.,1.,1.,1.,1.,1.,1.,1.,6.45317133063372D-15,       55P     70
30.,20.,1.90151726256088D-14,30.,21.234891814234,                     55P     71
-0.180545505109074,30.0000000000001,22.4570545730389,                 55P     72
-1.02361309797677,30.0000000000001,25.2881074524338,                  55P     73
-1.83039224053583,29.9999999999999,26.7921951734957,                  55P     74
-4.14835063197049,29.9999999999999,29.7601334191369,                  55P     75
-5.72219881948275,29.9999999999994,31.0908733848901,                  55P     76
-10.0946227071849,29.9999999999994,33.894473215093,                   55P     77
-13.1501434851169,30.0000000000018,35.0757357890131,                  55P     78
-20.5554884259265,30.0000000000018,37.1763395139481,                  55P     79
-25.4023161315214,30.0000000000002,37.8603646961002,                  55P     80
-35.0402798254627,30.0000000000002,38.6625312744024,                  55P     81
-40.5217889932603,30.0000000000765,38.7421589344354,                  55P     82
-50.2232470799894,30.0000000000765,38.3158972675988,                  55P     83
-56.7319110340312,30.0000000000069,37.7775189557066,                  55P     84
-66.5718475279633,30.0000000000069,35.2399744083403,                  55P     85
-70.5519974565429,30.,33.7320697886021,-75.4458052432061,30.,         55P     86
30.1229738398059,-76.9313807679923,30.,28.6115131743508,              55P     87
-78.6648003504976,30.,25.8013542356263,-79.1530548627484,             55P     88
30.0000000000073,24.7138221654994,-79.8263418661702,                  55P     89
30.0000000000073,22.413507994515,-80.,30.,21.2114051221815,-80.,      55P     90
30.,20.0000000000001,10.3690747196356,21.221507448817,0.,0.,0.;       55P     91
126,1,1,0,0,1,0,2.,2.,3.7,3.7,1.,1.,0.,30.,20.,0.,30.,3.,2.,3.7,      57P     92
0.,0.,0.;                                                             57P     93
126,2,2,0,0,0,0,-0.785398163397448,-0.785398163397448,                59P     94
-0.785398163397448,0.785398163397448,0.785398163397448,               59P     95
0.785398163397448,1.,0.707106781186548,1.,-3.,30.,                    59P     96
-5.55111512312578D-16,-1.80411241501588D-15,30.,                      59P     97
-5.55111512312578D-16,0.,30.,3.,-0.785398163397448,                   59P     98
0.785398163397448,0.,0.,0.;                                           59P     99
126,1,1,0,0,1,0,0.3,0.3,7.7,7.7,1.,1.,-3.,30.,0.,-77.,30.,0.,         61P    100
0.3,7.7,0.,0.,0.;                                                     61P    101
126,2,2,0,0,0,0,-0.78539816339745,-0.78539816339745,                  63P    102
-0.78539816339745,0.785398163397447,0.785398163397447,                63P    103
0.785398163397447,1.,0.707106781186553,1.,-80.,30.,3.,-80.,30.,       63P    104
0.,-77.,30.,0.,-0.78539816339745,0.785398163397447,0.,0.,0.;          63P    105
126,1,1,0,0,1,0,0.3,0.3,2.,2.,1.,1.,-80.,30.,3.,-80.,30.,20.,         65P    106
0.3,2.,0.,0.,0.;                                                      65P    107
126,1,1,0,0,1,0,2.,2.,3.7,3.7,1.,1.,-80.,30.,20.,-80.,30.,37.,        67P    108
2.,3.7,0.,0.,0.;                                                      67P    109
126,2,2,0,0,0,0,-0.78539816339745,-0.78539816339745,                  69P    110
-0.78539816339745,0.785398163397447,0.785398163397447,                69P    111
0.785398163397447,1.,0.707106781186555,1.,-77.,30.,40.,-80.,30.,      69P    112
40.,-80.,30.,37.,-0.78539816339745,0.785398163397447,0.,0.,0.;        69P    113
126,1,1,0,0,1,0,0.300000000000001,0.300000000000001,7.7,7.7,1.,       71P    114
1.,-77.,30.,40.,-3.,30.,40.,0.300000000000001,7.7,0.,0.,0.;           71P    115
126,2,2,0,0,0,0,-0.785398163397448,-0.785398163397448,                73P    116
-0.785398163397448,0.785398163397448,0.785398163397448,               73P    117
0.785398163397448,1.,0.707106781186549,1.,2.22044604925031D-15,       73P    118
30.,37.,2.22044604925031D-15,30.,40.,-3.,30.,40.,                     73P    119
-0.785398163397448,0.785398163397448,0.,0.,0.;                        73P    120
126,1,1,0,0,1,0,0.3,0.3,2.,2.,1.,1.,0.,30.,37.,0.,30.,20.,0.3,        75P    121
2.,0.,0.,0.;                                                          75P    122
126,1,1,0,0,1,0,-3.,-3.,0.,0.,1.,1.,-77.,30.,0.,-77.,0.,0.,-3.,       77P    123
0.,0.,0.,0.;                                                          77P    124
126,2,2,0,0,0,0,-0.785398163397447,-0.785398163397447,                79P    125
-0.785398163397447,0.78539816339745,0.78539816339745,                 79P    126
0.78539816339745,1.,0.707106781186553,1.,-77.,0.,0.,-80.,0.,0.,       79P    127
-80.,0.,3.,-0.785398163397447,0.78539816339745,0.,0.,0.;              79P    128
126,1,1,0,0,1,0,0.,0.,3.,3.,1.,1.,-80.,0.,3.,-80.,30.,3.,0.,3.,       81P    129
0.,0.,0.;                                                             81P    130
126,1,1,0,0,1,0,0.,0.,3.,3.,1.,1.,-3.,0.,0.,-3.,30.,0.,0.,3.,0.,      83P    131
0.,0.;                                                                83P    132
126,1,1,0,0,1,0,0.3,0.3,7.7,7.7,1.,1.,-3.,0.,0.,-77.,0.,0.,0.3,       85P    133
7.7,0.,0.,0.;                                                         85P    134
126,1,1,0,0,1,0,-3.,-3.,0.,0.,1.,1.,0.,30.,3.,0.,0.,3.,-3.,0.,        87P    135
0.,0.,0.;                                                             87P    136
126,2,2,0,0,0,0,-0.785398163397448,-0.785398163397448,                89P    137
-0.785398163397448,0.785398163397448,0.785398163397448,               89P    138
0.785398163397448,1.,0.707106781186548,1.,0.,0.,3.,                   89P    139
-1.80411241501588D-15,0.,-5.55111512312578D-16,-3.,0.,                89P    140
-5.55111512312578D-16,-0.785398163397448,0.785398163397448,0.,        89P    141
0.,0.;                                                                89P    142
126,1,1,0,0,1,0,0.,0.,3.,3.,1.,1.,0.,0.,37.,0.,30.,37.,0.,3.,0.,      91P    143
0.,0.;                                                                91P    144
126,1,1,0,0,1,0,0.3,0.3,3.7,3.7,1.,1.,0.,0.,37.,0.,0.,3.,0.3,         93P    145
3.7,0.,0.,0.;                                                         93P    146
126,1,1,0,0,1,0,-3.,-3.,0.,0.,1.,1.,-80.,30.,37.,-80.,0.,37.,         95P    147
-3.,0.,0.,0.,0.;                                                      95P    148
126,2,2,0,0,0,0,-0.785398163397447,-0.785398163397447,                97P    149
-0.785398163397447,0.78539816339745,0.78539816339745,                 97P    150
0.78539816339745,1.,0.707106781186555,1.,-80.,0.,37.,-80.,0.,         97P    151
40.,-77.,0.,40.,-0.785398163397447,0.78539816339745,0.,0.,0.;         97P    152
126,1,1,0,0,1,0,0.,0.,3.,3.,1.,1.,-77.,0.,40.,-77.,30.,40.,0.,        99P    153
3.,0.,0.,0.;                                                          99P    154
126,1,1,0,0,1,0,0.3,0.3,3.7,3.7,1.,1.,-80.,0.,3.,-80.,0.,37.,        101P    155
0.3,3.7,0.,0.,0.;                                                    101P    156
126,1,1,0,0,1,0,-3.,-3.,0.,0.,1.,1.,-3.,30.,40.,-3.,0.,40.,-3.,      103P    157
0.,0.,0.,0.;                                                         103P    158
126,2,2,0,0,0,0,-0.785398163397448,-0.785398163397448,               105P    159
-0.785398163397448,0.785398163397448,0.785398163397448,              105P    160
0.785398163397448,1.,0.707106781186549,1.,-3.,0.,40.,                105P    161
2.22044604925031D-15,0.,40.,2.22044604925031D-15,0.,37.,             105P    162
-0.785398163397448,0.785398163397448,0.,0.,0.;                       105P    163
126,1,1,0,0,1,0,0.300000000000001,0.300000000000001,7.7,7.7,1.,      107P    164
1.,-77.,0.,40.,-3.,0.,40.,0.300000000000001,7.7,0.,0.,0.;            107P    165
128,9,7,3,3,0,0,1,0,0,0.0685415890959504,0.0685415890959504,         109P    166
0.0685415890959504,0.0685415890959504,0.191797775709819,             109P    167
0.315053962323687,0.438310148937555,0.561566335551424,               109P    168
0.684822522165292,0.808078708779161,0.931334895393029,               109P    169
0.931334895393029,0.931334895393029,0.931334895393029,0.,0.,0.,      109P    170
0.,0.142857142857143,0.285714285714286,0.571428571428571,            109P    171
0.857142857142857,1.,1.,1.,1.,1.,1.,1.,1.,1.,1.,1.,1.,1.,1.,1.,      109P    172
1.,1.,1.,1.,1.,1.,1.,1.,1.,1.,1.,1.,1.,1.,1.,1.,1.,1.,1.,1.,1.,      109P    173
1.,1.,1.,1.,1.,1.,1.,1.,1.,1.,1.,1.,1.,1.,1.,1.,1.,1.,1.,1.,1.,      109P    174
1.,1.,1.,1.,1.,1.,1.,1.,1.,1.,1.,1.,1.,1.,1.,1.,1.,1.,1.,1.,1.,      109P    175
1.,1.,1.,1.,1.,1.,-80.,38.7794948651209,1.26560896336884,-80.,       109P    176
37.1862775129461,2.17253138366513,-80.,34.3918828945974,             109P    177
4.52947034822622,-80.,31.4638373232868,9.69438659038036,             109P    178
-79.9999999999999,29.9364339379177,16.3279341024204,-80.,            109P    179
29.9371336944819,23.6799092082905,-80.,31.4662005084945,             109P    180
30.3103609195904,-80.,34.395541503583,35.4759705777336,-80.,         109P    181
37.190672623192,37.83073446564,-80.,38.7842851673457,                109P    182
38.7371167162751,-76.4325762893669,37.3347784995136,                 109P    183
1.26560896336884,-76.3886552382594,35.7415611473388,                 109P    184
2.17253138366513,-76.3115811519865,32.9471665289901,                 109P    185
4.52947034822622,-76.230850217539,30.0191209576795,                  109P    186
9.69438659038036,-76.1887206233766,28.4917175723104,                 109P    187
16.3279341024204,-76.1887407671352,28.4924173288746,                 109P    188
23.6799092082905,-76.2309127170838,30.0214841428872,                 109P    189
30.3103609195904,-76.3116793634332,32.9508251379757,                 109P    190
35.4759705777336,-76.3887768152593,35.7459562575847,                 109P    191
37.83073446564,-76.4327083849669,37.3395688017384,                   109P    192
38.7371167162751,-69.3187726951125,34.7842099817541,                 109P    193
1.26560896336884,-69.1831415144754,33.1954418851221,                 109P    194
2.17253138366513,-68.9452856225291,30.4088238408127,                 109P    195
4.52947034822622,-68.6960297001532,27.4889469848012,                 109P    196
9.69438659038036,-68.5660197608216,25.9657933830423,                 109P    197
16.3279341024204,-68.5660786421764,25.9664917703349,                 109P    198
23.6799092082905,-68.6962330175977,27.491301755548,                  109P    199
30.3103609195904,-68.9455992196505,30.4124704178998,                 109P    200
35.4759705777336,-69.1835153368473,33.1998250057717,                 109P    201
37.83073446564,-69.3191804639276,34.7889869331012,                   109P    202
38.7371167162751,-55.2046026824598,31.0718477992333,                 109P    203
1.26560896336884,-54.8650404835809,29.5068275174823,                 109P    204
2.17253138366513,-54.269417758655,26.7618576556128,                  109P    205
4.52947034822622,-53.6453475153313,23.8856238209372,                 109P    206
9.69438659038036,-53.3197811452965,22.3852348041347,                 109P    207
16.3279341024204,-53.3199314442521,22.3859228445387,                 109P    208
23.6799092082905,-53.6458475812463,23.8879431083102,                 109P    209
30.3103609195904,-54.2701939184467,26.7654494403221,                 109P    210
35.4759705777336,-54.8659777766328,29.5111451670319,                 109P    211
37.83073446564,-55.2056236917392,31.0765533521855,                   109P    212
38.7371167162751,-37.9930709238731,29.2841797832112,                 109P    213
1.26560896336884,-37.3202989463555,27.8209925825954,                 109P    214
2.17253138366513,-36.1402934166973,25.2546109853164,                 109P    215
4.52947034822621,-34.9038572727714,22.5655218885424,                 109P    216
9.69438659038035,-34.2588713234666,21.1627477725154,                 109P    217
16.3279341024204,-34.2591670130764,21.1633915185926,                 109P    218
23.6799092082905,-34.9048545554249,22.5676887892971,                 109P    219
30.3103609195904,-36.1418377213385,25.2579675844295,                 109P    220
35.4759705777336,-37.3221549788267,27.8250295213763,                 109P    221
37.83073446564,-37.9950937462592,29.2885791758556,                   109P    222
38.7371167162751,-20.3167640205741,31.9597806355241,                 109P    223
1.26560896336884,-19.3951574051591,30.6544459161848,                 109P    224
2.17253138366513,-17.7786585276606,28.3649768492529,                 109P    225
4.52947034822622,-16.0848928259395,25.9660072409111,                 109P    226
9.69438659038036,-15.201319881858,24.7145938344769,                  109P    227
16.3279341024204,-15.2017260344958,24.7151671708985,                 109P    228
23.6799092082905,-16.0862555614688,25.9679433517004,                 109P    229
30.3103609195904,-17.7807706096887,28.3679743102982,                 109P    230
35.4759705777336,-19.3977004522426,30.65804687247,                   109P    231
37.83073446564,-20.31953506364,31.9637053663865,                     109P    232
38.7371167162751,-9.45005083168781,35.2874896217594,                 109P    233
1.26560896336884,-8.42645316750309,34.0658029140159,                 109P    234
2.17253138366513,-6.63116225749122,31.9230214864644,                 109P    235
4.52947034822622,-4.74998369973721,29.6777741536979,                 109P    236
9.69438659038036,-3.76868679104639,28.5065387455346,                 109P    237
16.3279341024204,-3.76913572645554,28.5070758879911,                 109P    238
23.6799092082905,-4.75150396205167,29.6795844998013,                 109P    239
30.3103609195904,-6.63351479320281,31.9258251699208,                 109P    240
35.4759705777336,-8.42927659269814,34.0691733806317,                 109P    241
37.83073446564,-9.45312843803743,35.2911628742431,                   109P    242
38.7371167162751,-5.82174489700921,36.5716677062091,                 109P    243
1.26560896336884,-4.76527124649213,35.3791053568814,                 109P    244
2.17253138366513,-2.91228848842574,33.2874322989288,                 109P    245
4.52947034822622,-0.970680841873158,31.0957182175486,                109P    246
9.69438659038036,0.0421511035926345,29.9524192400799,                109P    247
16.3279341024204,0.0416870900851023,29.9529430250682,                109P    248
23.6799092082905,-0.972247886633125,31.0974871197636,                109P    249
30.3103609195904,-2.91471453781916,33.290170857683,                  109P    250
35.4759705777336,-4.76818567505993,35.3823952049321,                 109P    251
37.83073446564,-5.82492138016236,36.5752533651698,                   109P    252
38.7371167162751,0.0685415890959504,0.931334895393029,0.,1.;         109P    253
128,1,1,1,1,0,0,1,0,0,-2.001,-2.001,0.000999999999998558,            111P    254
0.000999999999998558,-4.00100000000001,-4.00100000000001,4.001,      111P    255
4.001,1.,1.,1.,1.,-80.01,30.,-0.0099999999999989,-80.01,30.,         111P    256
20.01,0.0100000000000211,30.,-0.0099999999999989,                    111P    257
0.0100000000000122,30.,20.01,-2.001,0.000999999999998558,            111P    258
-4.00100000000001,4.001;                                             111P    259
128,1,1,1,1,0,0,1,0,0,-0.00100000000000133,-0.00100000000000133,     113P    260
2.001,2.001,-4.001,-4.001,4.001,4.001,1.,1.,1.,1.,-80.01,30.,        113P    261
19.99,-80.01,30.,40.01,0.0100000000000211,30.,19.99,                 113P    262
0.0100000000000122,30.,40.01,-0.00100000000000133,2.001,-4.001,      113P    263
4.001;                                                               113P    264
128,1,2,1,2,0,0,0,0,0,0.,0.,10.,10.,-0.785398163397447,              115P    265
-0.785398163397447,-0.785398163397447,0.78539816339745,              115P    266
0.78539816339745,0.78539816339745,1.,1.,0.707106781186548,           115P    267
0.707106781186548,1.,1.,-77.,30.,5.55111512312578D-16,-77.,0.,       115P    268
5.55111512312578D-16,-80.,30.,-4.9960036108132D-15,-80.,0.,          115P    269
-4.9960036108132D-15,-80.,30.,3.,-80.,0.,3.,0.,10.,                  115P    270
-0.785398163397447,0.78539816339745;                                 115P    271
128,1,1,1,1,0,0,1,0,0,0.299,0.299,7.701,7.701,-0.001,-0.001,         117P    272
3.001,3.001,1.,1.,1.,1.,-2.99,-0.01,0.,-77.01,-0.01,0.,-2.99,        117P    273
30.01,0.,-77.01,30.01,0.,0.299,7.701,-0.001,3.001;                   117P    274
128,1,2,1,2,0,0,0,0,0,0.,0.,10.,10.,-0.785398163397448,              119P    275
-0.785398163397448,-0.785398163397448,0.785398163397448,             119P    276
0.785398163397448,0.785398163397448,1.,1.,0.707106781186548,         119P    277
0.707106781186548,1.,1.,5.55111512312578D-16,30.,3.,                 119P    278
5.55111512312578D-16,0.,3.,0.,30.,0.,0.,0.,0.,-3.,30.,               119P    279
-5.55111512312578D-16,-3.,0.,-5.55111512312578D-16,0.,10.,           119P    280
-0.785398163397448,0.785398163397448;                                119P    281
128,1,1,1,1,0,0,1,0,0,0.299,0.299,3.701,3.701,-0.001,-0.001,         121P    282
3.001,3.001,1.,1.,1.,1.,0.,-0.01,37.01,0.,-0.01,2.99,0.,30.01,       121P    283
37.01,0.,30.01,2.99,0.299,3.701,-0.001,3.001;                        121P    284
128,1,2,1,2,0,0,0,0,0,0.,0.,10.,10.,-0.785398163397447,              123P    285
-0.785398163397447,-0.785398163397447,0.78539816339745,              123P    286
0.78539816339745,0.78539816339745,1.,1.,0.707106781186548,           123P    287
0.707106781186548,1.,1.,-80.,30.,37.,-80.,0.,37.,-80.,30.,40.,       123P    288
-80.,0.,40.,-77.,30.,40.,-77.,0.,40.,0.,10.,-0.785398163397447,      123P    289
0.78539816339745;                                                    123P    290
128,1,1,1,1,0,0,1,0,0,0.299,0.299,3.701,3.701,-0.001,-0.001,         125P    291
3.001,3.001,1.,1.,1.,1.,-80.,-0.01,2.99,-80.,-0.01,37.01,-80.,       125P    292
30.01,2.99,-80.,30.01,37.01,0.299,3.701,-0.001,3.001;                125P    293
128,1,2,1,2,0,0,0,0,0,0.,0.,10.,10.,-0.785398163397448,              127P    294
-0.785398163397448,-0.785398163397448,0.785398163397448,             127P    295
0.785398163397448,0.785398163397448,1.,1.,0.707106781186548,         127P    296
0.707106781186548,1.,1.,-3.,30.,40.,-3.,0.,40.,                      127P    297
1.66533453693773D-15,30.,40.,1.66533453693773D-15,0.,40.,            127P    298
2.22044604925031D-15,30.,37.,2.22044604925031D-15,0.,37.,0.,10.,     127P    299
-0.785398163397448,0.785398163397448;                                127P    300
128,1,1,1,1,0,0,1,0,0,0.299000000000001,0.299000000000001,7.701,     129P    301
7.701,-0.001,-0.001,3.001,3.001,1.,1.,1.,1.,-77.01,-0.01,40.,        129P    302
-2.98999999999999,-0.01,40.,-77.01,30.01,40.,-2.98999999999999,      129P    303
30.01,40.,0.299000000000001,7.701,-0.001,3.001;                      129P    304
128,1,1,1,1,0,0,1,0,0,-4.001,-4.001,4.001,4.001,-2.001,-2.001,       131P    305
2.001,2.001,1.,1.,1.,1.,0.0100000000000033,0.,40.01,-80.01,0.,       131P    306
40.01,0.0100000000000122,0.,-0.0099999999999989,-80.01,0.,           131P    307
-0.0099999999999989,-4.001,4.001,-2.001,2.001;                       131P    308
502,18,-80.,30.,20.,1.65904616433732D-14,30.,20.,0.,30.,3.,-3.,      133P    309
30.,0.,-77.,30.,0.,-80.,30.,3.,-80.,30.,37.,-77.,30.,40.,-3.,        133P    310
30.,40.,0.,30.,37.,-77.,0.,0.,-80.,0.,3.,-3.,0.,0.,0.,0.,3.,0.,      133P    311
0.,37.,-80.,0.,37.,-77.,0.,40.,-3.,0.,40.;                           133P    312
504,28,53,133,1,133,2,55,133,2,133,1,57,133,2,133,3,59,133,4,        135P    313
133,3,61,133,4,133,5,63,133,6,133,5,65,133,6,133,1,67,133,1,133,     135P    314
7,69,133,8,133,7,71,133,8,133,9,73,133,10,133,9,75,133,10,133,2,     135P    315
77,133,5,133,11,79,133,11,133,12,81,133,12,133,6,83,133,13,133,      135P    316
4,85,133,13,133,11,87,133,3,133,14,89,133,14,133,13,91,133,15,       135P    317
133,10,93,133,15,133,14,95,133,7,133,16,97,133,16,133,17,99,133,     135P    318
17,133,8,101,133,12,133,16,103,133,9,133,18,105,133,18,133,15,       135P    319
107,133,17,133,18;                                                   135P    320
406,1,5HBody1;                                                       137P    321
314,62.7450980392157,62.7450980392157,62.7450980392157,13HSteel      139P    322
- Satin;                                                             139P    323
S      1G      3D    140P    323                                        T      1
