0
SECTION
2
HEADER
9
$INSUNITS
70
4
9
$ACADVER
1
AC1014
9
$HANDSEED
5
FFFF
0
ENDSEC
0
SECTION
2
TABLES
0
TABLE
2
VPORT
5
8
100
AcDbSymbolTable
0
ENDTAB
0
TABLE
2
LTYPE
5
5
100
AcDbSymbolTable
0
LTYPE
5
14
100
AcDbSymbolTableRecord
100
AcDbLinetypeTableRecord
2
BYBLOCK
70
0
0
LTYPE
5
15
100
AcDbSymbolTableRecord
100
AcDbLinetypeTableRecord
2
BYLAYER
70
0
0
LTYPE
5
16
100
AcDbSymbolTableRecord
100
AcDbLinetypeTableRecord
2
DASHED
70
0
3
Dashed __ __ __ __ __ __ __ __ __ __ __ __ __ _
72
65
73
2
40
0.75
49
0.5
74
0
49
-0.25
74
0
0
ENDTAB
0
TABLE
2
LAYER
5
2
100
AcDbSymbolTable
70
2
0
LAYER
5
50
100
AcDbSymbolTableRecord
100
AcDbLayerTableRecord
2
0
70
0
62
7
6
CONTINUOUS
0
ENDTAB
0
TABLE
2
STYLE
5
3
100
AcDbSymbolTable
70
1
0
STYLE
5
11
100
AcDbSymbolTableRecord
100
AcDbTextStyleTableRecord
2
STANDARD
70
0
0
ENDTAB
0
TABLE
2
VIEW
5
6
100
AcDbSymbolTable
70
0
0
ENDTAB
0
TABLE
2
UCS
5
7
100
AcDbSymbolTable
70
0
0
ENDTAB
0
TABLE
2
APPID
5
9
100
AcDbSymbolTable
70
2
0
APPID
5
12
100
AcDbSymbolTableRecord
100
AcDbRegAppTableRecord
2
ACAD
70
0
0
ENDTAB
0
TABLE
2
DIMSTYLE
5
A
100
AcDbSymbolTable
70
1
0
ENDTAB
0
TABLE
2
BLOCK_RECORD
5
1
100
AcDbSymbolTable
70
1
0
BLOCK_RECORD
5
1F
100
AcDbSymbolTableRecord
100
AcDbBlockTableRecord
2
*MODEL_SPACE
0
BLOCK_RECORD
5
1B
100
AcDbSymbolTableRecord
100
AcDbBlockTableRecord
2
*PAPER_SPACE
0
ENDTAB
0
ENDSEC
0
SECTION
2
BLOCKS
0
BLOCK
5
20
100
AcDbEntity
100
AcDbBlockBegin
2
*MODEL_SPACE
0
ENDBLK
5
21
100
AcDbEntity
100
AcDbBlockEnd
0
BLOCK
5
1C
100
AcDbEntity
100
AcDbBlockBegin
2
*PAPER_SPACE
0
ENDBLK
5
1D
100
AcDbEntity
100
AcDbBlockEnd
0
ENDSEC
0
SECTION
2
ENTITIES
0
CIRCLE
5
100
100
AcDbEntity
8
0
100
AcDbCircle
10
5.2499999999999734
20
-5.2500000000000027
30
0
40
1.7500000000000004
210
0
220
-0
230
1
0
CIRCLE
5
101
100
AcDbEntity
8
0
100
AcDbCircle
10
88.749999999999972
20
-5.2500000000000044
30
0
40
1.7500000000000071
210
0
220
-0
230
1
0
LWPOLYLINE
5
102
100
AcDbEntity
8
0
100
AcDbPolyline
90
14
70
1
43
0.0
10
2.0648460395573212
20
-55
10
11.373499328921607
20
-55
42
-0.18745374320642214
10
8.75
20
-48.248167815357078
10
8.75
20
-19.25
42
-0.41421356237309509
10
18.750000000000004
20
-9.2499999999999982
10
75.249999999999972
20
-9.2499999999999982
42
-0.41421356237309509
10
85.249999999999972
20
-19.25
10
85.249999999999986
20
-48.248167815357064
42
-0.18745374320642214
10
82.626500671078361
20
-55
10
91.935153960442648
20
-55
10
91.499999999999943
20
-5.0000000000000089
42
0.41421356237309476
10
88.999999999999943
20
-2.5000000000000111
10
5
20
-2.4999999999999996
42
0.45663153551920499
10
2.5000000000000009
20
-5
0
LWPOLYLINE
5
103
100
AcDbEntity
8
0
100
AcDbPolyline
90
4
70
1
43
0.0
10
2.0996583563927356
20
-51
10
4.3648460395573201
20
-51.019714107829486
10
4.364846039557321
20
-55
10
2.0648460395573212
20
-55
0
LINE
5
104
100
AcDbEntity
8
0
100
AcDbLine
10
4.364846039557321
20
-55
30
0
11
6.864846039557321
21
-55
31
0
0
LINE
5
105
100
AcDbEntity
8
0
100
AcDbLine
10
6.864846039557321
20
-55
30
0
11
6.864846039557321
21
-48.541377128159773
31
0
0
LINE
5
106
100
AcDbEntity
8
0
100
AcDbLine
10
6.864846039557321
20
-48.541377128159773
30
0
11
2.1214152304586218
21
-48.500094674106464
31
0
0
LINE
5
107
100
AcDbEntity
8
0
100
AcDbLine
10
91.935153960442648
20
-55
30
0
11
2.0648460395573212
21
-55
31
0
0
LINE
5
108
100
AcDbEntity
8
0
100
AcDbLine
10
46.999999999999986
20
-55
30
0
11
46.999999999999986
21
-43.000000640749931
31
0
0
LWPOLYLINE
5
109
100
AcDbEntity
8
0
100
AcDbPolyline
90
8
70
1
43
0.0
10
2.2483472635023949
20
-51.151299731997561
10
2.2148403591109336
20
-55.001305412443955
10
2.1887424825922714
20
-58
10
1.7171612166411987
20
-57.995895790889016
10
1.6370387041832957
20
-60.87179398921819
10
4.2148460395573197
20
-58
10
4.2148460395573206
20
-55
10
4.2148460395573197
20
-51.168414326609664
0
LINE
5
110
100
AcDbEntity
8
0
100
AcDbLine
10
91.751652736497562
20
-51.151299731997561
30
0
11
91.785159640889034
21
-55.001305412443955
31
0
0
LINE
5
111
100
AcDbEntity
8
0
100
AcDbLine
10
91.751652736497562
20
-51.151299731997561
30
0
11
89.785153960442656
21
-51.168414326609664
31
0
0
LINE
5
112
100
AcDbEntity
8
0
100
AcDbLine
10
89.785153960442656
20
-51.168414326609664
30
0
11
89.785153960442656
21
-55
31
0
0
LINE
5
113
100
AcDbEntity
8
0
100
AcDbLine
10
89.635153960442651
20
-51.019714107829486
30
0
11
89.635153960442651
21
-55
31
0
0
LINE
5
114
100
AcDbEntity
8
0
100
AcDbLine
10
87.135153960442651
20
-55
30
0
11
87.135153960442651
21
-48.541377128159773
31
0
0
LINE
5
115
100
AcDbEntity
8
0
100
AcDbLine
10
91.900341643607234
20
-51
30
0
11
89.635153960442651
21
-51.019714107829486
31
0
0
LINE
5
116
100
AcDbEntity
8
0
100
AcDbLine
10
87.135153960442651
20
-48.541377128159773
30
0
11
91.878584769541334
21
-48.500094674106464
31
0
0
LINE
5
117
100
AcDbEntity
8
0
100
AcDbLine
10
91.499999999999972
20
-5
30
0
11
91.935153960442648
21
-55
31
0
0
LINE
5
118
100
AcDbEntity
8
0
100
AcDbLine
10
4.2148460395573197
20
-58
30
0
11
2.1887424825922714
21
-58
31
0
0
LINE
5
119
100
AcDbEntity
8
0
100
AcDbLine
10
1.7171612166411987
20
-57.995895790889016
30
0
11
2.0648460395573212
21
-55
31
0
0
LINE
5
120
100
AcDbEntity
8
0
100
AcDbLine
10
92.282838783358756
20
-57.995895790889016
30
0
11
91.935153960442648
21
-55
31
0
0
LINE
5
121
100
AcDbEntity
8
0
100
AcDbLine
10
89.785153960442656
20
-58
30
0
11
91.811257517407682
21
-58
31
0
0
LINE
5
122
100
AcDbEntity
8
0
100
AcDbLine
10
91.811257517407682
20
-58
30
0
11
92.282838783358756
21
-57.995895790889016
31
0
0
LINE
5
123
100
AcDbEntity
8
0
100
AcDbLine
10
89.785153960442656
20
-55
30
0
11
89.785153960442656
21
-58
31
0
0
LINE
5
124
100
AcDbEntity
8
0
100
AcDbLine
10
89.785153960442656
20
-58
30
0
11
92.362961295816675
21
-60.87179398921819
31
0
0
LINE
5
125
100
AcDbEntity
8
0
100
AcDbLine
10
92.282838783358756
20
-57.995895790889016
30
0
11
92.362961295816675
21
-60.87179398921819
31
0
0
ENDSEC
0
SECTION
2
OBJECTS
0
DICTIONARY
5
C
100
AcDbDictionary
3
ACAD_GROUP
350
D
3
ACAD_MLINESTYLE
350
17
0
DICTIONARY
5
D
100
AcDbDictionary
0
DICTIONARY
5
1A
330
C
100
AcDbDictionary
0
DICTIONARY
5
17
100
AcDbDictionary
0
ENDSEC
0
EOF
