0
SECTION
2
HEADER
9
$INSUNITS
70
4
9
$ACADVER
1
AC1014
9
$HANDSEED
5
FFFF
0
ENDSEC
0
SECTION
2
TABLES
0
TABLE
2
VPORT
5
8
100
AcDbSymbolTable
0
ENDTAB
0
TABLE
2
LTYPE
5
5
100
AcDbSymbolTable
0
LTYPE
5
14
100
AcDbSymbolTableRecord
100
AcDbLinetypeTableRecord
2
BYBLOCK
70
0
0
LTYPE
5
15
100
AcDbSymbolTableRecord
100
AcDbLinetypeTableRecord
2
BYLAYER
70
0
0
LTYPE
5
16
100
AcDbSymbolTableRecord
100
AcDbLinetypeTableRecord
2
DASHED
70
0
3
Dashed __ __ __ __ __ __ __ __ __ __ __ __ __ _
72
65
73
2
40
0.75
49
0.5
74
0
49
-0.25
74
0
0
ENDTAB
0
TABLE
2
LAYER
5
2
100
AcDbSymbolTable
70
2
0
LAYER
5
50
100
AcDbSymbolTableRecord
100
AcDbLayerTableRecord
2
0
70
0
62
7
6
CONTINUOUS
0
ENDTAB
0
TABLE
2
STYLE
5
3
100
AcDbSymbolTable
70
1
0
STYLE
5
11
100
AcDbSymbolTableRecord
100
AcDbTextStyleTableRecord
2
STANDARD
70
0
0
ENDTAB
0
TABLE
2
VIEW
5
6
100
AcDbSymbolTable
70
0
0
ENDTAB
0
TABLE
2
UCS
5
7
100
AcDbSymbolTable
70
0
0
ENDTAB
0
TABLE
2
APPID
5
9
100
AcDbSymbolTable
70
2
0
APPID
5
12
100
AcDbSymbolTableRecord
100
AcDbRegAppTableRecord
2
ACAD
70
0
0
ENDTAB
0
TABLE
2
DIMSTYLE
5
A
100
AcDbSymbolTable
70
1
0
ENDTAB
0
TABLE
2
BLOCK_RECORD
5
1
100
AcDbSymbolTable
70
1
0
BLOCK_RECORD
5
1F
100
AcDbSymbolTableRecord
100
AcDbBlockTableRecord
2
*MODEL_SPACE
0
BLOCK_RECORD
5
1B
100
AcDbSymbolTableRecord
100
AcDbBlockTableRecord
2
*PAPER_SPACE
0
ENDTAB
0
ENDSEC
0
SECTION
2
BLOCKS
0
BLOCK
5
20
100
AcDbEntity
100
AcDbBlockBegin
2
*MODEL_SPACE
0
ENDBLK
5
21
100
AcDbEntity
100
AcDbBlockEnd
0
BLOCK
5
1C
100
AcDbEntity
100
AcDbBlockBegin
2
*PAPER_SPACE
0
ENDBLK
5
1D
100
AcDbEntity
100
AcDbBlockEnd
0
ENDSEC
0
SECTION
2
ENTITIES
0
LWPOLYLINE
5
100
100
AcDbEntity
8
0
100
AcDbPolyline
90
25
70
1
43
0.0
10
-6.8648460395573174
20
78.500000000000014
10
-14.999998807907049
20
78.500000000000014
10
-14.999998807907087
20
24.499999999999975
10
-22.99999880790708
20
24.499999999999975
10
-22.999998807907055
20
69
10
-20.999999403953005
20
69
10
-20.999999403944045
20
78.500000000000014
10
-79.999999999999957
20
78.499999999999986
10
-79.999999999999972
20
24.5
10
-87.999999999999972
20
24.5
10
-87.999999999999972
20
76.000000000000881
10
-91.987372435695789
20
76.000000000000966
10
-91.987372435695789
20
5
10
-89.974744871391593
20
5
10
-89.974744871391593
20
13
10
-87.525255128608407
20
13
10
-87.525255128608407
20
5
10
-46.999999999999972
20
5
10
-6.4747448713915823
20
5
10
-6.4747448713915903
20
13
10
-4.0252551286084106
20
13
10
-4.0252551286084071
20
5
10
-2.0126275643042035
20
5
10
-2.0126275643041986
20
76.000000000000014
10
-6.8648460395573174
20
76.000000000000014
0
LWPOLYLINE
5
101
100
AcDbEntity
8
0
100
AcDbPolyline
90
4
70
1
43
0.0
10
-28.499999999999996
20
78.500000000000014
10
-30.999999999999996
20
78.5
10
-30.999999999999996
20
5
10
-28.499999999999996
20
5
0
LWPOLYLINE
5
102
100
AcDbEntity
8
0
100
AcDbPolyline
90
4
70
1
43
0.0
10
-9.4999999999999929
20
78.500000000000014
10
-11.999999999999993
20
78.500000000000014
10
-11.999999999999993
20
5
10
-9.4999999999999929
20
5
0
LWPOLYLINE
5
103
100
AcDbEntity
8
0
100
AcDbPolyline
90
4
70
1
43
0.0
10
-38.5
20
78.5
10
-41
20
78.5
10
-41
20
4.9999999999999911
10
-38.5
20
4.9999999999999911
0
LINE
5
104
100
AcDbEntity
8
0
100
AcDbLine
10
-87.525255128608407
20
5
30
0
11
-6.4747448713915823
21
5
31
0
0
LINE
5
105
100
AcDbEntity
8
0
100
AcDbLine
10
-46.999999999999972
20
5
30
0
11
-47.000000000000014
21
78.5
31
0
0
LWPOLYLINE
5
106
100
AcDbEntity
8
0
100
AcDbPolyline
90
4
70
1
43
0.0
10
-18
20
5
10
-20.5
20
5
10
-20.5
20
24.499999999999975
10
-18
20
24.499999999999975
0
LINE
5
107
100
AcDbEntity
8
0
100
AcDbLine
10
-2.0126275643042035
20
5
30
0
11
-2.0126275643041986
21
76.000000000000014
31
0
0
LINE
5
108
100
AcDbEntity
8
0
100
AcDbLine
10
-38.5
20
4.9999999999999911
30
0
11
-2.0126275643042013
21
41.487372435695804
31
0
0
LINE
5
109
100
AcDbEntity
8
0
100
AcDbLine
10
-41
20
4.9999999999999911
30
0
11
-2.0126275643042009
21
43.987372435695811
31
0
0
LINE
5
110
100
AcDbEntity
8
0
100
AcDbLine
10
-28.499999999999996
20
5
30
0
11
-2.0126275643042018
21
31.487372435695811
31
0
0
LINE
5
111
100
AcDbEntity
8
0
100
AcDbLine
10
-30.999999999999996
20
5
30
0
11
-2.0126275643042022
21
33.987372435695818
31
0
0
LINE
5
112
100
AcDbEntity
8
0
100
AcDbLine
10
-28.499999999999996
20
78.500000000000014
30
0
11
-2.0126275643042004
21
52.012627564304246
31
0
0
LINE
5
113
100
AcDbEntity
8
0
100
AcDbLine
10
-30.999999999999996
20
78.5
30
0
11
-2.0126275643042
21
49.512627564304204
31
0
0
LINE
5
114
100
AcDbEntity
8
0
100
AcDbLine
10
-38.5
20
78.5
30
0
11
-2.0126275643042009
21
42.012627564304239
31
0
0
LINE
5
115
100
AcDbEntity
8
0
100
AcDbLine
10
-41
20
78.5
30
0
11
-2.0126275643042018
21
39.512627564304239
31
0
0
LINE
5
116
100
AcDbEntity
8
0
100
AcDbLine
10
-91.987372435695789
20
5
30
0
11
-91.987372435695789
21
76.000000000000966
31
0
0
LINE
5
117
100
AcDbEntity
8
0
100
AcDbLine
10
-38.5
20
4.9999999999999911
30
0
11
-91.987372435695789
21
58.487372435695917
31
0
0
LINE
5
118
100
AcDbEntity
8
0
100
AcDbLine
10
-41
20
4.9999999999999911
30
0
11
-91.987372435695789
21
55.987372435695875
31
0
0
LINE
5
119
100
AcDbEntity
8
0
100
AcDbLine
10
-28.499999999999996
20
5
30
0
11
-91.987372435695789
21
68.487372435695846
31
0
0
LINE
5
120
100
AcDbEntity
8
0
100
AcDbLine
10
-30.999999999999996
20
5
30
0
11
-91.987372435695789
21
65.987372435695846
31
0
0
LINE
5
121
100
AcDbEntity
8
0
100
AcDbLine
10
-38.5
20
78.5
30
0
11
-91.987372435695789
21
25.012627564304161
31
0
0
LINE
5
122
100
AcDbEntity
8
0
100
AcDbLine
10
-41
20
78.5
30
0
11
-91.987372435695789
21
27.51262756430414
31
0
0
LINE
5
123
100
AcDbEntity
8
0
100
AcDbLine
10
-28.499999999999996
20
78.500000000000014
30
0
11
-91.987372435695789
21
15.012627564304175
31
0
0
LINE
5
124
100
AcDbEntity
8
0
100
AcDbLine
10
-30.999999999999996
20
78.5
30
0
11
-91.987372435695789
21
17.51262756430414
31
0
0
LINE
5
125
100
AcDbEntity
8
0
100
AcDbLine
10
-18
20
5
30
0
11
-91.987372435695789
21
78.987372435695875
31
0
0
LINE
5
126
100
AcDbEntity
8
0
100
AcDbLine
10
-20.5
20
5
30
0
11
-91.987372435695789
21
76.487372435695903
31
0
0
LINE
5
127
100
AcDbEntity
8
0
100
AcDbLine
10
-9.4999999999999929
20
5
30
0
11
-79.999999999999957
21
78.499999999999986
31
0
0
LINE
5
128
100
AcDbEntity
8
0
100
AcDbLine
10
-11.999999999999993
20
5
30
0
11
-79.999999999999957
21
75.893617021276597
31
0
0
LINE
5
129
100
AcDbEntity
8
0
100
AcDbLine
10
-9.4999999999999929
20
78.500000000000014
30
0
11
-82.999999999999986
21
5
31
0
0
LINE
5
130
100
AcDbEntity
8
0
100
AcDbLine
10
-11.999999999999993
20
78.500000000000014
30
0
11
-85.5
21
5
31
0
0
LINE
5
131
100
AcDbEntity
8
0
100
AcDbLine
10
-55.499999999999957
20
4.9999999999999831
30
0
11
-55.500000000000028
21
78.5
31
0
0
LINE
5
132
100
AcDbEntity
8
0
100
AcDbLine
10
-53.000000000000028
20
78.5
30
0
11
-52.999999999999957
21
4.9999999999999858
31
0
0
LINE
5
133
100
AcDbEntity
8
0
100
AcDbLine
10
-84.500000000000028
20
78.499999999999972
30
0
11
-10.999999999999961
21
5.0000000000000346
31
0
0
LINE
5
134
100
AcDbEntity
8
0
100
AcDbLine
10
-82.000000000000028
20
78.499999999999972
30
0
11
-8.4999999999999432
21
5.0000000000000373
31
0
0
LINE
5
135
100
AcDbEntity
8
0
100
AcDbLine
10
-63.000000000000028
20
78.499999999999972
30
0
11
-62.999999999999957
21
4.999999999999984
31
0
0
LINE
5
136
100
AcDbEntity
8
0
100
AcDbLine
10
-65.499999999999957
20
4.9999999999999822
30
0
11
-65.500000000000028
21
78.5
31
0
0
LINE
5
137
100
AcDbEntity
8
0
100
AcDbLine
10
-53.000000000000028
20
78.5
30
0
11
-91.987372435695789
21
39.512627564304196
31
0
0
LINE
5
138
100
AcDbEntity
8
0
100
AcDbLine
10
-55.500000000000028
20
78.5
30
0
11
-91.987372435695789
21
42.012627564304196
31
0
0
LINE
5
139
100
AcDbEntity
8
0
100
AcDbLine
10
-63.000000000000028
20
78.499999999999972
30
0
11
-91.987372435695789
21
49.512627564304161
31
0
0
LINE
5
140
100
AcDbEntity
8
0
100
AcDbLine
10
-65.500000000000028
20
78.5
30
0
11
-91.987372435695804
21
52.012627564304204
31
0
0
LINE
5
141
100
AcDbEntity
8
0
100
AcDbLine
10
-82.000000000000028
20
78.499999999999972
30
0
11
-81.999999999999957
21
4.9999999999999662
31
0
0
LINE
5
142
100
AcDbEntity
8
0
100
AcDbLine
10
-84.499999999999957
20
4.9999999999999636
30
0
11
-84.500000000000028
21
78.499999999999972
31
0
0
LINE
5
143
100
AcDbEntity
8
0
100
AcDbLine
10
-55.499999999999957
20
4.9999999999999831
30
0
11
-91.987372435695789
21
41.487372435695761
31
0
0
LINE
5
144
100
AcDbEntity
8
0
100
AcDbLine
10
-52.999999999999957
20
4.9999999999999858
30
0
11
-91.987372435695789
21
43.987372435695768
31
0
0
LINE
5
145
100
AcDbEntity
8
0
100
AcDbLine
10
-73.499999999999957
20
4.9999999999999742
30
0
11
-73.499999999999972
21
24.49999999999995
31
0
0
LINE
5
146
100
AcDbEntity
8
0
100
AcDbLine
10
-75.999999999999972
20
24.49999999999995
30
0
11
-75.999999999999957
21
4.9999999999999716
31
0
0
LINE
5
147
100
AcDbEntity
8
0
100
AcDbLine
10
-62.999999999999957
20
4.999999999999984
30
0
11
-91.987372435695789
21
33.987372435695775
31
0
0
LINE
5
148
100
AcDbEntity
8
0
100
AcDbLine
10
-65.499999999999957
20
4.9999999999999822
30
0
11
-91.987372435695761
21
31.487372435695768
31
0
0
LINE
5
149
100
AcDbEntity
8
0
100
AcDbLine
10
-84.499999999999957
20
4.9999999999999636
30
0
11
-14.000000000000066
21
78.500000000000028
31
0
0
LINE
5
150
100
AcDbEntity
8
0
100
AcDbLine
10
-81.999999999999957
20
4.9999999999999662
30
0
11
-14.000000000000066
21
75.893617021276626
31
0
0
LINE
5
151
100
AcDbEntity
8
0
100
AcDbLine
10
-75.999999999999957
20
4.9999999999999716
30
0
11
-2.0126275643042391
21
78.987372435695931
31
0
0
LINE
5
152
100
AcDbEntity
8
0
100
AcDbLine
10
-73.499999999999957
20
4.9999999999999742
30
0
11
-2.0126275643042391
21
76.487372435695946
31
0
0
LINE
5
153
100
AcDbEntity
8
0
100
AcDbLine
10
-65.499999999999957
20
4.9999999999999822
30
0
11
-2.0126275643042213
21
68.487372435695889
31
0
0
LINE
5
154
100
AcDbEntity
8
0
100
AcDbLine
10
-62.999999999999957
20
4.999999999999984
30
0
11
-2.0126275643042213
21
65.987372435695889
31
0
0
LINE
5
155
100
AcDbEntity
8
0
100
AcDbLine
10
-55.499999999999957
20
4.9999999999999831
30
0
11
-2.0126275643042213
21
58.48737243569596
31
0
0
LINE
5
156
100
AcDbEntity
8
0
100
AcDbLine
10
-52.999999999999957
20
4.9999999999999858
30
0
11
-2.0126275643042213
21
55.987372435695917
31
0
0
LINE
5
157
100
AcDbEntity
8
0
100
AcDbLine
10
-65.500000000000028
20
78.5
30
0
11
-2.0126275643041858
21
15.01262756430422
31
0
0
LINE
5
158
100
AcDbEntity
8
0
100
AcDbLine
10
-63.000000000000028
20
78.499999999999972
30
0
11
-2.0126275643041858
21
17.512627564304182
31
0
0
LINE
5
159
100
AcDbEntity
8
0
100
AcDbLine
10
-55.500000000000028
20
78.5
30
0
11
-2.0126275643041858
21
25.012627564304207
31
0
0
LINE
5
160
100
AcDbEntity
8
0
100
AcDbLine
10
-53.000000000000028
20
78.5
30
0
11
-2.0126275643041858
21
27.512627564304182
31
0
0
LINE
5
161
100
AcDbEntity
8
0
100
AcDbLine
10
-75.999999999999957
20
5.2000000000000002
30
0
11
-18
21
5.2000000000000002
31
0
0
ENDSEC
0
SECTION
2
OBJECTS
0
DICTIONARY
5
C
100
AcDbDictionary
3
ACAD_GROUP
350
D
3
ACAD_MLINESTYLE
350
17
0
DICTIONARY
5
D
100
AcDbDictionary
0
DICTIONARY
5
1A
330
C
100
AcDbDictionary
0
DICTIONARY
5
17
100
AcDbDictionary
0
ENDSEC
0
EOF
