0
SECTION
2
HEADER
9
$INSUNITS
70
4
9
$ACADVER
1
AC1014
9
$HANDSEED
5
FFFF
0
ENDSEC
0
SECTION
2
TABLES
0
TABLE
2
VPORT
5
8
100
AcDbSymbolTable
0
ENDTAB
0
TABLE
2
LTYPE
5
5
100
AcDbSymbolTable
0
LTYPE
5
14
100
AcDbSymbolTableRecord
100
AcDbLinetypeTableRecord
2
BYBLOCK
70
0
0
LTYPE
5
15
100
AcDbSymbolTableRecord
100
AcDbLinetypeTableRecord
2
BYLAYER
70
0
0
LTYPE
5
16
100
AcDbSymbolTableRecord
100
AcDbLinetypeTableRecord
2
DASHED
70
0
3
Dashed __ __ __ __ __ __ __ __ __ __ __ __ __ _
72
65
73
2
40
0.75
49
0.5
74
0
49
-0.25
74
0
0
ENDTAB
0
TABLE
2
LAYER
5
2
100
AcDbSymbolTable
70
2
0
LAYER
5
50
100
AcDbSymbolTableRecord
100
AcDbLayerTableRecord
2
0
70
0
62
7
6
CONTINUOUS
0
ENDTAB
0
TABLE
2
STYLE
5
3
100
AcDbSymbolTable
70
1
0
STYLE
5
11
100
AcDbSymbolTableRecord
100
AcDbTextStyleTableRecord
2
STANDARD
70
0
0
ENDTAB
0
TABLE
2
VIEW
5
6
100
AcDbSymbolTable
70
0
0
ENDTAB
0
TABLE
2
UCS
5
7
100
AcDbSymbolTable
70
0
0
ENDTAB
0
TABLE
2
APPID
5
9
100
AcDbSymbolTable
70
2
0
APPID
5
12
100
AcDbSymbolTableRecord
100
AcDbRegAppTableRecord
2
ACAD
70
0
0
ENDTAB
0
TABLE
2
DIMSTYLE
5
A
100
AcDbSymbolTable
70
1
0
ENDTAB
0
TABLE
2
BLOCK_RECORD
5
1
100
AcDbSymbolTable
70
1
0
BLOCK_RECORD
5
1F
100
AcDbSymbolTableRecord
100
AcDbBlockTableRecord
2
*MODEL_SPACE
0
BLOCK_RECORD
5
1B
100
AcDbSymbolTableRecord
100
AcDbBlockTableRecord
2
*PAPER_SPACE
0
ENDTAB
0
ENDSEC
0
SECTION
2
BLOCKS
0
BLOCK
5
20
100
AcDbEntity
100
AcDbBlockBegin
2
*MODEL_SPACE
0
ENDBLK
5
21
100
AcDbEntity
100
AcDbBlockEnd
0
BLOCK
5
1C
100
AcDbEntity
100
AcDbBlockBegin
2
*PAPER_SPACE
0
ENDBLK
5
1D
100
AcDbEntity
100
AcDbBlockEnd
0
ENDSEC
0
SECTION
2
ENTITIES
0
LWPOLYLINE
5
100
100
AcDbEntity
8
0
100
AcDbPolyline
90
14
70
1
43
0.0
10
6.8648460395573174
20
84.500000000000014
10
87.135153960442651
20
84.5
10
87.135153960442651
20
5
10
82.626500671078361
20
5
10
82.626500671078361
20
0
10
93.999999999999972
20
0
10
93.999999999999943
20
82.000000000000028
42
0.41421356237309398
10
88.999999999999929
20
87.000000000000028
10
4.9999999999999822
20
87.000000000000028
42
0.41421356237309465
10
-9.9920072216264089e-15
20
82.000000000000014
10
0
20
0
10
11.373499328921607
20
0
10
11.373499328921607
20
5
10
6.8648460395573174
20
5
0
LWPOLYLINE
5
101
100
AcDbEntity
8
0
100
AcDbPolyline
90
4
70
1
43
0.0
10
89.635153960442651
20
5
10
89.635153960442651
20
84.5
10
91.935153960442648
20
84.5
10
91.935153960442648
20
5
0
LWPOLYLINE
5
102
100
AcDbEntity
8
0
100
AcDbPolyline
90
4
70
1
43
0.0
10
2.0648460395573212
20
5
10
2.0648460395573212
20
84.5
10
4.364846039557321
20
84.5
10
4.3648460395573174
20
5
0
LINE
5
103
100
AcDbEntity
8
0
100
AcDbLine
10
-9.9920072216264089e-15
20
82.000000000000014
30
0
11
6.8648460395573174
21
82.000000000000014
31
0
0
LINE
5
104
100
AcDbEntity
8
0
100
AcDbLine
10
4.9999999999999822
20
87.000000000000028
30
0
11
4.9999999999999893
21
82.000000000000014
31
0
0
LINE
5
105
100
AcDbEntity
8
0
100
AcDbLine
10
6.8648460395573174
20
82.000000000000014
30
0
11
6.8648460395573174
21
84.500000000000014
31
0
0
LINE
5
106
100
AcDbEntity
8
0
100
AcDbLine
10
6.8648460395573174
20
84.500000000000014
30
0
11
46.999999999999986
21
84.5
31
0
0
LINE
5
107
100
AcDbEntity
8
0
100
AcDbLine
10
46.999999999999986
20
84.5
30
0
11
46.999999999999957
21
87.000000000000028
31
0
0
LINE
5
108
100
AcDbEntity
8
0
100
AcDbLine
10
46.999999999999957
20
87.000000000000028
30
0
11
4.9999999999999822
21
87.000000000000028
31
0
0
LINE
5
109
100
AcDbEntity
8
0
100
AcDbLine
10
4.9999999999999822
20
87.000000000000028
30
0
11
4.9999999999999734
21
93.500001393258572
31
0
0
LINE
5
110
100
AcDbEntity
8
0
100
AcDbLine
10
4.9999999999999734
20
93.500001393258572
30
0
11
-5.8266418065701604
21
93.500001393258572
31
0
0
LINE
5
111
100
AcDbEntity
8
0
100
AcDbLine
10
-5.8266418065701604
20
93.500001393258572
30
0
11
-5.8266418065701622
21
82.000000000000014
31
0
0
LINE
5
112
100
AcDbEntity
8
0
100
AcDbLine
10
-5.8266418065701622
20
82.000000000000014
30
0
11
-9.9920072216264089e-15
21
82.000000000000014
31
0
0
ARC
5
113
100
AcDbEntity
8
0
100
AcDbCircle
10
89.000000000000028
20
82.000000000000895
30
0
40
5
210
0
220
-0
230
1
100
AcDbArc
50
0
51
90.000000000001137
0
LINE
5
114
100
AcDbEntity
8
0
100
AcDbLine
10
94.000000000000028
20
82.000000000001009
30
0
11
87.135153960442707
21
82.000000000000867
31
0
0
LINE
5
115
100
AcDbEntity
8
0
100
AcDbLine
10
88.999999999999929
20
87.000000000000909
30
0
11
89.000000000000028
21
82.000000000000895
31
0
0
LINE
5
116
100
AcDbEntity
8
0
100
AcDbLine
10
87.135153960442707
20
82.000000000000867
30
0
11
87.135153960442651
21
84.500000000000867
31
0
0
LINE
5
117
100
AcDbEntity
8
0
100
AcDbLine
10
87.135153960442651
20
84.500000000000867
30
0
11
46.999999999999986
21
84.5
31
0
0
LINE
5
118
100
AcDbEntity
8
0
100
AcDbLine
10
46.999999999999957
20
87.000000000000028
30
0
11
88.999999999999929
21
87.000000000000909
31
0
0
LINE
5
119
100
AcDbEntity
8
0
100
AcDbLine
10
88.999999999999929
20
87.000000000000909
30
0
11
88.999999999999801
21
93.500001393259453
31
0
0
LINE
5
120
100
AcDbEntity
8
0
100
AcDbLine
10
88.999999999999801
20
93.500001393259453
30
0
11
99.826641806569938
21
93.500001393259694
31
0
0
LINE
5
121
100
AcDbEntity
8
0
100
AcDbLine
10
99.826641806569938
20
93.500001393259694
30
0
11
99.82664180657018
21
82.000000000001137
31
0
0
LINE
5
122
100
AcDbEntity
8
0
100
AcDbLine
10
99.82664180657018
20
82.000000000001137
30
0
11
94.000000000000028
21
82.000000000001009
31
0
0
ENDSEC
0
SECTION
2
OBJECTS
0
DICTIONARY
5
C
100
AcDbDictionary
3
ACAD_GROUP
350
D
3
ACAD_MLINESTYLE
350
17
0
DICTIONARY
5
D
100
AcDbDictionary
0
DICTIONARY
5
1A
330
C
100
AcDbDictionary
0
DICTIONARY
5
17
100
AcDbDictionary
0
ENDSEC
0
EOF
