0
SECTION
2
HEADER
9
$INSUNITS
70
4
9
$ACADVER
1
AC1014
9
$HANDSEED
5
FFFF
0
ENDSEC
0
SECTION
2
TABLES
0
TABLE
2
VPORT
5
8
100
AcDbSymbolTable
0
ENDTAB
0
TABLE
2
LTYPE
5
5
100
AcDbSymbolTable
0
LTYPE
5
14
100
AcDbSymbolTableRecord
100
AcDbLinetypeTableRecord
2
BYBLOCK
70
0
0
LTYPE
5
15
100
AcDbSymbolTableRecord
100
AcDbLinetypeTableRecord
2
BYLAYER
70
0
0
LTYPE
5
16
100
AcDbSymbolTableRecord
100
AcDbLinetypeTableRecord
2
DASHED
70
0
3
Dashed __ __ __ __ __ __ __ __ __ __ __ __ __ _
72
65
73
2
40
0.75
49
0.5
74
0
49
-0.25
74
0
0
ENDTAB
0
TABLE
2
LAYER
5
2
100
AcDbSymbolTable
70
2
0
LAYER
5
50
100
AcDbSymbolTableRecord
100
AcDbLayerTableRecord
2
0
70
0
62
7
6
CONTINUOUS
0
ENDTAB
0
TABLE
2
STYLE
5
3
100
AcDbSymbolTable
70
1
0
STYLE
5
11
100
AcDbSymbolTableRecord
100
AcDbTextStyleTableRecord
2
STANDARD
70
0
0
ENDTAB
0
TABLE
2
VIEW
5
6
100
AcDbSymbolTable
70
0
0
ENDTAB
0
TABLE
2
UCS
5
7
100
AcDbSymbolTable
70
0
0
ENDTAB
0
TABLE
2
APPID
5
9
100
AcDbSymbolTable
70
2
0
APPID
5
12
100
AcDbSymbolTableRecord
100
AcDbRegAppTableRecord
2
ACAD
70
0
0
ENDTAB
0
TABLE
2
DIMSTYLE
5
A
100
AcDbSymbolTable
70
1
0
ENDTAB
0
TABLE
2
BLOCK_RECORD
5
1
100
AcDbSymbolTable
70
1
0
BLOCK_RECORD
5
1F
100
AcDbSymbolTableRecord
100
AcDbBlockTableRecord
2
*MODEL_SPACE
0
BLOCK_RECORD
5
1B
100
AcDbSymbolTableRecord
100
AcDbBlockTableRecord
2
*PAPER_SPACE
0
ENDTAB
0
ENDSEC
0
SECTION
2
BLOCKS
0
BLOCK
5
20
100
AcDbEntity
100
AcDbBlockBegin
2
*MODEL_SPACE
0
ENDBLK
5
21
100
AcDbEntity
100
AcDbBlockEnd
0
BLOCK
5
1C
100
AcDbEntity
100
AcDbBlockBegin
2
*PAPER_SPACE
0
ENDBLK
5
1D
100
AcDbEntity
100
AcDbBlockEnd
0
ENDSEC
0
SECTION
2
ENTITIES
0
POINT
5
100
100
AcDbEntity
8
0
100
AcDbPoint
10
0
20
0
30
0
0
LINE
5
101
100
AcDbEntity
8
0
100
AcDbLine
10
-188.71586018805789
20
93.263588502082854
30
0
11
32.879044732828078
21
93.45643851687467
31
0
0
LINE
5
102
100
AcDbEntity
8
0
100
AcDbLine
10
32.879044732828078
20
93.45643851687467
30
0
11
12.302213312876153
21
129.09655599501085
31
0
0
LINE
5
103
100
AcDbEntity
8
0
100
AcDbLine
10
12.302213312876153
20
129.09655599501085
30
0
11
-54.3127862118819
21
129.67250593486165
31
0
0
LINE
5
104
100
AcDbEntity
8
0
100
AcDbLine
10
-54.3127862118819
20
129.67250593486165
30
0
11
-100.66229703992356
21
209.95221359499362
31
0
0
LINE
5
105
100
AcDbEntity
8
0
100
AcDbLine
10
-100.66229703992356
20
209.95221359499362
30
0
11
-121.36722792939126
21
210.25293697185936
31
0
0
LINE
5
106
100
AcDbEntity
8
0
100
AcDbLine
10
-121.36722792939126
20
210.25293697185936
30
0
11
-131.69487827229401
21
191.51431653843042
31
0
0
LINE
5
107
100
AcDbEntity
8
0
100
AcDbLine
10
-131.69487827229401
20
191.51431653843042
30
0
11
-95.51882200365273
21
128.85554906367315
31
0
0
LINE
5
108
100
AcDbEntity
8
0
100
AcDbLine
10
-95.51882200365273
20
128.85554906367315
30
0
11
-168.51528633849165
21
129.91576720065808
31
0
0
LINE
5
109
100
AcDbEntity
8
0
100
AcDbLine
10
-168.51528633849165
20
129.91576720065808
30
0
11
-188.71586018805789
21
93.263588502082854
31
0
0
CIRCLE
5
110
100
AcDbEntity
8
0
100
AcDbCircle
10
-103.0000015348196
20
97.000001445412636
30
0
40
1.5000000000000002
210
0
220
0
230
1
0
CIRCLE
5
111
100
AcDbEntity
8
0
100
AcDbCircle
10
-85.000001266598687
20
97.00000144541265
30
0
40
1.5000000000000002
210
0
220
0
230
1
0
CIRCLE
5
112
100
AcDbEntity
8
0
100
AcDbCircle
10
-67.000000998377772
20
97.00000144541265
30
0
40
1.5000000000000002
210
0
220
0
230
1
0
LINE
5
113
100
AcDbEntity
8
0
100
AcDbLine
10
-103.0000015348196
20
97.000001445412636
30
0
11
-67.000000998377772
21
97.00000144541265
31
0
0
LWPOLYLINE
5
114
100
AcDbEntity
8
0
100
AcDbPolyline
90
4
70
1
43
0.0
10
-162.00000241398811
20
123.00000183284283
10
-157.00000233948231
20
123.00000183284283
10
-157.00000233948231
20
118.00000175833702
10
-162.00000241398811
20
118.00000175833702
0
LWPOLYLINE
5
115
100
AcDbEntity
8
0
100
AcDbPolyline
90
4
70
1
43
0.0
10
-172.40409977208145
20
105.08947238542633
10
-167.40409977208145
20
105.08947238542633
10
-167.40409977208145
20
100.08947238542633
10
-172.40409977208145
20
100.08947238542633
0
LWPOLYLINE
5
116
100
AcDbEntity
8
0
100
AcDbPolyline
90
4
70
1
43
0.0
10
-153.50409977208145
20
105.08947238542633
10
-148.50409977208145
20
105.08947238542633
10
-148.50409977208145
20
100.08947238542633
10
-153.50409977208145
20
100.08947238542633
0
LWPOLYLINE
5
117
100
AcDbEntity
8
0
100
AcDbPolyline
90
4
70
1
43
0.0
10
-134.60409977208144
20
105.08947238542633
10
-129.60409977208144
20
105.08947238542633
10
-129.60409977208144
20
100.08947238542633
10
-134.60409977208144
20
100.08947238542633
0
LWPOLYLINE
5
118
100
AcDbEntity
8
0
100
AcDbPolyline
90
4
70
1
43
0.0
10
-115.70409977208145
20
105.08947238542633
10
-110.70409977208145
20
105.08947238542633
10
-110.70409977208145
20
100.08947238542633
10
-115.70409977208145
20
100.08947238542633
0
LWPOLYLINE
5
119
100
AcDbEntity
8
0
100
AcDbPolyline
90
4
70
1
43
0.0
10
-96.804099772081443
20
105.08947238542633
10
-91.804099772081443
20
105.08947238542633
10
-91.804099772081443
20
100.08947238542633
10
-96.804099772081443
20
100.08947238542633
0
LWPOLYLINE
5
120
100
AcDbEntity
8
0
100
AcDbPolyline
90
4
70
1
43
0.0
10
-77.904099772081437
20
105.08947238542633
10
-72.904099772081437
20
105.08947238542633
10
-72.904099772081437
20
100.08947238542633
10
-77.904099772081437
20
100.08947238542633
0
LWPOLYLINE
5
121
100
AcDbEntity
8
0
100
AcDbPolyline
90
4
70
1
43
0.0
10
-59.004099772081453
20
105.08947238542633
10
-54.004099772081453
20
105.08947238542633
10
-54.004099772081453
20
100.08947238542633
10
-59.004099772081453
20
100.08947238542633
0
LWPOLYLINE
5
122
100
AcDbEntity
8
0
100
AcDbPolyline
90
4
70
1
43
0.0
10
-40.104099772081447
20
105.08947238542633
10
-35.104099772081447
20
105.08947238542633
10
-35.104099772081447
20
100.08947238542633
10
-40.104099772081447
20
100.08947238542633
0
LWPOLYLINE
5
123
100
AcDbEntity
8
0
100
AcDbPolyline
90
4
70
1
43
0.0
10
-21.204099772081442
20
105.08947238542633
10
-16.204099772081442
20
105.08947238542633
10
-16.204099772081442
20
100.08947238542633
10
-21.204099772081442
20
100.08947238542633
0
LWPOLYLINE
5
124
100
AcDbEntity
8
0
100
AcDbPolyline
90
4
70
1
43
0.0
10
-2.304099772081436
20
105.08947238542633
10
2.695900227918564
20
105.08947238542633
10
2.695900227918564
20
100.08947238542633
10
-2.304099772081436
20
100.08947238542633
0
LWPOLYLINE
5
125
100
AcDbEntity
8
0
100
AcDbPolyline
90
4
70
1
43
0.0
10
16.59590022791857
20
105.08947238542633
10
21.59590022791857
20
105.08947238542633
10
21.59590022791857
20
100.08947238542633
10
16.59590022791857
20
100.08947238542633
0
LWPOLYLINE
5
126
100
AcDbEntity
8
0
100
AcDbPolyline
90
4
70
1
43
0.0
10
-143.77778019176588
20
123.00000183284283
10
-138.77778011726008
20
123.00000183284283
10
-138.77778011726008
20
118.00000175833702
10
-143.77778019176588
20
118.00000175833702
0
LWPOLYLINE
5
127
100
AcDbEntity
8
0
100
AcDbPolyline
90
4
70
1
43
0.0
10
-125.55555796954366
20
123.00000183284283
10
-120.55555789503785
20
123.00000183284283
10
-120.55555789503785
20
118.00000175833702
10
-125.55555796954366
20
118.00000175833702
0
LWPOLYLINE
5
128
100
AcDbEntity
8
0
100
AcDbPolyline
90
4
70
1
43
0.0
10
-107.33333574732144
20
123.00000183284283
10
-102.33333567281564
20
123.00000183284283
10
-102.33333567281564
20
118.00000175833702
10
-107.33333574732144
20
118.00000175833702
0
LWPOLYLINE
5
129
100
AcDbEntity
8
0
100
AcDbPolyline
90
4
70
1
43
0.0
10
-89.111113525099213
20
123.00000183284283
10
-84.111113450593407
20
123.00000183284283
10
-84.111113450593407
20
118.00000175833702
10
-89.111113525099213
20
118.00000175833702
0
LWPOLYLINE
5
130
100
AcDbEntity
8
0
100
AcDbPolyline
90
4
70
1
43
0.0
10
-70.888891302876985
20
123.00000183284283
10
-65.888891228371179
20
123.00000183284283
10
-65.888891228371179
20
118.00000175833702
10
-70.888891302876985
20
118.00000175833702
0
LWPOLYLINE
5
131
100
AcDbEntity
8
0
100
AcDbPolyline
90
4
70
1
43
0.0
10
-52.666669080654778
20
123.00000183284283
10
-47.666669006148972
20
123.00000183284283
10
-47.666669006148972
20
118.00000175833702
10
-52.666669080654778
20
118.00000175833702
0
LWPOLYLINE
5
132
100
AcDbEntity
8
0
100
AcDbPolyline
90
4
70
1
43
0.0
10
-34.444446858432549
20
123.00000183284283
10
-29.444446783926743
20
123.00000183284283
10
-29.444446783926743
20
118.00000175833702
10
-34.444446858432549
20
118.00000175833702
0
LWPOLYLINE
5
133
100
AcDbEntity
8
0
100
AcDbPolyline
90
4
70
1
43
0.0
10
-16.222224636210321
20
123.00000183284283
10
-11.222224561704515
20
123.00000183284283
10
-11.222224561704515
20
118.00000175833702
10
-16.222224636210321
20
118.00000175833702
0
LWPOLYLINE
5
134
100
AcDbEntity
8
0
100
AcDbPolyline
90
4
70
1
43
0.0
10
1.9999975860119079
20
123.00000183284283
10
6.9999976605177139
20
123.00000183284283
10
6.9999976605177139
20
118.00000175833702
10
1.9999975860119079
20
118.00000175833702
0
LWPOLYLINE
5
135
100
AcDbEntity
8
0
100
AcDbPolyline
90
4
70
1
43
0.0
10
-71.199395962830465
20
137.71301158722665
10
-66.199395962830465
20
137.71301158722665
10
-66.199395962830465
20
132.71301158722665
10
-71.199395962830465
20
132.71301158722665
0
LWPOLYLINE
5
136
100
AcDbEntity
8
0
100
AcDbPolyline
90
4
70
1
43
0.0
10
-89.30211909963063
20
137.91240656658047
10
-84.30211909963063
20
137.91240656658047
10
-84.30211909963063
20
132.91240656658047
10
-89.30211909963063
20
132.91240656658047
0
LWPOLYLINE
5
137
100
AcDbEntity
8
0
100
AcDbPolyline
90
4
70
1
43
0.0
10
-79.099395962830471
20
151.39621296702077
10
-74.099395962830471
20
151.39621296702077
10
-74.099395962830471
20
146.39621296702077
10
-79.099395962830471
20
146.39621296702077
0
LWPOLYLINE
5
138
100
AcDbEntity
8
0
100
AcDbPolyline
90
4
70
1
43
0.0
10
-86.999395962830462
20
165.07941434681493
10
-81.999395962830462
20
165.07941434681493
10
-81.999395962830462
20
160.07941434681493
10
-86.999395962830462
20
160.07941434681493
0
LWPOLYLINE
5
139
100
AcDbEntity
8
0
100
AcDbPolyline
90
4
70
1
43
0.0
10
-94.899395962830454
20
178.762615726609
10
-89.899395962830454
20
178.762615726609
10
-89.899395962830454
20
173.762615726609
10
-94.899395962830454
20
173.762615726609
0
LWPOLYLINE
5
140
100
AcDbEntity
8
0
100
AcDbPolyline
90
4
70
1
43
0.0
10
-102.79939596283046
20
192.44581710640315
10
-97.799395962830459
20
192.44581710640315
10
-97.799395962830459
20
187.44581710640315
10
-102.79939596283046
20
187.44581710640315
0
LWPOLYLINE
5
141
100
AcDbEntity
8
0
100
AcDbPolyline
90
4
70
1
43
0.0
10
-110.69939596283047
20
206.12901848619728
10
-105.69939596283047
20
206.12901848619728
10
-105.69939596283047
20
201.12901848619728
10
-110.69939596283047
20
201.12901848619728
0
LWPOLYLINE
5
142
100
AcDbEntity
8
0
100
AcDbPolyline
90
4
70
1
43
0.0
10
-97.30211909963063
20
146.7688130271315
10
-97.30211909963063
20
151.7688130271315
10
-92.30211909963063
20
151.7688130271315
10
-92.30211909963063
20
146.7688130271315
0
LWPOLYLINE
5
143
100
AcDbEntity
8
0
100
AcDbPolyline
90
4
70
1
43
0.0
10
-105.30211909963063
20
160.6252194876825
10
-105.30211909963063
20
165.6252194876825
10
-100.30211909963063
20
165.6252194876825
10
-100.30211909963063
20
160.6252194876825
0
LWPOLYLINE
5
144
100
AcDbEntity
8
0
100
AcDbPolyline
90
4
70
1
43
0.0
10
-113.30211909963062
20
174.4816259482335
10
-113.30211909963062
20
179.4816259482335
10
-108.30211909963062
20
179.4816259482335
10
-108.30211909963062
20
174.4816259482335
0
LWPOLYLINE
5
145
100
AcDbEntity
8
0
100
AcDbPolyline
90
4
70
1
43
0.0
10
-121.30211909963063
20
188.33803240878453
10
-121.30211909963063
20
193.33803240878453
10
-116.30211909963063
20
193.33803240878453
10
-116.30211909963063
20
188.33803240878453
0
CIRCLE
5
146
100
AcDbEntity
8
0
100
AcDbCircle
10
10.509076312333811
20
125.85030691622741
30
0
40
1.5000000000000002
210
0
220
0
230
1
0
CIRCLE
5
147
100
AcDbEntity
8
0
100
AcDbCircle
10
17.451906558073247
20
113.82497218228085
30
0
40
1.5000000000000002
210
0
220
0
230
1
0
CIRCLE
5
148
100
AcDbEntity
8
0
100
AcDbCircle
10
26.874971670744927
20
97.503744644103861
30
0
40
1.5000000000000002
210
0
220
0
230
1
0
LINE
5
149
100
AcDbEntity
8
0
100
AcDbLine
10
10.509076312333811
20
125.85030691622741
30
0
11
26.874971670744927
21
97.503744644103861
31
0
0
LWPOLYLINE
5
150
100
AcDbEntity
8
0
100
AcDbPolyline
90
4
70
1
43
0.0
10
-109.26910168938788
20
93.332729570814109
10
-59.269101689387888
20
93.332729570814109
10
-59.269101689387888
20
100.71652863574754
10
-109.26910168938788
20
100.71652863574754
0
LINE
5
151
100
AcDbEntity
8
0
100
AcDbLine
10
12.302213312876153
20
129.09655599501085
30
0
11
6.6567616058803765
21
125.83715293227968
31
0
0
LINE
5
152
100
AcDbEntity
8
0
100
AcDbLine
10
6.6567616058803765
20
125.83715293227968
30
0
11
25.032808409169107
21
94.049610307351287
31
0
0
LINE
5
153
100
AcDbEntity
8
0
100
AcDbLine
10
25.032808409169107
20
94.049610307351287
30
0
11
32.532808409169107
21
94.056137420877874
31
0
0
LINE
5
154
100
AcDbEntity
8
0
100
AcDbLine
10
31.84033602403899
20
94.055534774761625
30
0
11
11.78259807060549
21
128.79655599501083
31
0
0
LINE
5
155
100
AcDbEntity
8
0
100
AcDbLine
10
11.78259807060549
20
128.79655599501083
30
0
11
6.4271302971712396
21
128.30705741612289
31
0
0
LINE
5
156
100
AcDbEntity
8
0
100
AcDbLine
10
6.4271302971712396
20
128.30705741612289
30
0
11
6.6567616058803765
21
125.83715293227968
31
0
0
LINE
5
157
100
AcDbEntity
8
0
100
AcDbLine
10
-59.269101689387888
20
93.932729570814104
30
0
11
-109.26910168938788
21
93.932729570814104
31
0
0
LINE
5
158
100
AcDbEntity
8
0
100
AcDbLine
10
-105.64979037632156
20
74.602307249231302
30
0
11
-107.90360605860533
21
69.719586818844377
31
0
0
LINE
5
159
100
AcDbEntity
8
0
100
AcDbLine
10
-65.534314469454742
20
74.602307249231387
30
0
11
-105.64979037632156
21
74.602307249231302
31
0
0
LINE
5
160
100
AcDbEntity
8
0
100
AcDbLine
10
-107.90360605860533
20
69.719586818844377
30
0
11
-105.64979037632148
21
68.683501123769162
31
0
0
LINE
5
161
100
AcDbEntity
8
0
100
AcDbLine
10
-105.64979037632148
20
68.683501123769162
30
0
11
-68.932947537608428
21
68.703853164084819
31
0
0
LINE
5
162
100
AcDbEntity
8
0
100
AcDbLine
10
-68.932947537608428
20
68.703853164084819
30
0
11
-65.188600183735858
21
75.202307249231396
31
0
0
LINE
5
163
100
AcDbEntity
8
0
100
AcDbLine
10
-110.46306565756204
20
-4.6621829370860368
30
0
11
-116.85762322423417
21
-0.97028340461932316
31
0
0
LINE
5
164
100
AcDbEntity
8
0
100
AcDbLine
10
-110.98268089983272
20
-4.3621829370860343
30
0
11
-135.9826808998327
21
-47.663453126307964
31
0
0
LINE
5
165
100
AcDbEntity
8
0
100
AcDbLine
10
-141.85762322423417
20
-44.271553593841247
30
0
11
-135.46306565756203
21
-47.963453126307968
31
0
0
LINE
5
166
100
AcDbEntity
8
0
100
AcDbLine
10
-116.85762322423417
20
-0.97028340461932316
30
0
11
-141.85762322423417
21
-44.271553593841247
31
0
0
LINE
5
167
100
AcDbEntity
8
0
100
AcDbLine
10
-117.43238844692709
20
-54.194248745779518
30
0
11
-114.33073635577662
21
-58.587470597278482
31
0
0
LINE
5
168
100
AcDbEntity
8
0
100
AcDbLine
10
-97.374650493493746
20
-19.453227525530217
30
0
11
-117.43238844692709
21
-54.194248745779518
31
0
0
LINE
5
169
100
AcDbEntity
8
0
100
AcDbLine
10
-114.33073635577662
20
-58.587470597278482
30
0
11
-112.30655198220188
21
-57.15365180851051
31
0
0
LINE
5
170
100
AcDbEntity
8
0
100
AcDbLine
10
-112.30655198220188
20
-57.15365180851051
30
0
11
-93.965755946777549
21
-25.345757143266457
31
0
0
LINE
5
171
100
AcDbEntity
8
0
100
AcDbLine
10
-93.965755946777549
20
-25.345757143266457
30
0
11
-97.721408592904965
21
-18.853830171646457
31
0
0
LINE
5
172
100
AcDbEntity
8
0
100
AcDbLine
10
-51.193963968174181
20
-97.994912507900139
30
0
11
-57.588521534846322
21
-101.68681204036685
31
0
0
LINE
5
173
100
AcDbEntity
8
0
100
AcDbLine
10
-51.713579210444856
20
-98.294912507900136
30
0
11
-26.713579210444873
21
-141.59618269712209
31
0
0
LINE
5
174
100
AcDbEntity
8
0
100
AcDbLine
10
-32.588521534846336
20
-144.98808222958877
30
0
11
-26.193963968174199
21
-141.29618269712208
31
0
0
LINE
5
175
100
AcDbEntity
8
0
100
AcDbLine
10
-57.588521534846322
20
-101.68681204036685
30
0
11
-32.588521534846336
21
-144.98808222958877
31
0
0
LINE
5
176
100
AcDbEntity
8
0
100
AcDbLine
10
-11.782598070605506
20
-128.79655599501083
30
0
11
-6.4271302971712547
21
-128.30705741612289
31
0
0
LINE
5
177
100
AcDbEntity
8
0
100
AcDbLine
10
-31.840336024039004
20
-94.055534774761625
30
0
11
-11.782598070605506
21
-128.79655599501083
31
0
0
LINE
5
178
100
AcDbEntity
8
0
100
AcDbLine
10
-6.4271302971712547
20
-128.30705741612289
30
0
11
-6.6567616058803925
21
-125.83715293227968
31
0
0
LINE
5
179
100
AcDbEntity
8
0
100
AcDbLine
10
-6.6567616058803925
20
-125.83715293227968
30
0
11
-25.032808409169117
21
-94.049610307351287
31
0
0
LINE
5
180
100
AcDbEntity
8
0
100
AcDbLine
10
-25.032808409169117
20
-94.049610307351287
30
0
11
-32.532808409169121
21
-94.056137420877874
31
0
0
LINE
5
181
100
AcDbEntity
8
0
100
AcDbLine
10
59.269101689387881
20
-93.332729570814109
30
0
11
59.269101689387881
21
-100.71652863574754
31
0
0
LINE
5
182
100
AcDbEntity
8
0
100
AcDbLine
10
59.269101689387881
20
-93.932729570814104
30
0
11
109.26910168938787
21
-93.932729570814132
31
0
0
LINE
5
183
100
AcDbEntity
8
0
100
AcDbLine
10
109.26910168938787
20
-100.71652863574755
30
0
11
109.26910168938787
21
-93.332729570814124
31
0
0
LINE
5
184
100
AcDbEntity
8
0
100
AcDbLine
10
59.269101689387881
20
-100.71652863574754
30
0
11
109.26910168938787
21
-100.71652863574755
31
0
0
LINE
5
185
100
AcDbEntity
8
0
100
AcDbLine
10
105.64979037632155
20
-74.602307249231302
30
0
11
107.90360605860531
21
-69.719586818844391
31
0
0
LINE
5
186
100
AcDbEntity
8
0
100
AcDbLine
10
65.534314469454728
20
-74.602307249231387
30
0
11
105.64979037632155
21
-74.602307249231302
31
0
0
LINE
5
187
100
AcDbEntity
8
0
100
AcDbLine
10
107.90360605860531
20
-69.719586818844391
30
0
11
105.64979037632143
21
-68.683501123769162
31
0
0
LINE
5
188
100
AcDbEntity
8
0
100
AcDbLine
10
105.64979037632143
20
-68.683501123769162
30
0
11
68.932947537608413
21
-68.703853164084819
31
0
0
LINE
5
189
100
AcDbEntity
8
0
100
AcDbLine
10
68.932947537608413
20
-68.703853164084819
30
0
11
65.188600183735844
21
-75.202307249231396
31
0
0
LINE
5
190
100
AcDbEntity
8
0
100
AcDbLine
10
110.46306565756204
20
4.6621829370860102
30
0
11
116.85762322423417
21
0.97028340461928764
31
0
0
LINE
5
191
100
AcDbEntity
8
0
100
AcDbLine
10
110.98268089983272
20
4.3621829370860077
30
0
11
135.9826808998327
21
47.663453126307914
31
0
0
LINE
5
192
100
AcDbEntity
8
0
100
AcDbLine
10
141.85762322423417
20
44.271553593841197
30
0
11
135.46306565756203
21
47.963453126307918
31
0
0
LINE
5
193
100
AcDbEntity
8
0
100
AcDbLine
10
116.85762322423417
20
0.97028340461928764
30
0
11
141.85762322423417
21
44.271553593841197
31
0
0
LINE
5
194
100
AcDbEntity
8
0
100
AcDbLine
10
117.43238844692711
20
54.194248745779454
30
0
11
114.33073635577664
21
58.587470597278426
31
0
0
LINE
5
195
100
AcDbEntity
8
0
100
AcDbLine
10
97.374650493493746
20
19.453227525530163
30
0
11
117.43238844692711
21
54.194248745779454
31
0
0
LINE
5
196
100
AcDbEntity
8
0
100
AcDbLine
10
114.33073635577664
20
58.587470597278426
30
0
11
112.30655198220191
21
57.153651808510453
31
0
0
LINE
5
197
100
AcDbEntity
8
0
100
AcDbLine
10
112.30655198220191
20
57.153651808510453
30
0
11
93.965755946777577
21
25.345757143266404
31
0
0
LINE
5
198
100
AcDbEntity
8
0
100
AcDbLine
10
93.965755946777577
20
25.345757143266404
30
0
11
97.721408592904993
21
18.853830171646408
31
0
0
LINE
5
199
100
AcDbEntity
8
0
100
AcDbLine
10
51.193963968174245
20
97.994912507900125
30
0
11
57.588521534846365
21
101.68681204036682
31
0
0
LINE
5
200
100
AcDbEntity
8
0
100
AcDbLine
10
51.713579210444898
20
98.294912507900122
30
0
11
26.713579210444934
21
141.59618269712206
31
0
0
LINE
5
201
100
AcDbEntity
8
0
100
AcDbLine
10
32.5885215348464
20
144.98808222958874
30
0
11
26.19396396817428
21
141.29618269712205
31
0
0
LINE
5
202
100
AcDbEntity
8
0
100
AcDbLine
10
57.588521534846365
20
101.68681204036682
30
0
11
32.5885215348464
21
144.98808222958874
31
0
0
ENDSEC
0
SECTION
2
OBJECTS
0
DICTIONARY
5
C
100
AcDbDictionary
3
ACAD_GROUP
350
D
3
ACAD_MLINESTYLE
350
17
0
DICTIONARY
5
D
100
AcDbDictionary
0
DICTIONARY
5
1A
330
C
100
AcDbDictionary
0
DICTIONARY
5
17
100
AcDbDictionary
0
ENDSEC
0
EOF
