0
SECTION
2
HEADER
9
$INSUNITS
70
4
9
$ACADVER
1
AC1014
9
$HANDSEED
5
FFFF
0
ENDSEC
0
SECTION
2
TABLES
0
TABLE
2
VPORT
5
8
100
AcDbSymbolTable
0
ENDTAB
0
TABLE
2
LTYPE
5
5
100
AcDbSymbolTable
0
LTYPE
5
14
100
AcDbSymbolTableRecord
100
AcDbLinetypeTableRecord
2
BYBLOCK
70
0
0
LTYPE
5
15
100
AcDbSymbolTableRecord
100
AcDbLinetypeTableRecord
2
BYLAYER
70
0
0
LTYPE
5
16
100
AcDbSymbolTableRecord
100
AcDbLinetypeTableRecord
2
DASHED
70
0
3
Dashed __ __ __ __ __ __ __ __ __ __ __ __ __ _
72
65
73
2
40
0.75
49
0.5
74
0
49
-0.25
74
0
0
ENDTAB
0
TABLE
2
LAYER
5
2
100
AcDbSymbolTable
70
2
0
LAYER
5
50
100
AcDbSymbolTableRecord
100
AcDbLayerTableRecord
2
0
70
0
62
7
6
CONTINUOUS
0
ENDTAB
0
TABLE
2
STYLE
5
3
100
AcDbSymbolTable
70
1
0
STYLE
5
11
100
AcDbSymbolTableRecord
100
AcDbTextStyleTableRecord
2
STANDARD
70
0
0
ENDTAB
0
TABLE
2
VIEW
5
6
100
AcDbSymbolTable
70
0
0
ENDTAB
0
TABLE
2
UCS
5
7
100
AcDbSymbolTable
70
0
0
ENDTAB
0
TABLE
2
APPID
5
9
100
AcDbSymbolTable
70
2
0
APPID
5
12
100
AcDbSymbolTableRecord
100
AcDbRegAppTableRecord
2
ACAD
70
0
0
ENDTAB
0
TABLE
2
DIMSTYLE
5
A
100
AcDbSymbolTable
70
1
0
ENDTAB
0
TABLE
2
BLOCK_RECORD
5
1
100
AcDbSymbolTable
70
1
0
BLOCK_RECORD
5
1F
100
AcDbSymbolTableRecord
100
AcDbBlockTableRecord
2
*MODEL_SPACE
0
BLOCK_RECORD
5
1B
100
AcDbSymbolTableRecord
100
AcDbBlockTableRecord
2
*PAPER_SPACE
0
ENDTAB
0
ENDSEC
0
SECTION
2
BLOCKS
0
BLOCK
5
20
100
AcDbEntity
100
AcDbBlockBegin
2
*MODEL_SPACE
0
ENDBLK
5
21
100
AcDbEntity
100
AcDbBlockEnd
0
BLOCK
5
1C
100
AcDbEntity
100
AcDbBlockBegin
2
*PAPER_SPACE
0
ENDBLK
5
1D
100
AcDbEntity
100
AcDbBlockEnd
0
ENDSEC
0
SECTION
2
ENTITIES
0
LWPOLYLINE
5
100
100
AcDbEntity
8
0
100
AcDbPolyline
90
9
70
1
43
0.0
10
-190.74839306587143
20
92.06181917125825
10
34.956462150447329
20
92.258246001029406
10
12.99848334132589
20
130.29058092994848
10
-53.616516183432168
20
130.86653086979928
10
-99.963691581981294
20
211.14219344739269
10
-122.07034546485974
20
211.463275784849
10
-133.07261250147582
20
191.50062222270009
10
-97.614933139608269
20
130.08612004945905
10
-169.21840387396009
20
131.1261060136477
0
LWPOLYLINE
5
101
100
AcDbEntity
8
0
100
AcDbPolyline
90
4
70
1
43
0.0
10
28.699706487716512
20
99.095264699423467
10
11.699706487716528
20
128.54012842809436
10
3.0394524498721811
20
123.54012842809439
10
20.039452449872122
20
94.095264699423481
0
LWPOLYLINE
5
102
100
AcDbEntity
8
0
100
AcDbPolyline
90
4
70
1
43
0.0
10
-11.543880883461153
20
123.54012842809439
10
5.4561191165387886
20
94.095264699423481
10
14.116373154383178
20
99.095264699423467
10
-2.8836268456168046
20
128.54012842809436
0
LWPOLYLINE
5
103
100
AcDbEntity
8
0
100
AcDbPolyline
90
4
70
1
43
0.0
10
-26.127214216794485
20
123.54012842809439
10
-9.1272142167945436
20
94.095264699423481
10
-0.4669601789501554
20
99.095264699423467
10
-17.466960178950139
20
128.54012842809436
0
LWPOLYLINE
5
104
100
AcDbEntity
8
0
100
AcDbPolyline
90
4
70
1
43
0.0
10
-40.710547550127821
20
123.54012842809439
10
-23.710547550127878
20
94.095264699423481
10
-15.05029351228349
20
99.095264699423467
10
-32.050293512283474
20
128.54012842809436
0
LWPOLYLINE
5
105
100
AcDbEntity
8
0
100
AcDbPolyline
90
4
70
1
43
0.0
10
-55.293880883461156
20
123.54012842809439
10
-38.293880883461206
20
94.095264699423481
10
-29.633626845616821
20
99.095264699423467
10
-46.633626845616803
20
128.54012842809436
0
LWPOLYLINE
5
106
100
AcDbEntity
8
0
100
AcDbPolyline
90
4
70
1
43
0.0
10
-69.877214216794485
20
123.54012842809439
10
-52.877214216794535
20
94.095264699423481
10
-44.216960178950153
20
99.095264699423467
10
-61.216960178950131
20
128.54012842809436
0
LWPOLYLINE
5
107
100
AcDbEntity
8
0
100
AcDbPolyline
90
4
70
1
43
0.0
10
-84.460547550127814
20
123.54012842809439
10
-67.46054755012787
20
94.095264699423481
10
-58.800293512283488
20
99.095264699423467
10
-75.800293512283474
20
128.54012842809436
0
LWPOLYLINE
5
108
100
AcDbEntity
8
0
100
AcDbPolyline
90
4
70
1
43
0.0
10
-99.043880883461128
20
123.54012842809439
10
-82.043880883461199
20
94.095264699423481
10
-73.383626845616817
20
99.095264699423467
10
-90.383626845616789
20
128.54012842809436
0
LWPOLYLINE
5
109
100
AcDbEntity
8
0
100
AcDbPolyline
90
4
70
1
43
0.0
10
-113.62721421679447
20
123.54012842809439
10
-96.627214216794528
20
94.095264699423481
10
-87.96696017895016
20
99.095264699423467
10
-104.96696017895013
20
128.54012842809436
0
LWPOLYLINE
5
110
100
AcDbEntity
8
0
100
AcDbPolyline
90
4
70
1
43
0.0
10
-128.21054755012781
20
123.54012842809439
10
-111.21054755012787
20
94.095264699423481
10
-102.55029351228347
20
99.095264699423467
10
-119.55029351228347
20
128.54012842809436
0
LWPOLYLINE
5
111
100
AcDbEntity
8
0
100
AcDbPolyline
90
4
70
1
43
0.0
10
-142.79388088346113
20
123.54012842809439
10
-125.7938808834612
20
94.095264699423481
10
-117.1336268456168
20
99.095264699423467
10
-134.13362684561679
20
128.54012842809436
0
LWPOLYLINE
5
112
100
AcDbEntity
8
0
100
AcDbPolyline
90
4
70
1
43
0.0
10
-157.37721421679447
20
123.54012842809439
10
-140.37721421679453
20
94.095264699423481
10
-131.71696017895013
20
99.095264699423467
10
-148.7169601789501
20
128.54012842809436
0
LWPOLYLINE
5
113
100
AcDbEntity
8
0
100
AcDbPolyline
90
4
70
1
43
0.0
10
-171.96054755012781
20
123.54012842809439
10
-154.96054755012787
20
94.095264699423481
10
-146.30029351228347
20
99.095264699423467
10
-163.30029351228347
20
128.54012842809436
0
LWPOLYLINE
5
114
100
AcDbEntity
8
0
100
AcDbPolyline
90
4
70
1
43
0.0
10
-168.22575288363657
20
111.75904433679115
10
-182.71262045187004
20
102.86350230381063
10
-177.47994866776497
20
94.341815498967904
10
-162.99308109953176
20
103.23735753194553
0
LINE
5
115
100
AcDbEntity
8
0
100
AcDbLine
10
-190.74839306587143
20
92.06181917125825
30
0
11
-163.46054755012784
21
108.81769656375894
31
0
6
DASHED
0
LWPOLYLINE
5
116
100
AcDbEntity
8
0
100
AcDbPolyline
90
4
70
1
43
0.0
10
-62.614933139608276
20
132.58612004945905
10
-96.614933139608269
20
132.58612004945905
10
-96.614933139608269
20
142.586120049459
10
-62.614933139608262
20
142.58612004945905
0
LWPOLYLINE
5
117
100
AcDbEntity
8
0
100
AcDbPolyline
90
4
70
1
43
0.0
10
-70.489933139608254
20
156.22602015906395
10
-70.489933139608269
20
146.22602015906395
10
-104.48993313960827
20
146.22602015906395
10
-104.48993313960827
20
156.22602015906392
0
LWPOLYLINE
5
118
100
AcDbEntity
8
0
100
AcDbPolyline
90
4
70
1
43
0.0
10
-78.36493313960824
20
169.86592026866887
10
-78.364933139608269
20
159.86592026866887
10
-112.36493313960827
20
159.86592026866887
10
-112.36493313960827
20
169.86592026866884
0
LWPOLYLINE
5
119
100
AcDbEntity
8
0
100
AcDbPolyline
90
4
70
1
43
0.0
10
-86.23993313960824
20
183.5058203782738
10
-86.239933139608254
20
173.5058203782738
10
-120.23993313960827
20
173.5058203782738
10
-120.23993313960827
20
183.50582037827371
0
LWPOLYLINE
5
120
100
AcDbEntity
8
0
100
AcDbPolyline
90
4
70
1
43
0.0
10
-94.11493313960824
20
197.14572048787869
10
-94.114933139608254
20
187.14572048787869
10
-128.11493313960824
20
187.14572048787869
10
-128.11493313960824
20
197.14572048787863
0
LWPOLYLINE
5
121
100
AcDbEntity
8
0
100
AcDbPolyline
90
4
70
1
43
0.0
10
-101.96369158198129
20
199.14219344739269
10
-118.96369158198129
20
199.14219344739269
10
-118.96369158198129
20
209.14219344739269
10
-101.96369158198129
20
209.14219344739269
0
ENDSEC
0
SECTION
2
OBJECTS
0
DICTIONARY
5
C
100
AcDbDictionary
3
ACAD_GROUP
350
D
3
ACAD_MLINESTYLE
350
17
0
DICTIONARY
5
D
100
AcDbDictionary
0
DICTIONARY
5
1A
330
C
100
AcDbDictionary
0
DICTIONARY
5
17
100
AcDbDictionary
0
ENDSEC
0
EOF
