0
SECTION
2
HEADER
9
$INSUNITS
70
4
9
$ACADVER
1
AC1014
9
$HANDSEED
5
FFFF
0
ENDSEC
0
SECTION
2
TABLES
0
TABLE
2
VPORT
5
8
100
AcDbSymbolTable
0
ENDTAB
0
TABLE
2
LTYPE
5
5
100
AcDbSymbolTable
0
LTYPE
5
14
100
AcDbSymbolTableRecord
100
AcDbLinetypeTableRecord
2
BYBLOCK
70
0
0
LTYPE
5
15
100
AcDbSymbolTableRecord
100
AcDbLinetypeTableRecord
2
BYLAYER
70
0
0
LTYPE
5
16
100
AcDbSymbolTableRecord
100
AcDbLinetypeTableRecord
2
DASHED
70
0
3
Dashed __ __ __ __ __ __ __ __ __ __ __ __ __ _
72
65
73
2
40
0.75
49
0.5
74
0
49
-0.25
74
0
0
ENDTAB
0
TABLE
2
LAYER
5
2
100
AcDbSymbolTable
70
2
0
LAYER
5
50
100
AcDbSymbolTableRecord
100
AcDbLayerTableRecord
2
0
70
0
62
7
6
CONTINUOUS
0
ENDTAB
0
TABLE
2
STYLE
5
3
100
AcDbSymbolTable
70
1
0
STYLE
5
11
100
AcDbSymbolTableRecord
100
AcDbTextStyleTableRecord
2
STANDARD
70
0
0
ENDTAB
0
TABLE
2
VIEW
5
6
100
AcDbSymbolTable
70
0
0
ENDTAB
0
TABLE
2
UCS
5
7
100
AcDbSymbolTable
70
0
0
ENDTAB
0
TABLE
2
APPID
5
9
100
AcDbSymbolTable
70
2
0
APPID
5
12
100
AcDbSymbolTableRecord
100
AcDbRegAppTableRecord
2
ACAD
70
0
0
ENDTAB
0
TABLE
2
DIMSTYLE
5
A
100
AcDbSymbolTable
70
1
0
ENDTAB
0
TABLE
2
BLOCK_RECORD
5
1
100
AcDbSymbolTable
70
1
0
BLOCK_RECORD
5
1F
100
AcDbSymbolTableRecord
100
AcDbBlockTableRecord
2
*MODEL_SPACE
0
BLOCK_RECORD
5
1B
100
AcDbSymbolTableRecord
100
AcDbBlockTableRecord
2
*PAPER_SPACE
0
ENDTAB
0
ENDSEC
0
SECTION
2
BLOCKS
0
BLOCK
5
20
100
AcDbEntity
100
AcDbBlockBegin
2
*MODEL_SPACE
0
ENDBLK
5
21
100
AcDbEntity
100
AcDbBlockEnd
0
BLOCK
5
1C
100
AcDbEntity
100
AcDbBlockBegin
2
*PAPER_SPACE
0
ENDBLK
5
1D
100
AcDbEntity
100
AcDbBlockEnd
0
ENDSEC
0
SECTION
2
ENTITIES
0
LWPOLYLINE
5
100
100
AcDbEntity
8
0
100
AcDbPolyline
90
9
70
1
43
0.0
10
-190.74839306587143
20
92.06181917125825
10
34.956462150447329
20
92.258246001029406
10
12.99848334132589
20
130.29058092994848
10
-53.616516183432168
20
130.86653086979928
10
-99.963691581981294
20
211.14219344739269
10
-122.07034546485974
20
211.463275784849
10
-133.07261250147582
20
191.50062222270009
10
-97.614933139608269
20
130.08612004945905
10
-169.21840387396009
20
131.1261060136477
0
LWPOLYLINE
5
101
100
AcDbEntity
8
0
100
AcDbPolyline
90
4
70
1
43
0.0
10
-141.43611546418842
20
92.104734749431415
10
-132.7591016893879
20
92.112286196678866
10
-132.7591016893879
20
91.118231528095052
10
-141.43611546418842
20
91.110680080847558
0
LWPOLYLINE
5
102
100
AcDbEntity
8
0
100
AcDbPolyline
90
4
70
1
43
0.0
10
-138.4060293867534
20
130.67857970435881
10
-131.39407372081433
20
130.57673638029502
10
-131.39407372081433
20
131.56860560780461
10
-138.4060293867534
20
131.67044893186841
0
LWPOLYLINE
5
103
100
AcDbEntity
8
0
100
AcDbPolyline
90
4
70
1
43
0.0
10
-30.379101689387884
20
92.201385648317583
10
-20.096879726055494
20
92.210334079051691
10
-20.096879726055494
20
91.222955101643578
10
-30.379101689387884
20
91.214006670909455
0
LWPOLYLINE
5
104
100
AcDbEntity
8
0
100
AcDbPolyline
90
4
70
1
43
0.0
10
-29.873470141637291
20
130.66124968632403
10
-23.183404439048275
20
130.60340771429833
10
-23.183404439048275
20
131.60227642341471
10
-29.873470141637291
20
131.66011839544043
0
LWPOLYLINE
5
105
100
AcDbEntity
8
0
100
AcDbPolyline
90
4
70
1
43
0.0
10
-78.10308304090772
20
173.2785087698791
10
-73.318433278616681
20
164.99125228516871
10
-72.452407874832261
20
165.49125228516871
10
-77.237057637123286
20
173.7785087698791
0
LWPOLYLINE
5
106
100
AcDbEntity
8
0
100
AcDbPolyline
90
4
70
1
43
0.0
10
-108.14733723052321
20
148.32877906077005
10
-111.41725372458318
20
153.99244056498938
10
-112.28327912836761
20
153.49244056498941
10
-109.01336263430765
20
147.82877906077005
0
LINE
5
107
100
AcDbEntity
8
0
100
AcDbLine
10
-79.642313525449026
20
173.54453417366352
30
0
11
-77.7370576371233
21
174.64453417366354
31
0
0
LINE
5
108
100
AcDbEntity
8
0
100
AcDbLine
10
-71.952407874832289
20
164.62522688138426
30
0
11
-73.85766376315803
21
163.5252268813843
31
0
0
LINE
5
109
100
AcDbEntity
8
0
100
AcDbLine
10
-112.78327912836764
20
154.35846596877383
30
0
11
-110.87802324004186
21
155.45846596877382
31
0
0
LINE
5
110
100
AcDbEntity
8
0
100
AcDbLine
10
-106.60810674598189
20
148.06275365698556
30
0
11
-108.51336263430767
21
146.9627536569856
31
0
0
LINE
5
111
100
AcDbEntity
8
0
100
AcDbLine
10
-130.39407372081433
20
131.55408136821785
30
0
11
-130.3940737208143
21
129.36208557526146
31
0
0
LINE
5
112
100
AcDbEntity
8
0
100
AcDbLine
10
-139.4060293867534
20
129.49297737849872
30
0
11
-139.4060293867534
21
131.68497317145514
31
0
0
LINE
5
113
100
AcDbEntity
8
0
100
AcDbLine
10
-139.4060293867534
20
131.68497317145514
30
0
11
-130.39407372081433
21
131.55408136821785
31
0
0
LINE
5
114
100
AcDbEntity
8
0
100
AcDbLine
10
-142.43611546418839
20
91.109809799038231
30
0
11
-131.7591016893879
21
91.119101809904365
31
0
0
LINE
5
115
100
AcDbEntity
8
0
100
AcDbLine
10
-30.873470141637288
20
131.66876434521089
30
0
11
-22.183404439048275
21
131.59363047364423
31
0
0
LINE
5
116
100
AcDbEntity
8
0
100
AcDbLine
10
-19.096879726055494
20
91.223825383452919
30
0
11
-31.379101689387884
21
91.213136389100129
31
0
0
LINE
5
117
100
AcDbEntity
8
0
100
AcDbLine
10
-19.096879726055494
20
93.423825383452922
30
0
11
-19.096879726055494
21
91.223825383452919
31
0
0
LINE
5
118
100
AcDbEntity
8
0
100
AcDbLine
10
-31.379101689387884
20
91.213136389100129
30
0
11
-31.379101689387884
21
93.413136389100146
31
0
0
LINE
5
119
100
AcDbEntity
8
0
100
AcDbLine
10
-22.183404439048275
20
131.59363047364423
30
0
11
-22.183404439048275
21
129.39471691389753
31
0
0
LINE
5
120
100
AcDbEntity
8
0
100
AcDbLine
10
-30.873470141637291
20
129.46985078546419
30
0
11
-30.873470141637288
21
131.66876434521089
31
0
0
LINE
5
121
100
AcDbEntity
8
0
100
AcDbLine
10
-131.7591016893879
20
93.313156932922382
30
0
11
-131.7591016893879
21
91.119101809904365
31
0
0
LWPOLYLINE
5
122
100
AcDbEntity
8
0
100
AcDbPolyline
90
9
70
1
43
0.0
10
12.186168308134498
20
128.89755183918791
10
-54.42883121662355
20
129.47350177903868
10
-100.77873128291392
20
209.75388361959378
10
-121.25004167347981
20
210.05121383636106
10
-131.46525590076365
20
191.51659892438545
10
-95.169470147660149
20
128.65045389937546
10
-168.39810008258019
20
129.71404406515978
10
-188.37710470842228
20
93.46388339055359
10
32.532808496558147
20
93.656137269515511
0
ENDSEC
0
SECTION
2
OBJECTS
0
DICTIONARY
5
C
100
AcDbDictionary
3
ACAD_GROUP
350
D
3
ACAD_MLINESTYLE
350
17
0
DICTIONARY
5
D
100
AcDbDictionary
0
DICTIONARY
5
1A
330
C
100
AcDbDictionary
0
DICTIONARY
5
17
100
AcDbDictionary
0
ENDSEC
0
EOF
