0
SECTION
2
HEADER
9
$INSUNITS
70
4
9
$ACADVER
1
AC1014
9
$HANDSEED
5
FFFF
0
ENDSEC
0
SECTION
2
TABLES
0
TABLE
2
VPORT
5
8
100
AcDbSymbolTable
0
ENDTAB
0
TABLE
2
LTYPE
5
5
100
AcDbSymbolTable
0
LTYPE
5
14
100
AcDbSymbolTableRecord
100
AcDbLinetypeTableRecord
2
BYBLOCK
70
0
0
LTYPE
5
15
100
AcDbSymbolTableRecord
100
AcDbLinetypeTableRecord
2
BYLAYER
70
0
0
LTYPE
5
16
100
AcDbSymbolTableRecord
100
AcDbLinetypeTableRecord
2
DASHED
70
0
3
Dashed __ __ __ __ __ __ __ __ __ __ __ __ __ _
72
65
73
2
40
0.75
49
0.5
74
0
49
-0.25
74
0
0
ENDTAB
0
TABLE
2
LAYER
5
2
100
AcDbSymbolTable
70
2
0
LAYER
5
50
100
AcDbSymbolTableRecord
100
AcDbLayerTableRecord
2
0
70
0
62
7
6
CONTINUOUS
0
ENDTAB
0
TABLE
2
STYLE
5
3
100
AcDbSymbolTable
70
1
0
STYLE
5
11
100
AcDbSymbolTableRecord
100
AcDbTextStyleTableRecord
2
STANDARD
70
0
0
ENDTAB
0
TABLE
2
VIEW
5
6
100
AcDbSymbolTable
70
0
0
ENDTAB
0
TABLE
2
UCS
5
7
100
AcDbSymbolTable
70
0
0
ENDTAB
0
TABLE
2
APPID
5
9
100
AcDbSymbolTable
70
2
0
APPID
5
12
100
AcDbSymbolTableRecord
100
AcDbRegAppTableRecord
2
ACAD
70
0
0
ENDTAB
0
TABLE
2
DIMSTYLE
5
A
100
AcDbSymbolTable
70
1
0
ENDTAB
0
TABLE
2
BLOCK_RECORD
5
1
100
AcDbSymbolTable
70
1
0
BLOCK_RECORD
5
1F
100
AcDbSymbolTableRecord
100
AcDbBlockTableRecord
2
*MODEL_SPACE
0
BLOCK_RECORD
5
1B
100
AcDbSymbolTableRecord
100
AcDbBlockTableRecord
2
*PAPER_SPACE
0
ENDTAB
0
ENDSEC
0
SECTION
2
BLOCKS
0
BLOCK
5
20
100
AcDbEntity
100
AcDbBlockBegin
2
*MODEL_SPACE
0
ENDBLK
5
21
100
AcDbEntity
100
AcDbBlockEnd
0
BLOCK
5
1C
100
AcDbEntity
100
AcDbBlockBegin
2
*PAPER_SPACE
0
ENDBLK
5
1D
100
AcDbEntity
100
AcDbBlockEnd
0
ENDSEC
0
SECTION
2
ENTITIES
0
POINT
5
100
100
AcDbEntity
8
0
100
AcDbPoint
10
-5.6523712094995648
20
-118.90273464844641
30
0
0
POINT
5
101
100
AcDbEntity
8
0
100
AcDbPoint
10
11.116923388667237
20
-118.90273464844641
30
0
0
LWPOLYLINE
5
102
100
AcDbEntity
8
0
100
AcDbPolyline
90
9
70
1
43
0.0
10
190.74839306587137
20
-92.06181917125835
10
-34.956462150447365
20
-92.258246001029391
10
-12.998483341325953
20
-130.2905809299485
10
53.616516183432097
20
-130.86653086979931
10
99.963691581981195
20
-211.14219344739271
10
122.07034546485964
20
-211.46327578484903
10
133.0726125014757
20
-191.50062222270012
10
97.614933139608198
20
-130.08612004945911
10
169.21840387396003
20
-131.12610601364776
0
LWPOLYLINE
5
103
100
AcDbEntity
8
0
100
AcDbPolyline
90
4
70
1
43
0.0
10
-13.523851772950461
20
-100.36706789301569
10
-8.5238517729504615
20
-100.36706789301569
10
-8.5238517729504615
20
-105.36706789301569
10
-13.523851772950461
20
-105.36706789301569
0
LWPOLYLINE
5
104
100
AcDbEntity
8
0
100
AcDbPolyline
90
4
70
1
43
0.0
10
-8.0833703013316516
20
-116.40273464844641
10
-3.0833703013316516
20
-116.40273464844641
10
-3.0833703013316516
20
-121.40273464844641
10
-8.0833703013316516
20
-121.40273464844641
0
LWPOLYLINE
5
105
100
AcDbEntity
8
0
100
AcDbPolyline
90
4
70
1
43
0.0
10
7.9761482270495376
20
-105.36706789301569
10
2.9761482270495376
20
-105.36706789301569
10
2.9761482270495376
20
-100.36706789301569
10
7.9761482270495376
20
-100.36706789301569
0
LWPOLYLINE
5
106
100
AcDbEntity
8
0
100
AcDbPolyline
90
4
70
1
43
0.0
10
13.416629698668348
20
-121.40273464844641
10
8.4166296986683484
20
-121.40273464844641
10
8.4166296986683484
20
-116.40273464844641
10
13.416629698668348
20
-116.40273464844641
0
LWPOLYLINE
5
107
100
AcDbEntity
8
0
100
AcDbPolyline
90
4
70
1
43
0.0
10
24.476148227049535
20
-105.36706789301569
10
19.476148227049535
20
-105.36706789301569
10
19.476148227049535
20
-100.36706789301569
10
24.476148227049535
20
-100.36706789301569
0
LWPOLYLINE
5
108
100
AcDbEntity
8
0
100
AcDbPolyline
90
4
70
1
43
0.0
10
29.916629698668345
20
-121.40273464844641
10
24.916629698668345
20
-121.40273464844641
10
24.916629698668345
20
-116.40273464844641
10
29.916629698668345
20
-116.40273464844641
0
LWPOLYLINE
5
109
100
AcDbEntity
8
0
100
AcDbPolyline
90
4
70
1
43
0.0
10
40.976148227049535
20
-105.36706789301569
10
35.976148227049535
20
-105.36706789301569
10
35.976148227049535
20
-100.36706789301569
10
40.976148227049535
20
-100.36706789301569
0
LWPOLYLINE
5
110
100
AcDbEntity
8
0
100
AcDbPolyline
90
4
70
1
43
0.0
10
46.416629698668345
20
-121.40273464844641
10
41.416629698668345
20
-121.40273464844641
10
41.416629698668345
20
-116.40273464844641
10
46.416629698668345
20
-116.40273464844641
0
LWPOLYLINE
5
111
100
AcDbEntity
8
0
100
AcDbPolyline
90
4
70
1
43
0.0
10
57.476148227049535
20
-105.36706789301569
10
52.476148227049535
20
-105.36706789301569
10
52.476148227049535
20
-100.36706789301569
10
57.476148227049535
20
-100.36706789301569
0
LWPOLYLINE
5
112
100
AcDbEntity
8
0
100
AcDbPolyline
90
4
70
1
43
0.0
10
62.916629698668345
20
-121.40273464844641
10
57.916629698668345
20
-121.40273464844641
10
57.916629698668345
20
-116.40273464844641
10
62.916629698668345
20
-116.40273464844641
0
LWPOLYLINE
5
113
100
AcDbEntity
8
0
100
AcDbPolyline
90
4
70
1
43
0.0
10
73.976148227049535
20
-105.36706789301569
10
68.976148227049535
20
-105.36706789301569
10
68.976148227049535
20
-100.36706789301569
10
73.976148227049535
20
-100.36706789301569
0
LWPOLYLINE
5
114
100
AcDbEntity
8
0
100
AcDbPolyline
90
4
70
1
43
0.0
10
79.416629698668345
20
-121.40273464844641
10
74.416629698668345
20
-121.40273464844641
10
74.416629698668345
20
-116.40273464844641
10
79.416629698668345
20
-116.40273464844641
0
LWPOLYLINE
5
115
100
AcDbEntity
8
0
100
AcDbPolyline
90
4
70
1
43
0.0
10
90.476148227049521
20
-105.36706789301569
10
85.476148227049521
20
-105.36706789301569
10
85.476148227049521
20
-100.36706789301569
10
90.476148227049521
20
-100.36706789301569
0
LWPOLYLINE
5
116
100
AcDbEntity
8
0
100
AcDbPolyline
90
4
70
1
43
0.0
10
95.916629698668331
20
-121.40273464844641
10
90.916629698668331
20
-121.40273464844641
10
90.916629698668331
20
-116.40273464844641
10
95.916629698668331
20
-116.40273464844641
0
LWPOLYLINE
5
117
100
AcDbEntity
8
0
100
AcDbPolyline
90
4
70
1
43
0.0
10
106.97614822704952
20
-105.36706789301569
10
101.97614822704952
20
-105.36706789301569
10
101.97614822704952
20
-100.36706789301569
10
106.97614822704952
20
-100.36706789301569
0
LWPOLYLINE
5
118
100
AcDbEntity
8
0
100
AcDbPolyline
90
4
70
1
43
0.0
10
112.41662969866834
20
-121.40273464844641
10
107.41662969866834
20
-121.40273464844641
10
107.41662969866834
20
-116.40273464844641
10
112.41662969866834
20
-116.40273464844641
0
LWPOLYLINE
5
119
100
AcDbEntity
8
0
100
AcDbPolyline
90
4
70
1
43
0.0
10
123.47614822704953
20
-105.36706789301569
10
118.47614822704953
20
-105.36706789301569
10
118.47614822704953
20
-100.36706789301569
10
123.47614822704953
20
-100.36706789301569
0
LWPOLYLINE
5
120
100
AcDbEntity
8
0
100
AcDbPolyline
90
4
70
1
43
0.0
10
128.91662969866834
20
-121.40273464844641
10
123.91662969866834
20
-121.40273464844641
10
123.91662969866834
20
-116.40273464844641
10
128.91662969866834
20
-116.40273464844641
0
LWPOLYLINE
5
121
100
AcDbEntity
8
0
100
AcDbPolyline
90
4
70
1
43
0.0
10
139.97614822704952
20
-105.36706789301569
10
134.97614822704952
20
-105.36706789301569
10
134.97614822704952
20
-100.36706789301569
10
139.97614822704952
20
-100.36706789301569
0
LWPOLYLINE
5
122
100
AcDbEntity
8
0
100
AcDbPolyline
90
4
70
1
43
0.0
10
145.41662969866834
20
-121.40273464844641
10
140.41662969866834
20
-121.40273464844641
10
140.41662969866834
20
-116.40273464844641
10
145.41662969866834
20
-116.40273464844641
0
LWPOLYLINE
5
123
100
AcDbEntity
8
0
100
AcDbPolyline
90
4
70
1
43
0.0
10
156.47614822704955
20
-105.36706789301569
10
151.47614822704955
20
-105.36706789301569
10
151.47614822704955
20
-100.36706789301569
10
156.47614822704955
20
-100.36706789301569
0
LWPOLYLINE
5
124
100
AcDbEntity
8
0
100
AcDbPolyline
90
4
70
1
43
0.0
10
161.91662969866832
20
-121.40273464844641
10
156.91662969866834
20
-121.40273464844641
10
156.91662969866834
20
-116.40273464844641
10
161.91662969866832
20
-116.40273464844641
0
ENDSEC
0
SECTION
2
OBJECTS
0
DICTIONARY
5
C
100
AcDbDictionary
3
ACAD_GROUP
350
D
3
ACAD_MLINESTYLE
350
17
0
DICTIONARY
5
D
100
AcDbDictionary
0
DICTIONARY
5
1A
330
C
100
AcDbDictionary
0
DICTIONARY
5
17
100
AcDbDictionary
0
ENDSEC
0
EOF
