0
SECTION
2
HEADER
9
$INSUNITS
70
4
9
$ACADVER
1
AC1014
9
$HANDSEED
5
FFFF
0
ENDSEC
0
SECTION
2
TABLES
0
TABLE
2
VPORT
5
8
100
AcDbSymbolTable
0
ENDTAB
0
TABLE
2
LTYPE
5
5
100
AcDbSymbolTable
0
LTYPE
5
14
100
AcDbSymbolTableRecord
100
AcDbLinetypeTableRecord
2
BYBLOCK
70
0
0
LTYPE
5
15
100
AcDbSymbolTableRecord
100
AcDbLinetypeTableRecord
2
BYLAYER
70
0
0
LTYPE
5
16
100
AcDbSymbolTableRecord
100
AcDbLinetypeTableRecord
2
DASHED
70
0
3
Dashed __ __ __ __ __ __ __ __ __ __ __ __ __ _
72
65
73
2
40
0.75
49
0.5
74
0
49
-0.25
74
0
0
ENDTAB
0
TABLE
2
LAYER
5
2
100
AcDbSymbolTable
70
2
0
LAYER
5
50
100
AcDbSymbolTableRecord
100
AcDbLayerTableRecord
2
0
70
0
62
7
6
CONTINUOUS
0
ENDTAB
0
TABLE
2
STYLE
5
3
100
AcDbSymbolTable
70
1
0
STYLE
5
11
100
AcDbSymbolTableRecord
100
AcDbTextStyleTableRecord
2
STANDARD
70
0
0
ENDTAB
0
TABLE
2
VIEW
5
6
100
AcDbSymbolTable
70
0
0
ENDTAB
0
TABLE
2
UCS
5
7
100
AcDbSymbolTable
70
0
0
ENDTAB
0
TABLE
2
APPID
5
9
100
AcDbSymbolTable
70
2
0
APPID
5
12
100
AcDbSymbolTableRecord
100
AcDbRegAppTableRecord
2
ACAD
70
0
0
ENDTAB
0
TABLE
2
DIMSTYLE
5
A
100
AcDbSymbolTable
70
1
0
ENDTAB
0
TABLE
2
BLOCK_RECORD
5
1
100
AcDbSymbolTable
70
1
0
BLOCK_RECORD
5
1F
100
AcDbSymbolTableRecord
100
AcDbBlockTableRecord
2
*MODEL_SPACE
0
BLOCK_RECORD
5
1B
100
AcDbSymbolTableRecord
100
AcDbBlockTableRecord
2
*PAPER_SPACE
0
ENDTAB
0
ENDSEC
0
SECTION
2
BLOCKS
0
BLOCK
5
20
100
AcDbEntity
100
AcDbBlockBegin
2
*MODEL_SPACE
0
ENDBLK
5
21
100
AcDbEntity
100
AcDbBlockEnd
0
BLOCK
5
1C
100
AcDbEntity
100
AcDbBlockBegin
2
*PAPER_SPACE
0
ENDBLK
5
1D
100
AcDbEntity
100
AcDbBlockEnd
0
ENDSEC
0
SECTION
2
ENTITIES
0
LINE
5
100
100
AcDbEntity
8
0
100
AcDbLine
10
105.81965140471496
20
87.135729216739179
30
0
11
123.09999724850059
21
57.799998708069324
31
0
6
DASHED
0
LINE
5
101
100
AcDbEntity
8
0
100
AcDbLine
10
50.437321796778434
20
87.183927450755021
30
0
11
67.36782727500804
21
57.799998708069324
31
0
6
DASHED
0
LINE
5
102
100
AcDbEntity
8
0
100
AcDbLine
10
123.09999724850059
20
57.799998708069324
30
0
11
67.36782727500804
21
57.799998708069324
31
0
6
DASHED
0
LINE
5
103
100
AcDbEntity
8
0
100
AcDbLine
10
105.81965140471496
20
87.135729216739179
30
0
11
50.437321796778434
21
87.183927450755021
31
0
6
DASHED
0
LWPOLYLINE
5
104
100
AcDbEntity
8
0
100
AcDbPolyline
90
4
70
1
43
0.0
10
116.85762322423417
20
-0.97028340461932316
10
141.85762322423417
20
-44.271553593841247
10
135.9826808998327
20
-47.663453126307964
10
110.98268089983272
20
-4.3621829370860343
0
LWPOLYLINE
5
105
100
AcDbEntity
8
0
100
AcDbPolyline
90
5
70
1
43
0.0
10
65.534314469454756
20
74.602307249231401
10
105.64979037632156
20
74.602307249231302
10
107.90360605860533
20
69.719586818844377
10
105.64979037632148
20
68.683501123769162
10
68.932947537608428
20
68.703853164084819
0
LWPOLYLINE
5
106
100
AcDbEntity
8
0
100
AcDbPolyline
90
9
70
1
43
0.0
10
143.00000213086602
20
24.000000357627883
10
109.19371508926812
20
81.402307249231285
10
53.768195894611743
20
81.402307249231271
10
175.00000260770321
20
-129.00000192224974
10
204.00000303983688
20
-81.000001206994042
10
170.27268997417298
20
-24.493951862890722
10
235.2015744747938
20
-24.493951862890718
10
250.00000372529033
20
3.1086244689504383e-14
10
235.67489101552644
20
24.000000357627872
0
LINE
5
107
100
AcDbEntity
8
0
100
AcDbLine
10
120.81965140471496
20
87.183927450755021
30
0
11
120.81965140471496
21
109.18392745075501
31
0
0
LWPOLYLINE
5
108
100
AcDbEntity
8
0
100
AcDbPolyline
90
4
70
1
43
0.0
10
120.81965140471496
20
109.18392745075501
10
50.437321796778434
20
109.18392745075501
10
50.437321796778434
20
112.18392745075502
10
120.81965140471505
20
112.18392745075502
0
LINE
5
109
100
AcDbEntity
8
0
100
AcDbLine
10
50.437321796778434
20
109.18392745075501
30
0
11
50.437321796778434
21
87.183927450755021
31
0
0
LINE
5
110
100
AcDbEntity
8
0
100
AcDbLine
10
50.437321796778434
20
87.183927450755021
30
0
11
67.36782727500804
21
57.799998708069324
31
0
0
LINE
5
111
100
AcDbEntity
8
0
100
AcDbLine
10
67.36782727500804
20
57.799998708069324
30
0
11
123.09999724850059
21
57.799998708069324
31
0
0
LINE
5
112
100
AcDbEntity
8
0
100
AcDbLine
10
123.09999724850059
20
57.799998708069324
30
0
11
105.81965140471496
21
87.135729216739179
31
0
0
LWPOLYLINE
5
113
100
AcDbEntity
8
0
100
AcDbPolyline
90
4
70
1
43
0.0
10
113.06910168938791
20
92.432729570814132
10
109.2691016893879
20
92.432729570814104
10
109.26910168938788
20
103.4327295708141
10
113.06910168938792
20
103.4327295708141
0
LINE
5
114
100
AcDbEntity
8
0
100
AcDbLine
10
109.26910168938788
20
100.71652863574754
30
0
11
109.26910168938788
21
93.332729570814109
31
0
0
ARC
5
115
100
AcDbEntity
8
0
100
AcDbCircle
10
113.06910168938792
20
97.932729570814118
30
0
40
5.4999999999999893
210
0
220
0
230
1
100
AcDbArc
50
-90.000000000000142
51
90
0
LINE
5
116
100
AcDbEntity
8
0
100
AcDbLine
10
59.269101689387888
20
93.932729570814104
30
0
11
109.26910168938788
21
93.932729570814104
31
0
0
LWPOLYLINE
5
117
100
AcDbEntity
8
0
100
AcDbPolyline
90
4
70
1
43
0.0
10
59.269101689387888
20
92.432729570814104
10
55.469101689387884
20
92.432729570814132
42
-0.5245559936987827
10
55.469101689387884
20
103.4327295708141
10
59.269101689387888
20
103.4327295708141
0
LINE
5
118
100
AcDbEntity
8
0
100
AcDbLine
10
55.469101689387884
20
92.432729570814132
30
0
11
55.469101689387884
21
103.4327295708141
31
0
0
LINE
5
119
100
AcDbEntity
8
0
100
AcDbLine
10
59.269101689387888
20
93.332729570814109
30
0
11
59.269101689387888
21
100.71652863574754
31
0
0
LWPOLYLINE
5
120
100
AcDbEntity
8
0
100
AcDbPolyline
90
4
70
1
43
0.0
10
107.85104272327972
20
65.799998708069324
10
74.851042723279718
20
65.799998708069324
42
0.99999999999999989
10
74.851042723279718
20
60.799998708069332
10
107.85104272327972
20
60.799998708069332
42
0.99999999999999989
0
LINE
5
121
100
AcDbEntity
8
0
100
AcDbLine
10
107.85104272327972
20
63.299998708069332
30
0
11
74.851042723279718
21
63.299998708069332
31
0
6
DASHED
0
LINE
5
122
100
AcDbEntity
8
0
100
AcDbLine
10
120.81965140471496
20
87.183927450755021
30
0
11
105.81965140471496
21
87.135729216739179
31
0
0
LWPOLYLINE
5
123
100
AcDbEntity
8
0
100
AcDbPolyline
90
7
70
1
43
0.0
10
117.85104272327972
20
60.799998708069324
10
69.101631067920039
20
60.799998708069324
10
53.437321796778434
20
87.986366416846465
10
53.437321796778434
20
106.18392745075499
10
117.81965140471496
20
106.18392745075499
10
117.81965140471496
20
90.174303291043628
10
100.58060401244732
20
90.118910515015443
0
LINE
5
124
100
AcDbEntity
8
0
100
AcDbLine
10
109.2691016893879
20
92.432729570814104
30
0
11
109.20012770858115
21
90.146606903029536
31
0
0
LINE
5
125
100
AcDbEntity
8
0
100
AcDbLine
10
109.26910168938788
20
103.4327295708141
30
0
11
109.26910168938788
21
106.18392745075499
31
0
0
LINE
5
126
100
AcDbEntity
8
0
100
AcDbLine
10
59.269101689387888
20
103.4327295708141
30
0
11
59.269101689387888
21
106.18392745075499
31
0
0
LINE
5
127
100
AcDbEntity
8
0
100
AcDbLine
10
59.269101689387888
20
92.432729570814104
30
0
11
55.012189813371293
21
85.253086560660023
31
0
0
LINE
5
128
100
AcDbEntity
8
0
100
AcDbLine
10
74.851042723279718
20
65.799998708069324
30
0
11
66.220718575501195
21
65.799998708069324
31
0
0
LINE
5
129
100
AcDbEntity
8
0
100
AcDbLine
10
107.85104272327972
20
65.799998708069324
30
0
11
114.90576992042953
21
65.799998708069324
31
0
0
LINE
5
130
100
AcDbEntity
8
0
100
AcDbLine
10
100.58060401244732
20
90.118910515015443
30
0
11
57.91921902563783
21
90.156037942330073
31
0
0
LINE
5
131
100
AcDbEntity
8
0
100
AcDbLine
10
59.464627946557023
20
77.52560760233969
30
0
11
108.02363998617068
21
77.483347577482832
31
0
0
LINE
5
132
100
AcDbEntity
8
0
100
AcDbLine
10
65.534314469454756
20
74.602307249231401
30
0
11
59.269101689387888
21
92.432729570814104
31
0
0
LINE
5
133
100
AcDbEntity
8
0
100
AcDbLine
10
68.932947537608428
20
68.703853164084819
30
0
11
74.851042723279718
21
65.799998708069324
31
0
0
LINE
5
134
100
AcDbEntity
8
0
100
AcDbLine
10
105.64979037632156
20
74.602307249231302
30
0
11
96.292402725315668
21
90.137474228672758
31
0
0
LINE
5
135
100
AcDbEntity
8
0
100
AcDbLine
10
107.90360605860533
20
69.719586818844377
30
0
11
108.26377788754422
21
65.765693272320874
31
0
0
LINE
5
136
100
AcDbEntity
8
0
100
AcDbLine
10
96.292402725315668
20
90.137474228672758
30
0
11
109.26910168938788
21
93.932729570814104
31
0
0
LINE
5
137
100
AcDbEntity
8
0
100
AcDbLine
10
96.292402725315668
20
90.137474228672758
30
0
11
109.2691016893879
21
97.932729570814104
31
0
0
ENDSEC
0
SECTION
2
OBJECTS
0
DICTIONARY
5
C
100
AcDbDictionary
3
ACAD_GROUP
350
D
3
ACAD_MLINESTYLE
350
17
0
DICTIONARY
5
D
100
AcDbDictionary
0
DICTIONARY
5
1A
330
C
100
AcDbDictionary
0
DICTIONARY
5
17
100
AcDbDictionary
0
ENDSEC
0
EOF
