0
SECTION
2
HEADER
9
$INSUNITS
70
4
9
$ACADVER
1
AC1014
9
$HANDSEED
5
FFFF
0
ENDSEC
0
SECTION
2
TABLES
0
TABLE
2
VPORT
5
8
100
AcDbSymbolTable
0
ENDTAB
0
TABLE
2
LTYPE
5
5
100
AcDbSymbolTable
0
LTYPE
5
14
100
AcDbSymbolTableRecord
100
AcDbLinetypeTableRecord
2
BYBLOCK
70
0
0
LTYPE
5
15
100
AcDbSymbolTableRecord
100
AcDbLinetypeTableRecord
2
BYLAYER
70
0
0
LTYPE
5
16
100
AcDbSymbolTableRecord
100
AcDbLinetypeTableRecord
2
DASHED
70
0
3
Dashed __ __ __ __ __ __ __ __ __ __ __ __ __ _
72
65
73
2
40
0.75
49
0.5
74
0
49
-0.25
74
0
0
ENDTAB
0
TABLE
2
LAYER
5
2
100
AcDbSymbolTable
70
2
0
LAYER
5
50
100
AcDbSymbolTableRecord
100
AcDbLayerTableRecord
2
0
70
0
62
7
6
CONTINUOUS
0
ENDTAB
0
TABLE
2
STYLE
5
3
100
AcDbSymbolTable
70
1
0
STYLE
5
11
100
AcDbSymbolTableRecord
100
AcDbTextStyleTableRecord
2
STANDARD
70
0
0
ENDTAB
0
TABLE
2
VIEW
5
6
100
AcDbSymbolTable
70
0
0
ENDTAB
0
TABLE
2
UCS
5
7
100
AcDbSymbolTable
70
0
0
ENDTAB
0
TABLE
2
APPID
5
9
100
AcDbSymbolTable
70
2
0
APPID
5
12
100
AcDbSymbolTableRecord
100
AcDbRegAppTableRecord
2
ACAD
70
0
0
ENDTAB
0
TABLE
2
DIMSTYLE
5
A
100
AcDbSymbolTable
70
1
0
ENDTAB
0
TABLE
2
BLOCK_RECORD
5
1
100
AcDbSymbolTable
70
1
0
BLOCK_RECORD
5
1F
100
AcDbSymbolTableRecord
100
AcDbBlockTableRecord
2
*MODEL_SPACE
0
BLOCK_RECORD
5
1B
100
AcDbSymbolTableRecord
100
AcDbBlockTableRecord
2
*PAPER_SPACE
0
ENDTAB
0
ENDSEC
0
SECTION
2
BLOCKS
0
BLOCK
5
20
100
AcDbEntity
100
AcDbBlockBegin
2
*MODEL_SPACE
0
ENDBLK
5
21
100
AcDbEntity
100
AcDbBlockEnd
0
BLOCK
5
1C
100
AcDbEntity
100
AcDbBlockBegin
2
*PAPER_SPACE
0
ENDBLK
5
1D
100
AcDbEntity
100
AcDbBlockEnd
0
ENDSEC
0
SECTION
2
ENTITIES
0
POINT
5
100
100
AcDbEntity
8
0
100
AcDbPoint
10
0
20
0
30
0
0
LWPOLYLINE
5
101
100
AcDbEntity
8
0
100
AcDbPolyline
90
9
70
1
43
0.0
10
-53.76819589461175
20
81.402307249231271
10
-175.00000260770321
20
-129.00000192224977
10
-204.00000303983688
20
-81.000001206994057
10
-170.27268997417298
20
-24.493951862890746
10
-235.2015744747938
20
-24.493951862890743
10
-250.00000372529033
20
2.7755575615628914e-16
10
-235.67489101552644
20
24.000000357627847
10
-143.00000213086602
20
24.000000357627865
10
-109.19371508926814
20
81.402307249231271
0
LWPOLYLINE
5
102
100
AcDbEntity
8
0
100
AcDbPolyline
90
9
70
1
43
0.0
10
-198.16774084413038
20
-80.984383535880724
10
-161.46535121238784
20
-19.493951862890746
10
-232.38070993612297
20
-19.493951862890743
10
-244.16774152958382
20
0.015617671113341558
10
-232.83634912720095
20
19.000000357627837
10
-140.14199833010269
20
19.000000357627865
10
-106.3357112885048
20
76.402307249231271
10
-62.419753670261926
20
76.402307249231271
10
-175.10207065385458
20
-119.16204454047504
0
LWPOLYLINE
5
103
100
AcDbEntity
8
0
100
AcDbPolyline
90
9
70
1
43
0.0
10
-96.38840268506037
20
-215.93751443671439
10
-125.00000186264521
20
-216.50635417230572
10
-138.62205550830456
20
-192.10044247476091
10
-92.284611065974374
20
-111.84163440774491
10
-125.09332354913452
20
-53.863377576290731
10
-97.380563951806323
20
-5.8634699357762976
10
24.217277449058088
20
-216.05444888173889
10
-31.851942768091419
20
-217.16918560809847
10
-63.923960434749951
20
-159.70745101979105
0
LWPOLYLINE
5
104
100
AcDbEntity
8
0
100
AcDbPolyline
90
9
70
1
43
0.0
10
-28.949336970170254
20
-212.11048954952838
10
-63.850418072779576
20
-149.58007191234975
10
-99.308097434647138
20
-210.99457408559076
10
-122.09739606472405
20
-211.4476581137356
10
-132.87265754521962
20
-192.14219308976479
10
-86.525482146670512
20
-111.86653051217137
10
-119.33419462983066
20
-53.888273680717219
10
-97.37621582070922
20
-15.855938751798133
10
15.64632241201684
20
-211.22386371173323
0
LWPOLYLINE
5
105
100
AcDbEntity
8
0
100
AcDbPolyline
90
9
70
1
43
0.0
10
138.81317178973342
20
-191.4435625738237
10
125.00000186264512
20
-216.50635417230578
10
97.052835507221843
20
-216.10044283238886
10
50.715391064891634
20
-135.84163476537282
10
-15.899608459866421
20
-135.26568482552204
10
-43.612368057194601
20
-87.265777185007565
10
199.2172800567613
20
-87.054446959489155
10
172.14806027174546
20
-136.16918440110447
10
106.34872953942303
20
-135.21349915690035
0
LWPOLYLINE
5
106
100
AcDbEntity
8
0
100
AcDbPolyline
90
9
70
1
43
0.0
10
169.21840387396009
20
-131.1261060136477
10
97.614933139608269
20
-130.08612004945905
10
133.07261250147579
20
-191.50062222270009
10
122.07034546485974
20
-211.463275784849
10
99.963691581981294
20
-211.14219344739269
10
53.616516183432161
20
-130.86653086979928
10
-12.99848334132589
20
-130.29058092994848
10
-34.956462150447315
20
-92.258246001029406
10
190.74839306587143
20
-92.06181917125825
0
LWPOLYLINE
5
107
100
AcDbEntity
8
0
100
AcDbPolyline
90
9
70
1
43
0.0
10
235.2015744747938
20
24.493951862890718
10
250.00000372529033
20
-3.0893726191056608e-14
10
235.67489101552644
20
-24.000000357627872
10
143.00000213086602
20
-24.000000357627883
10
109.19371508926812
20
-81.402307249231285
10
53.768195894611743
20
-81.402307249231271
10
175.00000260770321
20
129.00000192224977
10
204.00000303983688
20
81.000001206994042
10
170.27268997417298
20
24.493951862890725
0
LWPOLYLINE
5
108
100
AcDbEntity
8
0
100
AcDbPolyline
90
9
70
1
43
0.0
10
198.16774084413038
20
80.98438353588071
10
161.46535121238784
20
19.493951862890729
10
232.38070993612297
20
19.493951862890714
10
244.16774152958382
20
-0.015617671113371461
10
232.83634912720095
20
-19.000000357627865
10
140.14199833010269
20
-19.000000357627883
10
106.33571128850478
20
-76.402307249231271
10
62.419753670261919
20
-76.402307249231271
10
175.10207065385458
20
119.16204454047502
0
LWPOLYLINE
5
109
100
AcDbEntity
8
0
100
AcDbPolyline
90
9
70
1
43
0.0
10
96.388402685060413
20
215.93751443671434
10
125.00000186264522
20
216.50635417230563
10
138.62205550830458
20
192.10044247476088
10
92.284611065974389
20
111.84163440774486
10
125.09332354913452
20
53.863377576290709
10
97.380563951806323
20
5.863469935776271
10
-24.217277449058052
20
216.05444888173884
10
31.851942768091472
20
217.16918560809845
10
63.923960434749972
20
159.70745101979102
0
LWPOLYLINE
5
110
100
AcDbEntity
8
0
100
AcDbPolyline
90
9
70
1
43
0.0
10
28.94933697017029
20
212.1104895495283
10
63.85041807277959
20
149.58007191234972
10
99.308097434647181
20
210.99457408559073
10
122.09739606472408
20
211.44765811373554
10
132.87265754521965
20
192.14219308976476
10
86.525482146670527
20
111.86653051217135
10
119.33419462983066
20
53.888273680717191
10
97.376215820709206
20
15.855938751798115
10
-15.646322412016804
20
211.2238637117332
0
LWPOLYLINE
5
111
100
AcDbEntity
8
0
100
AcDbPolyline
90
9
70
1
43
0.0
10
-138.8131717897333
20
191.44356257382373
10
-125.00000186264501
20
216.50635417230581
10
-97.052835507221729
20
216.10044283238886
10
-50.715391064891563
20
135.84163476537282
10
15.899608459866483
20
135.26568482552199
10
43.612368057194644
20
87.265777185007522
10
-199.21728005676127
20
87.054446959489269
10
-172.14806027174541
20
136.16918440110456
10
-106.34872953942295
20
135.21349915690041
0
LWPOLYLINE
5
112
100
AcDbEntity
8
0
100
AcDbPolyline
90
9
70
1
43
0.0
10
-169.21840387396003
20
131.12610601364776
10
-97.614933139608198
20
130.08612004945911
10
-133.0726125014757
20
191.50062222270012
10
-122.07034546485964
20
211.46327578484903
10
-99.963691581981195
20
211.14219344739271
10
-53.616516183432097
20
130.86653086979931
10
12.998483341325953
20
130.2905809299485
10
34.956462150447358
20
92.258246001029391
10
-190.74839306587137
20
92.06181917125835
0
ENDSEC
0
SECTION
2
OBJECTS
0
DICTIONARY
5
C
100
AcDbDictionary
3
ACAD_GROUP
350
D
3
ACAD_MLINESTYLE
350
17
0
DICTIONARY
5
D
100
AcDbDictionary
0
DICTIONARY
5
1A
330
C
100
AcDbDictionary
0
DICTIONARY
5
17
100
AcDbDictionary
0
ENDSEC
0
EOF
