0
SECTION
2
HEADER
9
$INSUNITS
70
4
9
$ACADVER
1
AC1014
9
$HANDSEED
5
FFFF
0
ENDSEC
0
SECTION
2
TABLES
0
TABLE
2
VPORT
5
8
100
AcDbSymbolTable
0
ENDTAB
0
TABLE
2
LTYPE
5
5
100
AcDbSymbolTable
0
LTYPE
5
14
100
AcDbSymbolTableRecord
100
AcDbLinetypeTableRecord
2
BYBLOCK
70
0
0
LTYPE
5
15
100
AcDbSymbolTableRecord
100
AcDbLinetypeTableRecord
2
BYLAYER
70
0
0
LTYPE
5
16
100
AcDbSymbolTableRecord
100
AcDbLinetypeTableRecord
2
DASHED
70
0
3
Dashed __ __ __ __ __ __ __ __ __ __ __ __ __ _
72
65
73
2
40
0.75
49
0.5
74
0
49
-0.25
74
0
0
ENDTAB
0
TABLE
2
LAYER
5
2
100
AcDbSymbolTable
70
2
0
LAYER
5
50
100
AcDbSymbolTableRecord
100
AcDbLayerTableRecord
2
0
70
0
62
7
6
CONTINUOUS
0
ENDTAB
0
TABLE
2
STYLE
5
3
100
AcDbSymbolTable
70
1
0
STYLE
5
11
100
AcDbSymbolTableRecord
100
AcDbTextStyleTableRecord
2
STANDARD
70
0
0
ENDTAB
0
TABLE
2
VIEW
5
6
100
AcDbSymbolTable
70
0
0
ENDTAB
0
TABLE
2
UCS
5
7
100
AcDbSymbolTable
70
0
0
ENDTAB
0
TABLE
2
APPID
5
9
100
AcDbSymbolTable
70
2
0
APPID
5
12
100
AcDbSymbolTableRecord
100
AcDbRegAppTableRecord
2
ACAD
70
0
0
ENDTAB
0
TABLE
2
DIMSTYLE
5
A
100
AcDbSymbolTable
70
1
0
ENDTAB
0
TABLE
2
BLOCK_RECORD
5
1
100
AcDbSymbolTable
70
1
0
BLOCK_RECORD
5
1F
100
AcDbSymbolTableRecord
100
AcDbBlockTableRecord
2
*MODEL_SPACE
0
BLOCK_RECORD
5
1B
100
AcDbSymbolTableRecord
100
AcDbBlockTableRecord
2
*PAPER_SPACE
0
ENDTAB
0
ENDSEC
0
SECTION
2
BLOCKS
0
BLOCK
5
20
100
AcDbEntity
100
AcDbBlockBegin
2
*MODEL_SPACE
0
ENDBLK
5
21
100
AcDbEntity
100
AcDbBlockEnd
0
BLOCK
5
1C
100
AcDbEntity
100
AcDbBlockBegin
2
*PAPER_SPACE
0
ENDBLK
5
1D
100
AcDbEntity
100
AcDbBlockEnd
0
ENDSEC
0
SECTION
2
ENTITIES
0
LWPOLYLINE
5
100
100
AcDbEntity
8
0
100
AcDbPolyline
90
9
70
1
43
0.0
10
34.956462150447315
20
92.258246001029406
10
-190.74839306587143
20
92.06181917125825
10
-169.21840387396009
20
131.1261060136477
10
-97.614933139608269
20
130.08612004945905
10
-133.07261250147582
20
191.50062222270009
10
-122.07034546485974
20
211.463275784849
10
-99.963691581981294
20
211.14219344739269
10
-53.616516183432168
20
130.86653086979928
10
12.99848334132589
20
130.29058092994848
0
LWPOLYLINE
5
101
100
AcDbEntity
8
0
100
AcDbPolyline
90
9
70
1
43
0.0
10
15.899608459866421
20
135.26568482552204
10
-50.715391064891634
20
135.84163476537282
10
-97.052835507221843
20
216.10044283238886
10
-125.00000186264512
20
216.50635417230578
10
-138.81317178973342
20
191.4435625738237
10
-106.34872953942303
20
135.21349915690035
10
-172.14806027174546
20
136.16918440110447
10
-199.2172800567613
20
87.054446959489155
10
43.612368057194608
20
87.265777185007565
0
LWPOLYLINE
5
102
100
AcDbEntity
8
0
100
AcDbPolyline
90
9
70
1
43
0.0
10
12.969472090140499
20
130.24082989099276
10
34.869903091379861
20
92.308170689189609
10
-190.66370419596257
20
92.111892893375938
10
-169.18910730998223
20
131.07567522977314
10
-97.527595175610145
20
130.03484625838465
10
-133.01520690859323
20
191.50119281918887
10
-122.0410489008819
20
211.41284500097441
10
-99.992800142728896
20
211.09261095354273
10
-53.645527434617577
20
130.81677983084359
0
LWPOLYLINE
5
103
100
AcDbEntity
8
0
100
AcDbPolyline
90
9
70
1
43
0.0
10
12.302213312876159
20
129.09655599501085
10
32.879044732827964
20
93.45643851687467
10
-188.71586018805795
20
93.263588502082854
10
-168.51528633849159
20
129.91576720065808
10
-95.51882200365273
20
128.85554906367315
10
-131.69487827229398
20
191.51431653843042
10
-121.36722792939126
20
210.25293697185936
10
-100.66229703992356
20
209.95221359499362
10
-54.312786211881885
20
129.67250593486165
0
ENDSEC
0
SECTION
2
OBJECTS
0
DICTIONARY
5
C
100
AcDbDictionary
3
ACAD_GROUP
350
D
3
ACAD_MLINESTYLE
350
17
0
DICTIONARY
5
D
100
AcDbDictionary
0
DICTIONARY
5
1A
330
C
100
AcDbDictionary
0
DICTIONARY
5
17
100
AcDbDictionary
0
ENDSEC
0
EOF
