0
SECTION
2
HEADER
9
$INSUNITS
70
4
9
$ACADVER
1
AC1014
9
$HANDSEED
5
FFFF
0
ENDSEC
0
SECTION
2
TABLES
0
TABLE
2
VPORT
5
8
100
AcDbSymbolTable
0
ENDTAB
0
TABLE
2
LTYPE
5
5
100
AcDbSymbolTable
0
LTYPE
5
14
100
AcDbSymbolTableRecord
100
AcDbLinetypeTableRecord
2
BYBLOCK
70
0
0
LTYPE
5
15
100
AcDbSymbolTableRecord
100
AcDbLinetypeTableRecord
2
BYLAYER
70
0
0
LTYPE
5
16
100
AcDbSymbolTableRecord
100
AcDbLinetypeTableRecord
2
DASHED
70
0
3
Dashed __ __ __ __ __ __ __ __ __ __ __ __ __ _
72
65
73
2
40
0.75
49
0.5
74
0
49
-0.25
74
0
0
ENDTAB
0
TABLE
2
LAYER
5
2
100
AcDbSymbolTable
70
2
0
LAYER
5
50
100
AcDbSymbolTableRecord
100
AcDbLayerTableRecord
2
0
70
0
62
7
6
CONTINUOUS
0
ENDTAB
0
TABLE
2
STYLE
5
3
100
AcDbSymbolTable
70
1
0
STYLE
5
11
100
AcDbSymbolTableRecord
100
AcDbTextStyleTableRecord
2
STANDARD
70
0
0
ENDTAB
0
TABLE
2
VIEW
5
6
100
AcDbSymbolTable
70
0
0
ENDTAB
0
TABLE
2
UCS
5
7
100
AcDbSymbolTable
70
0
0
ENDTAB
0
TABLE
2
APPID
5
9
100
AcDbSymbolTable
70
2
0
APPID
5
12
100
AcDbSymbolTableRecord
100
AcDbRegAppTableRecord
2
ACAD
70
0
0
ENDTAB
0
TABLE
2
DIMSTYLE
5
A
100
AcDbSymbolTable
70
1
0
ENDTAB
0
TABLE
2
BLOCK_RECORD
5
1
100
AcDbSymbolTable
70
1
0
BLOCK_RECORD
5
1F
100
AcDbSymbolTableRecord
100
AcDbBlockTableRecord
2
*MODEL_SPACE
0
BLOCK_RECORD
5
1B
100
AcDbSymbolTableRecord
100
AcDbBlockTableRecord
2
*PAPER_SPACE
0
ENDTAB
0
ENDSEC
0
SECTION
2
BLOCKS
0
BLOCK
5
20
100
AcDbEntity
100
AcDbBlockBegin
2
*MODEL_SPACE
0
ENDBLK
5
21
100
AcDbEntity
100
AcDbBlockEnd
0
BLOCK
5
1C
100
AcDbEntity
100
AcDbBlockBegin
2
*PAPER_SPACE
0
ENDBLK
5
1D
100
AcDbEntity
100
AcDbBlockEnd
0
ENDSEC
0
SECTION
2
ENTITIES
0
LWPOLYLINE
5
100
100
AcDbEntity
8
0
100
AcDbPolyline
90
16
70
1
43
0.0
10
109.16910168938787
20
92.332729570814109
10
109.16910168938787
20
93.932729570814104
10
59.369101689387882
20
93.932729570814104
10
59.369101689387882
20
92.332729570814109
10
55.438042881033624
20
92.332729570814138
42
-0.11649385393654434
10
53.33732179677844
20
94.638644128889027
10
53.337321796778411
20
101.22681501273919
42
-0.11649385393654513
10
55.438042881033631
20
103.5327295708141
10
59.369101689387882
20
103.5327295708141
10
59.369101689387882
20
100.71652863574752
10
109.16910168938787
20
100.71652863574752
10
109.16910168938787
20
103.5327295708141
10
113.06910168938794
20
103.53272957081413
42
-0.26802648347698727
10
117.91965140471495
20
100.73133055329461
10
117.91965140471491
20
95.134128588333638
42
-0.2680264834769891
10
113.06910168938792
20
92.332729570814124
0
LWPOLYLINE
5
101
100
AcDbEntity
8
0
100
AcDbPolyline
90
9
70
1
43
0.0
10
-15.899608459866421
20
135.26568482552204
10
-43.612368057194601
20
87.265777185007565
10
199.2172800567613
20
87.054446959489155
10
172.14806027174546
20
136.16918440110447
10
106.34872953942303
20
135.21349915690035
10
138.81317178973342
20
191.4435625738237
10
125.00000186264512
20
216.50635417230578
10
97.052835507221843
20
216.10044283238886
10
50.715391064891634
20
135.84163476537282
0
LWPOLYLINE
5
102
100
AcDbEntity
8
0
100
AcDbPolyline
90
5
70
1
43
0.0
10
-6.6567616058803765
20
125.83715293227968
10
-25.032808409169107
20
94.049610307351287
10
-31.84033602403899
20
94.055534774761625
10
-11.782598070605491
20
128.79655599501083
10
-6.4271302971712396
20
128.30705741612289
0
LWPOLYLINE
5
103
100
AcDbEntity
8
0
100
AcDbPolyline
90
4
70
1
43
0.0
10
-19.64555162890986
20
97.77290385214927
10
-3.1455516289098373
20
126.35174217703573
42
-0.99999999999999989
10
1.3577804707692251
20
123.75174217703572
10
-15.142219529230776
20
95.172903852149261
42
-0.99999999999999989
0
LWPOLYLINE
5
104
100
AcDbEntity
8
0
100
AcDbPolyline
90
4
70
1
43
0.0
10
139.22725372911441
20
104.89900768296339
10
161.22725372911441
20
104.89900768296339
10
161.22725372911441
20
117.8990076829634
10
139.22725372911441
20
117.8990076829634
0
LWPOLYLINE
5
105
100
AcDbEntity
8
0
100
AcDbPolyline
90
4
70
1
43
0.0
10
89.253445437896758
20
167.09755074375124
10
100.51177568709468
20
160.59755074375113
10
111.5117756870946
20
179.65010962700899
10
100.25344543789683
20
186.15010962700887
0
LINE
5
106
100
AcDbEntity
8
0
100
AcDbLine
10
139.24839490558423
20
135.69134177900241
30
0
11
139.20611255264458
21
87.106673586924359
31
0
0
LINE
5
107
100
AcDbEntity
8
0
100
AcDbLine
10
73.884113286056731
20
175.97103879888081
30
0
11
115.88110783893467
21
151.72406268862153
31
0
0
LWPOLYLINE
5
108
100
AcDbEntity
8
0
100
AcDbPolyline
90
4
70
1
43
0.0
10
139.22725372911441
20
117.8990076829634
10
144.22725372911441
20
117.8990076829634
10
144.22725372911441
20
122.8990076829634
10
139.22725372911441
20
122.8990076829634
0
LWPOLYLINE
5
109
100
AcDbEntity
8
0
100
AcDbPolyline
90
4
70
1
43
0.0
10
89.253445437896758
20
167.09755074375124
10
91.753445437896758
20
171.4276777626734
10
87.423318418974532
20
173.92767776267345
10
84.923318418974546
20
169.59755074375124
0
ENDSEC
0
SECTION
2
OBJECTS
0
DICTIONARY
5
C
100
AcDbDictionary
3
ACAD_GROUP
350
D
3
ACAD_MLINESTYLE
350
17
0
DICTIONARY
5
D
100
AcDbDictionary
0
DICTIONARY
5
1A
330
C
100
AcDbDictionary
0
DICTIONARY
5
17
100
AcDbDictionary
0
ENDSEC
0
EOF
