0
SECTION
2
HEADER
9
$INSUNITS
70
4
9
$ACADVER
1
AC1014
9
$HANDSEED
5
FFFF
0
ENDSEC
0
SECTION
2
TABLES
0
TABLE
2
VPORT
5
8
100
AcDbSymbolTable
0
ENDTAB
0
TABLE
2
LTYPE
5
5
100
AcDbSymbolTable
0
LTYPE
5
14
100
AcDbSymbolTableRecord
100
AcDbLinetypeTableRecord
2
BYBLOCK
70
0
0
LTYPE
5
15
100
AcDbSymbolTableRecord
100
AcDbLinetypeTableRecord
2
BYLAYER
70
0
0
LTYPE
5
16
100
AcDbSymbolTableRecord
100
AcDbLinetypeTableRecord
2
DASHED
70
0
3
Dashed __ __ __ __ __ __ __ __ __ __ __ __ __ _
72
65
73
2
40
0.75
49
0.5
74
0
49
-0.25
74
0
0
ENDTAB
0
TABLE
2
LAYER
5
2
100
AcDbSymbolTable
70
2
0
LAYER
5
50
100
AcDbSymbolTableRecord
100
AcDbLayerTableRecord
2
0
70
0
62
7
6
CONTINUOUS
0
ENDTAB
0
TABLE
2
STYLE
5
3
100
AcDbSymbolTable
70
1
0
STYLE
5
11
100
AcDbSymbolTableRecord
100
AcDbTextStyleTableRecord
2
STANDARD
70
0
0
ENDTAB
0
TABLE
2
VIEW
5
6
100
AcDbSymbolTable
70
0
0
ENDTAB
0
TABLE
2
UCS
5
7
100
AcDbSymbolTable
70
0
0
ENDTAB
0
TABLE
2
APPID
5
9
100
AcDbSymbolTable
70
2
0
APPID
5
12
100
AcDbSymbolTableRecord
100
AcDbRegAppTableRecord
2
ACAD
70
0
0
ENDTAB
0
TABLE
2
DIMSTYLE
5
A
100
AcDbSymbolTable
70
1
0
ENDTAB
0
TABLE
2
BLOCK_RECORD
5
1
100
AcDbSymbolTable
70
1
0
BLOCK_RECORD
5
1F
100
AcDbSymbolTableRecord
100
AcDbBlockTableRecord
2
*MODEL_SPACE
0
BLOCK_RECORD
5
1B
100
AcDbSymbolTableRecord
100
AcDbBlockTableRecord
2
*PAPER_SPACE
0
ENDTAB
0
ENDSEC
0
SECTION
2
BLOCKS
0
BLOCK
5
20
100
AcDbEntity
100
AcDbBlockBegin
2
*MODEL_SPACE
0
ENDBLK
5
21
100
AcDbEntity
100
AcDbBlockEnd
0
BLOCK
5
1C
100
AcDbEntity
100
AcDbBlockBegin
2
*PAPER_SPACE
0
ENDBLK
5
1D
100
AcDbEntity
100
AcDbBlockEnd
0
ENDSEC
0
SECTION
2
ENTITIES
0
LWPOLYLINE
5
100
100
AcDbEntity
8
0
100
AcDbPolyline
90
7
70
1
43
0.0
10
-139.23726196992166
20
122.8990076829634
10
-139.22725372911441
20
111.3990076829532
10
-139.22725372911441
20
104.89900768296339
10
-161.22725372911441
20
104.89900768296339
10
-161.22725372911441
20
117.8990076829634
10
-144.22725372911441
20
117.8990076829634
10
-144.22725372911441
20
122.8990076829634
0
LWPOLYLINE
5
101
100
AcDbEntity
8
0
100
AcDbPolyline
90
6
70
1
43
0.0
10
-84.923318418974546
20
169.59755074375124
10
-100.51177568709468
20
160.59755074375113
10
-111.5117756870946
20
179.65010962700899
10
-100.25344543789683
20
186.15010962700887
10
-91.753445437896758
20
171.4276777626734
10
-87.423318418974532
20
173.92767776267345
0
LWPOLYLINE
5
102
100
AcDbEntity
8
0
100
AcDbPolyline
90
4
70
1
43
0.0
10
3.1455516289098617
20
126.35174217703573
10
19.645551628909839
20
97.772903852149284
42
-0.99999999999999989
10
15.142219529230784
20
95.172903852149233
10
-1.3577804707692502
20
123.75174217703572
42
-0.99999999999999989
0
LWPOLYLINE
5
103
100
AcDbEntity
8
0
100
AcDbPolyline
90
9
70
1
43
0.0
10
-190.74839306587143
20
92.06181917125825
10
34.956462150447329
20
92.258246001029406
10
12.99848334132589
20
130.29058092994848
10
-53.616516183432168
20
130.86653086979928
10
-99.963691581981294
20
211.14219344739269
10
-122.07034546485974
20
211.463275784849
10
-133.07261250147582
20
191.50062222270009
10
-97.614933139608269
20
130.08612004945905
10
-169.21840387396009
20
131.1261060136477
0
LWPOLYLINE
5
104
100
AcDbEntity
8
0
100
AcDbPolyline
90
5
70
1
43
0.0
10
25.032808409169107
20
94.049610307351287
10
6.6567616058803765
20
125.83715293227968
10
6.4271302971712396
20
128.30705741612289
10
11.78259807060549
20
128.79655599501083
10
31.840336024038987
20
94.055534774761625
0
LWPOLYLINE
5
105
100
AcDbEntity
8
0
100
AcDbPolyline
90
16
70
1
43
0.0
10
-109.16910168938787
20
93.932729570814104
10
-109.16910168938787
20
92.332729570814109
10
-113.06910168938791
20
92.332729570814124
42
-0.26802648347698477
10
-117.91965140471495
20
95.13412858833361
10
-117.91965140471488
20
100.73133055329455
42
-0.26802648347699226
10
-113.06910168938792
20
103.5327295708141
10
-109.16910168938787
20
103.5327295708141
10
-109.16910168938787
20
100.71652863574752
10
-59.369101689387882
20
100.71652863574752
10
-59.369101689387882
20
103.5327295708141
10
-55.438042881033631
20
103.53272957081413
42
-0.11649385393654883
10
-53.33732179677844
20
101.22681501273918
10
-53.337321796778326
20
94.63864412888897
42
-0.116493853936544
10
-55.438042881033624
20
92.332729570814124
10
-59.369101689387882
20
92.332729570814109
10
-59.369101689387882
20
93.932729570814104
0
LWPOLYLINE
5
106
100
AcDbEntity
8
0
100
AcDbPolyline
90
4
70
1
43
0.0
10
-59.369101689387882
20
93.932729570814104
10
-109.16910168938787
20
93.932729570814104
10
-109.16910168938787
20
92.132816144560849
10
-59.369101689387882
20
92.132816144560849
0
LWPOLYLINE
5
107
100
AcDbEntity
8
0
100
AcDbPolyline
90
4
70
1
43
0.0
10
-76.269101689387867
20
100.71652863574752
10
-92.269101689387895
20
100.71652863574752
10
-92.269101689387867
20
104.71652863574752
10
-76.269101689387867
20
104.71652863574752
0
LINE
5
108
100
AcDbEntity
8
0
100
AcDbLine
10
-84.269101689387881
20
100.71652863574752
30
0
11
-84.269101689387867
21
104.71652863574749
31
0
6
DASHED
0
LINE
5
109
100
AcDbEntity
8
0
100
AcDbLine
10
6.4271302971712396
20
128.30705741612289
30
0
11
13.75056907037094
21
128.98793023559497
31
0
0
LINE
5
110
100
AcDbEntity
8
0
100
AcDbLine
10
13.75056907037094
20
128.98793023559497
30
0
11
33.917753179429234
21
94.05734271311033
31
0
0
LINE
5
111
100
AcDbEntity
8
0
100
AcDbLine
10
31.840336024038987
20
94.055534774761625
30
0
11
33.917753179429234
21
94.05734271311033
31
0
0
LINE
5
112
100
AcDbEntity
8
0
100
AcDbLine
10
19.027048907122609
20
104.43858777405023
30
0
11
16.605375384237476
21
103.0386435718858
31
0
0
LINE
5
113
100
AcDbEntity
8
0
100
AcDbLine
10
11.519849529564494
20
117.4248096074239
30
0
11
9.1053742320676783
21
116.02902662426899
31
0
0
LINE
5
114
100
AcDbEntity
8
0
100
AcDbLine
10
16.605375384237476
20
103.0386435718858
30
0
11
9.1053742320676783
21
116.02902662426899
31
0
0
ENDSEC
0
SECTION
2
OBJECTS
0
DICTIONARY
5
C
100
AcDbDictionary
3
ACAD_GROUP
350
D
3
ACAD_MLINESTYLE
350
17
0
DICTIONARY
5
D
100
AcDbDictionary
0
DICTIONARY
5
1A
330
C
100
AcDbDictionary
0
DICTIONARY
5
17
100
AcDbDictionary
0
ENDSEC
0
EOF
