                                                                        S      1
,,10Hbattery v2,10Hbattery v2,7Hunknown,7Hunknown,32,38,7,99,15,,1.,2,2HG      1
MM,1,0.08,15H20250912.002724,0.01,10000.,7Hunknown,7Hunknown,11,0,15H202G      2
00522.200726;                                                           G      3
     186       1                                                00000000D      1
     186            -119       1       0                               0D      2
     514       2                                                00010000D      3
     514                       1       1                               0D      4
     510       3                                                00010000D      5
     510            -119       1       1                               0D      6
     510       4                                                00010000D      7
     510            -119       1       1                               0D      8
     510       5                                                00010000D      9
     510            -119       1       1                               0D     10
     510       6                                                00010000D     11
     510            -119       1       1                               0D     12
     510       7                                                00010000D     13
     510            -119       1       1                               0D     14
     510       8                                                00010000D     15
     510            -119       1       1                               0D     16
     510       9                                                00010000D     17
     510            -119       1       1                               0D     18
     510      10                                                00010000D     19
     510            -119       1       1                               0D     20
     510      11                                                00010000D     21
     510            -119       1       1                               0D     22
     510      12                                                00010000D     23
     510            -119       1       1                               0D     24
     508      13                                                00010000D     25
     508                       1       1                               0D     26
     508      14                                                00010000D     27
     508                       1       1                               0D     28
     508      15                                                00010000D     29
     508                       1       1                               0D     30
     508      16                                                00010000D     31
     508                       1       1                               0D     32
     508      17                                                00010000D     33
     508                       2       1                               0D     34
     508      19                                                00010000D     35
     508                       2       1                               0D     36
     508      21                                                00010000D     37
     508                       1       1                               0D     38
     508      22                                                00010000D     39
     508                       1       1                               0D     40
     508      23                                                00010000D     41
     508                       1       1                               0D     42
     508      24                                                00010000D     43
     508                       1       1                               0D     44
     126      25                                                00010000D     45
     126       0               2       0                               0D     46
     126      27                                                00010000D     47
     126       0               2       0                               0D     48
     126      29                                                00010000D     49
     126       0               2       0                               0D     50
     126      31                                                00010000D     51
     126       0               2       0                               0D     52
     126      33                                                00010000D     53
     126       0               2       0                               0D     54
     126      35                                                00010000D     55
     126       0               2       0                               0D     56
     126      37                                                00010000D     57
     126       0               2       0                               0D     58
     126      39                                                00010000D     59
     126       0               2       0                               0D     60
     126      41                                                00010000D     61
     126       0               2       0                               0D     62
     126      43                                                00010000D     63
     126       0               2       0                               0D     64
     126      45                                                00010000D     65
     126       0               2       0                               0D     66
     126      47                                                00010000D     67
     126       0               2       0                               0D     68
     126      49                                                00010000D     69
     126       0               2       0                               0D     70
     126      51                                                00010000D     71
     126       0               2       0                               0D     72
     126      53                                                00010000D     73
     126       0               2       0                               0D     74
     126      55                                                00010000D     75
     126       0               2       0                               0D     76
     126      57                                                00010000D     77
     126       0               2       0                               0D     78
     126      59                                                00010000D     79
     126       0               2       0                               0D     80
     126      61                                                00010000D     81
     126       0               2       0                               0D     82
     126      63                                                00010000D     83
     126       0               2       0                               0D     84
     126      65                                                00010000D     85
     126       0               2       0                               0D     86
     126      67                                                00010000D     87
     126       0               2       0                               0D     88
     126      69                                                00010000D     89
     126       0               2       0                               0D     90
     126      71                                                00010000D     91
     126       0               2       0                               0D     92
     128      73                                                00010000D     93
     128       0    -119       3       0                               0D     94
     128      76                                                00010000D     95
     128       0    -119       4       0                               0D     96
     128      80                                                00010000D     97
     128       0    -119       3       0                               0D     98
     128      83                                                00010000D     99
     128       0    -119       3       0                               0D    100
     128      86                                                00010000D    101
     128       0    -119       4       0                               0D    102
     128      90                                                00010000D    103
     128       0    -119       3       0                               0D    104
     128      93                                                00010000D    105
     128       0    -119       3       0                               0D    106
     128      96                                                00010000D    107
     128       0    -119       4       0                               0D    108
     128     100                                                00010000D    109
     128       0    -119       4       0                               0D    110
     128     104                                                00010000D    111
     128       0    -119       4       0                               0D    112
     502     108                                                00010000D    113
     502                       4       1                               0D    114
     504     112                                                00010001D    115
     504                       7       1                               0D    116
     406     119                                                00000000D    117
     406                       1      15                               0D    118
     314     120                                                00000200D    119
     314                       2       0                               0D    120
186,3,1,0,0,1,117;                                                     1P      1
514,10,5,1,7,1,9,1,11,1,13,1,15,1,17,1,19,1,21,1,23,1;                 3P      2
510,93,1,1,25;                                                         5P      3
510,95,1,1,27;                                                         7P      4
510,97,1,1,29;                                                         9P      5
510,99,1,1,31;                                                        11P      6
510,101,1,1,33;                                                       13P      7
510,103,1,1,35;                                                       15P      8
510,105,1,1,37;                                                       17P      9
510,107,1,1,39;                                                       19P     10
510,109,1,1,41;                                                       21P     11
510,111,1,1,43;                                                       23P     12
508,4,0,115,1,0,0,0,115,2,1,0,0,115,3,0,0,0,115,4,0,0;                25P     13
508,4,0,115,5,0,0,0,115,4,1,0,0,115,6,0,0,0,115,7,0,0;                27P     14
508,4,0,115,8,0,0,0,115,7,1,0,0,115,9,0,0,0,115,10,0,0;               29P     15
508,4,0,115,9,1,0,0,115,6,1,0,0,115,3,1,0,0,115,11,1,0;               31P     16
508,8,0,115,1,1,0,0,115,5,1,0,0,115,8,1,0,0,115,12,0,0,0,115,13,      33P     17
1,0,0,115,14,1,0,0,115,15,0,0,0,115,16,0,0;                           33P     18
508,8,0,115,17,1,0,0,115,12,1,0,0,115,10,1,0,0,115,11,0,0,0,115,      35P     19
2,0,0,0,115,16,1,0,0,115,18,0,0,0,115,19,0,0;                         35P     20
508,4,0,115,20,1,0,0,115,19,1,0,0,115,21,0,0,0,115,22,0,0;            37P     21
508,4,0,115,23,1,0,0,115,22,1,0,0,115,24,0,0,0,115,14,0,0;            39P     22
508,4,0,115,24,1,0,0,115,21,1,0,0,115,18,1,0,0,115,15,1,0;            41P     23
508,4,0,115,23,0,0,0,115,13,0,0,0,115,17,0,0,0,115,20,0,0;            43P     24
126,1,1,0,0,1,0,-0.5,-0.5,0.5,0.5,1.,1.,-55.,9.75,35.,-45.,9.75,      45P     25
35.,-0.5,0.5,0.,0.,0.;                                                45P     26
126,1,1,0,0,1,0,0.,0.,0.4,0.4,1.,1.,-55.,9.75,35.,-55.,9.75,39.,      47P     27
0.,0.4,0.,0.,0.;                                                      47P     28
126,1,1,0,0,1,0,-1.,-1.,0.,0.,1.,1.,-45.,9.75,39.,-55.,9.75,39.,      49P     29
-1.,0.,0.,0.,0.;                                                      49P     30
126,1,1,0,0,1,0,0.,0.,0.4,0.4,1.,1.,-45.,9.75,35.,-45.,9.75,39.,      51P     31
0.,0.4,0.,0.,0.;                                                      51P     32
126,1,1,0,0,1,0,-0.8875,-0.8875,-0.0875,-0.0875,1.,1.,-45.,9.75,      53P     33
35.,-45.,1.75,35.,-0.8875,-0.0875,0.,0.,0.;                           53P     34
126,1,1,0,0,1,0,-0.8,-0.8,0.,0.,1.,1.,-45.,1.75,39.,-45.,9.75,        55P     35
39.,-0.8,0.,0.,0.,0.;                                                 55P     36
126,1,1,0,0,1,0,0.,0.,0.4,0.4,1.,1.,-45.,1.75,35.,-45.,1.75,39.,      57P     37
0.,0.4,0.,0.,0.;                                                      57P     38
126,1,1,0,0,1,0,-1.,-1.,0.,0.,1.,1.,-45.,1.75,35.,-55.,1.75,35.,      59P     39
-1.,0.,0.,0.,0.;                                                      59P     40
126,1,1,0,0,1,0,-1.,-1.,0.,0.,1.,1.,-55.,1.75,39.,-45.,1.75,39.,      61P     41
-1.,0.,0.,0.,0.;                                                      61P     42
126,1,1,0,0,1,0,0.,0.,0.4,0.4,1.,1.,-55.,1.75,35.,-55.,1.75,39.,      63P     43
0.,0.4,0.,0.,0.;                                                      63P     44
126,1,1,0,0,1,0,-0.8,-0.8,0.,0.,1.,1.,-55.,9.75,39.,-55.,1.75,        65P     45
39.,-0.8,0.,0.,0.,0.;                                                 65P     46
126,1,1,0,0,1,0,0.,0.,0.175,0.175,1.,1.,-55.,0.,35.,-55.,1.75,        67P     47
35.,0.,0.175,0.,0.,0.;                                                67P     48
126,1,1,0,0,1,0,0.,0.,5.5,5.5,1.,1.,-55.,0.,35.,0.,0.,35.,0.,         69P     49
5.5,0.,0.,0.;                                                         69P     50
126,1,1,0,0,1,0,0.,0.,1.15,1.15,1.,1.,0.,0.,35.,0.,11.5,35.,0.,       71P     51
1.15,0.,0.,0.;                                                        71P     52
126,1,1,0,0,1,0,0.,0.,5.5,5.5,1.,1.,-55.,11.5,35.,0.,11.5,35.,        73P     53
0.,5.5,0.,0.,0.;                                                      73P     54
126,1,1,0,0,1,0,0.975,0.975,1.15,1.15,1.,1.,-55.,9.75,35.,-55.,       75P     55
11.5,35.,0.975,1.15,0.,0.,0.;                                         75P     56
126,1,1,0,0,1,0,0.,0.,3.5,3.5,1.,1.,-55.,0.,0.,-55.,0.,35.,0.,        77P     57
3.5,0.,0.,0.;                                                         77P     58
126,1,1,0,0,1,0,0.,0.,3.5,3.5,1.,1.,-55.,11.5,0.,-55.,11.5,35.,       79P     59
0.,3.5,0.,0.,0.;                                                      79P     60
126,1,1,0,0,1,0,0.,0.,1.15,1.15,1.,1.,-55.,0.,0.,-55.,11.5,0.,        81P     61
0.,1.15,0.,0.,0.;                                                     81P     62
126,1,1,0,0,1,0,0.,0.,5.5,5.5,1.,1.,0.,0.,0.,-55.,0.,0.,0.,5.5,       83P     63
0.,0.,0.;                                                             83P     64
126,1,1,0,0,1,0,0.,0.,5.5,5.5,1.,1.,0.,11.5,0.,-55.,11.5,0.,0.,       85P     65
5.5,0.,0.,0.;                                                         85P     66
126,1,1,0,0,1,0,0.,0.,1.15,1.15,1.,1.,0.,0.,0.,0.,11.5,0.,0.,         87P     67
1.15,0.,0.,0.;                                                        87P     68
126,1,1,0,0,1,0,0.,0.,3.5,3.5,1.,1.,0.,0.,35.,0.,0.,0.,0.,3.5,        89P     69
0.,0.,0.;                                                             89P     70
126,1,1,0,0,1,0,0.,0.,3.5,3.5,1.,1.,0.,11.5,35.,0.,11.5,0.,0.,        91P     71
3.5,0.,0.,0.;                                                         91P     72
128,1,1,1,1,0,0,1,0,0,-0.001,-0.001,1.001,1.001,-0.001,-0.001,        93P     73
0.401,0.401,1.,1.,1.,1.,-44.99,9.75,34.99,-55.01,9.75,34.99,          93P     74
-44.99,9.75,39.01,-55.01,9.75,39.01,-0.001,1.001,-0.001,0.401;        93P     75
128,1,1,1,1,0,0,1,0,0,-0.00100000000000003,-0.00100000000000003,      95P     76
0.801,0.801,-0.001,-0.001,0.401,0.401,1.,1.,1.,1.,-45.,1.74,          95P     77
34.99,-45.,9.76,34.99,-45.,1.74,39.01,-45.,9.76,39.01,                95P     78
-0.00100000000000003,0.801,-0.001,0.401;                              95P     79
128,1,1,1,1,0,0,1,0,0,-0.001,-0.001,1.001,1.001,-0.001,-0.001,        97P     80
0.401,0.401,1.,1.,1.,1.,-55.01,1.75,34.99,-44.99,1.75,34.99,          97P     81
-55.01,1.75,39.01,-44.99,1.75,39.01,-0.001,1.001,-0.001,0.401;        97P     82
128,1,1,1,1,0,0,1,0,0,-0.501,-0.501,0.501,0.501,-0.401,-0.401,        99P     83
0.401,0.401,1.,1.,1.,1.,-55.01,1.74,39.,-44.99,1.74,39.,-55.01,       99P     84
9.76,39.,-44.99,9.76,39.,-0.501,0.501,-0.401,0.401;                   99P     85
128,1,1,1,1,0,0,1,0,0,-0.001,-0.001,5.501,5.501,-0.001,-0.001,       101P     86
1.151,1.151,1.,1.,1.,1.,-55.01,-0.01,35.,0.0100000000000033,         101P     87
-0.01,35.,-55.01,11.51,35.,0.0100000000000033,11.51,35.,-0.001,      101P     88
5.501,-0.001,1.151;                                                  101P     89
128,1,1,1,1,0,0,1,0,0,-0.001,-0.001,3.901,3.901,-0.001,-0.001,       103P     90
1.151,1.151,1.,1.,1.,1.,-55.,-0.01,-0.01,-55.,-0.01,39.01,-55.,      103P     91
11.51,-0.01,-55.,11.51,39.01,-0.001,3.901,-0.001,1.151;              103P     92
128,1,1,1,1,0,0,1,0,0,-0.001,-0.001,5.501,5.501,-0.001,-0.001,       105P     93
1.151,1.151,1.,1.,1.,1.,0.01,-0.01,0.,-55.01,-0.01,0.,0.01,          105P     94
11.51,0.,-55.01,11.51,0.,-0.001,5.501,-0.001,1.151;                  105P     95
128,1,1,1,1,0,0,1,0,0,-0.001,-0.001,3.501,3.501,-0.001,-0.001,       107P     96
1.151,1.151,1.,1.,1.,1.,0.,-0.01,35.01,0.,-0.01,                     107P     97
-0.0099999999999989,0.,11.51,35.01,0.,11.51,-0.0099999999999989,     107P     98
-0.001,3.501,-0.001,1.151;                                           107P     99
128,1,1,1,1,0,0,1,0,0,-1.751,-1.751,1.751,1.751,-2.751,-2.751,       109P    100
2.751,2.751,1.,1.,1.,1.,-55.01,11.5,-0.0099999999999989,-55.01,      109P    101
11.5,35.01,0.0099999999999989,11.5,-0.0099999999999989,              109P    102
0.00999999999999446,11.5,35.01,-1.751,1.751,-2.751,2.751;            109P    103
128,1,1,1,1,0,0,1,0,0,-2.751,-2.751,2.751,2.751,-1.751,-1.751,       111P    104
1.751,1.751,1.,1.,1.,1.,0.0099999999999989,0.,35.01,-55.01,0.,       111P    105
35.01,0.00999999999999446,0.,-0.0099999999999989,-55.01,0.,          111P    106
-0.0099999999999989,-2.751,2.751,-1.751,1.751;                       111P    107
502,16,-55.,9.75,35.,-45.,9.75,35.,-55.,9.75,39.,-45.,9.75,39.,      113P    108
-45.,1.75,35.,-45.,1.75,39.,-55.,1.75,35.,-55.,1.75,39.,-55.,0.,     113P    109
35.,0.,0.,35.,0.,11.5,35.,-55.,11.5,35.,-55.,0.,0.,-55.,11.5,0.,     113P    110
0.,0.,0.,0.,11.5,0.;                                                 113P    111
504,24,45,113,1,113,2,47,113,1,113,3,49,113,4,113,3,51,113,2,        115P    112
113,4,53,113,2,113,5,55,113,6,113,4,57,113,5,113,6,59,113,5,113,     115P    113
7,61,113,8,113,6,63,113,7,113,8,65,113,3,113,8,67,113,9,113,7,       115P    114
69,113,9,113,10,71,113,10,113,11,73,113,12,113,11,75,113,1,113,      115P    115
12,77,113,13,113,9,79,113,14,113,12,81,113,13,113,14,83,113,15,      115P    116
113,13,85,113,16,113,14,87,113,15,113,16,89,113,10,113,15,91,        115P    117
113,11,113,16;                                                       115P    118
406,1,5HBody1;                                                       117P    119
314,62.7450980392157,62.7450980392157,62.7450980392157,13HSteel      119P    120
- Satin;                                                             119P    121
S      1G      3D    120P    121                                        T      1
