                                                                        S      1
,,13HDrawer Pin v2,13HDrawer Pin v2,7Hunknown,7Hunknown,32,38,7,99,15,, G      1
1.,2,2HMM,1,0.08,15H20250912.001259,0.01,10000.,7Hunknown,7Hunknown,11, G      2
0,15H20240903.210806;                                                   G      3
     186       1                                                00000000D      1
     186            -171       1       0                               0D      2
     186       2                                                00000000D      3
     186            -171       1       0                               0D      4
     514       3                                                00010000D      5
     514                       1       1                               0D      6
     514       4                                                00010000D      7
     514                       1       1                               0D      8
     510       5                                                00010000D      9
     510            -171       1       1                               0D     10
     510       6                                                00010000D     11
     510            -171       1       1                               0D     12
     510       7                                                00010000D     13
     510            -171       1       1                               0D     14
     510       8                                                00010000D     15
     510            -171       1       1                               0D     16
     510       9                                                00010000D     17
     510            -171       1       1                               0D     18
     510      10                                                00010000D     19
     510            -171       1       1                               0D     20
     510      11                                                00010000D     21
     510            -171       1       1                               0D     22
     510      12                                                00010000D     23
     510            -171       1       1                               0D     24
     510      13                                                00010000D     25
     510            -171       1       1                               0D     26
     510      14                                                00010000D     27
     510            -171       1       1                               0D     28
     510      15                                                00010000D     29
     510            -171       1       1                               0D     30
     510      16                                                00010000D     31
     510            -171       1       1                               0D     32
     510      17                                                00010000D     33
     510            -171       1       1                               0D     34
     510      18                                                00010000D     35
     510            -171       1       1                               0D     36
     510      19                                                00010000D     37
     510            -171       1       1                               0D     38
     510      20                                                00010000D     39
     510            -171       1       1                               0D     40
     508      21                                                00010000D     41
     508                       1       1                               0D     42
     508      22                                                00010000D     43
     508                       1       1                               0D     44
     508      23                                                00010000D     45
     508                       1       1                               0D     46
     508      24                                                00010000D     47
     508                       1       1                               0D     48
     508      25                                                00010000D     49
     508                       1       1                               0D     50
     508      26                                                00010000D     51
     508                       1       1                               0D     52
     508      27                                                00010000D     53
     508                       1       1                               0D     54
     508      28                                                00010000D     55
     508                       1       1                               0D     56
     508      29                                                00010000D     57
     508                       1       1                               0D     58
     508      30                                                00010000D     59
     508                       1       1                               0D     60
     508      31                                                00010000D     61
     508                       1       1                               0D     62
     508      32                                                00010000D     63
     508                       1       1                               0D     64
     508      33                                                00010000D     65
     508                       1       1                               0D     66
     508      34                                                00010000D     67
     508                       1       1                               0D     68
     508      35                                                00010000D     69
     508                       1       1                               0D     70
     508      36                                                00010000D     71
     508                       1       1                               0D     72
     508      37                                                00010000D     73
     508                       1       1                               0D     74
     508      38                                                00010000D     75
     508                       1       1                               0D     76
     126      39                                                00010000D     77
     126       0              10       0                               0D     78
     126      49                                                00010000D     79
     126       0               3       0                               0D     80
     126      52                                                00010000D     81
     126       0              10       0                               0D     82
     126      62                                                00010000D     83
     126       0               2       0                               0D     84
     126      64                                                00010000D     85
     126       0               9       0                               0D     86
     126      73                                                00010000D     87
     126       0               9       0                               0D     88
     126      82                                                00010000D     89
     126       0               4       0                               0D     90
     126      86                                                00010000D     91
     126       0               9       0                               0D     92
     126      95                                                00010000D     93
     126       0               2       0                               0D     94
     126      97                                                00010000D     95
     126       0               9       0                               0D     96
     126     106                                                00010000D     97
     126       0               4       0                               0D     98
     126     110                                                00010000D     99
     126       0               6       0                               0D    100
     126     116                                                00010000D    101
     126       0               4       0                               0D    102
     126     120                                                00010000D    103
     126       0               6       0                               0D    104
     126     126                                                00010000D    105
     126       0              10       0                               0D    106
     126     136                                                00010000D    107
     126       0              10       0                               0D    108
     126     146                                                00010000D    109
     126       0               3       0                               0D    110
     126     149                                                00010000D    111
     126       0               4       0                               0D    112
     126     153                                                00010000D    113
     126       0               3       0                               0D    114
     126     156                                                00010000D    115
     126       0              11       0                               0D    116
     126     167                                                00010000D    117
     126       0               4       0                               0D    118
     126     171                                                00010000D    119
     126       0              11       0                               0D    120
     126     182                                                00010000D    121
     126       0               3       0                               0D    122
     126     185                                                00010000D    123
     126       0              11       0                               0D    124
     126     196                                                00010000D    125
     126       0              10       0                               0D    126
     128     206                                                00010000D    127
     128       0    -171      13       0                               0D    128
     128     219                                                00010000D    129
     128       0    -171      12       0                               0D    130
     128     231                                                00010000D    131
     128       0    -171       3       0                               0D    132
     128     234                                                00010000D    133
     128       0    -171      15       0                               0D    134
     128     249                                                00010000D    135
     128       0    -171      11       0                               0D    136
     128     260                                                00010000D    137
     128       0    -171       3       0                               0D    138
     128     263                                                00010000D    139
     128       0    -171       3       0                               0D    140
     128     266                                                00010000D    141
     128       0    -171       9       0                               0D    142
     128     275                                                00010000D    143
     128       0    -171      18       0                               0D    144
     128     293                                                00010000D    145
     128       0    -171       6       0                               0D    146
     128     299                                                00010000D    147
     128       0    -171       7       0                               0D    148
     128     306                                                00010000D    149
     128       0    -171      18       0                               0D    150
     128     324                                                00010000D    151
     128       0    -171      17       0                               0D    152
     128     341                                                00010000D    153
     128       0    -171       4       0                               0D    154
     128     345                                                00010000D    155
     128       0    -171      16       0                               0D    156
     128     361                                                00010000D    157
     128       0    -171       4       0                               0D    158
     502     365                                                00010000D    159
     502                       4       1                               0D    160
     502     369                                                00010000D    161
     502                       7       1                               0D    162
     504     376                                                00010001D    163
     504                       3       1                               0D    164
     504     379                                                00010001D    165
     504                       4       1                               0D    166
     406     383                                                00000000D    167
     406                       1      15                               0D    168
     406     384                                                00000000D    169
     406                       1      15                               0D    170
     314     385                                                00000200D    171
     314                       2       0                               0D    172
186,5,1,0,0,1,167;                                                     1P      1
186,7,1,0,0,1,169;                                                     3P      2
514,7,9,1,11,1,13,1,15,1,17,1,19,1,21,1;                               5P      3
514,9,23,1,25,1,27,1,29,1,31,1,33,1,35,1,37,1,39,1;                    7P      4
510,127,1,1,41;                                                        9P      5
510,129,1,1,43;                                                       11P      6
510,131,1,1,45;                                                       13P      7
510,133,1,1,47;                                                       15P      8
510,135,1,1,49;                                                       17P      9
510,137,1,1,51;                                                       19P     10
510,139,2,1,53,55;                                                    21P     11
510,141,1,1,57;                                                       23P     12
510,143,1,1,59;                                                       25P     13
510,145,1,1,61;                                                       27P     14
510,147,1,1,63;                                                       29P     15
510,149,1,1,65;                                                       31P     16
510,151,1,1,67;                                                       33P     17
510,153,1,1,69;                                                       35P     18
510,155,1,1,71;                                                       37P     19
510,157,2,1,73,75;                                                    39P     20
508,4,0,163,1,1,0,0,163,2,1,0,0,163,3,1,0,0,163,2,0,0;                41P     21
508,4,0,163,3,0,0,0,163,4,1,0,0,163,5,0,0,0,163,4,0,0;                43P     22
508,1,0,163,1,0,0;                                                    45P     23
508,4,0,163,6,1,0,0,163,7,1,0,0,163,8,1,0,0,163,7,0,0;                47P     24
508,4,0,163,8,0,0,0,163,9,1,0,0,163,10,1,0,0,163,9,0,0;               49P     25
508,1,0,163,6,0,0;                                                    51P     26
508,1,0,163,10,0,0;                                                   53P     27
508,1,0,163,5,1,0;                                                    55P     28
508,4,0,165,1,1,0,0,165,2,1,0,0,165,3,1,0,0,165,4,0,0;                57P     29
508,4,0,165,5,1,0,0,165,2,0,0,0,165,6,1,0,0,165,4,1,0;                59P     30
508,4,0,165,3,0,0,0,165,7,0,0,0,165,8,0,0,0,165,9,1,0;                61P     31
508,2,0,165,1,0,0,0,165,6,0,0;                                        63P     32
508,4,0,165,10,1,0,0,165,11,1,0,0,165,12,1,0,0,165,11,0,0;            65P     33
508,4,0,165,12,0,0,0,165,13,1,0,0,165,14,1,0,0,165,13,0,0;            67P     34
508,1,0,165,10,0,0;                                                   69P     35
508,4,0,165,5,0,0,0,165,9,0,0,0,165,15,0,0,0,165,7,1,0;               71P     36
508,1,0,165,14,0,0;                                                   73P     37
508,2,0,165,15,1,0,0,165,8,1,0;                                       75P     38
126,8,2,0,1,0,0,-3.14159265358979,-3.14159265358979,                  77P     39
-3.14159265358979,-1.5707963267949,-1.5707963267949,0.,0.,            77P     40
1.5707963267949,1.5707963267949,3.14159265358979,                     77P     41
3.14159265358979,3.14159265358979,1.,0.707106781186548,1.,            77P     42
0.707106781186548,1.,0.707106781186548,1.,0.707106781186548,1.,       77P     43
-1.9,-10.,2.32682891837997D-16,-1.9,-10.,1.9,                         77P     44
1.16341445918999D-16,-10.,1.9,1.9,-10.,1.9,1.9,-10.,0.,1.9,-10.,      77P     45
-1.9,1.16341445918999D-16,-10.,-1.9,-1.9,-10.,-1.9,-1.9,-10.,         77P     46
-2.32682891837997D-16,-3.14159265358979,3.14159265358979,0.,0.,       77P     47
0.;                                                                   77P     48
126,1,1,0,0,1,0,-0.294627825494395,-0.294627825494395,                79P     49
0.294627825494395,0.294627825494395,1.,1.,-1.9,-10.,0.,-2.9,-9.,      79P     50
0.,-0.294627825494395,0.294627825494395,0.,0.,0.;                     79P     51
126,8,2,0,1,0,0,-3.14159265358979,-3.14159265358979,                  81P     52
-3.14159265358979,-1.5707963267949,-1.5707963267949,0.,0.,            81P     53
1.5707963267949,1.5707963267949,3.14159265358979,                     81P     54
3.14159265358979,3.14159265358979,1.,0.707106781186548,1.,            81P     55
0.707106781186548,1.,0.707106781186548,1.,0.707106781186548,1.,       81P     56
-2.9,-9.,-3.55147571752732D-16,-2.9,-9.,-2.9,                         81P     57
1.77573785876366D-16,-9.,-2.9,2.9,-9.,-2.9,2.9,-9.,0.,2.9,-9.,        81P     58
2.9,1.77573785876366D-16,-9.,2.9,-2.9,-9.,2.9,-2.9,-9.,               81P     59
3.55147571752732D-16,-3.14159265358979,3.14159265358979,0.,0.,        81P     60
0.;                                                                   81P     61
126,1,1,0,0,1,0,-3.10344827586207,-3.10344827586207,0.,0.,1.,1.,      83P     62
-2.9,-9.,0.,-2.9,0.,0.,-3.10344827586207,0.,0.,0.,0.;                 83P     63
126,8,2,0,1,0,0,-3.14159265358979,-3.14159265358979,                  85P     64
-3.14159265358979,-1.5707963267949,-1.5707963267949,0.,0.,            85P     65
1.5707963267949,1.5707963267949,3.14159265358979,                     85P     66
3.14159265358979,3.14159265358979,1.,0.707106781186548,1.,            85P     67
0.707106781186548,1.,0.707106781186548,1.,0.707106781186548,1.,       85P     68
-2.9,0.,3.55147571752732D-16,-2.9,0.,2.9,1.77573785876366D-16,        85P     69
0.,2.9,2.9,0.,2.9,2.9,0.,0.,2.9,0.,-2.9,1.77573785876366D-16,0.,      85P     70
-2.9,-2.9,0.,-2.9,-2.9,0.,-3.55147571752732D-16,                      85P     71
-3.14159265358979,3.14159265358979,0.,0.,0.;                          85P     72
126,8,2,0,1,0,0,-3.14159265358979,-3.14159265358979,                  87P     73
-3.14159265358979,-1.5707963267949,-1.5707963267949,0.,0.,            87P     74
1.5707963267949,1.5707963267949,3.14159265358979,                     87P     75
3.14159265358979,3.14159265358979,1.,0.707106781186548,1.,            87P     76
0.707106781186548,1.,0.707106781186548,1.,0.707106781186548,1.,       87P     77
-3.,4.,-3.67394039744206D-16,-3.,4.,-3.,1.83697019872103D-16,4.,      87P     78
-3.,3.,4.,-3.,3.,4.,0.,3.,4.,3.,1.83697019872103D-16,4.,3.,-3.,       87P     79
4.,3.,-3.,4.,3.67394039744206D-16,-3.14159265358979,                  87P     80
3.14159265358979,0.,0.,0.;                                            87P     81
126,1,1,0,0,1,0,-0.471404520791032,-0.471404520791032,                89P     82
0.471404520791032,0.471404520791032,1.,1.,-3.,4.,0.,-6.,              89P     83
0.999999999999999,0.,-0.471404520791032,0.471404520791032,0.,0.,      89P     84
0.;                                                                   89P     85
126,8,2,0,1,0,0,-3.14159265358979,-3.14159265358979,                  91P     86
-3.14159265358979,-1.5707963267949,-1.5707963267949,0.,0.,            91P     87
1.5707963267949,1.5707963267949,3.14159265358979,                     91P     88
3.14159265358979,3.14159265358979,1.,0.707106781186548,1.,            91P     89
0.707106781186548,1.,0.707106781186548,1.,0.707106781186548,1.,       91P     90
-6.,1.,7.34788079488412D-16,-6.,1.,6.,3.67394039744206D-16,1.,        91P     91
6.,6.,1.,6.,6.,1.,0.,6.,1.,-6.,3.67394039744206D-16,1.,-6.,-6.,       91P     92
1.,-6.,-6.,1.,-7.34788079488412D-16,-3.14159265358979,                91P     93
3.14159265358979,0.,0.,0.;                                            91P     94
126,1,1,0,0,1,0,-0.166666666666667,-0.166666666666667,0.,0.,1.,       93P     95
1.,-6.,1.,0.,-6.,0.,0.,-0.166666666666667,0.,0.,0.,0.;                93P     96
126,8,2,0,1,0,0,-3.14159265358979,-3.14159265358979,                  95P     97
-3.14159265358979,-1.5707963267949,-1.5707963267949,0.,0.,            95P     98
1.5707963267949,1.5707963267949,3.14159265358979,                     95P     99
3.14159265358979,3.14159265358979,1.,0.707106781186548,1.,            95P    100
0.707106781186548,1.,0.707106781186548,1.,0.707106781186548,1.,       95P    101
-6.,0.,7.34788079488412D-16,-6.,0.,6.,3.67394039744206D-16,0.,        95P    102
6.,6.,0.,6.,6.,0.,0.,6.,0.,-6.,3.67394039744206D-16,0.,-6.,-6.,       95P    103
0.,-6.,-6.,0.,-7.34788079488412D-16,-3.14159265358979,                95P    104
3.14159265358979,0.,0.,0.;                                            95P    105
126,1,1,0,0,1,0,-0.320948224101353,-0.320948224101353,                97P    106
0.056940648452471,0.056940648452471,1.,1.,-30.2000004470348,          97P    107
-10.,-1.88944436276912,-30.2000004470348,-10.,1.88944436276912,       97P    108
-0.320948224101353,0.056940648452471,0.,0.,0.;                        97P    109
126,3,3,0,0,1,0,0.,0.,0.,0.,0.157236969578666,0.157236969578666,      99P    110
0.157236969578666,0.157236969578666,1.,1.,1.,1.,                      99P    111
-30.2000004470348,-10.,1.88944436276912,-30.5126926498179,            99P    112
-9.68730779721691,2.17078461030739,-30.8632234612761,                 99P    113
-9.33677698575876,2.42321801125831,-31.2000004470348,-9.,             99P    114
2.64007575648882,0.,0.157236969578666,0.,0.,0.;                       99P    115
126,1,1,0,0,1,0,-0.132003787824441,-0.132003787824441,               101P    116
0.396011363473322,0.396011363473322,1.,1.,-31.2000004470348,-9.,     101P    117
2.64007575648882,-31.2000004470348,-9.,-2.64007575648882,            101P    118
-0.132003787824441,0.396011363473322,0.,0.,0.;                       101P    119
126,3,3,0,0,1,0,0.,0.,0.,0.,0.157236969578666,0.157236969578666,     103P    120
0.157236969578666,0.157236969578666,1.,1.,1.,1.,                     103P    121
-30.2000004470348,-10.,-1.88944436276912,-30.5126926498179,          103P    122
-9.68730779721691,-2.17078461030739,-30.8632234612761,               103P    123
-9.33677698575876,-2.42321801125831,-31.2000004470348,-9.,           103P    124
-2.64007575648882,0.,0.157236969578666,0.,0.,0.;                     103P    125
126,6,2,0,0,0,0,-1.99741301017759,-1.99741301017759,                 105P    126
-1.99741301017759,-0.665804336725864,-0.665804336725864,             105P    127
0.665804336725864,0.665804336725864,1.99741301017759,                105P    128
1.99741301017759,1.99741301017759,1.,0.786420207308591,1.,           105P    129
0.786420207308588,1.,0.786420207308591,1.,-31.2000004470348,-9.,     105P    130
-2.64007575648882,-29.1263592309242,-9.,-3.58261289892378,           105P    131
-27.7193818458399,-9.,-1.79130644946189,-26.3124044607557,-9.,       105P    132
0.,-27.7193818458399,-9.,1.79130644946189,-29.1263592309242,-9.,     105P    133
3.58261289892378,-31.2000004470348,-9.,2.64007575648882,             105P    134
-1.99741301017759,1.99741301017759,0.,0.,0.;                         105P    135
126,6,2,0,0,0,0,-1.67625485219421,-1.67625485219421,                 107P    136
-1.67625485219421,-0.558751617398071,-0.558751617398071,             107P    137
0.558751617398071,0.558751617398071,1.67625485219421,                107P    138
1.67625485219421,1.67625485219421,1.,0.847917574242908,1.,           107P    139
0.847917574242908,1.,0.847917574242908,1.,-30.2000004470348,         107P    140
-10.,1.88944436276912,-29.0186975072523,-10.,2.01448672581084,       107P    141
-28.3889570559733,-10.,1.00724336290542,-27.7592166046944,-10.,      107P    142
0.,-28.3889570559733,-10.,-1.00724336290542,-29.0186975072523,       107P    143
-10.,-2.01448672581084,-30.2000004470348,-10.,-1.88944436276912,     107P    144
-1.67625485219421,1.67625485219421,0.,0.,0.;                         107P    145
126,1,1,0,0,1,0,0.,0.,0.9,0.9,1.,1.,-31.2000004470348,0.,            109P    146
2.64007575648882,-31.2000004470348,-9.,2.64007575648882,0.,0.9,      109P    147
0.,0.,0.;                                                            109P    148
126,1,1,0,0,1,0,-0.396011363473322,-0.396011363473322,               111P    149
0.132003787824441,0.132003787824441,1.,1.,-31.2000004470348,0.,      111P    150
-2.64007575648882,-31.2000004470348,0.,2.64007575648882,             111P    151
-0.396011363473322,0.132003787824441,0.,0.,0.;                       111P    152
126,1,1,0,0,1,0,0.,0.,0.9,0.9,1.,1.,-31.2000004470348,0.,            113P    153
-2.64007575648882,-31.2000004470348,-9.,-2.64007575648882,0.,        113P    154
0.9,0.,0.,0.;                                                        113P    155
126,8,2,0,1,0,0,-3.14159265358979,-3.14159265358979,                 115P    156
-3.14159265358979,-1.5707963267949,-1.5707963267949,0.,0.,           115P    157
1.5707963267949,1.5707963267949,3.14159265358979,                    115P    158
3.14159265358979,3.14159265358979,1.,0.707106781186549,1.,           115P    159
0.707106781186549,1.,0.707106781186549,1.,0.707106781186549,1.,      115P    160
-33.0000004470348,4.,-3.67394039744206D-16,-33.0000004470348,4.,     115P    161
-3.,-30.0000004470348,4.,-3.,-27.0000004470348,4.,-3.,               115P    162
-27.0000004470348,4.,0.,-27.0000004470348,4.,3.,                     115P    163
-30.0000004470348,4.,3.,-33.0000004470348,4.,3.,                     115P    164
-33.0000004470348,4.,3.67394039744206D-16,-3.14159265358979,         115P    165
3.14159265358979,0.,0.,0.;                                           115P    166
126,1,1,0,0,1,0,-0.471404520791032,-0.471404520791032,               117P    167
0.471404520791032,0.471404520791032,1.,1.,-33.0000004470348,4.,      117P    168
0.,-36.0000004470348,1.,0.,-0.471404520791032,0.471404520791032,     117P    169
0.,0.,0.;                                                            117P    170
126,8,2,0,1,0,0,-3.14159265358979,-3.14159265358979,                 119P    171
-3.14159265358979,-1.5707963267949,-1.5707963267949,0.,0.,           119P    172
1.5707963267949,1.5707963267949,3.14159265358979,                    119P    173
3.14159265358979,3.14159265358979,1.,0.707106781186548,1.,           119P    174
0.707106781186548,1.,0.707106781186548,1.,0.707106781186548,1.,      119P    175
-36.0000004470348,1.,7.34788079488412D-16,-36.0000004470348,1.,      119P    176
6.,-30.0000004470348,1.,6.,-24.0000004470348,1.,6.,                  119P    177
-24.0000004470348,1.,0.,-24.0000004470348,1.,-6.,                    119P    178
-30.0000004470348,1.,-6.,-36.0000004470348,1.,-6.,                   119P    179
-36.0000004470348,1.,-7.34788079488412D-16,-3.14159265358979,        119P    180
3.14159265358979,0.,0.,0.;                                           119P    181
126,1,1,0,0,1,0,-0.166666666666667,-0.166666666666667,0.,0.,1.,      121P    182
1.,-36.0000004470348,1.,0.,-36.0000004470348,0.,0.,                  121P    183
-0.166666666666667,0.,0.,0.,0.;                                      121P    184
126,8,2,0,1,0,0,-3.14159265358979,-3.14159265358979,                 123P    185
-3.14159265358979,-1.5707963267949,-1.5707963267949,0.,0.,           123P    186
1.5707963267949,1.5707963267949,3.14159265358979,                    123P    187
3.14159265358979,3.14159265358979,1.,0.707106781186548,1.,           123P    188
0.707106781186548,1.,0.707106781186548,1.,0.707106781186548,1.,      123P    189
-36.0000004470348,0.,7.34788079488412D-16,-36.0000004470348,0.,      123P    190
6.,-30.0000004470348,0.,6.,-24.0000004470348,0.,6.,                  123P    191
-24.0000004470348,0.,0.,-24.0000004470348,0.,-6.,                    123P    192
-30.0000004470348,0.,-6.,-36.0000004470348,0.,-6.,                   123P    193
-36.0000004470348,0.,-7.34788079488412D-16,-3.14159265358979,        123P    194
3.14159265358979,0.,0.,0.;                                           123P    195
126,6,2,0,0,0,0,-1.99741301017759,-1.99741301017759,                 125P    196
-1.99741301017759,-0.665804336725864,-0.665804336725864,             125P    197
0.665804336725864,0.665804336725864,1.99741301017759,                125P    198
1.99741301017759,1.99741301017759,1.,0.786420207308591,1.,           125P    199
0.786420207308588,1.,0.786420207308591,1.,-31.2000004470348,0.,      125P    200
2.64007575648882,-29.1263592309242,0.,3.58261289892378,              125P    201
-27.7193818458399,0.,1.79130644946189,-26.3124044607557,0.,0.,       125P    202
-27.7193818458399,0.,-1.79130644946189,-29.1263592309242,0.,         125P    203
-3.58261289892378,-31.2000004470348,0.,-2.64007575648882,            125P    204
-1.99741301017759,1.99741301017759,0.,0.,0.;                         125P    205
128,1,8,1,2,0,1,0,0,1,-0.294627825494395,-0.294627825494395,         127P    206
0.294627825494395,0.294627825494395,-3.14159265358979,               127P    207
-3.14159265358979,-3.14159265358979,-1.5707963267949,                127P    208
-1.5707963267949,0.,0.,1.5707963267949,1.5707963267949,              127P    209
3.14159265358979,3.14159265358979,3.14159265358979,1.,1.,            127P    210
0.707106781186548,0.707106781186548,1.,1.,0.707106781186548,         127P    211
0.707106781186548,1.,1.,0.707106781186548,0.707106781186548,1.,      127P    212
1.,0.707106781186548,0.707106781186548,1.,1.,-1.9,-10.,0.,-2.9,      127P    213
-9.,0.,-1.9,-10.,-1.9,-2.9,-9.,-2.9,0.,-10.,-1.9,0.,-9.,-2.9,        127P    214
1.9,-10.,-1.9,2.9,-9.,-2.9,1.9,-10.,0.,2.9,-9.,0.,1.9,-10.,1.9,      127P    215
2.9,-9.,2.9,0.,-10.,1.9,0.,-9.,2.9,-1.9,-10.,1.9,-2.9,-9.,2.9,       127P    216
-1.9,-10.,0.,-2.9,-9.,0.,-0.294627825494395,0.294627825494395,       127P    217
-3.14159265358979,3.14159265358979;                                  127P    218
128,1,8,1,2,0,1,0,0,1,0.,0.,3.10344827586207,3.10344827586207,       129P    219
-3.14159265358979,-3.14159265358979,-3.14159265358979,               129P    220
-1.5707963267949,-1.5707963267949,0.,0.,1.5707963267949,             129P    221
1.5707963267949,3.14159265358979,3.14159265358979,                   129P    222
3.14159265358979,1.,1.,0.707106781186548,0.707106781186548,1.,       129P    223
1.,0.707106781186548,0.707106781186548,1.,1.,0.707106781186548,      129P    224
0.707106781186548,1.,1.,0.707106781186548,0.707106781186548,1.,      129P    225
1.,-2.9,-9.,0.,-2.9,0.,0.,-2.9,-9.,-2.9,-2.9,0.,-2.9,0.,-9.,         129P    226
-2.9,0.,0.,-2.9,2.9,-9.,-2.9,2.9,0.,-2.9,2.9,-9.,0.,2.9,0.,0.,       129P    227
2.9,-9.,2.9,2.9,0.,2.9,0.,-9.,2.9,0.,0.,2.9,-2.9,-9.,2.9,-2.9,       129P    228
0.,2.9,-2.9,-9.,0.,-2.9,0.,0.,0.,3.10344827586207,                   129P    229
-3.14159265358979,3.14159265358979;                                  129P    230
128,1,1,1,1,0,0,1,0,0,-0.191,-0.191,0.191,0.191,-0.191,-0.191,       131P    231
0.191,0.191,1.,1.,1.,1.,1.91,-10.,1.91,-1.91,-10.,1.91,1.91,         131P    232
-10.,-1.91,-1.91,-10.,-1.91,-0.191,0.191,-0.191,0.191;               131P    233
128,1,8,1,2,0,1,0,0,1,-0.471404520791032,-0.471404520791032,         133P    234
0.471404520791032,0.471404520791032,-3.14159265358979,               133P    235
-3.14159265358979,-3.14159265358979,-1.5707963267949,                133P    236
-1.5707963267949,0.,0.,1.5707963267949,1.5707963267949,              133P    237
3.14159265358979,3.14159265358979,3.14159265358979,1.,1.,            133P    238
0.707106781186548,0.707106781186548,1.,1.,0.707106781186548,         133P    239
0.707106781186548,1.,1.,0.707106781186548,0.707106781186548,1.,      133P    240
1.,0.707106781186548,0.707106781186548,1.,1.,-3.,4.,0.,-6.,          133P    241
0.999999999999999,0.,-3.,4.,3.,-6.,0.999999999999999,6.,0.,4.,       133P    242
3.,0.,0.999999999999999,6.,3.,4.,3.,6.,0.999999999999999,6.,3.,      133P    243
4.,0.,6.,0.999999999999999,0.,3.,4.,-3.,6.,0.999999999999999,        133P    244
-6.,0.,4.,-3.,0.,0.999999999999999,-6.,-3.,4.,-3.,-6.,               133P    245
0.999999999999999,-6.,-3.,4.,0.,-6.,0.999999999999999,0.,            133P    246
-0.471404520791032,0.471404520791032,-3.14159265358979,              133P    247
3.14159265358979;                                                    133P    248
128,1,8,1,2,0,1,0,0,1,0.,0.,0.166666666666667,0.166666666666667,     135P    249
-3.14159265358979,-3.14159265358979,-3.14159265358979,               135P    250
-1.5707963267949,-1.5707963267949,0.,0.,1.5707963267949,             135P    251
1.5707963267949,3.14159265358979,3.14159265358979,                   135P    252
3.14159265358979,1.,1.,0.707106781186548,0.707106781186548,1.,       135P    253
1.,0.707106781186548,0.707106781186548,1.,1.,0.707106781186548,      135P    254
0.707106781186548,1.,1.,0.707106781186548,0.707106781186548,1.,      135P    255
1.,-6.,1.,0.,-6.,0.,0.,-6.,1.,6.,-6.,0.,6.,0.,1.,6.,0.,0.,6.,6.,     135P    256
1.,6.,6.,0.,6.,6.,1.,0.,6.,0.,0.,6.,1.,-6.,6.,0.,-6.,0.,1.,-6.,      135P    257
0.,0.,-6.,-6.,1.,-6.,-6.,0.,-6.,-6.,1.,0.,-6.,0.,0.,0.,              135P    258
0.166666666666667,-3.14159265358979,3.14159265358979;                135P    259
128,1,1,1,1,0,0,1,0,0,-0.301,-0.301,0.301,0.301,-0.301,-0.301,       137P    260
0.301,0.301,1.,1.,1.,1.,-3.01,4.,3.01,3.01,4.,3.01,-3.01,4.,         137P    261
-3.01,3.01,4.,-3.01,-0.301,0.301,-0.301,0.301;                       137P    262
128,1,1,1,1,0,0,1,0,0,-0.601,-0.601,0.601,0.601,-0.601,-0.601,       139P    263
0.601,0.601,1.,1.,1.,1.,6.01,0.,6.01,-6.01,0.,6.01,6.01,0.,          139P    264
-6.01,-6.01,0.,-6.01,-0.601,0.601,-0.601,0.601;                      139P    265
128,1,1,1,1,0,0,1,0,0,-0.397011363473322,-0.397011363473322,         141P    266
0.133003787824441,0.133003787824441,-0.0717106781186551,             141P    267
-0.0717106781186551,0.0717106781186546,0.0717106781186546,1.,1.,     141P    268
1.,1.,-30.192929379223,-10.0070710678119,-2.65007575648882,          141P    269
-30.192929379223,-10.0070710678119,2.65007575648882,                 141P    270
-31.2070715148467,-8.99292893218814,-2.65007575648882,               141P    271
-31.2070715148467,-8.99292893218814,2.65007575648882,                141P    272
-0.397011363473322,0.133003787824441,-0.0717106781186551,            141P    273
0.0717106781186546;                                                  141P    274
128,1,6,1,2,0,0,0,0,0,-0.294627825494395,-0.294627825494395,         143P    275
0.294627825494396,0.294627825494396,-1.99741301017759,               143P    276
-1.99741301017759,-1.99741301017759,-0.665804336725864,              143P    277
-0.665804336725864,0.665804336725865,0.665804336725865,              143P    278
1.99741301017759,1.99741301017759,1.99741301017759,1.,1.,            143P    279
0.786420207308591,0.786420207308591,1.,1.,0.786420207308591,         143P    280
0.786420207308591,1.,1.,0.786420207308591,0.786420207308591,1.,      143P    281
1.,-30.7862073435866,-10.,-1.72970480597543,-31.2000004470348,       143P    282
-9.,-2.64007575648882,-29.4276148226865,-10.,-2.3472291406742,       143P    283
-29.1263592309242,-9.,-3.58261289892378,-28.5058020531485,-10.,      143P    284
-1.1736145703371,-27.7193818458399,-9.,-1.79130644946189,            143P    285
-27.5839892836105,-10.,0.,-26.3124044607557,-9.,0.,                  143P    286
-28.5058020531485,-10.,1.1736145703371,-27.7193818458399,-9.,        143P    287
1.79130644946189,-29.4276148226865,-10.,2.3472291406742,             143P    288
-29.1263592309242,-9.,3.58261289892378,-30.7862073435866,-10.,       143P    289
1.72970480597543,-31.2000004470348,-9.,2.64007575648882,             143P    290
-0.294627825494395,0.294627825494396,-1.99741301017759,              143P    291
1.99741301017759;                                                    143P    292
128,1,1,1,1,0,0,1,0,0,-0.001,-0.001,0.529015151297763,               145P    293
0.529015151297763,-0.001,-0.001,0.901,0.901,1.,1.,1.,1.,             145P    294
-31.2000004470348,0.01,2.65007575648882,-31.2000004470348,0.01,      145P    295
-2.65007575648882,-31.2000004470348,-9.01,2.65007575648882,          145P    296
-31.2000004470348,-9.01,-2.65007575648882,-0.001,                    145P    297
0.529015151297763,-0.001,0.901;                                      145P    298
128,1,1,1,1,0,0,1,0,0,-0.106,-0.106,0.140078384234045,               147P    299
0.140078384234045,-0.202448672581084,-0.202448672581084,             147P    300
0.202448672581084,0.202448672581084,1.,1.,1.,1.,                     147P    301
-27.7492166046944,-10.,2.02448672581084,-30.2100004470348,-10.,      147P    302
2.02448672581084,-27.7492166046944,-10.,-2.02448672581084,           147P    303
-30.2100004470348,-10.,-2.02448672581084,-0.106,                     147P    304
0.140078384234045,-0.202448672581084,0.202448672581084;              147P    305
128,1,8,1,2,0,1,0,0,1,-0.471404520791032,-0.471404520791032,         149P    306
0.471404520791032,0.471404520791032,-3.14159265358979,               149P    307
-3.14159265358979,-3.14159265358979,-1.5707963267949,                149P    308
-1.5707963267949,0.,0.,1.5707963267949,1.5707963267949,              149P    309
3.14159265358979,3.14159265358979,3.14159265358979,1.,1.,            149P    310
0.707106781186548,0.707106781186548,1.,1.,0.707106781186548,         149P    311
0.707106781186548,1.,1.,0.707106781186548,0.707106781186548,1.,      149P    312
1.,0.707106781186548,0.707106781186548,1.,1.,-33.0000004470348,      149P    313
4.,0.,-36.0000004470348,1.,0.,-33.0000004470348,4.,3.,               149P    314
-36.0000004470348,1.,6.,-30.0000004470348,4.,3.,                     149P    315
-30.0000004470348,1.,6.00000000000001,-27.0000004470348,4.,3.,       149P    316
-24.0000004470348,1.,6.,-27.0000004470348,4.,0.,                     149P    317
-24.0000004470348,1.,0.,-27.0000004470348,4.,-3.,                    149P    318
-24.0000004470348,1.,-6.,-30.0000004470348,4.,-3.,                   149P    319
-30.0000004470348,1.,-6.00000000000001,-33.0000004470348,4.,-3.,     149P    320
-36.0000004470348,1.,-6.,-33.0000004470348,4.,0.,                    149P    321
-36.0000004470348,1.,0.,-0.471404520791032,0.471404520791032,        149P    322
-3.14159265358979,3.14159265358979;                                  149P    323
128,1,8,1,2,0,1,0,0,1,0.,0.,0.166666666666667,0.166666666666667,     151P    324
-3.14159265358979,-3.14159265358979,-3.14159265358979,               151P    325
-1.5707963267949,-1.5707963267949,0.,0.,1.5707963267949,             151P    326
1.5707963267949,3.14159265358979,3.14159265358979,                   151P    327
3.14159265358979,1.,1.,0.707106781186548,0.707106781186548,1.,       151P    328
1.,0.707106781186548,0.707106781186548,1.,1.,0.707106781186548,      151P    329
0.707106781186548,1.,1.,0.707106781186548,0.707106781186548,1.,      151P    330
1.,-36.0000004470348,1.,0.,-36.0000004470348,0.,0.,                  151P    331
-36.0000004470348,1.,6.,-36.0000004470348,0.,6.,                     151P    332
-30.0000004470348,1.,6.,-30.0000004470348,0.,6.,                     151P    333
-24.0000004470348,1.,6.,-24.0000004470348,0.,6.,                     151P    334
-24.0000004470348,1.,0.,-24.0000004470348,0.,0.,                     151P    335
-24.0000004470348,1.,-6.,-24.0000004470348,0.,-6.,                   151P    336
-30.0000004470348,1.,-6.,-30.0000004470348,0.,-6.,                   151P    337
-36.0000004470348,1.,-6.,-36.0000004470348,0.,-6.,                   151P    338
-36.0000004470348,1.,0.,-36.0000004470348,0.,0.,0.,                  151P    339
0.166666666666667,-3.14159265358979,3.14159265358979;                151P    340
128,1,1,1,1,0,0,1,0,0,-0.301,-0.301,0.301,0.301,-0.301,-0.301,       153P    341
0.301,0.301,1.,1.,1.,1.,-33.0100004470348,4.,3.01,                   153P    342
-26.9900004470348,4.,3.01,-33.0100004470348,4.,-3.01,                153P    343
-26.9900004470348,4.,-3.01,-0.301,0.301,-0.301,0.301;                153P    344
128,1,6,1,2,0,0,0,0,0,0.,0.,3.10344827586207,3.10344827586207,       155P    345
-1.99741301017759,-1.99741301017759,-1.99741301017759,               155P    346
-0.665804336725864,-0.665804336725864,0.665804336725865,             155P    347
0.665804336725865,1.99741301017759,1.99741301017759,                 155P    348
1.99741301017759,1.,1.,0.786420207308591,0.786420207308591,1.,       155P    349
1.,0.786420207308591,0.786420207308591,1.,1.,0.786420207308591,      155P    350
0.786420207308591,1.,1.,-31.2000004470348,-9.,-2.64007575648882,     155P    351
-31.2000004470348,0.,-2.64007575648882,-29.1263592309242,-9.,        155P    352
-3.58261289892378,-29.1263592309242,0.,-3.58261289892378,            155P    353
-27.7193818458399,-9.,-1.79130644946189,-27.7193818458399,0.,        155P    354
-1.79130644946189,-26.3124044607557,-9.,0.,-26.3124044607557,0.,     155P    355
0.,-27.7193818458399,-9.,1.79130644946189,-27.7193818458399,0.,      155P    356
1.79130644946189,-29.1263592309242,-9.,3.58261289892378,             155P    357
-29.1263592309242,0.,3.58261289892378,-31.2000004470348,-9.,         155P    358
2.64007575648882,-31.2000004470348,0.,2.64007575648882,0.,           155P    359
3.10344827586207,-1.99741301017759,1.99741301017759;                 155P    360
128,1,1,1,1,0,0,1,0,0,-0.601,-0.601,0.601,0.601,-0.601,-0.601,       157P    361
0.601,0.601,1.,1.,1.,1.,-23.9900004470348,0.,6.01,                   157P    362
-36.0100004470348,0.,6.01,-23.9900004470348,0.,-6.01,                157P    363
-36.0100004470348,0.,-6.01,-0.601,0.601,-0.601,0.601;                157P    364
502,6,-1.9,-10.,2.32682891837997D-16,-2.9,-9.,                       159P    365
-3.55147571752732D-16,-2.9,0.,3.55147571752732D-16,-3.,4.,           159P    366
-3.67394039744206D-16,-6.,1.,7.34788079488412D-16,-6.,0.,            159P    367
7.34788079488412D-16;                                                159P    368
502,9,-30.2000004470348,-10.,-1.88944436276912,                      161P    369
-30.2000004470348,-10.,1.88944436276912,-31.2000004470348,-9.,       161P    370
2.64007575648882,-31.2000004470348,-9.,-2.64007575648882,            161P    371
-31.2000004470348,0.,2.64007575648882,-31.2000004470348,0.,          161P    372
-2.64007575648882,-33.0000004470348,4.,-3.67394039744206D-16,        161P    373
-36.0000004470348,1.,7.34788079488412D-16,-36.0000004470348,0.,      161P    374
7.34788079488412D-16;                                                161P    375
504,10,77,159,1,159,1,79,159,1,159,2,81,159,2,159,2,83,159,2,        163P    376
159,3,85,159,3,159,3,87,159,4,159,4,89,159,4,159,5,91,159,5,159,     163P    377
5,93,159,5,159,6,95,159,6,159,6;                                     163P    378
504,15,97,161,1,161,2,99,161,2,161,3,101,161,3,161,4,103,161,1,      165P    379
161,4,105,161,4,161,3,107,161,2,161,1,109,161,5,161,3,111,161,6,     165P    380
161,5,113,161,6,161,4,115,161,7,161,7,117,161,7,161,8,119,161,8,     165P    381
161,8,121,161,8,161,9,123,161,9,161,9,125,161,5,161,6;               165P    382
406,1,5HBody1;                                                       167P    383
406,1,5HBody2;                                                       169P    384
314,62.7450980392157,62.7450980392157,62.7450980392157,13HSteel      171P    385
- Satin;                                                             171P    386
S      1G      3D    172P    386                                        T      1
