0
SECTION
2
HEADER
9
$INSUNITS
70
4
9
$ACADVER
1
AC1014
9
$HANDSEED
5
FFFF
0
ENDSEC
0
SECTION
2
TABLES
0
TABLE
2
VPORT
5
8
100
AcDbSymbolTable
0
ENDTAB
0
TABLE
2
LTYPE
5
5
100
AcDbSymbolTable
0
LTYPE
5
14
100
AcDbSymbolTableRecord
100
AcDbLinetypeTableRecord
2
BYBLOCK
70
0
0
LTYPE
5
15
100
AcDbSymbolTableRecord
100
AcDbLinetypeTableRecord
2
BYLAYER
70
0
0
LTYPE
5
16
100
AcDbSymbolTableRecord
100
AcDbLinetypeTableRecord
2
DASHED
70
0
3
Dashed __ __ __ __ __ __ __ __ __ __ __ __ __ _
72
65
73
2
40
0.75
49
0.5
74
0
49
-0.25
74
0
0
ENDTAB
0
TABLE
2
LAYER
5
2
100
AcDbSymbolTable
70
2
0
LAYER
5
50
100
AcDbSymbolTableRecord
100
AcDbLayerTableRecord
2
0
70
0
62
7
6
CONTINUOUS
0
ENDTAB
0
TABLE
2
STYLE
5
3
100
AcDbSymbolTable
70
1
0
STYLE
5
11
100
AcDbSymbolTableRecord
100
AcDbTextStyleTableRecord
2
STANDARD
70
0
0
ENDTAB
0
TABLE
2
VIEW
5
6
100
AcDbSymbolTable
70
0
0
ENDTAB
0
TABLE
2
UCS
5
7
100
AcDbSymbolTable
70
0
0
ENDTAB
0
TABLE
2
APPID
5
9
100
AcDbSymbolTable
70
2
0
APPID
5
12
100
AcDbSymbolTableRecord
100
AcDbRegAppTableRecord
2
ACAD
70
0
0
ENDTAB
0
TABLE
2
DIMSTYLE
5
A
100
AcDbSymbolTable
70
1
0
ENDTAB
0
TABLE
2
BLOCK_RECORD
5
1
100
AcDbSymbolTable
70
1
0
BLOCK_RECORD
5
1F
100
AcDbSymbolTableRecord
100
AcDbBlockTableRecord
2
*MODEL_SPACE
0
BLOCK_RECORD
5
1B
100
AcDbSymbolTableRecord
100
AcDbBlockTableRecord
2
*PAPER_SPACE
0
ENDTAB
0
ENDSEC
0
SECTION
2
BLOCKS
0
BLOCK
5
20
100
AcDbEntity
100
AcDbBlockBegin
2
*MODEL_SPACE
0
ENDBLK
5
21
100
AcDbEntity
100
AcDbBlockEnd
0
BLOCK
5
1C
100
AcDbEntity
100
AcDbBlockBegin
2
*PAPER_SPACE
0
ENDBLK
5
1D
100
AcDbEntity
100
AcDbBlockEnd
0
ENDSEC
0
SECTION
2
ENTITIES
0
LWPOLYLINE
5
100
100
AcDbEntity
8
0
100
AcDbPolyline
90
4
70
1
43
0.0
10
-49
20
0
10
0
20
0
10
0
20
70
10
-49
20
70
0
LWPOLYLINE
5
101
100
AcDbEntity
8
0
100
AcDbPolyline
90
12
70
1
43
0.0
10
-43.895310384325718
20
12.233637123267563
10
-43.928177645456508
20
20.233569726139564
10
-42.869523599292343
20
20.237919145157271
10
-42.853224485079949
20
16.270694292840894
10
-38.896842732851525
20
20.254240675098394
10
-37.461656061397491
20
20.260137056664593
10
-40.804381853769513
20
17.004902271579823
10
-37.281450938135208
20
12.260809782891274
10
-38.678437315148393
20
12.255070345028951
10
-41.5436166428929
20
16.292445890937486
10
-42.84804553875945
20
15.010132259606689
10
-42.836656338161553
20
12.237986542285268
0
LINE
5
102
100
AcDbEntity
8
0
100
AcDbLine
10
-32.56337309746413
20
14.146511974364437
30
0
11
-31.547859708335618
21
14.025171804574207
31
0
0
SPLINE
5
103
100
AcDbEntity
8
0
100
AcDbSpline
70
0
71
2
72
6
73
3
74
0
42
0.000000001
43
0.0000000001
44
0.0000000001
40
0
40
0
40
0
40
1
40
1
40
1
10
-31.547859708335618
20
14.025171804574207
30
0
10
-31.784312240690582
20
13.134697830860468
30
0
10
-32.431674438988985
20
12.640901299473652
30
0
0
SPLINE
5
104
100
AcDbEntity
8
0
100
AcDbSpline
70
0
71
2
72
6
73
3
74
0
42
0.000000001
43
0.0000000001
44
0.0000000001
40
0
40
0
40
0
40
1
40
1
40
1
10
-32.431674438988985
20
12.640901299473652
30
0
10
-33.079037834267822
20
12.147105955272067
30
0
10
-34.088579408731846
20
12.142958312008393
30
0
0
SPLINE
5
105
100
AcDbEntity
8
0
100
AcDbSpline
70
0
71
2
72
6
73
3
74
0
42
0.000000001
43
0.0000000001
44
0.0000000001
40
0
40
0
40
0
40
1
40
1
40
1
10
-34.088579408731846
20
12.142958312008393
30
0
10
-35.36005555635996
20
12.137734525676031
30
0
10
-36.10815050749698
20
12.917750472510507
30
0
0
SPLINE
5
106
100
AcDbEntity
8
0
100
AcDbSpline
70
0
71
2
72
6
73
3
74
0
42
0.000000001
43
0.0000000001
44
0.0000000001
40
0
40
0
40
0
40
1
40
1
40
1
10
-36.10815050749698
20
12.917750472510507
30
0
10
-36.856245458634
20
13.697766419344983
30
0
10
-36.862052157730389
20
15.111124265969774
30
0
0
SPLINE
5
107
100
AcDbEntity
8
0
100
AcDbSpline
70
0
71
2
72
6
73
3
74
0
42
0.000000001
43
0.0000000001
44
0.0000000001
40
0
40
0
40
0
40
1
40
1
40
1
10
-36.862052157730389
20
15.111124265969774
30
0
10
-36.86806063319289
20
16.573594733305072
30
0
10
-36.118315582877315
20
17.384321790194186
30
0
0
SPLINE
5
108
100
AcDbEntity
8
0
100
AcDbSpline
70
0
71
2
72
6
73
3
74
0
42
0.000000001
43
0.0000000001
44
0.0000000001
40
0
40
0
40
0
40
1
40
1
40
1
10
-36.118315582877315
20
17.384321790194186
30
0
10
-35.368570532561741
20
18.195048847083296
30
0
10
-34.168035234431969
20
18.199981177031905
30
0
0
SPLINE
5
109
100
AcDbEntity
8
0
100
AcDbSpline
70
0
71
2
72
6
73
3
74
0
42
0.000000001
43
0.0000000001
44
0.0000000001
40
0
40
0
40
0
40
1
40
1
40
1
10
-34.168035234431969
20
18.199981177031905
30
0
10
-33.00569844261878
20
18.204756570623047
30
0
10
-32.265754700382267
20
17.416520964016506
30
0
0
SPLINE
5
110
100
AcDbEntity
8
0
100
AcDbSpline
70
0
71
2
72
6
73
3
74
0
42
0.000000001
43
0.0000000001
44
0.0000000001
40
0
40
0
40
0
40
1
40
1
40
1
10
-32.265754700382267
20
17.416520964016506
30
0
10
-31.525812150228592
20
16.628285352512357
30
0
10
-31.519915773563536
20
15.193099873141144
30
0
0
SPLINE
5
111
100
AcDbEntity
8
0
100
AcDbSpline
70
0
71
2
72
6
73
3
74
0
42
0.000000001
43
0.0000000001
44
0.0000000001
40
0
40
0
40
0
40
1
40
1
40
1
10
-31.519915773563536
20
15.193099873141144
30
0
10
-31.519557058391253
20
15.105788150072641
30
0
10
-31.52429698326436
20
14.931142282706853
30
0
0
LINE
5
112
100
AcDbEntity
8
0
100
AcDbLine
10
-31.524296983264364
20
14.931142282706853
30
0
11
-35.846224294948115
21
14.913385893912343
31
0
0
SPLINE
5
113
100
AcDbEntity
8
0
100
AcDbSpline
70
0
71
2
72
6
73
3
74
0
42
0.000000001
43
0.0000000001
44
0.0000000001
40
0
40
0
40
0
40
1
40
1
40
1
10
-35.846224294948115
20
14.913385893912343
30
0
10
-35.787730873353631
20
13.958638492971488
30
0
10
-35.299974607504446
20
13.453134976400762
30
0
0
SPLINE
5
114
100
AcDbEntity
8
0
100
AcDbSpline
70
0
71
2
72
6
73
3
74
0
42
0.000000001
43
0.0000000001
44
0.0000000001
40
0
40
0
40
0
40
1
40
1
40
1
10
-35.299974607504446
20
13.453134976400762
30
0
10
-34.812218341655253
20
12.947631459830033
30
0
10
-34.086440165184577
20
12.9506132775587
30
0
0
SPLINE
5
115
100
AcDbEntity
8
0
100
AcDbSpline
70
0
71
2
72
6
73
3
74
0
42
0.000000001
43
0.0000000001
44
0.0000000001
40
0
40
0
40
0
40
1
40
1
40
1
10
-34.086440165184577
20
12.9506132775587
30
0
10
-33.546198953203394
20
12.952832827382414
30
0
10
-33.165376136874563
20
13.238165007601808
30
0
0
SPLINE
5
116
100
AcDbEntity
8
0
100
AcDbSpline
70
0
71
2
72
6
73
3
74
0
42
0.000000001
43
0.0000000001
44
0.0000000001
40
0
40
0
40
0
40
1
40
1
40
1
10
-33.165376136874563
20
13.238165007601808
30
0
10
-32.784553320545733
20
13.523497187821199
30
0
10
-32.56337309746413
20
14.146511974364437
30
0
0
LINE
5
117
100
AcDbEntity
8
0
100
AcDbLine
10
-35.794972433139151
20
15.721243231870297
30
0
11
-32.558983708552574
21
15.734538104686198
31
0
0
SPLINE
5
118
100
AcDbEntity
8
0
100
AcDbSpline
70
0
71
2
72
6
73
3
74
0
42
0.000000001
43
0.0000000001
44
0.0000000001
40
0
40
0
40
0
40
1
40
1
40
1
10
-32.558983708552574
20
15.734538104686195
30
0
10
-32.627471441788892
20
16.465504601219582
30
0
10
-32.934563993516257
20
16.829866270367411
30
0
0
SPLINE
5
119
100
AcDbEntity
8
0
100
AcDbSpline
70
0
71
2
72
6
73
3
74
0
42
0.000000001
43
0.0000000001
44
0.0000000001
40
0
40
0
40
0
40
1
40
1
40
1
10
-32.934563993516257
20
16.829866270367411
30
0
10
-33.406197196701754
20
17.395464371975116
30
0
10
-34.153802409877436
20
17.392392879126529
30
0
0
SPLINE
5
120
100
AcDbEntity
8
0
100
AcDbSpline
70
0
71
2
72
6
73
3
74
0
42
0.000000001
43
0.0000000001
44
0.0000000001
40
0
40
0
40
0
40
1
40
1
40
1
10
-34.153802409877436
20
17.392392879126529
30
0
10
-34.830467965637617
20
17.389612837764091
30
0
10
-35.289722059134078
20
16.934789480847236
30
0
0
SPLINE
5
121
100
AcDbEntity
8
0
100
AcDbSpline
70
0
71
2
72
6
73
3
74
0
42
0.000000001
43
0.0000000001
44
0.0000000001
40
0
40
0
40
0
40
1
40
1
40
1
10
-35.289722059134078
20
16.934789480847236
30
0
10
-35.748976150181733
20
16.479965527888965
30
0
10
-35.794972433139151
20
15.721243231870297
30
0
0
LINE
5
122
100
AcDbEntity
8
0
100
AcDbLine
10
-28.166446975487112
20
13.17684706990792
30
0
11
-28.021000543547604
21
12.309769511166646
31
0
0
SPLINE
5
123
100
AcDbEntity
8
0
100
AcDbSpline
70
0
71
2
72
6
73
3
74
0
42
0.000000001
43
0.0000000001
44
0.0000000001
40
0
40
0
40
0
40
1
40
1
40
1
10
-28.021000543547601
20
12.309769511166646
30
0
10
-28.435372214929995
20
12.220753892253191
30
0
10
-28.762790878416169
20
12.219408711580735
30
0
0
SPLINE
5
124
100
AcDbEntity
8
0
100
AcDbSpline
70
0
71
2
72
6
73
3
74
0
42
0.000000001
43
0.0000000001
44
0.0000000001
40
0
40
0
40
0
40
1
40
1
40
1
10
-28.762790878416169
20
12.219408711580735
30
0
10
-29.297575927262514
20
12.217211578088198
30
0
10
-29.592946665538918
20
12.385168202893002
30
0
0
SPLINE
5
125
100
AcDbEntity
8
0
100
AcDbSpline
70
0
71
2
72
6
73
3
74
0
42
0.000000001
43
0.0000000001
44
0.0000000001
40
0
40
0
40
0
40
1
40
1
40
1
10
-29.592946665538918
20
12.385168202893002
30
0
10
-29.888318591000548
20
12.553123630717371
30
0
10
-30.009504254900541
20
12.828207763134232
30
0
0
SPLINE
5
126
100
AcDbEntity
8
0
100
AcDbSpline
70
0
71
2
72
6
73
3
74
0
42
0.000000001
43
0.0000000001
44
0.0000000001
40
0
40
0
40
0
40
1
40
1
40
1
10
-30.009504254900541
20
12.828207763134232
30
0
10
-30.130691110883376
20
13.103291890653491
30
0
10
-30.134323100166114
20
13.987322639691017
30
0
0
LINE
5
127
100
AcDbEntity
8
0
100
AcDbLine
10
-30.134323100166114
20
13.987322639691017
30
0
11
-30.14802152815507
21
17.321537201740039
31
0
0
LINE
5
128
100
AcDbEntity
8
0
100
AcDbLine
10
-30.14802152815507
20
17.321537201740039
30
0
11
-30.868342349408088
21
17.318577805240153
31
0
0
LINE
5
129
100
AcDbEntity
8
0
100
AcDbLine
10
-30.868342349408088
20
17.318577805240153
30
0
11
-30.87148110594114
21
18.082555084068844
31
0
0
LINE
5
130
100
AcDbEntity
8
0
100
AcDbLine
10
-30.87148110594114
20
18.082555084068844
30
0
11
-30.151160284688132
21
18.08551448056873
31
0
0
LINE
5
131
100
AcDbEntity
8
0
100
AcDbLine
10
-30.151160284688132
20
18.08551448056873
30
0
11
-30.157056663801988
21
19.520700555981357
31
0
0
LINE
5
132
100
AcDbEntity
8
0
100
AcDbLine
10
-30.157056663801988
20
19.520700555981357
30
0
11
-29.182678162666793
21
20.114067514359235
31
0
0
LINE
5
133
100
AcDbEntity
8
0
100
AcDbLine
10
-29.182678162666793
20
20.114067514359235
30
0
11
-29.17436045736444
21
18.089527606254922
31
0
0
LINE
5
134
100
AcDbEntity
8
0
100
AcDbLine
10
-29.17436045736444
20
18.089527606254922
30
0
11
-28.186647111688249
21
18.093585569501073
31
0
0
LINE
5
135
100
AcDbEntity
8
0
100
AcDbLine
10
-28.186647111688249
20
18.093585569501073
30
0
11
-28.183508355155201
21
17.329608290672383
31
0
0
LINE
5
136
100
AcDbEntity
8
0
100
AcDbLine
10
-28.183508355155201
20
17.329608290672383
30
0
11
-29.171221700831381
21
17.325550327426232
31
0
0
LINE
5
137
100
AcDbEntity
8
0
100
AcDbLine
10
-29.171221700831381
20
17.325550327426232
30
0
11
-29.15729907524755
21
13.936765789449039
31
0
0
SPLINE
5
138
100
AcDbEntity
8
0
100
AcDbSpline
70
0
71
2
72
6
73
3
74
0
42
0.000000001
43
0.0000000001
44
0.0000000001
40
0
40
0
40
0
40
1
40
1
40
1
10
-29.15729907524755
20
13.936765789449039
30
0
10
-29.155572760623652
20
13.516578643718109
30
0
10
-29.103238229554634
20
13.396738160489894
30
0
0
SPLINE
5
139
100
AcDbEntity
8
0
100
AcDbSpline
70
0
71
2
72
6
73
3
74
0
42
0.000000001
43
0.0000000001
44
0.0000000001
40
0
40
0
40
0
40
1
40
1
40
1
10
-29.103238229554634
20
13.396738160489894
30
0
10
-29.050903698485612
20
13.276897677261674
30
0
10
-28.933287449502032
20
13.20643884989893
30
0
0
SPLINE
5
140
100
AcDbEntity
8
0
100
AcDbSpline
70
0
71
2
72
6
73
3
74
0
42
0.000000001
43
0.0000000001
44
0.0000000001
40
0
40
0
40
0
40
1
40
1
40
1
10
-28.933287449502032
20
13.20643884989893
30
0
10
-28.815671200518452
20
13.135980022536183
30
0
10
-28.597391296805782
20
13.136876812916221
30
0
0
SPLINE
5
141
100
AcDbEntity
8
0
100
AcDbSpline
70
0
71
2
72
6
73
3
74
0
42
0.000000001
43
0.0000000001
44
0.0000000001
40
0
40
0
40
0
40
1
40
1
40
1
10
-28.597391296805782
20
13.136876812916221
30
0
10
-28.43368256110411
20
13.13754940080365
30
0
10
-28.166446975487112
20
13.17684706990792
30
0
0
LINE
5
142
100
AcDbEntity
8
0
100
AcDbLine
10
-23.429442417479969
20
14.440520940337805
30
0
11
-22.46304164906196
21
14.318978994181343
31
0
0
SPLINE
5
143
100
AcDbEntity
8
0
100
AcDbSpline
70
0
71
2
72
6
73
3
74
0
42
0.000000001
43
0.0000000001
44
0.0000000001
40
0
40
0
40
0
40
1
40
1
40
1
10
-22.463041649061964
20
14.318978994181343
30
0
10
-22.617192610459178
20
13.31970135765738
30
0
10
-23.266979629734415
20
12.752224689488028
30
0
0
SPLINE
5
144
100
AcDbEntity
8
0
100
AcDbSpline
70
0
71
2
72
6
73
3
74
0
42
0.000000001
43
0.0000000001
44
0.0000000001
40
0
40
0
40
0
40
1
40
1
40
1
10
-23.266979629734415
20
12.752224689488028
30
0
10
-23.916769035624128
20
12.184748607564881
30
0
10
-24.866283278942312
20
12.180847583124999
30
0
0
SPLINE
5
145
100
AcDbEntity
8
0
100
AcDbSpline
70
0
71
2
72
6
73
3
74
0
42
0.000000001
43
0.0000000001
44
0.0000000001
40
0
40
0
40
0
40
1
40
1
40
1
10
-24.866283278942312
20
12.180847583124999
30
0
10
-26.055904462678178
20
12.175960093185152
30
0
10
-26.782149955881426
20
12.950608359921883
30
0
0
SPLINE
5
146
100
AcDbEntity
8
0
100
AcDbSpline
70
0
71
2
72
6
73
3
74
0
42
0.000000001
43
0.0000000001
44
0.0000000001
40
0
40
0
40
0
40
1
40
1
40
1
10
-26.782149955881426
20
12.950608359921883
30
0
10
-27.508394261899447
20
13.725257823639048
30
0
10
-27.514357897353211
20
15.176814176580427
30
0
0
SPLINE
5
147
100
AcDbEntity
8
0
100
AcDbSpline
70
0
71
2
72
6
73
3
74
0
42
0.000000001
43
0.0000000001
44
0.0000000001
40
0
40
0
40
0
40
1
40
1
40
1
10
-27.514357897353211
20
15.176814176580427
30
0
10
-27.518214084230827
20
16.115414901546124
30
0
10
-27.210058432024226
20
16.820642771112691
30
0
0
SPLINE
5
148
100
AcDbEntity
8
0
100
AcDbSpline
70
0
71
2
72
6
73
3
74
0
42
0.000000001
43
0.0000000001
44
0.0000000001
40
0
40
0
40
0
40
1
40
1
40
1
10
-27.210058432024226
20
16.820642771112691
30
0
10
-26.901902782266429
20
17.525871236720679
30
0
10
-26.267611075327792
20
17.880458102503884
30
0
0
SPLINE
5
149
100
AcDbEntity
8
0
100
AcDbSpline
70
0
71
2
72
6
73
3
74
0
42
0.000000001
43
0.0000000001
44
0.0000000001
40
0
40
0
40
0
40
1
40
1
40
1
10
-26.267611075327792
20
17.880458102503884
30
0
10
-25.633318178755111
20
18.235045569226113
30
0
10
-24.88571296557943
20
18.2381170620747
30
0
0
SPLINE
5
150
100
AcDbEntity
8
0
100
AcDbSpline
70
0
71
2
72
6
73
3
74
0
42
0.000000001
43
0.0000000001
44
0.0000000001
40
0
40
0
40
0
40
1
40
1
40
1
10
-24.88571296557943
20
18.2381170620747
30
0
10
-23.94165488539608
20
18.241995670183407
30
0
10
-23.339424619435903
20
17.76697603956298
30
0
0
SPLINE
5
151
100
AcDbEntity
8
0
100
AcDbSpline
70
0
71
2
72
6
73
3
74
0
42
0.000000001
43
0.0000000001
44
0.0000000001
40
0
40
0
40
0
40
1
40
1
40
1
10
-23.339424619435903
20
17.76697603956298
30
0
10
-22.737196737641405
20
17.291956399147349
30
0
10
-22.564421078668097
20
16.414078014443696
30
0
0
LINE
5
152
100
AcDbEntity
8
0
100
AcDbLine
10
-22.564421078668101
20
16.414078014443692
30
0
11
-23.518786151125187
21
16.262815519458293
31
0
0
SPLINE
5
153
100
AcDbEntity
8
0
100
AcDbSpline
70
0
71
2
72
6
73
3
74
0
42
0.000000001
43
0.0000000001
44
0.0000000001
40
0
40
0
40
0
40
1
40
1
40
1
10
-23.518786151125191
20
16.262815519458297
30
0
10
-23.657609402312723
20
16.84615210143501
30
0
10
-24.005339472154972
20
17.139405362807658
30
0
0
SPLINE
5
154
100
AcDbEntity
8
0
100
AcDbSpline
70
0
71
2
72
6
73
3
74
0
42
0.000000001
43
0.0000000001
44
0.0000000001
40
0
40
0
40
0
40
1
40
1
40
1
10
-24.005339472154972
20
17.139405362807658
30
0
10
-24.353067157831561
20
17.43265863397551
30
0
10
-24.844195749102237
20
17.430640860518025
30
0
0
SPLINE
5
155
100
AcDbEntity
8
0
100
AcDbSpline
70
0
71
2
72
6
73
3
74
0
42
0.000000001
43
0.0000000001
44
0.0000000001
40
0
40
0
40
0
40
1
40
1
40
1
10
-24.844195749102237
20
17.430640860518025
30
0
10
-25.586344799143088
20
17.427591784000615
30
0
10
-26.048001885980231
20
16.893630336593336
30
0
0
SPLINE
5
156
100
AcDbEntity
8
0
100
AcDbSpline
70
0
71
2
72
6
73
3
74
0
42
0.000000001
43
0.0000000001
44
0.0000000001
40
0
40
0
40
0
40
1
40
1
40
1
10
-26.048001885980231
20
16.893630336593336
30
0
10
-26.509658975266174
20
16.359669485227471
30
0
10
-26.504928421686628
20
15.208246807808186
30
0
0
SPLINE
5
157
100
AcDbEntity
8
0
100
AcDbSpline
70
0
71
2
72
6
73
3
74
0
42
0.000000001
43
0.0000000001
44
0.0000000001
40
0
40
0
40
0
40
1
40
1
40
1
10
-26.504928421686628
20
15.208246807808186
30
0
10
-26.500130609318376
20
14.040453256818735
30
0
10
-26.050483765809716
20
13.512964572653905
30
0
0
SPLINE
5
158
100
AcDbEntity
8
0
100
AcDbSpline
70
0
71
2
72
6
73
3
74
0
42
0.000000001
43
0.0000000001
44
0.0000000001
40
0
40
0
40
0
40
1
40
1
40
1
10
-26.050483765809716
20
13.512964572653905
30
0
10
-25.600836922301056
20
12.985475888489075
30
0
10
-24.880514908965207
20
12.988435289886562
30
0
0
SPLINE
5
159
100
AcDbEntity
8
0
100
AcDbSpline
70
0
71
2
72
6
73
3
74
0
42
0.000000001
43
0.0000000001
44
0.0000000001
40
0
40
0
40
0
40
1
40
1
40
1
10
-24.880514908965207
20
12.988435289886562
30
0
10
-24.302075786708862
20
12.990811773618942
30
0
10
-23.916087071545942
20
13.347107224565452
30
0
0
SPLINE
5
160
100
AcDbEntity
8
0
100
AcDbSpline
70
0
71
2
72
6
73
3
74
0
42
0.000000001
43
0.0000000001
44
0.0000000001
40
0
40
0
40
0
40
1
40
1
40
1
10
-23.916087071545942
20
13.347107224565452
30
0
10
-23.530098356383021
20
13.70340267551196
30
0
10
-23.429442417479969
20
14.440520940337805
30
0
0
LINE
5
161
100
AcDbEntity
8
0
100
AcDbLine
10
-21.614460559012365
20
12.325176708188582
30
0
11
-21.647327820143154
21
20.325109311060583
31
0
0
LINE
5
162
100
AcDbEntity
8
0
100
AcDbLine
10
-21.647327820143154
20
20.325109311060583
30
0
11
-20.665070637601801
21
20.329144857975553
31
0
0
LINE
5
163
100
AcDbEntity
8
0
100
AcDbLine
10
-20.665070637601801
20
20.329144857975553
30
0
11
-20.653277881822881
21
17.458773303191716
31
0
0
SPLINE
5
164
100
AcDbEntity
8
0
100
AcDbSpline
70
0
71
2
72
6
73
3
74
0
42
0.000000001
43
0.0000000001
44
0.0000000001
40
0
40
0
40
0
40
1
40
1
40
1
10
-20.653277881822881
20
17.458773303191716
30
0
10
-19.96897208182066
20
18.258317208083142
30
0
10
-18.921231404998636
20
18.262621790153084
30
0
0
SPLINE
5
165
100
AcDbEntity
8
0
100
AcDbSpline
70
0
71
2
72
6
73
3
74
0
42
0.000000001
43
0.0000000001
44
0.0000000001
40
0
40
0
40
0
40
1
40
1
40
1
10
-18.921231404998636
20
18.262621790153084
30
0
10
-18.277308788461625
20
18.265267309040432
30
0
10
-17.801509746721457
20
18.01346808639115
30
0
0
SPLINE
5
166
100
AcDbEntity
8
0
100
AcDbSpline
70
0
71
2
72
6
73
3
74
0
42
0.000000001
43
0.0000000001
44
0.0000000001
40
0
40
0
40
0
40
1
40
1
40
1
10
-17.801509746721457
20
18.01346808639115
30
0
10
-17.325708323264422
20
17.761669469578489
30
0
10
-17.119234583808613
20
17.315037472252541
30
0
0
SPLINE
5
167
100
AcDbEntity
8
0
100
AcDbSpline
70
0
71
2
72
6
73
3
74
0
42
0.000000001
43
0.0000000001
44
0.0000000001
40
0
40
0
40
0
40
1
40
1
40
1
10
-17.119234583808613
20
17.315037472252541
30
0
10
-16.912758462635939
20
16.868406080763215
30
0
10
-16.909260990930605
20
16.017117078866022
30
0
0
LINE
5
168
100
AcDbEntity
8
0
100
AcDbLine
10
-16.909260990930608
20
16.017117078866022
30
0
11
-16.894172542261259
21
12.344569738936906
31
0
0
LINE
5
169
100
AcDbEntity
8
0
100
AcDbLine
10
-16.894172542261259
20
12.344569738936906
30
0
11
-17.876429724802616
21
12.340534192021932
31
0
0
LINE
5
170
100
AcDbEntity
8
0
100
AcDbLine
10
-17.876429724802616
20
12.340534192021932
30
0
11
-17.891518173471962
21
16.013081531951048
31
0
0
SPLINE
5
171
100
AcDbEntity
8
0
100
AcDbSpline
70
0
71
2
72
6
73
3
74
0
42
0.000000001
43
0.0000000001
44
0.0000000001
40
0
40
0
40
0
40
1
40
1
40
1
10
-17.891518173471962
20
16.013081531951048
30
0
10
-17.894544831207575
20
16.749773822815655
30
0
10
-18.21515627193325
20
17.084066374257631
30
0
0
SPLINE
5
172
100
AcDbEntity
8
0
100
AcDbSpline
70
0
71
2
72
6
73
3
74
0
42
0.000000001
43
0.0000000001
44
0.0000000001
40
0
40
0
40
0
40
1
40
1
40
1
10
-18.21515627193325
20
17.084066374257631
30
0
10
-18.535767715107724
20
17.418359521741024
30
0
10
-19.119666576747409
20
17.415960606984658
30
0
0
SPLINE
5
173
100
AcDbEntity
8
0
100
AcDbSpline
70
0
71
2
72
6
73
3
74
0
42
0.000000001
43
0.0000000001
44
0.0000000001
40
0
40
0
40
0
40
1
40
1
40
1
10
-19.119666576747409
20
17.415960606984658
30
0
10
-19.556224000007081
20
17.414167036019784
30
0
10
-19.940009707622369
20
17.18612170757919
30
0
0
SPLINE
5
174
100
AcDbEntity
8
0
100
AcDbSpline
70
0
71
2
72
6
73
3
74
0
42
0.000000001
43
0.0000000001
44
0.0000000001
40
0
40
0
40
0
40
1
40
1
40
1
10
-19.940009707622369
20
17.18612170757919
30
0
10
-20.32379779940333
20
16.958076369343388
30
0
10
-20.485914735609704
20
16.569957786823949
30
0
0
SPLINE
5
175
100
AcDbEntity
8
0
100
AcDbSpline
70
0
71
2
72
6
73
3
74
0
42
0.000000001
43
0.0000000001
44
0.0000000001
40
0
40
0
40
0
40
1
40
1
40
1
10
-20.485914735609704
20
16.569957786823949
30
0
10
-20.648031676713682
20
16.181840396387344
30
0
10
-20.645229214124143
20
15.499717485409491
30
0
0
LINE
5
176
100
AcDbEntity
8
0
100
AcDbLine
10
-20.645229214124143
20
15.499717485409491
30
0
11
-20.632203376471008
21
12.329212255103556
31
0
0
LINE
5
177
100
AcDbEntity
8
0
100
AcDbLine
10
-20.632203376471008
20
12.329212255103556
30
0
11
-21.614460559012365
21
12.325176708188582
31
0
0
LINE
5
178
100
AcDbEntity
8
0
100
AcDbLine
10
-11.600905142637149
20
12.366316822393618
30
0
11
-11.604402614342483
21
13.217605824290811
31
0
0
SPLINE
5
179
100
AcDbEntity
8
0
100
AcDbSpline
70
0
71
2
72
6
73
3
74
0
42
0.000000001
43
0.0000000001
44
0.0000000001
40
0
40
0
40
0
40
1
40
1
40
1
10
-11.604402614342488
20
13.217605824290812
30
0
10
-12.277033820170544
20
12.232569787572238
30
0
10
-13.439369419900903
20
12.2277943988787
30
0
0
SPLINE
5
180
100
AcDbEntity
8
0
100
AcDbSpline
70
0
71
2
72
6
73
3
74
0
42
0.000000001
43
0.0000000001
44
0.0000000001
40
0
40
0
40
0
40
1
40
1
40
1
10
-13.439369419900903
20
12.2277943988787
30
0
10
-13.952325047876579
20
12.225686950301293
30
0
10
-14.397876801510021
20
12.42031022543765
30
0
0
SPLINE
5
181
100
AcDbEntity
8
0
100
AcDbSpline
70
0
71
2
72
6
73
3
74
0
42
0.000000001
43
0.0000000001
44
0.0000000001
40
0
40
0
40
0
40
1
40
1
40
1
10
-14.397876801510021
20
12.42031022543765
30
0
10
-14.843428560041065
20
12.614934692656838
30
0
10
-15.060200467770697
20
12.911454711743469
30
0
0
SPLINE
5
182
100
AcDbEntity
8
0
100
AcDbSpline
70
0
71
2
72
6
73
3
74
0
42
0.000000001
43
0.0000000001
44
0.0000000001
40
0
40
0
40
0
40
1
40
1
40
1
10
-15.060200467770697
20
12.911454711743469
30
0
10
-15.276972373051532
20
13.207974134788682
30
0
10
-15.366056445284304
20
13.638717270884849
30
0
0
SPLINE
5
183
100
AcDbEntity
8
0
100
AcDbSpline
70
0
71
2
72
6
73
3
74
0
42
0.000000001
43
0.0000000001
44
0.0000000001
40
0
40
0
40
0
40
1
40
1
40
1
10
-15.366056445284304
20
13.638717270884849
30
0
10
-15.427270826212784
20
13.927690218086834
30
0
10
-15.429849091207451
20
14.555243153136521
30
0
0
LINE
5
184
100
AcDbEntity
8
0
100
AcDbLine
10
-15.429849091207451
20
14.555243153136521
30
0
11
-15.444601243484481
21
18.145935529173386
31
0
0
LINE
5
185
100
AcDbEntity
8
0
100
AcDbLine
10
-15.444601243484481
20
18.145935529173386
30
0
11
-14.462344060943124
21
18.149971076088359
31
0
0
LINE
5
186
100
AcDbEntity
8
0
100
AcDbLine
10
-14.462344060943124
20
18.149971076088359
30
0
11
-14.449138865703848
21
14.935809984248172
31
0
0
SPLINE
5
187
100
AcDbEntity
8
0
100
AcDbSpline
70
0
71
2
72
6
73
3
74
0
42
0.000000001
43
0.0000000001
44
0.0000000001
40
0
40
0
40
0
40
1
40
1
40
1
10
-14.449138865703848
20
14.935809984248172
30
0
10
-14.44597769039083
20
14.166375946243232
30
0
10
-14.384852987031023
20
13.899230631787663
30
0
0
SPLINE
5
188
100
AcDbEntity
8
0
100
AcDbSpline
70
0
71
2
72
6
73
3
74
0
42
0.000000001
43
0.0000000001
44
0.0000000001
40
0
40
0
40
0
40
1
40
1
40
1
10
-14.384852987031023
20
13.899230631787663
30
0
10
-14.29049330133239
20
13.512165768659322
30
0
10
-13.989449841589764
20
13.292391468642005
30
0
0
SPLINE
5
189
100
AcDbEntity
8
0
100
AcDbSpline
70
0
71
2
72
6
73
3
74
0
42
0.000000001
43
0.0000000001
44
0.0000000001
40
0
40
0
40
0
40
1
40
1
40
1
10
-13.989449841589764
20
13.292391468642005
30
0
10
-13.68840876601281
20
13.072617158829484
30
0
10
-13.246393987535466
20
13.07443315102314
30
0
0
SPLINE
5
190
100
AcDbEntity
8
0
100
AcDbSpline
70
0
71
2
72
6
73
3
74
0
42
0.000000001
43
0.0000000001
44
0.0000000001
40
0
40
0
40
0
40
1
40
1
40
1
10
-13.246393987535466
20
13.07443315102314
30
0
10
-12.804379209058126
20
13.076249143216794
30
0
10
-12.417863629302364
20
13.304305091127965
30
0
0
SPLINE
5
191
100
AcDbEntity
8
0
100
AcDbSpline
70
0
71
2
72
6
73
3
74
0
42
0.000000001
43
0.0000000001
44
0.0000000001
40
0
40
0
40
0
40
1
40
1
40
1
10
-12.417863629302364
20
13.304305091127965
30
0
10
-12.031348051995412
20
13.532361635080555
30
0
10
-11.871969809480621
20
13.923197093450623
30
0
0
SPLINE
5
192
100
AcDbEntity
8
0
100
AcDbSpline
70
0
71
2
72
6
73
3
74
0
42
0.000000001
43
0.0000000001
44
0.0000000001
40
0
40
0
40
0
40
1
40
1
40
1
10
-11.871969809480621
20
13.923197093450623
30
0
10
-11.712591566965823
20
14.314032551820691
30
0
10
-11.715640645930208
20
15.056182197902965
30
0
0
LINE
5
193
100
AcDbEntity
8
0
100
AcDbLine
10
-11.715640645930209
20
15.056182197902967
30
0
11
-11.728397445979727
21
18.161203337886814
31
0
0
LINE
5
194
100
AcDbEntity
8
0
100
AcDbLine
10
-11.728397445979727
20
18.161203337886814
30
0
11
-10.746142647604042
21
18.165238875006576
31
0
0
LINE
5
195
100
AcDbEntity
8
0
100
AcDbLine
10
-10.746142647604042
20
18.165238875006576
30
0
11
-10.722332940900133
21
12.369926385552146
31
0
0
LINE
5
196
100
AcDbEntity
8
0
100
AcDbLine
10
-10.722332940900133
20
12.369926385552146
30
0
11
-11.600905142637149
21
12.366316822393618
31
0
0
LINE
5
197
100
AcDbEntity
8
0
100
AcDbLine
10
-9.1743364754261805
20
10.155257763887047
30
0
11
-9.2072709953456755
21
18.171561240329215
31
0
0
LINE
5
198
100
AcDbEntity
8
0
100
AcDbLine
10
-9.2072709953456755
20
18.171561240329215
30
0
11
-8.3123267279556572
21
18.175238067174089
31
0
0
LINE
5
199
100
AcDbEntity
8
0
100
AcDbLine
10
-8.3123267279556572
20
18.175238067174089
30
0
11
-8.3092328114313361
21
17.422174902739314
31
0
0
SPLINE
5
200
100
AcDbEntity
8
0
100
AcDbSpline
70
0
71
2
72
6
73
3
74
0
42
0.000000001
43
0.0000000001
44
0.0000000001
40
0
40
0
40
0
40
1
40
1
40
1
10
-8.3092328114313361
20
17.422174902739318
30
0
10
-7.9945436609390308
20
17.865490620370576
30
0
10
-7.5970909519679708
20
18.08813465156306
30
0
0
SPLINE
5
201
100
AcDbEntity
8
0
100
AcDbSpline
70
0
71
2
72
6
73
3
74
0
42
0.000000001
43
0.0000000001
44
0.0000000001
40
0
40
0
40
0
40
1
40
1
40
1
10
-7.5970909519679708
20
18.08813465156306
30
0
10
-7.1996406296113857
20
18.310779269001756
30
0
10
-6.6321138336247021
20
18.313110920071779
30
0
0
SPLINE
5
202
100
AcDbEntity
8
0
100
AcDbSpline
70
0
71
2
72
6
73
3
74
0
42
0.000000001
43
0.0000000001
44
0.0000000001
40
0
40
0
40
0
40
1
40
1
40
1
10
-6.6321138336247021
20
18.313110920071779
30
0
10
-5.8899659756666889
20
18.316159991691585
30
0
10
-5.3208698014134859
20
17.936503003347262
30
0
0
SPLINE
5
203
100
AcDbEntity
8
0
100
AcDbSpline
70
0
71
2
72
6
73
3
74
0
42
0.000000001
43
0.0000000001
44
0.0000000001
40
0
40
0
40
0
40
1
40
1
40
1
10
-5.3208698014134859
20
17.936503003347262
30
0
10
-4.7517736271602784
20
17.556846015002936
30
0
10
-4.4596967473510807
20
16.862269145032336
30
0
0
SPLINE
5
204
100
AcDbEntity
8
0
100
AcDbSpline
70
0
71
2
72
6
73
3
74
0
42
0.000000001
43
0.0000000001
44
0.0000000001
40
0
40
0
40
0
40
1
40
1
40
1
10
-4.4596967473510807
20
16.862269145032336
30
0
10
-4.1676198675418785
20
16.167692275061732
30
0
10
-4.1642120758540191
20
15.338231501952372
30
0
0
SPLINE
5
205
100
AcDbEntity
8
0
100
AcDbSpline
70
0
71
2
72
6
73
3
74
0
42
0.000000001
43
0.0000000001
44
0.0000000001
40
0
40
0
40
0
40
1
40
1
40
1
10
-4.1642120758540191
20
15.338231501952372
30
0
10
-4.1605576677913092
20
14.448743993738592
30
0
10
-4.4768621447327517
20
13.735296474195163
30
0
0
SPLINE
5
206
100
AcDbEntity
8
0
100
AcDbSpline
70
0
71
2
72
6
73
3
74
0
42
0.000000001
43
0.0000000001
44
0.0000000001
40
0
40
0
40
0
40
1
40
1
40
1
10
-4.4768621447327517
20
13.735296474195163
30
0
10
-4.7931713900055328
20
13.021848935061316
30
0
10
-5.4000666062240699
20
12.640089177662727
30
0
0
SPLINE
5
207
100
AcDbEntity
8
0
100
AcDbSpline
70
0
71
2
72
6
73
3
74
0
42
0.000000001
43
0.0000000001
44
0.0000000001
40
0
40
0
40
0
40
1
40
1
40
1
10
-5.4000666062240699
20
12.640089177662727
30
0
10
-6.0069618248914081
20
12.258330016305557
30
0
10
-6.678168833351088
20
12.255572401069504
30
0
0
SPLINE
5
208
100
AcDbEntity
8
0
100
AcDbSpline
70
0
71
2
72
6
73
3
74
0
42
0.000000001
43
0.0000000001
44
0.0000000001
40
0
40
0
40
0
40
1
40
1
40
1
10
-6.678168833351088
20
12.255572401069504
30
0
10
-7.1692974246217656
20
12.253554627612019
30
0
10
-7.5603228527017441
20
12.459316815676322
30
0
0
SPLINE
5
209
100
AcDbEntity
8
0
100
AcDbSpline
70
0
71
2
72
6
73
3
74
0
42
0.000000001
43
0.0000000001
44
0.0000000001
40
0
40
0
40
0
40
1
40
1
40
1
10
-7.5603228527017441
20
12.459316815676322
30
0
10
-7.9513506624985819
20
12.665078397904001
30
0
10
-8.203670272297634
20
12.980552244875359
30
0
0
LINE
5
210
100
AcDbEntity
8
0
100
AcDbLine
10
-8.203670272297634
20
12.980552244875359
30
0
11
-8.1920792928848236
21
10.15929331080202
31
0
0
LINE
5
211
100
AcDbEntity
8
0
100
AcDbLine
10
-8.1920792928848236
20
10.15929331080202
30
0
11
-9.1743364754261805
21
10.155257763887047
31
0
0
SPLINE
5
212
100
AcDbEntity
8
0
100
AcDbSpline
70
0
71
2
72
6
73
3
74
0
42
0.000000001
43
0.0000000001
44
0.0000000001
40
0
40
0
40
0
40
1
40
1
40
1
10
-8.3057447110195604
20
15.24481735605705
30
0
10
-8.3011486750174193
20
14.126136425778096
30
0
10
-7.8460220575111261
20
13.593213403665798
30
0
0
SPLINE
5
213
100
AcDbEntity
8
0
100
AcDbSpline
70
0
71
2
72
6
73
3
74
0
42
0.000000001
43
0.0000000001
44
0.0000000001
40
0
40
0
40
0
40
1
40
1
40
1
10
-7.8460220575111261
20
13.593213403665798
30
0
10
-7.3908954400048321
20
13.0602903815535
30
0
10
-6.7469704393021468
20
13.062935910236057
30
0
0
SPLINE
5
214
100
AcDbEntity
8
0
100
AcDbSpline
70
0
71
2
72
6
73
3
74
0
42
0.000000001
43
0.0000000001
44
0.0000000001
40
0
40
0
40
0
40
1
40
1
40
1
10
-6.7469704393021468
20
13.062935910236057
30
0
10
-6.0921331123298028
20
13.065626271580971
30
0
10
-5.6278370254524956
20
13.621426562349059
30
0
0
SPLINE
5
215
100
AcDbEntity
8
0
100
AcDbSpline
70
0
71
2
72
6
73
3
74
0
42
0.000000001
43
0.0000000001
44
0.0000000001
40
0
40
0
40
0
40
1
40
1
40
1
10
-5.6278370254524956
20
13.621426562349059
30
0
10
-5.1635409385751885
20
14.177226853117148
30
0
10
-5.1683163321634717
20
15.339563644930351
30
0
0
SPLINE
5
216
100
AcDbEntity
8
0
100
AcDbSpline
70
0
71
2
72
6
73
3
74
0
42
0.000000001
43
0.0000000001
44
0.0000000001
40
0
40
0
40
0
40
1
40
1
40
1
10
-5.1683163321634717
20
15.339563644930351
30
0
10
-5.1728675281568792
20
16.447330460815387
30
0
10
-5.6307912741435473
20
16.996613140985858
30
0
0
SPLINE
5
217
100
AcDbEntity
8
0
100
AcDbSpline
70
0
71
2
72
6
73
3
74
0
42
0.000000001
43
0.0000000001
44
0.0000000001
40
0
40
0
40
0
40
1
40
1
40
1
10
-5.6307912741435473
20
16.996613140985858
30
0
10
-6.0887126359645372
20
17.545895830951533
30
0
10
-6.7217229262318856
20
17.543295144726542
30
0
0
SPLINE
5
218
100
AcDbEntity
8
0
100
AcDbSpline
70
0
71
2
72
6
73
3
74
0
42
0.000000001
43
0.0000000001
44
0.0000000001
40
0
40
0
40
0
40
1
40
1
40
1
10
-6.7217229262318856
20
17.543295144726542
30
0
10
-7.3492758612815656
20
17.540716879730333
30
0
10
-7.8298071120688029
20
16.952107587930769
30
0
0
SPLINE
5
219
100
AcDbEntity
8
0
100
AcDbSpline
70
0
71
2
72
6
73
3
74
0
42
0.000000001
43
0.0000000001
44
0.0000000001
40
0
40
0
40
0
40
1
40
1
40
1
10
-7.8298071120688029
20
16.952107587930769
30
0
10
-8.310340747021705
20
16.363498286336
30
0
10
-8.3057447110195604
20
15.24481735605705
30
0
0
ENDSEC
0
SECTION
2
OBJECTS
0
DICTIONARY
5
C
100
AcDbDictionary
3
ACAD_GROUP
350
D
3
ACAD_MLINESTYLE
350
17
0
DICTIONARY
5
D
100
AcDbDictionary
0
DICTIONARY
5
1A
330
C
100
AcDbDictionary
0
DICTIONARY
5
17
100
AcDbDictionary
0
ENDSEC
0
EOF
