0
SECTION
2
HEADER
9
$INSUNITS
70
4
9
$ACADVER
1
AC1014
9
$HANDSEED
5
FFFF
0
ENDSEC
0
SECTION
2
TABLES
0
TABLE
2
VPORT
5
8
100
AcDbSymbolTable
0
ENDTAB
0
TABLE
2
LTYPE
5
5
100
AcDbSymbolTable
0
LTYPE
5
14
100
AcDbSymbolTableRecord
100
AcDbLinetypeTableRecord
2
BYBLOCK
70
0
0
LTYPE
5
15
100
AcDbSymbolTableRecord
100
AcDbLinetypeTableRecord
2
BYLAYER
70
0
0
LTYPE
5
16
100
AcDbSymbolTableRecord
100
AcDbLinetypeTableRecord
2
DASHED
70
0
3
Dashed __ __ __ __ __ __ __ __ __ __ __ __ __ _
72
65
73
2
40
0.75
49
0.5
74
0
49
-0.25
74
0
0
ENDTAB
0
TABLE
2
LAYER
5
2
100
AcDbSymbolTable
70
2
0
LAYER
5
50
100
AcDbSymbolTableRecord
100
AcDbLayerTableRecord
2
0
70
0
62
7
6
CONTINUOUS
0
ENDTAB
0
TABLE
2
STYLE
5
3
100
AcDbSymbolTable
70
1
0
STYLE
5
11
100
AcDbSymbolTableRecord
100
AcDbTextStyleTableRecord
2
STANDARD
70
0
0
ENDTAB
0
TABLE
2
VIEW
5
6
100
AcDbSymbolTable
70
0
0
ENDTAB
0
TABLE
2
UCS
5
7
100
AcDbSymbolTable
70
0
0
ENDTAB
0
TABLE
2
APPID
5
9
100
AcDbSymbolTable
70
2
0
APPID
5
12
100
AcDbSymbolTableRecord
100
AcDbRegAppTableRecord
2
ACAD
70
0
0
ENDTAB
0
TABLE
2
DIMSTYLE
5
A
100
AcDbSymbolTable
70
1
0
ENDTAB
0
TABLE
2
BLOCK_RECORD
5
1
100
AcDbSymbolTable
70
1
0
BLOCK_RECORD
5
1F
100
AcDbSymbolTableRecord
100
AcDbBlockTableRecord
2
*MODEL_SPACE
0
BLOCK_RECORD
5
1B
100
AcDbSymbolTableRecord
100
AcDbBlockTableRecord
2
*PAPER_SPACE
0
ENDTAB
0
ENDSEC
0
SECTION
2
BLOCKS
0
BLOCK
5
20
100
AcDbEntity
100
AcDbBlockBegin
2
*MODEL_SPACE
0
ENDBLK
5
21
100
AcDbEntity
100
AcDbBlockEnd
0
BLOCK
5
1C
100
AcDbEntity
100
AcDbBlockBegin
2
*PAPER_SPACE
0
ENDBLK
5
1D
100
AcDbEntity
100
AcDbBlockEnd
0
ENDSEC
0
SECTION
2
ENTITIES
0
LWPOLYLINE
5
100
100
AcDbEntity
8
0
100
AcDbPolyline
90
4
70
1
43
0.0
10
-33.022401332855225
20
-8.2602643966674805
10
-33.022401332855225
20
0.19132614135742188
10
-28.179290294647217
20
0.19132614135742188
10
-28.179290294647217
20
-8.2602643966674805
0
LWPOLYLINE
5
101
100
AcDbEntity
8
0
100
AcDbPolyline
90
3
70
1
43
0.0
10
-34.168107509613037
20
0.19132614135742188
10
-34.368135929107666
20
0.19132614135742188
10
-34.168155193328857
20
0.19437789916992188
0
LWPOLYLINE
5
102
100
AcDbEntity
8
0
100
AcDbPolyline
90
92
70
1
43
0.0
10
-15.03950834274292
20
-38.693118095397949
10
15.039503574371338
20
-38.693118095397949
10
16.204322576522827
20
-38.120079040527344
10
17.349826097488403
20
-37.509346008300781
10
18.474797010421753
20
-36.861572265625
10
19.578038454055786
20
-36.177444458007812
10
20.658373832702637
20
-35.457687377929688
10
21.714653968811035
20
-34.703073501586914
10
22.745757102966309
20
-33.914408683776855
10
23.750581741333008
20
-33.092513084411621
10
24.728062152862549
20
-32.238287925720215
10
25.677154064178467
20
-31.352624893188477
10
26.596848964691162
20
-30.43647289276123
10
27.486166954040527
20
-29.490809440612793
10
28.34416389465332
20
-28.516631126403809
10
29.169924259185791
20
-27.514991760253906
10
29.962568283081055
20
-26.486940383911133
10
30.721254348754883
20
-25.433578491210938
10
31.445174217224121
20
-24.356036186218262
10
32.133557796478271
20
-23.255438804626465
10
32.785670757293701
20
-22.132978439331055
10
33.400819301605225
20
-20.989837646484375
10
33.978350162506104
20
-19.82724666595459
10
34.517645835876465
20
-18.646426200866699
10
35.018136501312256
20
-17.448644638061523
10
35.479285717010498
20
-16.235170364379883
10
35.479285717010498
20
14.093058109283447
10
35.471627712249756
20
14.406862258911133
10
35.448691844940186
20
14.719066619873047
10
35.410599708557129
20
15.028073787689209
10
35.357539653778076
20
15.332307815551758
10
34.640846252441406
20
18.904430866241455
10
34.483957290649414
20
18.906824588775635
10
23.569998741149902
20
19.073231220245361
10
23.569998741149902
20
17.10688591003418
10
21.369996070861816
20
17.10688591003418
10
21.174907684326172
20
17.087671756744385
10
20.98731517791748
20
17.030766010284424
10
20.814428329467773
20
16.938354969024658
10
20.66288948059082
20
16.813993453979492
10
20.538527965545654
20
16.66245698928833
10
20.44611930847168
20
16.489570140838623
10
20.389213562011719
20
16.301977634429932
10
20.025244215440651
20
12.606830774477412
10
20.025244215440651
20
-28.8931131362915
10
14.8699951171875
20
-28.893113136291504
10
14.8699951171875
20
-15.893111228942871
10
-14.870002269744873
20
-15.893111228942871
10
-14.870002269744873
20
-28.893113136291504
10
-20.025251367998024
20
-28.893113136291504
10
-20.02525136799802
20
12.606830774477391
10
-20.389220714569092
20
16.301977634429932
10
-20.446121692657471
20
16.489570140838623
10
-20.538532733917236
20
16.66245698928833
10
-20.662896633148193
20
16.813993453979492
10
-20.814430713653564
20
16.938354969024658
10
-20.987322330474854
20
17.030766010284424
10
-21.174914836883545
20
17.087671756744385
10
-21.370003223419189
20
17.10688591003418
10
-23.570005893707275
20
17.10688591003418
10
-23.570005893707275
20
19.073231220245361
10
-34.483964443206787
20
18.906824588775635
10
-34.640853404998779
20
18.904430866241455
10
-35.357544422149658
20
15.332307815551758
10
-35.410606861114502
20
15.028073787689209
10
-35.44870138168335
20
14.719066619873047
10
-35.47163724899292
20
14.406862258911133
10
-35.479285717010498
20
14.093058109283447
10
-35.479285717010498
20
-16.235170364379883
10
-35.01814603805542
20
-17.448644638061523
10
-34.51765775680542
20
-18.646426200866699
10
-33.978354930877686
20
-19.82724666595459
10
-33.400828838348389
20
-20.989837646484375
10
-32.785675525665283
20
-22.132978439331055
10
-32.133562564849854
20
-23.255438804626465
10
-31.445186138153076
20
-24.356036186218262
10
-30.721261501312256
20
-25.433578491210938
10
-29.96258020401001
20
-26.486940383911133
10
-29.169929027557373
20
-27.514991760253906
10
-28.344171047210693
20
-28.516631126403809
10
-27.4861741065979
20
-29.490809440612793
10
-26.596858501434326
20
-30.43647289276123
10
-25.677158832550049
20
-31.352624893188477
10
-24.728066921234131
20
-32.238287925720215
10
-23.750588893890381
20
-33.092513084411621
10
-22.745764255523682
20
-33.914408683776855
10
-21.714661121368408
20
-34.703073501586914
10
-20.65838098526001
20
-35.457687377929688
10
-19.578044414520264
20
-36.177444458007812
10
-18.474805355072021
20
-36.861572265625
10
-17.349832057952881
20
-37.509346008300781
10
-16.204326152801514
20
-38.120079040527344
0
LWPOLYLINE
5
103
100
AcDbEntity
8
0
100
AcDbPolyline
90
3
70
1
43
0.0
10
34.168102741241455
20
0.19132614135742188
10
34.168150424957275
20
0.19437789916992188
10
34.368126392364502
20
0.19132614135742188
0
LWPOLYLINE
5
104
100
AcDbEntity
8
0
100
AcDbPolyline
90
4
70
1
43
0.0
10
33.022398948669434
20
-8.2602643966674805
10
28.179283142089844
20
-8.2602643966674805
10
28.179283142089844
20
0.19132614135742188
10
33.022398948669434
20
0.19132614135742188
0
LWPOLYLINE
5
105
100
AcDbEntity
8
0
100
AcDbPolyline
90
4
70
1
43
0.0
10
-35.479285717010498
20
-16.235170364379883
10
1.557519224487085
20
-16.235170364379883
10
1.557519224487085
20
-40.107154411196539
10
-35.479285717010498
20
-40.107154411196539
0
LWPOLYLINE
5
106
100
AcDbEntity
8
0
100
AcDbPolyline
90
4
70
1
43
0.0
10
35.479285717010498
20
-16.235170364379883
10
0.29328612125952613
20
-16.235170364379883
10
0.29328612125952613
20
-40.107154411196539
10
35.479285717010498
20
-40.107154411196539
0
ENDSEC
0
SECTION
2
OBJECTS
0
DICTIONARY
5
C
100
AcDbDictionary
3
ACAD_GROUP
350
D
3
ACAD_MLINESTYLE
350
17
0
DICTIONARY
5
D
100
AcDbDictionary
0
DICTIONARY
5
1A
330
C
100
AcDbDictionary
0
DICTIONARY
5
17
100
AcDbDictionary
0
ENDSEC
0
EOF
