0
SECTION
2
HEADER
9
$INSUNITS
70
4
9
$ACADVER
1
AC1014
9
$HANDSEED
5
FFFF
0
ENDSEC
0
SECTION
2
TABLES
0
TABLE
2
VPORT
5
8
100
AcDbSymbolTable
0
ENDTAB
0
TABLE
2
LTYPE
5
5
100
AcDbSymbolTable
0
LTYPE
5
14
100
AcDbSymbolTableRecord
100
AcDbLinetypeTableRecord
2
BYBLOCK
70
0
0
LTYPE
5
15
100
AcDbSymbolTableRecord
100
AcDbLinetypeTableRecord
2
BYLAYER
70
0
0
LTYPE
5
16
100
AcDbSymbolTableRecord
100
AcDbLinetypeTableRecord
2
DASHED
70
0
3
Dashed __ __ __ __ __ __ __ __ __ __ __ __ __ _
72
65
73
2
40
0.75
49
0.5
74
0
49
-0.25
74
0
0
ENDTAB
0
TABLE
2
LAYER
5
2
100
AcDbSymbolTable
70
2
0
LAYER
5
50
100
AcDbSymbolTableRecord
100
AcDbLayerTableRecord
2
0
70
0
62
7
6
CONTINUOUS
0
ENDTAB
0
TABLE
2
STYLE
5
3
100
AcDbSymbolTable
70
1
0
STYLE
5
11
100
AcDbSymbolTableRecord
100
AcDbTextStyleTableRecord
2
STANDARD
70
0
0
ENDTAB
0
TABLE
2
VIEW
5
6
100
AcDbSymbolTable
70
0
0
ENDTAB
0
TABLE
2
UCS
5
7
100
AcDbSymbolTable
70
0
0
ENDTAB
0
TABLE
2
APPID
5
9
100
AcDbSymbolTable
70
2
0
APPID
5
12
100
AcDbSymbolTableRecord
100
AcDbRegAppTableRecord
2
ACAD
70
0
0
ENDTAB
0
TABLE
2
DIMSTYLE
5
A
100
AcDbSymbolTable
70
1
0
ENDTAB
0
TABLE
2
BLOCK_RECORD
5
1
100
AcDbSymbolTable
70
1
0
BLOCK_RECORD
5
1F
100
AcDbSymbolTableRecord
100
AcDbBlockTableRecord
2
*MODEL_SPACE
0
BLOCK_RECORD
5
1B
100
AcDbSymbolTableRecord
100
AcDbBlockTableRecord
2
*PAPER_SPACE
0
ENDTAB
0
ENDSEC
0
SECTION
2
BLOCKS
0
BLOCK
5
20
100
AcDbEntity
100
AcDbBlockBegin
2
*MODEL_SPACE
0
ENDBLK
5
21
100
AcDbEntity
100
AcDbBlockEnd
0
BLOCK
5
1C
100
AcDbEntity
100
AcDbBlockBegin
2
*PAPER_SPACE
0
ENDBLK
5
1D
100
AcDbEntity
100
AcDbBlockEnd
0
ENDSEC
0
SECTION
2
ENTITIES
0
POINT
5
100
100
AcDbEntity
8
0
100
AcDbPoint
10
0
20
0
30
0
0
LWPOLYLINE
5
101
100
AcDbEntity
8
0
100
AcDbPolyline
90
4
70
1
43
0.0
10
-0.22928571701049436
20
36.606886863708496
10
-0.22928571701049436
20
34.194752471317642
10
-12.928575611114494
20
34.194752471317649
10
-12.928575611114494
20
36.606886863708496
0
LWPOLYLINE
5
102
100
AcDbEntity
8
0
100
AcDbPolyline
90
4
70
1
43
0.0
10
9.2030063442329038
20
-16.59311408996582
10
9.2030063442329038
20
-0.69311408996581836
10
14.203006344232904
20
-0.69311408996581836
10
14.203006344232904
20
-16.59311408996582
0
LWPOLYLINE
5
103
100
AcDbEntity
8
0
100
AcDbPolyline
90
4
70
1
43
0.0
10
-9.2615777782538942
20
-0.69311408996581836
10
-9.2615777782538942
20
-16.59311408996582
10
-14.261577778253894
20
-16.59311408996582
10
-14.261577778253894
20
-0.69311408996581836
0
LWPOLYLINE
5
104
100
AcDbEntity
8
0
100
AcDbPolyline
90
4
70
1
43
0.0
10
13.870003223419189
20
-37.893111228942871
10
-13.928574657440178
20
-37.893111228942871
10
-13.928574657440178
20
-17.793114089965822
10
13.870003223419189
20
-17.793114089965819
0
LWPOLYLINE
5
105
100
AcDbEntity
8
0
100
AcDbPolyline
90
15
70
1
43
0.0
10
-30.079285717010499
20
-39.107154411196539
10
30.020714282989509
20
-39.107154411196539
10
30.020714282989509
20
32.434930097516997
10
20.011363997568701
20
32.434930097516997
10
20.010714282989504
20
32.434930097516997
10
20.011363997568701
20
32.434930097516997
10
16.386414966293355
20
39.062014239299067
42
0.25624022490550175
10
14.765446731437923
20
40.097760978707811
10
-0.029285717010494317
20
41.088924750569191
10
-14.824018165458913
20
40.097760978707811
42
0.25624022490550047
10
-16.444986400314342
20
39.062014239299074
10
-20.069935431589691
20
32.434930097516997
10
-20.069285717010494
20
32.434930097516997
10
-20.069935431589691
20
32.434930097516997
10
-30.079285717010499
20
32.434930097516997
0
LWPOLYLINE
5
106
100
AcDbEntity
8
0
100
AcDbPolyline
90
4
70
1
43
0.0
10
0.17071428298950572
20
36.606886863708496
10
12.870004177093506
20
36.606886863708496
10
12.870004177093506
20
34.194752471317649
10
0.17071428298950586
20
34.194752471317642
0
CIRCLE
5
107
100
AcDbEntity
8
0
100
AcDbCircle
10
19.988841562217509
20
-14.893111228942871
30
0
40
4
210
0
220
0
230
1
0
CIRCLE
5
108
100
AcDbEntity
8
0
100
AcDbCircle
10
-20.011158437782491
20
-14.893111228942871
30
0
40
4
210
0
220
0
230
1
0
LINE
5
109
100
AcDbEntity
8
0
100
AcDbLine
10
19.988841562217509
20
-14.893111228942871
30
0
11
-20.011158437782491
21
-14.893111228942871
31
0
0
LINE
5
110
100
AcDbEntity
8
0
100
AcDbLine
10
0
20
0
30
0
11
-0.029285717010494317
21
-39.107154411196539
31
0
0
CIRCLE
5
111
100
AcDbEntity
8
0
100
AcDbCircle
10
-20
20
34.106888771057136
30
0
40
4
210
0
220
0
230
1
0
CIRCLE
5
112
100
AcDbEntity
8
0
100
AcDbCircle
10
20
20
34.106888771057015
30
0
40
4
210
0
220
0
230
1
0
LINE
5
113
100
AcDbEntity
8
0
100
AcDbLine
10
-20
20
34.106888771057136
30
0
11
20
21
34.106888771057015
31
0
0
LINE
5
114
100
AcDbEntity
8
0
100
AcDbLine
10
-23.633807121184876
20
32.434930097516997
30
0
11
-20.069285717010494
21
32.434930097516997
31
0
0
LINE
5
115
100
AcDbEntity
8
0
100
AcDbLine
10
-17.463564230261738
20
37.199863647449156
30
0
11
-20.069935431589691
21
32.434930097516997
31
0
0
LINE
5
116
100
AcDbEntity
8
0
100
AcDbLine
10
23.63380712118493
20
32.434930097516997
30
0
11
20.010714282989504
21
32.434930097516997
31
0
0
LINE
5
117
100
AcDbEntity
8
0
100
AcDbLine
10
20.010714282989504
20
32.434930097516997
30
0
11
17.423297500886157
21
37.166399227169308
31
0
0
LINE
5
118
100
AcDbEntity
8
0
100
AcDbLine
10
23.63380712118493
20
32.434930097516997
30
0
11
23.63380712118493
21
29.106888771057015
31
0
0
LINE
5
119
100
AcDbEntity
8
0
100
AcDbLine
10
23.63380712118493
20
29.106888771057015
30
0
11
14
21
29.106888771057015
31
0
0
LINE
5
120
100
AcDbEntity
8
0
100
AcDbLine
10
14
20
29.106888771057015
30
0
11
13.999999999999975
21
37.166399227169322
31
0
0
LINE
5
121
100
AcDbEntity
8
0
100
AcDbLine
10
17.423297500886157
20
37.166399227169308
30
0
11
13.999999999999975
21
37.166399227169322
31
0
0
LINE
5
122
100
AcDbEntity
8
0
100
AcDbLine
10
-23.590186768251545
20
29.142252850647409
30
0
11
-13.956390452121802
21
29.127824145970955
31
0
0
LINE
5
123
100
AcDbEntity
8
0
100
AcDbLine
10
-23.585202308333827
20
32.470290444453234
30
0
11
-23.590186768251545
21
29.142252850647409
31
0
0
LINE
5
124
100
AcDbEntity
8
0
100
AcDbLine
10
-13.956390452121802
20
29.127824145970955
30
0
11
-13.944319596358817
21
37.187325562722783
31
0
0
LINE
5
125
100
AcDbEntity
8
0
100
AcDbLine
10
-17.367613257753721
20
37.192452689313392
30
0
11
-13.944319596358817
21
37.187325562722783
31
0
0
LINE
5
126
100
AcDbEntity
8
0
100
AcDbLine
10
-17.367613257753721
20
37.192452689313392
30
0
11
-17.463564230261738
21
37.199863647449156
31
0
0
ENDSEC
0
SECTION
2
OBJECTS
0
DICTIONARY
5
C
100
AcDbDictionary
3
ACAD_GROUP
350
D
3
ACAD_MLINESTYLE
350
17
0
DICTIONARY
5
D
100
AcDbDictionary
0
DICTIONARY
5
1A
330
C
100
AcDbDictionary
0
DICTIONARY
5
17
100
AcDbDictionary
0
ENDSEC
0
EOF
