0
SECTION
2
HEADER
9
$INSUNITS
70
4
9
$ACADVER
1
AC1014
9
$HANDSEED
5
FFFF
0
ENDSEC
0
SECTION
2
TABLES
0
TABLE
2
VPORT
5
8
100
AcDbSymbolTable
0
ENDTAB
0
TABLE
2
LTYPE
5
5
100
AcDbSymbolTable
0
LTYPE
5
14
100
AcDbSymbolTableRecord
100
AcDbLinetypeTableRecord
2
BYBLOCK
70
0
0
LTYPE
5
15
100
AcDbSymbolTableRecord
100
AcDbLinetypeTableRecord
2
BYLAYER
70
0
0
LTYPE
5
16
100
AcDbSymbolTableRecord
100
AcDbLinetypeTableRecord
2
DASHED
70
0
3
Dashed __ __ __ __ __ __ __ __ __ __ __ __ __ _
72
65
73
2
40
0.75
49
0.5
74
0
49
-0.25
74
0
0
ENDTAB
0
TABLE
2
LAYER
5
2
100
AcDbSymbolTable
70
2
0
LAYER
5
50
100
AcDbSymbolTableRecord
100
AcDbLayerTableRecord
2
0
70
0
62
7
6
CONTINUOUS
0
ENDTAB
0
TABLE
2
STYLE
5
3
100
AcDbSymbolTable
70
1
0
STYLE
5
11
100
AcDbSymbolTableRecord
100
AcDbTextStyleTableRecord
2
STANDARD
70
0
0
ENDTAB
0
TABLE
2
VIEW
5
6
100
AcDbSymbolTable
70
0
0
ENDTAB
0
TABLE
2
UCS
5
7
100
AcDbSymbolTable
70
0
0
ENDTAB
0
TABLE
2
APPID
5
9
100
AcDbSymbolTable
70
2
0
APPID
5
12
100
AcDbSymbolTableRecord
100
AcDbRegAppTableRecord
2
ACAD
70
0
0
ENDTAB
0
TABLE
2
DIMSTYLE
5
A
100
AcDbSymbolTable
70
1
0
ENDTAB
0
TABLE
2
BLOCK_RECORD
5
1
100
AcDbSymbolTable
70
1
0
BLOCK_RECORD
5
1F
100
AcDbSymbolTableRecord
100
AcDbBlockTableRecord
2
*MODEL_SPACE
0
BLOCK_RECORD
5
1B
100
AcDbSymbolTableRecord
100
AcDbBlockTableRecord
2
*PAPER_SPACE
0
ENDTAB
0
ENDSEC
0
SECTION
2
BLOCKS
0
BLOCK
5
20
100
AcDbEntity
100
AcDbBlockBegin
2
*MODEL_SPACE
0
ENDBLK
5
21
100
AcDbEntity
100
AcDbBlockEnd
0
BLOCK
5
1C
100
AcDbEntity
100
AcDbBlockBegin
2
*PAPER_SPACE
0
ENDBLK
5
1D
100
AcDbEntity
100
AcDbBlockEnd
0
ENDSEC
0
SECTION
2
ENTITIES
0
POINT
5
100
100
AcDbEntity
8
0
100
AcDbPoint
10
0
20
0
30
0
0
CIRCLE
5
101
100
AcDbEntity
8
0
100
AcDbCircle
10
-26.999999999999996
20
-27.107154411196539
30
0
40
1.749999999999998
210
0
220
0
230
1
0
CIRCLE
5
102
100
AcDbEntity
8
0
100
AcDbCircle
10
26.999999999999993
20
-27.107154411196532
30
0
40
1.749999999999998
210
0
220
0
230
1
0
CIRCLE
5
103
100
AcDbEntity
8
0
100
AcDbCircle
10
-27
20
11.999999999999996
30
0
40
1.749999999999998
210
0
220
0
230
1
0
CIRCLE
5
104
100
AcDbEntity
8
0
100
AcDbCircle
10
27
20
12.000000000000011
30
0
40
1.749999999999998
210
0
220
0
230
1
0
LWPOLYLINE
5
105
100
AcDbEntity
8
0
100
AcDbPolyline
90
4
70
1
43
0.0
10
-0.22928571701049449
20
36.606886863708496
10
-0.22928571701049449
20
34.194752471317642
10
-12.928575611114494
20
34.194752471317649
10
-12.928575611114494
20
36.606886863708496
0
LWPOLYLINE
5
106
100
AcDbEntity
8
0
100
AcDbPolyline
90
4
70
1
43
0.0
10
13.870003223419193
20
-37.893111228942871
10
-13.928574657440178
20
-37.893111228942871
10
-13.928574657440178
20
-17.793114089965822
10
13.870003223419193
20
-17.793114089965819
0
LWPOLYLINE
5
107
100
AcDbEntity
8
0
100
AcDbPolyline
90
11
70
1
43
0.0
10
-30.079285717010499
20
-39.107154411196539
10
30.020714282989516
20
-39.107154411196539
10
30.020714282989513
20
32.434930097516997
10
20.011363997568704
20
32.434930097516997
10
16.386414966293351
20
39.062014239299067
42
0.25624022490550108
10
14.765446731437926
20
40.097760978707811
10
-0.029285717010494317
20
41.088924750569191
10
-14.824018165458913
20
40.097760978707811
42
0.25624022490550047
10
-16.444986400314342
20
39.062014239299074
10
-20.069935431589691
20
32.434930097516997
10
-30.079285717010499
20
32.434930097516997
0
LWPOLYLINE
5
108
100
AcDbEntity
8
0
100
AcDbPolyline
90
4
70
1
43
0.0
10
0.17071428298950586
20
36.606886863708496
10
12.870004177093509
20
36.606886863708496
10
12.870004177093509
20
34.194752471317649
10
0.17071428298950586
20
34.194752471317642
0
LWPOLYLINE
5
109
100
AcDbEntity
8
0
100
AcDbPolyline
90
8
70
1
43
0.0
10
-30.079285717010499
20
-39.107154411196539
10
30.020714282989516
20
-39.107154411196539
10
28.75
20
-39.107154411196539
10
28.75
20
32.434930097516997
10
30.020714282989516
20
32.434930097516997
10
30.020714282989516
20
-39.107154411196539
10
30.020714282989516
20
-37.893111228942871
10
-30.079285717010499
20
-37.893111228942871
0
LWPOLYLINE
5
110
100
AcDbEntity
8
0
100
AcDbPolyline
90
4
70
1
43
0.0
10
-30.079285717010499
20
32.434930097516997
10
-28.749999999999996
20
32.434930097516997
10
-28.749999999999996
20
-39.107154411196539
10
-30.079285717010499
20
-39.107154411196532
0
LINE
5
111
100
AcDbEntity
8
0
100
AcDbLine
10
28.75
20
-35.393111228942871
30
0
11
-28.749999999999996
21
-35.393111228942871
31
0
6
DASHED
0
CIRCLE
5
112
100
AcDbEntity
8
0
100
AcDbCircle
10
19.999999999999996
20
-15.393111228942875
30
0
40
1.5000000000000002
210
0
220
0
230
1
0
CIRCLE
5
113
100
AcDbEntity
8
0
100
AcDbCircle
10
-20
20
-15.393111228942866
30
0
40
1.5000000000000002
210
0
220
0
230
1
0
CIRCLE
5
114
100
AcDbEntity
8
0
100
AcDbCircle
10
-19.999999999999996
20
33.606888771057129
30
0
40
1.5000000000000002
210
0
220
0
230
1
0
CIRCLE
5
115
100
AcDbEntity
8
0
100
AcDbCircle
10
20.000000000000007
20
33.606888771057129
30
0
40
1.5000000000000002
210
0
220
0
230
1
0
LINE
5
116
100
AcDbEntity
8
0
100
AcDbLine
10
19.999999999999996
20
-15.393111228942875
30
0
11
-20
21
-15.393111228942866
31
0
6
DASHED
0
LINE
5
117
100
AcDbEntity
8
0
100
AcDbLine
10
-20
20
-15.393111228942866
30
0
11
-19.999999999999996
21
33.606888771057129
31
0
6
DASHED
0
LINE
5
118
100
AcDbEntity
8
0
100
AcDbLine
10
-19.999999999999996
20
33.606888771057129
30
0
11
20.000000000000007
21
33.606888771057129
31
0
6
DASHED
0
LINE
5
119
100
AcDbEntity
8
0
100
AcDbLine
10
20.000000000000007
20
33.606888771057129
30
0
11
19.999999999999996
21
-15.393111228942875
31
0
6
DASHED
0
LINE
5
120
100
AcDbEntity
8
0
100
AcDbLine
10
4.080545766260156e-15
20
33.606888771057129
30
0
11
-1.6527153218431915e-15
21
-15.393111228942871
31
0
6
DASHED
0
CIRCLE
5
121
100
AcDbEntity
8
0
100
AcDbCircle
10
-20
20
-15.393111228942866
30
0
40
3.5000000000000004
210
0
220
0
230
1
0
CIRCLE
5
122
100
AcDbEntity
8
0
100
AcDbCircle
10
19.999999999999996
20
-15.393111228942875
30
0
40
3.5000000000000004
210
0
220
0
230
1
0
CIRCLE
5
123
100
AcDbEntity
8
0
100
AcDbCircle
10
20.000000000000007
20
33.606888771057129
30
0
40
3.5000000000000004
210
0
220
0
230
1
0
CIRCLE
5
124
100
AcDbEntity
8
0
100
AcDbCircle
10
-19.999999999999996
20
33.606888771057129
30
0
40
3.5000000000000004
210
0
220
0
230
1
0
LINE
5
125
100
AcDbEntity
8
0
100
AcDbLine
10
-20
20
-11.893111228942866
30
0
11
-20
21
-18.893111228942868
31
0
6
DASHED
0
LWPOLYLINE
5
126
100
AcDbEntity
8
0
100
AcDbPolyline
90
4
70
1
43
0.0
10
-20
20
-11.893111228942866
10
-13.928574657440178
20
-11.893111228942866
10
-13.928574657440178
20
-18.893111228942868
10
-19.999999999999996
20
-18.893111228942868
0
LWPOLYLINE
5
127
100
AcDbEntity
8
0
100
AcDbPolyline
90
8
70
1
43
0.0
10
13.870003223419193
20
-37.893111228942871
10
28.75
20
-37.893111228942871
10
28.75
20
-31.29311122894287
10
24.334708045300001
20
-31.29311122894287
10
24.334708045300001
20
32.434930097516997
10
28.75
20
32.434930097516997
10
28.75
20
-31.29311122894287
10
13.870003223419193
20
-31.29311122894287
0
LWPOLYLINE
5
128
100
AcDbEntity
8
0
100
AcDbPolyline
90
4
70
1
43
0.0
10
-28.749999999999996
20
-37.893111228942871
10
-20.249999999999993
20
-37.893111228942871
10
-20.249999999999993
20
-31.29311122894287
10
-28.749999999999996
20
-31.29311122894287
0
LWPOLYLINE
5
129
100
AcDbEntity
8
0
100
AcDbPolyline
90
4
70
1
43
0.0
10
-28.749999999999996
20
32.434930097516997
10
-24.249999999999993
20
32.434930097516997
10
-24.249999999999993
20
-31.29311122894287
10
-28.749999999999996
20
-31.29311122894287
0
ENDSEC
0
SECTION
2
OBJECTS
0
DICTIONARY
5
C
100
AcDbDictionary
3
ACAD_GROUP
350
D
3
ACAD_MLINESTYLE
350
17
0
DICTIONARY
5
D
100
AcDbDictionary
0
DICTIONARY
5
1A
330
C
100
AcDbDictionary
0
DICTIONARY
5
17
100
AcDbDictionary
0
ENDSEC
0
EOF
