                                                                        S      1
,,9HM3 Nut v5,9HM3 Nut v5,7Hunknown,7Hunknown,32,38,7,99,15,,1.,2,2HMM, G      1
1,0.08,15H20250912.001708,0.01,10000.,7Hunknown,7Hunknown,11,0,15H202403G      2
11.070539;                                                              G      3
     186       1                                                00000000D      1
     186             -95       1       0                               0D      2
     514       2                                                00010000D      3
     514                       1       1                               0D      4
     510       3                                                00010000D      5
     510             -95       1       1                               0D      6
     510       4                                                00010000D      7
     510             -95       1       1                               0D      8
     510       5                                                00010000D      9
     510             -95       1       1                               0D     10
     510       6                                                00010000D     11
     510             -95       1       1                               0D     12
     510       7                                                00010000D     13
     510             -95       1       1                               0D     14
     510       8                                                00010000D     15
     510             -95       1       1                               0D     16
     510       9                                                00010000D     17
     510             -95       1       1                               0D     18
     510      10                                                00010000D     19
     510             -95       1       1                               0D     20
     508      11                                                00010000D     21
     508                       1       1                               0D     22
     508      12                                                00010000D     23
     508                       1       1                               0D     24
     508      13                                                00010000D     25
     508                       1       1                               0D     26
     508      14                                                00010000D     27
     508                       1       1                               0D     28
     508      15                                                00010000D     29
     508                       1       1                               0D     30
     508      16                                                00010000D     31
     508                       1       1                               0D     32
     508      17                                                00010000D     33
     508                       2       1                               0D     34
     508      19                                                00010000D     35
     508                       2       1                               0D     36
     126      21                                                00010000D     37
     126       0               3       0                               0D     38
     126      24                                                00010000D     39
     126       0               3       0                               0D     40
     126      27                                                00010000D     41
     126       0               3       0                               0D     42
     126      30                                                00010000D     43
     126       0               2       0                               0D     44
     126      32                                                00010000D     45
     126       0               3       0                               0D     46
     126      35                                                00010000D     47
     126       0               3       0                               0D     48
     126      38                                                00010000D     49
     126       0               3       0                               0D     50
     126      41                                                00010000D     51
     126       0               3       0                               0D     52
     126      44                                                00010000D     53
     126       0               3       0                               0D     54
     126      47                                                00010000D     55
     126       0               3       0                               0D     56
     126      50                                                00010000D     57
     126       0               3       0                               0D     58
     126      53                                                00010000D     59
     126       0               3       0                               0D     60
     126      56                                                00010000D     61
     126       0               3       0                               0D     62
     126      59                                                00010000D     63
     126       0               3       0                               0D     64
     126      62                                                00010000D     65
     126       0               3       0                               0D     66
     126      65                                                00010000D     67
     126       0               2       0                               0D     68
     126      67                                                00010000D     69
     126       0               3       0                               0D     70
     126      70                                                00010000D     71
     126       0               3       0                               0D     72
     128      73                                                00010000D     73
     128       0     -95       6       0                               0D     74
     128      79                                                00010000D     75
     128       0     -95       5       0                               0D     76
     128      84                                                00010000D     77
     128       0     -95       6       0                               0D     78
     128      90                                                00010000D     79
     128       0     -95       6       0                               0D     80
     128      96                                                00010000D     81
     128       0     -95       5       0                               0D     82
     128     101                                                00010000D     83
     128       0     -95       6       0                               0D     84
     128     107                                                00010000D     85
     128       0     -95       6       0                               0D     86
     128     113                                                00010000D     87
     128       0     -95       6       0                               0D     88
     502     119                                                00010000D     89
     502                       8       1                               0D     90
     504     127                                                00010001D     91
     504                       4       1                               0D     92
     406     131                                                00000000D     93
     406                       1      15                               0D     94
     314     132                                                00000200D     95
     314                       2       0                               0D     96
186,3,1,0,0,1,93;                                                      1P      1
514,8,5,1,7,1,9,1,11,1,13,1,15,1,17,1,19,1;                            3P      2
510,73,1,1,21;                                                         5P      3
510,75,1,1,23;                                                         7P      4
510,77,1,1,25;                                                         9P      5
510,79,1,1,27;                                                        11P      6
510,81,1,1,29;                                                        13P      7
510,83,1,1,31;                                                        15P      8
510,85,1,1,33;                                                        17P      9
510,87,1,1,35;                                                        19P     10
508,4,0,91,1,1,0,0,91,2,1,0,0,91,3,0,0,0,91,4,0,0;                    21P     11
508,4,0,91,5,1,0,0,91,4,1,0,0,91,6,0,0,0,91,7,0,0;                    23P     12
508,4,0,91,8,1,0,0,91,7,1,0,0,91,9,0,0,0,91,10,0,0;                   25P     13
508,4,0,91,11,1,0,0,91,10,1,0,0,91,12,0,0,0,91,13,0,0;                27P     14
508,4,0,91,14,1,0,0,91,13,1,0,0,91,15,0,0,0,91,16,0,0;                29P     15
508,4,0,91,17,1,0,0,91,16,1,0,0,91,18,0,0,0,91,2,0,0;                 31P     16
508,6,0,91,18,1,0,0,91,15,1,0,0,91,12,1,0,0,91,9,1,0,0,91,6,1,0,      33P     17
0,91,3,1,0;                                                           33P     18
508,6,0,91,17,0,0,0,91,1,0,0,0,91,5,0,0,0,91,8,0,0,0,91,11,0,0,       35P     19
0,91,14,0,0;                                                          35P     20
126,1,1,0,0,1,0,0.,0.,0.346410161513776,0.346410161513776,1.,1.,      37P     21
-1.7320508075689,0.,-3.,-3.46410161513777,0.,                         37P     22
9.43689570931383D-15,0.,0.346410161513776,0.,0.,0.;                   37P     23
126,1,1,0,0,1,0,0.,0.,0.225,0.225,1.,1.,-3.46410161513777,0.,         39P     24
9.16476096401997D-15,-3.46410161513777,2.25,                          39P     25
9.16476096401997D-15,0.,0.225,0.,0.,0.;                               39P     26
126,1,1,0,0,1,0,0.,0.,0.346410161513776,0.346410161513776,1.,1.,      41P     27
-1.7320508075689,2.25,-3.,-3.46410161513777,2.25,                     41P     28
9.43689570931383D-15,0.,0.346410161513776,0.,0.,0.;                   41P     29
126,1,1,0,0,1,0,0.,0.,0.225,0.225,1.,1.,-1.7320508075689,0.,-3.,      43P     30
-1.7320508075689,2.25,-3.,0.,0.225,0.,0.,0.;                          43P     31
126,1,1,0,0,1,0,0.,0.,0.346410161513776,0.346410161513776,1.,1.,      45P     32
1.73205080756886,0.,-3.00000000000001,-1.7320508075689,0.,-3.,        45P     33
0.,0.346410161513776,0.,0.,0.;                                        45P     34
126,1,1,0,0,1,0,0.,0.,0.346410161513776,0.346410161513776,1.,1.,      47P     35
1.73205080756886,2.25,-3.00000000000001,-1.7320508075689,2.25,        47P     36
-3.,0.,0.346410161513776,0.,0.,0.;                                    47P     37
126,1,1,0,0,1,0,0.,0.,0.225,0.225,1.,1.,1.73205080756886,0.,          49P     38
-3.00000000000001,1.73205080756886,2.25,-3.00000000000001,0.,         49P     39
0.225,0.,0.,0.;                                                       49P     40
126,1,1,0,0,1,0,0.,0.,0.346410161513775,0.346410161513775,1.,1.,      51P     41
3.46410161513773,0.,-5.59990422088763D-15,1.73205080756886,0.,        51P     42
-3.00000000000001,0.,0.346410161513775,0.,0.,0.;                      51P     43
126,1,1,0,0,1,0,0.,0.,0.346410161513775,0.346410161513775,1.,1.,      53P     44
3.46410161513773,2.25,-5.59990422088763D-15,1.73205080756886,         53P     45
2.25,-3.00000000000001,0.,0.346410161513775,0.,0.,0.;                 53P     46
126,1,1,0,0,1,0,0.,0.,0.225,0.225,1.,1.,3.46410161513773,0.,          55P     47
-5.59990422088763D-15,3.46410161513773,2.25,                          55P     48
-5.59990422088763D-15,0.,0.225,0.,0.,0.;                              55P     49
126,1,1,0,0,1,0,0.,0.,0.346410161513775,0.346410161513775,1.,1.,      57P     50
1.73205080756886,0.,2.99999999999999,3.46410161513773,0.,             57P     51
-5.55111512312578D-15,0.,0.346410161513775,0.,0.,0.;                  57P     52
126,1,1,0,0,1,0,0.,0.,0.346410161513775,0.346410161513775,1.,1.,      59P     53
1.73205080756886,2.25,2.99999999999999,3.46410161513773,2.25,         59P     54
-5.55111512312578D-15,0.,0.346410161513775,0.,0.,0.;                  59P     55
126,1,1,0,0,1,0,0.,0.,0.225,0.225,1.,1.,1.73205080756886,0.,          61P     56
2.99999999999999,1.73205080756886,2.25,2.99999999999999,0.,           61P     57
0.225,0.,0.,0.;                                                       61P     58
126,1,1,0,0,1,0,0.,0.,0.346410161513772,0.346410161513772,1.,1.,      63P     59
-1.73205080756886,0.,3.,1.73205080756886,0.,2.99999999999999,0.,      63P     60
0.346410161513772,0.,0.,0.;                                           63P     61
126,1,1,0,0,1,0,0.,0.,0.346410161513772,0.346410161513772,1.,1.,      65P     62
-1.73205080756886,2.25,3.,1.73205080756886,2.25,                      65P     63
2.99999999999999,0.,0.346410161513772,0.,0.,0.;                       65P     64
126,1,1,0,0,1,0,0.,0.,0.225,0.225,1.,1.,-1.73205080756886,0.,3.,      67P     65
-1.73205080756886,2.25,3.,0.,0.225,0.,0.,0.;                          67P     66
126,1,1,0,0,1,0,0.,0.,0.346410161513777,0.346410161513777,1.,1.,      69P     67
-3.46410161513777,0.,9.16476096401997D-15,-1.73205080756886,0.,       69P     68
3.,0.,0.346410161513777,0.,0.,0.;                                     69P     69
126,1,1,0,0,1,0,0.,0.,0.346410161513777,0.346410161513777,1.,1.,      71P     70
-3.46410161513777,2.25,9.16476096401997D-15,-1.73205080756886,        71P     71
2.25,3.,0.,0.346410161513777,0.,0.,0.;                                71P     72
128,1,1,1,1,0,0,1,0,0,-0.001,-0.001,0.347410161513776,                73P     73
0.347410161513776,-0.001,-0.001,0.226,0.226,1.,1.,1.,1.,              73P     74
-1.7270508075689,-0.01,-3.00866025403785,-3.46910161513777,           73P     75
-0.01,0.00866025403785442,-1.7270508075689,2.26,                      73P     76
-3.00866025403785,-3.46910161513777,2.26,0.00866025403785442,         73P     77
-0.001,0.347410161513776,-0.001,0.226;                                73P     78
128,1,1,1,1,0,0,1,0,0,-0.001,-0.001,0.347410161513776,                75P     79
0.347410161513776,-0.001,-0.001,0.226,0.226,1.,1.,1.,1.,              75P     80
1.74205080756886,-0.01,-3.00000000000001,-1.7420508075689,-0.01,      75P     81
-3.,1.74205080756886,2.26,-3.00000000000001,-1.7420508075689,         75P     82
2.26,-3.,-0.001,0.347410161513776,-0.001,0.226;                       75P     83
128,1,1,1,1,0,0,1,0,0,-0.001,-0.001,0.347410161513775,                77P     84
0.347410161513775,-0.001,-0.001,0.226,0.226,1.,1.,1.,1.,              77P     85
3.46910161513773,-0.01,0.00866025403783879,1.72705080756886,          77P     86
-0.01,-3.00866025403785,3.46910161513773,2.26,                        77P     87
0.00866025403783879,1.72705080756886,2.26,-3.00866025403785,          77P     88
-0.001,0.347410161513775,-0.001,0.226;                                77P     89
128,1,1,1,1,0,0,1,0,0,-0.001,-0.001,0.347410161513775,                79P     90
0.347410161513775,-0.001,-0.001,0.226,0.226,1.,1.,1.,1.,              79P     91
1.72705080756886,-0.01,3.00866025403784,3.46910161513773,-0.01,       79P     92
-0.00866025403784998,1.72705080756886,2.26,3.00866025403784,          79P     93
3.46910161513773,2.26,-0.00866025403784998,-0.001,                    79P     94
0.347410161513775,-0.001,0.226;                                       79P     95
128,1,1,1,1,0,0,1,0,0,-0.001,-0.001,0.347410161513772,                81P     96
0.347410161513772,-0.001,-0.001,0.226,0.226,1.,1.,1.,1.,              81P     97
-1.74205080756886,-0.01,3.,1.74205080756886,-0.01,                    81P     98
2.99999999999999,-1.74205080756886,2.26,3.,1.74205080756886,          81P     99
2.26,2.99999999999999,-0.001,0.347410161513772,-0.001,0.226;          81P    100
128,1,1,1,1,0,0,1,0,0,-0.001,-0.001,0.347410161513777,                83P    101
0.347410161513777,-0.001,-0.001,0.226,0.226,1.,1.,1.,1.,              83P    102
-3.46910161513777,-0.01,-0.00866025403783517,-1.72705080756886,       83P    103
-0.01,3.00866025403785,-3.46910161513777,2.26,                        83P    104
-0.00866025403783517,-1.72705080756886,2.26,3.00866025403785,         83P    105
-0.001,0.347410161513777,-0.001,0.226;                                83P    106
128,1,1,1,1,0,0,1,0,0,-0.301,-0.301,0.301,0.301,                      85P    107
-0.347410161513775,-0.347410161513775,0.347410161513775,              85P    108
0.347410161513775,1.,1.,1.,1.,-3.47410161513777,2.25,                 85P    109
-3.01000000000001,-3.47410161513777,2.25,3.01,3.47410161513773,       85P    110
2.25,-3.01000000000001,3.47410161513773,2.25,3.01,-0.301,0.301,       85P    111
-0.347410161513775,0.347410161513775;                                 85P    112
128,1,1,1,1,0,0,1,0,0,-0.347410161513775,-0.347410161513775,          87P    113
0.347410161513775,0.347410161513775,-0.301,-0.301,0.301,0.301,        87P    114
1.,1.,1.,1.,3.47410161513773,0.,3.01,-3.47410161513777,0.,3.01,       87P    115
3.47410161513773,0.,-3.01000000000001,-3.47410161513777,0.,           87P    116
-3.01000000000001,-0.347410161513775,0.347410161513775,-0.301,        87P    117
0.301;                                                                87P    118
502,12,-1.7320508075689,0.,-3.,-3.46410161513777,0.,                  89P    119
9.16476096401997D-15,-3.46410161513777,2.25,                          89P    120
9.16476096401997D-15,-1.7320508075689,2.25,-3.,1.73205080756886,      89P    121
0.,-3.00000000000001,1.73205080756886,2.25,-3.00000000000001,         89P    122
3.46410161513773,0.,-5.59990422088763D-15,3.46410161513773,2.25,      89P    123
-5.59990422088763D-15,1.73205080756886,0.,2.99999999999999,           89P    124
1.73205080756886,2.25,2.99999999999999,-1.73205080756886,0.,3.,       89P    125
-1.73205080756886,2.25,3.;                                            89P    126
504,18,37,89,1,89,2,39,89,2,89,3,41,89,4,89,3,43,89,1,89,4,45,        91P    127
89,5,89,1,47,89,6,89,4,49,89,5,89,6,51,89,7,89,5,53,89,8,89,6,        91P    128
55,89,7,89,8,57,89,9,89,7,59,89,10,89,8,61,89,9,89,10,63,89,11,       91P    129
89,9,65,89,12,89,10,67,89,11,89,12,69,89,2,89,11,71,89,3,89,12;       91P    130
406,1,5HBody1;                                                        93P    131
314,62.7450980392157,62.7450980392157,62.7450980392157,13HSteel       95P    132
- Satin;                                                              95P    133
S      1G      3D     96P    133                                        T      1
