                                                                        S      1
,,15HPower Button v5,15HPower Button v5,7Hunknown,7Hunknown,32,38,7,99, G      1
15,,1.,2,2HMM,1,0.08,15H20250912.002436,0.01,10000.,7Hunknown,7Hunknown,G      2
11,0,15H20200530.005812;                                                G      3
     408       1                                       3        00000001D      1
     408       0               1       0                               0D      2
     124       2                                                00000000D      3
     124                       2       0                               0D      4
     308       4                                                00010200D      5
     308       0               1       0                               0D      6
     186       5                                                00010000D      7
     186            -211       1       0                               0D      8
     186       6                                                00000000D      9
     186            -211       1       0                               0D     10
     514       7                                                00010000D     11
     514                       1       1                               0D     12
     514       8                                                00010000D     13
     514                       1       1                               0D     14
     510       9                                                00010000D     15
     510            -211       1       1                               0D     16
     510      10                                                00010000D     17
     510            -211       1       1                               0D     18
     510      11                                                00010000D     19
     510            -211       1       1                               0D     20
     510      12                                                00010000D     21
     510            -211       1       1                               0D     22
     510      13                                                00010000D     23
     510            -211       1       1                               0D     24
     510      14                                                00010000D     25
     510            -211       1       1                               0D     26
     510      15                                                00010000D     27
     510            -211       1       1                               0D     28
     510      16                                                00010000D     29
     510            -211       1       1                               0D     30
     510      17                                                00010000D     31
     510            -211       1       1                               0D     32
     510      18                                                00010000D     33
     510            -211       1       1                               0D     34
     510      19                                                00010000D     35
     510            -211       1       1                               0D     36
     510      20                                                00010000D     37
     510            -211       1       1                               0D     38
     510      21                                                00010000D     39
     510            -211       1       1                               0D     40
     510      22                                                00010000D     41
     510            -211       1       1                               0D     42
     510      23                                                00010000D     43
     510            -211       1       1                               0D     44
     510      24                                                00010000D     45
     510            -211       1       1                               0D     46
     510      25                                                00010000D     47
     510            -211       1       1                               0D     48
     508      26                                                00010000D     49
     508                       1       1                               0D     50
     508      27                                                00010000D     51
     508                       1       1                               0D     52
     508      28                                                00010000D     53
     508                       1       1                               0D     54
     508      29                                                00010000D     55
     508                       1       1                               0D     56
     508      30                                                00010000D     57
     508                       1       1                               0D     58
     508      31                                                00010000D     59
     508                       1       1                               0D     60
     508      32                                                00010000D     61
     508                       1       1                               0D     62
     508      33                                                00010000D     63
     508                       2       1                               0D     64
     508      35                                                00010000D     65
     508                       1       1                               0D     66
     508      36                                                00010000D     67
     508                       2       1                               0D     68
     508      38                                                00010000D     69
     508                       1       1                               0D     70
     508      39                                                00010000D     71
     508                       1       1                               0D     72
     508      40                                                00010000D     73
     508                       1       1                               0D     74
     508      41                                                00010000D     75
     508                       1       1                               0D     76
     508      42                                                00010000D     77
     508                       1       1                               0D     78
     508      43                                                00010000D     79
     508                       2       1                               0D     80
     508      45                                                00010000D     81
     508                       1       1                               0D     82
     508      46                                                00010000D     83
     508                       1       1                               0D     84
     508      47                                                00010000D     85
     508                       1       1                               0D     86
     508      48                                                00010000D     87
     508                       2       1                               0D     88
     508      50                                                00010000D     89
     508                       2       1                               0D     90
     126      52                                                00010000D     91
     126       0              10       0                               0D     92
     126      62                                                00010000D     93
     126       0               2       0                               0D     94
     126      64                                                00010000D     95
     126       0              10       0                               0D     96
     126      74                                                00010000D     97
     126       0               3       0                               0D     98
     126      77                                                00010000D     99
     126       0               2       0                               0D    100
     126      79                                                00010000D    101
     126       0               3       0                               0D    102
     126      82                                                00010000D    103
     126       0               3       0                               0D    104
     126      85                                                00010000D    105
     126       0               3       0                               0D    106
     126      88                                                00010000D    107
     126       0               3       0                               0D    108
     126      91                                                00010000D    109
     126       0               2       0                               0D    110
     126      93                                                00010000D    111
     126       0               4       0                               0D    112
     126      97                                                00010000D    113
     126       0               4       0                               0D    114
     126     101                                                00010000D    115
     126       0               2       0                               0D    116
     126     103                                                00010000D    117
     126       0               3       0                               0D    118
     126     106                                                00010000D    119
     126       0               3       0                               0D    120
     126     109                                                00010000D    121
     126       0               3       0                               0D    122
     126     112                                                00010000D    123
     126       0               3       0                               0D    124
     126     115                                                00010000D    125
     126       0               3       0                               0D    126
     126     118                                                00010000D    127
     126       0               2       0                               0D    128
     126     120                                                00010000D    129
     126       0               4       0                               0D    130
     126     124                                                00010000D    131
     126       0               4       0                               0D    132
     126     128                                                00010000D    133
     126       0              10       0                               0D    134
     126     138                                                00010000D    135
     126       0               2       0                               0D    136
     126     140                                                00010000D    137
     126       0              13       0                               0D    138
     126     153                                                00010000D    139
     126       0               6       0                               0D    140
     126     159                                                00010000D    141
     126       0               5       0                               0D    142
     126     164                                                00010000D    143
     126       0               6       0                               0D    144
     126     170                                                00010000D    145
     126       0               5       0                               0D    146
     126     175                                                00010000D    147
     126       0               5       0                               0D    148
     126     180                                                00010000D    149
     126       0               5       0                               0D    150
     126     185                                                00010000D    151
     126       0               3       0                               0D    152
     126     188                                                00010000D    153
     126       0               6       0                               0D    154
     126     194                                                00010000D    155
     126       0               5       0                               0D    156
     126     199                                                00010000D    157
     126       0               6       0                               0D    158
     126     205                                                00010000D    159
     126       0               5       0                               0D    160
     126     210                                                00010000D    161
     126       0               3       0                               0D    162
     126     213                                                00010000D    163
     126       0               3       0                               0D    164
     128     216                                                00010000D    165
     128       0    -211      12       0                               0D    166
     128     228                                                00010000D    167
     128       0    -211       6       0                               0D    168
     128     234                                                00010000D    169
     128       0    -211       6       0                               0D    170
     128     240                                                00010000D    171
     128       0    -211       5       0                               0D    172
     128     245                                                00010000D    173
     128       0    -211       6       0                               0D    174
     128     251                                                00010000D    175
     128       0    -211       6       0                               0D    176
     128     257                                                00010000D    177
     128       0    -211       5       0                               0D    178
     128     262                                                00010000D    179
     128       0    -211       5       0                               0D    180
     128     267                                                00010000D    181
     128       0    -211       5       0                               0D    182
     128     272                                                00010000D    183
     128       0    -211      15       0                               0D    184
     128     287                                                00010000D    185
     128       0    -211       3       0                               0D    186
     128     290                                                00010000D    187
     128       0    -211       4       0                               0D    188
     128     294                                                00010000D    189
     128       0    -211      13       0                               0D    190
     128     307                                                00010000D    191
     128       0    -211       4       0                               0D    192
     128     311                                                00010000D    193
     128       0    -211       3       0                               0D    194
     128     314                                                00010000D    195
     128       0    -211      14       0                               0D    196
     128     328                                                00010000D    197
     128       0    -211      14       0                               0D    198
     502     342                                                00010000D    199
     502                       9       1                               0D    200
     502     351                                                00010000D    201
     502                       4       1                               0D    202
     504     355                                                00010001D    203
     504                       6       1                               0D    204
     504     361                                                00010001D    205
     504                       5       1                               0D    206
     406     366                                                00000000D    207
     406                       1      15                               0D    208
     406     367                                                00000000D    209
     406                       1      15                               0D    210
     314     368                                                00000200D    211
     314                       2       0                               0D    212
408,5,0.,0.,0.,1.,0,1,209;                                             1P      1
124,0.999999999999999,0.,-2.77555756156289D-17,0.,                     3P      2
2.77555756156289D-17,0.,1.,-5.55111512312578D-16,0.,-1.,0.,25.5;       3P      3
308,0,19HPower Button Nut v1,1,7;                                      5P      4
186,11,1,0,0,1,207;                                                    7P      5
186,13,1,0,0,1,207;                                                    9P      6
514,9,15,1,17,1,19,1,21,1,23,1,25,1,27,1,29,1,31,1;                   11P      7
514,8,33,1,35,1,37,1,39,1,41,1,43,1,45,1,47,1;                        13P      8
510,165,1,1,49;                                                       15P      9
510,167,1,1,51;                                                       17P     10
510,169,1,1,53;                                                       19P     11
510,171,1,1,55;                                                       21P     12
510,173,1,1,57;                                                       23P     13
510,175,1,1,59;                                                       25P     14
510,177,1,1,61;                                                       27P     15
510,179,2,1,63,65;                                                    29P     16
510,181,2,1,67,69;                                                    31P     17
510,183,1,1,71;                                                       33P     18
510,185,1,1,73;                                                       35P     19
510,187,2,1,75,77;                                                    37P     20
510,189,1,1,79;                                                       39P     21
510,191,2,1,81,83;                                                    41P     22
510,193,1,1,85;                                                       43P     23
510,195,1,1,87;                                                       45P     24
510,197,1,1,89;                                                       47P     25
508,4,0,203,1,0,0,0,203,2,1,0,0,203,3,1,0,0,203,2,0,0;                49P     26
508,4,0,203,4,0,0,0,203,5,1,0,0,203,6,0,0,0,203,7,0,0;                51P     27
508,4,0,203,8,0,0,0,203,7,1,0,0,203,9,0,0,0,203,10,0,0;               53P     28
508,4,0,203,11,0,0,0,203,10,1,0,0,203,12,0,0,0,203,13,0,0;            55P     29
508,4,0,203,14,0,0,0,203,13,1,0,0,203,15,0,0,0,203,16,0,0;            57P     30
508,4,0,203,17,0,0,0,203,16,1,0,0,203,18,0,0,0,203,19,0,0;            59P     31
508,4,0,203,20,0,0,0,203,19,1,0,0,203,21,0,0,0,203,5,0,0;             61P     32
508,6,0,203,21,1,0,0,203,18,1,0,0,203,15,1,0,0,203,12,1,0,0,203,      63P     33
9,1,0,0,203,6,1,0;                                                    63P     34
508,1,0,203,1,1,0;                                                    65P     35
508,6,0,203,20,1,0,0,203,4,1,0,0,203,8,1,0,0,203,11,1,0,0,203,        67P     36
14,1,0,0,203,17,1,0;                                                  67P     37
508,1,0,203,3,0,0;                                                    69P     38
508,4,0,205,1,0,0,0,205,2,1,0,0,205,3,0,0,0,205,2,0,0;                71P     39
508,1,0,205,1,1,0;                                                    73P     40
508,2,0,205,4,1,0,0,205,5,1,0;                                        75P     41
508,2,0,205,6,0,0,0,205,7,0,0;                                        77P     42
508,6,0,205,8,0,0,0,205,9,0,0,0,205,10,1,0,0,205,7,1,0,0,205,6,       79P     43
1,0,0,205,10,0,0;                                                     79P     44
508,2,0,205,8,1,0,0,205,9,1,0;                                        81P     45
508,1,0,205,3,1,0;                                                    83P     46
508,2,0,205,11,0,0,0,205,12,0,0;                                      85P     47
508,6,0,205,13,0,0,0,205,14,0,0,0,205,15,1,0,0,205,12,1,0,0,205,      87P     48
11,1,0,0,205,15,0,0;                                                  87P     49
508,6,0,205,4,0,0,0,205,5,0,0,0,205,16,1,0,0,205,14,1,0,0,205,        89P     50
13,1,0,0,205,16,0,0;                                                  89P     51
126,8,2,0,1,0,0,-3.14159265358979,-3.14159265358979,                  91P     52
-3.14159265358979,-1.5707963267949,-1.5707963267949,0.,0.,            91P     53
1.5707963267949,1.5707963267949,3.14159265358979,                     91P     54
3.14159265358979,3.14159265358979,1.,0.707106781186547,1.,            91P     55
0.707106781186548,1.,0.707106781186548,1.,0.707106781186547,1.,       91P     56
-7.75,2.35,-9.49101269339199D-16,-7.75,2.35,-7.75,                    91P     57
4.74550634669599D-16,2.35,-7.75,7.75,2.35,-7.75,7.75,2.35,0.,         91P     58
7.75,2.35,7.75,4.74550634669599D-16,2.35,7.75,-7.75,2.35,7.75,        91P     59
-7.75,2.35,9.49101269339199D-16,-3.14159265358979,                    91P     60
3.14159265358979,0.,0.,0.;                                            91P     61
126,1,1,0,0,1,0,-0.303225806451613,-0.303225806451613,0.,0.,1.,       93P     62
1.,-7.75,2.35,0.,-7.75,0.,0.,-0.303225806451613,0.,0.,0.,0.;          93P     63
126,8,2,0,1,0,0,-3.14159265358979,-3.14159265358979,                  95P     64
-3.14159265358979,-1.5707963267949,-1.5707963267949,0.,0.,            95P     65
1.5707963267949,1.5707963267949,3.14159265358979,                     95P     66
3.14159265358979,3.14159265358979,1.,0.707106781186547,1.,            95P     67
0.707106781186548,1.,0.707106781186548,1.,0.707106781186547,1.,       95P     68
-7.75,0.,-9.49101269339199D-16,-7.75,0.,-7.75,                        95P     69
4.74550634669599D-16,0.,-7.75,7.75,0.,-7.75,7.75,0.,0.,7.75,0.,       95P     70
7.75,4.74550634669599D-16,0.,7.75,-7.75,0.,7.75,-7.75,0.,             95P     71
9.49101269339199D-16,-3.14159265358979,3.14159265358979,0.,0.,        95P     72
0.;                                                                   95P     73
126,1,1,0,0,1,0,0.,0.,1.08253175473055,1.08253175473055,1.,1.,        97P     74
-5.41265877365274,0.,9.375,-10.8253175473055,0.,                      97P     75
-6.66133814775094D-15,0.,1.08253175473055,0.,0.,0.;                   97P     76
126,1,1,0,0,1,0,0.,0.,0.235,0.235,1.,1.,-5.41265877365274,0.,         99P     77
9.375,-5.41265877365274,2.35,9.375,0.,0.235,0.,0.,0.;                 99P     78
126,1,1,0,0,1,0,-1.08253175473055,-1.08253175473055,0.,0.,1.,1.,     101P     79
-10.8253175473055,2.35,-6.66133814775094D-15,-5.41265877365274,      101P     80
2.35,9.375,-1.08253175473055,0.,0.,0.,0.;                            101P     81
126,1,1,0,0,1,0,0.,0.,0.235,0.235,1.,1.,-10.8253175473055,0.,        103P     82
-6.93889390390723D-15,-10.8253175473055,2.35,                        103P     83
-6.93889390390723D-15,0.,0.235,0.,0.,0.;                             103P     84
126,1,1,0,0,1,0,0.,0.,1.08253175473055,1.08253175473055,1.,1.,       105P     85
-10.8253175473055,0.,-6.93889390390723D-15,-5.41265877365275,0.,     105P     86
-9.375,0.,1.08253175473055,0.,0.,0.;                                 105P     87
126,1,1,0,0,1,0,-1.08253175473055,-1.08253175473055,0.,0.,1.,1.,     107P     88
-5.41265877365275,2.35,-9.375,-10.8253175473055,2.35,                107P     89
-6.93889390390723D-15,-1.08253175473055,0.,0.,0.,0.;                 107P     90
126,1,1,0,0,1,0,0.,0.,0.235,0.235,1.,1.,-5.41265877365274,0.,        109P     91
-9.375,-5.41265877365274,2.35,-9.375,0.,0.235,0.,0.,0.;              109P     92
126,1,1,0,0,1,0,-0.541265877365274,-0.541265877365274,               111P     93
0.541265877365274,0.541265877365274,1.,1.,-5.41265877365274,0.,      111P     94
-9.375,5.41265877365274,0.,-9.375,-0.541265877365274,                111P     95
0.541265877365274,0.,0.,0.;                                          111P     96
126,1,1,0,0,1,0,-0.541265877365274,-0.541265877365274,               113P     97
0.541265877365274,0.541265877365274,1.,1.,5.41265877365274,2.35,     113P     98
-9.375,-5.41265877365274,2.35,-9.375,-0.541265877365274,             113P     99
0.541265877365274,0.,0.,0.;                                          113P    100
126,1,1,0,0,1,0,0.,0.,0.235,0.235,1.,1.,5.41265877365274,0.,         115P    101
-9.375,5.41265877365274,2.35,-9.375,0.,0.235,0.,0.,0.;               115P    102
126,1,1,0,0,1,0,0.,0.,1.08253175473055,1.08253175473055,1.,1.,       117P    103
5.41265877365274,0.,-9.375,10.8253175473055,0.,                      117P    104
1.11022302462516D-15,0.,1.08253175473055,0.,0.,0.;                   117P    105
126,1,1,0,0,1,0,-1.08253175473055,-1.08253175473055,0.,0.,1.,1.,     119P    106
10.8253175473055,2.35,1.11022302462516D-15,5.41265877365274,         119P    107
2.35,-9.375,-1.08253175473055,0.,0.,0.,0.;                           119P    108
126,1,1,0,0,1,0,0.,0.,0.235,0.235,1.,1.,10.8253175473055,0.,         121P    109
7.63278329429795D-16,10.8253175473055,2.35,7.63278329429795D-16,     121P    110
0.,0.235,0.,0.,0.;                                                   121P    111
126,1,1,0,0,1,0,0.,0.,1.08253175473055,1.08253175473055,1.,1.,       123P    112
10.8253175473055,0.,7.63278329429795D-16,5.41265877365274,0.,        123P    113
9.375,0.,1.08253175473055,0.,0.,0.;                                  123P    114
126,1,1,0,0,1,0,-1.08253175473055,-1.08253175473055,0.,0.,1.,1.,     125P    115
5.41265877365274,2.35,9.375,10.8253175473055,2.35,                   125P    116
7.63278329429795D-16,-1.08253175473055,0.,0.,0.,0.;                  125P    117
126,1,1,0,0,1,0,0.,0.,0.235,0.235,1.,1.,5.41265877365274,0.,         127P    118
9.375,5.41265877365274,2.35,9.375,0.,0.235,0.,0.,0.;                 127P    119
126,1,1,0,0,1,0,-0.541265877365274,-0.541265877365274,               129P    120
0.541265877365274,0.541265877365274,1.,1.,5.41265877365274,0.,       129P    121
9.375,-5.41265877365274,0.,9.375,-0.541265877365274,                 129P    122
0.541265877365274,0.,0.,0.;                                          129P    123
126,1,1,0,0,1,0,-0.541265877365274,-0.541265877365274,               131P    124
0.541265877365274,0.541265877365274,1.,1.,-5.41265877365274,         131P    125
2.35,9.375,5.41265877365274,2.35,9.375,-0.541265877365274,           131P    126
0.541265877365274,0.,0.,0.;                                          131P    127
126,8,2,0,1,0,0,-3.14159265358979,-3.14159265358979,                 133P    128
-3.14159265358979,-1.5707963267949,-1.5707963267949,0.,0.,           133P    129
1.5707963267949,1.5707963267949,3.14159265358979,                    133P    130
3.14159265358979,3.14159265358979,1.,0.707106781186548,1.,           133P    131
0.707106781186548,1.,0.707106781186548,1.,0.707106781186548,1.,      133P    132
-7.5,9.18485099360515D-16,-7.5,-7.5,7.5,-7.5,                        133P    133
4.59242549680257D-16,7.5,-7.5,7.5,7.5,-7.5,7.5,0.,-7.5,7.5,-7.5,     133P    134
-7.5,4.59242549680257D-16,-7.5,-7.5,-7.5,-7.5,-7.5,-7.5,             133P    135
-9.18485099360515D-16,-7.5,-3.14159265358979,3.14159265358979,       133P    136
0.,0.,0.;                                                            133P    137
126,1,1,0,0,1,0,-1.,-1.,0.,0.,1.,1.,-7.5,0.,-7.5,-7.5,0.,            135P    138
6.16297582203915D-32,-1.,0.,0.,0.,0.;                                135P    139
126,8,2,0,1,0,0,-3.14159265358979,-3.14159265358979,                 137P    140
-3.14159265358979,-1.5707963267949,-1.5707963267949,0.,0.,           137P    141
1.5707963267949,1.5707963267949,3.14159265358979,                    137P    142
3.14159265358979,3.14159265358979,1.,0.707106781186548,1.,           137P    143
0.707106781186548,1.,0.707106781186548,1.,0.707106781186548,1.,      137P    144
-7.5,-9.18485099360515D-16,6.16297582203915D-32,-7.5,-7.5,           137P    145
6.16297582203915D-32,4.59242549680257D-16,-7.5,                      137P    146
6.16297582203915D-32,7.5,-7.5,6.16297582203915D-32,7.5,0.,           137P    147
6.16297582203915D-32,7.5,7.5,6.16297582203915D-32,                   137P    148
4.59242549680257D-16,7.5,6.16297582203915D-32,-7.5,7.5,              137P    149
6.16297582203915D-32,-7.5,9.18485099360515D-16,                      137P    150
6.16297582203915D-32,-3.14159265358979,3.14159265358979,0.,0.,       137P    151
0.;                                                                  137P    152
126,4,2,0,0,0,0,-3.14159265358979,-3.14159265358979,                 139P    153
-3.14159265358979,-1.5707963267949,-1.5707963267949,0.,0.,0.,1.,     139P    154
0.707106781186548,1.,0.707106781186548,1.,-8.875,                    139P    155
1.08687403424328D-15,26.,-8.875,8.875,26.,5.43437017121638D-16,      139P    156
8.875,26.,8.875,8.875,26.,8.875,0.,26.,-3.14159265358979,0.,0.,      139P    157
0.,0.;                                                               139P    158
126,4,2,0,0,0,0,0.,0.,0.,1.5707963267949,1.5707963267949,            141P    159
3.14159265358979,3.14159265358979,3.14159265358979,1.,               141P    160
0.707106781186548,1.,0.707106781186548,1.,8.875,0.,26.,8.875,        141P    161
-8.875,26.,5.43437017121638D-16,-8.875,26.,-8.875,-8.875,26.,        141P    162
-8.875,-1.08687403424328D-15,26.,0.,3.14159265358979,0.,0.,0.;       141P    163
126,4,2,0,0,0,0,-3.14159265358979,-3.14159265358979,                 143P    164
-3.14159265358979,-1.5707963267949,-1.5707963267949,0.,0.,0.,1.,     143P    165
0.707106781186548,1.,0.707106781186548,1.,-7.75,                     143P    166
9.49101269339199D-16,26.,-7.75,7.75,26.,4.74550634669599D-16,        143P    167
7.75,26.,7.75,7.75,26.,7.75,0.,26.,-3.14159265358979,0.,0.,0.,       143P    168
0.;                                                                  143P    169
126,4,2,0,0,0,0,0.,0.,0.,1.5707963267949,1.5707963267949,            145P    170
3.14159265358979,3.14159265358979,3.14159265358979,1.,               145P    171
0.707106781186548,1.,0.707106781186548,1.,7.75,0.,26.,7.75,          145P    172
-7.75,26.,4.74550634669599D-16,-7.75,26.,-7.75,-7.75,26.,-7.75,      145P    173
-9.49101269339199D-16,26.,0.,3.14159265358979,0.,0.,0.;              145P    174
126,4,2,0,0,0,0,-3.14159265358979,-3.14159265358979,                 147P    175
-3.14159265358979,-1.5707963267949,-1.5707963267949,0.,0.,0.,1.,     147P    176
0.707106781186547,1.,0.707106781186548,1.,-7.75,                     147P    177
9.49101269339199D-16,0.,-7.75,7.75,0.,4.74550634669599D-16,7.75,     147P    178
0.,7.75,7.75,0.,7.75,0.,0.,-3.14159265358979,0.,0.,0.,0.;            147P    179
126,4,2,0,0,0,0,0.,0.,0.,1.5707963267949,1.5707963267949,            149P    180
3.14159265358979,3.14159265358979,3.14159265358979,1.,               149P    181
0.707106781186548,1.,0.707106781186547,1.,7.75,0.,0.,7.75,-7.75,     149P    182
0.,4.74550634669599D-16,-7.75,0.,-7.75,-7.75,0.,-7.75,               149P    183
-9.49101269339199D-16,0.,0.,3.14159265358979,0.,0.,0.;               149P    184
126,1,1,0,0,1,0,-1.67741935483871,-1.67741935483871,                 151P    185
1.67741935483871,1.67741935483871,1.,1.,7.75,0.,0.,7.75,0.,26.,      151P    186
-1.67741935483871,1.67741935483871,0.,0.,0.;                         151P    187
126,4,2,0,0,0,0,-3.14159265358979,-3.14159265358979,                 153P    188
-3.14159265358979,-1.5707963267949,-1.5707963267949,0.,0.,0.,1.,     153P    189
0.707106781186548,1.,0.707106781186548,1.,-5.875,                    153P    190
7.1947999449907D-16,27.8,-5.875,5.875,27.8,3.59739997249535D-16,     153P    191
5.875,27.8,5.875,5.875,27.8,5.875,0.,27.8,-3.14159265358979,0.,      153P    192
0.,0.,0.;                                                            153P    193
126,4,2,0,0,0,0,0.,0.,0.,1.5707963267949,1.5707963267949,            155P    194
3.14159265358979,3.14159265358979,3.14159265358979,1.,               155P    195
0.707106781186548,1.,0.707106781186548,1.,5.875,0.,27.8,5.875,       155P    196
-5.875,27.8,3.59739997249535D-16,-5.875,27.8,-5.875,-5.875,27.8,     155P    197
-5.875,-7.1947999449907D-16,27.8,0.,3.14159265358979,0.,0.,0.;       155P    198
126,4,2,0,0,0,0,-3.14159265358979,-3.14159265358979,                 157P    199
-3.14159265358979,-1.5707963267949,-1.5707963267949,0.,0.,0.,1.,     157P    200
0.707106781186548,1.,0.707106781186548,1.,-8.875,                    157P    201
1.08687403424328D-15,27.,-8.875,8.875,27.,5.43437017121638D-16,      157P    202
8.875,27.,8.875,8.875,27.,8.875,0.,27.,-3.14159265358979,0.,0.,      157P    203
0.,0.;                                                               157P    204
126,4,2,0,0,0,0,0.,0.,0.,1.5707963267949,1.5707963267949,            159P    205
3.14159265358979,3.14159265358979,3.14159265358979,1.,               159P    206
0.707106781186548,1.,0.707106781186548,1.,8.875,0.,27.,8.875,        159P    207
-8.875,27.,5.43437017121638D-16,-8.875,27.,-8.875,-8.875,27.,        159P    208
-8.875,-1.08687403424328D-15,27.,0.,3.14159265358979,0.,0.,0.;       159P    209
126,1,1,0,0,1,0,-0.210497284017085,-0.210497284017085,               161P    210
0.210497284017085,0.210497284017085,1.,1.,8.875,0.,27.,5.875,0.,     161P    211
27.8,-0.210497284017085,0.210497284017085,0.,0.,0.;                  161P    212
126,1,1,0,0,1,0,-0.0563380281690144,-0.0563380281690144,             163P    213
0.0563380281690139,0.0563380281690139,1.,1.,8.875,0.,26.,8.875,      163P    214
0.,27.,-0.0563380281690144,0.0563380281690139,0.,0.,0.;              163P    215
128,1,8,1,2,0,1,0,0,1,0.,0.,0.303225806451613,0.303225806451613,     165P    216
-3.14159265358979,-3.14159265358979,-3.14159265358979,               165P    217
-1.5707963267949,-1.5707963267949,0.,0.,1.5707963267949,             165P    218
1.5707963267949,3.14159265358979,3.14159265358979,                   165P    219
3.14159265358979,1.,1.,0.707106781186548,0.707106781186548,1.,       165P    220
1.,0.707106781186548,0.707106781186548,1.,1.,0.707106781186548,      165P    221
0.707106781186548,1.,1.,0.707106781186548,0.707106781186548,1.,      165P    222
1.,-7.75,0.,0.,-7.75,2.35,0.,-7.75,0.,7.75,-7.75,2.35,7.75,0.,       165P    223
0.,7.75,0.,2.35,7.75,7.75,0.,7.75,7.75,2.35,7.75,7.75,0.,0.,         165P    224
7.75,2.35,0.,7.75,0.,-7.75,7.75,2.35,-7.75,0.,0.,-7.75,0.,2.35,      165P    225
-7.75,-7.75,0.,-7.75,-7.75,2.35,-7.75,-7.75,0.,0.,-7.75,2.35,0.,     165P    226
0.,0.303225806451613,-3.14159265358979,3.14159265358979;             165P    227
128,1,1,1,1,0,0,1,0,0,-0.00100000000000002,-0.00100000000000002,     167P    228
1.08353175473055,1.08353175473055,-0.001,-0.001,0.236,0.236,1.,      167P    229
1.,1.,1.,-10.8303175473055,-0.01,-0.00866025403785121,               167P    230
-5.40765877365274,-0.01,9.38366025403784,-10.8303175473055,2.36,     167P    231
-0.00866025403785121,-5.40765877365274,2.36,9.38366025403784,        167P    232
-0.00100000000000002,1.08353175473055,-0.001,0.236;                  167P    233
128,1,1,1,1,0,0,1,0,0,-0.001,-0.001,1.08353175473055,                169P    234
1.08353175473055,-0.001,-0.001,0.236,0.236,1.,1.,1.,1.,              169P    235
-5.40765877365275,-0.01,-9.38366025403784,-10.8303175473055,         169P    236
-0.01,0.00866025403783666,-5.40765877365275,2.36,                    169P    237
-9.38366025403784,-10.8303175473055,2.36,0.00866025403783666,        169P    238
-0.001,1.08353175473055,-0.001,0.236;                                169P    239
128,1,1,1,1,0,0,1,0,0,-0.001,-0.001,1.08353175473055,                171P    240
1.08353175473055,-0.001,-0.001,0.236,0.236,1.,1.,1.,1.,              171P    241
5.42265877365274,-0.01,-9.375,-5.42265877365274,-0.01,-9.375,        171P    242
5.42265877365274,2.36,-9.375,-5.42265877365274,2.36,-9.375,          171P    243
-0.001,1.08353175473055,-0.001,0.236;                                171P    244
128,1,1,1,1,0,0,1,0,0,-0.001,-0.001,1.08353175473055,                173P    245
1.08353175473055,-0.001,-0.001,0.236,0.236,1.,1.,1.,1.,              173P    246
10.8303175473055,-0.01,0.0086602540378455,5.40765877365274,          173P    247
-0.01,-9.38366025403784,10.8303175473055,2.36,                       173P    248
0.0086602540378455,5.40765877365274,2.36,-9.38366025403784,          173P    249
-0.001,1.08353175473055,-0.001,0.236;                                173P    250
128,1,1,1,1,0,0,1,0,0,-0.001,-0.001,1.08353175473055,                175P    251
1.08353175473055,-0.001,-0.001,0.236,0.236,1.,1.,1.,1.,              175P    252
5.40765877365274,-0.01,9.38366025403784,10.8303175473055,-0.01,      175P    253
-0.00866025403784332,5.40765877365274,2.36,9.38366025403784,         175P    254
10.8303175473055,2.36,-0.00866025403784332,-0.001,                   175P    255
1.08353175473055,-0.001,0.236;                                       175P    256
128,1,1,1,1,0,0,1,0,0,-0.001,-0.001,1.08353175473055,                177P    257
1.08353175473055,-0.001,-0.001,0.236,0.236,1.,1.,1.,1.,              177P    258
-5.42265877365274,-0.01,9.375,5.42265877365274,-0.01,9.375,          177P    259
-5.42265877365274,2.36,9.375,5.42265877365274,2.36,9.375,-0.001,     177P    260
1.08353175473055,-0.001,0.236;                                       177P    261
128,1,1,1,1,0,0,1,0,0,-1.08353175473055,-1.08353175473055,           179P    262
1.08353175473055,1.08353175473055,-0.9385,-0.9385,0.9385,0.9385,     179P    263
1.,1.,1.,1.,-10.8353175473055,2.35,9.385,10.8353175473055,2.35,      179P    264
9.385,-10.8353175473055,2.35,-9.385,10.8353175473055,2.35,           179P    265
-9.385,-1.08353175473055,1.08353175473055,-0.9385,0.9385;            179P    266
128,1,1,1,1,0,0,1,0,0,-1.08353175473055,-1.08353175473055,           181P    267
1.08353175473055,1.08353175473055,-0.9385,-0.9385,0.9385,0.9385,     181P    268
1.,1.,1.,1.,10.8353175473055,0.,9.385,-10.8353175473055,0.,          181P    269
9.385,10.8353175473055,0.,-9.385,-10.8353175473055,0.,-9.385,        181P    270
-1.08353175473055,1.08353175473055,-0.9385,0.9385;                   181P    271
128,1,8,1,2,0,1,0,0,1,0.,0.,1.,1.,-3.14159265358979,                 183P    272
-3.14159265358979,-3.14159265358979,-1.5707963267949,                183P    273
-1.5707963267949,0.,0.,1.5707963267949,1.5707963267949,              183P    274
3.14159265358979,3.14159265358979,3.14159265358979,1.,1.,            183P    275
0.707106781186548,0.707106781186548,1.,1.,0.707106781186548,         183P    276
0.707106781186548,1.,1.,0.707106781186548,0.707106781186548,1.,      183P    277
1.,0.707106781186548,0.707106781186548,1.,1.,-7.5,0.,-7.5,-7.5,      183P    278
0.,6.16297582203915D-32,-7.5,7.5,-7.5,-7.5,7.5,                      183P    279
6.16297582203915D-32,0.,7.5,-7.5,0.,7.5,6.16297582203915D-32,        183P    280
7.5,7.5,-7.5,7.5,7.5,6.16297582203915D-32,7.5,0.,-7.5,7.5,0.,        183P    281
6.16297582203915D-32,7.5,-7.5,-7.5,7.5,-7.5,                         183P    282
6.16297582203915D-32,0.,-7.5,-7.5,0.,-7.5,6.16297582203915D-32,      183P    283
-7.5,-7.5,-7.5,-7.5,-7.5,6.16297582203915D-32,-7.5,0.,-7.5,-7.5,     183P    284
0.,6.16297582203915D-32,0.,1.,-3.14159265358979,                     183P    285
3.14159265358979;                                                    183P    286
128,1,1,1,1,0,0,1,0,0,-0.751,-0.751,0.751,0.751,-0.751,-0.751,       185P    287
0.751,0.751,1.,1.,1.,1.,-7.51,7.51,-7.5,7.51,7.51,-7.5,-7.51,        185P    288
-7.51,-7.5,7.51,-7.51,-7.5,-0.751,0.751,-0.751,0.751;                185P    289
128,1,1,1,1,0,0,1,0,0,-1.6635,-1.6635,0.1135,0.1135,-0.8885,         187P    290
-0.8885,0.8885,0.8885,1.,1.,1.,1.,8.885,-8.885,26.,-8.885,           187P    291
-8.885,26.,8.885,8.885,26.,-8.885,8.885,26.,-1.6635,0.1135,          187P    292
-0.8885,0.8885;                                                      187P    293
128,1,8,1,2,0,1,0,0,1,-1.67741935483871,-1.67741935483871,           189P    294
1.67741935483871,1.67741935483871,-3.14159265358979,                 189P    295
-3.14159265358979,-3.14159265358979,-1.5707963267949,                189P    296
-1.5707963267949,0.,0.,1.5707963267949,1.5707963267949,              189P    297
3.14159265358979,3.14159265358979,3.14159265358979,1.,1.,            189P    298
0.707106781186548,0.707106781186548,1.,1.,0.707106781186548,         189P    299
0.707106781186548,1.,1.,0.707106781186548,0.707106781186548,1.,      189P    300
1.,0.707106781186548,0.707106781186548,1.,1.,7.75,0.,0.,7.75,0.,     189P    301
26.,7.75,-7.75,0.,7.75,-7.75,26.,0.,-7.75,0.,0.,-7.75,26.,-7.75,     189P    302
-7.75,0.,-7.75,-7.75,26.,-7.75,0.,0.,-7.75,0.,26.,-7.75,7.75,0.,     189P    303
-7.75,7.75,26.,0.,7.75,0.,0.,7.75,26.,7.75,7.75,0.,7.75,7.75,        189P    304
26.,7.75,0.,0.,7.75,0.,26.,-1.67741935483871,1.67741935483871,       189P    305
-3.14159265358979,3.14159265358979;                                  189P    306
128,1,1,1,1,0,0,1,0,0,-0.776,-0.776,0.776,0.776,-0.776,-0.776,       191P    307
0.776,0.776,1.,1.,1.,1.,7.76,-7.76,6.16297582203915D-32,-7.76,       191P    308
-7.76,6.16297582203915D-32,7.76,7.76,6.16297582203915D-32,-7.76,     191P    309
7.76,6.16297582203915D-32,-0.776,0.776,-0.776,0.776;                 191P    310
128,1,1,1,1,0,0,1,0,0,-0.001,-0.001,1.176,1.176,-0.5885,-0.5885,     193P    311
0.5885,0.5885,1.,1.,1.,1.,-5.885,-5.885,27.8,5.885,-5.885,27.8,      193P    312
-5.885,5.885,27.8,5.885,5.885,27.8,-0.001,1.176,-0.5885,0.5885;      193P    313
128,1,8,1,2,0,1,0,0,1,-0.210497284017085,-0.210497284017085,         195P    314
0.210497284017085,0.210497284017085,-3.14159265358979,               195P    315
-3.14159265358979,-3.14159265358979,-1.5707963267949,                195P    316
-1.5707963267949,0.,0.,1.5707963267949,1.5707963267949,              195P    317
3.14159265358979,3.14159265358979,3.14159265358979,1.,1.,            195P    318
0.707106781186548,0.707106781186548,1.,1.,0.707106781186548,         195P    319
0.707106781186548,1.,1.,0.707106781186548,0.707106781186548,1.,      195P    320
1.,0.707106781186548,0.707106781186548,1.,1.,8.875,0.,27.,5.875,     195P    321
0.,27.8,8.875,-8.875,27.,5.875,-5.875,27.8,0.,-8.875,27.,0.,         195P    322
-5.875,27.8,-8.875,-8.875,27.,-5.875,-5.875,27.8,-8.875,0.,27.,      195P    323
-5.875,0.,27.8,-8.875,8.875,27.,-5.875,5.875,27.8,0.,8.875,27.,      195P    324
0.,5.875,27.8,8.875,8.875,27.,5.875,5.875,27.8,8.875,0.,27.,         195P    325
5.875,0.,27.8,-0.210497284017085,0.210497284017085,                  195P    326
-3.14159265358979,3.14159265358979;                                  195P    327
128,1,8,1,2,0,1,0,0,1,-0.0563380281690139,-0.0563380281690139,       197P    328
0.0563380281690144,0.0563380281690144,-3.14159265358979,             197P    329
-3.14159265358979,-3.14159265358979,-1.5707963267949,                197P    330
-1.5707963267949,0.,0.,1.5707963267949,1.5707963267949,              197P    331
3.14159265358979,3.14159265358979,3.14159265358979,1.,1.,            197P    332
0.707106781186548,0.707106781186548,1.,1.,0.707106781186548,         197P    333
0.707106781186548,1.,1.,0.707106781186548,0.707106781186548,1.,      197P    334
1.,0.707106781186548,0.707106781186548,1.,1.,8.875,0.,26.,8.875,     197P    335
0.,27.,8.875,-8.875,26.,8.875,-8.875,27.,0.,-8.875,26.,0.,           197P    336
-8.875,27.,-8.875,-8.875,26.,-8.875,-8.875,27.,-8.875,0.,26.,        197P    337
-8.875,0.,27.,-8.875,8.875,26.,-8.875,8.875,27.,0.,8.875,26.,0.,     197P    338
8.875,27.,8.875,8.875,26.,8.875,8.875,27.,8.875,0.,26.,8.875,0.,     197P    339
27.,-0.0563380281690139,0.0563380281690144,-3.14159265358979,        197P    340
3.14159265358979;                                                    197P    341
502,14,-7.75,2.35,9.49101269339199D-16,-7.75,0.,                     199P    342
9.49101269339199D-16,-5.41265877365274,0.,9.375,                     199P    343
-10.8253175473055,0.,-6.93889390390723D-15,-5.41265877365274,        199P    344
2.35,9.375,-10.8253175473055,2.35,-6.93889390390723D-15,             199P    345
-5.41265877365274,0.,-9.375,-5.41265877365274,2.35,-9.375,           199P    346
5.41265877365274,0.,-9.375,5.41265877365274,2.35,-9.375,             199P    347
10.8253175473055,0.,7.63278329429795D-16,10.8253175473055,2.35,      199P    348
7.63278329429795D-16,5.41265877365274,0.,9.375,5.41265877365274,     199P    349
2.35,9.375;                                                          199P    350
502,12,-7.5,9.18485099360515D-16,-7.5,-7.5,9.18485099360515D-16,     201P    351
6.16297582203915D-32,-8.875,0.,26.,8.875,0.,26.,-7.75,0.,26.,        201P    352
7.75,0.,26.,-7.75,0.,-4.74550634669599D-16,7.75,0.,0.,-5.875,0.,     201P    353
27.8,5.875,0.,27.8,-8.875,0.,27.,8.875,0.,27.;                       201P    354
504,21,91,199,1,199,1,93,199,1,199,2,95,199,2,199,2,97,199,3,        203P    355
199,4,99,199,3,199,5,101,199,6,199,5,103,199,4,199,6,105,199,4,      203P    356
199,7,107,199,8,199,6,109,199,7,199,8,111,199,7,199,9,113,199,       203P    357
10,199,8,115,199,9,199,10,117,199,9,199,11,119,199,12,199,10,        203P    358
121,199,11,199,12,123,199,11,199,13,125,199,14,199,12,127,199,       203P    359
13,199,14,129,199,13,199,3,131,199,5,199,14;                         203P    360
504,16,133,201,1,201,1,135,201,1,201,2,137,201,2,201,2,139,201,      205P    361
3,201,4,141,201,4,201,3,143,201,5,201,6,145,201,6,201,5,147,201,     205P    362
7,201,8,149,201,8,201,7,151,201,8,201,6,153,201,9,201,10,155,        205P    363
201,10,201,9,157,201,11,201,12,159,201,12,201,11,161,201,12,201,     205P    364
10,163,201,4,201,12;                                                 205P    365
406,1,5HBody1;                                                       207P    366
406,1,21HPower Button Nut v1:1;                                      209P    367
314,62.7450980392157,62.7450980392157,62.7450980392157,13HSteel      211P    368
- Satin;                                                             211P    369
S      1G      3D    212P    369                                        T      1
