                                                                        S      1
,,26Hwaschbaekenunterschrank v1,26Hwaschbaekenunterschrank v1,7Hunknown,G      1
7Hunknown,32,38,7,99,15,,1.,2,2HMM,1,0.08,15H20250912.001556,0.01,      G      2
10000.,7Hunknown,7Hunknown,11,0,15H20240511.214837;                     G      3
     186       1                                                00000000D      1
     186            -215       1       0                               0D      2
     514       2                                                00010000D      3
     514                       2       1                               0D      4
     510       4                                                00010000D      5
     510            -215       1       1                               0D      6
     510       5                                                00010000D      7
     510            -215       1       1                               0D      8
     510       6                                                00010000D      9
     510            -215       1       1                               0D     10
     510       7                                                00010000D     11
     510            -215       1       1                               0D     12
     510       8                                                00010000D     13
     510            -215       1       1                               0D     14
     510       9                                                00010000D     15
     510            -215       1       1                               0D     16
     510      10                                                00010000D     17
     510            -215       1       1                               0D     18
     510      11                                                00010000D     19
     510            -215       1       1                               0D     20
     510      12                                                00010000D     21
     510            -215       1       1                               0D     22
     510      13                                                00010000D     23
     510            -215       1       1                               0D     24
     510      14                                                00010000D     25
     510            -215       1       1                               0D     26
     510      15                                                00010000D     27
     510            -215       1       1                               0D     28
     510      16                                                00010000D     29
     510            -215       1       1                               0D     30
     510      17                                                00010000D     31
     510            -215       1       1                               0D     32
     510      18                                                00010000D     33
     510            -215       1       1                               0D     34
     510      19                                                00010000D     35
     510            -215       1       1                               0D     36
     510      20                                                00010000D     37
     510            -215       1       1                               0D     38
     510      21                                                00010000D     39
     510            -215       1       1                               0D     40
     508      22                                                00010000D     41
     508                       1       1                               0D     42
     508      23                                                00010000D     43
     508                       1       1                               0D     44
     508      24                                                00010000D     45
     508                       1       1                               0D     46
     508      25                                                00010000D     47
     508                       2       1                               0D     48
     508      27                                                00010000D     49
     508                       1       1                               0D     50
     508      28                                                00010000D     51
     508                       1       1                               0D     52
     508      29                                                00010000D     53
     508                       1       1                               0D     54
     508      30                                                00010000D     55
     508                       2       1                               0D     56
     508      32                                                00010000D     57
     508                       1       1                               0D     58
     508      33                                                00010000D     59
     508                       2       1                               0D     60
     508      35                                                00010000D     61
     508                       1       1                               0D     62
     508      36                                                00010000D     63
     508                       1       1                               0D     64
     508      37                                                00010000D     65
     508                       1       1                               0D     66
     508      38                                                00010000D     67
     508                       2       1                               0D     68
     508      40                                                00010000D     69
     508                       1       1                               0D     70
     508      41                                                00010000D     71
     508                       1       1                               0D     72
     508      42                                                00010000D     73
     508                       2       1                               0D     74
     508      44                                                00010000D     75
     508                       2       1                               0D     76
     126      46                                                00010000D     77
     126       0               4       0                               0D     78
     126      50                                                00010000D     79
     126       0               2       0                               0D     80
     126      52                                                00010000D     81
     126       0               3       0                               0D     82
     126      55                                                00010000D     83
     126       0               3       0                               0D     84
     126      58                                                00010000D     85
     126       0               8       0                               0D     86
     126      66                                                00010000D     87
     126       0               4       0                               0D     88
     126      70                                                00010000D     89
     126       0               8       0                               0D     90
     126      78                                                00010000D     91
     126       0               4       0                               0D     92
     126      82                                                00010000D     93
     126       0               3       0                               0D     94
     126      85                                                00010000D     95
     126       0               2       0                               0D     96
     126      87                                                00010000D     97
     126       0               2       0                               0D     98
     126      89                                                00010000D     99
     126       0               2       0                               0D    100
     126      91                                                00010000D    101
     126       0               3       0                               0D    102
     126      94                                                00010000D    103
     126       0               2       0                               0D    104
     126      96                                                00010000D    105
     126       0               2       0                               0D    106
     126      98                                                00010000D    107
     126       0               2       0                               0D    108
     126     100                                                00010000D    109
     126       0               3       0                               0D    110
     126     103                                                00010000D    111
     126       0               3       0                               0D    112
     126     106                                                00010000D    113
     126       0               3       0                               0D    114
     126     109                                                00010000D    115
     126       0               3       0                               0D    116
     126     112                                                00010000D    117
     126       0               7       0                               0D    118
     126     119                                                00010000D    119
     126       0               7       0                               0D    120
     126     126                                                00010000D    121
     126       0               3       0                               0D    122
     126     129                                                00010000D    123
     126       0               3       0                               0D    124
     126     132                                                00010000D    125
     126       0               3       0                               0D    126
     126     135                                                00010000D    127
     126       0               2       0                               0D    128
     126     137                                                00010000D    129
     126       0               7       0                               0D    130
     126     144                                                00010000D    131
     126       0               3       0                               0D    132
     126     147                                                00010000D    133
     126       0               2       0                               0D    134
     126     149                                                00010000D    135
     126       0               3       0                               0D    136
     126     152                                                00010000D    137
     126       0               3       0                               0D    138
     126     155                                                00010000D    139
     126       0               2       0                               0D    140
     126     157                                                00010000D    141
     126       0               2       0                               0D    142
     126     159                                                00010000D    143
     126       0               2       0                               0D    144
     126     161                                                00010000D    145
     126       0               3       0                               0D    146
     126     164                                                00010000D    147
     126       0               7       0                               0D    148
     126     171                                                00010000D    149
     126       0               3       0                               0D    150
     126     174                                                00010000D    151
     126       0               3       0                               0D    152
     126     177                                                00010000D    153
     126       0               2       0                               0D    154
     126     179                                                00010000D    155
     126       0               3       0                               0D    156
     126     182                                                00010000D    157
     126       0               7       0                               0D    158
     126     189                                                00010000D    159
     126       0               2       0                               0D    160
     126     191                                                00010000D    161
     126       0               2       0                               0D    162
     126     193                                                00010000D    163
     126       0               2       0                               0D    164
     126     195                                                00010000D    165
     126       0               2       0                               0D    166
     126     197                                                00010000D    167
     126       0               2       0                               0D    168
     126     199                                                00010000D    169
     126       0               3       0                               0D    170
     126     202                                                00010000D    171
     126       0               7       0                               0D    172
     128     209                                                00010000D    173
     128       0    -215       7       0                               0D    174
     128     216                                                00010000D    175
     128       0    -215      16       0                               0D    176
     128     232                                                00010000D    177
     128       0    -215       8       0                               0D    178
     128     240                                                00010000D    179
     128       0    -215       5       0                               0D    180
     128     245                                                00010000D    181
     128       0    -215       5       0                               0D    182
     128     250                                                00010000D    183
     128       0    -215      12       0                               0D    184
     128     262                                                00010000D    185
     128       0    -215       5       0                               0D    186
     128     267                                                00010000D    187
     128       0    -215       4       0                               0D    188
     128     271                                                00010000D    189
     128       0    -215       4       0                               0D    190
     128     275                                                00010000D    191
     128       0    -215       4       0                               0D    192
     128     279                                                00010000D    193
     128       0    -215       4       0                               0D    194
     128     283                                                00010000D    195
     128       0    -215      13       0                               0D    196
     128     296                                                00010000D    197
     128       0    -215       5       0                               0D    198
     128     301                                                00010000D    199
     128       0    -215       5       0                               0D    200
     128     306                                                00010000D    201
     128       0    -215       4       0                               0D    202
     128     310                                                00010000D    203
     128       0    -215      13       0                               0D    204
     128     323                                                00010000D    205
     128       0    -215       4       0                               0D    206
     128     327                                                00010000D    207
     128       0    -215       4       0                               0D    208
     502     331                                                00010000D    209
     502                      16       1                               0D    210
     504     347                                                00010001D    211
     504                      14       1                               0D    212
     406     361                                                00000000D    213
     406                       1      15                               0D    214
     314     362                                                00000200D    215
     314                       2       0                               0D    216
186,3,1,0,0,1,213;                                                     1P      1
514,18,5,1,7,1,9,1,11,1,13,1,15,1,17,1,19,1,21,1,23,1,25,1,27,1,       3P      2
29,1,31,1,33,1,35,1,37,1,39,1;                                         3P      3
510,173,1,1,41;                                                        5P      4
510,175,1,1,43;                                                        7P      5
510,177,1,1,45;                                                        9P      6
510,179,1,1,47;                                                       11P      7
510,181,1,1,49;                                                       13P      8
510,183,1,1,51;                                                       15P      9
510,185,1,1,53;                                                       17P     10
510,187,1,1,55;                                                       19P     11
510,189,1,1,57;                                                       21P     12
510,191,1,1,59;                                                       23P     13
510,193,1,1,61;                                                       25P     14
510,195,1,1,63;                                                       27P     15
510,197,1,1,65;                                                       29P     16
510,199,1,1,67;                                                       31P     17
510,201,1,1,69;                                                       33P     18
510,203,1,1,71;                                                       35P     19
510,205,1,1,73;                                                       37P     20
510,207,1,1,75;                                                       39P     21
508,4,0,211,1,1,0,0,211,2,0,0,0,211,3,1,0,0,211,4,1,0;                41P     22
508,4,0,211,3,0,0,0,211,5,0,0,0,211,6,1,0,0,211,7,1,0;                43P     23
508,4,0,211,8,1,0,0,211,9,1,0,0,211,6,0,0,0,211,10,0,0;               45P     24
508,8,0,211,8,0,0,0,211,11,0,0,0,211,12,1,0,0,211,13,0,0,0,211,       47P     25
14,0,0,0,211,15,0,0,0,211,16,0,0,0,211,17,0,0;                        47P     26
508,4,0,211,18,1,0,0,211,16,1,0,0,211,19,0,0,0,211,20,0,0;            49P     27
508,4,0,211,21,0,0,0,211,20,1,0,0,211,22,0,0,0,211,23,0,0;            51P     28
508,4,0,211,24,1,0,0,211,23,1,0,0,211,25,0,0,0,211,26,0,0;            53P     29
508,8,0,211,27,0,0,0,211,28,0,0,0,211,29,1,0,0,211,25,1,0,0,211,      55P     30
22,1,0,0,211,19,1,0,0,211,15,1,0,0,211,30,0,0;                        55P     31
508,4,0,211,28,1,0,0,211,31,1,0,0,211,32,0,0,0,211,33,0,0;            57P     32
508,8,0,211,5,1,0,0,211,2,1,0,0,211,34,1,0,0,211,35,0,0,0,211,        59P     33
36,0,0,0,211,37,0,0,0,211,11,1,0,0,211,10,1,0;                        59P     34
508,4,0,211,37,1,0,0,211,38,1,0,0,211,39,0,0,0,211,12,0,0;            61P     35
508,4,0,211,36,1,0,0,211,40,1,0,0,211,41,0,0,0,211,38,0,0;            63P     36
508,4,0,211,35,1,0,0,211,42,1,0,0,211,43,0,0,0,211,40,0,0;            65P     37
508,8,0,211,1,0,0,0,211,44,0,0,0,211,26,1,0,0,211,29,0,0,0,211,       67P     38
33,1,0,0,211,45,0,0,0,211,42,0,0,0,211,34,0,0;                        67P     39
508,4,0,211,30,1,0,0,211,14,1,0,0,211,46,0,0,0,211,47,0,0;            69P     40
508,4,0,211,27,1,0,0,211,47,1,0,0,211,48,0,0,0,211,31,0,0;            71P     41
508,8,0,211,32,1,0,0,211,48,1,0,0,211,46,1,0,0,211,13,1,0,0,211,      73P     42
39,1,0,0,211,41,1,0,0,211,43,1,0,0,211,45,1,0;                        73P     43
508,8,0,211,9,0,0,0,211,17,1,0,0,211,18,0,0,0,211,21,1,0,0,211,       75P     44
24,0,0,0,211,44,1,0,0,211,4,0,0,0,211,7,0,0;                          75P     45
126,1,1,0,0,1,0,0.141421356237314,0.141421356237314,                  77P     46
0.565685424949242,0.565685424949242,1.,1.,-84.5,                      77P     47
-1.52655665885959D-15,155.,-87.5,2.99999999999999,155.,               77P     48
0.141421356237314,0.565685424949242,0.,0.,0.;                         77P     49
126,1,1,0,0,1,0,-15.5,-15.5,0.,0.,1.,1.,-87.4999999999999,3.,         79P     50
-1.77635683940025D-14,-87.5,3.,155.,-15.5,0.,0.,0.,0.;                79P     51
126,1,1,0,0,1,0,0.,0.,0.424264068711928,0.424264068711928,1.,1.,      81P     52
-87.4999999999999,3.,-3.56330608481271D-14,-84.4999999999999,0.,      81P     53
-3.33066907387547D-14,0.,0.424264068711928,0.,0.,0.;                  81P     54
126,1,1,0,0,1,0,-1.9375,-1.9375,13.5625,13.5625,1.,1.,                83P     55
-84.4999999999999,0.,-3.33066907387547D-14,-84.5,0.,155.,             83P     56
-1.9375,13.5625,0.,0.,0.;                                             83P     57
126,4,2,0,0,0,0,4.12139574972611D-32,4.12139574972611D-32,            85P     58
4.12139574972611D-32,1.5707963267949,1.5707963267949,                 85P     59
3.14159265358979,3.14159265358979,3.14159265358979,1.,                85P     60
0.707106781186548,1.,0.707106781186547,1.,87.4999999999999,3.,        85P     61
2.49174013555877D-14,87.4999999999999,3.,-87.4999999999999,           85P     62
3.02752311018574D-14,3.,-87.4999999999999,-87.4999999999999,3.,       85P     63
-87.4999999999999,-87.4999999999999,3.,-3.56330608481271D-14,         85P     64
4.12139574972611D-32,3.14159265358979,0.,0.,0.;                       85P     65
126,1,1,0,0,1,0,0.,0.,0.424264068711929,0.424264068711929,1.,1.,      87P     66
87.4999999999999,3.,2.49174013555877D-14,84.4999999999999,            87P     67
-5.55111512312578D-16,2.40630904519676D-14,0.,0.424264068711929,      87P     68
0.,0.,0.;                                                             87P     69
126,4,2,0,0,0,0,4.41923408968041D-32,4.41923408968041D-32,            89P     70
4.41923408968041D-32,1.5707963267949,1.5707963267949,                 89P     71
3.14159265358979,3.14159265358979,3.14159265358979,1.,                89P     72
0.707106781186548,1.,0.707106781186547,1.,84.4999999999999,0.,        89P     73
2.40630904519676D-14,84.4999999999999,0.,-84.4999999999999,           89P     74
2.92372231783651D-14,0.,-84.4999999999999,-84.4999999999999,0.,       89P     75
-84.4999999999999,-84.4999999999999,0.,-3.44113559047627D-14,         89P     76
4.41923408968041D-32,3.14159265358979,0.,0.,0.;                       89P     77
126,1,1,0,0,1,0,-0.742462120245876,-0.742462120245876,                91P     78
-0.318198051533946,-0.318198051533946,1.,1.,87.5,                     91P     79
2.99999999999999,155.,84.5,-8.32667268468867D-15,155.,                91P     80
-0.742462120245876,-0.318198051533946,0.,0.,0.;                       91P     81
126,1,1,0,0,1,0,-5.8125,-5.8125,9.6875,9.6875,1.,1.,                  93P     82
84.4999999999999,0.,155.,84.4999999999999,0.,                         93P     83
1.77635683940025D-14,-5.8125,9.6875,0.,0.,0.;                         93P     84
126,1,1,0,0,1,0,-15.5,-15.5,0.,0.,1.,1.,87.5,3.,155.,                 95P     85
87.4999999999999,3.,2.49174013555877D-14,-15.5,0.,0.,0.,0.;           95P     86
126,1,1,0,0,1,0,-0.999999999999999,-0.999999999999999,0.,0.,1.,       97P     87
1.,77.5,3.,155.,87.5,3.,155.,-0.999999999999999,0.,0.,0.,0.;          97P     88
126,1,1,0,0,1,0,0.3,0.3,0.7,0.7,1.,1.,77.5,3.,155.,77.5,7.,155.,      99P     89
0.3,0.7,0.,0.,0.;                                                     99P     90
126,1,1,0,0,1,0,-1.5,-1.5,-0.999999999999999,-0.999999999999999,     101P     91
1.,1.,72.5,7.,155.,77.5,7.,155.,-1.5,-0.999999999999999,0.,0.,       101P     92
0.;                                                                  101P     93
126,1,1,0,0,1,0,0.3,0.3,0.7,0.7,1.,1.,72.5,3.,155.,72.5,7.,155.,     103P     94
0.3,0.7,0.,0.,0.;                                                    103P     95
126,1,1,0,0,1,0,-6.75,-6.75,-1.5,-1.5,1.,1.,20.,3.,155.,72.5,3.,     105P     96
155.,-6.75,-1.5,0.,0.,0.;                                            105P     97
126,1,1,0,0,1,0,0.,0.,0.3,0.3,1.,1.,20.,0.,155.,20.,3.,155.,0.,      107P     98
0.3,0.,0.,0.;                                                        107P     99
126,1,1,0,0,1,0,0.300000000000002,0.300000000000002,6.75,6.75,       109P    100
1.,1.,84.4999999999999,0.,155.,20.,0.,155.,0.300000000000002,        109P    101
6.75,0.,0.,0.;                                                       109P    102
126,1,1,0,0,1,0,1.99999999999999,1.99999999999999,15.5,15.5,1.,      111P    103
1.,19.9999999999999,0.,19.9999999999999,20.,0.,155.,                 111P    104
1.99999999999999,15.5,0.,0.,0.;                                      111P    105
126,1,1,0,0,1,0,1.99999999999999,1.99999999999999,15.5,15.5,1.,      113P    106
1.,19.9999999999999,3.,19.9999999999999,20.,3.,155.,                 113P    107
1.99999999999999,15.5,0.,0.,0.;                                      113P    108
126,1,1,0,0,1,0,0.,0.,0.3,0.3,1.,1.,19.9999999999999,0.,             115P    109
19.9999999999999,19.9999999999999,3.,19.9999999999999,0.,0.3,0.,     115P    110
0.,0.;                                                               115P    111
126,4,2,0,0,0,0,0.,0.,0.,1.5707963267949,1.5707963267949,            117P    112
3.14159265358979,3.14159265358979,3.14159265358979,1.,               117P    113
0.707106781186548,1.,0.707106781186547,1.,19.9999999999999,0.,       117P    114
19.9999999999999,19.9999999999999,0.,1.94861148182013D-14,           117P    115
3.11843021443235D-15,0.,2.66453525910038D-14,-19.9999999999999,      117P    116
0.,3.38045903638062D-14,-19.9999999999999,0.,19.9999999999999,       117P    117
0.,3.14159265358979,0.,0.,0.;                                        117P    118
126,4,2,0,0,0,0,-3.14159265358979,-3.14159265358979,                 119P    119
-3.14159265358979,-1.5707963267949,-1.5707963267949,0.,0.,0.,1.,     119P    120
0.707106781186547,1.,0.707106781186548,1.,-19.9999999999999,3.,      119P    121
19.9999999999999,-19.9999999999999,3.,3.38045903638062D-14,          119P    122
3.11843021443235D-15,3.,2.66453525910038D-14,19.9999999999999,       119P    123
3.,1.94861148182013D-14,19.9999999999999,3.,19.9999999999999,        119P    124
-3.14159265358979,0.,0.,0.,0.;                                       119P    125
126,1,1,0,0,1,0,0.,0.,0.3,0.3,1.,1.,-19.9999999999999,0.,            121P    126
19.9999999999999,-19.9999999999999,3.,19.9999999999999,0.,0.3,       121P    127
0.,0.,0.;                                                            121P    128
126,1,1,0,0,1,0,5.32907051820075D-15,5.32907051820075D-15,13.5,      123P    129
13.5,1.,1.,-20.,0.,155.,-19.9999999999999,0.,19.9999999999999,       123P    130
5.32907051820075D-15,13.5,0.,0.,0.;                                  123P    131
126,1,1,0,0,1,0,5.32907051820075D-15,5.32907051820075D-15,13.5,      125P    132
13.5,1.,1.,-20.,3.,155.,-19.9999999999999,3.,19.9999999999999,       125P    133
5.32907051820075D-15,13.5,0.,0.,0.;                                  125P    134
126,1,1,0,0,1,0,0.,0.,0.3,0.3,1.,1.,-20.,0.,155.,-20.,3.,155.,       127P    135
0.,0.3,0.,0.,0.;                                                     127P    136
126,4,2,0,0,0,0,-3.14159265358979,-3.14159265358979,                 129P    137
-3.14159265358979,-1.5707963267949,-1.5707963267949,0.,0.,0.,1.,     129P    138
0.707106781186548,1.,0.707106781186548,1.,-72.4999999999999,3.,      129P    139
-2.95245361313053D-14,-72.4999999999999,3.,-72.4999999999999,        129P    140
2.50851914843961D-14,3.,-72.4999999999999,72.4999999999999,3.,       129P    141
-72.4999999999999,72.4999999999999,3.,2.0645846837487D-14,           129P    142
-3.14159265358979,0.,0.,0.,0.;                                       129P    143
126,1,1,0,0,1,0,-5.6875,-5.6875,9.81250000000001,                    131P    144
9.81250000000001,1.,1.,-72.5,3.,155.,-72.4999999999999,3.,           131P    145
-3.5527136788005D-14,-5.6875,9.81250000000001,0.,0.,0.;              131P    146
126,1,1,0,0,1,0,-16.,-16.,-10.75,-10.75,1.,1.,-72.5,3.,155.,         133P    147
-20.,3.,155.,-16.,-10.75,0.,0.,0.;                                   133P    148
126,1,1,0,0,1,0,-2.0625,-2.0625,13.4375,13.4375,1.,1.,               135P    149
72.4999999999999,3.,2.22044604925031D-14,72.5,3.,155.,-2.0625,       135P    150
13.4375,0.,0.,0.;                                                    135P    151
126,1,1,0,0,1,0,0.3,0.3,0.7,0.7,1.,1.,-72.4999999999999,3.,          137P    152
-2.95245361313053D-14,-72.4999999999999,7.,                          137P    153
-2.95245361313053D-14,0.3,0.7,0.,0.,0.;                              137P    154
126,1,1,0,0,1,0,0.,0.,15.5,15.5,1.,1.,-72.5,7.,155.,                 139P    155
-72.4999999999999,7.,-1.77635683940025D-14,0.,15.5,0.,0.,0.;         139P    156
126,1,1,0,0,1,0,0.3,0.3,0.7,0.7,1.,1.,-72.5,3.,155.,-72.5,7.,        141P    157
155.,0.3,0.7,0.,0.,0.;                                               141P    158
126,1,1,0,0,1,0,-17.5,-17.5,-16.5,-16.5,1.,1.,-87.5,3.,155.,         143P    159
-77.5,3.,155.,-17.5,-16.5,0.,0.,0.;                                  143P    160
126,1,1,0,0,1,0,-1.6875,-1.6875,13.8125,13.8125,1.,1.,               145P    161
-77.4999999999999,3.,-3.10862446895044D-14,-77.5,3.,155.,            145P    162
-1.6875,13.8125,0.,0.,0.;                                            145P    163
126,4,2,0,0,0,0,0.,0.,0.,1.5707963267949,1.5707963267949,            147P    164
3.14159265358979,3.14159265358979,3.14159265358979,1.,               147P    165
0.707106781186548,1.,0.707106781186548,1.,77.4999999999999,3.,       147P    166
2.20696983435205D-14,77.4999999999999,3.,-77.4999999999999,          147P    167
2.68152046902165D-14,3.,-77.4999999999999,-77.4999999999999,3.,      147P    168
-77.4999999999999,-77.4999999999999,3.,-3.15607110369125D-14,0.,     147P    169
3.14159265358979,0.,0.,0.;                                           147P    170
126,1,1,0,0,1,0,-6.0625,-6.0625,9.4375,9.4375,1.,1.,77.5,3.,         149P    171
155.,77.4999999999999,3.,1.77635683940025D-14,-6.0625,9.4375,0.,     149P    172
0.,0.;                                                               149P    173
126,1,1,0,0,1,0,0.3,0.3,0.7,0.7,1.,1.,77.4999999999999,3.,           151P    174
2.20696983435205D-14,77.4999999999999,7.,2.20696983435205D-14,       151P    175
0.3,0.7,0.,0.,0.;                                                    151P    176
126,1,1,0,0,1,0,-15.5,-15.5,0.,0.,1.,1.,77.5,7.,155.,                153P    177
77.4999999999999,7.,2.20696983435205D-14,-15.5,0.,0.,0.,0.;          153P    178
126,1,1,0,0,1,0,0.3,0.3,0.7,0.7,1.,1.,-77.4999999999999,3.,          155P    179
-3.15607110369125D-14,-77.4999999999999,7.,                          155P    180
-3.15607110369125D-14,0.3,0.7,0.,0.,0.;                              155P    181
126,4,2,0,0,0,0,0.,0.,0.,1.5707963267949,1.5707963267949,            157P    182
3.14159265358979,3.14159265358979,3.14159265358979,1.,               157P    183
0.707106781186548,1.,0.707106781186548,1.,77.4999999999999,7.,       157P    184
2.20696983435205D-14,77.4999999999999,7.,-77.4999999999999,          157P    185
2.68152046902165D-14,7.,-77.4999999999999,-77.4999999999999,7.,      157P    186
-77.4999999999999,-77.4999999999999,7.,-3.15607110369125D-14,0.,     157P    187
3.14159265358979,0.,0.,0.;                                           157P    188
126,1,1,0,0,1,0,0.3,0.3,0.7,0.7,1.,1.,-77.5,3.,155.,-77.5,7.,        159P    189
155.,0.3,0.7,0.,0.,0.;                                               159P    190
126,1,1,0,0,1,0,-15.5,-15.5,0.,0.,1.,1.,-77.4999999999999,7.,        161P    191
-1.77635683940025D-14,-77.5,7.,155.,-15.5,0.,0.,0.,0.;               161P    192
126,1,1,0,0,1,0,10.75,10.75,17.2,17.2,1.,1.,-20.,0.,155.,-84.5,      163P    193
0.,155.,10.75,17.2,0.,0.,0.;                                         163P    194
126,1,1,0,0,1,0,-16.5,-16.5,-16.,-16.,1.,1.,-77.5,7.,155.,-72.5,     165P    195
7.,155.,-16.5,-16.,0.,0.,0.;                                         165P    196
126,1,1,0,0,1,0,0.,0.,15.5,15.5,1.,1.,72.4999999999999,7.,           167P    197
2.0645846837487D-14,72.5,7.,155.,0.,15.5,0.,0.,0.;                   167P    198
126,1,1,0,0,1,0,0.3,0.3,0.7,0.7,1.,1.,72.4999999999999,3.,           169P    199
2.0645846837487D-14,72.4999999999999,7.,2.0645846837487D-14,0.3,     169P    200
0.7,0.,0.,0.;                                                        169P    201
126,4,2,0,0,0,0,-3.14159265358979,-3.14159265358979,                 171P    202
-3.14159265358979,-1.5707963267949,-1.5707963267949,0.,0.,0.,1.,     171P    203
0.707106781186548,1.,0.707106781186548,1.,-72.4999999999999,7.,      171P    204
-2.95245361313053D-14,-72.4999999999999,7.,-72.4999999999999,        171P    205
2.50851914843961D-14,7.,-72.4999999999999,72.4999999999999,7.,       171P    206
-72.4999999999999,72.4999999999999,7.,2.0645846837487D-14,           171P    207
-3.14159265358979,0.,0.,0.,0.;                                       171P    208
128,1,1,1,1,0,0,1,0,0,-1.9385,-1.9385,13.5635,13.5635,               173P    209
-0.213132034355965,-0.213132034355965,0.213132034355965,             173P    210
0.213132034355965,1.,1.,1.,1.,-84.4929289321881,                     173P    211
-0.00707106781186961,-0.0100000000000334,-84.4929289321882,          173P    212
-0.00707106781186961,155.01,-87.5070710678118,3.00707106781187,      173P    213
-0.0100000000000355,-87.5070710678119,3.00707106781187,155.01,       173P    214
-1.9385,13.5635,-0.213132034355965,0.213132034355965;                173P    215
128,1,4,1,2,0,0,0,0,0,-0.0246665156227867,-0.0246665156227867,       175P    216
0.0246665156227866,0.0246665156227866,-1.56291352636313D-33,         175P    217
-1.56291352636313D-33,-1.56291352636313D-33,1.5707963267949,         175P    218
1.5707963267949,3.14159265358979,3.14159265358979,                   175P    219
3.14159265358979,1.,1.,0.707106781186548,0.707106781186548,1.,       175P    220
1.,0.707106781186548,0.707106781186548,1.,1.,87.4999999999999,       175P    221
3.,2.49174013555877D-14,84.4999999999999,-4.16333634234434D-15,      175P    222
2.40630904519676D-14,87.4999999999999,3.,-87.4999999999999,          175P    223
84.4999999999999,-4.16333634234434D-15,-84.4999999999999,            175P    224
2.49174013555877D-14,3.,-87.4999999999999,2.40630904519676D-14,      175P    225
-4.16333634234434D-15,-84.4999999999999,-87.4999999999999,3.,        175P    226
-87.4999999999999,-84.4999999999999,-4.16333634234434D-15,           175P    227
-84.4999999999999,-87.4999999999999,3.,-2.49174013555877D-14,        175P    228
-84.4999999999999,-4.16333634234434D-15,-2.40630904519676D-14,       175P    229
-0.0246665156227867,0.0246665156227866,-1.56291352636313D-33,        175P    230
3.14159265358979;                                                    175P    231
128,1,1,1,1,0,0,1,0,0,-5.8135,-5.8135,9.6885,9.6885,                 177P    232
-0.213132034355967,-0.213132034355967,0.213132034355966,             177P    233
0.213132034355966,1.,1.,1.,1.,84.4929289321881,                      177P    234
-0.00707106781187739,155.01,84.492928932188,                         177P    235
-0.00707106781187739,-0.00999999999997618,87.5070710678119,          177P    236
3.00707106781187,155.01,87.5070710678118,3.00707106781187,           177P    237
-0.00999999999997669,-5.8135,9.6885,-0.213132034355967,              177P    238
0.213132034355966;                                                   177P    239
128,1,1,1,1,0,0,1,0,0,-5.251,-5.251,1.501,1.501,                     179P    240
-0.00100000000000083,-0.00100000000000083,0.701,0.701,1.,1.,1.,      179P    241
1.,19.99,-0.0100000000000083,155.,87.51,-0.0100000000000083,         179P    242
155.,19.99,7.01,155.,87.51,7.01,155.,-5.251,1.501,                   179P    243
-0.00100000000000083,0.701;                                          179P    244
128,1,1,1,1,0,0,1,0,0,-0.00100000000000244,-0.00100000000000244,     181P    245
13.501,13.501,-0.001,-0.001,0.301,0.301,1.,1.,1.,1.,                 181P    246
19.9999999999999,-0.01,19.9899999999999,20.,-0.01,155.01,            181P    247
19.9999999999999,3.01,19.9899999999999,20.,3.01,155.01,              181P    248
-0.00100000000000244,13.501,-0.001,0.301;                            181P    249
128,1,4,1,2,0,0,0,0,0,0.,0.,0.150000000000001,0.150000000000001,     183P    250
0.,0.,0.,1.5707963267949,1.5707963267949,3.14159265358979,           183P    251
3.14159265358979,3.14159265358979,1.,1.,0.707106781186548,           183P    252
0.707106781186548,1.,1.,0.707106781186548,0.707106781186548,1.,      183P    253
1.,19.9999999999999,0.,19.9999999999999,19.9999999999999,3.,         183P    254
19.9999999999999,19.9999999999999,0.,2.22044604925031D-14,           183P    255
19.9999999999999,3.,2.22044604925031D-14,1.89378341528501D-15,       183P    256
0.,2.66453525910038D-14,1.89378341528501D-15,3.,                     183P    257
2.66453525910038D-14,-19.9999999999999,0.,3.99680288865056D-14,      183P    258
-19.9999999999999,3.,3.99680288865056D-14,-19.9999999999999,0.,      183P    259
19.9999999999999,-19.9999999999999,3.,19.9999999999999,0.,           183P    260
0.150000000000001,0.,3.14159265358979;                               183P    261
128,1,1,1,1,0,0,1,0,0,-0.00100000000000533,-0.00100000000000533,     185P    262
13.501,13.501,-0.001,-0.001,0.301,0.301,1.,1.,1.,1.,-20.,-0.01,      185P    263
155.01,-19.9999999999999,-0.01,19.99,-20.,3.01,155.01,               185P    264
-19.9999999999999,3.01,19.99,-0.00100000000000533,13.501,-0.001,     185P    265
0.301;                                                               185P    266
128,1,1,1,1,0,0,1,0,0,-7.251,-7.251,7.251,7.251,-11.376,-11.376,     187P    267
11.376,11.376,1.,1.,1.,1.,-72.51,3.,155.01,72.51,3.,155.01,          187P    268
-72.51,3.,-72.5099999999999,72.51,3.,-72.5099999999999,-7.251,       187P    269
7.251,-11.376,11.376;                                                187P    270
128,1,1,1,1,0,0,1,0,0,-0.001,-0.001,15.501,15.501,0.299,0.299,       189P    271
0.701,0.701,1.,1.,1.,1.,-72.5,2.99,155.01,-72.4999999999999,         189P    272
2.99,-0.01000000000003,-72.5,7.01,155.01,-72.4999999999999,7.01,     189P    273
-0.01000000000003,-0.001,15.501,0.299,0.701;                         189P    274
128,1,1,1,1,0,0,1,0,0,-8.751,-8.751,8.751,8.751,-12.126,-12.126,     191P    275
12.126,12.126,1.,1.,1.,1.,-87.51,3.,155.01,87.51,3.,155.01,          191P    276
-87.51,3.,-87.5099999999999,87.51,3.,-87.5099999999999,-8.751,       191P    277
8.751,-12.126,12.126;                                                191P    278
128,1,1,1,1,0,0,1,0,0,-0.001,-0.001,15.501,15.501,0.299,0.299,       193P    279
0.701,0.701,1.,1.,1.,1.,77.5,2.99,155.01,77.4999999999999,2.99,      193P    280
-0.00999999999997669,77.5,7.01,155.01,77.4999999999999,7.01,         193P    281
-0.00999999999997669,-0.001,15.501,0.299,0.701;                      193P    282
128,1,4,1,2,0,0,0,0,0,0.0387096774193549,0.0387096774193549,         195P    283
0.0903225806451614,0.0903225806451614,0.,0.,0.,1.5707963267949,      195P    284
1.5707963267949,3.14159265358979,3.14159265358979,                   195P    285
3.14159265358979,1.,1.,0.707106781186548,0.707106781186548,1.,       195P    286
1.,0.707106781186548,0.707106781186548,1.,1.,77.4999999999999,       195P    287
7.,2.20696983435205D-14,77.4999999999999,3.,                         195P    288
2.20696983435205D-14,77.4999999999999,7.,-77.4999999999999,          195P    289
77.4999999999999,3.,-77.4999999999999,2.20696983435205D-14,7.,       195P    290
-77.4999999999999,2.20696983435205D-14,3.,-77.4999999999999,         195P    291
-77.4999999999999,7.,-77.4999999999999,-77.4999999999999,3.,         195P    292
-77.4999999999999,-77.4999999999999,7.,-2.20696983435205D-14,        195P    293
-77.4999999999999,3.,-2.20696983435205D-14,0.0387096774193549,       195P    294
0.0903225806451614,0.,3.14159265358979;                              195P    295
128,1,1,1,1,0,0,1,0,0,-0.00100000000000138,-0.00100000000000138,     197P    296
15.501,15.501,0.299,0.299,0.701,0.701,1.,1.,1.,1.,                   197P    297
-77.4999999999999,2.99,-0.0100000000000316,-77.5,2.99,155.01,        197P    298
-77.4999999999999,7.01,-0.0100000000000316,-77.5,7.01,155.01,        197P    299
-0.00100000000000138,15.501,0.299,0.701;                             197P    300
128,1,1,1,1,0,0,1,0,0,-1.001,-1.001,5.751,5.751,                     199P    301
-0.00100000000000015,-0.00100000000000015,0.701,0.701,1.,1.,1.,      199P    302
1.,-87.51,-0.0100000000000015,155.,-19.99,-0.0100000000000015,       199P    303
155.,-87.51,7.01,155.,-19.99,7.01,155.,-1.001,5.751,                 199P    304
-0.00100000000000015,0.701;                                          199P    305
128,1,1,1,1,0,0,1,0,0,-0.001,-0.001,15.501,15.501,0.299,0.299,       201P    306
0.701,0.701,1.,1.,1.,1.,72.4999999999999,2.99,                       201P    307
-0.00999999999997936,72.5,2.99,155.01,72.4999999999999,7.01,         201P    308
-0.00999999999997936,72.5,7.01,155.01,-0.001,15.501,0.299,0.701;     201P    309
128,1,4,1,2,0,0,0,0,0,0.0413793103448276,0.0413793103448276,         203P    310
0.0965517241379312,0.0965517241379312,0.,0.,0.,1.5707963267949,      203P    311
1.5707963267949,3.14159265358979,3.14159265358979,                   203P    312
3.14159265358979,1.,1.,0.707106781186548,0.707106781186548,1.,       203P    313
1.,0.707106781186548,0.707106781186548,1.,1.,72.4999999999999,       203P    314
3.,2.0645846837487D-14,72.4999999999999,7.,2.0645846837487D-14,      203P    315
72.4999999999999,3.,-72.4999999999999,72.4999999999999,7.,           203P    316
-72.4999999999999,2.0645846837487D-14,3.,-72.4999999999999,          203P    317
2.0645846837487D-14,7.,-72.4999999999999,-72.4999999999999,3.,       203P    318
-72.4999999999999,-72.4999999999999,7.,-72.4999999999999,            203P    319
-72.4999999999999,3.,-2.0645846837487D-14,-72.4999999999999,7.,      203P    320
-2.0645846837487D-14,0.0413793103448276,0.0965517241379312,0.,       203P    321
3.14159265358979;                                                    203P    322
128,1,1,1,1,0,0,1,0,0,-7.751,-7.751,7.751,7.751,-11.626,-11.626,     205P    323
11.626,11.626,1.,1.,1.,1.,-77.51,7.,155.01,77.51,7.,155.01,          205P    324
-77.51,7.,-77.5099999999999,77.51,7.,-77.5099999999999,-7.751,       205P    325
7.751,-11.626,11.626;                                                205P    326
128,1,1,1,1,0,0,1,0,0,-8.451,-8.451,8.451,8.451,-11.626,-11.626,     207P    327
12.326,12.326,1.,1.,1.,1.,84.5099999999999,0.,155.01,-84.51,0.,      207P    328
155.01,84.5099999999999,0.,-84.5099999999999,-84.51,0.,              207P    329
-84.5099999999999,-8.451,8.451,-11.626,12.326;                       207P    330
502,32,-84.5,0.,155.,-87.5,3.,155.,-87.4999999999999,3.,             209P    331
-3.56330608481271D-14,-84.4999999999999,0.,                          209P    332
-3.33066907387547D-14,87.4999999999999,3.,2.49174013555877D-14,      209P    333
84.4999999999999,0.,2.40630904519676D-14,87.5,3.,155.,               209P    334
84.4999999999999,0.,155.,77.5,3.,155.,77.5,7.,155.,72.5,7.,155.,     209P    335
72.5,3.,155.,20.,3.,155.,20.,0.,155.,19.9999999999999,0.,            209P    336
19.9999999999999,19.9999999999999,3.,19.9999999999999,               209P    337
-19.9999999999999,0.,19.9999999999999,-19.9999999999999,3.,          209P    338
19.9999999999999,-20.,0.,155.,-20.,3.,155.,-72.4999999999999,3.,     209P    339
-2.95245361313053D-14,72.4999999999999,3.,2.0645846837487D-14,       209P    340
-72.5,3.,155.,-72.4999999999999,7.,-3.5527136788005D-14,-72.5,       209P    341
7.,155.,-77.5,3.,155.,-77.4999999999999,3.,                          209P    342
-3.15607110369125D-14,77.4999999999999,3.,2.20696983435205D-14,      209P    343
77.4999999999999,7.,1.77635683940025D-14,-77.4999999999999,7.,       209P    344
-3.5527136788005D-14,-77.5,7.,155.,72.4999999999999,7.,              209P    345
1.77635683940025D-14;                                                209P    346
504,48,77,209,1,209,2,79,209,3,209,2,81,209,3,209,4,83,209,4,        211P    347
209,1,85,209,5,209,3,87,209,5,209,6,89,209,6,209,4,91,209,7,209,     211P    348
8,93,209,8,209,6,95,209,7,209,5,97,209,9,209,7,99,209,9,209,10,      211P    349
101,209,11,209,10,103,209,12,209,11,105,209,13,209,12,107,209,       211P    350
14,209,13,109,209,8,209,14,111,209,15,209,14,113,209,16,209,13,      211P    351
115,209,15,209,16,117,209,15,209,17,119,209,18,209,16,121,209,       211P    352
17,209,18,123,209,19,209,17,125,209,20,209,18,127,209,19,209,20,     211P    353
129,209,21,209,22,131,209,23,209,21,133,209,23,209,20,135,209,       211P    354
22,209,12,137,209,21,209,24,139,209,25,209,24,141,209,23,209,25,     211P    355
143,209,2,209,26,145,209,27,209,26,147,209,28,209,27,149,209,9,      211P    356
209,28,151,209,28,209,29,153,209,10,209,29,155,209,27,209,30,        211P    357
157,209,29,209,30,159,209,26,209,31,161,209,30,209,31,163,209,       211P    358
19,209,1,165,209,31,209,25,167,209,32,209,11,169,209,22,209,32,      211P    359
171,209,24,209,32;                                                   211P    360
406,1,5HBody1;                                                       213P    361
314,62.7450980392157,62.7450980392157,62.7450980392157,13HSteel      215P    362
- Satin;                                                             215P    363
S      1G      3D    216P    363                                        T      1
