                                                                        S      1
,,19HPower Button Nut v1,19HPower Button Nut v1,7Hunknown,7Hunknown,32, G      1
38,7,99,15,,1.,2,2HMM,1,0.08,15H20250912.002437,0.01,10000.,7Hunknown,7HG      2
unknown,11,0,15H20200529.212622;                                        G      3
     186       1                                                00000000D      1
     186            -111       1       0                               0D      2
     514       2                                                00010000D      3
     514                       1       1                               0D      4
     510       3                                                00010000D      5
     510            -111       1       1                               0D      6
     510       4                                                00010000D      7
     510            -111       1       1                               0D      8
     510       5                                                00010000D      9
     510            -111       1       1                               0D     10
     510       6                                                00010000D     11
     510            -111       1       1                               0D     12
     510       7                                                00010000D     13
     510            -111       1       1                               0D     14
     510       8                                                00010000D     15
     510            -111       1       1                               0D     16
     510       9                                                00010000D     17
     510            -111       1       1                               0D     18
     510      10                                                00010000D     19
     510            -111       1       1                               0D     20
     510      11                                                00010000D     21
     510            -111       1       1                               0D     22
     508      12                                                00010000D     23
     508                       1       1                               0D     24
     508      13                                                00010000D     25
     508                       1       1                               0D     26
     508      14                                                00010000D     27
     508                       1       1                               0D     28
     508      15                                                00010000D     29
     508                       1       1                               0D     30
     508      16                                                00010000D     31
     508                       1       1                               0D     32
     508      17                                                00010000D     33
     508                       1       1                               0D     34
     508      18                                                00010000D     35
     508                       1       1                               0D     36
     508      19                                                00010000D     37
     508                       2       1                               0D     38
     508      21                                                00010000D     39
     508                       1       1                               0D     40
     508      22                                                00010000D     41
     508                       2       1                               0D     42
     508      24                                                00010000D     43
     508                       1       1                               0D     44
     126      25                                                00010000D     45
     126       0              10       0                               0D     46
     126      35                                                00010000D     47
     126       0               2       0                               0D     48
     126      37                                                00010000D     49
     126       0              10       0                               0D     50
     126      47                                                00010000D     51
     126       0               3       0                               0D     52
     126      50                                                00010000D     53
     126       0               2       0                               0D     54
     126      52                                                00010000D     55
     126       0               3       0                               0D     56
     126      55                                                00010000D     57
     126       0               3       0                               0D     58
     126      58                                                00010000D     59
     126       0               3       0                               0D     60
     126      61                                                00010000D     61
     126       0               3       0                               0D     62
     126      64                                                00010000D     63
     126       0               2       0                               0D     64
     126      66                                                00010000D     65
     126       0               4       0                               0D     66
     126      70                                                00010000D     67
     126       0               4       0                               0D     68
     126      74                                                00010000D     69
     126       0               2       0                               0D     70
     126      76                                                00010000D     71
     126       0               3       0                               0D     72
     126      79                                                00010000D     73
     126       0               3       0                               0D     74
     126      82                                                00010000D     75
     126       0               3       0                               0D     76
     126      85                                                00010000D     77
     126       0               3       0                               0D     78
     126      88                                                00010000D     79
     126       0               3       0                               0D     80
     126      91                                                00010000D     81
     126       0               2       0                               0D     82
     126      93                                                00010000D     83
     126       0               4       0                               0D     84
     126      97                                                00010000D     85
     126       0               4       0                               0D     86
     128     101                                                00010000D     87
     128       0    -111      12       0                               0D     88
     128     113                                                00010000D     89
     128       0    -111       6       0                               0D     90
     128     119                                                00010000D     91
     128       0    -111       6       0                               0D     92
     128     125                                                00010000D     93
     128       0    -111       5       0                               0D     94
     128     130                                                00010000D     95
     128       0    -111       6       0                               0D     96
     128     136                                                00010000D     97
     128       0    -111       6       0                               0D     98
     128     142                                                00010000D     99
     128       0    -111       5       0                               0D    100
     128     147                                                00010000D    101
     128       0    -111       5       0                               0D    102
     128     152                                                00010000D    103
     128       0    -111       5       0                               0D    104
     502     157                                                00010000D    105
     502                       9       1                               0D    106
     504     166                                                00010001D    107
     504                       6       1                               0D    108
     406     172                                                00000000D    109
     406                       1      15                               0D    110
     314     173                                                00000200D    111
     314                       2       0                               0D    112
186,3,1,0,0,1,109;                                                     1P      1
514,9,5,1,7,1,9,1,11,1,13,1,15,1,17,1,19,1,21,1;                       3P      2
510,87,1,1,23;                                                         5P      3
510,89,1,1,25;                                                         7P      4
510,91,1,1,27;                                                         9P      5
510,93,1,1,29;                                                        11P      6
510,95,1,1,31;                                                        13P      7
510,97,1,1,33;                                                        15P      8
510,99,1,1,35;                                                        17P      9
510,101,2,1,37,39;                                                    19P     10
510,103,2,1,41,43;                                                    21P     11
508,4,0,107,1,0,0,0,107,2,1,0,0,107,3,1,0,0,107,2,0,0;                23P     12
508,4,0,107,4,0,0,0,107,5,1,0,0,107,6,0,0,0,107,7,0,0;                25P     13
508,4,0,107,8,0,0,0,107,7,1,0,0,107,9,0,0,0,107,10,0,0;               27P     14
508,4,0,107,11,0,0,0,107,10,1,0,0,107,12,0,0,0,107,13,0,0;            29P     15
508,4,0,107,14,0,0,0,107,13,1,0,0,107,15,0,0,0,107,16,0,0;            31P     16
508,4,0,107,17,0,0,0,107,16,1,0,0,107,18,0,0,0,107,19,0,0;            33P     17
508,4,0,107,20,0,0,0,107,19,1,0,0,107,21,0,0,0,107,5,0,0;             35P     18
508,6,0,107,21,1,0,0,107,18,1,0,0,107,15,1,0,0,107,12,1,0,0,107,      37P     19
9,1,0,0,107,6,1,0;                                                    37P     20
508,1,0,107,1,1,0;                                                    39P     21
508,6,0,107,20,1,0,0,107,4,1,0,0,107,8,1,0,0,107,11,1,0,0,107,        41P     22
14,1,0,0,107,17,1,0;                                                  41P     23
508,1,0,107,3,0,0;                                                    43P     24
126,8,2,0,1,0,0,-3.14159265358979,-3.14159265358979,                  45P     25
-3.14159265358979,-1.5707963267949,-1.5707963267949,0.,0.,            45P     26
1.5707963267949,1.5707963267949,3.14159265358979,                     45P     27
3.14159265358979,3.14159265358979,1.,0.707106781186547,1.,            45P     28
0.707106781186548,1.,0.707106781186548,1.,0.707106781186547,1.,       45P     29
-7.75,2.35,-9.49101269339199D-16,-7.75,2.35,-7.75,                    45P     30
4.74550634669599D-16,2.35,-7.75,7.75,2.35,-7.75,7.75,2.35,0.,         45P     31
7.75,2.35,7.75,4.74550634669599D-16,2.35,7.75,-7.75,2.35,7.75,        45P     32
-7.75,2.35,9.49101269339199D-16,-3.14159265358979,                    45P     33
3.14159265358979,0.,0.,0.;                                            45P     34
126,1,1,0,0,1,0,-0.303225806451613,-0.303225806451613,0.,0.,1.,       47P     35
1.,-7.75,2.35,0.,-7.75,0.,0.,-0.303225806451613,0.,0.,0.,0.;          47P     36
126,8,2,0,1,0,0,-3.14159265358979,-3.14159265358979,                  49P     37
-3.14159265358979,-1.5707963267949,-1.5707963267949,0.,0.,            49P     38
1.5707963267949,1.5707963267949,3.14159265358979,                     49P     39
3.14159265358979,3.14159265358979,1.,0.707106781186547,1.,            49P     40
0.707106781186548,1.,0.707106781186548,1.,0.707106781186547,1.,       49P     41
-7.75,0.,-9.49101269339199D-16,-7.75,0.,-7.75,                        49P     42
4.74550634669599D-16,0.,-7.75,7.75,0.,-7.75,7.75,0.,0.,7.75,0.,       49P     43
7.75,4.74550634669599D-16,0.,7.75,-7.75,0.,7.75,-7.75,0.,             49P     44
9.49101269339199D-16,-3.14159265358979,3.14159265358979,0.,0.,        49P     45
0.;                                                                   49P     46
126,1,1,0,0,1,0,0.,0.,1.08253175473055,1.08253175473055,1.,1.,        51P     47
-5.41265877365274,0.,9.375,-10.8253175473055,0.,                      51P     48
-6.66133814775094D-15,0.,1.08253175473055,0.,0.,0.;                   51P     49
126,1,1,0,0,1,0,0.,0.,0.235,0.235,1.,1.,-5.41265877365274,0.,         53P     50
9.375,-5.41265877365274,2.35,9.375,0.,0.235,0.,0.,0.;                 53P     51
126,1,1,0,0,1,0,-1.08253175473055,-1.08253175473055,0.,0.,1.,1.,      55P     52
-10.8253175473055,2.35,-6.66133814775094D-15,-5.41265877365274,       55P     53
2.35,9.375,-1.08253175473055,0.,0.,0.,0.;                             55P     54
126,1,1,0,0,1,0,0.,0.,0.235,0.235,1.,1.,-10.8253175473055,0.,         57P     55
-6.93889390390723D-15,-10.8253175473055,2.35,                         57P     56
-6.93889390390723D-15,0.,0.235,0.,0.,0.;                              57P     57
126,1,1,0,0,1,0,0.,0.,1.08253175473055,1.08253175473055,1.,1.,        59P     58
-10.8253175473055,0.,-6.93889390390723D-15,-5.41265877365275,0.,      59P     59
-9.375,0.,1.08253175473055,0.,0.,0.;                                  59P     60
126,1,1,0,0,1,0,-1.08253175473055,-1.08253175473055,0.,0.,1.,1.,      61P     61
-5.41265877365275,2.35,-9.375,-10.8253175473055,2.35,                 61P     62
-6.93889390390723D-15,-1.08253175473055,0.,0.,0.,0.;                  61P     63
126,1,1,0,0,1,0,0.,0.,0.235,0.235,1.,1.,-5.41265877365274,0.,         63P     64
-9.375,-5.41265877365274,2.35,-9.375,0.,0.235,0.,0.,0.;               63P     65
126,1,1,0,0,1,0,-0.541265877365274,-0.541265877365274,                65P     66
0.541265877365274,0.541265877365274,1.,1.,-5.41265877365274,0.,       65P     67
-9.375,5.41265877365274,0.,-9.375,-0.541265877365274,                 65P     68
0.541265877365274,0.,0.,0.;                                           65P     69
126,1,1,0,0,1,0,-0.541265877365274,-0.541265877365274,                67P     70
0.541265877365274,0.541265877365274,1.,1.,5.41265877365274,2.35,      67P     71
-9.375,-5.41265877365274,2.35,-9.375,-0.541265877365274,              67P     72
0.541265877365274,0.,0.,0.;                                           67P     73
126,1,1,0,0,1,0,0.,0.,0.235,0.235,1.,1.,5.41265877365274,0.,          69P     74
-9.375,5.41265877365274,2.35,-9.375,0.,0.235,0.,0.,0.;                69P     75
126,1,1,0,0,1,0,0.,0.,1.08253175473055,1.08253175473055,1.,1.,        71P     76
5.41265877365274,0.,-9.375,10.8253175473055,0.,                       71P     77
1.11022302462516D-15,0.,1.08253175473055,0.,0.,0.;                    71P     78
126,1,1,0,0,1,0,-1.08253175473055,-1.08253175473055,0.,0.,1.,1.,      73P     79
10.8253175473055,2.35,1.11022302462516D-15,5.41265877365274,          73P     80
2.35,-9.375,-1.08253175473055,0.,0.,0.,0.;                            73P     81
126,1,1,0,0,1,0,0.,0.,0.235,0.235,1.,1.,10.8253175473055,0.,          75P     82
7.63278329429795D-16,10.8253175473055,2.35,7.63278329429795D-16,      75P     83
0.,0.235,0.,0.,0.;                                                    75P     84
126,1,1,0,0,1,0,0.,0.,1.08253175473055,1.08253175473055,1.,1.,        77P     85
10.8253175473055,0.,7.63278329429795D-16,5.41265877365274,0.,         77P     86
9.375,0.,1.08253175473055,0.,0.,0.;                                   77P     87
126,1,1,0,0,1,0,-1.08253175473055,-1.08253175473055,0.,0.,1.,1.,      79P     88
5.41265877365274,2.35,9.375,10.8253175473055,2.35,                    79P     89
7.63278329429795D-16,-1.08253175473055,0.,0.,0.,0.;                   79P     90
126,1,1,0,0,1,0,0.,0.,0.235,0.235,1.,1.,5.41265877365274,0.,          81P     91
9.375,5.41265877365274,2.35,9.375,0.,0.235,0.,0.,0.;                  81P     92
126,1,1,0,0,1,0,-0.541265877365274,-0.541265877365274,                83P     93
0.541265877365274,0.541265877365274,1.,1.,5.41265877365274,0.,        83P     94
9.375,-5.41265877365274,0.,9.375,-0.541265877365274,                  83P     95
0.541265877365274,0.,0.,0.;                                           83P     96
126,1,1,0,0,1,0,-0.541265877365274,-0.541265877365274,                85P     97
0.541265877365274,0.541265877365274,1.,1.,-5.41265877365274,          85P     98
2.35,9.375,5.41265877365274,2.35,9.375,-0.541265877365274,            85P     99
0.541265877365274,0.,0.,0.;                                           85P    100
128,1,8,1,2,0,1,0,0,1,0.,0.,0.303225806451613,0.303225806451613,      87P    101
-3.14159265358979,-3.14159265358979,-3.14159265358979,                87P    102
-1.5707963267949,-1.5707963267949,0.,0.,1.5707963267949,              87P    103
1.5707963267949,3.14159265358979,3.14159265358979,                    87P    104
3.14159265358979,1.,1.,0.707106781186548,0.707106781186548,1.,        87P    105
1.,0.707106781186548,0.707106781186548,1.,1.,0.707106781186548,       87P    106
0.707106781186548,1.,1.,0.707106781186548,0.707106781186548,1.,       87P    107
1.,-7.75,0.,0.,-7.75,2.35,0.,-7.75,0.,7.75,-7.75,2.35,7.75,0.,        87P    108
0.,7.75,0.,2.35,7.75,7.75,0.,7.75,7.75,2.35,7.75,7.75,0.,0.,          87P    109
7.75,2.35,0.,7.75,0.,-7.75,7.75,2.35,-7.75,0.,0.,-7.75,0.,2.35,       87P    110
-7.75,-7.75,0.,-7.75,-7.75,2.35,-7.75,-7.75,0.,0.,-7.75,2.35,0.,      87P    111
0.,0.303225806451613,-3.14159265358979,3.14159265358979;              87P    112
128,1,1,1,1,0,0,1,0,0,-0.00100000000000002,-0.00100000000000002,      89P    113
1.08353175473055,1.08353175473055,-0.001,-0.001,0.236,0.236,1.,       89P    114
1.,1.,1.,-10.8303175473055,-0.01,-0.00866025403785121,                89P    115
-5.40765877365274,-0.01,9.38366025403784,-10.8303175473055,2.36,      89P    116
-0.00866025403785121,-5.40765877365274,2.36,9.38366025403784,         89P    117
-0.00100000000000002,1.08353175473055,-0.001,0.236;                   89P    118
128,1,1,1,1,0,0,1,0,0,-0.001,-0.001,1.08353175473055,                 91P    119
1.08353175473055,-0.001,-0.001,0.236,0.236,1.,1.,1.,1.,               91P    120
-5.40765877365275,-0.01,-9.38366025403784,-10.8303175473055,          91P    121
-0.01,0.00866025403783666,-5.40765877365275,2.36,                     91P    122
-9.38366025403784,-10.8303175473055,2.36,0.00866025403783666,         91P    123
-0.001,1.08353175473055,-0.001,0.236;                                 91P    124
128,1,1,1,1,0,0,1,0,0,-0.001,-0.001,1.08353175473055,                 93P    125
1.08353175473055,-0.001,-0.001,0.236,0.236,1.,1.,1.,1.,               93P    126
5.42265877365274,-0.01,-9.375,-5.42265877365274,-0.01,-9.375,         93P    127
5.42265877365274,2.36,-9.375,-5.42265877365274,2.36,-9.375,           93P    128
-0.001,1.08353175473055,-0.001,0.236;                                 93P    129
128,1,1,1,1,0,0,1,0,0,-0.001,-0.001,1.08353175473055,                 95P    130
1.08353175473055,-0.001,-0.001,0.236,0.236,1.,1.,1.,1.,               95P    131
10.8303175473055,-0.01,0.0086602540378455,5.40765877365274,           95P    132
-0.01,-9.38366025403784,10.8303175473055,2.36,                        95P    133
0.0086602540378455,5.40765877365274,2.36,-9.38366025403784,           95P    134
-0.001,1.08353175473055,-0.001,0.236;                                 95P    135
128,1,1,1,1,0,0,1,0,0,-0.001,-0.001,1.08353175473055,                 97P    136
1.08353175473055,-0.001,-0.001,0.236,0.236,1.,1.,1.,1.,               97P    137
5.40765877365274,-0.01,9.38366025403784,10.8303175473055,-0.01,       97P    138
-0.00866025403784332,5.40765877365274,2.36,9.38366025403784,          97P    139
10.8303175473055,2.36,-0.00866025403784332,-0.001,                    97P    140
1.08353175473055,-0.001,0.236;                                        97P    141
128,1,1,1,1,0,0,1,0,0,-0.001,-0.001,1.08353175473055,                 99P    142
1.08353175473055,-0.001,-0.001,0.236,0.236,1.,1.,1.,1.,               99P    143
-5.42265877365274,-0.01,9.375,5.42265877365274,-0.01,9.375,           99P    144
-5.42265877365274,2.36,9.375,5.42265877365274,2.36,9.375,-0.001,      99P    145
1.08353175473055,-0.001,0.236;                                        99P    146
128,1,1,1,1,0,0,1,0,0,-1.08353175473055,-1.08353175473055,           101P    147
1.08353175473055,1.08353175473055,-0.9385,-0.9385,0.9385,0.9385,     101P    148
1.,1.,1.,1.,-10.8353175473055,2.35,9.385,10.8353175473055,2.35,      101P    149
9.385,-10.8353175473055,2.35,-9.385,10.8353175473055,2.35,           101P    150
-9.385,-1.08353175473055,1.08353175473055,-0.9385,0.9385;            101P    151
128,1,1,1,1,0,0,1,0,0,-1.08353175473055,-1.08353175473055,           103P    152
1.08353175473055,1.08353175473055,-0.9385,-0.9385,0.9385,0.9385,     103P    153
1.,1.,1.,1.,10.8353175473055,0.,9.385,-10.8353175473055,0.,          103P    154
9.385,10.8353175473055,0.,-9.385,-10.8353175473055,0.,-9.385,        103P    155
-1.08353175473055,1.08353175473055,-0.9385,0.9385;                   103P    156
502,14,-7.75,2.35,9.49101269339199D-16,-7.75,0.,                     105P    157
9.49101269339199D-16,-5.41265877365274,0.,9.375,                     105P    158
-10.8253175473055,0.,-6.93889390390723D-15,-5.41265877365274,        105P    159
2.35,9.375,-10.8253175473055,2.35,-6.93889390390723D-15,             105P    160
-5.41265877365274,0.,-9.375,-5.41265877365274,2.35,-9.375,           105P    161
5.41265877365274,0.,-9.375,5.41265877365274,2.35,-9.375,             105P    162
10.8253175473055,0.,7.63278329429795D-16,10.8253175473055,2.35,      105P    163
7.63278329429795D-16,5.41265877365274,0.,9.375,5.41265877365274,     105P    164
2.35,9.375;                                                          105P    165
504,21,45,105,1,105,1,47,105,1,105,2,49,105,2,105,2,51,105,3,        107P    166
105,4,53,105,3,105,5,55,105,6,105,5,57,105,4,105,6,59,105,4,105,     107P    167
7,61,105,8,105,6,63,105,7,105,8,65,105,7,105,9,67,105,10,105,8,      107P    168
69,105,9,105,10,71,105,9,105,11,73,105,12,105,10,75,105,11,105,      107P    169
12,77,105,11,105,13,79,105,14,105,12,81,105,13,105,14,83,105,13,     107P    170
105,3,85,105,5,105,14;                                               107P    171
406,1,5HBody1;                                                       109P    172
314,62.7450980392157,62.7450980392157,62.7450980392157,13HSteel      111P    173
- Satin;                                                             111P    174
S      1G      3D    112P    174                                        T      1
