0
SECTION
2
HEADER
9
$INSUNITS
70
4
9
$ACADVER
1
AC1014
9
$HANDSEED
5
FFFF
0
ENDSEC
0
SECTION
2
TABLES
0
TABLE
2
VPORT
5
8
100
AcDbSymbolTable
0
ENDTAB
0
TABLE
2
LTYPE
5
5
100
AcDbSymbolTable
0
LTYPE
5
14
100
AcDbSymbolTableRecord
100
AcDbLinetypeTableRecord
2
BYBLOCK
70
0
0
LTYPE
5
15
100
AcDbSymbolTableRecord
100
AcDbLinetypeTableRecord
2
BYLAYER
70
0
0
LTYPE
5
16
100
AcDbSymbolTableRecord
100
AcDbLinetypeTableRecord
2
DASHED
70
0
3
Dashed __ __ __ __ __ __ __ __ __ __ __ __ __ _
72
65
73
2
40
0.75
49
0.5
74
0
49
-0.25
74
0
0
ENDTAB
0
TABLE
2
LAYER
5
2
100
AcDbSymbolTable
70
2
0
LAYER
5
50
100
AcDbSymbolTableRecord
100
AcDbLayerTableRecord
2
0
70
0
62
7
6
CONTINUOUS
0
ENDTAB
0
TABLE
2
STYLE
5
3
100
AcDbSymbolTable
70
1
0
STYLE
5
11
100
AcDbSymbolTableRecord
100
AcDbTextStyleTableRecord
2
STANDARD
70
0
0
ENDTAB
0
TABLE
2
VIEW
5
6
100
AcDbSymbolTable
70
0
0
ENDTAB
0
TABLE
2
UCS
5
7
100
AcDbSymbolTable
70
0
0
ENDTAB
0
TABLE
2
APPID
5
9
100
AcDbSymbolTable
70
2
0
APPID
5
12
100
AcDbSymbolTableRecord
100
AcDbRegAppTableRecord
2
ACAD
70
0
0
ENDTAB
0
TABLE
2
DIMSTYLE
5
A
100
AcDbSymbolTable
70
1
0
ENDTAB
0
TABLE
2
BLOCK_RECORD
5
1
100
AcDbSymbolTable
70
1
0
BLOCK_RECORD
5
1F
100
AcDbSymbolTableRecord
100
AcDbBlockTableRecord
2
*MODEL_SPACE
0
BLOCK_RECORD
5
1B
100
AcDbSymbolTableRecord
100
AcDbBlockTableRecord
2
*PAPER_SPACE
0
ENDTAB
0
ENDSEC
0
SECTION
2
BLOCKS
0
BLOCK
5
20
100
AcDbEntity
100
AcDbBlockBegin
2
*MODEL_SPACE
0
ENDBLK
5
21
100
AcDbEntity
100
AcDbBlockEnd
0
BLOCK
5
1C
100
AcDbEntity
100
AcDbBlockBegin
2
*PAPER_SPACE
0
ENDBLK
5
1D
100
AcDbEntity
100
AcDbBlockEnd
0
ENDSEC
0
SECTION
2
ENTITIES
0
SPLINE
5
100
100
AcDbEntity
8
0
100
AcDbSpline
70
0
71
3
72
14
73
10
74
0
42
0.000000001
43
0.0000000001
44
0.0000000001
40
-1
40
-1
40
-1
40
-1
40
-0.86136358883870157
40
-0.86136358883870157
40
-0.86136358883870157
40
-0.26699144618634862
40
-0.26699144618634862
40
-0.26699144618634862
40
0
40
0
40
0
40
0
10
-17.781046923657126
20
-20.620189989916607
30
0
10
-17.377567766668886
20
-20.649712834252636
30
0
10
-16.741520401152222
20
-20.676780575525079
30
0
10
-15.935553801357329
20
-20.701550076754526
30
0
10
-12.480154957622327
20
-20.807743690646095
30
0
10
-5.9175831267389665
20
-20.86944416596851
30
0
10
-1.663462998589246
20
-20.847808222352676
30
0
10
0.24748403906403704
20
-20.838089375419813
30
0
10
1.6766444298779462
20
-20.813605222078774
30
0
10
2.1918184711187374
20
-20.763725339782269
30
0
0
LINE
5
101
100
AcDbEntity
8
0
100
AcDbLine
10
-17.781046923657126
20
-20.620189989916607
30
0
11
-19.65549411532777
21
-20.483268477962394
31
0
0
LINE
5
102
100
AcDbEntity
8
0
100
AcDbLine
10
-19.65549411532777
20
-20.483268477962394
30
0
11
-22.136924972923634
21
-18.828709184700934
31
0
0
SPLINE
5
103
100
AcDbEntity
8
0
100
AcDbSpline
70
0
71
3
72
11
73
7
74
0
42
0.000000001
43
0.0000000001
44
0.0000000001
40
-1
40
-1
40
-1
40
-1
40
-0.70006622936563812
40
-0.70006622936563812
40
-0.70006622936563812
40
-0.00031112104597860442
40
-0.00031112104597860442
40
-0.00031112104597860442
40
-0.00031112104597860442
10
-32.033238819533139
20
-2.5620069406902548
30
0
10
-32.560425996876482
20
-4.4379031293346785
30
0
10
-32.731696184189609
20
-6.0977802437711262
30
0
10
-32.448640539896815
20
-7.6714822038993287
30
0
10
-31.788262641757228
20
-11.342979358898956
30
0
10
-28.682364625619037
20
-14.464026704134938
30
0
10
-22.136924972923634
20
-18.828709184700934
30
0
0
SPLINE
5
104
100
AcDbEntity
8
0
100
AcDbSpline
70
0
71
3
72
11
73
7
74
0
42
0.000000001
43
0.0000000001
44
0.0000000001
40
-1
40
-1
40
-1
40
-1
40
-0.71355062452470053
40
-0.71355062452470053
40
-0.71355062452470053
40
-1.7901812182141296e-07
40
-1.7901812182141296e-07
40
-1.7901812182141296e-07
40
-1.7901812182141296e-07
10
-3.8954653866038669
20
11.358692730756712
30
0
10
-8.8516141248708973
20
11.140745563871308
30
0
10
-13.062080853617129
20
10.65517598755752
30
0
10
-16.611415741722411
20
9.8589180005771269
30
0
10
-25.452871536336129
20
7.8754253139365069
30
0
10
-30.210324923625457
20
3.9251135768809728
30
0
10
-32.033238819594494
20
-2.5620069406733306
30
0
0
SPLINE
5
105
100
AcDbEntity
8
0
100
AcDbSpline
70
0
71
3
72
11
73
7
74
0
42
0.000000001
43
0.0000000001
44
0.0000000001
40
-1
40
-1
40
-1
40
-1
40
-0.66735487605329502
40
-0.66735487605329502
40
-0.66735487605329502
40
-6.2418142977912715e-08
40
-6.2418142977912715e-08
40
-6.2418142977912715e-08
40
-6.2418142977912715e-08
10
19.473562031079933
20
-2.095457309544944
30
0
10
18.878543495538924
20
1.3168545086823058
30
0
10
17.747315366619276
20
4.0319100627672819
30
0
10
15.941239415117494
20
6.1055349955728175
30
0
10
12.317878081197843
20
10.265654837892697
30
0
10
6.0311739529252417
20
11.795356058112784
30
0
10
-3.8954653866048172
20
11.358692730776074
30
0
0
SPLINE
5
106
100
AcDbEntity
8
0
100
AcDbSpline
70
0
71
3
72
11
73
7
74
0
42
0.000000001
43
0.0000000001
44
0.0000000001
40
-1
40
-1
40
-1
40
-1
40
-0.60109878086702684
40
-0.60109878086702684
40
-0.60109878086702684
40
-6.171969499464272e-08
40
-6.171969499464272e-08
40
-6.171969499464272e-08
40
-6.171969499464272e-08
10
2.1918195002321106
20
-20.763725240139369
30
0
10
7.4695457357840969
20
-20.25270075118263
30
0
10
11.589930720555852
20
-18.941935520048943
30
0
10
14.523215758969943
20
-16.837259846613733
30
0
10
18.943342333957879
20
-13.665753240862475
30
0
10
20.622386148600125
20
-8.6833349812434175
30
0
10
19.473562031090296
20
-2.09545730954307
30
0
0
SPLINE
5
107
100
AcDbEntity
8
0
100
AcDbSpline
70
0
71
3
72
14
73
10
74
0
42
0.000000001
43
0.0000000001
44
0.0000000001
40
0.00031069265518807616
40
0.00031069265518807616
40
0.00031069265518807616
40
0.00031069265518807616
40
0.48632251220299144
40
0.48632251220299144
40
0.48632251220299144
40
0.85835496999160366
40
0.85835496999160366
40
0.85835496999160366
40
0.9999987487806532
40
0.9999987487806532
40
0.9999987487806532
40
0.9999987487806532
10
-22.469789953617408
20
-19.327909449936133
30
0
10
-27.04219556511811
20
-16.278934496189528
30
0
10
-29.980724687586985
20
-13.830443824510006
30
0
10
-31.630555567565448
20
-11.263405441856127
30
0
10
-32.89153018607945
20
-9.3014041939948715
30
0
10
-33.349395022005872
20
-7.2470635293984529
30
0
10
-33.128716556375998
20
-5.0287422048476778
30
0
10
-33.044600608838877
20
-4.1831853009432125
30
0
10
-32.867284191010164
20
-3.3121098760571521
30
0
10
-32.610868960862597
20
-2.3997003775443866
30
0
0
LINE
5
108
100
AcDbEntity
8
0
100
AcDbLine
10
-22.469789953617408
20
-19.327909449936133
30
0
11
-19.856845176332826
21
-21.070159119884035
31
0
0
LINE
5
109
100
AcDbEntity
8
0
100
AcDbLine
10
-19.856845176332826
20
-21.070159119884035
30
0
11
-17.824882337406642
21
-21.218586563286621
31
0
0
SPLINE
5
110
100
AcDbEntity
8
0
100
AcDbSpline
70
0
71
3
72
20
73
16
74
0
42
0.000000001
43
0.0000000001
44
0.0000000001
40
0
40
0
40
0
40
0
40
0.13289275380966661
40
0.13289275380966661
40
0.13289275380966661
40
0.57469111270924655
40
0.57469111270924655
40
0.57469111270924655
40
0.884398152082571
40
0.884398152082571
40
0.884398152082571
40
1
40
1
40
1
40
1.0000053893883551
40
1.0000053893883551
40
1.0000053893883551
40
1.0000053893883551
10
2.249640930354758
20
-21.360932643160165
30
0
10
1.9445976179498172
20
-21.390467369873967
30
0
10
1.4768804969319207
20
-21.405975602849672
30
0
10
0.81410251406270895
20
-21.41982071198435
30
0
10
-1.3873027057691114
20
-21.465806994428856
30
0
10
-5.517697076735284
20
-21.460095835341409
30
0
10
-9.3816452107827075
20
-21.419734007388357
30
0
10
-12.090325288986893
20
-21.391439818257556
30
0
10
-14.662256003670668
20
-21.346121842595331
30
0
10
-16.34350238338904
20
-21.288653193395444
30
0
10
-16.971114528685597
20
-21.267200048486554
30
0
10
-17.472054183160367
20
-21.244403239302642
30
0
10
-17.824832275967481
20
-21.218590226316174
30
0
10
-17.824848963077379
20
-21.218589005308992
30
0
10
-17.824865650223764
20
-21.218587784299139
30
0
10
-17.824882337406642
20
-21.218586563286621
30
0
0
SPLINE
5
111
100
AcDbEntity
8
0
100
AcDbSpline
70
0
71
3
72
14
73
10
74
0
42
0.000000001
43
0.0000000001
44
0.0000000001
40
0
40
0
40
0
40
0
40
0.40019108197548253
40
0.40019108197548253
40
0.40019108197548253
40
0.81815862232787728
40
0.81815862232787728
40
0.81815862232787728
40
1
40
1
40
1
40
1
10
20.064641613465337
20
-1.9923800215321832
30
0
10
20.846412348495843
20
-6.4754053563574328
30
0
10
20.363287155894753
20
-10.310369066773573
30
0
10
18.55536642342766
20
-13.362848630429687
30
0
10
16.667228680349755
20
-16.550765982452191
30
0
10
13.370799055633643
20
-18.814903375420371
30
0
10
8.8536063218177254
20
-20.142302521647775
30
0
10
6.8881053501430447
20
-20.71987458143149
30
0
10
4.6866743183041004
20
-21.124962892929201
30
0
10
2.2496450468082512
20
-21.360932244588554
30
0
0
SPLINE
5
112
100
AcDbEntity
8
0
100
AcDbSpline
70
0
71
3
72
14
73
10
74
0
42
0.000000001
43
0.0000000001
44
0.0000000001
40
0
40
0
40
0
40
0
40
0.47022253628762939
40
0.47022253628762939
40
0.47022253628762939
40
0.86783701037091432
40
0.86783701037091432
40
0.86783701037091432
40
0.9999996795131938
40
0.9999996795131938
40
0.9999996795131938
40
0.9999996795131938
10
-3.9218361167361011
20
11.958112937809648
30
0
10
3.1240299370676512
20
12.268054055889861
30
0
10
8.3955460873753474
20
11.612678745165399
30
0
10
12.272321697544299
20
9.659186268833686
30
0
10
15.548246515078855
20
8.0084602202855226
30
0
10
17.778197171825919
20
5.390334857405068
30
0
10
19.066003804678701
20
1.8494622992569378
30
0
10
19.494251372095221
20
0.67197957718107781
30
0
10
19.823132026417213
20
-0.60737397777573143
30
0
10
20.064641271997459
20
-1.9923780630461818
30
0
0
SPLINE
5
113
100
AcDbEntity
8
0
100
AcDbSpline
70
0
71
3
72
11
73
7
74
0
42
0.000000001
43
0.0000000001
44
0.0000000001
40
0
40
0
40
0
40
0
40
0.44436096082276783
40
0.44436096082276783
40
0.44436096082276783
40
0.99999973342921655
40
0.99999973342921655
40
0.99999973342921655
40
0.99999973342921655
10
-32.610867653977486
20
-2.3996957281344033
30
0
10
-31.441284624027645
20
1.7624502210910724
30
0
10
-29.047509578170878
20
4.9920786044671868
30
0
10
-25.242409358762931
20
7.2666305480351889
30
0
10
-20.482077170254041
20
10.112185778400956
30
0
10
-13.5827587907877
20
11.533271769330449
30
0
10
-3.9218388800308093
20
11.958112816370491
30
0
0
SPLINE
5
114
100
AcDbEntity
8
0
100
AcDbSpline
70
0
71
3
72
11
73
7
74
0
42
0.000000001
43
0.0000000001
44
0.0000000001
40
-0.9999998973955212
40
-0.9999998973955212
40
-0.9999998973955212
40
-0.9999998973955212
40
-0.70006622936563812
40
-0.70006622936563812
40
-0.70006622936563812
40
-0.00031112104597860442
40
-0.00031112104597860442
40
-0.00031112104597860442
40
-0.00031112104597860442
10
-32.11025580888063
20
-2.5403647745356457
30
0
10
-32.639547093897285
20
-4.4237487556538699
30
0
10
-32.813162955747657
20
-6.0967628238925862
30
0
10
-32.527377043214983
20
-7.6856442321872462
30
0
10
-31.860660879898283
20
-11.392380183989401
30
0
10
-28.731675037659016
20
-14.527300334601726
30
0
10
-22.181308422817416
20
-18.895268251517756
30
0
0
LINE
5
115
100
AcDbEntity
8
0
100
AcDbLine
10
-19.682340920774831
20
-20.561520563791188
30
0
11
-22.181308422817416
21
-18.895268251517756
31
0
0
LINE
5
116
100
AcDbEntity
8
0
100
AcDbLine
10
-17.786875102853536
20
-20.699977409521793
30
0
11
-19.682340920774831
21
-20.561520563791188
31
0
0
SPLINE
5
117
100
AcDbEntity
8
0
100
AcDbSpline
70
0
71
3
72
14
73
10
74
0
42
0.000000001
43
0.0000000001
44
0.0000000001
40
-0.99999887691531419
40
-0.99999887691531419
40
-0.99999887691531419
40
-0.99999887691531419
40
-0.86136358883870157
40
-0.86136358883870157
40
-0.86136358883870157
40
-0.26699144618634862
40
-0.26699144618634862
40
-0.26699144618634862
40
0
40
0
40
0
40
0
10
-17.786875102853031
20
-20.699977410131446
30
0
10
-17.380842120597165
20
-20.729686803292999
30
0
10
-16.744468259276381
20
-20.756727750940446
30
0
10
-15.938011254275057
20
-20.78151232362864
30
0
10
-12.480454832228682
20
-20.887772245650908
30
0
10
-5.9183681820476419
20
-20.949449193305689
30
0
10
-1.6630561334674352
20
-20.927807187725818
30
0
10
0.24837136257250259
20
-20.918085897239351
30
0
10
1.6727275957638494
20
-20.894358556319869
30
0
10
2.1995281323502072
20
-20.843352980232659
30
0
0
SPLINE
5
118
100
AcDbEntity
8
0
100
AcDbSpline
70
0
71
3
72
11
73
7
74
0
42
0.000000001
43
0.0000000001
44
0.0000000001
40
-1
40
-1
40
-1
40
-1
40
-0.60109878086702684
40
-0.60109878086702684
40
-0.60109878086702684
40
-6.171969499464272e-08
40
-6.171969499464272e-08
40
-6.171969499464272e-08
40
-6.171969499464272e-08
10
2.1995295731089293
20
-20.843352840732592
30
0
10
7.4863418233431265
20
-20.331448583519148
30
0
10
11.620519837303489
20
-19.018450039999649
30
0
10
14.56985369210223
20
-16.902259101941375
30
0
10
19.014428320992941
20
-13.713210653635389
30
0
10
20.704635779682107
20
-8.6893122412588788
30
0
10
19.552372690316616
20
-2.0817139477886499
30
0
0
SPLINE
5
119
100
AcDbEntity
8
0
100
AcDbSpline
70
0
71
3
72
11
73
7
74
0
42
0.000000001
43
0.0000000001
44
0.0000000001
40
-0.99999997389611084
40
-0.99999997389611084
40
-0.99999997389611084
40
-0.99999997389611084
40
-0.66735487605329502
40
-0.66735487605329502
40
-0.66735487605329502
40
-6.2418142977912715e-08
40
-6.2418142977912715e-08
40
-6.2418142977912715e-08
40
-6.2418142977912715e-08
10
19.552372690310349
20
-2.0817139477897544
30
0
10
18.955640126976547
20
1.3404268815703051
30
0
10
17.819490209050478
20
4.0708490186472144
30
0
10
16.001565719081054
20
6.1580777120052241
30
0
10
12.354483138020662
20
10.345432826168118
30
0
10
6.037334641628167
20
11.875704424905283
30
0
10
-3.8989811098624267
20
11.438615441503226
30
0
0
SPLINE
5
120
100
AcDbEntity
8
0
100
AcDbSpline
70
0
71
3
72
11
73
7
74
0
42
0.000000001
43
0.0000000001
44
0.0000000001
40
-0.99999997860175593
40
-0.99999997860175593
40
-0.99999997860175593
40
-0.99999997860175593
40
-0.71355062452470053
40
-0.71355062452470053
40
-0.71355062452470053
40
-1.7901812182141296e-07
40
-1.7901812182141296e-07
40
-1.7901812182141296e-07
40
-1.7901812182141296e-07
10
-3.8989811098619009
20
11.438615441491585
30
0
10
-8.8583527783329838
20
11.220526501011792
30
0
10
-13.073185639400728
20
10.734673166210879
30
0
10
-16.62892768104555
20
9.936977798047673
30
0
10
-25.486539539561495
20
7.9498606591291292
30
0
10
-30.279823373522454
20
3.9735116262783867
30
0
10
-32.110255808917771
20
-2.5403647745253166
30
0
0
SPLINE
5
121
100
AcDbEntity
8
0
100
AcDbSpline
70
0
71
3
72
20
73
16
74
0
42
0.000000001
43
0.0000000001
44
0.0000000001
40
0
40
0
40
0
40
0
40
0.13289275380966661
40
0.13289275380966661
40
0.13289275380966661
40
0.57469111270924655
40
0.57469111270924655
40
0.57469111270924655
40
0.884398152082571
40
0.884398152082571
40
0.884398152082571
40
0.98264413404084128
40
0.98264413404084128
40
0.98264413404084128
40
1.0000053893883551
40
1.0000053893883551
40
1.0000053893883551
40
1.0000053893883551
10
2.2419312691232891
20
-21.281305002709775
30
0
10
1.9420217321284003
20
-21.310342669997656
30
0
10
1.4747482812251018
20
-21.326002690830947
30
0
10
0.81243171754580179
20
-21.339838161143561
30
0
10
-1.3867462484754123
20
-21.385777917341152
30
0
10
-5.5173780708509135
20
-21.380094803169559
30
0
10
-9.3808095965411091
20
-21.339738371577148
30
0
10
-12.089126413610558
20
-21.311447976980567
30
0
10
-14.660871919177916
20
-21.266122430421316
30
0
10
-16.340769405973962
20
-21.208699889308317
30
0
10
-16.87374606614134
20
-21.190481590619683
30
0
10
-17.315111118963021
20
-21.171290979837455
30
0
10
-17.650973687581569
20
-21.150175854857874
30
0
10
-17.710324672723491
20
-21.146444556445886
30
0
10
-17.765288515616206
20
-21.142733211695518
30
0
10
-17.819044290447795
20
-21.138799865098854
30
0
0
LINE
5
122
100
AcDbEntity
8
0
100
AcDbLine
10
-19.829998370938444
20
-20.991907033942745
30
0
11
-17.819044290447795
21
-21.138799865098854
31
0
0
LINE
5
123
100
AcDbEntity
8
0
100
AcDbLine
10
-22.425408885754084
20
-19.261348794776268
30
0
11
-19.829998370938444
21
-20.991907033942745
31
0
0
SPLINE
5
124
100
AcDbEntity
8
0
100
AcDbSpline
70
0
71
3
72
14
73
10
74
0
42
0.000000001
43
0.0000000001
44
0.0000000001
40
0.00031076526225317849
40
0.00031076526225317849
40
0.00031076526225317849
40
0.00031076526225317849
40
0.48632251220299144
40
0.48632251220299144
40
0.48632251220299144
40
0.85835496999160366
40
0.85835496999160366
40
0.85835496999160366
40
0.9999987487806532
40
0.9999987487806532
40
0.9999987487806532
40
0.9999987487806532
10
-22.425408885732967
20
-19.261348794744809
30
0
10
-26.994528325257491
20
-16.214564982073494
30
0
10
-29.924275777716932
20
-13.770308470694012
30
0
10
-31.563256423496341
20
-11.220152404881068
30
0
10
-32.815260840430547
20
-9.2721082553108651
30
0
10
-33.268227314360708
20
-7.2392948084212332
30
0
10
-33.049109492635104
20
-5.0366615105340165
30
0
10
-32.965554077872433
20
-4.1967392380065709
30
0
10
-32.789278628094678
20
-3.3302343731752906
30
0
10
-32.533852488515876
20
-2.421344383348937
30
0
0
SPLINE
5
125
100
AcDbEntity
8
0
100
AcDbSpline
70
0
71
3
72
11
73
7
74
0
42
0.000000001
43
0.0000000001
44
0.0000000001
40
0
40
0
40
0
40
0
40
0.44436096082276783
40
0.44436096082276783
40
0.44436096082276783
40
0.99999973342921655
40
0.99999973342921655
40
0.99999973342921655
40
0.99999973342921655
10
-32.533850658995377
20
-2.4213378741445806
30
0
10
-31.369042614988892
20
1.723815533386267
30
0
10
-28.99051983700895
20
4.9329416966347504
30
0
10
-25.20136265061214
20
7.1979634689507872
30
0
10
-20.460181655302641
20
10.032070805384315
30
0
10
-13.573091808147787
20
11.453619561560274
30
0
10
-3.9183242593711043
20
11.878190057148739
30
0
0
SPLINE
5
126
100
AcDbEntity
8
0
100
AcDbSpline
70
0
71
3
72
14
73
10
74
0
42
0.000000001
43
0.0000000001
44
0.0000000001
40
0
40
0
40
0
40
0
40
0.47022253628762939
40
0.47022253628762939
40
0.47022253628762939
40
0.86783701037091432
40
0.86783701037091432
40
0.86783701037091432
40
0.9999996795131938
40
0.9999996795131938
40
0.9999996795131938
40
0.9999996795131938
10
-3.9183203907633679
20
11.878190227201932
30
0
10
3.1208490058855531
20
12.187836765539908
30
0
10
8.3791510849973232
20
11.531357577073962
30
0
10
12.236322100104754
20
9.5877437815856155
30
0
10
15.494918882018684
20
7.9457492642423304
30
0
10
17.708824752781481
20
5.3470176991573384
30
0
10
18.990821808035541
20
1.8221187921529114
30
0
10
19.417204177568767
20
0.64976450149834197
30
0
10
19.745000402775251
20
-0.62501146400390728
30
0
10
19.9858304772232
20
-2.0061206474846922
30
0
0
SPLINE
5
127
100
AcDbEntity
8
0
100
AcDbSpline
70
0
71
3
72
14
73
10
74
0
42
0.000000001
43
0.0000000001
44
0.0000000001
40
0
40
0
40
0
40
0
40
0.40019108197548253
40
0.40019108197548253
40
0.40019108197548253
40
0.81815862232787728
40
0.81815862232787728
40
0.81815862232787728
40
1
40
1
40
1
40
1
10
19.98583095529834
20
-2.0061233893612327
30
0
10
20.765316989310595
20
-6.4760472200134984
30
0
10
20.282667049937331
20
-10.289502470145617
30
0
10
18.486533647427741
20
-13.322080395881882
30
0
10
16.610737631860779
20
-16.489160069387388
30
0
10
13.334736007458833
20
-18.742118159499856
30
0
10
8.8310515791103867
20
-20.065547824192794
30
0
10
6.8713455608573408
20
-20.641417008611747
30
0
10
4.6748223000758866
20
-21.045736342980135
30
0
10
2.2419349739314325
20
-21.281304643995327
30
0
0
ENDSEC
0
SECTION
2
OBJECTS
0
DICTIONARY
5
C
100
AcDbDictionary
3
ACAD_GROUP
350
D
3
ACAD_MLINESTYLE
350
17
0
DICTIONARY
5
D
100
AcDbDictionary
0
DICTIONARY
5
1A
330
C
100
AcDbDictionary
0
DICTIONARY
5
17
100
AcDbDictionary
0
ENDSEC
0
EOF
