0
SECTION
2
HEADER
9
$INSUNITS
70
4
9
$ACADVER
1
AC1014
9
$HANDSEED
5
FFFF
0
ENDSEC
0
SECTION
2
TABLES
0
TABLE
2
VPORT
5
8
100
AcDbSymbolTable
0
ENDTAB
0
TABLE
2
LTYPE
5
5
100
AcDbSymbolTable
0
LTYPE
5
14
100
AcDbSymbolTableRecord
100
AcDbLinetypeTableRecord
2
BYBLOCK
70
0
0
LTYPE
5
15
100
AcDbSymbolTableRecord
100
AcDbLinetypeTableRecord
2
BYLAYER
70
0
0
LTYPE
5
16
100
AcDbSymbolTableRecord
100
AcDbLinetypeTableRecord
2
DASHED
70
0
3
Dashed __ __ __ __ __ __ __ __ __ __ __ __ __ _
72
65
73
2
40
0.75
49
0.5
74
0
49
-0.25
74
0
0
ENDTAB
0
TABLE
2
LAYER
5
2
100
AcDbSymbolTable
70
2
0
LAYER
5
50
100
AcDbSymbolTableRecord
100
AcDbLayerTableRecord
2
0
70
0
62
7
6
CONTINUOUS
0
ENDTAB
0
TABLE
2
STYLE
5
3
100
AcDbSymbolTable
70
1
0
STYLE
5
11
100
AcDbSymbolTableRecord
100
AcDbTextStyleTableRecord
2
STANDARD
70
0
0
ENDTAB
0
TABLE
2
VIEW
5
6
100
AcDbSymbolTable
70
0
0
ENDTAB
0
TABLE
2
UCS
5
7
100
AcDbSymbolTable
70
0
0
ENDTAB
0
TABLE
2
APPID
5
9
100
AcDbSymbolTable
70
2
0
APPID
5
12
100
AcDbSymbolTableRecord
100
AcDbRegAppTableRecord
2
ACAD
70
0
0
ENDTAB
0
TABLE
2
DIMSTYLE
5
A
100
AcDbSymbolTable
70
1
0
ENDTAB
0
TABLE
2
BLOCK_RECORD
5
1
100
AcDbSymbolTable
70
1
0
BLOCK_RECORD
5
1F
100
AcDbSymbolTableRecord
100
AcDbBlockTableRecord
2
*MODEL_SPACE
0
BLOCK_RECORD
5
1B
100
AcDbSymbolTableRecord
100
AcDbBlockTableRecord
2
*PAPER_SPACE
0
ENDTAB
0
ENDSEC
0
SECTION
2
BLOCKS
0
BLOCK
5
20
100
AcDbEntity
100
AcDbBlockBegin
2
*MODEL_SPACE
0
ENDBLK
5
21
100
AcDbEntity
100
AcDbBlockEnd
0
BLOCK
5
1C
100
AcDbEntity
100
AcDbBlockBegin
2
*PAPER_SPACE
0
ENDBLK
5
1D
100
AcDbEntity
100
AcDbBlockEnd
0
ENDSEC
0
SECTION
2
ENTITIES
0
SPLINE
5
100
100
AcDbEntity
8
0
100
AcDbSpline
70
0
71
3
72
20
73
16
74
0
42
0.000000001
43
0.0000000001
44
0.0000000001
40
-0.99999898317544611
40
-0.99999898317544611
40
-0.99999898317544611
40
-0.99999898317544611
40
-0.89575701862610224
40
-0.89575701862610224
40
-0.89575701862610224
40
-0.68574755143679611
40
-0.68574755143679611
40
-0.68574755143679611
40
-0.37149510287359216
40
-0.37149510287359216
40
-0.37149510287359216
40
-0.10416826043069922
40
-0.10416826043069922
40
-0.10416826043069922
40
0
40
0
40
0
40
0
10
56.713622624770103
20
56.728864376909272
30
0
10
56.443935696895053
20
56.831087560164839
30
0
10
56.177821533497905
20
56.892948085790849
30
0
10
55.879874077602487
20
56.948524274992998
30
0
10
55.279618827871587
20
57.060489987968708
30
0
10
54.559995847967862
20
57.131428265674202
30
0
10
53.768478829591409
20
57.178020974073078
30
0
10
52.584074314722415
20
57.247741034294641
30
0
10
51.253026458035777
20
57.257423789401408
30
0
10
50.069113815234125
20
57.207915253180175
30
0
10
49.061988397515286
20
57.165799556954092
30
0
10
48.188952701260902
20
57.092787602899719
30
0
10
47.497151798468906
20
56.932402881337083
30
0
10
47.227580303329489
20
56.869906361002016
30
0
10
46.99152582039163
20
56.817666504660309
30
0
10
46.674086494171107
20
56.621503335899483
30
0
0
ARC
5
101
100
AcDbEntity
8
0
100
AcDbCircle
10
47.30490536451326
20
55.600686235327466
30
0
40
1.2000000000000077
210
0
220
0
230
1
100
AcDbArc
50
121.7141929115363
51
121.72558741514543
0
SPLINE
5
102
100
AcDbEntity
8
0
100
AcDbSpline
70
0
71
3
72
20
73
16
74
0
42
0.000000001
43
0.0000000001
44
0.0000000001
40
-1
40
-1
40
-1
40
-1
40
-0.98400473925877663
40
-0.98400473925877663
40
-0.98400473925877663
40
-0.88607550197248564
40
-0.88607550197248564
40
-0.88607550197248564
40
-0.75
40
-0.75
40
-0.75
40
-0.5
40
-0.5
40
-0.5
40
0
40
0
40
0
40
0
10
46.673883495111959
20
56.62137786375267
30
0
10
46.620361970671894
20
56.588289268270131
30
0
10
46.571091307597101
20
56.552296399250686
30
0
10
46.526672703233977
20
56.515214402610312
30
0
10
46.254724648308454
20
56.288183927346708
30
0
10
46.169959006220168
20
56.066765951257132
30
0
10
46.114651622640267
20
55.91064412472231
30
0
10
46.037800416688185
20
55.693708340238658
30
0
10
46.020228039564479
20
55.541590617383115
30
0
10
46.0014502092858
20
55.367934780719203
30
0
10
45.966951291393734
20
55.048891613237387
30
0
10
45.956349768766842
20
54.667621157508762
30
0
10
45.95466041067273
20
54.098267380975365
30
0
10
45.951281694484521
20
52.959559827908564
30
0
10
45.994852090114797
20
51.095104660066809
30
0
10
46.082897425660498
20
47.987704227247832
30
0
0
SPLINE
5
103
100
AcDbEntity
8
0
100
AcDbSpline
70
0
71
3
72
8
73
4
74
0
42
0.000000001
43
0.0000000001
44
0.0000000001
40
-1
40
-1
40
-1
40
-1
40
0
40
0
40
0
40
0
10
46.082897501641611
20
47.98770154573802
30
0
10
46.7676211632742
20
23.823529795452806
30
0
10
46.786254623478598
20
12.505716984209801
30
0
10
46.165728129517561
20
-0.86662795379262902
30
0
0
LINE
5
104
100
AcDbEntity
8
0
100
AcDbLine
10
46.165728129517561
20
-0.86662795379262636
30
0
11
45.983228739545424
21
-4.799766176291528
31
0
0
LINE
5
105
100
AcDbEntity
8
0
100
AcDbLine
10
45.983228739545424
20
-4.799766176291528
30
0
11
48.121892996217767
21
-4.7465579951479864
31
0
0
SPLINE
5
106
100
AcDbEntity
8
0
100
AcDbSpline
70
0
71
3
72
14
73
10
74
0
42
0.000000001
43
0.0000000001
44
0.0000000001
40
-1
40
-1
40
-1
40
-1
40
-0.72884633940636001
40
-0.72884633940636001
40
-0.72884633940636001
40
-0.16874673165692058
40
-0.16874673165692058
40
-0.16874673165692058
40
-4.3361850285911871e-05
40
-4.3361850285911871e-05
40
-4.3361850285911871e-05
40
-4.3361850285911871e-05
10
48.121892996217767
20
-4.7465579951479855
30
0
10
48.494224161031447
20
-4.7373753285822549
30
0
10
49.004484965846949
20
-4.7014224260722681
30
0
10
49.596753325997263
20
-4.6513184062846911
30
0
10
50.820152912328993
20
-4.547822691831664
30
0
10
52.338427168997832
20
-4.3846157276142792
30
0
10
53.240917249538562
20
-4.2535408698017045
30
0
10
53.51274946598317
20
-4.2140608024994632
30
0
10
53.706664318530017
20
-4.1856881529542873
30
0
10
53.919786824071423
20
-4.1321739012793008
30
0
0
SPLINE
5
107
100
AcDbEntity
8
0
100
AcDbSpline
70
0
71
3
72
20
73
16
74
0
42
0.000000001
43
0.0000000001
44
0.0000000001
40
-1
40
-1
40
-1
40
-1
40
-0.97468431286598345
40
-0.97468431286598345
40
-0.97468431286598345
40
-0.70037950876795929
40
-0.70037950876795929
40
-0.70037950876795929
40
-0.43950938006473766
40
-0.43950938006473766
40
-0.43950938006473766
40
0
40
0
40
0
40
7.2069739345468401e-07
40
7.2069739345468401e-07
40
7.2069739345468401e-07
40
7.2069739345468401e-07
10
53.919786822604081
20
-4.1321738954350193
30
0
10
54.09079191913716
20
-4.0892524520279769
30
0
10
54.25889349690032
20
-4.0456229756858333
30
0
10
54.424233121918235
20
-4.0010044412019861
30
0
10
56.215748920406618
20
-3.5175461690270557
30
0
10
57.723857873536886
20
-2.9106552325548325
30
0
10
58.929276846196331
20
-1.8048483733487397
30
0
10
60.075657798483995
20
-0.75320081423813867
30
0
10
60.86208742671316
20
0.69714439358869984
30
0
10
61.399850601637766
20
2.6210952326069825
30
0
10
62.305864489880392
20
5.8625335863785866
30
0
10
62.62318184478967
20
10.558293141803308
30
0
10
62.911643694867891
20
18.07298517428848
30
0
10
62.911644166789799
20
18.072997468280924
30
0
10
62.91164463873406
20
18.073009762855552
30
0
10
62.911645110700654
20
18.073022058012373
30
0
0
SPLINE
5
108
100
AcDbEntity
8
0
100
AcDbSpline
70
0
71
3
72
17
73
13
74
0
42
0.000000001
43
0.0000000001
44
0.0000000001
40
-0.99999975787250306
40
-0.99999975787250306
40
-0.99999975787250306
40
-0.99999975787250306
40
-0.61305920238325096
40
-0.61305920238325096
40
-0.61305920238325096
40
-0.2241098019556356
40
-0.2241098019556356
40
-0.2241098019556356
40
0
40
0
40
0
40
1.4669795308293505e-06
40
1.4669795308293505e-06
40
1.4669795308293505e-06
40
1.4669795308293505e-06
10
62.911645110274598
20
18.07302205803791
30
0
10
63.287749551284634
20
27.874833864221426
30
0
10
63.295875972789005
20
35.453513973554699
30
0
10
62.872402853514885
20
41.216393229156452
30
0
10
62.446731226433513
20
47.009191113495319
30
0
10
61.62239613381594
20
50.969432088733015
30
0
10
60.120236582565624
20
53.600596248035885
30
0
10
59.254703227413614
20
55.116653807208984
30
0
10
58.10391282694637
20
56.201860098644417
30
0
10
56.713644167679902
20
56.728856211058094
30
0
10
56.713636985923799
20
56.728858933379087
30
0
10
56.713629804976691
20
56.728861655393402
30
0
10
56.713622624838578
20
56.728864377101075
30
0
0
LINE
5
109
100
AcDbEntity
8
0
100
AcDbLine
10
48.092306834061787
20
-3.5469227760047324
30
0
11
47.241670367717596
21
-3.5680858899166794
31
0
0
LINE
5
110
100
AcDbEntity
8
0
100
AcDbLine
10
47.241670367717596
20
-3.5680858899166794
30
0
11
47.364438229401756
21
-0.92225255658334504
31
0
0
SPLINE
5
111
100
AcDbEntity
8
0
100
AcDbSpline
70
4
71
3
72
8
73
4
74
0
42
0.000000001
43
0.0000000001
44
0.0000000001
40
0
40
0
40
0
40
0
40
1
40
1
40
1
40
1
41
1
41
1
41
1
41
1
10
47.364438229401756
20
-0.92225255658334504
30
0
10
47.986473097006339
20
12.482597830989901
30
0
10
47.967423468430688
20
23.847504904964509
30
0
10
47.282416023413198
20
48.02169148435091
30
0
0
SPLINE
5
112
100
AcDbEntity
8
0
100
AcDbSpline
70
4
71
3
72
8
73
4
74
0
42
0.000000001
43
0.0000000001
44
0.0000000001
40
0
40
0
40
0
40
0
40
1
40
1
40
1
40
1
41
1
41
1
41
1
41
1
10
47.282416023413198
20
48.02169148435091
30
0
10
47.106467864513249
20
54.231462640661938
30
0
10
47.11017201503104
20
55.48029629697298
30
0
10
47.30490536451326
20
55.600686235327466
30
0
0
SPLINE
5
113
100
AcDbEntity
8
0
100
AcDbSpline
70
4
71
3
72
8
73
4
74
0
42
0.000000001
43
0.0000000001
44
0.0000000001
40
0
40
0
40
0
40
0
40
1
40
1
40
1
40
1
41
1
41
1
41
1
41
1
10
47.30490536451326
20
55.600686235327466
30
0
10
48.244705881277582
20
56.181440515417798
30
0
10
54.760334902604278
20
56.185937979915686
30
0
10
56.288304056326403
20
55.606766290564295
30
0
0
SPLINE
5
114
100
AcDbEntity
8
0
100
AcDbSpline
70
4
71
3
72
8
73
4
74
0
42
0.000000001
43
0.0000000001
44
0.0000000001
40
0
40
0
40
0
40
0
40
1
40
1
40
1
40
1
41
1
41
1
41
1
41
1
10
56.288304056326403
20
55.606766290564295
30
0
10
61.183360160986439
20
53.751243244706544
30
0
10
62.682224986553052
20
43.3906918556481
30
0
10
61.712526827653107
20
18.119014933803619
30
0
0
SPLINE
5
115
100
AcDbEntity
8
0
100
AcDbSpline
70
4
71
3
72
8
73
4
74
0
42
0.000000001
43
0.0000000001
44
0.0000000001
40
0
40
0
40
0
40
0
40
1
40
1
40
1
40
1
41
1
41
1
41
1
41
1
10
61.712526827653107
20
18.119014933803619
30
0
10
61.057682976722575
20
1.0597404828657098
30
0
10
60.140108372370264
20
-1.3336817392717393
30
0
10
53.627654120921946
20
-2.9682759254187907
30
0
0
SPLINE
5
116
100
AcDbEntity
8
0
100
AcDbSpline
70
4
71
3
72
8
73
4
74
0
42
0.000000001
43
0.0000000001
44
0.0000000001
40
0
40
0
40
0
40
0
40
1
40
1
40
1
40
1
41
1
41
1
41
1
41
1
10
53.627654120921946
20
-2.9682759254187907
30
0
10
52.991331527232987
20
-3.1280852922807778
30
0
10
49.261764682928579
20
-3.5180808672319497
30
0
10
48.092306834061787
20
-3.5469227760047328
30
0
0
LINE
5
117
100
AcDbEntity
8
0
100
AcDbLine
10
46.192969011038862
20
-4.5944861257377028
30
0
11
48.119953582187449
21
-4.5465444977730556
31
0
0
SPLINE
5
118
100
AcDbEntity
8
0
100
AcDbSpline
70
0
71
3
72
17
73
13
74
0
42
0.000000001
43
0.0000000001
44
0.0000000001
40
-0.99925790982268181
40
-0.99925790982268181
40
-0.99925790982268181
40
-0.99925790982268181
40
-0.72884633940636001
40
-0.72884633940636001
40
-0.72884633940636001
40
-0.16874673165692058
40
-0.16874673165692058
40
-0.16874673165692058
40
-4.3361850285911871e-05
40
-4.3361850285911871e-05
40
-4.3361850285911871e-05
40
-3.8494533358192533e-05
40
-3.8494533358192533e-05
40
-3.8494533358192533e-05
40
-3.8494533358192533e-05
10
48.119953582187435
20
-4.5465444977730547
30
0
10
48.483715232879916
20
-4.5374471158860157
30
0
10
48.990848994246107
20
-4.5018615995818232
30
0
10
49.57989418173063
20
-4.4520302499517141
30
0
10
50.799545099915797
20
-4.3488516609026941
30
0
10
52.317886247467698
20
-4.1855006595715487
30
0
10
53.212171466489764
20
-4.0556174503766371
30
0
10
53.483904301145984
20
-4.0161518169768424
30
0
10
53.669554839820684
20
-3.9887976375373717
30
0
10
53.871079593624259
20
-3.9381955372740141
30
0
10
53.871085742492461
20
-3.9381939933165637
30
0
10
53.871091891360649
20
-3.9381924493591152
30
0
10
53.871098040235253
20
-3.938190905400055
30
0
0
SPLINE
5
119
100
AcDbEntity
8
0
100
AcDbSpline
70
0
71
3
72
35
73
31
74
0
42
0.000000001
43
0.0000000001
44
0.0000000001
40
-1
40
-1
40
-1
40
-1
40
-0.97468431286598345
40
-0.97468431286598345
40
-0.97468431286598345
40
-0.70037950876795929
40
-0.70037950876795929
40
-0.70037950876795929
40
-0.43950938006473766
40
-0.43950938006473766
40
-0.43950938006473766
40
-0.21975432968367212
40
-0.21975432968367212
40
-0.21975432968367212
40
-0.10987680449313933
40
-0.10987680449313933
40
-0.10987680449313933
40
-0.054938041897872936
40
-0.054938041897872936
40
-0.054938041897872936
40
-0.027468660600239739
40
-0.027468660600239739
40
-0.027468660600239739
40
-0.01115679922852859
40
-0.01115679922852859
40
-0.01115679922852859
40
-0.00076575428679217204
40
-0.00076575428679217204
40
-0.00076575428679217204
40
7.2069739345468401e-07
40
7.2069739345468401e-07
40
7.2069739345468401e-07
40
7.2069739345468401e-07
10
53.871098038990397
20
-3.9381909004323146
30
0
10
54.041080955035063
20
-3.8955260193317445
30
0
10
54.208044228172632
20
-3.8521906838167546
30
0
10
54.372125166274785
20
-3.8079118184566823
30
0
10
56.150251421313683
20
-3.3280668471227259
30
0
10
57.62303014068803
20
-2.7317430594241681
30
0
10
58.794076157654089
20
-1.6574686806577024
30
0
10
59.906533435650516
20
-0.63694144781669548
30
0
10
60.67606357850272
20
0.77457215375841715
30
0
10
61.207233303334554
20
2.6749336612093422
30
0
10
61.655130386329382
20
4.277371330435308
30
0
10
61.960107204822712
20
6.2507758410780507
30
0
10
62.188149421473213
20
8.7626651255512815
30
0
10
62.30217052979846
20
10.018609767787899
30
0
10
62.39705687478061
20
11.409113924385217
30
0
10
62.481437865571372
20
12.955116576465784
30
0
10
62.523628360966754
20
13.728117902506067
30
0
10
62.563194635984161
20
14.539996068839365
30
0
10
62.601224061286935
20
15.393381041014893
30
0
10
62.620238773938325
20
15.820073527102656
30
0
10
62.638869333807989
20
16.257142838282839
30
0
10
62.657251948347749
20
16.704918409748398
30
0
10
62.668167908076626
20
16.9708163915138
30
0
10
62.67899643989729
20
17.240489643518917
30
0
10
62.689766087459319
20
17.514007216374875
30
0
10
62.696626609951124
20
17.68824443720057
30
0
10
62.703463237562183
20
17.864041682138229
30
0
10
62.710283351887696
20
18.041416811217918
30
0
10
62.710786424201316
20
18.054500538602273
30
0
10
62.711290358970153
20
18.067617679816081
30
0
10
62.711792299497198
20
18.080693684572363
30
0
0
SPLINE
5
120
100
AcDbEntity
8
0
100
AcDbSpline
70
0
71
3
72
26
73
22
74
0
42
0.000000001
43
0.0000000001
44
0.0000000001
40
-0.99999971722580883
40
-0.99999971722580883
40
-0.99999971722580883
40
-0.99999971722580883
40
-0.61305920238325096
40
-0.61305920238325096
40
-0.61305920238325096
40
-0.2241098019556356
40
-0.2241098019556356
40
-0.2241098019556356
40
-0.11205416748805239
40
-0.11205416748805239
40
-0.11205416748805239
40
-0.056026350254260782
40
-0.056026350254260782
40
-0.056026350254260782
40
-0.025561066450723587
40
-0.025561066450723587
40
-0.025561066450723587
40
-0.0045607395000103745
40
-0.0045607395000103745
40
-0.0045607395000103745
40
1.4669795308293505e-06
40
1.4669795308293505e-06
40
1.4669795308293505e-06
40
1.4669795308293505e-06
10
62.711792299046905
20
18.080693684589566
30
0
10
63.087749404633996
20
27.878667270841916
30
0
10
63.09546082194607
20
35.451825200560066
30
0
10
62.672940650280502
20
41.201736166664844
30
0
10
62.24816381199912
20
46.982357221875887
30
0
10
61.421487264829992
20
50.91795297174491
30
0
10
59.946549214393919
20
53.501436285664028
30
0
10
59.522514747847993
20
54.244169832014741
30
0
10
59.030536446419063
20
54.8778813462527
30
0
10
58.477933560502152
20
55.388780483157014
30
0
10
58.201632117543703
20
55.644230051609171
30
0
10
57.910163919647566
20
55.869029006524656
30
0
10
57.604149452909034
20
56.061698262450918
30
0
10
57.437753222652987
20
56.166462714321604
30
0
10
57.267050406664104
20
56.261729799490865
30
0
10
57.092095324125566
20
56.347261425098651
30
0
10
56.97149530087642
20
56.406220078297899
30
0
10
56.848874001214476
20
56.460552753818192
30
0
10
56.724240558270225
20
56.510176993785308
30
0
10
56.697164622628733
20
56.520957589232779
30
0
10
56.665062656322569
20
56.533384947538593
30
0
10
56.642732606332771
20
56.541849390331969
30
0
0
SPLINE
5
121
100
AcDbEntity
8
0
100
AcDbSpline
70
0
71
3
72
20
73
16
74
0
42
0.000000001
43
0.0000000001
44
0.0000000001
40
-0.99999860869424573
40
-0.99999860869424573
40
-0.99999860869424573
40
-0.99999860869424573
40
-0.89575701862610224
40
-0.89575701862610224
40
-0.89575701862610224
40
-0.68574755143679611
40
-0.68574755143679611
40
-0.68574755143679611
40
-0.37149510287359216
40
-0.37149510287359216
40
-0.37149510287359216
40
-0.10416826043069922
40
-0.10416826043069922
40
-0.10416826043069922
40
0
40
0
40
0
40
0
10
56.642732606253105
20
56.541849390120092
30
0
10
56.38881485575525
20
56.638095099778489
30
0
10
56.135951004976434
20
56.697308601523737
30
0
10
55.843200588396869
20
56.751915386105736
30
0
10
55.256301409715185
20
56.861389788895906
30
0
10
54.543454108564632
20
56.932055786351306
30
0
10
53.756726159118045
20
56.978366585849969
30
0
10
52.580012045701601
20
57.047633950015694
30
0
10
51.25404284321921
20
57.057291496471059
30
0
10
50.077470057541774
20
57.008089896394566
30
0
10
49.075164700501269
20
56.966175764152219
30
0
10
48.211067719235665
20
56.892610197849095
30
0
10
47.54232110755089
20
56.737570303165313
30
0
10
47.271612784038609
20
56.67481022448375
30
0
10
47.072452094284507
20
56.632569508130373
30
0
10
46.779222972563304
20
56.451367152471946
30
0
0
ARC
5
122
100
AcDbEntity
8
0
100
AcDbCircle
10
47.30490536451326
20
55.600686235327466
30
0
40
1.000000000000008
210
0
220
0
230
1
100
AcDbArc
50
121.71419291141164
51
121.72558741510029
0
SPLINE
5
123
100
AcDbEntity
8
0
100
AcDbSpline
70
0
71
3
72
20
73
16
74
0
42
0.000000001
43
0.0000000001
44
0.0000000001
40
-1
40
-1
40
-1
40
-1
40
-0.98400473925877663
40
-0.98400473925877663
40
-0.98400473925877663
40
-0.88607550197248564
40
-0.88607550197248564
40
-0.88607550197248564
40
-0.75
40
-0.75
40
-0.75
40
-0.5
40
-0.5
40
-0.5
40
0
40
0
40
0
40
0
10
46.779053806678839
20
56.451262592348463
30
0
10
46.734013427672025
20
56.423417292781082
30
0
10
46.692284385841617
20
56.392938628817795
30
0
10
46.654845170925029
20
56.361683237936859
30
0
10
46.416311261122956
20
56.162547903346294
30
0
10
46.356875992950926
20
55.995456160556174
30
0
10
46.303171657140226
20
55.843859421442787
30
0
10
46.232942826896199
20
55.645617296369878
30
0
10
46.218977265186382
20
55.519241739171399
30
0
10
46.200291101622881
20
55.346433628782719
30
0
10
46.16715226645838
20
55.03996839498565
30
0
10
46.156342307992674
20
54.664809985172937
30
0
10
46.154659530280597
20
54.097673953574954
30
0
10
46.151297873503623
20
52.964715827019901
30
0
10
46.194783097507404
20
51.100372468663132
30
0
10
46.28281719195261
20
47.99336877009835
30
0
0
SPLINE
5
124
100
AcDbEntity
8
0
100
AcDbSpline
70
0
71
3
72
8
73
4
74
0
42
0.000000001
43
0.0000000001
44
0.0000000001
40
-1
40
-1
40
-1
40
-1
40
0
40
0
40
0
40
0
10
46.28281725527021
20
47.99336653550683
30
0
10
46.967588090326885
20
23.82753001622693
30
0
10
46.986290447023364
20
12.501851105310003
30
0
10
46.365513146164929
20
-0.87589872092441501
30
0
0
LINE
5
125
100
AcDbEntity
8
0
100
AcDbLine
10
46.365513146164929
20
-0.87589872092441534
30
0
11
46.192969011038862
21
-4.5944861257377028
31
0
0
SPLINE
5
126
100
AcDbEntity
8
0
100
AcDbSpline
70
0
71
3
72
17
73
13
74
0
42
0.000000001
43
0.0000000001
44
0.0000000001
40
-1.747152416747058e-05
40
-1.747152416747058e-05
40
-1.747152416747058e-05
40
-1.747152416747058e-05
40
0
40
0
40
0
40
0.20768993471900618
40
0.20768993471900618
40
0.20768993471900618
40
0.69820190070183008
40
0.69820190070183008
40
0.69820190070183008
40
1
40
1
40
1
40
1
10
47.199719626833087
20
55.77079197873946
30
0
10
47.199736046652355
20
55.770802125446295
30
0
10
47.199752466399801
20
55.770812272108728
30
0
10
47.199768886075404
20
55.77082241872678
30
0
10
47.467909520211478
20
55.936521221997097
30
0
10
47.902038564928702
20
56.014429673375233
30
0
10
48.493191815866332
20
56.086432356268645
30
0
10
49.889348753884839
20
56.256484783652134
30
0
10
52.078207056755531
20
56.283878820168141
30
0
10
53.84510277729553
20
56.171459773612384
30
0
10
54.932223596149747
20
56.102291523032683
30
0
10
55.844778407368835
20
55.988768846586339
30
0
10
56.359191799725927
20
55.793782139720776
30
0
0
SPLINE
5
127
100
AcDbEntity
8
0
100
AcDbSpline
70
0
71
3
72
11
73
7
74
0
42
0.000000001
43
0.0000000001
44
0.0000000001
40
0
40
0
40
0
40
0
40
0.42492715128464459
40
0.42492715128464459
40
0.42492715128464459
40
1
40
1
40
1
40
1
10
56.359194074836587
20
55.793781277331725
30
0
10
58.531902983972522
20
54.97019287167398
30
0
10
60.024863417445772
20
52.563623223051181
30
0
10
60.955554720317799
20
48.184358185485308
30
0
10
62.215100732379291
20
42.257703668778348
30
0
10
62.470247134199745
20
32.650142806361806
30
0
10
61.912379757083215
20
18.11134638777407
30
0
0
SPLINE
5
128
100
AcDbEntity
8
0
100
AcDbSpline
70
0
71
3
72
11
73
7
74
0
42
0.000000001
43
0.0000000001
44
0.0000000001
40
0
40
0
40
0
40
0
40
0.60289766481846208
40
0.60289766481846208
40
0.60289766481846208
40
0.9999986067855352
40
0.9999986067855352
40
0.9999986067855352
40
0.9999986067855352
10
61.91237963885311
20
18.111343307153739
30
0
10
61.517426784339939
20
7.8224643160057123
30
0
10
61.047497833984181
20
2.8506091626183987
30
0
10
59.24027436170806
20
0.099057573606039812
30
0
10
58.049939442427942
20
-1.7132628111425217
30
0
10
56.278512509928248
20
-2.509124603482102
30
0
10
53.67637029313439
20
-3.1622520460044026
30
0
0
SPLINE
5
129
100
AcDbEntity
8
0
100
AcDbSpline
70
0
71
3
72
11
73
7
74
0
42
0.000000001
43
0.0000000001
44
0.0000000001
40
0
40
0
40
0
40
0
40
0.34415464085687125
40
0.34415464085687125
40
0.34415464085687125
40
1
40
1
40
1
40
1
10
53.676370292593134
20
-3.1622520440976194
30
0
10
53.421410857137026
20
-3.2262838832305336
30
0
10
52.849159864265374
20
-3.3038726385745578
30
0
10
52.125526431532798
20
-3.3895722928112821
30
0
10
50.746519519416665
20
-3.5528875988939963
30
0
10
48.886485051418788
20
-3.7273970660436295
30
0
10
48.097237861087791
20
-3.7468619791952751
30
0
0
LINE
5
130
100
AcDbEntity
8
0
100
AcDbLine
10
48.097237861087798
20
-3.7468619791952751
30
0
11
47.031930096355559
21
-3.7733659376458211
31
0
0
LINE
5
131
100
AcDbEntity
8
0
100
AcDbLine
10
47.031930096355559
20
-3.7733659376458211
30
0
11
47.164653182559476
21
-0.91298244017491759
31
0
0
SPLINE
5
132
100
AcDbEntity
8
0
100
AcDbSpline
70
0
71
3
72
8
73
4
74
0
42
0.000000001
43
0.0000000001
44
0.0000000001
40
0
40
0
40
0
40
0
40
1
40
1
40
1
40
1
10
47.164653212754395
20
-0.91298178945155906
30
0
10
47.78643668475172
20
12.486451023193217
30
0
10
47.767456417571275
20
23.843509053379229
30
0
10
47.082496269784599
20
48.0160264945821
30
0
0
SPLINE
5
133
100
AcDbEntity
8
0
100
AcDbSpline
70
0
71
3
72
14
73
10
74
0
42
0.000000001
43
0.0000000001
44
0.0000000001
40
0
40
0
40
0
40
0
40
0.5
40
0.5
40
0.5
40
0.79592509194523808
40
0.79592509194523808
40
0.79592509194523808
40
0.99999285957696871
40
0.99999285957696871
40
0.99999285957696871
40
0.99999285957696871
10
47.082496257121079
20
48.0160269415004
30
0
10
46.994510301655154
20
51.12133166209982
30
0
10
46.951364400637161
20
52.985950192703051
30
0
10
46.95465600871205
20
54.095300243973305
30
0
10
46.956604147556469
20
54.751869275816517
30
0
10
46.973229693608864
20
55.140323600154353
30
0
10
47.011915223569424
20
55.384692784215531
30
0
10
47.038592480596897
20
55.553207976832518
30
0
10
47.052808520360863
20
55.679958906928761
30
0
10
47.19971963095233
20
55.770791971692162
30
0
0
ENDSEC
0
SECTION
2
OBJECTS
0
DICTIONARY
5
C
100
AcDbDictionary
3
ACAD_GROUP
350
D
3
ACAD_MLINESTYLE
350
17
0
DICTIONARY
5
D
100
AcDbDictionary
0
DICTIONARY
5
1A
330
C
100
AcDbDictionary
0
DICTIONARY
5
17
100
AcDbDictionary
0
ENDSEC
0
EOF
