0
SECTION
2
HEADER
9
$INSUNITS
70
4
9
$ACADVER
1
AC1014
9
$HANDSEED
5
FFFF
0
ENDSEC
0
SECTION
2
TABLES
0
TABLE
2
VPORT
5
8
100
AcDbSymbolTable
0
ENDTAB
0
TABLE
2
LTYPE
5
5
100
AcDbSymbolTable
0
LTYPE
5
14
100
AcDbSymbolTableRecord
100
AcDbLinetypeTableRecord
2
BYBLOCK
70
0
0
LTYPE
5
15
100
AcDbSymbolTableRecord
100
AcDbLinetypeTableRecord
2
BYLAYER
70
0
0
LTYPE
5
16
100
AcDbSymbolTableRecord
100
AcDbLinetypeTableRecord
2
DASHED
70
0
3
Dashed __ __ __ __ __ __ __ __ __ __ __ __ __ _
72
65
73
2
40
0.75
49
0.5
74
0
49
-0.25
74
0
0
ENDTAB
0
TABLE
2
LAYER
5
2
100
AcDbSymbolTable
70
2
0
LAYER
5
50
100
AcDbSymbolTableRecord
100
AcDbLayerTableRecord
2
0
70
0
62
7
6
CONTINUOUS
0
ENDTAB
0
TABLE
2
STYLE
5
3
100
AcDbSymbolTable
70
1
0
STYLE
5
11
100
AcDbSymbolTableRecord
100
AcDbTextStyleTableRecord
2
STANDARD
70
0
0
ENDTAB
0
TABLE
2
VIEW
5
6
100
AcDbSymbolTable
70
0
0
ENDTAB
0
TABLE
2
UCS
5
7
100
AcDbSymbolTable
70
0
0
ENDTAB
0
TABLE
2
APPID
5
9
100
AcDbSymbolTable
70
2
0
APPID
5
12
100
AcDbSymbolTableRecord
100
AcDbRegAppTableRecord
2
ACAD
70
0
0
ENDTAB
0
TABLE
2
DIMSTYLE
5
A
100
AcDbSymbolTable
70
1
0
ENDTAB
0
TABLE
2
BLOCK_RECORD
5
1
100
AcDbSymbolTable
70
1
0
BLOCK_RECORD
5
1F
100
AcDbSymbolTableRecord
100
AcDbBlockTableRecord
2
*MODEL_SPACE
0
BLOCK_RECORD
5
1B
100
AcDbSymbolTableRecord
100
AcDbBlockTableRecord
2
*PAPER_SPACE
0
ENDTAB
0
ENDSEC
0
SECTION
2
BLOCKS
0
BLOCK
5
20
100
AcDbEntity
100
AcDbBlockBegin
2
*MODEL_SPACE
0
ENDBLK
5
21
100
AcDbEntity
100
AcDbBlockEnd
0
BLOCK
5
1C
100
AcDbEntity
100
AcDbBlockBegin
2
*PAPER_SPACE
0
ENDBLK
5
1D
100
AcDbEntity
100
AcDbBlockEnd
0
ENDSEC
0
SECTION
2
ENTITIES
0
LINE
5
100
100
AcDbEntity
8
0
100
AcDbLine
10
-19.923962190026316
20
-21.26578933460079
30
0
11
-17.839427393375512
21
-21.4180569717848
31
0
0
SPLINE
5
101
100
AcDbEntity
8
0
100
AcDbSpline
70
0
71
3
72
17
73
13
74
0
42
0.000000001
43
0.0000000001
44
0.0000000001
40
-1
40
-1
40
-1
40
-1
40
-0.884398152082571
40
-0.884398152082571
40
-0.884398152082571
40
-0.57469111270924655
40
-0.57469111270924655
40
-0.57469111270924655
40
-0.13289275380966661
40
-0.13289275380966661
40
-0.13289275380966661
40
0
40
0
40
0
40
0
10
-17.839427393375516
20
-21.4180569717848
30
0
10
-17.481489751557515
20
-21.444247512481567
30
0
10
-16.979137334250602
20
-21.467042619547453
30
0
10
-16.350334826926741
20
-21.488536453613261
30
0
10
-14.665720208716698
20
-21.546120236513143
30
0
10
-12.093321009024248
20
-21.591419436788595
30
0
10
-9.3837342463867035
20
-21.619723096916374
30
0
10
-5.5184976426222505
20
-21.660098383899214
30
0
10
-1.3886833173875557
20
-21.665879467147779
30
0
10
0.81827950535497684
20
-21.61977708908632
30
0
10
1.4821329605835749
20
-21.605909513858062
30
0
10
1.951339777246508
20
-21.590749836435201
30
0
10
2.268915083433432
20
-21.560001744286129
30
0
0
SPLINE
5
102
100
AcDbEntity
8
0
100
AcDbSpline
70
0
71
3
72
14
73
10
74
0
42
0.000000001
43
0.0000000001
44
0.0000000001
40
-1
40
-1
40
-1
40
-1
40
-0.81815862232787728
40
-0.81815862232787728
40
-0.81815862232787728
40
-0.40019108197548253
40
-0.40019108197548253
40
-0.40019108197548253
40
0
40
0
40
0
40
0
10
2.2689202290002979
20
-21.560001246071614
30
0
10
4.7163000880129635
20
-21.323029681819165
30
0
10
6.9300106408473265
20
-20.916016803983002
30
0
10
8.9099931785860758
20
-20.334189265285229
30
0
10
13.46103894074227
20
-18.996842241346144
30
0
10
16.80841818066606
20
-16.704845128161118
30
0
10
18.727448363427456
20
-13.464769216799201
30
0
10
20.564860820230674
20
-10.362496050903598
30
0
10
21.049161101542122
20
-6.4738600779257602
30
0
10
20.261668258882835
20
-1.9580216019595589
30
0
0
SPLINE
5
103
100
AcDbEntity
8
0
100
AcDbSpline
70
0
71
3
72
14
73
10
74
0
42
0.000000001
43
0.0000000001
44
0.0000000001
40
-0.9999996795131938
40
-0.9999996795131938
40
-0.9999996795131938
40
-0.9999996795131938
40
-0.86783701037091432
40
-0.86783701037091432
40
-0.86783701037091432
40
-0.47022253628762939
40
-0.47022253628762939
40
-0.47022253628762939
40
0
40
0
40
0
40
0
10
20.26166825893311
20
-1.9580216019499055
30
0
10
20.018461523268062
20
-0.56328277258506876
30
0
10
19.686868226459492
20
0.72752037873194186
30
0
10
19.2539587962866
20
1.9178210670170044
30
0
10
17.95154067382434
20
5.4988684629645519
30
0
10
15.681800348011967
20
8.1651193206194339
30
0
10
12.362320691143163
20
9.8377924869538607
30
0
10
8.4366734998362105
20
11.815911167033114
30
0
10
3.1319195767253634
20
12.468594524164631
30
0
10
-3.9306254316679339
20
12.157919714328937
30
0
0
SPLINE
5
104
100
AcDbEntity
8
0
100
AcDbSpline
70
0
71
3
72
11
73
7
74
0
42
0.000000001
43
0.0000000001
44
0.0000000001
40
-0.99999973342921655
40
-0.99999973342921655
40
-0.99999973342921655
40
-0.99999973342921655
40
-0.44436096082276783
40
-0.44436096082276783
40
-0.44436096082276783
40
0
40
0
40
0
40
0
10
-3.9306254316800708
20
12.157919714424876
30
0
10
-13.606868544009188
20
11.732404826274454
30
0
10
-20.536950064301344
20
10.312393046803228
30
0
10
-25.345026129139917
20
7.4382982457461928
30
0
10
-29.19018849939425
20
5.1397985904710506
30
0
10
-31.621823625338589
20
1.8592718875272296
30
0
10
-32.803410141432757
20
-2.3455903631089599
30
0
0
SPLINE
5
105
100
AcDbEntity
8
0
100
AcDbSpline
70
0
71
3
72
14
73
10
74
0
42
0.000000001
43
0.0000000001
44
0.0000000001
40
-0.9999987487806532
40
-0.9999987487806532
40
-0.9999987487806532
40
-0.9999987487806532
40
-0.85835496999160366
40
-0.85835496999160366
40
-0.85835496999160366
40
-0.48632251220299144
40
-0.48632251220299144
40
-0.48632251220299144
40
-0.00031069265518807616
40
-0.00031069265518807616
40
-0.00031069265518807616
40
-0.00031069265518807616
10
-32.803410141729387
20
-2.3455903630330113
30
0
10
-33.062296630811531
20
-3.2667934114604673
30
0
10
-33.242217590141159
20
-4.1493070313305687
30
0
10
-33.327734215728228
20
-5.0089439406318323
30
0
10
-33.552346695506287
20
-7.2668110697590027
30
0
10
-33.082373337867274
20
-9.3743798612306559
30
0
10
-31.798803427738207
20
-11.371538034293778
30
0
10
-30.121986971328113
20
-13.980564363299433
30
0
10
-27.161285390876543
20
-16.439910109643474
30
0
10
-22.580747742809258
20
-19.494307674138369
30
0
0
LINE
5
106
100
AcDbEntity
8
0
100
AcDbLine
10
-22.580747742809258
20
-19.494307674138369
30
0
11
-19.923962190026316
21
-21.26578933460079
31
0
0
SPLINE
5
107
100
AcDbEntity
8
0
100
AcDbSpline
70
4
71
3
72
8
73
4
74
0
42
0.000000001
43
0.0000000001
44
0.0000000001
40
0
40
0
40
0
40
0
40
1
40
1
40
1
40
1
41
1
41
1
41
1
41
1
10
19.276535031795355
20
-2.1298136998226802
30
0
10
21.173597047328798
20
-13.008421322605077
30
0
10
15.34615074555064
20
-19.289100214740699
30
0
10
2.1725443180400639
20
-20.564656238656305
30
0
0
SPLINE
5
108
100
AcDbEntity
8
0
100
AcDbSpline
70
4
71
3
72
8
73
4
74
0
42
0.000000001
43
0.0000000001
44
0.0000000001
40
0
40
0
40
0
40
0
40
1
40
1
40
1
40
1
41
1
41
1
41
1
41
1
10
2.1725443180400639
20
-20.564656238656305
30
0
10
0.3580313658712786
20
-20.740339959562881
30
0
10
-14.902600449721177
20
-20.630273196002904
30
0
10
-17.766451806227526
20
-20.420723244449558
30
0
0
LINE
5
109
100
AcDbEntity
8
0
100
AcDbLine
10
-17.766451806227529
20
-20.420723244449555
30
0
11
-19.58837709665314
21
-20.287638263802791
31
0
0
LINE
5
110
100
AcDbEntity
8
0
100
AcDbLine
10
-19.58837709665314
20
-20.287638263802791
30
0
11
-22.017250158786936
21
-18.668123099109593
31
0
0
SPLINE
5
111
100
AcDbEntity
8
0
100
AcDbSpline
70
4
71
3
72
8
73
4
74
0
42
0.000000001
43
0.0000000001
44
0.0000000001
40
0
40
0
40
0
40
0
40
1
40
1
40
1
40
1
41
1
41
1
41
1
41
1
10
-22.017250158786936
20
-18.668123099109593
30
0
10
-31.357837965488589
20
-12.440888942183118
30
0
10
-33.58086118936555
20
-8.8081609059384078
30
0
10
-31.840697704156398
20
-2.6161171882361778
30
0
0
SPLINE
5
112
100
AcDbEntity
8
0
100
AcDbSpline
70
4
71
3
72
8
73
4
74
0
42
0.000000001
43
0.0000000001
44
0.0000000001
40
0
40
0
40
0
40
0
40
1
40
1
40
1
40
1
41
1
41
1
41
1
41
1
10
-31.840697704156398
20
-2.6161171882361778
30
0
10
-29.312081053257142
20
6.3823645622521052
30
0
10
-21.160527581373998
20
10.399266500372626
30
0
10
-3.8866788570087696
20
11.158885831732492
30
0
0
SPLINE
5
113
100
AcDbEntity
8
0
100
AcDbSpline
70
4
71
3
72
8
73
4
74
0
42
0.000000001
43
0.0000000001
44
0.0000000001
40
0
40
0
40
0
40
0
40
1
40
1
40
1
40
1
41
1
41
1
41
1
41
1
10
-3.8866788570087696
20
11.158885831732492
30
0
10
10.951683836777857
20
11.811611655452792
30
0
10
17.50065021276459
20
8.0545291295637078
30
0
10
19.276535031795355
20
-2.1298136998226802
30
0
0
LINE
5
114
100
AcDbEntity
8
0
100
AcDbLine
10
-22.469789953617408
20
-19.327909449936133
30
0
11
-19.856845176332826
21
-21.070159119884035
31
0
0
LINE
5
115
100
AcDbEntity
8
0
100
AcDbLine
10
-19.856845176332826
20
-21.070159119884035
30
0
11
-17.824882337406642
21
-21.218586563286621
31
0
0
SPLINE
5
116
100
AcDbEntity
8
0
100
AcDbSpline
70
0
71
3
72
20
73
16
74
0
42
0.000000001
43
0.0000000001
44
0.0000000001
40
-1.0000053893883551
40
-1.0000053893883551
40
-1.0000053893883551
40
-1.0000053893883551
40
-1
40
-1
40
-1
40
-0.884398152082571
40
-0.884398152082571
40
-0.884398152082571
40
-0.57469111270924655
40
-0.57469111270924655
40
-0.57469111270924655
40
-0.13289275380966661
40
-0.13289275380966661
40
-0.13289275380966661
40
0
40
0
40
0
40
0
10
-17.824882337406642
20
-21.218586563286621
30
0
10
-17.824865650223764
20
-21.218587784299139
30
0
10
-17.824848963077379
20
-21.218589005308992
30
0
10
-17.824832275967481
20
-21.218590226316174
30
0
10
-17.472054183160367
20
-21.244403239302642
30
0
10
-16.971114528685597
20
-21.267200048486554
30
0
10
-16.34350238338904
20
-21.288653193395444
30
0
10
-14.662256003670668
20
-21.346121842595331
30
0
10
-12.090325288986893
20
-21.391439818257556
30
0
10
-9.3816452107827075
20
-21.419734007388357
30
0
10
-5.517697076735284
20
-21.460095835341409
30
0
10
-1.3873027057691114
20
-21.465806994428856
30
0
10
0.81410251406270895
20
-21.41982071198435
30
0
10
1.4768804969319207
20
-21.405975602849672
30
0
10
1.9445976179498172
20
-21.390467369873967
30
0
10
2.249640930354758
20
-21.360932643160165
30
0
0
SPLINE
5
117
100
AcDbEntity
8
0
100
AcDbSpline
70
0
71
3
72
14
73
10
74
0
42
0.000000001
43
0.0000000001
44
0.0000000001
40
-1
40
-1
40
-1
40
-1
40
-0.81815862232787728
40
-0.81815862232787728
40
-0.81815862232787728
40
-0.40019108197548253
40
-0.40019108197548253
40
-0.40019108197548253
40
0
40
0
40
0
40
0
10
2.2496450468082512
20
-21.360932244588554
30
0
10
4.6866743183041004
20
-21.124962892929201
30
0
10
6.8881053501430447
20
-20.71987458143149
30
0
10
8.8536063218177254
20
-20.142302521647775
30
0
10
13.370799055633643
20
-18.814903375420371
30
0
10
16.667228680349755
20
-16.550765982452191
30
0
10
18.55536642342766
20
-13.362848630429687
30
0
10
20.363287155894753
20
-10.310369066773573
30
0
10
20.846412348495843
20
-6.4754053563574328
30
0
10
20.064641613465337
20
-1.9923800215321832
30
0
0
SPLINE
5
118
100
AcDbEntity
8
0
100
AcDbSpline
70
0
71
3
72
14
73
10
74
0
42
0.000000001
43
0.0000000001
44
0.0000000001
40
-0.9999996795131938
40
-0.9999996795131938
40
-0.9999996795131938
40
-0.9999996795131938
40
-0.86783701037091432
40
-0.86783701037091432
40
-0.86783701037091432
40
-0.47022253628762939
40
-0.47022253628762939
40
-0.47022253628762939
40
0
40
0
40
0
40
0
10
20.064641271997459
20
-1.9923780630461818
30
0
10
19.823132026417213
20
-0.60737397777573143
30
0
10
19.494251372095221
20
0.67197957718107781
30
0
10
19.066003804678701
20
1.8494622992569378
30
0
10
17.778197171825919
20
5.390334857405068
30
0
10
15.548246515078855
20
8.0084602202855226
30
0
10
12.272321697544299
20
9.659186268833686
30
0
10
8.3955460873753474
20
11.612678745165399
30
0
10
3.1240299370676512
20
12.268054055889861
30
0
10
-3.9218361167361011
20
11.958112937809648
30
0
0
SPLINE
5
119
100
AcDbEntity
8
0
100
AcDbSpline
70
0
71
3
72
11
73
7
74
0
42
0.000000001
43
0.0000000001
44
0.0000000001
40
-0.99999973342921655
40
-0.99999973342921655
40
-0.99999973342921655
40
-0.99999973342921655
40
-0.44436096082276783
40
-0.44436096082276783
40
-0.44436096082276783
40
0
40
0
40
0
40
0
10
-3.9218388800308093
20
11.958112816370491
30
0
10
-13.5827587907877
20
11.533271769330449
30
0
10
-20.482077170254041
20
10.112185778400956
30
0
10
-25.242409358762931
20
7.2666305480351889
30
0
10
-29.047509578170878
20
4.9920786044671868
30
0
10
-31.441284624027645
20
1.7624502210910724
30
0
10
-32.610867653977486
20
-2.3996957281344033
30
0
0
SPLINE
5
120
100
AcDbEntity
8
0
100
AcDbSpline
70
0
71
3
72
14
73
10
74
0
42
0.000000001
43
0.0000000001
44
0.0000000001
40
-0.9999987487806532
40
-0.9999987487806532
40
-0.9999987487806532
40
-0.9999987487806532
40
-0.85835496999160366
40
-0.85835496999160366
40
-0.85835496999160366
40
-0.48632251220299144
40
-0.48632251220299144
40
-0.48632251220299144
40
-0.00031069265518807616
40
-0.00031069265518807616
40
-0.00031069265518807616
40
-0.00031069265518807616
10
-32.610868960862597
20
-2.3997003775443866
30
0
10
-32.867284191010164
20
-3.3121098760571521
30
0
10
-33.044600608838877
20
-4.1831853009432125
30
0
10
-33.128716556375998
20
-5.0287422048476778
30
0
10
-33.349395022005872
20
-7.2470635293984529
30
0
10
-32.89153018607945
20
-9.3014041939948715
30
0
10
-31.630555567565448
20
-11.263405441856127
30
0
10
-29.980724687586985
20
-13.830443824510006
30
0
10
-27.04219556511811
20
-16.278934496189528
30
0
10
-22.469789953617408
20
-19.327909449936133
30
0
0
LINE
5
121
100
AcDbEntity
8
0
100
AcDbLine
10
-19.655494115327773
20
-20.483268477962394
30
0
11
-22.136924972923637
21
-18.82870918470093
31
0
0
SPLINE
5
122
100
AcDbEntity
8
0
100
AcDbSpline
70
0
71
3
72
11
73
7
74
0
42
0.000000001
43
0.0000000001
44
0.0000000001
40
0.00031112104597860442
40
0.00031112104597860442
40
0.00031112104597860442
40
0.00031112104597860442
40
0.70006622936563812
40
0.70006622936563812
40
0.70006622936563812
40
1
40
1
40
1
40
1
10
-22.136924972923634
20
-18.828709184700934
30
0
10
-28.682364625619037
20
-14.464026704134938
30
0
10
-31.788262641757228
20
-11.342979358898956
30
0
10
-32.448640539896815
20
-7.6714822038993287
30
0
10
-32.731696184189609
20
-6.0977802437711262
30
0
10
-32.560425996876482
20
-4.4379031293346785
30
0
10
-32.033238819533139
20
-2.5620069406902548
30
0
0
SPLINE
5
123
100
AcDbEntity
8
0
100
AcDbSpline
70
0
71
3
72
11
73
7
74
0
42
0.000000001
43
0.0000000001
44
0.0000000001
40
1.7901812182141296e-07
40
1.7901812182141296e-07
40
1.7901812182141296e-07
40
1.7901812182141296e-07
40
0.71355062452470053
40
0.71355062452470053
40
0.71355062452470053
40
1
40
1
40
1
40
1
10
-32.033238819594494
20
-2.5620069406733306
30
0
10
-30.210324923625457
20
3.9251135768809728
30
0
10
-25.452871536336129
20
7.8754253139365069
30
0
10
-16.611415741722411
20
9.8589180005771269
30
0
10
-13.062080853617129
20
10.65517598755752
30
0
10
-8.8516141248708973
20
11.140745563871308
30
0
10
-3.8954653866038669
20
11.358692730756712
30
0
0
SPLINE
5
124
100
AcDbEntity
8
0
100
AcDbSpline
70
0
71
3
72
11
73
7
74
0
42
0.000000001
43
0.0000000001
44
0.0000000001
40
6.2418142977912715e-08
40
6.2418142977912715e-08
40
6.2418142977912715e-08
40
6.2418142977912715e-08
40
0.66735487605329502
40
0.66735487605329502
40
0.66735487605329502
40
1
40
1
40
1
40
1
10
-3.8954653866048172
20
11.358692730776074
30
0
10
6.0311739529252417
20
11.795356058112784
30
0
10
12.317878081197843
20
10.265654837892697
30
0
10
15.941239415117494
20
6.1055349955728175
30
0
10
17.747315366619276
20
4.0319100627672819
30
0
10
18.878543495538924
20
1.3168545086823058
30
0
10
19.473562031079933
20
-2.095457309544944
30
0
0
SPLINE
5
125
100
AcDbEntity
8
0
100
AcDbSpline
70
0
71
3
72
11
73
7
74
0
42
0.000000001
43
0.0000000001
44
0.0000000001
40
6.171969499464272e-08
40
6.171969499464272e-08
40
6.171969499464272e-08
40
6.171969499464272e-08
40
0.60109878086702684
40
0.60109878086702684
40
0.60109878086702684
40
1
40
1
40
1
40
1
10
19.473562031090296
20
-2.09545730954307
30
0
10
20.622386148600125
20
-8.6833349812434175
30
0
10
18.943342333957879
20
-13.665753240862475
30
0
10
14.523215758969943
20
-16.837259846613733
30
0
10
11.589930720555852
20
-18.941935520048943
30
0
10
7.4695457357840969
20
-20.25270075118263
30
0
10
2.1918195002321106
20
-20.763725240139369
30
0
0
SPLINE
5
126
100
AcDbEntity
8
0
100
AcDbSpline
70
0
71
3
72
14
73
10
74
0
42
0.000000001
43
0.0000000001
44
0.0000000001
40
0
40
0
40
0
40
0
40
0.26699144618634862
40
0.26699144618634862
40
0.26699144618634862
40
0.86136358883870157
40
0.86136358883870157
40
0.86136358883870157
40
1
40
1
40
1
40
1
10
2.1918184711187374
20
-20.763725339782269
30
0
10
1.6766444298779462
20
-20.813605222078774
30
0
10
0.24748403906403704
20
-20.838089375419813
30
0
10
-1.663462998589246
20
-20.847808222352676
30
0
10
-5.9175831267389665
20
-20.86944416596851
30
0
10
-12.480154957622327
20
-20.807743690646095
30
0
10
-15.935553801357329
20
-20.701550076754526
30
0
10
-16.741520401152222
20
-20.676780575525079
30
0
10
-17.377567766668886
20
-20.649712834252636
30
0
10
-17.781046923657126
20
-20.620189989916607
30
0
0
LINE
5
127
100
AcDbEntity
8
0
100
AcDbLine
10
-17.781046923657126
20
-20.620189989916607
30
0
11
-19.655494115327773
21
-20.483268477962394
31
0
0
ENDSEC
0
SECTION
2
OBJECTS
0
DICTIONARY
5
C
100
AcDbDictionary
3
ACAD_GROUP
350
D
3
ACAD_MLINESTYLE
350
17
0
DICTIONARY
5
D
100
AcDbDictionary
0
DICTIONARY
5
1A
330
C
100
AcDbDictionary
0
DICTIONARY
5
17
100
AcDbDictionary
0
ENDSEC
0
EOF
