0
SECTION
2
HEADER
9
$INSUNITS
70
4
9
$ACADVER
1
AC1014
9
$HANDSEED
5
FFFF
0
ENDSEC
0
SECTION
2
TABLES
0
TABLE
2
VPORT
5
8
100
AcDbSymbolTable
0
ENDTAB
0
TABLE
2
LTYPE
5
5
100
AcDbSymbolTable
0
LTYPE
5
14
100
AcDbSymbolTableRecord
100
AcDbLinetypeTableRecord
2
BYBLOCK
70
0
0
LTYPE
5
15
100
AcDbSymbolTableRecord
100
AcDbLinetypeTableRecord
2
BYLAYER
70
0
0
LTYPE
5
16
100
AcDbSymbolTableRecord
100
AcDbLinetypeTableRecord
2
DASHED
70
0
3
Dashed __ __ __ __ __ __ __ __ __ __ __ __ __ _
72
65
73
2
40
0.75
49
0.5
74
0
49
-0.25
74
0
0
ENDTAB
0
TABLE
2
LAYER
5
2
100
AcDbSymbolTable
70
2
0
LAYER
5
50
100
AcDbSymbolTableRecord
100
AcDbLayerTableRecord
2
0
70
0
62
7
6
CONTINUOUS
0
ENDTAB
0
TABLE
2
STYLE
5
3
100
AcDbSymbolTable
70
1
0
STYLE
5
11
100
AcDbSymbolTableRecord
100
AcDbTextStyleTableRecord
2
STANDARD
70
0
0
ENDTAB
0
TABLE
2
VIEW
5
6
100
AcDbSymbolTable
70
0
0
ENDTAB
0
TABLE
2
UCS
5
7
100
AcDbSymbolTable
70
0
0
ENDTAB
0
TABLE
2
APPID
5
9
100
AcDbSymbolTable
70
2
0
APPID
5
12
100
AcDbSymbolTableRecord
100
AcDbRegAppTableRecord
2
ACAD
70
0
0
ENDTAB
0
TABLE
2
DIMSTYLE
5
A
100
AcDbSymbolTable
70
1
0
ENDTAB
0
TABLE
2
BLOCK_RECORD
5
1
100
AcDbSymbolTable
70
1
0
BLOCK_RECORD
5
1F
100
AcDbSymbolTableRecord
100
AcDbBlockTableRecord
2
*MODEL_SPACE
0
BLOCK_RECORD
5
1B
100
AcDbSymbolTableRecord
100
AcDbBlockTableRecord
2
*PAPER_SPACE
0
ENDTAB
0
ENDSEC
0
SECTION
2
BLOCKS
0
BLOCK
5
20
100
AcDbEntity
100
AcDbBlockBegin
2
*MODEL_SPACE
0
ENDBLK
5
21
100
AcDbEntity
100
AcDbBlockEnd
0
BLOCK
5
1C
100
AcDbEntity
100
AcDbBlockBegin
2
*PAPER_SPACE
0
ENDBLK
5
1D
100
AcDbEntity
100
AcDbBlockEnd
0
ENDSEC
0
SECTION
2
ENTITIES
0
SPLINE
5
100
100
AcDbEntity
8
0
100
AcDbSpline
70
4
71
3
72
8
73
4
74
0
42
0.000000001
43
0.0000000001
44
0.0000000001
40
0
40
0
40
0
40
0
40
1
40
1
40
1
40
1
41
1
41
1
41
1
41
1
10
41.374800600210676
20
-6.5623758285254841
30
0
10
41.570327263672993
20
-7.9353015550981576
30
0
10
39.916945868333038
20
-17.141742591958309
30
0
10
38.771299550533143
20
-21.0591633606961
30
0
0
SPLINE
5
101
100
AcDbEntity
8
0
100
AcDbSpline
70
4
71
3
72
8
73
4
74
0
42
0.000000001
43
0.0000000001
44
0.0000000001
40
0
40
0
40
0
40
0
40
1
40
1
40
1
40
1
41
1
41
1
41
1
41
1
10
38.771299550533143
20
-21.0591633606961
30
0
10
34.501718026002102
20
-35.659929526747334
30
0
10
24.877501294612738
20
-41.871022873025211
30
0
10
9.1620442048707051
20
-40.166841627062425
30
0
0
SPLINE
5
102
100
AcDbEntity
8
0
100
AcDbSpline
70
4
71
3
72
8
73
4
74
0
42
0.000000001
43
0.0000000001
44
0.0000000001
40
0
40
0
40
0
40
0
40
1
40
1
40
1
40
1
41
1
41
1
41
1
41
1
10
9.1620442048707051
20
-40.166841627062425
30
0
10
6.9792317048707098
20
-39.930303860605825
30
0
10
3.232730735937599
20
-39.2466206241658
30
0
10
1.1446395214397143
20
-38.704224992693533
30
0
0
SPLINE
5
103
100
AcDbEntity
8
0
100
AcDbSpline
70
4
71
3
72
8
73
4
74
0
42
0.000000001
43
0.0000000001
44
0.0000000001
40
0
40
0
40
0
40
0
40
1
40
1
40
1
40
1
41
1
41
1
41
1
41
1
10
1.1446395214397143
20
-38.704224992693533
30
0
10
-7.9932757401467924
20
-36.3298539130897
30
0
10
-13.120635575453594
20
-32.851112561326289
30
0
10
-16.302781457106423
20
-26.866237843931778
30
0
0
SPLINE
5
104
100
AcDbEntity
8
0
100
AcDbSpline
70
4
71
3
72
8
73
4
74
0
42
0.000000001
43
0.0000000001
44
0.0000000001
40
0
40
0
40
0
40
0
40
1
40
1
40
1
40
1
41
1
41
1
41
1
41
1
10
-16.302781457106423
20
-26.866237843931778
30
0
10
-16.840943052768864
20
-25.8542053827654
30
0
10
-17.364021589756167
20
-25.937020902734066
30
0
10
-11.774432216485495
20
-26.149481690825091
30
0
0
SPLINE
5
105
100
AcDbEntity
8
0
100
AcDbSpline
70
4
71
3
72
8
73
4
74
0
42
0.000000001
43
0.0000000001
44
0.0000000001
40
0
40
0
40
0
40
0
40
1
40
1
40
1
40
1
41
1
41
1
41
1
41
1
10
-11.774432216485495
20
-26.149481690825091
30
0
10
6.064300471146753
20
-26.827607692183122
30
0
10
14.835502812862247
20
-24.807779833576149
30
0
10
20.375616039434917
20
-18.745910259983006
30
0
0
SPLINE
5
106
100
AcDbEntity
8
0
100
AcDbSpline
70
4
71
3
72
8
73
4
74
0
42
0.000000001
43
0.0000000001
44
0.0000000001
40
0
40
0
40
0
40
0
40
1
40
1
40
1
40
1
41
1
41
1
41
1
41
1
10
20.375616039434917
20
-18.745910259983006
30
0
10
27.895073888301702
20
-10.518428767622572
30
0
10
26.05992266098643
20
5.9838988970706275
30
0
10
16.906133045355325
20
12.451902837652904
30
0
0
SPLINE
5
107
100
AcDbEntity
8
0
100
AcDbSpline
70
4
71
3
72
8
73
4
74
0
42
0.000000001
43
0.0000000001
44
0.0000000001
40
0
40
0
40
0
40
0
40
1
40
1
40
1
40
1
41
1
41
1
41
1
41
1
10
16.906133045355325
20
12.451902837652904
30
0
10
12.420917476812852
20
15.621347621181547
30
0
10
7.9486654257772837
20
16.649518874385898
30
0
10
-1.2842375779153414
20
16.634435815710766
30
0
0
SPLINE
5
108
100
AcDbEntity
8
0
100
AcDbSpline
70
4
71
3
72
8
73
4
74
0
42
0.000000001
43
0.0000000001
44
0.0000000001
40
0
40
0
40
0
40
0
40
1
40
1
40
1
40
1
41
1
41
1
41
1
41
1
10
-1.2842375779153414
20
16.634435815710766
30
0
10
-10.9648078624409
20
16.618827918270178
30
0
10
-17.159504034519344
20
15.689608958461827
30
0
10
-23.615594135125626
20
13.284813883998936
30
0
0
LINE
5
109
100
AcDbEntity
8
0
100
AcDbLine
10
-23.615594135125626
20
13.284813883998936
30
0
11
-25.040377968947247
21
12.754056552150793
31
0
0
LINE
5
110
100
AcDbEntity
8
0
100
AcDbLine
10
-25.040377968947247
20
12.754056552150793
30
0
11
-25.12689562082306
21
13.311269794999498
31
0
0
SPLINE
5
111
100
AcDbEntity
8
0
100
AcDbSpline
70
4
71
3
72
8
73
4
74
0
42
0.000000001
43
0.0000000001
44
0.0000000001
40
0
40
0
40
0
40
0
40
1
40
1
40
1
40
1
41
1
41
1
41
1
41
1
10
-25.12689562082306
20
13.311269794999498
30
0
10
-25.24013967752472
20
14.038082666296701
30
0
10
-25.852384283542786
20
20.824381132025465
30
0
10
-26.084952452182932
20
23.931115757523919
30
0
0
SPLINE
5
112
100
AcDbEntity
8
0
100
AcDbSpline
70
4
71
3
72
8
73
4
74
0
42
0.000000001
43
0.0000000001
44
0.0000000001
40
0
40
0
40
0
40
0
40
1
40
1
40
1
40
1
41
1
41
1
41
1
41
1
10
-26.084952452182932
20
23.931115757523919
30
0
10
-26.184970571994945
20
25.266999978918776
30
0
10
-26.345304777622385
20
27.405887511470858
30
0
10
-26.440817358493955
20
28.683829533158686
30
0
0
SPLINE
5
113
100
AcDbEntity
8
0
100
AcDbSpline
70
4
71
3
72
8
73
4
74
0
42
0.000000001
43
0.0000000001
44
0.0000000001
40
0
40
0
40
0
40
0
40
1
40
1
40
1
40
1
41
1
41
1
41
1
41
1
10
-26.440817358493955
20
28.683829533158686
30
0
10
-26.666247719923817
20
31.693464949825348
30
0
10
-26.665714806715801
20
41.759533344804197
30
0
10
-26.440026063124495
20
43.933617372412428
30
0
0
SPLINE
5
114
100
AcDbEntity
8
0
100
AcDbSpline
70
4
71
3
72
8
73
4
74
0
42
0.000000001
43
0.0000000001
44
0.0000000001
40
0
40
0
40
0
40
0
40
1
40
1
40
1
40
1
41
1
41
1
41
1
41
1
10
-26.440026063124495
20
43.933617372412428
30
0
10
-25.855557539463199
20
49.565799430110999
30
0
10
-24.754098608493962
20
55.055903596777668
30
0
10
-22.969218860467429
20
61.23313474963004
30
0
0
SPLINE
5
115
100
AcDbEntity
8
0
100
AcDbSpline
70
4
71
3
72
8
73
4
74
0
42
0.000000001
43
0.0000000001
44
0.0000000001
40
0
40
0
40
0
40
0
40
1
40
1
40
1
40
1
41
1
41
1
41
1
41
1
10
-22.969218860467429
20
61.23313474963004
30
0
10
-22.547208120823061
20
62.693631842830726
30
0
10
-22.426826256911117
20
63.585276384253255
30
0
10
-22.208275320530095
20
66.871671393611962
30
0
0
SPLINE
5
116
100
AcDbEntity
8
0
100
AcDbSpline
70
4
71
3
72
8
73
4
74
0
42
0.000000001
43
0.0000000001
44
0.0000000001
40
0
40
0
40
0
40
0
40
1
40
1
40
1
40
1
41
1
41
1
41
1
41
1
10
-22.208275320530095
20
66.871671393611962
30
0
10
-21.514809896946101
20
77.293871151505854
30
0
10
-19.548424754937646
20
79.810319617488943
30
0
10
-12.127915162245593
20
79.773282149532392
30
0
0
SPLINE
5
117
100
AcDbEntity
8
0
100
AcDbSpline
70
4
71
3
72
8
73
4
74
0
42
0.000000001
43
0.0000000001
44
0.0000000001
40
0
40
0
40
0
40
0
40
1
40
1
40
1
40
1
41
1
41
1
41
1
41
1
10
-12.127915162245593
20
79.773282149532392
30
0
10
-3.1836775167784648
20
79.728832343319013
30
0
10
-1.451451208591612
20
77.293079856136387
30
0
10
-2.099150691827294
20
65.671252094804203
30
0
0
LINE
5
118
100
AcDbEntity
8
0
100
AcDbLine
10
-2.0991506918272949
20
65.671252094804203
30
0
11
-2.2385882401467949
21
63.169620230892249
31
0
0
LINE
5
119
100
AcDbEntity
8
0
100
AcDbLine
10
-2.2385882401467949
20
63.169620230892249
30
0
11
-3.4530247712136841
21
62.942340822119469
31
0
0
SPLINE
5
120
100
AcDbEntity
8
0
100
AcDbSpline
70
4
71
3
72
8
73
4
74
0
42
0.000000001
43
0.0000000001
44
0.0000000001
40
0
40
0
40
0
40
0
40
1
40
1
40
1
40
1
41
1
41
1
41
1
41
1
10
-3.4530247712136841
20
62.942340822119469
30
0
10
-7.2889582657815577
20
62.224264497656577
30
0
10
-12.064151289463201
20
60.770113916296715
30
0
10
-15.077226418654277
20
59.402747443416658
30
0
0
SPLINE
5
121
100
AcDbEntity
8
0
100
AcDbSpline
70
4
71
3
72
8
73
4
74
0
42
0.000000001
43
0.0000000001
44
0.0000000001
40
0
40
0
40
0
40
0
40
1
40
1
40
1
40
1
41
1
41
1
41
1
41
1
10
-15.077226418654277
20
59.402747443416658
30
0
10
-16.130537448724258
20
58.924643551408202
30
0
10
-15.784458766778471
20
58.760603176652339
30
0
10
-14.314700287978006
20
59.041327320634274
30
0
0
SPLINE
5
122
100
AcDbEntity
8
0
100
AcDbSpline
70
4
71
3
72
8
73
4
74
0
42
0.000000001
43
0.0000000001
44
0.0000000001
40
0
40
0
40
0
40
0
40
1
40
1
40
1
40
1
41
1
41
1
41
1
41
1
10
-14.314700287978006
20
59.041327320634274
30
0
10
-11.524407103061831
20
59.574192081986808
30
0
10
-7.6585739477476977
20
59.446405954260584
30
0
10
-4.4073754334451287
20
58.713771409888018
30
0
0
SPLINE
5
123
100
AcDbEntity
8
0
100
AcDbSpline
70
4
71
3
72
8
73
4
74
0
42
0.000000001
43
0.0000000001
44
0.0000000001
40
0
40
0
40
0
40
0
40
1
40
1
40
1
40
1
41
1
41
1
41
1
41
1
10
-4.4073754334451287
20
58.713771409888018
30
0
10
-0.43174600839630095
20
57.818154242733058
30
0
10
-0.74845794280385292
20
57.848845198848799
30
0
10
2.595612809657899
20
58.036172265906089
30
0
0
SPLINE
5
124
100
AcDbEntity
8
0
100
AcDbSpline
70
4
71
3
72
8
73
4
74
0
42
0.000000001
43
0.0000000001
44
0.0000000001
40
0
40
0
40
0
40
0
40
1
40
1
40
1
40
1
41
1
41
1
41
1
41
1
10
2.595612809657899
20
58.036172265906089
30
0
10
4.3262524898845456
20
58.133275511959148
30
0
10
7.5769261654216535
20
58.198097136714999
30
0
10
9.8195339496928913
20
58.180373735327464
30
0
0
SPLINE
5
125
100
AcDbEntity
8
0
100
AcDbSpline
70
4
71
3
72
8
73
4
74
0
42
0.000000001
43
0.0000000001
44
0.0000000001
40
0
40
0
40
0
40
0
40
1
40
1
40
1
40
1
41
1
41
1
41
1
41
1
10
9.8195339496928913
20
58.180373735327464
30
0
10
14.643944737911072
20
58.142536897558927
30
0
10
14.943454072475282
20
58.217677659888025
30
0
10
15.607027909755553
20
59.635315612056807
30
0
0
SPLINE
5
126
100
AcDbEntity
8
0
100
AcDbSpline
70
4
71
3
72
8
73
4
74
0
42
0.000000001
43
0.0000000001
44
0.0000000001
40
0
40
0
40
0
40
0
40
1
40
1
40
1
40
1
41
1
41
1
41
1
41
1
10
15.607027909755553
20
59.635315612056807
30
0
10
15.886956721146754
20
60.233534911373212
30
0
10
15.898071191310734
20
60.524311736324385
30
0
10
15.727942686875513
20
62.844971119462407
30
0
0
SPLINE
5
127
100
AcDbEntity
8
0
100
AcDbSpline
70
4
71
3
72
8
73
4
74
0
42
0.000000001
43
0.0000000001
44
0.0000000001
40
0
40
0
40
0
40
0
40
1
40
1
40
1
40
1
41
1
41
1
41
1
41
1
10
15.727942686875513
20
62.844971119462407
30
0
10
15.245078910986436
20
69.434685169755369
30
0
10
15.704131155808616
20
75.38542820920442
30
0
10
16.877557593186545
20
77.746306390661942
30
0
0
SPLINE
5
128
100
AcDbEntity
8
0
100
AcDbSpline
70
4
71
3
72
8
73
4
74
0
42
0.000000001
43
0.0000000001
44
0.0000000001
40
0
40
0
40
0
40
0
40
1
40
1
40
1
40
1
41
1
41
1
41
1
41
1
10
16.877557593186545
20
77.746306390661942
30
0
10
19.717330962021997
20
83.459983796972978
30
0
10
29.87044992208466
20
85.952095893123698
30
0
10
36.539804217815252
20
82.572311881282872
30
0
0
SPLINE
5
129
100
AcDbEntity
8
0
100
AcDbSpline
70
4
71
3
72
8
73
4
74
0
42
0.000000001
43
0.0000000001
44
0.0000000001
40
0
40
0
40
0
40
0
40
1
40
1
40
1
40
1
41
1
41
1
41
1
41
1
10
36.539804217815252
20
82.572311881282872
30
0
10
37.80027920166637
20
81.933607327042978
30
0
10
39.834394786357734
20
79.671414982377442
30
0
10
39.834394786357734
20
78.908355938493159
30
0
0
SPLINE
5
130
100
AcDbEntity
8
0
100
AcDbSpline
70
4
71
3
72
8
73
4
74
0
42
0.000000001
43
0.0000000001
44
0.0000000001
40
0
40
0
40
0
40
0
40
1
40
1
40
1
40
1
41
1
41
1
41
1
41
1
10
39.834394786357734
20
78.908355938493159
30
0
10
39.834394786357734
20
78.839828144608902
30
0
10
39.948165700435496
20
78.658064368465489
30
0
10
40.08707235415762
20
78.504601513444342
30
0
0
SPLINE
5
131
100
AcDbEntity
8
0
100
AcDbSpline
70
4
71
3
72
8
73
4
74
0
42
0.000000001
43
0.0000000001
44
0.0000000001
40
0
40
0
40
0
40
0
40
1
40
1
40
1
40
1
41
1
41
1
41
1
41
1
10
40.08707235415762
20
78.504601513444342
30
0
10
41.100955881277571
20
77.384361429114094
30
0
10
41.913755509853218
20
68.02128629992302
30
0
10
41.586730493704337
20
61.23313474963004
30
0
0
SPLINE
5
132
100
AcDbEntity
8
0
100
AcDbSpline
70
4
71
3
72
8
73
4
74
0
42
0.000000001
43
0.0000000001
44
0.0000000001
40
0
40
0
40
0
40
0
40
1
40
1
40
1
40
1
41
1
41
1
41
1
41
1
10
41.586730493704337
20
61.23313474963004
30
0
10
41.512911921342067
20
59.706225366492021
30
0
10
41.515029443899643
20
56.739449090857264
30
0
10
41.590963520208852
20
54.640247443416655
30
0
0
SPLINE
5
133
100
AcDbEntity
8
0
100
AcDbSpline
70
4
71
3
72
8
73
4
74
0
42
0.000000001
43
0.0000000001
44
0.0000000001
40
0
40
0
40
0
40
0
40
1
40
1
40
1
40
1
41
1
41
1
41
1
41
1
10
41.590963520208852
20
54.640247443416655
30
0
10
42.644799389044294
20
25.498243938981435
30
0
10
42.620987857977397
20
3.4801474919904685
30
0
10
41.526670771439726
20
-4.7825264582048455
30
0
0
SPLINE
5
134
100
AcDbEntity
8
0
100
AcDbSpline
70
4
71
3
72
8
73
4
74
0
42
0.000000001
43
0.0000000001
44
0.0000000001
40
0
40
0
40
0
40
0
40
1
40
1
40
1
40
1
41
1
41
1
41
1
41
1
10
41.526670771439726
20
-4.7825264582048455
30
0
10
41.419250406424055
20
-5.5937374402096474
30
0
10
41.350987050533149
20
-6.3946292846412067
30
0
10
41.374800600210676
20
-6.5623758285254841
30
0
0
SPLINE
5
135
100
AcDbEntity
8
0
100
AcDbSpline
70
0
71
3
72
11
73
7
74
0
42
0.000000001
43
0.0000000001
44
0.0000000001
40
-0.99999921344814335
40
-0.99999921344814335
40
-0.99999921344814335
40
-0.99999921344814335
40
-0.67963173025412948
40
-0.67963173025412948
40
-0.67963173025412948
40
-2.3856531353263548e-06
40
-2.3856531353263548e-06
40
-2.3856531353263548e-06
40
-2.3856531353263548e-06
10
-1.2825823496597994
20
15.63443718536659
30
0
10
1.6513842101031915
20
15.639229652407764
30
0
10
4.0843811931404224
20
15.537186662642631
30
0
10
6.1666128011468295
20
15.298128227375447
30
0
10
10.583870410901996
20
14.790988345193385
30
0
10
13.398036945692031
20
13.706389961668489
30
0
10
16.329004614576622
20
11.63524943756665
30
0
0
SPLINE
5
136
100
AcDbEntity
8
0
100
AcDbSpline
70
0
71
3
72
17
73
13
74
0
42
0.000000001
43
0.0000000001
44
0.0000000001
40
-1.0000021089610405
40
-1.0000021089610405
40
-1.0000021089610405
40
-1.0000021089610405
40
-1
40
-1
40
-1
40
-0.96048235349897637
40
-0.96048235349897637
40
-0.96048235349897637
40
-0.47604159875768737
40
-0.47604159875768737
40
-0.47604159875768737
40
0
40
0
40
0
40
0
10
16.329004613567037
20
11.635249436110755
30
0
10
16.329023918510941
20
11.635235795371949
30
0
10
16.329043223496612
20
11.635222154603628
30
0
10
16.329062528492191
20
11.63520851382831
30
0
10
16.666960098055938
20
11.396452446317269
30
0
10
16.994663094868486
20
11.142720945976293
30
0
10
17.312073376590103
20
10.874917097509066
30
0
10
21.203157235439903
20
7.5919508796011659
30
0
10
23.546343378155164
20
2.1441596512173322
30
0
10
23.977258960058585
20
-3.4227527968429703
30
0
10
24.400703396826611
20
-8.8931470111653166
30
0
10
22.977163892209852
20
-14.417113609645448
30
0
10
19.637461648476322
20
-18.071278438091582
30
0
0
SPLINE
5
137
100
AcDbEntity
8
0
100
AcDbSpline
70
0
71
3
72
11
73
7
74
0
42
0.000000001
43
0.0000000001
44
0.0000000001
40
-1
40
-1
40
-1
40
-1
40
-0.64378246414530882
40
-0.64378246414530882
40
-0.64378246414530882
40
0
40
0
40
0
40
0
10
19.637455798566204
20
-18.071284838878341
30
0
10
17.763697906882253
20
-20.121509353676888
30
0
10
15.528725347307574
20
-21.669492294947418
30
0
10
12.597497062813831
20
-22.814549040216775
30
0
10
7.2999662620461052
20
-24.883979595585117
30
0
10
-0.30867748394915129
20
-25.58462144954715
30
0
10
-11.736445406018635
20
-25.150203450178093
30
0
0
SPLINE
5
138
100
AcDbEntity
8
0
100
AcDbSpline
70
0
71
3
72
26
73
22
74
0
42
0.000000001
43
0.0000000001
44
0.0000000001
40
-1
40
-1
40
-1
40
-1
40
-0.9677974175316888
40
-0.9677974175316888
40
-0.9677974175316888
40
-0.59132442524082129
40
-0.59132442524082129
40
-0.59132442524082129
40
-0.43304567332242067
40
-0.43304567332242067
40
-0.43304567332242067
40
-0.34939079364420089
40
-0.34939079364420089
40
-0.34939079364420089
40
-0.27134724677069844
40
-0.27134724677069844
40
-0.27134724677069844
40
-0.15570961727436272
40
-0.15570961727436272
40
-0.15570961727436272
40
-1.9810991318455097e-05
40
-1.9810991318455097e-05
40
-1.9810991318455097e-05
40
-1.9810991318455097e-05
10
-11.736449555887909
20
-25.150203292432565
30
0
10
-11.91605518223178
20
-25.14337646663726
30
0
10
-12.089367870688976
20
-25.136682571098113
30
0
10
-12.25660366113134
20
-25.130153198194627
30
0
10
-14.211718860600826
20
-25.053819799866169
30
0
10
-15.307430369683948
20
-24.996402945167581
30
0
10
-16.014798863834766
20
-25.020413200982304
30
0
10
-16.312194439860807
20
-25.030507718786808
30
0
10
-16.53142981553146
20
-25.02665367193924
30
0
10
-16.866346642338694
20
-25.159238200409781
30
0
10
-17.043359832733415
20
-25.22931294286235
30
0
10
-17.293051238563852
20
-25.371804955259041
30
0
10
-17.4609877791396
20
-25.654469365201649
30
0
10
-17.617659611393872
20
-25.918173445724889
30
0
10
-17.63451385310243
20
-26.233770105210784
30
0
10
-17.602259888271657
20
-26.428425186754417
30
0
10
-17.554468979422605
20
-26.716846883369595
30
0
10
-17.467034837603098
20
-26.841985278072311
30
0
10
-17.404316879417621
20
-26.954934783214298
30
0
10
-17.319875968592186
20
-27.107005408078493
30
0
10
-17.24823353852894
20
-27.218173439337193
30
0
10
-17.185733237795986
20
-27.335701534155842
30
0
0
SPLINE
5
139
100
AcDbEntity
8
0
100
AcDbSpline
70
0
71
3
72
14
73
10
74
0
42
0.000000001
43
0.0000000001
44
0.0000000001
40
-1
40
-1
40
-1
40
-1
40
-0.72045430833527924
40
-0.72045430833527924
40
-0.72045430833527924
40
0
40
0
40
0
40
5.2504096743322486e-06
40
5.2504096743322486e-06
40
5.2504096743322486e-06
40
5.2504096743322486e-06
10
-17.185733236111037
20
-27.335701533638009
30
0
10
-16.258822585080068
20
-29.079004426388337
30
0
10
-15.16391202522756
20
-30.634011683987339
30
0
10
-13.860090493342858
20
-32.014973008195426
30
0
10
-10.499838956813157
20
-35.574031742906278
30
0
10
-5.7925864951377228
20
-37.934881403926248
30
0
10
0.89315318740385963
20
-39.672085842089352
30
0
10
0.89320116520255233
20
-39.672098308510243
30
0
10
0.89324914300124503
20
-39.672110774931127
30
0
10
0.89329712079993762
20
-39.672123241352011
30
0
0
SPLINE
5
140
100
AcDbEntity
8
0
100
AcDbSpline
70
0
71
3
72
8
73
4
74
0
42
0.000000001
43
0.0000000001
44
0.0000000001
40
-0.99998912633555104
40
-0.99998912633555104
40
-0.99998912633555104
40
-0.99998912633555104
40
0
40
0
40
0
40
0
10
0.89329712291296448
20
-39.672123233137462
30
0
10
3.0652025537985637
20
-40.236283905841063
30
0
10
6.7881819509656083
20
-40.915455207372403
30
0
10
9.0543111390900801
20
-41.161021483294448
30
0
0
SPLINE
5
141
100
AcDbEntity
8
0
100
AcDbSpline
70
0
71
3
72
11
73
7
74
0
42
0.000000001
43
0.0000000001
44
0.0000000001
40
-0.99999844476974542
40
-0.99999844476974542
40
-0.99999844476974542
40
-0.99999844476974542
40
-0.48675436891774992
40
-0.48675436891774992
40
-0.48675436891774992
40
0
40
0
40
0
40
0
10
9.0543111388930377
20
-41.161021486061422
30
0
10
17.275374578019932
20
-42.052500199806282
30
0
10
24.008578248965094
20
-40.822755658274247
30
0
10
29.206700851005131
20
-37.299303545990092
30
0
10
34.13653639272647
20
-33.95770489922586
30
0
10
37.607998808471301
20
-28.60025467343624
30
0
10
39.731104511250933
20
-21.339831202426367
30
0
0
SPLINE
5
142
100
AcDbEntity
8
0
100
AcDbSpline
70
0
71
3
72
14
73
10
74
0
42
0.000000001
43
0.0000000001
44
0.0000000001
40
-0.99999801837475566
40
-0.99999801837475566
40
-0.99999801837475566
40
-0.99999801837475566
40
-0.47773298566293082
40
-0.47773298566293082
40
-0.47773298566293082
40
-0.11154568374563945
40
-0.11154568374563945
40
-0.11154568374563945
40
-0.0048308831214511081
40
-0.0048308831214511081
40
-0.0048308831214511081
40
-0.0048308831214511081
10
39.731104511526475
20
-21.339831202574754
30
0
10
40.353315528693301
20
-19.21223663160773
30
0
10
41.086810886498327
20
-15.723558894972154
30
0
10
41.630881159556161
20
-12.63632910231134
30
0
10
42.012357254767721
20
-10.471710992032966
30
0
10
42.297620885809799
20
-8.5392028004977689
30
0
10
42.372480401062489
20
-7.3593181479066931
30
0
10
42.394296062619262
20
-7.0154745607545763
30
0
10
42.405980389077925
20
-6.753753628511725
30
0
10
42.370060515655943
20
-6.461026097633658
30
0
0
SPLINE
5
143
100
AcDbEntity
8
0
100
AcDbSpline
70
0
71
3
72
11
73
7
74
0
42
0.000000001
43
0.0000000001
44
0.0000000001
40
-0.86376087695934411
40
-0.86376087695934411
40
-0.86376087695934411
40
-0.86376087695934411
40
-0.52133045436455394
40
-0.52133045436455394
40
-0.52133045436455394
40
-8.8461204444526696e-06
40
-8.8461204444526696e-06
40
-8.8461204444526696e-06
40
-8.8461204444526696e-06
10
42.370060515656043
20
-6.4610260976337184
30
0
10
42.370105031195408
20
-6.4111119661902247
30
0
10
42.377965285107123
20
-6.239188280671728
30
0
10
42.394687660867021
20
-6.037028422548004
30
0
10
42.420146075918908
20
-5.7292569881034279
30
0
10
42.464102734561699
20
-5.3209489303572912
30
0
10
42.51801417443447
20
-4.9138210041417549
30
0
0
SPLINE
5
144
100
AcDbEntity
8
0
100
AcDbSpline
70
0
71
3
72
14
73
10
74
0
42
0.000000001
43
0.0000000001
44
0.0000000001
40
-1
40
-1
40
-1
40
-1
40
-0.62196917767426718
40
-0.62196917767426718
40
-0.62196917767426718
40
0
40
0
40
0
40
2.4510840017209107e-07
40
2.4510840017209107e-07
40
2.4510840017209107e-07
40
2.4510840017209107e-07
10
42.51801417420932
20
-4.9138210041128954
30
0
10
42.943082632698406
20
-1.7043288722484879
30
0
10
43.200644762142126
20
3.3964632800582431
30
0
10
43.3082641074867
20
10.111078453995068
30
0
10
43.485328811666115
20
21.158547156253746
30
0
10
43.246184846826139
20
36.539313009496425
30
0
10
42.590310312252051
20
54.676385916447117
30
0
10
42.590310053977937
20
54.676393058569644
30
0
10
42.590309795673377
20
54.676400201534463
30
0
10
42.590309537338349
20
54.676407345341566
30
0
0
SPLINE
5
145
100
AcDbEntity
8
0
100
AcDbSpline
70
0
71
3
72
8
73
4
74
0
42
0.000000001
43
0.0000000001
44
0.0000000001
40
-0.99999827212804659
40
-0.99999827212804659
40
-0.99999827212804659
40
-0.99999827212804659
40
-3.7032676194806285e-05
40
-3.7032676194806285e-05
40
-3.7032676194806285e-05
40
-3.7032676194806285e-05
10
42.590309537166874
20
54.676407345336301
30
0
10
42.515584752819315
20
56.74218827130413
30
0
10
42.514806985260343
20
59.72104378358965
30
0
10
42.585556053639749
20
61.184683449653562
30
0
0
SPLINE
5
146
100
AcDbEntity
8
0
100
AcDbSpline
70
0
71
3
72
20
73
16
74
0
42
0.000000001
43
0.0000000001
44
0.0000000001
40
-1.0000162662779839
40
-1.0000162662779839
40
-1.0000162662779839
40
-1.0000162662779839
40
-1
40
-1
40
-1
40
-0.3655479472192672
40
-0.3655479472192672
40
-0.3655479472192672
40
-0.10382157184002903
40
-0.10382157184002903
40
-0.10382157184002903
40
0
40
0
40
0
40
8.1400505237523164e-06
40
8.1400505237523164e-06
40
8.1400505237523164e-06
40
8.1400505237523164e-06
10
42.585556094773864
20
61.184683447976923
30
0
10
42.585561414250975
20
61.184793865881026
30
0
10
42.585566733730801
20
61.184904283841135
30
0
10
42.585572053211621
20
61.185014701822034
30
0
10
42.796834504937245
20
65.570249678913328
30
0
10
42.544898336765073
20
70.932372108810924
30
0
10
42.064126573003513
20
74.629118906123509
30
0
10
41.865796926874239
20
76.154113798511091
30
0
10
41.643469571588376
20
77.372746115429877
30
0
10
41.337894477414366
20
78.235208899121517
30
0
10
41.216679003634397
20
78.577330482116921
30
0
10
41.108371993305695
20
78.866403720023627
30
0
10
40.828498484009401
20
79.17563600881175
30
0
10
40.828490230968995
20
79.175645127597519
30
0
10
40.828481977905867
20
79.175654246408399
30
0
10
40.828473724819993
20
79.175663365244418
30
0
0
SPLINE
5
147
100
AcDbEntity
8
0
100
AcDbSpline
70
0
71
3
72
11
73
7
74
0
42
0.000000001
43
0.0000000001
44
0.0000000001
40
-1.0000195722637417
40
-1.0000195722637417
40
-1.0000195722637417
40
-1.0000195722637417
40
-1
40
-1
40
-1
40
-0.87179132957920258
40
-0.87179132957920258
40
-0.87179132957920258
40
-0.87179132957920258
10
40.828473724345244
20
79.175663364864633
30
0
10
40.828471005600584
20
79.175666368509923
30
0
10
40.828468286882043
20
79.175669372126379
30
0
10
40.828465568163452
20
79.175672375742877
30
0
10
40.821083160513403
20
79.183828395087872
30
0
10
40.813468064302953
20
79.192617207385339
30
0
10
40.805655906701261
20
79.202062629613849
30
0
0
SPLINE
5
148
100
AcDbEntity
8
0
100
AcDbSpline
70
0
71
3
72
17
73
13
74
0
42
0.000000001
43
0.0000000001
44
0.0000000001
40
-0.9571474378481406
40
-0.9571474378481406
40
-0.9571474378481406
40
-0.9571474378481406
40
-0.89160817652773983
40
-0.89160817652773983
40
-0.89160817652773983
40
-0.69476603455392683
40
-0.69476603455392683
40
-0.69476603455392683
40
-0.38953206910785354
40
-0.38953206910785354
40
-0.38953206910785354
40
0
40
0
40
0
40
0
10
40.805655906701119
20
79.202062629613849
30
0
10
40.779766626563699
20
79.337617610379638
30
0
10
40.74200105337826
20
79.455123205284067
30
0
10
40.698545266336779
20
79.567109552523888
30
0
10
40.568029144701178
20
79.903451952764598
30
0
10
40.384168538815075
20
80.200479438916432
30
0
10
40.162418773082734
20
80.514337646002105
30
0
10
39.818561712534049
20
81.001022987748158
30
0
10
39.379538712203725
20
81.507607168114646
30
0
10
38.904265734757978
20
81.980412742630079
30
0
10
38.297734066419771
20
82.583795572118191
30
0
10
37.662878972216646
20
83.12428459143365
30
0
10
36.991804991842535
20
83.464329426109614
30
0
0
SPLINE
5
149
100
AcDbEntity
8
0
100
AcDbSpline
70
0
71
3
72
14
73
10
74
0
42
0.000000001
43
0.0000000001
44
0.0000000001
40
-0.99999849266392016
40
-0.99999849266392016
40
-0.99999849266392016
40
-0.99999849266392016
40
-0.96401246311264011
40
-0.96401246311264011
40
-0.96401246311264011
40
-0.42269301202541154
40
-0.42269301202541154
40
-0.42269301202541154
40
-6.0738273227567401e-07
40
-6.0738273227567401e-07
40
-6.0738273227567401e-07
40
-6.0738273227567401e-07
10
36.991804992121885
20
83.464329426660868
30
0
10
36.732302730212403
20
83.595834754236051
30
0
10
36.468425426430585
20
83.718863971679824
30
0
10
36.200742836748113
20
83.833616968530976
30
0
10
32.174130445235413
20
85.559787653117198
30
0
10
27.314998804701716
20
85.449867318040702
30
0
10
23.2488287129604
20
84.007196288600809
30
0
10
20.073736426303732
20
82.880678323437195
30
0
10
17.339341087053985
20
80.922237627501403
30
0
10
15.982068964698586
20
78.191390783110833
30
0
0
SPLINE
5
150
100
AcDbEntity
8
0
100
AcDbSpline
70
0
71
3
72
17
73
13
74
0
42
0.000000001
43
0.0000000001
44
0.0000000001
40
-1
40
-1
40
-1
40
-1
40
-0.95041993621094467
40
-0.95041993621094467
40
-0.95041993621094467
40
-0.54174618655177476
40
-0.54174618655177476
40
-0.54174618655177476
40
0
40
0
40
0
40
3.4692340036753597e-06
40
3.4692340036753597e-06
40
3.4692340036753597e-06
40
3.4692340036753597e-06
10
15.982068964766887
20
78.191390783076542
30
0
10
15.911404817853214
20
78.04921788041672
30
0
10
15.845024407366605
20
77.900738035071825
30
0
10
15.782001105417557
20
77.745780613941037
30
0
10
15.262518733773128
20
76.468512585394976
30
0
10
14.938265887869303
20
74.727366257492776
30
0
10
14.740672831129903
20
72.616242789766574
30
0
10
14.478739479484602
20
69.817694830827548
30
0
10
14.465460991753874
20
66.390509366126281
30
0
10
14.73061656446032
20
62.771891672637224
30
0
10
14.730618239623043
20
62.771868811441401
30
0
10
14.730619914790474
20
62.771845950181344
30
0
10
14.730621589962611
20
62.771823088857055
30
0
0
SPLINE
5
151
100
AcDbEntity
8
0
100
AcDbSpline
70
0
71
3
72
11
73
7
74
0
42
0.000000001
43
0.0000000001
44
0.0000000001
40
-0.99999512209673758
40
-0.99999512209673758
40
-0.99999512209673758
40
-0.99999512209673758
40
-0.4848850919319328
40
-0.4848850919319328
40
-0.4848850919319328
40
0
40
0
40
0
40
0
10
14.730621591744711
20
62.771823088990324
30
0
10
14.817906458770604
20
61.581199144903138
30
0
10
14.851213158032063
20
60.932811525058739
30
0
10
14.835702626744107
20
60.601957904611922
30
0
10
14.821102201691099
20
60.2905176709301
30
0
10
14.813543296532233
20
60.299043712575781
30
0
10
14.70128610611793
20
60.059145513247437
30
0
0
SPLINE
5
152
100
AcDbEntity
8
0
100
AcDbSpline
70
0
71
3
72
17
73
13
74
0
42
0.000000001
43
0.0000000001
44
0.0000000001
40
-0.99997246221165526
40
-0.99997246221165526
40
-0.99997246221165526
40
-0.99997246221165526
40
-0.98084379131201072
40
-0.98084379131201072
40
-0.98084379131201072
40
-0.70857127045612933
40
-0.70857127045612933
40
-0.70857127045612933
40
-0.45806863483440746
40
-0.45806863483440746
40
-0.45806863483440746
40
0
40
0
40
0
40
0
10
14.701286099039718
20
60.059145516561053
30
0
10
14.68942055636006
20
60.033796908445979
30
0
10
14.677849834927487
20
60.009272082767346
30
0
10
14.666561163709122
20
59.985588861460535
30
0
10
14.50588115693483
20
59.648488056024405
30
0
10
14.411245313546598
20
59.520894718016599
30
0
10
14.349467721685299
20
59.46817219225575
30
0
10
14.292629633379615
20
59.419665161071656
30
0
10
14.20826441664261
20
59.361622676849287
30
0
10
13.884318929432425
20
59.300122953028975
30
0
10
13.291952838277933
20
59.187664677038605
30
0
10
12.032383211008177
20
59.163049578807204
30
0
10
9.8273764978969229
20
59.180342982073419
30
0
0
SPLINE
5
153
100
AcDbEntity
8
0
100
AcDbSpline
70
0
71
3
72
8
73
4
74
0
42
0.000000001
43
0.0000000001
44
0.0000000001
40
-0.99999115273363093
40
-0.99999115273363093
40
-0.99999115273363093
40
-0.99999115273363093
40
0
40
0
40
0
40
0
10
9.8273764978774576
20
59.180342983866495
30
0
10
7.557867382723872
20
59.198277400673945
30
0
10
4.3152924634188299
20
59.134233397155221
30
0
10
2.539592622586071
20
59.034601902205225
30
0
0
SPLINE
5
154
100
AcDbEntity
8
0
100
AcDbSpline
70
4
71
5
72
16
73
10
74
0
42
0.000000001
43
0.0000000001
44
0.0000000001
40
-1
40
-1
40
-1
40
-1
40
-1
40
-1
40
-0.80000000000000004
40
-0.60000000000000009
40
-0.40000000000000002
40
-0.20000000000000001
40
0
40
0
40
0
40
0
40
0
40
0
41
1
41
1
41
1
41
1
41
1
41
1
41
1
41
1
41
1
41
1
10
2.5395926223304692
20
59.034601906266168
30
0
10
2.2492292931683937
20
59.0483726051826
30
0
10
1.6844793728399585
20
59.089641769429193
30
0
10
0.88526455472578025
20
59.19271150008035
30
0
10
-0.077876350638219294
20
59.418191185260333
30
0
10
-1.0274458004700477
20
59.918592858835915
30
0
10
-1.4553968884691171
20
60.603926163804296
30
0
10
-1.4960565580710385
20
61.358772739856903
30
0
10
-1.3786480060503883
20
61.986176080432173
30
0
10
-1.2837824502116988
20
62.33094877428185
30
0
0
LINE
5
155
100
AcDbEntity
8
0
100
AcDbLine
10
-1.2837824502116988
20
62.33094877428185
30
0
11
-1.1007000719918008
21
65.615607151187362
31
0
0
SPLINE
5
156
100
AcDbEntity
8
0
100
AcDbSpline
70
0
71
3
72
17
73
13
74
0
42
0.000000001
43
0.0000000001
44
0.0000000001
40
-1
40
-1
40
-1
40
-1
40
-0.97149996229421109
40
-0.97149996229421109
40
-0.97149996229421109
40
-0.58483935587792701
40
-0.58483935587792701
40
-0.58483935587792701
40
-0.33401076121129969
40
-0.33401076121129969
40
-0.33401076121129969
40
-7.8795027618953723e-07
40
-7.8795027618953723e-07
40
-7.8795027618953723e-07
40
-7.8795027618953723e-07
10
-1.1007000719918008
20
65.615607151187362
30
0
10
-1.0820712060420759
20
65.949869377822296
30
0
10
-1.0653746681472653
20
66.276929943978516
30
0
10
-1.0507288659973748
20
66.596979548823583
30
0
10
-0.852028962537972
20
70.939099217933602
30
0
10
-0.99509141811524682
20
73.994832887938259
30
0
10
-1.946310171670627
20
76.268321819247205
30
0
10
-2.5633703511034516
20
77.743145021216748
30
0
10
-3.5815069126395347
20
78.864720188822986
30
0
10
-4.9417998876988625
20
79.564450025412896
30
0
10
-6.753201896431543
20
80.496228733976693
30
0
10
-9.0750395651002531
20
80.758121567995829
30
0
10
-12.122923994703383
20
80.773269693806142
30
0
0
SPLINE
5
157
100
AcDbEntity
8
0
100
AcDbSpline
70
0
71
3
72
17
73
13
74
0
42
0.000000001
43
0.0000000001
44
0.0000000001
40
-1
40
-1
40
-1
40
-1
40
-0.6717344984512863
40
-0.6717344984512863
40
-0.6717344984512863
40
-0.38465046304420791
40
-0.38465046304420791
40
-0.38465046304420791
40
0
40
0
40
0
40
2.2384222657105393e-06
40
2.2384222657105393e-06
40
2.2384222657105393e-06
40
2.2384222657105393e-06
10
-12.122923994704212
20
80.773269693578115
30
0
10
-14.633322385282138
20
80.78579966861389
30
0
10
-16.641294854191777
20
80.529521874286999
30
0
10
-18.279270839596283
20
79.68341833208784
30
0
10
-19.711759948477038
20
78.943459920007456
30
0
10
-20.7907812602324
20
77.730854553305718
30
0
10
-21.518208484083448
20
76.1015586055141
30
0
10
-22.492854176549461
20
73.918541218756786
30
0
10
-22.936401592694054
20
70.990935882401502
30
0
10
-23.206069034972639
20
66.938061930730996
30
0
10
-23.206070587232691
20
66.938038601573055
30
0
10
-23.206072139500584
20
66.938015272297463
30
0
10
-23.206073691776297
20
66.937991942904176
30
0
0
SPLINE
5
158
100
AcDbEntity
8
0
100
AcDbSpline
70
0
71
3
72
11
73
7
74
0
42
0.000000001
43
0.0000000001
44
0.0000000001
40
-0.99999647632955779
40
-0.99999647632955779
40
-0.99999647632955779
40
-0.99999647632955779
40
-0.75942479237619054
40
-0.75942479237619054
40
-0.75942479237619054
40
0
40
0
40
0
40
0
10
-23.206073689924235
20
66.937991942780982
30
0
10
-23.258453746872441
20
66.150343905740812
30
0
10
-23.305024394214588
20
65.503426855049895
30
0
10
-23.350993190540489
20
64.958369857226955
30
0
10
-23.496105213002565
20
63.237760886949665
30
0
10
-23.621622336974891
20
62.577677799583064
30
0
10
-23.929917369393699
20
61.510728652565319
30
0
0
SPLINE
5
159
100
AcDbEntity
8
0
100
AcDbSpline
70
0
71
3
72
8
73
4
74
0
42
0.000000001
43
0.0000000001
44
0.0000000001
40
-1
40
-1
40
-1
40
-1
40
0
40
0
40
0
40
0
10
-23.929918681493358
20
61.510724111603338
30
0
10
-25.728205270295938
20
55.287093667933362
30
0
10
-26.843788850213841
20
49.730954986208872
30
0
10
-27.434684744949784
20
44.036836104576579
30
0
0
SPLINE
5
160
100
AcDbEntity
8
0
100
AcDbSpline
70
0
71
3
72
14
73
10
74
0
42
0.000000001
43
0.0000000001
44
0.0000000001
40
-0.99999530356503064
40
-0.99999530356503064
40
-0.99999530356503064
40
-0.99999530356503064
40
-0.75984876404684121
40
-0.75984876404684121
40
-0.75984876404684121
40
-0.40959720767127838
40
-0.40959720767127838
40
-0.40959720767127838
40
0
40
0
40
0
40
0
10
-27.434684745482443
20
44.03683610470388
30
0
10
-27.496738730014698
20
43.43903976522995
30
0
10
-27.534940904235494
20
42.467416649533867
30
0
10
-27.563392161637481
20
41.231895782126472
30
0
10
-27.604888063289366
20
39.429899769141457
30
0
10
-27.618355470197777
20
37.108954388077315
30
0
10
-27.604129558949516
20
34.899948668386152
30
0
10
-27.58749324879529
20
32.316655152496111
30
0
10
-27.535444298973776
20
29.909758936360525
30
0
10
-27.438023886730743
20
28.609135891917042
30
0
0
SPLINE
5
161
100
AcDbEntity
8
0
100
AcDbSpline
70
0
71
3
72
8
73
4
74
0
42
0.000000001
43
0.0000000001
44
0.0000000001
40
-0.9999577151981115
40
-0.9999577151981115
40
-0.9999577151981115
40
-0.9999577151981115
40
0
40
0
40
0
40
0
10
-27.43802389991103
20
28.609135890933484
30
0
10
-27.34249150898162
20
27.330929351625866
30
0
10
-27.182168063892142
20
25.192185637503982
30
0
10
-27.082161396122665
20
23.856454374422597
30
0
0
SPLINE
5
162
100
AcDbEntity
8
0
100
AcDbSpline
70
0
71
3
72
11
73
7
74
0
42
0.000000001
43
0.0000000001
44
0.0000000001
40
-0.99999883902461073
40
-0.99999883902461073
40
-0.99999883902461073
40
-0.99999883902461073
40
-0.14519180627702025
40
-0.14519180627702025
40
-0.14519180627702025
40
-0.00065253091299286655
40
-0.00065253091299286655
40
-0.00065253091299286655
40
-0.00065253091299286655
10
-27.082161396180688
20
23.856454374403452
30
0
10
-26.881940500993366
20
21.181829758854633
30
0
10
-26.407458385223286
20
15.855316150750676
30
0
10
-26.199618066592105
20
13.876783922664961
30
0
10
-26.164474358251503
20
13.542234014233959
30
0
10
-26.140541919003123
20
13.322016479482619
30
0
10
-26.115314836675346
20
13.159511234799396
30
0
0
LINE
5
163
100
AcDbEntity
8
0
100
AcDbLine
10
-26.115314836675346
20
13.159511234799396
30
0
11
-25.840395240999968
21
11.388904443467814
31
0
0
LINE
5
164
100
AcDbEntity
8
0
100
AcDbLine
10
-25.840395240999968
20
11.388904443467814
30
0
11
-23.266538003522264
21
12.347712066163703
31
0
0
SPLINE
5
165
100
AcDbEntity
8
0
100
AcDbSpline
70
0
71
3
72
11
73
7
74
0
42
0.000000001
43
0.0000000001
44
0.0000000001
40
-1
40
-1
40
-1
40
-1
40
0
40
0
40
0
40
1.4785386229125849e-06
40
1.4785386229125849e-06
40
1.4785386229125849e-06
40
1.4785386229125849e-06
10
-23.266538003522264
20
12.347712066163703
30
0
10
-16.92756361631243
20
14.708883323993129
30
0
10
-10.899891608544689
20
15.618931282428964
30
0
10
-1.2826252889677145
20
15.634437115449435
30
0
10
-1.2826109757672137
20
15.634437138526479
30
0
10
-1.2825966626701566
20
15.63443716160336
30
0
10
-1.2825823496765421
20
15.634437184680072
30
0
0
LWPOLYLINE
5
166
100
AcDbEntity
8
0
100
AcDbPolyline
90
4
70
1
43
0.0
10
-2.6583105923613615
20
59.848643137743444
10
-7.6583105923613619
20
59.848643137743444
10
-7.6583105923613619
20
61.448643137743446
10
-2.6583105923613615
20
61.448643137743446
0
ENDSEC
0
SECTION
2
OBJECTS
0
DICTIONARY
5
C
100
AcDbDictionary
3
ACAD_GROUP
350
D
3
ACAD_MLINESTYLE
350
17
0
DICTIONARY
5
D
100
AcDbDictionary
0
DICTIONARY
5
1A
330
C
100
AcDbDictionary
0
DICTIONARY
5
17
100
AcDbDictionary
0
ENDSEC
0
EOF
