0
SECTION
2
HEADER
9
$INSUNITS
70
4
9
$ACADVER
1
AC1014
9
$HANDSEED
5
FFFF
0
ENDSEC
0
SECTION
2
TABLES
0
TABLE
2
VPORT
5
8
100
AcDbSymbolTable
0
ENDTAB
0
TABLE
2
LTYPE
5
5
100
AcDbSymbolTable
0
LTYPE
5
14
100
AcDbSymbolTableRecord
100
AcDbLinetypeTableRecord
2
BYBLOCK
70
0
0
LTYPE
5
15
100
AcDbSymbolTableRecord
100
AcDbLinetypeTableRecord
2
BYLAYER
70
0
0
LTYPE
5
16
100
AcDbSymbolTableRecord
100
AcDbLinetypeTableRecord
2
DASHED
70
0
3
Dashed __ __ __ __ __ __ __ __ __ __ __ __ __ _
72
65
73
2
40
0.75
49
0.5
74
0
49
-0.25
74
0
0
ENDTAB
0
TABLE
2
LAYER
5
2
100
AcDbSymbolTable
70
2
0
LAYER
5
50
100
AcDbSymbolTableRecord
100
AcDbLayerTableRecord
2
0
70
0
62
7
6
CONTINUOUS
0
ENDTAB
0
TABLE
2
STYLE
5
3
100
AcDbSymbolTable
70
1
0
STYLE
5
11
100
AcDbSymbolTableRecord
100
AcDbTextStyleTableRecord
2
STANDARD
70
0
0
ENDTAB
0
TABLE
2
VIEW
5
6
100
AcDbSymbolTable
70
0
0
ENDTAB
0
TABLE
2
UCS
5
7
100
AcDbSymbolTable
70
0
0
ENDTAB
0
TABLE
2
APPID
5
9
100
AcDbSymbolTable
70
2
0
APPID
5
12
100
AcDbSymbolTableRecord
100
AcDbRegAppTableRecord
2
ACAD
70
0
0
ENDTAB
0
TABLE
2
DIMSTYLE
5
A
100
AcDbSymbolTable
70
1
0
ENDTAB
0
TABLE
2
BLOCK_RECORD
5
1
100
AcDbSymbolTable
70
1
0
BLOCK_RECORD
5
1F
100
AcDbSymbolTableRecord
100
AcDbBlockTableRecord
2
*MODEL_SPACE
0
BLOCK_RECORD
5
1B
100
AcDbSymbolTableRecord
100
AcDbBlockTableRecord
2
*PAPER_SPACE
0
ENDTAB
0
ENDSEC
0
SECTION
2
BLOCKS
0
BLOCK
5
20
100
AcDbEntity
100
AcDbBlockBegin
2
*MODEL_SPACE
0
ENDBLK
5
21
100
AcDbEntity
100
AcDbBlockEnd
0
BLOCK
5
1C
100
AcDbEntity
100
AcDbBlockBegin
2
*PAPER_SPACE
0
ENDBLK
5
1D
100
AcDbEntity
100
AcDbBlockEnd
0
ENDSEC
0
SECTION
2
ENTITIES
0
SPLINE
5
100
100
AcDbEntity
8
0
100
AcDbSpline
70
4
71
3
72
8
73
4
74
0
42
0.000000001
43
0.0000000001
44
0.0000000001
40
0
40
0
40
0
40
0
40
1
40
1
40
1
40
1
41
1
41
1
41
1
41
1
10
-17.193207738399359
20
45.904066599558853
30
0
10
-20.264487486680203
20
45.691606189957326
30
0
10
-24.50946416616425
20
44.838854125043817
30
0
10
-26.195125164190777
20
44.095639537673257
30
0
0
SPLINE
5
101
100
AcDbEntity
8
0
100
AcDbSpline
70
4
71
3
72
8
73
4
74
0
42
0.000000001
43
0.0000000001
44
0.0000000001
40
0
40
0
40
0
40
0
40
1
40
1
40
1
40
1
41
1
41
1
41
1
41
1
10
-26.195125164190777
20
44.095639537673257
30
0
10
-26.492252538204042
20
43.964670817952424
30
0
10
-27.086769705613307
20
43.726016538243556
30
0
10
-27.516188746293231
20
43.565414614380472
30
0
0
SPLINE
5
102
100
AcDbEntity
8
0
100
AcDbSpline
70
4
71
3
72
8
73
4
74
0
42
0.000000001
43
0.0000000001
44
0.0000000001
40
0
40
0
40
0
40
0
40
1
40
1
40
1
40
1
41
1
41
1
41
1
41
1
10
-27.516188746293231
20
43.565414614380472
30
0
10
-30.695952667395126
20
42.375318742693523
30
0
10
-35.801352037588607
20
38.553941449424691
30
0
10
-37.317679863770657
20
36.229047525824171
30
0
0
SPLINE
5
103
100
AcDbEntity
8
0
100
AcDbSpline
70
4
71
3
72
8
73
4
74
0
42
0.000000001
43
0.0000000001
44
0.0000000001
40
0
40
0
40
0
40
0
40
1
40
1
40
1
40
1
41
1
41
1
41
1
41
1
10
-40.479449889659733
20
31.761558386585182
30
0
10
-40.919188067912913
20
31.037129494449562
30
0
10
-41.781728281179923
20
29.288233499627374
30
0
10
-42.448214973608515
20
27.771112359465224
30
0
0
SPLINE
5
104
100
AcDbEntity
8
0
100
AcDbSpline
70
4
71
3
72
8
73
4
74
0
42
0.000000001
43
0.0000000001
44
0.0000000001
40
0
40
0
40
0
40
0
40
1
40
1
40
1
40
1
41
1
41
1
41
1
41
1
10
-42.448214973608515
20
27.771112359465224
30
0
10
-43.81108398199067
20
24.667548971276545
30
0
10
-45.165484918753158
20
19.752649924060766
30
0
10
-45.985957286357731
20
14.932205705743096
30
0
0
SPLINE
5
105
100
AcDbEntity
8
0
100
AcDbSpline
70
4
71
3
72
8
73
4
74
0
42
0.000000001
43
0.0000000001
44
0.0000000001
40
0
40
0
40
0
40
0
40
1
40
1
40
1
40
1
41
1
41
1
41
1
41
1
10
-45.985957286357731
20
14.932205705743096
30
0
10
-46.034642137686262
20
14.64592634528981
30
0
10
-46.148677489757389
20
14.021245079140922
30
0
10
-46.239163730144355
20
13.544202976327204
30
0
0
SPLINE
5
106
100
AcDbEntity
8
0
100
AcDbSpline
70
4
71
3
72
8
73
4
74
0
42
0.000000001
43
0.0000000001
44
0.0000000001
40
0
40
0
40
0
40
0
40
1
40
1
40
1
40
1
41
1
41
1
41
1
41
1
10
-46.239163730144355
20
13.544202976327204
30
0
10
-46.545816927750757
20
11.927596629561048
30
0
10
-46.774416507879749
20
10.383226264418228
30
0
10
-46.774416507879749
20
9.9276137321204558
30
0
0
SPLINE
5
107
100
AcDbEntity
8
0
100
AcDbSpline
70
4
71
3
72
8
73
4
74
0
42
0.000000001
43
0.0000000001
44
0.0000000001
40
0
40
0
40
0
40
0
40
1
40
1
40
1
40
1
41
1
41
1
41
1
41
1
10
-46.774416507879749
20
9.9276137321204558
30
0
10
-46.774416507879749
20
9.3862748433163379
30
0
10
-46.879985806941846
20
9.355846306583345
30
0
10
-49.290075697103994
20
9.2050359059384093
30
0
0
SPLINE
5
108
100
AcDbEntity
8
0
100
AcDbSpline
70
4
71
3
72
8
73
4
74
0
42
0.000000001
43
0.0000000001
44
0.0000000001
40
0
40
0
40
0
40
0
40
1
40
1
40
1
40
1
41
1
41
1
41
1
41
1
10
-67.529920669247559
20
-42.928995230892255
30
0
10
-67.502933169752211
20
-43.358410234350906
30
0
10
-67.466156102567766
20
-44.334456923702312
30
0
10
-67.448164415210343
20
-45.097782424190584
30
0
0
SPLINE
5
109
100
AcDbEntity
8
0
100
AcDbSpline
70
4
71
3
72
8
73
4
74
0
42
0.000000001
43
0.0000000001
44
0.0000000001
40
0
40
0
40
0
40
0
40
1
40
1
40
1
40
1
41
1
41
1
41
1
41
1
10
-65.271437300840873
20
-54.179608570634272
30
0
10
-65.139145634174199
20
-54.433073396582344
30
0
10
-64.942295771439717
20
-54.835245230892241
30
0
10
-64.834345773458338
20
-55.073901529211753
30
0
0
SPLINE
5
110
100
AcDbEntity
8
0
100
AcDbSpline
70
4
71
3
72
8
73
4
74
0
42
0.000000001
43
0.0000000001
44
0.0000000001
40
0
40
0
40
0
40
0
40
1
40
1
40
1
40
1
41
1
41
1
41
1
41
1
10
-64.834345773458338
20
-55.073901529211753
30
0
10
-64.726131085157249
20
-55.312549753088703
30
0
10
-64.449377043644446
20
-55.820020392635413
30
0
10
-64.219454011916966
20
-56.201553951798822
30
0
0
SPLINE
5
111
100
AcDbEntity
8
0
100
AcDbSpline
70
4
71
3
72
8
73
4
74
0
42
0.000000001
43
0.0000000001
44
0.0000000001
40
0
40
0
40
0
40
0
40
1
40
1
40
1
40
1
41
1
41
1
41
1
41
1
10
-64.219454011916966
20
-56.201553951798822
30
0
10
-63.989266542196134
20
-56.583345893123692
30
0
10
-63.674412486553045
20
-57.114361607133297
30
0
10
-63.519630974133669
20
-57.381859814225592
30
0
0
SPLINE
5
112
100
AcDbEntity
8
0
100
AcDbSpline
70
4
71
3
72
8
73
4
74
0
42
0.000000001
43
0.0000000001
44
0.0000000001
40
0
40
0
40
0
40
0
40
1
40
1
40
1
40
1
41
1
41
1
41
1
41
1
10
-56.663747467199812
20
-61.556718034643879
30
0
10
-55.014864545663052
20
-61.875545472998361
30
0
10
-49.627417832215485
20
-61.950419778723465
30
0
10
-48.422771562735093
20
-61.671286299923018
30
0
0
SPLINE
5
113
100
AcDbEntity
8
0
100
AcDbSpline
70
4
71
3
72
8
73
4
74
0
42
0.000000001
43
0.0000000001
44
0.0000000001
40
0
40
0
40
0
40
0
40
1
40
1
40
1
40
1
41
1
41
1
41
1
41
1
10
-48.422771562735093
20
-61.671286299923018
30
0
10
-47.453337841828528
20
-61.446388851701172
30
0
10
-47.489850471019601
20
-61.287370780208654
30
0
10
-47.389836388428854
20
-66.18057985613639
30
0
0
SPLINE
5
114
100
AcDbEntity
8
0
100
AcDbSpline
70
4
71
3
72
8
73
4
74
0
42
0.000000001
43
0.0000000001
44
0.0000000001
40
0
40
0
40
0
40
0
40
1
40
1
40
1
40
1
41
1
41
1
41
1
41
1
10
-47.389836388428854
20
-66.18057985613639
30
0
10
-47.340095803737498
20
-68.612359717586585
30
0
10
-47.258075616359569
20
-70.992293583451669
30
0
10
-47.207539699077458
20
-71.469331649044108
30
0
0
SPLINE
5
115
100
AcDbEntity
8
0
100
AcDbSpline
70
4
71
3
72
8
73
4
74
0
42
0.000000001
43
0.0000000001
44
0.0000000001
40
0
40
0
40
0
40
0
40
1
40
1
40
1
40
1
41
1
41
1
41
1
41
1
10
-47.207539699077458
20
-71.469331649044108
30
0
10
-47.157003781795353
20
-71.946644245683103
30
0
10
-47.085302731990666
20
-72.6491126727054
30
0
10
-47.04852566480622
20
-73.030904614030277
30
0
0
SPLINE
5
116
100
AcDbEntity
8
0
100
AcDbSpline
70
4
71
3
72
8
73
4
74
0
42
0.000000001
43
0.0000000001
44
0.0000000001
40
0
40
0
40
0
40
0
40
1
40
1
40
1
40
1
41
1
41
1
41
1
41
1
10
-47.04852566480622
20
-73.030904614030277
30
0
10
-46.855378943284208
20
-75.020309991736156
30
0
10
-46.483375244935203
20
-77.451565014420893
30
0
10
-46.265092783768829
20
-78.149003063737297
30
0
0
SPLINE
5
117
100
AcDbEntity
8
0
100
AcDbSpline
70
4
71
3
72
8
73
4
74
0
42
0.000000001
43
0.0000000001
44
0.0000000001
40
0
40
0
40
0
40
0
40
1
40
1
40
1
40
1
41
1
41
1
41
1
41
1
10
-46.265092783768829
20
-78.149003063737297
30
0
10
-46.190480897426468
20
-78.387659362056809
30
0
10
-45.983577344417427
20
-79.051233199337076
30
0
10
-45.805247224966543
20
-79.623791920243647
30
0
0
SPLINE
5
118
100
AcDbEntity
8
0
100
AcDbSpline
70
4
71
3
72
8
73
4
74
0
42
0.000000001
43
0.0000000001
44
0.0000000001
40
0
40
0
40
0
40
0
40
1
40
1
40
1
40
1
41
1
41
1
41
1
41
1
10
-45.805247224966543
20
-79.623791920243647
30
0
10
-45.113626811504218
20
-81.84444125801221
30
0
10
-43.268422903219715
20
-84.63102827379997
30
0
10
-41.611601795355341
20
-85.956326901017576
30
0
0
SPLINE
5
119
100
AcDbEntity
8
0
100
AcDbSpline
70
4
71
3
72
8
73
4
74
0
42
0.000000001
43
0.0000000001
44
0.0000000001
40
0
40
0
40
0
40
0
40
1
40
1
40
1
40
1
41
1
41
1
41
1
41
1
10
-41.611601795355341
20
-85.956326901017576
30
0
10
-41.194088520208851
20
-86.290495780208659
30
0
10
-40.68185597817088
20
-86.726265369950681
30
0
10
-40.47362821658438
20
-86.925235783158698
30
0
0
SPLINE
5
120
100
AcDbEntity
8
0
100
AcDbSpline
70
4
71
3
72
8
73
4
74
0
42
0.000000001
43
0.0000000001
44
0.0000000001
40
0
40
0
40
0
40
0
40
1
40
1
40
1
40
1
41
1
41
1
41
1
41
1
10
-40.47362821658438
20
-86.925235783158698
30
0
10
-36.39640009959524
20
-90.81539723386264
30
0
10
-24.264990231990666
20
-90.712222007015299
30
0
10
-17.992775374253441
20
-86.733677708207523
30
0
0
SPLINE
5
121
100
AcDbEntity
8
0
100
AcDbSpline
70
4
71
3
72
8
73
4
74
0
42
0.000000001
43
0.0000000001
44
0.0000000001
40
0
40
0
40
0
40
0
40
1
40
1
40
1
40
1
41
1
41
1
41
1
41
1
10
-17.992775374253441
20
-86.733677708207523
30
0
10
-16.507142541408388
20
-85.791228774288243
30
0
10
-15.999143025874938
20
-85.385358845292473
30
0
10
-14.770947644710395
20
-84.159012511470877
30
0
0
SPLINE
5
122
100
AcDbEntity
8
0
100
AcDbSpline
70
4
71
3
72
8
73
4
74
0
42
0.000000001
43
0.0000000001
44
0.0000000001
40
0
40
0
40
0
40
0
40
1
40
1
40
1
40
1
41
1
41
1
41
1
41
1
10
-14.770947644710395
20
-84.159012511470877
30
0
10
-13.182385855515646
20
-82.573103176652353
30
0
10
-12.294709902604266
20
-81.308920005062163
30
0
10
-11.628754104773051
20
-79.685965127844568
30
0
0
SPLINE
5
123
100
AcDbEntity
8
0
100
AcDbSpline
70
4
71
3
72
8
73
4
74
0
42
0.000000001
43
0.0000000001
44
0.0000000001
40
0
40
0
40
0
40
0
40
1
40
1
40
1
40
1
41
1
41
1
41
1
41
1
10
-11.628754104773051
20
-79.685965127844568
30
0
10
-11.379782706101587
20
-79.079275738297838
30
0
10
-11.114137583573509
20
-78.461475915808435
30
0
10
-11.038205525874938
20
-78.313043438493168
30
0
0
SPLINE
5
124
100
AcDbEntity
8
0
100
AcDbSpline
70
4
71
3
72
8
73
4
74
0
42
0.000000001
43
0.0000000001
44
0.0000000001
40
0
40
0
40
0
40
0
40
1
40
1
40
1
40
1
41
1
41
1
41
1
41
1
10
-11.038205525874938
20
-78.313043438493168
30
0
10
-10.278057318528342
20
-76.829259652991055
30
0
10
-9.8425501481690514
20
-72.198260024288246
30
0
10
-9.9930981294312549
20
-67.198161477942207
30
0
0
SPLINE
5
125
100
AcDbEntity
8
0
100
AcDbSpline
70
4
71
3
72
8
73
4
74
0
42
0.000000001
43
0.0000000001
44
0.0000000001
40
0
40
0
40
0
40
0
40
1
40
1
40
1
40
1
41
1
41
1
41
1
41
1
10
-9.9930981294312549
20
-67.198161477942207
30
0
10
-10.040725228786318
20
-65.612518599727707
30
0
10
-10.054217622279973
20
-64.185885718563156
30
0
10
-10.022997790177515
20
-64.028191855648103
30
0
0
SPLINE
5
126
100
AcDbEntity
8
0
100
AcDbSpline
70
4
71
3
72
8
73
4
74
0
42
0.000000001
43
0.0000000001
44
0.0000000001
40
0
40
0
40
0
40
0
40
1
40
1
40
1
40
1
41
1
41
1
41
1
41
1
10
-10.022997790177515
20
-64.028191855648103
30
0
10
-9.9721974349020392
20
-63.771545699337082
30
0
10
-9.6242697056133064
20
-63.74614350308871
30
0
10
-6.7265541370708259
20
-63.788477805355143
30
0
0
LINE
5
127
100
AcDbEntity
8
0
100
AcDbLine
10
-6.7265541370708259
20
-63.78847780535515
30
0
11
-3.4867325123149664
21
-63.835576028723466
31
0
0
LINE
5
128
100
AcDbEntity
8
0
100
AcDbLine
10
-3.4867325123149664
20
-63.835576028723466
30
0
11
-3.5735125835735033
21
-66.177664982377451
31
0
0
SPLINE
5
129
100
AcDbEntity
8
0
100
AcDbSpline
70
4
71
3
72
8
73
4
74
0
42
0.000000001
43
0.0000000001
44
0.0000000001
40
0
40
0
40
0
40
0
40
1
40
1
40
1
40
1
41
1
41
1
41
1
41
1
10
-3.5735125835735104
20
-66.177664982377436
30
0
10
-4.0656377450623626
20
-79.460276384253262
30
0
10
-1.3872603710490949
20
-83.762936881282869
30
0
10
8.2464821839334146
20
-85.167074365515475
30
0
0
SPLINE
5
130
100
AcDbEntity
8
0
100
AcDbSpline
70
4
71
3
72
8
73
4
74
0
42
0.000000001
43
0.0000000001
44
0.0000000001
40
0
40
0
40
0
40
0
40
1
40
1
40
1
40
1
41
1
41
1
41
1
41
1
10
8.2464821839334146
20
-85.167074365515475
30
0
10
21.624347784519351
20
-87.117060314713868
30
0
10
27.803686366876121
20
-80.885326674678879
30
0
10
27.831736980279445
20
-65.415138851701172
30
0
0
SPLINE
5
131
100
AcDbEntity
8
0
100
AcDbSpline
70
4
71
3
72
8
73
4
74
0
42
0.000000001
43
0.0000000001
44
0.0000000001
40
0
40
0
40
0
40
0
40
1
40
1
40
1
40
1
41
1
41
1
41
1
41
1
10
27.831736980279445
20
-65.415138851701172
30
0
10
27.833053114414366
20
-64.679064594804188
30
0
10
27.971699367364398
20
-63.742970247168302
30
0
10
28.175958540439758
20
-63.091298138200202
30
0
0
SPLINE
5
132
100
AcDbEntity
8
0
100
AcDbSpline
70
4
71
3
72
8
73
4
74
0
42
0.000000001
43
0.0000000001
44
0.0000000001
40
0
40
0
40
0
40
0
40
1
40
1
40
1
40
1
41
1
41
1
41
1
41
1
10
28.175958540439758
20
-63.091298138200202
30
0
10
28.821009606520498
20
-61.033905954260575
30
0
10
30.520695911248676
20
-54.175635944901842
30
0
10
30.936884977817698
20
-51.951022055843424
30
0
0
SPLINE
5
133
100
AcDbEntity
8
0
100
AcDbSpline
70
4
71
3
72
8
73
4
74
0
42
0.000000001
43
0.0000000001
44
0.0000000001
40
0
40
0
40
0
40
0
40
1
40
1
40
1
40
1
41
1
41
1
41
1
41
1
10
30.936884977817698
20
-51.951022055843424
30
0
10
32.066652904351699
20
-45.912703612545087
30
0
10
32.512208718458965
20
-36.21122052182649
30
0
10
31.992045055230616
20
-28.968518228430497
30
0
0
SPLINE
5
134
100
AcDbEntity
8
0
100
AcDbSpline
70
4
71
3
72
8
73
4
74
0
42
0.000000001
43
0.0000000001
44
0.0000000001
40
0
40
0
40
0
40
0
40
1
40
1
40
1
40
1
41
1
41
1
41
1
41
1
10
31.992045055230616
20
-28.968518228430497
30
0
10
31.89573310454703
20
-27.629194294511219
30
0
10
31.73645665089305
20
-25.362512559790353
30
0
10
31.637762739658513
20
-23.931115757523919
30
0
0
SPLINE
5
135
100
AcDbEntity
8
0
100
AcDbSpline
70
4
71
3
72
8
73
4
74
0
42
0.000000001
43
0.0000000001
44
0.0000000001
40
0
40
0
40
0
40
0
40
1
40
1
40
1
40
1
41
1
41
1
41
1
41
1
10
31.637762739658513
20
-23.931115757523919
30
0
10
31.406785236199859
20
-20.582285121181549
30
0
10
30.819409913222149
20
-14.061098864772861
30
0
10
30.601125433445127
20
-12.424389174678865
30
0
0
SPLINE
5
136
100
AcDbEntity
8
0
100
AcDbSpline
70
4
71
3
72
8
73
4
74
0
42
0.000000001
43
0.0000000001
44
0.0000000001
40
0
40
0
40
0
40
0
40
1
40
1
40
1
40
1
41
1
41
1
41
1
41
1
10
30.601125433445127
20
-12.424389174678865
30
0
10
30.242878566583151
20
-9.7367504150658224
30
0
10
30.246318279107562
20
-9.7256359449018426
30
0
10
31.905260946750804
20
-8.0132525792707376
30
0
0
SPLINE
5
137
100
AcDbEntity
8
0
100
AcDbSpline
70
4
71
3
72
8
73
4
74
0
42
0.000000001
43
0.0000000001
44
0.0000000001
40
0
40
0
40
0
40
0
40
1
40
1
40
1
40
1
41
1
41
1
41
1
41
1
10
31.905260946750804
20
-8.0132525792707376
30
0
10
39.956263385613923
20
0.29757330904510049
30
0
10
39.841703194777324
20
11.189673325321138
30
0
10
31.627185219923817
20
18.450371532540583
30
0
0
SPLINE
5
138
100
AcDbEntity
8
0
100
AcDbSpline
70
4
71
3
72
8
73
4
74
0
42
0.000000001
43
0.0000000001
44
0.0000000001
40
0
40
0
40
0
40
0
40
1
40
1
40
1
40
1
41
1
41
1
41
1
41
1
10
31.627185219923817
20
18.450371532540583
30
0
10
29.807108976841121
20
20.058772227069799
30
0
10
28.937160462538554
20
20.707795918882947
30
0
10
25.270305794874979
20
23.191175505420631
30
0
0
SPLINE
5
139
100
AcDbEntity
8
0
100
AcDbSpline
70
4
71
3
72
8
73
4
74
0
42
0.000000001
43
0.0000000001
44
0.0000000001
40
0
40
0
40
0
40
0
40
1
40
1
40
1
40
1
41
1
41
1
41
1
41
1
10
25.270305794874979
20
23.191175505420631
30
0
10
24.2921355271341
20
23.853691590727433
30
0
10
23.492039015293269
20
24.496364733478487
30
0
10
23.492039015293269
20
24.619395014545383
30
0
0
SPLINE
5
140
100
AcDbEntity
8
0
100
AcDbSpline
70
4
71
3
72
8
73
4
74
0
42
0.000000001
43
0.0000000001
44
0.0000000001
40
0
40
0
40
0
40
0
40
1
40
1
40
1
40
1
41
1
41
1
41
1
41
1
10
23.492039015293269
20
24.619395014545383
30
0
10
23.492039015293269
20
24.742427314222915
30
0
10
23.344930746555477
20
25.150679203769627
30
0
10
23.165274399916491
20
25.526387052636409
30
0
0
SPLINE
5
141
100
AcDbEntity
8
0
100
AcDbSpline
70
4
71
3
72
8
73
4
74
0
42
0.000000001
43
0.0000000001
44
0.0000000001
40
0
40
0
40
0
40
0
40
1
40
1
40
1
40
1
41
1
41
1
41
1
41
1
10
23.165274399916491
20
25.526387052636409
30
0
10
22.985626127720042
20
25.902094901503187
30
0
10
22.596954761346328
20
26.717012052636409
30
0
10
22.301414015293268
20
27.337195854287408
30
0
0
SPLINE
5
142
100
AcDbEntity
8
0
100
AcDbSpline
70
4
71
3
72
8
73
4
74
0
42
0.000000001
43
0.0000000001
44
0.0000000001
40
0
40
0
40
0
40
0
40
1
40
1
40
1
40
1
41
1
41
1
41
1
41
1
10
22.301414015293268
20
27.337195854287408
30
0
10
18.693817681471661
20
34.912216970226233
30
0
10
14.212833120823056
20
39.06220641225682
30
0
10
6.2290342672667443
20
42.222653995852738
30
0
0
SPLINE
5
143
100
AcDbEntity
8
0
100
AcDbSpline
70
4
71
3
72
8
73
4
74
0
42
0.000000001
43
0.0000000001
44
0.0000000001
40
0
40
0
40
0
40
0
40
1
40
1
40
1
40
1
41
1
41
1
41
1
41
1
10
6.2290342672667443
20
42.222653995852738
30
0
10
3.9255734467507963
20
43.134408188761341
30
0
10
0.063446460565081964
20
44.273704083662295
30
0
10
-2.39003346522634
20
44.765035300355223
30
0
0
SPLINE
5
144
100
AcDbEntity
8
0
100
AcDbSpline
70
4
71
3
72
8
73
4
74
0
42
0.000000001
43
0.0000000001
44
0.0000000001
40
0
40
0
40
0
40
0
40
1
40
1
40
1
40
1
41
1
41
1
41
1
41
1
10
-2.39003346522634
20
44.765035300355223
30
0
10
-7.3343012785910044
20
45.755106192480596
30
0
10
-13.018611937363795
20
46.192462441723606
30
0
10
-17.193207738399359
20
45.904066599558853
30
0
0
SPLINE
5
145
100
AcDbEntity
8
0
100
AcDbSpline
70
4
71
3
72
8
73
4
74
0
42
0.000000001
43
0.0000000001
44
0.0000000001
40
0
40
0
40
0
40
0
40
1
40
1
40
1
40
1
41
1
41
1
41
1
41
1
10
-9.1620442048707051
20
40.166841627062425
30
0
10
-6.9792317048707098
20
39.930303860605825
30
0
10
-3.232730735937599
20
39.2466206241658
30
0
10
-1.1446395214397143
20
38.704224992693533
30
0
0
SPLINE
5
146
100
AcDbEntity
8
0
100
AcDbSpline
70
4
71
3
72
8
73
4
74
0
42
0.000000001
43
0.0000000001
44
0.0000000001
40
0
40
0
40
0
40
0
40
1
40
1
40
1
40
1
41
1
41
1
41
1
41
1
10
-1.1446395214397143
20
38.704224992693533
30
0
10
7.9932757401467924
20
36.3298539130897
30
0
10
13.120635575453594
20
32.851112561326289
30
0
10
16.302781457106423
20
26.866237843931778
30
0
0
SPLINE
5
147
100
AcDbEntity
8
0
100
AcDbSpline
70
4
71
3
72
8
73
4
74
0
42
0.000000001
43
0.0000000001
44
0.0000000001
40
0
40
0
40
0
40
0
40
1
40
1
40
1
40
1
41
1
41
1
41
1
41
1
10
16.302781457106423
20
26.866237843931778
30
0
10
16.840943052768864
20
25.8542053827654
30
0
10
17.364021589756167
20
25.937020902734066
30
0
10
11.774432216485495
20
26.149481690825091
30
0
0
SPLINE
5
148
100
AcDbEntity
8
0
100
AcDbSpline
70
4
71
3
72
8
73
4
74
0
42
0.000000001
43
0.0000000001
44
0.0000000001
40
0
40
0
40
0
40
0
40
1
40
1
40
1
40
1
41
1
41
1
41
1
41
1
10
11.774432216485495
20
26.149481690825091
30
0
10
-6.064300471146753
20
26.827607692183122
30
0
10
-14.835502812862247
20
24.807779833576149
30
0
10
-20.375616039434917
20
18.745910259983006
30
0
0
SPLINE
5
149
100
AcDbEntity
8
0
100
AcDbSpline
70
4
71
3
72
8
73
4
74
0
42
0.000000001
43
0.0000000001
44
0.0000000001
40
0
40
0
40
0
40
0
40
1
40
1
40
1
40
1
41
1
41
1
41
1
41
1
10
-20.375616039434917
20
18.745910259983006
30
0
10
-27.895073888301702
20
10.518428767622572
30
0
10
-26.05992266098643
20
-5.9838988970706275
30
0
10
-16.906133045355325
20
-12.451902837652904
30
0
0
SPLINE
5
150
100
AcDbEntity
8
0
100
AcDbSpline
70
4
71
3
72
8
73
4
74
0
42
0.000000001
43
0.0000000001
44
0.0000000001
40
0
40
0
40
0
40
0
40
1
40
1
40
1
40
1
41
1
41
1
41
1
41
1
10
-16.906133045355325
20
-12.451902837652904
30
0
10
-12.420917476812852
20
-15.621347621181547
30
0
10
-7.9486654257772837
20
-16.649518874385898
30
0
10
1.2842375779153414
20
-16.634435815710766
30
0
0
SPLINE
5
151
100
AcDbEntity
8
0
100
AcDbSpline
70
4
71
3
72
8
73
4
74
0
42
0.000000001
43
0.0000000001
44
0.0000000001
40
0
40
0
40
0
40
0
40
1
40
1
40
1
40
1
41
1
41
1
41
1
41
1
10
1.2842375779153414
20
-16.634435815710766
30
0
10
10.9648078624409
20
-16.618827918270178
30
0
10
17.159504034519344
20
-15.689608958461827
30
0
10
23.615594135125626
20
-13.284813883998936
30
0
0
LINE
5
152
100
AcDbEntity
8
0
100
AcDbLine
10
23.615594135125626
20
-13.284813883998936
30
0
11
25.040377968947244
21
-12.754056552150793
31
0
0
LINE
5
153
100
AcDbEntity
8
0
100
AcDbLine
10
25.040377968947244
20
-12.754056552150793
30
0
11
25.12689562082306
21
-13.311269794999504
31
0
0
SPLINE
5
154
100
AcDbEntity
8
0
100
AcDbSpline
70
4
71
3
72
8
73
4
74
0
42
0.000000001
43
0.0000000001
44
0.0000000001
40
0
40
0
40
0
40
0
40
1
40
1
40
1
40
1
41
1
41
1
41
1
41
1
10
25.12689562082306
20
-13.311269794999498
30
0
10
25.24013967752472
20
-14.038082666296701
30
0
10
25.852384283542786
20
-20.824381132025465
30
0
10
26.084952452182932
20
-23.931115757523919
30
0
0
SPLINE
5
155
100
AcDbEntity
8
0
100
AcDbSpline
70
4
71
3
72
8
73
4
74
0
42
0.000000001
43
0.0000000001
44
0.0000000001
40
0
40
0
40
0
40
0
40
1
40
1
40
1
40
1
41
1
41
1
41
1
41
1
10
26.084952452182932
20
-23.931115757523919
30
0
10
26.184970571994945
20
-25.266999978918776
30
0
10
26.345304777622385
20
-27.405887511470858
30
0
10
26.440817358493955
20
-28.683829533158686
30
0
0
SPLINE
5
156
100
AcDbEntity
8
0
100
AcDbSpline
70
4
71
3
72
8
73
4
74
0
42
0.000000001
43
0.0000000001
44
0.0000000001
40
0
40
0
40
0
40
0
40
1
40
1
40
1
40
1
41
1
41
1
41
1
41
1
10
26.440817358493955
20
-28.683829533158686
30
0
10
26.666247719923817
20
-31.693464949825348
30
0
10
26.665714806715801
20
-41.759533344804197
30
0
10
26.440026063124495
20
-43.933617372412428
30
0
0
SPLINE
5
157
100
AcDbEntity
8
0
100
AcDbSpline
70
4
71
3
72
8
73
4
74
0
42
0.000000001
43
0.0000000001
44
0.0000000001
40
0
40
0
40
0
40
0
40
1
40
1
40
1
40
1
41
1
41
1
41
1
41
1
10
26.440026063124495
20
-43.933617372412428
30
0
10
25.855557539463199
20
-49.565799430110999
30
0
10
24.754098608493962
20
-55.055903596777668
30
0
10
22.969218860467429
20
-61.23313474963004
30
0
0
SPLINE
5
158
100
AcDbEntity
8
0
100
AcDbSpline
70
4
71
3
72
8
73
4
74
0
42
0.000000001
43
0.0000000001
44
0.0000000001
40
0
40
0
40
0
40
0
40
1
40
1
40
1
40
1
41
1
41
1
41
1
41
1
10
22.969218860467429
20
-61.23313474963004
30
0
10
22.547208120823061
20
-62.693631842830726
30
0
10
22.426826256911117
20
-63.585276384253255
30
0
10
22.208275320530095
20
-66.871671393611962
30
0
0
SPLINE
5
159
100
AcDbEntity
8
0
100
AcDbSpline
70
4
71
3
72
8
73
4
74
0
42
0.000000001
43
0.0000000001
44
0.0000000001
40
0
40
0
40
0
40
0
40
1
40
1
40
1
40
1
41
1
41
1
41
1
41
1
10
22.208275320530095
20
-66.871671393611962
30
0
10
21.514809896946101
20
-77.293871151505854
30
0
10
19.548424754937646
20
-79.810319617488943
30
0
10
12.127915162245593
20
-79.773282149532392
30
0
0
SPLINE
5
160
100
AcDbEntity
8
0
100
AcDbSpline
70
4
71
3
72
8
73
4
74
0
42
0.000000001
43
0.0000000001
44
0.0000000001
40
0
40
0
40
0
40
0
40
1
40
1
40
1
40
1
41
1
41
1
41
1
41
1
10
12.127915162245593
20
-79.773282149532392
30
0
10
3.1836775167784648
20
-79.728832343319013
30
0
10
1.451451208591612
20
-77.293079856136387
30
0
10
2.099150691827294
20
-65.671252094804203
30
0
0
LINE
5
161
100
AcDbEntity
8
0
100
AcDbLine
10
2.0991506918272949
20
-65.671252094804203
30
0
11
2.2385882401467927
21
-63.169620230892249
31
0
0
LINE
5
162
100
AcDbEntity
8
0
100
AcDbLine
10
2.2385882401467927
20
-63.169620230892249
30
0
11
3.4530247712136806
21
-62.942340822119462
31
0
0
SPLINE
5
163
100
AcDbEntity
8
0
100
AcDbSpline
70
4
71
3
72
8
73
4
74
0
42
0.000000001
43
0.0000000001
44
0.0000000001
40
0
40
0
40
0
40
0
40
1
40
1
40
1
40
1
41
1
41
1
41
1
41
1
10
3.4530247712136841
20
-62.942340822119469
30
0
10
7.2889582657815577
20
-62.224264497656577
30
0
10
12.064151289463201
20
-60.770113916296715
30
0
10
15.077226418654277
20
-59.402747443416658
30
0
0
SPLINE
5
164
100
AcDbEntity
8
0
100
AcDbSpline
70
4
71
3
72
8
73
4
74
0
42
0.000000001
43
0.0000000001
44
0.0000000001
40
0
40
0
40
0
40
0
40
1
40
1
40
1
40
1
41
1
41
1
41
1
41
1
10
15.077226418654277
20
-59.402747443416658
30
0
10
16.130537448724258
20
-58.924643551408202
30
0
10
15.784458766778471
20
-58.760603176652339
30
0
10
14.314700287978006
20
-59.041327320634274
30
0
0
SPLINE
5
165
100
AcDbEntity
8
0
100
AcDbSpline
70
4
71
3
72
8
73
4
74
0
42
0.000000001
43
0.0000000001
44
0.0000000001
40
0
40
0
40
0
40
0
40
1
40
1
40
1
40
1
41
1
41
1
41
1
41
1
10
14.314700287978006
20
-59.041327320634274
30
0
10
11.524407103061831
20
-59.574192081986808
30
0
10
7.6585739477476977
20
-59.446405954260584
30
0
10
4.4073754334451287
20
-58.713771409888018
30
0
0
SPLINE
5
166
100
AcDbEntity
8
0
100
AcDbSpline
70
4
71
3
72
8
73
4
74
0
42
0.000000001
43
0.0000000001
44
0.0000000001
40
0
40
0
40
0
40
0
40
1
40
1
40
1
40
1
41
1
41
1
41
1
41
1
10
4.4073754334451287
20
-58.713771409888018
30
0
10
0.43174600839630095
20
-57.818154242733058
30
0
10
0.74845794280385292
20
-57.848845198848799
30
0
10
-2.595612809657899
20
-58.036172265906089
30
0
0
SPLINE
5
167
100
AcDbEntity
8
0
100
AcDbSpline
70
4
71
3
72
8
73
4
74
0
42
0.000000001
43
0.0000000001
44
0.0000000001
40
0
40
0
40
0
40
0
40
1
40
1
40
1
40
1
41
1
41
1
41
1
41
1
10
-2.595612809657899
20
-58.036172265906089
30
0
10
-4.3262524898845456
20
-58.133275511959148
30
0
10
-7.5769261654216535
20
-58.198097136714999
30
0
10
-9.8195339496928913
20
-58.180373735327464
30
0
0
SPLINE
5
168
100
AcDbEntity
8
0
100
AcDbSpline
70
4
71
3
72
8
73
4
74
0
42
0.000000001
43
0.0000000001
44
0.0000000001
40
0
40
0
40
0
40
0
40
1
40
1
40
1
40
1
41
1
41
1
41
1
41
1
10
-9.8195339496928913
20
-58.180373735327464
30
0
10
-14.643944737911072
20
-58.142536897558927
30
0
10
-14.943454072475282
20
-58.217677659888025
30
0
10
-15.607027909755553
20
-59.635315612056807
30
0
0
SPLINE
5
169
100
AcDbEntity
8
0
100
AcDbSpline
70
4
71
3
72
8
73
4
74
0
42
0.000000001
43
0.0000000001
44
0.0000000001
40
0
40
0
40
0
40
0
40
1
40
1
40
1
40
1
41
1
41
1
41
1
41
1
10
-15.607027909755553
20
-59.635315612056807
30
0
10
-15.886956721146754
20
-60.233534911373212
30
0
10
-15.898071191310734
20
-60.524311736324385
30
0
10
-15.727942686875513
20
-62.844971119462407
30
0
0
SPLINE
5
170
100
AcDbEntity
8
0
100
AcDbSpline
70
4
71
3
72
8
73
4
74
0
42
0.000000001
43
0.0000000001
44
0.0000000001
40
0
40
0
40
0
40
0
40
1
40
1
40
1
40
1
41
1
41
1
41
1
41
1
10
-15.727942686875513
20
-62.844971119462407
30
0
10
-15.245078910986436
20
-69.434685169755369
30
0
10
-15.704131155808616
20
-75.38542820920442
30
0
10
-16.877557593186545
20
-77.746306390661942
30
0
0
SPLINE
5
171
100
AcDbEntity
8
0
100
AcDbSpline
70
4
71
3
72
8
73
4
74
0
42
0.000000001
43
0.0000000001
44
0.0000000001
40
0
40
0
40
0
40
0
40
1
40
1
40
1
40
1
41
1
41
1
41
1
41
1
10
-16.877557593186545
20
-77.746306390661942
30
0
10
-19.717330962021997
20
-83.459983796972978
30
0
10
-29.87044992208466
20
-85.952095893123698
30
0
10
-36.539804217815252
20
-82.572311881282872
30
0
0
SPLINE
5
172
100
AcDbEntity
8
0
100
AcDbSpline
70
4
71
3
72
8
73
4
74
0
42
0.000000001
43
0.0000000001
44
0.0000000001
40
0
40
0
40
0
40
0
40
1
40
1
40
1
40
1
41
1
41
1
41
1
41
1
10
-36.539804217815252
20
-82.572311881282872
30
0
10
-37.80027920166637
20
-81.933607327042978
30
0
10
-39.834394786357734
20
-79.671414982377442
30
0
10
-39.834394786357734
20
-78.908355938493159
30
0
0
SPLINE
5
173
100
AcDbEntity
8
0
100
AcDbSpline
70
4
71
3
72
8
73
4
74
0
42
0.000000001
43
0.0000000001
44
0.0000000001
40
0
40
0
40
0
40
0
40
1
40
1
40
1
40
1
41
1
41
1
41
1
41
1
10
-39.834394786357734
20
-78.908355938493159
30
0
10
-39.834394786357734
20
-78.839828144608902
30
0
10
-39.948165700435496
20
-78.658064368465489
30
0
10
-40.08707235415762
20
-78.504601513444342
30
0
0
SPLINE
5
174
100
AcDbEntity
8
0
100
AcDbSpline
70
4
71
3
72
8
73
4
74
0
42
0.000000001
43
0.0000000001
44
0.0000000001
40
0
40
0
40
0
40
0
40
1
40
1
40
1
40
1
41
1
41
1
41
1
41
1
10
-40.08707235415762
20
-78.504601513444342
30
0
10
-41.100955881277571
20
-77.384361429114094
30
0
10
-41.913755509853218
20
-68.02128629992302
30
0
10
-41.586730493704337
20
-61.23313474963004
30
0
0
SPLINE
5
175
100
AcDbEntity
8
0
100
AcDbSpline
70
4
71
3
72
8
73
4
74
0
42
0.000000001
43
0.0000000001
44
0.0000000001
40
0
40
0
40
0
40
0
40
1
40
1
40
1
40
1
41
1
41
1
41
1
41
1
10
-41.586730493704337
20
-61.23313474963004
30
0
10
-41.512911921342067
20
-59.706225366492021
30
0
10
-41.515029443899643
20
-56.739449090857264
30
0
10
-41.590963520208852
20
-54.640247443416655
30
0
0
SPLINE
5
176
100
AcDbEntity
8
0
100
AcDbSpline
70
4
71
3
72
8
73
4
74
0
42
0.000000001
43
0.0000000001
44
0.0000000001
40
0
40
0
40
0
40
0
40
1
40
1
40
1
40
1
41
1
41
1
41
1
41
1
10
-41.590963520208852
20
-54.640247443416655
30
0
10
-42.644799389044294
20
-25.498243938981435
30
0
10
-42.620987857977397
20
-3.4801474919904685
30
0
10
-41.526670771439726
20
4.7825264582048455
30
0
0
SPLINE
5
177
100
AcDbEntity
8
0
100
AcDbSpline
70
4
71
3
72
8
73
4
74
0
42
0.000000001
43
0.0000000001
44
0.0000000001
40
0
40
0
40
0
40
0
40
1
40
1
40
1
40
1
41
1
41
1
41
1
41
1
10
-41.526670771439726
20
4.7825264582048455
30
0
10
-41.419250406424055
20
5.5937374402096474
30
0
10
-41.350987050533149
20
6.3946292846412067
30
0
10
-41.374800600210676
20
6.5623758285254841
30
0
0
SPLINE
5
178
100
AcDbEntity
8
0
100
AcDbSpline
70
4
71
3
72
8
73
4
74
0
42
0.000000001
43
0.0000000001
44
0.0000000001
40
0
40
0
40
0
40
0
40
1
40
1
40
1
40
1
41
1
41
1
41
1
41
1
10
-41.374800600210676
20
6.5623758285254841
30
0
10
-41.570327263672993
20
7.9353015550981576
30
0
10
-39.916945868333038
20
17.141742591958309
30
0
10
-38.771299550533143
20
21.0591633606961
30
0
0
SPLINE
5
179
100
AcDbEntity
8
0
100
AcDbSpline
70
4
71
3
72
8
73
4
74
0
42
0.000000001
43
0.0000000001
44
0.0000000001
40
0
40
0
40
0
40
0
40
1
40
1
40
1
40
1
41
1
41
1
41
1
41
1
10
-38.771299550533143
20
21.0591633606961
30
0
10
-34.501718026002102
20
35.659929526747334
30
0
10
-24.877501294612738
20
41.871022873025211
30
0
10
-9.1620442048707051
20
40.166841627062425
30
0
0
LINE
5
180
100
AcDbEntity
8
0
100
AcDbLine
10
17.766451806227526
20
20.420723244449558
30
0
11
19.588377096653144
21
20.287638263802791
31
0
0
LINE
5
181
100
AcDbEntity
8
0
100
AcDbLine
10
19.588377096653144
20
20.287638263802791
30
0
11
22.017250158786929
21
18.668123099109593
31
0
0
SPLINE
5
182
100
AcDbEntity
8
0
100
AcDbSpline
70
4
71
3
72
8
73
4
74
0
42
0.000000001
43
0.0000000001
44
0.0000000001
40
0
40
0
40
0
40
0
40
1
40
1
40
1
40
1
41
1
41
1
41
1
41
1
10
22.017250158786936
20
18.668123099109593
30
0
10
31.357837965488589
20
12.440888942183118
30
0
10
33.58086118936555
20
8.8081609059384078
30
0
10
31.840697704156398
20
2.6161171882361778
30
0
0
SPLINE
5
183
100
AcDbEntity
8
0
100
AcDbSpline
70
4
71
3
72
8
73
4
74
0
42
0.000000001
43
0.0000000001
44
0.0000000001
40
0
40
0
40
0
40
0
40
1
40
1
40
1
40
1
41
1
41
1
41
1
41
1
10
31.840697704156398
20
2.6161171882361778
30
0
10
29.312081053257142
20
-6.3823645622521052
30
0
10
21.160527581373998
20
-10.399266500372626
30
0
10
3.8866788570087696
20
-11.158885831732492
30
0
0
SPLINE
5
184
100
AcDbEntity
8
0
100
AcDbSpline
70
4
71
3
72
8
73
4
74
0
42
0.000000001
43
0.0000000001
44
0.0000000001
40
0
40
0
40
0
40
0
40
1
40
1
40
1
40
1
41
1
41
1
41
1
41
1
10
3.8866788570087696
20
-11.158885831732492
30
0
10
-10.951683836777857
20
-11.811611655452792
30
0
10
-17.50065021276459
20
-8.0545291295637078
30
0
10
-19.276535031795355
20
2.1298136998226802
30
0
0
SPLINE
5
185
100
AcDbEntity
8
0
100
AcDbSpline
70
4
71
3
72
8
73
4
74
0
42
0.000000001
43
0.0000000001
44
0.0000000001
40
0
40
0
40
0
40
0
40
1
40
1
40
1
40
1
41
1
41
1
41
1
41
1
10
-19.276535031795355
20
2.1298136998226802
30
0
10
-21.173597047328798
20
13.008421322605077
30
0
10
-15.34615074555064
20
19.289100214740699
30
0
10
-2.1725443180400639
20
20.564656238656305
30
0
0
SPLINE
5
186
100
AcDbEntity
8
0
100
AcDbSpline
70
4
71
3
72
8
73
4
74
0
42
0.000000001
43
0.0000000001
44
0.0000000001
40
0
40
0
40
0
40
0
40
1
40
1
40
1
40
1
41
1
41
1
41
1
41
1
10
-2.1725443180400639
20
20.564656238656305
30
0
10
-0.3580313658712786
20
20.740339959562881
30
0
10
14.902600449721177
20
20.630273196002904
30
0
10
17.766451806227526
20
20.420723244449558
30
0
0
SPLINE
5
187
100
AcDbEntity
8
0
100
AcDbSpline
70
4
71
3
72
8
73
4
74
0
42
0.000000001
43
0.0000000001
44
0.0000000001
40
0
40
0
40
0
40
0
40
1
40
1
40
1
40
1
41
1
41
1
41
1
41
1
10
-47.364438229401756
20
0.92225255658334504
30
0
10
-47.986473097006339
20
-12.482597830989901
30
0
10
-47.967423468430688
20
-23.847504904964509
30
0
10
-47.282416023413198
20
-48.02169148435091
30
0
0
SPLINE
5
188
100
AcDbEntity
8
0
100
AcDbSpline
70
4
71
3
72
8
73
4
74
0
42
0.000000001
43
0.0000000001
44
0.0000000001
40
0
40
0
40
0
40
0
40
1
40
1
40
1
40
1
41
1
41
1
41
1
41
1
10
-47.282416023413198
20
-48.02169148435091
30
0
10
-47.106467864513249
20
-54.231462640661938
30
0
10
-47.11017201503104
20
-55.48029629697298
30
0
10
-47.30490536451326
20
-55.600686235327466
30
0
0
SPLINE
5
189
100
AcDbEntity
8
0
100
AcDbSpline
70
4
71
3
72
8
73
4
74
0
42
0.000000001
43
0.0000000001
44
0.0000000001
40
0
40
0
40
0
40
0
40
1
40
1
40
1
40
1
41
1
41
1
41
1
41
1
10
-47.30490536451326
20
-55.600686235327466
30
0
10
-48.244705881277582
20
-56.181440515417798
30
0
10
-54.760334902604278
20
-56.185937979915686
30
0
10
-56.288304056326403
20
-55.606766290564295
30
0
0
SPLINE
5
190
100
AcDbEntity
8
0
100
AcDbSpline
70
4
71
3
72
8
73
4
74
0
42
0.000000001
43
0.0000000001
44
0.0000000001
40
0
40
0
40
0
40
0
40
1
40
1
40
1
40
1
41
1
41
1
41
1
41
1
10
-56.288304056326403
20
-55.606766290564295
30
0
10
-61.183360160986439
20
-53.751243244706544
30
0
10
-62.682224986553052
20
-43.3906918556481
30
0
10
-61.712526827653107
20
-18.119014933803619
30
0
0
SPLINE
5
191
100
AcDbEntity
8
0
100
AcDbSpline
70
4
71
3
72
8
73
4
74
0
42
0.000000001
43
0.0000000001
44
0.0000000001
40
0
40
0
40
0
40
0
40
1
40
1
40
1
40
1
41
1
41
1
41
1
41
1
10
-61.712526827653107
20
-18.119014933803619
30
0
10
-61.057682976722575
20
-1.0597404828657098
30
0
10
-60.140108372370264
20
1.3336817392717393
30
0
10
-53.627654120921946
20
2.9682759254187907
30
0
0
SPLINE
5
192
100
AcDbEntity
8
0
100
AcDbSpline
70
4
71
3
72
8
73
4
74
0
42
0.000000001
43
0.0000000001
44
0.0000000001
40
0
40
0
40
0
40
0
40
1
40
1
40
1
40
1
41
1
41
1
41
1
41
1
10
-53.627654120921946
20
2.9682759254187907
30
0
10
-52.991331527232987
20
3.1280852922807778
30
0
10
-49.261764682928579
20
3.5180808672319497
30
0
10
-48.092306834061787
20
3.5469227760047328
30
0
0
LINE
5
193
100
AcDbEntity
8
0
100
AcDbLine
10
-48.092306834061787
20
3.5469227760047324
30
0
11
-47.241670367717596
21
3.5680858899166794
31
0
0
LINE
5
194
100
AcDbEntity
8
0
100
AcDbLine
10
-47.241670367717596
20
3.5680858899166794
30
0
11
-47.364438229401756
21
0.92225255658334504
31
0
0
SPLINE
5
195
100
AcDbEntity
8
0
100
AcDbSpline
70
4
71
5
72
16
73
10
74
0
42
0.000000001
43
0.0000000001
44
0.0000000001
40
0
40
0
40
0
40
0
40
0
40
0
40
0.20000000000000001
40
0.40000000000000002
40
0.60000000000000009
40
0.80000000000000004
40
1
40
1
40
1
40
1
40
1
40
1
41
1
41
1
41
1
41
1
41
1
41
1
41
1
41
1
41
1
41
1
10
-67.448164415210329
20
-45.097782424190584
30
0
10
-67.431503235186781
20
-45.351868874631066
30
0
10
-67.388485150388306
20
-45.867633851078082
30
0
10
-67.294895205408409
20
-46.664038422814258
30
0
10
-67.118434770465683
20
-47.766332154959763
30
0
10
-66.829445434289113
20
-49.197431517284038
30
0
10
-66.548374757367682
20
-50.38077245490485
30
0
10
-66.306514731259455
20
-51.292049867997633
30
0
10
-66.130159350899902
20
-51.911118450158909
30
0
10
-66.038199864427099
20
-52.22354256619905
30
0
0
SPLINE
5
196
100
AcDbEntity
8
0
100
AcDbSpline
70
4
71
5
72
16
73
10
74
0
42
0.000000001
43
0.0000000001
44
0.0000000001
40
0
40
0
40
0
40
0
40
0
40
0
40
0.20000000000000001
40
0.40000000000000002
40
0.60000000000000009
40
0.80000000000000004
40
1
40
1
40
1
40
1
40
1
40
1
41
1
41
1
41
1
41
1
41
1
41
1
41
1
41
1
41
1
41
1
10
-66.038199864427099
20
-52.22354256619905
30
0
10
-66.018503165154428
20
-52.284316394718651
30
0
10
-65.977834006477579
20
-52.407894889465005
30
0
10
-65.913004597195908
20
-52.599352583191497
30
0
10
-65.818382335570007
20
-52.867655816604504
30
0
10
-65.67979384723921
20
-53.235366686098558
30
0
10
-65.542436089016888
20
-53.571699054222478
30
0
10
-65.417035215339027
20
-53.859578332794584
30
0
10
-65.321894951032164
20
-54.069867465717294
30
0
10
-65.271437300840873
20
-54.179608570634272
30
0
0
SPLINE
5
197
100
AcDbEntity
8
0
100
AcDbSpline
70
4
71
5
72
16
73
10
74
0
42
0.000000001
43
0.0000000001
44
0.0000000001
40
0
40
0
40
0
40
0
40
0
40
0
40
0.20000000000000001
40
0.40000000000000002
40
0.60000000000000009
40
0.80000000000000004
40
1
40
1
40
1
40
1
40
1
40
1
41
1
41
1
41
1
41
1
41
1
41
1
41
1
41
1
41
1
41
1
10
-56.663747467199805
20
-61.556718034643879
30
0
10
-57.198417706964371
20
-61.413984959226873
30
0
10
-58.191147948876953
20
-61.128143146428549
30
0
10
-59.450619922872448
20
-60.698248074231884
30
0
10
-60.73451581917822
20
-60.117579641907852
30
0
10
-61.904221807709014
20
-59.344368133588191
30
0
10
-62.631569804875447
20
-58.645069223551658
30
0
10
-63.102214599078067
20
-58.047032387966851
30
0
10
-63.385563136878382
20
-57.609982942242738
30
0
10
-63.519630974133669
20
-57.381859814225578
30
0
0
SPLINE
5
198
100
AcDbEntity
8
0
100
AcDbSpline
70
4
71
5
72
26
73
20
74
0
42
0.000000001
43
0.0000000001
44
0.0000000001
40
0
40
0
40
0
40
0
40
0
40
0
40
0.066666666666666666
40
0.13333333333333333
40
0.20000000000000001
40
0.26666666666666666
40
0.33333333333333331
40
0.39999999999999997
40
0.46666666666666662
40
0.53333333333333333
40
0.59999999999999998
40
0.66666666666666663
40
0.73333333333333328
40
0.79999999999999993
40
0.86666666666666659
40
0.93333333333333324
40
1
40
1
40
1
40
1
40
1
40
1
41
1
41
1
41
1
41
1
41
1
41
1
41
1
41
1
41
1
41
1
41
1
41
1
41
1
41
1
41
1
41
1
41
1
41
1
41
1
41
1
10
-58.357144608961988
20
8.0433142008072593
30
0
10
-58.746779205508666
20
7.9201316605879954
30
0
10
-59.50524033046608
20
7.6256160419476071
30
0
10
-60.580511359312709
20
7.0394010210005495
30
0
10
-61.888426359936382
20
5.96671046445993
30
0
10
-63.310246019501186
20
4.1347304894208206
30
0
10
-64.517742305352698
20
1.8143796368630236
30
0
10
-65.517314715615683
20
-0.96756872192637533
30
0
10
-66.322593004533161
20
-4.1622485478674847
30
0
10
-66.950766829102349
20
-7.7102341872549021
30
0
10
-67.420647476206
20
-11.548613537199463
30
0
10
-67.750746836899282
20
-15.618026471228461
30
0
10
-67.957859673274271
20
-19.869706081953495
30
0
10
-68.05626354842633
20
-24.267072508355739
30
0
10
-68.057460341086099
20
-28.783643927855653
30
0
10
-67.970034469153262
20
-33.401870797470792
30
0
10
-67.833789604099024
20
-37.169511901604714
30
0
10
-67.695712572035035
20
-40.034209834702857
30
0
10
-67.587824163744571
20
-41.961201260023131
30
0
10
-67.529920669247559
20
-42.928995230892255
30
0
0
SPLINE
5
199
100
AcDbEntity
8
0
100
AcDbSpline
70
4
71
5
72
16
73
10
74
0
42
0.000000001
43
0.0000000001
44
0.0000000001
40
0
40
0
40
0
40
0
40
0
40
0
40
0.20000000000000001
40
0.40000000000000002
40
0.60000000000000009
40
0.80000000000000004
40
1
40
1
40
1
40
1
40
1
40
1
41
1
41
1
41
1
41
1
41
1
41
1
41
1
41
1
41
1
41
1
10
-49.290075697103994
20
9.2050359059384093
30
0
10
-49.627742137542519
20
9.1977855520382139
30
0
10
-50.305983291683731
20
9.1787254935954863
30
0
10
-51.332066174455747
20
9.1364631047558866
30
0
10
-52.71883108760278
20
9.0508684208659709
30
0
10
-54.498588215977904
20
8.8712882024501418
30
0
10
-55.982774657669331
20
8.632964091668283
30
0
10
-57.146938646724159
20
8.3742295478301862
30
0
10
-57.949354287989422
20
8.1604989834268089
30
0
10
-58.357144608961988
20
8.0433142008072593
30
0
0
SPLINE
5
200
100
AcDbEntity
8
0
100
AcDbSpline
70
4
71
5
72
16
73
10
74
0
42
0.000000001
43
0.0000000001
44
0.0000000001
40
0
40
0
40
0
40
0
40
0
40
0
40
0.20000000000000001
40
0.40000000000000002
40
0.60000000000000009
40
0.80000000000000004
40
1
40
1
40
1
40
1
40
1
40
1
41
1
41
1
41
1
41
1
41
1
41
1
41
1
41
1
41
1
41
1
10
-37.31767986377065
20
36.229047525824178
30
0
10
-37.496245921846139
20
35.994523993725458
30
0
10
-37.821949904722764
20
35.566688582605245
30
0
10
-38.216321735423108
20
35.048435490781387
30
0
10
-38.593130284363525
20
34.549833694025153
30
0
10
-38.993380095810849
20
33.994787778287659
30
0
10
-39.417929020331634
20
33.37060916255944
30
0
10
-39.879966016760932
20
32.674368860452134
30
0
10
-40.266520375745145
20
32.086471938046486
30
0
10
-40.479449889659733
20
31.761558386585182
30
0
0
ENDSEC
0
SECTION
2
OBJECTS
0
DICTIONARY
5
C
100
AcDbDictionary
3
ACAD_GROUP
350
D
3
ACAD_MLINESTYLE
350
17
0
DICTIONARY
5
D
100
AcDbDictionary
0
DICTIONARY
5
1A
330
C
100
AcDbDictionary
0
DICTIONARY
5
17
100
AcDbDictionary
0
ENDSEC
0
EOF
