0
SECTION
2
HEADER
9
$INSUNITS
70
4
9
$ACADVER
1
AC1014
9
$HANDSEED
5
FFFF
0
ENDSEC
0
SECTION
2
TABLES
0
TABLE
2
VPORT
5
8
100
AcDbSymbolTable
0
ENDTAB
0
TABLE
2
LTYPE
5
5
100
AcDbSymbolTable
0
LTYPE
5
14
100
AcDbSymbolTableRecord
100
AcDbLinetypeTableRecord
2
BYBLOCK
70
0
0
LTYPE
5
15
100
AcDbSymbolTableRecord
100
AcDbLinetypeTableRecord
2
BYLAYER
70
0
0
LTYPE
5
16
100
AcDbSymbolTableRecord
100
AcDbLinetypeTableRecord
2
DASHED
70
0
3
Dashed __ __ __ __ __ __ __ __ __ __ __ __ __ _
72
65
73
2
40
0.75
49
0.5
74
0
49
-0.25
74
0
0
ENDTAB
0
TABLE
2
LAYER
5
2
100
AcDbSymbolTable
70
2
0
LAYER
5
50
100
AcDbSymbolTableRecord
100
AcDbLayerTableRecord
2
0
70
0
62
7
6
CONTINUOUS
0
ENDTAB
0
TABLE
2
STYLE
5
3
100
AcDbSymbolTable
70
1
0
STYLE
5
11
100
AcDbSymbolTableRecord
100
AcDbTextStyleTableRecord
2
STANDARD
70
0
0
ENDTAB
0
TABLE
2
VIEW
5
6
100
AcDbSymbolTable
70
0
0
ENDTAB
0
TABLE
2
UCS
5
7
100
AcDbSymbolTable
70
0
0
ENDTAB
0
TABLE
2
APPID
5
9
100
AcDbSymbolTable
70
2
0
APPID
5
12
100
AcDbSymbolTableRecord
100
AcDbRegAppTableRecord
2
ACAD
70
0
0
ENDTAB
0
TABLE
2
DIMSTYLE
5
A
100
AcDbSymbolTable
70
1
0
ENDTAB
0
TABLE
2
BLOCK_RECORD
5
1
100
AcDbSymbolTable
70
1
0
BLOCK_RECORD
5
1F
100
AcDbSymbolTableRecord
100
AcDbBlockTableRecord
2
*MODEL_SPACE
0
BLOCK_RECORD
5
1B
100
AcDbSymbolTableRecord
100
AcDbBlockTableRecord
2
*PAPER_SPACE
0
ENDTAB
0
ENDSEC
0
SECTION
2
BLOCKS
0
BLOCK
5
20
100
AcDbEntity
100
AcDbBlockBegin
2
*MODEL_SPACE
0
ENDBLK
5
21
100
AcDbEntity
100
AcDbBlockEnd
0
BLOCK
5
1C
100
AcDbEntity
100
AcDbBlockBegin
2
*PAPER_SPACE
0
ENDBLK
5
1D
100
AcDbEntity
100
AcDbBlockEnd
0
ENDSEC
0
SECTION
2
ENTITIES
0
LINE
5
100
100
AcDbEntity
8
0
100
AcDbLine
10
48.092306834061787
20
-3.5469227760047324
30
0
11
47.241670367717596
21
-3.5680858899166794
31
0
0
LINE
5
101
100
AcDbEntity
8
0
100
AcDbLine
10
47.241670367717596
20
-3.5680858899166794
30
0
11
47.364438229401756
21
-0.92225255658334504
31
0
0
SPLINE
5
102
100
AcDbEntity
8
0
100
AcDbSpline
70
4
71
3
72
8
73
4
74
0
42
0.000000001
43
0.0000000001
44
0.0000000001
40
0
40
0
40
0
40
0
40
1
40
1
40
1
40
1
41
1
41
1
41
1
41
1
10
47.364438229401756
20
-0.92225255658334504
30
0
10
47.986473097006339
20
12.482597830989901
30
0
10
47.967423468430688
20
23.847504904964509
30
0
10
47.282416023413198
20
48.02169148435091
30
0
0
SPLINE
5
103
100
AcDbEntity
8
0
100
AcDbSpline
70
4
71
3
72
8
73
4
74
0
42
0.000000001
43
0.0000000001
44
0.0000000001
40
0
40
0
40
0
40
0
40
1
40
1
40
1
40
1
41
1
41
1
41
1
41
1
10
47.282416023413198
20
48.02169148435091
30
0
10
47.106467864513249
20
54.231462640661938
30
0
10
47.11017201503104
20
55.48029629697298
30
0
10
47.30490536451326
20
55.600686235327466
30
0
0
SPLINE
5
104
100
AcDbEntity
8
0
100
AcDbSpline
70
4
71
3
72
8
73
4
74
0
42
0.000000001
43
0.0000000001
44
0.0000000001
40
0
40
0
40
0
40
0
40
1
40
1
40
1
40
1
41
1
41
1
41
1
41
1
10
47.30490536451326
20
55.600686235327466
30
0
10
48.244705881277582
20
56.181440515417798
30
0
10
54.760334902604278
20
56.185937979915686
30
0
10
56.288304056326403
20
55.606766290564295
30
0
0
SPLINE
5
105
100
AcDbEntity
8
0
100
AcDbSpline
70
4
71
3
72
8
73
4
74
0
42
0.000000001
43
0.0000000001
44
0.0000000001
40
0
40
0
40
0
40
0
40
1
40
1
40
1
40
1
41
1
41
1
41
1
41
1
10
56.288304056326403
20
55.606766290564295
30
0
10
61.183360160986439
20
53.751243244706544
30
0
10
62.682224986553052
20
43.3906918556481
30
0
10
61.712526827653107
20
18.119014933803619
30
0
0
SPLINE
5
106
100
AcDbEntity
8
0
100
AcDbSpline
70
4
71
3
72
8
73
4
74
0
42
0.000000001
43
0.0000000001
44
0.0000000001
40
0
40
0
40
0
40
0
40
1
40
1
40
1
40
1
41
1
41
1
41
1
41
1
10
61.712526827653107
20
18.119014933803619
30
0
10
61.057682976722575
20
1.0597404828657098
30
0
10
60.140108372370264
20
-1.3336817392717393
30
0
10
53.627654120921946
20
-2.9682759254187907
30
0
0
SPLINE
5
107
100
AcDbEntity
8
0
100
AcDbSpline
70
4
71
3
72
8
73
4
74
0
42
0.000000001
43
0.0000000001
44
0.0000000001
40
0
40
0
40
0
40
0
40
1
40
1
40
1
40
1
41
1
41
1
41
1
41
1
10
53.627654120921946
20
-2.9682759254187907
30
0
10
52.991331527232987
20
-3.1280852922807778
30
0
10
49.261764682928579
20
-3.5180808672319497
30
0
10
48.092306834061787
20
-3.5469227760047328
30
0
0
SPLINE
5
108
100
AcDbEntity
8
0
100
AcDbSpline
70
4
71
3
72
8
73
4
74
0
42
0.000000001
43
0.0000000001
44
0.0000000001
40
0
40
0
40
0
40
0
40
1
40
1
40
1
40
1
41
1
41
1
41
1
41
1
10
19.276535031795355
20
-2.1298136998226802
30
0
10
21.173597047328798
20
-13.008421322605077
30
0
10
15.34615074555064
20
-19.289100214740699
30
0
10
2.1725443180400639
20
-20.564656238656305
30
0
0
SPLINE
5
109
100
AcDbEntity
8
0
100
AcDbSpline
70
4
71
3
72
8
73
4
74
0
42
0.000000001
43
0.0000000001
44
0.0000000001
40
0
40
0
40
0
40
0
40
1
40
1
40
1
40
1
41
1
41
1
41
1
41
1
10
2.1725443180400639
20
-20.564656238656305
30
0
10
0.3580313658712786
20
-20.740339959562881
30
0
10
-14.902600449721177
20
-20.630273196002904
30
0
10
-17.766451806227526
20
-20.420723244449558
30
0
0
LINE
5
110
100
AcDbEntity
8
0
100
AcDbLine
10
-17.766451806227529
20
-20.420723244449555
30
0
11
-19.58837709665314
21
-20.287638263802791
31
0
0
LINE
5
111
100
AcDbEntity
8
0
100
AcDbLine
10
-19.58837709665314
20
-20.287638263802791
30
0
11
-22.017250158786936
21
-18.668123099109593
31
0
0
SPLINE
5
112
100
AcDbEntity
8
0
100
AcDbSpline
70
4
71
3
72
8
73
4
74
0
42
0.000000001
43
0.0000000001
44
0.0000000001
40
0
40
0
40
0
40
0
40
1
40
1
40
1
40
1
41
1
41
1
41
1
41
1
10
-22.017250158786936
20
-18.668123099109593
30
0
10
-31.357837965488589
20
-12.440888942183118
30
0
10
-33.58086118936555
20
-8.8081609059384078
30
0
10
-31.840697704156398
20
-2.6161171882361778
30
0
0
SPLINE
5
113
100
AcDbEntity
8
0
100
AcDbSpline
70
4
71
3
72
8
73
4
74
0
42
0.000000001
43
0.0000000001
44
0.0000000001
40
0
40
0
40
0
40
0
40
1
40
1
40
1
40
1
41
1
41
1
41
1
41
1
10
-31.840697704156398
20
-2.6161171882361778
30
0
10
-29.312081053257142
20
6.3823645622521052
30
0
10
-21.160527581373998
20
10.399266500372626
30
0
10
-3.8866788570087696
20
11.158885831732492
30
0
0
SPLINE
5
114
100
AcDbEntity
8
0
100
AcDbSpline
70
4
71
3
72
8
73
4
74
0
42
0.000000001
43
0.0000000001
44
0.0000000001
40
0
40
0
40
0
40
0
40
1
40
1
40
1
40
1
41
1
41
1
41
1
41
1
10
-3.8866788570087696
20
11.158885831732492
30
0
10
10.951683836777857
20
11.811611655452792
30
0
10
17.50065021276459
20
8.0545291295637078
30
0
10
19.276535031795355
20
-2.1298136998226802
30
0
0
SPLINE
5
115
100
AcDbEntity
8
0
100
AcDbSpline
70
4
71
3
72
8
73
4
74
0
42
0.000000001
43
0.0000000001
44
0.0000000001
40
0
40
0
40
0
40
0
40
1
40
1
40
1
40
1
41
1
41
1
41
1
41
1
10
41.374800600210676
20
-6.5623758285254841
30
0
10
41.570327263672993
20
-7.9353015550981576
30
0
10
39.916945868333038
20
-17.141742591958309
30
0
10
38.771299550533143
20
-21.0591633606961
30
0
0
SPLINE
5
116
100
AcDbEntity
8
0
100
AcDbSpline
70
4
71
3
72
8
73
4
74
0
42
0.000000001
43
0.0000000001
44
0.0000000001
40
0
40
0
40
0
40
0
40
1
40
1
40
1
40
1
41
1
41
1
41
1
41
1
10
38.771299550533143
20
-21.0591633606961
30
0
10
34.501718026002102
20
-35.659929526747334
30
0
10
24.877501294612738
20
-41.871022873025211
30
0
10
9.1620442048707051
20
-40.166841627062425
30
0
0
SPLINE
5
117
100
AcDbEntity
8
0
100
AcDbSpline
70
4
71
3
72
8
73
4
74
0
42
0.000000001
43
0.0000000001
44
0.0000000001
40
0
40
0
40
0
40
0
40
1
40
1
40
1
40
1
41
1
41
1
41
1
41
1
10
9.1620442048707051
20
-40.166841627062425
30
0
10
6.9792317048707098
20
-39.930303860605825
30
0
10
3.232730735937599
20
-39.2466206241658
30
0
10
1.1446395214397143
20
-38.704224992693533
30
0
0
SPLINE
5
118
100
AcDbEntity
8
0
100
AcDbSpline
70
4
71
3
72
8
73
4
74
0
42
0.000000001
43
0.0000000001
44
0.0000000001
40
0
40
0
40
0
40
0
40
1
40
1
40
1
40
1
41
1
41
1
41
1
41
1
10
1.1446395214397143
20
-38.704224992693533
30
0
10
-7.9932757401467924
20
-36.3298539130897
30
0
10
-13.120635575453594
20
-32.851112561326289
30
0
10
-16.302781457106423
20
-26.866237843931778
30
0
0
SPLINE
5
119
100
AcDbEntity
8
0
100
AcDbSpline
70
4
71
3
72
8
73
4
74
0
42
0.000000001
43
0.0000000001
44
0.0000000001
40
0
40
0
40
0
40
0
40
1
40
1
40
1
40
1
41
1
41
1
41
1
41
1
10
-16.302781457106423
20
-26.866237843931778
30
0
10
-16.840943052768864
20
-25.8542053827654
30
0
10
-17.364021589756167
20
-25.937020902734066
30
0
10
-11.774432216485495
20
-26.149481690825091
30
0
0
SPLINE
5
120
100
AcDbEntity
8
0
100
AcDbSpline
70
4
71
3
72
8
73
4
74
0
42
0.000000001
43
0.0000000001
44
0.0000000001
40
0
40
0
40
0
40
0
40
1
40
1
40
1
40
1
41
1
41
1
41
1
41
1
10
-11.774432216485495
20
-26.149481690825091
30
0
10
6.064300471146753
20
-26.827607692183122
30
0
10
14.835502812862247
20
-24.807779833576149
30
0
10
20.375616039434917
20
-18.745910259983006
30
0
0
SPLINE
5
121
100
AcDbEntity
8
0
100
AcDbSpline
70
4
71
3
72
8
73
4
74
0
42
0.000000001
43
0.0000000001
44
0.0000000001
40
0
40
0
40
0
40
0
40
1
40
1
40
1
40
1
41
1
41
1
41
1
41
1
10
20.375616039434917
20
-18.745910259983006
30
0
10
27.895073888301702
20
-10.518428767622572
30
0
10
26.05992266098643
20
5.9838988970706275
30
0
10
16.906133045355325
20
12.451902837652904
30
0
0
SPLINE
5
122
100
AcDbEntity
8
0
100
AcDbSpline
70
4
71
3
72
8
73
4
74
0
42
0.000000001
43
0.0000000001
44
0.0000000001
40
0
40
0
40
0
40
0
40
1
40
1
40
1
40
1
41
1
41
1
41
1
41
1
10
16.906133045355325
20
12.451902837652904
30
0
10
12.420917476812852
20
15.621347621181547
30
0
10
7.9486654257772837
20
16.649518874385898
30
0
10
-1.2842375779153414
20
16.634435815710766
30
0
0
SPLINE
5
123
100
AcDbEntity
8
0
100
AcDbSpline
70
4
71
3
72
8
73
4
74
0
42
0.000000001
43
0.0000000001
44
0.0000000001
40
0
40
0
40
0
40
0
40
1
40
1
40
1
40
1
41
1
41
1
41
1
41
1
10
-1.2842375779153414
20
16.634435815710766
30
0
10
-10.9648078624409
20
16.618827918270178
30
0
10
-17.159504034519344
20
15.689608958461827
30
0
10
-23.615594135125626
20
13.284813883998936
30
0
0
LINE
5
124
100
AcDbEntity
8
0
100
AcDbLine
10
-23.615594135125626
20
13.284813883998936
30
0
11
-25.040377968947247
21
12.754056552150793
31
0
0
LINE
5
125
100
AcDbEntity
8
0
100
AcDbLine
10
-25.040377968947247
20
12.754056552150793
30
0
11
-25.12689562082306
21
13.311269794999498
31
0
0
SPLINE
5
126
100
AcDbEntity
8
0
100
AcDbSpline
70
4
71
3
72
8
73
4
74
0
42
0.000000001
43
0.0000000001
44
0.0000000001
40
0
40
0
40
0
40
0
40
1
40
1
40
1
40
1
41
1
41
1
41
1
41
1
10
-25.12689562082306
20
13.311269794999498
30
0
10
-25.24013967752472
20
14.038082666296701
30
0
10
-25.852384283542786
20
20.824381132025465
30
0
10
-26.084952452182932
20
23.931115757523919
30
0
0
SPLINE
5
127
100
AcDbEntity
8
0
100
AcDbSpline
70
4
71
3
72
8
73
4
74
0
42
0.000000001
43
0.0000000001
44
0.0000000001
40
0
40
0
40
0
40
0
40
1
40
1
40
1
40
1
41
1
41
1
41
1
41
1
10
-26.084952452182932
20
23.931115757523919
30
0
10
-26.184970571994945
20
25.266999978918776
30
0
10
-26.345304777622385
20
27.405887511470858
30
0
10
-26.440817358493955
20
28.683829533158686
30
0
0
SPLINE
5
128
100
AcDbEntity
8
0
100
AcDbSpline
70
4
71
3
72
8
73
4
74
0
42
0.000000001
43
0.0000000001
44
0.0000000001
40
0
40
0
40
0
40
0
40
1
40
1
40
1
40
1
41
1
41
1
41
1
41
1
10
-26.440817358493955
20
28.683829533158686
30
0
10
-26.666247719923817
20
31.693464949825348
30
0
10
-26.665714806715801
20
41.759533344804197
30
0
10
-26.440026063124495
20
43.933617372412428
30
0
0
SPLINE
5
129
100
AcDbEntity
8
0
100
AcDbSpline
70
4
71
3
72
8
73
4
74
0
42
0.000000001
43
0.0000000001
44
0.0000000001
40
0
40
0
40
0
40
0
40
1
40
1
40
1
40
1
41
1
41
1
41
1
41
1
10
-26.440026063124495
20
43.933617372412428
30
0
10
-25.855557539463199
20
49.565799430110999
30
0
10
-24.754098608493962
20
55.055903596777668
30
0
10
-22.969218860467429
20
61.23313474963004
30
0
0
SPLINE
5
130
100
AcDbEntity
8
0
100
AcDbSpline
70
4
71
3
72
8
73
4
74
0
42
0.000000001
43
0.0000000001
44
0.0000000001
40
0
40
0
40
0
40
0
40
1
40
1
40
1
40
1
41
1
41
1
41
1
41
1
10
-22.969218860467429
20
61.23313474963004
30
0
10
-22.547208120823061
20
62.693631842830726
30
0
10
-22.426826256911117
20
63.585276384253255
30
0
10
-22.208275320530095
20
66.871671393611962
30
0
0
SPLINE
5
131
100
AcDbEntity
8
0
100
AcDbSpline
70
4
71
3
72
8
73
4
74
0
42
0.000000001
43
0.0000000001
44
0.0000000001
40
0
40
0
40
0
40
0
40
1
40
1
40
1
40
1
41
1
41
1
41
1
41
1
10
-22.208275320530095
20
66.871671393611962
30
0
10
-21.514809896946101
20
77.293871151505854
30
0
10
-19.548424754937646
20
79.810319617488943
30
0
10
-12.127915162245593
20
79.773282149532392
30
0
0
SPLINE
5
132
100
AcDbEntity
8
0
100
AcDbSpline
70
4
71
3
72
8
73
4
74
0
42
0.000000001
43
0.0000000001
44
0.0000000001
40
0
40
0
40
0
40
0
40
1
40
1
40
1
40
1
41
1
41
1
41
1
41
1
10
-12.127915162245593
20
79.773282149532392
30
0
10
-3.1836775167784648
20
79.728832343319013
30
0
10
-1.451451208591612
20
77.293079856136387
30
0
10
-2.099150691827294
20
65.671252094804203
30
0
0
LINE
5
133
100
AcDbEntity
8
0
100
AcDbLine
10
-2.0991506918272949
20
65.671252094804203
30
0
11
-2.2385882401467949
21
63.169620230892249
31
0
0
LINE
5
134
100
AcDbEntity
8
0
100
AcDbLine
10
-2.2385882401467949
20
63.169620230892249
30
0
11
-3.4530247712136841
21
62.942340822119469
31
0
0
SPLINE
5
135
100
AcDbEntity
8
0
100
AcDbSpline
70
4
71
3
72
8
73
4
74
0
42
0.000000001
43
0.0000000001
44
0.0000000001
40
0
40
0
40
0
40
0
40
1
40
1
40
1
40
1
41
1
41
1
41
1
41
1
10
-3.4530247712136841
20
62.942340822119469
30
0
10
-7.2889582657815577
20
62.224264497656577
30
0
10
-12.064151289463201
20
60.770113916296715
30
0
10
-15.077226418654277
20
59.402747443416658
30
0
0
SPLINE
5
136
100
AcDbEntity
8
0
100
AcDbSpline
70
4
71
3
72
8
73
4
74
0
42
0.000000001
43
0.0000000001
44
0.0000000001
40
0
40
0
40
0
40
0
40
1
40
1
40
1
40
1
41
1
41
1
41
1
41
1
10
-15.077226418654277
20
59.402747443416658
30
0
10
-16.130537448724258
20
58.924643551408202
30
0
10
-15.784458766778471
20
58.760603176652339
30
0
10
-14.314700287978006
20
59.041327320634274
30
0
0
SPLINE
5
137
100
AcDbEntity
8
0
100
AcDbSpline
70
4
71
3
72
8
73
4
74
0
42
0.000000001
43
0.0000000001
44
0.0000000001
40
0
40
0
40
0
40
0
40
1
40
1
40
1
40
1
41
1
41
1
41
1
41
1
10
-14.314700287978006
20
59.041327320634274
30
0
10
-11.524407103061831
20
59.574192081986808
30
0
10
-7.6585739477476977
20
59.446405954260584
30
0
10
-4.4073754334451287
20
58.713771409888018
30
0
0
SPLINE
5
138
100
AcDbEntity
8
0
100
AcDbSpline
70
4
71
3
72
8
73
4
74
0
42
0.000000001
43
0.0000000001
44
0.0000000001
40
0
40
0
40
0
40
0
40
1
40
1
40
1
40
1
41
1
41
1
41
1
41
1
10
-4.4073754334451287
20
58.713771409888018
30
0
10
-0.43174600839630095
20
57.818154242733058
30
0
10
-0.74845794280385292
20
57.848845198848799
30
0
10
2.595612809657899
20
58.036172265906089
30
0
0
SPLINE
5
139
100
AcDbEntity
8
0
100
AcDbSpline
70
4
71
3
72
8
73
4
74
0
42
0.000000001
43
0.0000000001
44
0.0000000001
40
0
40
0
40
0
40
0
40
1
40
1
40
1
40
1
41
1
41
1
41
1
41
1
10
2.595612809657899
20
58.036172265906089
30
0
10
4.3262524898845456
20
58.133275511959148
30
0
10
7.5769261654216535
20
58.198097136714999
30
0
10
9.8195339496928913
20
58.180373735327464
30
0
0
SPLINE
5
140
100
AcDbEntity
8
0
100
AcDbSpline
70
4
71
3
72
8
73
4
74
0
42
0.000000001
43
0.0000000001
44
0.0000000001
40
0
40
0
40
0
40
0
40
1
40
1
40
1
40
1
41
1
41
1
41
1
41
1
10
9.8195339496928913
20
58.180373735327464
30
0
10
14.643944737911072
20
58.142536897558927
30
0
10
14.943454072475282
20
58.217677659888025
30
0
10
15.607027909755553
20
59.635315612056807
30
0
0
SPLINE
5
141
100
AcDbEntity
8
0
100
AcDbSpline
70
4
71
3
72
8
73
4
74
0
42
0.000000001
43
0.0000000001
44
0.0000000001
40
0
40
0
40
0
40
0
40
1
40
1
40
1
40
1
41
1
41
1
41
1
41
1
10
15.607027909755553
20
59.635315612056807
30
0
10
15.886956721146754
20
60.233534911373212
30
0
10
15.898071191310734
20
60.524311736324385
30
0
10
15.727942686875513
20
62.844971119462407
30
0
0
SPLINE
5
142
100
AcDbEntity
8
0
100
AcDbSpline
70
4
71
3
72
8
73
4
74
0
42
0.000000001
43
0.0000000001
44
0.0000000001
40
0
40
0
40
0
40
0
40
1
40
1
40
1
40
1
41
1
41
1
41
1
41
1
10
15.727942686875513
20
62.844971119462407
30
0
10
15.245078910986436
20
69.434685169755369
30
0
10
15.704131155808616
20
75.38542820920442
30
0
10
16.877557593186545
20
77.746306390661942
30
0
0
SPLINE
5
143
100
AcDbEntity
8
0
100
AcDbSpline
70
4
71
3
72
8
73
4
74
0
42
0.000000001
43
0.0000000001
44
0.0000000001
40
0
40
0
40
0
40
0
40
1
40
1
40
1
40
1
41
1
41
1
41
1
41
1
10
16.877557593186545
20
77.746306390661942
30
0
10
19.717330962021997
20
83.459983796972978
30
0
10
29.87044992208466
20
85.952095893123698
30
0
10
36.539804217815252
20
82.572311881282872
30
0
0
SPLINE
5
144
100
AcDbEntity
8
0
100
AcDbSpline
70
4
71
3
72
8
73
4
74
0
42
0.000000001
43
0.0000000001
44
0.0000000001
40
0
40
0
40
0
40
0
40
1
40
1
40
1
40
1
41
1
41
1
41
1
41
1
10
36.539804217815252
20
82.572311881282872
30
0
10
37.80027920166637
20
81.933607327042978
30
0
10
39.834394786357734
20
79.671414982377442
30
0
10
39.834394786357734
20
78.908355938493159
30
0
0
SPLINE
5
145
100
AcDbEntity
8
0
100
AcDbSpline
70
4
71
3
72
8
73
4
74
0
42
0.000000001
43
0.0000000001
44
0.0000000001
40
0
40
0
40
0
40
0
40
1
40
1
40
1
40
1
41
1
41
1
41
1
41
1
10
39.834394786357734
20
78.908355938493159
30
0
10
39.834394786357734
20
78.839828144608902
30
0
10
39.948165700435496
20
78.658064368465489
30
0
10
40.08707235415762
20
78.504601513444342
30
0
0
SPLINE
5
146
100
AcDbEntity
8
0
100
AcDbSpline
70
4
71
3
72
8
73
4
74
0
42
0.000000001
43
0.0000000001
44
0.0000000001
40
0
40
0
40
0
40
0
40
1
40
1
40
1
40
1
41
1
41
1
41
1
41
1
10
40.08707235415762
20
78.504601513444342
30
0
10
41.100955881277571
20
77.384361429114094
30
0
10
41.913755509853218
20
68.02128629992302
30
0
10
41.586730493704337
20
61.23313474963004
30
0
0
SPLINE
5
147
100
AcDbEntity
8
0
100
AcDbSpline
70
4
71
3
72
8
73
4
74
0
42
0.000000001
43
0.0000000001
44
0.0000000001
40
0
40
0
40
0
40
0
40
1
40
1
40
1
40
1
41
1
41
1
41
1
41
1
10
41.586730493704337
20
61.23313474963004
30
0
10
41.512911921342067
20
59.706225366492021
30
0
10
41.515029443899643
20
56.739449090857264
30
0
10
41.590963520208852
20
54.640247443416655
30
0
0
SPLINE
5
148
100
AcDbEntity
8
0
100
AcDbSpline
70
4
71
3
72
8
73
4
74
0
42
0.000000001
43
0.0000000001
44
0.0000000001
40
0
40
0
40
0
40
0
40
1
40
1
40
1
40
1
41
1
41
1
41
1
41
1
10
41.590963520208852
20
54.640247443416655
30
0
10
42.644799389044294
20
25.498243938981435
30
0
10
42.620987857977397
20
3.4801474919904685
30
0
10
41.526670771439726
20
-4.7825264582048455
30
0
0
SPLINE
5
149
100
AcDbEntity
8
0
100
AcDbSpline
70
4
71
3
72
8
73
4
74
0
42
0.000000001
43
0.0000000001
44
0.0000000001
40
0
40
0
40
0
40
0
40
1
40
1
40
1
40
1
41
1
41
1
41
1
41
1
10
41.526670771439726
20
-4.7825264582048455
30
0
10
41.419250406424055
20
-5.5937374402096474
30
0
10
41.350987050533149
20
-6.3946292846412067
30
0
10
41.374800600210676
20
-6.5623758285254841
30
0
0
SPLINE
5
150
100
AcDbEntity
8
0
100
AcDbSpline
70
4
71
3
72
8
73
4
74
0
42
0.000000001
43
0.0000000001
44
0.0000000001
40
0
40
0
40
0
40
0
40
1
40
1
40
1
40
1
41
1
41
1
41
1
41
1
10
2.39003346522634
20
-44.765035300355223
30
0
10
7.3343012785910044
20
-45.755106192480596
30
0
10
13.018611937363795
20
-46.192462441723606
30
0
10
17.193207738399359
20
-45.904066599558853
30
0
0
SPLINE
5
151
100
AcDbEntity
8
0
100
AcDbSpline
70
4
71
3
72
8
73
4
74
0
42
0.000000001
43
0.0000000001
44
0.0000000001
40
0
40
0
40
0
40
0
40
1
40
1
40
1
40
1
41
1
41
1
41
1
41
1
10
17.193207738399359
20
-45.904066599558853
30
0
10
20.264487486680203
20
-45.691606189957326
30
0
10
24.50946416616425
20
-44.838854125043817
30
0
10
26.195125164190777
20
-44.095639537673257
30
0
0
SPLINE
5
152
100
AcDbEntity
8
0
100
AcDbSpline
70
4
71
3
72
8
73
4
74
0
42
0.000000001
43
0.0000000001
44
0.0000000001
40
0
40
0
40
0
40
0
40
1
40
1
40
1
40
1
41
1
41
1
41
1
41
1
10
26.195125164190777
20
-44.095639537673257
30
0
10
26.492252538204042
20
-43.964670817952424
30
0
10
27.086769705613307
20
-43.726016538243556
30
0
10
27.516188746293231
20
-43.565414614380472
30
0
0
SPLINE
5
153
100
AcDbEntity
8
0
100
AcDbSpline
70
4
71
3
72
8
73
4
74
0
42
0.000000001
43
0.0000000001
44
0.0000000001
40
0
40
0
40
0
40
0
40
1
40
1
40
1
40
1
41
1
41
1
41
1
41
1
10
27.516188746293231
20
-43.565414614380472
30
0
10
30.695952667395126
20
-42.375318742693523
30
0
10
35.801352037588607
20
-38.553941449424691
30
0
10
37.317679863770657
20
-36.229047525824171
30
0
0
SPLINE
5
154
100
AcDbEntity
8
0
100
AcDbSpline
70
4
71
3
72
8
73
4
74
0
42
0.000000001
43
0.0000000001
44
0.0000000001
40
0
40
0
40
0
40
0
40
1
40
1
40
1
40
1
41
1
41
1
41
1
41
1
10
40.479449889659733
20
-31.761558386585182
30
0
10
40.919188067912913
20
-31.037129494449562
30
0
10
41.781728281179923
20
-29.288233499627374
30
0
10
42.448214973608515
20
-27.771112359465224
30
0
0
SPLINE
5
155
100
AcDbEntity
8
0
100
AcDbSpline
70
4
71
3
72
8
73
4
74
0
42
0.000000001
43
0.0000000001
44
0.0000000001
40
0
40
0
40
0
40
0
40
1
40
1
40
1
40
1
41
1
41
1
41
1
41
1
10
42.448214973608515
20
-27.771112359465224
30
0
10
43.81108398199067
20
-24.667548971276545
30
0
10
45.165484918753158
20
-19.752649924060766
30
0
10
45.985957286357731
20
-14.932205705743096
30
0
0
SPLINE
5
156
100
AcDbEntity
8
0
100
AcDbSpline
70
4
71
3
72
8
73
4
74
0
42
0.000000001
43
0.0000000001
44
0.0000000001
40
0
40
0
40
0
40
0
40
1
40
1
40
1
40
1
41
1
41
1
41
1
41
1
10
45.985957286357731
20
-14.932205705743096
30
0
10
46.034642137686262
20
-14.64592634528981
30
0
10
46.148677489757389
20
-14.021245079140922
30
0
10
46.239163730144355
20
-13.544202976327204
30
0
0
SPLINE
5
157
100
AcDbEntity
8
0
100
AcDbSpline
70
4
71
3
72
8
73
4
74
0
42
0.000000001
43
0.0000000001
44
0.0000000001
40
0
40
0
40
0
40
0
40
1
40
1
40
1
40
1
41
1
41
1
41
1
41
1
10
46.239163730144355
20
-13.544202976327204
30
0
10
46.545816927750757
20
-11.927596629561048
30
0
10
46.774416507879749
20
-10.383226264418228
30
0
10
46.774416507879749
20
-9.9276137321204558
30
0
0
SPLINE
5
158
100
AcDbEntity
8
0
100
AcDbSpline
70
4
71
3
72
8
73
4
74
0
42
0.000000001
43
0.0000000001
44
0.0000000001
40
0
40
0
40
0
40
0
40
1
40
1
40
1
40
1
41
1
41
1
41
1
41
1
10
46.774416507879749
20
-9.9276137321204558
30
0
10
46.774416507879749
20
-9.3862748433163379
30
0
10
46.879985806941846
20
-9.355846306583345
30
0
10
49.290075697103994
20
-9.2050359059384093
30
0
0
SPLINE
5
159
100
AcDbEntity
8
0
100
AcDbSpline
70
4
71
3
72
8
73
4
74
0
42
0.000000001
43
0.0000000001
44
0.0000000001
40
0
40
0
40
0
40
0
40
1
40
1
40
1
40
1
41
1
41
1
41
1
41
1
10
67.529920669247559
20
42.928995230892255
30
0
10
67.502933169752211
20
43.358410234350906
30
0
10
67.466156102567766
20
44.334456923702312
30
0
10
67.448164415210343
20
45.097782424190584
30
0
0
SPLINE
5
160
100
AcDbEntity
8
0
100
AcDbSpline
70
4
71
3
72
8
73
4
74
0
42
0.000000001
43
0.0000000001
44
0.0000000001
40
0
40
0
40
0
40
0
40
1
40
1
40
1
40
1
41
1
41
1
41
1
41
1
10
65.271437300840873
20
54.179608570634272
30
0
10
65.139145634174199
20
54.433073396582344
30
0
10
64.942295771439717
20
54.835245230892241
30
0
10
64.834345773458338
20
55.073901529211753
30
0
0
SPLINE
5
161
100
AcDbEntity
8
0
100
AcDbSpline
70
4
71
3
72
8
73
4
74
0
42
0.000000001
43
0.0000000001
44
0.0000000001
40
0
40
0
40
0
40
0
40
1
40
1
40
1
40
1
41
1
41
1
41
1
41
1
10
64.834345773458338
20
55.073901529211753
30
0
10
64.726131085157249
20
55.312549753088703
30
0
10
64.449377043644446
20
55.820020392635413
30
0
10
64.219454011916966
20
56.201553951798822
30
0
0
SPLINE
5
162
100
AcDbEntity
8
0
100
AcDbSpline
70
4
71
3
72
8
73
4
74
0
42
0.000000001
43
0.0000000001
44
0.0000000001
40
0
40
0
40
0
40
0
40
1
40
1
40
1
40
1
41
1
41
1
41
1
41
1
10
64.219454011916966
20
56.201553951798822
30
0
10
63.989266542196134
20
56.583345893123692
30
0
10
63.674412486553045
20
57.114361607133297
30
0
10
63.519630974133669
20
57.381859814225592
30
0
0
SPLINE
5
163
100
AcDbEntity
8
0
100
AcDbSpline
70
4
71
3
72
8
73
4
74
0
42
0.000000001
43
0.0000000001
44
0.0000000001
40
0
40
0
40
0
40
0
40
1
40
1
40
1
40
1
41
1
41
1
41
1
41
1
10
56.663747467199812
20
61.556718034643879
30
0
10
55.014864545663052
20
61.875545472998361
30
0
10
49.627417832215485
20
61.950419778723465
30
0
10
48.422771562735093
20
61.671286299923018
30
0
0
SPLINE
5
164
100
AcDbEntity
8
0
100
AcDbSpline
70
4
71
3
72
8
73
4
74
0
42
0.000000001
43
0.0000000001
44
0.0000000001
40
0
40
0
40
0
40
0
40
1
40
1
40
1
40
1
41
1
41
1
41
1
41
1
10
48.422771562735093
20
61.671286299923018
30
0
10
47.453337841828528
20
61.446388851701172
30
0
10
47.489850471019601
20
61.287370780208654
30
0
10
47.389836388428854
20
66.18057985613639
30
0
0
SPLINE
5
165
100
AcDbEntity
8
0
100
AcDbSpline
70
4
71
3
72
8
73
4
74
0
42
0.000000001
43
0.0000000001
44
0.0000000001
40
0
40
0
40
0
40
0
40
1
40
1
40
1
40
1
41
1
41
1
41
1
41
1
10
47.389836388428854
20
66.18057985613639
30
0
10
47.340095803737498
20
68.612359717586585
30
0
10
47.258075616359569
20
70.992293583451669
30
0
10
47.207539699077458
20
71.469331649044108
30
0
0
SPLINE
5
166
100
AcDbEntity
8
0
100
AcDbSpline
70
4
71
3
72
8
73
4
74
0
42
0.000000001
43
0.0000000001
44
0.0000000001
40
0
40
0
40
0
40
0
40
1
40
1
40
1
40
1
41
1
41
1
41
1
41
1
10
47.207539699077458
20
71.469331649044108
30
0
10
47.157003781795353
20
71.946644245683103
30
0
10
47.085302731990666
20
72.6491126727054
30
0
10
47.04852566480622
20
73.030904614030277
30
0
0
SPLINE
5
167
100
AcDbEntity
8
0
100
AcDbSpline
70
4
71
3
72
8
73
4
74
0
42
0.000000001
43
0.0000000001
44
0.0000000001
40
0
40
0
40
0
40
0
40
1
40
1
40
1
40
1
41
1
41
1
41
1
41
1
10
47.04852566480622
20
73.030904614030277
30
0
10
46.855378943284208
20
75.020309991736156
30
0
10
46.483375244935203
20
77.451565014420893
30
0
10
46.265092783768829
20
78.149003063737297
30
0
0
SPLINE
5
168
100
AcDbEntity
8
0
100
AcDbSpline
70
4
71
3
72
8
73
4
74
0
42
0.000000001
43
0.0000000001
44
0.0000000001
40
0
40
0
40
0
40
0
40
1
40
1
40
1
40
1
41
1
41
1
41
1
41
1
10
46.265092783768829
20
78.149003063737297
30
0
10
46.190480897426468
20
78.387659362056809
30
0
10
45.983577344417427
20
79.051233199337076
30
0
10
45.805247224966543
20
79.623791920243647
30
0
0
SPLINE
5
169
100
AcDbEntity
8
0
100
AcDbSpline
70
4
71
3
72
8
73
4
74
0
42
0.000000001
43
0.0000000001
44
0.0000000001
40
0
40
0
40
0
40
0
40
1
40
1
40
1
40
1
41
1
41
1
41
1
41
1
10
45.805247224966543
20
79.623791920243647
30
0
10
45.113626811504218
20
81.84444125801221
30
0
10
43.268422903219715
20
84.63102827379997
30
0
10
41.611601795355341
20
85.956326901017576
30
0
0
SPLINE
5
170
100
AcDbEntity
8
0
100
AcDbSpline
70
4
71
3
72
8
73
4
74
0
42
0.000000001
43
0.0000000001
44
0.0000000001
40
0
40
0
40
0
40
0
40
1
40
1
40
1
40
1
41
1
41
1
41
1
41
1
10
41.611601795355341
20
85.956326901017576
30
0
10
41.194088520208851
20
86.290495780208659
30
0
10
40.68185597817088
20
86.726265369950681
30
0
10
40.47362821658438
20
86.925235783158698
30
0
0
SPLINE
5
171
100
AcDbEntity
8
0
100
AcDbSpline
70
4
71
3
72
8
73
4
74
0
42
0.000000001
43
0.0000000001
44
0.0000000001
40
0
40
0
40
0
40
0
40
1
40
1
40
1
40
1
41
1
41
1
41
1
41
1
10
40.47362821658438
20
86.925235783158698
30
0
10
36.39640009959524
20
90.81539723386264
30
0
10
24.264990231990666
20
90.712222007015299
30
0
10
17.992775374253441
20
86.733677708207523
30
0
0
SPLINE
5
172
100
AcDbEntity
8
0
100
AcDbSpline
70
4
71
3
72
8
73
4
74
0
42
0.000000001
43
0.0000000001
44
0.0000000001
40
0
40
0
40
0
40
0
40
1
40
1
40
1
40
1
41
1
41
1
41
1
41
1
10
17.992775374253441
20
86.733677708207523
30
0
10
16.507142541408388
20
85.791228774288243
30
0
10
15.999143025874938
20
85.385358845292473
30
0
10
14.770947644710395
20
84.159012511470877
30
0
0
SPLINE
5
173
100
AcDbEntity
8
0
100
AcDbSpline
70
4
71
3
72
8
73
4
74
0
42
0.000000001
43
0.0000000001
44
0.0000000001
40
0
40
0
40
0
40
0
40
1
40
1
40
1
40
1
41
1
41
1
41
1
41
1
10
14.770947644710395
20
84.159012511470877
30
0
10
13.182385855515646
20
82.573103176652353
30
0
10
12.294709902604266
20
81.308920005062163
30
0
10
11.628754104773051
20
79.685965127844568
30
0
0
SPLINE
5
174
100
AcDbEntity
8
0
100
AcDbSpline
70
4
71
3
72
8
73
4
74
0
42
0.000000001
43
0.0000000001
44
0.0000000001
40
0
40
0
40
0
40
0
40
1
40
1
40
1
40
1
41
1
41
1
41
1
41
1
10
11.628754104773051
20
79.685965127844568
30
0
10
11.379782706101587
20
79.079275738297838
30
0
10
11.114137583573509
20
78.461475915808435
30
0
10
11.038205525874938
20
78.313043438493168
30
0
0
SPLINE
5
175
100
AcDbEntity
8
0
100
AcDbSpline
70
4
71
3
72
8
73
4
74
0
42
0.000000001
43
0.0000000001
44
0.0000000001
40
0
40
0
40
0
40
0
40
1
40
1
40
1
40
1
41
1
41
1
41
1
41
1
10
11.038205525874938
20
78.313043438493168
30
0
10
10.278057318528342
20
76.829259652991055
30
0
10
9.8425501481690514
20
72.198260024288246
30
0
10
9.9930981294312549
20
67.198161477942207
30
0
0
SPLINE
5
176
100
AcDbEntity
8
0
100
AcDbSpline
70
4
71
3
72
8
73
4
74
0
42
0.000000001
43
0.0000000001
44
0.0000000001
40
0
40
0
40
0
40
0
40
1
40
1
40
1
40
1
41
1
41
1
41
1
41
1
10
9.9930981294312549
20
67.198161477942207
30
0
10
10.040725228786318
20
65.612518599727707
30
0
10
10.054217622279973
20
64.185885718563156
30
0
10
10.022997790177515
20
64.028191855648103
30
0
0
SPLINE
5
177
100
AcDbEntity
8
0
100
AcDbSpline
70
4
71
3
72
8
73
4
74
0
42
0.000000001
43
0.0000000001
44
0.0000000001
40
0
40
0
40
0
40
0
40
1
40
1
40
1
40
1
41
1
41
1
41
1
41
1
10
10.022997790177515
20
64.028191855648103
30
0
10
9.9721974349020392
20
63.771545699337082
30
0
10
9.6242697056133064
20
63.74614350308871
30
0
10
6.7265541370708259
20
63.788477805355143
30
0
0
LINE
5
178
100
AcDbEntity
8
0
100
AcDbLine
10
6.7265541370708259
20
63.78847780535515
30
0
11
3.4867325123149673
21
63.835576028723466
31
0
0
LINE
5
179
100
AcDbEntity
8
0
100
AcDbLine
10
3.4867325123149673
20
63.835576028723466
30
0
11
3.5735125835735104
21
66.177664982377436
31
0
0
SPLINE
5
180
100
AcDbEntity
8
0
100
AcDbSpline
70
4
71
3
72
8
73
4
74
0
42
0.000000001
43
0.0000000001
44
0.0000000001
40
0
40
0
40
0
40
0
40
1
40
1
40
1
40
1
41
1
41
1
41
1
41
1
10
3.5735125835735104
20
66.177664982377436
30
0
10
4.0656377450623626
20
79.460276384253262
30
0
10
1.3872603710490949
20
83.762936881282869
30
0
10
-8.2464821839334146
20
85.167074365515475
30
0
0
SPLINE
5
181
100
AcDbEntity
8
0
100
AcDbSpline
70
4
71
3
72
8
73
4
74
0
42
0.000000001
43
0.0000000001
44
0.0000000001
40
0
40
0
40
0
40
0
40
1
40
1
40
1
40
1
41
1
41
1
41
1
41
1
10
-8.2464821839334146
20
85.167074365515475
30
0
10
-21.624347784519351
20
87.117060314713868
30
0
10
-27.803686366876121
20
80.885326674678879
30
0
10
-27.831736980279445
20
65.415138851701172
30
0
0
SPLINE
5
182
100
AcDbEntity
8
0
100
AcDbSpline
70
4
71
3
72
8
73
4
74
0
42
0.000000001
43
0.0000000001
44
0.0000000001
40
0
40
0
40
0
40
0
40
1
40
1
40
1
40
1
41
1
41
1
41
1
41
1
10
-27.831736980279445
20
65.415138851701172
30
0
10
-27.833053114414366
20
64.679064594804188
30
0
10
-27.971699367364398
20
63.742970247168302
30
0
10
-28.175958540439758
20
63.091298138200202
30
0
0
SPLINE
5
183
100
AcDbEntity
8
0
100
AcDbSpline
70
4
71
3
72
8
73
4
74
0
42
0.000000001
43
0.0000000001
44
0.0000000001
40
0
40
0
40
0
40
0
40
1
40
1
40
1
40
1
41
1
41
1
41
1
41
1
10
-28.175958540439758
20
63.091298138200202
30
0
10
-28.821009606520498
20
61.033905954260575
30
0
10
-30.520695911248676
20
54.175635944901842
30
0
10
-30.936884977817698
20
51.951022055843424
30
0
0
SPLINE
5
184
100
AcDbEntity
8
0
100
AcDbSpline
70
4
71
3
72
8
73
4
74
0
42
0.000000001
43
0.0000000001
44
0.0000000001
40
0
40
0
40
0
40
0
40
1
40
1
40
1
40
1
41
1
41
1
41
1
41
1
10
-30.936884977817698
20
51.951022055843424
30
0
10
-32.066652904351699
20
45.912703612545087
30
0
10
-32.512208718458965
20
36.21122052182649
30
0
10
-31.992045055230616
20
28.968518228430497
30
0
0
SPLINE
5
185
100
AcDbEntity
8
0
100
AcDbSpline
70
4
71
3
72
8
73
4
74
0
42
0.000000001
43
0.0000000001
44
0.0000000001
40
0
40
0
40
0
40
0
40
1
40
1
40
1
40
1
41
1
41
1
41
1
41
1
10
-31.992045055230616
20
28.968518228430497
30
0
10
-31.89573310454703
20
27.629194294511219
30
0
10
-31.73645665089305
20
25.362512559790353
30
0
10
-31.637762739658513
20
23.931115757523919
30
0
0
SPLINE
5
186
100
AcDbEntity
8
0
100
AcDbSpline
70
4
71
3
72
8
73
4
74
0
42
0.000000001
43
0.0000000001
44
0.0000000001
40
0
40
0
40
0
40
0
40
1
40
1
40
1
40
1
41
1
41
1
41
1
41
1
10
-31.637762739658513
20
23.931115757523919
30
0
10
-31.406785236199859
20
20.582285121181549
30
0
10
-30.819409913222149
20
14.061098864772861
30
0
10
-30.601125433445127
20
12.424389174678865
30
0
0
SPLINE
5
187
100
AcDbEntity
8
0
100
AcDbSpline
70
4
71
3
72
8
73
4
74
0
42
0.000000001
43
0.0000000001
44
0.0000000001
40
0
40
0
40
0
40
0
40
1
40
1
40
1
40
1
41
1
41
1
41
1
41
1
10
-30.601125433445127
20
12.424389174678865
30
0
10
-30.242878566583151
20
9.7367504150658224
30
0
10
-30.246318279107562
20
9.7256359449018426
30
0
10
-31.905260946750804
20
8.0132525792707376
30
0
0
SPLINE
5
188
100
AcDbEntity
8
0
100
AcDbSpline
70
4
71
3
72
8
73
4
74
0
42
0.000000001
43
0.0000000001
44
0.0000000001
40
0
40
0
40
0
40
0
40
1
40
1
40
1
40
1
41
1
41
1
41
1
41
1
10
-31.905260946750804
20
8.0132525792707376
30
0
10
-39.956263385613923
20
-0.29757330904510049
30
0
10
-39.841703194777324
20
-11.189673325321138
30
0
10
-31.627185219923817
20
-18.450371532540583
30
0
0
SPLINE
5
189
100
AcDbEntity
8
0
100
AcDbSpline
70
4
71
3
72
8
73
4
74
0
42
0.000000001
43
0.0000000001
44
0.0000000001
40
0
40
0
40
0
40
0
40
1
40
1
40
1
40
1
41
1
41
1
41
1
41
1
10
-31.627185219923817
20
-18.450371532540583
30
0
10
-29.807108976841121
20
-20.058772227069799
30
0
10
-28.937160462538554
20
-20.707795918882947
30
0
10
-25.270305794874979
20
-23.191175505420631
30
0
0
SPLINE
5
190
100
AcDbEntity
8
0
100
AcDbSpline
70
4
71
3
72
8
73
4
74
0
42
0.000000001
43
0.0000000001
44
0.0000000001
40
0
40
0
40
0
40
0
40
1
40
1
40
1
40
1
41
1
41
1
41
1
41
1
10
-25.270305794874979
20
-23.191175505420631
30
0
10
-24.2921355271341
20
-23.853691590727433
30
0
10
-23.492039015293269
20
-24.496364733478487
30
0
10
-23.492039015293269
20
-24.619395014545383
30
0
0
SPLINE
5
191
100
AcDbEntity
8
0
100
AcDbSpline
70
4
71
3
72
8
73
4
74
0
42
0.000000001
43
0.0000000001
44
0.0000000001
40
0
40
0
40
0
40
0
40
1
40
1
40
1
40
1
41
1
41
1
41
1
41
1
10
-23.492039015293269
20
-24.619395014545383
30
0
10
-23.492039015293269
20
-24.742427314222915
30
0
10
-23.344930746555477
20
-25.150679203769627
30
0
10
-23.165274399916491
20
-25.526387052636409
30
0
0
SPLINE
5
192
100
AcDbEntity
8
0
100
AcDbSpline
70
4
71
3
72
8
73
4
74
0
42
0.000000001
43
0.0000000001
44
0.0000000001
40
0
40
0
40
0
40
0
40
1
40
1
40
1
40
1
41
1
41
1
41
1
41
1
10
-23.165274399916491
20
-25.526387052636409
30
0
10
-22.985626127720042
20
-25.902094901503187
30
0
10
-22.596954761346328
20
-26.717012052636409
30
0
10
-22.301414015293268
20
-27.337195854287408
30
0
0
SPLINE
5
193
100
AcDbEntity
8
0
100
AcDbSpline
70
4
71
3
72
8
73
4
74
0
42
0.000000001
43
0.0000000001
44
0.0000000001
40
0
40
0
40
0
40
0
40
1
40
1
40
1
40
1
41
1
41
1
41
1
41
1
10
-22.301414015293268
20
-27.337195854287408
30
0
10
-18.693817681471661
20
-34.912216970226233
30
0
10
-14.212833120823056
20
-39.06220641225682
30
0
10
-6.2290342672667443
20
-42.222653995852738
30
0
0
SPLINE
5
194
100
AcDbEntity
8
0
100
AcDbSpline
70
4
71
3
72
8
73
4
74
0
42
0.000000001
43
0.0000000001
44
0.0000000001
40
0
40
0
40
0
40
0
40
1
40
1
40
1
40
1
41
1
41
1
41
1
41
1
10
-6.2290342672667443
20
-42.222653995852738
30
0
10
-3.9255734467507963
20
-43.134408188761341
30
0
10
-0.063446460565081964
20
-44.273704083662295
30
0
10
2.39003346522634
20
-44.765035300355223
30
0
0
LINE
5
195
100
AcDbEntity
8
0
100
AcDbLine
10
-19.923962190026316
20
-21.26578933460079
30
0
11
-22.580747742809272
21
-19.494307674138369
31
0
0
SPLINE
5
196
100
AcDbEntity
8
0
100
AcDbSpline
70
0
71
3
72
14
73
10
74
0
42
0.000000001
43
0.0000000001
44
0.0000000001
40
0.00031069265518807616
40
0.00031069265518807616
40
0.00031069265518807616
40
0.00031069265518807616
40
0.48632251220299144
40
0.48632251220299144
40
0.48632251220299144
40
0.85835496999160366
40
0.85835496999160366
40
0.85835496999160366
40
0.9999987487806532
40
0.9999987487806532
40
0.9999987487806532
40
0.9999987487806532
10
-22.580747742809258
20
-19.494307674138369
30
0
10
-27.161285390876543
20
-16.439910109643474
30
0
10
-30.121986971328113
20
-13.980564363299433
30
0
10
-31.798803427738207
20
-11.371538034293778
30
0
10
-33.082373337867274
20
-9.3743798612306559
30
0
10
-33.552346695506287
20
-7.2668110697590027
30
0
10
-33.327734215728228
20
-5.0089439406318323
30
0
10
-33.242217590141159
20
-4.1493070313305687
30
0
10
-33.062296630811531
20
-3.2667934114604673
30
0
10
-32.803410141729387
20
-2.3455903630330113
30
0
0
SPLINE
5
197
100
AcDbEntity
8
0
100
AcDbSpline
70
0
71
3
72
11
73
7
74
0
42
0.000000001
43
0.0000000001
44
0.0000000001
40
0
40
0
40
0
40
0
40
0.44436096082276783
40
0.44436096082276783
40
0.44436096082276783
40
0.99999973342921655
40
0.99999973342921655
40
0.99999973342921655
40
0.99999973342921655
10
-32.803410141432757
20
-2.3455903631089599
30
0
10
-31.621823625338589
20
1.8592718875272296
30
0
10
-29.19018849939425
20
5.1397985904710506
30
0
10
-25.345026129139917
20
7.4382982457461928
30
0
10
-20.536950064301344
20
10.312393046803228
30
0
10
-13.606868544009188
20
11.732404826274454
30
0
10
-3.9306254316800708
20
12.157919714424876
30
0
0
SPLINE
5
198
100
AcDbEntity
8
0
100
AcDbSpline
70
0
71
3
72
14
73
10
74
0
42
0.000000001
43
0.0000000001
44
0.0000000001
40
0
40
0
40
0
40
0
40
0.47022253628762939
40
0.47022253628762939
40
0.47022253628762939
40
0.86783701037091432
40
0.86783701037091432
40
0.86783701037091432
40
0.9999996795131938
40
0.9999996795131938
40
0.9999996795131938
40
0.9999996795131938
10
-3.9306254316679339
20
12.157919714328937
30
0
10
3.1319195767253634
20
12.468594524164631
30
0
10
8.4366734998362105
20
11.815911167033114
30
0
10
12.362320691143163
20
9.8377924869538607
30
0
10
15.681800348011967
20
8.1651193206194339
30
0
10
17.95154067382434
20
5.4988684629645519
30
0
10
19.2539587962866
20
1.9178210670170044
30
0
10
19.686868226459492
20
0.72752037873194186
30
0
10
20.018461523268062
20
-0.56328277258506876
30
0
10
20.26166825893311
20
-1.9580216019499055
30
0
0
SPLINE
5
199
100
AcDbEntity
8
0
100
AcDbSpline
70
0
71
3
72
14
73
10
74
0
42
0.000000001
43
0.0000000001
44
0.0000000001
40
0
40
0
40
0
40
0
40
0.40019108197548253
40
0.40019108197548253
40
0.40019108197548253
40
0.81815862232787728
40
0.81815862232787728
40
0.81815862232787728
40
1
40
1
40
1
40
1
10
20.261668258882835
20
-1.9580216019595589
30
0
10
21.049161101542122
20
-6.4738600779257602
30
0
10
20.564860820230674
20
-10.362496050903598
30
0
10
18.727448363427456
20
-13.464769216799201
30
0
10
16.80841818066606
20
-16.704845128161118
30
0
10
13.46103894074227
20
-18.996842241346144
30
0
10
8.9099931785860758
20
-20.334189265285229
30
0
10
6.9300106408473265
20
-20.916016803983002
30
0
10
4.7163000880129635
20
-21.323029681819165
30
0
10
2.2689202290002979
20
-21.560001246071614
30
0
0
SPLINE
5
200
100
AcDbEntity
8
0
100
AcDbSpline
70
0
71
3
72
17
73
13
74
0
42
0.000000001
43
0.0000000001
44
0.0000000001
40
0
40
0
40
0
40
0
40
0.13289275380966661
40
0.13289275380966661
40
0.13289275380966661
40
0.57469111270924655
40
0.57469111270924655
40
0.57469111270924655
40
0.884398152082571
40
0.884398152082571
40
0.884398152082571
40
1
40
1
40
1
40
1
10
2.268915083433432
20
-21.560001744286129
30
0
10
1.951339777246508
20
-21.590749836435201
30
0
10
1.4821329605835749
20
-21.605909513858062
30
0
10
0.81827950535497684
20
-21.61977708908632
30
0
10
-1.3886833173875557
20
-21.665879467147779
30
0
10
-5.5184976426222505
20
-21.660098383899214
30
0
10
-9.3837342463867035
20
-21.619723096916374
30
0
10
-12.093321009024248
20
-21.591419436788595
30
0
10
-14.665720208716698
20
-21.546120236513143
30
0
10
-16.350334826926741
20
-21.488536453613261
30
0
10
-16.979137334250602
20
-21.467042619547453
30
0
10
-17.481489751557515
20
-21.444247512481567
30
0
10
-17.839427393375516
20
-21.4180569717848
30
0
0
LINE
5
201
100
AcDbEntity
8
0
100
AcDbLine
10
-17.839427393375512
20
-21.4180569717848
30
0
11
-19.923962190026316
21
-21.26578933460079
31
0
0
LINE
5
202
100
AcDbEntity
8
0
100
AcDbLine
10
45.983228739545424
20
-4.799766176291528
30
0
11
46.165727948348049
21
-0.86663185813277921
31
0
0
SPLINE
5
203
100
AcDbEntity
8
0
100
AcDbSpline
70
0
71
3
72
8
73
4
74
0
42
0.000000001
43
0.0000000001
44
0.0000000001
40
0
40
0
40
0
40
0
40
1
40
1
40
1
40
1
10
46.165728129517561
20
-0.86662795379262902
30
0
10
46.786254623478598
20
12.505716984209801
30
0
10
46.7676211632742
20
23.823529795452806
30
0
10
46.082897501641611
20
47.98770154573802
30
0
0
SPLINE
5
204
100
AcDbEntity
8
0
100
AcDbSpline
70
0
71
3
72
20
73
16
74
0
42
0.000000001
43
0.0000000001
44
0.0000000001
40
0
40
0
40
0
40
0
40
0.5
40
0.5
40
0.5
40
0.75
40
0.75
40
0.75
40
0.88607550197248564
40
0.88607550197248564
40
0.88607550197248564
40
0.98400473925877663
40
0.98400473925877663
40
0.98400473925877663
40
1
40
1
40
1
40
1
10
46.082897425660498
20
47.987704227247832
30
0
10
45.994852090114797
20
51.095104660066809
30
0
10
45.951281694484521
20
52.959559827908564
30
0
10
45.95466041067273
20
54.098267380975365
30
0
10
45.956349768766842
20
54.667621157508762
30
0
10
45.966951291393734
20
55.048891613237387
30
0
10
46.0014502092858
20
55.367934780719203
30
0
10
46.020228039564479
20
55.541590617383115
30
0
10
46.037800416688185
20
55.693708340238658
30
0
10
46.114651622640267
20
55.91064412472231
30
0
10
46.169959006220168
20
56.066765951257132
30
0
10
46.254724648308454
20
56.288183927346708
30
0
10
46.526672703233977
20
56.515214402610312
30
0
10
46.571091307597101
20
56.552296399250686
30
0
10
46.620361970671894
20
56.588289268270131
30
0
10
46.673883495111959
20
56.62137786375267
30
0
0
ARC
5
205
100
AcDbEntity
8
0
100
AcDbCircle
10
47.30490536451326
20
55.600686235327466
30
0
40
1.1999999999999984
210
0
220
0
230
1
100
AcDbArc
50
121.71419291215683
51
121.7255874151504
0
SPLINE
5
206
100
AcDbEntity
8
0
100
AcDbSpline
70
0
71
3
72
20
73
16
74
0
42
0.000000001
43
0.0000000001
44
0.0000000001
40
0
40
0
40
0
40
0
40
0.10416826043069922
40
0.10416826043069922
40
0.10416826043069922
40
0.37149510287359216
40
0.37149510287359216
40
0.37149510287359216
40
0.68574755143679611
40
0.68574755143679611
40
0.68574755143679611
40
0.89575701862610224
40
0.89575701862610224
40
0.89575701862610224
40
0.99999898317544611
40
0.99999898317544611
40
0.99999898317544611
40
0.99999898317544611
10
46.674086494171107
20
56.621503335899483
30
0
10
46.99152582039163
20
56.817666504660309
30
0
10
47.227580303329489
20
56.869906361002016
30
0
10
47.497151798468906
20
56.932402881337083
30
0
10
48.188952701260902
20
57.092787602899719
30
0
10
49.061988397515286
20
57.165799556954092
30
0
10
50.069113815234125
20
57.207915253180175
30
0
10
51.253026458035777
20
57.257423789401408
30
0
10
52.584074314722415
20
57.247741034294641
30
0
10
53.768478829591409
20
57.178020974073078
30
0
10
54.559995847967862
20
57.131428265674202
30
0
10
55.279618827871587
20
57.060489987968708
30
0
10
55.879874077602487
20
56.948524274992998
30
0
10
56.177821533497905
20
56.892948085790849
30
0
10
56.443935696895053
20
56.831087560164839
30
0
10
56.713622624770103
20
56.728864376909272
30
0
0
SPLINE
5
207
100
AcDbEntity
8
0
100
AcDbSpline
70
0
71
3
72
17
73
13
74
0
42
0.000000001
43
0.0000000001
44
0.0000000001
40
-1.4669795308293505e-06
40
-1.4669795308293505e-06
40
-1.4669795308293505e-06
40
-1.4669795308293505e-06
40
0
40
0
40
0
40
0.2241098019556356
40
0.2241098019556356
40
0.2241098019556356
40
0.61305920238325096
40
0.61305920238325096
40
0.61305920238325096
40
0.99999975787250306
40
0.99999975787250306
40
0.99999975787250306
40
0.99999975787250306
10
56.713622624838578
20
56.728864377101075
30
0
10
56.713629804976691
20
56.728861655393402
30
0
10
56.713636985923799
20
56.728858933379087
30
0
10
56.713644167679902
20
56.728856211058094
30
0
10
58.10391282694637
20
56.201860098644417
30
0
10
59.254703227413614
20
55.116653807208984
30
0
10
60.120236582565624
20
53.600596248035885
30
0
10
61.62239613381594
20
50.969432088733015
30
0
10
62.446731226433513
20
47.009191113495319
30
0
10
62.872402853514885
20
41.216393229156452
30
0
10
63.295875972789005
20
35.453513973554699
30
0
10
63.287749551284634
20
27.874833864221426
30
0
10
62.911645110274598
20
18.07302205803791
30
0
0
SPLINE
5
208
100
AcDbEntity
8
0
100
AcDbSpline
70
0
71
3
72
20
73
16
74
0
42
0.000000001
43
0.0000000001
44
0.0000000001
40
-7.2069739345468401e-07
40
-7.2069739345468401e-07
40
-7.2069739345468401e-07
40
-7.2069739345468401e-07
40
0
40
0
40
0
40
0.43950938006473766
40
0.43950938006473766
40
0.43950938006473766
40
0.70037950876795929
40
0.70037950876795929
40
0.70037950876795929
40
0.97468431286598345
40
0.97468431286598345
40
0.97468431286598345
40
1
40
1
40
1
40
1
10
62.911645110700654
20
18.073022058012373
30
0
10
62.91164463873406
20
18.073009762855552
30
0
10
62.911644166789799
20
18.072997468280924
30
0
10
62.911643694867891
20
18.07298517428848
30
0
10
62.62318184478967
20
10.558293141803308
30
0
10
62.305864489880392
20
5.8625335863785866
30
0
10
61.399850601637766
20
2.6210952326069825
30
0
10
60.86208742671316
20
0.69714439358869984
30
0
10
60.075657798483995
20
-0.75320081423813867
30
0
10
58.929276846196331
20
-1.8048483733487397
30
0
10
57.723857873536886
20
-2.9106552325548325
30
0
10
56.215748920406618
20
-3.5175461690270557
30
0
10
54.424233121918235
20
-4.0010044412019861
30
0
10
54.25889349690032
20
-4.0456229756858333
30
0
10
54.09079191913716
20
-4.0892524520279769
30
0
10
53.919786822604081
20
-4.1321738954350193
30
0
0
SPLINE
5
209
100
AcDbEntity
8
0
100
AcDbSpline
70
0
71
3
72
14
73
10
74
0
42
0.000000001
43
0.0000000001
44
0.0000000001
40
4.3361850285911871e-05
40
4.3361850285911871e-05
40
4.3361850285911871e-05
40
4.3361850285911871e-05
40
0.16874673165692058
40
0.16874673165692058
40
0.16874673165692058
40
0.72884633940636001
40
0.72884633940636001
40
0.72884633940636001
40
1
40
1
40
1
40
1
10
53.919786824071423
20
-4.1321739012793008
30
0
10
53.706664318530017
20
-4.1856881529542873
30
0
10
53.51274946598317
20
-4.2140608024994632
30
0
10
53.240917249538562
20
-4.2535408698017045
30
0
10
52.338427168997832
20
-4.3846157276142792
30
0
10
50.820152912328993
20
-4.547822691831664
30
0
10
49.596753325997263
20
-4.6513184062846911
30
0
10
49.004484965846949
20
-4.7014224260722681
30
0
10
48.494224161031447
20
-4.7373753285822549
30
0
10
48.121892996217767
20
-4.7465579951479855
30
0
0
LINE
5
210
100
AcDbEntity
8
0
100
AcDbLine
10
48.121892996217767
20
-4.7465579951479864
30
0
11
45.983228739545424
21
-4.799766176291528
31
0
0
SPLINE
5
211
100
AcDbEntity
8
0
100
AcDbSpline
70
4
71
5
72
16
73
10
74
0
42
0.000000001
43
0.0000000001
44
0.0000000001
40
0
40
0
40
0
40
0
40
0
40
0
40
0.20000000000000001
40
0.40000000000000002
40
0.60000000000000009
40
0.80000000000000004
40
1
40
1
40
1
40
1
40
1
40
1
41
1
41
1
41
1
41
1
41
1
41
1
41
1
41
1
41
1
41
1
10
67.448164415210329
20
45.097782424190584
30
0
10
67.431503235186781
20
45.351868874631066
30
0
10
67.388485150388306
20
45.867633851078082
30
0
10
67.294895205408409
20
46.664038422814258
30
0
10
67.118434770465683
20
47.766332154959763
30
0
10
66.829445434289113
20
49.197431517284038
30
0
10
66.548374757367682
20
50.38077245490485
30
0
10
66.306514731259455
20
51.292049867997633
30
0
10
66.130159350899902
20
51.911118450158909
30
0
10
66.038199864427099
20
52.22354256619905
30
0
0
SPLINE
5
212
100
AcDbEntity
8
0
100
AcDbSpline
70
4
71
5
72
16
73
10
74
0
42
0.000000001
43
0.0000000001
44
0.0000000001
40
0
40
0
40
0
40
0
40
0
40
0
40
0.20000000000000001
40
0.40000000000000002
40
0.60000000000000009
40
0.80000000000000004
40
1
40
1
40
1
40
1
40
1
40
1
41
1
41
1
41
1
41
1
41
1
41
1
41
1
41
1
41
1
41
1
10
66.038199864427099
20
52.22354256619905
30
0
10
66.018503165154428
20
52.284316394718651
30
0
10
65.977834006477579
20
52.407894889465005
30
0
10
65.913004597195908
20
52.599352583191497
30
0
10
65.818382335570007
20
52.867655816604504
30
0
10
65.67979384723921
20
53.235366686098558
30
0
10
65.542436089016888
20
53.571699054222478
30
0
10
65.417035215339027
20
53.859578332794584
30
0
10
65.321894951032164
20
54.069867465717294
30
0
10
65.271437300840873
20
54.179608570634272
30
0
0
SPLINE
5
213
100
AcDbEntity
8
0
100
AcDbSpline
70
4
71
5
72
16
73
10
74
0
42
0.000000001
43
0.0000000001
44
0.0000000001
40
-1
40
-1
40
-1
40
-1
40
-1
40
-1
40
-0.80000000000000004
40
-0.60000000000000009
40
-0.40000000000000002
40
-0.20000000000000001
40
0
40
0
40
0
40
0
40
0
40
0
41
1
41
1
41
1
41
1
41
1
41
1
41
1
41
1
41
1
41
1
10
63.519630974133669
20
57.381859814225578
30
0
10
63.385563136878382
20
57.609982942242738
30
0
10
63.102214599078067
20
58.047032387966851
30
0
10
62.631569804875447
20
58.645069223551658
30
0
10
61.904221807709014
20
59.344368133588191
30
0
10
60.73451581917822
20
60.117579641907852
30
0
10
59.450619922872448
20
60.698248074231884
30
0
10
58.191147948876953
20
61.128143146428549
30
0
10
57.198417706964371
20
61.413984959226873
30
0
10
56.663747467199805
20
61.556718034643879
30
0
0
SPLINE
5
214
100
AcDbEntity
8
0
100
AcDbSpline
70
4
71
5
72
26
73
20
74
0
42
0.000000001
43
0.0000000001
44
0.0000000001
40
0
40
0
40
0
40
0
40
0
40
0
40
0.066666666666666666
40
0.13333333333333333
40
0.20000000000000001
40
0.26666666666666666
40
0.33333333333333331
40
0.39999999999999997
40
0.46666666666666662
40
0.53333333333333333
40
0.59999999999999998
40
0.66666666666666663
40
0.73333333333333328
40
0.79999999999999993
40
0.86666666666666659
40
0.93333333333333324
40
1
40
1
40
1
40
1
40
1
40
1
41
1
41
1
41
1
41
1
41
1
41
1
41
1
41
1
41
1
41
1
41
1
41
1
41
1
41
1
41
1
41
1
41
1
41
1
41
1
41
1
10
58.357144608961988
20
-8.0433142008072593
30
0
10
58.746779205508666
20
-7.9201316605879954
30
0
10
59.50524033046608
20
-7.6256160419476071
30
0
10
60.580511359312709
20
-7.0394010210005495
30
0
10
61.888426359936382
20
-5.96671046445993
30
0
10
63.310246019501186
20
-4.1347304894208206
30
0
10
64.517742305352698
20
-1.8143796368630236
30
0
10
65.517314715615683
20
0.96756872192637533
30
0
10
66.322593004533161
20
4.1622485478674847
30
0
10
66.950766829102349
20
7.7102341872549021
30
0
10
67.420647476206
20
11.548613537199463
30
0
10
67.750746836899282
20
15.618026471228461
30
0
10
67.957859673274271
20
19.869706081953495
30
0
10
68.05626354842633
20
24.267072508355739
30
0
10
68.057460341086099
20
28.783643927855653
30
0
10
67.970034469153262
20
33.401870797470792
30
0
10
67.833789604099024
20
37.169511901604714
30
0
10
67.695712572035035
20
40.034209834702857
30
0
10
67.587824163744571
20
41.961201260023131
30
0
10
67.529920669247559
20
42.928995230892255
30
0
0
SPLINE
5
215
100
AcDbEntity
8
0
100
AcDbSpline
70
4
71
5
72
16
73
10
74
0
42
0.000000001
43
0.0000000001
44
0.0000000001
40
0
40
0
40
0
40
0
40
0
40
0
40
0.20000000000000001
40
0.40000000000000002
40
0.60000000000000009
40
0.80000000000000004
40
1
40
1
40
1
40
1
40
1
40
1
41
1
41
1
41
1
41
1
41
1
41
1
41
1
41
1
41
1
41
1
10
49.290075697103994
20
-9.2050359059384093
30
0
10
49.627742137542519
20
-9.1977855520382139
30
0
10
50.305983291683731
20
-9.1787254935954863
30
0
10
51.332066174455747
20
-9.1364631047558866
30
0
10
52.71883108760278
20
-9.0508684208659709
30
0
10
54.498588215977904
20
-8.8712882024501418
30
0
10
55.982774657669331
20
-8.632964091668283
30
0
10
57.146938646724159
20
-8.3742295478301862
30
0
10
57.949354287989422
20
-8.1604989834268089
30
0
10
58.357144608961988
20
-8.0433142008072593
30
0
0
SPLINE
5
216
100
AcDbEntity
8
0
100
AcDbSpline
70
4
71
5
72
16
73
10
74
0
42
0.000000001
43
0.0000000001
44
0.0000000001
40
0
40
0
40
0
40
0
40
0
40
0
40
0.20000000000000001
40
0.40000000000000002
40
0.60000000000000009
40
0.80000000000000004
40
1
40
1
40
1
40
1
40
1
40
1
41
1
41
1
41
1
41
1
41
1
41
1
41
1
41
1
41
1
41
1
10
-1.2837824502116988
20
62.33094877428185
30
0
10
-1.3786480060503883
20
61.986176080432173
30
0
10
-1.4960565580710385
20
61.358772739856903
30
0
10
-1.4553968884691171
20
60.603926163804296
30
0
10
-1.0274458004700477
20
59.918592858835915
30
0
10
-0.077876350638219294
20
59.418191185260333
30
0
10
0.88526455472578025
20
59.19271150008035
30
0
10
1.6844793728399585
20
59.089641769429193
30
0
10
2.2492292931683937
20
59.0483726051826
30
0
10
2.5395926223304692
20
59.034601906266168
30
0
0
SPLINE
5
217
100
AcDbEntity
8
0
100
AcDbSpline
70
4
71
5
72
16
73
10
74
0
42
0.000000001
43
0.0000000001
44
0.0000000001
40
0
40
0
40
0
40
0
40
0
40
0
40
0.20000000000000001
40
0.40000000000000002
40
0.60000000000000009
40
0.80000000000000004
40
1
40
1
40
1
40
1
40
1
40
1
41
1
41
1
41
1
41
1
41
1
41
1
41
1
41
1
41
1
41
1
10
37.31767986377065
20
-36.229047525824178
30
0
10
37.496245921846139
20
-35.994523993725458
30
0
10
37.821949904722764
20
-35.566688582605245
30
0
10
38.216321735423108
20
-35.048435490781387
30
0
10
38.593130284363525
20
-34.549833694025153
30
0
10
38.993380095810849
20
-33.994787778287659
30
0
10
39.417929020331634
20
-33.37060916255944
30
0
10
39.879966016760932
20
-32.674368860452134
30
0
10
40.266520375745145
20
-32.086471938046486
30
0
10
40.479449889659733
20
-31.761558386585182
30
0
0
SPLINE
5
218
100
AcDbEntity
8
0
100
AcDbSpline
70
0
71
3
72
11
73
7
74
0
42
0.000000001
43
0.0000000001
44
0.0000000001
40
-1.4785386229125849e-06
40
-1.4785386229125849e-06
40
-1.4785386229125849e-06
40
-1.4785386229125849e-06
40
0
40
0
40
0
40
1
40
1
40
1
40
1
10
-1.2825823496765421
20
15.634437184680072
30
0
10
-1.2825966626701566
20
15.63443716160336
30
0
10
-1.2826109757672137
20
15.634437138526479
30
0
10
-1.2826252889677145
20
15.634437115449435
30
0
10
-10.899891608544689
20
15.618931282428964
30
0
10
-16.92756361631243
20
14.708883323993129
30
0
10
-23.266538003522264
20
12.347712066163703
30
0
0
LINE
5
219
100
AcDbEntity
8
0
100
AcDbLine
10
-23.266538003522264
20
12.347712066163703
30
0
11
-25.840395240999968
21
11.388904443467814
31
0
0
LINE
5
220
100
AcDbEntity
8
0
100
AcDbLine
10
-25.840395240999968
20
11.388904443467814
30
0
11
-26.115314836675793
21
13.159511234802208
31
0
0
SPLINE
5
221
100
AcDbEntity
8
0
100
AcDbSpline
70
0
71
3
72
11
73
7
74
0
42
0.000000001
43
0.0000000001
44
0.0000000001
40
0.00065253091299286655
40
0.00065253091299286655
40
0.00065253091299286655
40
0.00065253091299286655
40
0.14519180627702025
40
0.14519180627702025
40
0.14519180627702025
40
0.99999883902461073
40
0.99999883902461073
40
0.99999883902461073
40
0.99999883902461073
10
-26.115314836675346
20
13.159511234799396
30
0
10
-26.140541919003123
20
13.322016479482619
30
0
10
-26.164474358251503
20
13.542234014233959
30
0
10
-26.199618066592105
20
13.876783922664961
30
0
10
-26.407458385223286
20
15.855316150750676
30
0
10
-26.881940500993366
20
21.181829758854633
30
0
10
-27.082161396180688
20
23.856454374403452
30
0
0
SPLINE
5
222
100
AcDbEntity
8
0
100
AcDbSpline
70
0
71
3
72
8
73
4
74
0
42
0.000000001
43
0.0000000001
44
0.0000000001
40
0
40
0
40
0
40
0
40
0.9999577151981115
40
0.9999577151981115
40
0.9999577151981115
40
0.9999577151981115
10
-27.082161396122665
20
23.856454374422597
30
0
10
-27.182168063892142
20
25.192185637503982
30
0
10
-27.34249150898162
20
27.330929351625866
30
0
10
-27.43802389991103
20
28.609135890933484
30
0
0
SPLINE
5
223
100
AcDbEntity
8
0
100
AcDbSpline
70
0
71
3
72
14
73
10
74
0
42
0.000000001
43
0.0000000001
44
0.0000000001
40
0
40
0
40
0
40
0
40
0.40959720767127838
40
0.40959720767127838
40
0.40959720767127838
40
0.75984876404684121
40
0.75984876404684121
40
0.75984876404684121
40
0.99999530356503064
40
0.99999530356503064
40
0.99999530356503064
40
0.99999530356503064
10
-27.438023886730743
20
28.609135891917042
30
0
10
-27.535444298973776
20
29.909758936360525
30
0
10
-27.58749324879529
20
32.316655152496111
30
0
10
-27.604129558949516
20
34.899948668386152
30
0
10
-27.618355470197777
20
37.108954388077315
30
0
10
-27.604888063289366
20
39.429899769141457
30
0
10
-27.563392161637481
20
41.231895782126472
30
0
10
-27.534940904235494
20
42.467416649533867
30
0
10
-27.496738730014698
20
43.43903976522995
30
0
10
-27.434684745482443
20
44.03683610470388
30
0
0
SPLINE
5
224
100
AcDbEntity
8
0
100
AcDbSpline
70
0
71
3
72
8
73
4
74
0
42
0.000000001
43
0.0000000001
44
0.0000000001
40
0
40
0
40
0
40
0
40
1
40
1
40
1
40
1
10
-27.434684744949784
20
44.036836104576579
30
0
10
-26.843788850213841
20
49.730954986208872
30
0
10
-25.728205270295938
20
55.287093667933362
30
0
10
-23.929918681493358
20
61.510724111603338
30
0
0
SPLINE
5
225
100
AcDbEntity
8
0
100
AcDbSpline
70
0
71
3
72
11
73
7
74
0
42
0.000000001
43
0.0000000001
44
0.0000000001
40
0
40
0
40
0
40
0
40
0.75942479237619054
40
0.75942479237619054
40
0.75942479237619054
40
0.99999647632955779
40
0.99999647632955779
40
0.99999647632955779
40
0.99999647632955779
10
-23.929917369393699
20
61.510728652565319
30
0
10
-23.621622336974891
20
62.577677799583064
30
0
10
-23.496105213002565
20
63.237760886949665
30
0
10
-23.350993190540489
20
64.958369857226955
30
0
10
-23.305024394214588
20
65.503426855049895
30
0
10
-23.258453746872441
20
66.150343905740812
30
0
10
-23.206073689924235
20
66.937991942780982
30
0
0
SPLINE
5
226
100
AcDbEntity
8
0
100
AcDbSpline
70
0
71
3
72
17
73
13
74
0
42
0.000000001
43
0.0000000001
44
0.0000000001
40
-2.2384222657105393e-06
40
-2.2384222657105393e-06
40
-2.2384222657105393e-06
40
-2.2384222657105393e-06
40
0
40
0
40
0
40
0.38465046304420791
40
0.38465046304420791
40
0.38465046304420791
40
0.6717344984512863
40
0.6717344984512863
40
0.6717344984512863
40
1
40
1
40
1
40
1
10
-23.206073691776297
20
66.937991942904176
30
0
10
-23.206072139500584
20
66.938015272297463
30
0
10
-23.206070587232691
20
66.938038601573055
30
0
10
-23.206069034972639
20
66.938061930730996
30
0
10
-22.936401592694054
20
70.990935882401502
30
0
10
-22.492854176549461
20
73.918541218756786
30
0
10
-21.518208484083448
20
76.1015586055141
30
0
10
-20.7907812602324
20
77.730854553305718
30
0
10
-19.711759948477038
20
78.943459920007456
30
0
10
-18.279270839596283
20
79.68341833208784
30
0
10
-16.641294854191777
20
80.529521874286999
30
0
10
-14.633322385282138
20
80.78579966861389
30
0
10
-12.122923994704212
20
80.773269693578115
30
0
0
SPLINE
5
227
100
AcDbEntity
8
0
100
AcDbSpline
70
0
71
3
72
17
73
13
74
0
42
0.000000001
43
0.0000000001
44
0.0000000001
40
7.8795027618953723e-07
40
7.8795027618953723e-07
40
7.8795027618953723e-07
40
7.8795027618953723e-07
40
0.33401076121129969
40
0.33401076121129969
40
0.33401076121129969
40
0.58483935587792701
40
0.58483935587792701
40
0.58483935587792701
40
0.97149996229421109
40
0.97149996229421109
40
0.97149996229421109
40
1
40
1
40
1
40
1
10
-12.122923994703383
20
80.773269693806142
30
0
10
-9.0750395651002531
20
80.758121567995829
30
0
10
-6.753201896431543
20
80.496228733976693
30
0
10
-4.9417998876988625
20
79.564450025412896
30
0
10
-3.5815069126395347
20
78.864720188822986
30
0
10
-2.5633703511034516
20
77.743145021216748
30
0
10
-1.946310171670627
20
76.268321819247205
30
0
10
-0.99509141811524682
20
73.994832887938259
30
0
10
-0.852028962537972
20
70.939099217933602
30
0
10
-1.0507288659973748
20
66.596979548823583
30
0
10
-1.0653746681472653
20
66.276929943978516
30
0
10
-1.0820712060420759
20
65.949869377822296
30
0
10
-1.1007000719918008
20
65.615607151187362
30
0
0
LINE
5
228
100
AcDbEntity
8
0
100
AcDbLine
10
-1.1007000719918008
20
65.615607151187362
30
0
11
-1.2837824502116988
21
62.33094877428185
31
0
0
LINE
5
229
100
AcDbEntity
8
0
100
AcDbLine
10
-1.2837824502116988
20
62.33094877428185
30
0
11
-3.2690236879122505
21
61.959414781491844
31
0
0
SPLINE
5
230
100
AcDbEntity
8
0
100
AcDbSpline
70
0
71
3
72
8
73
4
74
0
42
0.000000001
43
0.0000000001
44
0.0000000001
40
0
40
0
40
0
40
0
40
0.52804144077896908
40
0.52804144077896908
40
0.52804144077896908
40
0.52804144077896908
10
-3.2690236879122505
20
61.959414781491844
30
0
10
-5.2457298827984449
20
61.589380754317773
30
0
10
-7.5023269325653406
20
61.013516364742472
30
0
10
-9.620855328253155
20
60.355288491925904
30
0
0
SPLINE
5
231
100
AcDbEntity
8
0
100
AcDbSpline
70
0
71
3
72
8
73
4
74
0
42
0.000000001
43
0.0000000001
44
0.0000000001
40
0.48876746541546551
40
0.48876746541546551
40
0.48876746541546551
40
0.48876746541546551
40
1
40
1
40
1
40
1
10
-9.6208553282531568
20
60.355288491925911
30
0
10
-7.8019638165198799
20
60.30258580491094
30
0
10
-5.9220086969510195
20
60.080158610014365
30
0
10
-4.1875448444844325
20
59.689309472783158
30
0
0
SPLINE
5
232
100
AcDbEntity
8
0
100
AcDbSpline
70
0
71
3
72
11
73
7
74
0
42
0.000000001
43
0.0000000001
44
0.0000000001
40
5.136467835560542e-06
40
5.136467835560542e-06
40
5.136467835560542e-06
40
5.136467835560542e-06
40
0.5297121025376833
40
0.5297121025376833
40
0.5297121025376833
40
0.99999103487065899
40
0.99999103487065899
40
0.99999103487065899
40
0.99999103487065899
10
-4.1875448440439618
20
59.689309474708281
30
0
10
-2.0782974550909614
20
59.214144806161201
30
0
10
-1.2136678394979143
20
59.013311220414593
30
0
10
-0.4424573615658644
20
58.952802007924575
30
0
10
0.24223070824906878
20
58.899081347882586
30
0
10
0.96245983723862116
20
58.946254334868598
30
0
10
2.5395926223304692
20
59.034601906266168
30
0
0
SPLINE
5
233
100
AcDbEntity
8
0
100
AcDbSpline
70
0
71
3
72
8
73
4
74
0
42
0.000000001
43
0.0000000001
44
0.0000000001
40
0
40
0
40
0
40
0
40
0.99999115273363093
40
0.99999115273363093
40
0.99999115273363093
40
0.99999115273363093
10
2.539592622586071
20
59.034601902205225
30
0
10
4.3152924634188299
20
59.134233397155221
30
0
10
7.557867382723872
20
59.198277400673945
30
0
10
9.8273764978774576
20
59.180342983866495
30
0
0
SPLINE
5
234
100
AcDbEntity
8
0
100
AcDbSpline
70
0
71
3
72
17
73
13
74
0
42
0.000000001
43
0.0000000001
44
0.0000000001
40
0
40
0
40
0
40
0
40
0.45806863483440746
40
0.45806863483440746
40
0.45806863483440746
40
0.70857127045612933
40
0.70857127045612933
40
0.70857127045612933
40
0.98084379131201072
40
0.98084379131201072
40
0.98084379131201072
40
0.99997246221165526
40
0.99997246221165526
40
0.99997246221165526
40
0.99997246221165526
10
9.8273764978969229
20
59.180342982073419
30
0
10
12.032383211008177
20
59.163049578807204
30
0
10
13.291952838277933
20
59.187664677038605
30
0
10
13.884318929432425
20
59.300122953028975
30
0
10
14.20826441664261
20
59.361622676849287
30
0
10
14.292629633379615
20
59.419665161071656
30
0
10
14.349467721685299
20
59.46817219225575
30
0
10
14.411245313546598
20
59.520894718016599
30
0
10
14.50588115693483
20
59.648488056024405
30
0
10
14.666561163709122
20
59.985588861460535
30
0
10
14.677849834927487
20
60.009272082767346
30
0
10
14.68942055636006
20
60.033796908445979
30
0
10
14.701286099039718
20
60.059145516561053
30
0
0
SPLINE
5
235
100
AcDbEntity
8
0
100
AcDbSpline
70
0
71
3
72
11
73
7
74
0
42
0.000000001
43
0.0000000001
44
0.0000000001
40
0
40
0
40
0
40
0
40
0.4848850919319328
40
0.4848850919319328
40
0.4848850919319328
40
0.99999512209673758
40
0.99999512209673758
40
0.99999512209673758
40
0.99999512209673758
10
14.70128610611793
20
60.059145513247437
30
0
10
14.813543296532233
20
60.299043712575781
30
0
10
14.821102201691099
20
60.2905176709301
30
0
10
14.835702626744107
20
60.601957904611922
30
0
10
14.851213158032063
20
60.932811525058739
30
0
10
14.817906458770604
20
61.581199144903138
30
0
10
14.730621591744711
20
62.771823088990324
30
0
0
SPLINE
5
236
100
AcDbEntity
8
0
100
AcDbSpline
70
0
71
3
72
17
73
13
74
0
42
0.000000001
43
0.0000000001
44
0.0000000001
40
-3.4692340036753597e-06
40
-3.4692340036753597e-06
40
-3.4692340036753597e-06
40
-3.4692340036753597e-06
40
0
40
0
40
0
40
0.54174618655177476
40
0.54174618655177476
40
0.54174618655177476
40
0.95041993621094467
40
0.95041993621094467
40
0.95041993621094467
40
1
40
1
40
1
40
1
10
14.730621589962611
20
62.771823088857055
30
0
10
14.730619914790474
20
62.771845950181344
30
0
10
14.730618239623043
20
62.771868811441401
30
0
10
14.73061656446032
20
62.771891672637224
30
0
10
14.465460991753874
20
66.390509366126281
30
0
10
14.478739479484602
20
69.817694830827548
30
0
10
14.740672831129903
20
72.616242789766574
30
0
10
14.938265887869303
20
74.727366257492776
30
0
10
15.262518733773128
20
76.468512585394976
30
0
10
15.782001105417557
20
77.745780613941037
30
0
10
15.845024407366605
20
77.900738035071825
30
0
10
15.911404817853214
20
78.04921788041672
30
0
10
15.982068964766887
20
78.191390783076542
30
0
0
SPLINE
5
237
100
AcDbEntity
8
0
100
AcDbSpline
70
0
71
3
72
14
73
10
74
0
42
0.000000001
43
0.0000000001
44
0.0000000001
40
6.0738273227567401e-07
40
6.0738273227567401e-07
40
6.0738273227567401e-07
40
6.0738273227567401e-07
40
0.42269301202541154
40
0.42269301202541154
40
0.42269301202541154
40
0.96401246311264011
40
0.96401246311264011
40
0.96401246311264011
40
0.99999849266392016
40
0.99999849266392016
40
0.99999849266392016
40
0.99999849266392016
10
15.982068964698586
20
78.191390783110833
30
0
10
17.339341087053985
20
80.922237627501403
30
0
10
20.073736426303732
20
82.880678323437195
30
0
10
23.2488287129604
20
84.007196288600809
30
0
10
27.314998804701716
20
85.449867318040702
30
0
10
32.174130445235413
20
85.559787653117198
30
0
10
36.200742836748113
20
83.833616968530976
30
0
10
36.468425426430585
20
83.718863971679824
30
0
10
36.732302730212403
20
83.595834754236051
30
0
10
36.991804992121885
20
83.464329426660868
30
0
0
SPLINE
5
238
100
AcDbEntity
8
0
100
AcDbSpline
70
0
71
3
72
17
73
13
74
0
42
0.000000001
43
0.0000000001
44
0.0000000001
40
0
40
0
40
0
40
0
40
0.38953206910785354
40
0.38953206910785354
40
0.38953206910785354
40
0.69476603455392683
40
0.69476603455392683
40
0.69476603455392683
40
0.89160817652773983
40
0.89160817652773983
40
0.89160817652773983
40
0.9571474378481406
40
0.9571474378481406
40
0.9571474378481406
40
0.9571474378481406
10
36.991804991842535
20
83.464329426109614
30
0
10
37.662878972216646
20
83.12428459143365
30
0
10
38.297734066419771
20
82.583795572118191
30
0
10
38.904265734757978
20
81.980412742630079
30
0
10
39.379538712203725
20
81.507607168114646
30
0
10
39.818561712534049
20
81.001022987748158
30
0
10
40.162418773082734
20
80.514337646002105
30
0
10
40.384168538815075
20
80.200479438916432
30
0
10
40.568029144701178
20
79.903451952764598
30
0
10
40.698545266336779
20
79.567109552523888
30
0
10
40.74200105337826
20
79.455123205284067
30
0
10
40.779766626563699
20
79.337617610379638
30
0
10
40.805655906701119
20
79.202062629613849
30
0
0
SPLINE
5
239
100
AcDbEntity
8
0
100
AcDbSpline
70
0
71
3
72
11
73
7
74
0
42
0.000000001
43
0.0000000001
44
0.0000000001
40
0.87179132957920258
40
0.87179132957920258
40
0.87179132957920258
40
0.87179132957920258
40
1
40
1
40
1
40
1.0000195722637417
40
1.0000195722637417
40
1.0000195722637417
40
1.0000195722637417
10
40.805655906701261
20
79.202062629613849
30
0
10
40.813468064302953
20
79.192617207385339
30
0
10
40.821083160513403
20
79.183828395087872
30
0
10
40.828465568163452
20
79.175672375742877
30
0
10
40.828468286882043
20
79.175669372126379
30
0
10
40.828471005600584
20
79.175666368509923
30
0
10
40.828473724345244
20
79.175663364864633
30
0
0
SPLINE
5
240
100
AcDbEntity
8
0
100
AcDbSpline
70
0
71
3
72
20
73
16
74
0
42
0.000000001
43
0.0000000001
44
0.0000000001
40
-8.1400505237523164e-06
40
-8.1400505237523164e-06
40
-8.1400505237523164e-06
40
-8.1400505237523164e-06
40
0
40
0
40
0
40
0.10382157184002903
40
0.10382157184002903
40
0.10382157184002903
40
0.3655479472192672
40
0.3655479472192672
40
0.3655479472192672
40
1
40
1
40
1
40
1.0000162662779839
40
1.0000162662779839
40
1.0000162662779839
40
1.0000162662779839
10
40.828473724819993
20
79.175663365244418
30
0
10
40.828481977905867
20
79.175654246408399
30
0
10
40.828490230968995
20
79.175645127597519
30
0
10
40.828498484009401
20
79.17563600881175
30
0
10
41.108371993305695
20
78.866403720023627
30
0
10
41.216679003634397
20
78.577330482116921
30
0
10
41.337894477414366
20
78.235208899121517
30
0
10
41.643469571588376
20
77.372746115429877
30
0
10
41.865796926874239
20
76.154113798511091
30
0
10
42.064126573003513
20
74.629118906123509
30
0
10
42.544898336765073
20
70.932372108810924
30
0
10
42.796834504937245
20
65.570249678913328
30
0
10
42.585572053211621
20
61.185014701822034
30
0
10
42.585566733730801
20
61.184904283841135
30
0
10
42.585561414250975
20
61.184793865881026
30
0
10
42.585556094773864
20
61.184683447976923
30
0
0
SPLINE
5
241
100
AcDbEntity
8
0
100
AcDbSpline
70
0
71
3
72
8
73
4
74
0
42
0.000000001
43
0.0000000001
44
0.0000000001
40
3.7032676194806285e-05
40
3.7032676194806285e-05
40
3.7032676194806285e-05
40
3.7032676194806285e-05
40
0.99999827212804659
40
0.99999827212804659
40
0.99999827212804659
40
0.99999827212804659
10
42.585556053639749
20
61.184683449653562
30
0
10
42.514806985260343
20
59.72104378358965
30
0
10
42.515584752819315
20
56.74218827130413
30
0
10
42.590309537166874
20
54.676407345336301
30
0
0
SPLINE
5
242
100
AcDbEntity
8
0
100
AcDbSpline
70
0
71
3
72
14
73
10
74
0
42
0.000000001
43
0.0000000001
44
0.0000000001
40
-2.4510840017209107e-07
40
-2.4510840017209107e-07
40
-2.4510840017209107e-07
40
-2.4510840017209107e-07
40
0
40
0
40
0
40
0.62196917767426718
40
0.62196917767426718
40
0.62196917767426718
40
1
40
1
40
1
40
1
10
42.590309537338349
20
54.676407345341566
30
0
10
42.590309795673377
20
54.676400201534463
30
0
10
42.590310053977937
20
54.676393058569644
30
0
10
42.590310312252051
20
54.676385916447117
30
0
10
43.246184846826139
20
36.539313009496425
30
0
10
43.485328811666115
20
21.158547156253746
30
0
10
43.3082641074867
20
10.111078453995068
30
0
10
43.200644762142126
20
3.3964632800582431
30
0
10
42.943082632698406
20
-1.7043288722484879
30
0
10
42.51801417420932
20
-4.9138210041128954
30
0
0
SPLINE
5
243
100
AcDbEntity
8
0
100
AcDbSpline
70
0
71
3
72
11
73
7
74
0
42
0.000000001
43
0.0000000001
44
0.0000000001
40
8.8461204444526696e-06
40
8.8461204444526696e-06
40
8.8461204444526696e-06
40
8.8461204444526696e-06
40
0.52133045436455394
40
0.52133045436455394
40
0.52133045436455394
40
0.86376087695934411
40
0.86376087695934411
40
0.86376087695934411
40
0.86376087695934411
10
42.51801417443447
20
-4.9138210041417549
30
0
10
42.464102734561699
20
-5.3209489303572912
30
0
10
42.420146075918908
20
-5.7292569881034279
30
0
10
42.394687660867021
20
-6.037028422548004
30
0
10
42.377965285107123
20
-6.239188280671728
30
0
10
42.370105031195408
20
-6.4111119661902247
30
0
10
42.370060515656043
20
-6.4610260976337184
30
0
0
SPLINE
5
244
100
AcDbEntity
8
0
100
AcDbSpline
70
0
71
3
72
14
73
10
74
0
42
0.000000001
43
0.0000000001
44
0.0000000001
40
0.0048308831214511081
40
0.0048308831214511081
40
0.0048308831214511081
40
0.0048308831214511081
40
0.11154568374563945
40
0.11154568374563945
40
0.11154568374563945
40
0.47773298566293082
40
0.47773298566293082
40
0.47773298566293082
40
0.99999801837475566
40
0.99999801837475566
40
0.99999801837475566
40
0.99999801837475566
10
42.370060515655943
20
-6.461026097633658
30
0
10
42.405980389077925
20
-6.753753628511725
30
0
10
42.394296062619262
20
-7.0154745607545763
30
0
10
42.372480401062489
20
-7.3593181479066931
30
0
10
42.297620885809799
20
-8.5392028004977689
30
0
10
42.012357254767721
20
-10.471710992032966
30
0
10
41.630881159556161
20
-12.63632910231134
30
0
10
41.086810886498327
20
-15.723558894972154
30
0
10
40.353315528693301
20
-19.21223663160773
30
0
10
39.731104511526475
20
-21.339831202574754
30
0
0
SPLINE
5
245
100
AcDbEntity
8
0
100
AcDbSpline
70
0
71
3
72
11
73
7
74
0
42
0.000000001
43
0.0000000001
44
0.0000000001
40
0
40
0
40
0
40
0
40
0.48675436891774992
40
0.48675436891774992
40
0.48675436891774992
40
0.99999844476974542
40
0.99999844476974542
40
0.99999844476974542
40
0.99999844476974542
10
39.731104511250933
20
-21.339831202426367
30
0
10
37.607998808471301
20
-28.60025467343624
30
0
10
34.13653639272647
20
-33.95770489922586
30
0
10
29.206700851005131
20
-37.299303545990092
30
0
10
24.008578248965094
20
-40.822755658274247
30
0
10
17.275374578019932
20
-42.052500199806282
30
0
10
9.0543111388930377
20
-41.161021486061422
30
0
0
SPLINE
5
246
100
AcDbEntity
8
0
100
AcDbSpline
70
0
71
3
72
8
73
4
74
0
42
0.000000001
43
0.0000000001
44
0.0000000001
40
0
40
0
40
0
40
0
40
0.99998912633555104
40
0.99998912633555104
40
0.99998912633555104
40
0.99998912633555104
10
9.0543111390900801
20
-41.161021483294448
30
0
10
6.7881819509656083
20
-40.915455207372403
30
0
10
3.0652025537985637
20
-40.236283905841063
30
0
10
0.89329712291296448
20
-39.672123233137462
30
0
0
SPLINE
5
247
100
AcDbEntity
8
0
100
AcDbSpline
70
0
71
3
72
14
73
10
74
0
42
0.000000001
43
0.0000000001
44
0.0000000001
40
-5.2504096743322486e-06
40
-5.2504096743322486e-06
40
-5.2504096743322486e-06
40
-5.2504096743322486e-06
40
0
40
0
40
0
40
0.72045430833527924
40
0.72045430833527924
40
0.72045430833527924
40
1
40
1
40
1
40
1
10
0.89329712079993762
20
-39.672123241352011
30
0
10
0.89324914300124503
20
-39.672110774931127
30
0
10
0.89320116520255233
20
-39.672098308510243
30
0
10
0.89315318740385963
20
-39.672085842089352
30
0
10
-5.7925864951377228
20
-37.934881403926248
30
0
10
-10.499838956813157
20
-35.574031742906278
30
0
10
-13.860090493342858
20
-32.014973008195426
30
0
10
-15.16391202522756
20
-30.634011683987339
30
0
10
-16.258822585080068
20
-29.079004426388337
30
0
10
-17.185733236111037
20
-27.335701533638009
30
0
0
SPLINE
5
248
100
AcDbEntity
8
0
100
AcDbSpline
70
0
71
3
72
26
73
22
74
0
42
0.000000001
43
0.0000000001
44
0.0000000001
40
1.9810991318455097e-05
40
1.9810991318455097e-05
40
1.9810991318455097e-05
40
1.9810991318455097e-05
40
0.15570961727436272
40
0.15570961727436272
40
0.15570961727436272
40
0.27134724677069844
40
0.27134724677069844
40
0.27134724677069844
40
0.34939079364420089
40
0.34939079364420089
40
0.34939079364420089
40
0.43304567332242067
40
0.43304567332242067
40
0.43304567332242067
40
0.59132442524082129
40
0.59132442524082129
40
0.59132442524082129
40
0.9677974175316888
40
0.9677974175316888
40
0.9677974175316888
40
1
40
1
40
1
40
1
10
-17.185733237795986
20
-27.335701534155842
30
0
10
-17.24823353852894
20
-27.218173439337193
30
0
10
-17.319875968592186
20
-27.107005408078493
30
0
10
-17.404316879417621
20
-26.954934783214298
30
0
10
-17.467034837603098
20
-26.841985278072311
30
0
10
-17.554468979422605
20
-26.716846883369595
30
0
10
-17.602259888271657
20
-26.428425186754417
30
0
10
-17.63451385310243
20
-26.233770105210784
30
0
10
-17.617659611393872
20
-25.918173445724889
30
0
10
-17.4609877791396
20
-25.654469365201649
30
0
10
-17.293051238563852
20
-25.371804955259041
30
0
10
-17.043359832733415
20
-25.22931294286235
30
0
10
-16.866346642338694
20
-25.159238200409781
30
0
10
-16.53142981553146
20
-25.02665367193924
30
0
10
-16.312194439860807
20
-25.030507718786808
30
0
10
-16.014798863834766
20
-25.020413200982304
30
0
10
-15.307430369683948
20
-24.996402945167581
30
0
10
-14.211718860600826
20
-25.053819799866169
30
0
10
-12.25660366113134
20
-25.130153198194627
30
0
10
-12.089367870688976
20
-25.136682571098113
30
0
10
-11.91605518223178
20
-25.14337646663726
30
0
10
-11.736449555887909
20
-25.150203292432565
30
0
0
SPLINE
5
249
100
AcDbEntity
8
0
100
AcDbSpline
70
0
71
3
72
11
73
7
74
0
42
0.000000001
43
0.0000000001
44
0.0000000001
40
0
40
0
40
0
40
0
40
0.64378246414530882
40
0.64378246414530882
40
0.64378246414530882
40
1
40
1
40
1
40
1
10
-11.736445406018635
20
-25.150203450178093
30
0
10
-0.30867748394915129
20
-25.58462144954715
30
0
10
7.2999662620461052
20
-24.883979595585117
30
0
10
12.597497062813831
20
-22.814549040216775
30
0
10
15.528725347307574
20
-21.669492294947418
30
0
10
17.763697906882253
20
-20.121509353676888
30
0
10
19.637455798566204
20
-18.071284838878341
30
0
0
SPLINE
5
250
100
AcDbEntity
8
0
100
AcDbSpline
70
0
71
3
72
17
73
13
74
0
42
0.000000001
43
0.0000000001
44
0.0000000001
40
0
40
0
40
0
40
0
40
0.47604159875768737
40
0.47604159875768737
40
0.47604159875768737
40
0.96048235349897637
40
0.96048235349897637
40
0.96048235349897637
40
1
40
1
40
1
40
1.0000021089610405
40
1.0000021089610405
40
1.0000021089610405
40
1.0000021089610405
10
19.637461648476322
20
-18.071278438091582
30
0
10
22.977163892209852
20
-14.417113609645448
30
0
10
24.400703396826611
20
-8.8931470111653166
30
0
10
23.977258960058585
20
-3.4227527968429703
30
0
10
23.546343378155164
20
2.1441596512173322
30
0
10
21.203157235439903
20
7.5919508796011659
30
0
10
17.312073376590103
20
10.874917097509066
30
0
10
16.994663094868486
20
11.142720945976293
30
0
10
16.666960098055938
20
11.396452446317269
30
0
10
16.329062528492191
20
11.63520851382831
30
0
10
16.329043223496612
20
11.635222154603628
30
0
10
16.329023918510941
20
11.635235795371949
30
0
10
16.329004613567037
20
11.635249436110755
30
0
0
SPLINE
5
251
100
AcDbEntity
8
0
100
AcDbSpline
70
0
71
3
72
11
73
7
74
0
42
0.000000001
43
0.0000000001
44
0.0000000001
40
2.3856531353263548e-06
40
2.3856531353263548e-06
40
2.3856531353263548e-06
40
2.3856531353263548e-06
40
0.67963173025412948
40
0.67963173025412948
40
0.67963173025412948
40
0.99999921344814335
40
0.99999921344814335
40
0.99999921344814335
40
0.99999921344814335
10
16.329004614576622
20
11.63524943756665
30
0
10
13.398036945692031
20
13.706389961668489
30
0
10
10.583870410901996
20
14.790988345193385
30
0
10
6.1666128011468295
20
15.298128227375447
30
0
10
4.0843811931404224
20
15.537186662642631
30
0
10
1.6513842101031915
20
15.639229652407764
30
0
10
-1.2825823496597994
20
15.63443718536659
30
0
0
SPLINE
5
252
100
AcDbEntity
8
0
100
AcDbSpline
70
0
71
3
72
8
73
4
74
0
42
0.000000001
43
0.0000000001
44
0.0000000001
40
0
40
0
40
0
40
0
40
1
40
1
40
1
40
1
10
45.000111318871674
20
-14.76455210932631
30
0
10
45.051756475497477
20
-14.460865397630862
30
0
10
45.165075726669741
20
-13.840790948329673
30
0
10
45.256682008928507
20
-13.357844001558769
30
0
0
SPLINE
5
253
100
AcDbEntity
8
0
100
AcDbSpline
70
0
71
3
72
14
73
10
74
0
42
0.000000001
43
0.0000000001
44
0.0000000001
40
0
40
0
40
0
40
0
40
0.5
40
0.5
40
0.5
40
0.87034256825449963
40
0.87034256825449963
40
0.87034256825449963
40
1
40
1
40
1
40
1
10
45.256683374851079
20
-13.357836800579575
30
0
10
45.407623008688176
20
-12.562117166986173
30
0
10
45.539574797538044
20
-11.782386369116439
30
0
10
45.632561213188687
20
-11.154124728695676
30
0
10
45.701434869158362
20
-10.688780669797255
30
0
10
45.748856596890349
20
-10.300624970926409
30
0
10
45.766300042393731
20
-10.079047192015313
30
0
10
45.772407016148918
20
-10.001472513303948
30
0
10
45.774416507879749
20
-9.9433176323943311
30
0
10
45.774416507879749
20
-9.9276137321204558
30
0
0
SPLINE
5
254
100
AcDbEntity
8
0
100
AcDbSpline
70
0
71
3
72
20
73
16
74
0
42
0.000000001
43
0.0000000001
44
0.0000000001
40
0
40
0
40
0
40
0
40
0.21081940519900674
40
0.21081940519900674
40
0.21081940519900674
40
0.38780760087014643
40
0.38780760087014643
40
0.38780760087014643
40
0.67902508958061358
40
0.67902508958061358
40
0.67902508958061358
40
1
40
1
40
1
40
1.0028318538607308
40
1.0028318538607308
40
1.0028318538607308
40
1.0028318538607308
10
45.774416507879749
20
-9.9276137321204558
30
0
10
45.774416507879749
20
-9.7860803338653142
30
0
10
45.759325252207276
20
-9.5778954827842089
30
0
10
45.881211374768029
20
-9.2745797639968721
30
0
10
45.983537841769561
20
-9.0199385855143213
30
0
10
46.222337026424725
20
-8.7580812432901727
30
0
10
46.447470992037097
20
-8.6271167780690252
30
0
10
46.817907832982613
20
-8.4116270244875029
30
0
10
47.108047343869245
20
-8.3867521555413891
30
0
10
47.49000213277035
20
-8.3410165659988742
30
0
10
47.910986135807605
20
-8.2906075853384404
30
0
10
48.451942104584148
20
-8.2555258994012686
30
0
10
49.227623250656251
20
-8.2069879652398221
30
0
10
49.234448273016426
20
-8.2065608922245161
30
0
10
49.241273295376587
20
-8.2061338192092119
30
0
10
49.248098317736783
20
-8.2057067461939042
30
0
0
SPLINE
5
255
100
AcDbEntity
8
0
100
AcDbSpline
70
0
71
3
72
14
73
10
74
0
42
0.000000001
43
0.0000000001
44
0.0000000001
40
-0.0024296624026398737
40
-0.0024296624026398737
40
-0.0024296624026398737
40
-0.0024296624026398737
40
0
40
0
40
0
40
0.68155639173366411
40
0.68155639173366411
40
0.68155639173366411
40
0.99867833764724856
40
0.99867833764724856
40
0.99867833764724856
40
0.99867833764724856
10
49.248098317736584
20
-8.2057067461912858
30
0
10
49.25493511319474
20
-8.2055599469223068
30
0
10
49.261771908652804
20
-8.2054131476533314
30
0
10
49.268608704110861
20
-8.2052663483843542
30
0
10
51.156196652370404
20
-8.1647361712519988
30
0
10
53.077597237337017
20
-8.0694175776112775
30
0
10
55.108566346722313
20
-7.7443815330213086
30
0
10
56.053557669333721
20
-7.5931452388531433
30
0
10
57.029626407394673
20
-7.3837553409999943
30
0
10
58.067970931365444
20
-7.0859386554282588
30
0
0
SPLINE
5
256
100
AcDbEntity
8
0
100
AcDbSpline
70
0
71
3
72
17
73
13
74
0
42
0.000000001
43
0.0000000001
44
0.0000000001
40
0.0004800381754528575
40
0.0004800381754528575
40
0.0004800381754528575
40
0.0004800381754528575
40
0.22653348175545959
40
0.22653348175545959
40
0.22653348175545959
40
0.49416901288933246
40
0.49416901288933246
40
0.49416901288933246
40
0.76480907534895648
40
0.76480907534895648
40
0.76480907534895648
40
0.99995853750457364
40
0.99995853750457364
40
0.99995853750457364
40
0.99995853750457364
10
58.067970931365466
20
-7.0859386554284161
30
0
10
59.993220178792512
20
-6.4733758423588803
30
0
10
61.580144813954725
20
-5.0740608076179843
30
0
10
62.884373007809664
20
-2.671707603689486
30
0
10
64.428511419744979
20
0.17255376000438027
30
0
10
65.489804055855444
20
4.4297450827031906
30
0
10
66.133164399114833
20
9.4553586202829809
30
0
10
66.783747237447571
20
14.537390725460302
30
0
10
67.037609904366931
20
20.340042368024768
30
0
10
67.045127519426089
20
26.414699642902562
30
0
10
67.051659306042552
20
31.692751894240363
30
0
10
66.871157975200347
20
37.194819800107943
30
0
10
66.531885196422266
20
42.866271582883229
30
0
0
SPLINE
5
257
100
AcDbEntity
8
0
100
AcDbSpline
70
0
71
3
72
8
73
4
74
0
42
0.000000001
43
0.0000000001
44
0.0000000001
40
0
40
0
40
0
40
0
40
0.99084703669360519
40
0.99084703669360519
40
0.99084703669360519
40
0.99084703669360519
10
66.531889718927104
20
42.866271852456059
30
0
10
66.502788395734711
20
43.329321228389205
30
0
10
66.467388764400582
20
44.281244667496026
30
0
10
66.448948571521157
20
45.05287870454125
30
0
0
SPLINE
5
258
100
AcDbEntity
8
0
100
AcDbSpline
70
0
71
3
72
11
73
7
74
0
42
0.000000001
43
0.0000000001
44
0.0000000001
40
0.0034236312380493215
40
0.0034236312380493215
40
0.0034236312380493215
40
0.0034236312380493215
40
0.84841678393213238
40
0.84841678393213238
40
0.84841678393213238
40
0.99827952098473349
40
0.99827952098473349
40
0.99827952098473349
40
0.99827952098473349
10
66.4489485715212
20
45.0528787045413
30
0
10
66.33603199210755
20
46.742970495687565
30
0
10
65.954464431946931
20
48.70748499873639
30
0
10
65.398723865050172
20
50.799239284843516
30
0
10
65.300161169978878
20
51.170219832506021
30
0
10
65.195007656209413
20
51.546261749114493
30
0
10
65.082761281562355
20
51.928027599440576
30
0
0
SPLINE
5
259
100
AcDbEntity
8
0
100
AcDbSpline
70
0
71
3
72
11
73
7
74
0
42
0.000000001
43
0.0000000001
44
0.0000000001
40
0.0089201350543447848
40
0.0089201350543447848
40
0.0089201350543447848
40
0.0089201350543447848
40
0.78626071355039673
40
0.78626071355039673
40
0.78626071355039673
40
0.99161205944593034
40
0.99161205944593034
40
0.99161205944593034
40
0.99161205944593034
10
65.082761281561773
20
51.928027599440476
30
0
10
64.962025728575654
20
52.299519133467683
30
0
10
64.826464928273509
20
52.69478143767855
30
0
10
64.589111339648227
20
53.252188967426235
30
0
10
64.526409249694765
20
53.399440236191147
30
0
10
64.455123845910549
20
53.56073323630747
30
0
10
64.372993240045801
20
53.73982442530442
30
0
0
SPLINE
5
260
100
AcDbEntity
8
0
100
AcDbSpline
70
0
71
3
72
8
73
4
74
0
42
0.000000001
43
0.0000000001
44
0.0000000001
40
0.02723807237607884
40
0.02723807237607884
40
0.02723807237607884
40
0.02723807237607884
40
0.99895175746593856
40
0.99895175746593856
40
0.99895175746593856
40
0.99895175746593856
10
64.372993240042987
20
53.739824425303063
30
0
10
64.229816045570018
20
54.015569124488742
30
0
10
64.042519483365282
20
54.398093396253245
30
0
10
63.923602983476215
20
54.660926542613396
30
0
0
SPLINE
5
261
100
AcDbEntity
8
0
100
AcDbSpline
70
0
71
3
72
11
73
7
74
0
42
0.000000001
43
0.0000000001
44
0.0000000001
40
0
40
0
40
0
40
0
40
0.74084137204816525
40
0.74084137204816525
40
0.74084137204816525
40
0.99982943525775558
40
0.99982943525775558
40
0.99982943525775558
40
0.99982943525775558
10
63.923603333815024
20
54.660926701125916
30
0
10
63.876498506609913
20
54.764808008968828
30
0
10
63.703003346224001
20
55.096888067183833
30
0
10
63.535268466644048
20
55.390959835285123
30
0
10
63.476630635072894
20
55.493763324046313
30
0
10
63.417637076966528
20
55.594662064166727
30
0
10
63.363063759258644
20
55.685224809905122
30
0
0
SPLINE
5
262
100
AcDbEntity
8
0
100
AcDbSpline
70
0
71
3
72
8
73
4
74
0
42
0.000000001
43
0.0000000001
44
0.0000000001
40
0
40
0
40
0
40
0
40
0.99635933912002972
40
0.99635933912002972
40
0.99635933912002972
40
0.99635933912002972
10
63.36306377954002
20
55.685224822377137
30
0
10
63.130220991880563
20
56.071420908688054
30
0
10
62.818249458555648
20
56.597416151307421
30
0
10
62.655858013903028
20
56.877966702943255
30
0
0
SPLINE
5
263
100
AcDbEntity
8
0
100
AcDbSpline
70
0
71
3
72
11
73
7
74
0
42
0.000000001
43
0.0000000001
44
0.0000000001
40
-0.99943846840526063
40
-0.99943846840526063
40
-0.99943846840526063
40
-0.99943846840526063
40
-0.50396264058200146
40
-0.50396264058200146
40
-0.50396264058200146
40
-0.0027401931918249606
40
-0.0027401931918249606
40
-0.0027401931918249606
40
-0.0027401931918249606
10
62.655858013902098
20
56.877966702942722
30
0
10
62.174308750879888
20
57.69643815458484
30
0
10
61.619549106122314
20
58.300905977073086
30
0
10
60.751549515028636
20
58.869751513142681
30
0
10
59.873482705406531
20
59.445194624118201
30
0
10
58.606138724588284
20
60.000828221648007
30
0
10
56.441413968322756
20
60.581032721589594
30
0
0
SPLINE
5
264
100
AcDbEntity
8
0
100
AcDbSpline
70
0
71
3
72
17
73
13
74
0
42
0.000000001
43
0.0000000001
44
0.0000000001
40
0.0081816730022410324
40
0.0081816730022410324
40
0.0081816730022410324
40
0.0081816730022410324
40
0.31789292328719482
40
0.31789292328719482
40
0.31789292328719482
40
0.65894646164359738
40
0.65894646164359738
40
0.65894646164359738
40
0.8933362479527811
40
0.8933362479527811
40
0.8933362479527811
40
0.99984014694164713
40
0.99984014694164713
40
0.99984014694164713
40
0.99984014694164713
10
56.441413968322671
20
60.581032721589679
30
0
10
56.020985715427535
20
60.658459155222708
30
0
10
55.142475868480631
20
60.738153481291704
30
0
10
54.16504280579521
20
60.784400229438589
30
0
10
53.088695065024766
20
60.83532707526178
30
0
10
51.861769962059128
20
60.854662089186192
30
0
10
50.816760279114817
20
60.837848102000535
30
0
10
50.098575100750296
20
60.826292652722849
30
0
10
49.460975591710707
20
60.796500751811664
30
0
10
49.04295671530565
20
60.753827556266188
30
0
10
48.853013966992556
20
60.73443736960543
30
0
10
48.705225344726543
20
60.710210057230029
30
0
10
48.648758584464211
20
60.697155907919004
30
0
0
SPLINE
5
265
100
AcDbEntity
8
0
100
AcDbSpline
70
0
71
3
72
20
73
16
74
0
42
0.000000001
43
0.0000000001
44
0.0000000001
40
0
40
0
40
0
40
0
40
0.18309378889770064
40
0.18309378889770064
40
0.18309378889770064
40
0.31121972262607267
40
0.31121972262607267
40
0.31121972262607267
40
0.44473883772642053
40
0.44473883772642053
40
0.44473883772642053
40
0.68692937322036818
40
0.68692937322036818
40
0.68692937322036818
40
0.9999989758060539
40
0.9999989758060539
40
0.9999989758060539
40
0.9999989758060539
10
48.64875856703825
20
60.697155983237366
30
0
10
48.490755258270191
20
60.66050103696697
30
0
10
48.332138214428298
20
60.601884701466716
30
0
10
48.036936940811245
20
60.586364749451853
30
0
10
47.830360087234176
20
60.575504149781622
30
0
10
47.507719671642178
20
60.609670191531528
30
0
10
47.225353455177498
20
60.795700662100735
30
0
10
46.931101649477313
20
60.989561679065183
30
0
10
46.770983994535761
20
61.275273485732995
30
0
10
46.686863178234297
20
61.504704333778491
30
0
10
46.534276295592612
20
61.920869314389762
30
0
10
46.512679371066945
20
62.292697034922853
30
0
10
46.48030523024768
20
62.860438271200024
30
0
10
46.438456528853678
20
63.594333684785418
30
0
10
46.421327809883159
20
64.62963583151209
30
0
10
46.390045513824774
20
66.160129739160197
30
0
0
SPLINE
5
266
100
AcDbEntity
8
0
100
AcDbSpline
70
0
71
3
72
14
73
10
74
0
42
0.000000001
43
0.0000000001
44
0.0000000001
40
0
40
0
40
0
40
0
40
0.5
40
0.5
40
0.5
40
0.84548212016525315
40
0.84548212016525315
40
0.84548212016525315
40
0.99991925103192125
40
0.99991925103192125
40
0.99991925103192125
40
0.99991925103192125
10
46.390045513938098
20
66.160129739144054
30
0
10
46.365268640605272
20
67.371452484429838
30
0
10
46.332415466849248
20
68.570867312474007
30
0
10
46.299579753104354
20
69.523537343260188
30
0
10
46.276891449100901
20
70.181798267368009
30
0
10
46.254009459530877
20
70.724607969876629
30
0
10
46.234637048240124
20
71.061283204427482
30
0
10
46.225977209009422
20
71.211783488589887
30
0
10
46.217095526012137
20
71.326275918793598
30
0
10
46.213110465099582
20
71.363925266363893
30
0
0
SPLINE
5
267
100
AcDbEntity
8
0
100
AcDbSpline
70
0
71
3
72
11
73
7
74
0
42
0.000000001
43
0.0000000001
44
0.0000000001
40
-8.3051768791827808e-05
40
-8.3051768791827808e-05
40
-8.3051768791827808e-05
40
-8.3051768791827808e-05
40
0
40
0
40
0
40
1
40
1
40
1
40
1
10
46.213110461419078
20
71.363925265974274
30
0
10
46.213106264321759
20
71.363964907629693
30
0
10
46.21310206722444
20
71.364004549285113
30
0
10
46.213097870127122
20
71.364044190940518
30
0
10
46.162173164212163
20
71.845028902817091
30
0
10
46.090579382373427
20
72.546281901295956
30
0
10
46.053133119718517
20
72.935020928328186
30
0
0
SPLINE
5
268
100
AcDbEntity
8
0
100
AcDbSpline
70
0
71
3
72
14
73
10
74
0
42
0.000000001
43
0.0000000001
44
0.0000000001
40
0.00012849385522374748
40
0.00012849385522374748
40
0.00012849385522374748
40
0.00012849385522374748
40
0.5
40
0.5
40
0.5
40
0.86921496843797119
40
0.86921496843797119
40
0.86921496843797119
40
0.99973700342560246
40
0.99973700342560246
40
0.99973700342560246
40
0.99973700342560246
10
46.053132830920298
20
72.935020900467165
30
0
10
45.95874132492856
20
73.907073104164411
30
0
10
45.819229379282582
20
74.998730217956421
30
0
10
45.677745609316389
20
75.923152214920179
30
0
10
45.573242902079812
20
76.605948562054806
30
0
10
45.465849743941497
20
77.203527106192055
30
0
10
45.382687789725182
20
77.569902456417566
30
0
10
45.353289015499463
20
77.699420651422088
30
0
10
45.326172946703487
20
77.800951351302984
30
0
10
45.310835250790255
20
77.850016877107265
30
0
0
SPLINE
5
269
100
AcDbEntity
8
0
100
AcDbSpline
70
0
71
3
72
11
73
7
74
0
42
0.000000001
43
0.0000000001
44
0.0000000001
40
-0.00083158759711250251
40
-0.00083158759711250251
40
-0.00083158759711250251
40
-0.00083158759711250251
40
0
40
0
40
0
40
0.99999229141834467
40
0.99999229141834467
40
0.99999229141834467
40
0.99999229141834467
10
45.310835150529272
20
77.850016845757196
30
0
10
45.310773104201878
20
77.850215309400795
30
0
10
45.310711057882607
20
77.85041377301846
30
0
10
45.310649011571435
20
77.850612236610161
30
0
10
45.235618811839792
20
78.090606567378899
30
0
10
45.028889995926562
20
78.753622509587757
30
0
10
44.850489574194505
20
79.326406936620316
30
0
0
SPLINE
5
270
100
AcDbEntity
8
0
100
AcDbSpline
70
0
71
3
72
17
73
13
74
0
42
0.000000001
43
0.0000000001
44
0.0000000001
40
-3.5669522432153662e-06
40
-3.5669522432153662e-06
40
-3.5669522432153662e-06
40
-3.5669522432153662e-06
40
0
40
0
40
0
40
0.73140437422999927
40
0.73140437422999927
40
0.73140437422999927
40
1
40
1
40
1
40
1.000107155532197
40
1.000107155532197
40
1.000107155532197
40
1.000107155532197
10
44.850489573995354
20
79.32640693654173
30
0
10
44.850487107221007
20
79.326414856841254
30
0
10
44.850484640345336
20
79.326422777466078
30
0
10
44.850482173368349
20
79.326430698416218
30
0
10
44.402798307713766
20
80.763850503333032
30
0
10
43.324355220265538
20
82.63383685306259
30
0
10
42.197898909769272
20
83.965643835397543
30
0
10
41.78422728258105
20
84.454726950605462
30
0
10
41.364514765500751
20
84.873407744251239
30
0
10
40.986952231689088
20
85.175421706636342
30
0
10
40.98677469412852
20
85.175563719726455
30
0
10
40.986597156574604
20
85.175705732811267
30
0
10
40.986419619046103
20
85.175847745875743
30
0
0
SPLINE
5
271
100
AcDbEntity
8
0
100
AcDbSpline
70
0
71
3
72
11
73
7
74
0
42
0.000000001
43
0.0000000001
44
0.0000000001
40
0.00023379797511149862
40
0.00023379797511149862
40
0.00023379797511149862
40
0.00023379797511149862
40
0.82309416061698115
40
0.82309416061698115
40
0.82309416061698115
40
1
40
1
40
1
40
1
10
40.98641971786342
20
85.17584787036165
30
0
10
40.62671089266064
20
85.463761018550912
30
0
10
40.216477195180246
20
85.809252428912856
30
0
10
39.942616066301838
20
86.054990125942012
30
0
10
39.883738965060658
20
86.107821001670928
30
0
10
39.831104693302521
20
86.156059678096199
30
0
10
39.782775492761637
20
86.202240268658983
30
0
0
SPLINE
5
272
100
AcDbEntity
8
0
100
AcDbSpline
70
0
71
3
72
14
73
10
74
0
42
0.000000001
43
0.0000000001
44
0.0000000001
40
5.3521322597910392e-05
40
5.3521322597910392e-05
40
5.3521322597910392e-05
40
5.3521322597910392e-05
40
0.33748466411976086
40
0.33748466411976086
40
0.33748466411976086
40
0.85069148788071891
40
0.85069148788071891
40
0.85069148788071891
40
0.99999781792803033
40
0.99999781792803033
40
0.99999781792803033
40
0.99999781792803033
10
39.782775261042666
20
86.202240024257733
30
0
10
38.650700534266235
20
87.28200050868773
30
0
10
36.530818782614162
20
88.126278742959613
30
0
10
33.977768568625486
20
88.515317490828323
30
0
10
30.094775492284054
20
89.107015513893359
30
0
10
25.254882531666929
20
88.692647821054678
30
0
10
21.491099586845593
20
87.316966940047308
30
0
10
20.396109043914535
20
86.916742597443616
30
0
10
19.392391634927474
20
86.437257617047237
30
0
10
18.52845534510433
20
85.889256621894404
30
0
0
SPLINE
5
273
100
AcDbEntity
8
0
100
AcDbSpline
70
0
71
3
72
8
73
4
74
0
42
0.000000001
43
0.0000000001
44
0.0000000001
40
0
40
0
40
0
40
0
40
0.9999827725208732
40
0.9999827725208732
40
0.9999827725208732
40
0.9999827725208732
10
18.528455344511134
20
85.88925662280954
30
0
10
17.065437904409819
20
84.9611543378807
30
0
10
16.686233159059757
20
84.658262540584843
30
0
10
15.477584017836152
20
83.451435629362607
30
0
0
SPLINE
5
274
100
AcDbEntity
8
0
100
AcDbSpline
70
0
71
3
72
11
73
7
74
0
42
0.000000001
43
0.0000000001
44
0.0000000001
40
-2.5321589575050168e-05
40
-2.5321589575050168e-05
40
-2.5321589575050168e-05
40
-2.5321589575050168e-05
40
0
40
0
40
0
40
0.99999293217752627
40
0.99999293217752627
40
0.99999293217752627
40
0.99999293217752627
10
15.477584025275149
20
83.451435621840844
30
0
10
15.477543800469855
20
83.451395464199734
30
0
10
15.477503575560213
20
83.451355306454445
30
0
10
15.477463350546225
20
83.451315148605005
30
0
10
13.945137068777784
20
81.921547423626464
30
0
10
13.17062360695207
20
80.809316934731214
30
0
10
12.553910144569549
20
79.306378111062713
30
0
0
SPLINE
5
275
100
AcDbEntity
8
0
100
AcDbSpline
70
0
71
3
72
20
73
16
74
0
42
0.000000001
43
0.0000000001
44
0.0000000001
40
-3.5636744998309499e-05
40
-3.5636744998309499e-05
40
-3.5636744998309499e-05
40
-3.5636744998309499e-05
40
0
40
0
40
0
40
0.5444825098175049
40
0.5444825098175049
40
0.5444825098175049
40
0.930071676808366
40
0.930071676808366
40
0.930071676808366
40
1
40
1
40
1
40
1.0011358849037453
40
1.0011358849037453
40
1.0011358849037453
40
1.0011358849037453
10
12.553910146233287
20
79.306378110330641
30
0
10
12.55390127370304
20
79.306356489895578
30
0
10
12.553892401172796
20
79.306334869460514
30
0
10
12.553883528642549
20
79.306313249025436
30
0
10
12.415967833541433
20
78.970242562527758
30
0
10
12.273788546211492
20
78.632594589696637
30
0
10
12.158445718704403
20
78.365806916464805
30
0
10
12.076762755569854
20
78.176874425833702
30
0
10
12.012085742941727
20
78.030270238614037
30
0
10
11.958658649777425
20
77.918773402607314
30
0
10
11.948969407034589
20
77.898552951799616
30
0
10
11.939501583446548
20
77.879164126742012
30
0
10
11.92847834841948
20
77.857615835642207
30
0
10
11.928392098340129
20
77.857447233429454
30
0
10
11.928305848262081
20
77.857278631219245
30
0
10
11.928219598187347
20
77.857110029015516
30
0
0
SPLINE
5
276
100
AcDbEntity
8
0
100
AcDbSpline
70
0
71
3
72
14
73
10
74
0
42
0.000000001
43
0.0000000001
44
0.0000000001
40
-4.3175762014393648e-06
40
-4.3175762014393648e-06
40
-4.3175762014393648e-06
40
-4.3175762014393648e-06
40
0
40
0
40
0
40
0.30939969797679018
40
0.30939969797679018
40
0.30939969797679018
40
0.99999517105536517
40
0.99999517105536517
40
0.99999517105536517
40
0.99999517105536517
10
11.928219454752337
20
77.857110102499249
30
0
10
11.928216172753928
20
77.857103696148528
30
0
10
11.928212890756129
20
77.857097289798986
30
0
10
11.92820960875833
20
77.857090883449445
30
0
10
11.790268948703471
20
77.587835345157387
30
0
10
11.576610662755648
20
76.877720799545685
30
0
10
11.419665559485248
20
75.947824684039574
30
0
10
11.069356304016878
20
73.872250428469215
30
0
10
10.890270979061141
20
70.628504044725474
30
0
10
10.99264301382985
20
67.228328168908575
30
0
0
SPLINE
5
277
100
AcDbEntity
8
0
100
AcDbSpline
70
0
71
3
72
23
73
19
74
0
42
0.000000001
43
0.0000000001
44
0.0000000001
40
-3.022348960717448e-05
40
-3.022348960717448e-05
40
-3.022348960717448e-05
40
-3.022348960717448e-05
40
0
40
0
40
0
40
0.5
40
0.5
40
0.5
40
0.75
40
0.75
40
0.75
40
0.88853270036002718
40
0.88853270036002718
40
0.88853270036002718
40
0.98878610565195135
40
0.98878610565195135
40
0.98878610565195135
40
1
40
1
40
1
40
1
10
10.992643021586446
20
67.228328169096741
30
0
10
10.992644461043477
20
67.228280245439393
30
0
10
10.992645900500563
20
67.228232321780197
30
0
10
10.992647339957704
20
67.228184398119154
30
0
10
11.016646016788396
20
66.42919954457038
30
0
10
11.032057514131077
20
65.671189926976183
30
0
10
11.037571005018719
20
65.08713539300976
30
0
10
11.040327750462541
20
64.795108126026534
30
0
10
11.040656268718598
20
64.547276889346364
30
0
10
11.038107579888461
20
64.353869028454383
30
0
10
11.036695272904396
20
64.246695775493492
30
0
10
11.03458525100584
20
64.157527106298616
30
0
10
11.030533003528763
20
64.076647718169369
30
0
10
11.027600471299142
20
64.01811688713228
30
0
10
11.02808199285354
20
63.978212013983637
30
0
10
11.011091413540067
20
63.873623898252418
30
0
10
11.009190923868132
20
63.861925142719322
30
0
10
11.006930140479309
20
63.848995551827343
30
0
10
11.003958152687201
20
63.83398380436067
30
0
0
SPLINE
5
278
100
AcDbEntity
8
0
100
AcDbSpline
70
0
71
3
72
17
73
13
74
0
42
0.000000001
43
0.0000000001
44
0.0000000001
40
1.0949318279309133e-05
40
1.0949318279309133e-05
40
1.0949318279309133e-05
40
1.0949318279309133e-05
40
0.15866325422712263
40
0.15866325422712263
40
0.15866325422712263
40
0.36019641137780778
40
0.36019641137780778
40
0.36019641137780778
40
0.75418325854929036
40
0.75418325854929036
40
0.75418325854929036
40
1
40
1
40
1
40
1
10
11.003958152929883
20
63.833983804773339
30
0
10
10.969481665926233
20
63.659852493750783
30
0
10
10.847545933617981
20
63.375498872605796
30
0
10
10.647833389785017
20
63.190050399381178
30
0
10
10.394142152810064
20
62.954478553644634
30
0
10
10.144871045859405
20
62.89290739725368
30
0
10
9.9430458212166393
20
62.852596360548219
30
0
10
9.5484879972788885
20
62.773790379029634
30
0
10
9.152660112086723
20
62.772307751898644
30
0
10
8.4351919494567049
20
62.771966277786504
30
0
10
7.9875483616097833
20
62.771753224853043
30
0
10
7.425976667031307
20
62.778152847639987
30
0
10
6.7119461522298005
20
62.788584507658385
30
0
0
LINE
5
279
100
AcDbEntity
8
0
100
AcDbLine
10
6.7119461522298005
20
62.788584507658392
30
0
11
2.4495486390292776
21
62.850548209663735
31
0
0
LINE
5
280
100
AcDbEntity
8
0
100
AcDbLine
10
2.4495486390292776
20
62.850548209663735
30
0
11
2.5741983186145037
21
66.214691997507472
31
0
0
SPLINE
5
281
100
AcDbEntity
8
0
100
AcDbSpline
70
0
71
3
72
14
73
10
74
0
42
0.000000001
43
0.0000000001
44
0.0000000001
40
5.2941640177026057e-08
40
5.2941640177026057e-08
40
5.2941640177026057e-08
40
5.2941640177026057e-08
40
0.41083222825688875
40
0.41083222825688875
40
0.41083222825688875
40
0.73709462616029375
40
0.73709462616029375
40
0.73709462616029375
40
1
40
1
40
1
40
1
10
2.5741983186122974
20
66.214691997507458
30
0
10
2.7742154674383475
20
71.613220588412162
30
0
10
2.4213794033441127
20
75.438402867263875
30
0
10
1.3828064511713563
20
78.054115558081861
30
0
10
0.55802367578748968
20
80.131383956249039
30
0
10
-0.64291168238655938
20
81.473006962267078
30
0
10
-2.4946206386871488
20
82.466980642036361
30
0
10
-3.9867455005373662
20
83.267934179881507
30
0
10
-5.9269158573741461
20
83.818426870524576
30
0
10
-8.390710293687432
20
84.177529898421255
30
0
0
SPLINE
5
282
100
AcDbEntity
8
0
100
AcDbSpline
70
0
71
3
72
14
73
10
74
0
42
0.000000001
43
0.0000000001
44
0.0000000001
40
0
40
0
40
0
40
0
40
0.3910542187604657
40
0.3910542187604657
40
0.3910542187604657
40
0.72903673566178395
40
0.72903673566178395
40
0.72903673566178395
40
0.99999944842605804
40
0.99999944842605804
40
0.99999944842605804
40
0.99999944842605804
10
-8.3907200680943141
20
84.177531323110145
30
0
10
-13.487511343147771
20
84.920450385768078
30
0
10
-17.37173991438026
20
84.42154395999242
30
0
10
-20.197374518488999
20
82.774109438542339
30
0
10
-22.63952972235629
20
81.350255560287962
30
0
10
-24.376399494644701
20
79.057631179618838
30
0
10
-25.482498227097246
20
75.666714499105666
30
0
10
-26.36926454826164
20
72.948195236827544
30
0
10
-26.824266677571323
20
69.533169586358511
30
0
10
-26.831738578506599
20
65.413350809252208
30
0
0
SPLINE
5
283
100
AcDbEntity
8
0
100
AcDbSpline
70
0
71
3
72
8
73
4
74
0
42
0.000000001
43
0.0000000001
44
0.0000000001
40
0
40
0
40
0
40
0
40
0.9999626666232857
40
0.9999626666232857
40
0.9999626666232857
40
0.9999626666232857
10
-26.831738578828656
20
65.413350809233052
30
0
10
-26.833276473580938
20
64.553252505468734
30
0
10
-26.974347257138852
20
63.58151299963432
30
0
10
-27.221706182184853
20
62.792295723744125
30
0
0
SPLINE
5
284
100
AcDbEntity
8
0
100
AcDbSpline
70
0
71
3
72
17
73
13
74
0
42
0.000000001
43
0.0000000001
44
0.0000000001
40
-2.6978899157986391e-05
40
-2.6978899157986391e-05
40
-2.6978899157986391e-05
40
-2.6978899157986391e-05
40
0
40
0
40
0
40
0.46648118903795904
40
0.46648118903795904
40
0.46648118903795904
40
0.96473194007230845
40
0.96473194007230845
40
0.96473194007230845
40
0.99999747324703281
40
0.99999747324703281
40
0.99999747324703281
40
0.99999747324703281
10
-27.221706170992949
20
62.792295720385113
30
0
10
-27.221723573746086
20
62.792240214255195
30
0
10
-27.221740976506489
20
62.792184708102106
30
0
10
-27.221758379274149
20
62.792129201925846
30
0
10
-27.504110597830426
20
61.891566009146018
30
0
10
-28.039236101894364
20
59.876121993716964
30
0
10
-28.559635421614015
20
57.793297417334877
30
0
10
-29.115476381509573
20
55.568622695519409
30
0
10
-29.664769061738475
20
53.231171639962788
30
0
10
-29.907277394987961
20
52.008690022244586
30
0
10
-29.924441816022153
20
51.92216438037525
30
0
10
-29.940040681977781
20
51.841416423580768
30
0
10
-29.953935769863904
20
51.767144773772891
30
0
0
SPLINE
5
285
100
AcDbEntity
8
0
100
AcDbSpline
70
0
71
3
72
11
73
7
74
0
42
0.000000001
43
0.0000000001
44
0.0000000001
40
-1.7215607515184814e-06
40
-1.7215607515184814e-06
40
-1.7215607515184814e-06
40
-1.7215607515184814e-06
40
0
40
0
40
0
40
1
40
1
40
1
40
1
10
-29.953935769506167
20
51.767144773705702
30
0
10
-29.95393771453983
20
51.76713437800197
30
0
10
-29.953939659513416
20
51.767123982619331
30
0
10
-29.95394160442693
20
51.767113587557773
30
0
10
-31.05684113007419
20
45.872399823420473
30
0
10
-31.507284372550881
20
36.17851778067692
30
0
10
-30.994614105828742
20
29.040152725534053
30
0
0
SPLINE
5
286
100
AcDbEntity
8
0
100
AcDbSpline
70
0
71
3
72
8
73
4
74
0
42
0.000000001
43
0.0000000001
44
0.0000000001
40
2.2656570105206266e-05
40
2.2656570105206266e-05
40
2.2656570105206266e-05
40
2.2656570105206266e-05
40
0.9999946380990099
40
0.9999946380990099
40
0.9999946380990099
40
0.9999946380990099
10
-30.994614101668798
20
29.040152725835075
30
0
10
-30.898169784914629
20
27.698985749871021
30
0
10
-30.738920028885435
20
25.432673249575195
30
0
10
-30.640132894925273
20
23.999924866155791
30
0
0
SPLINE
5
287
100
AcDbEntity
8
0
100
AcDbSpline
70
0
71
3
72
11
73
7
74
0
42
0.000000001
43
0.0000000001
44
0.0000000001
40
0
40
0
40
0
40
0
40
0.61990202831312602
40
0.61990202831312602
40
0.61990202831312602
40
0.9999843463047785
40
0.9999843463047785
40
0.9999843463047785
40
0.9999843463047785
10
-30.640132895188493
20
23.999924866097771
30
0
10
-30.498112305429323
20
21.940837314906616
30
0
10
-30.218124459255364
20
18.646259383360682
30
0
10
-29.974568497916426
20
16.059053436103238
30
0
10
-29.825236329092434
20
14.472752393934865
30
0
10
-29.687205167579922
20
13.136234867463671
30
0
10
-29.609911567402342
20
12.556658133117541
30
0
0
SPLINE
5
288
100
AcDbEntity
8
0
100
AcDbSpline
70
0
71
3
72
17
73
13
74
0
42
0.000000001
43
0.0000000001
44
0.0000000001
40
-1.7769788382274407e-05
40
-1.7769788382274407e-05
40
-1.7769788382274407e-05
40
-1.7769788382274407e-05
40
0
40
0
40
0
40
0.39361586045152358
40
0.39361586045152358
40
0.39361586045152358
40
0.70486951238009232
40
0.70486951238009232
40
0.70486951238009232
40
1
40
1
40
1
40
1
10
-29.609911559787125
20
12.556658133851959
30
0
10
-29.609905193816111
20
12.556610375079952
30
0
10
-29.6098988278451
20
12.556562616307946
30
0
10
-29.60989246187409
20
12.556514857535941
30
0
10
-29.468818436640678
20
11.498149653917801
30
0
10
-29.360163498288635
20
10.821503619623545
30
0
10
-29.430150571247605
20
10.127442142260501
30
0
10
-29.48549318884762
20
9.5786096606517201
30
0
10
-29.70905897040862
20
9.0452747524593082
30
0
10
-30.027782695166447
20
8.6081827508801574
30
0
10
-30.329996300439738
20
8.1937324311440811
30
0
10
-30.697128893944488
20
7.8231304264688539
30
0
10
-31.187035665547143
20
7.3174419402029534
30
0
0
SPLINE
5
289
100
AcDbEntity
8
0
100
AcDbSpline
70
0
71
3
72
11
73
7
74
0
42
0.000000001
43
0.0000000001
44
0.0000000001
40
8.4790328101444393e-07
40
8.4790328101444393e-07
40
8.4790328101444393e-07
40
8.4790328101444393e-07
40
0.6063822114630818
40
0.6063822114630818
40
0.6063822114630818
40
0.99999666742861448
40
0.99999666742861448
40
0.99999666742861448
40
0.99999666742861448
10
-31.187035665247997
20
7.3174419399129569
30
0
10
-35.882778855975552
20
2.4701460901912622
30
0
10
-37.616604592538955
20
-3.1673866439783938
30
0
10
-36.577770702595309
20
-8.3717941873403099
30
0
10
-35.90344253058776
20
-11.750080801851823
30
0
10
-34.053329771029993
20
-14.971272732372064
30
0
10
-30.964996383542875
20
-17.701034521278125
30
0
0
SPLINE
5
290
100
AcDbEntity
8
0
100
AcDbSpline
70
0
71
3
72
14
73
10
74
0
42
0.000000001
43
0.0000000001
44
0.0000000001
40
0
40
0
40
0
40
0
40
0.90047326429830432
40
0.90047326429830432
40
0.90047326429830432
40
1
40
1
40
1
40
1.0000052488533431
40
1.0000052488533431
40
1.0000052488533431
40
1.0000052488533431
10
-30.964996387397981
20
-17.701034525528339
30
0
10
-29.342685020016948
20
-19.13467047344821
30
0
10
-28.546010474052245
20
-19.749959994350814
30
0
10
-25.72238505670693
20
-21.675226058117314
30
0
10
-25.410297811283037
20
-21.888020212348252
30
0
10
-25.073888759427867
20
-22.116445612898119
30
0
10
-24.709553419001207
20
-22.363191947038029
30
0
10
-24.709534172187929
20
-22.363204981954198
30
0
10
-24.70951492540555
20
-22.363218016849444
30
0
10
-24.709495678710482
20
-22.363231051685553
30
0
0
SPLINE
5
291
100
AcDbEntity
8
0
100
AcDbSpline
70
0
71
3
72
20
73
16
74
0
42
0.000000001
43
0.0000000001
44
0.0000000001
40
9.4768433160406674e-06
40
9.4768433160406674e-06
40
9.4768433160406674e-06
40
9.4768433160406674e-06
40
0.5
40
0.5
40
0.5
40
0.75
40
0.75
40
0.75
40
0.875
40
0.875
40
0.875
40
0.96007278715251776
40
0.96007278715251776
40
0.96007278715251776
40
0.99118071002436459
40
0.99118071002436459
40
0.99118071002436459
40
0.99118071002436459
10
-24.709495679818506
20
-22.363231053163432
30
0
10
-24.20093184621976
20
-22.707683008680092
30
0
10
-23.740605698897568
20
-23.044851087859474
30
0
10
-23.388152383143577
20
-23.327934927965458
30
0
10
-23.211922385058426
20
-23.469479530810496
30
0
10
-23.064594537844989
20
-23.594591041996896
30
0
10
-22.934775395731272
20
-23.72097480658018
30
0
10
-22.869865824674417
20
-23.784166688871821
30
0
10
-22.810006578144272
20
-23.844441475420616
30
0
10
-22.73842565077495
20
-23.936644763925251
30
0
10
-22.689708938788794
20
-23.999396689826987
30
0
10
-22.630831973259365
20
-24.065304497446437
30
0
10
-22.562340604030638
20
-24.243589224640129
30
0
10
-22.53729588288456
20
-24.308781252883271
30
0
10
-22.51038319811521
20
-24.392333929038781
30
0
10
-22.497840258274383
20
-24.510196383676291
30
0
0
SPLINE
5
292
100
AcDbEntity
8
0
100
AcDbSpline
70
0
71
3
72
11
73
7
74
0
42
0.000000001
43
0.0000000001
44
0.0000000001
40
0.28307340911792206
40
0.28307340911792206
40
0.28307340911792206
40
0.28307340911792206
40
0.75430330127428391
40
0.75430330127428391
40
0.75430330127428391
40
0.99998331101287596
40
0.99998331101287596
40
0.99998331101287596
40
0.99998331101287596
10
-22.497840258274536
20
-24.510196383676316
30
0
10
-22.483038217931362
20
-24.561939210103382
30
0
10
-22.430699000410467
20
-24.712324100607152
30
0
10
-22.368377519277072
20
-24.860434527546968
30
0
10
-22.33588564567858
20
-24.93765325186526
30
0
10
-22.29989354958893
20
-25.018070053575187
30
0
10
-22.263119620488698
20
-25.094974542018306
30
0
0
SPLINE
5
293
100
AcDbEntity
8
0
100
AcDbSpline
70
0
71
3
72
11
73
7
74
0
42
0.000000001
43
0.0000000001
44
0.0000000001
40
-2.7905340164531371e-05
40
-2.7905340164531371e-05
40
-2.7905340164531371e-05
40
-2.7905340164531371e-05
40
0
40
0
40
0
40
0.9998810409854807
40
0.9998810409854807
40
0.9998810409854807
40
0.9998810409854807
10
-22.263119620104248
20
-25.094974541833338
30
0
10
-22.263114606811548
20
-25.094985026395157
30
0
10
-22.263109593641701
20
-25.094995510700056
30
0
10
-22.2631045805947
20
-25.095005994748032
30
0
10
-22.082861593730634
20
-25.471957601574353
30
0
10
-21.694433713635874
20
-26.286366174576834
30
0
10
-21.398780603587891
20
-26.90678560323142
30
0
0
SPLINE
5
294
100
AcDbEntity
8
0
100
AcDbSpline
70
0
71
3
72
14
73
10
74
0
42
0.000000001
43
0.0000000001
44
0.0000000001
40
-1.9081437241554919e-05
40
-1.9081437241554919e-05
40
-1.9081437241554919e-05
40
-1.9081437241554919e-05
40
0
40
0
40
0
40
0.7369260679368641
40
0.7369260679368641
40
0.7369260679368641
40
1
40
1
40
1
40
1
10
-21.398780526594152
20
-26.906785566585889
30
0
10
-21.398711688467692
20
-26.906930108883095
30
0
10
-21.398642850344658
20
-26.907074651173126
30
0
10
-21.398574012225037
20
-26.907219193455969
30
0
10
-18.796972870538944
20
-32.36991007124783
30
0
10
-15.828198630717928
20
-35.886035598632724
30
0
10
-11.330582967129244
20
-38.624426590830616
30
0
10
-9.7249871156463552
20
-39.601999942063316
30
0
10
-7.9193372194856346
20
-40.47803330245025
30
0
10
-5.8609662964695408
20
-41.292855109601938
30
0
0
SPLINE
5
295
100
AcDbEntity
8
0
100
AcDbSpline
70
0
71
3
72
8
73
4
74
0
42
0.000000001
43
0.0000000001
44
0.0000000001
40
4.6426298399545305e-06
40
4.6426298399545305e-06
40
4.6426298399545305e-06
40
4.6426298399545305e-06
40
0.99999830875434703
40
0.99999830875434703
40
0.99999830875434703
40
0.99999830875434703
10
-5.8609662962562297
20
-41.292855109071347
30
0
10
-3.6481018077721199
20
-42.168745901575321
30
0
10
0.2266330237890164
20
-43.311939132100512
30
0
10
2.5863817271659446
20
-43.784501078520854
30
0
0
SPLINE
5
296
100
AcDbEntity
8
0
100
AcDbSpline
70
0
71
3
72
8
73
4
74
0
42
0.000000001
43
0.0000000001
44
0.0000000001
40
0
40
0
40
0
40
0
40
0.99999238934199863
40
0.99999238934199863
40
0.99999238934199863
40
0.99999238934199863
10
2.586381727161017
20
-43.784501078598922
30
0
10
7.4415173625840296
20
-44.756723589879471
30
0
10
13.081219024512373
20
-45.185741434896123
30
0
10
17.124196156201844
20
-44.906450736431651
30
0
0
SPLINE
5
297
100
AcDbEntity
8
0
100
AcDbSpline
70
0
71
3
72
14
73
10
74
0
42
0.000000001
43
0.0000000001
44
0.0000000001
40
0
40
0
40
0
40
0
40
0.59368357111015135
40
0.59368357111015135
40
0.59368357111015135
40
1
40
1
40
1
40
1.0000448315310155
40
1.0000448315310155
40
1.0000448315310155
40
1.0000448315310155
10
17.124196156472888
20
-44.906450740843688
30
0
10
18.876028682612578
20
-44.785265083215052
30
0
10
21.084295382808619
20
-44.439222072472155
30
0
10
22.90374862688331
20
-44.029915647609208
30
0
10
24.148980566318798
20
-43.749786749042926
30
0
10
25.232211847607061
20
-43.427307429323221
30
0
10
25.791693702504155
20
-43.180629671212031
30
0
10
25.791769273282238
20
-43.1805963517577
30
0
10
25.791844844022158
20
-43.180563032320187
30
0
10
25.791920414738684
20
-43.180529712892984
30
0
0
SPLINE
5
298
100
AcDbEntity
8
0
100
AcDbSpline
70
0
71
3
72
8
73
4
74
0
42
0.000000001
43
0.0000000001
44
0.0000000001
40
0.00013251087603280185
40
0.00013251087603280185
40
0.00013251087603280185
40
0.00013251087603280185
40
1
40
1
40
1
40
1
10
25.791920420864916
20
-43.18052973339762
30
0
10
26.129294080665947
20
-43.031827438366228
30
0
10
26.715727550341239
20
-42.797136510499882
30
0
10
27.165888126469731
20
-42.628777290892195
30
0
0
SPLINE
5
299
100
AcDbEntity
8
0
100
AcDbSpline
70
0
71
3
72
17
73
13
74
0
42
0.000000001
43
0.0000000001
44
0.0000000001
40
2.628510511345695e-05
40
2.628510511345695e-05
40
2.628510511345695e-05
40
2.628510511345695e-05
40
0.52874314485882723
40
0.52874314485882723
40
0.52874314485882723
40
0.92480885421503412
40
0.92480885421503412
40
0.92480885421503412
40
1
40
1
40
1
40
1.004374858005338
40
1.004374858005338
40
1.004374858005338
40
1.004374858005338
10
27.16588811563166
20
-42.628777260639914
30
0
10
28.673171870716647
20
-42.064592760247201
30
0
10
30.866437249801123
20
-40.733352880573108
30
0
10
32.751229271256008
20
-39.287505091521751
30
0
10
34.163140912042692
20
-38.204409821099546
30
0
10
35.423291775872727
20
-37.042010693038762
30
0
10
36.136780240080469
20
-36.151736179654357
30
0
10
36.272232549787716
20
-35.98272189959124
30
0
10
36.387663055977065
20
-35.824460609769481
30
0
10
36.48008454167713
20
-35.682756324717076
30
0
10
36.486718260606217
20
-35.672585243923848
30
0
10
36.493351979535305
20
-35.662414163130613
30
0
10
36.499985698464357
20
-35.652243082337442
30
0
0
SPLINE
5
300
100
AcDbEntity
8
0
100
AcDbSpline
70
0
71
3
72
17
73
13
74
0
42
0.000000001
43
0.0000000001
44
0.0000000001
40
-0.0049435211447186964
40
-0.0049435211447186964
40
-0.0049435211447186964
40
-0.0049435211447186964
40
0
40
0
40
0
40
0.44256720714960973
40
0.44256720714960973
40
0.44256720714960973
40
0.88803698004938669
40
0.88803698004938669
40
0.88803698004938669
40
0.9981384684704131
40
0.9981384684704131
40
0.9981384684704131
40
0.9981384684704131
10
36.499985698464108
20
-35.65224308233423
30
0
10
36.507341907495757
20
-35.642581648669001
30
0
10
36.514698116527612
20
-35.632920215003487
30
0
10
36.522054325559445
20
-35.623258781338009
30
0
10
37.180497007323375
20
-34.75847907417468
30
0
10
37.548404548410815
20
-34.278535648782118
30
0
10
37.862700751900597
20
-33.847810969141811
30
0
10
38.179058259031763
20
-33.414261392666226
30
0
10
38.481974507774368
20
-32.973982515904005
30
0
10
39.109919875300307
20
-32.023898721198762
30
0
10
39.265121695530759
20
-31.789077760753308
30
0
10
39.439061965120963
20
-31.524674105675608
30
0
10
39.633189694172998
20
-31.228483869730113
30
0
0
SPLINE
5
301
100
AcDbEntity
8
0
100
AcDbSpline
70
0
71
3
72
11
73
7
74
0
42
0.000000001
43
0.0000000001
44
0.0000000001
40
0.0076198462852588994
40
0.0076198462852588994
40
0.0076198462852588994
40
0.0076198462852588994
40
0.66398307890859298
40
0.66398307890859298
40
0.66398307890859298
40
0.99996904209879744
40
0.99996904209879744
40
0.99996904209879744
40
0.99996904209879744
10
39.633189694172927
20
-31.22848386973007
30
0
10
39.881759067751148
20
-30.816211502795412
30
0
10
40.360214371288308
20
-29.890063144101479
30
0
10
40.830412798818898
20
-28.90169746311723
30
0
10
41.071102806595505
20
-28.395762671519599
30
0
10
41.313362802685852
20
-27.868100504227197
30
0
10
41.532606660924209
20
-27.369040921867285
30
0
0
SPLINE
5
302
100
AcDbEntity
8
0
100
AcDbSpline
70
0
71
3
72
8
73
4
74
0
42
0.000000001
43
0.0000000001
44
0.0000000001
40
0
40
0
40
0
40
0
40
0.99999017707543814
40
0.99999017707543814
40
0.99999017707543814
40
0.99999017707543814
10
41.53260667154116
20
-27.369040926526562
30
0
10
42.837257590583128
20
-24.398053398156584
30
0
10
44.19131501346952
20
-19.516336611331646
30
0
10
45.00011130879804
20
-14.764552107519425
30
0
0
ENDSEC
0
SECTION
2
OBJECTS
0
DICTIONARY
5
C
100
AcDbDictionary
3
ACAD_GROUP
350
D
3
ACAD_MLINESTYLE
350
17
0
DICTIONARY
5
D
100
AcDbDictionary
0
DICTIONARY
5
1A
330
C
100
AcDbDictionary
0
DICTIONARY
5
17
100
AcDbDictionary
0
ENDSEC
0
EOF
