0
SECTION
2
HEADER
9
$INSUNITS
70
4
9
$ACADVER
1
AC1014
9
$HANDSEED
5
FFFF
0
ENDSEC
0
SECTION
2
TABLES
0
TABLE
2
VPORT
5
8
100
AcDbSymbolTable
0
ENDTAB
0
TABLE
2
LTYPE
5
5
100
AcDbSymbolTable
0
LTYPE
5
14
100
AcDbSymbolTableRecord
100
AcDbLinetypeTableRecord
2
BYBLOCK
70
0
0
LTYPE
5
15
100
AcDbSymbolTableRecord
100
AcDbLinetypeTableRecord
2
BYLAYER
70
0
0
LTYPE
5
16
100
AcDbSymbolTableRecord
100
AcDbLinetypeTableRecord
2
DASHED
70
0
3
Dashed __ __ __ __ __ __ __ __ __ __ __ __ __ _
72
65
73
2
40
0.75
49
0.5
74
0
49
-0.25
74
0
0
ENDTAB
0
TABLE
2
LAYER
5
2
100
AcDbSymbolTable
70
2
0
LAYER
5
50
100
AcDbSymbolTableRecord
100
AcDbLayerTableRecord
2
0
70
0
62
7
6
CONTINUOUS
0
ENDTAB
0
TABLE
2
STYLE
5
3
100
AcDbSymbolTable
70
1
0
STYLE
5
11
100
AcDbSymbolTableRecord
100
AcDbTextStyleTableRecord
2
STANDARD
70
0
0
ENDTAB
0
TABLE
2
VIEW
5
6
100
AcDbSymbolTable
70
0
0
ENDTAB
0
TABLE
2
UCS
5
7
100
AcDbSymbolTable
70
0
0
ENDTAB
0
TABLE
2
APPID
5
9
100
AcDbSymbolTable
70
2
0
APPID
5
12
100
AcDbSymbolTableRecord
100
AcDbRegAppTableRecord
2
ACAD
70
0
0
ENDTAB
0
TABLE
2
DIMSTYLE
5
A
100
AcDbSymbolTable
70
1
0
ENDTAB
0
TABLE
2
BLOCK_RECORD
5
1
100
AcDbSymbolTable
70
1
0
BLOCK_RECORD
5
1F
100
AcDbSymbolTableRecord
100
AcDbBlockTableRecord
2
*MODEL_SPACE
0
BLOCK_RECORD
5
1B
100
AcDbSymbolTableRecord
100
AcDbBlockTableRecord
2
*PAPER_SPACE
0
ENDTAB
0
ENDSEC
0
SECTION
2
BLOCKS
0
BLOCK
5
20
100
AcDbEntity
100
AcDbBlockBegin
2
*MODEL_SPACE
0
ENDBLK
5
21
100
AcDbEntity
100
AcDbBlockEnd
0
BLOCK
5
1C
100
AcDbEntity
100
AcDbBlockBegin
2
*PAPER_SPACE
0
ENDBLK
5
1D
100
AcDbEntity
100
AcDbBlockEnd
0
ENDSEC
0
SECTION
2
ENTITIES
0
SPLINE
5
100
100
AcDbEntity
8
0
100
AcDbSpline
70
0
71
3
72
8
73
4
74
0
42
0.000000001
43
0.0000000001
44
0.0000000001
40
-1
40
-1
40
-1
40
-1
40
0
40
0
40
0
40
0
10
47.082496269784599
20
48.0160264945821
30
0
10
47.767456417571275
20
23.843509053379229
30
0
10
47.78643668475172
20
12.486451023193217
30
0
10
47.164653212754395
20
-0.91298178945155906
30
0
0
SPLINE
5
101
100
AcDbEntity
8
0
100
AcDbSpline
70
0
71
3
72
14
73
10
74
0
42
0.000000001
43
0.0000000001
44
0.0000000001
40
-0.99999285957696871
40
-0.99999285957696871
40
-0.99999285957696871
40
-0.99999285957696871
40
-0.79592509194523808
40
-0.79592509194523808
40
-0.79592509194523808
40
-0.5
40
-0.5
40
-0.5
40
0
40
0
40
0
40
0
10
47.19971963095233
20
55.770791971692162
30
0
10
47.052808520360863
20
55.679958906928761
30
0
10
47.038592480596897
20
55.553207976832518
30
0
10
47.011915223569424
20
55.384692784215531
30
0
10
46.973229693608864
20
55.140323600154353
30
0
10
46.956604147556469
20
54.751869275816517
30
0
10
46.95465600871205
20
54.095300243973305
30
0
10
46.951364400637161
20
52.985950192703051
30
0
10
46.994510301655154
20
51.12133166209982
30
0
10
47.082496257121079
20
48.0160269415004
30
0
0
SPLINE
5
102
100
AcDbEntity
8
0
100
AcDbSpline
70
0
71
3
72
17
73
13
74
0
42
0.000000001
43
0.0000000001
44
0.0000000001
40
-1
40
-1
40
-1
40
-1
40
-0.69820190070183008
40
-0.69820190070183008
40
-0.69820190070183008
40
-0.20768993471900618
40
-0.20768993471900618
40
-0.20768993471900618
40
0
40
0
40
0
40
1.747152416747058e-05
40
1.747152416747058e-05
40
1.747152416747058e-05
40
1.747152416747058e-05
10
56.359191799725927
20
55.793782139720776
30
0
10
55.844778407368835
20
55.988768846586339
30
0
10
54.932223596149747
20
56.102291523032683
30
0
10
53.84510277729553
20
56.171459773612384
30
0
10
52.078207056755531
20
56.283878820168141
30
0
10
49.889348753884839
20
56.256484783652134
30
0
10
48.493191815866332
20
56.086432356268645
30
0
10
47.902038564928702
20
56.014429673375233
30
0
10
47.467909520211478
20
55.936521221997097
30
0
10
47.199768886075404
20
55.77082241872678
30
0
10
47.199752466399801
20
55.770812272108728
30
0
10
47.199736046652355
20
55.770802125446295
30
0
10
47.199719626833087
20
55.77079197873946
30
0
0
SPLINE
5
103
100
AcDbEntity
8
0
100
AcDbSpline
70
0
71
3
72
11
73
7
74
0
42
0.000000001
43
0.0000000001
44
0.0000000001
40
-1
40
-1
40
-1
40
-1
40
-0.42492715128464459
40
-0.42492715128464459
40
-0.42492715128464459
40
0
40
0
40
0
40
0
10
61.912379757083215
20
18.11134638777407
30
0
10
62.470247134199745
20
32.650142806361806
30
0
10
62.215100732379291
20
42.257703668778348
30
0
10
60.955554720317799
20
48.184358185485308
30
0
10
60.024863417445772
20
52.563623223051181
30
0
10
58.531902983972522
20
54.97019287167398
30
0
10
56.359194074836587
20
55.793781277331725
30
0
0
SPLINE
5
104
100
AcDbEntity
8
0
100
AcDbSpline
70
0
71
3
72
11
73
7
74
0
42
0.000000001
43
0.0000000001
44
0.0000000001
40
-0.9999986067855352
40
-0.9999986067855352
40
-0.9999986067855352
40
-0.9999986067855352
40
-0.60289766481846208
40
-0.60289766481846208
40
-0.60289766481846208
40
0
40
0
40
0
40
0
10
53.67637029313439
20
-3.1622520460044026
30
0
10
56.278512509928248
20
-2.509124603482102
30
0
10
58.049939442427942
20
-1.7132628111425217
30
0
10
59.24027436170806
20
0.099057573606039812
30
0
10
61.047497833984181
20
2.8506091626183987
30
0
10
61.517426784339939
20
7.8224643160057123
30
0
10
61.91237963885311
20
18.111343307153739
30
0
0
SPLINE
5
105
100
AcDbEntity
8
0
100
AcDbSpline
70
0
71
3
72
11
73
7
74
0
42
0.000000001
43
0.0000000001
44
0.0000000001
40
-1
40
-1
40
-1
40
-1
40
-0.34415464085687125
40
-0.34415464085687125
40
-0.34415464085687125
40
0
40
0
40
0
40
0
10
48.097237861087791
20
-3.7468619791952751
30
0
10
48.886485051418788
20
-3.7273970660436295
30
0
10
50.746519519416665
20
-3.5528875988939963
30
0
10
52.125526431532798
20
-3.3895722928112821
30
0
10
52.849159864265374
20
-3.3038726385745578
30
0
10
53.421410857137026
20
-3.2262838832305336
30
0
10
53.676370292593134
20
-3.1622520440976194
30
0
0
LINE
5
106
100
AcDbEntity
8
0
100
AcDbLine
10
48.097237861087791
20
-3.7468619791952751
30
0
11
47.031930096355559
21
-3.7733659376458211
31
0
0
LINE
5
107
100
AcDbEntity
8
0
100
AcDbLine
10
47.031930096355559
20
-3.7733659376458211
30
0
11
47.164653212754395
21
-0.91298178945155584
31
0
0
LINE
5
108
100
AcDbEntity
8
0
100
AcDbLine
10
46.365513146164929
20
-0.87589872092441534
30
0
11
46.192969011038862
21
-4.5944861257377028
31
0
0
LINE
5
109
100
AcDbEntity
8
0
100
AcDbLine
10
46.192969011038862
20
-4.5944861257377028
30
0
11
48.119953582187435
21
-4.5465444977730547
31
0
0
SPLINE
5
110
100
AcDbEntity
8
0
100
AcDbSpline
70
0
71
3
72
17
73
13
74
0
42
0.000000001
43
0.0000000001
44
0.0000000001
40
3.8494533358192533e-05
40
3.8494533358192533e-05
40
3.8494533358192533e-05
40
3.8494533358192533e-05
40
4.3361850285911871e-05
40
4.3361850285911871e-05
40
4.3361850285911871e-05
40
0.16874673165692058
40
0.16874673165692058
40
0.16874673165692058
40
0.72884633940636001
40
0.72884633940636001
40
0.72884633940636001
40
0.99925790982268181
40
0.99925790982268181
40
0.99925790982268181
40
0.99925790982268181
10
53.871098040235253
20
-3.938190905400055
30
0
10
53.871091891360649
20
-3.9381924493591152
30
0
10
53.871085742492461
20
-3.9381939933165637
30
0
10
53.871079593624259
20
-3.9381955372740141
30
0
10
53.669554839820684
20
-3.9887976375373717
30
0
10
53.483904301145984
20
-4.0161518169768424
30
0
10
53.212171466489764
20
-4.0556174503766371
30
0
10
52.317886247467698
20
-4.1855006595715487
30
0
10
50.799545099915797
20
-4.3488516609026941
30
0
10
49.57989418173063
20
-4.4520302499517141
30
0
10
48.990848994246107
20
-4.5018615995818232
30
0
10
48.483715232879916
20
-4.5374471158860157
30
0
10
48.119953582187435
20
-4.5465444977730547
30
0
0
SPLINE
5
111
100
AcDbEntity
8
0
100
AcDbSpline
70
0
71
3
72
35
73
31
74
0
42
0.000000001
43
0.0000000001
44
0.0000000001
40
-7.2069739345468401e-07
40
-7.2069739345468401e-07
40
-7.2069739345468401e-07
40
-7.2069739345468401e-07
40
0.00076575428679217204
40
0.00076575428679217204
40
0.00076575428679217204
40
0.01115679922852859
40
0.01115679922852859
40
0.01115679922852859
40
0.027468660600239739
40
0.027468660600239739
40
0.027468660600239739
40
0.054938041897872936
40
0.054938041897872936
40
0.054938041897872936
40
0.10987680449313933
40
0.10987680449313933
40
0.10987680449313933
40
0.21975432968367212
40
0.21975432968367212
40
0.21975432968367212
40
0.43950938006473766
40
0.43950938006473766
40
0.43950938006473766
40
0.70037950876795929
40
0.70037950876795929
40
0.70037950876795929
40
0.97468431286598345
40
0.97468431286598345
40
0.97468431286598345
40
1
40
1
40
1
40
1
10
62.711792299497198
20
18.080693684572363
30
0
10
62.711290358970153
20
18.067617679816081
30
0
10
62.710786424201316
20
18.054500538602273
30
0
10
62.710283351887696
20
18.041416811217918
30
0
10
62.703463237562183
20
17.864041682138229
30
0
10
62.696626609951124
20
17.68824443720057
30
0
10
62.689766087459319
20
17.514007216374875
30
0
10
62.67899643989729
20
17.240489643518917
30
0
10
62.668167908076626
20
16.9708163915138
30
0
10
62.657251948347749
20
16.704918409748398
30
0
10
62.638869333807989
20
16.257142838282839
30
0
10
62.620238773938325
20
15.820073527102656
30
0
10
62.601224061286935
20
15.393381041014893
30
0
10
62.563194635984161
20
14.539996068839365
30
0
10
62.523628360966754
20
13.728117902506067
30
0
10
62.481437865571372
20
12.955116576465784
30
0
10
62.39705687478061
20
11.409113924385217
30
0
10
62.30217052979846
20
10.018609767787899
30
0
10
62.188149421473213
20
8.7626651255512815
30
0
10
61.960107204822712
20
6.2507758410780507
30
0
10
61.655130386329382
20
4.277371330435308
30
0
10
61.207233303334554
20
2.6749336612093422
30
0
10
60.67606357850272
20
0.77457215375841715
30
0
10
59.906533435650516
20
-0.63694144781669548
30
0
10
58.794076157654089
20
-1.6574686806577024
30
0
10
57.62303014068803
20
-2.7317430594241681
30
0
10
56.150251421313683
20
-3.3280668471227259
30
0
10
54.372125166274785
20
-3.8079118184566823
30
0
10
54.208044228172632
20
-3.8521906838167546
30
0
10
54.041080955035063
20
-3.8955260193317445
30
0
10
53.871098038990397
20
-3.9381909004323146
30
0
0
SPLINE
5
112
100
AcDbEntity
8
0
100
AcDbSpline
70
0
71
3
72
26
73
22
74
0
42
0.000000001
43
0.0000000001
44
0.0000000001
40
-1.4669795308293505e-06
40
-1.4669795308293505e-06
40
-1.4669795308293505e-06
40
-1.4669795308293505e-06
40
0.0045607395000103745
40
0.0045607395000103745
40
0.0045607395000103745
40
0.025561066450723587
40
0.025561066450723587
40
0.025561066450723587
40
0.056026350254260782
40
0.056026350254260782
40
0.056026350254260782
40
0.11205416748805239
40
0.11205416748805239
40
0.11205416748805239
40
0.2241098019556356
40
0.2241098019556356
40
0.2241098019556356
40
0.61305920238325096
40
0.61305920238325096
40
0.61305920238325096
40
0.99999971722580883
40
0.99999971722580883
40
0.99999971722580883
40
0.99999971722580883
10
56.642732606332771
20
56.541849390331969
30
0
10
56.665062656322569
20
56.533384947538593
30
0
10
56.697164622628733
20
56.520957589232779
30
0
10
56.724240558270225
20
56.510176993785308
30
0
10
56.848874001214476
20
56.460552753818192
30
0
10
56.97149530087642
20
56.406220078297899
30
0
10
57.092095324125566
20
56.347261425098651
30
0
10
57.267050406664104
20
56.261729799490865
30
0
10
57.437753222652987
20
56.166462714321604
30
0
10
57.604149452909034
20
56.061698262450918
30
0
10
57.910163919647566
20
55.869029006524656
30
0
10
58.201632117543703
20
55.644230051609171
30
0
10
58.477933560502152
20
55.388780483157014
30
0
10
59.030536446419063
20
54.8778813462527
30
0
10
59.522514747847993
20
54.244169832014741
30
0
10
59.946549214393919
20
53.501436285664028
30
0
10
61.421487264829992
20
50.91795297174491
30
0
10
62.24816381199912
20
46.982357221875887
30
0
10
62.672940650280502
20
41.201736166664844
30
0
10
63.09546082194607
20
35.451825200560066
30
0
10
63.087749404633996
20
27.878667270841916
30
0
10
62.711792299046905
20
18.080693684589566
30
0
0
SPLINE
5
113
100
AcDbEntity
8
0
100
AcDbSpline
70
0
71
3
72
20
73
16
74
0
42
0.000000001
43
0.0000000001
44
0.0000000001
40
0
40
0
40
0
40
0
40
0.10416826043069922
40
0.10416826043069922
40
0.10416826043069922
40
0.37149510287359216
40
0.37149510287359216
40
0.37149510287359216
40
0.68574755143679611
40
0.68574755143679611
40
0.68574755143679611
40
0.89575701862610224
40
0.89575701862610224
40
0.89575701862610224
40
0.99999860869424573
40
0.99999860869424573
40
0.99999860869424573
40
0.99999860869424573
10
46.779222972563304
20
56.451367152471946
30
0
10
47.072452094284507
20
56.632569508130373
30
0
10
47.271612784038609
20
56.67481022448375
30
0
10
47.54232110755089
20
56.737570303165313
30
0
10
48.211067719235665
20
56.892610197849095
30
0
10
49.075164700501269
20
56.966175764152219
30
0
10
50.077470057541774
20
57.008089896394566
30
0
10
51.25404284321921
20
57.057291496471059
30
0
10
52.580012045701601
20
57.047633950015694
30
0
10
53.756726159118045
20
56.978366585849969
30
0
10
54.543454108564632
20
56.932055786351306
30
0
10
55.256301409715185
20
56.861389788895906
30
0
10
55.843200588396869
20
56.751915386105736
30
0
10
56.135951004976434
20
56.697308601523737
30
0
10
56.38881485575525
20
56.638095099778489
30
0
10
56.642732606253105
20
56.541849390120092
30
0
0
ARC
5
114
100
AcDbEntity
8
0
100
AcDbCircle
10
47.304904949977697
20
55.600686905973724
30
0
40
0.99999921157998062
210
0
220
0
230
1
100
AcDbArc
50
121.71419290622312
51
121.72558741893482
0
SPLINE
5
115
100
AcDbEntity
8
0
100
AcDbSpline
70
0
71
3
72
20
73
16
74
0
42
0.000000001
43
0.0000000001
44
0.0000000001
40
0
40
0
40
0
40
0
40
0.5
40
0.5
40
0.5
40
0.75
40
0.75
40
0.75
40
0.88607550197248564
40
0.88607550197248564
40
0.88607550197248564
40
0.98400473925877663
40
0.98400473925877663
40
0.98400473925877663
40
1
40
1
40
1
40
1
10
46.28281719195261
20
47.99336877009835
30
0
10
46.194783097507404
20
51.100372468663132
30
0
10
46.151297873503623
20
52.964715827019901
30
0
10
46.154659530280597
20
54.097673953574954
30
0
10
46.156342307992674
20
54.664809985172937
30
0
10
46.16715226645838
20
55.03996839498565
30
0
10
46.200291101622881
20
55.346433628782719
30
0
10
46.218977265186382
20
55.519241739171399
30
0
10
46.232942826896199
20
55.645617296369878
30
0
10
46.303171657140226
20
55.843859421442787
30
0
10
46.356875992950926
20
55.995456160556174
30
0
10
46.416311261122956
20
56.162547903346294
30
0
10
46.654845170925029
20
56.361683237936859
30
0
10
46.692284385841617
20
56.392938628817795
30
0
10
46.734013427672025
20
56.423417292781082
30
0
10
46.779053806678839
20
56.451262592348463
30
0
0
SPLINE
5
116
100
AcDbEntity
8
0
100
AcDbSpline
70
0
71
3
72
8
73
4
74
0
42
0.000000001
43
0.0000000001
44
0.0000000001
40
0
40
0
40
0
40
0
40
1
40
1
40
1
40
1
10
46.365513146164929
20
-0.87589872092441501
30
0
10
46.986290447023364
20
12.501851105310003
30
0
10
46.967588090326885
20
23.82753001622693
30
0
10
46.28281725527021
20
47.99336653550683
30
0
0
ARC
5
117
100
AcDbEntity
8
0
100
AcDbCircle
10
47.304904949977697
20
55.600686905973724
30
0
40
0.91999921157998088
210
0
220
0
230
1
100
AcDbArc
50
121.71419290570763
51
121.72558741893488
0
SPLINE
5
118
100
AcDbEntity
8
0
100
AcDbSpline
70
0
71
3
72
20
73
16
74
0
42
0.000000001
43
0.0000000001
44
0.0000000001
40
0
40
0
40
0
40
0
40
0.5
40
0.5
40
0.5
40
0.75
40
0.75
40
0.75
40
0.88607550197248564
40
0.88607550197248564
40
0.88607550197248564
40
0.98400473925877663
40
0.98400473925877663
40
0.98400473925877663
40
1
40
1
40
1
40
1
10
46.362785098469459
20
47.995634587238555
30
0
10
46.274755540874651
20
51.102478165896898
30
0
10
46.231304367797165
20
52.966785872350293
30
0
10
46.234659178123742
20
54.09743658261479
30
0
10
46.236339250170822
20
54.663660740886982
30
0
10
46.247238908095277
20
55.036456922071849
30
0
10
46.279827458557712
20
55.337833168008132
30
0
10
46.298503774744724
20
55.510550210665428
30
0
10
46.310809574669051
20
55.625843935725655
30
0
10
46.378579670940212
20
55.817145540130973
30
0
10
46.432258777894006
20
55.968671063161331
30
0
10
46.479462197998146
20
56.111054849147692
30
0
10
46.706114158001455
20
56.300270772067478
30
0
10
46.740744970717891
20
56.329181623707626
30
0
10
46.779492160016538
20
56.357479723172716
30
0
10
46.821121931305584
20
56.383216483786782
30
0
0
SPLINE
5
119
100
AcDbEntity
8
0
100
AcDbSpline
70
0
71
3
72
8
73
4
74
0
42
0.000000001
43
0.0000000001
44
0.0000000001
40
0
40
0
40
0
40
0
40
1
40
1
40
1
40
1
10
46.445427152823875
20
-0.8796070277771294
30
0
10
47.066304815923459
20
12.500305604591182
30
0
10
47.04757486946724
20
23.829129810946146
30
0
10
46.362785156721657
20
47.995632531414358
30
0
0
LINE
5
120
100
AcDbEntity
8
0
100
AcDbLine
10
46.445427152823875
20
-0.8796070277771294
30
0
11
46.276865119347733
21
-4.5123741117334584
31
0
0
LINE
5
121
100
AcDbEntity
8
0
100
AcDbLine
10
46.276865119347733
20
-4.5123741117334584
30
0
11
48.117953472899877
21
-4.4665695044136431
31
0
0
SPLINE
5
122
100
AcDbEntity
8
0
100
AcDbSpline
70
0
71
3
72
14
73
10
74
0
42
0.000000001
43
0.0000000001
44
0.0000000001
40
3.8494533358192533e-05
40
3.8494533358192533e-05
40
3.8494533358192533e-05
40
3.8494533358192533e-05
40
0.16874673165692058
40
0.16874673165692058
40
0.16874673165692058
40
0.72884633940636001
40
0.72884633940636001
40
0.72884633940636001
40
0.99925790982268181
40
0.99925790982268181
40
0.99925790982268181
40
0.99925790982268181
10
53.851615148058578
20
-3.8605995597973926
30
0
10
53.638486014125412
20
-3.9141154758299996
30
0
10
53.472339473717483
20
-3.9369921095240561
30
0
10
53.200673153270237
20
-3.9764480826066095
30
0
10
52.309692226191217
20
-4.1058513866968074
30
0
10
50.791291379573451
20
-4.2692641448663107
30
0
10
49.573150524023973
20
-4.3723149874185241
30
0
10
48.984760728751134
20
-4.4220908929517471
30
0
10
48.478360392845673
20
-4.4575560216035761
30
0
10
48.117953472899877
20
-4.4665695044136431
30
0
0
SPLINE
5
123
100
AcDbEntity
8
0
100
AcDbSpline
70
0
71
3
72
35
73
31
74
0
42
0.000000001
43
0.0000000001
44
0.0000000001
40
-7.2069739345468401e-07
40
-7.2069739345468401e-07
40
-7.2069739345468401e-07
40
-7.2069739345468401e-07
40
0.00076575428679217204
40
0.00076575428679217204
40
0.00076575428679217204
40
0.01115679922852859
40
0.01115679922852859
40
0.01115679922852859
40
0.027468660600239739
40
0.027468660600239739
40
0.027468660600239739
40
0.054938041897872936
40
0.054938041897872936
40
0.054938041897872936
40
0.10987680449313933
40
0.10987680449313933
40
0.10987680449313933
40
0.21975432968367212
40
0.21975432968367212
40
0.21975432968367212
40
0.43950938006473766
40
0.43950938006473766
40
0.43950938006473766
40
0.70037950876795929
40
0.70037950876795929
40
0.70037950876795929
40
0.97468431286598345
40
0.97468431286598345
40
0.97468431286598345
40
1
40
1
40
1
40
1
10
62.631851175015818
20
18.083762335196358
30
0
10
62.631349299346127
20
18.070688020032794
30
0
10
62.630845429469588
20
18.057572567940742
30
0
10
62.630342423200887
20
18.044490558229452
30
0
10
62.623523199235784
20
17.867138585329343
30
0
10
62.616687526402039
20
17.691365911416071
30
0
10
62.60982802983812
20
17.517154746160202
30
0
10
62.599059992782799
20
17.243678075467813
30
0
10
62.58823324645283
20
16.974049381979015
30
0
10
62.57731927782217
20
16.708199900667154
30
0
10
62.558940016354455
20
16.260506005491255
30
0
10
62.540313388940973
20
15.823529534280965
30
0
10
62.521303377740061
20
15.396942549319107
30
0
10
62.483283355939548
20
14.54376859288873
30
0
10
62.44372946171957
20
13.732151820292192
30
0
10
62.401556759524411
20
12.959476495813032
30
0
10
62.317211370109064
20
11.414126121221607
30
0
10
62.222378800038676
20
10.024527822142078
30
0
10
62.10847707513696
20
8.7698981905500357
30
0
10
61.880674421101951
20
6.2606476927701191
30
0
10
61.57603410009402
20
4.2915746989098285
30
0
10
61.130186384013271
20
2.696469032650286
30
0
10
60.601644412932281
20
0.80550881794201168
30
0
10
59.838917434026023
20
-0.5904067461989313
30
0
10
58.739995882237189
20
-1.5985168035812873
30
0
10
57.582704538714978
20
-2.6601731527785093
30
0
10
56.124039973126102
20
-3.2522784777255485
30
0
10
54.351281984017405
20
-3.7306747693585605
30
0
10
54.187704567944138
20
-3.7748177543148453
30
0
10
54.021196524581597
20
-3.8180354575010038
30
0
10
53.851622525544926
20
-3.8605977024312326
30
0
0
SPLINE
5
124
100
AcDbEntity
8
0
100
AcDbSpline
70
0
71
3
72
26
73
22
74
0
42
0.000000001
43
0.0000000001
44
0.0000000001
40
-1.4669795308293505e-06
40
-1.4669795308293505e-06
40
-1.4669795308293505e-06
40
-1.4669795308293505e-06
40
0.0045607395000103745
40
0.0045607395000103745
40
0.0045607395000103745
40
0.025561066450723587
40
0.025561066450723587
40
0.025561066450723587
40
0.056026350254260782
40
0.056026350254260782
40
0.056026350254260782
40
0.11205416748805239
40
0.11205416748805239
40
0.11205416748805239
40
0.2241098019556356
40
0.2241098019556356
40
0.2241098019556356
40
0.61305920238325096
40
0.61305920238325096
40
0.61305920238325096
40
0.99999970095815649
40
0.99999970095815649
40
0.99999970095815649
40
0.99999970095815649
10
56.614376598930463
20
56.46704339562433
30
0
10
56.636201340216246
20
56.458770495466098
30
0
10
56.668131036182615
20
56.446409524496126
30
0
10
56.694647139791954
20
56.435851832616493
30
0
10
56.817389888431499
20
56.386980394350637
30
0
10
56.938159367328687
20
56.333468920939957
30
0
10
57.05695916682388
20
56.275390356857862
30
0
10
57.22930285532798
20
56.191135383369172
30
0
10
57.397500629840096
20
56.097270361019305
30
0
10
57.561525424174931
20
55.993998984947567
30
0
10
57.863179109235404
20
55.804075313470712
30
0
10
58.150737283337435
20
55.582332311997355
30
0
10
58.423625013802429
20
55.330038830512876
30
0
10
58.969393952995844
20
54.825457897099099
30
0
10
59.456535319903494
20
54.198383138492012
30
0
10
59.877074267125245
20
53.461772300715282
30
0
10
61.341049442959132
20
50.897491422857073
30
0
10
62.168740392763972
20
46.97157540177794
30
0
10
62.593155768986747
20
41.195873341668197
30
0
10
63.015294456890231
20
35.451153838158724
30
0
10
63.007749280562464
20
27.880198929058263
30
0
10
62.631851174555983
20
18.08376233521399
30
0
0
SPLINE
5
125
100
AcDbEntity
8
0
100
AcDbSpline
70
0
71
3
72
20
73
16
74
0
42
0.000000001
43
0.0000000001
44
0.0000000001
40
0
40
0
40
0
40
0
40
0.10416826043069922
40
0.10416826043069922
40
0.10416826043069922
40
0.37149510287359216
40
0.37149510287359216
40
0.37149510287359216
40
0.68574755143679611
40
0.68574755143679611
40
0.68574755143679611
40
0.89575701862610224
40
0.89575701862610224
40
0.89575701862610224
40
0.99999844558250062
40
0.99999844558250062
40
0.99999844558250062
40
0.99999844558250062
10
46.821277563920177
20
56.383312679100932
30
0
10
47.105456179746533
20
56.558922230816762
30
0
10
47.288964354106817
20
56.596711162656845
30
0
10
47.56038883118368
20
56.659637271896614
30
0
10
48.21978942259701
20
56.812510417660427
30
0
10
49.080493712401356
20
56.886328692979866
30
0
10
50.080812554464842
20
56.928159753680333
30
0
10
51.254441823353893
20
56.977238262574019
30
0
10
52.578394899233089
20
56.967590659444042
30
0
10
53.752025090928711
20
56.898504830560725
30
0
10
54.536817215772409
20
56.852307983521882
30
0
10
55.247010417731765
20
56.781742998791891
30
0
10
55.828531192714621
20
56.673271830550831
30
0
10
56.119196226271022
20
56.619054032815875
30
0
10
56.366750268523873
20
56.560904275510204
30
0
10
56.614376598846803
20
56.467043395403365
30
0
0
SPLINE
5
126
100
AcDbEntity
8
0
100
AcDbSpline
70
0
71
3
72
8
73
4
74
0
42
0.000000001
43
0.0000000001
44
0.0000000001
40
-1
40
-1
40
-1
40
-1
40
0
40
0
40
0
40
0
10
47.002528368333152
20
48.013760498674571
30
0
10
47.687469605478434
20
23.841910421566425
30
0
10
47.706422159017848
20
12.487993144144507
30
0
10
47.084739206095449
20
-0.90927348259884466
30
0
0
LINE
5
127
100
AcDbEntity
8
0
100
AcDbLine
10
46.948033987793174
20
-3.8554779571155247
30
0
11
47.084739206095456
21
-0.909273482598844
31
0
0
LINE
5
128
100
AcDbEntity
8
0
100
AcDbLine
10
48.101721976787843
20
-3.8267752870331586
30
0
11
46.948033987793174
21
-3.8554779571155247
31
0
0
SPLINE
5
129
100
AcDbEntity
8
0
100
AcDbSpline
70
0
71
3
72
11
73
7
74
0
42
0.000000001
43
0.0000000001
44
0.0000000001
40
-0.99931279081117663
40
-0.99931279081117663
40
-0.99931279081117663
40
-0.99931279081117663
40
-0.34415464085687125
40
-0.34415464085687125
40
-0.34415464085687125
40
0
40
0
40
0
40
0
10
48.101721976787843
20
-3.8267752870331586
30
0
10
48.901033313441566
20
-3.8067926299980401
30
0
10
50.755641204491127
20
-3.6323663907092985
30
0
10
52.13493505259337
20
-3.4690171028981491
30
0
10
52.859277079364148
20
-3.3832335301174208
30
0
10
53.428276824333651
20
-3.3070439091041233
30
0
10
53.695856761261609
20
-3.2398424915691511
30
0
0
SPLINE
5
130
100
AcDbEntity
8
0
100
AcDbSpline
70
0
71
3
72
11
73
7
74
0
42
0.000000001
43
0.0000000001
44
0.0000000001
40
-0.99999805441418732
40
-0.99999805441418732
40
-0.99999805441418732
40
-0.99999805441418732
40
-0.60289766481846208
40
-0.60289766481846208
40
-0.60289766481846208
40
0
40
0
40
0
40
0
10
53.695856761939709
20
-3.2398424942513215
30
0
10
56.30456169973381
20
-2.5850668467232407
30
0
10
58.10271445387248
20
-1.7786364383237732
30
0
10
59.307141271054526
20
0.05513928089728385
30
0
10
61.135147017488322
20
2.8383325015944112
30
0
10
61.597312500708142
20
7.8179522339313934
30
0
10
61.992320763333112
20
18.108274656493784
30
0
0
SPLINE
5
131
100
AcDbEntity
8
0
100
AcDbSpline
70
0
71
3
72
11
73
7
74
0
42
0.000000001
43
0.0000000001
44
0.0000000001
40
-1
40
-1
40
-1
40
-1
40
-0.42492715128464459
40
-0.42492715128464459
40
-0.42492715128464459
40
0
40
0
40
0
40
0
10
61.99232092885525
20
18.108278969362249
30
0
10
62.550275916854019
20
32.649358648870347
30
0
10
62.296550958926417
20
42.25928679963954
30
0
10
61.03380707421303
20
48.200988552584548
30
0
10
60.100738278148434
20
52.591440621535739
30
0
10
58.597199848316343
20
55.030996041914825
30
0
10
56.387550082240665
20
55.868587272038695
30
0
0
SPLINE
5
132
100
AcDbEntity
8
0
100
AcDbSpline
70
0
71
3
72
20
73
16
74
0
42
0.000000001
43
0.0000000001
44
0.0000000001
40
-1
40
-1
40
-1
40
-1
40
-0.69820190070183008
40
-0.69820190070183008
40
-0.69820190070183008
40
-0.20768993471900618
40
-0.20768993471900618
40
-0.20768993471900618
40
-0.050306744960764149
40
-0.050306744960764149
40
-0.050306744960764149
40
-0.0028818200305931532
40
-0.0028818200305931532
40
-0.0028818200305931532
40
1.747152416747058e-05
40
1.747152416747058e-05
40
1.747152416747058e-05
40
1.747152416747058e-05
10
56.387546897085741
20
55.868588479383369
30
0
10
55.853435277183721
20
56.071041734704195
30
0
10
54.940007785764273
20
56.18195801558101
30
0
10
53.850182519738262
20
56.251298337080897
30
0
10
52.078286583521603
20
56.364035523225994
30
0
10
49.888614405101976
20
56.336986568182077
30
0
10
48.483519270066616
20
56.16584546512199
30
0
10
48.033881499869757
20
56.111079419713228
30
0
10
47.672130293573517
20
56.053527187697483
30
0
10
47.396095281634452
20
55.952025512199512
30
0
10
47.312916514325067
20
55.921439594172483
30
0
10
47.237459533582168
20
55.886733075252231
30
0
10
47.169935184902087
20
55.846309792246032
30
0
10
47.165807128312494
20
55.843838541459483
30
0
10
47.160389807792846
20
55.840530238358575
30
0
10
47.157665035458443
20
55.838846452099496
30
0
0
SPLINE
5
133
100
AcDbEntity
8
0
100
AcDbSpline
70
0
71
3
72
17
73
13
74
0
42
0.000000001
43
0.0000000001
44
0.0000000001
40
-1.0000004059277146
40
-1.0000004059277146
40
-1.0000004059277146
40
-1.0000004059277146
40
-0.99999285957696871
40
-0.99999285957696871
40
-0.99999285957696871
40
-0.79592509194523808
40
-0.79592509194523808
40
-0.79592509194523808
40
-0.5
40
-0.5
40
-0.5
40
0
40
0
40
0
40
0
10
47.157665038552253
20
55.838846447116197
30
0
10
47.157659605829124
20
55.838843088140202
30
0
10
47.157654173110956
20
55.83883972916729
30
0
10
47.157648740392844
20
55.838836370194407
30
0
10
46.984386999359806
20
55.731711082795016
30
0
10
46.959294077419187
20
55.563932955927548
30
0
10
46.932899219971567
20
55.3972016281039
30
0
10
46.892719920769636
20
55.143396585956701
30
0
10
46.876608228993881
20
54.75336350284276
30
0
10
46.874656360868904
20
54.095537614933477
30
0
10
46.871357808931407
20
52.983847317144345
30
0
10
46.914537687088185
20
51.119232007049675
30
0
10
47.002528350604237
20
48.013761124360187
30
0
0
ENDSEC
0
SECTION
2
OBJECTS
0
DICTIONARY
5
C
100
AcDbDictionary
3
ACAD_GROUP
350
D
3
ACAD_MLINESTYLE
350
17
0
DICTIONARY
5
D
100
AcDbDictionary
0
DICTIONARY
5
1A
330
C
100
AcDbDictionary
0
DICTIONARY
5
17
100
AcDbDictionary
0
ENDSEC
0
EOF
