                                                                        S      1
,,13HHolderLeft v1,13HHolderLeft v1,7Hunknown,7Hunknown,32,38,7,99,15,, G      1
1.,2,2HMM,1,0.08,15H20250912.002739,0.01,10000.,7Hunknown,7Hunknown,11, G      2
0,15H20191004.142701;                                                   G      3
     186       1                                                00000000D      1
     186            -135       1       0                               0D      2
     514       2                                                00010000D      3
     514                       1       1                               0D      4
     510       3                                                00010000D      5
     510            -135       1       1                               0D      6
     510       4                                                00010000D      7
     510            -135       1       1                               0D      8
     510       5                                                00010000D      9
     510            -135       1       1                               0D     10
     510       6                                                00010000D     11
     510            -135       1       1                               0D     12
     510       7                                                00010000D     13
     510            -135       1       1                               0D     14
     510       8                                                00010000D     15
     510            -135       1       1                               0D     16
     510       9                                                00010000D     17
     510            -135       1       1                               0D     18
     510      10                                                00010000D     19
     510            -135       1       1                               0D     20
     510      11                                                00010000D     21
     510            -135       1       1                               0D     22
     510      12                                                00010000D     23
     510            -135       1       1                               0D     24
     510      13                                                00010000D     25
     510            -135       1       1                               0D     26
     510      14                                                00010000D     27
     510            -135       1       1                               0D     28
     508      15                                                00010000D     29
     508                       1       1                               0D     30
     508      16                                                00010000D     31
     508                       2       1                               0D     32
     508      18                                                00010000D     33
     508                       1       1                               0D     34
     508      19                                                00010000D     35
     508                       1       1                               0D     36
     508      20                                                00010000D     37
     508                       1       1                               0D     38
     508      21                                                00010000D     39
     508                       1       1                               0D     40
     508      22                                                00010000D     41
     508                       1       1                               0D     42
     508      23                                                00010000D     43
     508                       1       1                               0D     44
     508      24                                                00010000D     45
     508                       1       1                               0D     46
     508      25                                                00010000D     47
     508                       1       1                               0D     48
     508      26                                                00010000D     49
     508                       1       1                               0D     50
     508      27                                                00010000D     51
     508                       1       1                               0D     52
     508      28                                                00010000D     53
     508                       1       1                               0D     54
     508      29                                                00010000D     55
     508                       2       1                               0D     56
     126      31                                                00010000D     57
     126       0               5       0                               0D     58
     126      36                                                00010000D     59
     126       0               2       0                               0D     60
     126      38                                                00010000D     61
     126       0               5       0                               0D     62
     126      43                                                00010000D     63
     126       0               3       0                               0D     64
     126      46                                                00010000D     65
     126       0               4       0                               0D     66
     126      50                                                00010000D     67
     126       0               5       0                               0D     68
     126      55                                                00010000D     69
     126       0               4       0                               0D     70
     126      59                                                00010000D     71
     126       0               2       0                               0D     72
     126      61                                                00010000D     73
     126       0               3       0                               0D     74
     126      64                                                00010000D     75
     126       0               8       0                               0D     76
     126      72                                                00010000D     77
     126       0               4       0                               0D     78
     126      76                                                00010000D     79
     126       0               2       0                               0D     80
     126      78                                                00010000D     81
     126       0               5       0                               0D     82
     126      83                                                00010000D     83
     126       0               3       0                               0D     84
     126      86                                                00010000D     85
     126       0               8       0                               0D     86
     126      94                                                00010000D     87
     126       0               2       0                               0D     88
     126      96                                                00010000D     89
     126       0               8       0                               0D     90
     126     104                                                00010000D     91
     126       0               8       0                               0D     92
     126     112                                                00010000D     93
     126       0               2       0                               0D     94
     126     114                                                00010000D     95
     126       0               2       0                               0D     96
     126     116                                                00010000D     97
     126       0               3       0                               0D     98
     126     119                                                00010000D     99
     126       0               4       0                               0D    100
     126     123                                                00010000D    101
     126       0               2       0                               0D    102
     126     125                                                00010000D    103
     126       0               2       0                               0D    104
     128     127                                                00010000D    105
     128       0    -135       8       0                               0D    106
     128     135                                                00010000D    107
     128       0    -135       4       0                               0D    108
     128     139                                                00010000D    109
     128       0    -135       5       0                               0D    110
     128     144                                                00010000D    111
     128       0    -135       7       0                               0D    112
     128     151                                                00010000D    113
     128       0    -135      12       0                               0D    114
     128     163                                                00010000D    115
     128       0    -135      12       0                               0D    116
     128     175                                                00010000D    117
     128       0    -135       3       0                               0D    118
     128     178                                                00010000D    119
     128       0    -135       7       0                               0D    120
     128     185                                                00010000D    121
     128       0    -135       6       0                               0D    122
     128     191                                                00010000D    123
     128       0    -135       3       0                               0D    124
     128     194                                                00010000D    125
     128       0    -135       3       0                               0D    126
     128     197                                                00010000D    127
     128       0    -135       4       0                               0D    128
     502     201                                                00010000D    129
     502                       6       1                               0D    130
     504     207                                                00010001D    131
     504                       7       1                               0D    132
     406     214                                                00000000D    133
     406                       1      15                               0D    134
     314     215                                                00000200D    135
     314                       2       0                               0D    136
186,3,1,0,0,1,133;                                                     1P      1
514,12,5,1,7,1,9,1,11,1,13,1,15,1,17,1,19,1,21,1,23,1,25,1,27,1;       3P      2
510,105,1,1,29;                                                        5P      3
510,107,2,1,31,33;                                                     7P      4
510,109,1,1,35;                                                        9P      5
510,111,1,1,37;                                                       11P      6
510,113,1,1,39;                                                       13P      7
510,115,1,1,41;                                                       15P      8
510,117,2,1,43,45;                                                    17P      9
510,119,1,1,47;                                                       19P     10
510,121,1,1,49;                                                       21P     11
510,123,1,1,51;                                                       23P     12
510,125,1,1,53;                                                       25P     13
510,127,1,1,55;                                                       27P     14
508,4,0,131,1,1,0,0,131,2,1,0,0,131,3,1,0,0,131,4,1,0;                29P     15
508,6,0,131,3,0,0,0,131,5,1,0,0,131,6,0,0,0,131,7,1,0,0,131,8,1,      31P     16
0,0,131,9,1,0;                                                        31P     17
508,1,0,131,10,1,0;                                                   33P     18
508,4,0,131,2,0,0,0,131,11,0,0,0,131,12,0,0,0,131,5,0,0;              35P     19
508,4,0,131,13,1,0,0,131,14,1,0,0,131,6,1,0,0,131,12,1,0;             37P     20
508,4,0,131,15,0,0,0,131,16,1,0,0,131,17,0,0,0,131,16,0,0;            39P     21
508,4,0,131,18,0,0,0,131,19,1,0,0,131,10,0,0,0,131,19,0,0;            41P     22
508,1,0,131,18,1,0;                                                   43P     23
508,1,0,131,15,1,0;                                                   45P     24
508,4,0,131,4,0,0,0,131,9,0,0,0,131,20,1,0,0,131,21,0,0;              47P     25
508,4,0,131,14,0,0,0,131,22,0,0,0,131,23,0,0,0,131,7,0,0;             49P     26
508,4,0,131,8,0,0,0,131,23,1,0,0,131,24,0,0,0,131,20,0,0;             51P     27
508,1,0,131,17,1,0;                                                   53P     28
508,6,0,131,1,0,0,0,131,21,1,0,0,131,24,1,0,0,131,22,1,0,0,131,       55P     29
13,0,0,0,131,11,1,0;                                                  55P     30
126,2,2,0,0,0,0,-0.579192942598756,-0.579192942598756,                57P     31
-0.579192942598756,0.579192942598754,0.579192942598754,               57P     32
0.579192942598754,1.,0.836904664229949,1.,32.6407241589526,-5.,       57P     33
74.6073695061774,35.,-5.,80.,40.8861401730723,-5.,80.,                57P     34
-0.579192942598756,0.579192942598754,0.,0.,0.;                        57P     35
126,1,1,0,0,1,0,-0.5,-0.5,0.,0.,1.,1.,40.8861401730723,-5.,80.,       59P     36
40.8861401730723,0.,80.,-0.5,0.,0.,0.,0.;                             59P     37
126,2,2,0,0,0,0,-0.579192942598754,-0.579192942598754,                61P     38
-0.579192942598754,0.579192942598756,0.579192942598756,               61P     39
0.579192942598756,1.,0.836904664229949,1.,40.8861401730723,0.,        61P     40
80.,35.,0.,80.,32.6407241589526,0.,74.6073695061774,                  61P     41
-0.579192942598754,0.579192942598756,0.,0.,0.;                        61P     42
126,1,1,0,0,1,0,0.,0.,0.5,0.5,1.,1.,32.6407241589526,0.,              63P     43
74.6073695061774,32.6407241589526,-5.,74.6073695061774,0.,0.5,        63P     44
0.,0.,0.;                                                             63P     45
126,1,1,0,0,1,0,0.588614017307229,0.588614017307229,                  65P     46
2.41138598269277,2.41138598269277,1.,1.,40.8861401730723,0.,80.,      65P     47
59.1138598269277,0.,80.,0.588614017307229,2.41138598269277,0.,        65P     48
0.,0.;                                                                65P     49
126,2,2,0,0,0,0,-0.579192942598754,-0.579192942598754,                67P     50
-0.579192942598754,0.579192942598755,0.579192942598755,               67P     51
0.579192942598755,1.,0.836904664229955,1.,67.3592758410474,0.,        67P     52
74.6073695061774,65.,0.,80.,59.1138598269277,0.,80.,                  67P     53
-0.579192942598754,0.579192942598755,0.,0.,0.;                        67P     54
126,1,1,0,0,1,0,0.58861401730723,0.58861401730723,                    69P     55
8.73212459828649,8.73212459828649,1.,1.,67.3592758410474,0.,          69P     56
74.6073695061774,100.,0.,0.,0.58861401730723,8.73212459828649,        69P     57
0.,0.,0.;                                                             69P     58
126,1,1,0,0,1,0,0.,0.,10.,10.,1.,1.,100.,0.,0.,0.,0.,0.,0.,10.,       71P     59
0.,0.,0.;                                                             71P     60
126,1,1,0,0,1,0,0.,0.,8.14351058097926,8.14351058097926,1.,1.,        73P     61
0.,0.,0.,32.6407241589526,0.,74.6073695061773,0.,                     73P     62
8.14351058097926,0.,0.,0.;                                            73P     63
126,8,2,0,1,0,0,-3.14159265358979,-3.14159265358979,                  75P     64
-3.14159265358979,-1.5707963267949,-1.5707963267949,0.,0.,            75P     65
1.5707963267949,1.5707963267949,3.14159265358979,                     75P     66
3.14159265358979,3.14159265358979,1.,0.707106781186546,1.,            75P     67
0.707106781186546,1.,0.707106781186546,1.,0.707106781186546,1.,       75P     68
42.5,0.,50.,42.5,0.,42.5,50.,0.,42.5,57.5,0.,42.5,57.5,0.,50.,        75P     69
57.5,0.,57.5,50.,0.,57.5,42.5,0.,57.5,42.5,0.,50.,                    75P     70
-3.14159265358979,3.14159265358979,0.,0.,0.;                          75P     71
126,1,1,0,0,1,0,-2.41138598269277,-2.41138598269277,                  77P     72
-0.588614017307229,-0.588614017307229,1.,1.,59.1138598269277,         77P     73
-5.,80.,40.8861401730723,-5.,80.,-2.41138598269277,                   77P     74
-0.588614017307229,0.,0.,0.;                                          77P     75
126,1,1,0,0,1,0,0.,0.,0.5,0.5,1.,1.,59.1138598269277,0.,80.,          79P     76
59.1138598269277,-5.,80.,0.,0.5,0.,0.,0.;                             79P     77
126,2,2,0,0,0,0,-0.579192942598755,-0.579192942598755,                81P     78
-0.579192942598755,0.579192942598754,0.579192942598754,               81P     79
0.579192942598754,1.,0.836904664229955,1.,59.1138598269277,-5.,       81P     80
80.,65.,-5.,80.,67.3592758410474,-5.,74.6073695061774,                81P     81
-0.579192942598755,0.579192942598754,0.,0.,0.;                        81P     82
126,1,1,0,0,1,0,-0.5,-0.5,0.,0.,1.,1.,67.3592758410474,-5.,           83P     83
74.6073695061774,67.3592758410474,0.,74.6073695061774,-0.5,0.,        83P     84
0.,0.,0.;                                                             83P     85
126,8,2,0,1,0,0,-3.14159265358979,-3.14159265358979,                  85P     86
-3.14159265358979,-1.5707963267949,-1.5707963267949,0.,0.,            85P     87
1.5707963267949,1.5707963267949,3.14159265358979,                     85P     88
3.14159265358979,3.14159265358979,1.,0.707106781186543,1.,            85P     89
0.707106781186543,1.,0.707106781186543,1.,0.707106781186543,1.,       85P     90
46.5,34.,50.,46.5,34.,46.5,50.,34.,46.5,53.5,34.,46.5,53.5,34.,       85P     91
50.,53.5,34.,53.5,50.,34.,53.5,46.5,34.,53.5,46.5,34.,50.,            85P     92
-3.14159265358979,3.14159265358979,0.,0.,0.;                          85P     93
126,1,1,0,0,1,0,-9.71428571428573,-9.71428571428573,0.,0.,1.,1.,      87P     94
46.5,34.,50.,46.5,0.,50.,-9.71428571428573,0.,0.,0.,0.;               87P     95
126,8,2,0,1,0,0,-3.14159265358979,-3.14159265358979,                  89P     96
-3.14159265358979,-1.5707963267949,-1.5707963267949,0.,0.,            89P     97
1.5707963267949,1.5707963267949,3.14159265358979,                     89P     98
3.14159265358979,3.14159265358979,1.,0.707106781186543,1.,            89P     99
0.707106781186543,1.,0.707106781186543,1.,0.707106781186543,1.,       89P    100
46.5,0.,50.,46.5,0.,53.5,50.,0.,53.5,53.5,0.,53.5,53.5,0.,50.,        89P    101
53.5,0.,46.5,50.,0.,46.5,46.5,0.,46.5,46.5,0.,50.,                    89P    102
-3.14159265358979,3.14159265358979,0.,0.,0.;                          89P    103
126,8,2,0,1,0,0,-3.14159265358979,-3.14159265358979,                  91P    104
-3.14159265358979,-1.5707963267949,-1.5707963267949,0.,0.,            91P    105
1.5707963267949,1.5707963267949,3.14159265358979,                     91P    106
3.14159265358979,3.14159265358979,1.,0.707106781186546,1.,            91P    107
0.707106781186546,1.,0.707106781186546,1.,0.707106781186546,1.,       91P    108
42.5,34.,50.,42.5,34.,57.5,50.,34.,57.5,57.5,34.,57.5,57.5,34.,       91P    109
50.,57.5,34.,42.5,50.,34.,42.5,42.5,34.,42.5,42.5,34.,50.,            91P    110
-3.14159265358979,3.14159265358979,0.,0.,0.;                          91P    111
126,1,1,0,0,1,0,-4.53333333333333,-4.53333333333333,0.,0.,1.,1.,      93P    112
42.5,34.,50.,42.5,0.,50.,-4.53333333333333,0.,0.,0.,0.;               93P    113
126,1,1,0,0,1,0,0.,0.,0.5,0.5,1.,1.,0.,0.,0.,0.,-5.,0.,0.,0.5,        95P    114
0.,0.,0.;                                                             95P    115
126,1,1,0,0,1,0,-8.14351058097926,-8.14351058097926,0.,0.,1.,1.,      97P    116
32.6407241589526,-5.,74.6073695061773,0.,-5.,0.,                      97P    117
-8.14351058097926,0.,0.,0.,0.;                                        97P    118
126,1,1,0,0,1,0,-8.73212459828649,-8.73212459828649,                  99P    119
-0.588614017307229,-0.588614017307229,1.,1.,100.,-5.,0.,              99P    120
67.3592758410474,-5.,74.6073695061774,-8.73212459828649,              99P    121
-0.588614017307229,0.,0.,0.;                                          99P    122
126,1,1,0,0,1,0,0.,0.,0.5,0.5,1.,1.,100.,0.,0.,100.,-5.,0.,0.,       101P    123
0.5,0.,0.,0.;                                                        101P    124
126,1,1,0,0,1,0,-10.,-10.,0.,0.,1.,1.,0.,-5.,0.,100.,-5.,0.,         103P    125
-10.,0.,0.,0.,0.;                                                    103P    126
128,1,2,1,2,0,0,0,0,0,0.,0.,0.555555555555556,0.555555555555556,     105P    127
-0.579192942598754,-0.579192942598754,-0.579192942598754,            105P    128
0.579192942598756,0.579192942598756,0.579192942598756,1.,1.,         105P    129
0.836904664229955,0.836904664229955,1.,1.,40.8861401730723,-5.,      105P    130
80.,40.8861401730723,0.,80.,35.,-5.,80.,35.,0.,80.,                  105P    131
32.6407241589526,-5.,74.6073695061774,32.6407241589526,0.,           105P    132
74.6073695061774,0.,0.555555555555556,-0.579192942598754,            105P    133
0.579192942598756;                                                   105P    134
128,1,1,1,1,0,0,1,0,0,-5.001,-5.001,5.001,5.001,-4.001,-4.001,       107P    135
4.001,4.001,1.,1.,1.,1.,-0.0100000000000033,0.,80.01,100.01,0.,      107P    136
80.01,-0.0100000000000033,0.,-0.0100000000000033,100.01,0.,          107P    137
-0.0100000000000122,-5.001,5.001,-4.001,4.001;                       107P    138
128,1,1,1,1,0,0,1,0,0,0.587614017307231,0.587614017307231,           109P    139
2.41238598269277,2.41238598269277,-0.001,-0.001,0.501,0.501,1.,      109P    140
1.,1.,1.,59.1238598269277,0.01,80.,40.8761401730723,0.01,80.,        109P    141
59.1238598269277,-5.01,80.,40.8761401730723,-5.01,80.,               109P    142
0.587614017307231,2.41238598269277,-0.001,0.501;                     109P    143
128,1,2,1,2,0,0,0,0,0,0.,0.,0.555555555555556,0.555555555555556,     111P    144
-0.579192942598755,-0.579192942598755,-0.579192942598755,            111P    145
0.579192942598755,0.579192942598755,0.579192942598755,1.,1.,         111P    146
0.836904664229955,0.836904664229955,1.,1.,67.3592758410474,-5.,      111P    147
74.6073695061774,67.3592758410474,0.,74.6073695061774,65.,-5.,       111P    148
80.,65.,0.,80.,59.1138598269277,-5.,80.,59.1138598269277,0.,80.,     111P    149
0.,0.555555555555556,-0.579192942598755,0.579192942598755;           111P    150
128,1,8,1,2,0,1,0,0,1,0.,0.,9.71428571428573,9.71428571428573,       113P    151
-3.14159265358979,-3.14159265358979,-3.14159265358979,               113P    152
-1.5707963267949,-1.5707963267949,0.,0.,1.5707963267949,             113P    153
1.5707963267949,3.14159265358979,3.14159265358979,                   113P    154
3.14159265358979,1.,1.,0.707106781186548,0.707106781186548,1.,       113P    155
1.,0.707106781186548,0.707106781186548,1.,1.,0.707106781186548,      113P    156
0.707106781186548,1.,1.,0.707106781186548,0.707106781186548,1.,      113P    157
1.,46.5,0.,50.,46.5,34.,50.,46.5,0.,53.5,46.5,34.,53.5,50.,0.,       113P    158
53.5,50.,34.,53.5,53.5,0.,53.5,53.5,34.,53.5,53.5,0.,50.,53.5,       113P    159
34.,50.,53.5,0.,46.5,53.5,34.,46.5,50.,0.,46.5,50.,34.,46.5,         113P    160
46.5,0.,46.5,46.5,34.,46.5,46.5,0.,50.,46.5,34.,50.,0.,              113P    161
9.71428571428573,-3.14159265358979,3.14159265358979;                 113P    162
128,1,8,1,2,0,1,0,0,1,0.,0.,4.53333333333333,4.53333333333333,       115P    163
-3.14159265358979,-3.14159265358979,-3.14159265358979,               115P    164
-1.5707963267949,-1.5707963267949,0.,0.,1.5707963267949,             115P    165
1.5707963267949,3.14159265358979,3.14159265358979,                   115P    166
3.14159265358979,1.,1.,0.707106781186548,0.707106781186548,1.,       115P    167
1.,0.707106781186548,0.707106781186548,1.,1.,0.707106781186548,      115P    168
0.707106781186548,1.,1.,0.707106781186548,0.707106781186548,1.,      115P    169
1.,42.5,34.,50.,42.5,0.,50.,42.5,34.,57.5,42.5,0.,57.5,50.,34.,      115P    170
57.5,50.,0.,57.5,57.5,34.,57.5,57.5,0.,57.5,57.5,34.,50.,57.5,       115P    171
0.,50.,57.5,34.,42.5,57.5,0.,42.5,50.,34.,42.5,50.,0.,42.5,42.5,     115P    172
34.,42.5,42.5,0.,42.5,42.5,34.,50.,42.5,0.,50.,0.,                   115P    173
4.53333333333333,-3.14159265358979,3.14159265358979;                 115P    174
128,1,1,1,1,0,0,1,0,0,-0.751,-0.751,0.751,0.751,-0.751,-0.751,       117P    175
0.751,0.751,1.,1.,1.,1.,42.49,34.,57.51,57.51,34.,57.51,42.49,       117P    176
34.,42.49,57.51,34.,42.49,-0.751,0.751,-0.751,0.751;                 117P    177
128,1,1,1,1,0,0,1,0,0,0.587614017307231,0.587614017307231,           119P    178
8.73312459828649,8.73312459828649,-0.001,-0.001,0.501,0.501,1.,      119P    179
1.,1.,1.,32.6447323472928,0.01,74.6165310795264,                     119P    180
-0.00400818834019656,0.01,-0.00916157334900802,32.6447323472928,     119P    181
-5.01,74.6165310795264,-0.00400818834019656,-5.01,                   119P    182
-0.00916157334900802,0.587614017307231,8.73312459828649,-0.001,      119P    183
0.501;                                                               119P    184
128,1,1,1,1,0,0,1,0,0,-0.001,-0.001,8.14451058097926,                121P    185
8.14451058097926,-0.001,-0.001,0.501,0.501,1.,1.,1.,1.,              121P    186
100.00400818834,0.01,-0.00916157334902189,67.3552676527072,0.01,     121P    187
74.6165310795264,100.00400818834,-5.01,-0.00916157334902189,         121P    188
67.3552676527072,-5.01,74.6165310795264,-0.001,8.14451058097926,     121P    189
-0.001,0.501;                                                        121P    190
128,1,1,1,1,0,0,1,0,0,-0.001,-0.001,10.001,10.001,-0.001,-0.001,     123P    191
0.501,0.501,1.,1.,1.,1.,-0.01,0.01,0.,100.01,0.01,0.,-0.01,          123P    192
-5.01,0.,100.01,-5.01,0.,-0.001,10.001,-0.001,0.501;                 123P    193
128,1,1,1,1,0,0,1,0,0,-0.351,-0.351,0.351,0.351,-1.351,-1.351,       125P    194
-0.649,-0.649,1.,1.,1.,1.,46.49,0.,53.51,53.51,0.,53.51,46.49,       125P    195
0.,46.49,53.51,0.,46.49,-0.351,0.351,-1.351,-0.649;                  125P    196
128,1,1,1,1,0,0,1,0,0,-4.001,-4.001,4.001,4.001,-5.001,-5.001,       127P    197
5.001,5.001,1.,1.,1.,1.,-0.0100000000000033,-5.,80.01,               127P    198
-0.0100000000000033,-5.,-0.0100000000000033,100.01,-5.,80.01,        127P    199
100.01,-5.,-0.0100000000000122,-4.001,4.001,-5.001,5.001;            127P    200
502,16,32.6407241589526,-5.,74.6073695061773,40.8861401730723,       129P    201
-5.,80.,40.8861401730723,0.,80.,32.6407241589526,0.,                 129P    202
74.6073695061773,59.1138598269277,0.,80.,67.3592758410474,0.,        129P    203
74.6073695061774,100.,0.,0.,0.,0.,0.,42.5,0.,50.,                    129P    204
59.1138598269277,-5.,80.,67.3592758410474,-5.,74.6073695061774,      129P    205
46.5,34.,50.,46.5,0.,50.,42.5,34.,50.,0.,-5.,0.,100.,-5.,0.;         129P    206
504,24,57,129,1,129,2,59,129,2,129,3,61,129,3,129,4,63,129,4,        131P    207
129,1,65,129,3,129,5,67,129,6,129,5,69,129,6,129,7,71,129,7,129,     131P    208
8,73,129,8,129,4,75,129,9,129,9,77,129,10,129,2,79,129,5,129,10,     131P    209
81,129,10,129,11,83,129,11,129,6,85,129,12,129,12,87,129,12,129,     131P    210
13,89,129,13,129,13,91,129,14,129,14,93,129,14,129,9,95,129,8,       131P    211
129,15,97,129,1,129,15,99,129,16,129,11,101,129,7,129,16,103,        131P    212
129,15,129,16;                                                       131P    213
406,1,5HBody1;                                                       133P    214
314,62.7450980392157,62.7450980392157,62.7450980392157,13HSteel      135P    215
- Satin;                                                             135P    216
S      1G      3D    136P    216                                        T      1
