                                                                        S      1
,,12Hextrusion v8,12Hextrusion v8,7Hunknown,7Hunknown,32,38,7,99,15,,1.,G      1
2,2HMM,1,0.08,15H20250912.002134,0.01,10000.,7Hunknown,7Hunknown,11,0,  G      2
15H20240426.123243;                                                     G      3
     186       1                                                00000000D      1
     186            -199       1       0                               0D      2
     514       2                                                00010000D      3
     514                       2       1                               0D      4
     510       4                                                00010000D      5
     510            -199       1       1                               0D      6
     510       5                                                00010000D      7
     510            -199       1       1                               0D      8
     510       6                                                00010000D      9
     510            -199       1       1                               0D     10
     510       7                                                00010000D     11
     510            -199       1       1                               0D     12
     510       8                                                00010000D     13
     510            -199       1       1                               0D     14
     510       9                                                00010000D     15
     510            -199       1       1                               0D     16
     510      10                                                00010000D     17
     510            -199       1       1                               0D     18
     510      11                                                00010000D     19
     510            -199       1       1                               0D     20
     510      12                                                00010000D     21
     510            -199       1       1                               0D     22
     510      13                                                00010000D     23
     510            -199       1       1                               0D     24
     510      14                                                00010000D     25
     510            -199       1       1                               0D     26
     510      15                                                00010000D     27
     510            -199       1       1                               0D     28
     510      16                                                00010000D     29
     510            -199       1       1                               0D     30
     510      17                                                00010000D     31
     510            -199       1       1                               0D     32
     510      18                                                00010000D     33
     510            -199       1       1                               0D     34
     510      19                                                00010000D     35
     510            -199       1       1                               0D     36
     510      20                                                00010000D     37
     510            -199       1       1                               0D     38
     508      21                                                00010000D     39
     508                       1       1                               0D     40
     508      22                                                00010000D     41
     508                       1       1                               0D     42
     508      23                                                00010000D     43
     508                       1       1                               0D     44
     508      24                                                00010000D     45
     508                       1       1                               0D     46
     508      25                                                00010000D     47
     508                       2       1                               0D     48
     508      27                                                00010000D     49
     508                       3       1                               0D     50
     508      30                                                00010000D     51
     508                       1       1                               0D     52
     508      31                                                00010000D     53
     508                       1       1                               0D     54
     508      32                                                00010000D     55
     508                       1       1                               0D     56
     508      33                                                00010000D     57
     508                       2       1                               0D     58
     508      35                                                00010000D     59
     508                       1       1                               0D     60
     508      36                                                00010000D     61
     508                       1       1                               0D     62
     508      37                                                00010000D     63
     508                       1       1                               0D     64
     508      38                                                00010000D     65
     508                       1       1                               0D     66
     508      39                                                00010000D     67
     508                       1       1                               0D     68
     508      40                                                00010000D     69
     508                       1       1                               0D     70
     508      41                                                00010000D     71
     508                       1       1                               0D     72
     508      42                                                00010000D     73
     508                       1       1                               0D     74
     126      43                                                00010000D     75
     126       0               3       0                               0D     76
     126      46                                                00010000D     77
     126       0               2       0                               0D     78
     126      48                                                00010000D     79
     126       0               4       0                               0D     80
     126      52                                                00010000D     81
     126       0               2       0                               0D     82
     126      54                                                00010000D     83
     126       0              24       0                               0D     84
     126      78                                                00010000D     85
     126       0               4       0                               0D     86
     126      82                                                00010000D     87
     126       0               4       0                               0D     88
     126      86                                                00010000D     89
     126       0               3       0                               0D     90
     126      89                                                00010000D     91
     126       0              19       0                               0D     92
     126     108                                                00010000D     93
     126       0               4       0                               0D     94
     126     112                                                00010000D     95
     126       0               4       0                               0D     96
     126     116                                                00010000D     97
     126       0               6       0                               0D     98
     126     122                                                00010000D     99
     126       0               5       0                               0D    100
     126     127                                                00010000D    101
     126       0               5       0                               0D    102
     126     132                                                00010000D    103
     126       0               6       0                               0D    104
     126     138                                                00010000D    105
     126       0               7       0                               0D    106
     126     145                                                00010000D    107
     126       0               3       0                               0D    108
     126     148                                                00010000D    109
     126       0               2       0                               0D    110
     126     150                                                00010000D    111
     126       0               3       0                               0D    112
     126     153                                                00010000D    113
     126       0               4       0                               0D    114
     126     157                                                00010000D    115
     126       0               3       0                               0D    116
     126     160                                                00010000D    117
     126       0               5       0                               0D    118
     126     165                                                00010000D    119
     126       0               4       0                               0D    120
     126     169                                                00010000D    121
     126       0               3       0                               0D    122
     126     172                                                00010000D    123
     126       0               4       0                               0D    124
     126     176                                                00010000D    125
     126       0               3       0                               0D    126
     126     179                                                00010000D    127
     126       0               4       0                               0D    128
     126     183                                                00010000D    129
     126       0               5       0                               0D    130
     126     188                                                00010000D    131
     126       0               4       0                               0D    132
     126     192                                                00010000D    133
     126       0               3       0                               0D    134
     126     195                                                00010000D    135
     126       0               3       0                               0D    136
     126     198                                                00010000D    137
     126       0               3       0                               0D    138
     126     201                                                00010000D    139
     126       0               3       0                               0D    140
     126     204                                                00010000D    141
     126       0               3       0                               0D    142
     126     207                                                00010000D    143
     126       0               3       0                               0D    144
     126     210                                                00010000D    145
     126       0               5       0                               0D    146
     126     215                                                00010000D    147
     126       0               2       0                               0D    148
     126     217                                                00010000D    149
     126       0               3       0                               0D    150
     126     220                                                00010000D    151
     126       0               2       0                               0D    152
     126     222                                                00010000D    153
     126       0               4       0                               0D    154
     126     226                                                00010000D    155
     126       0               3       0                               0D    156
     126     229                                                00010000D    157
     126       0               3       0                               0D    158
     128     232                                                00010000D    159
     128       0    -199       5       0                               0D    160
     128     237                                                00010000D    161
     128       0    -199       4       0                               0D    162
     128     241                                                00010000D    163
     128       0    -199       5       0                               0D    164
     128     246                                                00010000D    165
     128       0    -199      11       0                               0D    166
     128     257                                                00010000D    167
     128       0    -199      16       0                               0D    168
     128     273                                                00010000D    169
     128       0    -199       7       0                               0D    170
     128     280                                                00010000D    171
     128       0    -199      13       0                               0D    172
     128     293                                                00010000D    173
     128       0    -199       6       0                               0D    174
     128     299                                                00010000D    175
     128       0    -199       5       0                               0D    176
     128     304                                                00010000D    177
     128       0    -199       5       0                               0D    178
     128     309                                                00010000D    179
     128       0    -199       6       0                               0D    180
     128     315                                                00010000D    181
     128       0    -199       7       0                               0D    182
     128     322                                                00010000D    183
     128       0    -199       6       0                               0D    184
     128     328                                                00010000D    185
     128       0    -199       5       0                               0D    186
     128     333                                                00010000D    187
     128       0    -199       5       0                               0D    188
     128     338                                                00010000D    189
     128       0    -199       6       0                               0D    190
     128     344                                                00010000D    191
     128       0    -199       7       0                               0D    192
     502     351                                                00010000D    193
     502                      16       1                               0D    194
     504     367                                                00010001D    195
     504                      12       1                               0D    196
     406     379                                                00000000D    197
     406                       1      15                               0D    198
     314     380                                                00000200D    199
     314                       2       0                               0D    200
186,3,1,0,0,1,197;                                                     1P      1
514,17,5,1,7,1,9,1,11,1,13,1,15,1,17,1,19,1,21,1,23,1,25,1,27,1,       3P      2
29,1,31,1,33,1,35,1,37,1;                                              3P      3
510,159,1,1,39;                                                        5P      4
510,161,1,1,41;                                                        7P      5
510,163,1,1,43;                                                        9P      6
510,165,1,1,45;                                                       11P      7
510,167,1,1,47;                                                       13P      8
510,169,2,1,49,51;                                                    15P      9
510,171,1,1,53;                                                       17P     10
510,173,1,1,55;                                                       19P     11
510,175,1,1,57;                                                       21P     12
510,177,1,1,59;                                                       23P     13
510,179,1,1,61;                                                       25P     14
510,181,1,1,63;                                                       27P     15
510,183,1,1,65;                                                       29P     16
510,185,1,1,67;                                                       31P     17
510,187,1,1,69;                                                       33P     18
510,189,1,1,71;                                                       35P     19
510,191,1,1,73;                                                       37P     20
508,4,0,195,1,0,0,0,195,2,0,0,0,195,3,0,0,0,195,4,0,0;                39P     21
508,4,0,195,5,0,0,0,195,6,0,0,0,195,7,0,0,0,195,8,0,0;                41P     22
508,4,0,195,9,0,0,0,195,8,1,0,0,195,10,0,0,0,195,11,0,0;              43P     23
508,3,0,195,12,0,0,0,195,10,1,0,0,195,7,1,0;                          45P     24
508,6,0,195,5,1,0,0,195,9,1,0,0,195,13,0,0,0,195,14,1,0,0,195,        47P     25
15,0,0,0,195,16,0,0;                                                  47P     26
508,12,0,195,17,1,0,0,195,1,1,0,0,195,18,1,0,0,195,19,0,0,0,195,      49P     27
20,0,0,0,195,21,1,0,0,195,13,1,0,0,195,11,1,0,0,195,12,1,0,0,         49P     28
195,6,1,0,0,195,16,1,0,0,195,22,0,0;                                  49P     29
508,4,0,195,23,1,0,0,195,24,0,0,0,195,25,1,0,0,195,26,1,0;            51P     30
508,3,0,195,27,0,0,0,195,20,1,0,0,195,28,0,0;                         53P     31
508,4,0,195,21,0,0,0,195,27,1,0,0,195,29,0,0,0,195,14,0,0;            55P     32
508,8,0,195,19,1,0,0,195,30,1,0,0,195,31,1,0,0,195,32,1,0,0,195,      57P     33
22,1,0,0,195,15,1,0,0,195,29,1,0,0,195,28,1,0;                        57P     34
508,4,0,195,4,1,0,0,195,33,1,0,0,195,30,0,0,0,195,18,0,0;             59P     35
508,4,0,195,2,1,0,0,195,17,0,0,0,195,32,0,0,0,195,34,0,0;             61P     36
508,4,0,195,3,1,0,0,195,34,1,0,0,195,31,0,0,0,195,33,0,0;             63P     37
508,4,0,195,23,0,0,0,195,35,1,0,0,195,36,0,0,0,195,37,0,0;            65P     38
508,4,0,195,24,1,0,0,195,37,1,0,0,195,38,0,0,0,195,39,0,0;            67P     39
508,4,0,195,25,0,0,0,195,39,1,0,0,195,40,0,0,0,195,41,0,0;            69P     40
508,4,0,195,26,0,0,0,195,41,1,0,0,195,42,0,0,0,195,35,0,0;            71P     41
508,4,0,195,42,1,0,0,195,40,1,0,0,195,38,1,0,0,195,36,1,0;            73P     42
126,1,1,0,0,1,0,0.04,0.04,0.632893218813452,0.632893218813452,        75P     43
1.,1.,-8.17106781186548,0.,0.9,-14.1,0.,0.9,0.04,                     75P     44
0.632893218813452,0.,0.,0.;                                           75P     45
126,1,1,0,0,1,0,-0.5,-0.5,0.,0.,1.,1.,-8.17106781186548,5.,0.9,       77P     46
-8.17106781186548,0.,0.9,-0.5,0.,0.,0.,0.;                            77P     47
126,1,1,0,0,1,0,-0.148223304703363,-0.148223304703363,                79P     48
0.444669914110089,0.444669914110089,1.,1.,-14.1,5.,0.9,               79P     49
-8.17106781186548,5.,0.9,-0.148223304703363,0.444669914110089,        79P     50
0.,0.,0.;                                                             79P     51
126,1,1,0,0,1,0,0.,0.,0.5,0.5,1.,1.,-14.1,0.,0.9,-14.1,5.,0.9,        81P     52
0.,0.5,0.,0.,0.;                                                      81P     53
126,15,3,0,0,1,0,1.40612844856077,1.40612844856077,                   83P     54
1.40612844856077,1.40612844856077,1.45853720080379,                   83P     55
1.45853720080379,1.61650837369657,1.61650837369657,                   83P     56
1.77471845085748,1.77471845085748,1.9329285280184,                    83P     57
1.9329285280184,2.08570053692609,2.08570053692609,                    83P     58
2.23847254583379,2.23847254583379,2.35657259574942,                   83P     59
2.35657259574942,2.35657259574942,2.35657259574942,1.,1.,1.,1.,       83P     60
1.,1.,1.,1.,1.,1.,1.,1.,1.,1.,1.,1.,-7.10563139245409,                83P     61
-6.59194920871187D-16,2.40000000000001,-7.0892110938494,              83P     62
-0.188886358355489,2.40000000000001,-7.06839999191024,                83P     63
-0.379219394364099,2.40000000000001,-6.96761321157247,                83P     64
-1.1409301584219,2.40000000000001,-6.85091708547107,                  83P     65
-1.70744989265975,2.40000000000001,-6.57620512417173,                 83P     66
-2.72495546640495,2.40000000000001,-6.39162004718669,                 83P     67
-3.27405923166734,2.40000000000001,-5.9443691500307,                  83P     68
-4.339368293238,2.40000000000001,-5.681647948724,                     83P     69
-4.85555033792335,2.40000000000001,-5.15375549917866,                 83P     70
-5.7476733887892,2.40000000000001,-4.84003976422203,                  83P     71
-6.21082240829021,2.40000000000001,-4.14532785141016,                 83P     72
-7.08279116576145,2.40000000000001,-3.76422284591195,                 83P     73
-7.49152419339958,2.40000000000001,-3.10010405747838,                 83P     74
-8.10323248796531,2.4,-2.74583444415603,-8.3917138888523,2.4,         83P     75
-2.4,-8.62623410784644,2.4,1.40612844856077,2.35657259574942,0.,      83P     76
0.,0.;                                                                83P     77
126,1,1,0,0,1,0,-0.9075,-0.9075,-0.328063139245409,                   85P     78
-0.328063139245409,1.,1.,-12.9,-1.66533453693773D-15,                 85P     79
2.40000000000001,-7.10563139245409,-1.66533453693773D-15,             85P     80
2.40000000000001,-0.9075,-0.328063139245409,0.,0.,0.;                 85P     81
126,2,2,0,0,0,0,0.,0.,0.,1.5707963267949,1.5707963267949,             87P     82
1.5707963267949,1.,0.707106781186548,1.,-2.4,-10.5,2.4,-12.9,         87P     83
-10.5,2.40000000000001,-12.9,-1.92848956650416D-15,                   87P     84
2.40000000000001,0.,1.5707963267949,0.,0.,0.;                         87P     85
126,1,1,0,0,1,0,0.862623410784645,0.862623410784645,1.05,1.05,        89P     86
1.,1.,-2.4,-8.62623410784645,2.4,-2.4,-10.5,2.4,                      89P     87
0.862623410784645,1.05,0.,0.,0.;                                      89P     88
126,15,3,0,0,1,0,2.84569151589465,2.84569151589465,                   91P     89
2.84569151589465,2.84569151589465,2.96379156581029,                   91P     90
2.96379156581029,3.11656357471798,3.11656357471798,                   91P     91
3.26933558362568,3.26933558362568,3.4275456607866,                    91P     92
3.4275456607866,3.58575573794751,3.58575573794751,                    91P     93
3.74372691084028,3.74372691084028,3.79613566308331,                   91P     94
3.79613566308331,3.79613566308331,3.79613566308331,1.,1.,1.,1.,       91P     95
1.,1.,1.,1.,1.,1.,1.,1.,1.,1.,1.,1.,-2.4,-8.62623410784645,2.4,       91P     96
-2.4,-8.3917138888523,2.74583444415604,-2.4,-8.10323248796532,        91P     97
3.10010405747838,-2.4,-7.49152419339958,3.76422284591195,-2.4,        91P     98
-7.08279116576145,4.14532785141017,-2.4,-6.21082240829021,            91P     99
4.84003976422204,-2.4,-5.7476733887892,5.15375549917866,-2.4,         91P    100
-4.85555033792335,5.68164794872401,-2.4,-4.339368293238,              91P    101
5.9443691500307,-2.4,-3.27405923166734,6.39162004718669,-2.4,         91P    102
-2.72495546640495,6.57620512417173,-2.4,-1.70744989265975,            91P    103
6.85091708547107,-2.4,-1.1409301584219,6.96761321157248,-2.4,         91P    104
-0.379219394364101,7.06839999191024,-2.4,-0.188886358355489,          91P    105
7.0892110938494,-2.4,0.,7.10563139245409,2.84569151589465,            91P    106
3.79613566308331,0.,0.,0.;                                            91P    107
126,2,2,0,0,0,0,0.,0.,0.,1.5707963267949,1.5707963267949,             93P    108
1.5707963267949,1.,0.707106781186548,1.,-2.39999999999999,0.,         93P    109
12.9,-2.39999999999999,-10.5,12.9,-2.4,-10.5,2.4,0.,                  93P    110
1.5707963267949,0.,0.,0.;                                             93P    111
126,1,1,0,0,1,0,-0.209436860754591,-0.209436860754591,0.37,0.37,      95P    112
1.,1.,-2.4,-1.08924600456678D-15,7.10563139245409,                    95P    113
-2.39999999999999,-3.79640507735678D-16,12.9,-0.209436860754591,      95P    114
0.37,0.,0.,0.;                                                        95P    115
126,2,2,0,0,0,0,-3.14159265358979,-3.14159265358979,                  97P    116
-3.14159265358979,-1.5707963267949,-1.5707963267949,                  97P    117
-1.5707963267949,1.,0.707106781186548,1.,-2.4,                        97P    118
-3.79640507735679D-16,12.9,-12.9,-3.79640507735678D-16,12.9,          97P    119
-12.9,-1.6655196468404D-15,2.40000000000001,-3.14159265358979,        97P    120
-1.5707963267949,0.,0.,0.;                                            97P    121
126,2,2,0,0,0,0,0.,0.,0.,0.32572949484416,0.32572949484416,           99P    122
0.32572949484416,1.,0.986766826603517,1.,4.59242539415387D-16,        99P    123
0.,7.49999983236194,-1.23240134716569,1.39294968164277D-31,           99P    124
7.49999983236194,-2.4,-5.33596748659006D-17,7.10563139245409,0.,      99P    125
0.32572949484416,0.,0.,0.;                                            99P    126
126,2,2,0,0,0,0,0.,0.,0.,1.03248663270785,1.03248663270785,          101P    127
1.03248663270785,1.,0.869679673158522,1.,4.59242539415387D-16,       101P    128
0.,7.49999983236194,4.20771092536842D-16,-7.62844090589069,          101P    129
6.87171342512469,-1.23259516440783D-31,-10.9999997541308,            101P    130
-2.22044604925031D-15,0.,1.03248663270785,0.,0.,0.;                  101P    131
126,2,2,0,0,0,0,0.,0.,0.,1.03248663270785,1.03248663270785,          103P    132
1.03248663270785,1.,0.869679673158523,1.,-7.49999983236194,          103P    133
-9.71445146547012D-16,9.18485078830773D-16,-6.87171342512469,        103P    134
-7.62844090589069,1.87370167168774D-15,4.44089209850063D-15,         103P    135
-10.9999997541308,1.48834529087209D-15,0.,1.03248663270785,0.,       103P    136
0.,0.;                                                               103P    137
126,2,2,0,0,0,0,1.24506683195073,1.24506683195073,                   105P    138
1.24506683195073,1.5707963267949,1.5707963267949,                    105P    139
1.5707963267949,1.,0.986766826603507,1.,-7.10563139245409,           105P    140
-6.9005099123696D-16,2.40000000000001,-7.49999983236194,             105P    141
-8.48031899911248D-16,1.2324013471657,-7.49999983236194,             105P    142
-1.01478088014006D-15,3.63373454848815D-16,1.24506683195073,         105P    143
1.5707963267949,0.,0.,0.;                                            105P    144
126,1,1,0,0,1,0,-0.82,-0.82,-0.73,-0.73,1.,1.,-8.17106781186548,     107P    145
-2.11443339992599D-15,0.,-8.17106781186548,                          107P    146
-2.00421518800272D-15,0.9,-0.82,-0.73,0.,0.,0.;                      107P    147
126,1,1,0,0,1,0,0.05,0.05,0.14,0.14,1.,1.,-14.1,0.,0.9,-14.1,0.,     109P    148
-1.66533453693773D-15,0.05,0.14,0.,0.,0.;                            109P    149
126,1,1,0,0,1,0,0.,0.,0.19,0.19,1.,1.,-16.,                          111P    150
-2.16486592602065D-15,1.95943487863577D-15,-14.1,                    111P    151
-1.9077880973057D-15,1.72675198679777D-15,0.,0.19,0.,0.,0.;          111P    152
126,2,2,0,0,0,0,0.,0.,0.,1.5707963267949,1.5707963267949,            113P    153
1.5707963267949,1.,0.707106781186548,1.,9.79717439317882D-16,0.,     113P    154
16.,-16.,5.82967042988118D-31,16.,-16.,-2.16486592602065D-15,        113P    155
6.27167249085577D-16,0.,1.5707963267949,0.,0.,0.;                    113P    156
126,1,1,0,0,1,0,0.,0.,0.850000016763806,0.850000016763806,1.,1.,     115P    157
9.79717439317882D-16,0.,16.,4.59242539415387D-16,0.,                 115P    158
7.49999983236194,0.,0.850000016763806,0.,0.,0.;                      115P    159
126,1,1,0,0,1,0,0.782893218813452,0.782893218813452,                 117P    160
0.850000016763806,0.850000016763806,1.,1.,-8.17106781186548,         117P    161
-1.10557914281948D-15,1.0006672041417D-15,-7.49999983236194,         117P    162
-1.01478088014006D-15,9.18485078830773D-16,0.782893218813452,        117P    163
0.850000016763806,0.,0.,0.;                                          117P    164
126,1,1,0,0,1,0,0.0400000000000003,0.0400000000000003,               119P    165
0.632893218813452,0.632893218813452,1.,1.,-0.799999999999999,0.,     119P    166
8.17106781186548,-0.799999999999999,0.,14.1,0.0400000000000003,      119P    167
0.632893218813452,0.,0.,0.;                                          119P    168
126,1,1,0,0,1,0,0.,0.,0.0999999999999986,0.0999999999999986,1.,      121P    169
1.,-1.8,0.,14.1,-0.800000000000012,0.,14.1,0.,                       121P    170
0.0999999999999986,0.,0.,0.;                                         121P    171
126,1,1,0,0,1,0,0.0399999999999998,0.0399999999999998,               123P    172
0.632893218813452,0.632893218813452,1.,1.,-1.8,0.,14.1,              123P    173
-1.79999999999997,0.,8.17106781186548,0.0399999999999998,            123P    174
0.632893218813452,0.,0.,0.;                                          123P    175
126,1,1,0,0,1,0,0.,0.,0.0999999999999986,0.0999999999999986,1.,      125P    176
1.,-1.79999999999998,0.,8.17106781186548,-0.799999999999999,0.,      125P    177
8.17106781186548,0.,0.0999999999999986,0.,0.,0.;                     125P    178
126,2,2,0,0,0,0,0.,0.,0.,1.5707963267949,1.5707963267949,            127P    179
1.5707963267949,1.,0.707106781186548,1.,9.79717439317882D-16,0.,     127P    180
16.,9.79717439317882D-16,-16.,16.,5.99903913064743D-32,-16.,         127P    181
9.79717439317882D-16,0.,1.5707963267949,0.,0.,0.;                    127P    182
126,2,2,0,0,0,0,-1.5707963267949,-1.5707963267949,                   129P    183
-1.5707963267949,0.,0.,0.,1.,0.707106781186548,1.,                   129P    184
1.18514848670277D-15,-16.,2.16486592602065D-15,-16.,-16.,            129P    185
4.12430080465641D-15,-16.,-2.16486592602065D-15,                     129P    186
1.95943487863577D-15,-1.5707963267949,0.,0.,0.,0.;                   129P    187
126,1,1,0,0,1,0,1.09999997541308,1.09999997541308,1.6,1.6,1.,1.,     131P    188
8.24867862026788D-32,-10.9999997541308,1.3471114489518D-15,          131P    189
1.19980782612949D-31,-16.,1.95943487863576D-15,1.09999997541308,     131P    190
1.6,0.,0.,0.;                                                        131P    191
126,1,1,0,0,1,0,0.,0.,0.5,0.5,1.,1.,-14.1,0.,                        133P    192
-1.38777878078145D-15,-14.1,5.,-1.38777878078145D-15,0.,0.5,0.,      133P    193
0.,0.;                                                               133P    194
126,1,1,0,0,1,0,-0.632893218813452,-0.632893218813452,-0.04,         135P    195
-0.04,1.,1.,-14.1,5.,-1.48457569244124D-15,-8.17106781186548,5.,     135P    196
1.66185850698862D-16,-0.632893218813452,-0.04,0.,0.,0.;              135P    197
126,1,1,0,0,1,0,-0.5,-0.5,0.,0.,1.,1.,-8.17106781186548,5.,          137P    198
2.77555756156289D-16,-8.17106781186548,0.,2.77555756156289D-16,      137P    199
-0.5,0.,0.,0.,0.;                                                    137P    200
126,1,1,0,0,1,0,-0.0500000000000001,-0.0500000000000001,0.04,        139P    201
0.04,1.,1.,-14.1,5.,0.9,-14.1,5.,-1.38777878078145D-15,              139P    202
-0.0500000000000001,0.04,0.,0.,0.;                                   139P    203
126,1,1,0,0,1,0,0.05,0.05,0.14,0.14,1.,1.,-8.17106781186548,5.,      141P    204
0.9,-8.17106781186548,5.,2.77555756156289D-16,0.05,0.14,0.,0.,       141P    205
0.;                                                                  141P    206
126,1,1,0,0,1,0,0.,0.,0.5,0.5,1.,1.,-0.799999999999999,0.,           143P    207
8.17106781186548,-0.799999999999999,5.,8.17106781186548,0.,0.5,      143P    208
0.,0.,0.;                                                            143P    209
126,1,1,0,0,1,0,-0.632893218813452,-0.632893218813452,               145P    210
-0.0400000000000003,-0.0400000000000003,1.,1.,                       145P    211
-0.799999999999999,5.,14.1,-0.799999999999999,5.,                    145P    212
8.17106781186548,-0.632893218813452,-0.0400000000000003,0.,0.,       145P    213
0.;                                                                  145P    214
126,1,1,0,0,1,0,0.,0.,0.5,0.5,1.,1.,-0.800000000000012,0.,14.1,      147P    215
-0.800000000000012,5.,14.1,0.,0.5,0.,0.,0.;                          147P    216
126,1,1,0,0,1,0,0.,0.,0.0999999999999986,0.0999999999999986,1.,      149P    217
1.,-1.8,5.,14.1,-0.800000000000012,5.,14.1,0.,                       149P    218
0.0999999999999986,0.,0.,0.;                                         149P    219
126,1,1,0,0,1,0,0.,0.,0.5,0.5,1.,1.,-1.8,0.,14.1,-1.8,5.,14.1,       151P    220
0.,0.5,0.,0.,0.;                                                     151P    221
126,1,1,0,0,1,0,-0.632893218813452,-0.632893218813452,               153P    222
-0.0399999999999998,-0.0399999999999998,1.,1.,-1.79999999999997,     153P    223
5.,8.17106781186548,-1.8,5.,14.1,-0.632893218813452,                 153P    224
-0.0399999999999998,0.,0.,0.;                                        153P    225
126,1,1,0,0,1,0,0.,0.,0.5,0.5,1.,1.,-1.79999999999998,0.,            155P    226
8.17106781186548,-1.79999999999998,5.,8.17106781186548,0.,0.5,       155P    227
0.,0.,0.;                                                            155P    228
126,1,1,0,0,1,0,-0.0999999999999986,-0.0999999999999986,0.,0.,       157P    229
1.,1.,-0.799999999999999,5.,8.17106781186548,-1.79999999999998,      157P    230
5.,8.17106781186548,-0.0999999999999986,0.,0.,0.,0.;                 157P    231
128,1,1,1,1,0,0,1,0,0,-0.593893218813452,-0.593893218813452,         159P    232
0.001,0.001,-0.001,-0.001,0.501,0.501,1.,1.,1.,1.,-14.11,-0.01,      159P    233
0.9,-8.16106781186548,-0.01,0.9,-14.11,5.01,0.9,                     159P    234
-8.16106781186548,5.01,0.9,-0.593893218813452,0.001,-0.001,          159P    235
0.501;                                                               159P    236
128,1,1,1,1,0,0,1,0,0,-0.526,-0.526,0.526,0.526,-0.526,-0.526,       161P    237
0.526,0.526,1.,1.,1.,1.,-2.38999999999999,0.00999999999999557,       161P    238
2.4,-12.91,0.0100000000000022,2.40000000000001,-2.39,-10.51,2.4,     161P    239
-12.91,-10.51,2.40000000000001,-0.526,0.526,-0.526,0.526;            161P    240
128,1,1,1,1,0,0,1,0,0,-1.051,-1.051,0.00099999999999989,             163P    241
0.00099999999999989,-1.051,-1.051,0.001,0.001,1.,1.,1.,1.,-2.4,      163P    242
-10.51,2.39,-2.39999999999999,-10.51,12.91,-2.4,                     163P    243
0.0099999999999989,2.39,-2.39999999999999,0.01,12.91,-1.051,         163P    244
0.00099999999999989,-1.051,0.001;                                    163P    245
128,2,2,2,2,0,0,0,0,0,5.28677630773884D-17,5.28677630773884D-17,     165P    246
5.28677630773884D-17,1.5707963267949,1.5707963267949,                165P    247
1.5707963267949,-3.14159265358979,-3.14159265358979,                 165P    248
-3.14159265358979,-1.57079632678657,-1.57079632678657,               165P    249
-1.57079632678657,1.,0.707106781186548,1.,0.707106781183604,         165P    250
0.499999999997918,0.707106781183604,1.,0.707106781186548,1.,         165P    251
-12.9,0.,2.4,-12.9,0.,12.9,-2.4,0.,12.9,-12.9000000000437,           165P    252
-10.5000000000437,2.4,-12.9000000000437,-10.5000000000437,12.9,      165P    253
-2.4,-5.55111512314889D-16,12.9,-2.4,-10.5,2.4,-2.4,-10.5,12.9,      165P    254
-2.4,-5.55111512312578D-16,12.9,5.28677630773884D-17,                165P    255
1.5707963267949,-3.14159265358979,-1.57079632678657;                 165P    256
128,2,2,2,2,0,0,0,0,0,0.0821755771246115,0.0821755771246115,         167P    257
0.0821755771246115,1.11466220983246,1.11466220983246,                167P    258
1.11466220983246,-3.14159265358979,-3.14159265358979,                167P    259
-3.14159265358979,-1.5707963267949,-1.5707963267949,                 167P    260
-1.5707963267949,1.,0.869679673158524,1.,0.707106781186548,          167P    261
0.614956394350493,0.707106781186548,1.,0.869679673158524,1.,0.,      167P    262
4.16333634234434D-16,7.49999983236194,5.72041443753372D-32,          167P    263
-7.62844090589068,6.87171342512469,8.24867862026788D-32,             167P    264
-10.9999997541308,4.73776848653288D-16,-7.49999983236194,            167P    265
4.16333634234433D-16,7.49999983236194,-6.87171342512469,             167P    266
-7.62844090589068,6.87171342512469,8.73334600298512D-16,             167P    267
-10.9999997541308,4.73776848653288D-16,-7.49999983236194,            167P    268
-5.55111512312578D-16,4.62223186652937D-32,-6.87171342512469,        167P    269
-7.62844090589068,9.34214573788376D-16,8.73334600298513D-16,         167P    270
-10.9999997541308,1.3471114489518D-15,0.0821755771246115,            167P    271
1.11466220983246,-3.14159265358979,-1.5707963267949;                 167P    272
128,1,1,1,1,0,0,1,0,0,-1.601,-1.601,0.00100000000000011,             169P    273
0.00100000000000011,-1.601,-1.601,0.001,0.001,1.,1.,1.,1.,           169P    274
-16.01,-1.96065952543491D-15,-0.0100000000000011,-16.01,             169P    275
1.2246467991475D-18,16.01,0.010000000000001,                         169P    276
-1.96065952543491D-15,-0.0100000000000011,0.0100000000000011,        169P    277
1.22464679914747D-18,16.01,-1.601,0.00100000000000011,-1.601,        169P    278
0.001;                                                               169P    279
128,2,2,2,2,0,0,0,0,0,3.91979530678486D-17,3.91979530678486D-17,     171P    280
3.91979530678486D-17,1.5707963267949,1.5707963267949,                171P    281
1.5707963267949,-3.14159265358979,-3.14159265358979,                 171P    282
-3.14159265358979,-1.57079632679343,-1.57079632679343,               171P    283
-1.57079632679343,1.,0.707106781186548,1.,0.707106781186028,         171P    284
0.499999999999633,0.707106781186028,1.,0.707106781186548,1.,         171P    285
-9.79717439317882D-16,0.,16.,-16.,0.,16.,-16.,0.,                    171P    286
6.27167249085577D-16,-9.79717439318602D-16,                          171P    287
-9.79717439318602D-16,16.,-16.0000000000117,-16.0000000000117,       171P    288
16.,-16.0000000000117,-16.0000000000117,6.27167249085577D-16,0.,     171P    289
-9.79717439317882D-16,16.,0.,-16.,16.,0.,-16.,                       171P    290
6.27167249085577D-16,3.91979530678486D-17,1.5707963267949,           171P    291
-3.14159265358979,-1.57079632679343;                                 171P    292
128,1,1,1,1,0,0,1,0,0,-0.976,-0.976,0.626,0.626,-0.801,-0.801,       173P    293
0.801,0.801,1.,1.,1.,1.,-6.12323399573799D-19,-16.01,                173P    294
-0.0100000000000022,-6.12323399573799D-19,0.01,                      173P    295
-0.0100000000000022,9.80329762717456D-16,-16.01,16.01,               173P    296
9.80329762717456D-16,0.0099999999999989,16.01,-0.976,0.626,          173P    297
-0.801,0.801;                                                        173P    298
128,1,1,1,1,0,0,1,0,0,-0.976,-0.976,1.126,1.126,-0.801,-0.801,       175P    299
0.801,0.801,1.,1.,1.,1.,0.0100000000000033,5.01,                     175P    300
-6.79098289884363D-16,0.0100000000000056,-16.01,                     175P    301
2.16499432042526D-15,-16.01,5.01,1.2827858823497D-15,-16.01,         175P    302
-16.01,4.12687849265932D-15,-0.976,1.126,-0.801,0.801;               175P    303
128,1,1,1,1,0,0,1,0,0,-0.041,-0.041,0.0510000000000001,              177P    304
0.0510000000000001,-0.001,-0.001,0.501,0.501,1.,1.,1.,1.,-14.1,      177P    305
-0.01,-0.0100000000000017,-14.1,-0.01,0.91,-14.1,5.01,               177P    306
-0.0100000000000017,-14.1,5.01,0.91,-0.041,0.0510000000000001,       177P    307
-0.001,0.501;                                                        177P    308
128,1,1,1,1,0,0,1,0,0,0.049,0.049,0.141,0.141,                       179P    309
-0.00100000000000021,-0.00100000000000021,0.501,0.501,1.,1.,1.,      179P    310
1.,-8.17106781186548,-0.0100000000000021,0.91,-8.17106781186548,     179P    311
-0.0100000000000021,-0.01,-8.17106781186548,5.01,0.91,               179P    312
-8.17106781186548,5.01,-0.01,0.049,0.141,-0.00100000000000021,       179P    313
0.501;                                                               179P    314
128,1,1,1,1,0,0,1,0,0,-0.0910000000000001,-0.0910000000000001,       181P    315
0.00100000000000006,0.00100000000000006,-0.297446609406726,          181P    316
-0.297446609406726,0.297446609406726,0.297446609406726,1.,1.,1.,     181P    317
1.,-14.11,5.,-0.0100000000000015,-14.11,5.,0.91,                     181P    318
-8.16106781186548,5.,-0.0100000000000015,-8.16106781186548,5.,       181P    319
0.91,-0.0910000000000001,0.00100000000000006,-0.297446609406726,     181P    320
0.297446609406726;                                                   181P    321
128,1,1,1,1,0,0,1,0,0,-0.001,-0.001,0.593893218813452,               183P    322
0.593893218813452,-0.001,-0.001,0.501,0.501,1.,1.,1.,1.,             183P    323
-0.799999999999999,-0.01,14.11,-0.799999999999999,-0.01,             183P    324
8.16106781186548,-0.799999999999999,5.01,14.11,                      183P    325
-0.799999999999999,5.01,8.16106781186548,-0.001,                     183P    326
0.593893218813452,-0.001,0.501;                                      183P    327
128,1,1,1,1,0,0,1,0,0,-0.001,-0.001,0.100999999999999,               185P    328
0.100999999999999,-0.001,-0.001,0.501,0.501,1.,1.,1.,1.,-1.81,       185P    329
-0.01,14.1,-0.790000000000012,-0.01,14.1,-1.81,5.01,14.1,            185P    330
-0.790000000000012,5.01,14.1,-0.001,0.100999999999999,-0.001,        185P    331
0.501;                                                               185P    332
128,1,1,1,1,0,0,1,0,0,-0.001,-0.001,0.593893218813452,               187P    333
0.593893218813452,-0.001,-0.001,0.501,0.501,1.,1.,1.,1.,             187P    334
-1.79999999999997,-0.01,8.16106781186548,-1.8,-0.01,14.11,           187P    335
-1.79999999999997,5.01,8.16106781186548,-1.8,5.01,14.11,-0.001,      187P    336
0.593893218813452,-0.001,0.501;                                      187P    337
128,1,1,1,1,0,0,1,0,0,-0.001,-0.001,0.100999999999999,               189P    338
0.100999999999999,-0.001,-0.001,0.501,0.501,1.,1.,1.,1.,             189P    339
-0.789999999999999,-0.01,8.17106781186548,-1.80999999999998,         189P    340
-0.01,8.17106781186548,-0.789999999999999,5.01,8.17106781186548,     189P    341
-1.80999999999998,5.01,8.17106781186548,-0.001,                      189P    342
0.100999999999999,-0.001,0.501;                                      189P    343
128,1,1,1,1,0,0,1,0,0,-0.297446609406726,-0.297446609406726,         191P    344
0.297446609406726,0.297446609406726,-0.0509999999999999,             191P    345
-0.0509999999999999,0.0509999999999999,0.0509999999999999,1.,1.,     191P    346
1.,1.,-1.81,5.,8.16106781186548,-1.81,5.,14.11,                      191P    347
-0.789999999999999,5.,8.16106781186548,-0.789999999999999,5.,        191P    348
14.11,-0.297446609406726,0.297446609406726,-0.0509999999999999,      191P    349
0.0509999999999999;                                                  191P    350
502,28,-8.17106781186548,0.,0.9,-14.1,0.,0.9,-8.17106781186548,      193P    351
5.,0.9,-14.1,5.,0.9,-7.10563139245409,-9.47858080173607D-16,         193P    352
2.40000000000001,-2.4,-8.62623410784645,2.4,-12.9,0.,                193P    353
2.40000000000001,-2.4,-10.5,2.4,-2.4,-5.33596748659005D-17,          193P    354
7.10563139245409,-2.39999999999999,0.,12.9,4.59242539415387D-16,     193P    355
0.,7.49999983236194,-1.52958495762775D-31,-10.9999997541308,         193P    356
-2.4980018054066D-15,-7.49999983236194,-1.01478088014006D-15,        193P    357
9.18485078830773D-16,-8.17106781186548,0.,2.77555756156289D-16,      193P    358
-14.1,0.,-1.38777878078145D-15,-16.,-2.16486592602065D-15,           193P    359
1.95943487863577D-15,9.79717439317882D-16,0.,16.,                    193P    360
-0.799999999999999,0.,8.17106781186548,-0.800000000000012,0.,        193P    361
14.1,-1.8,0.,14.1,-1.79999999999998,0.,8.17106781186548,             193P    362
1.19980782612949D-31,-16.,1.95943487863576D-15,-14.1,5.,             193P    363
-1.38777878078145D-15,-8.17106781186548,5.,2.77555756156289D-16,     193P    364
-0.799999999999999,5.,8.17106781186548,-0.800000000000012,5.,        193P    365
14.1,-1.8,5.,14.1,-1.79999999999998,5.,8.17106781186548;             193P    366
504,42,75,193,1,193,2,77,193,3,193,1,79,193,4,193,3,81,193,2,        195P    367
193,4,83,193,5,193,6,85,193,7,193,5,87,193,8,193,7,89,193,6,193,     195P    368
8,91,193,6,193,9,93,193,10,193,8,95,193,9,193,10,97,193,10,193,      195P    369
7,99,193,11,193,9,101,193,11,193,12,103,193,13,193,12,105,193,5,     195P    370
193,13,107,193,14,193,1,109,193,2,193,15,111,193,16,193,15,113,      195P    371
193,17,193,16,115,193,17,193,11,117,193,14,193,13,119,193,18,        195P    372
193,19,121,193,20,193,19,123,193,20,193,21,125,193,21,193,18,        195P    373
127,193,17,193,22,129,193,22,193,16,131,193,12,193,22,133,193,       195P    374
15,193,23,135,193,23,193,24,137,193,24,193,14,139,193,4,193,23,      195P    375
141,193,3,193,24,143,193,18,193,25,145,193,26,193,25,147,193,19,     195P    376
193,26,149,193,27,193,26,151,193,20,193,27,153,193,28,193,27,        195P    377
155,193,21,193,28,157,193,25,193,28;                                 195P    378
406,1,5HBody4;                                                       197P    379
314,62.7450980392157,62.7450980392157,62.7450980392157,13HSteel      199P    380
- Satin;                                                             199P    381
S      1G      3D    200P    381                                        T      1
