0
SECTION
2
HEADER
9
$INSUNITS
70
4
9
$ACADVER
1
AC1014
9
$HANDSEED
5
FFFF
0
ENDSEC
0
SECTION
2
TABLES
0
TABLE
2
VPORT
5
8
100
AcDbSymbolTable
0
ENDTAB
0
TABLE
2
LTYPE
5
5
100
AcDbSymbolTable
0
LTYPE
5
14
100
AcDbSymbolTableRecord
100
AcDbLinetypeTableRecord
2
BYBLOCK
70
0
0
LTYPE
5
15
100
AcDbSymbolTableRecord
100
AcDbLinetypeTableRecord
2
BYLAYER
70
0
0
LTYPE
5
16
100
AcDbSymbolTableRecord
100
AcDbLinetypeTableRecord
2
DASHED
70
0
3
Dashed __ __ __ __ __ __ __ __ __ __ __ __ __ _
72
65
73
2
40
0.75
49
0.5
74
0
49
-0.25
74
0
0
ENDTAB
0
TABLE
2
LAYER
5
2
100
AcDbSymbolTable
70
2
0
LAYER
5
50
100
AcDbSymbolTableRecord
100
AcDbLayerTableRecord
2
0
70
0
62
7
6
CONTINUOUS
0
ENDTAB
0
TABLE
2
STYLE
5
3
100
AcDbSymbolTable
70
1
0
STYLE
5
11
100
AcDbSymbolTableRecord
100
AcDbTextStyleTableRecord
2
STANDARD
70
0
0
ENDTAB
0
TABLE
2
VIEW
5
6
100
AcDbSymbolTable
70
0
0
ENDTAB
0
TABLE
2
UCS
5
7
100
AcDbSymbolTable
70
0
0
ENDTAB
0
TABLE
2
APPID
5
9
100
AcDbSymbolTable
70
2
0
APPID
5
12
100
AcDbSymbolTableRecord
100
AcDbRegAppTableRecord
2
ACAD
70
0
0
ENDTAB
0
TABLE
2
DIMSTYLE
5
A
100
AcDbSymbolTable
70
1
0
ENDTAB
0
TABLE
2
BLOCK_RECORD
5
1
100
AcDbSymbolTable
70
1
0
BLOCK_RECORD
5
1F
100
AcDbSymbolTableRecord
100
AcDbBlockTableRecord
2
*MODEL_SPACE
0
BLOCK_RECORD
5
1B
100
AcDbSymbolTableRecord
100
AcDbBlockTableRecord
2
*PAPER_SPACE
0
ENDTAB
0
ENDSEC
0
SECTION
2
BLOCKS
0
BLOCK
5
20
100
AcDbEntity
100
AcDbBlockBegin
2
*MODEL_SPACE
0
ENDBLK
5
21
100
AcDbEntity
100
AcDbBlockEnd
0
BLOCK
5
1C
100
AcDbEntity
100
AcDbBlockBegin
2
*PAPER_SPACE
0
ENDBLK
5
1D
100
AcDbEntity
100
AcDbBlockEnd
0
ENDSEC
0
SECTION
2
ENTITIES
0
POINT
5
100
100
AcDbEntity
8
0
100
AcDbPoint
10
0
20
0
30
0
0
SPLINE
5
101
100
AcDbEntity
8
0
100
AcDbSpline
70
0
71
3
72
43
73
39
74
0
42
0.000000001
43
0.0000000001
44
0.0000000001
40
-0.31269307276322789
40
-0.31269307276322789
40
-0.31269307276322789
40
-0.31269307276322789
40
-0.25772692392458885
40
-0.25772692392458885
40
0
40
0
40
0
40
0.14592279328374413
40
0.14592279328374413
40
0.29184558656748827
40
0.29184558656748827
40
0.549572510492077
40
0.549572510492077
40
0.80729943441666574
40
0.80729943441666574
40
1.0650263583412545
40
1.0650263583412545
40
1.3227532822658432
40
1.3227532822658432
40
1.5804802061904319
40
1.5804802061904319
40
1.8382071301150207
40
1.8382071301150207
40
2.0959340540396094
40
2.0959340540396094
40
2.3536609779641982
40
2.3536609779641982
40
2.6113879018887873
40
2.6113879018887873
40
2.8691148258133765
40
2.8691148258133765
40
3.1268417497379652
40
3.1268417497379652
40
3.384568673662554
40
3.384568673662554
40
3.6422955975871432
40
3.6422955975871432
40
3.8450563726730937
40
3.8450563726730937
40
3.8450563726730937
40
3.8450563726730937
10
-6.59748035573294
20
-2.6839641620313159e-12
30
0
10
-6.5974801244725079
20
0.18264008139010193
30
0
10
-6.5898964008530676
20
0.36548901557706714
30
0
10
-6.5033079760436117
20
1.4041964269308815
30
0
10
-6.2654033255281938
20
2.2381919946997773
30
0
10
-5.8743526094208862
20
3.0031197885652245
30
0
10
-5.6529430184435636
20
3.4362154024867202
30
0
10
-5.3843149582177263
20
3.8435001616716056
30
0
10
-4.7624254946394826
20
4.5915840915815416
30
0
10
-4.4110669897763355
20
4.9300942256474514
30
0
10
-3.3450868481919138
20
5.7511021739081816
30
0
10
-2.5685854431469979
20
6.1373570091637379
30
0
10
-0.9112322690061091
20
6.5904808617125887
30
0
10
-0.046225699582192886
20
6.6530177680039344
30
0
10
1.6590701519561617
20
6.4430015107530503
30
0
10
2.4830558762718451
20
6.1724562170978405
30
0
10
3.9809435507141551
20
5.3307476663883921
30
0
10
4.6405248782612567
20
4.7676316018455411
30
0
10
5.7067108037565752
20
3.4202681238414496
30
0
10
6.1031220831408319
20
2.648902239599761
30
0
10
6.5779556706851547
20
0.99763792589241906
30
0
10
6.6518383109439982
20
0.13352648327439168
30
0
10
6.4642180198795662
20
-1.5743784894815542
30
0
10
6.2045088407998286
20
-2.4018435171997972
30
0
10
5.3825289174126487
20
-3.910647604923581
30
0
10
4.8281167491864601
20
-4.5775616754887185
30
0
10
3.4948603966779475
20
-5.6613366835412613
30
0
10
2.7287628698064608
20
-6.0678361412486694
30
0
10
1.0838717800067024
20
-6.5642976929130086
30
0
10
0.22080427243182654
20
-6.6495133438435765
30
0
10
-1.4894157040056222
20
-6.4843213289703154
30
0
10
-2.3202175377515517
20
-6.2354929888652784
30
0
10
-3.8396782082932832
20
-5.4333832455879278
30
0
10
-4.5138101729086602
20
-4.8877704487449298
30
0
10
-5.6149876271187846
20
-3.568850821200134
30
0
10
-6.0315052600632022
20
-2.8081535810044018
30
0
10
-6.4942711903445716
20
-1.3446144406577532
30
0
10
-6.5974772088638334
20
-0.67372819902436865
30
0
10
-6.59748035573294
20
-2.6829927168847689e-12
30
0
0
CIRCLE
5
102
100
AcDbEntity
8
0
100
AcDbCircle
10
0
20
0
30
0
40
6.5974802865355509
210
0
220
0
230
1
0
ENDSEC
0
SECTION
2
OBJECTS
0
DICTIONARY
5
C
100
AcDbDictionary
3
ACAD_GROUP
350
D
3
ACAD_MLINESTYLE
350
17
0
DICTIONARY
5
D
100
AcDbDictionary
0
DICTIONARY
5
1A
330
C
100
AcDbDictionary
0
DICTIONARY
5
17
100
AcDbDictionary
0
ENDSEC
0
EOF
