0
SECTION
2
HEADER
9
$INSUNITS
70
4
9
$ACADVER
1
AC1014
9
$HANDSEED
5
FFFF
0
ENDSEC
0
SECTION
2
TABLES
0
TABLE
2
VPORT
5
8
100
AcDbSymbolTable
0
ENDTAB
0
TABLE
2
LTYPE
5
5
100
AcDbSymbolTable
0
LTYPE
5
14
100
AcDbSymbolTableRecord
100
AcDbLinetypeTableRecord
2
BYBLOCK
70
0
0
LTYPE
5
15
100
AcDbSymbolTableRecord
100
AcDbLinetypeTableRecord
2
BYLAYER
70
0
0
LTYPE
5
16
100
AcDbSymbolTableRecord
100
AcDbLinetypeTableRecord
2
DASHED
70
0
3
Dashed __ __ __ __ __ __ __ __ __ __ __ __ __ _
72
65
73
2
40
0.75
49
0.5
74
0
49
-0.25
74
0
0
ENDTAB
0
TABLE
2
LAYER
5
2
100
AcDbSymbolTable
70
2
0
LAYER
5
50
100
AcDbSymbolTableRecord
100
AcDbLayerTableRecord
2
0
70
0
62
7
6
CONTINUOUS
0
ENDTAB
0
TABLE
2
STYLE
5
3
100
AcDbSymbolTable
70
1
0
STYLE
5
11
100
AcDbSymbolTableRecord
100
AcDbTextStyleTableRecord
2
STANDARD
70
0
0
ENDTAB
0
TABLE
2
VIEW
5
6
100
AcDbSymbolTable
70
0
0
ENDTAB
0
TABLE
2
UCS
5
7
100
AcDbSymbolTable
70
0
0
ENDTAB
0
TABLE
2
APPID
5
9
100
AcDbSymbolTable
70
2
0
APPID
5
12
100
AcDbSymbolTableRecord
100
AcDbRegAppTableRecord
2
ACAD
70
0
0
ENDTAB
0
TABLE
2
DIMSTYLE
5
A
100
AcDbSymbolTable
70
1
0
ENDTAB
0
TABLE
2
BLOCK_RECORD
5
1
100
AcDbSymbolTable
70
1
0
BLOCK_RECORD
5
1F
100
AcDbSymbolTableRecord
100
AcDbBlockTableRecord
2
*MODEL_SPACE
0
BLOCK_RECORD
5
1B
100
AcDbSymbolTableRecord
100
AcDbBlockTableRecord
2
*PAPER_SPACE
0
ENDTAB
0
ENDSEC
0
SECTION
2
BLOCKS
0
BLOCK
5
20
100
AcDbEntity
100
AcDbBlockBegin
2
*MODEL_SPACE
0
ENDBLK
5
21
100
AcDbEntity
100
AcDbBlockEnd
0
BLOCK
5
1C
100
AcDbEntity
100
AcDbBlockBegin
2
*PAPER_SPACE
0
ENDBLK
5
1D
100
AcDbEntity
100
AcDbBlockEnd
0
ENDSEC
0
SECTION
2
ENTITIES
0
POINT
5
100
100
AcDbEntity
8
0
100
AcDbPoint
10
0
20
0
30
0
0
SPLINE
5
101
100
AcDbEntity
8
0
100
AcDbSpline
70
0
71
3
72
43
73
39
74
0
42
0.000000001
43
0.0000000001
44
0.0000000001
40
-0.2579421240443277
40
-0.2579421240443277
40
-0.2579421240443277
40
-0.2579421240443277
40
-0.16318917479526446
40
-0.16318917479526446
40
0
40
0
40
0
40
0.092396323430926852
40
0.092396323430926852
40
0.18479264686185282
40
0.18479264686185282
40
0.34798182165711777
40
0.34798182165711777
40
0.51117099645238184
40
0.51117099645238184
40
0.67436017124764591
40
0.67436017124764591
40
0.8375493460429102
40
0.8375493460429102
40
1.0007385208381745
40
1.0007385208381745
40
1.1639276956334388
40
1.1639276956334388
40
1.3271168704287029
40
1.3271168704287029
40
1.4903060452239671
40
1.4903060452239671
40
1.6534952200192312
40
1.6534952200192312
40
1.8166843948144953
40
1.8166843948144953
40
1.9798735696097596
40
1.9798735696097596
40
2.1430627444050234
40
2.1430627444050234
40
2.3062519192002875
40
2.3062519192002875
40
2.3746881447464889
40
2.3746881447464889
40
2.3746881447464889
40
2.3746881447464889
10
-4.1774346218288319
20
-2.3684179617511347e-13
30
0
10
-4.1774323360323198
20
0.31439954616953486
30
0
10
-4.1419405074052813
20
0.62852665585345768
30
0
10
-3.9492226176697631
20
1.4664574585144552
30
0
10
-3.7249187990952808
20
1.9676983258857708
30
0
10
-3.4108610857723516
20
2.4118430034349392
30
0
10
-3.2330442784224274
20
2.6633139440070863
30
0
10
-3.0279614482096449
20
2.8943506938065955
30
0
10
-2.5707482508738124
20
3.3071241133667488
30
0
10
-2.3200168949150179
20
3.4875977517327668
30
0
10
-1.5779018257687176
20
3.9060315653848527
30
0
10
-1.0564142083684684
20
4.0780934003409381
30
0
10
0.023161946714209888
20
4.2126381622175311
30
0
10
0.57092914793958249
20
4.1738347678819379
30
0
10
1.6207574512834619
20
3.8884446820877145
30
0
10
2.1127816226213674
20
3.6445864753988921
30
0
10
2.9756608741599044
20
2.9819958288939654
30
0
10
3.3382663584102996
20
2.5695981167982529
30
0
10
3.8849890930538926
20
1.6290231761394263
30
0
10
4.0638793761169847
20
1.1098383566619612
30
0
10
4.2125793784893792
20
0.032120732761353465
30
0
10
4.180967444728239
20
-0.51610850377581186
30
0
10
3.9093783892327822
20
-1.5695914663844186
30
0
10
3.6719978068964725
20
-2.0647733211407453
30
0
10
3.0207874154004788
20
-2.9362731740260788
30
0
10
2.6131835325205826
20
-3.3042591585573828
30
0
10
1.6798639931722539
20
-3.8632775885238253
30
0
10
1.1630713801984434
20
-4.0489655130799003
30
0
10
0.087397880740183384
20
-4.2117951483885365
30
0
10
-0.4611989808020911
20
-4.18738011907854
30
0
10
-1.5181551828551094
20
-3.9296388641091773
30
0
10
-2.0164094459885873
20
-3.6987767853271558
30
0
10
-2.8963798196286912
20
-3.0590587934844859
30
0
10
-3.2696829337424087
20
-2.6563189330990973
30
0
10
-3.8409007907229409
20
-1.7304155215932906
30
0
10
-4.0333543795392357
20
-1.2161041117432174
30
0
10
-4.1589195907036949
20
-0.45429828871178146
30
0
10
-4.1774334294225497
20
-0.22707808489746734
30
0
10
-4.1774346218288319
20
-2.3574892038524808e-13
30
0
0
CIRCLE
5
102
100
AcDbEntity
8
0
100
AcDbCircle
10
0
20
0
30
0
40
4.1774346218027789
210
0
220
0
230
1
0
ENDSEC
0
SECTION
2
OBJECTS
0
DICTIONARY
5
C
100
AcDbDictionary
3
ACAD_GROUP
350
D
3
ACAD_MLINESTYLE
350
17
0
DICTIONARY
5
D
100
AcDbDictionary
0
DICTIONARY
5
1A
330
C
100
AcDbDictionary
0
DICTIONARY
5
17
100
AcDbDictionary
0
ENDSEC
0
EOF
