0
SECTION
2
HEADER
9
$INSUNITS
70
4
9
$ACADVER
1
AC1014
9
$HANDSEED
5
FFFF
0
ENDSEC
0
SECTION
2
TABLES
0
TABLE
2
VPORT
5
8
100
AcDbSymbolTable
0
ENDTAB
0
TABLE
2
LTYPE
5
5
100
AcDbSymbolTable
0
LTYPE
5
14
100
AcDbSymbolTableRecord
100
AcDbLinetypeTableRecord
2
BYBLOCK
70
0
0
LTYPE
5
15
100
AcDbSymbolTableRecord
100
AcDbLinetypeTableRecord
2
BYLAYER
70
0
0
LTYPE
5
16
100
AcDbSymbolTableRecord
100
AcDbLinetypeTableRecord
2
DASHED
70
0
3
Dashed __ __ __ __ __ __ __ __ __ __ __ __ __ _
72
65
73
2
40
0.75
49
0.5
74
0
49
-0.25
74
0
0
ENDTAB
0
TABLE
2
LAYER
5
2
100
AcDbSymbolTable
70
2
0
LAYER
5
50
100
AcDbSymbolTableRecord
100
AcDbLayerTableRecord
2
0
70
0
62
7
6
CONTINUOUS
0
ENDTAB
0
TABLE
2
STYLE
5
3
100
AcDbSymbolTable
70
1
0
STYLE
5
11
100
AcDbSymbolTableRecord
100
AcDbTextStyleTableRecord
2
STANDARD
70
0
0
ENDTAB
0
TABLE
2
VIEW
5
6
100
AcDbSymbolTable
70
0
0
ENDTAB
0
TABLE
2
UCS
5
7
100
AcDbSymbolTable
70
0
0
ENDTAB
0
TABLE
2
APPID
5
9
100
AcDbSymbolTable
70
2
0
APPID
5
12
100
AcDbSymbolTableRecord
100
AcDbRegAppTableRecord
2
ACAD
70
0
0
ENDTAB
0
TABLE
2
DIMSTYLE
5
A
100
AcDbSymbolTable
70
1
0
ENDTAB
0
TABLE
2
BLOCK_RECORD
5
1
100
AcDbSymbolTable
70
1
0
BLOCK_RECORD
5
1F
100
AcDbSymbolTableRecord
100
AcDbBlockTableRecord
2
*MODEL_SPACE
0
BLOCK_RECORD
5
1B
100
AcDbSymbolTableRecord
100
AcDbBlockTableRecord
2
*PAPER_SPACE
0
ENDTAB
0
ENDSEC
0
SECTION
2
BLOCKS
0
BLOCK
5
20
100
AcDbEntity
100
AcDbBlockBegin
2
*MODEL_SPACE
0
ENDBLK
5
21
100
AcDbEntity
100
AcDbBlockEnd
0
BLOCK
5
1C
100
AcDbEntity
100
AcDbBlockBegin
2
*PAPER_SPACE
0
ENDBLK
5
1D
100
AcDbEntity
100
AcDbBlockEnd
0
ENDSEC
0
SECTION
2
ENTITIES
0
POINT
5
100
100
AcDbEntity
8
0
100
AcDbPoint
10
0
20
0
30
0
0
POINT
5
101
100
AcDbEntity
8
0
100
AcDbPoint
10
6.0000000000000009
20
-5
30
0
0
SPLINE
5
102
100
AcDbEntity
8
0
100
AcDbSpline
70
2
71
3
72
43
73
39
74
0
42
0.000000001
43
0.0000000001
44
0.0000000001
40
-8.0382784331515431
40
-8.0382784331515431
40
-8.0382784331515431
40
-8.0382784331515431
40
-7.5144637007838853
40
-7.5144637007838853
40
-6.9777162935850363
40
-6.9777162935850363
40
-6.4409688863861874
40
-6.4409688863861874
40
-5.9042214791873384
40
-5.9042214791873384
40
-5.3674740719884895
40
-5.3674740719884895
40
-4.8307266647896405
40
-4.8307266647896405
40
-4.2939792575907916
40
-4.2939792575907916
40
-3.7572318503919426
40
-3.7572318503919426
40
-3.2204844431930937
40
-3.2204844431930937
40
-2.6837370359942447
40
-2.6837370359942447
40
-2.1469896287953958
40
-2.1469896287953958
40
-1.6102422215965468
40
-1.6102422215965468
40
-1.0734948143976979
40
-1.0734948143976979
40
-0.53674740719884895
40
-0.53674740719884895
40
0
40
0
40
0
40
0.30390181884597744
40
0.30390181884597744
40
0.60780363769195489
40
0.60780363769195489
40
0.62073631252314598
40
0.62073631252314598
40
0.62073631252314598
40
0.62073631252314598
10
13.740048657163724
20
-8.8817841970012523e-15
30
0
10
13.740048459107285
20
-1.7452654443031088
30
0
10
13.407514557575489
20
-3.4750795640962218
30
0
10
12.096207343910885
20
-6.758090812439038
30
0
10
11.114371153620704
20
-8.2741028151468239
30
0
10
8.6248531390594945
20
-10.844442441440325
30
0
10
7.1409724638998249
20
-11.874196217255344
30
0
10
3.8620141651851112
20
-13.306948189722775
30
0
10
2.0982851701361298
20
-13.696248496608238
30
0
10
-1.4791224784199746
20
-13.776872657823667
30
0
10
-3.2585991649690875
20
-13.46742570122885
30
0
10
-6.5987754490164257
20
-12.183849396209505
30
0
10
-8.1275411407024283
20
-11.221991736864098
30
0
10
-10.730328350057736
20
-8.7664175713916279
30
0
10
-11.779465803376969
20
-7.2961776926778024
30
0
10
-13.255122804632752
20
-4.0363031315996887
30
0
10
-13.667534267342083
20
-2.2778346268082164
30
0
10
-13.795096307742927
20
1.2982069927997262
30
0
10
-13.509027322801519
20
3.081591200639473
30
0
10
-12.269393273362736
20
6.4383237134845794
30
0
10
-11.327679786030753
20
7.9795798261065674
30
0
10
-8.906472342953645
20
10.614366393725934
30
0
10
-7.4501264500243511
20
11.682706853067238
30
0
10
-4.2098970080936171
20
13.201014760892475
30
0
10
-2.4569918186185236
20
13.636466358235854
30
0
10
1.1170679435455884
20
13.810944310421336
30
0
10
2.9040525568952429
20
13.548302560942711
30
0
10
6.2767632371636584
20
12.352824243898535
30
0
10
7.8302443517097089
20
11.43141710062995
30
0
10
10.496576542200497
20
9.0449933349772511
30
0
10
11.583936029140823
20
7.6027922244942214
30
0
10
12.364284702782149
20
5.9927790623194275
30
0
10
12.80611148773351
20
5.081203297278762
30
0
10
13.145775369547312
20
4.1235553007010761
30
0
10
13.608381275435697
20
2.151064259130318
30
0
10
13.729907787379915
20
1.142256772613321
30
0
10
13.739845960306729
20
0.086188554444487364
30
0
10
13.740048657042998
20
0.043089567915092192
30
0
10
13.740048657163724
20
-8.8817841970012523e-15
30
0
0
CIRCLE
5
103
100
AcDbEntity
8
0
100
AcDbCircle
10
8.0750000000000011
20
-6.2000000000000002
30
0
40
1.7500000000000002
210
0
220
0
230
1
0
LWPOLYLINE
5
104
100
AcDbEntity
8
0
100
AcDbPolyline
90
4
70
1
43
0.0
10
-3.0000000447034836
20
7.0000001043081284
10
3.0000000447034836
20
7.0000001043081284
10
3.0000000447034836
20
10.000000149011612
10
-3.0000000447034836
20
10.000000149011612
0
CIRCLE
5
105
100
AcDbEntity
8
0
100
AcDbCircle
10
8.0750000000000011
20
-6.2000000000000002
30
0
40
1.3999999999999999
210
0
220
0
230
1
0
LWPOLYLINE
5
106
100
AcDbEntity
8
0
100
AcDbPolyline
90
4
70
1
43
0.0
10
-2.6000000447034832
20
7.4000001043081287
10
2.6000000447034832
20
7.4000001043081287
10
2.6000000447034832
20
9.6000001490116116
10
-2.6000000447034832
20
9.6000001490116116
0
ENDSEC
0
SECTION
2
OBJECTS
0
DICTIONARY
5
C
100
AcDbDictionary
3
ACAD_GROUP
350
D
3
ACAD_MLINESTYLE
350
17
0
DICTIONARY
5
D
100
AcDbDictionary
0
DICTIONARY
5
1A
330
C
100
AcDbDictionary
0
DICTIONARY
5
17
100
AcDbDictionary
0
ENDSEC
0
EOF
