0
SECTION
2
HEADER
9
$INSUNITS
70
4
9
$ACADVER
1
AC1014
9
$HANDSEED
5
FFFF
0
ENDSEC
0
SECTION
2
TABLES
0
TABLE
2
VPORT
5
8
100
AcDbSymbolTable
0
ENDTAB
0
TABLE
2
LTYPE
5
5
100
AcDbSymbolTable
0
LTYPE
5
14
100
AcDbSymbolTableRecord
100
AcDbLinetypeTableRecord
2
BYBLOCK
70
0
0
LTYPE
5
15
100
AcDbSymbolTableRecord
100
AcDbLinetypeTableRecord
2
BYLAYER
70
0
0
LTYPE
5
16
100
AcDbSymbolTableRecord
100
AcDbLinetypeTableRecord
2
DASHED
70
0
3
Dashed __ __ __ __ __ __ __ __ __ __ __ __ __ _
72
65
73
2
40
0.75
49
0.5
74
0
49
-0.25
74
0
0
ENDTAB
0
TABLE
2
LAYER
5
2
100
AcDbSymbolTable
70
2
0
LAYER
5
50
100
AcDbSymbolTableRecord
100
AcDbLayerTableRecord
2
0
70
0
62
7
6
CONTINUOUS
0
ENDTAB
0
TABLE
2
STYLE
5
3
100
AcDbSymbolTable
70
1
0
STYLE
5
11
100
AcDbSymbolTableRecord
100
AcDbTextStyleTableRecord
2
STANDARD
70
0
0
ENDTAB
0
TABLE
2
VIEW
5
6
100
AcDbSymbolTable
70
0
0
ENDTAB
0
TABLE
2
UCS
5
7
100
AcDbSymbolTable
70
0
0
ENDTAB
0
TABLE
2
APPID
5
9
100
AcDbSymbolTable
70
2
0
APPID
5
12
100
AcDbSymbolTableRecord
100
AcDbRegAppTableRecord
2
ACAD
70
0
0
ENDTAB
0
TABLE
2
DIMSTYLE
5
A
100
AcDbSymbolTable
70
1
0
ENDTAB
0
TABLE
2
BLOCK_RECORD
5
1
100
AcDbSymbolTable
70
1
0
BLOCK_RECORD
5
1F
100
AcDbSymbolTableRecord
100
AcDbBlockTableRecord
2
*MODEL_SPACE
0
BLOCK_RECORD
5
1B
100
AcDbSymbolTableRecord
100
AcDbBlockTableRecord
2
*PAPER_SPACE
0
ENDTAB
0
ENDSEC
0
SECTION
2
BLOCKS
0
BLOCK
5
20
100
AcDbEntity
100
AcDbBlockBegin
2
*MODEL_SPACE
0
ENDBLK
5
21
100
AcDbEntity
100
AcDbBlockEnd
0
BLOCK
5
1C
100
AcDbEntity
100
AcDbBlockBegin
2
*PAPER_SPACE
0
ENDBLK
5
1D
100
AcDbEntity
100
AcDbBlockEnd
0
ENDSEC
0
SECTION
2
ENTITIES
0
POINT
5
100
100
AcDbEntity
8
0
100
AcDbPoint
10
0
20
0
30
0
0
SPLINE
5
101
100
AcDbEntity
8
0
100
AcDbSpline
70
0
71
3
72
43
73
39
74
0
42
0.000000001
43
0.0000000001
44
0.0000000001
40
-0.4210516375778115
40
-0.4210516375778115
40
-0.4210516375778115
40
-0.4210516375778115
40
-0.33481229542110086
40
-0.33481229542110086
40
0
40
0
40
0
40
0.1895678752906873
40
0.1895678752906873
40
0.3791357505813755
40
0.3791357505813755
40
0.71394804600247497
40
0.71394804600247497
40
1.0487603414235753
40
1.0487603414235753
40
1.3835726368446757
40
1.3835726368446757
40
1.7183849322657756
40
1.7183849322657756
40
2.0531972276868755
40
2.0531972276868755
40
2.3880095231079754
40
2.3880095231079754
40
2.7228218185290753
40
2.7228218185290753
40
3.0576341139501753
40
3.0576341139501753
40
3.3924464093712752
40
3.3924464093712752
40
3.727258704792376
40
3.727258704792376
40
4.0620710002134759
40
4.0620710002134759
40
4.3968832956345754
40
4.3968832956345754
40
4.7316955910556757
40
4.7316955910556757
40
4.980268544320066
40
4.980268544320066
40
4.980268544320066
40
4.980268544320066
10
-8.5707674939886775
20
-2.7171320748919925e-12
30
0
10
-8.5707669247770877
20
0.28642845551453089
30
0
10
-8.5564095350522287
20
0.57319030714893404
30
0
10
-8.4157102060685105
20
1.9696255083391105
30
0
10
-8.0880089160254478
20
3.0475752148090827
30
0
10
-7.5629331031347515
20
4.0323812212539627
30
0
10
-7.2656396417610303
20
4.5899700098630012
30
0
10
-6.9075922315887173
20
5.1129750300061403
30
0
10
-6.0830564729579431
20
6.070730437284757
30
0
10
-5.6190910935178149
20
6.5025502211147792
30
0
10
-4.2160903467225364
20
7.5450768785943332
30
0
10
-3.1988354740280696
20
8.0293869333670429
30
0
10
-1.0359406118973566
20
8.5808175580330044
30
0
10
0.089020923788140777
20
8.6426661506015421
30
0
10
2.2993307812687429
20
8.3316673525733034
30
0
10
3.3635473361143866
20
7.9617932799931186
30
0
10
5.2903005805322101
20
6.8349339926034647
30
0
10
6.1344164589261023
20
6.0887221667672033
30
0
10
7.4891012247791
20
4.3147382030243682
30
0
10
7.9867185875164068
20
3.3039263187071377
30
0
10
8.5664844941988623
20
1.1484538851326334
30
0
10
8.6430901600792929
20
0.024400827163571503
30
0
10
8.361123110468986
20
-2.1897998189805361
30
0
10
8.0052461536564383
20
-3.2587784421458554
30
0
10
6.9037678695690028
20
-5.2001530860862584
30
0
10
6.1686972750420388
20
-6.053988507134342
30
0
10
4.4126430202289484
20
-7.4318358762590098
30
0
10
3.4084481957423494
20
-7.9426748525019262
30
0
10
1.2607693836483551
20
-8.5506761999786143
30
0
10
0.1378183760599673
20
-8.6420257469441726
30
0
10
-2.0798917522646536
20
-8.3891390031687543
30
0
10
-3.1534483554286972
20
-8.0473204475321971
30
0
10
-5.1091100756500394
20
-6.9714128518197089
30
0
10
-5.9725180007440324
20
-6.2476100747737338
30
0
10
-7.3732906946736056
20
-4.5097879381923693
30
0
10
-7.8972633130751149
20
-3.5123831054689427
30
0
10
-8.4514694749569603
20
-1.6484108056755731
30
0
10
-8.5707627649746776
20
-0.82559033156446215
30
0
10
-8.5707674939886775
20
-2.714772850964664e-12
30
0
0
CIRCLE
5
102
100
AcDbEntity
8
0
100
AcDbCircle
10
0
20
0
30
0
40
8.5707674923529691
210
0
220
0
230
1
0
ENDSEC
0
SECTION
2
OBJECTS
0
DICTIONARY
5
C
100
AcDbDictionary
3
ACAD_GROUP
350
D
3
ACAD_MLINESTYLE
350
17
0
DICTIONARY
5
D
100
AcDbDictionary
0
DICTIONARY
5
1A
330
C
100
AcDbDictionary
0
DICTIONARY
5
17
100
AcDbDictionary
0
ENDSEC
0
EOF
