0
SECTION
2
HEADER
9
$INSUNITS
70
4
9
$ACADVER
1
AC1014
9
$HANDSEED
5
FFFF
0
ENDSEC
0
SECTION
2
TABLES
0
TABLE
2
VPORT
5
8
100
AcDbSymbolTable
0
ENDTAB
0
TABLE
2
LTYPE
5
5
100
AcDbSymbolTable
0
LTYPE
5
14
100
AcDbSymbolTableRecord
100
AcDbLinetypeTableRecord
2
BYBLOCK
70
0
0
LTYPE
5
15
100
AcDbSymbolTableRecord
100
AcDbLinetypeTableRecord
2
BYLAYER
70
0
0
LTYPE
5
16
100
AcDbSymbolTableRecord
100
AcDbLinetypeTableRecord
2
DASHED
70
0
3
Dashed __ __ __ __ __ __ __ __ __ __ __ __ __ _
72
65
73
2
40
0.75
49
0.5
74
0
49
-0.25
74
0
0
ENDTAB
0
TABLE
2
LAYER
5
2
100
AcDbSymbolTable
70
2
0
LAYER
5
50
100
AcDbSymbolTableRecord
100
AcDbLayerTableRecord
2
0
70
0
62
7
6
CONTINUOUS
0
ENDTAB
0
TABLE
2
STYLE
5
3
100
AcDbSymbolTable
70
1
0
STYLE
5
11
100
AcDbSymbolTableRecord
100
AcDbTextStyleTableRecord
2
STANDARD
70
0
0
ENDTAB
0
TABLE
2
VIEW
5
6
100
AcDbSymbolTable
70
0
0
ENDTAB
0
TABLE
2
UCS
5
7
100
AcDbSymbolTable
70
0
0
ENDTAB
0
TABLE
2
APPID
5
9
100
AcDbSymbolTable
70
2
0
APPID
5
12
100
AcDbSymbolTableRecord
100
AcDbRegAppTableRecord
2
ACAD
70
0
0
ENDTAB
0
TABLE
2
DIMSTYLE
5
A
100
AcDbSymbolTable
70
1
0
ENDTAB
0
TABLE
2
BLOCK_RECORD
5
1
100
AcDbSymbolTable
70
1
0
BLOCK_RECORD
5
1F
100
AcDbSymbolTableRecord
100
AcDbBlockTableRecord
2
*MODEL_SPACE
0
BLOCK_RECORD
5
1B
100
AcDbSymbolTableRecord
100
AcDbBlockTableRecord
2
*PAPER_SPACE
0
ENDTAB
0
ENDSEC
0
SECTION
2
BLOCKS
0
BLOCK
5
20
100
AcDbEntity
100
AcDbBlockBegin
2
*MODEL_SPACE
0
ENDBLK
5
21
100
AcDbEntity
100
AcDbBlockEnd
0
BLOCK
5
1C
100
AcDbEntity
100
AcDbBlockBegin
2
*PAPER_SPACE
0
ENDBLK
5
1D
100
AcDbEntity
100
AcDbBlockEnd
0
ENDSEC
0
SECTION
2
ENTITIES
0
POINT
5
100
100
AcDbEntity
8
0
100
AcDbPoint
10
0
20
0
30
0
0
SPLINE
5
101
100
AcDbEntity
8
0
100
AcDbSpline
70
0
71
3
72
43
73
39
74
0
42
0.000000001
43
0.0000000001
44
0.0000000001
40
-0.51073551265743289
40
-0.51073551265743289
40
-0.51073551265743289
40
-0.51073551265743289
40
-0.39300963787898235
40
-0.39300963787898235
40
0
40
0
40
0
40
0.22251871583084526
40
0.22251871583084526
40
0.4450374316616923
40
0.4450374316616923
40
0.83804706954067587
40
0.83804706954067587
40
1.2310567074196577
40
1.2310567074196577
40
1.6240663452986395
40
1.6240663452986395
40
2.0170759831776213
40
2.0170759831776213
40
2.4100856210566031
40
2.4100856210566031
40
2.8030952589355844
40
2.8030952589355844
40
3.1961048968145658
40
3.1961048968145658
40
3.5891145346935471
40
3.5891145346935471
40
3.9821241725725285
40
3.9821241725725285
40
4.3751338104515094
40
4.3751338104515094
40
4.7681434483304912
40
4.7681434483304912
40
5.1611530862094721
40
5.1611530862094721
40
5.5541627240884548
40
5.5541627240884548
40
5.8294464871889851
40
5.8294464871889851
40
5.8294464871889851
40
5.8294464871889851
10
-10.060545192705488
20
-1.3498924200661122e-12
30
0
10
-10.060544104817463
20
0.39087003410861321
30
0
10
-10.037766817905229
20
0.78217645875731678
30
0
10
-9.8394530214894118
20
2.4730382092103347
30
0
10
-9.4341735980088082
20
3.7319059834010981
30
0
10
-8.7990286609135033
20
4.8776699559207781
30
0
10
-8.439414997157936
20
5.5263917765516348
30
0
10
-8.0091596932141975
20
6.133358995753051
30
0
10
-7.0230679951918376
20
7.2416329302929983
30
0
10
-6.4702489096741909
20
7.7395484757866706
30
0
10
-4.8036081960321688
20
8.9362241492323804
30
0
10
-3.6004066138110069
20
9.4851371082097362
30
0
10
-1.0513214484951974
20
10.090861061289335
30
0
10
0.27019149106027263
20
10.141881004255078
30
0
10
2.8583900825351529
20
9.7344933038333359
30
0
10
4.1003311452428424
20
9.279980508905334
30
0
10
6.3400865278590057
20
7.9204833542891873
30
0
10
7.3164875655486696
20
7.028496528382373
30
0
10
8.8724189604860992
20
4.9204609068580272
30
0
10
9.4370737655501333
20
3.7245660807504519
30
0
10
10.076196139231143
20
1.1836490654137013
30
0
10
10.144553349607124
20
-0.13708057224208453
30
0
10
9.7711645726339693
20
-2.7304022855275689
30
0
10
9.3329883855053062
20
-3.978200792108721
30
0
10
8.002999661304866
20
-6.235603432504794
30
0
10
7.1239025413363084
20
-7.2236255666980309
30
0
10
5.0364662673561895
20
-8.8070858565188619
30
0
10
3.8480841418645491
20
-9.3873852687232322
30
0
10
1.3157728466667158
20
-10.059796000033296
30
0
10
-0.0039460468410959515
20
-10.145478706055506
30
0
10
-2.6019442871881977
20
-9.8061531536418531
30
0
10
-3.8553853548313288
20
-9.3843890324337824
30
0
10
-6.130046506728597
20
-8.0841377754004089
30
0
10
-7.1295195905844819
20
-7.2180817502840355
30
0
10
-8.7402360883146937
20
-5.1516043002964462
30
0
10
-9.3360801745623991
20
-3.9709395261643419
30
0
10
-9.9359848758330109
20
-1.8255922058293386
30
0
10
-10.060539244287732
20
-0.91398916399603747
30
0
10
-10.060545192705488
20
-1.3541945342865347e-12
30
0
0
CIRCLE
5
102
100
AcDbEntity
8
0
100
AcDbCircle
10
0
20
0
30
0
40
10.060545075314417
210
0
220
0
230
1
0
ENDSEC
0
SECTION
2
OBJECTS
0
DICTIONARY
5
C
100
AcDbDictionary
3
ACAD_GROUP
350
D
3
ACAD_MLINESTYLE
350
17
0
DICTIONARY
5
D
100
AcDbDictionary
0
DICTIONARY
5
1A
330
C
100
AcDbDictionary
0
DICTIONARY
5
17
100
AcDbDictionary
0
ENDSEC
0
EOF
