0
SECTION
2
HEADER
9
$INSUNITS
70
4
9
$ACADVER
1
AC1014
9
$HANDSEED
5
FFFF
0
ENDSEC
0
SECTION
2
TABLES
0
TABLE
2
VPORT
5
8
100
AcDbSymbolTable
0
ENDTAB
0
TABLE
2
LTYPE
5
5
100
AcDbSymbolTable
0
LTYPE
5
14
100
AcDbSymbolTableRecord
100
AcDbLinetypeTableRecord
2
BYBLOCK
70
0
0
LTYPE
5
15
100
AcDbSymbolTableRecord
100
AcDbLinetypeTableRecord
2
BYLAYER
70
0
0
LTYPE
5
16
100
AcDbSymbolTableRecord
100
AcDbLinetypeTableRecord
2
DASHED
70
0
3
Dashed __ __ __ __ __ __ __ __ __ __ __ __ __ _
72
65
73
2
40
0.75
49
0.5
74
0
49
-0.25
74
0
0
ENDTAB
0
TABLE
2
LAYER
5
2
100
AcDbSymbolTable
70
2
0
LAYER
5
50
100
AcDbSymbolTableRecord
100
AcDbLayerTableRecord
2
0
70
0
62
7
6
CONTINUOUS
0
ENDTAB
0
TABLE
2
STYLE
5
3
100
AcDbSymbolTable
70
1
0
STYLE
5
11
100
AcDbSymbolTableRecord
100
AcDbTextStyleTableRecord
2
STANDARD
70
0
0
ENDTAB
0
TABLE
2
VIEW
5
6
100
AcDbSymbolTable
70
0
0
ENDTAB
0
TABLE
2
UCS
5
7
100
AcDbSymbolTable
70
0
0
ENDTAB
0
TABLE
2
APPID
5
9
100
AcDbSymbolTable
70
2
0
APPID
5
12
100
AcDbSymbolTableRecord
100
AcDbRegAppTableRecord
2
ACAD
70
0
0
ENDTAB
0
TABLE
2
DIMSTYLE
5
A
100
AcDbSymbolTable
70
1
0
ENDTAB
0
TABLE
2
BLOCK_RECORD
5
1
100
AcDbSymbolTable
70
1
0
BLOCK_RECORD
5
1F
100
AcDbSymbolTableRecord
100
AcDbBlockTableRecord
2
*MODEL_SPACE
0
BLOCK_RECORD
5
1B
100
AcDbSymbolTableRecord
100
AcDbBlockTableRecord
2
*PAPER_SPACE
0
ENDTAB
0
ENDSEC
0
SECTION
2
BLOCKS
0
BLOCK
5
20
100
AcDbEntity
100
AcDbBlockBegin
2
*MODEL_SPACE
0
ENDBLK
5
21
100
AcDbEntity
100
AcDbBlockEnd
0
BLOCK
5
1C
100
AcDbEntity
100
AcDbBlockBegin
2
*PAPER_SPACE
0
ENDBLK
5
1D
100
AcDbEntity
100
AcDbBlockEnd
0
ENDSEC
0
SECTION
2
ENTITIES
0
LWPOLYLINE
5
100
100
AcDbEntity
8
0
100
AcDbPolyline
90
5
70
1
43
0.0
10
-17.977295002399877
20
-77.609069013800223
42
0.024878529123771847
10
-14.8056341194482
20
-75.534411918560508
42
0.20246035693370365
10
-28.87320712767151
20
-54.215277902572161
42
0.054332347447690124
10
-32.195915053259981
20
-58.630222238090298
42
-0.22251566988592994
10
-26.315518397860885
20
-60.760969646860879
42
-0.16430654227349359
0
LWPOLYLINE
5
101
100
AcDbEntity
8
0
100
AcDbPolyline
90
4
70
1
43
0.0
10
-24.740490078849874
20
-50.662994569580178
42
0.034155345560816792
10
-27.465343976385725
20
-52.827268180517137
42
-0.19209333461337139
10
-13.09406679275499
20
-74.213204671632184
42
0.024914407461508418
10
-10.280000000000001
20
-71.666428257419994
42
0.17225119481331694
0
LWPOLYLINE
5
102
100
AcDbEntity
8
0
100
AcDbPolyline
90
4
70
1
43
0.0
10
-21.669753361094124
20
-79.508070625350328
42
0.034100407969561528
10
-22.180443760475708
20
-76.071608399064388
42
-0.19209771499112621
10
-47.887567076997811
20
-77.821985926156884
42
0.02489497176818534
10
-47.089505540890002
20
-81.529505540890014
42
0.17225119481332207
0
LWPOLYLINE
5
103
100
AcDbEntity
8
0
100
AcDbPolyline
90
4
70
1
43
0.0
10
-48.185690358359885
20
-67.744868603379757
42
0.034144591309662298
10
-44.949991679557101
20
-69.022192659599838
42
-0.19209728561440351
10
-33.610529662193407
20
-45.884909864609007
42
0.024937511344510804
10
-37.22642825741999
20
-44.720000000000013
42
0.17225119481332934
0
LWPOLYLINE
5
104
100
AcDbEntity
8
0
100
AcDbPolyline
90
5
70
1
43
0.0
10
-28.231302895622591
20
-48.414732634314547
42
0.024854755846625876
10
-31.610529662192135
20
-46.706793162174819
42
0.20246407128388089
10
-43.044081491649422
20
-69.547503113407544
42
0.054289830913666307
10
-37.563627296584663
20
-70.217770428176266
42
-0.22220106381648741
10
-38.655068550763716
20
-64.067342145301694
42
-0.16437392473284482
0
LWPOLYLINE
5
105
100
AcDbEntity
8
0
100
AcDbPolyline
90
5
70
1
43
0.0
10
-48.387303421399579
20
-71.897550764810006
42
0.024861055465158849
10
-48.17617041866712
20
-75.678941093956936
42
0.20247032121485586
10
-22.678158910866621
20
-74.15819929919536
42
0.05432106852197173
10
-24.838592743492647
20
-69.073708509668776
42
-0.22241238356265733
10
-29.622324712300877
20
-73.098900776366719
42
-0.16432197914238425
0
LWPOLYLINE
5
106
100
AcDbEntity
8
0
100
AcDbPolyline
90
40
70
1
43
0.0
10
-61.20000000000001
20
-4.4000000000000004
42
0.41421356237309503
10
-62.000000000000014
20
-5.2000000000000002
10
-62
20
-5.3800000000000008
42
-0.41421356237309503
10
-62.800000000000004
20
-6.1800000000000015
10
-64
20
-6.1799999999999997
42
0.92980160361294739
10
-64.565217391300692
20
-13.938824860054751
42
-0.37222906594967514
10
-62
20
-16.907151675480002
10
-62
20
-94.366888458900007
42
0.15449976411995095
10
-61.635677630703505
20
-95.517783192755431
10
-59.189571379880007
20
-98.994244731009999
42
0.7161971266257865
10
-52.103502722051246
20
-96.915254237289957
42
-0.40185290630850473
10
-50.105298989770006
20
-95.000000000000014
10
-11.894701010229998
20
-95.000000000000014
42
-0.40185290630851639
10
-9.8964972779487521
20
-96.915254237290043
42
0.71619712662566648
10
-2.8104286201223121
20
-98.994244731009786
10
-0.36432236929340001
20
-95.517783192760021
42
0.15449976412020267
10
0
20
-94.366888458900007
10
-5.5511151231257827e-16
20
-16.907151675480002
42
-0.37222906595005073
10
2.5652173913046115
20
-13.938824860054178
42
0.92980160361247399
10
2.0000000000000009
20
-6.1799999999999988
10
0.80000000000000016
20
-6.1800000000000015
42
-0.41421356237309503
10
0
20
-5.3800000000000008
10
0
20
-5.2000000000000002
42
0.41421356237309503
10
-0.80000000000000016
20
-4.4000000000000004
10
-23.75
20
-4.4000000000000004
10
-23.75
20
-5.5999999999999996
10
-24.75
20
-5.5999999999999996
10
-24.75
20
-22.650000000000002
10
-39.25
20
-22.650000000000002
10
-39.25
20
-5.6000000000000005
10
-40.25
20
-5.5999999999999996
10
-40.25
20
-4.4000000000000004
10
-41.75
20
-4.4000000000000004
10
-41.75
20
-5.5999999999999996
10
-42.75
20
-5.5999999999999996
10
-42.75
20
-22.650000000000002
10
-57.250000000000007
20
-22.650000000000002
10
-57.250000000000007
20
-5.6000000000000005
10
-58.25
20
-5.5999999999999996
10
-58.25
20
-4.4000000000000004
0
CIRCLE
5
107
100
AcDbEntity
8
0
100
AcDbCircle
10
-2
20
-10.08
30
0
40
2.8999999999999999
210
0
220
0
230
-1
0
CIRCLE
5
108
100
AcDbEntity
8
0
100
AcDbCircle
10
64
20
-10.08
30
0
40
2.8999999999999999
210
0
220
0
230
-1
0
CIRCLE
5
109
100
AcDbEntity
8
0
100
AcDbCircle
10
56.000000000000007
20
-96.75
30
0
40
2.8999999999999999
210
0
220
0
230
-1
0
CIRCLE
5
110
100
AcDbEntity
8
0
100
AcDbCircle
10
6.0000000000000009
20
-96.75
30
0
40
2.8999999999999999
210
0
220
0
230
-1
0
CIRCLE
5
111
100
AcDbEntity
8
0
100
AcDbCircle
10
31.531115169940005
20
-65.975197807490005
30
0
40
4
210
0
220
0
230
-1
0
LWPOLYLINE
5
112
100
AcDbEntity
8
0
100
AcDbPolyline
90
4
70
1
43
0.0
10
-55.000000819563866
20
-42.00000062584877
10
-7.0000001043081284
20
-42.00000062584877
10
-7.0000001043081284
20
-90.000001341104507
10
-55.000000819563866
20
-90.000001341104507
0
ENDSEC
0
SECTION
2
OBJECTS
0
DICTIONARY
5
C
100
AcDbDictionary
3
ACAD_GROUP
350
D
3
ACAD_MLINESTYLE
350
17
0
DICTIONARY
5
D
100
AcDbDictionary
0
DICTIONARY
5
1A
330
C
100
AcDbDictionary
0
DICTIONARY
5
17
100
AcDbDictionary
0
ENDSEC
0
EOF
