0
SECTION
2
HEADER
9
$INSUNITS
70
4
9
$ACADVER
1
AC1014
9
$HANDSEED
5
FFFF
0
ENDSEC
0
SECTION
2
TABLES
0
TABLE
2
VPORT
5
8
100
AcDbSymbolTable
0
ENDTAB
0
TABLE
2
LTYPE
5
5
100
AcDbSymbolTable
0
LTYPE
5
14
100
AcDbSymbolTableRecord
100
AcDbLinetypeTableRecord
2
BYBLOCK
70
0
0
LTYPE
5
15
100
AcDbSymbolTableRecord
100
AcDbLinetypeTableRecord
2
BYLAYER
70
0
0
LTYPE
5
16
100
AcDbSymbolTableRecord
100
AcDbLinetypeTableRecord
2
DASHED
70
0
3
Dashed __ __ __ __ __ __ __ __ __ __ __ __ __ _
72
65
73
2
40
0.75
49
0.5
74
0
49
-0.25
74
0
0
ENDTAB
0
TABLE
2
LAYER
5
2
100
AcDbSymbolTable
70
2
0
LAYER
5
50
100
AcDbSymbolTableRecord
100
AcDbLayerTableRecord
2
0
70
0
62
7
6
CONTINUOUS
0
ENDTAB
0
TABLE
2
STYLE
5
3
100
AcDbSymbolTable
70
1
0
STYLE
5
11
100
AcDbSymbolTableRecord
100
AcDbTextStyleTableRecord
2
STANDARD
70
0
0
ENDTAB
0
TABLE
2
VIEW
5
6
100
AcDbSymbolTable
70
0
0
ENDTAB
0
TABLE
2
UCS
5
7
100
AcDbSymbolTable
70
0
0
ENDTAB
0
TABLE
2
APPID
5
9
100
AcDbSymbolTable
70
2
0
APPID
5
12
100
AcDbSymbolTableRecord
100
AcDbRegAppTableRecord
2
ACAD
70
0
0
ENDTAB
0
TABLE
2
DIMSTYLE
5
A
100
AcDbSymbolTable
70
1
0
ENDTAB
0
TABLE
2
BLOCK_RECORD
5
1
100
AcDbSymbolTable
70
1
0
BLOCK_RECORD
5
1F
100
AcDbSymbolTableRecord
100
AcDbBlockTableRecord
2
*MODEL_SPACE
0
BLOCK_RECORD
5
1B
100
AcDbSymbolTableRecord
100
AcDbBlockTableRecord
2
*PAPER_SPACE
0
ENDTAB
0
ENDSEC
0
SECTION
2
BLOCKS
0
BLOCK
5
20
100
AcDbEntity
100
AcDbBlockBegin
2
*MODEL_SPACE
0
ENDBLK
5
21
100
AcDbEntity
100
AcDbBlockEnd
0
BLOCK
5
1C
100
AcDbEntity
100
AcDbBlockBegin
2
*PAPER_SPACE
0
ENDBLK
5
1D
100
AcDbEntity
100
AcDbBlockEnd
0
ENDSEC
0
SECTION
2
ENTITIES
0
LWPOLYLINE
5
100
100
AcDbEntity
8
0
100
AcDbPolyline
90
40
70
1
43
0.0
10
-61.20000000000001
20
-4.4000000000000004
42
0.41421356237309503
10
-62.000000000000014
20
-5.2000000000000002
10
-62
20
-5.3800000000000008
42
-0.41421356237309503
10
-62.800000000000004
20
-6.1800000000000015
10
-64
20
-6.1799999999999997
42
0.92980160361294739
10
-64.565217391300692
20
-13.938824860054751
42
-0.37222906594967514
10
-62
20
-16.907151675480002
10
-62
20
-94.366888458900007
42
0.15449976411995095
10
-61.635677630703505
20
-95.517783192755431
10
-59.189571379880007
20
-98.994244731009999
42
0.7161971266257865
10
-52.103502722051246
20
-96.915254237289957
42
-0.40185290630850473
10
-50.105298989770006
20
-95.000000000000014
10
-11.894701010229998
20
-95.000000000000014
42
-0.40185290630851639
10
-9.8964972779487521
20
-96.915254237290043
42
0.71619712662566648
10
-2.8104286201223121
20
-98.994244731009786
10
-0.36432236929340001
20
-95.517783192760021
42
0.15449976412020267
10
0
20
-94.366888458900007
10
-5.5511151231257827e-16
20
-16.907151675480002
42
-0.37222906595005073
10
2.5652173913046115
20
-13.938824860054178
42
0.92980160361247399
10
2.0000000000000009
20
-6.1799999999999988
10
0.80000000000000016
20
-6.1800000000000015
42
-0.41421356237309503
10
0
20
-5.3800000000000008
10
0
20
-5.2000000000000002
42
0.41421356237309503
10
-0.80000000000000016
20
-4.4000000000000004
10
-23.75
20
-4.4000000000000004
10
-23.75
20
-5.5999999999999996
10
-24.75
20
-5.5999999999999996
10
-24.75
20
-22.650000000000002
10
-39.25
20
-22.650000000000002
10
-39.25
20
-5.6000000000000005
10
-40.25
20
-5.5999999999999996
10
-40.25
20
-4.4000000000000004
10
-41.75
20
-4.4000000000000004
10
-41.75
20
-5.5999999999999996
10
-42.75
20
-5.5999999999999996
10
-42.75
20
-22.650000000000002
10
-57.250000000000007
20
-22.650000000000002
10
-57.250000000000007
20
-5.6000000000000005
10
-58.25
20
-5.5999999999999996
10
-58.25
20
-4.4000000000000004
0
CIRCLE
5
101
100
AcDbEntity
8
0
100
AcDbCircle
10
-2
20
-10.08
30
0
40
2.8999999999999999
210
0
220
0
230
-1
0
CIRCLE
5
102
100
AcDbEntity
8
0
100
AcDbCircle
10
64
20
-10.08
30
0
40
2.8999999999999999
210
0
220
0
230
-1
0
CIRCLE
5
103
100
AcDbEntity
8
0
100
AcDbCircle
10
56.000000000000007
20
-96.75
30
0
40
2.8999999999999999
210
0
220
0
230
-1
0
CIRCLE
5
104
100
AcDbEntity
8
0
100
AcDbCircle
10
6.0000000000000009
20
-96.75
30
0
40
2.8999999999999999
210
0
220
0
230
-1
0
SPLINE
5
105
100
AcDbEntity
8
0
100
AcDbSpline
70
4
71
3
72
8
73
4
74
0
42
0.000000001
43
0.0000000001
44
0.0000000001
40
0
40
0
40
0
40
0
40
1
40
1
40
1
40
1
41
1
41
1
41
1
41
1
10
-38.407688741720541
20
-80.598815364444619
30
0
10
-40.901136776998861
20
-80.359872088809851
30
0
10
-42.669410843527189
20
-79.983774518253213
30
0
10
-44.294724333883629
20
-79.346702272647747
30
0
0
SPLINE
5
106
100
AcDbEntity
8
0
100
AcDbSpline
70
4
71
3
72
8
73
4
74
0
42
0.000000001
43
0.0000000001
44
0.0000000001
40
0
40
0
40
0
40
0
40
1
40
1
40
1
40
1
41
1
41
1
41
1
41
1
10
-44.294724333883629
20
-79.346702272647747
30
0
10
-48.666518678243982
20
-77.63308770697391
30
0
10
-51.074986265701639
20
-74.251136587100873
30
0
10
-51.354617946055043
20
-69.433281609317675
30
0
0
SPLINE
5
107
100
AcDbEntity
8
0
100
AcDbSpline
70
4
71
3
72
8
73
4
74
0
42
0.000000001
43
0.0000000001
44
0.0000000001
40
0
40
0
40
0
40
0
40
1
40
1
40
1
40
1
41
1
41
1
41
1
41
1
10
-51.354617946055043
20
-69.433281609317675
30
0
10
-51.583962094219551
20
-65.481975908878212
30
0
10
-50.601303288519254
20
-61.213327811221959
30
0
10
-48.68202129399716
20
-57.823601956607703
30
0
0
SPLINE
5
108
100
AcDbEntity
8
0
100
AcDbSpline
70
4
71
3
72
8
73
4
74
0
42
0.000000001
43
0.0000000001
44
0.0000000001
40
0
40
0
40
0
40
0
40
1
40
1
40
1
40
1
41
1
41
1
41
1
41
1
10
-48.68202129399716
20
-57.823601956607703
30
0
10
-47.582552578756676
20
-55.88176973968875
30
0
10
-46.514476757406584
20
-54.496328243472938
30
0
10
-44.822300906393394
20
-52.816969424075957
30
0
0
SPLINE
5
109
100
AcDbEntity
8
0
100
AcDbSpline
70
4
71
3
72
8
73
4
74
0
42
0.000000001
43
0.0000000001
44
0.0000000001
40
0
40
0
40
0
40
0
40
1
40
1
40
1
40
1
41
1
41
1
41
1
41
1
10
-44.822300906393394
20
-52.816969424075957
30
0
10
-40.681971146871909
20
-48.953578628726845
30
0
10
-35.645999823751787
20
-46.999449247684353
30
0
10
-32.481896460958822
20
-46.230296973495363
30
0
0
SPLINE
5
110
100
AcDbEntity
8
0
100
AcDbSpline
70
4
71
3
72
8
73
4
74
0
42
0.000000001
43
0.0000000001
44
0.0000000001
40
0
40
0
40
0
40
0
40
1
40
1
40
1
40
1
41
1
41
1
41
1
41
1
10
-32.481896460958822
20
-46.230296973495363
30
0
10
-29.31780503542171
20
-45.461144736610287
30
0
10
-26.170888933615068
20
-45.52773559930408
30
0
10
-24.529449404318196
20
-45.77225174553287
30
0
0
SPLINE
5
111
100
AcDbEntity
8
0
100
AcDbSpline
70
4
71
3
72
8
73
4
74
0
42
0.000000001
43
0.0000000001
44
0.0000000001
40
0
40
0
40
0
40
0
40
1
40
1
40
1
40
1
41
1
41
1
41
1
41
1
10
-24.529449404318196
20
-45.77225174553287
30
0
10
-21.615328891378738
20
-46.206356583045832
30
0
10
-19.537558785909987
20
-47.117103736728545
30
0
10
-17.236667043722488
20
-48.968907855838651
30
0
0
SPLINE
5
112
100
AcDbEntity
8
0
100
AcDbSpline
70
4
71
3
72
8
73
4
74
0
42
0.000000001
43
0.0000000001
44
0.0000000001
40
0
40
0
40
0
40
0
40
1
40
1
40
1
40
1
41
1
41
1
41
1
41
1
10
-17.236667043722488
20
-48.968907855838651
30
0
10
-14.37800463405452
20
-51.26961098938358
30
0
10
-12.971423451437332
20
-54.413569039188268
30
0
10
-13.232973502218579
20
-57.917905084171181
30
0
0
SPLINE
5
113
100
AcDbEntity
8
0
100
AcDbSpline
70
4
71
3
72
8
73
4
74
0
42
0.000000001
43
0.0000000001
44
0.0000000001
40
0
40
0
40
0
40
0
40
1
40
1
40
1
40
1
41
1
41
1
41
1
41
1
10
-13.232973502218579
20
-57.917905084171181
30
0
10
-13.476464872335768
20
-61.180404859561804
30
0
10
-14.959442105001784
20
-63.983568579288374
30
0
10
-18.09068936476741
20
-67.100144951602815
30
0
0
SPLINE
5
114
100
AcDbEntity
8
0
100
AcDbSpline
70
4
71
3
72
8
73
4
74
0
42
0.000000001
43
0.0000000001
44
0.0000000001
40
0
40
0
40
0
40
0
40
1
40
1
40
1
40
1
41
1
41
1
41
1
41
1
10
-18.09068936476741
20
-67.100144951602815
30
0
10
-20.392359416036943
20
-69.391023723575472
30
0
10
-22.992415502218581
20
-71.319033791934856
30
0
10
-25.339320590841631
20
-72.47518805878056
30
0
0
SPLINE
5
115
100
AcDbEntity
8
0
100
AcDbSpline
70
4
71
3
72
8
73
4
74
0
42
0.000000001
43
0.0000000001
44
0.0000000001
40
0
40
0
40
0
40
0
40
1
40
1
40
1
40
1
41
1
41
1
41
1
41
1
10
-25.339320590841631
20
-72.47518805878056
30
0
10
-26.627138014913896
20
-73.109603071231732
30
0
10
-27.483316204367021
20
-73.371367992618445
30
0
10
-28.284306072531088
20
-73.375629592960237
30
0
0
SPLINE
5
116
100
AcDbEntity
8
0
100
AcDbSpline
70
4
71
3
72
8
73
4
74
0
42
0.000000001
43
0.0000000001
44
0.0000000001
40
0
40
0
40
0
40
0
40
1
40
1
40
1
40
1
41
1
41
1
41
1
41
1
10
-28.284306072531088
20
-73.375629592960237
30
0
10
-29.210880647238117
20
-73.380566841983679
30
0
10
-29.675552656271318
20
-73.112157643985626
30
0
10
-30.021210224386557
20
-72.372293688175091
30
0
0
SPLINE
5
117
100
AcDbEntity
8
0
100
AcDbSpline
70
4
71
3
72
8
73
4
74
0
42
0.000000001
43
0.0000000001
44
0.0000000001
40
0
40
0
40
0
40
0
40
1
40
1
40
1
40
1
41
1
41
1
41
1
41
1
10
-30.021210224386557
20
-72.372293688175091
30
0
10
-30.520996865255693
20
-71.302519792178998
30
0
10
-30.485645875753743
20
-69.649634821964156
30
0
10
-29.90057231667171
20
-66.732019080509076
30
0
0
SPLINE
5
118
100
AcDbEntity
8
0
100
AcDbSpline
70
4
71
3
72
8
73
4
74
0
42
0.000000001
43
0.0000000001
44
0.0000000001
40
0
40
0
40
0
40
0
40
1
40
1
40
1
40
1
41
1
41
1
41
1
41
1
10
-29.90057231667171
20
-66.732019080509076
30
0
10
-29.601608518576008
20
-65.241203845645799
30
0
10
-29.29213754787288
20
-64.022856475772741
30
0
10
-28.432473679708821
20
-60.952486833438755
30
0
0
SPLINE
5
119
100
AcDbEntity
8
0
100
AcDbSpline
70
4
71
3
72
8
73
4
74
0
42
0.000000001
43
0.0000000001
44
0.0000000001
40
0
40
0
40
0
40
0
40
1
40
1
40
1
40
1
41
1
41
1
41
1
41
1
10
-28.432473679708821
20
-60.952486833438755
30
0
10
-27.597947284933429
20
-57.971861480655555
30
0
10
-27.264422743673663
20
-56.611643406070591
30
0
10
-27.316865496115067
20
-56.402678161075471
30
0
0
SPLINE
5
120
100
AcDbEntity
8
0
100
AcDbSpline
70
4
71
3
72
8
73
4
74
0
42
0.000000001
43
0.0000000001
44
0.0000000001
40
0
40
0
40
0
40
0
40
1
40
1
40
1
40
1
41
1
41
1
41
1
41
1
10
-27.316865496115067
20
-56.402678161075471
30
0
10
-27.340849830587722
20
-56.307122815372352
30
0
10
-27.445656549581866
20
-56.190130545596958
30
0
10
-27.54976613283382
20
-56.14269547198856
30
0
0
SPLINE
5
121
100
AcDbEntity
8
0
100
AcDbSpline
70
4
71
3
72
8
73
4
74
0
42
0.000000001
43
0.0000000001
44
0.0000000001
40
0
40
0
40
0
40
0
40
1
40
1
40
1
40
1
41
1
41
1
41
1
41
1
10
-27.54976613283382
20
-56.14269547198856
30
0
10
-28.643746396261555
20
-55.644242222598912
30
0
10
-32.146758002706868
20
-57.757024299503207
30
0
10
-33.434057349874841
20
-59.691708487613568
30
0
0
SPLINE
5
122
100
AcDbEntity
8
0
100
AcDbSpline
70
4
71
3
72
8
73
4
74
0
42
0.000000001
43
0.0000000001
44
0.0000000001
40
0
40
0
40
0
40
0
40
1
40
1
40
1
40
1
41
1
41
1
41
1
41
1
10
-33.434057349874841
20
-59.691708487613568
30
0
10
-34.222476093893391
20
-60.876636315982694
30
0
10
-34.550158542135577
20
-61.859721859928015
30
0
10
-35.756731002828943
20
-66.659887018253215
30
0
0
SPLINE
5
123
100
AcDbEntity
8
0
100
AcDbSpline
70
4
71
3
72
8
73
4
74
0
42
0.000000001
43
0.0000000001
44
0.0000000001
40
0
40
0
40
0
40
0
40
1
40
1
40
1
40
1
41
1
41
1
41
1
41
1
10
-35.756731002828943
20
-66.659887018253215
30
0
10
-36.899349615255694
20
-71.205668060489543
30
0
10
-37.205215534689287
20
-72.537968474796187
30
0
10
-37.778227690451011
20
-73.041078447696577
30
0
0
SPLINE
5
124
100
AcDbEntity
8
0
100
AcDbSpline
70
4
71
3
72
8
73
4
74
0
42
0.000000001
43
0.0000000001
44
0.0000000001
40
0
40
0
40
0
40
0
40
1
40
1
40
1
40
1
41
1
41
1
41
1
41
1
10
-37.778227690451011
20
-73.041078447696577
30
0
10
-38.133464906393392
20
-73.35297745624149
30
0
10
-38.288086987814289
20
-73.376983277774698
30
0
10
-39.401621670065268
20
-73.375627205509076
30
0
0
SPLINE
5
125
100
AcDbEntity
8
0
100
AcDbSpline
70
4
71
3
72
8
73
4
74
0
42
0.000000001
43
0.0000000001
44
0.0000000001
40
0
40
0
40
0
40
0
40
1
40
1
40
1
40
1
41
1
41
1
41
1
41
1
10
-39.401621670065268
20
-73.375627205509076
30
0
10
-40.39231482716977
20
-73.374414380313766
30
0
10
-40.530316667257651
20
-73.334016319034461
30
0
10
-40.724827089132646
20
-73.041078447696577
30
0
0
SPLINE
5
126
100
AcDbEntity
8
0
100
AcDbSpline
70
4
71
3
72
8
73
4
74
0
42
0.000000001
43
0.0000000001
44
0.0000000001
40
0
40
0
40
0
40
0
40
1
40
1
40
1
40
1
41
1
41
1
41
1
41
1
10
-40.724827089132646
20
-73.041078447696577
30
0
10
-40.919336317282067
20
-72.748140576358679
30
0
10
-40.38449592458187
20
-70.464870611270797
30
0
10
-39.523731441427572
20
-66.842455409366494
30
0
0
SPLINE
5
127
100
AcDbEntity
8
0
100
AcDbSpline
70
4
71
3
72
8
73
4
74
0
42
0.000000001
43
0.0000000001
44
0.0000000001
40
0
40
0
40
0
40
0
40
1
40
1
40
1
40
1
41
1
41
1
41
1
41
1
10
-39.523731441427572
20
-66.842455409366494
30
0
10
-38.614920697164877
20
-63.017844580264928
30
0
10
-38.451034111471515
20
-62.301984058536412
30
0
10
-37.661111273214686
20
-58.84045919110477
30
0
0
SPLINE
5
128
100
AcDbEntity
8
0
100
AcDbSpline
70
4
71
3
72
8
73
4
74
0
42
0.000000001
43
0.0000000001
44
0.0000000001
40
0
40
0
40
0
40
0
40
1
40
1
40
1
40
1
41
1
41
1
41
1
41
1
10
-37.661111273214686
20
-58.84045919110477
30
0
10
-36.871188434957844
20
-55.378934323673128
30
0
10
-36.783411405172693
20
-55.876575839664341
30
0
10
-38.430294323141439
20
-56.781845993839148
30
0
0
SPLINE
5
129
100
AcDbEntity
8
0
100
AcDbSpline
70
4
71
3
72
8
73
4
74
0
42
0.000000001
43
0.0000000001
44
0.0000000001
40
0
40
0
40
0
40
0
40
1
40
1
40
1
40
1
41
1
41
1
41
1
41
1
10
-38.430294323141439
20
-56.781845993839148
30
0
10
-38.982325558004725
20
-57.062185285343048
30
0
10
-39.651497084616054
20
-57.524943752261997
30
0
10
-40.217312268820152
20
-57.487649377506138
30
0
0
SPLINE
5
130
100
AcDbEntity
8
0
100
AcDbSpline
70
4
71
3
72
8
73
4
74
0
42
0.000000001
43
0.0000000001
44
0.0000000001
40
0
40
0
40
0
40
0
40
1
40
1
40
1
40
1
41
1
41
1
41
1
41
1
10
-40.217312268820152
20
-57.487649377506138
30
0
10
-40.783126259298669
20
-57.450356196475866
30
0
10
-41.53658316835628
20
-57.025561784366488
30
0
10
-41.47377231233822
20
-56.541977580875276
30
0
0
SPLINE
5
131
100
AcDbEntity
8
0
100
AcDbSpline
70
4
71
3
72
8
73
4
74
0
42
0.000000001
43
0.0000000001
44
0.0000000001
40
0
40
0
40
0
40
0
40
1
40
1
40
1
40
1
41
1
41
1
41
1
41
1
10
-41.47377231233822
20
-56.541977580875276
30
0
10
-41.420373385702476
20
-56.1309098192786
30
0
10
-40.892584926901208
20
-55.668548862979762
30
0
10
-39.500632851339681
20
-54.828173212833285
30
0
0
SPLINE
5
132
100
AcDbEntity
8
0
100
AcDbSpline
70
4
71
3
72
8
73
4
74
0
42
0.000000001
43
0.0000000001
44
0.0000000001
40
0
40
0
40
0
40
0
40
1
40
1
40
1
40
1
41
1
41
1
41
1
41
1
10
-39.500632851339681
20
-54.828173212833285
30
0
10
-38.108679582052574
20
-53.987798159549598
30
0
10
-34.333675213400227
20
-52.296389874088163
30
0
10
-33.677632280783037
20
-52.651308962161906
30
0
0
SPLINE
5
133
100
AcDbEntity
8
0
100
AcDbSpline
70
4
71
3
72
8
73
4
74
0
42
0.000000001
43
0.0000000001
44
0.0000000001
40
0
40
0
40
0
40
0
40
1
40
1
40
1
40
1
41
1
41
1
41
1
41
1
10
-33.677632280783037
20
-52.651308962161906
30
0
10
-33.145968391867022
20
-52.938938932681914
30
0
10
-33.229888494284019
20
-53.612244330997349
30
0
10
-33.859277922018393
20
-55.827115013736602
30
0
0
SPLINE
5
134
100
AcDbEntity
8
0
100
AcDbSpline
70
4
71
3
72
8
73
4
74
0
42
0.000000001
43
0.0000000001
44
0.0000000001
40
0
40
0
40
0
40
0
40
1
40
1
40
1
40
1
41
1
41
1
41
1
41
1
10
-33.859277922018393
20
-55.827115013736602
30
0
10
-34.156991889425619
20
-56.874808567569616
30
0
10
-32.351092786154133
20
-55.212348127567168
30
0
10
-30.923294324972488
20
-54.439763556583287
30
0
0
SPLINE
5
135
100
AcDbEntity
8
0
100
AcDbSpline
70
4
71
3
72
8
73
4
74
0
42
0.000000001
43
0.0000000001
44
0.0000000001
40
0
40
0
40
0
40
0
40
1
40
1
40
1
40
1
41
1
41
1
41
1
41
1
10
-30.923294324972488
20
-54.439763556583287
30
0
10
-29.495493476339682
20
-53.667178985599399
30
0
10
-28.024193267355301
20
-52.818222239078395
30
0
10
-26.420117348898273
20
-52.715090317081334
30
0
0
SPLINE
5
136
100
AcDbEntity
8
0
100
AcDbSpline
70
4
71
3
72
8
73
4
74
0
42
0.000000001
43
0.0000000001
44
0.0000000001
40
0
40
0
40
0
40
0
40
1
40
1
40
1
40
1
41
1
41
1
41
1
41
1
10
-26.420117348898273
20
-52.715090317081334
30
0
10
-25.717502406271318
20
-52.669915562869903
30
0
10
-24.874994762228351
20
-52.790408432926057
30
0
10
-24.367121824240069
20
-53.211720747501246
30
0
0
SPLINE
5
137
100
AcDbEntity
8
0
100
AcDbSpline
70
4
71
3
72
8
73
4
74
0
42
0.000000001
43
0.0000000001
44
0.0000000001
40
0
40
0
40
0
40
0
40
1
40
1
40
1
40
1
41
1
41
1
41
1
41
1
10
-24.367121824240069
20
-53.211720747501246
30
0
10
-23.302325763937333
20
-54.095035900699493
30
0
10
-23.513276174581861
20
-55.702838630435821
30
0
10
-24.284167445822099
20
-58.684847511173132
30
0
0
SPLINE
5
138
100
AcDbEntity
8
0
100
AcDbSpline
70
4
71
3
72
8
73
4
74
0
42
0.000000001
43
0.0000000001
44
0.0000000001
40
0
40
0
40
0
40
0
40
1
40
1
40
1
40
1
41
1
41
1
41
1
41
1
10
-24.284167445822099
20
-58.684847511173132
30
0
10
-24.583825992208816
20
-59.844003997867468
30
0
10
-24.793250821554519
20
-60.98822339630496
30
0
10
-25.853243330099446
20
-64.044719559879184
30
0
0
SPLINE
5
139
100
AcDbEntity
8
0
100
AcDbSpline
70
4
71
3
72
8
73
4
74
0
42
0.000000001
43
0.0000000001
44
0.0000000001
40
0
40
0
40
0
40
0
40
1
40
1
40
1
40
1
41
1
41
1
41
1
41
1
10
-25.853243330099446
20
-64.044719559879184
30
0
10
-26.586615806173661
20
-66.159422341251258
30
0
10
-27.179405607443194
20
-68.082595433536412
30
0
10
-27.255527100607257
20
-68.594128334171174
30
0
0
SPLINE
5
140
100
AcDbEntity
8
0
100
AcDbSpline
70
4
71
3
72
8
73
4
74
0
42
0.000000001
43
0.0000000001
44
0.0000000001
40
0
40
0
40
0
40
0
40
1
40
1
40
1
40
1
41
1
41
1
41
1
41
1
10
-27.255527100607257
20
-68.594128334171174
30
0
10
-27.326842654562334
20
-69.073430643985631
30
0
10
-27.142123169943197
20
-69.562044013370397
30
0
10
-26.828233027120927
20
-69.724364431095012
30
0
0
SPLINE
5
141
100
AcDbEntity
8
0
100
AcDbSpline
70
4
71
3
72
8
73
4
74
0
42
0.000000001
43
0.0000000001
44
0.0000000001
40
0
40
0
40
0
40
0
40
1
40
1
40
1
40
1
41
1
41
1
41
1
41
1
10
-26.828233027120927
20
-69.724364431095012
30
0
10
-25.654750639669754
20
-70.331192445255169
30
0
10
-22.41643335719905
20
-68.042357331485633
30
0
10
-20.16197754030452
20
-65.012677019473912
30
0
0
SPLINE
5
142
100
AcDbEntity
8
0
100
AcDbSpline
70
4
71
3
72
8
73
4
74
0
42
0.000000001
43
0.0000000001
44
0.0000000001
40
0
40
0
40
0
40
0
40
1
40
1
40
1
40
1
41
1
41
1
41
1
41
1
10
-20.16197754030452
20
-65.012677019473912
30
0
10
-18.303468563009599
20
-62.515099887393831
30
0
10
-17.485587477804518
20
-60.208286072574495
30
0
10
-17.486919675558426
20
-57.467791752384073
30
0
0
SPLINE
5
143
100
AcDbEntity
8
0
100
AcDbSpline
70
4
71
3
72
8
73
4
74
0
42
0.000000001
43
0.0000000001
44
0.0000000001
40
0
40
0
40
0
40
0
40
1
40
1
40
1
40
1
41
1
41
1
41
1
41
1
10
-17.486919675558426
20
-57.467791752384073
30
0
10
-17.488101463888505
20
-55.793296767886993
30
0
10
-17.794258652365066
20
-54.369781394107697
30
0
10
-18.450812499533033
20
-52.991443758853791
30
0
0
SPLINE
5
144
100
AcDbEntity
8
0
100
AcDbSpline
70
4
71
3
72
8
73
4
74
0
42
0.000000001
43
0.0000000001
44
0.0000000001
40
0
40
0
40
0
40
0
40
1
40
1
40
1
40
1
41
1
41
1
41
1
41
1
10
-18.450812499533033
20
-52.991443758853791
30
0
10
-18.920464731710773
20
-52.005469398990513
30
0
10
-19.320064371603351
20
-51.425762233280061
30
0
10
-19.995939861105299
20
-50.749884953189728
30
0
0
SPLINE
5
145
100
AcDbEntity
8
0
100
AcDbSpline
70
4
71
3
72
8
73
4
74
0
42
0.000000001
43
0.0000000001
44
0.0000000001
40
0
40
0
40
0
40
0
40
1
40
1
40
1
40
1
41
1
41
1
41
1
41
1
10
-19.995939861105299
20
-50.749884953189728
30
0
10
-20.671741339620926
20
-50.074081385654324
30
0
10
-21.251409709249831
20
-49.674495175174592
30
0
10
-22.237508216574049
20
-49.204664481021759
30
0
0
SPLINE
5
146
100
AcDbEntity
8
0
100
AcDbSpline
70
4
71
3
72
8
73
4
74
0
42
0.000000001
43
0.0000000001
44
0.0000000001
40
0
40
0
40
0
40
0
40
1
40
1
40
1
40
1
41
1
41
1
41
1
41
1
10
-22.237508216574049
20
-49.204664481021759
30
0
10
-25.306404801534992
20
-47.742480605121493
30
0
10
-29.364288709738116
20
-47.550941217014191
30
0
10
-33.775097587423666
20
-48.660069559696083
30
0
0
SPLINE
5
147
100
AcDbEntity
8
0
100
AcDbSpline
70
4
71
3
72
8
73
4
74
0
42
0.000000001
43
0.0000000001
44
0.0000000001
40
0
40
0
40
0
40
0
40
1
40
1
40
1
40
1
41
1
41
1
41
1
41
1
10
-33.775097587423666
20
-48.660069559696083
30
0
10
-36.196204658468588
20
-49.268874383426542
30
0
10
-38.191066940817223
20
-50.3178037416724
30
0
10
-40.324685497824063
20
-52.103960115909452
30
0
0
SPLINE
5
148
100
AcDbEntity
8
0
100
AcDbSpline
70
4
71
3
72
8
73
4
74
0
42
0.000000001
43
0.0000000001
44
0.0000000001
40
0
40
0
40
0
40
0
40
1
40
1
40
1
40
1
41
1
41
1
41
1
41
1
10
-40.324685497824063
20
-52.103960115909452
30
0
10
-44.238663399191239
20
-55.380532722232701
30
0
10
-46.634749981954911
20
-59.574022663272743
30
0
10
-47.24400901827083
20
-64.213727228336225
30
0
0
SPLINE
5
149
100
AcDbEntity
8
0
100
AcDbSpline
70
4
71
3
72
8
73
4
74
0
42
0.000000001
43
0.0000000001
44
0.0000000001
40
0
40
0
40
0
40
0
40
1
40
1
40
1
40
1
41
1
41
1
41
1
41
1
10
-47.24400901827083
20
-64.213727228336225
30
0
10
-47.362750394461024
20
-65.117969584781534
30
0
10
-47.341629210806239
20
-67.217106184512971
30
0
10
-47.203898047994954
20
-68.199549504093056
30
0
0
SPLINE
5
150
100
AcDbEntity
8
0
100
AcDbSpline
70
4
71
3
72
8
73
4
74
0
42
0.000000001
43
0.0000000001
44
0.0000000001
40
0
40
0
40
0
40
0
40
1
40
1
40
1
40
1
41
1
41
1
41
1
41
1
10
-47.203898047994954
20
-68.199549504093056
30
0
10
-46.791352454122887
20
-71.142398216983679
30
0
10
-45.774390171774257
20
-73.17701036761845
30
0
10
-43.753884276388519
20
-75.101919136905551
30
0
0
SPLINE
5
151
100
AcDbEntity
8
0
100
AcDbSpline
70
4
71
3
72
8
73
4
74
0
42
0.000000001
43
0.0000000001
44
0.0000000001
40
0
40
0
40
0
40
0
40
1
40
1
40
1
40
1
41
1
41
1
41
1
41
1
10
-43.753884276388519
20
-75.101919136905551
30
0
10
-41.863157242391928
20
-76.903212846866495
30
0
10
-40.078072535299647
20
-77.819561968204383
30
0
10
-37.229694071554526
20
-78.45101415375126
30
0
0
SPLINE
5
152
100
AcDbEntity
8
0
100
AcDbSpline
70
4
71
3
72
8
73
4
74
0
42
0.000000001
43
0.0000000001
44
0.0000000001
40
0
40
0
40
0
40
0
40
1
40
1
40
1
40
1
41
1
41
1
41
1
41
1
10
-37.229694071554526
20
-78.45101415375126
30
0
10
-35.618940452169753
20
-78.808110000430943
30
0
10
-33.274909854757652
20
-78.612976453800087
30
0
10
-30.811205879904129
20
-77.916700194034462
30
0
0
SPLINE
5
153
100
AcDbEntity
8
0
100
AcDbSpline
70
4
71
3
72
8
73
4
74
0
42
0.000000001
43
0.0000000001
44
0.0000000001
40
0
40
0
40
0
40
0
40
1
40
1
40
1
40
1
41
1
41
1
41
1
41
1
10
-30.811205879904129
20
-77.916700194034462
30
0
10
-28.20460101515804
20
-77.180030647891883
30
0
10
-25.238446003927567
20
-75.867932845401654
30
0
10
-23.163364168478353
20
-74.533643684268839
30
0
0
SPLINE
5
154
100
AcDbEntity
8
0
100
AcDbSpline
70
4
71
3
72
8
73
4
74
0
42
0.000000001
43
0.0000000001
44
0.0000000001
40
0
40
0
40
0
40
0
40
1
40
1
40
1
40
1
41
1
41
1
41
1
41
1
10
-23.163364168478353
20
-74.533643684268839
30
0
10
-22.085193606710767
20
-73.84035890082157
30
0
10
-21.500919843771314
20
-73.62809539203252
30
0
10
-20.651681974874833
20
-73.621145521671181
30
0
0
SPLINE
5
155
100
AcDbEntity
8
0
100
AcDbSpline
70
4
71
3
72
8
73
4
74
0
42
0.000000001
43
0.0000000001
44
0.0000000001
40
0
40
0
40
0
40
0
40
1
40
1
40
1
40
1
41
1
41
1
41
1
41
1
10
-20.651681974874833
20
-73.621145521671181
30
0
10
-19.906152597433429
20
-73.615019321964155
30
0
10
-19.613443921408034
20
-73.757662367130166
30
0
10
-19.57434702101741
20
-74.146072023380171
30
0
0
SPLINE
5
156
100
AcDbEntity
8
0
100
AcDbSpline
70
4
71
3
72
8
73
4
74
0
42
0.000000001
43
0.0000000001
44
0.0000000001
40
0
40
0
40
0
40
0
40
1
40
1
40
1
40
1
41
1
41
1
41
1
41
1
10
-19.57434702101741
20
-74.146072023380171
30
0
10
-19.555476606954908
20
-74.333539464298127
30
0
10
-19.615919708273267
20
-74.425504083438753
30
0
10
-19.971731106222489
20
-74.75068925775517
30
0
0
SPLINE
5
157
100
AcDbEntity
8
0
100
AcDbSpline
70
4
71
3
72
8
73
4
74
0
42
0.000000001
43
0.0000000001
44
0.0000000001
40
0
40
0
40
0
40
0
40
1
40
1
40
1
40
1
41
1
41
1
41
1
41
1
10
-19.971731106222489
20
-74.75068925775517
30
0
10
-21.127190624777178
20
-75.806713822452437
30
0
10
-24.479253243429522
20
-77.688533872989538
30
0
10
-27.032684795675618
20
-78.714650836856734
30
0
0
SPLINE
5
158
100
AcDbEntity
8
0
100
AcDbSpline
70
4
71
3
72
8
73
4
74
0
42
0.000000001
43
0.0000000001
44
0.0000000001
40
0
40
0
40
0
40
0
40
1
40
1
40
1
40
1
41
1
41
1
41
1
41
1
10
-27.032684795675618
20
-78.714650836856734
30
0
10
-29.518062052267414
20
-79.713412385196577
30
0
10
-31.632665754415854
20
-80.289401692569626
30
0
10
-33.879326543234214
20
-80.536335767276654
30
0
0
SPLINE
5
159
100
AcDbEntity
8
0
100
AcDbSpline
70
4
71
3
72
8
73
4
74
0
42
0.000000001
43
0.0000000001
44
0.0000000001
40
0
40
0
40
0
40
0
40
1
40
1
40
1
40
1
41
1
41
1
41
1
41
1
10
-33.879326543234214
20
-80.536335767276654
30
0
10
-35.667565670187344
20
-80.732885072452433
30
0
10
-37.606298975485188
20
-80.67561011883916
30
0
10
-38.407688741720541
20
-80.598815364444619
30
0
0
ENDSEC
0
SECTION
2
OBJECTS
0
DICTIONARY
5
C
100
AcDbDictionary
3
ACAD_GROUP
350
D
3
ACAD_MLINESTYLE
350
17
0
DICTIONARY
5
D
100
AcDbDictionary
0
DICTIONARY
5
1A
330
C
100
AcDbDictionary
0
DICTIONARY
5
17
100
AcDbDictionary
0
ENDSEC
0
EOF
