0
SECTION
2
HEADER
9
$INSUNITS
70
4
9
$ACADVER
1
AC1014
9
$HANDSEED
5
FFFF
0
ENDSEC
0
SECTION
2
TABLES
0
TABLE
2
VPORT
5
8
100
AcDbSymbolTable
0
ENDTAB
0
TABLE
2
LTYPE
5
5
100
AcDbSymbolTable
0
LTYPE
5
14
100
AcDbSymbolTableRecord
100
AcDbLinetypeTableRecord
2
BYBLOCK
70
0
0
LTYPE
5
15
100
AcDbSymbolTableRecord
100
AcDbLinetypeTableRecord
2
BYLAYER
70
0
0
LTYPE
5
16
100
AcDbSymbolTableRecord
100
AcDbLinetypeTableRecord
2
DASHED
70
0
3
Dashed __ __ __ __ __ __ __ __ __ __ __ __ __ _
72
65
73
2
40
0.75
49
0.5
74
0
49
-0.25
74
0
0
ENDTAB
0
TABLE
2
LAYER
5
2
100
AcDbSymbolTable
70
2
0
LAYER
5
50
100
AcDbSymbolTableRecord
100
AcDbLayerTableRecord
2
0
70
0
62
7
6
CONTINUOUS
0
ENDTAB
0
TABLE
2
STYLE
5
3
100
AcDbSymbolTable
70
1
0
STYLE
5
11
100
AcDbSymbolTableRecord
100
AcDbTextStyleTableRecord
2
STANDARD
70
0
0
ENDTAB
0
TABLE
2
VIEW
5
6
100
AcDbSymbolTable
70
0
0
ENDTAB
0
TABLE
2
UCS
5
7
100
AcDbSymbolTable
70
0
0
ENDTAB
0
TABLE
2
APPID
5
9
100
AcDbSymbolTable
70
2
0
APPID
5
12
100
AcDbSymbolTableRecord
100
AcDbRegAppTableRecord
2
ACAD
70
0
0
ENDTAB
0
TABLE
2
DIMSTYLE
5
A
100
AcDbSymbolTable
70
1
0
ENDTAB
0
TABLE
2
BLOCK_RECORD
5
1
100
AcDbSymbolTable
70
1
0
BLOCK_RECORD
5
1F
100
AcDbSymbolTableRecord
100
AcDbBlockTableRecord
2
*MODEL_SPACE
0
BLOCK_RECORD
5
1B
100
AcDbSymbolTableRecord
100
AcDbBlockTableRecord
2
*PAPER_SPACE
0
ENDTAB
0
ENDSEC
0
SECTION
2
BLOCKS
0
BLOCK
5
20
100
AcDbEntity
100
AcDbBlockBegin
2
*MODEL_SPACE
0
ENDBLK
5
21
100
AcDbEntity
100
AcDbBlockEnd
0
BLOCK
5
1C
100
AcDbEntity
100
AcDbBlockBegin
2
*PAPER_SPACE
0
ENDBLK
5
1D
100
AcDbEntity
100
AcDbBlockEnd
0
ENDSEC
0
SECTION
2
ENTITIES
0
LWPOLYLINE
5
100
100
AcDbEntity
8
0
100
AcDbPolyline
90
4
70
1
43
0.0
10
0
20
120
10
0
20
0
10
120
20
0
10
120
20
120
0
LWPOLYLINE
5
101
100
AcDbEntity
8
0
100
AcDbPolyline
90
4
70
1
43
0.0
10
0
20
120
10
120
20
120
10
120
20
0
10
0
20
0
0
LWPOLYLINE
5
102
100
AcDbEntity
8
0
100
AcDbPolyline
90
4
70
1
43
0.0
10
6.0000000000000009
20
112
10
115
20
112
10
115
20
7.0000000000000009
10
6.0000000000000009
20
7.0000000000000009
0
LINE
5
103
100
AcDbEntity
8
0
100
AcDbLine
10
6.0000000000000009
20
7.0623129846879884
30
0
11
214.71771958250417
21
7.0623129846879884
31
0
6
DASHED
0
LINE
5
104
100
AcDbEntity
8
0
100
AcDbLine
10
214.71771958250417
20
7.0623129846879884
30
0
11
214.71771958250417
21
112
31
0
6
DASHED
0
LINE
5
105
100
AcDbEntity
8
0
100
AcDbLine
10
214.71771958250417
20
112
30
0
11
6.0000000000000009
21
112
31
0
6
DASHED
0
LINE
5
106
100
AcDbEntity
8
0
100
AcDbLine
10
6.0000000000000009
20
112
30
0
11
6.0000000000000009
21
7.0623129846879884
31
0
6
DASHED
0
SPLINE
5
107
100
AcDbEntity
8
0
100
AcDbSpline
70
0
71
2
72
6
73
3
74
0
42
0.000000001
43
0.0000000001
44
0.0000000001
40
0
40
0
40
0
40
1
40
1
40
1
10
14.517240881919861
20
104.47194051742554
30
0
10
14.106152415275574
20
103.54699206352234
30
0
10
12.641649007797241
20
99.48106837272644
30
0
0
SPLINE
5
108
100
AcDbEntity
8
0
100
AcDbSpline
70
0
71
2
72
6
73
3
74
0
42
0.000000001
43
0.0000000001
44
0.0000000001
40
0
40
0
40
0
40
1
40
1
40
1
10
12.641649007797241
20
99.48106837272644
30
0
10
11.177146196365356
20
95.415144681930542
30
0
10
10.753211140632629
20
93.976336240768433
30
0
0
SPLINE
5
109
100
AcDbEntity
8
0
100
AcDbSpline
70
0
71
2
72
6
73
3
74
0
42
0.000000001
43
0.0000000001
44
0.0000000001
40
0
40
0
40
0
40
1
40
1
40
1
10
10.753211140632629
20
93.976336240768433
30
0
10
9.9567273855209351
20
92.152131319046021
30
0
10
8.5179171562194824
20
92.152131319046021
30
0
0
SPLINE
5
110
100
AcDbEntity
8
0
100
AcDbSpline
70
0
71
2
72
6
73
3
74
0
42
0.000000001
43
0.0000000001
44
0.0000000001
40
0
40
0
40
0
40
1
40
1
40
1
10
8.5179171562194824
20
92.152131319046021
30
0
10
7.8498983979225168
20
92.152131319046021
30
0
10
7.4580796658992776
20
92.569642782211304
30
0
0
SPLINE
5
111
100
AcDbEntity
8
0
100
AcDbSpline
70
0
71
2
72
6
73
3
74
0
42
0.000000001
43
0.0000000001
44
0.0000000001
40
0
40
0
40
0
40
1
40
1
40
1
10
7.4580796658992776
20
92.569642782211304
30
0
10
7.0662609338760385
20
92.987154245376587
30
0
10
7.0662609338760385
20
93.629480123519897
30
0
0
SPLINE
5
112
100
AcDbEntity
8
0
100
AcDbSpline
70
0
71
2
72
6
73
3
74
0
42
0.000000001
43
0.0000000001
44
0.0000000001
40
0
40
0
40
0
40
1
40
1
40
1
10
7.0662609338760385
20
93.629480123519897
30
0
10
7.0662609338760385
20
95.260987997055054
30
0
10
8.8005409240722656
20
99.050710916519165
30
0
0
SPLINE
5
113
100
AcDbEntity
8
0
100
AcDbSpline
70
0
71
2
72
6
73
3
74
0
42
0.000000001
43
0.0000000001
44
0.0000000001
40
0
40
0
40
0
40
1
40
1
40
1
10
8.8005409240722656
20
99.050710916519165
30
0
10
9.8154155015945435
20
101.28600430488586
30
0
10
10.303583204746246
20
102.53211688995361
30
0
0
LINE
5
114
100
AcDbEntity
8
0
100
AcDbLine
10
10.303583204746246
20
102.53211688995361
30
0
11
12.384719014167786
21
108.1845850944519
31
0
0
SPLINE
5
115
100
AcDbEntity
8
0
100
AcDbSpline
70
0
71
2
72
6
73
3
74
0
42
0.000000001
43
0.0000000001
44
0.0000000001
40
0
40
0
40
0
40
1
40
1
40
1
10
12.384719014167786
20
108.1845850944519
30
0
10
13.425286769866943
20
110.98512601852417
30
0
10
14.208924531936646
20
111.75591659545898
30
0
0
SPLINE
5
116
100
AcDbEntity
8
0
100
AcDbSpline
70
0
71
2
72
6
73
3
74
0
42
0.000000001
43
0.0000000001
44
0.0000000001
40
0
40
0
40
0
40
1
40
1
40
1
10
14.208924531936646
20
111.75591659545898
30
0
10
14.9925616979599
20
112.5267071723938
30
0
10
15.930357336997986
20
112.5267071723938
30
0
0
SPLINE
5
117
100
AcDbEntity
8
0
100
AcDbSpline
70
0
71
2
72
6
73
3
74
0
42
0.000000001
43
0.0000000001
44
0.0000000001
40
0
40
0
40
0
40
1
40
1
40
1
10
15.930357336997986
20
112.5267071723938
30
0
10
17.202163696289062
20
112.5267071723938
30
0
10
17.51047945022583
20
111.24205541610718
30
0
0
SPLINE
5
118
100
AcDbEntity
8
0
100
AcDbSpline
70
0
71
2
72
6
73
3
74
0
42
0.000000001
43
0.0000000001
44
0.0000000001
40
0
40
0
40
0
40
1
40
1
40
1
10
17.51047945022583
20
111.24205541610718
30
0
10
17.818795204162598
20
109.95740365982056
30
0
10
17.88302755355835
20
104.89587616920471
30
0
0
SPLINE
5
119
100
AcDbEntity
8
0
100
AcDbSpline
70
0
71
2
72
6
73
3
74
0
42
0.000000001
43
0.0000000001
44
0.0000000001
40
0
40
0
40
0
40
1
40
1
40
1
10
17.88302755355835
20
104.89587616920471
30
0
10
17.934413909912109
20
100.68221879005432
30
0
10
18.25557804107666
20
98.498309373855591
30
0
0
SPLINE
5
120
100
AcDbEntity
8
0
100
AcDbSpline
70
0
71
2
72
6
73
3
74
0
42
0.000000001
43
0.0000000001
44
0.0000000001
40
0
40
0
40
0
40
1
40
1
40
1
10
18.25557804107666
20
98.498309373855591
30
0
10
20.06693696975708
20
101.88978981971741
30
0
10
22.430695056915283
20
107.91480731964111
30
0
0
LINE
5
121
100
AcDbEntity
8
0
100
AcDbLine
10
22.430695056915283
20
107.91480731964111
30
0
11
23.612574100494385
21
110.86950731277466
31
0
0
SPLINE
5
122
100
AcDbEntity
8
0
100
AcDbSpline
70
0
71
2
72
6
73
3
74
0
42
0.000000001
43
0.0000000001
44
0.0000000001
40
0
40
0
40
0
40
1
40
1
40
1
10
23.612574100494385
20
110.86950731277466
30
0
10
24.344826698303223
20
112.70655822753906
30
0
10
26.066258907318115
20
112.70655822753906
30
0
0
SPLINE
5
123
100
AcDbEntity
8
0
100
AcDbSpline
70
0
71
2
72
6
73
3
74
0
42
0.000000001
43
0.0000000001
44
0.0000000001
40
0
40
0
40
0
40
1
40
1
40
1
10
26.066258907318115
20
112.70655822753906
30
0
10
26.862743854522705
20
112.70655822753906
30
0
10
27.350910663604736
20
111.8715353012085
30
0
0
SPLINE
5
124
100
AcDbEntity
8
0
100
AcDbSpline
70
0
71
2
72
6
73
3
74
0
42
0.000000001
43
0.0000000001
44
0.0000000001
40
0
40
0
40
0
40
1
40
1
40
1
10
27.350910663604736
20
111.8715353012085
30
0
10
27.839077472686768
20
111.03651118278503
30
0
10
27.839077472686768
20
108.44151449203491
30
0
0
LINE
5
125
100
AcDbEntity
8
0
100
AcDbLine
10
27.839077472686768
20
108.44151449203491
30
0
11
27.813385486602783
21
105.39689016342163
31
0
0
SPLINE
5
126
100
AcDbEntity
8
0
100
AcDbSpline
70
0
71
2
72
6
73
3
74
0
42
0.000000001
43
0.0000000001
44
0.0000000001
40
0
40
0
40
0
40
1
40
1
40
1
10
27.813385486602783
20
105.39689016342163
30
0
10
27.800539493560791
20
103.73968911170959
30
0
10
27.916158199310303
20
101.7677481174469
30
0
0
SPLINE
5
127
100
AcDbEntity
8
0
100
AcDbSpline
70
0
71
2
72
6
73
3
74
0
42
0.000000001
43
0.0000000001
44
0.0000000001
40
0
40
0
40
0
40
1
40
1
40
1
10
27.916158199310303
20
101.7677481174469
30
0
10
28.031776905059814
20
99.795807123184204
30
0
10
28.27586030960083
20
97.971602201461792
30
0
0
SPLINE
5
128
100
AcDbEntity
8
0
100
AcDbSpline
70
0
71
2
72
6
73
3
74
0
42
0.000000001
43
0.0000000001
44
0.0000000001
40
0
40
0
40
0
40
1
40
1
40
1
10
28.27586030960083
20
97.971602201461792
30
0
10
28.764027118682861
20
94.413116693496704
30
0
10
28.764027118682861
20
93.770790815353394
30
0
0
SPLINE
5
129
100
AcDbEntity
8
0
100
AcDbSpline
70
0
71
2
72
6
73
3
74
0
42
0.000000001
43
0.0000000001
44
0.0000000001
40
0
40
0
40
0
40
1
40
1
40
1
10
28.764027118682861
20
93.770790815353394
30
0
10
28.764027118682861
20
93.115618944168091
30
0
10
28.096009254455566
20
92.518256425857544
30
0
0
SPLINE
5
130
100
AcDbEntity
8
0
100
AcDbSpline
70
0
71
2
72
6
73
3
74
0
42
0.000000001
43
0.0000000001
44
0.0000000001
40
0
40
0
40
0
40
1
40
1
40
1
10
28.096009254455566
20
92.518256425857544
30
0
10
27.42798900604248
20
91.920893907546997
30
0
10
26.592966079711914
20
91.920893907546997
30
0
0
SPLINE
5
131
100
AcDbEntity
8
0
100
AcDbSpline
70
0
71
2
72
6
73
3
74
0
42
0.000000001
43
0.0000000001
44
0.0000000001
40
0
40
0
40
0
40
1
40
1
40
1
10
26.592966079711914
20
91.920893907546997
30
0
10
25.179849624633789
20
91.920893907546997
30
0
10
24.832993507385254
20
93.950641870498657
30
0
0
LINE
5
132
100
AcDbEntity
8
0
100
AcDbLine
10
24.832993507385254
20
93.950641870498657
30
0
11
24.614602088928223
21
97.046652555465698
31
0
0
SPLINE
5
133
100
AcDbEntity
8
0
100
AcDbSpline
70
0
71
2
72
6
73
3
74
0
42
0.000000001
43
0.0000000001
44
0.0000000001
40
0
40
0
40
0
40
1
40
1
40
1
10
24.614602088928223
20
97.046652555465698
30
0
10
24.563218116760254
20
97.817443132400513
30
0
10
24.537523746490479
20
104.99864768981934
30
0
0
SPLINE
5
134
100
AcDbEntity
8
0
100
AcDbSpline
70
0
71
2
72
6
73
3
74
0
42
0.000000001
43
0.0000000001
44
0.0000000001
40
0
40
0
40
0
40
1
40
1
40
1
10
24.537523746490479
20
104.99864768981934
30
0
10
24.319132328033447
20
104.57471323013306
30
0
10
24.01081657409668
20
103.81676864624023
30
0
0
SPLINE
5
135
100
AcDbEntity
8
0
100
AcDbSpline
70
0
71
2
72
6
73
3
74
0
42
0.000000001
43
0.0000000001
44
0.0000000001
40
0
40
0
40
0
40
1
40
1
40
1
10
24.01081657409668
20
103.81676864624023
30
0
10
22.366462707519531
20
99.860041856765747
30
0
10
21.544285774230957
20
98.292766332626343
30
0
0
LINE
5
136
100
AcDbEntity
8
0
100
AcDbLine
10
21.544285774230957
20
98.292766332626343
30
0
11
20.298174381256104
21
95.916159868240356
31
0
0
SPLINE
5
137
100
AcDbEntity
8
0
100
AcDbSpline
70
0
71
2
72
6
73
3
74
0
42
0.000000001
43
0.0000000001
44
0.0000000001
40
0
40
0
40
0
40
1
40
1
40
1
10
20.298174381256104
20
95.916159868240356
30
0
10
19.206219673156738
20
93.835023164749146
30
0
10
18.563893795013428
20
93.128464937210083
30
0
0
SPLINE
5
138
100
AcDbEntity
8
0
100
AcDbSpline
70
0
71
2
72
6
73
3
74
0
42
0.000000001
43
0.0000000001
44
0.0000000001
40
0
40
0
40
0
40
1
40
1
40
1
10
18.563893795013428
20
93.128464937210083
30
0
10
17.921567916870117
20
92.421906709671021
30
0
10
16.958079099655151
20
92.421906709671021
30
0
0
SPLINE
5
139
100
AcDbEntity
8
0
100
AcDbSpline
70
0
71
2
72
6
73
3
74
0
42
0.000000001
43
0.0000000001
44
0.0000000001
40
0
40
0
40
0
40
1
40
1
40
1
10
16.958079099655151
20
92.421906709671021
30
0
10
15.866124987602234
20
92.421906709671021
30
0
10
15.455036520957947
20
93.847871541976929
30
0
0
LINE
5
140
100
AcDbEntity
8
0
100
AcDbLine
10
15.455036520957947
20
93.847871541976929
30
0
11
15.121026992797852
21
96.237323999404907
31
0
0
SPLINE
5
141
100
AcDbEntity
8
0
100
AcDbSpline
70
0
71
2
72
6
73
3
74
0
42
0.000000001
43
0.0000000001
44
0.0000000001
40
0
40
0
40
0
40
1
40
1
40
1
10
15.121026992797852
20
96.237323999404907
30
0
10
14.851250410079956
20
98.202839612960815
30
0
10
14.517240881919861
20
104.47194051742554
30
0
0
SPLINE
5
142
100
AcDbEntity
8
0
100
AcDbSpline
70
0
71
2
72
6
73
3
74
0
42
0.000000001
43
0.0000000001
44
0.0000000001
40
0
40
0
40
0
40
1
40
1
40
1
10
35.622781276702881
20
97.521973371505737
30
0
10
35.622781276702881
20
100.73360276222229
30
0
10
37.954424381256104
20
103.52129769325256
30
0
0
SPLINE
5
143
100
AcDbEntity
8
0
100
AcDbSpline
70
0
71
2
72
6
73
3
74
0
42
0.000000001
43
0.0000000001
44
0.0000000001
40
0
40
0
40
0
40
1
40
1
40
1
10
37.954424381256104
20
103.52129769325256
30
0
10
40.286067485809326
20
106.30899143218994
30
0
10
43.947325706481934
20
106.30899143218994
30
0
0
SPLINE
5
144
100
AcDbEntity
8
0
100
AcDbSpline
70
0
71
2
72
6
73
3
74
0
42
0.000000001
43
0.0000000001
44
0.0000000001
40
0
40
0
40
0
40
1
40
1
40
1
10
43.947325706481934
20
106.30899143218994
30
0
10
46.054154396057129
20
106.30899143218994
30
0
10
47.255302429199219
20
104.87660479545593
30
0
0
SPLINE
5
145
100
AcDbEntity
8
0
100
AcDbSpline
70
0
71
2
72
6
73
3
74
0
42
0.000000001
43
0.0000000001
44
0.0000000001
40
0
40
0
40
0
40
1
40
1
40
1
10
47.255302429199219
20
104.87660479545593
30
0
10
48.456450462341309
20
103.44421815872192
30
0
10
48.456450462341309
20
101.09330487251282
30
0
0
SPLINE
5
146
100
AcDbEntity
8
0
100
AcDbSpline
70
0
71
2
72
6
73
3
74
0
42
0.000000001
43
0.0000000001
44
0.0000000001
40
0
40
0
40
0
40
1
40
1
40
1
10
48.456450462341309
20
101.09330487251282
30
0
10
48.456450462341309
20
97.714670419692993
30
0
10
46.253276824951172
20
94.978364229202271
30
0
0
SPLINE
5
147
100
AcDbEntity
8
0
100
AcDbSpline
70
0
71
2
72
6
73
3
74
0
42
0.000000001
43
0.0000000001
44
0.0000000001
40
0
40
0
40
0
40
1
40
1
40
1
10
46.253276824951172
20
94.978364229202271
30
0
10
44.050096035003662
20
92.242055654525757
30
0
10
40.761388301849365
20
92.242055654525757
30
0
0
SPLINE
5
148
100
AcDbEntity
8
0
100
AcDbSpline
70
0
71
2
72
6
73
3
74
0
42
0.000000001
43
0.0000000001
44
0.0000000001
40
0
40
0
40
0
40
1
40
1
40
1
10
40.761388301849365
20
92.242055654525757
30
0
10
38.474708557128906
20
92.242055654525757
30
0
10
37.048743724822998
20
93.738675832748413
30
0
0
SPLINE
5
149
100
AcDbEntity
8
0
100
AcDbSpline
70
0
71
2
72
6
73
3
74
0
42
0.000000001
43
0.0000000001
44
0.0000000001
40
0
40
0
40
0
40
1
40
1
40
1
10
37.048743724822998
20
93.738675832748413
30
0
10
35.622781276702881
20
95.235293626785278
30
0
10
35.622781276702881
20
97.521973371505737
30
0
0
SPLINE
5
150
100
AcDbEntity
8
0
100
AcDbSpline
70
0
71
2
72
6
73
3
74
0
42
0.000000001
43
0.0000000001
44
0.0000000001
40
0
40
0
40
0
40
1
40
1
40
1
10
39.219804763793945
20
98.035834550857544
30
0
10
39.219804763793945
20
96.943879842758179
30
0
10
39.752937316894531
20
96.288707971572876
30
0
0
SPLINE
5
151
100
AcDbEntity
8
0
100
AcDbSpline
70
0
71
2
72
6
73
3
74
0
42
0.000000001
43
0.0000000001
44
0.0000000001
40
0
40
0
40
0
40
1
40
1
40
1
10
39.752937316894531
20
96.288707971572876
30
0
10
40.286067485809326
20
95.633536100387573
30
0
10
41.288095474243164
20
95.633536100387573
30
0
0
SPLINE
5
152
100
AcDbEntity
8
0
100
AcDbSpline
70
0
71
2
72
6
73
3
74
0
42
0.000000001
43
0.0000000001
44
0.0000000001
40
0
40
0
40
0
40
1
40
1
40
1
10
41.288095474243164
20
95.633536100387573
30
0
10
42.958141326904297
20
95.633536100387573
30
0
10
43.947325706481934
20
97.040229558944702
30
0
0
SPLINE
5
153
100
AcDbEntity
8
0
100
AcDbSpline
70
0
71
2
72
6
73
3
74
0
42
0.000000001
43
0.0000000001
44
0.0000000001
40
0
40
0
40
0
40
1
40
1
40
1
10
43.947325706481934
20
97.040229558944702
30
0
10
44.936505317687988
20
98.446923017501831
30
0
10
44.936505317687988
20
100.65652441978455
30
0
0
SPLINE
5
154
100
AcDbEntity
8
0
100
AcDbSpline
70
0
71
2
72
6
73
3
74
0
42
0.000000001
43
0.0000000001
44
0.0000000001
40
0
40
0
40
0
40
1
40
1
40
1
10
44.936505317687988
20
100.65652441978455
30
0
10
44.936505317687988
20
102.91751098632812
30
0
10
43.202227115631104
20
102.91751098632812
30
0
0
SPLINE
5
155
100
AcDbEntity
8
0
100
AcDbSpline
70
0
71
2
72
6
73
3
74
0
42
0.000000001
43
0.0000000001
44
0.0000000001
40
0
40
0
40
0
40
1
40
1
40
1
10
43.202227115631104
20
102.91751098632812
30
0
10
41.506486892700195
20
102.91751098632812
30
0
10
40.36314582824707
20
101.27958130836487
30
0
0
SPLINE
5
156
100
AcDbEntity
8
0
100
AcDbSpline
70
0
71
2
72
6
73
3
74
0
42
0.000000001
43
0.0000000001
44
0.0000000001
40
0
40
0
40
0
40
1
40
1
40
1
10
40.36314582824707
20
101.27958130836487
30
0
10
39.219804763793945
20
99.641650438308716
30
0
10
39.219804763793945
20
98.035834550857544
30
0
0
SPLINE
5
157
100
AcDbEntity
8
0
100
AcDbSpline
70
0
71
2
72
6
73
3
74
0
42
0.000000001
43
0.0000000001
44
0.0000000001
40
0
40
0
40
0
40
1
40
1
40
1
10
63.652597427368164
20
103.4699113368988
30
0
10
63.125887870788574
20
103.54699087142944
30
0
10
62.599183082580566
20
103.54699087142944
30
0
0
SPLINE
5
158
100
AcDbEntity
8
0
100
AcDbSpline
70
0
71
2
72
6
73
3
74
0
42
0.000000001
43
0.0000000001
44
0.0000000001
40
0
40
0
40
0
40
1
40
1
40
1
10
62.599183082580566
20
103.54699087142944
30
0
10
59.387551307678223
20
103.54699087142944
30
0
10
59.387551307678223
20
102.66058039665222
30
0
0
SPLINE
5
159
100
AcDbEntity
8
0
100
AcDbSpline
70
0
71
2
72
6
73
3
74
0
42
0.000000001
43
0.0000000001
44
0.0000000001
40
0
40
0
40
0
40
1
40
1
40
1
10
59.387551307678223
20
102.66058039665222
30
0
10
59.387551307678223
20
102.14672040939331
30
0
10
61.044751167297363
20
101.36308264732361
30
0
0
SPLINE
5
160
100
AcDbEntity
8
0
100
AcDbSpline
70
0
71
2
72
6
73
3
74
0
42
0.000000001
43
0.0000000001
44
0.0000000001
40
0
40
0
40
0
40
1
40
1
40
1
10
61.044751167297363
20
101.36308264732361
30
0
10
63.79390811920166
20
99.975658178329468
30
0
10
64.699588775634766
20
99.057133913040161
30
0
0
SPLINE
5
161
100
AcDbEntity
8
0
100
AcDbSpline
70
0
71
2
72
6
73
3
74
0
42
0.000000001
43
0.0000000001
44
0.0000000001
40
0
40
0
40
0
40
1
40
1
40
1
10
64.699588775634766
20
99.057133913040161
30
0
10
65.605264663696289
20
98.138607263565063
30
0
10
65.605264663696289
20
96.905341863632202
30
0
0
SPLINE
5
162
100
AcDbEntity
8
0
100
AcDbSpline
70
0
71
2
72
6
73
3
74
0
42
0.000000001
43
0.0000000001
44
0.0000000001
40
0
40
0
40
0
40
1
40
1
40
1
10
65.605264663696289
20
96.905341863632202
30
0
10
65.605264663696289
20
95.004056215286255
30
0
10
63.76179313659668
20
93.623057126998901
30
0
0
SPLINE
5
163
100
AcDbEntity
8
0
100
AcDbSpline
70
0
71
2
72
6
73
3
74
0
42
0.000000001
43
0.0000000001
44
0.0000000001
40
0
40
0
40
0
40
1
40
1
40
1
10
63.76179313659668
20
93.623057126998901
30
0
10
61.918316841125488
20
92.242055654525757
30
0
10
58.758073806762695
20
92.242055654525757
30
0
0
SPLINE
5
164
100
AcDbEntity
8
0
100
AcDbSpline
70
0
71
2
72
6
73
3
74
0
42
0.000000001
43
0.0000000001
44
0.0000000001
40
0
40
0
40
0
40
1
40
1
40
1
10
58.758073806762695
20
92.242055654525757
30
0
10
56.933866500854492
20
92.242055654525757
30
0
10
55.520750045776367
20
92.858689546585083
30
0
0
SPLINE
5
165
100
AcDbEntity
8
0
100
AcDbSpline
70
0
71
2
72
6
73
3
74
0
42
0.000000001
43
0.0000000001
44
0.0000000001
40
0
40
0
40
0
40
1
40
1
40
1
10
55.520750045776367
20
92.858689546585083
30
0
10
54.107633590698242
20
93.475321054458618
30
0
10
54.107633590698242
20
94.541581392288208
30
0
0
SPLINE
5
166
100
AcDbEntity
8
0
100
AcDbSpline
70
0
71
2
72
6
73
3
74
0
42
0.000000001
43
0.0000000001
44
0.0000000001
40
0
40
0
40
0
40
1
40
1
40
1
10
54.107633590698242
20
94.541581392288208
30
0
10
54.107633590698242
20
96.160243272781372
30
0
10
55.867606163024902
20
96.160243272781372
30
0
0
SPLINE
5
167
100
AcDbEntity
8
0
100
AcDbSpline
70
0
71
2
72
6
73
3
74
0
42
0.000000001
43
0.0000000001
44
0.0000000001
40
0
40
0
40
0
40
1
40
1
40
1
10
55.867606163024902
20
96.160243272781372
30
0
10
56.458545684814453
20
96.160243272781372
30
0
10
57.499114036560059
20
95.787695169448853
30
0
0
SPLINE
5
168
100
AcDbEntity
8
0
100
AcDbSpline
70
0
71
2
72
6
73
3
74
0
42
0.000000001
43
0.0000000001
44
0.0000000001
40
0
40
0
40
0
40
1
40
1
40
1
10
57.499114036560059
20
95.787695169448853
30
0
10
58.642455101013184
20
95.415144681930542
30
0
10
59.182005882263184
20
95.415144681930542
30
0
0
SPLINE
5
169
100
AcDbEntity
8
0
100
AcDbSpline
70
0
71
2
72
6
73
3
74
0
42
0.000000001
43
0.0000000001
44
0.0000000001
40
0
40
0
40
0
40
1
40
1
40
1
10
59.182005882263184
20
95.415144681930542
30
0
10
61.956854820251465
20
95.415144681930542
30
0
10
61.956854820251465
20
96.558485746383667
30
0
0
SPLINE
5
170
100
AcDbEntity
8
0
100
AcDbSpline
70
0
71
2
72
6
73
3
74
0
42
0.000000001
43
0.0000000001
44
0.0000000001
40
0
40
0
40
0
40
1
40
1
40
1
10
61.956854820251465
20
96.558485746383667
30
0
10
61.956854820251465
20
97.175117254257202
30
0
10
60.389581680297852
20
97.920215845108032
30
0
0
SPLINE
5
171
100
AcDbEntity
8
0
100
AcDbSpline
70
0
71
2
72
6
73
3
74
0
42
0.000000001
43
0.0000000001
44
0.0000000001
40
0
40
0
40
0
40
1
40
1
40
1
10
60.389581680297852
20
97.920215845108032
30
0
10
57.704659461975098
20
99.179175615310669
30
0
10
56.798978805541992
20
100.00135254859924
30
0
0
SPLINE
5
172
100
AcDbEntity
8
0
100
AcDbSpline
70
0
71
2
72
6
73
3
74
0
42
0.000000001
43
0.0000000001
44
0.0000000001
40
0
40
0
40
0
40
1
40
1
40
1
10
56.798978805541992
20
100.00135254859924
30
0
10
55.893298149108887
20
100.82352948188782
30
0
10
55.893298149108887
20
102.13387322425842
30
0
0
SPLINE
5
173
100
AcDbEntity
8
0
100
AcDbSpline
70
0
71
2
72
6
73
3
74
0
42
0.000000001
43
0.0000000001
44
0.0000000001
40
0
40
0
40
0
40
1
40
1
40
1
10
55.893298149108887
20
102.13387322425842
30
0
10
55.893298149108887
20
104.03515768051147
30
0
10
57.537652015686035
20
105.37119579315186
30
0
0
SPLINE
5
174
100
AcDbEntity
8
0
100
AcDbSpline
70
0
71
2
72
6
73
3
74
0
42
0.000000001
43
0.0000000001
44
0.0000000001
40
0
40
0
40
0
40
1
40
1
40
1
10
57.537652015686035
20
105.37119579315186
30
0
10
59.182005882263184
20
106.70723390579224
30
0
10
64.179302215576172
20
106.70723390579224
30
0
0
SPLINE
5
175
100
AcDbEntity
8
0
100
AcDbSpline
70
0
71
2
72
6
73
3
74
0
42
0.000000001
43
0.0000000001
44
0.0000000001
40
0
40
0
40
0
40
1
40
1
40
1
10
64.179302215576172
20
106.70723390579224
30
0
10
66.671529769897461
20
106.70723390579224
30
0
10
66.671529769897461
20
105.15280556678772
30
0
0
SPLINE
5
176
100
AcDbEntity
8
0
100
AcDbSpline
70
0
71
2
72
6
73
3
74
0
42
0.000000001
43
0.0000000001
44
0.0000000001
40
0
40
0
40
0
40
1
40
1
40
1
10
66.671529769897461
20
105.15280556678772
30
0
10
66.671529769897461
20
104.34347462654114
30
0
10
66.260438919067383
20
103.36713981628418
30
0
0
SPLINE
5
177
100
AcDbEntity
8
0
100
AcDbSpline
70
0
71
2
72
6
73
3
74
0
42
0.000000001
43
0.0000000001
44
0.0000000001
40
0
40
0
40
0
40
1
40
1
40
1
10
66.260438919067383
20
103.36713981628418
30
0
10
65.849348068237305
20
102.39080381393433
30
0
10
65.027175903320312
20
102.39080381393433
30
0
0
SPLINE
5
178
100
AcDbEntity
8
0
100
AcDbSpline
70
0
71
2
72
6
73
3
74
0
42
0.000000001
43
0.0000000001
44
0.0000000001
40
0
40
0
40
0
40
1
40
1
40
1
10
65.027175903320312
20
102.39080381393433
30
0
10
63.729673385620117
20
102.39080381393433
30
0
10
63.652597427368164
20
103.4699113368988
30
0
0
LINE
5
179
100
AcDbEntity
8
0
100
AcDbLine
10
82.664152145385742
20
103.12305521965027
30
0
11
81.623583793640137
21
103.12305521965027
31
0
0
SPLINE
5
180
100
AcDbEntity
8
0
100
AcDbSpline
70
0
71
2
72
6
73
3
74
0
42
0.000000001
43
0.0000000001
44
0.0000000001
40
0
40
0
40
0
40
1
40
1
40
1
10
81.623583793640137
20
103.12305521965027
30
0
10
80.711484909057617
20
103.12305521965027
30
0
10
80.107694625854492
20
103.09736204147339
30
0
0
SPLINE
5
181
100
AcDbEntity
8
0
100
AcDbSpline
70
0
71
2
72
6
73
3
74
0
42
0.000000001
43
0.0000000001
44
0.0000000001
40
0
40
0
40
0
40
1
40
1
40
1
10
80.107694625854492
20
103.09736204147339
30
0
10
80.030618667602539
20
102.87897181510925
30
0
10
79.979229927062988
20
102.6862735748291
30
0
0
SPLINE
5
182
100
AcDbEntity
8
0
100
AcDbSpline
70
0
71
2
72
6
73
3
74
0
42
0.000000001
43
0.0000000001
44
0.0000000001
40
0
40
0
40
0
40
1
40
1
40
1
10
79.979229927062988
20
102.6862735748291
30
0
10
79.92784595489502
20
102.48072934150696
30
0
10
79.863611221313477
20
102.26233792304993
30
0
0
SPLINE
5
183
100
AcDbEntity
8
0
100
AcDbSpline
70
0
71
2
72
6
73
3
74
0
42
0.000000001
43
0.0000000001
44
0.0000000001
40
0
40
0
40
0
40
1
40
1
40
1
10
79.863611221313477
20
102.26233792304993
30
0
10
78.874431610107422
20
98.909397840499878
30
0
10
78.874431610107422
20
97.239349603652954
30
0
0
SPLINE
5
184
100
AcDbEntity
8
0
100
AcDbSpline
70
0
71
2
72
6
73
3
74
0
42
0.000000001
43
0.0000000001
44
0.0000000001
40
0
40
0
40
0
40
1
40
1
40
1
10
78.874431610107422
20
97.239349603652954
30
0
10
78.874431610107422
20
95.736308813095093
30
0
10
79.478217124938965
20
95.736308813095093
30
0
0
SPLINE
5
185
100
AcDbEntity
8
0
100
AcDbSpline
70
0
71
2
72
6
73
3
74
0
42
0.000000001
43
0.0000000001
44
0.0000000001
40
0
40
0
40
0
40
1
40
1
40
1
10
79.478217124938965
20
95.736308813095093
30
0
10
80.082002639770508
20
95.736308813095093
30
0
10
80.750022888183594
20
96.41717267036438
30
0
0
SPLINE
5
186
100
AcDbEntity
8
0
100
AcDbSpline
70
0
71
2
72
6
73
3
74
0
42
0.000000001
43
0.0000000001
44
0.0000000001
40
0
40
0
40
0
40
1
40
1
40
1
10
80.750022888183594
20
96.41717267036438
30
0
10
81.405197143554688
20
97.098038911819458
30
0
10
81.970439910888672
20
97.098038911819458
30
0
0
SPLINE
5
187
100
AcDbEntity
8
0
100
AcDbSpline
70
0
71
2
72
6
73
3
74
0
42
0.000000001
43
0.0000000001
44
0.0000000001
40
0
40
0
40
0
40
1
40
1
40
1
10
81.970439910888672
20
97.098038911819458
30
0
10
82.497149467468262
20
97.098038911819458
30
0
10
82.985316276550293
20
96.661258459091187
30
0
0
SPLINE
5
188
100
AcDbEntity
8
0
100
AcDbSpline
70
0
71
2
72
6
73
3
74
0
42
0.000000001
43
0.0000000001
44
0.0000000001
40
0
40
0
40
0
40
1
40
1
40
1
10
82.985316276550293
20
96.661258459091187
30
0
10
83.473483085632324
20
96.224475622177124
30
0
10
83.473483085632324
20
95.505071401596069
30
0
0
SPLINE
5
189
100
AcDbEntity
8
0
100
AcDbSpline
70
0
71
2
72
6
73
3
74
0
42
0.000000001
43
0.0000000001
44
0.0000000001
40
0
40
0
40
0
40
1
40
1
40
1
10
83.473483085632324
20
95.505071401596069
30
0
10
83.473483085632324
20
94.246111631393433
30
0
10
81.983285903930664
20
93.346856355667114
30
0
0
SPLINE
5
190
100
AcDbEntity
8
0
100
AcDbSpline
70
0
71
2
72
6
73
3
74
0
42
0.000000001
43
0.0000000001
44
0.0000000001
40
0
40
0
40
0
40
1
40
1
40
1
10
81.983285903930664
20
93.346856355667114
30
0
10
80.493093490600586
20
92.447601079940796
30
0
10
79.002896308898926
20
92.447601079940796
30
0
0
SPLINE
5
191
100
AcDbEntity
8
0
100
AcDbSpline
70
0
71
2
72
6
73
3
74
0
42
0.000000001
43
0.0000000001
44
0.0000000001
40
0
40
0
40
0
40
1
40
1
40
1
10
79.002896308898926
20
92.447601079940796
30
0
10
75.418716430664062
20
92.447601079940796
30
0
10
75.418716430664062
20
96.78972315788269
30
0
0
SPLINE
5
192
100
AcDbEntity
8
0
100
AcDbSpline
70
0
71
2
72
6
73
3
74
0
42
0.000000001
43
0.0000000001
44
0.0000000001
40
0
40
0
40
0
40
1
40
1
40
1
10
75.418716430664062
20
96.78972315788269
30
0
10
75.418716430664062
20
99.153481245040894
30
0
10
76.690522193908691
20
102.99459052085876
30
0
0
SPLINE
5
193
100
AcDbEntity
8
0
100
AcDbSpline
70
0
71
2
72
6
73
3
74
0
42
0.000000001
43
0.0000000001
44
0.0000000001
40
0
40
0
40
0
40
1
40
1
40
1
10
76.690522193908691
20
102.99459052085876
30
0
10
74.506617546081543
20
103.11020922660828
30
0
10
74.005599975585938
20
103.51487469673157
30
0
0
SPLINE
5
194
100
AcDbEntity
8
0
100
AcDbSpline
70
0
71
2
72
6
73
3
74
0
42
0.000000001
43
0.0000000001
44
0.0000000001
40
0
40
0
40
0
40
1
40
1
40
1
10
74.005599975585938
20
103.51487469673157
30
0
10
73.504587173461914
20
103.91953897476196
30
0
10
73.504587173461914
20
104.87018179893494
30
0
0
SPLINE
5
195
100
AcDbEntity
8
0
100
AcDbSpline
70
0
71
2
72
6
73
3
74
0
42
0.000000001
43
0.0000000001
44
0.0000000001
40
0
40
0
40
0
40
1
40
1
40
1
10
73.504587173461914
20
104.87018179893494
30
0
10
73.504587173461914
20
105.65381956100464
30
0
10
74.024868965148926
20
106.14198637008667
30
0
0
SPLINE
5
196
100
AcDbEntity
8
0
100
AcDbSpline
70
0
71
2
72
6
73
3
74
0
42
0.000000001
43
0.0000000001
44
0.0000000001
40
0
40
0
40
0
40
1
40
1
40
1
10
74.024868965148926
20
106.14198637008667
30
0
10
74.54515552520752
20
106.6301543712616
30
0
10
75.367332458496094
20
106.6301543712616
30
0
0
LINE
5
197
100
AcDbEntity
8
0
100
AcDbLine
10
75.367332458496094
20
106.6301543712616
30
0
11
77.37138843536377
21
106.45030331611633
31
0
0
LINE
5
198
100
AcDbEntity
8
0
100
AcDbLine
10
77.37138843536377
20
106.45030331611633
30
0
11
77.679706573486328
21
109.01960682868958
31
0
0
SPLINE
5
199
100
AcDbEntity
8
0
100
AcDbSpline
70
0
71
2
72
6
73
3
74
0
42
0.000000001
43
0.0000000001
44
0.0000000001
40
0
40
0
40
0
40
1
40
1
40
1
10
77.679706573486328
20
109.01960682868958
30
0
10
77.756782531738281
20
109.68762588500977
30
0
10
78.289915084838867
20
110.1693696975708
30
0
0
SPLINE
5
200
100
AcDbEntity
8
0
100
AcDbSpline
70
0
71
2
72
6
73
3
74
0
42
0.000000001
43
0.0000000001
44
0.0000000001
40
0
40
0
40
0
40
1
40
1
40
1
10
78.289915084838867
20
110.1693696975708
30
0
10
78.823047637939453
20
110.65111470222473
30
0
10
79.5552978515625
20
110.65111470222473
30
0
0
SPLINE
5
201
100
AcDbEntity
8
0
100
AcDbSpline
70
0
71
2
72
6
73
3
74
0
42
0.000000001
43
0.0000000001
44
0.0000000001
40
0
40
0
40
0
40
1
40
1
40
1
10
79.5552978515625
20
110.65111470222473
30
0
10
81.084033012390137
20
110.65111470222473
30
0
10
81.084033012390137
20
108.51859283447266
30
0
0
SPLINE
5
202
100
AcDbEntity
8
0
100
AcDbSpline
70
0
71
2
72
6
73
3
74
0
42
0.000000001
43
0.0000000001
44
0.0000000001
40
0
40
0
40
0
40
1
40
1
40
1
10
81.084033012390137
20
108.51859283447266
30
0
10
81.084033012390137
20
108.14604353904724
30
0
10
80.814252853393555
20
106.52738285064697
30
0
0
SPLINE
5
203
100
AcDbEntity
8
0
100
AcDbSpline
70
0
71
2
72
6
73
3
74
0
42
0.000000001
43
0.0000000001
44
0.0000000001
40
0
40
0
40
0
40
1
40
1
40
1
10
80.814252853393555
20
106.52738285064697
30
0
10
81.186805725097656
20
106.56592202186584
30
0
10
81.41804313659668
20
106.60446119308472
30
0
0
SPLINE
5
204
100
AcDbEntity
8
0
100
AcDbSpline
70
0
71
2
72
6
73
3
74
0
42
0.000000001
43
0.0000000001
44
0.0000000001
40
0
40
0
40
0
40
1
40
1
40
1
10
81.41804313659668
20
106.60446119308472
30
0
10
82.137447357177734
20
106.69438672065735
30
0
10
83.34501838684082
20
106.50168967247009
30
0
0
SPLINE
5
205
100
AcDbEntity
8
0
100
AcDbSpline
70
0
71
2
72
6
73
3
74
0
42
0.000000001
43
0.0000000001
44
0.0000000001
40
0
40
0
40
0
40
1
40
1
40
1
10
83.34501838684082
20
106.50168967247009
30
0
10
84.552589416503906
20
106.30899143218994
30
0
10
84.552589416503906
20
104.94726133346558
30
0
0
SPLINE
5
206
100
AcDbEntity
8
0
100
AcDbSpline
70
0
71
2
72
6
73
3
74
0
42
0.000000001
43
0.0000000001
44
0.0000000001
40
0
40
0
40
0
40
1
40
1
40
1
10
84.552589416503906
20
104.94726133346558
30
0
10
84.552589416503906
20
104.11223721504211
30
0
10
83.993769645690918
20
103.61764621734619
30
0
0
SPLINE
5
207
100
AcDbEntity
8
0
100
AcDbSpline
70
0
71
2
72
6
73
3
74
0
42
0.000000001
43
0.0000000001
44
0.0000000001
40
0
40
0
40
0
40
1
40
1
40
1
10
83.993769645690918
20
103.61764621734619
30
0
10
83.434945106506348
20
103.12305521965027
30
0
10
82.664152145385742
20
103.12305521965027
30
0
0
SPLINE
5
208
100
AcDbEntity
8
0
100
AcDbSpline
70
0
71
2
72
6
73
3
74
0
42
0.000000001
43
0.0000000001
44
0.0000000001
40
0
40
0
40
0
40
1
40
1
40
1
10
36.663352012634277
20
66.15077805519104
30
0
10
37.858077049255371
20
65.495603799819946
30
0
10
38.558212280273438
20
64.365113496780396
30
0
0
SPLINE
5
209
100
AcDbEntity
8
0
100
AcDbSpline
70
0
71
2
72
6
73
3
74
0
42
0.000000001
43
0.0000000001
44
0.0000000001
40
0
40
0
40
0
40
1
40
1
40
1
10
38.558212280273438
20
64.365113496780396
30
0
10
39.258347511291504
20
63.234618425369256
30
0
10
39.258347511291504
20
62.091277360916131
30
0
0
SPLINE
5
210
100
AcDbEntity
8
0
100
AcDbSpline
70
0
71
2
72
6
73
3
74
0
42
0.000000001
43
0.0000000001
44
0.0000000001
40
0
40
0
40
0
40
1
40
1
40
1
10
39.258347511291504
20
62.091277360916131
30
0
10
39.258347511291504
20
59.265044450759881
30
0
10
35.802634716033936
20
57.498648881912224
30
0
0
SPLINE
5
211
100
AcDbEntity
8
0
100
AcDbSpline
70
0
71
2
72
6
73
3
74
0
42
0.000000001
43
0.0000000001
44
0.0000000001
40
0
40
0
40
0
40
1
40
1
40
1
10
35.802634716033936
20
57.498648881912224
30
0
10
32.346921920776367
20
55.732253313064568
30
0
10
26.270519256591797
20
55.732253313064568
30
0
0
SPLINE
5
212
100
AcDbEntity
8
0
100
AcDbSpline
70
0
71
2
72
6
73
3
74
0
42
0.000000001
43
0.0000000001
44
0.0000000001
40
0
40
0
40
0
40
1
40
1
40
1
10
26.270519256591797
20
55.732253313064568
30
0
10
25.486881494522095
20
55.732253313064568
30
0
10
24.979443311691284
20
56.355307817459099
30
0
0
SPLINE
5
213
100
AcDbEntity
8
0
100
AcDbSpline
70
0
71
2
72
6
73
3
74
0
42
0.000000001
43
0.0000000001
44
0.0000000001
40
0
40
0
40
0
40
1
40
1
40
1
10
24.979443311691284
20
56.355307817459099
30
0
10
24.472006320953369
20
56.978367090225213
30
0
10
24.587625026702881
20
57.736309289932244
30
0
0
LINE
5
214
100
AcDbEntity
8
0
100
AcDbLine
10
24.587625026702881
20
57.736309289932244
30
0
11
26.745840072631836
21
71.353619813919067
31
0
0
SPLINE
5
215
100
AcDbEntity
8
0
100
AcDbSpline
70
0
71
2
72
6
73
3
74
0
42
0.000000001
43
0.0000000001
44
0.0000000001
40
0
40
0
40
0
40
1
40
1
40
1
10
26.745840072631836
20
71.353619813919067
30
0
10
26.758686065673828
20
71.405003786087036
30
0
10
26.87430477142334
20
72.535498857498169
30
0
0
SPLINE
5
216
100
AcDbEntity
8
0
100
AcDbSpline
70
0
71
2
72
6
73
3
74
0
42
0.000000001
43
0.0000000001
44
0.0000000001
40
0
40
0
40
0
40
1
40
1
40
1
10
26.87430477142334
20
72.535498857498169
30
0
10
27.092696189880371
20
74.616630792617798
30
0
10
27.503784656524658
20
75.246113061904907
30
0
0
SPLINE
5
217
100
AcDbEntity
8
0
100
AcDbSpline
70
0
71
2
72
6
73
3
74
0
42
0.000000001
43
0.0000000001
44
0.0000000001
40
0
40
0
40
0
40
1
40
1
40
1
10
27.503784656524658
20
75.246113061904907
30
0
10
27.914873123168945
20
75.875590562820435
30
0
10
29.475723266601562
20
76.196754693984985
30
0
0
SPLINE
5
218
100
AcDbEntity
8
0
100
AcDbSpline
70
0
71
2
72
6
73
3
74
0
42
0.000000001
43
0.0000000001
44
0.0000000001
40
0
40
0
40
0
40
1
40
1
40
1
10
29.475723266601562
20
76.196754693984985
30
0
10
31.036575794219971
20
76.517918825149536
30
0
10
33.05348014831543
20
76.517918825149536
30
0
0
SPLINE
5
219
100
AcDbEntity
8
0
100
AcDbSpline
70
0
71
2
72
6
73
3
74
0
42
0.000000001
43
0.0000000001
44
0.0000000001
40
0
40
0
40
0
40
1
40
1
40
1
10
33.05348014831543
20
76.517918825149536
30
0
10
35.50716495513916
20
76.517918825149536
30
0
10
37.459834575653076
20
74.969914674758911
30
0
0
SPLINE
5
220
100
AcDbEntity
8
0
100
AcDbSpline
70
0
71
2
72
6
73
3
74
0
42
0.000000001
43
0.0000000001
44
0.0000000001
40
0
40
0
40
0
40
1
40
1
40
1
10
37.459834575653076
20
74.969914674758911
30
0
10
39.412504196166992
20
73.421905755996704
30
0
10
39.412504196166992
20
71.225155115127563
30
0
0
SPLINE
5
221
100
AcDbEntity
8
0
100
AcDbSpline
70
0
71
2
72
6
73
3
74
0
42
0.000000001
43
0.0000000001
44
0.0000000001
40
0
40
0
40
0
40
1
40
1
40
1
10
39.412504196166992
20
71.225155115127563
30
0
10
39.412504196166992
20
68.141988039016724
30
0
10
36.663352012634277
20
66.15077805519104
30
0
0
LINE
5
222
100
AcDbEntity
8
0
100
AcDbLine
10
32.501078605651855
20
73.036511659622192
30
0
11
31.165042877197266
21
73.036511659622192
31
0
0
SPLINE
5
223
100
AcDbEntity
8
0
100
AcDbSpline
70
0
71
2
72
6
73
3
74
0
42
0.000000001
43
0.0000000001
44
0.0000000001
40
0
40
0
40
0
40
1
40
1
40
1
10
31.165042877197266
20
73.036511659622192
30
0
10
30.676873683929443
20
73.036511659622192
30
0
10
30.49702262878418
20
73.010819673538208
30
0
0
LINE
5
224
100
AcDbEntity
8
0
100
AcDbLine
10
30.49702262878418
20
73.010819673538208
30
0
11
30.085934162139893
21
70.274513483047485
31
0
0
LINE
5
225
100
AcDbEntity
8
0
100
AcDbLine
10
30.085934162139893
20
70.274513483047485
30
0
11
29.636305332183838
21
67.602432489395142
31
0
0
SPLINE
5
226
100
AcDbEntity
8
0
100
AcDbSpline
70
0
71
2
72
6
73
3
74
0
42
0.000000001
43
0.0000000001
44
0.0000000001
40
0
40
0
40
0
40
1
40
1
40
1
10
29.636305332183838
20
67.602432489395142
30
0
10
30.484176635742188
20
67.47397255897522
30
0
10
31.049424171447754
20
67.47397255897522
30
0
0
SPLINE
5
227
100
AcDbEntity
8
0
100
AcDbSpline
70
0
71
2
72
6
73
3
74
0
42
0.000000001
43
0.0000000001
44
0.0000000001
40
0
40
0
40
0
40
1
40
1
40
1
10
31.049424171447754
20
67.47397255897522
30
0
10
33.079172134399414
20
67.47397255897522
30
0
10
34.434481620788574
20
68.360379457473755
30
0
0
SPLINE
5
228
100
AcDbEntity
8
0
100
AcDbSpline
70
0
71
2
72
6
73
3
74
0
42
0.000000001
43
0.0000000001
44
0.0000000001
40
0
40
0
40
0
40
1
40
1
40
1
10
34.434481620788574
20
68.360379457473755
30
0
10
35.789786338806152
20
69.24678635597229
30
0
10
35.789786338806152
20
70.634210824966431
30
0
0
SPLINE
5
229
100
AcDbEntity
8
0
100
AcDbSpline
70
0
71
2
72
6
73
3
74
0
42
0.000000001
43
0.0000000001
44
0.0000000001
40
0
40
0
40
0
40
1
40
1
40
1
10
35.789786338806152
20
70.634210824966431
30
0
10
35.789786338806152
20
71.507776498794556
30
0
10
34.774912357330322
20
72.272146463394165
30
0
0
SPLINE
5
230
100
AcDbEntity
8
0
100
AcDbSpline
70
0
71
2
72
6
73
3
74
0
42
0.000000001
43
0.0000000001
44
0.0000000001
40
0
40
0
40
0
40
1
40
1
40
1
10
34.774912357330322
20
72.272146463394165
30
0
10
33.760038375854492
20
73.036511659622192
30
0
10
32.501078605651855
20
73.036511659622192
30
0
0
LINE
5
231
100
AcDbEntity
8
0
100
AcDbLine
10
29.083906173706055
20
64.043949365615845
30
0
11
28.31311559677124
21
59.226506471633904
31
0
0
SPLINE
5
232
100
AcDbEntity
8
0
100
AcDbSpline
70
0
71
2
72
6
73
3
74
0
42
0.000000001
43
0.0000000001
44
0.0000000001
40
0
40
0
40
0
40
1
40
1
40
1
10
28.31311559677124
20
59.226506471633904
30
0
10
31.730288028717041
20
59.432047128677361
30
0
10
33.721498012542725
20
59.997294664382927
30
0
0
SPLINE
5
233
100
AcDbEntity
8
0
100
AcDbSpline
70
0
71
2
72
6
73
3
74
0
42
0.000000001
43
0.0000000001
44
0.0000000001
40
0
40
0
40
0
40
1
40
1
40
1
10
33.721498012542725
20
59.997294664382927
30
0
10
35.712710380554199
20
60.562542200088494
30
0
10
35.712710380554199
20
61.705883264541619
30
0
0
SPLINE
5
234
100
AcDbEntity
8
0
100
AcDbSpline
70
0
71
2
72
6
73
3
74
0
42
0.000000001
43
0.0000000001
44
0.0000000001
40
0
40
0
40
0
40
1
40
1
40
1
10
35.712710380554199
20
61.705883264541619
30
0
10
35.712710380554199
20
62.669370889663689
30
0
10
34.453750610351562
20
63.318122148513787
30
0
0
SPLINE
5
235
100
AcDbEntity
8
0
100
AcDbSpline
70
0
71
2
72
6
73
3
74
0
42
0.000000001
43
0.0000000001
44
0.0000000001
40
0
40
0
40
0
40
1
40
1
40
1
10
34.453750610351562
20
63.318122148513787
30
0
10
33.194790840148926
20
63.966873407363884
30
0
10
32.552464962005615
20
63.966873407363884
30
0
0
SPLINE
5
236
100
AcDbEntity
8
0
100
AcDbSpline
70
0
71
2
72
6
73
3
74
0
42
0.000000001
43
0.0000000001
44
0.0000000001
40
0
40
0
40
0
40
1
40
1
40
1
10
32.552464962005615
20
63.966873407363884
30
0
10
31.409126281738281
20
63.966873407363884
30
0
10
29.083906173706055
20
64.043949365615845
30
0
0
SPLINE
5
237
100
AcDbEntity
8
0
100
AcDbSpline
70
0
71
2
72
6
73
3
74
0
42
0.000000001
43
0.0000000001
44
0.0000000001
40
0
40
0
40
0
40
1
40
1
40
1
10
48.853407859802246
20
60.202840089797967
30
0
10
49.958210945129395
20
58.866804361343377
30
0
10
52.142115592956543
20
58.866804361343377
30
0
0
SPLINE
5
238
100
AcDbEntity
8
0
100
AcDbSpline
70
0
71
2
72
6
73
3
74
0
42
0.000000001
43
0.0000000001
44
0.0000000001
40
0
40
0
40
0
40
1
40
1
40
1
10
52.142115592956543
20
58.866804361343377
30
0
10
53.837858200073242
20
58.866804361343377
30
0
10
55.16104793548584
20
59.573362588882439
30
0
0
SPLINE
5
239
100
AcDbEntity
8
0
100
AcDbSpline
70
0
71
2
72
6
73
3
74
0
42
0.000000001
43
0.0000000001
44
0.0000000001
40
0
40
0
40
0
40
1
40
1
40
1
10
55.16104793548584
20
59.573362588882439
30
0
10
56.342926979064941
20
60.202840089797967
30
0
10
56.985255241394043
20
60.202840089797967
30
0
0
SPLINE
5
240
100
AcDbEntity
8
0
100
AcDbSpline
70
0
71
2
72
6
73
3
74
0
42
0.000000001
43
0.0000000001
44
0.0000000001
40
0
40
0
40
0
40
1
40
1
40
1
10
56.985255241394043
20
60.202840089797967
30
0
10
58.115745544433594
20
60.202840089797967
30
0
10
58.115745544433594
20
59.226506471633904
30
0
0
SPLINE
5
241
100
AcDbEntity
8
0
100
AcDbSpline
70
0
71
2
72
6
73
3
74
0
42
0.000000001
43
0.0000000001
44
0.0000000001
40
0
40
0
40
0
40
1
40
1
40
1
10
58.115745544433594
20
59.226506471633904
30
0
10
58.115745544433594
20
57.723463296890252
30
0
10
56.085997581481934
20
56.740701913833611
30
0
0
SPLINE
5
242
100
AcDbEntity
8
0
100
AcDbSpline
70
0
71
2
72
6
73
3
74
0
42
0.000000001
43
0.0000000001
44
0.0000000001
40
0
40
0
40
0
40
1
40
1
40
1
10
56.085997581481934
20
56.740701913833611
30
0
10
54.056249618530273
20
55.757945299148552
30
0
10
51.64110279083252
20
55.757945299148552
30
0
0
SPLINE
5
243
100
AcDbEntity
8
0
100
AcDbSpline
70
0
71
2
72
6
73
3
74
0
42
0.000000001
43
0.0000000001
44
0.0000000001
40
0
40
0
40
0
40
1
40
1
40
1
10
51.64110279083252
20
55.757945299148552
30
0
10
48.673559188842773
20
55.757945299148552
30
0
10
46.997085571289062
20
57.087558031082146
30
0
0
SPLINE
5
244
100
AcDbEntity
8
0
100
AcDbSpline
70
0
71
2
72
6
73
3
74
0
42
0.000000001
43
0.0000000001
44
0.0000000001
40
0
40
0
40
0
40
1
40
1
40
1
10
46.997085571289062
20
57.087558031082146
30
0
10
45.320616722106934
20
58.417175531387322
30
0
10
45.320616722106934
20
60.665314912796013
30
0
0
SPLINE
5
245
100
AcDbEntity
8
0
100
AcDbSpline
70
0
71
2
72
6
73
3
74
0
42
0.000000001
43
0.0000000001
44
0.0000000001
40
0
40
0
40
0
40
1
40
1
40
1
10
45.320616722106934
20
60.665314912796013
30
0
10
45.320616722106934
20
63.812711954116814
30
0
10
47.562333106994629
20
66.780255556106567
30
0
0
SPLINE
5
246
100
AcDbEntity
8
0
100
AcDbSpline
70
0
71
2
72
6
73
3
74
0
42
0.000000001
43
0.0000000001
44
0.0000000001
40
0
40
0
40
0
40
1
40
1
40
1
10
47.562333106994629
20
66.780255556106567
30
0
10
49.804049491882324
20
69.747803926467896
30
0
10
53.503848075866699
20
69.747803926467896
30
0
0
SPLINE
5
247
100
AcDbEntity
8
0
100
AcDbSpline
70
0
71
2
72
6
73
3
74
0
42
0.000000001
43
0.0000000001
44
0.0000000001
40
0
40
0
40
0
40
1
40
1
40
1
10
53.503848075866699
20
69.747803926467896
30
0
10
55.931840896606445
20
69.747803926467896
30
0
10
57.287145614624023
20
68.94489598274231
30
0
0
SPLINE
5
248
100
AcDbEntity
8
0
100
AcDbSpline
70
0
71
2
72
6
73
3
74
0
42
0.000000001
43
0.0000000001
44
0.0000000001
40
0
40
0
40
0
40
1
40
1
40
1
10
57.287145614624023
20
68.94489598274231
30
0
10
58.642455101013184
20
68.141988039016724
30
0
10
58.642455101013184
20
66.664636850357056
30
0
0
SPLINE
5
249
100
AcDbEntity
8
0
100
AcDbSpline
70
0
71
2
72
6
73
3
74
0
42
0.000000001
43
0.0000000001
44
0.0000000001
40
0
40
0
40
0
40
1
40
1
40
1
10
58.642455101013184
20
66.664636850357056
30
0
10
58.642455101013184
20
65.264366388320923
30
0
10
57.569771766662598
20
64.307301759719849
30
0
0
SPLINE
5
250
100
AcDbEntity
8
0
100
AcDbSpline
70
0
71
2
72
6
73
3
74
0
42
0.000000001
43
0.0000000001
44
0.0000000001
40
0
40
0
40
0
40
1
40
1
40
1
10
57.569771766662598
20
64.307301759719849
30
0
10
56.49708366394043
20
63.350237131118767
30
0
10
53.478156089782715
20
62.129820108413689
30
0
0
LINE
5
251
100
AcDbEntity
8
0
100
AcDbLine
10
53.478156089782715
20
62.129820108413689
30
0
11
48.853407859802246
21
60.202840089797967
31
0
0
LINE
5
252
100
AcDbEntity
8
0
100
AcDbLine
10
49.08464527130127
20
63.465855836868279
30
0
11
52.193504333496094
21
64.699123620986938
31
0
0
SPLINE
5
253
100
AcDbEntity
8
0
100
AcDbSpline
70
0
71
2
72
6
73
3
74
0
42
0.000000001
43
0.0000000001
44
0.0000000001
40
0
40
0
40
0
40
1
40
1
40
1
10
52.193504333496094
20
64.699123620986938
30
0
10
53.889242172241211
20
65.431373834609985
30
0
10
55.186739921569824
20
66.176470041275024
30
0
0
SPLINE
5
254
100
AcDbEntity
8
0
100
AcDbSpline
70
0
71
2
72
6
73
3
74
0
42
0.000000001
43
0.0000000001
44
0.0000000001
40
0
40
0
40
0
40
1
40
1
40
1
10
55.186739921569824
20
66.176470041275024
30
0
10
54.428797721862793
20
66.651790857315063
30
0
10
53.041373252868652
20
66.651790857315063
30
0
0
SPLINE
5
255
100
AcDbEntity
8
0
100
AcDbSpline
70
0
71
2
72
6
73
3
74
0
42
0.000000001
43
0.0000000001
44
0.0000000001
40
0
40
0
40
0
40
1
40
1
40
1
10
53.041373252868652
20
66.651790857315063
30
0
10
50.664769172668457
20
66.651790857315063
30
0
10
49.08464527130127
20
63.465855836868279
30
0
0
SPLINE
5
256
100
AcDbEntity
8
0
100
AcDbSpline
70
0
71
2
72
6
73
3
74
0
42
0.000000001
43
0.0000000001
44
0.0000000001
40
0
40
0
40
0
40
1
40
1
40
1
10
74.468079566955566
20
66.805952310562134
30
0
10
73.941370010375977
20
66.883028268814087
30
0
10
73.414665222167969
20
66.883028268814087
30
0
0
SPLINE
5
257
100
AcDbEntity
8
0
100
AcDbSpline
70
0
71
2
72
6
73
3
74
0
42
0.000000001
43
0.0000000001
44
0.0000000001
40
0
40
0
40
0
40
1
40
1
40
1
10
73.414665222167969
20
66.883028268814087
30
0
10
70.203033447265625
20
66.883028268814087
30
0
10
70.203033447265625
20
65.99661660194397
30
0
0
SPLINE
5
258
100
AcDbEntity
8
0
100
AcDbSpline
70
0
71
2
72
6
73
3
74
0
42
0.000000001
43
0.0000000001
44
0.0000000001
40
0
40
0
40
0
40
1
40
1
40
1
10
70.203033447265625
20
65.99661660194397
30
0
10
70.203033447265625
20
65.482757806777954
30
0
10
71.860233306884766
20
64.699123620986938
30
0
0
SPLINE
5
259
100
AcDbEntity
8
0
100
AcDbSpline
70
0
71
2
72
6
73
3
74
0
42
0.000000001
43
0.0000000001
44
0.0000000001
40
0
40
0
40
0
40
1
40
1
40
1
10
71.860233306884766
20
64.699123620986938
30
0
10
74.609390258789062
20
63.311699151992791
30
0
10
75.515066146850586
20
62.393172502517693
30
0
0
SPLINE
5
260
100
AcDbEntity
8
0
100
AcDbSpline
70
0
71
2
72
6
73
3
74
0
42
0.000000001
43
0.0000000001
44
0.0000000001
40
0
40
0
40
0
40
1
40
1
40
1
10
75.515066146850586
20
62.393172502517693
30
0
10
76.420746803283691
20
61.474645853042595
30
0
10
76.420746803283691
20
60.241378068923943
30
0
0
SPLINE
5
261
100
AcDbEntity
8
0
100
AcDbSpline
70
0
71
2
72
6
73
3
74
0
42
0.000000001
43
0.0000000001
44
0.0000000001
40
0
40
0
40
0
40
1
40
1
40
1
10
76.420746803283691
20
60.241378068923943
30
0
10
76.420746803283691
20
58.340094804763787
30
0
10
74.5772705078125
20
56.959093332290642
30
0
0
SPLINE
5
262
100
AcDbEntity
8
0
100
AcDbSpline
70
0
71
2
72
6
73
3
74
0
42
0.000000001
43
0.0000000001
44
0.0000000001
40
0
40
0
40
0
40
1
40
1
40
1
10
74.5772705078125
20
56.959093332290642
30
0
10
72.733798980712891
20
55.57809662818908
30
0
10
69.573555946350098
20
55.57809662818908
30
0
0
SPLINE
5
263
100
AcDbEntity
8
0
100
AcDbSpline
70
0
71
2
72
6
73
3
74
0
42
0.000000001
43
0.0000000001
44
0.0000000001
40
0
40
0
40
0
40
1
40
1
40
1
10
69.573555946350098
20
55.57809662818908
30
0
10
67.749348640441895
20
55.57809662818908
30
0
10
66.33623218536377
20
56.194728136062615
30
0
0
SPLINE
5
264
100
AcDbEntity
8
0
100
AcDbSpline
70
0
71
2
72
6
73
3
74
0
42
0.000000001
43
0.0000000001
44
0.0000000001
40
0
40
0
40
0
40
1
40
1
40
1
10
66.33623218536377
20
56.194728136062615
30
0
10
64.923115730285645
20
56.81135964393615
30
0
10
64.923115730285645
20
57.87761998176574
30
0
0
SPLINE
5
265
100
AcDbEntity
8
0
100
AcDbSpline
70
0
71
2
72
6
73
3
74
0
42
0.000000001
43
0.0000000001
44
0.0000000001
40
0
40
0
40
0
40
1
40
1
40
1
10
64.923115730285645
20
57.87761998176574
30
0
10
64.923115730285645
20
59.496281862258904
30
0
10
66.683088302612305
20
59.496281862258904
30
0
0
SPLINE
5
266
100
AcDbEntity
8
0
100
AcDbSpline
70
0
71
2
72
6
73
3
74
0
42
0.000000001
43
0.0000000001
44
0.0000000001
40
0
40
0
40
0
40
1
40
1
40
1
10
66.683088302612305
20
59.496281862258904
30
0
10
67.274027824401855
20
59.496281862258904
30
0
10
68.314596176147461
20
59.123733758926384
30
0
0
SPLINE
5
267
100
AcDbEntity
8
0
100
AcDbSpline
70
0
71
2
72
6
73
3
74
0
42
0.000000001
43
0.0000000001
44
0.0000000001
40
0
40
0
40
0
40
1
40
1
40
1
10
68.314596176147461
20
59.123733758926384
30
0
10
69.457937240600586
20
58.751185655593865
30
0
10
69.997488021850586
20
58.751185655593865
30
0
0
SPLINE
5
268
100
AcDbEntity
8
0
100
AcDbSpline
70
0
71
2
72
6
73
3
74
0
42
0.000000001
43
0.0000000001
44
0.0000000001
40
0
40
0
40
0
40
1
40
1
40
1
10
69.997488021850586
20
58.751185655593865
30
0
10
72.772336959838867
20
58.751185655593865
30
0
10
72.772336959838867
20
59.894521951675408
30
0
0
SPLINE
5
269
100
AcDbEntity
8
0
100
AcDbSpline
70
0
71
2
72
6
73
3
74
0
42
0.000000001
43
0.0000000001
44
0.0000000001
40
0
40
0
40
0
40
1
40
1
40
1
10
72.772336959838867
20
59.894521951675408
30
0
10
72.772336959838867
20
60.511158227920525
30
0
10
71.205063819885254
20
61.256254434585564
30
0
0
SPLINE
5
270
100
AcDbEntity
8
0
100
AcDbSpline
70
0
71
2
72
6
73
3
74
0
42
0.000000001
43
0.0000000001
44
0.0000000001
40
0
40
0
40
0
40
1
40
1
40
1
10
71.205063819885254
20
61.256254434585564
30
0
10
68.5201416015625
20
62.515214204788201
30
0
10
67.614460945129395
20
63.337391138076775
30
0
0
SPLINE
5
271
100
AcDbEntity
8
0
100
AcDbSpline
70
0
71
2
72
6
73
3
74
0
42
0.000000001
43
0.0000000001
44
0.0000000001
40
0
40
0
40
0
40
1
40
1
40
1
10
67.614460945129395
20
63.337391138076775
30
0
10
66.708780288696289
20
64.159568071365356
30
0
10
66.708780288696289
20
65.469911813735962
30
0
0
SPLINE
5
272
100
AcDbEntity
8
0
100
AcDbSpline
70
0
71
2
72
6
73
3
74
0
42
0.000000001
43
0.0000000001
44
0.0000000001
40
0
40
0
40
0
40
1
40
1
40
1
10
66.708780288696289
20
65.469911813735962
30
0
10
66.708780288696289
20
67.371195077896118
30
0
10
68.353134155273438
20
68.70723557472229
30
0
0
SPLINE
5
273
100
AcDbEntity
8
0
100
AcDbSpline
70
0
71
2
72
6
73
3
74
0
42
0.000000001
43
0.0000000001
44
0.0000000001
40
0
40
0
40
0
40
1
40
1
40
1
10
68.353134155273438
20
68.70723557472229
30
0
10
69.997488021850586
20
70.04327130317688
30
0
10
74.994784355163574
20
70.04327130317688
30
0
0
SPLINE
5
274
100
AcDbEntity
8
0
100
AcDbSpline
70
0
71
2
72
6
73
3
74
0
42
0.000000001
43
0.0000000001
44
0.0000000001
40
0
40
0
40
0
40
1
40
1
40
1
10
74.994784355163574
20
70.04327130317688
30
0
10
77.487007141113281
20
70.04327130317688
30
0
10
77.487007141113281
20
68.488844156265259
30
0
0
SPLINE
5
275
100
AcDbEntity
8
0
100
AcDbSpline
70
0
71
2
72
6
73
3
74
0
42
0.000000001
43
0.0000000001
44
0.0000000001
40
0
40
0
40
0
40
1
40
1
40
1
10
77.487007141113281
20
68.488844156265259
30
0
10
77.487007141113281
20
67.679513216018677
30
0
10
77.075921058654785
20
66.703179597854614
30
0
0
SPLINE
5
276
100
AcDbEntity
8
0
100
AcDbSpline
70
0
71
2
72
6
73
3
74
0
42
0.000000001
43
0.0000000001
44
0.0000000001
40
0
40
0
40
0
40
1
40
1
40
1
10
77.075921058654785
20
66.703179597854614
30
0
10
76.664834976196289
20
65.72684121131897
30
0
10
75.842653274536133
20
65.72684121131897
30
0
0
SPLINE
5
277
100
AcDbEntity
8
0
100
AcDbSpline
70
0
71
2
72
6
73
3
74
0
42
0.000000001
43
0.0000000001
44
0.0000000001
40
0
40
0
40
0
40
1
40
1
40
1
10
75.842653274536133
20
65.72684121131897
30
0
10
74.54515552520752
20
65.72684121131897
30
0
10
74.468079566955566
20
66.805952310562134
30
0
0
LINE
5
278
100
AcDbEntity
8
0
100
AcDbLine
10
93.479639053344727
20
66.459091424942017
30
0
11
92.439065933227539
21
66.459091424942017
31
0
0
SPLINE
5
279
100
AcDbEntity
8
0
100
AcDbSpline
70
0
71
2
72
6
73
3
74
0
42
0.000000001
43
0.0000000001
44
0.0000000001
40
0
40
0
40
0
40
1
40
1
40
1
10
92.439065933227539
20
66.459091424942017
30
0
10
91.526962280273438
20
66.459091424942017
30
0
10
90.923181533813477
20
66.433399438858032
30
0
0
SPLINE
5
280
100
AcDbEntity
8
0
100
AcDbSpline
70
0
71
2
72
6
73
3
74
0
42
0.000000001
43
0.0000000001
44
0.0000000001
40
0
40
0
40
0
40
1
40
1
40
1
10
90.923181533813477
20
66.433399438858032
30
0
10
90.846096038818359
20
66.215008020401001
30
0
10
90.794712066650391
20
66.022313356399536
30
0
0
SPLINE
5
281
100
AcDbEntity
8
0
100
AcDbSpline
70
0
71
2
72
6
73
3
74
0
42
0.000000001
43
0.0000000001
44
0.0000000001
40
0
40
0
40
0
40
1
40
1
40
1
10
90.794712066650391
20
66.022313356399536
30
0
10
90.743328094482422
20
65.816767930984497
30
0
10
90.679098129272461
20
65.598376512527466
30
0
0
SPLINE
5
282
100
AcDbEntity
8
0
100
AcDbSpline
70
0
71
2
72
6
73
3
74
0
42
0.000000001
43
0.0000000001
44
0.0000000001
40
0
40
0
40
0
40
1
40
1
40
1
10
90.679098129272461
20
65.598376512527466
30
0
10
89.689908981323242
20
62.245434045791619
30
0
10
89.689908981323242
20
60.575388193130486
30
0
0
SPLINE
5
283
100
AcDbEntity
8
0
100
AcDbSpline
70
0
71
2
72
6
73
3
74
0
42
0.000000001
43
0.0000000001
44
0.0000000001
40
0
40
0
40
0
40
1
40
1
40
1
10
89.689908981323242
20
60.575388193130486
30
0
10
89.689908981323242
20
59.072345018386834
30
0
10
90.293699264526367
20
59.072345018386834
30
0
0
SPLINE
5
284
100
AcDbEntity
8
0
100
AcDbSpline
70
0
71
2
72
6
73
3
74
0
42
0.000000001
43
0.0000000001
44
0.0000000001
40
0
40
0
40
0
40
1
40
1
40
1
10
90.293699264526367
20
59.072345018386834
30
0
10
90.897489547729492
20
59.072345018386834
30
0
10
91.565509796142578
20
59.753211259841912
30
0
0
SPLINE
5
285
100
AcDbEntity
8
0
100
AcDbSpline
70
0
71
2
72
6
73
3
74
0
42
0.000000001
43
0.0000000001
44
0.0000000001
40
0
40
0
40
0
40
1
40
1
40
1
10
91.565509796142578
20
59.753211259841912
30
0
10
92.220674514770508
20
60.43407750129699
30
0
10
92.785926818847656
20
60.43407750129699
30
0
0
SPLINE
5
286
100
AcDbEntity
8
0
100
AcDbSpline
70
0
71
2
72
6
73
3
74
0
42
0.000000001
43
0.0000000001
44
0.0000000001
40
0
40
0
40
0
40
1
40
1
40
1
10
92.785926818847656
20
60.43407750129699
30
0
10
93.312631607055664
20
60.43407750129699
30
0
10
93.800798416137695
20
59.997294664382927
30
0
0
SPLINE
5
287
100
AcDbEntity
8
0
100
AcDbSpline
70
0
71
2
72
6
73
3
74
0
42
0.000000001
43
0.0000000001
44
0.0000000001
40
0
40
0
40
0
40
1
40
1
40
1
10
93.800798416137695
20
59.997294664382927
30
0
10
94.288965225219727
20
59.560516595840447
30
0
10
94.288965225219727
20
58.84110760688781
30
0
0
SPLINE
5
288
100
AcDbEntity
8
0
100
AcDbSpline
70
0
71
2
72
6
73
3
74
0
42
0.000000001
43
0.0000000001
44
0.0000000001
40
0
40
0
40
0
40
1
40
1
40
1
10
94.288965225219727
20
58.84110760688781
30
0
10
94.288965225219727
20
57.582152605056756
30
0
10
92.798772811889648
20
56.682894945144646
30
0
0
SPLINE
5
289
100
AcDbEntity
8
0
100
AcDbSpline
70
0
71
2
72
6
73
3
74
0
42
0.000000001
43
0.0000000001
44
0.0000000001
40
0
40
0
40
0
40
1
40
1
40
1
10
92.798772811889648
20
56.682894945144646
30
0
10
91.308570861816406
20
55.783637285232537
30
0
10
89.818378448486328
20
55.783637285232537
30
0
0
SPLINE
5
290
100
AcDbEntity
8
0
100
AcDbSpline
70
0
71
2
72
6
73
3
74
0
42
0.000000001
43
0.0000000001
44
0.0000000001
40
0
40
0
40
0
40
1
40
1
40
1
10
89.818378448486328
20
55.783637285232537
30
0
10
86.234203338623047
20
55.783637285232537
30
0
10
86.234203338623047
20
60.125759363174431
30
0
0
SPLINE
5
291
100
AcDbEntity
8
0
100
AcDbSpline
70
0
71
2
72
6
73
3
74
0
42
0.000000001
43
0.0000000001
44
0.0000000001
40
0
40
0
40
0
40
1
40
1
40
1
10
86.234203338623047
20
60.125759363174431
30
0
10
86.234203338623047
20
62.489522218704217
30
0
10
87.506004333496094
20
66.330631494522095
30
0
0
SPLINE
5
292
100
AcDbEntity
8
0
100
AcDbSpline
70
0
71
2
72
6
73
3
74
0
42
0.000000001
43
0.0000000001
44
0.0000000001
40
0
40
0
40
0
40
1
40
1
40
1
10
87.506004333496094
20
66.330631494522095
30
0
10
85.322099685668945
20
66.446245431900024
30
0
10
84.82108211517334
20
66.850913286209106
30
0
0
SPLINE
5
293
100
AcDbEntity
8
0
100
AcDbSpline
70
0
71
2
72
6
73
3
74
0
42
0.000000001
43
0.0000000001
44
0.0000000001
40
0
40
0
40
0
40
1
40
1
40
1
10
84.82108211517334
20
66.850913286209106
30
0
10
84.320069313049316
20
67.255576372146606
30
0
10
84.320069313049316
20
68.206222772598267
30
0
0
SPLINE
5
294
100
AcDbEntity
8
0
100
AcDbSpline
70
0
71
2
72
6
73
3
74
0
42
0.000000001
43
0.0000000001
44
0.0000000001
40
0
40
0
40
0
40
1
40
1
40
1
10
84.320069313049316
20
68.206222772598267
30
0
10
84.320069313049316
20
68.989856958389282
30
0
10
84.840351104736328
20
69.478023767471313
30
0
0
SPLINE
5
295
100
AcDbEntity
8
0
100
AcDbSpline
70
0
71
2
72
6
73
3
74
0
42
0.000000001
43
0.0000000001
44
0.0000000001
40
0
40
0
40
0
40
1
40
1
40
1
10
84.840351104736328
20
69.478023767471313
30
0
10
85.360637664794922
20
69.966190576553345
30
0
10
86.182809829711914
20
69.966190576553345
30
0
0
LINE
5
296
100
AcDbEntity
8
0
100
AcDbLine
10
86.182809829711914
20
69.966190576553345
30
0
11
88.186870574951172
21
69.786341905593872
31
0
0
LINE
5
297
100
AcDbEntity
8
0
100
AcDbLine
10
88.186870574951172
20
69.786341905593872
30
0
11
88.495183944702148
21
72.355645418167114
31
0
0
SPLINE
5
298
100
AcDbEntity
8
0
100
AcDbSpline
70
0
71
2
72
6
73
3
74
0
42
0.000000001
43
0.0000000001
44
0.0000000001
40
0
40
0
40
0
40
1
40
1
40
1
10
88.495183944702148
20
72.355645418167114
30
0
10
88.572269439697266
20
73.0236656665802
30
0
10
89.105392456054688
20
73.505409479141235
30
0
0
SPLINE
5
299
100
AcDbEntity
8
0
100
AcDbSpline
70
0
71
2
72
6
73
3
74
0
42
0.000000001
43
0.0000000001
44
0.0000000001
40
0
40
0
40
0
40
1
40
1
40
1
10
89.105392456054688
20
73.505409479141235
30
0
10
89.638525009155273
20
73.987153291702271
30
0
10
90.37077522277832
20
73.987153291702271
30
0
0
SPLINE
5
300
100
AcDbEntity
8
0
100
AcDbSpline
70
0
71
2
72
6
73
3
74
0
42
0.000000001
43
0.0000000001
44
0.0000000001
40
0
40
0
40
0
40
1
40
1
40
1
10
90.37077522277832
20
73.987153291702271
30
0
10
91.899515151977539
20
73.987153291702271
30
0
10
91.899515151977539
20
71.854632616043091
30
0
0
SPLINE
5
301
100
AcDbEntity
8
0
100
AcDbSpline
70
0
71
2
72
6
73
3
74
0
42
0.000000001
43
0.0000000001
44
0.0000000001
40
0
40
0
40
0
40
1
40
1
40
1
10
91.899515151977539
20
71.854632616043091
30
0
10
91.899515151977539
20
71.482084512710571
30
0
10
91.629739761352539
20
69.863422632217407
30
0
0
SPLINE
5
302
100
AcDbEntity
8
0
100
AcDbSpline
70
0
71
2
72
6
73
3
74
0
42
0.000000001
43
0.0000000001
44
0.0000000001
40
0
40
0
40
0
40
1
40
1
40
1
10
91.629739761352539
20
69.863422632217407
30
0
10
92.002283096313477
20
69.901960611343384
30
0
10
92.2335205078125
20
69.94049859046936
30
0
0
SPLINE
5
303
100
AcDbEntity
8
0
100
AcDbSpline
70
0
71
2
72
6
73
3
74
0
42
0.000000001
43
0.0000000001
44
0.0000000001
40
0
40
0
40
0
40
1
40
1
40
1
10
92.2335205078125
20
69.94049859046936
30
0
10
92.952924728393555
20
70.030425310134888
30
0
10
94.160505294799805
20
69.837730646133423
30
0
0
SPLINE
5
304
100
AcDbEntity
8
0
100
AcDbSpline
70
0
71
2
72
6
73
3
74
0
42
0.000000001
43
0.0000000001
44
0.0000000001
40
0
40
0
40
0
40
1
40
1
40
1
10
94.160505294799805
20
69.837730646133423
30
0
10
95.368076324462891
20
69.645031213760376
30
0
10
95.368076324462891
20
68.28329873085022
30
0
0
SPLINE
5
305
100
AcDbEntity
8
0
100
AcDbSpline
70
0
71
2
72
6
73
3
74
0
42
0.000000001
43
0.0000000001
44
0.0000000001
40
0
40
0
40
0
40
1
40
1
40
1
10
95.368076324462891
20
68.28329873085022
30
0
10
95.368076324462891
20
67.448275804519653
30
0
10
94.80925178527832
20
66.953685998916626
30
0
0
SPLINE
5
306
100
AcDbEntity
8
0
100
AcDbSpline
70
0
71
2
72
6
73
3
74
0
42
0.000000001
43
0.0000000001
44
0.0000000001
40
0
40
0
40
0
40
1
40
1
40
1
10
94.80925178527832
20
66.953685998916626
30
0
10
94.25042724609375
20
66.459091424942017
30
0
10
93.479639053344727
20
66.459091424942017
30
0
0
SPLINE
5
307
100
AcDbEntity
8
0
100
AcDbSpline
70
0
71
2
72
6
73
3
74
0
42
0.000000001
43
0.0000000001
44
0.0000000001
40
0
40
0
40
0
40
1
40
1
40
1
10
9.5713315010070801
20
19.543617486953728
30
0
10
8.8390800952911377
20
19.569319009780877
30
0
10
8.4279916286468506
20
19.999674081802361
30
0
0
SPLINE
5
308
100
AcDbEntity
8
0
100
AcDbSpline
70
0
71
2
72
6
73
3
74
0
42
0.000000001
43
0.0000000001
44
0.0000000001
40
0
40
0
40
0
40
1
40
1
40
1
10
8.4279916286468506
20
19.999674081802361
30
0
10
8.0169031620025635
20
20.430029153823845
30
0
10
8.0169031620025635
20
21.008127450942986
30
0
0
SPLINE
5
309
100
AcDbEntity
8
0
100
AcDbSpline
70
0
71
2
72
6
73
3
74
0
42
0.000000001
43
0.0000000001
44
0.0000000001
40
0
40
0
40
0
40
1
40
1
40
1
10
8.0169031620025635
20
21.008127450942986
30
0
10
8.0169031620025635
20
21.483448266983025
30
0
10
8.7491545677185059
20
25.144699335098259
30
0
0
SPLINE
5
310
100
AcDbEntity
8
0
100
AcDbSpline
70
0
71
2
72
6
73
3
74
0
42
0.000000001
43
0.0000000001
44
0.0000000001
40
0
40
0
40
0
40
1
40
1
40
1
10
8.7491545677185059
20
25.144699335098259
30
0
10
9.5713315010070801
20
28.870189905166619
30
0
10
10.483434557914734
20
35.768774271011345
30
0
0
SPLINE
5
311
100
AcDbEntity
8
0
100
AcDbSpline
70
0
71
2
72
6
73
3
74
0
42
0.000000001
43
0.0000000001
44
0.0000000001
40
0
40
0
40
0
40
1
40
1
40
1
10
10.483434557914734
20
35.768774271011345
30
0
10
10.676132202148438
20
37.194736719131463
30
0
10
10.791750907897949
20
37.747133493423455
30
0
0
SPLINE
5
312
100
AcDbEntity
8
0
100
AcDbSpline
70
0
71
2
72
6
73
3
74
0
42
0.000000001
43
0.0000000001
44
0.0000000001
40
0
40
0
40
0
40
1
40
1
40
1
10
10.791750907897949
20
37.747133493423455
30
0
10
10.907369613647461
20
38.299539804458611
30
0
10
11.658890604972839
20
38.980396509170525
30
0
0
SPLINE
5
313
100
AcDbEntity
8
0
100
AcDbSpline
70
0
71
2
72
6
73
3
74
0
42
0.000000001
43
0.0000000001
44
0.0000000001
40
0
40
0
40
0
40
1
40
1
40
1
10
11.658890604972839
20
38.980396509170525
30
0
10
12.410411596298218
20
39.661262750625603
30
0
10
13.2197425365448
20
39.661262750625603
30
0
0
SPLINE
5
314
100
AcDbEntity
8
0
100
AcDbSpline
70
0
71
2
72
6
73
3
74
0
42
0.000000001
43
0.0000000001
44
0.0000000001
40
0
40
0
40
0
40
1
40
1
40
1
10
13.2197425365448
20
39.661262750625603
30
0
10
13.656524181365967
20
39.661262750625603
30
0
10
15.223799109458923
20
38.851936578750603
30
0
0
SPLINE
5
315
100
AcDbEntity
8
0
100
AcDbSpline
70
0
71
2
72
6
73
3
74
0
42
0.000000001
43
0.0000000001
44
0.0000000001
40
0
40
0
40
0
40
1
40
1
40
1
10
15.223799109458923
20
38.851936578750603
30
0
10
17.009464263916016
20
37.914140939712517
30
0
10
17.43339991569519
20
37.798517465591424
30
0
0
SPLINE
5
316
100
AcDbEntity
8
0
100
AcDbSpline
70
0
71
2
72
6
73
3
74
0
42
0.000000001
43
0.0000000001
44
0.0000000001
40
0
40
0
40
0
40
1
40
1
40
1
10
17.43339991569519
20
37.798517465591424
30
0
10
20.927653074264526
20
36.60379242897033
30
0
10
23.182216644287109
20
34.092300653457634
30
0
0
SPLINE
5
317
100
AcDbEntity
8
0
100
AcDbSpline
70
0
71
2
72
6
73
3
74
0
42
0.000000001
43
0.0000000001
44
0.0000000001
40
0
40
0
40
0
40
1
40
1
40
1
10
23.182216644287109
20
34.092300653457634
30
0
10
25.436780214309692
20
31.580808877944939
30
0
10
25.436780214309692
20
28.638952493667595
30
0
0
SPLINE
5
318
100
AcDbEntity
8
0
100
AcDbSpline
70
0
71
2
72
6
73
3
74
0
42
0.000000001
43
0.0000000001
44
0.0000000001
40
0
40
0
40
0
40
1
40
1
40
1
10
25.436780214309692
20
28.638952493667595
30
0
10
25.436780214309692
20
25.041931390762322
30
0
10
22.533467769622803
20
21.727531671524041
30
0
0
SPLINE
5
319
100
AcDbEntity
8
0
100
AcDbSpline
70
0
71
2
72
6
73
3
74
0
42
0.000000001
43
0.0000000001
44
0.0000000001
40
0
40
0
40
0
40
1
40
1
40
1
10
22.533467769622803
20
21.727531671524041
30
0
10
19.630154132843018
20
18.413131952285759
30
0
10
13.84922182559967
20
18.413131952285759
30
0
0
SPLINE
5
320
100
AcDbEntity
8
0
100
AcDbSpline
70
0
71
2
72
6
73
3
74
0
42
0.000000001
43
0.0000000001
44
0.0000000001
40
0
40
0
40
0
40
1
40
1
40
1
10
13.84922182559967
20
18.413131952285759
30
0
10
11.344151258468628
20
18.413131952285759
30
0
10
9.5713315010070801
20
19.543617486953728
30
0
0
LINE
5
321
100
AcDbEntity
8
0
100
AcDbLine
10
13.90060818195343
20
35.216367959976189
30
0
11
11.883704423904419
21
22.485473871231072
31
0
0
SPLINE
5
322
100
AcDbEntity
8
0
100
AcDbSpline
70
0
71
2
72
6
73
3
74
0
42
0.000000001
43
0.0000000001
44
0.0000000001
40
0
40
0
40
0
40
1
40
1
40
1
10
11.883704423904419
20
22.485473871231072
30
0
10
12.782960891723633
20
21.855991601943963
30
0
10
14.401622176170349
20
21.855991601943963
30
0
0
SPLINE
5
323
100
AcDbEntity
8
0
100
AcDbSpline
70
0
71
2
72
6
73
3
74
0
42
0.000000001
43
0.0000000001
44
0.0000000001
40
0
40
0
40
0
40
1
40
1
40
1
10
14.401622176170349
20
21.855991601943963
30
0
10
17.279242038726807
20
21.855991601943963
30
0
10
18.55104660987854
20
22.646053552627556
30
0
0
SPLINE
5
324
100
AcDbEntity
8
0
100
AcDbSpline
70
0
71
2
72
6
73
3
74
0
42
0.000000001
43
0.0000000001
44
0.0000000001
40
0
40
0
40
0
40
1
40
1
40
1
10
18.55104660987854
20
22.646053552627556
30
0
10
19.822852373123169
20
23.43611550331115
30
0
10
20.805610179901123
20
24.887769937515252
30
0
0
SPLINE
5
325
100
AcDbEntity
8
0
100
AcDbSpline
70
0
71
2
72
6
73
3
74
0
42
0.000000001
43
0.0000000001
44
0.0000000001
40
0
40
0
40
0
40
1
40
1
40
1
10
20.805610179901123
20
24.887769937515252
30
0
10
21.788369178771973
20
26.339424371719353
30
0
10
21.788369178771973
20
28.060863733291619
30
0
0
SPLINE
5
326
100
AcDbEntity
8
0
100
AcDbSpline
70
0
71
2
72
6
73
3
74
0
42
0.000000001
43
0.0000000001
44
0.0000000001
40
0
40
0
40
0
40
1
40
1
40
1
10
21.788369178771973
20
28.060863733291619
30
0
10
21.788369178771973
20
29.576748132705681
30
0
10
20.869843721389771
20
30.848558664321892
30
0
0
SPLINE
5
327
100
AcDbEntity
8
0
100
AcDbSpline
70
0
71
2
72
6
73
3
74
0
42
0.000000001
43
0.0000000001
44
0.0000000001
40
0
40
0
40
0
40
1
40
1
40
1
10
20.869843721389771
20
30.848558664321892
30
0
10
19.951317071914673
20
32.120359659194939
30
0
10
18.544623613357544
20
32.955387353897088
30
0
0
SPLINE
5
328
100
AcDbEntity
8
0
100
AcDbSpline
70
0
71
2
72
6
73
3
74
0
42
0.000000001
43
0.0000000001
44
0.0000000001
40
0
40
0
40
0
40
1
40
1
40
1
10
18.544623613357544
20
32.955387353897088
30
0
10
17.137930154800415
20
33.790405511856072
30
0
10
13.90060818195343
20
35.216367959976189
30
0
0
SPLINE
5
329
100
AcDbEntity
8
0
100
AcDbSpline
70
0
71
2
72
6
73
3
74
0
42
0.000000001
43
0.0000000001
44
0.0000000001
40
0
40
0
40
0
40
1
40
1
40
1
10
34.672139644622803
20
23.538892984390252
30
0
10
35.77694034576416
20
22.20285248756408
30
0
10
37.960849761962891
20
22.20285248756408
30
0
0
SPLINE
5
330
100
AcDbEntity
8
0
100
AcDbSpline
70
0
71
2
72
6
73
3
74
0
42
0.000000001
43
0.0000000001
44
0.0000000001
40
0
40
0
40
0
40
1
40
1
40
1
10
37.960849761962891
20
22.20285248756408
30
0
10
39.656589984893799
20
22.20285248756408
30
0
10
40.979779720306396
20
22.909410715103142
30
0
0
SPLINE
5
331
100
AcDbEntity
8
0
100
AcDbSpline
70
0
71
2
72
6
73
3
74
0
42
0.000000001
43
0.0000000001
44
0.0000000001
40
0
40
0
40
0
40
1
40
1
40
1
10
40.979779720306396
20
22.909410715103142
30
0
10
42.161661148071289
20
23.538892984390252
30
0
10
42.803984642028809
20
23.538892984390252
30
0
0
SPLINE
5
332
100
AcDbEntity
8
0
100
AcDbSpline
70
0
71
2
72
6
73
3
74
0
42
0.000000001
43
0.0000000001
44
0.0000000001
40
0
40
0
40
0
40
1
40
1
40
1
10
42.803984642028809
20
23.538892984390252
30
0
10
43.934479713439941
20
23.538892984390252
30
0
10
43.934479713439941
20
22.562549829483025
30
0
0
SPLINE
5
333
100
AcDbEntity
8
0
100
AcDbSpline
70
0
71
2
72
6
73
3
74
0
42
0.000000001
43
0.0000000001
44
0.0000000001
40
0
40
0
40
0
40
1
40
1
40
1
10
43.934479713439941
20
22.562549829483025
30
0
10
43.934479713439941
20
21.059511423110955
30
0
10
41.90472936630249
20
20.076750040054314
30
0
0
SPLINE
5
334
100
AcDbEntity
8
0
100
AcDbSpline
70
0
71
2
72
6
73
3
74
0
42
0.000000001
43
0.0000000001
44
0.0000000001
40
0
40
0
40
0
40
1
40
1
40
1
10
41.90472936630249
20
20.076750040054314
30
0
10
39.874979019165039
20
19.093998193740838
30
0
10
37.459834575653076
20
19.093998193740838
30
0
0
SPLINE
5
335
100
AcDbEntity
8
0
100
AcDbSpline
70
0
71
2
72
6
73
3
74
0
42
0.000000001
43
0.0000000001
44
0.0000000001
40
0
40
0
40
0
40
1
40
1
40
1
10
37.459834575653076
20
19.093998193740838
30
0
10
34.492288589477539
20
19.093998193740838
30
0
10
32.81581974029541
20
20.423610925674431
30
0
0
SPLINE
5
336
100
AcDbEntity
8
0
100
AcDbSpline
70
0
71
2
72
6
73
3
74
0
42
0.000000001
43
0.0000000001
44
0.0000000001
40
0
40
0
40
0
40
1
40
1
40
1
10
32.81581974029541
20
20.423610925674431
30
0
10
31.13934850692749
20
21.753223657608025
30
0
10
31.13934850692749
20
24.001367807388299
30
0
0
SPLINE
5
337
100
AcDbEntity
8
0
100
AcDbSpline
70
0
71
2
72
6
73
3
74
0
42
0.000000001
43
0.0000000001
44
0.0000000001
40
0
40
0
40
0
40
1
40
1
40
1
10
31.13934850692749
20
24.001367807388299
30
0
10
31.13934850692749
20
27.148760080337517
30
0
10
33.381064891815186
20
30.116308450698845
30
0
0
SPLINE
5
338
100
AcDbEntity
8
0
100
AcDbSpline
70
0
71
2
72
6
73
3
74
0
42
0.000000001
43
0.0000000001
44
0.0000000001
40
0
40
0
40
0
40
1
40
1
40
1
10
33.381064891815186
20
30.116308450698845
30
0
10
35.622783660888672
20
33.083847284317009
30
0
10
39.322579860687256
20
33.083847284317009
30
0
0
SPLINE
5
339
100
AcDbEntity
8
0
100
AcDbSpline
70
0
71
2
72
6
73
3
74
0
42
0.000000001
43
0.0000000001
44
0.0000000001
40
0
40
0
40
0
40
1
40
1
40
1
10
39.322579860687256
20
33.083847284317009
30
0
10
41.750570297241211
20
33.083847284317009
30
0
10
43.105879783630371
20
32.280939340591424
30
0
0
SPLINE
5
340
100
AcDbEntity
8
0
100
AcDbSpline
70
0
71
2
72
6
73
3
74
0
42
0.000000001
43
0.0000000001
44
0.0000000001
40
0
40
0
40
0
40
1
40
1
40
1
10
43.105879783630371
20
32.280939340591424
30
0
10
44.46118688583374
20
31.478040933609002
30
0
10
44.46118688583374
20
30.000684976577752
30
0
0
SPLINE
5
341
100
AcDbEntity
8
0
100
AcDbSpline
70
0
71
2
72
6
73
3
74
0
42
0.000000001
43
0.0000000001
44
0.0000000001
40
0
40
0
40
0
40
1
40
1
40
1
10
44.46118688583374
20
30.000684976577752
30
0
10
44.46118688583374
20
28.600414514541619
30
0
10
43.388501167297363
20
27.643354654312127
30
0
0
SPLINE
5
342
100
AcDbEntity
8
0
100
AcDbSpline
70
0
71
2
72
6
73
3
74
0
42
0.000000001
43
0.0000000001
44
0.0000000001
40
0
40
0
40
0
40
1
40
1
40
1
10
43.388501167297363
20
27.643354654312127
30
0
10
42.315817832946777
20
26.68628525733947
30
0
10
39.29688549041748
20
25.465868234634392
30
0
0
LINE
5
343
100
AcDbEntity
8
0
100
AcDbLine
10
39.29688549041748
20
25.465868234634392
30
0
11
34.672139644622803
21
23.538892984390252
31
0
0
LINE
5
344
100
AcDbEntity
8
0
100
AcDbLine
10
34.903377056121826
20
26.8018991947174
30
0
11
38.012233734130859
21
28.035171747207634
31
0
0
SPLINE
5
345
100
AcDbEntity
8
0
100
AcDbSpline
70
0
71
2
72
6
73
3
74
0
42
0.000000001
43
0.0000000001
44
0.0000000001
40
0
40
0
40
0
40
1
40
1
40
1
10
38.012233734130859
20
28.035171747207634
30
0
10
39.707976341247559
20
28.767421960830681
30
0
10
41.005474090576172
20
29.51251816749572
30
0
0
SPLINE
5
346
100
AcDbEntity
8
0
100
AcDbSpline
70
0
71
2
72
6
73
3
74
0
42
0.000000001
43
0.0000000001
44
0.0000000001
40
0
40
0
40
0
40
1
40
1
40
1
10
41.005474090576172
20
29.51251816749572
30
0
10
40.24752950668335
20
29.987838983535759
30
0
10
38.860105037689209
20
29.987838983535759
30
0
0
SPLINE
5
347
100
AcDbEntity
8
0
100
AcDbSpline
70
0
71
2
72
6
73
3
74
0
42
0.000000001
43
0.0000000001
44
0.0000000001
40
0
40
0
40
0
40
1
40
1
40
1
10
38.860105037689209
20
29.987838983535759
30
0
10
36.483498573303223
20
29.987838983535759
30
0
10
34.903377056121826
20
26.8018991947174
30
0
0
SPLINE
5
348
100
AcDbEntity
8
0
100
AcDbSpline
70
0
71
2
72
6
73
3
74
0
42
0.000000001
43
0.0000000001
44
0.0000000001
40
0
40
0
40
0
40
1
40
1
40
1
10
57.409187316894531
20
24.964855432510369
30
0
10
58.346982955932617
20
26.455047845840447
30
0
10
59.991336822509766
20
29.384058237075799
30
0
0
SPLINE
5
349
100
AcDbEntity
8
0
100
AcDbSpline
70
0
71
2
72
6
73
3
74
0
42
0.000000001
43
0.0000000001
44
0.0000000001
40
0
40
0
40
0
40
1
40
1
40
1
10
59.991336822509766
20
29.384058237075799
30
0
10
61.430145263671875
20
32.107513666152947
30
0
10
61.982546806335449
20
32.640646219253533
30
0
0
SPLINE
5
350
100
AcDbEntity
8
0
100
AcDbSpline
70
0
71
2
72
6
73
3
74
0
42
0.000000001
43
0.0000000001
44
0.0000000001
40
0
40
0
40
0
40
1
40
1
40
1
10
61.982546806335449
20
32.640646219253533
30
0
10
62.534948348999023
20
33.173778772354119
30
0
10
63.305736541748047
20
33.173778772354119
30
0
0
SPLINE
5
351
100
AcDbEntity
8
0
100
AcDbSpline
70
0
71
2
72
6
73
3
74
0
42
0.000000001
43
0.0000000001
44
0.0000000001
40
0
40
0
40
0
40
1
40
1
40
1
10
63.305736541748047
20
33.173778772354119
30
0
10
63.973756790161133
20
33.173778772354119
30
0
10
64.43623161315918
20
32.762687921524041
30
0
0
SPLINE
5
352
100
AcDbEntity
8
0
100
AcDbSpline
70
0
71
2
72
6
73
3
74
0
42
0.000000001
43
0.0000000001
44
0.0000000001
40
0
40
0
40
0
40
1
40
1
40
1
10
64.43623161315918
20
32.762687921524041
30
0
10
64.898706436157227
20
32.351597070693963
30
0
10
64.898706436157227
20
31.747816324234002
30
0
0
SPLINE
5
353
100
AcDbEntity
8
0
100
AcDbSpline
70
0
71
2
72
6
73
3
74
0
42
0.000000001
43
0.0000000001
44
0.0000000001
40
0
40
0
40
0
40
1
40
1
40
1
10
64.898706436157227
20
31.747816324234002
30
0
10
64.898706436157227
20
31.452339410781853
30
0
10
64.545427322387695
20
30.752208948135369
30
0
0
SPLINE
5
354
100
AcDbEntity
8
0
100
AcDbSpline
70
0
71
2
72
6
73
3
74
0
42
0.000000001
43
0.0000000001
44
0.0000000001
40
0
40
0
40
0
40
1
40
1
40
1
10
64.545427322387695
20
30.752208948135369
30
0
10
64.192148208618164
20
30.05206894874572
30
0
10
63.376394271850586
20
28.690346002578728
30
0
0
SPLINE
5
355
100
AcDbEntity
8
0
100
AcDbSpline
70
0
71
2
72
6
73
3
74
0
42
0.000000001
43
0.0000000001
44
0.0000000001
40
0
40
0
40
0
40
1
40
1
40
1
10
63.376394271850586
20
28.690346002578728
30
0
10
62.560640335083008
20
27.328613519668572
30
0
10
61.250296592712402
20
25.208938837051384
30
0
0
LINE
5
356
100
AcDbEntity
8
0
100
AcDbLine
10
61.250296592712402
20
25.208938837051384
30
0
11
58.886533737182617
21
21.393516778945916
31
0
0
SPLINE
5
357
100
AcDbEntity
8
0
100
AcDbSpline
70
0
71
2
72
6
73
3
74
0
42
0.000000001
43
0.0000000001
44
0.0000000001
40
0
40
0
40
0
40
1
40
1
40
1
10
58.886533737182617
20
21.393516778945916
30
0
10
58.501139640808105
20
20.802582025527947
30
0
10
58.327713966369629
20
20.417183160781853
30
0
0
SPLINE
5
358
100
AcDbEntity
8
0
100
AcDbSpline
70
0
71
2
72
6
73
3
74
0
42
0.000000001
43
0.0000000001
44
0.0000000001
40
0
40
0
40
0
40
1
40
1
40
1
10
58.327713966369629
20
20.417183160781853
30
0
10
58.15428352355957
20
20.031793832778924
30
0
10
57.897354125976562
20
19.749162912368767
30
0
0
SPLINE
5
359
100
AcDbEntity
8
0
100
AcDbSpline
70
0
71
2
72
6
73
3
74
0
42
0.000000001
43
0.0000000001
44
0.0000000001
40
0
40
0
40
0
40
1
40
1
40
1
10
57.897354125976562
20
19.749162912368767
30
0
10
57.640424728393555
20
19.466541528701775
30
0
10
57.267871856689453
20
19.305961847305291
30
0
0
SPLINE
5
360
100
AcDbEntity
8
0
100
AcDbSpline
70
0
71
2
72
6
73
3
74
0
42
0.000000001
43
0.0000000001
44
0.0000000001
40
0
40
0
40
0
40
1
40
1
40
1
10
57.267871856689453
20
19.305961847305291
30
0
10
56.895323753356934
20
19.145382165908806
30
0
10
56.49708366394043
20
19.145382165908806
30
0
0
SPLINE
5
361
100
AcDbEntity
8
0
100
AcDbSpline
70
0
71
2
72
6
73
3
74
0
42
0.000000001
43
0.0000000001
44
0.0000000001
40
0
40
0
40
0
40
1
40
1
40
1
10
56.49708366394043
20
19.145382165908806
30
0
10
55.173893928527832
20
19.145382165908806
30
0
10
54.865575790405273
20
20.481413125991814
30
0
0
SPLINE
5
362
100
AcDbEntity
8
0
100
AcDbSpline
70
0
71
2
72
6
73
3
74
0
42
0.000000001
43
0.0000000001
44
0.0000000001
40
0
40
0
40
0
40
1
40
1
40
1
10
54.865575790405273
20
20.481413125991814
30
0
10
54.428792953491211
20
22.369859933853142
30
0
10
52.257734298706055
20
30.848558664321892
30
0
0
SPLINE
5
363
100
AcDbEntity
8
0
100
AcDbSpline
70
0
71
2
72
6
73
3
74
0
42
0.000000001
43
0.0000000001
44
0.0000000001
40
0
40
0
40
0
40
1
40
1
40
1
10
52.257734298706055
20
30.848558664321892
30
0
10
52.18065357208252
20
31.054104089736931
30
0
10
52.18065357208252
20
31.298187494277947
30
0
0
SPLINE
5
364
100
AcDbEntity
8
0
100
AcDbSpline
70
0
71
2
72
6
73
3
74
0
42
0.000000001
43
0.0000000001
44
0.0000000001
40
0
40
0
40
0
40
1
40
1
40
1
10
52.18065357208252
20
31.298187494277947
30
0
10
52.18065357208252
20
32.133205652236931
30
0
10
52.848673820495605
20
32.692030191421502
30
0
0
SPLINE
5
365
100
AcDbEntity
8
0
100
AcDbSpline
70
0
71
2
72
6
73
3
74
0
42
0.000000001
43
0.0000000001
44
0.0000000001
40
0
40
0
40
0
40
1
40
1
40
1
10
52.848673820495605
20
32.692030191421502
30
0
10
53.516689300537109
20
33.250854730606072
30
0
10
54.313174247741699
20
33.250854730606072
30
0
0
SPLINE
5
366
100
AcDbEntity
8
0
100
AcDbSpline
70
0
71
2
72
6
73
3
74
0
42
0.000000001
43
0.0000000001
44
0.0000000001
40
0
40
0
40
0
40
1
40
1
40
1
10
54.313174247741699
20
33.250854730606072
30
0
10
55.340896606445312
20
33.250854730606072
30
0
10
55.681329727172852
20
32.364443063735955
30
0
0
SPLINE
5
367
100
AcDbEntity
8
0
100
AcDbSpline
70
0
71
2
72
6
73
3
74
0
42
0.000000001
43
0.0000000001
44
0.0000000001
40
0
40
0
40
0
40
1
40
1
40
1
10
55.681329727172852
20
32.364443063735955
30
0
10
56.021762847900391
20
31.478040933609002
30
0
10
57.409187316894531
20
24.964855432510369
30
0
0
SPLINE
5
368
100
AcDbEntity
8
0
100
AcDbSpline
70
0
71
2
72
6
73
3
74
0
42
0.000000001
43
0.0000000001
44
0.0000000001
40
0
40
0
40
0
40
1
40
1
40
1
10
72.52824878692627
20
23.538892984390252
30
0
10
73.633051872253418
20
22.20285248756408
30
0
10
75.816956520080566
20
22.20285248756408
30
0
0
SPLINE
5
369
100
AcDbEntity
8
0
100
AcDbSpline
70
0
71
2
72
6
73
3
74
0
42
0.000000001
43
0.0000000001
44
0.0000000001
40
0
40
0
40
0
40
1
40
1
40
1
10
75.816956520080566
20
22.20285248756408
30
0
10
77.512699127197266
20
22.20285248756408
30
0
10
78.835888862609863
20
22.909410715103142
30
0
0
SPLINE
5
370
100
AcDbEntity
8
0
100
AcDbSpline
70
0
71
2
72
6
73
3
74
0
42
0.000000001
43
0.0000000001
44
0.0000000001
40
0
40
0
40
0
40
1
40
1
40
1
10
78.835888862609863
20
22.909410715103142
30
0
10
80.017767906188965
20
23.538892984390252
30
0
10
80.660096168518066
20
23.538892984390252
30
0
0
SPLINE
5
371
100
AcDbEntity
8
0
100
AcDbSpline
70
0
71
2
72
6
73
3
74
0
42
0.000000001
43
0.0000000001
44
0.0000000001
40
0
40
0
40
0
40
1
40
1
40
1
10
80.660096168518066
20
23.538892984390252
30
0
10
81.790586471557617
20
23.538892984390252
30
0
10
81.790586471557617
20
22.562549829483025
30
0
0
SPLINE
5
372
100
AcDbEntity
8
0
100
AcDbSpline
70
0
71
2
72
6
73
3
74
0
42
0.000000001
43
0.0000000001
44
0.0000000001
40
0
40
0
40
0
40
1
40
1
40
1
10
81.790586471557617
20
22.562549829483025
30
0
10
81.790586471557617
20
21.059511423110955
30
0
10
79.760838508605957
20
20.076750040054314
30
0
0
SPLINE
5
373
100
AcDbEntity
8
0
100
AcDbSpline
70
0
71
2
72
6
73
3
74
0
42
0.000000001
43
0.0000000001
44
0.0000000001
40
0
40
0
40
0
40
1
40
1
40
1
10
79.760838508605957
20
20.076750040054314
30
0
10
77.731090545654297
20
19.093998193740838
30
0
10
75.315943717956543
20
19.093998193740838
30
0
0
SPLINE
5
374
100
AcDbEntity
8
0
100
AcDbSpline
70
0
71
2
72
6
73
3
74
0
42
0.000000001
43
0.0000000001
44
0.0000000001
40
0
40
0
40
0
40
1
40
1
40
1
10
75.315943717956543
20
19.093998193740838
30
0
10
72.348400115966797
20
19.093998193740838
30
0
10
70.671926498413086
20
20.423610925674431
30
0
0
SPLINE
5
375
100
AcDbEntity
8
0
100
AcDbSpline
70
0
71
2
72
6
73
3
74
0
42
0.000000001
43
0.0000000001
44
0.0000000001
40
0
40
0
40
0
40
1
40
1
40
1
10
70.671926498413086
20
20.423610925674431
30
0
10
68.995457649230957
20
21.753223657608025
30
0
10
68.995457649230957
20
24.001367807388299
30
0
0
SPLINE
5
376
100
AcDbEntity
8
0
100
AcDbSpline
70
0
71
2
72
6
73
3
74
0
42
0.000000001
43
0.0000000001
44
0.0000000001
40
0
40
0
40
0
40
1
40
1
40
1
10
68.995457649230957
20
24.001367807388299
30
0
10
68.995457649230957
20
27.148760080337517
30
0
10
71.237174034118652
20
30.116308450698845
30
0
0
SPLINE
5
377
100
AcDbEntity
8
0
100
AcDbSpline
70
0
71
2
72
6
73
3
74
0
42
0.000000001
43
0.0000000001
44
0.0000000001
40
0
40
0
40
0
40
1
40
1
40
1
10
71.237174034118652
20
30.116308450698845
30
0
10
73.478890419006348
20
33.083847284317009
30
0
10
77.178689002990723
20
33.083847284317009
30
0
0
SPLINE
5
378
100
AcDbEntity
8
0
100
AcDbSpline
70
0
71
2
72
6
73
3
74
0
42
0.000000001
43
0.0000000001
44
0.0000000001
40
0
40
0
40
0
40
1
40
1
40
1
10
77.178689002990723
20
33.083847284317009
30
0
10
79.606681823730469
20
33.083847284317009
30
0
10
80.961986541748047
20
32.280939340591424
30
0
0
SPLINE
5
379
100
AcDbEntity
8
0
100
AcDbSpline
70
0
71
2
72
6
73
3
74
0
42
0.000000001
43
0.0000000001
44
0.0000000001
40
0
40
0
40
0
40
1
40
1
40
1
10
80.961986541748047
20
32.280939340591424
30
0
10
82.317296028137207
20
31.478040933609002
30
0
10
82.317296028137207
20
30.000684976577752
30
0
0
SPLINE
5
380
100
AcDbEntity
8
0
100
AcDbSpline
70
0
71
2
72
6
73
3
74
0
42
0.000000001
43
0.0000000001
44
0.0000000001
40
0
40
0
40
0
40
1
40
1
40
1
10
82.317296028137207
20
30.000684976577752
30
0
10
82.317296028137207
20
28.600414514541619
30
0
10
81.244612693786621
20
27.643354654312127
30
0
0
SPLINE
5
381
100
AcDbEntity
8
0
100
AcDbSpline
70
0
71
2
72
6
73
3
74
0
42
0.000000001
43
0.0000000001
44
0.0000000001
40
0
40
0
40
0
40
1
40
1
40
1
10
81.244612693786621
20
27.643354654312127
30
0
10
80.171924591064453
20
26.68628525733947
30
0
10
77.152997016906738
20
25.465868234634392
30
0
0
LINE
5
382
100
AcDbEntity
8
0
100
AcDbLine
10
77.152997016906738
20
25.465868234634392
30
0
11
72.52824878692627
21
23.538892984390252
31
0
0
LINE
5
383
100
AcDbEntity
8
0
100
AcDbLine
10
72.759486198425293
20
26.8018991947174
30
0
11
75.868345260620117
21
28.035171747207634
31
0
0
SPLINE
5
384
100
AcDbEntity
8
0
100
AcDbSpline
70
0
71
2
72
6
73
3
74
0
42
0.000000001
43
0.0000000001
44
0.0000000001
40
0
40
0
40
0
40
1
40
1
40
1
10
75.868345260620117
20
28.035171747207634
30
0
10
77.564083099365234
20
28.767421960830681
30
0
10
78.861580848693848
20
29.51251816749572
30
0
0
SPLINE
5
385
100
AcDbEntity
8
0
100
AcDbSpline
70
0
71
2
72
6
73
3
74
0
42
0.000000001
43
0.0000000001
44
0.0000000001
40
0
40
0
40
0
40
1
40
1
40
1
10
78.861580848693848
20
29.51251816749572
30
0
10
78.103638648986816
20
29.987838983535759
30
0
10
76.716214179992676
20
29.987838983535759
30
0
0
SPLINE
5
386
100
AcDbEntity
8
0
100
AcDbSpline
70
0
71
2
72
6
73
3
74
0
42
0.000000001
43
0.0000000001
44
0.0000000001
40
0
40
0
40
0
40
1
40
1
40
1
10
76.716214179992676
20
29.987838983535759
30
0
10
74.33961009979248
20
29.987838983535759
30
0
10
72.759486198425293
20
26.8018991947174
30
0
0
SPLINE
5
387
100
AcDbEntity
8
0
100
AcDbSpline
70
0
71
2
72
6
73
3
74
0
42
0.000000001
43
0.0000000001
44
0.0000000001
40
0
40
0
40
0
40
1
40
1
40
1
10
93.518177032470703
20
21.560524225234978
30
0
10
93.132787704467773
20
19.119690179824822
30
0
10
91.359964370727539
20
19.119690179824822
30
0
0
SPLINE
5
388
100
AcDbEntity
8
0
100
AcDbSpline
70
0
71
2
72
6
73
3
74
0
42
0.000000001
43
0.0000000001
44
0.0000000001
40
0
40
0
40
0
40
1
40
1
40
1
10
91.359964370727539
20
19.119690179824822
30
0
10
90.602022171020508
20
19.119690179824822
30
0
10
90.165239334106445
20
19.595010995864861
30
0
0
SPLINE
5
389
100
AcDbEntity
8
0
100
AcDbSpline
70
0
71
2
72
6
73
3
74
0
42
0.000000001
43
0.0000000001
44
0.0000000001
40
0
40
0
40
0
40
1
40
1
40
1
10
90.165239334106445
20
19.595010995864861
30
0
10
89.728456497192383
20
20.0703318119049
30
0
10
89.856925964355469
20
20.853965997695916
30
0
0
LINE
5
390
100
AcDbEntity
8
0
100
AcDbLine
10
89.856925964355469
20
20.853965997695916
30
0
11
92.683158874511719
21
38.646391153335564
31
0
0
SPLINE
5
391
100
AcDbEntity
8
0
100
AcDbSpline
70
0
71
2
72
6
73
3
74
0
42
0.000000001
43
0.0000000001
44
0.0000000001
40
0
40
0
40
0
40
1
40
1
40
1
10
92.683158874511719
20
38.646391153335564
30
0
10
92.798772811889648
20
39.391487360000603
30
0
10
93.408981323242188
20
39.847543954849236
30
0
0
SPLINE
5
392
100
AcDbEntity
8
0
100
AcDbSpline
70
0
71
2
72
6
73
3
74
0
42
0.000000001
43
0.0000000001
44
0.0000000001
40
0
40
0
40
0
40
1
40
1
40
1
10
93.408981323242188
20
39.847543954849236
30
0
10
94.019189834594727
20
40.303591012954705
30
0
10
94.751449584960938
20
40.303591012954705
30
0
0
SPLINE
5
393
100
AcDbEntity
8
0
100
AcDbSpline
70
0
71
2
72
6
73
3
74
0
42
0.000000001
43
0.0000000001
44
0.0000000001
40
0
40
0
40
0
40
1
40
1
40
1
10
94.751449584960938
20
40.303591012954705
30
0
10
95.522237777709961
20
40.303591012954705
30
0
10
95.926900863647461
20
39.834697961807244
30
0
0
SPLINE
5
394
100
AcDbEntity
8
0
100
AcDbSpline
70
0
71
2
72
6
73
3
74
0
42
0.000000001
43
0.0000000001
44
0.0000000001
40
0
40
0
40
0
40
1
40
1
40
1
10
95.926900863647461
20
39.834697961807244
30
0
10
96.331563949584961
20
39.365795373916619
30
0
10
96.228796005249023
20
38.646391153335564
30
0
0
LINE
5
395
100
AcDbEntity
8
0
100
AcDbLine
10
96.228796005249023
20
38.646391153335564
30
0
11
93.518177032470703
21
21.560524225234978
31
0
0
LINE
5
396
100
AcDbEntity
8
0
100
AcDbLine
10
100.91647720336914
20
21.265056848525994
30
0
11
101.81573486328125
21
25.29886078834533
31
0
0
SPLINE
5
397
100
AcDbEntity
8
0
100
AcDbSpline
70
0
71
2
72
6
73
3
74
0
42
0.000000001
43
0.0000000001
44
0.0000000001
40
0
40
0
40
0
40
1
40
1
40
1
10
101.81573486328125
20
25.29886078834533
30
0
10
102.98476791381836
20
30.591629266738884
30
0
10
104.1024169921875
20
37.72144150733947
30
0
0
SPLINE
5
398
100
AcDbEntity
8
0
100
AcDbSpline
70
0
71
2
72
6
73
3
74
0
42
0.000000001
43
0.0000000001
44
0.0000000001
40
0
40
0
40
0
40
1
40
1
40
1
10
104.1024169921875
20
37.72144150733947
30
0
10
104.20518493652344
20
38.402307748794549
30
0
10
104.79612922668457
20
38.941858530044549
30
0
0
SPLINE
5
399
100
AcDbEntity
8
0
100
AcDbSpline
70
0
71
2
72
6
73
3
74
0
42
0.000000001
43
0.0000000001
44
0.0000000001
40
0
40
0
40
0
40
1
40
1
40
1
10
104.79612922668457
20
38.941858530044549
30
0
10
105.38706398010254
20
39.481418848037713
30
0
10
106.17070770263672
20
39.481418848037713
30
0
0
SPLINE
5
400
100
AcDbEntity
8
0
100
AcDbSpline
70
0
71
2
72
6
73
3
74
0
42
0.000000001
43
0.0000000001
44
0.0000000001
40
0
40
0
40
0
40
1
40
1
40
1
10
106.17070770263672
20
39.481418848037713
30
0
10
106.8515739440918
20
39.481418848037713
30
0
10
107.2755012512207
20
39.070327997207634
30
0
0
SPLINE
5
401
100
AcDbEntity
8
0
100
AcDbSpline
70
0
71
2
72
6
73
3
74
0
42
0.000000001
43
0.0000000001
44
0.0000000001
40
0
40
0
40
0
40
1
40
1
40
1
10
107.2755012512207
20
39.070327997207634
30
0
10
107.69943809509277
20
38.659237146377556
30
0
10
107.69943809509277
20
38.004072427749627
30
0
0
SPLINE
5
402
100
AcDbEntity
8
0
100
AcDbSpline
70
0
71
2
72
6
73
3
74
0
42
0.000000001
43
0.0000000001
44
0.0000000001
40
0
40
0
40
0
40
1
40
1
40
1
10
107.69943809509277
20
38.004072427749627
30
0
10
107.69943809509277
20
37.503050088882439
30
0
10
107.04426383972168
20
33.893182992935174
30
0
0
LINE
5
403
100
AcDbEntity
8
0
100
AcDbLine
10
107.04426383972168
20
33.893182992935174
30
0
11
106.02939224243164
21
28.420561075210564
31
0
0
SPLINE
5
404
100
AcDbEntity
8
0
100
AcDbSpline
70
0
71
2
72
6
73
3
74
0
42
0.000000001
43
0.0000000001
44
0.0000000001
40
0
40
0
40
0
40
1
40
1
40
1
10
106.02939224243164
20
28.420561075210564
30
0
10
105.6696949005127
20
26.557815790176384
30
0
10
104.60342979431152
20
21.958769083023064
30
0
0
SPLINE
5
405
100
AcDbEntity
8
0
100
AcDbSpline
70
0
71
2
72
6
73
3
74
0
42
0.000000001
43
0.0000000001
44
0.0000000001
40
0
40
0
40
0
40
1
40
1
40
1
10
104.60342979431152
20
21.958769083023064
30
0
10
107.63520812988281
20
21.997307062149041
30
0
10
112.64534568786621
20
23.461807489395134
30
0
0
SPLINE
5
406
100
AcDbEntity
8
0
100
AcDbSpline
70
0
71
2
72
6
73
3
74
0
42
0.000000001
43
0.0000000001
44
0.0000000001
40
0
40
0
40
0
40
1
40
1
40
1
10
112.64534568786621
20
23.461807489395134
30
0
10
112.96651458740234
20
23.538892984390252
30
0
10
113.22344398498535
20
23.538892984390252
30
0
0
SPLINE
5
407
100
AcDbEntity
8
0
100
AcDbSpline
70
0
71
2
72
6
73
3
74
0
42
0.000000001
43
0.0000000001
44
0.0000000001
40
0
40
0
40
0
40
1
40
1
40
1
10
113.22344398498535
20
23.538892984390252
30
0
10
114.00707817077637
20
23.538892984390252
30
0
10
114.36678504943848
20
23.063562631607049
30
0
0
SPLINE
5
408
100
AcDbEntity
8
0
100
AcDbSpline
70
0
71
2
72
6
73
3
74
0
42
0.000000001
43
0.0000000001
44
0.0000000001
40
0
40
0
40
0
40
1
40
1
40
1
10
114.36678504943848
20
23.063562631607049
30
0
10
114.72648239135742
20
22.588241815567009
30
0
10
114.72648239135742
20
22.074383020400994
30
0
0
SPLINE
5
409
100
AcDbEntity
8
0
100
AcDbSpline
70
0
71
2
72
6
73
3
74
0
42
0.000000001
43
0.0000000001
44
0.0000000001
40
0
40
0
40
0
40
1
40
1
40
1
10
114.72648239135742
20
22.074383020400994
30
0
10
114.72648239135742
20
20.905349969863884
30
0
10
113.61526107788086
20
20.295141458511345
30
0
0
SPLINE
5
410
100
AcDbEntity
8
0
100
AcDbSpline
70
0
71
2
72
6
73
3
74
0
42
0.000000001
43
0.0000000001
44
0.0000000001
40
0
40
0
40
0
40
1
40
1
40
1
10
113.61526107788086
20
20.295141458511345
30
0
10
112.5040397644043
20
19.684932947158806
30
0
10
109.18321228027344
20
19.087570428848259
30
0
0
SPLINE
5
411
100
AcDbEntity
8
0
100
AcDbSpline
70
0
71
2
72
6
73
3
74
0
42
0.000000001
43
0.0000000001
44
0.0000000001
40
0
40
0
40
0
40
1
40
1
40
1
10
109.18321228027344
20
19.087570428848259
30
0
10
105.86238479614258
20
18.490207910537713
30
0
10
103.60140419006348
20
18.490207910537713
30
0
0
SPLINE
5
412
100
AcDbEntity
8
0
100
AcDbSpline
70
0
71
2
72
6
73
3
74
0
42
0.000000001
43
0.0000000001
44
0.0000000001
40
0
40
0
40
0
40
1
40
1
40
1
10
103.60140419006348
20
18.490207910537713
30
0
10
100.86509323120117
20
18.490207910537713
30
0
10
100.86509323120117
20
20.597036600112908
30
0
0
SPLINE
5
413
100
AcDbEntity
8
0
100
AcDbSpline
70
0
71
2
72
6
73
3
74
0
42
0.000000001
43
0.0000000001
44
0.0000000001
40
0
40
0
40
0
40
1
40
1
40
1
10
100.86509323120117
20
20.597036600112908
30
0
10
100.86509323120117
20
20.905349969863884
30
0
10
100.91647720336914
20
21.265056848525994
30
0
0
SPLINE
5
414
100
AcDbEntity
8
0
100
AcDbSpline
70
0
71
2
72
6
73
3
74
0
42
0.000000001
43
0.0000000001
44
0.0000000001
40
0
40
0
40
0
40
1
40
1
40
1
10
121.17416954040527
20
24.194057703018181
30
0
10
121.17416954040527
20
27.405689477920525
30
0
10
123.50580787658691
20
30.193384408950799
30
0
0
SPLINE
5
415
100
AcDbEntity
8
0
100
AcDbSpline
70
0
71
2
72
6
73
3
74
0
42
0.000000001
43
0.0000000001
44
0.0000000001
40
0
40
0
40
0
40
1
40
1
40
1
10
123.50580787658691
20
30.193384408950799
30
0
10
125.83745574951172
20
32.981079339981072
30
0
10
129.49871635437012
20
32.981079339981072
30
0
0
SPLINE
5
416
100
AcDbEntity
8
0
100
AcDbSpline
70
0
71
2
72
6
73
3
74
0
42
0.000000001
43
0.0000000001
44
0.0000000001
40
0
40
0
40
0
40
1
40
1
40
1
10
129.49871635437012
20
32.981079339981072
30
0
10
131.60554504394531
20
32.981079339981072
30
0
10
132.80668830871582
20
31.548689126968377
30
0
0
SPLINE
5
417
100
AcDbEntity
8
0
100
AcDbSpline
70
0
71
2
72
6
73
3
74
0
42
0.000000001
43
0.0000000001
44
0.0000000001
40
0
40
0
40
0
40
1
40
1
40
1
10
132.80668830871582
20
31.548689126968377
30
0
10
134.00784111022949
20
30.116308450698845
30
0
10
134.00784111022949
20
27.765396356582634
30
0
0
SPLINE
5
418
100
AcDbEntity
8
0
100
AcDbSpline
70
0
71
2
72
6
73
3
74
0
42
0.000000001
43
0.0000000001
44
0.0000000001
40
0
40
0
40
0
40
1
40
1
40
1
10
134.00784111022949
20
27.765396356582634
30
0
10
134.00784111022949
20
24.386757135391228
30
0
10
131.80466270446777
20
21.650446176528924
30
0
0
SPLINE
5
419
100
AcDbEntity
8
0
100
AcDbSpline
70
0
71
2
72
6
73
3
74
0
42
0.000000001
43
0.0000000001
44
0.0000000001
40
0
40
0
40
0
40
1
40
1
40
1
10
131.80466270446777
20
21.650446176528924
30
0
10
129.60148429870605
20
18.914144754409783
30
0
10
126.31277656555176
20
18.914144754409783
30
0
0
SPLINE
5
420
100
AcDbEntity
8
0
100
AcDbSpline
70
0
71
2
72
6
73
3
74
0
42
0.000000001
43
0.0000000001
44
0.0000000001
40
0
40
0
40
0
40
1
40
1
40
1
10
126.31277656555176
20
18.914144754409783
30
0
10
124.02609443664551
20
18.914144754409783
30
0
10
122.60013198852539
20
20.410764932632439
30
0
0
SPLINE
5
421
100
AcDbEntity
8
0
100
AcDbSpline
70
0
71
2
72
6
73
3
74
0
42
0.000000001
43
0.0000000001
44
0.0000000001
40
0
40
0
40
0
40
1
40
1
40
1
10
122.60013198852539
20
20.410764932632439
30
0
10
121.17416954040527
20
21.907385110855095
30
0
10
121.17416954040527
20
24.194057703018181
30
0
0
SPLINE
5
422
100
AcDbEntity
8
0
100
AcDbSpline
70
0
71
2
72
6
73
3
74
0
42
0.000000001
43
0.0000000001
44
0.0000000001
40
0
40
0
40
0
40
1
40
1
40
1
10
124.77119064331055
20
24.707926034927361
30
0
10
124.77119064331055
20
23.615968942642205
30
0
10
125.30432319641113
20
22.960794687271111
30
0
0
SPLINE
5
423
100
AcDbEntity
8
0
100
AcDbSpline
70
0
71
2
72
6
73
3
74
0
42
0.000000001
43
0.0000000001
44
0.0000000001
40
0
40
0
40
0
40
1
40
1
40
1
10
125.30432319641113
20
22.960794687271111
30
0
10
125.83745574951172
20
22.305620431900017
30
0
10
126.83948135375977
20
22.305620431900017
30
0
0
SPLINE
5
424
100
AcDbEntity
8
0
100
AcDbSpline
70
0
71
2
72
6
73
3
74
0
42
0.000000001
43
0.0000000001
44
0.0000000001
40
0
40
0
40
0
40
1
40
1
40
1
10
126.83948135375977
20
22.305620431900017
30
0
10
128.5095272064209
20
22.305620431900017
30
0
10
129.49871635437012
20
23.712318658828728
30
0
0
SPLINE
5
425
100
AcDbEntity
8
0
100
AcDbSpline
70
0
71
2
72
6
73
3
74
0
42
0.000000001
43
0.0000000001
44
0.0000000001
40
0
40
0
40
0
40
1
40
1
40
1
10
129.49871635437012
20
23.712318658828728
30
0
10
130.48789596557617
20
25.119007349014275
30
0
10
130.48789596557617
20
27.328613519668572
30
0
0
SPLINE
5
426
100
AcDbEntity
8
0
100
AcDbSpline
70
0
71
2
72
6
73
3
74
0
42
0.000000001
43
0.0000000001
44
0.0000000001
40
0
40
0
40
0
40
1
40
1
40
1
10
130.48789596557617
20
27.328613519668572
30
0
10
130.48789596557617
20
29.589594125747674
30
0
10
128.75361061096191
20
29.589594125747674
30
0
0
SPLINE
5
427
100
AcDbEntity
8
0
100
AcDbSpline
70
0
71
2
72
6
73
3
74
0
42
0.000000001
43
0.0000000001
44
0.0000000001
40
0
40
0
40
0
40
1
40
1
40
1
10
128.75361061096191
20
29.589594125747674
30
0
10
127.0578727722168
20
29.589594125747674
30
0
10
125.91453170776367
20
27.951668024063103
30
0
0
SPLINE
5
428
100
AcDbEntity
8
0
100
AcDbSpline
70
0
71
2
72
6
73
3
74
0
42
0.000000001
43
0.0000000001
44
0.0000000001
40
0
40
0
40
0
40
1
40
1
40
1
10
125.91453170776367
20
27.951668024063103
30
0
10
124.77119064331055
20
26.313732385635369
30
0
10
124.77119064331055
20
24.707926034927361
30
0
0
LINE
5
429
100
AcDbEntity
8
0
100
AcDbLine
10
143.69283294677734
20
19.171074151992791
30
0
11
142.87065124511719
21
13.942545175552361
31
0
0
SPLINE
5
430
100
AcDbEntity
8
0
100
AcDbSpline
70
0
71
2
72
6
73
3
74
0
42
0.000000001
43
0.0000000001
44
0.0000000001
40
0
40
0
40
0
40
1
40
1
40
1
10
142.87065124511719
20
13.942545175552361
30
0
10
142.75503730773926
20
13.184593439102166
30
0
10
142.17693901062012
20
12.69000840187072
30
0
0
SPLINE
5
431
100
AcDbEntity
8
0
100
AcDbSpline
70
0
71
2
72
6
73
3
74
0
42
0.000000001
43
0.0000000001
44
0.0000000001
40
0
40
0
40
0
40
1
40
1
40
1
10
142.17693901062012
20
12.69000840187072
30
0
10
141.59885025024414
20
12.195413827896111
30
0
10
140.82806205749512
20
12.195413827896111
30
0
0
SPLINE
5
432
100
AcDbEntity
8
0
100
AcDbSpline
70
0
71
2
72
6
73
3
74
0
42
0.000000001
43
0.0000000001
44
0.0000000001
40
0
40
0
40
0
40
1
40
1
40
1
10
140.82806205749512
20
12.195413827896111
30
0
10
140.12150382995605
20
12.195413827896111
30
0
10
139.71041297912598
20
12.600076913833611
30
0
0
SPLINE
5
433
100
AcDbEntity
8
0
100
AcDbSpline
70
0
71
2
72
6
73
3
74
0
42
0.000000001
43
0.0000000001
44
0.0000000001
40
0
40
0
40
0
40
1
40
1
40
1
10
139.71041297912598
20
12.600076913833611
30
0
10
139.2993221282959
20
13.004739999771111
30
0
10
139.2993221282959
20
13.621376276016228
30
0
0
SPLINE
5
434
100
AcDbEntity
8
0
100
AcDbSpline
70
0
71
2
72
6
73
3
74
0
42
0.000000001
43
0.0000000001
44
0.0000000001
40
0
40
0
40
0
40
1
40
1
40
1
10
139.2993221282959
20
13.621376276016228
30
0
10
139.2993221282959
20
13.981083154678338
30
0
10
140.1086483001709
20
18.721445322036736
30
0
0
SPLINE
5
435
100
AcDbEntity
8
0
100
AcDbSpline
70
0
71
2
72
6
73
3
74
0
42
0.000000001
43
0.0000000001
44
0.0000000001
40
0
40
0
40
0
40
1
40
1
40
1
10
140.1086483001709
20
18.721445322036736
30
0
10
141.31622886657715
20
26.095350503921502
30
0
10
141.62454223632812
20
30.41177582740783
30
0
0
SPLINE
5
436
100
AcDbEntity
8
0
100
AcDbSpline
70
0
71
2
72
6
73
3
74
0
42
0.000000001
43
0.0000000001
44
0.0000000001
40
0
40
0
40
0
40
1
40
1
40
1
10
141.62454223632812
20
30.41177582740783
30
0
10
141.72731018066406
20
32.030437707900994
30
0
10
142.4531421661377
20
32.916849374771111
30
0
0
SPLINE
5
437
100
AcDbEntity
8
0
100
AcDbSpline
70
0
71
2
72
6
73
3
74
0
42
0.000000001
43
0.0000000001
44
0.0000000001
40
0
40
0
40
0
40
1
40
1
40
1
10
142.4531421661377
20
32.916849374771111
30
0
10
143.17897415161133
20
33.803251504898064
30
0
10
144.09106826782227
20
33.803251504898064
30
0
0
SPLINE
5
438
100
AcDbEntity
8
0
100
AcDbSpline
70
0
71
2
72
6
73
3
74
0
42
0.000000001
43
0.0000000001
44
0.0000000001
40
0
40
0
40
0
40
1
40
1
40
1
10
144.09106826782227
20
33.803251504898064
30
0
10
144.81048202514648
20
33.803251504898064
30
0
10
145.2215633392334
20
33.321512460708611
30
0
0
SPLINE
5
439
100
AcDbEntity
8
0
100
AcDbSpline
70
0
71
2
72
6
73
3
74
0
42
0.000000001
43
0.0000000001
44
0.0000000001
40
0
40
0
40
0
40
1
40
1
40
1
10
145.2215633392334
20
33.321512460708611
30
0
10
145.63265419006348
20
32.839773416519158
30
0
10
145.52988624572754
20
32.146051645278924
30
0
0
LINE
5
440
100
AcDbEntity
8
0
100
AcDbLine
10
145.52988624572754
20
32.146051645278924
30
0
11
145.47849273681641
21
32.017591714859002
31
0
0
SPLINE
5
441
100
AcDbEntity
8
0
100
AcDbSpline
70
0
71
2
72
6
73
3
74
0
42
0.000000001
43
0.0000000001
44
0.0000000001
40
0
40
0
40
0
40
1
40
1
40
1
10
145.47849273681641
20
32.017591714859002
30
0
10
147.35408401489258
20
32.955387353897088
30
0
10
149.08836936950684
20
32.955387353897088
30
0
0
SPLINE
5
442
100
AcDbEntity
8
0
100
AcDbSpline
70
0
71
2
72
6
73
3
74
0
42
0.000000001
43
0.0000000001
44
0.0000000001
40
0
40
0
40
0
40
1
40
1
40
1
10
149.08836936950684
20
32.955387353897088
30
0
10
153.46903419494629
20
32.955387353897088
30
0
10
153.46903419494629
20
27.958086252212517
30
0
0
SPLINE
5
443
100
AcDbEntity
8
0
100
AcDbSpline
70
0
71
2
72
6
73
3
74
0
42
0.000000001
43
0.0000000001
44
0.0000000001
40
0
40
0
40
0
40
1
40
1
40
1
10
153.46903419494629
20
27.958086252212517
30
0
10
153.46903419494629
20
23.538892984390252
30
0
10
151.20161628723145
20
21.226518869400017
30
0
0
SPLINE
5
444
100
AcDbEntity
8
0
100
AcDbSpline
70
0
71
2
72
6
73
3
74
0
42
0.000000001
43
0.0000000001
44
0.0000000001
40
0
40
0
40
0
40
1
40
1
40
1
10
151.20161628723145
20
21.226518869400017
30
0
10
148.93420791625977
20
18.914144754409783
30
0
10
145.97951507568359
20
18.914144754409783
30
0
0
SPLINE
5
445
100
AcDbEntity
8
0
100
AcDbSpline
70
0
71
2
72
6
73
3
74
0
42
0.000000001
43
0.0000000001
44
0.0000000001
40
0
40
0
40
0
40
1
40
1
40
1
10
145.97951507568359
20
18.914144754409783
30
0
10
144.74624252319336
20
18.914144754409783
30
0
10
143.69283294677734
20
19.171074151992791
30
0
0
SPLINE
5
446
100
AcDbEntity
8
0
100
AcDbSpline
70
0
71
2
72
6
73
3
74
0
42
0.000000001
43
0.0000000001
44
0.0000000001
40
0
40
0
40
0
40
1
40
1
40
1
10
145.00317192077637
20
28.00947976112365
30
0
10
144.77193450927734
20
25.979727029800408
30
0
10
144.2966136932373
20
22.729557275772088
30
0
0
SPLINE
5
447
100
AcDbEntity
8
0
100
AcDbSpline
70
0
71
2
72
6
73
3
74
0
42
0.000000001
43
0.0000000001
44
0.0000000001
40
0
40
0
40
0
40
1
40
1
40
1
10
144.2966136932373
20
22.729557275772088
30
0
10
145.37572479248047
20
22.357004404067986
30
0
10
146.53191184997559
20
22.357004404067986
30
0
0
SPLINE
5
448
100
AcDbEntity
8
0
100
AcDbSpline
70
0
71
2
72
6
73
3
74
0
42
0.000000001
43
0.0000000001
44
0.0000000001
40
0
40
0
40
0
40
1
40
1
40
1
10
146.53191184997559
20
22.357004404067986
30
0
10
148.31758117675781
20
22.357004404067986
30
0
10
149.12047958374023
20
23.924282312393181
30
0
0
SPLINE
5
449
100
AcDbEntity
8
0
100
AcDbSpline
70
0
71
2
72
6
73
3
74
0
42
0.000000001
43
0.0000000001
44
0.0000000001
40
0
40
0
40
0
40
1
40
1
40
1
10
149.12047958374023
20
23.924282312393181
30
0
10
149.92338752746582
20
25.491560220718377
30
0
10
149.92338752746582
20
27.495620965957634
30
0
0
SPLINE
5
450
100
AcDbEntity
8
0
100
AcDbSpline
70
0
71
2
72
6
73
3
74
0
42
0.000000001
43
0.0000000001
44
0.0000000001
40
0
40
0
40
0
40
1
40
1
40
1
10
149.92338752746582
20
27.495620965957634
30
0
10
149.92338752746582
20
29.538210153579705
30
0
10
148.56166458129883
20
29.538210153579705
30
0
0
SPLINE
5
451
100
AcDbEntity
8
0
100
AcDbSpline
70
0
71
2
72
6
73
3
74
0
42
0.000000001
43
0.0000000001
44
0.0000000001
40
0
40
0
40
0
40
1
40
1
40
1
10
148.56166458129883
20
29.538210153579705
30
0
10
146.93015670776367
20
29.538210153579705
30
0
10
145.00317192077637
20
28.00947976112365
30
0
0
SPLINE
5
452
100
AcDbEntity
8
0
100
AcDbSpline
70
0
71
2
72
6
73
3
74
0
42
0.000000001
43
0.0000000001
44
0.0000000001
40
0
40
0
40
0
40
1
40
1
40
1
10
162.71724319458008
20
23.538892984390252
30
0
10
163.82204627990723
20
22.20285248756408
30
0
10
166.00595092773438
20
22.20285248756408
30
0
0
SPLINE
5
453
100
AcDbEntity
8
0
100
AcDbSpline
70
0
71
2
72
6
73
3
74
0
42
0.000000001
43
0.0000000001
44
0.0000000001
40
0
40
0
40
0
40
1
40
1
40
1
10
166.00595092773438
20
22.20285248756408
30
0
10
167.70169830322266
20
22.20285248756408
30
0
10
169.02488327026367
20
22.909410715103142
30
0
0
SPLINE
5
454
100
AcDbEntity
8
0
100
AcDbSpline
70
0
71
2
72
6
73
3
74
0
42
0.000000001
43
0.0000000001
44
0.0000000001
40
0
40
0
40
0
40
1
40
1
40
1
10
169.02488327026367
20
22.909410715103142
30
0
10
170.20677185058594
20
23.538892984390252
30
0
10
170.84909057617188
20
23.538892984390252
30
0
0
SPLINE
5
455
100
AcDbEntity
8
0
100
AcDbSpline
70
0
71
2
72
6
73
3
74
0
42
0.000000001
43
0.0000000001
44
0.0000000001
40
0
40
0
40
0
40
1
40
1
40
1
10
170.84909057617188
20
23.538892984390252
30
0
10
171.97957611083984
20
23.538892984390252
30
0
10
171.97957611083984
20
22.562549829483025
30
0
0
SPLINE
5
456
100
AcDbEntity
8
0
100
AcDbSpline
70
0
71
2
72
6
73
3
74
0
42
0.000000001
43
0.0000000001
44
0.0000000001
40
0
40
0
40
0
40
1
40
1
40
1
10
171.97957611083984
20
22.562549829483025
30
0
10
171.97957611083984
20
21.059511423110955
30
0
10
169.94983291625977
20
20.076750040054314
30
0
0
SPLINE
5
457
100
AcDbEntity
8
0
100
AcDbSpline
70
0
71
2
72
6
73
3
74
0
42
0.000000001
43
0.0000000001
44
0.0000000001
40
0
40
0
40
0
40
1
40
1
40
1
10
169.94983291625977
20
20.076750040054314
30
0
10
167.92008972167969
20
19.093998193740838
30
0
10
165.50493812561035
20
19.093998193740838
30
0
0
SPLINE
5
458
100
AcDbEntity
8
0
100
AcDbSpline
70
0
71
2
72
6
73
3
74
0
42
0.000000001
43
0.0000000001
44
0.0000000001
40
0
40
0
40
0
40
1
40
1
40
1
10
165.50493812561035
20
19.093998193740838
30
0
10
162.53738975524902
20
19.093998193740838
30
0
10
160.86092567443848
20
20.423610925674431
30
0
0
SPLINE
5
459
100
AcDbEntity
8
0
100
AcDbSpline
70
0
71
2
72
6
73
3
74
0
42
0.000000001
43
0.0000000001
44
0.0000000001
40
0
40
0
40
0
40
1
40
1
40
1
10
160.86092567443848
20
20.423610925674431
30
0
10
159.18445205688477
20
21.753223657608025
30
0
10
159.18445205688477
20
24.001367807388299
30
0
0
SPLINE
5
460
100
AcDbEntity
8
0
100
AcDbSpline
70
0
71
2
72
6
73
3
74
0
42
0.000000001
43
0.0000000001
44
0.0000000001
40
0
40
0
40
0
40
1
40
1
40
1
10
159.18445205688477
20
24.001367807388299
30
0
10
159.18445205688477
20
27.148760080337517
30
0
10
161.42616844177246
20
30.116308450698845
30
0
0
SPLINE
5
461
100
AcDbEntity
8
0
100
AcDbSpline
70
0
71
2
72
6
73
3
74
0
42
0.000000001
43
0.0000000001
44
0.0000000001
40
0
40
0
40
0
40
1
40
1
40
1
10
161.42616844177246
20
30.116308450698845
30
0
10
163.66788482666016
20
33.083847284317009
30
0
10
167.36768341064453
20
33.083847284317009
30
0
0
SPLINE
5
462
100
AcDbEntity
8
0
100
AcDbSpline
70
0
71
2
72
6
73
3
74
0
42
0.000000001
43
0.0000000001
44
0.0000000001
40
0
40
0
40
0
40
1
40
1
40
1
10
167.36768341064453
20
33.083847284317009
30
0
10
169.79568099975586
20
33.083847284317009
30
0
10
171.15098571777344
20
32.280939340591424
30
0
0
SPLINE
5
463
100
AcDbEntity
8
0
100
AcDbSpline
70
0
71
2
72
6
73
3
74
0
42
0.000000001
43
0.0000000001
44
0.0000000001
40
0
40
0
40
0
40
1
40
1
40
1
10
171.15098571777344
20
32.280939340591424
30
0
10
172.50629043579102
20
31.478040933609002
30
0
10
172.50629043579102
20
30.000684976577752
30
0
0
SPLINE
5
464
100
AcDbEntity
8
0
100
AcDbSpline
70
0
71
2
72
6
73
3
74
0
42
0.000000001
43
0.0000000001
44
0.0000000001
40
0
40
0
40
0
40
1
40
1
40
1
10
172.50629043579102
20
30.000684976577752
30
0
10
172.50629043579102
20
28.600414514541619
30
0
10
171.43359756469727
20
27.643354654312127
30
0
0
SPLINE
5
465
100
AcDbEntity
8
0
100
AcDbSpline
70
0
71
2
72
6
73
3
74
0
42
0.000000001
43
0.0000000001
44
0.0000000001
40
0
40
0
40
0
40
1
40
1
40
1
10
171.43359756469727
20
27.643354654312127
30
0
10
170.36092376708984
20
26.68628525733947
30
0
10
167.34199142456055
20
25.465868234634392
30
0
0
LINE
5
466
100
AcDbEntity
8
0
100
AcDbLine
10
167.34199142456055
20
25.465868234634392
30
0
11
162.71724319458008
21
23.538892984390252
31
0
0
LINE
5
467
100
AcDbEntity
8
0
100
AcDbLine
10
162.9484806060791
20
26.8018991947174
30
0
11
166.05733489990234
21
28.035171747207634
31
0
0
SPLINE
5
468
100
AcDbEntity
8
0
100
AcDbSpline
70
0
71
2
72
6
73
3
74
0
42
0.000000001
43
0.0000000001
44
0.0000000001
40
0
40
0
40
0
40
1
40
1
40
1
10
166.05733489990234
20
28.035171747207634
30
0
10
167.75308227539062
20
28.767421960830681
30
0
10
169.05057525634766
20
29.51251816749572
30
0
0
SPLINE
5
469
100
AcDbEntity
8
0
100
AcDbSpline
70
0
71
2
72
6
73
3
74
0
42
0.000000001
43
0.0000000001
44
0.0000000001
40
0
40
0
40
0
40
1
40
1
40
1
10
169.05057525634766
20
29.51251816749572
30
0
10
168.29263305664062
20
29.987838983535759
30
0
10
166.90520858764648
20
29.987838983535759
30
0
0
SPLINE
5
470
100
AcDbEntity
8
0
100
AcDbSpline
70
0
71
2
72
6
73
3
74
0
42
0.000000001
43
0.0000000001
44
0.0000000001
40
0
40
0
40
0
40
1
40
1
40
1
10
166.90520858764648
20
29.987838983535759
30
0
10
164.52860450744629
20
29.987838983535759
30
0
10
162.9484806060791
20
26.8018991947174
30
0
0
SPLINE
5
471
100
AcDbEntity
8
0
100
AcDbSpline
70
0
71
2
72
6
73
3
74
0
42
0.000000001
43
0.0000000001
44
0.0000000001
40
0
40
0
40
0
40
1
40
1
40
1
10
191.62063217163086
20
28.934429407119744
30
0
10
191.51784515380859
20
28.202169656753533
30
0
10
190.99755859375
20
27.579115152359002
30
0
0
SPLINE
5
472
100
AcDbEntity
8
0
100
AcDbSpline
70
0
71
2
72
6
73
3
74
0
42
0.000000001
43
0.0000000001
44
0.0000000001
40
0
40
0
40
0
40
1
40
1
40
1
10
190.99755859375
20
27.579115152359002
30
0
10
190.47729110717773
20
26.95606064796447
30
0
10
189.5137939453125
20
26.95606064796447
30
0
0
SPLINE
5
473
100
AcDbEntity
8
0
100
AcDbSpline
70
0
71
2
72
6
73
3
74
0
42
0.000000001
43
0.0000000001
44
0.0000000001
40
0
40
0
40
0
40
1
40
1
40
1
10
189.5137939453125
20
26.95606064796447
30
0
10
188.15206146240234
20
26.95606064796447
30
0
10
188.15206146240234
20
28.189323663711541
30
0
0
SPLINE
5
474
100
AcDbEntity
8
0
100
AcDbSpline
70
0
71
2
72
6
73
3
74
0
42
0.000000001
43
0.0000000001
44
0.0000000001
40
0
40
0
40
0
40
1
40
1
40
1
10
188.15206146240234
20
28.189323663711541
30
0
10
188.15206146240234
20
28.39486908912658
30
0
10
188.19060897827148
20
28.638952493667595
30
0
0
LINE
5
475
100
AcDbEntity
8
0
100
AcDbLine
10
188.19060897827148
20
28.638952493667595
30
0
11
188.30621337890625
21
29.936455011367791
31
0
0
SPLINE
5
476
100
AcDbEntity
8
0
100
AcDbSpline
70
0
71
2
72
6
73
3
74
0
42
0.000000001
43
0.0000000001
44
0.0000000001
40
0
40
0
40
0
40
1
40
1
40
1
10
188.30621337890625
20
29.936455011367791
30
0
10
185.36437606811523
20
29.486826181411736
30
0
10
183.69432067871094
20
26.95606064796447
30
0
0
LINE
5
477
100
AcDbEntity
8
0
100
AcDbLine
10
183.69432067871094
20
26.95606064796447
30
0
11
182.69229507446289
21
20.519960641860955
31
0
0
SPLINE
5
478
100
AcDbEntity
8
0
100
AcDbSpline
70
0
71
2
72
6
73
3
74
0
42
0.000000001
43
0.0000000001
44
0.0000000001
40
0
40
0
40
0
40
1
40
1
40
1
10
182.69229507446289
20
20.519960641860955
30
0
10
182.5766716003418
20
19.8005564212799
30
0
10
182.01142883300781
20
19.299534082412713
30
0
0
SPLINE
5
479
100
AcDbEntity
8
0
100
AcDbSpline
70
0
71
2
72
6
73
3
74
0
42
0.000000001
43
0.0000000001
44
0.0000000001
40
0
40
0
40
0
40
1
40
1
40
1
10
182.01142883300781
20
19.299534082412713
30
0
10
181.44618606567383
20
18.798521280288689
30
0
10
180.64969635009766
20
18.798521280288689
30
0
0
SPLINE
5
480
100
AcDbEntity
8
0
100
AcDbSpline
70
0
71
2
72
6
73
3
74
0
42
0.000000001
43
0.0000000001
44
0.0000000001
40
0
40
0
40
0
40
1
40
1
40
1
10
180.64969635009766
20
18.798521280288689
30
0
10
179.93030166625977
20
18.798521280288689
30
0
10
179.5577392578125
20
19.280269861221306
30
0
0
SPLINE
5
481
100
AcDbEntity
8
0
100
AcDbSpline
70
0
71
2
72
6
73
3
74
0
42
0.000000001
43
0.0000000001
44
0.0000000001
40
0
40
0
40
0
40
1
40
1
40
1
10
179.5577392578125
20
19.280269861221306
30
0
10
179.18519592285156
20
19.762008905410759
30
0
10
179.30081939697266
20
20.519960641860955
30
0
0
LINE
5
482
100
AcDbEntity
8
0
100
AcDbLine
10
179.30081939697266
20
20.519960641860955
30
0
11
180.62400436401367
21
28.934429407119744
31
0
0
LINE
5
483
100
AcDbEntity
8
0
100
AcDbLine
10
180.62400436401367
20
28.934429407119744
30
0
11
180.94516372680664
21
30.771482706069939
31
0
0
SPLINE
5
484
100
AcDbEntity
8
0
100
AcDbSpline
70
0
71
2
72
6
73
3
74
0
42
0.000000001
43
0.0000000001
44
0.0000000001
40
0
40
0
40
0
40
1
40
1
40
1
10
180.94516372680664
20
30.771482706069939
30
0
10
181.08647918701172
20
31.670730829238884
30
0
10
181.28560638427734
20
32.056129693984978
30
0
0
SPLINE
5
485
100
AcDbEntity
8
0
100
AcDbSpline
70
0
71
2
72
6
73
3
74
0
42
0.000000001
43
0.0000000001
44
0.0000000001
40
0
40
0
40
0
40
1
40
1
40
1
10
181.28560638427734
20
32.056129693984978
30
0
10
181.48471450805664
20
32.441528558731072
30
0
10
181.92792510986328
20
32.711303949356072
30
0
0
SPLINE
5
486
100
AcDbEntity
8
0
100
AcDbSpline
70
0
71
2
72
6
73
3
74
0
42
0.000000001
43
0.0000000001
44
0.0000000001
40
0
40
0
40
0
40
1
40
1
40
1
10
181.92792510986328
20
32.711303949356072
30
0
10
182.37113571166992
20
32.981079339981072
30
0
10
182.96207046508789
20
32.981079339981072
30
0
0
SPLINE
5
487
100
AcDbEntity
8
0
100
AcDbSpline
70
0
71
2
72
6
73
3
74
0
42
0.000000001
43
0.0000000001
44
0.0000000001
40
0
40
0
40
0
40
1
40
1
40
1
10
182.96207046508789
20
32.981079339981072
30
0
10
184.40087890625
20
32.981079339981072
30
0
10
184.43942642211914
20
31.516578912734978
30
0
0
SPLINE
5
488
100
AcDbEntity
8
0
100
AcDbSpline
70
0
71
2
72
6
73
3
74
0
42
0.000000001
43
0.0000000001
44
0.0000000001
40
0
40
0
40
0
40
1
40
1
40
1
10
184.43942642211914
20
31.516578912734978
30
0
10
186.98302841186523
20
33.225162744522088
30
0
10
189.74504089355469
20
33.225162744522088
30
0
0
SPLINE
5
489
100
AcDbEntity
8
0
100
AcDbSpline
70
0
71
2
72
6
73
3
74
0
42
0.000000001
43
0.0000000001
44
0.0000000001
40
0
40
0
40
0
40
1
40
1
40
1
10
189.74504089355469
20
33.225162744522088
30
0
10
191.85186004638672
20
33.225162744522088
30
0
10
191.85186004638672
20
30.899942636489861
30
0
0
SPLINE
5
490
100
AcDbEntity
8
0
100
AcDbSpline
70
0
71
2
72
6
73
3
74
0
42
0.000000001
43
0.0000000001
44
0.0000000001
40
0
40
0
40
0
40
1
40
1
40
1
10
191.85186004638672
20
30.899942636489861
30
0
10
191.85186004638672
20
30.398929834365838
30
0
10
191.74909210205078
20
29.795139551162713
30
0
0
LINE
5
491
100
AcDbEntity
8
0
100
AcDbLine
10
191.74909210205078
20
29.795139551162713
30
0
11
191.62063217163086
21
28.934429407119744
31
0
0
ENDSEC
0
SECTION
2
OBJECTS
0
DICTIONARY
5
C
100
AcDbDictionary
3
ACAD_GROUP
350
D
3
ACAD_MLINESTYLE
350
17
0
DICTIONARY
5
D
100
AcDbDictionary
0
DICTIONARY
5
1A
330
C
100
AcDbDictionary
0
DICTIONARY
5
17
100
AcDbDictionary
0
ENDSEC
0
EOF
