                                                                        S      1
,,14HHolderRight v1,14HHolderRight v1,7Hunknown,7Hunknown,32,38,7,99,15,G      1
,1.,2,2HMM,1,0.08,15H20250912.002745,0.01,10000.,7Hunknown,7Hunknown,11,G      2
0,15H20191004.142818;                                                   G      3
     186       1                                                00000000D      1
     186            -115       1       0                               0D      2
     514       2                                                00010000D      3
     514                       1       1                               0D      4
     510       3                                                00010000D      5
     510            -115       1       1                               0D      6
     510       4                                                00010000D      7
     510            -115       1       1                               0D      8
     510       5                                                00010000D      9
     510            -115       1       1                               0D     10
     510       6                                                00010000D     11
     510            -115       1       1                               0D     12
     510       7                                                00010000D     13
     510            -115       1       1                               0D     14
     510       8                                                00010000D     15
     510            -115       1       1                               0D     16
     510       9                                                00010000D     17
     510            -115       1       1                               0D     18
     510      10                                                00010000D     19
     510            -115       1       1                               0D     20
     510      11                                                00010000D     21
     510            -115       1       1                               0D     22
     510      12                                                00010000D     23
     510            -115       1       1                               0D     24
     508      13                                                00010000D     25
     508                       1       1                               0D     26
     508      14                                                00010000D     27
     508                       1       1                               0D     28
     508      15                                                00010000D     29
     508                       2       1                               0D     30
     508      17                                                00010000D     31
     508                       1       1                               0D     32
     508      18                                                00010000D     33
     508                       1       1                               0D     34
     508      19                                                00010000D     35
     508                       1       1                               0D     36
     508      20                                                00010000D     37
     508                       1       1                               0D     38
     508      21                                                00010000D     39
     508                       1       1                               0D     40
     508      22                                                00010000D     41
     508                       1       1                               0D     42
     508      23                                                00010000D     43
     508                       1       1                               0D     44
     508      24                                                00010000D     45
     508                       2       1                               0D     46
     126      26                                                00010000D     47
     126       0               5       0                               0D     48
     126      31                                                00010000D     49
     126       0               2       0                               0D     50
     126      33                                                00010000D     51
     126       0               5       0                               0D     52
     126      38                                                00010000D     53
     126       0               3       0                               0D     54
     126      41                                                00010000D     55
     126       0               3       0                               0D     56
     126      44                                                00010000D     57
     126       0               2       0                               0D     58
     126      46                                                00010000D     59
     126       0               3       0                               0D     60
     126      49                                                00010000D     61
     126       0               4       0                               0D     62
     126      53                                                00010000D     63
     126       0               5       0                               0D     64
     126      58                                                00010000D     65
     126       0               4       0                               0D     66
     126      62                                                00010000D     67
     126       0               2       0                               0D     68
     126      64                                                00010000D     69
     126       0               8       0                               0D     70
     126      72                                                00010000D     71
     126       0               5       0                               0D     72
     126      77                                                00010000D     73
     126       0               3       0                               0D     74
     126      80                                                00010000D     75
     126       0               2       0                               0D     76
     126      82                                                00010000D     77
     126       0               4       0                               0D     78
     126      86                                                00010000D     79
     126       0               2       0                               0D     80
     126      88                                                00010000D     81
     126       0               8       0                               0D     82
     126      96                                                00010000D     83
     126       0               2       0                               0D     84
     126      98                                                00010000D     85
     126       0               4       0                               0D     86
     126     102                                                00010000D     87
     126       0               2       0                               0D     88
     128     104                                                00010000D     89
     128       0    -115       8       0                               0D     90
     128     112                                                00010000D     91
     128       0    -115       7       0                               0D     92
     128     119                                                00010000D     93
     128       0    -115       4       0                               0D     94
     128     123                                                00010000D     95
     128       0    -115       7       0                               0D     96
     128     130                                                00010000D     97
     128       0    -115       6       0                               0D     98
     128     136                                                00010000D     99
     128       0    -115      12       0                               0D    100
     128     148                                                00010000D    101
     128       0    -115       3       0                               0D    102
     128     151                                                00010000D    103
     128       0    -115       5       0                               0D    104
     128     156                                                00010000D    105
     128       0    -115       3       0                               0D    106
     128     159                                                00010000D    107
     128       0    -115       4       0                               0D    108
     502     163                                                00010000D    109
     502                       6       1                               0D    110
     504     169                                                00010001D    111
     504                       6       1                               0D    112
     406     175                                                00000000D    113
     406                       1      15                               0D    114
     314     176                                                00000200D    115
     314                       2       0                               0D    116
186,3,1,0,0,1,113;                                                     1P      1
514,10,5,1,7,1,9,1,11,1,13,1,15,1,17,1,19,1,21,1,23,1;                 3P      2
510,89,1,1,25;                                                         5P      3
510,91,1,1,27;                                                         7P      4
510,93,2,1,29,31;                                                      9P      5
510,95,1,1,33;                                                        11P      6
510,97,1,1,35;                                                        13P      7
510,99,1,1,37;                                                        15P      8
510,101,1,1,39;                                                       17P      9
510,103,1,1,41;                                                       19P     10
510,105,1,1,43;                                                       21P     11
510,107,1,1,45;                                                       23P     12
508,4,0,111,1,1,0,0,111,2,1,0,0,111,3,1,0,0,111,4,1,0;                25P     13
508,4,0,111,4,0,0,0,111,5,0,0,0,111,6,1,0,0,111,7,0,0;                27P     14
508,6,0,111,3,0,0,0,111,8,1,0,0,111,9,0,0,0,111,10,1,0,0,111,11,      29P     15
1,0,0,111,5,1,0;                                                      29P     16
508,1,0,111,12,1,0;                                                   31P     17
508,4,0,111,13,1,0,0,111,14,1,0,0,111,9,1,0,0,111,15,1,0;             33P     18
508,4,0,111,14,0,0,0,111,16,0,0,0,111,17,0,0,0,111,10,0,0;            35P     19
508,4,0,111,18,0,0,0,111,19,1,0,0,111,12,0,0,0,111,19,0,0;            37P     20
508,1,0,111,18,1,0;                                                   39P     21
508,4,0,111,2,0,0,0,111,20,0,0,0,111,15,0,0,0,111,8,0,0;              41P     22
508,4,0,111,11,0,0,0,111,17,1,0,0,111,21,0,0,0,111,6,0,0;             43P     23
508,6,0,111,1,0,0,0,111,7,1,0,0,111,21,1,0,0,111,16,1,0,0,111,        45P     24
13,0,0,0,111,20,1,0;                                                  45P     25
126,2,2,0,0,0,0,-0.579192942598756,-0.579192942598756,                47P     26
-0.579192942598756,0.579192942598754,0.579192942598754,               47P     27
0.579192942598754,1.,0.836904664229949,1.,32.6407241589526,-5.,       47P     28
74.6073695061774,35.,-5.,80.,40.8861401730723,-5.,80.,                47P     29
-0.579192942598756,0.579192942598754,0.,0.,0.;                        47P     30
126,1,1,0,0,1,0,-0.5,-0.5,0.,0.,1.,1.,40.8861401730723,-5.,80.,       49P     31
40.8861401730723,0.,80.,-0.5,0.,0.,0.,0.;                             49P     32
126,2,2,0,0,0,0,-0.579192942598754,-0.579192942598754,                51P     33
-0.579192942598754,0.579192942598756,0.579192942598756,               51P     34
0.579192942598756,1.,0.836904664229949,1.,40.8861401730723,0.,        51P     35
80.,35.,0.,80.,32.6407241589526,0.,74.6073695061774,                  51P     36
-0.579192942598754,0.579192942598756,0.,0.,0.;                        51P     37
126,1,1,0,0,1,0,0.,0.,0.5,0.5,1.,1.,32.6407241589526,0.,              53P     38
74.6073695061774,32.6407241589526,-5.,74.6073695061774,0.,0.5,        53P     39
0.,0.,0.;                                                             53P     40
126,1,1,0,0,1,0,0.,0.,8.14351058097926,8.14351058097926,1.,1.,        55P     41
0.,0.,0.,32.6407241589526,0.,74.6073695061773,0.,                     55P     42
8.14351058097926,0.,0.,0.;                                            55P     43
126,1,1,0,0,1,0,0.,0.,0.5,0.5,1.,1.,0.,0.,0.,0.,-5.,0.,0.,0.5,        57P     44
0.,0.,0.;                                                             57P     45
126,1,1,0,0,1,0,-8.14351058097926,-8.14351058097926,0.,0.,1.,1.,      59P     46
32.6407241589526,-5.,74.6073695061773,0.,-5.,0.,                      59P     47
-8.14351058097926,0.,0.,0.,0.;                                        59P     48
126,1,1,0,0,1,0,0.588614017307229,0.588614017307229,                  61P     49
2.41138598269277,2.41138598269277,1.,1.,40.8861401730723,0.,80.,      61P     50
59.1138598269277,0.,80.,0.588614017307229,2.41138598269277,0.,        61P     51
0.,0.;                                                                61P     52
126,2,2,0,0,0,0,-0.579192942598754,-0.579192942598754,                63P     53
-0.579192942598754,0.579192942598755,0.579192942598755,               63P     54
0.579192942598755,1.,0.836904664229955,1.,67.3592758410474,0.,        63P     55
74.6073695061774,65.,0.,80.,59.1138598269277,0.,80.,                  63P     56
-0.579192942598754,0.579192942598755,0.,0.,0.;                        63P     57
126,1,1,0,0,1,0,0.58861401730723,0.58861401730723,                    65P     58
8.73212459828649,8.73212459828649,1.,1.,67.3592758410474,0.,          65P     59
74.6073695061774,100.,0.,0.,0.58861401730723,8.73212459828649,        65P     60
0.,0.,0.;                                                             65P     61
126,1,1,0,0,1,0,0.,0.,10.,10.,1.,1.,100.,0.,0.,0.,0.,0.,0.,10.,       67P     62
0.,0.,0.;                                                             67P     63
126,8,2,0,1,0,0,-3.14159265358979,-3.14159265358979,                  69P     64
-3.14159265358979,-1.5707963267949,-1.5707963267949,0.,0.,            69P     65
1.5707963267949,1.5707963267949,3.14159265358979,                     69P     66
3.14159265358979,3.14159265358979,1.,0.707106781186542,1.,            69P     67
0.707106781186542,1.,0.707106781186542,1.,0.707106781186542,1.,       69P     68
47.,0.,50.,47.,0.,47.,50.,0.,47.,53.,0.,47.,53.,0.,50.,53.,0.,        69P     69
53.,50.,0.,53.,47.,0.,53.,47.,0.,50.,-3.14159265358979,               69P     70
3.14159265358979,0.,0.,0.;                                            69P     71
126,2,2,0,0,0,0,-0.579192942598755,-0.579192942598755,                71P     72
-0.579192942598755,0.579192942598754,0.579192942598754,               71P     73
0.579192942598754,1.,0.836904664229955,1.,59.1138598269277,-5.,       71P     74
80.,65.,-5.,80.,67.3592758410474,-5.,74.6073695061774,                71P     75
-0.579192942598755,0.579192942598754,0.,0.,0.;                        71P     76
126,1,1,0,0,1,0,-0.5,-0.5,0.,0.,1.,1.,67.3592758410474,-5.,           73P     77
74.6073695061774,67.3592758410474,0.,74.6073695061774,-0.5,0.,        73P     78
0.,0.,0.;                                                             73P     79
126,1,1,0,0,1,0,0.,0.,0.5,0.5,1.,1.,59.1138598269277,0.,80.,          75P     80
59.1138598269277,-5.,80.,0.,0.5,0.,0.,0.;                             75P     81
126,1,1,0,0,1,0,-8.73212459828649,-8.73212459828649,                  77P     82
-0.588614017307229,-0.588614017307229,1.,1.,100.,-5.,0.,              77P     83
67.3592758410474,-5.,74.6073695061774,-8.73212459828649,              77P     84
-0.588614017307229,0.,0.,0.;                                          77P     85
126,1,1,0,0,1,0,0.,0.,0.5,0.5,1.,1.,100.,0.,0.,100.,-5.,0.,0.,        79P     86
0.5,0.,0.,0.;                                                         79P     87
126,8,2,0,1,0,0,-3.14159265358979,-3.14159265358979,                  81P     88
-3.14159265358979,-1.5707963267949,-1.5707963267949,0.,0.,            81P     89
1.5707963267949,1.5707963267949,3.14159265358979,                     81P     90
3.14159265358979,3.14159265358979,1.,0.707106781186542,1.,            81P     91
0.707106781186542,1.,0.707106781186542,1.,0.707106781186542,1.,       81P     92
47.,34.,50.,47.,34.,53.,50.,34.,53.,53.,34.,53.,53.,34.,50.,53.,      81P     93
34.,47.,50.,34.,47.,47.,34.,47.,47.,34.,50.,-3.14159265358979,        81P     94
3.14159265358979,0.,0.,0.;                                            81P     95
126,1,1,0,0,1,0,-11.3333333333333,-11.3333333333333,0.,0.,1.,1.,      83P     96
47.,34.,50.,47.,0.,50.,-11.3333333333333,0.,0.,0.,0.;                 83P     97
126,1,1,0,0,1,0,-2.41138598269277,-2.41138598269277,                  85P     98
-0.588614017307229,-0.588614017307229,1.,1.,59.1138598269277,         85P     99
-5.,80.,40.8861401730723,-5.,80.,-2.41138598269277,                   85P    100
-0.588614017307229,0.,0.,0.;                                          85P    101
126,1,1,0,0,1,0,-10.,-10.,0.,0.,1.,1.,0.,-5.,0.,100.,-5.,0.,          87P    102
-10.,0.,0.,0.,0.;                                                     87P    103
128,1,2,1,2,0,0,0,0,0,0.,0.,0.555555555555556,0.555555555555556,      89P    104
-0.579192942598754,-0.579192942598754,-0.579192942598754,             89P    105
0.579192942598756,0.579192942598756,0.579192942598756,1.,1.,          89P    106
0.836904664229955,0.836904664229955,1.,1.,40.8861401730723,-5.,       89P    107
80.,40.8861401730723,0.,80.,35.,-5.,80.,35.,0.,80.,                   89P    108
32.6407241589526,-5.,74.6073695061774,32.6407241589526,0.,            89P    109
74.6073695061774,0.,0.555555555555556,-0.579192942598754,             89P    110
0.579192942598756;                                                    89P    111
128,1,1,1,1,0,0,1,0,0,0.587614017307231,0.587614017307231,            91P    112
8.73312459828649,8.73312459828649,-0.001,-0.001,0.501,0.501,1.,       91P    113
1.,1.,1.,32.6447323472928,0.01,74.6165310795264,                      91P    114
-0.00400818834019656,0.01,-0.00916157334900802,32.6447323472928,      91P    115
-5.01,74.6165310795264,-0.00400818834019656,-5.01,                    91P    116
-0.00916157334900802,0.587614017307231,8.73312459828649,-0.001,       91P    117
0.501;                                                                91P    118
128,1,1,1,1,0,0,1,0,0,-5.001,-5.001,5.001,5.001,-4.001,-4.001,        93P    119
4.001,4.001,1.,1.,1.,1.,-0.0100000000000033,0.,80.01,100.01,0.,       93P    120
80.01,-0.0100000000000033,0.,-0.0100000000000033,100.01,0.,           93P    121
-0.0100000000000122,-5.001,5.001,-4.001,4.001;                        93P    122
128,1,2,1,2,0,0,0,0,0,0.,0.,0.555555555555556,0.555555555555556,      95P    123
-0.579192942598755,-0.579192942598755,-0.579192942598755,             95P    124
0.579192942598755,0.579192942598755,0.579192942598755,1.,1.,          95P    125
0.836904664229955,0.836904664229955,1.,1.,67.3592758410474,-5.,       95P    126
74.6073695061774,67.3592758410474,0.,74.6073695061774,65.,-5.,        95P    127
80.,65.,0.,80.,59.1138598269277,-5.,80.,59.1138598269277,0.,80.,      95P    128
0.,0.555555555555556,-0.579192942598755,0.579192942598755;            95P    129
128,1,1,1,1,0,0,1,0,0,-0.001,-0.001,8.14451058097926,                 97P    130
8.14451058097926,-0.001,-0.001,0.501,0.501,1.,1.,1.,1.,               97P    131
100.00400818834,0.01,-0.00916157334902189,67.3552676527072,0.01,      97P    132
74.6165310795264,100.00400818834,-5.01,-0.00916157334902189,          97P    133
67.3552676527072,-5.01,74.6165310795264,-0.001,8.14451058097926,      97P    134
-0.001,0.501;                                                         97P    135
128,1,8,1,2,0,1,0,0,1,0.,0.,11.3333333333333,11.3333333333333,        99P    136
-3.14159265358979,-3.14159265358979,-3.14159265358979,                99P    137
-1.5707963267949,-1.5707963267949,0.,0.,1.5707963267949,              99P    138
1.5707963267949,3.14159265358979,3.14159265358979,                    99P    139
3.14159265358979,1.,1.,0.707106781186548,0.707106781186548,1.,        99P    140
1.,0.707106781186548,0.707106781186548,1.,1.,0.707106781186548,       99P    141
0.707106781186548,1.,1.,0.707106781186548,0.707106781186548,1.,       99P    142
1.,47.,34.,50.,47.,0.,50.,47.,34.,53.,47.,0.,53.,50.,34.,53.,         99P    143
50.,0.,53.,53.,34.,53.,53.,0.,53.,53.,34.,50.,53.,0.,50.,53.,         99P    144
34.,47.,53.,0.,47.,50.,34.,47.,50.,0.,47.,47.,34.,47.,47.,0.,         99P    145
47.,47.,34.,50.,47.,0.,50.,0.,11.3333333333333,                       99P    146
-3.14159265358979,3.14159265358979;                                   99P    147
128,1,1,1,1,0,0,1,0,0,-0.301,-0.301,0.301,0.301,-0.301,-0.301,       101P    148
0.301,0.301,1.,1.,1.,1.,46.99,34.,53.01,53.01,34.,53.01,46.99,       101P    149
34.,46.99,53.01,34.,46.99,-0.301,0.301,-0.301,0.301;                 101P    150
128,1,1,1,1,0,0,1,0,0,0.587614017307231,0.587614017307231,           103P    151
2.41238598269277,2.41238598269277,-0.001,-0.001,0.501,0.501,1.,      103P    152
1.,1.,1.,59.1238598269277,0.01,80.,40.8761401730723,0.01,80.,        103P    153
59.1238598269277,-5.01,80.,40.8761401730723,-5.01,80.,               103P    154
0.587614017307231,2.41238598269277,-0.001,0.501;                     103P    155
128,1,1,1,1,0,0,1,0,0,-0.001,-0.001,10.001,10.001,-0.001,-0.001,     105P    156
0.501,0.501,1.,1.,1.,1.,-0.01,0.01,0.,100.01,0.01,0.,-0.01,          105P    157
-5.01,0.,100.01,-5.01,0.,-0.001,10.001,-0.001,0.501;                 105P    158
128,1,1,1,1,0,0,1,0,0,-4.001,-4.001,4.001,4.001,-5.001,-5.001,       107P    159
5.001,5.001,1.,1.,1.,1.,-0.0100000000000033,-5.,80.01,               107P    160
-0.0100000000000033,-5.,-0.0100000000000033,100.01,-5.,80.01,        107P    161
100.01,-5.,-0.0100000000000122,-4.001,4.001,-5.001,5.001;            107P    162
502,14,32.6407241589526,-5.,74.6073695061773,40.8861401730723,       109P    163
-5.,80.,40.8861401730723,0.,80.,32.6407241589526,0.,                 109P    164
74.6073695061773,0.,0.,0.,0.,-5.,0.,59.1138598269277,0.,80.,         109P    165
67.3592758410474,0.,74.6073695061774,100.,0.,0.,47.,0.,50.,          109P    166
59.1138598269277,-5.,80.,67.3592758410474,-5.,74.6073695061774,      109P    167
100.,-5.,0.,47.,34.,50.;                                             109P    168
504,21,47,109,1,109,2,49,109,2,109,3,51,109,3,109,4,53,109,4,        111P    169
109,1,55,109,5,109,4,57,109,5,109,6,59,109,1,109,6,61,109,3,109,     111P    170
7,63,109,8,109,7,65,109,8,109,9,67,109,9,109,5,69,109,10,109,10,     111P    171
71,109,11,109,12,73,109,12,109,8,75,109,7,109,11,77,109,13,109,      111P    172
12,79,109,9,109,13,81,109,14,109,14,83,109,14,109,10,85,109,11,      111P    173
109,2,87,109,6,109,13;                                               111P    174
406,1,5HBody1;                                                       113P    175
314,62.7450980392157,62.7450980392157,62.7450980392157,13HSteel      115P    176
- Satin;                                                             115P    177
S      1G      3D    116P    177                                        T      1
