0
SECTION
2
HEADER
9
$INSUNITS
70
4
9
$ACADVER
1
AC1014
9
$HANDSEED
5
FFFF
0
ENDSEC
0
SECTION
2
TABLES
0
TABLE
2
VPORT
5
8
100
AcDbSymbolTable
0
ENDTAB
0
TABLE
2
LTYPE
5
5
100
AcDbSymbolTable
0
LTYPE
5
14
100
AcDbSymbolTableRecord
100
AcDbLinetypeTableRecord
2
BYBLOCK
70
0
0
LTYPE
5
15
100
AcDbSymbolTableRecord
100
AcDbLinetypeTableRecord
2
BYLAYER
70
0
0
LTYPE
5
16
100
AcDbSymbolTableRecord
100
AcDbLinetypeTableRecord
2
DASHED
70
0
3
Dashed __ __ __ __ __ __ __ __ __ __ __ __ __ _
72
65
73
2
40
0.75
49
0.5
74
0
49
-0.25
74
0
0
ENDTAB
0
TABLE
2
LAYER
5
2
100
AcDbSymbolTable
70
2
0
LAYER
5
50
100
AcDbSymbolTableRecord
100
AcDbLayerTableRecord
2
0
70
0
62
7
6
CONTINUOUS
0
ENDTAB
0
TABLE
2
STYLE
5
3
100
AcDbSymbolTable
70
1
0
STYLE
5
11
100
AcDbSymbolTableRecord
100
AcDbTextStyleTableRecord
2
STANDARD
70
0
0
ENDTAB
0
TABLE
2
VIEW
5
6
100
AcDbSymbolTable
70
0
0
ENDTAB
0
TABLE
2
UCS
5
7
100
AcDbSymbolTable
70
0
0
ENDTAB
0
TABLE
2
APPID
5
9
100
AcDbSymbolTable
70
2
0
APPID
5
12
100
AcDbSymbolTableRecord
100
AcDbRegAppTableRecord
2
ACAD
70
0
0
ENDTAB
0
TABLE
2
DIMSTYLE
5
A
100
AcDbSymbolTable
70
1
0
ENDTAB
0
TABLE
2
BLOCK_RECORD
5
1
100
AcDbSymbolTable
70
1
0
BLOCK_RECORD
5
1F
100
AcDbSymbolTableRecord
100
AcDbBlockTableRecord
2
*MODEL_SPACE
0
BLOCK_RECORD
5
1B
100
AcDbSymbolTableRecord
100
AcDbBlockTableRecord
2
*PAPER_SPACE
0
ENDTAB
0
ENDSEC
0
SECTION
2
BLOCKS
0
BLOCK
5
20
100
AcDbEntity
100
AcDbBlockBegin
2
*MODEL_SPACE
0
ENDBLK
5
21
100
AcDbEntity
100
AcDbBlockEnd
0
BLOCK
5
1C
100
AcDbEntity
100
AcDbBlockBegin
2
*PAPER_SPACE
0
ENDBLK
5
1D
100
AcDbEntity
100
AcDbBlockEnd
0
ENDSEC
0
SECTION
2
ENTITIES
0
POINT
5
100
100
AcDbEntity
8
0
100
AcDbPoint
10
0
20
0
30
0
0
CIRCLE
5
101
100
AcDbEntity
8
0
100
AcDbCircle
10
0
20
0
30
0
40
5.000000074505806
210
0
220
0
230
1
0
CIRCLE
5
102
100
AcDbEntity
8
0
100
AcDbCircle
10
0
20
0
30
0
40
6.0000000000000009
210
0
220
0
230
1
0
CIRCLE
5
103
100
AcDbEntity
8
0
100
AcDbCircle
10
0
20
0
30
0
40
16
210
0
220
0
230
1
0
CIRCLE
5
104
100
AcDbEntity
8
0
100
AcDbCircle
10
0
20
0
30
0
40
17
210
0
220
0
230
1
0
CIRCLE
5
105
100
AcDbEntity
8
0
100
AcDbCircle
10
0
20
0
30
0
40
26.500000000000004
210
0
220
0
230
1
0
CIRCLE
5
106
100
AcDbEntity
8
0
100
AcDbCircle
10
0
20
0
30
0
40
27.5
210
0
220
0
230
1
0
CIRCLE
5
107
100
AcDbEntity
8
0
100
AcDbCircle
10
0
20
0
30
0
40
33
210
0
220
0
230
1
0
LINE
5
108
100
AcDbEntity
8
0
100
AcDbLine
10
-3.9045652491357901
20
4.5556964577593595
30
0
11
-9.6928941114638043
21
12.729799831260124
31
0
0
LINE
5
109
100
AcDbEntity
8
0
100
AcDbLine
10
-5.6564961384568111
20
2.0010126025648116
30
0
11
-15.120918089907516
21
5.2304718829478194
31
0
0
LINE
5
110
100
AcDbEntity
8
0
100
AcDbLine
10
-16.121641255842725
20
5.3937633631732318
30
0
11
-25.112734137515034
21
8.4617128371557975
31
0
0
LINE
5
111
100
AcDbEntity
8
0
100
AcDbLine
10
-24.374991169512942
20
10.397586522177463
30
0
11
-15.642546691479534
21
6.6566307547349179
31
0
0
LINE
5
112
100
AcDbEntity
8
0
100
AcDbLine
10
-15.446786987841401
20
7.0990683721354317
30
0
11
-24.09052024901905
21
11.040689930054345
31
0
0
LINE
5
113
100
AcDbEntity
8
0
100
AcDbLine
10
-15.080463691771334
20
7.8472679858130618
30
0
11
-23.429997137403696
21
12.380841414914203
31
0
0
LINE
5
114
100
AcDbEntity
8
0
100
AcDbLine
10
-14.829617368399713
20
8.311585210226605
30
0
11
-23.104631179952872
21
12.97790499419493
31
0
0
LINE
5
115
100
AcDbEntity
8
0
100
AcDbLine
10
-22.350534661026348
20
14.237401461160669
30
0
11
-14.391079815129466
21
9.0496862793454511
31
0
0
LINE
5
116
100
AcDbEntity
8
0
100
AcDbLine
10
-14.081690556133687
20
9.5239692923326587
30
0
11
-21.935846914955377
21
14.86837651270786
31
0
0
LINE
5
117
100
AcDbEntity
8
0
100
AcDbLine
10
-20.564184738291033
20
16.714194747263129
30
0
11
-13.254787878685949
21
10.644745102210766
31
0
0
LINE
5
118
100
AcDbEntity
8
0
100
AcDbLine
10
-26.549222003298354
20
7.1685989579260534
30
0
11
-31.875626808472152
21
8.5407502929784584
31
0
0
LINE
5
119
100
AcDbEntity
8
0
100
AcDbLine
10
-31.236027303563432
20
10.644745102210766
30
0
11
-26.069829941029042
21
8.7529404685411691
31
0
0
LINE
5
120
100
AcDbEntity
8
0
100
AcDbLine
10
-25.874544202468918
20
9.3143954347280111
30
0
11
-31.039225538255252
21
11.205644916082377
31
0
0
LINE
5
121
100
AcDbEntity
8
0
100
AcDbLine
10
-30.254122903770689
20
13.179076117981035
30
0
11
-25.244244051614753
21
10.907710220871895
31
0
0
LINE
5
122
100
AcDbEntity
8
0
100
AcDbLine
10
-5.8159031727141377
20
1.4748797529336541
30
0
11
-15.334733792038271
21
4.5657353764009994
31
0
0
LINE
5
123
100
AcDbEntity
8
0
100
AcDbLine
10
-5.9818563228254575
20
-0.46625629547824837
30
0
11
-15.890841131651454
21
-1.8657888756808225
31
0
0
LINE
5
124
100
AcDbEntity
8
0
100
AcDbLine
10
-5.8856088325608615
20
-1.1660225855795354
30
0
11
-15.762335937816626
21
-2.7475017349247444
31
0
0
LINE
5
125
100
AcDbEntity
8
0
100
AcDbLine
10
-3.2548198290256138
20
-5.0404511584362854
30
0
11
-8.4775402347126594
21
-13.56949931164846
31
0
0
LINE
5
126
100
AcDbEntity
8
0
100
AcDbLine
10
-7.8699606738604277
20
-13.930675467897826
30
0
11
-2.6391441892780083
21
-5.3884058819098009
31
0
0
LINE
5
127
100
AcDbEntity
8
0
100
AcDbLine
10
0.30648212085530391
20
-5.9921672798409134
30
0
11
1.4775670403751802
21
-15.931628781803727
31
0
0
LINE
5
128
100
AcDbEntity
8
0
100
AcDbLine
10
2.4796162418669461
20
-15.806691725122928
30
0
11
1.0899802186830865
21
-5.900164669132514
31
0
0
LINE
5
129
100
AcDbEntity
8
0
100
AcDbLine
10
2.2431450179767403
20
-5.5649169291487315
30
0
11
6.8422867479739278
21
-14.463163971223601
31
0
0
LINE
5
130
100
AcDbEntity
8
0
100
AcDbLine
10
7.5568773862397487
20
-14.102964375241765
30
0
11
2.9639736567071449
21
-5.2167863826637637
31
0
0
LINE
5
131
100
AcDbEntity
8
0
100
AcDbLine
10
5.7898481604587371
20
1.5740579019949021
30
0
11
15.216266377284493
21
4.9462346826168133
31
0
0
LINE
5
132
100
AcDbEntity
8
0
100
AcDbLine
10
14.932270750748462
20
5.7469374649757556
30
0
11
5.5751383867093773
21
2.2176185355104634
31
0
0
LINE
5
133
100
AcDbEntity
8
0
100
AcDbLine
10
12.352195941022908
20
10.169722485622568
30
0
11
4.8981179356678881
21
3.465319709390255
31
0
0
LINE
5
134
100
AcDbEntity
8
0
100
AcDbLine
10
4.2215348500088563
20
4.2636420476114925
30
0
11
11.661260511865608
21
10.955135931352194
31
0
0
LINE
5
135
100
AcDbEntity
8
0
100
AcDbLine
10
1.1172495726842244
20
5.8950617801967891
30
0
11
3.7963593718648792
21
15.543090282168915
31
0
0
LINE
5
136
100
AcDbEntity
8
0
100
AcDbLine
10
4.6866223224661745
20
15.298221177854693
30
0
11
2.0085235245389934
21
5.6538335004997675
31
0
0
LINE
5
137
100
AcDbEntity
8
0
100
AcDbLine
10
-3.1658509671731849
20
5.0968017082920358
30
0
11
-8.9039410795285825
21
13.293601214580022
31
0
0
LINE
5
138
100
AcDbEntity
8
0
100
AcDbLine
10
-16.571334787301701
20
3.7935291441037311
30
0
11
-25.889846788821032
21
5.6538335004997675
31
0
0
LINE
5
139
100
AcDbEntity
8
0
100
AcDbLine
10
-16.337521243003341
20
4.6995105739230594
30
0
11
-25.393644210158364
21
7.5771256903848849
31
0
0
LINE
5
140
100
AcDbEntity
8
0
100
AcDbLine
10
-26.399000384491629
20
2.3114451539266447
30
0
11
-16.921786811509051
21
1.6288434872136626
31
0
0
LINE
5
141
100
AcDbEntity
8
0
100
AcDbLine
10
-26.044984833762193
20
4.8896589869946414
30
0
11
-16.727860935841306
21
3.0296317451390911
31
0
0
LINE
5
142
100
AcDbEntity
8
0
100
AcDbLine
10
-26.463812725074334
20
1.3844190305662372
30
0
11
-16.985510367813667
21
0.70173894354994637
31
0
0
LINE
5
143
100
AcDbEntity
8
0
100
AcDbLine
10
-26.290492281035696
20
-3.3256601781906103
30
0
11
-16.897709493348895
21
-1.8620993202261502
31
0
0
LINE
5
144
100
AcDbEntity
8
0
100
AcDbLine
10
-26.190960200729926
20
-4.0352947555018996
30
0
11
-16.768505196651745
21
-2.7959315924863732
31
0
0
LINE
5
145
100
AcDbEntity
8
0
100
AcDbLine
10
-25.787101297231331
20
-6.1053588499227818
30
0
11
-16.583055865686951
21
-3.7419591333291793
31
0
0
LINE
5
146
100
AcDbEntity
8
0
100
AcDbLine
10
-7.4849327061252415
20
-25.420971310805118
30
0
11
-4.6905309266884281
21
-16.340101579420473
31
0
0
LINE
5
147
100
AcDbEntity
8
0
100
AcDbLine
10
-5.7669290687733819
20
-25.864889891815444
30
0
11
-3.8484334390369881
21
-16.558670238437085
31
0
0
LINE
5
148
100
AcDbEntity
8
0
100
AcDbLine
10
0
20
-26.500000000000004
30
0
11
0
21
-17
31
0
0
LINE
5
149
100
AcDbEntity
8
0
100
AcDbLine
10
-2.9509628455193293
20
-16.74191799897385
30
0
11
-4.8695838286206952
21
-26.048745715217002
31
0
0
LINE
5
150
100
AcDbEntity
8
0
100
AcDbLine
10
0.86605008699420682
20
-26.485844469203119
30
0
11
0.6304093381850685
21
-16.988307274897316
31
0
0
LINE
5
151
100
AcDbEntity
8
0
100
AcDbLine
10
1.8311121347521224
20
-16.901095477807452
30
0
11
2.9765065898818026
21
-26.332307314787101
31
0
0
LINE
5
152
100
AcDbEntity
8
0
100
AcDbLine
10
6.0603461876602518
20
-25.797717032437426
30
0
11
4.0067966010234874
21
-16.521064765868655
31
0
0
LINE
5
153
100
AcDbEntity
8
0
100
AcDbLine
10
5.3634401679058605
20
-16.13175469579469
30
0
11
8.5143628941555978
21
-25.094932247500221
31
0
0
LINE
5
154
100
AcDbEntity
8
0
100
AcDbLine
10
9.4324184978945382
20
-24.764480234411892
30
0
11
6.1018719768267378
21
-15.867172349805008
31
0
0
LINE
5
155
100
AcDbEntity
8
0
100
AcDbLine
10
11.760545595823055
20
-23.747411801890479
30
0
11
7.3571582479775763
21
-15.3255415080256
31
0
0
LINE
5
156
100
AcDbEntity
8
0
100
AcDbLine
10
12.604565542106352
20
-23.310403846667811
30
0
11
8.202163017202027
21
-14.890417114347178
31
0
0
LINE
5
157
100
AcDbEntity
8
0
100
AcDbLine
10
9.0465382913618129
20
-14.393058915426025
30
0
11
14.325553807927509
21
-22.294136181879164
31
0
0
LINE
5
158
100
AcDbEntity
8
0
100
AcDbLine
10
9.798837886976079
20
-13.891824072624958
30
0
11
15.191227764785243
21
-21.713511899239567
31
0
0
LINE
5
159
100
AcDbEntity
8
0
100
AcDbLine
10
10.295663905717591
20
-13.527723560913863
30
0
11
16.337122331418275
21
-20.865005006667854
31
0
0
LINE
5
160
100
AcDbEntity
8
0
100
AcDbLine
10
11.072718929205061
20
-12.899414541552808
30
0
11
17.112151263984671
21
-20.234235323295714
31
0
0
LINE
5
161
100
AcDbEntity
8
0
100
AcDbLine
10
11.874350659189714
20
-12.165516693613998
30
0
11
18.600321659875533
21
-18.875328716320816
31
0
0
LINE
5
162
100
AcDbEntity
8
0
100
AcDbLine
10
13.703274801577761
20
-10.06082798344371
30
0
11
21.17727638365157
21
-15.930253135792716
31
0
0
LINE
5
163
100
AcDbEntity
8
0
100
AcDbLine
10
15.931891255285361
20
-5.9308381388941882
30
0
11
24.934024464526523
21
-8.974654533874439
31
0
0
LINE
5
164
100
AcDbEntity
8
0
100
AcDbLine
10
16.221295302601998
20
-5.0862145752791843
30
0
11
25.277126772641271
21
-7.9571893354263068
31
0
0
LINE
5
165
100
AcDbEntity
8
0
100
AcDbLine
10
16.890110611845881
20
-1.9298091925398253
30
0
11
26.365502094281364
21
-2.6665144508225342
31
0
0
LINE
5
166
100
AcDbEntity
8
0
100
AcDbLine
10
16.966887458328316
20
-1.0605328738051434
30
0
11
26.439002452919365
21
-1.7969833873811907
31
0
0
LINE
5
167
100
AcDbEntity
8
0
100
AcDbLine
10
16.99019493768834
20
0.57730059704587622
30
0
11
26.477204182727366
21
1.0989352420250063
31
0
0
LINE
5
168
100
AcDbEntity
8
0
100
AcDbLine
10
26.413467818106117
20
2.139793873688252
30
0
11
16.935791153646768
21
1.4761361726005884
31
0
0
LINE
5
169
100
AcDbEntity
8
0
100
AcDbLine
10
16.613784121158325
20
3.6030788467014725
30
0
11
25.83333418565719
21
5.906677987850335
31
0
0
LINE
5
170
100
AcDbEntity
8
0
100
AcDbLine
10
25.621238729391877
20
6.7677267949814448
30
0
11
16.403291969937179
21
4.4645282560416808
31
0
0
LINE
5
171
100
AcDbEntity
8
0
100
AcDbLine
10
16.136272114209827
20
5.3498338531373468
30
0
11
25.053469602815102
21
8.6356042556858732
31
0
0
LINE
5
172
100
AcDbEntity
8
0
100
AcDbLine
10
24.678415038132449
20
9.6553524640832471
30
0
11
15.8244867599592
21
6.2117323496651098
31
0
0
LINE
5
173
100
AcDbEntity
8
0
100
AcDbLine
10
15.419700777373729
20
7.1577110822007972
30
0
11
24.044475045235984
21
11.140611284800507
31
0
0
LINE
5
174
100
AcDbEntity
8
0
100
AcDbLine
10
23.735383799852311
20
11.784801902183535
30
0
11
15.209889102816415
21
7.5933703636808403
31
0
0
LINE
5
175
100
AcDbEntity
8
0
100
AcDbLine
10
14.795039377822013
20
8.3729809392292367
30
0
11
23.055367944327877
21
13.06522135103952
31
0
0
LINE
5
176
100
AcDbEntity
8
0
100
AcDbLine
10
22.499999998380197
20
14.000000002603262
30
0
11
14.328044168204093
21
9.1491611808948186
31
0
0
LINE
5
177
100
AcDbEntity
8
0
100
AcDbLine
10
21.238762549773821
20
15.848184923022735
30
0
11
13.553021053279654
21
10.262339905175546
31
0
0
LINE
5
178
100
AcDbEntity
8
0
100
AcDbLine
10
12.198170913182624
20
11.84080345131974
30
0
11
19.14937179199519
21
18.318066491088494
31
0
0
LINE
5
179
100
AcDbEntity
8
0
100
AcDbLine
10
18.073611768401637
20
19.380262063375046
30
0
11
11.620979862951103
21
12.407772847086015
31
0
0
LINE
5
180
100
AcDbEntity
8
0
100
AcDbLine
10
11.144519691066115
20
12.837432798478039
30
0
11
17.639908237038423
21
19.775834682482156
31
0
0
LINE
5
181
100
AcDbEntity
8
0
100
AcDbLine
10
16.088883081994702
20
21.057014061207848
30
0
11
10.330539947246182
21
13.501109006239114
31
0
0
LINE
5
182
100
AcDbEntity
8
0
100
AcDbLine
10
9.8780182851312954
20
13.835633514899557
30
0
11
15.638149181433562
21
21.393884410719551
31
0
0
LINE
5
183
100
AcDbEntity
8
0
100
AcDbLine
10
14.615529505754235
20
22.105119254743407
30
0
11
9.3319226934663124
21
14.209687499842083
31
0
0
LINE
5
184
100
AcDbEntity
8
0
100
AcDbLine
10
7.3497718020911016
20
15.329085245284098
30
0
11
11.720085738111486
21
23.767406048858504
31
0
0
LINE
5
185
100
AcDbEntity
8
0
100
AcDbLine
10
9.9712879422442882
20
24.552462539893099
30
0
11
6.3490742524031285
21
15.769884468107929
31
0
0
LINE
5
186
100
AcDbEntity
8
0
100
AcDbLine
10
9.2924141973010457
20
24.81735357337277
30
0
11
5.8178142935229529
21
15.973510473470762
31
0
0
LINE
5
187
100
AcDbEntity
8
0
100
AcDbLine
10
7.4163617835783224
20
25.441060864183299
30
0
11
4.7967272932716467
21
16.309243001254931
31
0
0
LINE
5
188
100
AcDbEntity
8
0
100
AcDbLine
10
6.3490742524031285
20
25.728180194826678
30
0
11
3.8859413552899511
21
16.549908150296403
31
0
0
LINE
5
189
100
AcDbEntity
8
0
100
AcDbLine
10
3.8859413552899511
20
26.213535812309779
30
0
11
2.6171332192626151
21
16.797339483163164
31
0
0
LINE
5
190
100
AcDbEntity
8
0
100
AcDbLine
10
3.1138357538377353
20
26.31642124032297
30
0
11
1.8449422482881035
21
16.899591358979116
31
0
0
LINE
5
191
100
AcDbEntity
8
0
100
AcDbLine
10
1.2407566392190081
20
26.470937326854035
30
0
11
0.91996822865919758
21
16.97508935052354
31
0
0
LINE
5
192
100
AcDbEntity
8
0
100
AcDbLine
10
0.63342727594124282
20
26.492428538850376
30
0
11
0.31265724481139634
21
16.997124622925696
31
0
0
LINE
5
193
100
AcDbEntity
8
0
100
AcDbLine
10
-1.1754576779185968
20
26.473917338531944
30
0
11
-0.80956743173784584
21
16.980712604995983
31
0
0
LINE
5
194
100
AcDbEntity
8
0
100
AcDbLine
10
-1.8147677543119758
20
26.437787691066546
30
0
11
-1.4486301871945733
21
16.938166092607212
31
0
0
LINE
5
195
100
AcDbEntity
8
0
100
AcDbLine
10
-4.2572005027353734
20
26.155807077578579
30
0
11
-2.5894502642303174
21
16.801629305786911
31
0
0
LINE
5
196
100
AcDbEntity
8
0
100
AcDbLine
10
-4.9119187032549236
20
26.040795968107705
30
0
11
-3.4233253834828457
21
16.651751959442649
31
0
0
LINE
5
197
100
AcDbEntity
8
0
100
AcDbLine
10
-6.7745678089800707
20
25.619430731410311
30
0
11
-4.3029203594133048
21
16.446424425404647
31
0
0
LINE
5
198
100
AcDbEntity
8
0
100
AcDbLine
10
-7.4271619587792372
20
25.437910001375169
30
0
11
-4.6925184880534907
21
16.339530906341107
31
0
0
LINE
5
199
100
AcDbEntity
8
0
100
AcDbLine
10
-8.648482314580475
20
25.049027000152897
30
0
11
-5.5387440841966873
21
16.072408468234507
31
0
0
LINE
5
200
100
AcDbEntity
8
0
100
AcDbLine
10
-9.2604005887539103
20
24.829316964745654
30
0
11
-5.9346911394467678
21
15.930456398966481
31
0
0
LINE
5
201
100
AcDbEntity
8
0
100
AcDbLine
10
-10.543894191053404
20
24.312060696038714
30
0
11
-6.7389102097322473
21
15.60727680234981
31
0
0
LINE
5
202
100
AcDbEntity
8
0
100
AcDbLine
10
-11.07980729106033
20
24.072554297227509
30
0
11
-7.2737459595719329
21
15.365305715006485
31
0
0
LINE
5
203
100
AcDbEntity
8
0
100
AcDbLine
10
-12.50730237781818
20
23.362735011762297
30
0
11
-7.9999999994070112
21
15.000000000316263
31
0
0
LINE
5
204
100
AcDbEntity
8
0
100
AcDbLine
10
-13.146225508482541
20
23.009275409715165
30
0
11
-8.4460085270788863
21
14.753472132366362
31
0
0
LINE
5
205
100
AcDbEntity
8
0
100
AcDbLine
10
-15.218204823304093
20
21.694613201344804
30
0
11
-9.586433167407387
21
14.039241401401704
31
0
0
LINE
5
206
100
AcDbEntity
8
0
100
AcDbLine
10
-15.961224563943002
20
21.153943141158877
30
0
11
-10.331038901054432
21
13.500727210965344
31
0
0
LINE
5
207
100
AcDbEntity
8
0
100
AcDbLine
10
-17.597822583538104
20
19.813294534688481
30
0
11
-11.241112524609589
21
12.752936493571411
31
0
0
LINE
5
208
100
AcDbEntity
8
0
100
AcDbLine
10
-23.185491111881781
20
23.48261062788486
30
0
11
-19.265053966698943
21
19.62416101799456
31
0
0
LINE
5
209
100
AcDbEntity
8
0
100
AcDbLine
10
-22.169556444744316
20
24.444033362833064
30
0
11
-18.489457476542583
21
20.356570492671985
31
0
0
LINE
5
210
100
AcDbEntity
8
0
100
AcDbLine
10
-21.544905221843219
20
24.996340911857335
30
0
11
-17.863802489042438
21
20.907763166644134
31
0
0
LINE
5
211
100
AcDbEntity
8
0
100
AcDbLine
10
-20.585734064595556
20
25.792005602933447
30
0
11
-17.079272805582256
21
21.55338582293971
31
0
0
LINE
5
212
100
AcDbEntity
8
0
100
AcDbLine
10
-17.974788743672448
20
27.675024293039854
30
0
11
-14.865748055649604
21
23.135676664968116
31
0
0
LINE
5
213
100
AcDbEntity
8
0
100
AcDbLine
10
-16.270449307832511
20
28.710145929988805
30
0
11
-13.653647043634738
21
23.871068731999504
31
0
0
LINE
5
214
100
AcDbEntity
8
0
100
AcDbLine
10
-15.795186910533758
20
28.974334685395334
30
0
11
-13.033905236698571
21
24.215022491849179
31
0
0
LINE
5
215
100
AcDbEntity
8
0
100
AcDbLine
10
-14.075873099932386
20
29.847442042402896
30
0
11
-11.769763454483044
21
24.854027203363145
31
0
0
LINE
5
216
100
AcDbEntity
8
0
100
AcDbLine
10
-10.615956552073841
20
31.245823184619105
30
0
11
-8.8282324990820147
21
26.044429556858262
31
0
0
LINE
5
217
100
AcDbEntity
8
0
100
AcDbLine
10
-9.5265695936375234
20
31.595007070383467
30
0
11
-7.9765842743439226
21
26.317752626588181
31
0
0
LINE
5
218
100
AcDbEntity
8
0
100
AcDbLine
10
-8.6437646681740912
20
31.847846589074518
30
0
11
-7.1987641738000709
21
26.54105865202088
31
0
0
LINE
5
219
100
AcDbEntity
8
0
100
AcDbLine
10
-7.5091952497820955
20
32.134280553649404
30
0
11
-6.3363269242462312
21
26.760062800917943
31
0
0
LINE
5
220
100
AcDbEntity
8
0
100
AcDbLine
10
-0.70402142518511057
20
32.992489354895312
30
0
11
-0.52922660256334841
21
27.49490715029129
31
0
0
LINE
5
221
100
AcDbEntity
8
0
100
AcDbLine
10
0.53274194307515321
20
32.995699507997834
30
0
11
0.40958318837209357
21
27.496949678315286
31
0
0
LINE
5
222
100
AcDbEntity
8
0
100
AcDbLine
10
1.4606270076087424
20
32.967659436857872
30
0
11
1.1771835129490869
21
27.474792792245783
31
0
0
LINE
5
223
100
AcDbEntity
8
0
100
AcDbLine
10
2.6616479158982735
20
32.892485925691211
30
0
11
2.1566340092613592
21
27.415304662726207
31
0
0
LINE
5
224
100
AcDbEntity
8
0
100
AcDbLine
10
13.406811648781309
20
30.153895294208706
30
0
11
11.103169199952315
21
25.15888776788891
31
0
0
LINE
5
225
100
AcDbEntity
8
0
100
AcDbLine
10
12.254990424366813
20
24.618391696020229
30
0
11
14.83924563249386
21
29.475359014921466
31
0
0
LINE
5
226
100
AcDbEntity
8
0
100
AcDbLine
10
25.496250815066865
20
20.950923473088302
30
0
11
21.196340264665277
21
17.520421210248614
31
0
0
LINE
5
227
100
AcDbEntity
8
0
100
AcDbLine
10
22.391489636589384
20
15.964685773747949
30
0
11
26.813968553050312
21
19.235672341668458
31
0
0
LINE
5
228
100
AcDbEntity
8
0
100
AcDbLine
10
30.534574737620687
20
12.515580114108051
30
0
11
25.474704519924167
21
10.358061093783689
31
0
0
LINE
5
229
100
AcDbEntity
8
0
100
AcDbLine
10
25.819262289494898
20
9.4665566509827954
30
0
11
30.995056237487582
21
11.327245421327387
31
0
0
LINE
5
230
100
AcDbEntity
8
0
100
AcDbLine
10
31.734548018406979
20
9.0508818392144477
30
0
11
26.4503757361182
21
7.5251327840889024
31
0
0
LINE
5
231
100
AcDbEntity
8
0
100
AcDbLine
10
26.730755700733862
20
6.4588466205418049
30
0
11
32.050455884849846
21
7.8592797108446399
31
0
0
LINE
5
232
100
AcDbEntity
8
0
100
AcDbLine
10
32.513580013438855
20
5.6450965190782583
30
0
11
27.100198910513072
21
4.6721749764564731
31
0
0
LINE
5
233
100
AcDbEntity
8
0
100
AcDbLine
10
27.245427612423544
20
3.7331855319804963
30
0
11
32.689591263772961
21
4.5155977464183605
31
0
0
LINE
5
234
100
AcDbEntity
8
0
100
AcDbLine
10
32.762916426775789
20
3.9485829372200261
30
0
11
27.29947210928335
21
3.3149392987595752
31
0
0
LINE
5
235
100
AcDbEntity
8
0
100
AcDbLine
10
27.386105220298322
20
2.5002481602331068
30
0
11
32.864292929804797
21
2.9896906569045805
31
0
0
LINE
5
236
100
AcDbEntity
8
0
100
AcDbLine
10
32.93366752945942
20
2.0913017618292926
30
0
11
27.439542186498436
21
1.8225050330171064
31
0
0
LINE
5
237
100
AcDbEntity
8
0
100
AcDbLine
10
27.484862630126926
20
0.91231913443290069
30
0
11
32.987386586344599
21
0.91231913443290069
31
0
0
LINE
5
238
100
AcDbEntity
8
0
100
AcDbLine
10
32.982159142966324
20
-1.0849784643223179
30
0
11
27.484883200766873
21
-0.91169920489316547
31
0
0
LINE
5
239
100
AcDbEntity
8
0
100
AcDbLine
10
27.439542186498436
20
-1.8225050330171015
30
0
11
32.930565550251046
21
-2.1395916761427323
31
0
0
LINE
5
240
100
AcDbEntity
8
0
100
AcDbLine
10
32.775691730616366
20
-3.8410977050325101
30
0
11
27.319856936723852
21
-3.142517614420286
31
0
0
LINE
5
241
100
AcDbEntity
8
0
100
AcDbLine
10
27.187470737400183
20
-4.1341788668378623
30
0
11
32.608207607480765
21
-5.0699898054565873
31
0
0
LINE
5
242
100
AcDbEntity
8
0
100
AcDbLine
10
5.5374823879539008
20
-32.532080917197725
30
0
11
4.5999685165052915
21
-27.112548564219487
31
0
0
LINE
5
243
100
AcDbEntity
8
0
100
AcDbLine
10
3.5952490906387649
20
-27.263972270677304
30
0
11
4.2285979324837006
21
-32.727953793743282
31
0
0
LINE
5
244
100
AcDbEntity
8
0
100
AcDbLine
10
3.0894739019893298
20
-27.325906224843244
30
0
11
3.663378338675904
21
-32.796031149328371
31
0
0
LINE
5
245
100
AcDbEntity
8
0
100
AcDbLine
10
2.6689821828150073
20
-32.891891616442742
30
0
11
2.3995716849338447
21
-27.395110069661399
31
0
0
LINE
5
246
100
AcDbEntity
8
0
100
AcDbLine
10
2.2275660297785596
20
-32.924731579512937
30
0
11
1.8642516647994458
21
-27.436737519798022
31
0
0
LINE
5
247
100
AcDbEntity
8
0
100
AcDbLine
10
1.2644911825677632
20
-32.97576476822347
30
0
11
1.0931862614007339
21
-27.478263114649089
31
0
0
LINE
5
248
100
AcDbEntity
8
0
100
AcDbLine
10
0.77070305234373193
20
-32.990999027084769
30
0
11
0.59939718208092529
21
-27.493466915216665
31
0
0
LINE
5
249
100
AcDbEntity
8
0
100
AcDbLine
10
-0.98285171457585363
20
-32.985360427122139
30
0
11
-0.86068951007054972
21
-27.48652785579246
31
0
0
LINE
5
250
100
AcDbEntity
8
0
100
AcDbLine
10
-1.7715905001236745
20
-32.952412159049473
30
0
11
-1.5107882413767451
21
-27.458468982988066
31
0
0
LINE
5
251
100
AcDbEntity
8
0
100
AcDbLine
10
-4.0580746835943584
20
-32.749534803755161
30
0
11
-3.3505462533126016
21
-27.295124835845922
31
0
0
LINE
5
252
100
AcDbEntity
8
0
100
AcDbLine
10
-30.382310538034211
20
-12.880807675392706
30
0
11
-25.409321185380257
21
-10.51743299946266
31
0
0
LINE
5
253
100
AcDbEntity
8
0
100
AcDbLine
10
-26.135378504463461
20
-8.5552317577274994
30
0
11
-31.400561152259314
21
-10.149126037409495
31
0
0
LINE
5
254
100
AcDbEntity
8
0
100
AcDbLine
10
-26.39372767011286
20
-7.7214726364806063
30
0
11
-31.647065422687689
21
-9.3521788975684963
31
0
0
LINE
5
255
100
AcDbEntity
8
0
100
AcDbLine
10
-26.692062861513413
20
-6.6169313278147568
30
0
11
-32.019302974159714
21
-7.9852512201537431
31
0
0
LINE
5
256
100
AcDbEntity
8
0
100
AcDbLine
10
-26.842703693012474
20
-5.9765590810377205
30
0
11
-32.212073514548173
21
-7.1681461964265392
31
0
0
LINE
5
257
100
AcDbEntity
8
0
100
AcDbLine
10
-27.101627987988365
20
-4.6638782574897695
30
0
11
-32.505492830103577
21
-5.6914792340906439
31
0
0
ENDSEC
0
SECTION
2
OBJECTS
0
DICTIONARY
5
C
100
AcDbDictionary
3
ACAD_GROUP
350
D
3
ACAD_MLINESTYLE
350
17
0
DICTIONARY
5
D
100
AcDbDictionary
0
DICTIONARY
5
1A
330
C
100
AcDbDictionary
0
DICTIONARY
5
17
100
AcDbDictionary
0
ENDSEC
0
EOF
