0
SECTION
2
HEADER
9
$INSUNITS
70
4
9
$ACADVER
1
AC1014
9
$HANDSEED
5
FFFF
0
ENDSEC
0
SECTION
2
TABLES
0
TABLE
2
VPORT
5
8
100
AcDbSymbolTable
0
ENDTAB
0
TABLE
2
LTYPE
5
5
100
AcDbSymbolTable
0
LTYPE
5
14
100
AcDbSymbolTableRecord
100
AcDbLinetypeTableRecord
2
BYBLOCK
70
0
0
LTYPE
5
15
100
AcDbSymbolTableRecord
100
AcDbLinetypeTableRecord
2
BYLAYER
70
0
0
LTYPE
5
16
100
AcDbSymbolTableRecord
100
AcDbLinetypeTableRecord
2
DASHED
70
0
3
Dashed __ __ __ __ __ __ __ __ __ __ __ __ __ _
72
65
73
2
40
0.75
49
0.5
74
0
49
-0.25
74
0
0
ENDTAB
0
TABLE
2
LAYER
5
2
100
AcDbSymbolTable
70
2
0
LAYER
5
50
100
AcDbSymbolTableRecord
100
AcDbLayerTableRecord
2
0
70
0
62
7
6
CONTINUOUS
0
ENDTAB
0
TABLE
2
STYLE
5
3
100
AcDbSymbolTable
70
1
0
STYLE
5
11
100
AcDbSymbolTableRecord
100
AcDbTextStyleTableRecord
2
STANDARD
70
0
0
ENDTAB
0
TABLE
2
VIEW
5
6
100
AcDbSymbolTable
70
0
0
ENDTAB
0
TABLE
2
UCS
5
7
100
AcDbSymbolTable
70
0
0
ENDTAB
0
TABLE
2
APPID
5
9
100
AcDbSymbolTable
70
2
0
APPID
5
12
100
AcDbSymbolTableRecord
100
AcDbRegAppTableRecord
2
ACAD
70
0
0
ENDTAB
0
TABLE
2
DIMSTYLE
5
A
100
AcDbSymbolTable
70
1
0
ENDTAB
0
TABLE
2
BLOCK_RECORD
5
1
100
AcDbSymbolTable
70
1
0
BLOCK_RECORD
5
1F
100
AcDbSymbolTableRecord
100
AcDbBlockTableRecord
2
*MODEL_SPACE
0
BLOCK_RECORD
5
1B
100
AcDbSymbolTableRecord
100
AcDbBlockTableRecord
2
*PAPER_SPACE
0
ENDTAB
0
ENDSEC
0
SECTION
2
BLOCKS
0
BLOCK
5
20
100
AcDbEntity
100
AcDbBlockBegin
2
*MODEL_SPACE
0
ENDBLK
5
21
100
AcDbEntity
100
AcDbBlockEnd
0
BLOCK
5
1C
100
AcDbEntity
100
AcDbBlockBegin
2
*PAPER_SPACE
0
ENDBLK
5
1D
100
AcDbEntity
100
AcDbBlockEnd
0
ENDSEC
0
SECTION
2
ENTITIES
0
POINT
5
100
100
AcDbEntity
8
0
100
AcDbPoint
10
0
20
0
30
0
0
LINE
5
101
100
AcDbEntity
8
0
100
AcDbLine
10
0
20
0
30
0
11
-140.00000208616257
21
0
31
0
0
CIRCLE
5
102
100
AcDbEntity
8
0
100
AcDbCircle
10
-140.00000208616257
20
0
30
0
40
2.75
210
0
220
0
230
1
0
CIRCLE
5
103
100
AcDbEntity
8
0
100
AcDbCircle
10
-140.00000208616257
20
0
30
0
40
3.25
210
0
220
0
230
1
0
CIRCLE
5
104
100
AcDbEntity
8
0
100
AcDbCircle
10
-140.00000208616257
20
0
30
0
40
8.75
210
0
220
0
230
1
0
CIRCLE
5
105
100
AcDbEntity
8
0
100
AcDbCircle
10
-140.00000208616257
20
0
30
0
40
9.25
210
0
220
0
230
1
0
CIRCLE
5
106
100
AcDbEntity
8
0
100
AcDbCircle
10
-140.00000208616257
20
0
30
0
40
14.500000000000002
210
0
220
0
230
1
0
CIRCLE
5
107
100
AcDbEntity
8
0
100
AcDbCircle
10
-140.00000208616257
20
0
30
0
40
15.000000000000002
210
0
220
0
230
1
0
CIRCLE
5
108
100
AcDbEntity
8
0
100
AcDbCircle
10
-140.00000208616257
20
0
30
0
40
20
210
0
220
0
230
1
0
LINE
5
109
100
AcDbEntity
8
0
100
AcDbLine
10
-145.74254346820459
20
-19.157850048362285
30
0
11
-144.27594530450475
21
-14.377632266597784
31
0
0
LINE
5
110
100
AcDbEntity
8
0
100
AcDbLine
10
-142.14017107560366
20
-8.9990097620035225
30
0
11
-144.40624356244354
21
-19.508588776554319
31
0
0
LINE
5
111
100
AcDbEntity
8
0
100
AcDbLine
10
-141.67625242663087
20
-9.0968502678718384
30
0
11
-143.94256744946529
21
-19.607554114577521
31
0
0
LINE
5
112
100
AcDbEntity
8
0
100
AcDbLine
10
-140.09009575098241
20
-9.2495612399485907
30
0
11
-139.99999687075615
21
-19.999999552965164
31
0
0
LINE
5
113
100
AcDbEntity
8
0
100
AcDbLine
10
-142.17659274611771
20
-14.841241629290865
30
0
11
-142.87495815747494
21
-19.792287073201624
31
0
0
LINE
5
114
100
AcDbEntity
8
0
100
AcDbLine
10
-142.52577545179631
20
-19.839870687720097
30
0
11
-141.88418475563071
21
-14.881191339004952
31
0
0
LINE
5
115
100
AcDbEntity
8
0
100
AcDbLine
10
-141.53585434990441
20
-14.921164760968196
30
0
11
-142.0040452789637
21
-19.89934197106496
31
0
0
LINE
5
116
100
AcDbEntity
8
0
100
AcDbLine
10
-141.62777183033944
20
-19.933649080385216
30
0
11
-141.21957318151473
21
-14.950339338736816
31
0
0
LINE
5
117
100
AcDbEntity
8
0
100
AcDbLine
10
-140.89196357370324
20
-14.973456671882557
30
0
11
-141.08505866225249
21
-19.97054461517472
31
0
0
LINE
5
118
100
AcDbEntity
8
0
100
AcDbLine
10
-140.72786770938674
20
-19.98675090239853
30
0
11
-140.53480354394463
21
-14.990463215016215
31
0
0
LINE
5
119
100
AcDbEntity
8
0
100
AcDbLine
10
-144.27594530450475
20
-14.377632266597784
30
0
11
-142.58930283569947
21
-8.8802039181793333
31
0
0
LINE
5
120
100
AcDbEntity
8
0
100
AcDbLine
10
-139.8052428712495
20
-3.2441591897141002
30
0
11
-138.29999690875411
21
-14.399999678134918
31
0
0
LINE
5
121
100
AcDbEntity
8
0
100
AcDbLine
10
-139.62002799165089
20
-14.49502051352464
30
0
11
-139.62002799165089
21
-9.2421923636927197
31
0
0
LINE
5
122
100
AcDbEntity
8
0
100
AcDbLine
10
-133.59962266242286
20
-13.010962425284658
30
0
11
-138.76041278843735
21
-3.0043166232880854
31
0
0
LINE
5
123
100
AcDbEntity
8
0
100
AcDbLine
10
-138.31373234865129
20
-2.7783078253414768
30
0
11
-133.15432158402106
21
-12.782279079358254
31
0
0
LINE
5
124
100
AcDbEntity
8
0
100
AcDbLine
10
-134.92861802931708
20
-13.584221131444131
30
0
11
-136.73715039379334
21
-8.6554201997131983
31
0
0
LINE
5
125
100
AcDbEntity
8
0
100
AcDbLine
10
-135.39097682193454
20
-13.747977528120563
30
0
11
-137.20059257143819
21
-8.8162240425746088
31
0
0
LINE
5
126
100
AcDbEntity
8
0
100
AcDbLine
10
-136.73715039379334
20
-14.128120852880727
30
0
11
-137.85595335169882
21
-8.9980861867535129
31
0
0
LINE
5
127
100
AcDbEntity
8
0
100
AcDbLine
10
-138.63182762434209
20
-8.6423722809204566
30
0
11
-139.36779170719362
21
-3.1879162530913421
31
0
0
LINE
5
128
100
AcDbEntity
8
0
100
AcDbLine
10
-132.15948039554979
20
-12.197385769870138
30
0
11
-135.09938605241024
21
-7.8451553515357251
31
0
0
LINE
5
129
100
AcDbEntity
8
0
100
AcDbLine
10
-131.73366537102902
20
-11.912920603782908
30
0
11
-134.67273582485578
21
-7.5619266183388874
31
0
0
LINE
5
130
100
AcDbEntity
8
0
100
AcDbLine
10
-134.45774921293778
20
-7.4058040136930252
30
0
11
-131.1144805828244
21
-11.45851245204695
31
0
0
LINE
5
131
100
AcDbEntity
8
0
100
AcDbLine
10
-133.98194358146236
20
-7.0246332170445269
30
0
11
-130.64069243386251
21
-11.074896064178795
31
0
0
LINE
5
132
100
AcDbEntity
8
0
100
AcDbLine
10
-133.58917171600541
20
-6.6681147234484985
30
0
11
-129.82527504685481
21
-10.330775850611577
31
0
0
LINE
5
133
100
AcDbEntity
8
0
100
AcDbLine
10
-128.39999713003635
20
-8.6999998055398464
30
0
11
-132.53086234937678
21
-5.4565970707362563
31
0
0
LINE
5
134
100
AcDbEntity
8
0
100
AcDbLine
10
-126.39335500284281
20
-5.0109036260923778
30
0
11
-131.35572588326713
21
-3.2922619774336552
31
0
0
LINE
5
135
100
AcDbEntity
8
0
100
AcDbLine
10
-131.17336859151536
20
-2.7664130478241895
30
0
11
-121.04101101239722
21
-6.368410905782218
31
0
0
LINE
5
136
100
AcDbEntity
8
0
100
AcDbLine
10
-130.81105866531033
20
-1.0610460915418687
30
0
11
-120.1041234908095
21
-2.0381400636294384
31
0
0
ENDSEC
0
SECTION
2
OBJECTS
0
DICTIONARY
5
C
100
AcDbDictionary
3
ACAD_GROUP
350
D
3
ACAD_MLINESTYLE
350
17
0
DICTIONARY
5
D
100
AcDbDictionary
0
DICTIONARY
5
1A
330
C
100
AcDbDictionary
0
DICTIONARY
5
17
100
AcDbDictionary
0
ENDSEC
0
EOF
