0
SECTION
2
HEADER
9
$INSUNITS
70
4
9
$ACADVER
1
AC1014
9
$HANDSEED
5
FFFF
0
ENDSEC
0
SECTION
2
TABLES
0
TABLE
2
VPORT
5
8
100
AcDbSymbolTable
0
ENDTAB
0
TABLE
2
LTYPE
5
5
100
AcDbSymbolTable
0
LTYPE
5
14
100
AcDbSymbolTableRecord
100
AcDbLinetypeTableRecord
2
BYBLOCK
70
0
0
LTYPE
5
15
100
AcDbSymbolTableRecord
100
AcDbLinetypeTableRecord
2
BYLAYER
70
0
0
LTYPE
5
16
100
AcDbSymbolTableRecord
100
AcDbLinetypeTableRecord
2
DASHED
70
0
3
Dashed __ __ __ __ __ __ __ __ __ __ __ __ __ _
72
65
73
2
40
0.75
49
0.5
74
0
49
-0.25
74
0
0
ENDTAB
0
TABLE
2
LAYER
5
2
100
AcDbSymbolTable
70
2
0
LAYER
5
50
100
AcDbSymbolTableRecord
100
AcDbLayerTableRecord
2
0
70
0
62
7
6
CONTINUOUS
0
ENDTAB
0
TABLE
2
STYLE
5
3
100
AcDbSymbolTable
70
1
0
STYLE
5
11
100
AcDbSymbolTableRecord
100
AcDbTextStyleTableRecord
2
STANDARD
70
0
0
ENDTAB
0
TABLE
2
VIEW
5
6
100
AcDbSymbolTable
70
0
0
ENDTAB
0
TABLE
2
UCS
5
7
100
AcDbSymbolTable
70
0
0
ENDTAB
0
TABLE
2
APPID
5
9
100
AcDbSymbolTable
70
2
0
APPID
5
12
100
AcDbSymbolTableRecord
100
AcDbRegAppTableRecord
2
ACAD
70
0
0
ENDTAB
0
TABLE
2
DIMSTYLE
5
A
100
AcDbSymbolTable
70
1
0
ENDTAB
0
TABLE
2
BLOCK_RECORD
5
1
100
AcDbSymbolTable
70
1
0
BLOCK_RECORD
5
1F
100
AcDbSymbolTableRecord
100
AcDbBlockTableRecord
2
*MODEL_SPACE
0
BLOCK_RECORD
5
1B
100
AcDbSymbolTableRecord
100
AcDbBlockTableRecord
2
*PAPER_SPACE
0
ENDTAB
0
ENDSEC
0
SECTION
2
BLOCKS
0
BLOCK
5
20
100
AcDbEntity
100
AcDbBlockBegin
2
*MODEL_SPACE
0
ENDBLK
5
21
100
AcDbEntity
100
AcDbBlockEnd
0
BLOCK
5
1C
100
AcDbEntity
100
AcDbBlockBegin
2
*PAPER_SPACE
0
ENDBLK
5
1D
100
AcDbEntity
100
AcDbBlockEnd
0
ENDSEC
0
SECTION
2
ENTITIES
0
CIRCLE
5
100
100
AcDbEntity
8
0
100
AcDbCircle
10
0
20
0
30
0
40
33
210
0
220
-0
230
1
0
LINE
5
101
100
AcDbEntity
8
0
100
AcDbLine
10
0
20
0
30
0
11
-32.999999999999957
21
-5.5511151231257827e-16
31
0
0
CIRCLE
5
102
100
AcDbEntity
8
0
100
AcDbCircle
10
0
20
0
30
0
40
4.5000000000000018
210
0
220
0
230
1
0
CIRCLE
5
103
100
AcDbEntity
8
0
100
AcDbCircle
10
0
20
0
30
0
40
6.0000000000000018
210
0
220
0
230
1
0
CIRCLE
5
104
100
AcDbEntity
8
0
100
AcDbCircle
10
0
20
0
30
0
40
7.5000000000000018
210
0
220
0
230
1
0
CIRCLE
5
105
100
AcDbEntity
8
0
100
AcDbCircle
10
0
20
0
30
0
40
9.0000000000000018
210
0
220
0
230
1
0
CIRCLE
5
106
100
AcDbEntity
8
0
100
AcDbCircle
10
0
20
0
30
0
40
12.000000000000002
210
0
220
0
230
1
0
CIRCLE
5
107
100
AcDbEntity
8
0
100
AcDbCircle
10
0
20
0
30
0
40
10.500000000000004
210
0
220
0
230
1
0
LINE
5
108
100
AcDbEntity
8
0
100
AcDbLine
10
0
20
0
30
0
11
9.8298245314678976
21
-6.882917236212557
31
0
0
LINE
5
109
100
AcDbEntity
8
0
100
AcDbLine
10
0
20
0
30
0
11
-9.8298245314678994
21
-6.8829172362125535
31
0
0
LINE
5
110
100
AcDbEntity
8
0
100
AcDbLine
10
3.6861841993004636
20
-2.5810939635797103
30
0
11
0
21
0
31
0
0
LINE
5
111
100
AcDbEntity
8
0
100
AcDbLine
10
4.9149122657339488
20
-3.4414586181062785
30
0
11
0
21
0
31
0
0
LINE
5
112
100
AcDbEntity
8
0
100
AcDbLine
10
6.143640332167438
20
-4.3018232726328494
30
0
11
0
21
0
31
0
0
LINE
5
113
100
AcDbEntity
8
0
100
AcDbLine
10
7.3723683986009245
20
-5.1621879271594189
30
0
11
0
21
0
31
0
0
LINE
5
114
100
AcDbEntity
8
0
100
AcDbLine
10
8.6010964650344128
20
-6.0225525816859893
30
0
11
0
21
0
31
0
0
LWPOLYLINE
5
115
100
AcDbEntity
8
0
100
AcDbPolyline
90
3
70
1
43
0.0
10
-3.686184199300464
20
-2.5810939635797094
10
0
20
0
10
-4.9149122657339497
20
-3.4414586181062767
42
-0.99999999999999989
0
LINE
5
116
100
AcDbEntity
8
0
100
AcDbLine
10
0
20
0
30
0
11
-6.1436403321674398
21
-4.3018232726328485
31
0
0
LINE
5
117
100
AcDbEntity
8
0
100
AcDbLine
10
0
20
0
30
0
11
-7.3723683986009272
21
-5.1621879271594171
31
0
0
LINE
5
118
100
AcDbEntity
8
0
100
AcDbLine
10
0
20
0
30
0
11
-8.6010964650344146
21
-6.0225525816859875
31
0
0
ARC
5
119
100
AcDbEntity
8
0
100
AcDbCircle
10
9.2154604982511561
20
-6.4527349089492727
30
0
40
0.74999999999999845
210
0
220
0
230
1
100
AcDbArc
50
-35.000000000000064
51
145.00000000000006
0
ARC
5
120
100
AcDbEntity
8
0
100
AcDbCircle
10
6.7580043653841813
20
-4.7320055998961337
30
0
40
0.74999999999999944
210
0
220
0
230
1
100
AcDbArc
50
-35.000000000000064
51
145
0
ARC
5
121
100
AcDbEntity
8
0
100
AcDbCircle
10
4.3005482325172064
20
-3.0112762908429946
30
0
40
0.74999999999999822
210
-0
220
0
230
1
100
AcDbArc
50
-35.000000000000064
51
144.99999999999997
0
ARC
5
122
100
AcDbEntity
8
0
100
AcDbCircle
10
-6.758004365384183
20
-4.7320055998961328
30
0
40
0.74999999999999944
210
0
220
-0
230
1
100
AcDbArc
50
35.000000000000014
51
214.99999999999997
0
ARC
5
123
100
AcDbEntity
8
0
100
AcDbCircle
10
-9.2154604982511561
20
-6.45273490894927
30
0
40
0.74999999999999778
210
0
220
-0
230
1
100
AcDbArc
50
34.999999999999979
51
214.99999999999991
0
LWPOLYLINE
5
124
100
AcDbEntity
8
0
100
AcDbPolyline
90
12
70
1
43
0.0
10
11.805226653814319
20
0.015150018123708531
10
10.088583081960682
20
0.015150018123708912
10
5.9554325044155165
20
7.4033203796425697
10
6.1138926446437907
20
7.5749853328743812
10
6.1138926446437907
20
0.015150018123709641
10
4.582117646932609
20
0.015150018123709981
10
4.582117646932609
20
9.6085468009987718
10
6.3119666278362345
20
9.60854680099877
10
10.431911796331409
20
2.3326191381493433
10
10.273452252149585
20
2.1609547809639795
10
10.273452252149585
20
9.60854680099877
10
11.805226653814319
20
9.60854680099877
0
LWPOLYLINE
5
125
100
AcDbEntity
8
0
100
AcDbPolyline
90
4
70
1
43
0.0
10
2.3372767865657873
20
0.015150018123710751
10
0.7592855393886635
20
0.015150018123711102
10
0.75928553938866328
20
9.6151498035469896
10
2.3372767865657869
20
9.6151498035469913
0
LWPOLYLINE
5
126
100
AcDbEntity
8
0
100
AcDbPolyline
90
4
70
1
43
0.0
10
1.6770289838314123
20
4.1747096256295091
10
-3.1097663938999105
20
4.17470962562951
10
-3.1097663938999109
20
5.6866768077889338
10
1.6770289838314119
20
5.6866768077889329
0
LWPOLYLINE
5
127
100
AcDbEntity
8
0
100
AcDbPolyline
90
4
70
1
43
0.0
10
1.6770289838314123
20
0.015150018123710751
10
-3.8360382616519848
20
0.015150018123711976
10
-3.8360382616519861
20
1.5271172002831357
10
1.6770289838314112
20
1.5271172002831346
0
SPLINE
5
128
100
AcDbEntity
8
0
100
AcDbSpline
70
0
71
2
72
6
73
3
74
0
42
0.000000001
43
0.0000000001
44
0.0000000001
40
0
40
0
40
0
40
1
40
1
40
1
10
-8.4313620626926333
20
9.7141864971199894
30
0
10
-7.3881687223911197
20
9.7141864971199894
30
0
10
-6.6189827024936587
20
9.2817249969521427
30
0
0
SPLINE
5
129
100
AcDbEntity
8
0
100
AcDbSpline
70
0
71
2
72
6
73
3
74
0
42
0.000000001
43
0.0000000001
44
0.0000000001
40
0
40
0
40
0
40
1
40
1
40
1
10
-6.6189827024936587
20
9.2817249969521427
30
0
10
-5.8497919142246158
20
8.8492623046914005
30
0
10
-5.4371370375156314
20
8.0437603668251896
30
0
0
SPLINE
5
130
100
AcDbEntity
8
0
100
AcDbSpline
70
0
71
2
72
6
73
3
74
0
42
0.000000001
43
0.0000000001
44
0.0000000001
40
0
40
0
40
0
40
1
40
1
40
1
10
-5.4371370375156314
20
8.0437603668251896
30
0
10
-5.024482160806647
20
7.2382584289589778
30
0
10
-5.024482160806647
20
6.1356452182808772
30
0
0
LINE
5
131
100
AcDbEntity
8
0
100
AcDbLine
10
-5.024482160806647
20
6.1356452182808772
30
0
11
-5.024482160806647
21
3.5012576059380427
31
0
0
SPLINE
5
132
100
AcDbEntity
8
0
100
AcDbSpline
70
0
71
2
72
6
73
3
74
0
42
0.000000001
43
0.0000000001
44
0.0000000001
40
0
40
0
40
0
40
1
40
1
40
1
10
-5.024482160806647
20
3.5012576059380427
30
0
10
-5.024482160806647
20
2.3986437992134944
30
0
10
-5.4371370375156314
20
1.5898409561196225
30
0
0
SPLINE
5
133
100
AcDbEntity
8
0
100
AcDbSpline
70
0
71
2
72
6
73
3
74
0
42
0.000000001
43
0.0000000001
44
0.0000000001
40
0
40
0
40
0
40
1
40
1
40
1
10
-5.4371370375156314
20
1.5898409561196225
30
0
10
-5.8497919142246158
20
0.78103751697930324
30
0
10
-6.6189827024936587
20
0.3485754207650088
30
0
0
SPLINE
5
134
100
AcDbEntity
8
0
100
AcDbSpline
70
0
71
2
72
6
73
3
74
0
42
0.000000001
43
0.0000000001
44
0.0000000001
40
0
40
0
40
0
40
1
40
1
40
1
10
-6.6189827024936587
20
0.3485754207650088
30
0
10
-7.3881687223911197
20
-0.08388667544928563
30
0
10
-8.4313620626926333
20
-0.083886675449285075
30
0
0
SPLINE
5
135
100
AcDbEntity
8
0
100
AcDbSpline
70
0
71
2
72
6
73
3
74
0
42
0.000000001
43
0.0000000001
44
0.0000000001
40
0
40
0
40
0
40
1
40
1
40
1
10
-8.4313620626926333
20
-0.083886675449285075
30
0
10
-9.2962850630283267
20
-0.083886675449285075
30
0
10
-9.9994482100009829
20
0.28585166492852254
30
0
0
SPLINE
5
136
100
AcDbEntity
8
0
100
AcDbSpline
70
0
71
2
72
6
73
3
74
0
42
0.000000001
43
0.0000000001
44
0.0000000001
40
0
40
0
40
0
40
1
40
1
40
1
10
-9.9994482100009829
20
0.28585166492852254
30
0
10
-10.70261374115943
20
0.65559060135277847
30
0
10
-11.168087869882575
20
1.3521513418236641
30
0
0
SPLINE
5
137
100
AcDbEntity
8
0
100
AcDbSpline
70
0
71
2
72
6
73
3
74
0
42
0.000000001
43
0.0000000001
44
0.0000000001
40
0
40
0
40
0
40
1
40
1
40
1
10
-11.168087869882575
20
1.3521513418236641
30
0
10
-11.633561998605719
20
2.0487126783409995
30
0
10
-11.805225759744635
20
2.9994693473854941
30
0
0
LINE
5
138
100
AcDbEntity
8
0
100
AcDbLine
10
-11.805225759744635
20
2.9994693473854941
30
0
11
-10.181015878915778
21
2.9994693473854932
31
0
0
SPLINE
5
139
100
AcDbEntity
8
0
100
AcDbSpline
70
0
71
2
72
6
73
3
74
0
42
0.000000001
43
0.0000000001
44
0.0000000001
40
0
40
0
40
0
40
1
40
1
40
1
10
-10.181015878915778
20
2.9994693473854928
30
0
10
-10.062173753976813
20
2.5372961238900094
30
0
10
-9.8046769201755435
20
2.1906659082451729
30
0
0
SPLINE
5
140
100
AcDbEntity
8
0
100
AcDbSpline
70
0
71
2
72
6
73
3
74
0
42
0.000000001
43
0.0000000001
44
0.0000000001
40
0
40
0
40
0
40
1
40
1
40
1
10
-9.8046769201755435
20
2.1906659082451729
30
0
10
-9.547180086374274
20
1.8440356926003365
30
0
10
-9.193946272134772
20
1.6591665224114327
30
0
0
SPLINE
5
141
100
AcDbEntity
8
0
100
AcDbSpline
70
0
71
2
72
6
73
3
74
0
42
0.000000001
43
0.0000000001
44
0.0000000001
40
0
40
0
40
0
40
1
40
1
40
1
10
-9.193946272134772
20
1.6591665224114327
30
0
10
-8.8407148420810611
20
1.4742973522225289
30
0
10
-8.4313620626926333
20
1.4742973522225289
30
0
0
SPLINE
5
142
100
AcDbEntity
8
0
100
AcDbSpline
70
0
71
2
72
6
73
3
74
0
42
0.000000001
43
0.0000000001
44
0.0000000001
40
0
40
0
40
0
40
1
40
1
40
1
10
-8.4313620626926333
20
1.4742973522225289
30
0
10
-7.8833545744419009
20
1.4742973522225289
30
0
10
-7.4839057028293521
20
1.7218902782479195
30
0
0
SPLINE
5
143
100
AcDbEntity
8
0
100
AcDbSpline
70
0
71
2
72
6
73
3
74
0
42
0.000000001
43
0.0000000001
44
0.0000000001
40
0
40
0
40
0
40
1
40
1
40
1
10
-7.4839057028293521
20
1.7218902782479195
30
0
10
-7.0844568312168033
20
1.9694832042733101
30
0
10
-6.869875341653815
20
2.4250540212670235
30
0
0
SPLINE
5
144
100
AcDbEntity
8
0
100
AcDbSpline
70
0
71
2
72
6
73
3
74
0
42
0.000000001
43
0.0000000001
44
0.0000000001
40
0
40
0
40
0
40
1
40
1
40
1
10
-6.869875341653815
20
2.4250540212670235
30
0
10
-6.6552938520908267
20
2.8806248382607369
30
0
10
-6.6552938520908267
20
3.501257605938044
30
0
0
LINE
5
145
100
AcDbEntity
8
0
100
AcDbLine
10
-6.6552938520908267
20
3.501257605938044
30
0
11
-6.6552938520908267
21
6.1356452182808781
31
0
0
SPLINE
5
146
100
AcDbEntity
8
0
100
AcDbSpline
70
0
71
2
72
6
73
3
74
0
42
0.000000001
43
0.0000000001
44
0.0000000001
40
0
40
0
40
0
40
1
40
1
40
1
10
-6.6552938520908267
20
6.1356452182808781
30
0
10
-6.6552938520908267
20
6.7496755794564143
30
0
10
-6.869875341653815
20
7.2052458004036799
30
0
0
SPLINE
5
147
100
AcDbEntity
8
0
100
AcDbSpline
70
0
71
2
72
6
73
3
74
0
42
0.000000001
43
0.0000000001
44
0.0000000001
40
0
40
0
40
0
40
1
40
1
40
1
10
-6.869875341653815
20
7.2052458004036799
30
0
10
-7.0844568312168033
20
7.660817213443841
30
0
10
-7.4839057028293521
20
7.9051092342415705
30
0
0
SPLINE
5
148
100
AcDbEntity
8
0
100
AcDbSpline
70
0
71
2
72
6
73
3
74
0
42
0.000000001
43
0.0000000001
44
0.0000000001
40
0
40
0
40
0
40
1
40
1
40
1
10
-7.4839057028293521
20
7.9051092342415705
30
0
10
-7.8833545744419009
20
8.1494000629464054
30
0
10
-8.4313620626926333
20
8.1494000629464054
30
0
0
SPLINE
5
149
100
AcDbEntity
8
0
100
AcDbSpline
70
0
71
2
72
6
73
3
74
0
42
0.000000001
43
0.0000000001
44
0.0000000001
40
0
40
0
40
0
40
1
40
1
40
1
10
-8.4313620626926333
20
8.1494000629464054
30
0
10
-8.8473166525363833
20
8.1494000629464054
30
0
10
-9.2005480825900943
20
7.9744342044869345
30
0
0
SPLINE
5
150
100
AcDbEntity
8
0
100
AcDbSpline
70
0
71
2
72
6
73
3
74
0
42
0.000000001
43
0.0000000001
44
0.0000000001
40
0
40
0
40
0
40
1
40
1
40
1
10
-9.2005480825900943
20
7.9744342044869345
30
0
10
-9.5537818968295962
20
7.7994683460274619
30
0
10
-9.8112787306308658
20
7.4561408237496298
30
0
0
SPLINE
5
151
100
AcDbEntity
8
0
100
AcDbSpline
70
0
71
2
72
6
73
3
74
0
42
0.000000001
43
0.0000000001
44
0.0000000001
40
0
40
0
40
0
40
1
40
1
40
1
10
-9.8112787306308658
20
7.4561408237496298
30
0
10
-10.068775564432135
20
7.1128109172860068
30
0
10
-10.181015878915778
20
6.6308310703316611
30
0
0
LINE
5
152
100
AcDbEntity
8
0
100
AcDbLine
10
-10.181015878915778
20
6.6308310703316611
30
0
11
-11.805225759744635
21
6.6308310703316611
31
0
0
SPLINE
5
153
100
AcDbEntity
8
0
100
AcDbSpline
70
0
71
2
72
6
73
3
74
0
42
0.000000001
43
0.0000000001
44
0.0000000001
40
0
40
0
40
0
40
1
40
1
40
1
10
-11.805225759744635
20
6.6308310703316611
30
0
10
-11.633561998605719
20
7.581587143329708
30
0
10
-11.164785772562018
20
8.2748475746193808
30
0
0
SPLINE
5
154
100
AcDbEntity
8
0
100
AcDbSpline
70
0
71
2
72
6
73
3
74
0
42
0.000000001
43
0.0000000001
44
0.0000000001
40
0
40
0
40
0
40
1
40
1
40
1
10
-11.164785772562018
20
8.2748475746193808
30
0
10
-10.696009546518317
20
8.9681068138161582
30
0
10
-9.9961484968662173
20
9.3411472515145224
30
0
0
SPLINE
5
155
100
AcDbEntity
8
0
100
AcDbSpline
70
0
71
2
72
6
73
3
74
0
42
0.000000001
43
0.0000000001
44
0.0000000001
40
0
40
0
40
0
40
1
40
1
40
1
10
-9.9961484968662173
20
9.3411472515145224
30
0
10
-9.2962850630283267
20
9.7141864971199912
30
0
10
-8.4313620626926333
20
9.7141864971199894
30
0
0
CIRCLE
5
156
100
AcDbEntity
8
0
100
AcDbCircle
10
0
20
0
30
0
40
33
210
0
220
-0
230
1
0
ENDSEC
0
SECTION
2
OBJECTS
0
DICTIONARY
5
C
100
AcDbDictionary
3
ACAD_GROUP
350
D
3
ACAD_MLINESTYLE
350
17
0
DICTIONARY
5
D
100
AcDbDictionary
0
DICTIONARY
5
1A
330
C
100
AcDbDictionary
0
DICTIONARY
5
17
100
AcDbDictionary
0
ENDSEC
0
EOF
