                                                                        S      1
,,6HThesis,6HThesis,7Hunknown,7Hunknown,32,38,7,99,15,,1.,2,2HMM,1,0.08,G      1
15H20250912.001338,0.01,10000.,7Hunknown,7Hunknown,11,0,;               G      2
     186       1                                                00000000D      1
     186             -35       1       0                               0D      2
     514       2                                                00010000D      3
     514                       1       1                               0D      4
     510       3                                                00010000D      5
     510             -35       1       1                               0D      6
     510       4                                                00010000D      7
     510             -35       1       1                               0D      8
     510       5                                                00010000D      9
     510             -35       1       1                               0D     10
     508       6                                                00010000D     11
     508                       1       1                               0D     12
     508       7                                                00010000D     13
     508                       1       1                               0D     14
     508       8                                                00010000D     15
     508                       1       1                               0D     16
     126       9                                                00010000D     17
     126       0              12       0                               0D     18
     126      21                                                00010000D     19
     126       0               3       0                               0D     20
     126      24                                                00010000D     21
     126       0              12       0                               0D     22
     128      36                                                00010000D     23
     128       0     -35      18       0                               0D     24
     128      54                                                00010000D     25
     128       0     -35       7       0                               0D     26
     128      61                                                00010000D     27
     128       0     -35       7       0                               0D     28
     502      68                                                00010000D     29
     502                       2       1                               0D     30
     504      70                                                00010001D     31
     504                       1       1                               0D     32
     406      71                                                00000000D     33
     406                       1      15                               0D     34
     314      72                                                00000200D     35
     314                       2       0                               0D     36
     314      74                                                00000200D     37
     314                       2       0                               0D     38
186,3,1,0,0,1,33;                                                      1P      1
514,3,5,1,7,1,9,1;                                                     3P      2
510,23,1,1,11;                                                         5P      3
510,25,1,1,13;                                                         7P      4
510,27,1,1,15;                                                         9P      5
508,4,0,31,1,0,0,0,31,2,1,0,0,31,3,1,0,0,31,2,0,0;                    11P      6
508,1,0,31,1,1,0;                                                     13P      7
508,1,0,31,3,0,0;                                                     15P      8
126,8,2,0,1,0,0,-3.14159265358979,-3.14159265358979,                  17P      9
-3.14159265358979,-1.5707963267949,-1.5707963267949,0.,0.,            17P     10
1.5707963267949,1.5707963267949,3.14159265358979,                     17P     11
3.14159265358979,3.14159265358979,1.,0.707106781186548,1.,            17P     12
0.707106781186548,1.,0.707106781186548,1.,0.707106781186548,1.,       17P     13
-5.00000007450581,1.2,6.12323408698006D-16,-5.00000007450581,         17P     14
1.2,5.00000007450581,3.06161704349003D-16,1.2,5.00000007450581,       17P     15
5.00000007450581,1.2,5.00000007450581,5.00000007450581,1.2,0.,        17P     16
5.00000007450581,1.2,-5.00000007450581,3.06161704349003D-16,1.2,      17P     17
-5.00000007450581,-5.00000007450581,1.2,-5.00000007450581,            17P     18
-5.00000007450581,1.2,-6.12323408698006D-16,-3.14159265358979,        17P     19
3.14159265358979,0.,0.,0.;                                            17P     20
126,1,1,0,0,1,0,-0.239999996423721,-0.239999996423721,0.,0.,1.,       19P     21
1.,-5.00000007450581,1.2,0.,-5.00000007450581,0.,0.,                  19P     22
-0.239999996423721,0.,0.,0.,0.;                                       19P     23
126,8,2,0,1,0,0,-3.14159265358979,-3.14159265358979,                  21P     24
-3.14159265358979,-1.5707963267949,-1.5707963267949,0.,0.,            21P     25
1.5707963267949,1.5707963267949,3.14159265358979,                     21P     26
3.14159265358979,3.14159265358979,1.,0.707106781186548,1.,            21P     27
0.707106781186548,1.,0.707106781186548,1.,0.707106781186548,1.,       21P     28
-5.00000007450581,0.,6.12323408698006D-16,-5.00000007450581,0.,       21P     29
5.00000007450581,3.06161704349003D-16,0.,5.00000007450581,            21P     30
5.00000007450581,0.,5.00000007450581,5.00000007450581,0.,0.,          21P     31
5.00000007450581,0.,-5.00000007450581,3.06161704349003D-16,0.,        21P     32
-5.00000007450581,-5.00000007450581,0.,-5.00000007450581,             21P     33
-5.00000007450581,0.,-6.12323408698006D-16,-3.14159265358979,         21P     34
3.14159265358979,0.,0.,0.;                                            21P     35
128,1,8,1,2,0,1,0,0,1,0.,0.,0.239999996423721,0.239999996423721,      23P     36
-3.14159265358979,-3.14159265358979,-3.14159265358979,                23P     37
-1.5707963267949,-1.5707963267949,0.,0.,1.5707963267949,              23P     38
1.5707963267949,3.14159265358979,3.14159265358979,                    23P     39
3.14159265358979,1.,1.,0.707106781186548,0.707106781186548,1.,        23P     40
1.,0.707106781186548,0.707106781186548,1.,1.,0.707106781186548,       23P     41
0.707106781186548,1.,1.,0.707106781186548,0.707106781186548,1.,       23P     42
1.,-5.00000007450581,1.2,0.,-5.00000007450581,0.,0.,                  23P     43
-5.00000007450581,1.2,5.00000007450581,-5.00000007450581,0.,          23P     44
5.00000007450581,0.,1.2,5.00000007450581,0.,0.,5.00000007450581,      23P     45
5.00000007450581,1.2,5.00000007450581,5.00000007450581,0.,            23P     46
5.00000007450581,5.00000007450581,1.2,0.,5.00000007450581,0.,0.,      23P     47
5.00000007450581,1.2,-5.00000007450581,5.00000007450581,0.,           23P     48
-5.00000007450581,0.,1.2,-5.00000007450581,0.,0.,                     23P     49
-5.00000007450581,-5.00000007450581,1.2,-5.00000007450581,            23P     50
-5.00000007450581,0.,-5.00000007450581,-5.00000007450581,1.2,0.,      23P     51
-5.00000007450581,0.,0.,0.,0.239999996423721,-3.14159265358979,       23P     52
3.14159265358979;                                                     23P     53
128,1,1,1,1,0,0,1,0,0,-0.501000007450581,-0.501000007450581,          25P     54
0.501000007450581,0.501000007450581,-0.501000007450581,               25P     55
-0.501000007450581,0.501000007450581,0.501000007450581,1.,1.,1.,      25P     56
1.,-5.01000007450581,1.2,5.01000007450581,5.01000007450581,1.2,       25P     57
5.01000007450581,-5.01000007450581,1.2,-5.01000007450581,             25P     58
5.01000007450581,1.2,-5.01000007450581,-0.501000007450581,            25P     59
0.501000007450581,-0.501000007450581,0.501000007450581;               25P     60
128,1,1,1,1,0,0,1,0,0,-0.501000007450581,-0.501000007450581,          27P     61
0.501000007450581,0.501000007450581,-0.501000007450581,               27P     62
-0.501000007450581,0.501000007450581,0.501000007450581,1.,1.,1.,      27P     63
1.,5.01000007450581,0.,5.01000007450581,-5.01000007450581,0.,         27P     64
5.01000007450581,5.01000007450581,0.,-5.01000007450581,               27P     65
-5.01000007450581,0.,-5.01000007450581,-0.501000007450581,            27P     66
0.501000007450581,-0.501000007450581,0.501000007450581;               27P     67
502,2,-5.00000007450581,1.2,6.12323408698006D-16,                     29P     68
-5.00000007450581,0.,6.12323408698006D-16;                            29P     69
504,3,17,29,1,29,1,19,29,1,29,2,21,29,2,29,2;                         31P     70
406,1,5HBody1;                                                        33P     71
314,1.17647058823529,44.3137254901961,89.0196078431373,12HABS (k      35P     72
-blue);                                                               35P     73
314,62.7450980392157,62.7450980392157,62.7450980392157,13HSteel       37P     74
- Satin;                                                              37P     75
S      1G      2D     38P     75                                        T      1
