                                                                        S      1
,,12HTable Rim v2,12HTable Rim v2,7Hunknown,7Hunknown,32,38,7,99,15,,1.,G      1
2,2HMM,1,0.08,15H20250912.002037,0.01,10000.,7Hunknown,7Hunknown,11,0,  G      2
15H20190528.175227;                                                     G      3
     186       1                                                00000000D      1
     186            -143       1       0                               0D      2
     514       2                                                00010000D      3
     514                       1       1                               0D      4
     510       3                                                00010000D      5
     510            -143       1       1                               0D      6
     510       4                                                00010000D      7
     510            -143       1       1                               0D      8
     510       5                                                00010000D      9
     510            -143       1       1                               0D     10
     510       6                                                00010000D     11
     510            -143       1       1                               0D     12
     510       7                                                00010000D     13
     510            -143       1       1                               0D     14
     510       8                                                00010000D     15
     510            -143       1       1                               0D     16
     510       9                                                00010000D     17
     510            -143       1       1                               0D     18
     510      10                                                00010000D     19
     510            -143       1       1                               0D     20
     510      11                                                00010000D     21
     510            -143       1       1                               0D     22
     510      12                                                00010000D     23
     510            -143       1       1                               0D     24
     510      13                                                00010000D     25
     510            -143       1       1                               0D     26
     510      14                                                00010000D     27
     510            -143       1       1                               0D     28
     508      15                                                00010000D     29
     508                       1       1                               0D     30
     508      16                                                00010000D     31
     508                       1       1                               0D     32
     508      17                                                00010000D     33
     508                       3       1                               0D     34
     508      20                                                00010000D     35
     508                       1       1                               0D     36
     508      21                                                00010000D     37
     508                       1       1                               0D     38
     508      22                                                00010000D     39
     508                       1       1                               0D     40
     508      23                                                00010000D     41
     508                       1       1                               0D     42
     508      24                                                00010000D     43
     508                       1       1                               0D     44
     508      25                                                00010000D     45
     508                       1       1                               0D     46
     508      26                                                00010000D     47
     508                       1       1                               0D     48
     508      27                                                00010000D     49
     508                       1       1                               0D     50
     508      28                                                00010000D     51
     508                       3       1                               0D     52
     126      31                                                00010000D     53
     126       0               4       0                               0D     54
     126      35                                                00010000D     55
     126       0               2       0                               0D     56
     126      37                                                00010000D     57
     126       0               4       0                               0D     58
     126      41                                                00010000D     59
     126       0               2       0                               0D     60
     126      43                                                00010000D     61
     126       0               2       0                               0D     62
     126      45                                                00010000D     63
     126       0               2       0                               0D     64
     126      47                                                00010000D     65
     126       0               2       0                               0D     66
     126      49                                                00010000D     67
     126       0               2       0                               0D     68
     126      51                                                00010000D     69
     126       0               2       0                               0D     70
     126      53                                                00010000D     71
     126       0               3       0                               0D     72
     126      56                                                00010000D     73
     126       0               2       0                               0D     74
     126      58                                                00010000D     75
     126       0               3       0                               0D     76
     126      61                                                00010000D     77
     126       0               5       0                               0D     78
     126      66                                                00010000D     79
     126       0               3       0                               0D     80
     126      69                                                00010000D     81
     126       0               5       0                               0D     82
     126      74                                                00010000D     83
     126       0               3       0                               0D     84
     126      77                                                00010000D     85
     126       0               5       0                               0D     86
     126      82                                                00010000D     87
     126       0               2       0                               0D     88
     126      84                                                00010000D     89
     126       0               3       0                               0D     90
     126      87                                                00010000D     91
     126       0               2       0                               0D     92
     126      89                                                00010000D     93
     126       0               5       0                               0D     94
     126      94                                                00010000D     95
     126       0               2       0                               0D     96
     126      96                                                00010000D     97
     126       0               2       0                               0D     98
     126      98                                                00010000D     99
     126       0               2       0                               0D    100
     126     100                                                00010000D    101
     126       0               2       0                               0D    102
     126     102                                                00010000D    103
     126       0               2       0                               0D    104
     126     104                                                00010000D    105
     126       0               2       0                               0D    106
     126     106                                                00010000D    107
     126       0               2       0                               0D    108
     126     108                                                00010000D    109
     126       0               2       0                               0D    110
     126     110                                                00010000D    111
     126       0               2       0                               0D    112
     128     112                                                00010000D    113
     128       0    -143       7       0                               0D    114
     128     119                                                00010000D    115
     128       0    -143       3       0                               0D    116
     128     122                                                00010000D    117
     128       0    -143       4       0                               0D    118
     128     126                                                00010000D    119
     128       0    -143       7       0                               0D    120
     128     133                                                00010000D    121
     128       0    -143       4       0                               0D    122
     128     137                                                00010000D    123
     128       0    -143       6       0                               0D    124
     128     143                                                00010000D    125
     128       0    -143       4       0                               0D    126
     128     147                                                00010000D    127
     128       0    -143       4       0                               0D    128
     128     151                                                00010000D    129
     128       0    -143       4       0                               0D    130
     128     155                                                00010000D    131
     128       0    -143       3       0                               0D    132
     128     158                                                00010000D    133
     128       0    -143       3       0                               0D    134
     128     161                                                00010000D    135
     128       0    -143       4       0                               0D    136
     502     165                                                00010000D    137
     502                       7       1                               0D    138
     504     172                                                00010001D    139
     504                       8       1                               0D    140
     406     180                                                00000000D    141
     406                       1      15                               0D    142
     314     181                                                00000200D    143
     314                       2       0                               0D    144
186,3,1,0,0,1,141;                                                     1P      1
514,12,5,1,7,1,9,1,11,1,13,1,15,1,17,1,19,1,21,1,23,1,25,1,27,1;       3P      2
510,113,1,1,29;                                                        5P      3
510,115,1,1,31;                                                        7P      4
510,117,1,1,33;                                                        9P      5
510,119,1,1,35;                                                       11P      6
510,121,1,1,37;                                                       13P      7
510,123,1,1,39;                                                       15P      8
510,125,1,1,41;                                                       17P      9
510,127,1,1,43;                                                       19P     10
510,129,1,1,45;                                                       21P     11
510,131,1,1,47;                                                       23P     12
510,133,1,1,49;                                                       25P     13
510,135,1,1,51;                                                       27P     14
508,4,0,139,1,1,0,0,139,2,1,0,0,139,3,1,0,0,139,4,1,0;                29P     15
508,4,0,139,2,0,0,0,139,5,0,0,0,139,6,0,0,0,139,7,1,0;                31P     16
508,10,0,139,1,0,0,0,139,8,1,0,0,139,9,1,0,0,139,10,1,0,0,139,        33P     17
11,1,0,0,139,12,1,0,0,139,13,0,0,0,139,14,1,0,0,139,15,0,0,0,         33P     18
139,5,1,0;                                                            33P     19
508,4,0,139,15,1,0,0,139,16,1,0,0,139,17,1,0,0,139,6,1,0;             35P     20
508,4,0,139,16,0,0,0,139,14,0,0,0,139,18,0,0,0,139,19,1,0;            37P     21
508,4,0,139,13,1,0,0,139,20,0,0,0,139,21,1,0,0,139,18,1,0;            39P     22
508,4,0,139,22,1,0,0,139,20,1,0,0,139,12,0,0,0,139,23,0,0;            41P     23
508,4,0,139,24,1,0,0,139,23,1,0,0,139,11,0,0,0,139,25,0,0;            43P     24
508,4,0,139,26,1,0,0,139,25,1,0,0,139,10,0,0,0,139,27,0,0;            45P     25
508,4,0,139,28,1,0,0,139,27,1,0,0,139,9,0,0,0,139,29,0,0;             47P     26
508,4,0,139,4,0,0,0,139,30,1,0,0,139,29,1,0,0,139,8,0,0;              49P     27
508,10,0,139,3,0,0,0,139,7,0,0,0,139,17,0,0,0,139,19,0,0,0,139,       51P     28
21,0,0,0,139,22,0,0,0,139,24,0,0,0,139,26,0,0,0,139,28,0,0,0,         51P     29
139,30,0,0;                                                           51P     30
126,2,2,0,0,0,0,-0.785398163397448,-0.785398163397448,                53P     31
-0.785398163397448,0.785398163397448,0.785398163397448,               53P     32
0.785398163397448,1.,0.707106781186548,1.,5.,40.,32.,0.,40.,32.,      53P     33
0.,40.,27.,-0.785398163397448,0.785398163397448,0.,0.,0.;             53P     34
126,1,1,0,0,1,0,-4.,-4.,0.,0.,1.,1.,0.,40.,27.,0.,0.,27.,-4.,0.,      55P     35
0.,0.,0.;                                                             55P     36
126,2,2,0,0,0,0,-0.785398163397448,-0.785398163397448,                57P     37
-0.785398163397448,0.785398163397448,0.785398163397448,               57P     38
0.785398163397448,1.,0.707106781186548,1.,0.,0.,27.,0.,0.,32.,        57P     39
5.,0.,32.,-0.785398163397448,0.785398163397448,0.,0.,0.;              57P     40
126,1,1,0,0,1,0,0.,0.,4.,4.,1.,1.,5.,0.,32.,5.,40.,32.,0.,4.,0.,      59P     41
0.,0.;                                                                59P     42
126,1,1,0,0,1,0,0.4,0.4,2.7,2.7,1.,1.,0.,40.,4.,0.,40.,27.,0.4,       61P     43
2.7,0.,0.,0.;                                                         61P     44
126,1,1,0,0,1,0,0.,0.,4.,4.,1.,1.,0.,0.,4.,0.,40.,4.,0.,4.,0.,        63P     45
0.,0.;                                                                63P     46
126,1,1,0,0,1,0,0.4,0.4,2.7,2.7,1.,1.,0.,0.,4.,0.,0.,27.,0.4,         65P     47
2.7,0.,0.,0.;                                                         65P     48
126,1,1,0,0,1,0,0.5,0.5,1.5,1.5,1.,1.,5.,40.,32.,15.,40.,32.,         67P     49
0.5,1.5,0.,0.,0.;                                                     67P     50
126,1,1,0,0,1,0,0.,0.,1.,1.,1.,1.,15.,40.,32.,15.,40.,22.,0.,1.,      69P     51
0.,0.,0.;                                                             69P     52
126,1,1,0,0,1,0,0.,0.,0.99999999254942,0.99999999254942,1.,1.,        71P     53
15.,40.,22.,5.00000007450581,40.,22.,0.,0.99999999254942,0.,0.,       71P     54
0.;                                                                   71P     55
126,1,1,0,0,1,0,0.,0.,1.7,1.7,1.,1.,5.00000007450581,40.,22.,         73P     56
5.00000007450581,40.,5.,0.,1.7,0.,0.,0.;                              73P     57
126,1,1,0,0,1,0,0.,0.,0.999999992549419,0.999999992549419,1.,1.,      75P     58
5.00000007450581,40.,5.,15.,40.,5.,0.,0.999999992549419,0.,0.,        75P     59
0.;                                                                   75P     60
126,2,2,0,0,0,0,-0.785398163397448,-0.785398163397448,                77P     61
-0.785398163397448,0.785398163397448,0.785398163397448,               77P     62
0.785398163397448,1.,0.707106781186547,1.,10.,40.,                    77P     63
-5.55111512312578D-16,15.,40.,-2.77555756156289D-16,15.,40.,5.,       77P     64
-0.785398163397448,0.785398163397448,0.,0.,0.;                        77P     65
126,1,1,0,0,1,0,0.5,0.5,1.1,1.1,1.,1.,10.,40.,                        79P     66
-6.12323399573677D-16,4.,40.,-2.4492935982947D-16,0.5,1.1,0.,0.,      79P     67
0.;                                                                   79P     68
126,2,2,0,0,0,0,-0.785398163397448,-0.785398163397448,                81P     69
-0.785398163397448,0.785398163397448,0.785398163397448,               81P     70
0.785398163397448,1.,0.707106781186547,1.,0.,40.,4.,0.,40.,           81P     71
1.38777878078144D-16,4.,40.,-5.55111512312578D-16,                    81P     72
-0.785398163397448,0.785398163397448,0.,0.,0.;                        81P     73
126,1,1,0,0,1,0,-4.,-4.,0.,0.,1.,1.,4.,40.,                           83P     74
-5.55111512312578D-16,4.,0.,-5.55111512312578D-16,-4.,0.,0.,0.,       83P     75
0.;                                                                   83P     76
126,2,2,0,0,0,0,-0.785398163397448,-0.785398163397448,                85P     77
-0.785398163397448,0.785398163397448,0.785398163397448,               85P     78
0.785398163397448,1.,0.707106781186547,1.,4.,0.,                      85P     79
-5.55111512312578D-16,0.,0.,1.38777878078144D-16,0.,0.,4.,            85P     80
-0.785398163397448,0.785398163397448,0.,0.,0.;                        85P     81
126,1,1,0,0,1,0,0.,0.,4.,4.,1.,1.,10.,0.,0.,10.,40.,0.,0.,4.,0.,      87P     82
0.,0.;                                                                87P     83
126,1,1,0,0,1,0,0.5,0.5,1.1,1.1,1.,1.,10.,0.,                         89P     84
-6.12323399573677D-16,4.,0.,-2.4492935982947D-16,0.5,1.1,0.,0.,       89P     85
0.;                                                                   89P     86
126,1,1,0,0,1,0,0.,0.,4.,4.,1.,1.,15.,0.,5.,15.,40.,5.,0.,4.,0.,      91P     87
0.,0.;                                                                91P     88
126,2,2,0,0,0,0,-0.785398163397448,-0.785398163397448,                93P     89
-0.785398163397448,0.785398163397448,0.785398163397448,               93P     90
0.785398163397448,1.,0.707106781186547,1.,15.,0.,5.,15.,0.,           93P     91
-2.77555756156289D-16,10.,0.,-5.55111512312578D-16,                   93P     92
-0.785398163397448,0.785398163397448,0.,0.,0.;                        93P     93
126,1,1,0,0,1,0,0.,0.,0.999999992549419,0.999999992549419,1.,1.,      95P     94
5.00000007450581,0.,5.,15.,0.,5.,0.,0.999999992549419,0.,0.,0.;       95P     95
126,1,1,0,0,1,0,0.,0.,4.,4.,1.,1.,5.00000007450581,0.,5.,             97P     96
5.00000007450581,40.,5.,0.,4.,0.,0.,0.;                               97P     97
126,1,1,0,0,1,0,0.,0.,1.7,1.7,1.,1.,5.00000007450581,0.,22.,          99P     98
5.00000007450581,0.,5.,0.,1.7,0.,0.,0.;                               99P     99
126,1,1,0,0,1,0,0.,0.,4.,4.,1.,1.,5.00000007450581,0.,22.,           101P    100
5.00000007450581,40.,22.,0.,4.,0.,0.,0.;                             101P    101
126,1,1,0,0,1,0,0.,0.,0.99999999254942,0.99999999254942,1.,1.,       103P    102
15.,0.,22.,5.00000007450581,0.,22.,0.,0.99999999254942,0.,0.,0.;     103P    103
126,1,1,0,0,1,0,0.,0.,4.,4.,1.,1.,15.,0.,22.,15.,40.,22.,0.,4.,      105P    104
0.,0.,0.;                                                            105P    105
126,1,1,0,0,1,0,0.,0.,1.,1.,1.,1.,15.,0.,32.,15.,0.,22.,0.,1.,       107P    106
0.,0.,0.;                                                            107P    107
126,1,1,0,0,1,0,0.,0.,4.,4.,1.,1.,15.,0.,32.,15.,40.,32.,0.,4.,      109P    108
0.,0.,0.;                                                            109P    109
126,1,1,0,0,1,0,0.5,0.5,1.5,1.5,1.,1.,5.,0.,32.,15.,0.,32.,0.5,      111P    110
1.5,0.,0.,0.;                                                        111P    111
128,1,2,1,2,0,0,0,0,0,0.,0.,8.,8.,-0.785398163397448,                113P    112
-0.785398163397448,-0.785398163397448,0.785398163397448,             113P    113
0.785398163397448,0.785398163397448,1.,1.,0.707106781186548,         113P    114
0.707106781186548,1.,1.,-1.66533453693773D-15,40.,27.,               113P    115
-1.66533453693773D-15,0.,27.,1.11022302462516D-15,40.,32.,           113P    116
1.11022302462516D-15,0.,32.,5.,40.,32.,5.,0.,32.,0.,8.,              113P    117
-0.785398163397448,0.785398163397448;                                113P    118
128,1,1,1,1,0,0,1,0,0,0.399,0.399,2.701,2.701,-0.001,-0.001,         115P    119
4.001,4.001,1.,1.,1.,1.,0.,-0.01,3.99,0.,-0.01,27.01,0.,40.01,       115P    120
3.99,0.,40.01,27.01,0.399,2.701,-0.001,4.001;                        115P    121
128,1,1,1,1,0,0,1,0,0,-1.601,-1.601,1.601,1.601,-0.751,-0.751,       117P    122
0.751,0.751,1.,1.,1.,1.,-0.01,40.,-0.0099999999999989,-0.01,40.,     117P    123
32.01,15.01,40.,-0.0099999999999989,15.01,40.,32.01,-1.601,          117P    124
1.601,-0.751,0.751;                                                  117P    125
128,1,2,1,2,0,0,0,0,0,0.,0.,10.,10.,-0.785398163397448,              119P    126
-0.785398163397448,-0.785398163397448,0.785398163397448,             119P    127
0.785398163397448,0.785398163397448,1.,1.,0.707106781186548,         119P    128
0.707106781186548,1.,1.,4.,40.,-5.55111512312578D-16,4.,0.,          119P    129
-5.55111512312578D-16,5.55111512312578D-16,40.,0.,                   119P    130
5.55111512312578D-16,0.,0.,0.,40.,4.,0.,0.,4.,0.,10.,                119P    131
-0.785398163397448,0.785398163397448;                                119P    132
128,1,1,1,1,0,0,1,0,0,0.499,0.499,1.101,1.101,-0.001,-0.001,         121P    133
4.001,4.001,1.,1.,1.,1.,10.01,-0.01,-6.1293572297325D-16,3.99,       121P    134
-0.01,-2.44317036429897D-16,10.01,40.01,-6.1293572297325D-16,        121P    135
3.99,40.01,-2.44317036429897D-16,0.499,1.101,-0.001,4.001;           121P    136
128,1,2,1,2,0,0,0,0,0,0.,0.,8.,8.,-0.785398163397448,                123P    137
-0.785398163397448,-0.785398163397448,0.785398163397448,             123P    138
0.785398163397448,0.785398163397448,1.,1.,0.707106781186547,         123P    139
0.707106781186547,1.,1.,15.,40.,5.,15.,0.,5.,15.,40.,                123P    140
-5.55111512312578D-16,15.,0.,-5.55111512312578D-16,10.,40.,0.,       123P    141
10.,0.,0.,0.,8.,-0.785398163397448,0.785398163397448;                123P    142
128,1,1,1,1,0,0,1,0,0,-0.001,-0.001,1.00099999254942,                125P    143
1.00099999254942,-0.001,-0.001,4.001,4.001,1.,1.,1.,1.,              125P    144
4.99000007450581,-0.01,5.,15.01,-0.01,5.,4.99000007450581,40.01,     125P    145
5.,15.01,40.01,5.,-0.001,1.00099999254942,-0.001,4.001;              125P    146
128,1,1,1,1,0,0,1,0,0,-0.001,-0.001,1.701,1.701,-0.001,-0.001,       127P    147
4.001,4.001,1.,1.,1.,1.,5.00000007450581,-0.01,22.01,                127P    148
5.00000007450581,-0.01,4.99,5.00000007450581,40.01,22.01,            127P    149
5.00000007450581,40.01,4.99,-0.001,1.701,-0.001,4.001;               127P    150
128,1,1,1,1,0,0,1,0,0,-0.001,-0.001,1.00099999254942,                129P    151
1.00099999254942,-0.001,-0.001,4.001,4.001,1.,1.,1.,1.,15.01,        129P    152
-0.01,22.,4.99000007450581,-0.01,22.,15.01,40.01,22.,                129P    153
4.9900000745058,40.01,22.,-0.001,1.00099999254942,-0.001,4.001;      129P    154
128,1,1,1,1,0,0,1,0,0,-0.001,-0.001,1.001,1.001,-0.001,-0.001,       131P    155
4.001,4.001,1.,1.,1.,1.,15.,-0.01,32.01,15.,-0.01,21.99,15.,         131P    156
40.01,32.01,15.,40.01,21.99,-0.001,1.001,-0.001,4.001;               131P    157
128,1,1,1,1,0,0,1,0,0,0.499,0.499,1.501,1.501,-0.001,-0.001,         133P    158
4.001,4.001,1.,1.,1.,1.,4.99,-0.01,32.,15.01,-0.01,32.,4.99,         133P    159
40.01,32.,15.01,40.01,32.,0.499,1.501,-0.001,4.001;                  133P    160
128,1,1,1,1,0,0,1,0,0,-0.751,-0.751,0.751,0.751,-1.601,-1.601,       135P    161
1.601,1.601,1.,1.,1.,1.,15.01,0.,32.01,-0.01,0.,32.01,15.01,0.,      135P    162
-0.0099999999999989,-0.01,0.,-0.0099999999999989,-0.751,0.751,       135P    163
-1.601,1.601;                                                        135P    164
502,20,5.,40.,32.,0.,40.,27.,0.,0.,27.,5.,0.,32.,0.,40.,4.,0.,       137P    165
0.,4.,15.,40.,32.,15.,40.,22.,5.00000007450581,40.,22.,              137P    166
5.00000007450581,40.,5.,15.,40.,5.,10.,40.,                          137P    167
-6.12323399573677D-16,4.,40.,-2.4492935982947D-16,4.,0.,             137P    168
-2.4492935982947D-16,10.,0.,-6.12323399573677D-16,15.,0.,5.,         137P    169
5.00000007450581,0.,5.,5.00000007450581,0.,22.,15.,0.,22.,15.,       137P    170
0.,32.;                                                              137P    171
504,30,53,137,1,137,2,55,137,2,137,3,57,137,3,137,4,59,137,4,        139P    172
137,1,61,137,5,137,2,63,137,6,137,5,65,137,6,137,3,67,137,1,137,     139P    173
7,69,137,7,137,8,71,137,8,137,9,73,137,9,137,10,75,137,10,137,       139P    174
11,77,137,12,137,11,79,137,12,137,13,81,137,5,137,13,83,137,13,      139P    175
137,14,85,137,14,137,6,87,137,15,137,12,89,137,15,137,14,91,137,     139P    176
16,137,11,93,137,16,137,15,95,137,17,137,16,97,137,17,137,10,99,     139P    177
137,18,137,17,101,137,18,137,9,103,137,19,137,18,105,137,19,137,     139P    178
8,107,137,20,137,19,109,137,20,137,7,111,137,4,137,20;               139P    179
406,1,5HBody1;                                                       141P    180
314,62.7450980392157,62.7450980392157,62.7450980392157,13HSteel      143P    181
- Satin;                                                             143P    182
S      1G      3D    144P    182                                        T      1
