0
SECTION
2
HEADER
9
$INSUNITS
70
4
9
$ACADVER
1
AC1014
9
$HANDSEED
5
FFFF
0
ENDSEC
0
SECTION
2
TABLES
0
TABLE
2
VPORT
5
8
100
AcDbSymbolTable
0
ENDTAB
0
TABLE
2
LTYPE
5
5
100
AcDbSymbolTable
0
LTYPE
5
14
100
AcDbSymbolTableRecord
100
AcDbLinetypeTableRecord
2
BYBLOCK
70
0
0
LTYPE
5
15
100
AcDbSymbolTableRecord
100
AcDbLinetypeTableRecord
2
BYLAYER
70
0
0
LTYPE
5
16
100
AcDbSymbolTableRecord
100
AcDbLinetypeTableRecord
2
DASHED
70
0
3
Dashed __ __ __ __ __ __ __ __ __ __ __ __ __ _
72
65
73
2
40
0.75
49
0.5
74
0
49
-0.25
74
0
0
ENDTAB
0
TABLE
2
LAYER
5
2
100
AcDbSymbolTable
70
2
0
LAYER
5
50
100
AcDbSymbolTableRecord
100
AcDbLayerTableRecord
2
0
70
0
62
7
6
CONTINUOUS
0
ENDTAB
0
TABLE
2
STYLE
5
3
100
AcDbSymbolTable
70
1
0
STYLE
5
11
100
AcDbSymbolTableRecord
100
AcDbTextStyleTableRecord
2
STANDARD
70
0
0
ENDTAB
0
TABLE
2
VIEW
5
6
100
AcDbSymbolTable
70
0
0
ENDTAB
0
TABLE
2
UCS
5
7
100
AcDbSymbolTable
70
0
0
ENDTAB
0
TABLE
2
APPID
5
9
100
AcDbSymbolTable
70
2
0
APPID
5
12
100
AcDbSymbolTableRecord
100
AcDbRegAppTableRecord
2
ACAD
70
0
0
ENDTAB
0
TABLE
2
DIMSTYLE
5
A
100
AcDbSymbolTable
70
1
0
ENDTAB
0
TABLE
2
BLOCK_RECORD
5
1
100
AcDbSymbolTable
70
1
0
BLOCK_RECORD
5
1F
100
AcDbSymbolTableRecord
100
AcDbBlockTableRecord
2
*MODEL_SPACE
0
BLOCK_RECORD
5
1B
100
AcDbSymbolTableRecord
100
AcDbBlockTableRecord
2
*PAPER_SPACE
0
ENDTAB
0
ENDSEC
0
SECTION
2
BLOCKS
0
BLOCK
5
20
100
AcDbEntity
100
AcDbBlockBegin
2
*MODEL_SPACE
0
ENDBLK
5
21
100
AcDbEntity
100
AcDbBlockEnd
0
BLOCK
5
1C
100
AcDbEntity
100
AcDbBlockBegin
2
*PAPER_SPACE
0
ENDBLK
5
1D
100
AcDbEntity
100
AcDbBlockEnd
0
ENDSEC
0
SECTION
2
ENTITIES
0
LINE
5
100
100
AcDbEntity
8
0
100
AcDbLine
10
6.2172489379008766e-14
20
-99.999999999999986
30
0
11
34.641016151377585
21
-80.000000000000014
31
0
0
LINE
5
101
100
AcDbEntity
8
0
100
AcDbLine
10
38.373066958946346
20
-82.464101615137963
30
0
11
40.971143170299662
21
-80.964101615137963
31
0
0
LINE
5
102
100
AcDbEntity
8
0
100
AcDbLine
10
86.602540378443905
20
-49.999999999999964
30
0
11
86.602540378443905
21
-9.9999999999999822
31
0
0
LINE
5
103
100
AcDbEntity
8
0
100
AcDbLine
10
86.602540378443877
20
50.000000000000014
30
0
11
51.961524227066334
21
70.000000000000028
31
0
0
LINE
5
104
100
AcDbEntity
8
0
100
AcDbLine
10
0
20
100.00000000000001
30
0
11
-34.641016151377578
21
80.000000000000014
31
0
0
LINE
5
105
100
AcDbEntity
8
0
100
AcDbLine
10
-86.602540378443933
20
49.999999999999936
30
0
11
-86.602540378443905
21
10.000000000000014
31
0
0
LINE
5
106
100
AcDbEntity
8
0
100
AcDbLine
10
-48.497422611928599
20
-72
30
0
11
5.3290705182007514e-14
21
-99.999999999999986
31
0
0
LWPOLYLINE
5
107
100
AcDbEntity
8
0
100
AcDbPolyline
90
4
70
1
43
0.0
10
84.402540378443618
20
-21.281766487210643
10
84.402540378443845
20
-14.881766487210744
10
85.602540378443848
20
-14.881766487210502
10
85.602540378443294
20
-21.281766487210501
0
LWPOLYLINE
5
108
100
AcDbEntity
8
0
100
AcDbPolyline
90
4
70
1
43
0.0
10
-4.3301270189221395
20
96.345299461620783
10
-3.0801270189221963
20
94.18023595215962
10
-5.2451905283832634
20
92.93023595215962
10
-6.4951905283832412
20
95.095299461620769
0
LWPOLYLINE
5
109
100
AcDbEntity
8
0
100
AcDbPolyline
90
4
70
1
43
0.0
10
-84.402540378443746
20
-21.859116756389561
10
-85.602540378443607
20
-21.85911675638966
10
-85.602540378443564
20
-11.859116756389529
10
-84.402540378443717
20
-11.85911675638943
0
LWPOLYLINE
5
110
100
AcDbEntity
8
0
100
AcDbPolyline
90
4
70
1
43
0.0
10
-23.270719773898403
20
-84.024302489868916
10
-23.870719773898262
20
-85.063532974410208
10
-32.530973811742726
20
-80.063532974410066
10
-31.930973811742888
20
-79.02430248986883
0
LWPOLYLINE
5
111
100
AcDbEntity
8
0
100
AcDbPolyline
90
4
70
1
43
0.0
10
61.131820604545332
20
-62.165185733479376
10
61.731820604545355
20
-63.20441621802054
10
53.071566566700817
20
-68.204416218020555
10
52.471566566700801
20
-67.165185733479404
0
LWPOLYLINE
5
112
100
AcDbEntity
8
0
100
AcDbPolyline
90
4
70
1
43
0.0
10
84.402540378443774
20
21.859116756389518
10
85.602540378443621
20
21.859116756389618
10
85.602540378443564
20
11.859116756389485
10
84.402540378443717
20
11.859116756389387
0
LWPOLYLINE
5
113
100
AcDbEntity
8
0
100
AcDbPolyline
90
4
70
1
43
0.0
10
31.930973811742881
20
79.02430248986883
10
23.270719773898392
20
84.024302489868916
10
23.870719773898248
20
85.063532974410208
10
32.530973811742719
20
80.063532974410066
0
LWPOLYLINE
5
114
100
AcDbEntity
8
0
100
AcDbPolyline
90
4
70
1
43
0.0
10
6.4951905283833611
20
95.095299461620783
10
5.2451905283833433
20
92.930235952159677
10
3.0801270189222452
20
94.180235952159677
10
4.3301270189222585
20
96.345299461620769
0
LWPOLYLINE
5
115
100
AcDbEntity
8
0
100
AcDbPolyline
90
4
70
1
43
0.0
10
85.602540378443933
20
41.922649730810342
10
83.102540378443891
20
41.922649730810342
10
83.102540378443891
20
44.422649730810342
10
85.602540378443905
20
44.422649730810342
0
LWPOLYLINE
5
116
100
AcDbEntity
8
0
100
AcDbPolyline
90
4
70
1
43
0.0
10
79.107349850060544
20
-53.172649730810512
10
77.85734985006053
20
-51.007586221349385
10
80.022413359521622
20
-49.757586221349385
10
81.272413359521622
20
-51.922649730810484
0
LWPOLYLINE
5
117
100
AcDbEntity
8
0
100
AcDbPolyline
90
4
70
1
43
0.0
10
-6.4951905283833788
20
-95.095299461620769
10
-5.2451905283833611
20
-92.930235952159634
10
-3.0801270189222674
20
-94.180235952159634
10
-4.3301270189222905
20
-96.345299461620783
0
LWPOLYLINE
5
118
100
AcDbEntity
8
0
100
AcDbPolyline
90
4
70
1
43
0.0
10
-85.602540378443933
20
-41.922649730810335
10
-83.102540378443891
20
-41.922649730810335
10
-83.102540378443891
20
-44.422649730810335
10
-85.602540378443933
20
-44.422649730810321
0
LWPOLYLINE
5
119
100
AcDbEntity
8
0
100
AcDbPolyline
90
4
70
1
43
0.0
10
-61.131820604545339
20
62.165185733479333
10
-61.731820604545376
20
63.204416218020512
10
-53.071566566700824
20
68.204416218020526
10
-52.47156656670083
20
67.16518573347939
0
LWPOLYLINE
5
120
100
AcDbEntity
8
0
100
AcDbPolyline
90
4
70
1
43
0.0
10
29.313282358109539
20
-80.535627355279601
10
29.91328235810975
20
-81.574857839820808
10
24.370719773889075
20
-84.774857839820299
10
23.770719773889098
20
-83.73562735527932
0
LWPOLYLINE
5
121
100
AcDbEntity
8
0
100
AcDbPolyline
90
4
70
1
43
0.0
10
79.107349850060615
20
53.172649730810349
10
81.272413359521721
20
51.92264973081037
10
80.022413359521636
20
49.757586221349271
10
77.857349850060558
20
51.00758622134925
0
LWPOLYLINE
5
122
100
AcDbEntity
8
0
100
AcDbPolyline
90
4
70
1
43
0.0
10
85.602540378443848
20
-44.422649730810484
10
83.102540378443805
20
-44.422649730810413
10
83.102540378443805
20
-41.922649730810434
10
85.60254037844382
20
-41.922649730810484
0
LWPOLYLINE
5
123
100
AcDbEntity
8
0
100
AcDbPolyline
90
4
70
1
43
0.0
10
4.3301270189221066
20
-96.345299461620783
10
3.0801270189221786
20
-94.180235952159592
10
5.2451905283832456
20
-92.930235952159592
10
6.4951905283832145
20
-95.095299461620755
0
LWPOLYLINE
5
124
100
AcDbEntity
8
0
100
AcDbPolyline
90
4
70
1
43
0.0
10
-81.272413359521721
20
-51.922649730810363
10
-80.022413359521636
20
-49.757586221349264
10
-77.857349850060558
20
-51.007586221349243
10
-79.107349850060615
20
-53.172649730810342
0
LWPOLYLINE
5
125
100
AcDbEntity
8
0
100
AcDbPolyline
90
4
70
1
43
0.0
10
-85.602540378443877
20
44.422649730810448
10
-83.102540378443848
20
44.42264973081037
10
-83.102540378443805
20
41.922649730810392
10
-85.602540378443862
20
41.922649730810448
0
LWPOLYLINE
5
126
100
AcDbEntity
8
0
100
AcDbPolyline
90
4
70
1
43
0.0
10
-79.107349850060572
20
53.172649730810463
10
-77.857349850060558
20
51.007586221349342
10
-80.02241335952165
20
49.757586221349342
10
-81.272413359521636
20
51.922649730810448
0
LWPOLYLINE
5
127
100
AcDbEntity
8
0
100
AcDbPolyline
90
4
70
1
43
0.0
10
55.68925802033408
20
66.693091352610338
10
61.231820604554201
20
63.493091352609873
10
60.631820604554477
20
62.453860868068745
10
55.089258020334285
20
65.653860868068875
0
LWPOLYLINE
5
128
100
AcDbEntity
8
0
100
AcDbPolyline
90
4
70
1
43
0.0
10
-29.913282358109786
20
81.574857839820794
10
-24.370719773889093
20
84.774857839820271
10
-23.770719773889137
20
83.73562735527932
10
-29.313282358109557
20
80.535627355279601
0
LWPOLYLINE
5
129
100
AcDbEntity
8
0
100
AcDbPolyline
90
4
70
1
43
0.0
10
-85.602540378443862
20
14.881766487210449
10
-85.602540378443294
20
21.281766487210447
10
-84.402540378443618
20
21.281766487210596
10
-84.402540378443831
20
14.881766487210694
0
LWPOLYLINE
5
130
100
AcDbEntity
8
0
100
AcDbPolyline
90
4
70
1
43
0.0
10
-55.689258020334087
20
-66.693091352610338
10
-61.231820604554208
20
-63.493091352609866
10
-60.631820604554491
20
-62.453860868068737
10
-55.089258020334299
20
-65.653860868068875
0
LINE
5
131
100
AcDbEntity
8
0
100
AcDbLine
10
86.602540378443877
20
7.0000000000000284
30
5.9835005143027926e-14
11
-0.41499444435160598
21
7.0000000000000338
31
6.5694537299435752e-14
0
LINE
5
132
100
AcDbEntity
8
0
100
AcDbLine
10
-0.41499444435160598
20
7.0000000000000338
30
6.5694537299435752e-14
11
-0.41499444435160621
21
5.0000000000000231
31
6.5580143323888645e-14
0
LINE
5
133
100
AcDbEntity
8
0
100
AcDbLine
10
-0.41499444435160621
20
5.0000000000000231
30
6.5580143323888645e-14
11
86.602540378443877
21
5.0000000000000284
31
6.0162773623391895e-14
0
LINE
5
134
100
AcDbEntity
8
0
100
AcDbLine
10
86.602540378443877
20
5.0000000000000284
30
6.0162773623391895e-14
11
86.602540378443877
21
7.0000000000000284
31
5.9835005143027926e-14
0
LINE
5
135
100
AcDbEntity
8
0
100
AcDbLine
10
34.641016151377585
20
-80.000000000000014
30
0
11
38.373066958946346
21
-82.464101615137963
31
0
0
LINE
5
136
100
AcDbEntity
8
0
100
AcDbLine
10
40.971143170299662
20
-80.964101615137963
30
0
11
38.105117766515335
21
-78
31
0
0
LINE
5
137
100
AcDbEntity
8
0
100
AcDbLine
10
38.105117766515335
20
-78
30
0
11
86.602540378443905
21
-49.999999999999964
31
0
0
LINE
5
138
100
AcDbEntity
8
0
100
AcDbLine
10
-51.961524227066377
20
-70
30
0
11
-52.229473419497729
21
-74.464101615137764
31
0
0
LINE
5
139
100
AcDbEntity
8
0
100
AcDbLine
10
-52.229473419497729
20
-74.464101615137764
30
0
11
-49.631397208144406
21
-75.96410161513775
31
0
0
LINE
5
140
100
AcDbEntity
8
0
100
AcDbLine
10
-49.631397208144406
20
-75.96410161513775
30
0
11
-48.497422611928599
21
-72
31
0
0
LINE
5
141
100
AcDbEntity
8
0
100
AcDbLine
10
86.602540378443905
20
-9.9999999999999822
30
0
11
90.602540378444019
21
-8.0000000000001847
31
0
0
LINE
5
142
100
AcDbEntity
8
0
100
AcDbLine
10
90.602540378444019
20
-8.0000000000001847
30
0
11
90.602540378444019
21
-5.0000000000001821
31
0
0
LINE
5
143
100
AcDbEntity
8
0
100
AcDbLine
10
90.602540378444019
20
-5.0000000000001821
30
0
11
86.602540378443891
21
-5.9999999999999831
31
0
0
LINE
5
144
100
AcDbEntity
8
0
100
AcDbLine
10
86.602540378443891
20
-5.9999999999999831
30
0
11
86.602540378443877
21
50.000000000000014
31
0
0
LINE
5
145
100
AcDbEntity
8
0
100
AcDbLine
10
51.961524227066334
20
70.000000000000028
30
0
11
52.229473419497694
21
74.464101615137793
31
0
0
LINE
5
146
100
AcDbEntity
8
0
100
AcDbLine
10
52.229473419497694
20
74.464101615137793
30
0
11
49.631397208144378
21
75.964101615137793
31
0
0
LINE
5
147
100
AcDbEntity
8
0
100
AcDbLine
10
49.631397208144378
20
75.964101615137793
30
0
11
48.49742261192857
21
72.000000000000014
31
0
0
LINE
5
148
100
AcDbEntity
8
0
100
AcDbLine
10
48.49742261192857
20
72.000000000000014
30
0
11
0
21
100.00000000000001
31
0
0
LINE
5
149
100
AcDbEntity
8
0
100
AcDbLine
10
-34.641016151377578
20
80.000000000000014
30
0
11
-38.373066958946339
21
82.464101615137963
31
0
0
LINE
5
150
100
AcDbEntity
8
0
100
AcDbLine
10
-38.373066958946339
20
82.464101615137963
30
0
11
-40.971143170299655
21
80.964101615137963
31
0
0
LINE
5
151
100
AcDbEntity
8
0
100
AcDbLine
10
-40.971143170299655
20
80.964101615137963
30
0
11
-38.10511776651532
21
78
31
0
0
LINE
5
152
100
AcDbEntity
8
0
100
AcDbLine
10
-38.10511776651532
20
78
30
0
11
-86.602540378443933
21
49.999999999999936
31
0
0
LINE
5
153
100
AcDbEntity
8
0
100
AcDbLine
10
-86.602540378443905
20
10.000000000000014
30
0
11
-90.602540378444019
21
8.0000000000002167
31
0
0
LINE
5
154
100
AcDbEntity
8
0
100
AcDbLine
10
-90.602540378444019
20
8.0000000000002167
30
0
11
-90.602540378444019
21
5.0000000000002132
31
0
0
LINE
5
155
100
AcDbEntity
8
0
100
AcDbLine
10
-90.602540378444019
20
5.0000000000002132
30
0
11
-86.602540378443891
21
6.0000000000000142
31
0
0
LINE
5
156
100
AcDbEntity
8
0
100
AcDbLine
10
-86.602540378443891
20
6.0000000000000142
30
0
11
-86.602540378443848
21
-50.000000000000036
31
0
0
LINE
5
157
100
AcDbEntity
8
0
100
AcDbLine
10
-86.602540378443848
20
-50.000000000000036
30
0
11
-51.961524227066377
21
-70
31
0
0
ENDSEC
0
SECTION
2
OBJECTS
0
DICTIONARY
5
C
100
AcDbDictionary
3
ACAD_GROUP
350
D
3
ACAD_MLINESTYLE
350
17
0
DICTIONARY
5
D
100
AcDbDictionary
0
DICTIONARY
5
1A
330
C
100
AcDbDictionary
0
DICTIONARY
5
17
100
AcDbDictionary
0
ENDSEC
0
EOF
