0
SECTION
2
HEADER
9
$INSUNITS
70
4
9
$ACADVER
1
AC1014
9
$HANDSEED
5
FFFF
0
ENDSEC
0
SECTION
2
TABLES
0
TABLE
2
VPORT
5
8
100
AcDbSymbolTable
0
ENDTAB
0
TABLE
2
LTYPE
5
5
100
AcDbSymbolTable
0
LTYPE
5
14
100
AcDbSymbolTableRecord
100
AcDbLinetypeTableRecord
2
BYBLOCK
70
0
0
LTYPE
5
15
100
AcDbSymbolTableRecord
100
AcDbLinetypeTableRecord
2
BYLAYER
70
0
0
LTYPE
5
16
100
AcDbSymbolTableRecord
100
AcDbLinetypeTableRecord
2
DASHED
70
0
3
Dashed __ __ __ __ __ __ __ __ __ __ __ __ __ _
72
65
73
2
40
0.75
49
0.5
74
0
49
-0.25
74
0
0
ENDTAB
0
TABLE
2
LAYER
5
2
100
AcDbSymbolTable
70
2
0
LAYER
5
50
100
AcDbSymbolTableRecord
100
AcDbLayerTableRecord
2
0
70
0
62
7
6
CONTINUOUS
0
ENDTAB
0
TABLE
2
STYLE
5
3
100
AcDbSymbolTable
70
1
0
STYLE
5
11
100
AcDbSymbolTableRecord
100
AcDbTextStyleTableRecord
2
STANDARD
70
0
0
ENDTAB
0
TABLE
2
VIEW
5
6
100
AcDbSymbolTable
70
0
0
ENDTAB
0
TABLE
2
UCS
5
7
100
AcDbSymbolTable
70
0
0
ENDTAB
0
TABLE
2
APPID
5
9
100
AcDbSymbolTable
70
2
0
APPID
5
12
100
AcDbSymbolTableRecord
100
AcDbRegAppTableRecord
2
ACAD
70
0
0
ENDTAB
0
TABLE
2
DIMSTYLE
5
A
100
AcDbSymbolTable
70
1
0
ENDTAB
0
TABLE
2
BLOCK_RECORD
5
1
100
AcDbSymbolTable
70
1
0
BLOCK_RECORD
5
1F
100
AcDbSymbolTableRecord
100
AcDbBlockTableRecord
2
*MODEL_SPACE
0
BLOCK_RECORD
5
1B
100
AcDbSymbolTableRecord
100
AcDbBlockTableRecord
2
*PAPER_SPACE
0
ENDTAB
0
ENDSEC
0
SECTION
2
BLOCKS
0
BLOCK
5
20
100
AcDbEntity
100
AcDbBlockBegin
2
*MODEL_SPACE
0
ENDBLK
5
21
100
AcDbEntity
100
AcDbBlockEnd
0
BLOCK
5
1C
100
AcDbEntity
100
AcDbBlockBegin
2
*PAPER_SPACE
0
ENDBLK
5
1D
100
AcDbEntity
100
AcDbBlockEnd
0
ENDSEC
0
SECTION
2
ENTITIES
0
LWPOLYLINE
5
100
100
AcDbEntity
8
0
100
AcDbPolyline
90
4
70
1
43
0.0
10
4.3301270189221066
20
-96.345299461620783
10
3.0801270189221786
20
-94.180235952159592
10
5.2451905283832456
20
-92.930235952159592
10
6.4951905283832145
20
-95.095299461620755
0
LWPOLYLINE
5
101
100
AcDbEntity
8
0
100
AcDbPolyline
90
4
70
1
43
0.0
10
29.313282358109539
20
-80.535627355279601
10
29.91328235810975
20
-81.574857839820808
10
24.370719773889075
20
-84.774857839820299
10
23.770719773889098
20
-83.73562735527932
0
LWPOLYLINE
5
102
100
AcDbEntity
8
0
100
AcDbPolyline
90
4
70
1
43
0.0
10
-23.270719773898403
20
-84.024302489868916
10
-23.870719773898262
20
-85.063532974410208
10
-32.530973811742726
20
-80.063532974410066
10
-31.930973811742888
20
-79.02430248986883
0
LINE
5
103
100
AcDbEntity
8
0
100
AcDbLine
10
-15.155444566227768
20
-91.250000000000028
30
0
11
-16.255444566227769
21
-93.155255888325797
31
0
0
LINE
5
104
100
AcDbEntity
8
0
100
AcDbLine
10
-16.255444566227769
20
-93.155255888325797
30
0
11
-5.8631397208145097
21
-99.155255888325797
31
0
0
LINE
5
105
100
AcDbEntity
8
0
100
AcDbLine
10
-5.8631397208145097
20
-99.155255888325797
30
0
11
-4.7631397208145065
21
-97.250000000000028
31
0
0
LINE
5
106
100
AcDbEntity
8
0
100
AcDbLine
10
-4.7631397208145065
20
-97.250000000000028
30
0
11
5.773159728050814e-14
21
-99.999999999999986
31
0
0
LINE
5
107
100
AcDbEntity
8
0
100
AcDbLine
10
5.773159728050814e-14
20
-99.999999999999986
30
0
11
4.763139720814471
21
-97.250000000000028
31
0
0
LINE
5
108
100
AcDbEntity
8
0
100
AcDbLine
10
4.763139720814471
20
-97.250000000000028
30
0
11
5.8631397208144742
21
-99.155255888325797
31
0
0
LINE
5
109
100
AcDbEntity
8
0
100
AcDbLine
10
5.8631397208144742
20
-99.155255888325797
30
0
11
16.255444566227737
21
-93.155255888325797
31
0
0
LINE
5
110
100
AcDbEntity
8
0
100
AcDbLine
10
16.255444566227737
20
-93.155255888325797
30
0
11
15.155444566227736
21
-91.250000000000028
31
0
0
LINE
5
111
100
AcDbEntity
8
0
100
AcDbLine
10
15.155444566227736
20
-91.250000000000028
30
0
11
34.641016151377585
21
-80.000000000000014
31
0
0
LINE
5
112
100
AcDbEntity
8
0
100
AcDbLine
10
34.641016151377585
20
-80.000000000000014
30
0
11
38.373066958946346
21
-82.464101615137963
31
0
0
LINE
5
113
100
AcDbEntity
8
0
100
AcDbLine
10
38.373066958946346
20
-82.464101615137963
30
0
11
40.971143170299662
21
-80.964101615137963
31
0
0
LINE
5
114
100
AcDbEntity
8
0
100
AcDbLine
10
40.971143170299662
20
-80.964101615137963
30
0
11
38.105117766515335
21
-78
31
0
0
LINE
5
115
100
AcDbEntity
8
0
100
AcDbLine
10
38.105117766515335
20
-78
30
0
11
47.631397208144108
21
-72.500000000000028
31
0
0
LINE
5
116
100
AcDbEntity
8
0
100
AcDbLine
10
47.631397208144108
20
-72.500000000000028
30
0
11
7.125211990796938
21
-2.3412291827592391
31
0
0
ARC
5
117
100
AcDbEntity
8
0
100
AcDbCircle
10
1.1102230246251565e-15
20
5.5511151231257827e-16
30
0
40
7.5
210
0
220
0
230
1
100
AcDbArc
50
308.96053021868346
51
341.81031489577884
0
LINE
5
118
100
AcDbEntity
8
0
100
AcDbLine
10
-37.239092362730872
20
-78.5
30
0
11
-15.155444566227768
21
-91.250000000000028
31
0
0
LWPOLYLINE
5
119
100
AcDbEntity
8
0
100
AcDbPolyline
90
4
70
1
43
0.0
10
-6.4951905283833788
20
-95.095299461620769
10
-5.2451905283833611
20
-92.930235952159634
10
-3.0801270189222674
20
-94.180235952159634
10
-4.3301270189222905
20
-96.345299461620783
0
LWPOLYLINE
5
120
100
AcDbEntity
8
0
100
AcDbPolyline
90
4
70
1
43
0.0
10
43.799346400574933
20
-69.862693304104909
10
6.9282032302755523
20
-6.0000000000000009
10
-33.407041555161939
20
-75.862693304105278
10
-4.2153780466236412e-13
20
-95.150257738806815
0
LINE
5
121
100
AcDbEntity
8
0
100
AcDbLine
10
-37.239092362730872
20
-78.5
30
0
11
6.269675048666902
21
-3.1406042687621221
31
0
0
ENDSEC
0
SECTION
2
OBJECTS
0
DICTIONARY
5
C
100
AcDbDictionary
3
ACAD_GROUP
350
D
3
ACAD_MLINESTYLE
350
17
0
DICTIONARY
5
D
100
AcDbDictionary
0
DICTIONARY
5
1A
330
C
100
AcDbDictionary
0
DICTIONARY
5
17
100
AcDbDictionary
0
ENDSEC
0
EOF
