0
SECTION
2
HEADER
9
$INSUNITS
70
4
9
$ACADVER
1
AC1014
9
$HANDSEED
5
FFFF
0
ENDSEC
0
SECTION
2
TABLES
0
TABLE
2
VPORT
5
8
100
AcDbSymbolTable
0
ENDTAB
0
TABLE
2
LTYPE
5
5
100
AcDbSymbolTable
0
LTYPE
5
14
100
AcDbSymbolTableRecord
100
AcDbLinetypeTableRecord
2
BYBLOCK
70
0
0
LTYPE
5
15
100
AcDbSymbolTableRecord
100
AcDbLinetypeTableRecord
2
BYLAYER
70
0
0
LTYPE
5
16
100
AcDbSymbolTableRecord
100
AcDbLinetypeTableRecord
2
DASHED
70
0
3
Dashed __ __ __ __ __ __ __ __ __ __ __ __ __ _
72
65
73
2
40
0.75
49
0.5
74
0
49
-0.25
74
0
0
ENDTAB
0
TABLE
2
LAYER
5
2
100
AcDbSymbolTable
70
2
0
LAYER
5
50
100
AcDbSymbolTableRecord
100
AcDbLayerTableRecord
2
0
70
0
62
7
6
CONTINUOUS
0
ENDTAB
0
TABLE
2
STYLE
5
3
100
AcDbSymbolTable
70
1
0
STYLE
5
11
100
AcDbSymbolTableRecord
100
AcDbTextStyleTableRecord
2
STANDARD
70
0
0
ENDTAB
0
TABLE
2
VIEW
5
6
100
AcDbSymbolTable
70
0
0
ENDTAB
0
TABLE
2
UCS
5
7
100
AcDbSymbolTable
70
0
0
ENDTAB
0
TABLE
2
APPID
5
9
100
AcDbSymbolTable
70
2
0
APPID
5
12
100
AcDbSymbolTableRecord
100
AcDbRegAppTableRecord
2
ACAD
70
0
0
ENDTAB
0
TABLE
2
DIMSTYLE
5
A
100
AcDbSymbolTable
70
1
0
ENDTAB
0
TABLE
2
BLOCK_RECORD
5
1
100
AcDbSymbolTable
70
1
0
BLOCK_RECORD
5
1F
100
AcDbSymbolTableRecord
100
AcDbBlockTableRecord
2
*MODEL_SPACE
0
BLOCK_RECORD
5
1B
100
AcDbSymbolTableRecord
100
AcDbBlockTableRecord
2
*PAPER_SPACE
0
ENDTAB
0
ENDSEC
0
SECTION
2
BLOCKS
0
BLOCK
5
20
100
AcDbEntity
100
AcDbBlockBegin
2
*MODEL_SPACE
0
ENDBLK
5
21
100
AcDbEntity
100
AcDbBlockEnd
0
BLOCK
5
1C
100
AcDbEntity
100
AcDbBlockBegin
2
*PAPER_SPACE
0
ENDBLK
5
1D
100
AcDbEntity
100
AcDbBlockEnd
0
ENDSEC
0
SECTION
2
ENTITIES
0
POINT
5
100
100
AcDbEntity
8
0
100
AcDbPoint
10
0
20
0
30
0
0
POINT
5
101
100
AcDbEntity
8
0
100
AcDbPoint
10
0
20
0
30
0
0
POINT
5
102
100
AcDbEntity
8
0
100
AcDbPoint
10
0
20
0
30
0
0
POINT
5
103
100
AcDbEntity
8
0
100
AcDbPoint
10
0
20
0
30
0
0
POINT
5
104
100
AcDbEntity
8
0
100
AcDbPoint
10
0
20
0
30
0
0
LWPOLYLINE
5
105
100
AcDbEntity
8
0
100
AcDbPolyline
90
6
70
1
43
0.0
10
86.602540378443933
20
-49.999999999999936
10
86.602540378443848
20
50.000000000000036
10
-5.782356161857981e-14
20
99.999999999999986
10
-86.602540378443905
20
49.999999999999964
10
-86.602540378443877
20
-50.000000000000007
10
3.3427325353687287e-15
20
-100.00000000000001
0
LWPOLYLINE
5
106
100
AcDbEntity
8
0
100
AcDbPolyline
90
6
70
1
43
0.0
10
3.0767402982137057e-14
20
-104.61880215351698
10
90.602540378443862
20
-52.309401076758519
10
90.602540378443891
20
52.309401076758533
10
-1.8025999879258572e-14
20
104.61880215351712
10
-90.602540378443592
20
52.309401076758839
10
-90.602540378443663
20
-52.30940107675849
0
LINE
5
107
100
AcDbEntity
8
0
100
AcDbLine
10
0
20
0
30
0
11
0
21
-155
31
0
0
LWPOLYLINE
5
108
100
AcDbEntity
8
0
100
AcDbPolyline
90
6
70
1
43
0.0
10
5.5511151231257843e-15
20
-98.845299461620741
10
85.602540378443891
20
-49.422649730810384
10
85.602540378443877
20
49.422649730810384
10
6.5539428365174825e-15
20
98.845299461620769
10
-85.602540378471531
20
49.422649730810406
10
-85.602540378443933
20
-49.422649730810342
0
LWPOLYLINE
5
109
100
AcDbEntity
8
0
100
AcDbPolyline
90
6
70
1
43
0.0
10
5.5511151231257843e-15
20
-97.459658815565646
10
84.402540378443888
20
-48.729829407782844
10
84.402540378443888
20
48.729829407782816
10
6.3842507982631581e-15
20
97.45965881556566
10
-84.402540378443859
20
48.729829407782873
10
-84.402540378443902
20
-48.729829407782773
0
LINE
5
110
100
AcDbEntity
8
0
100
AcDbLine
10
-85.602540378443905
20
-44.422649730810342
30
0
11
-84.402540378443916
21
-44.422649730810321
31
0
0
LINE
5
111
100
AcDbEntity
8
0
100
AcDbLine
10
-81.272413359521721
20
-51.92264973081037
30
0
11
-80.672413359521926
21
-50.883419246268872
31
0
0
LINE
5
112
100
AcDbEntity
8
0
100
AcDbLine
10
-56.901693585632287
20
-65.99309135261035
30
0
11
-56.301693585632371
21
-64.953860868068944
31
0
0
LINE
5
113
100
AcDbEntity
8
0
100
AcDbLine
10
-28.200846792820663
20
-82.56353297441035
30
0
11
-27.60084679282075
21
-81.524302489868944
31
0
0
LINE
5
114
100
AcDbEntity
8
0
100
AcDbLine
10
-60.631820604554477
20
-62.453860868068745
30
0
11
-61.231820604554201
21
-63.493091352609873
31
0
0
LINE
5
115
100
AcDbEntity
8
0
100
AcDbLine
10
-55.089258020334285
20
-65.653860868068875
30
0
11
-55.68925802033408
21
-66.693091352610338
31
0
0
LINE
5
116
100
AcDbEntity
8
0
100
AcDbLine
10
-31.930973811742881
20
-79.02430248986883
30
0
11
-32.530973811742719
21
-80.063532974410066
31
0
0
LINE
5
117
100
AcDbEntity
8
0
100
AcDbLine
10
-23.270719773898392
20
-84.024302489868916
30
0
11
-23.870719773898248
21
-85.063532974410208
31
0
0
LINE
5
118
100
AcDbEntity
8
0
100
AcDbLine
10
61.131820604545339
20
-62.165185733479333
30
0
11
61.731820604545376
21
-63.204416218020512
31
0
0
LINE
5
119
100
AcDbEntity
8
0
100
AcDbLine
10
52.47156656670083
20
-67.16518573347939
30
0
11
53.071566566700824
21
-68.204416218020526
31
0
0
LINE
5
120
100
AcDbEntity
8
0
100
AcDbLine
10
29.313282358109557
20
-80.535627355279601
30
0
11
29.913282358109786
21
-81.574857839820794
31
0
0
LINE
5
121
100
AcDbEntity
8
0
100
AcDbLine
10
23.770719773889137
20
-83.73562735527932
30
0
11
24.370719773889093
21
-84.774857839820271
31
0
0
LINE
5
122
100
AcDbEntity
8
0
100
AcDbLine
10
4.3301270189221395
20
-96.345299461620783
30
0
11
3.7301270189219089
21
-95.306068977079548
31
0
0
LINE
5
123
100
AcDbEntity
8
0
100
AcDbLine
10
-4.3301270189222585
20
-96.345299461620769
30
0
11
-3.7301270189222779
21
-95.306068977079462
31
0
0
LINE
5
124
100
AcDbEntity
8
0
100
AcDbLine
10
84.402540378443746
20
21.859116756389561
30
0
11
85.602540378443607
21
21.85911675638966
31
0
0
LINE
5
125
100
AcDbEntity
8
0
100
AcDbLine
10
84.402540378443717
20
11.85911675638943
30
0
11
85.602540378443564
21
11.859116756389529
31
0
0
LINE
5
126
100
AcDbEntity
8
0
100
AcDbLine
10
84.402540378443831
20
-14.881766487210694
30
0
11
85.602540378443862
21
-14.881766487210449
31
0
0
LINE
5
127
100
AcDbEntity
8
0
100
AcDbLine
10
84.402540378443618
20
-21.281766487210596
30
0
11
85.602540378443294
21
-21.281766487210447
31
0
0
LINE
5
128
100
AcDbEntity
8
0
100
AcDbLine
10
85.602540378443877
20
-44.422649730810448
30
0
11
84.402540378443831
21
-44.422649730810697
31
0
0
LINE
5
129
100
AcDbEntity
8
0
100
AcDbLine
10
81.272413359521636
20
-51.922649730810448
30
0
11
80.67241335952167
21
-50.883419246269135
31
0
0
LINE
5
130
100
AcDbEntity
8
0
100
AcDbLine
10
23.270719773898403
20
84.024302489868916
30
0
11
23.870719773898262
21
85.063532974410208
31
0
0
LINE
5
131
100
AcDbEntity
8
0
100
AcDbLine
10
31.930973811742888
20
79.02430248986883
30
0
11
32.530973811742726
21
80.063532974410066
31
0
0
LINE
5
132
100
AcDbEntity
8
0
100
AcDbLine
10
55.089258020334299
20
65.653860868068875
30
0
11
55.689258020334087
21
66.693091352610338
31
0
0
LINE
5
133
100
AcDbEntity
8
0
100
AcDbLine
10
60.631820604554491
20
62.453860868068737
30
0
11
61.231820604554208
21
63.493091352609866
31
0
0
LINE
5
134
100
AcDbEntity
8
0
100
AcDbLine
10
81.272413359521721
20
51.922649730810363
30
0
11
80.672413359521926
21
50.883419246268872
31
0
0
LINE
5
135
100
AcDbEntity
8
0
100
AcDbLine
10
85.602540378443933
20
44.422649730810321
30
0
11
84.402540378443945
21
44.422649730810313
31
0
0
LINE
5
136
100
AcDbEntity
8
0
100
AcDbLine
10
-61.131820604545332
20
62.165185733479376
30
0
11
-61.731820604545355
21
63.20441621802054
31
0
0
LINE
5
137
100
AcDbEntity
8
0
100
AcDbLine
10
-52.471566566700801
20
67.165185733479404
30
0
11
-53.071566566700817
21
68.204416218020555
31
0
0
LINE
5
138
100
AcDbEntity
8
0
100
AcDbLine
10
-29.313282358109539
20
80.535627355279601
30
0
11
-29.91328235810975
21
81.574857839820808
31
0
0
LINE
5
139
100
AcDbEntity
8
0
100
AcDbLine
10
-23.770719773889098
20
83.73562735527932
30
0
11
-24.370719773889075
21
84.774857839820299
31
0
0
LINE
5
140
100
AcDbEntity
8
0
100
AcDbLine
10
-4.3301270189221066
20
96.345299461620783
30
0
11
-3.7301270189218769
21
95.306068977079562
31
0
0
LINE
5
141
100
AcDbEntity
8
0
100
AcDbLine
10
4.3301270189222905
20
96.345299461620783
30
0
11
3.7301270189223104
21
95.306068977079462
31
0
0
LINE
5
142
100
AcDbEntity
8
0
100
AcDbLine
10
-84.402540378443774
20
-21.859116756389518
30
0
11
-85.602540378443621
21
-21.859116756389618
31
0
0
LINE
5
143
100
AcDbEntity
8
0
100
AcDbLine
10
-84.402540378443717
20
-11.859116756389387
30
0
11
-85.602540378443564
21
-11.859116756389485
31
0
0
LINE
5
144
100
AcDbEntity
8
0
100
AcDbLine
10
-84.402540378443845
20
14.881766487210744
30
0
11
-85.602540378443848
21
14.881766487210502
31
0
0
LINE
5
145
100
AcDbEntity
8
0
100
AcDbLine
10
-84.402540378443618
20
21.281766487210643
30
0
11
-85.602540378443294
21
21.281766487210501
31
0
0
LINE
5
146
100
AcDbEntity
8
0
100
AcDbLine
10
-85.602540378443848
20
44.422649730810484
30
0
11
-84.402540378443817
21
44.42264973081074
31
0
0
LINE
5
147
100
AcDbEntity
8
0
100
AcDbLine
10
-81.272413359521622
20
51.922649730810484
30
0
11
-80.672413359521627
21
50.883419246269185
31
0
0
LINE
5
148
100
AcDbEntity
8
0
100
AcDbLine
10
-85.602540378443933
20
-41.922649730810342
30
0
11
-84.402540378443916
21
-41.922649730810321
31
0
0
LINE
5
149
100
AcDbEntity
8
0
100
AcDbLine
10
-78.507349850060862
20
-52.133419246268851
30
0
11
-79.107349850060615
21
-53.172649730810349
31
0
0
LINE
5
150
100
AcDbEntity
8
0
100
AcDbLine
10
-6.4951905283833611
20
-95.095299461620783
30
0
11
-5.8951905283833721
21
-94.056068977079434
31
0
0
LINE
5
151
100
AcDbEntity
8
0
100
AcDbLine
10
5.8951905283829618
20
-94.056068977079576
30
0
11
6.4951905283832412
21
-95.095299461620769
31
0
0
LINE
5
152
100
AcDbEntity
8
0
100
AcDbLine
10
79.107349850060572
20
-53.172649730810463
30
0
11
78.507349850060535
21
-52.133419246269128
31
0
0
LINE
5
153
100
AcDbEntity
8
0
100
AcDbLine
10
84.402540378443831
20
-41.922649730810747
30
0
11
85.602540378443862
21
-41.922649730810448
31
0
0
LINE
5
154
100
AcDbEntity
8
0
100
AcDbLine
10
85.602540378443933
20
41.922649730810335
30
0
11
84.402540378443902
21
41.922649730810313
31
0
0
LINE
5
155
100
AcDbEntity
8
0
100
AcDbLine
10
78.507349850060876
20
52.133419246268843
30
0
11
79.107349850060615
21
53.172649730810342
31
0
0
LINE
5
156
100
AcDbEntity
8
0
100
AcDbLine
10
6.4951905283833788
20
95.095299461620769
30
0
11
5.8951905283834023
21
94.056068977079434
31
0
0
LINE
5
157
100
AcDbEntity
8
0
100
AcDbLine
10
-5.8951905283829307
20
94.056068977079605
30
0
11
-6.4951905283832145
21
95.095299461620755
31
0
0
LINE
5
158
100
AcDbEntity
8
0
100
AcDbLine
10
-79.107349850060544
20
53.172649730810512
30
0
11
-78.507349850060507
21
52.133419246269177
31
0
0
LINE
5
159
100
AcDbEntity
8
0
100
AcDbLine
10
-84.402540378443817
20
41.922649730810797
30
0
11
-85.60254037844382
21
41.922649730810484
31
0
0
LINE
5
160
100
AcDbEntity
8
0
100
AcDbLine
10
-84.402540378443916
20
-41.922649730810321
30
0
11
-83.102540378443891
21
-41.922649730810342
31
0
0
LINE
5
161
100
AcDbEntity
8
0
100
AcDbLine
10
-83.102540378443891
20
-41.922649730810342
30
0
11
-83.102540378443891
21
-44.422649730810342
31
0
0
LINE
5
162
100
AcDbEntity
8
0
100
AcDbLine
10
-83.102540378443891
20
-44.422649730810342
30
0
11
-84.402540378443916
21
-44.422649730810321
31
0
0
LINE
5
163
100
AcDbEntity
8
0
100
AcDbLine
10
-80.672413359521926
20
-50.883419246268872
30
0
11
-80.022413359521636
21
-49.757586221349271
31
0
0
LINE
5
164
100
AcDbEntity
8
0
100
AcDbLine
10
-78.507349850060862
20
-52.133419246268851
30
0
11
-77.857349850060558
21
-51.00758622134925
31
0
0
LINE
5
165
100
AcDbEntity
8
0
100
AcDbLine
10
-77.857349850060558
20
-51.00758622134925
30
0
11
-80.022413359521636
21
-49.757586221349271
31
0
0
LINE
5
166
100
AcDbEntity
8
0
100
AcDbLine
10
-5.8951905283833721
20
-94.056068977079434
30
0
11
-5.2451905283833433
21
-92.930235952159677
31
0
0
LINE
5
167
100
AcDbEntity
8
0
100
AcDbLine
10
-5.2451905283833433
20
-92.930235952159677
30
0
11
-3.0801270189222452
21
-94.180235952159677
31
0
0
LINE
5
168
100
AcDbEntity
8
0
100
AcDbLine
10
-3.0801270189222452
20
-94.180235952159677
30
0
11
-3.7301270189222779
21
-95.306068977079462
31
0
0
LINE
5
169
100
AcDbEntity
8
0
100
AcDbLine
10
3.7301270189219022
20
-95.306068977079548
30
0
11
3.0801270189221963
21
-94.18023595215962
31
0
0
LINE
5
170
100
AcDbEntity
8
0
100
AcDbLine
10
5.2451905283832634
20
-92.93023595215962
30
0
11
3.0801270189221963
21
-94.18023595215962
31
0
0
LINE
5
171
100
AcDbEntity
8
0
100
AcDbLine
10
5.8951905283829618
20
-94.056068977079576
30
0
11
5.2451905283832634
21
-92.93023595215962
31
0
0
LINE
5
172
100
AcDbEntity
8
0
100
AcDbLine
10
78.507349850060535
20
-52.133419246269128
30
0
11
77.857349850060558
21
-51.007586221349342
31
0
0
LINE
5
173
100
AcDbEntity
8
0
100
AcDbLine
10
77.857349850060558
20
-51.007586221349342
30
0
11
80.02241335952165
21
-49.757586221349342
31
0
0
LINE
5
174
100
AcDbEntity
8
0
100
AcDbLine
10
80.02241335952165
20
-49.757586221349342
30
0
11
80.67241335952167
21
-50.883419246269135
31
0
0
LINE
5
175
100
AcDbEntity
8
0
100
AcDbLine
10
84.402540378443845
20
-44.422649730810718
30
0
11
83.102540378443848
21
-44.42264973081037
31
0
0
LINE
5
176
100
AcDbEntity
8
0
100
AcDbLine
10
83.102540378443805
20
-41.922649730810392
30
0
11
83.102540378443848
21
-44.42264973081037
31
0
0
LINE
5
177
100
AcDbEntity
8
0
100
AcDbLine
10
84.402540378443831
20
-41.922649730810747
30
0
11
83.102540378443805
21
-41.922649730810392
31
0
0
LINE
5
178
100
AcDbEntity
8
0
100
AcDbLine
10
84.402540378443902
20
41.922649730810313
30
0
11
83.102540378443891
21
41.922649730810335
31
0
0
LINE
5
179
100
AcDbEntity
8
0
100
AcDbLine
10
83.102540378443891
20
41.922649730810335
30
0
11
83.102540378443891
21
44.422649730810335
31
0
0
LINE
5
180
100
AcDbEntity
8
0
100
AcDbLine
10
83.102540378443891
20
44.422649730810335
30
0
11
84.402540378443945
21
44.422649730810313
31
0
0
LINE
5
181
100
AcDbEntity
8
0
100
AcDbLine
10
80.672413359521926
20
50.883419246268872
30
0
11
80.022413359521636
21
49.757586221349264
31
0
0
LINE
5
182
100
AcDbEntity
8
0
100
AcDbLine
10
77.857349850060558
20
51.007586221349243
30
0
11
80.022413359521636
21
49.757586221349264
31
0
0
LINE
5
183
100
AcDbEntity
8
0
100
AcDbLine
10
78.507349850060876
20
52.133419246268843
30
0
11
77.857349850060558
21
51.007586221349243
31
0
0
LINE
5
184
100
AcDbEntity
8
0
100
AcDbLine
10
5.8951905283834023
20
94.056068977079434
30
0
11
5.2451905283833611
21
92.930235952159634
31
0
0
LINE
5
185
100
AcDbEntity
8
0
100
AcDbLine
10
5.2451905283833611
20
92.930235952159634
30
0
11
3.0801270189222674
21
94.180235952159634
31
0
0
LINE
5
186
100
AcDbEntity
8
0
100
AcDbLine
10
3.0801270189222674
20
94.180235952159634
30
0
11
3.7301270189223104
21
95.306068977079462
31
0
0
LINE
5
187
100
AcDbEntity
8
0
100
AcDbLine
10
-3.7301270189218698
20
95.306068977079576
30
0
11
-3.0801270189221786
21
94.180235952159592
31
0
0
LINE
5
188
100
AcDbEntity
8
0
100
AcDbLine
10
-5.2451905283832456
20
92.930235952159592
30
0
11
-3.0801270189221786
21
94.180235952159592
31
0
0
LINE
5
189
100
AcDbEntity
8
0
100
AcDbLine
10
-5.8951905283829307
20
94.056068977079605
30
0
11
-5.2451905283832456
21
92.930235952159592
31
0
0
LINE
5
190
100
AcDbEntity
8
0
100
AcDbLine
10
-78.507349850060507
20
52.133419246269177
30
0
11
-77.85734985006053
21
51.007586221349385
31
0
0
LINE
5
191
100
AcDbEntity
8
0
100
AcDbLine
10
-77.85734985006053
20
51.007586221349385
30
0
11
-80.022413359521622
21
49.757586221349385
31
0
0
LINE
5
192
100
AcDbEntity
8
0
100
AcDbLine
10
-80.022413359521622
20
49.757586221349385
30
0
11
-80.672413359521627
21
50.883419246269185
31
0
0
LINE
5
193
100
AcDbEntity
8
0
100
AcDbLine
10
-84.402540378443831
20
44.422649730810761
30
0
11
-83.102540378443805
21
44.422649730810413
31
0
0
LINE
5
194
100
AcDbEntity
8
0
100
AcDbLine
10
-83.102540378443805
20
41.922649730810434
30
0
11
-83.102540378443805
21
44.422649730810413
31
0
0
LINE
5
195
100
AcDbEntity
8
0
100
AcDbLine
10
-84.402540378443817
20
41.922649730810797
30
0
11
-83.102540378443805
21
41.922649730810434
31
0
0
ENDSEC
0
SECTION
2
OBJECTS
0
DICTIONARY
5
C
100
AcDbDictionary
3
ACAD_GROUP
350
D
3
ACAD_MLINESTYLE
350
17
0
DICTIONARY
5
D
100
AcDbDictionary
0
DICTIONARY
5
1A
330
C
100
AcDbDictionary
0
DICTIONARY
5
17
100
AcDbDictionary
0
ENDSEC
0
EOF
