                                                                        S      1
,,11HJoystick v5,11HJoystick v5,7Hunknown,7Hunknown,32,38,7,99,15,,1.,2,G      1
2HMM,1,0.08,15H20250912.002656,0.01,10000.,7Hunknown,7Hunknown,11,0,15H2G      2
0200524.131736;                                                         G      3
     186       1                                                00000000D      1
     186            -335       1       0                               0D      2
     514       2                                                00010000D      3
     514                       3       1                               0D      4
     510       5                                                00010000D      5
     510            -335       1       1                               0D      6
     510       6                                                00010000D      7
     510            -335       1       1                               0D      8
     510       7                                                00010000D      9
     510            -335       1       1                               0D     10
     510       8                                                00010000D     11
     510            -335       1       1                               0D     12
     510       9                                                00010000D     13
     510            -335       1       1                               0D     14
     510      10                                                00010000D     15
     510            -335       1       1                               0D     16
     510      11                                                00010000D     17
     510            -335       1       1                               0D     18
     510      12                                                00010000D     19
     510            -335       1       1                               0D     20
     510      13                                                00010000D     21
     510            -335       1       1                               0D     22
     510      14                                                00010000D     23
     510            -335       1       1                               0D     24
     510      15                                                00010000D     25
     510            -335       1       1                               0D     26
     510      16                                                00010000D     27
     510            -335       1       1                               0D     28
     510      17                                                00010000D     29
     510            -335       1       1                               0D     30
     510      18                                                00010000D     31
     510            -335       1       1                               0D     32
     510      19                                                00010000D     33
     510            -335       1       1                               0D     34
     510      20                                                00010000D     35
     510            -335       1       1                               0D     36
     510      21                                                00010000D     37
     510            -335       1       1                               0D     38
     510      22                                                00010000D     39
     510            -335       1       1                               0D     40
     510      23                                                00010000D     41
     510            -335       1       1                               0D     42
     510      24                                                00010000D     43
     510            -335       1       1                               0D     44
     510      25                                                00010000D     45
     510            -335       1       1                               0D     46
     510      26                                                00010000D     47
     510            -335       1       1                               0D     48
     510      27                                                00010000D     49
     510            -335       1       1                               0D     50
     510      28                                                00010000D     51
     510            -335       1       1                               0D     52
     510      29                                                00010000D     53
     510            -335       1       1                               0D     54
     510      30                                                00010000D     55
     510            -335       1       1                               0D     56
     510      31                                                00010000D     57
     510            -335       1       1                               0D     58
     510      32                                                00010000D     59
     510            -335       1       1                               0D     60
     510      33                                                00010000D     61
     510            -335       1       1                               0D     62
     508      34                                                00010000D     63
     508                       1       1                               0D     64
     508      35                                                00010000D     65
     508                       1       1                               0D     66
     508      36                                                00010000D     67
     508                       1       1                               0D     68
     508      37                                                00010000D     69
     508                       1       1                               0D     70
     508      38                                                00010000D     71
     508                       1       1                               0D     72
     508      39                                                00010000D     73
     508                       1       1                               0D     74
     508      40                                                00010000D     75
     508                       1       1                               0D     76
     508      41                                                00010000D     77
     508                       1       1                               0D     78
     508      42                                                00010000D     79
     508                       1       1                               0D     80
     508      43                                                00010000D     81
     508                       1       1                               0D     82
     508      44                                                00010000D     83
     508                       1       1                               0D     84
     508      45                                                00010000D     85
     508                       1       1                               0D     86
     508      46                                                00010000D     87
     508                       1       1                               0D     88
     508      47                                                00010000D     89
     508                       1       1                               0D     90
     508      48                                                00010000D     91
     508                       1       1                               0D     92
     508      49                                                00010000D     93
     508                       1       1                               0D     94
     508      50                                                00010000D     95
     508                       1       1                               0D     96
     508      51                                                00010000D     97
     508                       1       1                               0D     98
     508      52                                                00010000D     99
     508                       1       1                               0D    100
     508      53                                                00010000D    101
     508                       1       1                               0D    102
     508      54                                                00010000D    103
     508                       1       1                               0D    104
     508      55                                                00010000D    105
     508                       1       1                               0D    106
     508      56                                                00010000D    107
     508                       1       1                               0D    108
     508      57                                                00010000D    109
     508                       1       1                               0D    110
     508      58                                                00010000D    111
     508                       1       1                               0D    112
     508      59                                                00010000D    113
     508                       1       1                               0D    114
     508      60                                                00010000D    115
     508                       1       1                               0D    116
     508      61                                                00010000D    117
     508                       3       1                               0D    118
     508      64                                                00010000D    119
     508                       1       1                               0D    120
     508      65                                                00010000D    121
     508                       3       1                               0D    122
     508      68                                                00010000D    123
     508                       1       1                               0D    124
     508      69                                                00010000D    125
     508                       1       1                               0D    126
     126      70                                                00010000D    127
     126       0               2       0                               0D    128
     126      72                                                00010000D    129
     126       0               2       0                               0D    130
     126      74                                                00010000D    131
     126       0               2       0                               0D    132
     126      76                                                00010000D    133
     126       0               2       0                               0D    134
     126      78                                                00010000D    135
     126       0               2       0                               0D    136
     126      80                                                00010000D    137
     126       0               2       0                               0D    138
     126      82                                                00010000D    139
     126       0               2       0                               0D    140
     126      84                                                00010000D    141
     126       0               2       0                               0D    142
     126      86                                                00010000D    143
     126       0               2       0                               0D    144
     126      88                                                00010000D    145
     126       0               2       0                               0D    146
     126      90                                                00010000D    147
     126       0               2       0                               0D    148
     126      92                                                00010000D    149
     126       0               2       0                               0D    150
     126      94                                                00010000D    151
     126       0               2       0                               0D    152
     126      96                                                00010000D    153
     126       0               2       0                               0D    154
     126      98                                                00010000D    155
     126       0               2       0                               0D    156
     126     100                                                00010000D    157
     126       0               2       0                               0D    158
     126     102                                                00010000D    159
     126       0               2       0                               0D    160
     126     104                                                00010000D    161
     126       0               2       0                               0D    162
     126     106                                                00010000D    163
     126       0               2       0                               0D    164
     126     108                                                00010000D    165
     126       0               2       0                               0D    166
     126     110                                                00010000D    167
     126       0               2       0                               0D    168
     126     112                                                00010000D    169
     126       0               2       0                               0D    170
     126     114                                                00010000D    171
     126       0               2       0                               0D    172
     126     116                                                00010000D    173
     126       0               2       0                               0D    174
     126     118                                                00010000D    175
     126       0               2       0                               0D    176
     126     120                                                00010000D    177
     126       0               2       0                               0D    178
     126     122                                                00010000D    179
     126       0               2       0                               0D    180
     126     124                                                00010000D    181
     126       0               2       0                               0D    182
     126     126                                                00010000D    183
     126       0               2       0                               0D    184
     126     128                                                00010000D    185
     126       0               2       0                               0D    186
     126     130                                                00010000D    187
     126       0               2       0                               0D    188
     126     132                                                00010000D    189
     126       0               2       0                               0D    190
     126     134                                                00010000D    191
     126       0               2       0                               0D    192
     126     136                                                00010000D    193
     126       0               2       0                               0D    194
     126     138                                                00010000D    195
     126       0               2       0                               0D    196
     126     140                                                00010000D    197
     126       0               2       0                               0D    198
     126     142                                                00010000D    199
     126       0               2       0                               0D    200
     126     144                                                00010000D    201
     126       0               2       0                               0D    202
     126     146                                                00010000D    203
     126       0               2       0                               0D    204
     126     148                                                00010000D    205
     126       0               2       0                               0D    206
     126     150                                                00010000D    207
     126       0               3       0                               0D    208
     126     153                                                00010000D    209
     126       0               2       0                               0D    210
     126     155                                                00010000D    211
     126       0               2       0                               0D    212
     126     157                                                00010000D    213
     126       0               2       0                               0D    214
     126     159                                                00010000D    215
     126       0               3       0                               0D    216
     126     162                                                00010000D    217
     126       0               2       0                               0D    218
     126     164                                                00010000D    219
     126       0               2       0                               0D    220
     126     166                                                00010000D    221
     126       0               3       0                               0D    222
     126     169                                                00010000D    223
     126       0               2       0                               0D    224
     126     171                                                00010000D    225
     126       0               2       0                               0D    226
     126     173                                                00010000D    227
     126       0               2       0                               0D    228
     126     175                                                00010000D    229
     126       0               2       0                               0D    230
     126     177                                                00010000D    231
     126       0               2       0                               0D    232
     126     179                                                00010000D    233
     126       0               2       0                               0D    234
     126     181                                                00010000D    235
     126       0               2       0                               0D    236
     126     183                                                00010000D    237
     126       0               2       0                               0D    238
     126     185                                                00010000D    239
     126       0               2       0                               0D    240
     126     187                                                00010000D    241
     126       0               2       0                               0D    242
     126     189                                                00010000D    243
     126       0               2       0                               0D    244
     126     191                                                00010000D    245
     126       0               2       0                               0D    246
     126     193                                                00010000D    247
     126       0               2       0                               0D    248
     126     195                                                00010000D    249
     126       0               2       0                               0D    250
     126     197                                                00010000D    251
     126       0               2       0                               0D    252
     126     199                                                00010000D    253
     126       0               2       0                               0D    254
     126     201                                                00010000D    255
     126       0               2       0                               0D    256
     126     203                                                00010000D    257
     126       0               2       0                               0D    258
     126     205                                                00010000D    259
     126       0               2       0                               0D    260
     126     207                                                00010000D    261
     126       0               2       0                               0D    262
     126     209                                                00010000D    263
     126       0               2       0                               0D    264
     126     211                                                00010000D    265
     126       0               2       0                               0D    266
     126     213                                                00010000D    267
     126       0               2       0                               0D    268
     126     215                                                00010000D    269
     126       0               2       0                               0D    270
     128     217                                                00010000D    271
     128       0    -335       3       0                               0D    272
     128     220                                                00010000D    273
     128       0    -335       3       0                               0D    274
     128     223                                                00010000D    275
     128       0    -335       3       0                               0D    276
     128     226                                                00010000D    277
     128       0    -335       3       0                               0D    278
     128     229                                                00010000D    279
     128       0    -335       3       0                               0D    280
     128     232                                                00010000D    281
     128       0    -335       3       0                               0D    282
     128     235                                                00010000D    283
     128       0    -335       3       0                               0D    284
     128     238                                                00010000D    285
     128       0    -335       4       0                               0D    286
     128     242                                                00010000D    287
     128       0    -335       4       0                               0D    288
     128     246                                                00010000D    289
     128       0    -335       3       0                               0D    290
     128     249                                                00010000D    291
     128       0    -335       4       0                               0D    292
     128     253                                                00010000D    293
     128       0    -335       3       0                               0D    294
     128     256                                                00010000D    295
     128       0    -335       3       0                               0D    296
     128     259                                                00010000D    297
     128       0    -335       3       0                               0D    298
     128     262                                                00010000D    299
     128       0    -335       4       0                               0D    300
     128     266                                                00010000D    301
     128       0    -335       4       0                               0D    302
     128     270                                                00010000D    303
     128       0    -335       5       0                               0D    304
     128     275                                                00010000D    305
     128       0    -335       3       0                               0D    306
     128     278                                                00010000D    307
     128       0    -335       5       0                               0D    308
     128     283                                                00010000D    309
     128       0    -335       5       0                               0D    310
     128     288                                                00010000D    311
     128       0    -335       3       0                               0D    312
     128     291                                                00010000D    313
     128       0    -335       3       0                               0D    314
     128     294                                                00010000D    315
     128       0    -335       3       0                               0D    316
     128     297                                                00010000D    317
     128       0    -335       3       0                               0D    318
     128     300                                                00010000D    319
     128       0    -335       5       0                               0D    320
     128     305                                                00010000D    321
     128       0    -335       3       0                               0D    322
     128     308                                                00010000D    323
     128       0    -335       3       0                               0D    324
     128     311                                                00010000D    325
     128       0    -335       3       0                               0D    326
     128     314                                                00010000D    327
     128       0    -335       3       0                               0D    328
     502     317                                                00010000D    329
     502                      14       1                               0D    330
     504     331                                                00010001D    331
     504                      21       1                               0D    332
     406     352                                                00000000D    333
     406                       1      15                               0D    334
     314     353                                                00000200D    335
     314                       2       0                               0D    336
186,3,1,0,0,1,333;                                                     1P      1
514,29,5,1,7,1,9,1,11,1,13,1,15,1,17,1,19,1,21,1,23,1,25,1,27,1,       3P      2
29,1,31,1,33,1,35,1,37,1,39,1,41,1,43,1,45,1,47,1,49,1,51,1,53,        3P      3
1,55,1,57,1,59,1,61,1;                                                 3P      4
510,271,1,1,63;                                                        5P      5
510,273,1,1,65;                                                        7P      6
510,275,1,1,67;                                                        9P      7
510,277,1,1,69;                                                       11P      8
510,279,1,1,71;                                                       13P      9
510,281,1,1,73;                                                       15P     10
510,283,1,1,75;                                                       17P     11
510,285,1,1,77;                                                       19P     12
510,287,1,1,79;                                                       21P     13
510,289,1,1,81;                                                       23P     14
510,291,1,1,83;                                                       25P     15
510,293,1,1,85;                                                       27P     16
510,295,1,1,87;                                                       29P     17
510,297,1,1,89;                                                       31P     18
510,299,1,1,91;                                                       33P     19
510,301,1,1,93;                                                       35P     20
510,303,1,1,95;                                                       37P     21
510,305,1,1,97;                                                       39P     22
510,307,1,1,99;                                                       41P     23
510,309,1,1,101;                                                      43P     24
510,311,1,1,103;                                                      45P     25
510,313,1,1,105;                                                      47P     26
510,315,1,1,107;                                                      49P     27
510,317,1,1,109;                                                      51P     28
510,319,1,1,111;                                                      53P     29
510,321,1,1,113;                                                      55P     30
510,323,1,1,115;                                                      57P     31
510,325,2,1,117,119;                                                  59P     32
510,327,3,1,121,123,125;                                              61P     33
508,4,0,331,1,0,0,0,331,2,1,0,0,331,3,0,0,0,331,4,0,0;                63P     34
508,4,0,331,5,0,0,0,331,4,1,0,0,331,6,0,0,0,331,7,0,0;                65P     35
508,4,0,331,8,0,0,0,331,7,1,0,0,331,9,0,0,0,331,10,0,0;               67P     36
508,4,0,331,11,0,0,0,331,10,1,0,0,331,12,0,0,0,331,2,0,0;             69P     37
508,4,0,331,12,1,0,0,331,9,1,0,0,331,6,1,0,0,331,3,1,0;               71P     38
508,4,0,331,13,0,0,0,331,14,1,0,0,331,15,0,0,0,331,16,0,0;            73P     39
508,4,0,331,17,0,0,0,331,16,1,0,0,331,18,0,0,0,331,19,0,0;            75P     40
508,4,0,331,20,0,0,0,331,19,1,0,0,331,21,0,0,0,331,22,0,0;            77P     41
508,4,0,331,23,0,0,0,331,22,1,0,0,331,24,0,0,0,331,14,0,0;            79P     42
508,4,0,331,24,1,0,0,331,21,1,0,0,331,18,1,0,0,331,15,1,0;            81P     43
508,4,0,331,25,0,0,0,331,26,1,0,0,331,27,0,0,0,331,28,0,0;            83P     44
508,4,0,331,29,0,0,0,331,30,1,0,0,331,31,0,0,0,331,32,0,0;            85P     45
508,4,0,331,33,1,0,0,331,31,1,0,0,331,34,1,0,0,331,27,1,0;            87P     46
508,4,0,331,25,1,0,0,331,35,0,0,0,331,36,0,0,0,331,37,1,0;            89P     47
508,4,0,331,29,1,0,0,331,38,1,0,0,331,39,1,0,0,331,40,0,0;            91P     48
508,4,0,331,41,0,0,0,331,42,1,0,0,331,43,0,0,0,331,44,0,0;            93P     49
508,4,0,331,45,0,0,0,331,46,1,0,0,331,47,0,0,0,331,48,0,0;            95P     50
508,4,0,331,49,1,0,0,331,47,1,0,0,331,50,1,0,0,331,43,1,0;            97P     51
508,4,0,331,41,1,0,0,331,51,0,0,0,331,39,0,0,0,331,52,1,0;            99P     52
508,4,0,331,45,1,0,0,331,53,1,0,0,331,54,1,0,0,331,55,0,0;           101P     53
508,4,0,331,56,0,0,0,331,57,1,0,0,331,58,0,0,0,331,59,0,0;           103P     54
508,4,0,331,60,0,0,0,331,59,1,0,0,331,61,0,0,0,331,62,0,0;           105P     55
508,4,0,331,63,0,0,0,331,62,1,0,0,331,64,0,0,0,331,65,0,0;           107P     56
508,4,0,331,66,0,0,0,331,65,1,0,0,331,67,0,0,0,331,57,0,0;           109P     57
508,4,0,331,67,1,0,0,331,64,1,0,0,331,61,1,0,0,331,58,1,0;           111P     58
508,4,0,331,68,1,0,0,331,36,1,0,0,331,69,0,0,0,331,70,0,0;           113P     59
508,4,0,331,71,1,0,0,331,70,1,0,0,331,72,0,0,0,331,54,0,0;           115P     60
508,12,0,331,51,1,0,0,331,44,1,0,0,331,50,0,0,0,331,46,0,0,0,        117P     61
331,55,1,0,0,331,72,1,0,0,331,69,1,0,0,331,35,1,0,0,331,28,1,0,      117P     62
0,331,34,0,0,0,331,30,0,0,0,331,40,1,0;                              117P     63
508,4,0,331,56,1,0,0,331,60,1,0,0,331,63,1,0,0,331,66,1,0;           119P     64
508,12,0,331,52,0,0,0,331,38,0,0,0,331,32,1,0,0,331,33,0,0,0,        121P     65
331,26,0,0,0,331,37,0,0,0,331,68,0,0,0,331,71,0,0,0,331,53,0,0,      121P     66
0,331,48,1,0,0,331,49,0,0,0,331,42,0,0;                              121P     67
508,4,0,331,1,1,0,0,331,5,1,0,0,331,8,1,0,0,331,11,1,0;              123P     68
508,4,0,331,13,1,0,0,331,17,1,0,0,331,20,1,0,0,331,23,1,0;           125P     69
126,1,1,0,0,1,0,0.3075,0.3075,0.5975,0.5975,1.,1.,-13.45,0.,         127P     70
17.8,-13.45,0.,20.7,0.3075,0.5975,0.,0.,0.;                          127P     71
126,1,1,0,0,1,0,0.,0.,0.35,0.35,1.,1.,-13.45,0.,17.8,-13.45,         129P     72
-3.5,17.8,0.,0.35,0.,0.,0.;                                          129P     73
126,1,1,0,0,1,0,-0.29,-0.29,0.,0.,1.,1.,-13.45,-3.5,20.7,-13.45,     131P     74
-3.5,17.8,-0.29,0.,0.,0.,0.;                                         131P     75
126,1,1,0,0,1,0,0.,0.,0.35,0.35,1.,1.,-13.45,0.,20.7,-13.45,         133P     76
-3.5,20.7,0.,0.35,0.,0.,0.;                                          133P     77
126,1,1,0,0,1,0,-0.705,-0.705,0.235,0.235,1.,1.,-13.45,0.,20.7,      135P     78
-4.05,0.,20.7,-0.705,0.235,0.,0.,0.;                                 135P     79
126,1,1,0,0,1,0,-0.94,-0.94,0.,0.,1.,1.,-4.05,-3.5,20.7,-13.45,      137P     80
-3.5,20.7,-0.94,0.,0.,0.,0.;                                         137P     81
126,1,1,0,0,1,0,0.,0.,0.35,0.35,1.,1.,-4.05,0.,20.7,-4.05,-3.5,      139P     82
20.7,0.,0.35,0.,0.,0.;                                               139P     83
126,1,1,0,0,1,0,-0.7425,-0.7425,-0.4525,-0.4525,1.,1.,-4.05,0.,      141P     84
20.7,-4.05,0.,17.8,-0.7425,-0.4525,0.,0.,0.;                         141P     85
126,1,1,0,0,1,0,-0.29,-0.29,0.,0.,1.,1.,-4.05,-3.5,17.8,-4.05,       143P     86
-3.5,20.7,-0.29,0.,0.,0.,0.;                                         143P     87
126,1,1,0,0,1,0,0.,0.,0.35,0.35,1.,1.,-4.05,0.,17.8,-4.05,-3.5,      145P     88
17.8,0.,0.35,0.,0.,0.;                                               145P     89
126,1,1,0,0,1,0,-0.705,-0.705,0.235,0.235,1.,1.,-4.05,0.,17.8,       147P     90
-13.45,0.,17.8,-0.705,0.235,0.,0.,0.;                                147P     91
126,1,1,0,0,1,0,-0.94,-0.94,0.,0.,1.,1.,-13.45,-3.5,17.8,-4.05,      149P     92
-3.5,17.8,-0.94,0.,0.,0.,0.;                                         149P     93
126,1,1,0,0,1,0,-0.63,-0.63,0.21,0.21,1.,1.,0.3,0.,4.55,0.3,0.,      151P     94
12.95,-0.63,0.21,0.,0.,0.;                                           151P     95
126,1,1,0,0,1,0,0.,0.,0.35,0.35,1.,1.,0.3,0.,4.55,0.3,-3.5,4.55,     153P     96
0.,0.35,0.,0.,0.;                                                    153P     97
126,1,1,0,0,1,0,-0.84,-0.84,0.,0.,1.,1.,0.3,-3.5,12.95,0.3,-3.5,     155P     98
4.55,-0.84,0.,0.,0.,0.;                                              155P     99
126,1,1,0,0,1,0,0.,0.,0.35,0.35,1.,1.,0.3,0.,12.95,0.3,-3.5,         157P    100
12.95,0.,0.35,0.,0.,0.;                                              157P    101
126,1,1,0,0,1,0,0.3075,0.3075,0.5975,0.5975,1.,1.,0.3,0.,12.95,      159P    102
3.2,0.,12.95,0.3075,0.5975,0.,0.,0.;                                 159P    103
126,1,1,0,0,1,0,-0.29,-0.29,0.,0.,1.,1.,3.2,-3.5,12.95,0.3,-3.5,     161P    104
12.95,-0.29,0.,0.,0.,0.;                                             161P    105
126,1,1,0,0,1,0,0.,0.,0.35,0.35,1.,1.,3.2,0.,12.95,3.2,-3.5,         163P    106
12.95,0.,0.35,0.,0.,0.;                                              163P    107
126,1,1,0,0,1,0,-0.63,-0.63,0.21,0.21,1.,1.,3.2,0.,12.95,3.2,0.,     165P    108
4.55,-0.63,0.21,0.,0.,0.;                                            165P    109
126,1,1,0,0,1,0,-0.84,-0.84,0.,0.,1.,1.,3.2,-3.5,4.55,3.2,-3.5,      167P    110
12.95,-0.84,0.,0.,0.,0.;                                             167P    111
126,1,1,0,0,1,0,0.,0.,0.35,0.35,1.,1.,3.2,0.,4.55,3.2,-3.5,4.55,     169P    112
0.,0.35,0.,0.,0.;                                                    169P    113
126,1,1,0,0,1,0,-0.7425,-0.7425,-0.4525,-0.4525,1.,1.,3.2,0.,        171P    114
4.55,0.3,0.,4.55,-0.7425,-0.4525,0.,0.,0.;                           171P    115
126,1,1,0,0,1,0,-0.29,-0.29,0.,0.,1.,1.,0.3,-3.5,4.55,3.2,-3.5,      173P    116
4.55,-0.29,0.,0.,0.,0.;                                              173P    117
126,1,1,0,0,1,0,-0.55,-0.55,0.55,0.55,1.,1.,-14.25,0.,17.5,          175P    118
-14.25,11.,17.5,-0.55,0.55,0.,0.,0.;                                 175P    119
126,1,1,0,0,1,0,0.,0.,0.35,0.35,1.,1.,-14.25,0.,17.5,-14.25,0.,      177P    120
21.,0.,0.35,0.,0.,0.;                                                177P    121
126,1,1,0,0,1,0,-1.1,-1.1,0.,0.,1.,1.,-14.25,11.,21.,-14.25,0.,      179P    122
21.,-1.1,0.,0.,0.,0.;                                                179P    123
126,1,1,0,0,1,0,0.,0.,0.35,0.35,1.,1.,-14.25,11.,17.5,-14.25,        181P    124
11.,21.,0.,0.35,0.,0.,0.;                                            181P    125
126,1,1,0,0,1,0,-1.1,-1.1,0.,0.,1.,1.,-3.25,11.,17.5,-3.25,0.,       183P    126
17.5,-1.1,0.,0.,0.,0.;                                               183P    127
126,1,1,0,0,1,0,0.,0.,0.35,0.35,1.,1.,-3.25,11.,17.5,-3.25,11.,      185P    128
21.,0.,0.35,0.,0.,0.;                                                185P    129
126,1,1,0,0,1,0,-1.1,-1.1,0.,0.,1.,1.,-3.25,0.,21.,-3.25,11.,        187P    130
21.,-1.1,0.,0.,0.,0.;                                                187P    131
126,1,1,0,0,1,0,0.,0.,0.35,0.35,1.,1.,-3.25,0.,17.5,-3.25,0.,        189P    132
21.,0.,0.35,0.,0.,0.;                                                189P    133
126,1,1,0,0,1,0,-1.1,-1.1,0.,0.,1.,1.,-14.25,0.,21.,-3.25,0.,        191P    134
21.,-1.1,0.,0.,0.,0.;                                                191P    135
126,1,1,0,0,1,0,-1.425,-1.425,-0.325,-0.325,1.,1.,-3.25,11.,21.,     193P    136
-14.25,11.,21.,-1.425,-0.325,0.,0.,0.;                               193P    137
126,1,1,0,0,1,0,0.,0.,0.325,0.325,1.,1.,-17.5,11.,17.5,-14.25,       195P    138
11.,17.5,0.,0.325,0.,0.,0.;                                          195P    139
126,1,1,0,0,1,0,0.,0.,1.1,1.1,1.,1.,-17.5,0.,17.5,-17.5,11.,         197P    140
17.5,0.,1.1,0.,0.,0.;                                                197P    141
126,1,1,0,0,1,0,0.,0.,0.325,0.325,1.,1.,-17.5,0.,17.5,-14.25,0.,     199P    142
17.5,0.,0.325,0.,0.,0.;                                              199P    143
126,1,1,0,0,1,0,1.425,1.425,1.75,1.75,1.,1.,-3.25,0.,17.5,0.,0.,     201P    144
17.5,1.425,1.75,0.,0.,0.;                                            201P    145
126,1,1,0,0,1,0,0.,0.,1.1,1.1,1.,1.,-2.46519032881566D-31,0.,        203P    146
17.5,-2.46519032881566D-31,11.,17.5,0.,1.1,0.,0.,0.;                 203P    147
126,1,1,0,0,1,0,1.425,1.425,1.75,1.75,1.,1.,-3.25,11.,17.5,0.,       205P    148
11.,17.5,1.425,1.75,0.,0.,0.;                                        205P    149
126,1,1,0,0,1,0,-0.55,-0.55,0.55,0.55,1.,1.,                         207P    150
-1.93693525835516D-31,0.,13.75,-1.93693525835516D-31,11.,13.75,      207P    151
-0.55,0.55,0.,0.,0.;                                                 207P    152
126,1,1,0,0,1,0,0.,0.,0.35,0.35,1.,1.,-2.11852293882596D-31,0.,      209P    153
13.75,3.5,0.,13.75,0.,0.35,0.,0.,0.;                                 209P    154
126,1,1,0,0,1,0,-1.1,-1.1,0.,0.,1.,1.,3.5,11.,13.75,3.5,0.,          211P    155
13.75,-1.1,0.,0.,0.,0.;                                              211P    156
126,1,1,0,0,1,0,0.,0.,0.35,0.35,1.,1.,-2.11852293882596D-31,11.,     213P    157
13.75,3.5,11.,13.75,0.,0.35,0.,0.,0.;                                213P    158
126,1,1,0,0,1,0,-1.1,-1.1,0.,0.,1.,1.,-5.28255070460499D-32,11.,     215P    159
3.75,-5.28255070460499D-32,1.13165434361024D-15,3.75,-1.1,0.,0.,     215P    160
0.,0.;                                                               215P    161
126,1,1,0,0,1,0,0.,0.,0.35,0.35,1.,1.,-5.77778983316171D-32,11.,     217P    162
3.75,3.5,11.,3.75,0.,0.35,0.,0.,0.;                                  217P    163
126,1,1,0,0,1,0,-1.1,-1.1,0.,0.,1.,1.,3.5,2.22044604925031D-15,      219P    164
3.75,3.5,11.,3.75,-1.1,0.,0.,0.,0.;                                  219P    165
126,1,1,0,0,1,0,0.,0.,0.35,0.35,1.,1.,-5.77778983316171D-32,         221P    166
1.13165434361024D-15,3.75,3.5,1.13165434361024D-15,3.75,0.,0.35,     221P    167
0.,0.,0.;                                                            221P    168
126,1,1,0,0,1,0,-1.,-1.,0.,0.,1.,1.,3.5,0.,13.75,3.5,                223P    169
1.13165434361024D-15,3.75,-1.,0.,0.,0.,0.;                           223P    170
126,1,1,0,0,1,0,-1.375,-1.375,-0.375,-0.375,1.,1.,3.5,11.,3.75,      225P    171
3.5,11.,13.75,-1.375,-0.375,0.,0.,0.;                                225P    172
126,1,1,0,0,1,0,0.,0.,0.375,0.375,1.,1.,-2.46519032881566D-31,       227P    173
11.,17.5,-1.93693525835516D-31,11.,13.75,0.,0.375,0.,0.,0.;          227P    174
126,1,1,0,0,1,0,0.,0.,0.375,0.375,1.,1.,-2.46519032881566D-31,       229P    175
0.,17.5,-1.93693525835516D-31,0.,13.75,0.,0.375,0.,0.,0.;            229P    176
126,1,1,0,0,1,0,1.375,1.375,1.75,1.75,1.,1.,                         231P    177
-5.28255070460499D-32,0.,3.75,0.,0.,0.,1.375,1.75,0.,0.,0.;          231P    178
126,1,1,0,0,1,0,0.,0.,1.1,1.1,1.,1.,0.,0.,0.,0.,11.,0.,0.,1.1,       233P    179
0.,0.,0.;                                                            233P    180
126,1,1,0,0,1,0,1.375,1.375,1.75,1.75,1.,1.,                         235P    181
-5.28255070460499D-32,11.,3.75,0.,11.,0.,1.375,1.75,0.,0.,0.;        235P    182
126,1,1,0,0,1,0,-0.0825,-0.0825,0.0275,0.0275,1.,1.,-7.85,11.,       237P    183
8.2,-7.85,11.,9.3,-0.0825,0.0275,0.,0.,0.;                           237P    184
126,1,1,0,0,1,0,0.,0.,0.8,0.8,1.,1.,-7.85,11.,8.2,-7.85,19.,8.2,     239P    185
0.,0.8,0.,0.,0.;                                                     239P    186
126,1,1,0,0,1,0,-0.11,-0.11,0.,0.,1.,1.,-7.85,19.,9.3,-7.85,19.,     241P    187
8.2,-0.11,0.,0.,0.,0.;                                               241P    188
126,1,1,0,0,1,0,0.,0.,0.8,0.8,1.,1.,-7.85,11.,9.3,-7.85,19.,9.3,     243P    189
0.,0.8,0.,0.,0.;                                                     243P    190
126,1,1,0,0,1,0,-0.135,-0.135,0.045,0.045,1.,1.,-7.85,11.,9.3,       245P    191
-9.65,11.,9.3,-0.135,0.045,0.,0.,0.;                                 245P    192
126,1,1,0,0,1,0,-0.18,-0.18,0.,0.,1.,1.,-9.65,19.,9.3,-7.85,19.,     247P    193
9.3,-0.18,0.,0.,0.,0.;                                               247P    194
126,1,1,0,0,1,0,0.,0.,0.8,0.8,1.,1.,-9.65,11.,9.3,-9.65,19.,9.3,     249P    195
0.,0.8,0.,0.,0.;                                                     249P    196
126,1,1,0,0,1,0,-0.0825,-0.0825,0.0275,0.0275,1.,1.,-9.65,11.,       251P    197
9.3,-9.65,11.,8.2,-0.0825,0.0275,0.,0.,0.;                           251P    198
126,1,1,0,0,1,0,-0.11,-0.11,0.,0.,1.,1.,-9.65,19.,8.2,-9.65,19.,     253P    199
9.3,-0.11,0.,0.,0.,0.;                                               253P    200
126,1,1,0,0,1,0,0.,0.,0.8,0.8,1.,1.,-9.65,11.,8.2,-9.65,19.,8.2,     255P    201
0.,0.8,0.,0.,0.;                                                     255P    202
126,1,1,0,0,1,0,-0.135,-0.135,0.045,0.045,1.,1.,-9.65,11.,8.2,       257P    203
-7.85,11.,8.2,-0.135,0.045,0.,0.,0.;                                 257P    204
126,1,1,0,0,1,0,-0.18,-0.18,0.,0.,1.,1.,-7.85,19.,8.2,-9.65,19.,     259P    205
8.2,-0.18,0.,0.,0.,0.;                                               259P    206
126,1,1,0,0,1,0,0.,0.,1.75,1.75,1.,1.,-17.5,0.,0.,-17.5,0.,17.5,     261P    207
0.,1.75,0.,0.,0.;                                                    261P    208
126,1,1,0,0,1,0,0.,0.,1.75,1.75,1.,1.,-17.5,11.,0.,-17.5,11.,        263P    209
17.5,0.,1.75,0.,0.,0.;                                               263P    210
126,1,1,0,0,1,0,0.,0.,1.1,1.1,1.,1.,-17.5,0.,0.,-17.5,11.,0.,0.,     265P    211
1.1,0.,0.,0.;                                                        265P    212
126,1,1,0,0,1,0,0.,0.,1.75,1.75,1.,1.,0.,0.,0.,-17.5,0.,0.,0.,       267P    213
1.75,0.,0.,0.;                                                       267P    214
126,1,1,0,0,1,0,0.,0.,1.75,1.75,1.,1.,0.,11.,0.,-17.5,11.,0.,0.,     269P    215
1.75,0.,0.,0.;                                                       269P    216
128,1,1,1,1,0,0,1,0,0,-0.001,-0.001,0.291,0.291,-0.001,-0.001,       271P    217
0.351,0.351,1.,1.,1.,1.,-13.45,0.01,20.71,-13.45,0.01,17.79,         271P    218
-13.45,-3.51,20.71,-13.45,-3.51,17.79,-0.001,0.291,-0.001,0.351;     271P    219
128,1,1,1,1,0,0,1,0,0,-0.001,-0.001,0.941,0.941,-0.001,-0.001,       273P    220
0.351,0.351,1.,1.,1.,1.,-4.04,0.01,20.7,-13.46,0.01,20.7,-4.04,      273P    221
-3.51,20.7,-13.46,-3.51,20.7,-0.001,0.941,-0.001,0.351;              273P    222
128,1,1,1,1,0,0,1,0,0,-0.001,-0.001,0.291,0.291,-0.001,-0.001,       275P    223
0.351,0.351,1.,1.,1.,1.,-4.05,0.01,17.79,-4.05,0.01,20.71,-4.05,     275P    224
-3.51,17.79,-4.05,-3.51,20.71,-0.001,0.291,-0.001,0.351;             275P    225
128,1,1,1,1,0,0,1,0,0,-0.001,-0.001,0.941,0.941,-0.001,-0.001,       277P    226
0.351,0.351,1.,1.,1.,1.,-13.46,0.01,17.8,-4.04,0.01,17.8,-13.46,     277P    227
-3.51,17.8,-4.04,-3.51,17.8,-0.001,0.941,-0.001,0.351;               277P    228
128,1,1,1,1,0,0,1,0,0,-0.146,-0.146,0.146,0.146,-0.471,-0.471,       279P    229
0.471,0.471,1.,1.,1.,1.,-13.46,-3.5,20.71,-13.46,-3.5,17.79,         279P    230
-4.04,-3.5,20.71,-4.04,-3.5,17.79,-0.146,0.146,-0.471,0.471;         279P    231
128,1,1,1,1,0,0,1,0,0,-0.001,-0.001,0.841,0.841,-0.001,-0.001,       281P    232
0.351,0.351,1.,1.,1.,1.,0.3,0.01,12.96,0.3,0.01,4.54,0.3,-3.51,      281P    233
12.96,0.3,-3.51,4.54,-0.001,0.841,-0.001,0.351;                      281P    234
128,1,1,1,1,0,0,1,0,0,-0.001,-0.001,0.291,0.291,-0.001,-0.001,       283P    235
0.351,0.351,1.,1.,1.,1.,3.21,0.01,12.95,0.29,0.01,12.95,3.21,        283P    236
-3.51,12.95,0.29,-3.51,12.95,-0.001,0.291,-0.001,0.351;              283P    237
128,1,1,1,1,0,0,1,0,0,-0.00100000000000006,-0.00100000000000006,     285P    238
0.841,0.841,-0.001,-0.001,0.351,0.351,1.,1.,1.,1.,3.2,0.01,4.54,     285P    239
3.2,0.01,12.96,3.2,-3.51,4.54,3.2,-3.51,12.96,                       285P    240
-0.00100000000000006,0.841,-0.001,0.351;                             285P    241
128,1,1,1,1,0,0,1,0,0,-0.00100000000000003,-0.00100000000000003,     287P    242
0.291,0.291,-0.001,-0.001,0.351,0.351,1.,1.,1.,1.,0.29,0.01,         287P    243
4.55,3.21,0.01,4.55,0.29,-3.51,4.55,3.21,-3.51,4.55,                 287P    244
-0.00100000000000003,0.291,-0.001,0.351;                             287P    245
128,1,1,1,1,0,0,1,0,0,-0.421,-0.421,0.421,0.421,-0.146,-0.146,       289P    246
0.146,0.146,1.,1.,1.,1.,0.29,-3.5,12.96,0.29,-3.5,4.54,3.21,         289P    247
-3.5,12.96,3.21,-3.5,4.54,-0.421,0.421,-0.146,0.146;                 289P    248
128,1,1,1,1,0,0,1,0,0,-0.001,-0.001,1.101,1.101,-0.001,-0.001,       291P    249
0.351,0.351,1.,1.,1.,1.,-14.25,11.01,17.49,-14.25,                   291P    250
-0.0099999999999989,17.49,-14.25,11.01,21.01,-14.25,                 291P    251
-0.0099999999999989,21.01,-0.001,1.101,-0.001,0.351;                 291P    252
128,1,1,1,1,0,0,1,0,0,-0.001,-0.001,1.101,1.101,-0.001,-0.001,       293P    253
0.351,0.351,1.,1.,1.,1.,-3.25,-0.01,17.49,-3.25,11.01,17.49,         293P    254
-3.25,-0.01,21.01,-3.25,11.01,21.01,-0.001,1.101,-0.001,0.351;       293P    255
128,1,1,1,1,0,0,1,0,0,-0.551,-0.551,0.551,0.551,-0.551,-0.551,       295P    256
0.551,0.551,1.,1.,1.,1.,-14.26,-0.01,21.,-3.24,-0.01,21.,-14.26,     295P    257
11.01,21.,-3.24,11.01,21.,-0.551,0.551,-0.551,0.551;                 295P    258
128,1,1,1,1,0,0,1,0,0,-0.001,-0.001,0.326,0.326,-0.001,-0.001,       297P    259
1.101,1.101,1.,1.,1.,1.,-17.51,-0.01,17.5,-14.24,-0.01,17.5,         297P    260
-17.51,11.01,17.5,-14.24,11.01,17.5,-0.001,0.326,-0.001,1.101;       297P    261
128,1,1,1,1,0,0,1,0,0,1.424,1.424,1.751,1.751,-0.001,-0.001,         299P    262
1.101,1.101,1.,1.,1.,1.,-3.26,-0.01,17.5,0.0099999999999989,         299P    263
-0.01,17.5,-3.26,11.01,17.5,0.0099999999999989,11.01,17.5,1.424,     299P    264
1.751,-0.001,1.101;                                                  299P    265
128,1,1,1,1,0,0,1,0,0,-0.001,-0.001,1.101,1.101,-0.001,-0.001,       301P    266
0.351,0.351,1.,1.,1.,1.,-0.01,11.01,13.75,-0.01,                     301P    267
-0.0099999999999989,13.75,3.51,11.01,13.75,3.51,                     301P    268
-0.0099999999999989,13.75,-0.001,1.101,-0.001,0.351;                 301P    269
128,1,1,1,1,0,0,1,0,0,-0.00100000000000011,-0.00100000000000011,     303P    270
1.101,1.101,-0.001,-0.001,0.351,0.351,1.,1.,1.,1.,-0.01,             303P    271
-0.00999999999999887,3.75,-0.01,11.01,3.75,3.51,                     303P    272
-0.00999999999999887,3.75,3.51,11.01,3.75,-0.00100000000000011,      303P    273
1.101,-0.001,0.351;                                                  303P    274
128,1,1,1,1,0,0,1,0,0,-0.501,-0.501,0.501,0.501,-0.551,-0.551,       305P    275
0.551,0.551,1.,1.,1.,1.,3.5,-0.01,13.76,3.5,-0.01,3.74,3.5,          305P    276
11.01,13.76,3.5,11.01,3.74,-0.501,0.501,-0.551,0.551;                305P    277
128,1,1,1,1,0,0,1,0,0,-0.001,-0.001,0.376,0.376,-0.001,-0.001,       307P    278
1.101,1.101,1.,1.,1.,1.,-2.46659900900356D-31,-0.01,17.51,           307P    279
-1.93552657816727D-31,-0.01,13.74,-2.46659900900356D-31,11.01,       307P    280
17.51,-1.93552657816727D-31,11.01,13.74,-0.001,0.376,-0.001,         307P    281
1.101;                                                               307P    282
128,1,1,1,1,0,0,1,0,0,1.374,1.374,1.751,1.751,-0.001,-0.001,         309P    283
1.101,1.101,1.,1.,1.,1.,-5.29663750648394D-32,-0.01,3.76,            309P    284
1.40868018789435D-34,-0.01,-0.0099999999999989,                      309P    285
-5.29663750648394D-32,11.01,3.76,1.40868018789435D-34,11.01,         309P    286
-0.0099999999999989,1.374,1.751,-0.001,1.101;                        309P    287
128,1,1,1,1,0,0,1,0,0,-0.001,-0.001,0.111,0.111,-0.001,-0.001,       311P    288
0.801,0.801,1.,1.,1.,1.,-7.85,10.99,9.31,-7.85,10.99,8.19,-7.85,     311P    289
19.01,9.31,-7.85,19.01,8.19,-0.001,0.111,-0.001,0.801;               311P    290
128,1,1,1,1,0,0,1,0,0,-0.001,-0.001,0.181,0.181,-0.001,-0.001,       313P    291
0.801,0.801,1.,1.,1.,1.,-9.66,10.99,9.3,-7.84,10.99,9.3,-9.66,       313P    292
19.01,9.3,-7.84,19.01,9.3,-0.001,0.181,-0.001,0.801;                 313P    293
128,1,1,1,1,0,0,1,0,0,-0.001,-0.001,0.111,0.111,-0.001,-0.001,       315P    294
0.801,0.801,1.,1.,1.,1.,-9.65,10.99,8.19,-9.65,10.99,9.31,-9.65,     315P    295
19.01,8.19,-9.65,19.01,9.31,-0.001,0.111,-0.001,0.801;               315P    296
128,1,1,1,1,0,0,1,0,0,-0.001,-0.001,0.181,0.181,-0.001,-0.001,       317P    297
0.801,0.801,1.,1.,1.,1.,-7.84,10.99,8.2,-9.66,10.99,8.2,-7.84,       317P    298
19.01,8.2,-9.66,19.01,8.2,-0.001,0.181,-0.001,0.801;                 317P    299
128,1,1,1,1,0,0,1,0,0,-0.056,-0.056,0.0559999999999999,              319P    300
0.0559999999999999,-0.0910000000000001,-0.0910000000000001,          319P    301
0.0910000000000001,0.0910000000000001,1.,1.,1.,1.,-9.66,19.,         319P    302
8.19,-9.66,19.,9.31,-7.84,19.,8.19,-7.84,19.,9.31,-0.056,            319P    303
0.0559999999999999,-0.0910000000000001,0.0910000000000001;           319P    304
128,1,1,1,1,0,0,1,0,0,-0.001,-0.001,1.751,1.751,-0.001,-0.001,       321P    305
1.101,1.101,1.,1.,1.,1.,-17.5,-0.01,-0.01,-17.5,-0.01,17.51,         321P    306
-17.5,11.01,-0.01,-17.5,11.01,17.51,-0.001,1.751,-0.001,1.101;       321P    307
128,1,1,1,1,0,0,1,0,0,-0.001,-0.001,1.751,1.751,-0.001,-0.001,       323P    308
1.101,1.101,1.,1.,1.,1.,0.01,-0.01,0.,-17.51,-0.01,0.,0.01,          323P    309
11.01,0.,-17.51,11.01,0.,-0.001,1.751,-0.001,1.101;                  323P    310
128,1,1,1,1,0,0,1,0,0,-0.876,-0.876,1.226,1.226,-0.876,-0.876,       325P    311
1.226,1.226,1.,1.,1.,1.,-17.51,11.,-0.01,-17.51,11.,21.01,3.51,      325P    312
11.,-0.01,3.51,11.,21.01,-0.876,1.226,-0.876,1.226;                  325P    313
128,1,1,1,1,0,0,1,0,0,-0.876,-0.876,1.226,1.226,-1.226,-1.226,       327P    314
0.876,0.876,1.,1.,1.,1.,3.51,0.,21.01,-17.51,0.,21.01,3.51,0.,       327P    315
-0.0099999999999989,-17.51,0.,-0.01,-0.876,1.226,-1.226,0.876;       327P    316
502,48,-13.45,0.,17.8,-13.45,0.,20.7,-13.45,-3.5,17.8,-13.45,        329P    317
-3.5,20.7,-4.05,0.,20.7,-4.05,-3.5,20.7,-4.05,0.,17.8,-4.05,         329P    318
-3.5,17.8,0.3,0.,4.55,0.3,0.,12.95,0.3,-3.5,4.55,0.3,-3.5,12.95,     329P    319
3.2,0.,12.95,3.2,-3.5,12.95,3.2,0.,4.55,3.2,-3.5,4.55,-14.25,0.,     329P    320
17.5,-14.25,11.,17.5,-14.25,0.,21.,-14.25,11.,21.,-3.25,11.,         329P    321
17.5,-3.25,0.,17.5,-3.25,11.,21.,-3.25,0.,21.,-17.5,11.,17.5,        329P    322
-17.5,0.,17.5,-2.46519032881566D-31,0.,17.5,                         329P    323
-2.46519032881566D-31,11.,17.5,-2.11852293882596D-31,0.,13.75,       329P    324
-2.11852293882596D-31,11.,13.75,3.5,0.,13.75,3.5,11.,13.75,          329P    325
-5.77778983316171D-32,11.,3.75,-5.77778983316171D-32,                329P    326
1.13165434361024D-15,3.75,3.5,11.,3.75,3.5,1.13165434361024D-15,     329P    327
3.75,0.,0.,0.,0.,11.,0.,-7.85,11.,8.2,-7.85,11.,9.3,-7.85,19.,       329P    328
8.2,-7.85,19.,9.3,-9.65,11.,9.3,-9.65,19.,9.3,-9.65,11.,8.2,         329P    329
-9.65,19.,8.2,-17.5,0.,0.,-17.5,11.,0.;                              329P    330
504,72,127,329,1,329,2,129,329,1,329,3,131,329,4,329,3,133,329,      331P    331
2,329,4,135,329,2,329,5,137,329,6,329,4,139,329,5,329,6,141,329,     331P    332
5,329,7,143,329,8,329,6,145,329,7,329,8,147,329,7,329,1,149,329,     331P    333
3,329,8,151,329,9,329,10,153,329,9,329,11,155,329,12,329,11,157,     331P    334
329,10,329,12,159,329,10,329,13,161,329,14,329,12,163,329,13,        331P    335
329,14,165,329,13,329,15,167,329,16,329,14,169,329,15,329,16,        331P    336
171,329,15,329,9,173,329,11,329,16,175,329,17,329,18,177,329,17,     331P    337
329,19,179,329,20,329,19,181,329,18,329,20,183,329,21,329,22,        331P    338
185,329,21,329,23,187,329,24,329,23,189,329,22,329,24,191,329,       331P    339
19,329,24,193,329,23,329,20,195,329,25,329,18,197,329,26,329,25,     331P    340
199,329,26,329,17,201,329,22,329,27,203,329,27,329,28,205,329,       331P    341
21,329,28,207,329,29,329,30,209,329,29,329,31,211,329,32,329,31,     331P    342
213,329,30,329,32,215,329,33,329,34,217,329,33,329,35,219,329,       331P    343
36,329,35,221,329,34,329,36,223,329,31,329,36,225,329,35,329,32,     331P    344
227,329,28,329,30,229,329,27,329,29,231,329,34,329,37,233,329,       331P    345
37,329,38,235,329,33,329,38,237,329,39,329,40,239,329,39,329,41,     331P    346
241,329,42,329,41,243,329,40,329,42,245,329,40,329,43,247,329,       331P    347
44,329,42,249,329,43,329,44,251,329,43,329,45,253,329,46,329,44,     331P    348
255,329,45,329,46,257,329,45,329,39,259,329,41,329,46,261,329,       331P    349
47,329,26,263,329,48,329,25,265,329,47,329,48,267,329,37,329,47,     331P    350
269,329,38,329,48;                                                   331P    351
406,1,5HBody1;                                                       333P    352
314,62.7450980392157,62.7450980392157,62.7450980392157,13HSteel      335P    353
- Satin;                                                             335P    354
S      1G      3D    336P    354                                        T      1
