0
SECTION
2
HEADER
9
$INSUNITS
70
4
9
$ACADVER
1
AC1014
9
$HANDSEED
5
FFFF
0
ENDSEC
0
SECTION
2
TABLES
0
TABLE
2
VPORT
5
8
100
AcDbSymbolTable
0
ENDTAB
0
TABLE
2
LTYPE
5
5
100
AcDbSymbolTable
0
LTYPE
5
14
100
AcDbSymbolTableRecord
100
AcDbLinetypeTableRecord
2
BYBLOCK
70
0
0
LTYPE
5
15
100
AcDbSymbolTableRecord
100
AcDbLinetypeTableRecord
2
BYLAYER
70
0
0
LTYPE
5
16
100
AcDbSymbolTableRecord
100
AcDbLinetypeTableRecord
2
DASHED
70
0
3
Dashed __ __ __ __ __ __ __ __ __ __ __ __ __ _
72
65
73
2
40
0.75
49
0.5
74
0
49
-0.25
74
0
0
ENDTAB
0
TABLE
2
LAYER
5
2
100
AcDbSymbolTable
70
2
0
LAYER
5
50
100
AcDbSymbolTableRecord
100
AcDbLayerTableRecord
2
0
70
0
62
7
6
CONTINUOUS
0
ENDTAB
0
TABLE
2
STYLE
5
3
100
AcDbSymbolTable
70
1
0
STYLE
5
11
100
AcDbSymbolTableRecord
100
AcDbTextStyleTableRecord
2
STANDARD
70
0
0
ENDTAB
0
TABLE
2
VIEW
5
6
100
AcDbSymbolTable
70
0
0
ENDTAB
0
TABLE
2
UCS
5
7
100
AcDbSymbolTable
70
0
0
ENDTAB
0
TABLE
2
APPID
5
9
100
AcDbSymbolTable
70
2
0
APPID
5
12
100
AcDbSymbolTableRecord
100
AcDbRegAppTableRecord
2
ACAD
70
0
0
ENDTAB
0
TABLE
2
DIMSTYLE
5
A
100
AcDbSymbolTable
70
1
0
ENDTAB
0
TABLE
2
BLOCK_RECORD
5
1
100
AcDbSymbolTable
70
1
0
BLOCK_RECORD
5
1F
100
AcDbSymbolTableRecord
100
AcDbBlockTableRecord
2
*MODEL_SPACE
0
BLOCK_RECORD
5
1B
100
AcDbSymbolTableRecord
100
AcDbBlockTableRecord
2
*PAPER_SPACE
0
ENDTAB
0
ENDSEC
0
SECTION
2
BLOCKS
0
BLOCK
5
20
100
AcDbEntity
100
AcDbBlockBegin
2
*MODEL_SPACE
0
ENDBLK
5
21
100
AcDbEntity
100
AcDbBlockEnd
0
BLOCK
5
1C
100
AcDbEntity
100
AcDbBlockBegin
2
*PAPER_SPACE
0
ENDBLK
5
1D
100
AcDbEntity
100
AcDbBlockEnd
0
ENDSEC
0
SECTION
2
ENTITIES
0
LWPOLYLINE
5
100
100
AcDbEntity
8
0
100
AcDbPolyline
90
4
70
1
43
0.0
10
102.50000152736902
20
-1.0000000149011612
10
102.50000152736902
20
5.000000074505806
10
107.50000160187483
20
5.000000074505806
10
107.50000160187483
20
-1.0000000149011612
0
LWPOLYLINE
5
101
100
AcDbEntity
8
0
100
AcDbPolyline
90
4
70
1
43
0.0
10
0.93625877652334222
20
31.000000461935997
10
0.93625877652334222
20
34.680033312922006
10
4.6329677237150975
20
34.680033312922006
10
4.6329677237150975
20
31.000000461935997
0
LWPOLYLINE
5
102
100
AcDbEntity
8
0
100
AcDbPolyline
90
4
70
1
43
0.0
10
1.0000000149011612
20
0.5000000074505806
10
1.0000000149011612
20
4.0000000596046448
10
4.5000000670552254
20
4.0000000596046448
10
4.5000000670552254
20
0.5000000074505806
0
CIRCLE
5
103
100
AcDbEntity
8
0
100
AcDbCircle
10
114.17539259639889
20
19.133059049576797
30
0
40
14.800000000016666
210
1.5777218104440467e-30
220
1.5777218104420236e-30
230
1
0
CIRCLE
5
104
100
AcDbEntity
8
0
100
AcDbCircle
10
88.175392596398893
20
32.790875708253324
30
0
40
10.999999999999996
210
2.0231897904721787e-42
220
1.5777218104420236e-30
230
1
0
LWPOLYLINE
5
105
100
AcDbEntity
8
0
100
AcDbPolyline
90
5
70
1
43
0.0
10
102.00000000000026
20
35.000000000000355
42
0.85289045569486999
10
74.350785192796124
20
34.999999999991502
42
0.25930775003548556
10
2.6645352591003757e-13
20
35.000000000000341
10
2.4868995751603507e-13
20
3.5527136788005009e-13
42
0.087037670848155224
10
120.00000000000043
20
3.4638958368304884e-13
42
1.1977799224443608
0
LWPOLYLINE
5
106
100
AcDbEntity
8
0
100
AcDbPolyline
90
22
70
1
43
0.0
10
65.093552068873805
20
1.2064479317722263
10
65.093552068874033
20
-2.8746555686461548
42
-0.043151858172494596
10
5.8100000000000573
20
1.3704550949697136
10
5.8100000000001941
20
4.8704550949697119
10
2.3100000000001613
20
4.8704550949697731
10
2.3100000000002514
20
30.127225215992279
10
5.8100000000002527
20
30.127225215992283
10
5.8100000000002527
20
35.373750615125296
42
-0.2472879700610886
10
74.887126192845756
20
32.030562622609949
42
0.64840009262987386
10
97.605401226080374
20
23.39773793410497
42
0.24289547297531161
10
101.1023712245168
20
8.0945712812778865
10
101.10237122451653
20
-0.4549498364560528
42
-0.021384566783179654
10
71.693552068873757
20
-2.7140188031030732
10
71.693552068873799
20
1.2064479317722288
10
73.293552068873808
20
1.2064479317722285
10
73.293552068873808
20
3.206447931772229
10
71.693552068873799
20
3.206447931772229
10
71.693552068873799
20
10.70644793177223
10
65.093552068873791
20
10.70644793177223
10
65.093552068873805
20
3.2064479317722263
10
63.493552068873804
20
3.2064479317722268
10
63.493552068873804
20
1.2064479317722265
0
LWPOLYLINE
5
107
100
AcDbEntity
8
0
100
AcDbPolyline
90
4
70
1
43
0.0
10
0.93625877652334222
20
34.680033312922006
10
4.6329677237150975
20
34.680033312922006
10
4.6329677237150975
20
31.000000461935997
10
0.93625877652334222
20
31.000000461935997
0
LWPOLYLINE
5
108
100
AcDbEntity
8
0
100
AcDbPolyline
90
4
70
1
43
0.0
10
1.0000000149011612
20
4.0000000596046448
10
4.5000000670552254
20
4.0000000596046448
10
4.5000000670552254
20
0.5000000074505806
10
1.0000000149011612
20
0.5000000074505806
0
LWPOLYLINE
5
109
100
AcDbEntity
8
0
100
AcDbPolyline
90
4
70
1
43
0.0
10
102.50000152736902
20
5.000000074505806
10
107.50000160187483
20
5.000000074505806
10
107.50000160187483
20
-1.0000000149011612
10
102.50000152736902
20
-1.0000000149011612
0
LWPOLYLINE
5
110
100
AcDbEntity
8
0
100
AcDbPolyline
90
4
70
1
43
0.0
10
1.4362587765233423
20
34.180033312922006
10
4.1329677237150984
20
34.180033312922006
10
4.1329677237150984
20
31.500000461935997
10
1.4362587765233423
20
31.500000461935997
0
LWPOLYLINE
5
111
100
AcDbEntity
8
0
100
AcDbPolyline
90
4
70
1
43
0.0
10
1.5000000149011612
20
3.5000000596046448
10
4.0000000670552254
20
3.5000000596046448
10
4.0000000670552254
20
1.0000000074505806
10
1.5000000149011612
20
1.0000000074505806
0
LWPOLYLINE
5
112
100
AcDbEntity
8
0
100
AcDbPolyline
90
4
70
1
43
0.0
10
103.00000152736902
20
4.500000074505806
10
107.00000160187483
20
4.500000074505806
10
107.00000160187483
20
-0.50000001490116119
10
103.00000152736902
20
-0.50000001490116119
0
ENDSEC
0
SECTION
2
OBJECTS
0
DICTIONARY
5
C
100
AcDbDictionary
3
ACAD_GROUP
350
D
3
ACAD_MLINESTYLE
350
17
0
DICTIONARY
5
D
100
AcDbDictionary
0
DICTIONARY
5
1A
330
C
100
AcDbDictionary
0
DICTIONARY
5
17
100
AcDbDictionary
0
ENDSEC
0
EOF
