0
SECTION
2
HEADER
9
$INSUNITS
70
4
9
$ACADVER
1
AC1014
9
$HANDSEED
5
FFFF
0
ENDSEC
0
SECTION
2
TABLES
0
TABLE
2
VPORT
5
8
100
AcDbSymbolTable
0
ENDTAB
0
TABLE
2
LTYPE
5
5
100
AcDbSymbolTable
0
LTYPE
5
14
100
AcDbSymbolTableRecord
100
AcDbLinetypeTableRecord
2
BYBLOCK
70
0
0
LTYPE
5
15
100
AcDbSymbolTableRecord
100
AcDbLinetypeTableRecord
2
BYLAYER
70
0
0
LTYPE
5
16
100
AcDbSymbolTableRecord
100
AcDbLinetypeTableRecord
2
DASHED
70
0
3
Dashed __ __ __ __ __ __ __ __ __ __ __ __ __ _
72
65
73
2
40
0.75
49
0.5
74
0
49
-0.25
74
0
0
ENDTAB
0
TABLE
2
LAYER
5
2
100
AcDbSymbolTable
70
2
0
LAYER
5
50
100
AcDbSymbolTableRecord
100
AcDbLayerTableRecord
2
0
70
0
62
7
6
CONTINUOUS
0
ENDTAB
0
TABLE
2
STYLE
5
3
100
AcDbSymbolTable
70
1
0
STYLE
5
11
100
AcDbSymbolTableRecord
100
AcDbTextStyleTableRecord
2
STANDARD
70
0
0
ENDTAB
0
TABLE
2
VIEW
5
6
100
AcDbSymbolTable
70
0
0
ENDTAB
0
TABLE
2
UCS
5
7
100
AcDbSymbolTable
70
0
0
ENDTAB
0
TABLE
2
APPID
5
9
100
AcDbSymbolTable
70
2
0
APPID
5
12
100
AcDbSymbolTableRecord
100
AcDbRegAppTableRecord
2
ACAD
70
0
0
ENDTAB
0
TABLE
2
DIMSTYLE
5
A
100
AcDbSymbolTable
70
1
0
ENDTAB
0
TABLE
2
BLOCK_RECORD
5
1
100
AcDbSymbolTable
70
1
0
BLOCK_RECORD
5
1F
100
AcDbSymbolTableRecord
100
AcDbBlockTableRecord
2
*MODEL_SPACE
0
BLOCK_RECORD
5
1B
100
AcDbSymbolTableRecord
100
AcDbBlockTableRecord
2
*PAPER_SPACE
0
ENDTAB
0
ENDSEC
0
SECTION
2
BLOCKS
0
BLOCK
5
20
100
AcDbEntity
100
AcDbBlockBegin
2
*MODEL_SPACE
0
ENDBLK
5
21
100
AcDbEntity
100
AcDbBlockEnd
0
BLOCK
5
1C
100
AcDbEntity
100
AcDbBlockBegin
2
*PAPER_SPACE
0
ENDBLK
5
1D
100
AcDbEntity
100
AcDbBlockEnd
0
ENDSEC
0
SECTION
2
ENTITIES
0
LINE
5
100
100
AcDbEntity
8
0
100
AcDbLine
10
-93.852371224516631
20
15.65231259317359
30
0
11
-93.052371224516605
21
15.652312593173592
31
0
0
LINE
5
101
100
AcDbEntity
8
0
100
AcDbLine
10
-93.052371224516605
20
15.652312593173592
30
0
11
-93.052371224516605
21
19.15231259317359
31
0
0
LINE
5
102
100
AcDbEntity
8
0
100
AcDbLine
10
-93.052371224516605
20
19.15231259317359
30
0
11
-80.032371224516623
21
19.152312593173626
31
0
0
LINE
5
103
100
AcDbEntity
8
0
100
AcDbLine
10
-80.032371224516623
20
19.152312593173626
30
0
11
-80.032371224516623
21
15.652312593173626
31
0
0
LINE
5
104
100
AcDbEntity
8
0
100
AcDbLine
10
-80.032371224516623
20
15.652312593173626
30
0
11
-79.232371224516626
21
15.652312593173628
31
0
0
LINE
5
105
100
AcDbEntity
8
0
100
AcDbLine
10
-79.232371224516626
20
15.652312593173628
30
0
11
-79.232371224516584
21
-1.967687406826375
31
0
0
LINE
5
106
100
AcDbEntity
8
0
100
AcDbLine
10
-93.85237122451656
20
-1.2472986655426155
30
0
11
-93.852371224516631
21
15.65231259317359
31
0
0
LWPOLYLINE
5
107
100
AcDbEntity
8
0
100
AcDbPolyline
90
14
70
1
43
0.0
10
-20.047760289171599
20
29.421868535441853
10
-18.147760289171597
20
29.421868535441856
10
-18.147760289171593
20
26.921868535442051
10
-16.701868535442074
20
26.921868535442059
10
-16.701868535441985
20
11.301868535442061
10
-18.147760289171593
20
11.301868535442052
10
-18.147760289171593
20
7.300000000000006
10
-15.247760870316887
20
7.2999999999999972
10
-15.247760870316895
20
4.9999999999999982
10
-19.847760870316897
20
5.0000000000000098
10
-19.84776087031689
20
6.3018685354420434
10
-20.047760289171599
20
6.3018685354420425
10
-54.421868535441966
20
6.301868535441848
10
-54.421868535442087
20
29.421868535441845
0
LINE
5
108
100
AcDbEntity
8
0
100
AcDbLine
10
-6.8577608703168664
20
12.949999999999964
30
0
11
-15.947760870316847
21
12.949999999999985
31
0
0
LINE
5
109
100
AcDbEntity
8
0
100
AcDbLine
10
-15.947760870316847
20
12.949999999999985
30
0
11
-15.947760870316824
21
22.299999999999986
31
0
0
LINE
5
110
100
AcDbEntity
8
0
100
AcDbLine
10
-15.947760870316824
20
22.299999999999986
30
0
11
-6.8577608703168424
21
22.299999999999965
31
0
0
LINE
5
111
100
AcDbEntity
8
0
100
AcDbLine
10
-6.8577608703168424
20
22.299999999999965
30
0
11
-6.8577608703168371
21
24.499999999999979
31
0
0
LINE
5
112
100
AcDbEntity
8
0
100
AcDbLine
10
-6.8577608703168371
20
24.499999999999979
30
0
11
-10.847760870316838
21
24.499999999999989
31
0
0
LINE
5
113
100
AcDbEntity
8
0
100
AcDbLine
10
-10.847760870316838
20
24.499999999999989
30
0
11
-10.847760870316829
21
27.899999999999977
31
0
0
LINE
5
114
100
AcDbEntity
8
0
100
AcDbLine
10
-10.847760870316829
20
27.899999999999977
30
0
11
-6.6477608703168301
21
27.899999999999974
31
0
0
LINE
5
115
100
AcDbEntity
8
0
100
AcDbLine
10
-6.6477608703168301
20
27.899999999999974
30
0
11
-6.6477608703168389
21
25.260000000000016
31
0
0
LINE
5
116
100
AcDbEntity
8
0
100
AcDbLine
10
-6.6477608703168389
20
25.260000000000016
30
0
11
-2.3099999999999987
21
25.260000000000002
31
0
0
LINE
5
117
100
AcDbEntity
8
0
100
AcDbLine
10
-2.3099999999999987
20
25.260000000000002
30
0
11
-2.3099999999999987
21
33.627225215991928
31
0
0
ARC
5
118
100
AcDbEntity
8
0
100
AcDbCircle
10
-37.175392596389962
20
-31.862059199358683
30
0
40
74.191926610212036
210
0
220
-0
230
1
100
AcDbArc
50
61.969914304360721
51
120.55063944365648
0
ARC
5
119
100
AcDbEntity
8
0
100
AcDbCircle
10
-88.175392596398638
20
32.790875708252962
30
0
40
13.309999999999997
210
0
220
0
230
1
100
AcDbArc
50
224.88776893820591
51
356.72528495282415
0
ARC
5
120
100
AcDbEntity
8
0
100
AcDbCircle
10
-114.17539259639864
20
19.133059049576428
30
0
40
17.110000000016672
210
0
220
-0
230
1
100
AcDbArc
50
-319.00722552378147
51
14.433174864193171
0
ARC
5
121
100
AcDbEntity
8
0
100
AcDbCircle
10
-88.175392596398638
20
32.790875708252962
30
0
40
13.310000000000006
210
0
220
0
230
1
100
AcDbArc
50
186.08413484748405
51
190.5381804022056
0
ARC
5
122
100
AcDbEntity
8
0
100
AcDbCircle
10
-114.17539259639864
20
19.133059049576428
30
0
40
17.690000000016667
210
0
220
-0
230
1
100
AcDbArc
50
43.813885126300562
51
252.62506597801249
0
ARC
5
123
100
AcDbEntity
8
0
100
AcDbCircle
10
-59.999999999999972
20
342.06721096134243
30
0
40
344.97947121223149
210
0
220
0
230
1
100
AcDbArc
50
260.07537936041393
51
264.36857977749054
0
LINE
5
124
100
AcDbEntity
8
0
100
AcDbLine
10
-2.3099999999999992
20
1.9456158547232376
30
0
11
-2.3099999999999992
21
10.039999999999999
31
0
0
LINE
5
125
100
AcDbEntity
8
0
100
AcDbLine
10
-2.3099999999999992
20
10.039999999999999
30
0
11
-6.6477608703168745
21
10.040000000000013
31
0
0
LINE
5
126
100
AcDbEntity
8
0
100
AcDbLine
10
-6.6477608703168745
20
10.040000000000013
30
0
11
-6.6477608703168833
21
7.3999999999999773
31
0
0
LINE
5
127
100
AcDbEntity
8
0
100
AcDbLine
10
-6.6477608703168833
20
7.3999999999999773
30
0
11
-10.847760870316883
21
7.3999999999999932
31
0
0
LINE
5
128
100
AcDbEntity
8
0
100
AcDbLine
10
-10.847760870316883
20
7.3999999999999932
30
0
11
-10.847760870316874
21
10.799999999999986
31
0
0
LINE
5
129
100
AcDbEntity
8
0
100
AcDbLine
10
-10.847760870316874
20
10.799999999999986
30
0
11
-6.8577608703168726
21
10.799999999999976
31
0
0
LINE
5
130
100
AcDbEntity
8
0
100
AcDbLine
10
-6.8577608703168726
20
10.799999999999976
30
0
11
-6.8577608703168664
21
12.949999999999964
31
0
0
LWPOLYLINE
5
131
100
AcDbEntity
8
0
100
AcDbPolyline
90
4
70
1
43
0.0
10
-11.52038777438781
20
28.785831814763434
10
-5.8419770329671925
20
28.785831814763434
10
-5.8419770329671925
20
23.676843877496449
10
-11.52038777438781
20
23.676843877496449
0
LWPOLYLINE
5
132
100
AcDbEntity
8
0
100
AcDbPolyline
90
4
70
1
43
0.0
10
-11.52038777438781
20
11.450070888309405
10
-5.6838040318134144
20
11.450070888309405
10
-5.6838040318134144
20
6.6257943531192183
10
-11.52038777438781
20
6.6257943531192183
0
LINE
5
133
100
AcDbEntity
8
0
100
AcDbLine
10
-79.232371224516584
20
-1.967687406826375
30
0
11
-81.542371224516586
21
-1.9676874068263797
31
0
0
LINE
5
134
100
AcDbEntity
8
0
100
AcDbLine
10
-81.542371224516586
20
-1.9676874068263797
30
0
11
-81.542371224516586
21
-2.2389925841297753
31
0
0
ARC
5
135
100
AcDbEntity
8
0
100
AcDbCircle
10
-59.999999999999972
20
342.06721096134243
30
0
40
344.97947121223172
210
0
220
0
230
1
100
AcDbArc
50
266.41981441239164
51
279.62664980919857
0
ENDSEC
0
SECTION
2
OBJECTS
0
DICTIONARY
5
C
100
AcDbDictionary
3
ACAD_GROUP
350
D
3
ACAD_MLINESTYLE
350
17
0
DICTIONARY
5
D
100
AcDbDictionary
0
DICTIONARY
5
1A
330
C
100
AcDbDictionary
0
DICTIONARY
5
17
100
AcDbDictionary
0
ENDSEC
0
EOF
