0
SECTION
2
HEADER
9
$INSUNITS
70
4
9
$ACADVER
1
AC1014
9
$HANDSEED
5
FFFF
0
ENDSEC
0
SECTION
2
TABLES
0
TABLE
2
VPORT
5
8
100
AcDbSymbolTable
0
ENDTAB
0
TABLE
2
LTYPE
5
5
100
AcDbSymbolTable
0
LTYPE
5
14
100
AcDbSymbolTableRecord
100
AcDbLinetypeTableRecord
2
BYBLOCK
70
0
0
LTYPE
5
15
100
AcDbSymbolTableRecord
100
AcDbLinetypeTableRecord
2
BYLAYER
70
0
0
LTYPE
5
16
100
AcDbSymbolTableRecord
100
AcDbLinetypeTableRecord
2
DASHED
70
0
3
Dashed __ __ __ __ __ __ __ __ __ __ __ __ __ _
72
65
73
2
40
0.75
49
0.5
74
0
49
-0.25
74
0
0
ENDTAB
0
TABLE
2
LAYER
5
2
100
AcDbSymbolTable
70
2
0
LAYER
5
50
100
AcDbSymbolTableRecord
100
AcDbLayerTableRecord
2
0
70
0
62
7
6
CONTINUOUS
0
ENDTAB
0
TABLE
2
STYLE
5
3
100
AcDbSymbolTable
70
1
0
STYLE
5
11
100
AcDbSymbolTableRecord
100
AcDbTextStyleTableRecord
2
STANDARD
70
0
0
ENDTAB
0
TABLE
2
VIEW
5
6
100
AcDbSymbolTable
70
0
0
ENDTAB
0
TABLE
2
UCS
5
7
100
AcDbSymbolTable
70
0
0
ENDTAB
0
TABLE
2
APPID
5
9
100
AcDbSymbolTable
70
2
0
APPID
5
12
100
AcDbSymbolTableRecord
100
AcDbRegAppTableRecord
2
ACAD
70
0
0
ENDTAB
0
TABLE
2
DIMSTYLE
5
A
100
AcDbSymbolTable
70
1
0
ENDTAB
0
TABLE
2
BLOCK_RECORD
5
1
100
AcDbSymbolTable
70
1
0
BLOCK_RECORD
5
1F
100
AcDbSymbolTableRecord
100
AcDbBlockTableRecord
2
*MODEL_SPACE
0
BLOCK_RECORD
5
1B
100
AcDbSymbolTableRecord
100
AcDbBlockTableRecord
2
*PAPER_SPACE
0
ENDTAB
0
ENDSEC
0
SECTION
2
BLOCKS
0
BLOCK
5
20
100
AcDbEntity
100
AcDbBlockBegin
2
*MODEL_SPACE
0
ENDBLK
5
21
100
AcDbEntity
100
AcDbBlockEnd
0
BLOCK
5
1C
100
AcDbEntity
100
AcDbBlockBegin
2
*PAPER_SPACE
0
ENDBLK
5
1D
100
AcDbEntity
100
AcDbBlockEnd
0
ENDSEC
0
SECTION
2
ENTITIES
0
LWPOLYLINE
5
100
100
AcDbEntity
8
0
100
AcDbPolyline
90
12
70
1
43
0.0
10
-65.09355392456068
20
5.7064479589464643
10
-71.693553924560689
20
5.7064479589464661
10
-71.693553924560689
20
6.7064479589464661
10
-73.293553924560683
20
6.7064479589464678
10
-73.293553924560683
20
3.2064479589464652
10
-71.693553924560689
20
3.2064479589464643
10
-71.693553924560689
20
1.7064479589464632
10
-65.093553924560695
20
1.7064479589464612
10
-65.093553924560695
20
3.2064479589464625
10
-63.493553924560686
20
3.2064479589464616
10
-63.493553924560686
20
6.7064479589464643
10
-65.09355392456068
20
6.7064479589464643
0
LWPOLYLINE
5
101
100
AcDbEntity
8
0
100
AcDbPolyline
90
4
70
1
43
0.0
10
-71.693553924560689
20
5.7064479589464661
10
-65.09355392456068
20
5.7064479589464661
10
-65.09355392456068
20
10.706447958946466
10
-71.693553924560689
20
10.706447958946466
0
LWPOLYLINE
5
102
100
AcDbEntity
8
0
100
AcDbPolyline
90
4
70
1
43
0.0
10
-65.093553924560695
20
3.2064479589464625
10
-63.493553924560686
20
3.2064479589464625
10
-63.493553924560686
20
1.2064479589464621
10
-65.093553924560695
20
1.2064479589464621
0
LWPOLYLINE
5
103
100
AcDbEntity
8
0
100
AcDbPolyline
90
4
70
1
43
0.0
10
-71.693553924560689
20
3.2064479589464643
10
-73.293553924560683
20
3.2064479589464643
10
-73.293553924560683
20
1.2064479589464643
10
-71.693553924560689
20
1.2064479589464643
0
LWPOLYLINE
5
104
100
AcDbEntity
8
0
100
AcDbPolyline
90
7
70
1
43
0.0
10
-2.3100018556871449
20
33.627225243166535
42
0.26132272868288736
10
-74.887128048532617
20
32.030562649784187
42
-0.64840009262987397
10
-97.605403081767278
20
23.397737961279212
42
-8.5903485354719251
10
-101.26089804016287
20
30.356600515485972
42
-0.019436887140167211
10
-101.41042362029691
20
31.380165660110599
42
1.2893221082145727
10
-119.45804061003716
20
2.2502349773746744
42
0.085516060193357418
10
-2.310001855687132
20
1.9456158818978286
0
CIRCLE
5
105
100
AcDbEntity
8
0
100
AcDbCircle
10
-114.17539445208577
20
19.133059076751028
30
0
40
14.800000000016666
210
1.5777218104434918e-30
220
1.4342743625361465e-58
230
1
0
CIRCLE
5
106
100
AcDbEntity
8
0
100
AcDbCircle
10
-88.175394452085783
20
32.790875735427562
30
0
40
10.999999999999996
210
1.4681308630449696e-42
220
-1.5777218104420236e-30
230
1
0
LWPOLYLINE
5
107
100
AcDbEntity
8
0
100
AcDbPolyline
90
5
70
1
43
0.0
10
-74.350787048482999
20
35.00000002716574
42
0.85289045569486976
10
-102.00000185568713
20
35.000000027174593
42
1.197779922444365
10
-120.00000185568716
20
2.717456482059788e-08
42
0.087037670848155224
10
-1.8556872927177892e-06
20
2.7174493766324304e-08
10
-1.8556871328456737e-06
20
35.000000027174593
42
0.25930775003548534
0
ENDSEC
0
SECTION
2
OBJECTS
0
DICTIONARY
5
C
100
AcDbDictionary
3
ACAD_GROUP
350
D
3
ACAD_MLINESTYLE
350
17
0
DICTIONARY
5
D
100
AcDbDictionary
0
DICTIONARY
5
1A
330
C
100
AcDbDictionary
0
DICTIONARY
5
17
100
AcDbDictionary
0
ENDSEC
0
EOF
