0
SECTION
2
HEADER
9
$INSUNITS
70
4
9
$ACADVER
1
AC1014
9
$HANDSEED
5
FFFF
0
ENDSEC
0
SECTION
2
TABLES
0
TABLE
2
VPORT
5
8
100
AcDbSymbolTable
0
ENDTAB
0
TABLE
2
LTYPE
5
5
100
AcDbSymbolTable
0
LTYPE
5
14
100
AcDbSymbolTableRecord
100
AcDbLinetypeTableRecord
2
BYBLOCK
70
0
0
LTYPE
5
15
100
AcDbSymbolTableRecord
100
AcDbLinetypeTableRecord
2
BYLAYER
70
0
0
LTYPE
5
16
100
AcDbSymbolTableRecord
100
AcDbLinetypeTableRecord
2
DASHED
70
0
3
Dashed __ __ __ __ __ __ __ __ __ __ __ __ __ _
72
65
73
2
40
0.75
49
0.5
74
0
49
-0.25
74
0
0
ENDTAB
0
TABLE
2
LAYER
5
2
100
AcDbSymbolTable
70
2
0
LAYER
5
50
100
AcDbSymbolTableRecord
100
AcDbLayerTableRecord
2
0
70
0
62
7
6
CONTINUOUS
0
ENDTAB
0
TABLE
2
STYLE
5
3
100
AcDbSymbolTable
70
1
0
STYLE
5
11
100
AcDbSymbolTableRecord
100
AcDbTextStyleTableRecord
2
STANDARD
70
0
0
ENDTAB
0
TABLE
2
VIEW
5
6
100
AcDbSymbolTable
70
0
0
ENDTAB
0
TABLE
2
UCS
5
7
100
AcDbSymbolTable
70
0
0
ENDTAB
0
TABLE
2
APPID
5
9
100
AcDbSymbolTable
70
2
0
APPID
5
12
100
AcDbSymbolTableRecord
100
AcDbRegAppTableRecord
2
ACAD
70
0
0
ENDTAB
0
TABLE
2
DIMSTYLE
5
A
100
AcDbSymbolTable
70
1
0
ENDTAB
0
TABLE
2
BLOCK_RECORD
5
1
100
AcDbSymbolTable
70
1
0
BLOCK_RECORD
5
1F
100
AcDbSymbolTableRecord
100
AcDbBlockTableRecord
2
*MODEL_SPACE
0
BLOCK_RECORD
5
1B
100
AcDbSymbolTableRecord
100
AcDbBlockTableRecord
2
*PAPER_SPACE
0
ENDTAB
0
ENDSEC
0
SECTION
2
BLOCKS
0
BLOCK
5
20
100
AcDbEntity
100
AcDbBlockBegin
2
*MODEL_SPACE
0
ENDBLK
5
21
100
AcDbEntity
100
AcDbBlockEnd
0
BLOCK
5
1C
100
AcDbEntity
100
AcDbBlockBegin
2
*PAPER_SPACE
0
ENDBLK
5
1D
100
AcDbEntity
100
AcDbBlockEnd
0
ENDSEC
0
SECTION
2
ENTITIES
0
LINE
5
100
100
AcDbEntity
8
0
100
AcDbLine
10
63.388287014384247
20
-114.00000360608101
30
0
11
75
21
-89.098604749457593
31
0
0
LINE
5
101
100
AcDbEntity
8
0
100
AcDbLine
10
75
20
-89.098604749457593
30
0
11
86.611712985615725
21
-114.00000360608101
31
0
0
LINE
5
102
100
AcDbEntity
8
0
100
AcDbLine
10
86.611712985615725
20
-114.00000360608101
30
0
11
93.231980499390545
21
-114.00000360608101
31
0
0
LINE
5
103
100
AcDbEntity
8
0
100
AcDbLine
10
93.231980499390545
20
-114.00000360608101
30
0
11
80.032683793825186
21
-85.694020475136981
31
0
0
ARC
5
104
100
AcDbEntity
8
0
100
AcDbCircle
10
75
20
-82
30
0
40
6.2428914326105298
210
-0
220
0
230
1
100
AcDbArc
50
-36.278895232248189
51
111.50029412454444
0
LINE
5
105
100
AcDbEntity
8
0
100
AcDbLine
10
72.71194281409683
20
-76.191515881626344
30
0
11
75.00000111758709
21
-78.000003069639206
31
0
0
LINE
5
106
100
AcDbEntity
8
0
100
AcDbLine
10
75.00000111758709
20
-78.000003069639206
30
0
11
79.000001177191734
21
-82.000003129243851
31
0
0
ARC
5
107
100
AcDbEntity
8
0
100
AcDbCircle
10
75
20
-82
30
0
40
3.9999999999999929
210
0
220
0
230
1
100
AcDbArc
50
343.59037789072846
51
359.99995517891648
0
LINE
5
108
100
AcDbEntity
8
0
100
AcDbLine
10
78.837066181190224
20
-83.130010230558213
30
0
11
71.162933818809762
21
-83.130010230558199
31
0
0
ARC
5
109
100
AcDbEntity
8
0
100
AcDbCircle
10
75
20
-82
30
0
40
3.9999999999999947
210
0
220
0
230
1
100
AcDbArc
50
180
51
196.40962210927131
0
LINE
5
110
100
AcDbEntity
8
0
100
AcDbLine
10
71
20
-82
30
0
11
69.579676467608039
21
-78.902616225980395
31
0
0
LINE
5
111
100
AcDbEntity
8
0
100
AcDbLine
10
67.917186671933152
20
-90.090537449259273
30
0
11
56.768019500609455
21
-114.00000360608101
31
0
0
LINE
5
112
100
AcDbEntity
8
0
100
AcDbLine
10
56.768019500609455
20
-114.00000360608101
30
0
11
63.388287014384247
21
-114.00000360608101
31
0
0
SPLINE
5
113
100
AcDbEntity
8
0
100
AcDbSpline
70
4
71
5
72
21
73
15
74
0
42
0.000000001
43
0.0000000001
44
0.0000000001
40
0
40
0
40
0
40
0
40
0
40
0
40
0.10000000000000001
40
0.20000000000000001
40
0.30000000000000004
40
0.40000000000000002
40
0.5
40
0.59999999999999998
40
0.69999999999999996
40
0.79999999999999993
40
0.89999999999999991
40
1
40
1
40
1
40
1
40
1
40
1
41
1
41
1
41
1
41
1
41
1
41
1
41
1
41
1
41
1
41
1
41
1
41
1
41
1
41
1
41
1
10
74.52456777289035
20
-75.775238346989696
30
0
10
75.021220593747685
20
-75.718477376637765
30
0
10
75.985507909723339
20
-75.629605133523256
30
0
10
77.344879481219877
20
-75.570252064030626
30
0
10
78.980430258149397
20
-75.641403293833321
30
0
10
80.708809066376531
20
-76.006405426787268
30
0
10
82.090679085652823
20
-76.696144050573537
30
0
10
83.091336563788531
20
-77.787299582335237
30
0
10
83.688018938861092
20
-79.380443673510143
30
0
10
83.898039654457619
20
-81.488252400665857
30
0
10
83.749382450257031
20
-84.094901838475792
30
0
10
83.367196559059735
20
-86.554156212091726
30
0
10
82.941777350654476
20
-88.597385353084533
30
0
10
82.597507367803047
20
-90.046405021139179
30
0
10
82.41020665293965
20
-90.792634700177643
30
0
0
SPLINE
5
114
100
AcDbEntity
8
0
100
AcDbSpline
70
4
71
5
72
13
73
7
74
0
42
0.000000001
43
0.0000000001
44
0.0000000001
40
0
40
0
40
0
40
0
40
0
40
0
40
0.10000000000000001
40
0.19921568919649466
40
0.19921568919649466
40
0.19921568919649466
40
0.19921568919649466
40
0.19921568919649466
40
0.19921568919649466
41
1
41
1
41
1
41
1
41
1
41
1
41
1
10
69.579676467608039
20
-78.902616225980395
30
0
10
69.412928217360545
20
-79.009817401071686
30
0
10
69.086571700855302
20
-79.222067257166174
30
0
10
68.771833189977301
20
-79.431704122139806
30
0
10
68.468905515373407
20
-79.638684626691003
30
0
10
68.178371563028065
20
-79.842877674657728
30
0
10
68.036842831465535
20
-79.943860110109725
30
0
0
SPLINE
5
115
100
AcDbEntity
8
0
100
AcDbSpline
70
4
71
5
72
14
73
8
74
0
42
0.000000001
43
0.0000000001
44
0.0000000001
40
0.19921568920703653
40
0.19921568920703653
40
0.19921568920703653
40
0.19921568920703653
40
0.19921568920703653
40
0.19921568920703653
40
0.20000000000000001
40
0.30000000000000004
40
0.39994611258858315
40
0.39994611258858315
40
0.39994611258858315
40
0.39994611258858315
40
0.39994611258858315
40
0.39994611258858315
41
1
41
1
41
1
41
1
41
1
41
1
41
1
41
1
10
68.036842831390359
20
-79.943860110163399
30
0
10
68.035724031404399
20
-79.944658387277286
30
0
10
67.891983125767439
20
-80.047231658457605
30
0
10
67.612205581322854
20
-80.25006123611881
30
0
10
67.345775750020522
20
-80.449888796293592
30
0
10
67.093628940599388
20
-80.646503979857073
30
0
10
66.857721851850542
20
-80.838920058916756
30
0
10
66.74374181396557
20
-80.934215642830054
30
0
0
SPLINE
5
116
100
AcDbEntity
8
0
100
AcDbSpline
70
4
71
5
72
15
73
9
74
0
42
0.000000001
43
0.0000000001
44
0.0000000001
40
0.3999461125885837
40
0.3999461125885837
40
0.3999461125885837
40
0.3999461125885837
40
0.3999461125885837
40
0.3999461125885837
40
0.40000000000000002
40
0.5
40
0.59999999999999998
40
0.63439457091617546
40
0.63439457091617546
40
0.63439457091617546
40
0.63439457091617546
40
0.63439457091617546
40
0.63439457091617546
41
1
41
1
41
1
41
1
41
1
41
1
41
1
41
1
41
1
10
66.74374181396557
20
-80.934215642830054
30
0
10
66.743680359957636
20
-80.934267022840771
30
0
10
66.629579541582956
20
-81.029664888276258
30
0
10
66.40933781555168
20
-81.218632807099709
30
0
10
66.170350244457467
20
-81.435789170387537
30
0
10
65.955146358769255
20
-81.647596374678102
30
0
10
65.764466368771423
20
-81.853850381728563
30
0
10
65.66312982833665
20
-81.970312230723124
30
0
10
65.637717613886068
20
-82.000000000000014
30
0
0
SPLINE
5
117
100
AcDbEntity
8
0
100
AcDbSpline
70
4
71
5
72
15
73
9
74
0
42
0.000000001
43
0.0000000001
44
0.0000000001
40
0.63439457091617912
40
0.63439457091617912
40
0.63439457091617912
40
0.63439457091617912
40
0.63439457091617912
40
0.63439457091617912
40
0.69999999999999996
40
0.79999999999999993
40
0.89999999999999991
40
1
40
1
40
1
40
1
40
1
40
1
41
1
41
1
41
1
41
1
41
1
41
1
41
1
41
1
41
1
10
65.637717613886053
20
-82.000000000000028
30
0
10
65.589245451315264
20
-82.056627508065134
30
0
10
65.471683618266752
20
-82.198491922006781
30
0
10
65.302439760861532
20
-82.421678109857538
30
0
10
65.111072534454394
20
-82.719538071320571
30
0
10
64.973829682717522
20
-83.005224987197849
30
0
10
64.895588843869149
20
-83.231916139502147
30
0
10
64.858460151233942
20
-83.37966277600492
30
0
10
64.843653682783099
20
-83.452690914632569
30
0
0
SPLINE
5
118
100
AcDbEntity
8
0
100
AcDbSpline
70
4
71
5
72
15
73
9
74
0
42
0.000000001
43
0.0000000001
44
0.0000000001
40
0.84614196298997169
40
0.84614196298997169
40
0.84614196298997169
40
0.84614196298997169
40
0.84614196298997169
40
0.84614196298997169
40
0.8500000000000002
40
0.90000000000000024
40
0.95000000000000029
40
1
40
1
40
1
40
1
40
1
40
1
41
1
41
1
41
1
41
1
41
1
41
1
41
1
41
1
41
1
10
64.843653682816978
20
-83.452690914715859
30
0
10
64.855746348518522
20
-83.482442620759286
30
0
10
65.025149724024928
20
-83.898408153000688
30
0
10
65.367705209360508
20
-84.717569685892755
30
0
10
65.920304531427121
20
-85.979289779408646
30
0
10
66.538987514370248
20
-87.311237590002889
30
0
10
67.204097268361323
20
-88.67545408076154
30
0
10
67.674920704308917
20
-89.613998519892363
30
0
10
67.917186671933152
20
-90.090537449259273
30
0
0
ENDSEC
0
SECTION
2
OBJECTS
0
DICTIONARY
5
C
100
AcDbDictionary
3
ACAD_GROUP
350
D
3
ACAD_MLINESTYLE
350
17
0
DICTIONARY
5
D
100
AcDbDictionary
0
DICTIONARY
5
1A
330
C
100
AcDbDictionary
0
DICTIONARY
5
17
100
AcDbDictionary
0
ENDSEC
0
EOF
