0
SECTION
2
HEADER
9
$INSUNITS
70
4
9
$ACADVER
1
AC1014
9
$HANDSEED
5
FFFF
0
ENDSEC
0
SECTION
2
TABLES
0
TABLE
2
VPORT
5
8
100
AcDbSymbolTable
0
ENDTAB
0
TABLE
2
LTYPE
5
5
100
AcDbSymbolTable
0
LTYPE
5
14
100
AcDbSymbolTableRecord
100
AcDbLinetypeTableRecord
2
BYBLOCK
70
0
0
LTYPE
5
15
100
AcDbSymbolTableRecord
100
AcDbLinetypeTableRecord
2
BYLAYER
70
0
0
LTYPE
5
16
100
AcDbSymbolTableRecord
100
AcDbLinetypeTableRecord
2
DASHED
70
0
3
Dashed __ __ __ __ __ __ __ __ __ __ __ __ __ _
72
65
73
2
40
0.75
49
0.5
74
0
49
-0.25
74
0
0
ENDTAB
0
TABLE
2
LAYER
5
2
100
AcDbSymbolTable
70
2
0
LAYER
5
50
100
AcDbSymbolTableRecord
100
AcDbLayerTableRecord
2
0
70
0
62
7
6
CONTINUOUS
0
ENDTAB
0
TABLE
2
STYLE
5
3
100
AcDbSymbolTable
70
1
0
STYLE
5
11
100
AcDbSymbolTableRecord
100
AcDbTextStyleTableRecord
2
STANDARD
70
0
0
ENDTAB
0
TABLE
2
VIEW
5
6
100
AcDbSymbolTable
70
0
0
ENDTAB
0
TABLE
2
UCS
5
7
100
AcDbSymbolTable
70
0
0
ENDTAB
0
TABLE
2
APPID
5
9
100
AcDbSymbolTable
70
2
0
APPID
5
12
100
AcDbSymbolTableRecord
100
AcDbRegAppTableRecord
2
ACAD
70
0
0
ENDTAB
0
TABLE
2
DIMSTYLE
5
A
100
AcDbSymbolTable
70
1
0
ENDTAB
0
TABLE
2
BLOCK_RECORD
5
1
100
AcDbSymbolTable
70
1
0
BLOCK_RECORD
5
1F
100
AcDbSymbolTableRecord
100
AcDbBlockTableRecord
2
*MODEL_SPACE
0
BLOCK_RECORD
5
1B
100
AcDbSymbolTableRecord
100
AcDbBlockTableRecord
2
*PAPER_SPACE
0
ENDTAB
0
ENDSEC
0
SECTION
2
BLOCKS
0
BLOCK
5
20
100
AcDbEntity
100
AcDbBlockBegin
2
*MODEL_SPACE
0
ENDBLK
5
21
100
AcDbEntity
100
AcDbBlockEnd
0
BLOCK
5
1C
100
AcDbEntity
100
AcDbBlockBegin
2
*PAPER_SPACE
0
ENDBLK
5
1D
100
AcDbEntity
100
AcDbBlockEnd
0
ENDSEC
0
SECTION
2
ENTITIES
0
LWPOLYLINE
5
100
100
AcDbEntity
8
0
100
AcDbPolyline
90
8
70
1
43
0.0
10
75.00000111758709
20
0
10
75.00000111758709
20
72.49999837949872
10
70.999998413026333
20
72.49999837949872
10
70.999998413026333
20
65.499998535960913
10
63.999998532235622
20
65.499998535960913
10
63.999998532235622
20
7.0000001043081284
10
71.000001057982445
20
7.0000001043081284
10
71.000001057982445
20
0
0
ARC
5
101
100
AcDbEntity
8
0
100
AcDbCircle
10
63.99999853223563
20
10.500000104308128
30
0
40
3.0000000000000004
210
0
220
0
230
1
100
AcDbArc
50
-90.000000000000142
51
90.000000000000142
0
ARC
5
102
100
AcDbEntity
8
0
100
AcDbCircle
10
63.99999853223563
20
16.937500104308128
30
0
40
3.0000000000000004
210
0
220
0
230
1
100
AcDbArc
50
-90.000000000000142
51
90.000000000000142
0
ARC
5
103
100
AcDbEntity
8
0
100
AcDbCircle
10
63.99999853223563
20
23.375000104308128
30
0
40
2.9999999999999982
210
0
220
0
230
1
100
AcDbArc
50
-90.000000000000142
51
90.000000000000142
0
ARC
5
104
100
AcDbEntity
8
0
100
AcDbCircle
10
63.99999853223563
20
29.812500104308128
30
0
40
2.9999999999999982
210
0
220
0
230
1
100
AcDbArc
50
-90.000000000000142
51
90.000000000000142
0
ARC
5
105
100
AcDbEntity
8
0
100
AcDbCircle
10
63.99999853223563
20
36.250000104308128
30
0
40
3.0000000000000027
210
0
220
0
230
1
100
AcDbArc
50
-90.000000000000142
51
90.000000000000142
0
ARC
5
106
100
AcDbEntity
8
0
100
AcDbCircle
10
63.99999853223563
20
42.687500104308128
30
0
40
2.9999999999999982
210
0
220
0
230
1
100
AcDbArc
50
-90.000000000000142
51
90.000000000000142
0
ARC
5
107
100
AcDbEntity
8
0
100
AcDbCircle
10
63.99999853223563
20
49.125000104308128
30
0
40
2.9999999999999982
210
0
220
0
230
1
100
AcDbArc
50
-90.000000000000142
51
90.000000000000142
0
ARC
5
108
100
AcDbEntity
8
0
100
AcDbCircle
10
63.99999853223563
20
55.562500104308143
30
0
40
3.0000000000000071
210
0
220
0
230
1
100
AcDbArc
50
-90.000000000000142
51
90.000000000000142
0
LWPOLYLINE
5
109
100
AcDbEntity
8
0
100
AcDbPolyline
90
3
70
1
43
0.0
10
63.999998532235622
20
59.000000104308128
42
0.99999999999999989
10
63.999998532235622
20
65.000000104308128
10
66.999998532235622
20
62.000000104308121
0
LINE
5
110
100
AcDbEntity
8
0
100
AcDbLine
10
63.999998532235622
20
58.562500104308135
30
0
11
66.999998532235622
21
55.562500104308121
31
0
0
LINE
5
111
100
AcDbEntity
8
0
100
AcDbLine
10
66.999998532235622
20
55.562500104308121
30
0
11
63.999998532235622
21
52.562500104308128
31
0
0
LINE
5
112
100
AcDbEntity
8
0
100
AcDbLine
10
63.999998532235622
20
52.125000104308143
30
0
11
66.999998532235622
21
49.125000104308114
31
0
0
LINE
5
113
100
AcDbEntity
8
0
100
AcDbLine
10
66.999998532235622
20
49.125000104308114
30
0
11
63.999998532235622
21
46.125000104308128
31
0
0
LINE
5
114
100
AcDbEntity
8
0
100
AcDbLine
10
63.999998532235622
20
45.687500104308128
30
0
11
66.999998532235622
21
42.687500104308114
31
0
0
LINE
5
115
100
AcDbEntity
8
0
100
AcDbLine
10
66.999998532235622
20
42.687500104308114
30
0
11
63.999998532235622
21
39.687500104308128
31
0
0
LINE
5
116
100
AcDbEntity
8
0
100
AcDbLine
10
63.999998532235622
20
39.250000104308135
30
0
11
66.999998532235622
21
36.250000104308114
31
0
0
LINE
5
117
100
AcDbEntity
8
0
100
AcDbLine
10
66.999998532235622
20
36.250000104308114
30
0
11
63.999998532235622
21
33.250000104308128
31
0
0
LINE
5
118
100
AcDbEntity
8
0
100
AcDbLine
10
63.999998532235622
20
32.812500104308135
30
0
11
66.999998532235622
21
29.812500104308121
31
0
0
LINE
5
119
100
AcDbEntity
8
0
100
AcDbLine
10
66.999998532235622
20
29.812500104308121
30
0
11
63.999998532235622
21
26.812500104308128
31
0
0
LINE
5
120
100
AcDbEntity
8
0
100
AcDbLine
10
63.999998532235622
20
26.375000104308132
30
0
11
66.999998532235622
21
23.375000104308118
31
0
0
LINE
5
121
100
AcDbEntity
8
0
100
AcDbLine
10
66.999998532235622
20
23.375000104308118
30
0
11
63.999998532235622
21
20.375000104308128
31
0
0
LINE
5
122
100
AcDbEntity
8
0
100
AcDbLine
10
63.999998532235622
20
19.937500104308128
30
0
11
66.999998532235622
21
16.937500104308114
31
0
0
LINE
5
123
100
AcDbEntity
8
0
100
AcDbLine
10
66.999998532235622
20
16.937500104308114
30
0
11
63.999998532235622
21
13.937500104308125
31
0
0
LINE
5
124
100
AcDbEntity
8
0
100
AcDbLine
10
63.999998532235622
20
13.500000104308132
30
0
11
66.999998532235622
21
10.500000104308116
31
0
0
LINE
5
125
100
AcDbEntity
8
0
100
AcDbLine
10
66.999998532235622
20
10.500000104308116
30
0
11
63.999998532235622
21
7.5000001043081266
31
0
0
ENDSEC
0
SECTION
2
OBJECTS
0
DICTIONARY
5
C
100
AcDbDictionary
3
ACAD_GROUP
350
D
3
ACAD_MLINESTYLE
350
17
0
DICTIONARY
5
D
100
AcDbDictionary
0
DICTIONARY
5
1A
330
C
100
AcDbDictionary
0
DICTIONARY
5
17
100
AcDbDictionary
0
ENDSEC
0
EOF
