0
SECTION
2
HEADER
9
$INSUNITS
70
4
9
$ACADVER
1
AC1014
9
$HANDSEED
5
FFFF
0
ENDSEC
0
SECTION
2
TABLES
0
TABLE
2
VPORT
5
8
100
AcDbSymbolTable
0
ENDTAB
0
TABLE
2
LTYPE
5
5
100
AcDbSymbolTable
0
LTYPE
5
14
100
AcDbSymbolTableRecord
100
AcDbLinetypeTableRecord
2
BYBLOCK
70
0
0
LTYPE
5
15
100
AcDbSymbolTableRecord
100
AcDbLinetypeTableRecord
2
BYLAYER
70
0
0
LTYPE
5
16
100
AcDbSymbolTableRecord
100
AcDbLinetypeTableRecord
2
DASHED
70
0
3
Dashed __ __ __ __ __ __ __ __ __ __ __ __ __ _
72
65
73
2
40
0.75
49
0.5
74
0
49
-0.25
74
0
0
ENDTAB
0
TABLE
2
LAYER
5
2
100
AcDbSymbolTable
70
2
0
LAYER
5
50
100
AcDbSymbolTableRecord
100
AcDbLayerTableRecord
2
0
70
0
62
7
6
CONTINUOUS
0
ENDTAB
0
TABLE
2
STYLE
5
3
100
AcDbSymbolTable
70
1
0
STYLE
5
11
100
AcDbSymbolTableRecord
100
AcDbTextStyleTableRecord
2
STANDARD
70
0
0
ENDTAB
0
TABLE
2
VIEW
5
6
100
AcDbSymbolTable
70
0
0
ENDTAB
0
TABLE
2
UCS
5
7
100
AcDbSymbolTable
70
0
0
ENDTAB
0
TABLE
2
APPID
5
9
100
AcDbSymbolTable
70
2
0
APPID
5
12
100
AcDbSymbolTableRecord
100
AcDbRegAppTableRecord
2
ACAD
70
0
0
ENDTAB
0
TABLE
2
DIMSTYLE
5
A
100
AcDbSymbolTable
70
1
0
ENDTAB
0
TABLE
2
BLOCK_RECORD
5
1
100
AcDbSymbolTable
70
1
0
BLOCK_RECORD
5
1F
100
AcDbSymbolTableRecord
100
AcDbBlockTableRecord
2
*MODEL_SPACE
0
BLOCK_RECORD
5
1B
100
AcDbSymbolTableRecord
100
AcDbBlockTableRecord
2
*PAPER_SPACE
0
ENDTAB
0
ENDSEC
0
SECTION
2
BLOCKS
0
BLOCK
5
20
100
AcDbEntity
100
AcDbBlockBegin
2
*MODEL_SPACE
0
ENDBLK
5
21
100
AcDbEntity
100
AcDbBlockEnd
0
BLOCK
5
1C
100
AcDbEntity
100
AcDbBlockBegin
2
*PAPER_SPACE
0
ENDBLK
5
1D
100
AcDbEntity
100
AcDbBlockEnd
0
ENDSEC
0
SECTION
2
ENTITIES
0
LWPOLYLINE
5
100
100
AcDbEntity
8
0
100
AcDbPolyline
90
3
70
1
43
0.0
10
-75
20
-97.000003352761269
10
-67.07276969324019
20
-114.00000360608101
10
-82.927230306759867
20
-114.00000360608101
0
LWPOLYLINE
5
101
100
AcDbEntity
8
0
100
AcDbPolyline
90
3
70
1
43
0.0
10
-76.75364791921119
20
-92.859314848343146
42
0.080224285682225421
10
-73.24635208078881
20
-92.859314848343146
10
-75
20
-89.098604749457593
0
LWPOLYLINE
5
102
100
AcDbEntity
8
0
100
AcDbPolyline
90
7
70
1
43
0.0
10
-75.00000111758709
20
-78.000003069639206
10
-71.48745417867363
20
-75.223676904073969
42
-1.9221340832661606
10
-68.611826579182974
20
-76.791970138170157
10
-71
20
-82
42
-0.071723091514187071
10
-71.162933818809776
20
-83.130010230558213
10
-78.837066181190224
20
-83.130010230558213
42
-0.07172309151418696
10
-79
20
-82
0
LWPOLYLINE
5
103
100
AcDbEntity
8
0
100
AcDbPolyline
90
7
70
1
43
0.0
10
71.48745417867363
20
-75.223676904073969
10
75.00000111758709
20
-78.000003069639206
10
78.999999999998778
20
-82.000003129242913
42
-0.071722894930418599
10
78.837066181190224
20
-83.130010230558213
10
71.162933818809762
20
-83.130010230558199
42
-0.071723091514182838
10
71
20
-82
10
68.611826579182988
20
-76.791970138170143
42
-1.9221340832661564
0
LWPOLYLINE
5
104
100
AcDbEntity
8
0
100
AcDbPolyline
90
3
70
1
43
0.0
10
73.24635208078881
20
-92.859314848343146
42
0.080224285682225518
10
76.75364791921119
20
-92.859314848343146
10
75
20
-89.098604749457593
0
LWPOLYLINE
5
105
100
AcDbEntity
8
0
100
AcDbPolyline
90
3
70
1
43
0.0
10
67.07276969324019
20
-114.00000360608101
10
75
20
-97.000003352761269
10
82.927230306759867
20
-114.00000360608101
0
ARC
5
106
100
AcDbEntity
8
0
100
AcDbCircle
10
75.000000000000156
20
-82.000000000000014
30
0
40
6.2428914326104046
210
-0
220
0
230
1
100
AcDbArc
50
-36.2788952322488
51
45.558424629504231
0
SPLINE
5
107
100
AcDbEntity
8
0
100
AcDbSpline
70
4
71
5
72
21
73
15
74
0
42
0.000000001
43
0.0000000001
44
0.0000000001
40
0
40
0
40
0
40
0
40
0
40
0
40
0.10000000000000001
40
0.20000000000000001
40
0.30000000000000004
40
0.40000000000000002
40
0.5
40
0.59999999999999998
40
0.69999999999999996
40
0.79999999999999993
40
0.89999999999999991
40
1
40
1
40
1
40
1
40
1
40
1
41
1
41
1
41
1
41
1
41
1
41
1
41
1
41
1
41
1
41
1
41
1
41
1
41
1
41
1
41
1
10
66.53792123850215
20
-70.581987331474664
30
0
10
66.945532618462963
20
-70.584662748068524
30
0
10
67.748049788042081
20
-70.601506587093311
30
0
10
68.913711295804021
20
-70.661249079644392
30
0
10
70.390422230798194
20
-70.811013350226744
30
0
10
72.097948577025022
20
-71.123376114229927
30
0
10
73.653278503574896
20
-71.573410115256223
30
0
10
75.041456320821837
20
-72.174643715503748
30
0
10
76.25036050106263
20
-72.938041599399355
30
0
10
77.280376727878703
20
-73.863254891872913
30
0
10
78.142219183268537
20
-74.940591941218258
30
0
10
78.706796004218063
20
-75.915438904736448
30
0
10
79.064230572190169
20
-76.706273513802458
30
0
10
79.273658757832806
20
-77.259603652900154
30
0
10
79.371157693245266
20
-77.542795286264607
30
0
0
SPLINE
5
108
100
AcDbEntity
8
0
100
AcDbSpline
70
4
71
2
72
6
73
3
74
0
42
0.000000001
43
0.0000000001
44
0.0000000001
40
1.0218347970637274
40
1.0218347970637274
40
1.0218347970637274
40
1.3489898416876489
40
1.3489898416876489
40
1.3489898416876489
41
2.6064964095293406
41
2.7068874043115296
41
2.7068874043115301
10
66.537921238502079
20
-70.581987331474821
30
0
10
66.096723558099796
20
-70.482153591578708
30
0
10
65.858987064550774
20
-70.581987331474679
30
0
0
LINE
5
109
100
AcDbEntity
8
0
100
AcDbLine
10
67.917186671933152
20
-90.090537449259273
30
0
11
56.768019500609455
21
-114.00000360608101
31
0
0
LINE
5
110
100
AcDbEntity
8
0
100
AcDbLine
10
56.768019500609455
20
-114.00000360608101
30
0
11
-56.768019500609455
21
-114.00000360608101
31
0
0
LINE
5
111
100
AcDbEntity
8
0
100
AcDbLine
10
-56.768019500609455
20
-114.00000360608101
30
0
11
-67.917186671933152
21
-90.090537449259273
31
0
0
SPLINE
5
112
100
AcDbEntity
8
0
100
AcDbSpline
70
4
71
2
72
6
73
3
74
0
42
0.000000001
43
0.0000000001
44
0.0000000001
40
1.0218347970637274
40
1.0218347970637274
40
1.0218347970637274
40
1.3489898416876489
40
1.3489898416876489
40
1.3489898416876489
41
2.6064964095293406
41
2.7068874043115296
41
2.7068874043115301
10
-66.537921238502079
20
-70.581987331474821
30
0
10
-66.096723558099796
20
-70.482153591578708
30
0
10
-65.858987064550774
20
-70.581987331474679
30
0
0
SPLINE
5
113
100
AcDbEntity
8
0
100
AcDbSpline
70
4
71
5
72
21
73
15
74
0
42
0.000000001
43
0.0000000001
44
0.0000000001
40
0
40
0
40
0
40
0
40
0
40
0
40
0.10000000000000001
40
0.20000000000000001
40
0.30000000000000004
40
0.40000000000000002
40
0.5
40
0.59999999999999998
40
0.69999999999999996
40
0.79999999999999993
40
0.89999999999999991
40
1
40
1
40
1
40
1
40
1
40
1
41
1
41
1
41
1
41
1
41
1
41
1
41
1
41
1
41
1
41
1
41
1
41
1
41
1
41
1
41
1
10
-66.53792123850215
20
-70.581987331474664
30
0
10
-66.945532618462963
20
-70.584662748068524
30
0
10
-67.748049788042081
20
-70.601506587093311
30
0
10
-68.913711295804021
20
-70.661249079644392
30
0
10
-70.390422230798194
20
-70.811013350226744
30
0
10
-72.097948577025022
20
-71.123376114229927
30
0
10
-73.653278503574896
20
-71.573410115256223
30
0
10
-75.041456320821837
20
-72.174643715503748
30
0
10
-76.25036050106263
20
-72.938041599399355
30
0
10
-77.280376727878703
20
-73.863254891872913
30
0
10
-78.142219183268537
20
-74.940591941218258
30
0
10
-78.706796004218063
20
-75.915438904736448
30
0
10
-79.064230572190169
20
-76.706273513802458
30
0
10
-79.273658757832806
20
-77.259603652900154
30
0
10
-79.371157693245266
20
-77.542795286264607
30
0
0
ARC
5
114
100
AcDbEntity
8
0
100
AcDbCircle
10
-75
20
-82
30
0
40
6.2428914326105458
210
0
220
0
230
1
100
AcDbArc
50
134.44157537049679
51
216.27889523224806
0
LINE
5
115
100
AcDbEntity
8
0
100
AcDbLine
10
-80.0326837938252
20
-85.694020475136981
30
0
11
-89.159751777757492
21
-105.26708093064109
31
0
0
LINE
5
116
100
AcDbEntity
8
0
100
AcDbLine
10
-89.159751777757492
20
-105.26708093064109
30
0
11
-89.159751777757492
21
-119.46429042955589
31
0
0
LINE
5
117
100
AcDbEntity
8
0
100
AcDbLine
10
-89.159751777757492
20
-119.46429042955589
30
0
11
89.159751777757492
21
-119.46429042955589
31
0
0
LINE
5
118
100
AcDbEntity
8
0
100
AcDbLine
10
89.159751777757492
20
-119.46429042955589
30
0
11
89.159751777757492
21
-105.26708093064109
31
0
0
LINE
5
119
100
AcDbEntity
8
0
100
AcDbLine
10
89.159751777757492
20
-105.26708093064109
30
0
11
80.0326837938252
21
-85.694020475136981
31
0
0
LWPOLYLINE
5
120
100
AcDbEntity
8
0
100
AcDbPolyline
90
7
70
1
43
0.0
10
75
20
-89.098604749457593
10
73.24635208078881
20
-92.859314848343146
10
63.388287014384247
20
-114.00000360608101
10
67.07276969324019
20
-114.00000360608101
10
82.927230306759867
20
-114.00000360608101
10
86.611712985615725
20
-114.00000360608101
10
76.75364791921119
20
-92.859314848343146
0
SPLINE
5
121
100
AcDbEntity
8
0
100
AcDbSpline
70
4
71
5
72
31
73
25
74
0
42
0.000000001
43
0.0000000001
44
0.0000000001
40
0
40
0
40
0
40
0
40
0
40
0
40
0.050000000000000003
40
0.10000000000000001
40
0.15000000000000002
40
0.20000000000000001
40
0.25
40
0.29999999999999999
40
0.34999999999999998
40
0.39999999999999997
40
0.44999999999999996
40
0.49999999999999994
40
0.54999999999999993
40
0.59999999999999998
40
0.65000000000000002
40
0.70000000000000007
40
0.75000000000000011
40
0.80000000000000016
40
0.8500000000000002
40
0.90000000000000024
40
0.95000000000000029
40
1
40
1
40
1
40
1
40
1
40
1
41
1
41
1
41
1
41
1
41
1
41
1
41
1
41
1
41
1
41
1
41
1
41
1
41
1
41
1
41
1
41
1
41
1
41
1
41
1
41
1
41
1
41
1
41
1
41
1
41
1
10
65.85898706455076
20
-70.581987331474664
30
0
10
65.752248643708299
20
-70.608593733178935
30
0
10
65.545231140081356
20
-70.663147608002447
30
0
10
65.254077437453105
20
-70.749003568421841
30
0
10
64.904823213786955
20
-70.871544447083693
30
0
10
64.531002820693459
20
-71.040677264870908
30
0
10
64.212638946477696
20
-71.232678347884175
30
0
10
63.932044282202426
20
-71.461805922177803
30
0
10
63.667741036614544
20
-71.748213226239258
30
0
10
63.405006152487005
20
-72.114690778338655
30
0
10
63.147892590361607
20
-72.583643300618746
30
0
10
62.917743977012194
20
-73.175505406630421
30
0
10
62.743935147668275
20
-73.907959191495351
30
0
10
62.657792529592982
20
-74.794905328640652
30
0
10
62.68384634009778
20
-75.844901516047869
30
0
10
62.838013540016519
20
-77.061445118663002
30
0
10
63.130204920439539
20
-78.444601449388486
30
0
10
63.565431560097601
20
-79.992006921440577
30
0
10
64.145289907967665
20
-81.699899623794053
30
0
10
64.869059726945352
20
-83.563924282720237
30
0
10
65.734761755396349
20
-85.579839170422858
30
0
10
66.538987514370248
20
-87.311237590002889
30
0
10
67.204097268361323
20
-88.67545408076154
30
0
10
67.674920704308917
20
-89.613998519892363
30
0
10
67.917186671933152
20
-90.090537449259273
30
0
0
SPLINE
5
122
100
AcDbEntity
8
0
100
AcDbSpline
70
4
71
5
72
31
73
25
74
0
42
0.000000001
43
0.0000000001
44
0.0000000001
40
0
40
0
40
0
40
0
40
0
40
0
40
0.050000000000000003
40
0.10000000000000001
40
0.15000000000000002
40
0.20000000000000001
40
0.25
40
0.29999999999999999
40
0.34999999999999998
40
0.39999999999999997
40
0.44999999999999996
40
0.49999999999999994
40
0.54999999999999993
40
0.59999999999999998
40
0.65000000000000002
40
0.70000000000000007
40
0.75000000000000011
40
0.80000000000000016
40
0.8500000000000002
40
0.90000000000000024
40
0.95000000000000029
40
1
40
1
40
1
40
1
40
1
40
1
41
1
41
1
41
1
41
1
41
1
41
1
41
1
41
1
41
1
41
1
41
1
41
1
41
1
41
1
41
1
41
1
41
1
41
1
41
1
41
1
41
1
41
1
41
1
41
1
41
1
10
-65.85898706455076
20
-70.581987331474664
30
0
10
-65.752248643708299
20
-70.608593733178935
30
0
10
-65.545231140081356
20
-70.663147608002447
30
0
10
-65.254077437453105
20
-70.749003568421841
30
0
10
-64.904823213786955
20
-70.871544447083693
30
0
10
-64.531002820693459
20
-71.040677264870908
30
0
10
-64.212638946477696
20
-71.232678347884175
30
0
10
-63.932044282202426
20
-71.461805922177803
30
0
10
-63.667741036614544
20
-71.748213226239258
30
0
10
-63.405006152487005
20
-72.114690778338655
30
0
10
-63.147892590361607
20
-72.583643300618746
30
0
10
-62.917743977012194
20
-73.175505406630421
30
0
10
-62.743935147668275
20
-73.907959191495351
30
0
10
-62.657792529592982
20
-74.794905328640652
30
0
10
-62.68384634009778
20
-75.844901516047869
30
0
10
-62.838013540016519
20
-77.061445118663002
30
0
10
-63.130204920439539
20
-78.444601449388486
30
0
10
-63.565431560097601
20
-79.992006921440577
30
0
10
-64.145289907967665
20
-81.699899623794053
30
0
10
-64.869059726945352
20
-83.563924282720237
30
0
10
-65.734761755396349
20
-85.579839170422858
30
0
10
-66.538987514370248
20
-87.311237590002889
30
0
10
-67.204097268361323
20
-88.67545408076154
30
0
10
-67.674920704308917
20
-89.613998519892363
30
0
10
-67.917186671933152
20
-90.090537449259273
30
0
0
ENDSEC
0
SECTION
2
OBJECTS
0
DICTIONARY
5
C
100
AcDbDictionary
3
ACAD_GROUP
350
D
3
ACAD_MLINESTYLE
350
17
0
DICTIONARY
5
D
100
AcDbDictionary
0
DICTIONARY
5
1A
330
C
100
AcDbDictionary
0
DICTIONARY
5
17
100
AcDbDictionary
0
ENDSEC
0
EOF
