0
SECTION
2
HEADER
9
$INSUNITS
70
4
9
$ACADVER
1
AC1014
9
$HANDSEED
5
FFFF
0
ENDSEC
0
SECTION
2
TABLES
0
TABLE
2
VPORT
5
8
100
AcDbSymbolTable
0
ENDTAB
0
TABLE
2
LTYPE
5
5
100
AcDbSymbolTable
0
LTYPE
5
14
100
AcDbSymbolTableRecord
100
AcDbLinetypeTableRecord
2
BYBLOCK
70
0
0
LTYPE
5
15
100
AcDbSymbolTableRecord
100
AcDbLinetypeTableRecord
2
BYLAYER
70
0
0
LTYPE
5
16
100
AcDbSymbolTableRecord
100
AcDbLinetypeTableRecord
2
DASHED
70
0
3
Dashed __ __ __ __ __ __ __ __ __ __ __ __ __ _
72
65
73
2
40
0.75
49
0.5
74
0
49
-0.25
74
0
0
ENDTAB
0
TABLE
2
LAYER
5
2
100
AcDbSymbolTable
70
2
0
LAYER
5
50
100
AcDbSymbolTableRecord
100
AcDbLayerTableRecord
2
0
70
0
62
7
6
CONTINUOUS
0
ENDTAB
0
TABLE
2
STYLE
5
3
100
AcDbSymbolTable
70
1
0
STYLE
5
11
100
AcDbSymbolTableRecord
100
AcDbTextStyleTableRecord
2
STANDARD
70
0
0
ENDTAB
0
TABLE
2
VIEW
5
6
100
AcDbSymbolTable
70
0
0
ENDTAB
0
TABLE
2
UCS
5
7
100
AcDbSymbolTable
70
0
0
ENDTAB
0
TABLE
2
APPID
5
9
100
AcDbSymbolTable
70
2
0
APPID
5
12
100
AcDbSymbolTableRecord
100
AcDbRegAppTableRecord
2
ACAD
70
0
0
ENDTAB
0
TABLE
2
DIMSTYLE
5
A
100
AcDbSymbolTable
70
1
0
ENDTAB
0
TABLE
2
BLOCK_RECORD
5
1
100
AcDbSymbolTable
70
1
0
BLOCK_RECORD
5
1F
100
AcDbSymbolTableRecord
100
AcDbBlockTableRecord
2
*MODEL_SPACE
0
BLOCK_RECORD
5
1B
100
AcDbSymbolTableRecord
100
AcDbBlockTableRecord
2
*PAPER_SPACE
0
ENDTAB
0
ENDSEC
0
SECTION
2
BLOCKS
0
BLOCK
5
20
100
AcDbEntity
100
AcDbBlockBegin
2
*MODEL_SPACE
0
ENDBLK
5
21
100
AcDbEntity
100
AcDbBlockEnd
0
BLOCK
5
1C
100
AcDbEntity
100
AcDbBlockBegin
2
*PAPER_SPACE
0
ENDBLK
5
1D
100
AcDbEntity
100
AcDbBlockEnd
0
ENDSEC
0
SECTION
2
ENTITIES
0
POINT
5
100
100
AcDbEntity
8
0
100
AcDbPoint
10
0
20
0
30
0
0
CIRCLE
5
101
100
AcDbEntity
8
0
100
AcDbCircle
10
-75
20
-81.999998092651367
30
0
40
4
210
0
220
-0
230
1
0
CIRCLE
5
102
100
AcDbEntity
8
0
100
AcDbCircle
10
-75
20
-81.999998092651367
30
0
40
11
210
-0
220
0
230
1
0
CIRCLE
5
103
100
AcDbEntity
8
0
100
AcDbCircle
10
-75
20
-81.999998092651367
30
0
40
6.2428914326105414
210
0
220
0
230
1
0
LINE
5
104
100
AcDbEntity
8
0
100
AcDbLine
10
0
20
0
30
0
11
0
21
-200
31
0
0
LINE
5
105
100
AcDbEntity
8
0
100
AcDbLine
10
-75
20
-81.999998092651367
30
0
11
-77.638359925485759
21
-87.657979211650712
31
0
0
LINE
5
106
100
AcDbEntity
8
0
100
AcDbLine
10
-75
20
-81.999998092651367
30
0
11
-70.3511991208523
21
-91.969383750054519
31
0
0
LINE
5
107
100
AcDbEntity
8
0
100
AcDbLine
10
-75
20
-81.999998092651367
30
0
11
-75
21
-88.242889525261901
31
0
0
LINE
5
108
100
AcDbEntity
8
0
100
AcDbLine
10
-77.638359925485759
20
-87.657979211650712
30
0
11
-81.339273926110494
21
-95.594614898201115
31
0
0
LINE
5
109
100
AcDbEntity
8
0
100
AcDbLine
10
-70.3511991208523
20
-91.969383750054519
30
0
11
-65.99867076776512
21
-93.999001053435819
31
0
0
LINE
5
110
100
AcDbEntity
8
0
100
AcDbLine
10
-78.837066181190238
20
-83.13000832320958
30
0
11
-95.780019291532327
21
-119.46428852220727
31
0
0
LINE
5
111
100
AcDbEntity
8
0
100
AcDbLine
10
-89.159751777757492
20
-119.46428852220727
30
0
11
-73.399219458970265
21
-85.665717893653692
31
0
0
LINE
5
112
100
AcDbEntity
8
0
100
AcDbLine
10
-71.162933818809762
20
-83.13000832320958
30
0
11
-54.219980708467673
21
-119.46428852220727
31
0
0
LINE
5
113
100
AcDbEntity
8
0
100
AcDbLine
10
-60.840248222242508
20
-119.46428852220727
30
0
11
-76.600780541029735
21
-85.665717893653692
31
0
0
LINE
5
114
100
AcDbEntity
8
0
100
AcDbLine
10
-95.780019291532327
20
-119.46428852220727
30
0
11
0
21
-119.46428852220727
31
0
0
LINE
5
115
100
AcDbEntity
8
0
100
AcDbLine
10
0
20
-119.46428852220727
30
0
11
0
21
-114.00000169873238
31
0
0
LINE
5
116
100
AcDbEntity
8
0
100
AcDbLine
10
0
20
-114.00000169873238
30
0
11
-93.231980499390545
21
-114.00000169873238
31
0
0
LINE
5
117
100
AcDbEntity
8
0
100
AcDbLine
10
-75
20
-88.242889525261901
30
0
11
-75
21
-97.000001445412636
31
0
0
LINE
5
118
100
AcDbEntity
8
0
100
AcDbLine
10
-75
20
-97.000001445412636
30
0
11
-85.475269098901649
21
-119.46428852220727
31
0
0
LINE
5
119
100
AcDbEntity
8
0
100
AcDbLine
10
-75
20
-97.000001445412636
30
0
11
-64.524730901098422
21
-119.46428852220727
31
0
0
LINE
5
120
100
AcDbEntity
8
0
100
AcDbLine
10
-75
20
-81.999998092651367
30
0
11
-60
21
-81.999998092651367
31
0
0
LINE
5
121
100
AcDbEntity
8
0
100
AcDbLine
10
-75
20
-81.999998092651367
30
0
11
-90.000001341104507
21
-81.999998092651367
31
0
0
CIRCLE
5
122
100
AcDbEntity
8
0
100
AcDbCircle
10
-75
20
-81.999998092651367
30
0
40
3.9999999999999956
210
0
220
0
230
1
0
LINE
5
123
100
AcDbEntity
8
0
100
AcDbLine
10
-78.837066181190238
20
-83.13000832320958
30
0
11
-71.162933818809762
21
-83.13000832320958
31
0
0
LINE
5
124
100
AcDbEntity
8
0
100
AcDbLine
10
-79.371157693245266
20
-77.542793378915988
30
0
11
-70.628842306754748
21
-86.457202806386775
31
0
0
CIRCLE
5
125
100
AcDbEntity
8
0
100
AcDbCircle
10
-69.500001035630703
20
-75.00000111758709
30
0
40
2
210
0
220
0
230
1
0
LINE
5
126
100
AcDbEntity
8
0
100
AcDbLine
10
-71.48745417867363
20
-75.22367499672535
30
0
11
-75.00000111758709
21
-78.000001162290573
31
0
0
LINE
5
127
100
AcDbEntity
8
0
100
AcDbLine
10
-68.611826579182974
20
-76.791968230821539
30
0
11
-71.000001057982445
21
-81.999998092651367
31
0
0
SPLINE
5
128
100
AcDbEntity
8
0
100
AcDbSpline
70
12
71
2
41
1
41
4.4137748086230593
41
1
72
6
73
3
74
0
42
0.000000001
43
0.0000000001
44
0.0000000001
40
0
40
0
40
0
40
2.6979796833752978
40
2.6979796833752978
40
2.6979796833752978
10
-79.371157693245266
20
-77.542793378915988
30
0
10
-64.000000953674316
20
-68.500001020729542
30
0
10
-68.757108567389466
20
-81.999998092651367
30
0
0
LINE
5
129
100
AcDbEntity
8
0
100
AcDbLine
10
-65.638043756904977
20
-72.306516266402667
30
0
11
-67.917186671933152
21
-90.09053554191064
31
0
0
SPLINE
5
130
100
AcDbEntity
8
0
100
AcDbSpline
70
4
71
5
72
21
73
15
74
0
42
0.000000001
43
0.0000000001
44
0.0000000001
40
0
40
0
40
0
40
0
40
0
40
0
40
0.10000000000000001
40
0.20000000000000001
40
0.30000000000000004
40
0.40000000000000002
40
0.5
40
0.59999999999999998
40
0.69999999999999996
40
0.79999999999999993
40
0.89999999999999991
40
1
40
1
40
1
40
1
40
1
40
1
41
1
41
1
41
1
41
1
41
1
41
1
41
1
41
1
41
1
41
1
41
1
41
1
41
1
41
1
41
1
10
-66.53792123850215
20
-70.581985424126046
30
0
10
-66.945532618462963
20
-70.584660840719891
30
0
10
-67.748049788042081
20
-70.601504679744679
30
0
10
-68.913711295804021
20
-70.661247172295774
30
0
10
-70.390422230798194
20
-70.811011442878112
30
0
10
-72.097948577025022
20
-71.123374206881294
30
0
10
-73.653278503574896
20
-71.573408207907605
30
0
10
-75.041456320821837
20
-72.174641808155116
30
0
10
-76.25036050106263
20
-72.938039692050737
30
0
10
-77.280376727878703
20
-73.86325298452428
30
0
10
-78.142219183268537
20
-74.940590033869626
30
0
10
-78.706796004218063
20
-75.915436997387815
30
0
10
-79.064230572190169
20
-76.706271606453839
30
0
10
-79.273658757832806
20
-77.259601745551535
30
0
10
-79.371157693245266
20
-77.542793378915988
30
0
0
LINE
5
131
100
AcDbEntity
8
0
100
AcDbLine
10
-75.00000111758709
20
-78.000001162290573
30
0
11
-79.000001177191734
21
-82.000001221895218
31
0
0
SPLINE
5
132
100
AcDbEntity
8
0
100
AcDbSpline
70
4
71
5
72
21
73
15
74
0
42
0.000000001
43
0.0000000001
44
0.0000000001
40
0
40
0
40
0
40
0
40
0
40
0
40
0.10000000000000001
40
0.20000000000000001
40
0.30000000000000004
40
0.40000000000000002
40
0.5
40
0.59999999999999998
40
0.69999999999999996
40
0.79999999999999993
40
0.89999999999999991
40
1
40
1
40
1
40
1
40
1
40
1
41
1
41
1
41
1
41
1
41
1
41
1
41
1
41
1
41
1
41
1
41
1
41
1
41
1
41
1
41
1
10
-69.579676467608039
20
-78.902614318631777
30
0
10
-69.427699241175759
20
-79.017424695307071
30
0
10
-69.135813611084615
20
-79.254159690252393
30
0
10
-68.734192611232785
20
-79.630604568282763
30
0
10
-68.272295919993681
20
-80.175920736968067
30
0
10
-67.824306997522754
20
-80.936472155015181
30
0
10
-67.51217033086013
20
-81.787905055084792
30
0
10
-67.337435779721602
20
-82.74754145315822
30
0
10
-67.287726359485717
20
-83.83676193273017
30
0
10
-67.341746543378719
20
-85.081026449167325
30
0
10
-67.476179580741487
20
-86.509049872419453
30
0
10
-67.631123274272738
20
-87.821790801649499
30
0
10
-67.76715689204751
20
-88.913205926493717
30
0
10
-67.865843737387877
20
-89.689909617316943
30
0
10
-67.917186671933152
20
-90.09053554191064
30
0
0
SPLINE
5
133
100
AcDbEntity
8
0
100
AcDbSpline
70
4
71
5
72
31
73
25
74
0
42
0.000000001
43
0.0000000001
44
0.0000000001
40
0
40
0
40
0
40
0
40
0
40
0
40
0.050000000000000003
40
0.10000000000000001
40
0.15000000000000002
40
0.20000000000000001
40
0.25
40
0.29999999999999999
40
0.34999999999999998
40
0.39999999999999997
40
0.44999999999999996
40
0.49999999999999994
40
0.54999999999999993
40
0.59999999999999998
40
0.65000000000000002
40
0.70000000000000007
40
0.75000000000000011
40
0.80000000000000016
40
0.8500000000000002
40
0.90000000000000024
40
0.95000000000000029
40
1
40
1
40
1
40
1
40
1
40
1
41
1
41
1
41
1
41
1
41
1
41
1
41
1
41
1
41
1
41
1
41
1
41
1
41
1
41
1
41
1
41
1
41
1
41
1
41
1
41
1
41
1
41
1
41
1
41
1
41
1
10
-65.85898706455076
20
-70.581985424126046
30
0
10
-65.752248643708299
20
-70.608591825830302
30
0
10
-65.545231140081356
20
-70.663145700653828
30
0
10
-65.254077437453105
20
-70.749001661073208
30
0
10
-64.904823213786955
20
-70.87154253973506
30
0
10
-64.531002820693459
20
-71.040675357522275
30
0
10
-64.212638946477696
20
-71.232676440535542
30
0
10
-63.932044282202426
20
-71.461804014829184
30
0
10
-63.667741036614544
20
-71.748211318890625
30
0
10
-63.405006152487005
20
-72.114688870990037
30
0
10
-63.147892590361607
20
-72.583641393270128
30
0
10
-62.917743977012194
20
-73.175503499281803
30
0
10
-62.743935147668275
20
-73.907957284146718
30
0
10
-62.657792529592982
20
-74.79490342129202
30
0
10
-62.68384634009778
20
-75.844899608699251
30
0
10
-62.838013540016519
20
-77.061443211314383
30
0
10
-63.130204920439539
20
-78.444599542039867
30
0
10
-63.565431560097601
20
-79.992005014091944
30
0
10
-64.145289907967665
20
-81.699897716445435
30
0
10
-64.869059726945352
20
-83.563922375371618
30
0
10
-65.734761755396349
20
-85.579837263074239
30
0
10
-66.538987514370248
20
-87.311235682654257
30
0
10
-67.204097268361323
20
-88.675452173412907
30
0
10
-67.674920704308917
20
-89.613996612543744
30
0
10
-67.917186671933152
20
-90.09053554191064
30
0
0
SPLINE
5
134
100
AcDbEntity
8
0
100
AcDbSpline
70
4
71
5
72
21
73
15
74
0
42
0.000000001
43
0.0000000001
44
0.0000000001
40
0
40
0
40
0
40
0
40
0
40
0
40
0.10000000000000001
40
0.20000000000000001
40
0.30000000000000004
40
0.40000000000000002
40
0.5
40
0.59999999999999998
40
0.69999999999999996
40
0.79999999999999993
40
0.89999999999999991
40
1
40
1
40
1
40
1
40
1
40
1
41
1
41
1
41
1
41
1
41
1
41
1
41
1
41
1
41
1
41
1
41
1
41
1
41
1
41
1
41
1
10
-69.579676467608039
20
-78.902614318631777
30
0
10
-69.412928217360545
20
-79.009815493723067
30
0
10
-69.085286837485739
20
-79.222900976046844
30
0
10
-68.611389266257248
20
-79.538578790115068
30
0
10
-68.015240186551921
20
-79.95145007270682
30
0
10
-67.334012886997471
20
-80.453154225914915
30
0
10
-66.723683154264336
20
-80.93891289592267
30
0
10
-66.192379531066578
20
-81.40689790230509
30
0
10
-65.747615408498376
20
-81.855419417621789
30
0
10
-65.392660024852759
20
-82.283742161544609
30
0
10
-65.123983745889703
20
-82.692659979686084
30
0
10
-64.973829682717522
20
-83.005223079849216
30
0
10
-64.895588843869149
20
-83.231914232153514
30
0
10
-64.858460151233942
20
-83.379660868656288
30
0
10
-64.843653682783099
20
-83.452689007283936
30
0
0
ENDSEC
0
SECTION
2
OBJECTS
0
DICTIONARY
5
C
100
AcDbDictionary
3
ACAD_GROUP
350
D
3
ACAD_MLINESTYLE
350
17
0
DICTIONARY
5
D
100
AcDbDictionary
0
DICTIONARY
5
1A
330
C
100
AcDbDictionary
0
DICTIONARY
5
17
100
AcDbDictionary
0
ENDSEC
0
EOF
