                                                                        S      1
,,16HLOLIN D32 PRO v3,16HLOLIN D32 PRO v3,7Hunknown,7Hunknown,32,38,7,  G      1
99,15,,1.,2,2HMM,1,0.08,15H20250912.002444,0.01,10000.,7Hunknown,7HunknoG      2
wn,11,0,15H20200529.213918;                                             G      3
     408       1                                       3        00000001D      1
     408       0               1       0                               0D      2
     124       2                                                00000000D      3
     124                       4       0                               0D      4
     308       6                                                00010200D      5
     308       0               1       0                               0D      6
     186       7                                                00010000D      7
     186            -147       1       0                               0D      8
     186       8                                                00000000D      9
     186            -147       1       0                               0D     10
     514       9                                                00010000D     11
     514                       1       1                               0D     12
     514      10                                                00010000D     13
     514                       1       1                               0D     14
     510      11                                                00010000D     15
     510            -147       1       1                               0D     16
     510      12                                                00010000D     17
     510            -147       1       1                               0D     18
     510      13                                                00010000D     19
     510            -147       1       1                               0D     20
     510      14                                                00010000D     21
     510            -147       1       1                               0D     22
     510      15                                                00010000D     23
     510            -147       1       1                               0D     24
     510      16                                                00010000D     25
     510            -147       1       1                               0D     26
     510      17                                                00010000D     27
     510            -147       1       1                               0D     28
     510      18                                                00010000D     29
     510            -147       1       1                               0D     30
     510      19                                                00010000D     31
     510            -147       1       1                               0D     32
     510      20                                                00010000D     33
     510            -147       1       1                               0D     34
     510      21                                                00010000D     35
     510            -147       1       1                               0D     36
     510      22                                                00010000D     37
     510            -147       1       1                               0D     38
     508      23                                                00010000D     39
     508                       1       1                               0D     40
     508      24                                                00010000D     41
     508                       1       1                               0D     42
     508      25                                                00010000D     43
     508                       1       1                               0D     44
     508      26                                                00010000D     45
     508                       1       1                               0D     46
     508      27                                                00010000D     47
     508                       1       1                               0D     48
     508      28                                                00010000D     49
     508                       1       1                               0D     50
     508      29                                                00010000D     51
     508                       1       1                               0D     52
     508      30                                                00010000D     53
     508                       1       1                               0D     54
     508      31                                                00010000D     55
     508                       1       1                               0D     56
     508      32                                                00010000D     57
     508                       1       1                               0D     58
     508      33                                                00010000D     59
     508                       1       1                               0D     60
     508      34                                                00010000D     61
     508                       1       1                               0D     62
     126      35                                                00010000D     63
     126       0               2       0                               0D     64
     126      37                                                00010000D     65
     126       0               2       0                               0D     66
     126      39                                                00010000D     67
     126       0               2       0                               0D     68
     126      41                                                00010000D     69
     126       0               2       0                               0D     70
     126      43                                                00010000D     71
     126       0               2       0                               0D     72
     126      45                                                00010000D     73
     126       0               2       0                               0D     74
     126      47                                                00010000D     75
     126       0               2       0                               0D     76
     126      49                                                00010000D     77
     126       0               2       0                               0D     78
     126      51                                                00010000D     79
     126       0               2       0                               0D     80
     126      53                                                00010000D     81
     126       0               2       0                               0D     82
     126      55                                                00010000D     83
     126       0               2       0                               0D     84
     126      57                                                00010000D     85
     126       0               2       0                               0D     86
     126      59                                                00010000D     87
     126       0               2       0                               0D     88
     126      61                                                00010000D     89
     126       0               2       0                               0D     90
     126      63                                                00010000D     91
     126       0               2       0                               0D     92
     126      65                                                00010000D     93
     126       0               2       0                               0D     94
     126      67                                                00010000D     95
     126       0               2       0                               0D     96
     126      69                                                00010000D     97
     126       0               2       0                               0D     98
     126      71                                                00010000D     99
     126       0               2       0                               0D    100
     126      73                                                00010000D    101
     126       0               2       0                               0D    102
     126      75                                                00010000D    103
     126       0               2       0                               0D    104
     126      77                                                00010000D    105
     126       0               2       0                               0D    106
     126      79                                                00010000D    107
     126       0               2       0                               0D    108
     126      81                                                00010000D    109
     126       0               2       0                               0D    110
     128      83                                                00010000D    111
     128       0    -147       3       0                               0D    112
     128      86                                                00010000D    113
     128       0    -147       4       0                               0D    114
     128      90                                                00010000D    115
     128       0    -147       4       0                               0D    116
     128      94                                                00010000D    117
     128       0    -147       3       0                               0D    118
     128      97                                                00010000D    119
     128       0    -147       4       0                               0D    120
     128     101                                                00010000D    121
     128       0    -147       4       0                               0D    122
     128     105                                                00010000D    123
     128       0    -147       3       0                               0D    124
     128     108                                                00010000D    125
     128       0    -147       4       0                               0D    126
     128     112                                                00010000D    127
     128       0    -147       4       0                               0D    128
     128     116                                                00010000D    129
     128       0    -147       3       0                               0D    130
     128     119                                                00010000D    131
     128       0    -147       5       0                               0D    132
     128     124                                                00010000D    133
     128       0    -147       5       0                               0D    134
     502     129                                                00010000D    135
     502                       2       1                               0D    136
     502     131                                                00010000D    137
     502                       2       1                               0D    138
     504     133                                                00010001D    139
     504                       3       1                               0D    140
     504     136                                                00010001D    141
     504                       4       1                               0D    142
     406     140                                                00000000D    143
     406                       1      15                               0D    144
     406     141                                                00000000D    145
     406                       1      15                               0D    146
     314     142                                                00000200D    147
     314                       2       0                               0D    148
408,5,0.,0.,0.,1.,0,1,145;                                             1P      1
124,1.,5.77778983316182D-33,-4.16333634234434D-17,2.6,                 3P      2
4.16333634234434D-17,4.71844785465691D-16,1.,-59.,                     3P      3
-3.85185988877446D-33,-1.,4.71844785465691D-16,                        3P      4
-9.69999999999998;                                                     3P      5
308,0,16HMicro SD Card v2,1,7;                                         5P      6
186,11,1,0,0,1,143;                                                    7P      7
186,13,1,0,0,1,143;                                                    9P      8
514,6,15,1,17,1,19,1,21,1,23,1,25,1;                                  11P      9
514,6,27,1,29,1,31,1,33,1,35,1,37,1;                                  13P     10
510,111,1,1,39;                                                       15P     11
510,113,1,1,41;                                                       17P     12
510,115,1,1,43;                                                       19P     13
510,117,1,1,45;                                                       21P     14
510,119,1,1,47;                                                       23P     15
510,121,1,1,49;                                                       25P     16
510,123,1,1,51;                                                       27P     17
510,125,1,1,53;                                                       29P     18
510,127,1,1,55;                                                       31P     19
510,129,1,1,57;                                                       33P     20
510,131,1,1,59;                                                       35P     21
510,133,1,1,61;                                                       37P     22
508,4,0,139,1,0,0,0,139,2,1,0,0,139,3,0,0,0,139,4,0,0;                39P     23
508,4,0,139,5,0,0,0,139,4,1,0,0,139,6,0,0,0,139,7,0,0;                41P     24
508,4,0,139,8,0,0,0,139,7,1,0,0,139,9,0,0,0,139,10,0,0;               43P     25
508,4,0,139,11,0,0,0,139,10,1,0,0,139,12,0,0,0,139,2,0,0;             45P     26
508,4,0,139,12,1,0,0,139,9,1,0,0,139,6,1,0,0,139,3,1,0;               47P     27
508,4,0,139,11,1,0,0,139,1,1,0,0,139,5,1,0,0,139,8,1,0;               49P     28
508,4,0,141,1,0,0,0,141,2,1,0,0,141,3,0,0,0,141,4,0,0;                51P     29
508,4,0,141,5,0,0,0,141,4,1,0,0,141,6,0,0,0,141,7,0,0;                53P     30
508,4,0,141,8,0,0,0,141,7,1,0,0,141,9,0,0,0,141,10,0,0;               55P     31
508,4,0,141,11,0,0,0,141,10,1,0,0,141,12,0,0,0,141,2,0,0;             57P     32
508,4,0,141,12,1,0,0,141,9,1,0,0,141,6,1,0,0,141,3,1,0;               59P     33
508,4,0,141,11,1,0,0,141,1,1,0,0,141,5,1,0,0,141,8,1,0;               61P     34
126,1,1,0,0,1,0,0.,0.,1.1,1.1,1.,1.,0.,0.,11.,0.,0.,0.,0.,1.1,        63P     35
0.,0.,0.;                                                             63P     36
126,1,1,0,0,1,0,0.,0.,0.1,0.1,1.,1.,0.,0.,11.,1.,0.,11.,0.,0.1,       65P     37
0.,0.,0.;                                                             65P     38
126,1,1,0,0,1,0,-1.1,-1.1,0.,0.,1.,1.,1.,0.,0.,1.,0.,11.,-1.1,        67P     39
0.,0.,0.,0.;                                                          67P     40
126,1,1,0,0,1,0,0.,0.,0.1,0.1,1.,1.,0.,0.,0.,1.,0.,0.,0.,0.1,0.,      69P     41
0.,0.;                                                                69P     42
126,1,1,0,0,1,0,0.,0.,1.5,1.5,1.,1.,0.,0.,0.,0.,-15.,0.,0.,1.5,       71P     43
0.,0.,0.;                                                             71P     44
126,1,1,0,0,1,0,-1.5,-1.5,0.,0.,1.,1.,1.,-15.,0.,1.,0.,0.,-1.5,       73P     45
0.,0.,0.,0.;                                                          73P     46
126,1,1,0,0,1,0,0.,0.,0.1,0.1,1.,1.,0.,-15.,0.,1.,-15.,0.,0.,         75P     47
0.1,0.,0.,0.;                                                         75P     48
126,1,1,0,0,1,0,0.,0.,1.1,1.1,1.,1.,0.,-15.,0.,0.,-15.,11.,0.,        77P     49
1.1,0.,0.,0.;                                                         77P     50
126,1,1,0,0,1,0,-1.1,-1.1,0.,0.,1.,1.,1.,-15.,11.,1.,-15.,0.,         79P     51
-1.1,0.,0.,0.,0.;                                                     79P     52
126,1,1,0,0,1,0,0.,0.,0.1,0.1,1.,1.,0.,-15.,11.,1.,-15.,11.,0.,       81P     53
0.1,0.,0.,0.;                                                         81P     54
126,1,1,0,0,1,0,0.,0.,1.5,1.5,1.,1.,0.,-15.,11.,0.,0.,11.,0.,         83P     55
1.5,0.,0.,0.;                                                         83P     56
126,1,1,0,0,1,0,-1.5,-1.5,0.,0.,1.,1.,1.,0.,11.,1.,-15.,11.,          85P     57
-1.5,0.,0.,0.,0.;                                                     85P     58
126,1,1,0,0,1,0,0.,0.,2.6,2.6,1.,1.,0.,0.,26.,0.,0.,0.,0.,2.6,        87P     59
0.,0.,0.;                                                             87P     60
126,1,1,0,0,1,0,0.,0.,0.7,0.7,1.,1.,0.,0.,26.,7.,0.,26.,0.,0.7,       89P     61
0.,0.,0.;                                                             89P     62
126,1,1,0,0,1,0,-2.6,-2.6,0.,0.,1.,1.,7.,0.,0.,7.,0.,26.,-2.6,        91P     63
0.,0.,0.,0.;                                                          91P     64
126,1,1,0,0,1,0,0.,0.,0.7,0.7,1.,1.,0.,0.,0.,7.,0.,0.,0.,0.7,0.,      93P     65
0.,0.;                                                                93P     66
126,1,1,0,0,1,0,0.,0.,6.55,6.55,1.,1.,0.,0.,0.,0.,-65.5,0.,0.,        95P     67
6.55,0.,0.,0.;                                                        95P     68
126,1,1,0,0,1,0,-6.55,-6.55,0.,0.,1.,1.,7.,-65.5,0.,7.,0.,0.,         97P     69
-6.55,0.,0.,0.,0.;                                                    97P     70
126,1,1,0,0,1,0,0.,0.,0.7,0.7,1.,1.,0.,-65.5,0.,7.,-65.5,0.,0.,       99P     71
0.7,0.,0.,0.;                                                         99P     72
126,1,1,0,0,1,0,0.,0.,2.6,2.6,1.,1.,0.,-65.5,0.,0.,-65.5,26.,0.,     101P     73
2.6,0.,0.,0.;                                                        101P     74
126,1,1,0,0,1,0,-2.6,-2.6,0.,0.,1.,1.,7.,-65.5,26.,7.,-65.5,0.,      103P     75
-2.6,0.,0.,0.,0.;                                                    103P     76
126,1,1,0,0,1,0,0.,0.,0.7,0.7,1.,1.,0.,-65.5,26.,7.,-65.5,26.,       105P     77
0.,0.7,0.,0.,0.;                                                     105P     78
126,1,1,0,0,1,0,0.,0.,6.55,6.55,1.,1.,0.,-65.5,26.,0.,0.,26.,0.,     107P     79
6.55,0.,0.,0.;                                                       107P     80
126,1,1,0,0,1,0,-6.55,-6.55,0.,0.,1.,1.,7.,0.,26.,7.,-65.5,26.,      109P     81
-6.55,0.,0.,0.,0.;                                                   109P     82
128,1,1,1,1,0,0,1,0,0,-0.001,-0.001,1.101,1.101,-0.001,-0.001,       111P     83
0.101,0.101,1.,1.,1.,1.,-0.01,0.,-0.01,-0.01,0.,11.01,1.01,0.,       111P     84
-0.01,1.01,0.,11.01,-0.001,1.101,-0.001,0.101;                       111P     85
128,1,1,1,1,0,0,1,0,0,-0.001,-0.001,1.501,1.501,-0.001,-0.001,       113P     86
0.101,0.101,1.,1.,1.,1.,-0.01,-15.01,0.,-0.01,                       113P     87
0.0099999999999989,0.,1.01,-15.01,0.,1.01,0.0099999999999989,0.,     113P     88
-0.001,1.501,-0.001,0.101;                                           113P     89
128,1,1,1,1,0,0,1,0,0,-0.001,-0.001,1.101,1.101,-0.001,-0.001,       115P     90
0.101,0.101,1.,1.,1.,1.,-0.01,-15.,11.01,-0.01,-15.,                 115P     91
-0.0099999999999989,1.01,-15.,11.01,1.01,-15.,                       115P     92
-0.0099999999999989,-0.001,1.101,-0.001,0.101;                       115P     93
128,1,1,1,1,0,0,1,0,0,-0.001,-0.001,1.501,1.501,-0.001,-0.001,       117P     94
0.101,0.101,1.,1.,1.,1.,-0.01,0.01,11.,-0.01,-15.01,11.,1.01,        117P     95
0.01,11.,1.01,-15.01,11.,-0.001,1.501,-0.001,0.101;                  117P     96
128,1,1,1,1,0,0,1,0,0,-0.551,-0.551,0.551,0.551,-0.751,-0.751,       119P     97
0.751,0.751,1.,1.,1.,1.,1.,-15.01,11.01,1.,-15.01,-0.01,1.,0.01,     119P     98
11.01,1.,0.0099999999999989,-0.0099999999999989,-0.551,0.551,        119P     99
-0.751,0.751;                                                        119P    100
128,1,1,1,1,0,0,1,0,0,-0.751,-0.751,0.751,0.751,-0.551,-0.551,       121P    101
0.551,0.551,1.,1.,1.,1.,0.,0.01,-0.01,0.,-15.01,-0.01,0.,            121P    102
0.0099999999999989,11.01,0.,-15.01,11.01,-0.751,0.751,-0.551,        121P    103
0.551;                                                               121P    104
128,1,1,1,1,0,0,1,0,0,-0.001,-0.001,2.601,2.601,-0.001,-0.001,       123P    105
0.701,0.701,1.,1.,1.,1.,-0.01,0.,-0.01,-0.01,0.,26.01,7.01,0.,       123P    106
-0.01,7.01,0.,26.01,-0.001,2.601,-0.001,0.701;                       123P    107
128,1,1,1,1,0,0,1,0,0,-0.001,-0.001,6.551,6.551,-0.001,-0.001,       125P    108
0.701,0.701,1.,1.,1.,1.,-0.01,-65.51,0.,-0.01,                       125P    109
0.0100000000000033,0.,7.01,-65.51,0.,7.01,0.0100000000000033,0.,     125P    110
-0.001,6.551,-0.001,0.701;                                           125P    111
128,1,1,1,1,0,0,1,0,0,-0.001,-0.001,2.601,2.601,-0.001,-0.001,       127P    112
0.701,0.701,1.,1.,1.,1.,-0.01,-65.5,26.01,-0.01,-65.5,               127P    113
-0.0099999999999989,7.01,-65.5,26.01,7.01,-65.5,                     127P    114
-0.0099999999999989,-0.001,2.601,-0.001,0.701;                       127P    115
128,1,1,1,1,0,0,1,0,0,-0.001,-0.001,6.551,6.551,-0.001,-0.001,       129P    116
0.701,0.701,1.,1.,1.,1.,-0.01,0.01,26.,-0.01,-65.51,26.,7.01,        129P    117
0.01,26.,7.01,-65.51,26.,-0.001,6.551,-0.001,0.701;                  129P    118
128,1,1,1,1,0,0,1,0,0,-1.301,-1.301,1.301,1.301,-3.276,-3.276,       131P    119
3.276,3.276,1.,1.,1.,1.,7.,-65.51,26.01,7.,-65.51,                   131P    120
-0.0099999999999989,7.,0.0099999999999989,26.01,7.,                  131P    121
0.00999999999999446,-0.0099999999999989,-1.301,1.301,-3.276,         131P    122
3.276;                                                               131P    123
128,1,1,1,1,0,0,1,0,0,-3.276,-3.276,3.276,3.276,-1.301,-1.301,       133P    124
1.301,1.301,1.,1.,1.,1.,0.,0.0099999999999989,                       133P    125
-0.0099999999999989,0.,-65.51,-0.0099999999999989,0.,                133P    126
0.00999999999999446,26.01,0.,-65.51,26.01,-3.276,3.276,-1.301,       133P    127
1.301;                                                               133P    128
502,8,0.,0.,11.,0.,0.,0.,1.,0.,11.,1.,0.,0.,0.,-15.,0.,1.,-15.,      135P    129
0.,0.,-15.,11.,1.,-15.,11.;                                          135P    130
502,8,0.,0.,26.,0.,0.,0.,7.,0.,26.,7.,0.,0.,0.,-65.5,0.,7.,          137P    131
-65.5,0.,0.,-65.5,26.,7.,-65.5,26.;                                  137P    132
504,12,63,135,1,135,2,65,135,1,135,3,67,135,4,135,3,69,135,2,        139P    133
135,4,71,135,2,135,5,73,135,6,135,4,75,135,5,135,6,77,135,5,135,     139P    134
7,79,135,8,135,6,81,135,7,135,8,83,135,7,135,1,85,135,3,135,8;       139P    135
504,12,87,137,1,137,2,89,137,1,137,3,91,137,4,137,3,93,137,2,        141P    136
137,4,95,137,2,137,5,97,137,6,137,4,99,137,5,137,6,101,137,5,        141P    137
137,7,103,137,8,137,6,105,137,7,137,8,107,137,7,137,1,109,137,3,     141P    138
137,8;                                                               141P    139
406,1,5HBody1;                                                       143P    140
406,1,18HMicro SD Card v2:1;                                         145P    141
314,62.7450980392157,62.7450980392157,62.7450980392157,13HSteel      147P    142
- Satin;                                                             147P    143
S      1G      3D    148P    143                                        T      1
