0
SECTION
2
HEADER
9
$INSUNITS
70
4
9
$ACADVER
1
AC1014
9
$HANDSEED
5
FFFF
0
ENDSEC
0
SECTION
2
TABLES
0
TABLE
2
VPORT
5
8
100
AcDbSymbolTable
0
ENDTAB
0
TABLE
2
LTYPE
5
5
100
AcDbSymbolTable
0
LTYPE
5
14
100
AcDbSymbolTableRecord
100
AcDbLinetypeTableRecord
2
BYBLOCK
70
0
0
LTYPE
5
15
100
AcDbSymbolTableRecord
100
AcDbLinetypeTableRecord
2
BYLAYER
70
0
0
LTYPE
5
16
100
AcDbSymbolTableRecord
100
AcDbLinetypeTableRecord
2
DASHED
70
0
3
Dashed __ __ __ __ __ __ __ __ __ __ __ __ __ _
72
65
73
2
40
0.75
49
0.5
74
0
49
-0.25
74
0
0
ENDTAB
0
TABLE
2
LAYER
5
2
100
AcDbSymbolTable
70
2
0
LAYER
5
50
100
AcDbSymbolTableRecord
100
AcDbLayerTableRecord
2
0
70
0
62
7
6
CONTINUOUS
0
ENDTAB
0
TABLE
2
STYLE
5
3
100
AcDbSymbolTable
70
1
0
STYLE
5
11
100
AcDbSymbolTableRecord
100
AcDbTextStyleTableRecord
2
STANDARD
70
0
0
ENDTAB
0
TABLE
2
VIEW
5
6
100
AcDbSymbolTable
70
0
0
ENDTAB
0
TABLE
2
UCS
5
7
100
AcDbSymbolTable
70
0
0
ENDTAB
0
TABLE
2
APPID
5
9
100
AcDbSymbolTable
70
2
0
APPID
5
12
100
AcDbSymbolTableRecord
100
AcDbRegAppTableRecord
2
ACAD
70
0
0
ENDTAB
0
TABLE
2
DIMSTYLE
5
A
100
AcDbSymbolTable
70
1
0
ENDTAB
0
TABLE
2
BLOCK_RECORD
5
1
100
AcDbSymbolTable
70
1
0
BLOCK_RECORD
5
1F
100
AcDbSymbolTableRecord
100
AcDbBlockTableRecord
2
*MODEL_SPACE
0
BLOCK_RECORD
5
1B
100
AcDbSymbolTableRecord
100
AcDbBlockTableRecord
2
*PAPER_SPACE
0
ENDTAB
0
ENDSEC
0
SECTION
2
BLOCKS
0
BLOCK
5
20
100
AcDbEntity
100
AcDbBlockBegin
2
*MODEL_SPACE
0
ENDBLK
5
21
100
AcDbEntity
100
AcDbBlockEnd
0
BLOCK
5
1C
100
AcDbEntity
100
AcDbBlockBegin
2
*PAPER_SPACE
0
ENDBLK
5
1D
100
AcDbEntity
100
AcDbBlockEnd
0
ENDSEC
0
SECTION
2
ENTITIES
0
LINE
5
100
100
AcDbEntity
8
0
100
AcDbLine
10
-83.102540378443805
20
-44.422649730810413
30
0
11
-83.102540378443891
21
44.422649730810342
31
0
0
LINE
5
101
100
AcDbEntity
8
0
100
AcDbLine
10
-83.102540378443891
20
44.422649730810342
30
0
11
-80.022413359521636
21
49.757586221349271
31
0
0
LINE
5
102
100
AcDbEntity
8
0
100
AcDbLine
10
-80.022413359521636
20
49.757586221349271
30
0
11
-3.0801270189222407
21
94.180235952159677
31
0
0
LWPOLYLINE
5
103
100
AcDbEntity
8
0
100
AcDbPolyline
90
18
70
1
43
0.0
10
-42.85030829489849
20
71.218911086754574
10
-2.5980762113530886
20
1.4999999999998792
10
-83.102540378443891
20
1.5000000000000613
10
-83.102540378443905
20
-1.4999999999999236
10
-2.5980762113531064
20
-1.4999999999998761
10
-42.850308294898689
20
-71.218911086754446
10
-40.252232083545394
20
-72.71891108675446
10
0
20
-2.9999999999997495
10
40.252232083545188
20
-72.718911086754545
10
42.850308294898497
20
-71.218911086754574
10
2.5980762113531064
20
-1.4999999999998792
10
83.102540378443905
20
-1.5000000000001057
10
83.102540378443905
20
1.4999999999998792
10
2.5980762113531064
20
1.499999999999875
10
42.85030829489871
20
71.218911086754431
10
40.252232083545408
20
72.718911086754446
10
8.8817841970012523e-15
20
2.9999999999997584
10
-40.252232083545181
20
72.718911086754559
0
LINE
5
104
100
AcDbEntity
8
0
100
AcDbLine
10
83.102540378443848
20
44.42264973081037
30
0
11
83.102540378443891
21
-44.422649730810342
31
0
0
LINE
5
105
100
AcDbEntity
8
0
100
AcDbLine
10
83.102540378443891
20
-44.422649730810342
30
0
11
80.022413359521636
21
-49.757586221349264
31
0
0
LINE
5
106
100
AcDbEntity
8
0
100
AcDbLine
10
80.022413359521636
20
-49.757586221349264
30
0
11
3.0801270189222674
21
-94.180235952159634
31
0
0
LINE
5
107
100
AcDbEntity
8
0
100
AcDbLine
10
-3.0801270189222452
20
94.180235952159677
30
0
11
3.0801270189221963
21
94.18023595215962
31
0
0
LINE
5
108
100
AcDbEntity
8
0
100
AcDbLine
10
3.0801270189221963
20
94.18023595215962
30
0
11
80.02241335952165
21
49.757586221349342
31
0
0
LWPOLYLINE
5
109
100
AcDbEntity
8
0
100
AcDbPolyline
90
6
70
1
43
0.0
10
3.5527136788005009e-14
20
104.61880215351698
10
-90.602540378443663
20
52.30940107675849
10
-90.602540378443592
20
-52.309401076758846
10
-1.7763568394002505e-14
20
-104.61880215351712
10
90.602540378443877
20
-52.309401076758526
10
90.602540378443877
20
52.309401076758526
0
LINE
5
110
100
AcDbEntity
8
0
100
AcDbLine
10
80.02241335952165
20
49.757586221349342
30
0
11
83.102540378443848
21
44.42264973081037
31
0
0
LINE
5
111
100
AcDbEntity
8
0
100
AcDbLine
10
3.0801270189222674
20
-94.180235952159634
30
0
11
-3.0801270189221786
21
-94.180235952159592
31
0
0
LINE
5
112
100
AcDbEntity
8
0
100
AcDbLine
10
-3.0801270189221786
20
-94.180235952159592
30
0
11
-80.022413359521622
21
-49.757586221349385
31
0
0
LINE
5
113
100
AcDbEntity
8
0
100
AcDbLine
10
-80.022413359521622
20
-49.757586221349385
30
0
11
-83.102540378443805
21
-44.422649730810413
31
0
0
LWPOLYLINE
5
114
100
AcDbEntity
8
0
100
AcDbPolyline
90
5
70
1
43
0.0
10
-3.0801270189222452
20
94.180235952159677
10
-40.252232083545181
20
72.718911086754559
10
1.7763568394002505e-14
20
2.9999999999997584
10
80.02241335952165
20
49.757586221349342
10
3.0801270189221963
20
94.18023595215962
0
LINE
5
115
100
AcDbEntity
8
0
100
AcDbLine
10
-3.0801270189222452
20
94.180235952159677
30
0
11
-80.022413359521636
21
49.757586221349271
31
0
0
LINE
5
116
100
AcDbEntity
8
0
100
AcDbLine
10
-80.022413359521636
20
49.757586221349271
30
0
11
-83.102540378443891
21
44.422649730810342
31
0
0
LINE
5
117
100
AcDbEntity
8
0
100
AcDbLine
10
-83.102540378443891
20
44.422649730810342
30
0
11
-83.102540378443805
21
-44.422649730810413
31
0
0
LINE
5
118
100
AcDbEntity
8
0
100
AcDbLine
10
-83.102540378443805
20
-44.422649730810413
30
0
11
-80.022413359521622
21
-49.757586221349385
31
0
0
LINE
5
119
100
AcDbEntity
8
0
100
AcDbLine
10
-80.022413359521622
20
-49.757586221349385
30
0
11
-3.0801270189221786
21
-94.180235952159592
31
0
0
LINE
5
120
100
AcDbEntity
8
0
100
AcDbLine
10
-3.0801270189221786
20
-94.180235952159592
30
0
11
3.0801270189222674
21
-94.180235952159634
31
0
0
LINE
5
121
100
AcDbEntity
8
0
100
AcDbLine
10
3.0801270189222674
20
-94.180235952159634
30
0
11
80.022413359521636
21
-49.757586221349264
31
0
0
LINE
5
122
100
AcDbEntity
8
0
100
AcDbLine
10
80.022413359521636
20
-49.757586221349264
30
0
11
83.102540378443891
21
-44.422649730810342
31
0
0
LINE
5
123
100
AcDbEntity
8
0
100
AcDbLine
10
83.102540378443891
20
-44.422649730810342
30
0
11
83.102540378443848
21
44.42264973081037
31
0
0
LINE
5
124
100
AcDbEntity
8
0
100
AcDbLine
10
83.102540378443848
20
44.42264973081037
30
0
11
80.02241335952165
21
49.757586221349342
31
0
0
LINE
5
125
100
AcDbEntity
8
0
100
AcDbLine
10
80.02241335952165
20
49.757586221349342
30
0
11
3.0801270189221963
21
94.18023595215962
31
0
0
LINE
5
126
100
AcDbEntity
8
0
100
AcDbLine
10
-40.252232083545181
20
72.718911086754559
30
0
11
-39.388808934967479
21
71.223418324986852
31
0
0
LINE
5
127
100
AcDbEntity
8
0
100
AcDbLine
10
-35.038130468387706
20
71.687822173520331
30
0
11
-36.788130468387735
21
74.7189110867659
31
0
0
LINE
5
128
100
AcDbEntity
8
0
100
AcDbLine
10
-46.31440991001655
20
69.218911086765928
30
0
11
-44.564409910016522
21
66.187822173520331
31
0
0
LINE
5
129
100
AcDbEntity
8
0
100
AcDbLine
10
-41.551270189201794
20
71.968911086766013
30
0
11
0
21
0
31
0
0
LINE
5
130
100
AcDbEntity
8
0
100
AcDbLine
10
-1.3301270189222429
20
91.149147038914137
30
0
11
-77.460235533030556
21
47.195408394858227
31
0
0
LINE
5
131
100
AcDbEntity
8
0
100
AcDbLine
10
-77.460235533030556
20
47.195408394858227
30
0
11
-79.602540378443905
21
43.484827557301379
31
0
0
LINE
5
132
100
AcDbEntity
8
0
100
AcDbLine
10
-79.602540378443905
20
43.484827557301379
30
0
11
-79.602540378443805
21
-43.484827557301465
31
0
0
LINE
5
133
100
AcDbEntity
8
0
100
AcDbLine
10
-79.602540378443805
20
-43.484827557301465
30
0
11
-77.460235533030527
21
-47.195408394858319
31
0
0
LINE
5
134
100
AcDbEntity
8
0
100
AcDbLine
10
-77.460235533030527
20
-47.195408394858319
30
0
11
-2.1423048454132143
21
-90.68023595215962
31
0
0
LINE
5
135
100
AcDbEntity
8
0
100
AcDbLine
10
-2.1423048454132143
20
-90.68023595215962
30
0
11
2.1423048454133475
21
-90.680235952159634
31
0
0
LINE
5
136
100
AcDbEntity
8
0
100
AcDbLine
10
2.1423048454133475
20
-90.680235952159634
30
0
11
77.460235533030598
21
-47.19540839485817
31
0
0
LINE
5
137
100
AcDbEntity
8
0
100
AcDbLine
10
77.460235533030598
20
-47.19540839485817
30
0
11
79.602540378443905
21
-43.484827557301401
31
0
0
LINE
5
138
100
AcDbEntity
8
0
100
AcDbLine
10
79.602540378443905
20
-43.484827557301401
30
0
11
79.602540378443848
21
43.484827557301422
31
0
0
LINE
5
139
100
AcDbEntity
8
0
100
AcDbLine
10
79.602540378443848
20
43.484827557301422
30
0
11
77.460235533030556
21
47.195408394858298
31
0
0
LINE
5
140
100
AcDbEntity
8
0
100
AcDbLine
10
77.460235533030556
20
47.195408394858298
30
0
11
1.3301270189221981
21
91.14914703891408
31
0
0
LINE
5
141
100
AcDbEntity
8
0
100
AcDbLine
10
-79.602540378443905
20
45.958548115672556
30
0
11
-1.7763568394002505e-14
21
91.917096231345212
31
0
0
LWPOLYLINE
5
142
100
AcDbEntity
8
0
100
AcDbPolyline
90
12
70
1
43
0.0
10
-79.602540378443905
20
43.484827557301386
10
-79.602540378443805
20
-43.484827557301472
10
-77.460235533030527
20
-47.195408394858319
10
-2.1423048454132143
20
-90.68023595215962
10
2.1423048454133475
20
-90.680235952159634
10
77.460235533030598
20
-47.19540839485817
10
79.602540378443905
20
-43.484827557301401
10
79.602540378443848
20
43.484827557301422
10
77.460235533030556
20
47.195408394858298
10
2.1423048454132587
20
90.68023595215962
10
-2.1423048454133164
20
90.680235952159677
10
-77.460235533030556
20
47.195408394858227
0
LWPOLYLINE
5
143
100
AcDbEntity
8
0
100
AcDbPolyline
90
12
70
1
43
0.0
10
-3.4284609690826882
20
95.480235952159674
10
3.4284609690826517
20
95.480235952159632
10
80.974079409361195
20
50.70925227118888
10
84.402540378443845
20
44.770983680970815
10
84.402540378443902
20
-44.770983680970801
10
80.974079409361167
20
-50.709252271188802
10
3.428460969082713
20
-95.480235952159646
10
-3.4284609690826073
20
-95.480235952159632
10
-80.974079409361153
20
-50.709252271188916
10
-84.402540378443817
20
-44.770983680970851
10
-84.402540378443902
20
44.770983680970801
10
-80.974079409361195
20
50.709252271188817
0
LWPOLYLINE
5
144
100
AcDbEntity
8
0
100
AcDbPolyline
90
12
70
1
43
0.0
10
-2.7585879880048791
20
92.980235952159674
10
2.7585879880048214
20
92.980235952159632
10
79.143952390438997
20
48.879125252266689
10
81.902540378443845
20
44.101110699893027
10
81.902540378443902
20
-44.101110699892978
10
79.143952390438997
20
-48.87912525226659
10
2.7585879880049005
20
-92.980235952159646
10
-2.7585879880048036
20
-92.980235952159603
10
-79.143952390438955
20
-48.879125252266732
10
-81.902540378443817
20
-44.101110699893063
10
-81.902540378443902
20
44.101110699892978
10
-79.143952390438983
20
48.879125252266618
0
ENDSEC
0
SECTION
2
OBJECTS
0
DICTIONARY
5
C
100
AcDbDictionary
3
ACAD_GROUP
350
D
3
ACAD_MLINESTYLE
350
17
0
DICTIONARY
5
D
100
AcDbDictionary
0
DICTIONARY
5
1A
330
C
100
AcDbDictionary
0
DICTIONARY
5
17
100
AcDbDictionary
0
ENDSEC
0
EOF
