0
SECTION
2
HEADER
9
$INSUNITS
70
4
9
$ACADVER
1
AC1014
9
$HANDSEED
5
FFFF
0
ENDSEC
0
SECTION
2
TABLES
0
TABLE
2
VPORT
5
8
100
AcDbSymbolTable
0
ENDTAB
0
TABLE
2
LTYPE
5
5
100
AcDbSymbolTable
0
LTYPE
5
14
100
AcDbSymbolTableRecord
100
AcDbLinetypeTableRecord
2
BYBLOCK
70
0
0
LTYPE
5
15
100
AcDbSymbolTableRecord
100
AcDbLinetypeTableRecord
2
BYLAYER
70
0
0
LTYPE
5
16
100
AcDbSymbolTableRecord
100
AcDbLinetypeTableRecord
2
DASHED
70
0
3
Dashed __ __ __ __ __ __ __ __ __ __ __ __ __ _
72
65
73
2
40
0.75
49
0.5
74
0
49
-0.25
74
0
0
ENDTAB
0
TABLE
2
LAYER
5
2
100
AcDbSymbolTable
70
2
0
LAYER
5
50
100
AcDbSymbolTableRecord
100
AcDbLayerTableRecord
2
0
70
0
62
7
6
CONTINUOUS
0
ENDTAB
0
TABLE
2
STYLE
5
3
100
AcDbSymbolTable
70
1
0
STYLE
5
11
100
AcDbSymbolTableRecord
100
AcDbTextStyleTableRecord
2
STANDARD
70
0
0
ENDTAB
0
TABLE
2
VIEW
5
6
100
AcDbSymbolTable
70
0
0
ENDTAB
0
TABLE
2
UCS
5
7
100
AcDbSymbolTable
70
0
0
ENDTAB
0
TABLE
2
APPID
5
9
100
AcDbSymbolTable
70
2
0
APPID
5
12
100
AcDbSymbolTableRecord
100
AcDbRegAppTableRecord
2
ACAD
70
0
0
ENDTAB
0
TABLE
2
DIMSTYLE
5
A
100
AcDbSymbolTable
70
1
0
ENDTAB
0
TABLE
2
BLOCK_RECORD
5
1
100
AcDbSymbolTable
70
1
0
BLOCK_RECORD
5
1F
100
AcDbSymbolTableRecord
100
AcDbBlockTableRecord
2
*MODEL_SPACE
0
BLOCK_RECORD
5
1B
100
AcDbSymbolTableRecord
100
AcDbBlockTableRecord
2
*PAPER_SPACE
0
ENDTAB
0
ENDSEC
0
SECTION
2
BLOCKS
0
BLOCK
5
20
100
AcDbEntity
100
AcDbBlockBegin
2
*MODEL_SPACE
0
ENDBLK
5
21
100
AcDbEntity
100
AcDbBlockEnd
0
BLOCK
5
1C
100
AcDbEntity
100
AcDbBlockBegin
2
*PAPER_SPACE
0
ENDBLK
5
1D
100
AcDbEntity
100
AcDbBlockEnd
0
ENDSEC
0
SECTION
2
ENTITIES
0
LWPOLYLINE
5
100
100
AcDbEntity
8
0
100
AcDbPolyline
90
4
70
1
43
0.0
10
-51.971566144773135
20
-67.453861111674456
10
-50.721566144773114
20
-65.288797602213322
10
-42.68332099685022
20
-69.929680602178792
10
-43.933320996850242
20
-72.094744111639926
0
LWPOLYLINE
5
101
100
AcDbEntity
8
0
100
AcDbPolyline
90
4
70
1
43
0.0
10
32.430974233670725
20
-78.735627111674063
10
31.180974233670703
20
-76.570563602212928
10
39.219219381593597
20
-71.929680602247444
10
40.469219381593611
20
-74.094744111708565
0
LWPOLYLINE
5
102
100
AcDbEntity
8
0
100
AcDbPolyline
90
4
70
1
43
0.0
10
84.402540378443859
20
-11.28176599999964
10
81.902540378443831
20
-11.28176599999964
10
81.902540378443831
20
-2.0000000000686691
10
84.402540378443859
20
-2.0000000000686686
0
LWPOLYLINE
5
103
100
AcDbEntity
8
0
100
AcDbPolyline
90
4
70
1
43
0.0
10
51.971566144773163
20
67.453861111674428
10
50.721566144773149
20
65.288797602213307
10
42.683320996850256
20
69.929680602178777
10
43.93332099685027
20
72.094744111639912
0
LWPOLYLINE
5
104
100
AcDbEntity
8
0
100
AcDbPolyline
90
4
70
1
43
0.0
10
-32.430974233670696
20
78.735627111674063
10
-31.180974233670678
20
76.570563602212928
10
-39.219219381593568
20
71.929680602247444
10
-40.469219381593582
20
74.094744111708579
0
LWPOLYLINE
5
105
100
AcDbEntity
8
0
100
AcDbPolyline
90
4
70
1
43
0.0
10
-84.402540378443859
20
11.281765999999651
10
-81.902540378443831
20
11.281765999999651
10
-81.902540378443831
20
2.0000000000686793
10
-84.402540378443859
20
2.0000000000686793
0
LWPOLYLINE
5
106
100
AcDbEntity
8
0
100
AcDbPolyline
90
14
70
1
43
0.0
10
-86.602540378443592
20
28.000000000000007
10
-90.602540378443592
20
30.500000000000007
10
-90.602540378443621
20
-30.500000000000007
10
-86.602540378443621
20
-28.000000000000007
10
-86.602540378443621
20
-40
10
-90.602540378443621
20
-37.500000000000007
10
-90.602540378443592
20
-52.309401076758846
10
-1.7763568394002505e-14
20
-104.61880215351712
10
90.602540378443877
20
-52.309401076758526
10
90.602540378443877
20
52.309401076758526
10
3.5527136788005009e-14
20
104.61880215351698
10
-90.602540378443663
20
52.30940107675849
10
-90.602540378443592
20
37.5
10
-86.602540378443592
20
40
0
LWPOLYLINE
5
107
100
AcDbEntity
8
0
100
AcDbPolyline
90
6
70
1
43
0.0
10
78.602540378443877
20
-45.381197846482983
10
0
20
-90.762395692965981
10
-78.602540378481919
20
-45.381197846461028
10
-78.60254037840582
20
45.381197846504904
10
1.7763568394002505e-14
20
90.762395692965981
10
78.602540378443877
20
45.381197846483019
0
LWPOLYLINE
5
108
100
AcDbEntity
8
0
100
AcDbPolyline
90
4
70
1
43
0.0
10
85.602540378443877
20
22.309401076758526
10
90.602540378443877
20
22.309401076758526
10
90.602540378443877
20
-22.309401076758526
10
85.602540378443877
20
-22.309401076758526
0
ENDSEC
0
SECTION
2
OBJECTS
0
DICTIONARY
5
C
100
AcDbDictionary
3
ACAD_GROUP
350
D
3
ACAD_MLINESTYLE
350
17
0
DICTIONARY
5
D
100
AcDbDictionary
0
DICTIONARY
5
1A
330
C
100
AcDbDictionary
0
DICTIONARY
5
17
100
AcDbDictionary
0
ENDSEC
0
EOF
