0
SECTION
2
HEADER
9
$INSUNITS
70
4
9
$ACADVER
1
AC1014
9
$HANDSEED
5
FFFF
0
ENDSEC
0
SECTION
2
TABLES
0
TABLE
2
VPORT
5
8
100
AcDbSymbolTable
0
ENDTAB
0
TABLE
2
LTYPE
5
5
100
AcDbSymbolTable
0
LTYPE
5
14
100
AcDbSymbolTableRecord
100
AcDbLinetypeTableRecord
2
BYBLOCK
70
0
0
LTYPE
5
15
100
AcDbSymbolTableRecord
100
AcDbLinetypeTableRecord
2
BYLAYER
70
0
0
LTYPE
5
16
100
AcDbSymbolTableRecord
100
AcDbLinetypeTableRecord
2
DASHED
70
0
3
Dashed __ __ __ __ __ __ __ __ __ __ __ __ __ _
72
65
73
2
40
0.75
49
0.5
74
0
49
-0.25
74
0
0
ENDTAB
0
TABLE
2
LAYER
5
2
100
AcDbSymbolTable
70
2
0
LAYER
5
50
100
AcDbSymbolTableRecord
100
AcDbLayerTableRecord
2
0
70
0
62
7
6
CONTINUOUS
0
ENDTAB
0
TABLE
2
STYLE
5
3
100
AcDbSymbolTable
70
1
0
STYLE
5
11
100
AcDbSymbolTableRecord
100
AcDbTextStyleTableRecord
2
STANDARD
70
0
0
ENDTAB
0
TABLE
2
VIEW
5
6
100
AcDbSymbolTable
70
0
0
ENDTAB
0
TABLE
2
UCS
5
7
100
AcDbSymbolTable
70
0
0
ENDTAB
0
TABLE
2
APPID
5
9
100
AcDbSymbolTable
70
2
0
APPID
5
12
100
AcDbSymbolTableRecord
100
AcDbRegAppTableRecord
2
ACAD
70
0
0
ENDTAB
0
TABLE
2
DIMSTYLE
5
A
100
AcDbSymbolTable
70
1
0
ENDTAB
0
TABLE
2
BLOCK_RECORD
5
1
100
AcDbSymbolTable
70
1
0
BLOCK_RECORD
5
1F
100
AcDbSymbolTableRecord
100
AcDbBlockTableRecord
2
*MODEL_SPACE
0
BLOCK_RECORD
5
1B
100
AcDbSymbolTableRecord
100
AcDbBlockTableRecord
2
*PAPER_SPACE
0
ENDTAB
0
ENDSEC
0
SECTION
2
BLOCKS
0
BLOCK
5
20
100
AcDbEntity
100
AcDbBlockBegin
2
*MODEL_SPACE
0
ENDBLK
5
21
100
AcDbEntity
100
AcDbBlockEnd
0
BLOCK
5
1C
100
AcDbEntity
100
AcDbBlockBegin
2
*PAPER_SPACE
0
ENDBLK
5
1D
100
AcDbEntity
100
AcDbBlockEnd
0
ENDSEC
0
SECTION
2
ENTITIES
0
LINE
5
100
100
AcDbEntity
8
0
100
AcDbLine
10
85.602540378443862
20
11.281765999999651
30
0
11
81.902540378443845
21
11.281765999999504
31
0
0
LINE
5
101
100
AcDbEntity
8
0
100
AcDbLine
10
81.902540378443845
20
11.281765999999504
30
0
11
81.902540378443831
21
2.0000000000686793
31
0
0
LINE
5
102
100
AcDbEntity
8
0
100
AcDbLine
10
81.902540378443831
20
2.0000000000686793
30
0
11
86.602540378443891
21
2.0000000000726201
31
0
0
LINE
5
103
100
AcDbEntity
8
0
100
AcDbLine
10
86.602540378443891
20
2.0000000000726201
30
0
11
86.602540378443891
21
11.281765999999651
31
0
0
LINE
5
104
100
AcDbEntity
8
0
100
AcDbLine
10
86.602540378443891
20
11.281765999999651
30
0
11
90.602540378443621
21
11.281765999999649
31
0
0
LINE
5
105
100
AcDbEntity
8
0
100
AcDbLine
10
90.602540378443621
20
11.281765999999649
30
0
11
90.602540378443649
21
21.281765999999994
31
0
0
LINE
5
106
100
AcDbEntity
8
0
100
AcDbLine
10
90.602540378443649
20
21.281765999999994
30
0
11
86.602540378443891
21
21.281765999999998
31
0
0
LINE
5
107
100
AcDbEntity
8
0
100
AcDbLine
10
86.602540378443891
20
21.281765999999998
30
0
11
86.602540378443592
21
28.000000000000007
31
0
0
LINE
5
108
100
AcDbEntity
8
0
100
AcDbLine
10
86.602540378443592
20
28.000000000000007
30
0
11
86.602540378443592
21
40
31
0
0
LINE
5
109
100
AcDbEntity
8
0
100
AcDbLine
10
86.602540378443592
20
40
30
0
11
86.602540378443877
21
50.000000000000007
31
0
0
LINE
5
110
100
AcDbEntity
8
0
100
AcDbLine
10
86.602540378443877
20
50.000000000000007
30
0
11
0
21
100.00000000000001
31
0
0
LINE
5
111
100
AcDbEntity
8
0
100
AcDbLine
10
0
20
100.00000000000001
30
0
11
-24.87071977388937
21
85.640883243605231
31
0
0
LINE
5
112
100
AcDbEntity
8
0
100
AcDbLine
10
-24.87071977388937
20
85.640883243605231
30
0
11
-26.870719773889373
21
89.104984858742981
31
0
0
LINE
5
113
100
AcDbEntity
8
0
100
AcDbLine
10
-26.870719773889373
20
89.104984858742981
30
0
11
-35.530973811733759
21
84.104984858742981
31
0
0
LINE
5
114
100
AcDbEntity
8
0
100
AcDbLine
10
-35.530973811733759
20
84.104984858742981
30
0
11
-33.530973811733759
21
80.640883243605231
31
0
0
LINE
5
115
100
AcDbEntity
8
0
100
AcDbLine
10
-33.530973811733759
20
80.640883243605231
30
0
11
-53.071566144773222
21
69.35911700000014
31
0
0
LINE
5
116
100
AcDbEntity
8
0
100
AcDbLine
10
-53.071566144773222
20
69.35911700000014
30
0
11
-55.071566144773236
21
72.823218615137904
31
0
0
LINE
5
117
100
AcDbEntity
8
0
100
AcDbLine
10
-55.071566144773236
20
72.823218615137904
30
0
11
-63.731820182617923
21
67.823218615137733
31
0
0
LINE
5
118
100
AcDbEntity
8
0
100
AcDbLine
10
-63.731820182617923
20
67.823218615137733
30
0
11
-61.731820182617909
21
64.359116999999969
31
0
0
LINE
5
119
100
AcDbEntity
8
0
100
AcDbLine
10
-61.731820182617909
20
64.359116999999969
30
0
11
-86.602540378443933
21
49.999999999999936
31
0
0
LINE
5
120
100
AcDbEntity
8
0
100
AcDbLine
10
-86.602540378443933
20
49.999999999999936
30
0
11
-86.602540378443848
21
-50.000000000000028
31
0
0
LINE
5
121
100
AcDbEntity
8
0
100
AcDbLine
10
-86.602540378443848
20
-50.000000000000028
30
0
11
5.3290705182007514e-14
21
-99.999999999999986
31
0
0
LINE
5
122
100
AcDbEntity
8
0
100
AcDbLine
10
5.3290705182007514e-14
20
-99.999999999999986
30
0
11
86.602540378443905
21
-49.999999999999964
31
0
0
LINE
5
123
100
AcDbEntity
8
0
100
AcDbLine
10
86.602540378443905
20
-49.999999999999964
30
0
11
86.602540378443621
21
-40
31
0
0
LINE
5
124
100
AcDbEntity
8
0
100
AcDbLine
10
86.602540378443621
20
-40
30
0
11
86.602540378443621
21
-28.000000000000007
31
0
0
LINE
5
125
100
AcDbEntity
8
0
100
AcDbLine
10
86.602540378443621
20
-28.000000000000007
30
0
11
86.602540378443905
21
-21.281766487210497
31
0
0
LINE
5
126
100
AcDbEntity
8
0
100
AcDbLine
10
86.602540378443905
20
-21.281766487210497
30
0
11
90.602540378443607
21
-21.281766487210501
31
0
0
LINE
5
127
100
AcDbEntity
8
0
100
AcDbLine
10
90.602540378443607
20
-21.281766487210501
30
0
11
90.602540378443621
21
-11.281766487210508
31
0
0
LINE
5
128
100
AcDbEntity
8
0
100
AcDbLine
10
90.602540378443621
20
-11.281766487210508
30
0
11
86.602540378443905
21
-11.281766487210504
31
0
0
LINE
5
129
100
AcDbEntity
8
0
100
AcDbLine
10
86.602540378443905
20
-11.281766487210504
30
0
11
86.602540378443905
21
-2.0000000297297049
31
0
0
LINE
5
130
100
AcDbEntity
8
0
100
AcDbLine
10
86.602540378443905
20
-2.0000000297297049
30
0
11
81.902540378443831
21
-2.0000000297336435
31
0
0
LINE
5
131
100
AcDbEntity
8
0
100
AcDbLine
10
81.902540378443831
20
-2.0000000297336435
30
0
11
81.902540378443817
21
-11.28176648721098
31
0
0
LINE
5
132
100
AcDbEntity
8
0
100
AcDbLine
10
81.902540378443817
20
-11.28176648721098
30
0
11
85.602540378443706
21
-11.281766487210504
31
0
0
LINE
5
133
100
AcDbEntity
8
0
100
AcDbLine
10
85.602540378443706
20
-11.281766487210504
30
0
11
85.602540378443308
21
-21.281766487210497
31
0
0
LINE
5
134
100
AcDbEntity
8
0
100
AcDbLine
10
85.602540378443308
20
-21.281766487210497
30
0
11
81.902540378443803
21
-21.281766487210486
31
0
0
LINE
5
135
100
AcDbEntity
8
0
100
AcDbLine
10
81.902540378443803
20
-21.281766487210486
30
0
11
81.902540378443774
21
-41.922649730810846
31
0
0
LINE
5
136
100
AcDbEntity
8
0
100
AcDbLine
10
81.902540378443774
20
-41.922649730810846
30
0
11
85.60254037844382
21
-41.922649730810484
31
0
0
LINE
5
137
100
AcDbEntity
8
0
100
AcDbLine
10
85.60254037844382
20
-41.922649730810484
30
0
11
85.602540378443848
21
-44.422649730810484
31
0
0
LINE
5
138
100
AcDbEntity
8
0
100
AcDbLine
10
85.602540378443848
20
-44.422649730810484
30
0
11
81.902540378443774
21
-44.422649730810747
31
0
0
LINE
5
139
100
AcDbEntity
8
0
100
AcDbLine
10
81.902540378443774
20
-44.422649730810747
30
0
11
81.902540378483536
21
-47.286453734785859
31
0
0
LINE
5
140
100
AcDbEntity
8
0
100
AcDbLine
10
81.902540378483536
20
-47.286453734785859
30
0
11
79.422413359521144
21
-48.718355736808263
31
0
0
LINE
5
141
100
AcDbEntity
8
0
100
AcDbLine
10
79.422413359521144
20
-48.718355736808263
30
0
11
81.272413359521636
21
-51.922649730810505
31
0
0
LINE
5
142
100
AcDbEntity
8
0
100
AcDbLine
10
81.272413359521636
20
-51.922649730810505
30
0
11
79.107349850061595
21
-53.172649730812324
31
0
0
LINE
5
143
100
AcDbEntity
8
0
100
AcDbLine
10
79.107349850061595
20
-53.172649730812324
30
0
11
77.257349850060507
21
-49.968355736808014
31
0
0
LINE
5
144
100
AcDbEntity
8
0
100
AcDbLine
10
77.257349850060507
20
-49.968355736808014
30
0
11
59.381820182617616
21
-60.288797602213265
31
0
0
LINE
5
145
100
AcDbEntity
8
0
100
AcDbLine
10
59.381820182617616
20
-60.288797602213265
30
0
11
61.231820182617895
21
-63.49309159621555
31
0
0
LINE
5
146
100
AcDbEntity
8
0
100
AcDbLine
10
61.231820182617895
20
-63.49309159621555
30
0
11
52.571566144773207
21
-68.49309159621572
31
0
0
LINE
5
147
100
AcDbEntity
8
0
100
AcDbLine
10
52.571566144773207
20
-68.49309159621572
30
0
11
50.721566144773
21
-65.288797602213407
31
0
0
LINE
5
148
100
AcDbEntity
8
0
100
AcDbLine
10
50.721566144773
20
-65.288797602213407
30
0
11
31.180973811733214
21
-76.570563845818612
31
0
0
LINE
5
149
100
AcDbEntity
8
0
100
AcDbLine
10
31.180973811733214
20
-76.570563845818612
30
0
11
33.030973811733652
21
-79.774857839820669
31
0
0
LINE
5
150
100
AcDbEntity
8
0
100
AcDbLine
10
33.030973811733652
20
-79.774857839820669
30
0
11
24.370719773889078
21
-84.774857839820314
31
0
0
LINE
5
151
100
AcDbEntity
8
0
100
AcDbLine
10
24.370719773889078
20
-84.774857839820314
30
0
11
22.520719773889262
21
-81.57056384581837
31
0
0
LINE
5
152
100
AcDbEntity
8
0
100
AcDbLine
10
22.520719773889262
20
-81.57056384581837
30
0
11
4.6451905283827832
21
-91.891005467618527
31
0
0
LINE
5
153
100
AcDbEntity
8
0
100
AcDbLine
10
4.6451905283827832
20
-91.891005467618527
30
0
11
6.4951905283832057
21
-95.095299461620783
31
0
0
LINE
5
154
100
AcDbEntity
8
0
100
AcDbLine
10
6.4951905283832057
20
-95.095299461620783
30
0
11
4.3301270189221164
21
-96.345299461620783
31
0
0
LINE
5
155
100
AcDbEntity
8
0
100
AcDbLine
10
4.3301270189221164
20
-96.345299461620783
30
0
11
2.4801270189217739
21
-93.141005467618498
31
0
0
LINE
5
156
100
AcDbEntity
8
0
100
AcDbLine
10
2.4801270189217739
20
-93.141005467618498
30
0
11
-1.7763568394002505e-14
21
-94.572907469617491
31
0
0
LINE
5
157
100
AcDbEntity
8
0
100
AcDbLine
10
-1.7763568394002505e-14
20
-94.572907469617491
30
0
11
-2.4801270189226958
21
-93.141005467618015
31
0
0
LINE
5
158
100
AcDbEntity
8
0
100
AcDbLine
10
-2.4801270189226958
20
-93.141005467618015
30
0
11
-4.3301270189222896
21
-96.345299461620783
31
0
0
LINE
5
159
100
AcDbEntity
8
0
100
AcDbLine
10
-4.3301270189222896
20
-96.345299461620783
30
0
11
-6.4951905283844402
21
-95.095299461622602
31
0
0
LINE
5
160
100
AcDbEntity
8
0
100
AcDbLine
10
-6.4951905283844402
20
-95.095299461622602
30
0
11
-4.6451905283833383
21
-91.891005467618285
31
0
0
LINE
5
161
100
AcDbEntity
8
0
100
AcDbLine
10
-4.6451905283833383
20
-91.891005467618285
30
0
11
-22.520720195826208
21
-81.570563602212971
31
0
0
LINE
5
162
100
AcDbEntity
8
0
100
AcDbLine
10
-22.520720195826208
20
-81.570563602212971
30
0
11
-24.370720195825946
21
-84.774857596215583
31
0
0
LINE
5
163
100
AcDbEntity
8
0
100
AcDbLine
10
-24.370720195825946
20
-84.774857596215583
30
0
11
-33.030974233670626
21
-79.774857596215412
31
0
0
LINE
5
164
100
AcDbEntity
8
0
100
AcDbLine
10
-33.030974233670626
20
-79.774857596215412
30
0
11
-31.180974233670824
21
-76.570563602212843
31
0
0
LINE
5
165
100
AcDbEntity
8
0
100
AcDbLine
10
-31.180974233670824
20
-76.570563602212843
30
0
11
-50.721566566710578
21
-65.288797358607582
31
0
0
LINE
5
166
100
AcDbEntity
8
0
100
AcDbLine
10
-50.721566566710578
20
-65.288797358607582
30
0
11
-52.571566566710032
21
-68.493091352610207
31
0
0
LINE
5
167
100
AcDbEntity
8
0
100
AcDbLine
10
-52.571566566710032
20
-68.493091352610207
30
0
11
-61.231820604554208
21
-63.493091352609866
31
0
0
LINE
5
168
100
AcDbEntity
8
0
100
AcDbLine
10
-61.231820604554208
20
-63.493091352609866
30
0
11
-59.381820604554534
21
-60.28879735860783
31
0
0
LINE
5
169
100
AcDbEntity
8
0
100
AcDbLine
10
-59.381820604554534
20
-60.28879735860783
30
0
11
-77.257349850060976
21
-49.968355736807631
31
0
0
LINE
5
170
100
AcDbEntity
8
0
100
AcDbLine
10
-77.257349850060976
20
-49.968355736807631
30
0
11
-79.107349850060615
21
-53.172649730810342
31
0
0
LINE
5
171
100
AcDbEntity
8
0
100
AcDbLine
10
-79.107349850060615
20
-53.172649730810342
30
0
11
-81.272413359521721
21
-51.922649730810363
31
0
0
LINE
5
172
100
AcDbEntity
8
0
100
AcDbLine
10
-81.272413359521721
20
-51.922649730810363
30
0
11
-79.422413359521983
21
-48.718355736807688
31
0
0
LINE
5
173
100
AcDbEntity
8
0
100
AcDbLine
10
-79.422413359521983
20
-48.718355736807688
30
0
11
-81.902540378443888
21
-47.286453734808767
31
0
0
LINE
5
174
100
AcDbEntity
8
0
100
AcDbLine
10
-81.902540378443888
20
-47.286453734808767
30
0
11
-81.902540378443859
21
-44.422649730809809
31
0
0
LINE
5
175
100
AcDbEntity
8
0
100
AcDbLine
10
-81.902540378443859
20
-44.422649730809809
30
0
11
-85.602540378443905
21
-44.422649730810335
31
0
0
LINE
5
176
100
AcDbEntity
8
0
100
AcDbLine
10
-85.602540378443905
20
-44.422649730810335
30
0
11
-85.602540378446022
21
-41.922649730810335
31
0
0
LINE
5
177
100
AcDbEntity
8
0
100
AcDbLine
10
-85.602540378446022
20
-41.922649730810335
30
0
11
-81.902540378443859
21
-41.922649730810335
31
0
0
LINE
5
178
100
AcDbEntity
8
0
100
AcDbLine
10
-81.902540378443859
20
-41.922649730810335
30
0
11
-81.902540378443845
21
-21.281765999999763
31
0
0
LINE
5
179
100
AcDbEntity
8
0
100
AcDbLine
10
-81.902540378443845
20
-21.281765999999763
30
0
11
-85.602540378443862
21
-21.281766000000037
31
0
0
LINE
5
180
100
AcDbEntity
8
0
100
AcDbLine
10
-85.602540378443862
20
-21.281766000000037
30
0
11
-85.602540378443862
21
-11.281765999999699
31
0
0
LINE
5
181
100
AcDbEntity
8
0
100
AcDbLine
10
-85.602540378443862
20
-11.281765999999699
30
0
11
-81.902540378443831
21
-11.281765999999493
31
0
0
LINE
5
182
100
AcDbEntity
8
0
100
AcDbLine
10
-81.902540378443831
20
-11.281765999999493
30
0
11
-81.902540378443817
21
11.281766487210991
31
0
0
LINE
5
183
100
AcDbEntity
8
0
100
AcDbLine
10
-81.902540378443817
20
11.281766487210991
30
0
11
-85.60254037844372
21
11.281766487210456
31
0
0
LINE
5
184
100
AcDbEntity
8
0
100
AcDbLine
10
-85.60254037844372
20
11.281766487210456
30
0
11
-85.602540378443308
21
21.281766487210444
31
0
0
LINE
5
185
100
AcDbEntity
8
0
100
AcDbLine
10
-85.602540378443308
20
21.281766487210444
30
0
11
-81.902540378443817
21
21.281766487210497
31
0
0
LINE
5
186
100
AcDbEntity
8
0
100
AcDbLine
10
-81.902540378443817
20
21.281766487210497
30
0
11
-81.902540378443803
21
41.922649730810861
31
0
0
LINE
5
187
100
AcDbEntity
8
0
100
AcDbLine
10
-81.902540378443803
20
41.922649730810861
30
0
11
-85.602540378443862
21
41.922649730810448
31
0
0
LINE
5
188
100
AcDbEntity
8
0
100
AcDbLine
10
-85.602540378443862
20
41.922649730810448
30
0
11
-85.602540378443877
21
44.422649730810448
31
0
0
LINE
5
189
100
AcDbEntity
8
0
100
AcDbLine
10
-85.602540378443877
20
44.422649730810448
30
0
11
-81.902540378443803
21
44.422649730810761
31
0
0
LINE
5
190
100
AcDbEntity
8
0
100
AcDbLine
10
-81.902540378443803
20
44.422649730810761
30
0
11
-81.902540378443902
21
47.286453734808767
31
0
0
LINE
5
191
100
AcDbEntity
8
0
100
AcDbLine
10
-81.902540378443902
20
47.286453734808767
30
0
11
-79.422413359521158
21
48.718355736808228
31
0
0
LINE
5
192
100
AcDbEntity
8
0
100
AcDbLine
10
-79.422413359521158
20
48.718355736808228
30
0
11
-81.27241335952165
21
51.922649730810456
31
0
0
LINE
5
193
100
AcDbEntity
8
0
100
AcDbLine
10
-81.27241335952165
20
51.922649730810456
30
0
11
-79.10734985006161
21
53.172649730812289
31
0
0
LINE
5
194
100
AcDbEntity
8
0
100
AcDbLine
10
-79.10734985006161
20
53.172649730812289
30
0
11
-77.257349850060535
21
49.968355736807972
31
0
0
LINE
5
195
100
AcDbEntity
8
0
100
AcDbLine
10
-77.257349850060535
20
49.968355736807972
30
0
11
-59.381820182617638
21
60.288797602213236
31
0
0
LINE
5
196
100
AcDbEntity
8
0
100
AcDbLine
10
-59.381820182617638
20
60.288797602213236
30
0
11
-61.231820182617909
21
63.493091596215535
31
0
0
LINE
5
197
100
AcDbEntity
8
0
100
AcDbLine
10
-61.231820182617909
20
63.493091596215535
30
0
11
-52.571566144773229
21
68.493091596215706
31
0
0
LINE
5
198
100
AcDbEntity
8
0
100
AcDbLine
10
-52.571566144773229
20
68.493091596215706
30
0
11
-50.721566144773021
21
65.288797602213378
31
0
0
LINE
5
199
100
AcDbEntity
8
0
100
AcDbLine
10
-50.721566144773021
20
65.288797602213378
30
0
11
-31.180973811733249
21
76.570563845818597
31
0
0
LINE
5
200
100
AcDbEntity
8
0
100
AcDbLine
10
-31.180973811733249
20
76.570563845818597
30
0
11
-33.030973811733681
21
79.77485783982064
31
0
0
LINE
5
201
100
AcDbEntity
8
0
100
AcDbLine
10
-33.030973811733681
20
79.77485783982064
30
0
11
-24.3707197738891
21
84.774857839820314
31
0
0
LINE
5
202
100
AcDbEntity
8
0
100
AcDbLine
10
-24.3707197738891
20
84.774857839820314
30
0
11
-22.52071977388929
21
81.570563845818356
31
0
0
LINE
5
203
100
AcDbEntity
8
0
100
AcDbLine
10
-22.52071977388929
20
81.570563845818356
30
0
11
-4.6451905283828232
21
91.891005467618513
31
0
0
LINE
5
204
100
AcDbEntity
8
0
100
AcDbLine
10
-4.6451905283828232
20
91.891005467618513
30
0
11
-6.4951905283832412
21
95.095299461620769
31
0
0
LINE
5
205
100
AcDbEntity
8
0
100
AcDbLine
10
-6.4951905283832412
20
95.095299461620769
30
0
11
-4.3301270189221519
21
96.345299461620783
31
0
0
LINE
5
206
100
AcDbEntity
8
0
100
AcDbLine
10
-4.3301270189221519
20
96.345299461620783
30
0
11
-2.4801270189218094
21
93.141005467618484
31
0
0
LINE
5
207
100
AcDbEntity
8
0
100
AcDbLine
10
-2.4801270189218094
20
93.141005467618484
30
0
11
0
21
94.572907469617491
31
0
0
LINE
5
208
100
AcDbEntity
8
0
100
AcDbLine
10
0
20
94.572907469617491
30
0
11
2.480127018922671
21
93.141005467618015
31
0
0
LINE
5
209
100
AcDbEntity
8
0
100
AcDbLine
10
2.480127018922671
20
93.141005467618015
30
0
11
4.330127018922254
21
96.345299461620769
31
0
0
LINE
5
210
100
AcDbEntity
8
0
100
AcDbLine
10
4.330127018922254
20
96.345299461620769
30
0
11
6.4951905283844091
21
95.095299461622602
31
0
0
LINE
5
211
100
AcDbEntity
8
0
100
AcDbLine
10
6.4951905283844091
20
95.095299461622602
30
0
11
4.6451905283833117
21
91.891005467618285
31
0
0
LINE
5
212
100
AcDbEntity
8
0
100
AcDbLine
10
4.6451905283833117
20
91.891005467618285
30
0
11
22.520720195826186
21
81.570563602212985
31
0
0
LINE
5
213
100
AcDbEntity
8
0
100
AcDbLine
10
22.520720195826186
20
81.570563602212985
30
0
11
24.370720195825939
21
84.774857596215583
31
0
0
LINE
5
214
100
AcDbEntity
8
0
100
AcDbLine
10
24.370720195825939
20
84.774857596215583
30
0
11
33.030974233670619
21
79.774857596215412
31
0
0
LINE
5
215
100
AcDbEntity
8
0
100
AcDbLine
10
33.030974233670619
20
79.774857596215412
30
0
11
31.180974233670803
21
76.570563602212857
31
0
0
LINE
5
216
100
AcDbEntity
8
0
100
AcDbLine
10
31.180974233670803
20
76.570563602212857
30
0
11
50.72156656671055
21
65.28879735860761
31
0
0
LINE
5
217
100
AcDbEntity
8
0
100
AcDbLine
10
50.72156656671055
20
65.28879735860761
30
0
11
52.571566566710018
21
68.493091352610207
31
0
0
LINE
5
218
100
AcDbEntity
8
0
100
AcDbLine
10
52.571566566710018
20
68.493091352610207
30
0
11
61.231820604554201
21
63.493091352609873
31
0
0
LINE
5
219
100
AcDbEntity
8
0
100
AcDbLine
10
61.231820604554201
20
63.493091352609873
30
0
11
59.381820604554505
21
60.288797358607845
31
0
0
LINE
5
220
100
AcDbEntity
8
0
100
AcDbLine
10
59.381820604554505
20
60.288797358607845
30
0
11
77.257349850060962
21
49.968355736807652
31
0
0
LINE
5
221
100
AcDbEntity
8
0
100
AcDbLine
10
77.257349850060962
20
49.968355736807652
30
0
11
79.107349850060615
21
53.172649730810349
31
0
0
LINE
5
222
100
AcDbEntity
8
0
100
AcDbLine
10
79.107349850060615
20
53.172649730810349
30
0
11
81.272413359521721
21
51.92264973081037
31
0
0
LINE
5
223
100
AcDbEntity
8
0
100
AcDbLine
10
81.272413359521721
20
51.92264973081037
30
0
11
79.422413359521983
21
48.718355736807695
31
0
0
LINE
5
224
100
AcDbEntity
8
0
100
AcDbLine
10
79.422413359521983
20
48.718355736807695
30
0
11
81.90254037840424
21
47.286453734831568
31
0
0
LINE
5
225
100
AcDbEntity
8
0
100
AcDbLine
10
81.90254037840424
20
47.286453734831568
30
0
11
81.902540378443888
21
44.422649730809816
31
0
0
LINE
5
226
100
AcDbEntity
8
0
100
AcDbLine
10
81.902540378443888
20
44.422649730809816
30
0
11
85.602540378443905
21
44.422649730810342
31
0
0
LINE
5
227
100
AcDbEntity
8
0
100
AcDbLine
10
85.602540378443905
20
44.422649730810342
30
0
11
85.602540378446022
21
41.922649730810342
31
0
0
LINE
5
228
100
AcDbEntity
8
0
100
AcDbLine
10
85.602540378446022
20
41.922649730810342
30
0
11
81.902540378443888
21
41.922649730810342
31
0
0
LINE
5
229
100
AcDbEntity
8
0
100
AcDbLine
10
81.902540378443888
20
41.922649730810342
30
0
11
81.902540378443845
21
21.28176599999977
31
0
0
LINE
5
230
100
AcDbEntity
8
0
100
AcDbLine
10
81.902540378443845
20
21.28176599999977
30
0
11
85.602540378443877
21
21.281765999999998
31
0
0
LINE
5
231
100
AcDbEntity
8
0
100
AcDbLine
10
85.602540378443877
20
21.281765999999998
30
0
11
85.602540378443862
21
11.281765999999651
31
0
0
LWPOLYLINE
5
232
100
AcDbEntity
8
0
100
AcDbPolyline
90
4
70
1
43
0.0
10
81.902540378443831
20
2.0000000000686793
10
85.602540378443862
20
2.0000000000686793
10
85.602540378443862
20
11.281765999999651
10
81.902540378443831
20
11.281765999999651
0
LINE
5
233
100
AcDbEntity
8
0
100
AcDbLine
10
83.102540378443862
20
11.281765999999552
30
0
11
83.102540378443862
21
2.0000000000696851
31
0
0
LINE
5
234
100
AcDbEntity
8
0
100
AcDbLine
10
84.402540378443859
20
2.0000000000686793
30
0
11
84.402540378443859
21
11.281765999999651
31
0
0
LINE
5
235
100
AcDbEntity
8
0
100
AcDbLine
10
81.902540378443831
20
2.0000000000686793
30
0
11
84.402540378443859
21
2.0000000000686793
31
0
0
LINE
5
236
100
AcDbEntity
8
0
100
AcDbLine
10
81.902540378443845
20
11.281765999999504
30
0
11
84.402540378443859
21
11.281765999999651
31
0
0
LWPOLYLINE
5
237
100
AcDbEntity
8
0
100
AcDbPolyline
90
4
70
1
43
0.0
10
82.152540378443831
20
11.031765999999521
10
84.152540378443859
20
11.031765999999637
10
84.152540378443859
20
2.2500000000686788
10
82.152540378443831
20
2.2500000000686793
0
ENDSEC
0
SECTION
2
OBJECTS
0
DICTIONARY
5
C
100
AcDbDictionary
3
ACAD_GROUP
350
D
3
ACAD_MLINESTYLE
350
17
0
DICTIONARY
5
D
100
AcDbDictionary
0
DICTIONARY
5
1A
330
C
100
AcDbDictionary
0
DICTIONARY
5
17
100
AcDbDictionary
0
ENDSEC
0
EOF
