0
SECTION
2
HEADER
9
$INSUNITS
70
4
9
$ACADVER
1
AC1014
9
$HANDSEED
5
FFFF
0
ENDSEC
0
SECTION
2
TABLES
0
TABLE
2
VPORT
5
8
100
AcDbSymbolTable
0
ENDTAB
0
TABLE
2
LTYPE
5
5
100
AcDbSymbolTable
0
LTYPE
5
14
100
AcDbSymbolTableRecord
100
AcDbLinetypeTableRecord
2
BYBLOCK
70
0
0
LTYPE
5
15
100
AcDbSymbolTableRecord
100
AcDbLinetypeTableRecord
2
BYLAYER
70
0
0
LTYPE
5
16
100
AcDbSymbolTableRecord
100
AcDbLinetypeTableRecord
2
DASHED
70
0
3
Dashed __ __ __ __ __ __ __ __ __ __ __ __ __ _
72
65
73
2
40
0.75
49
0.5
74
0
49
-0.25
74
0
0
ENDTAB
0
TABLE
2
LAYER
5
2
100
AcDbSymbolTable
70
2
0
LAYER
5
50
100
AcDbSymbolTableRecord
100
AcDbLayerTableRecord
2
0
70
0
62
7
6
CONTINUOUS
0
ENDTAB
0
TABLE
2
STYLE
5
3
100
AcDbSymbolTable
70
1
0
STYLE
5
11
100
AcDbSymbolTableRecord
100
AcDbTextStyleTableRecord
2
STANDARD
70
0
0
ENDTAB
0
TABLE
2
VIEW
5
6
100
AcDbSymbolTable
70
0
0
ENDTAB
0
TABLE
2
UCS
5
7
100
AcDbSymbolTable
70
0
0
ENDTAB
0
TABLE
2
APPID
5
9
100
AcDbSymbolTable
70
2
0
APPID
5
12
100
AcDbSymbolTableRecord
100
AcDbRegAppTableRecord
2
ACAD
70
0
0
ENDTAB
0
TABLE
2
DIMSTYLE
5
A
100
AcDbSymbolTable
70
1
0
ENDTAB
0
TABLE
2
BLOCK_RECORD
5
1
100
AcDbSymbolTable
70
1
0
BLOCK_RECORD
5
1F
100
AcDbSymbolTableRecord
100
AcDbBlockTableRecord
2
*MODEL_SPACE
0
BLOCK_RECORD
5
1B
100
AcDbSymbolTableRecord
100
AcDbBlockTableRecord
2
*PAPER_SPACE
0
ENDTAB
0
ENDSEC
0
SECTION
2
BLOCKS
0
BLOCK
5
20
100
AcDbEntity
100
AcDbBlockBegin
2
*MODEL_SPACE
0
ENDBLK
5
21
100
AcDbEntity
100
AcDbBlockEnd
0
BLOCK
5
1C
100
AcDbEntity
100
AcDbBlockBegin
2
*PAPER_SPACE
0
ENDBLK
5
1D
100
AcDbEntity
100
AcDbBlockEnd
0
ENDSEC
0
SECTION
2
ENTITIES
0
POINT
5
100
100
AcDbEntity
8
0
100
AcDbPoint
10
0
20
0
30
0
0
POINT
5
101
100
AcDbEntity
8
0
100
AcDbPoint
10
0
20
0
30
0
0
POINT
5
102
100
AcDbEntity
8
0
100
AcDbPoint
10
0
20
0
30
0
0
POINT
5
103
100
AcDbEntity
8
0
100
AcDbPoint
10
0
20
0
30
0
0
POINT
5
104
100
AcDbEntity
8
0
100
AcDbPoint
10
0
20
0
30
0
0
LWPOLYLINE
5
105
100
AcDbEntity
8
0
100
AcDbPolyline
90
6
70
1
43
0.0
10
86.602540378443933
20
-49.999999999999936
10
86.602540378443848
20
50.000000000000036
10
-5.782356161857981e-14
20
99.999999999999986
10
-86.602540378443905
20
49.999999999999964
10
-86.602540378443877
20
-50.000000000000007
10
3.3427325353687287e-15
20
-100.00000000000001
0
LWPOLYLINE
5
106
100
AcDbEntity
8
0
100
AcDbPolyline
90
6
70
1
43
0.0
10
3.0767402982137057e-14
20
-104.61880215351698
10
90.602540378443862
20
-52.309401076758519
10
90.602540378443891
20
52.309401076758533
10
-1.8025999879258572e-14
20
104.61880215351712
10
-90.602540378443592
20
52.309401076758839
10
-90.602540378443663
20
-52.30940107675849
0
LINE
5
107
100
AcDbEntity
8
0
100
AcDbLine
10
0
20
0
30
0
11
0
21
-155
31
0
0
LWPOLYLINE
5
108
100
AcDbEntity
8
0
100
AcDbPolyline
90
6
70
1
43
0.0
10
5.5511151231257843e-15
20
-98.845299461620741
10
85.602540378443891
20
-49.422649730810384
10
85.602540378443877
20
49.422649730810384
10
6.5539428365174825e-15
20
98.845299461620769
10
-85.602540378523472
20
49.422649730780407
10
-85.602540378443933
20
-49.422649730810342
0
LWPOLYLINE
5
109
100
AcDbEntity
8
0
100
AcDbPolyline
90
6
70
1
43
0.0
10
5.5511151231257843e-15
20
-95.958548115672613
10
83.102540378443877
20
-47.979274057836328
10
83.102540378443877
20
47.979274057836307
10
6.371418526059609e-15
20
95.958548115672627
10
-83.102540378484107
20
47.979274057813086
10
-83.102540378403646
20
-47.979274057859449
0
LINE
5
110
100
AcDbEntity
8
0
100
AcDbLine
10
-85.602540378443905
20
-44.422649730810342
30
0
11
-83.10254037840663
21
-44.422649730809816
31
0
0
LINE
5
111
100
AcDbEntity
8
0
100
AcDbLine
10
-81.272413359521721
20
-51.92264973081037
30
0
11
-80.022413359522218
21
-49.75758622134893
31
0
0
LINE
5
112
100
AcDbEntity
8
0
100
AcDbLine
10
-56.901693163695825
20
-65.993091596215478
30
0
11
-55.651693163696017
21
-63.828028086754252
31
0
0
LINE
5
113
100
AcDbEntity
8
0
100
AcDbLine
10
-28.70084721474834
20
-82.274857596215469
30
0
11
-27.450847214748542
21
-80.109794086754235
31
0
0
LINE
5
114
100
AcDbEntity
8
0
100
AcDbLine
10
-59.981820604554457
20
-61.328027843149222
30
0
11
-61.231820604554201
21
-63.493091352609873
31
0
0
LINE
5
115
100
AcDbEntity
8
0
100
AcDbLine
10
-51.321566566710494
20
-66.328027843148973
30
0
11
-52.571566566710018
21
-68.493091352610207
31
0
0
LINE
5
116
100
AcDbEntity
8
0
100
AcDbLine
10
-31.78097423367074
20
-77.609794086754235
30
0
11
-33.030974233670619
21
-79.774857596215412
31
0
0
LINE
5
117
100
AcDbEntity
8
0
100
AcDbLine
10
-23.120720195826124
20
-82.609794086754363
30
0
11
-24.370720195825939
21
-84.774857596215583
31
0
0
LINE
5
118
100
AcDbEntity
8
0
100
AcDbLine
10
-77.857349850060899
20
-51.007586221349044
30
0
11
-79.107349850060615
21
-53.172649730810349
31
0
0
LINE
5
119
100
AcDbEntity
8
0
100
AcDbLine
10
-85.602540378446022
20
-41.922649730810342
30
0
11
-83.102540378408719
21
-41.922649730810342
31
0
0
LINE
5
120
100
AcDbEntity
8
0
100
AcDbLine
10
-40.252232083545181
20
-72.718911086754559
30
0
11
1.2990381056765528
21
-0.74999999999993361
31
0
0
LINE
5
121
100
AcDbEntity
8
0
100
AcDbLine
10
1.2990381056765528
20
-0.74999999999993361
30
0
11
-1.2990381056765519
21
0.74999999999993339
31
0
0
LINE
5
122
100
AcDbEntity
8
0
100
AcDbLine
10
-1.2990381056765519
20
0.74999999999993339
30
0
11
-42.85030829489849
21
-71.218911086754574
31
0
0
LINE
5
123
100
AcDbEntity
8
0
100
AcDbLine
10
-41.551270189201794
20
-71.968911086766013
30
0
11
0
21
0
31
0
0
LWPOLYLINE
5
124
100
AcDbEntity
8
0
100
AcDbPolyline
90
6
70
1
43
0.0
10
-79.602540378443905
20
-45.958548115672556
10
-1.7763568394002505e-14
20
-91.917096231345212
10
79.602540378443905
20
-45.958548115672635
10
79.602540378443877
20
45.958548115672599
10
1.7763568394002505e-14
20
91.917096231345226
10
-79.602540378443877
20
45.958548115672642
0
LINE
5
125
100
AcDbEntity
8
0
100
AcDbLine
10
-45.430435313820645
20
-65.687822173508948
30
0
11
-47.180435313820638
21
-68.718911086754474
31
0
0
LINE
5
126
100
AcDbEntity
8
0
100
AcDbLine
10
-34.172105064622947
20
-72.187822173508934
30
0
11
-35.92210506462294
21
-75.218911086754488
31
0
0
LINE
5
127
100
AcDbEntity
8
0
100
AcDbLine
10
34.172105064623153
20
-72.18782217350882
30
0
11
35.922105064623153
21
-75.218911086754346
31
0
0
LINE
5
128
100
AcDbEntity
8
0
100
AcDbLine
10
45.430435313820858
20
-65.687822173508835
30
0
11
47.180435313820865
21
-68.71891108675436
31
0
0
LINE
5
129
100
AcDbEntity
8
0
100
AcDbLine
10
79.602540378443805
20
-6.4999999999998952
30
0
11
83.102540378443791
21
-6.4999999999998801
31
0
0
LINE
5
130
100
AcDbEntity
8
0
100
AcDbLine
10
79.602540378443805
20
6.5000000000001057
30
0
11
83.10254037844382
21
6.5000000000001119
31
0
0
LINE
5
131
100
AcDbEntity
8
0
100
AcDbLine
10
45.430435313820652
20
65.687822173508934
30
0
11
47.180435313820645
21
68.71891108675446
31
0
0
LINE
5
132
100
AcDbEntity
8
0
100
AcDbLine
10
34.172105064622954
20
72.187822173508934
30
0
11
35.922105064622947
21
75.218911086754488
31
0
0
LINE
5
133
100
AcDbEntity
8
0
100
AcDbLine
10
-34.172105064623118
20
72.187822173508835
30
0
11
-35.922105064623125
21
75.21891108675436
31
0
0
LINE
5
134
100
AcDbEntity
8
0
100
AcDbLine
10
-45.430435313820858
20
65.687822173508849
30
0
11
-47.180435313820851
21
68.718911086754389
31
0
0
LINE
5
135
100
AcDbEntity
8
0
100
AcDbLine
10
-79.602540378443805
20
6.4999999999999343
30
0
11
-83.102540378443805
21
6.4999999999999325
31
0
0
LINE
5
136
100
AcDbEntity
8
0
100
AcDbLine
10
-79.602540378443805
20
-6.5000000000000657
30
0
11
-83.102540378443848
21
-6.5000000000000666
31
0
0
LWPOLYLINE
5
137
100
AcDbEntity
8
0
100
AcDbPolyline
90
6
70
1
43
0.0
10
2.7755575615628914e-16
20
90.762395692965981
10
-78.602540378481919
20
45.381197846461028
10
-78.60254037840582
20
-45.381197846504904
10
1.7763568394002505e-14
20
-90.762395692965981
10
78.602540378443877
20
-45.381197846483019
10
78.602540378443877
20
45.381197846482983
0
LWPOLYLINE
5
138
100
AcDbEntity
8
0
100
AcDbPolyline
90
6
70
1
43
0.0
10
-1.3877787807814457e-16
20
-94.572907469617491
10
81.902540378443902
20
-47.286453734808767
10
81.902540378443888
20
47.286453734808767
10
1.7763568394002505e-14
20
94.572907469617491
10
-81.902540378483536
20
47.286453734785859
10
-81.90254037840424
20
-47.286453734831568
0
ENDSEC
0
SECTION
2
OBJECTS
0
DICTIONARY
5
C
100
AcDbDictionary
3
ACAD_GROUP
350
D
3
ACAD_MLINESTYLE
350
17
0
DICTIONARY
5
D
100
AcDbDictionary
0
DICTIONARY
5
1A
330
C
100
AcDbDictionary
0
DICTIONARY
5
17
100
AcDbDictionary
0
ENDSEC
0
EOF
