                                                                        S      1
,,15HFusionComponent,10HComponent1,7Hunknown,7Hunknown,32,38,7,99,15,,  G      1
1.,2,2HMM,1,0.08,15H20250912.001418,0.01,10000.,7Hunknown,7Hunknown,11, G      2
0,;                                                                     G      3
     186       1                                                00000000D      1
     186            -123       1       0                               0D      2
     514       2                                                00010000D      3
     514                       1       1                               0D      4
     510       3                                                00010000D      5
     510            -123       1       1                               0D      6
     510       4                                                00010000D      7
     510            -123       1       1                               0D      8
     510       5                                                00010000D      9
     510            -123       1       1                               0D     10
     510       6                                                00010000D     11
     510            -123       1       1                               0D     12
     510       7                                                00010000D     13
     510            -123       1       1                               0D     14
     510       8                                                00010000D     15
     510            -123       1       1                               0D     16
     510       9                                                00010000D     17
     510            -123       1       1                               0D     18
     510      10                                                00010000D     19
     510            -123       1       1                               0D     20
     510      11                                                00010000D     21
     510            -123       1       1                               0D     22
     510      12                                                00010000D     23
     510            -123       1       1                               0D     24
     508      13                                                00010000D     25
     508                       1       1                               0D     26
     508      14                                                00010000D     27
     508                       1       1                               0D     28
     508      15                                                00010000D     29
     508                       1       1                               0D     30
     508      16                                                00010000D     31
     508                       1       1                               0D     32
     508      17                                                00010000D     33
     508                       1       1                               0D     34
     508      18                                                00010000D     35
     508                       1       1                               0D     36
     508      19                                                00010000D     37
     508                       1       1                               0D     38
     508      20                                                00010000D     39
     508                       1       1                               0D     40
     508      21                                                00010000D     41
     508                       1       1                               0D     42
     508      22                                                00010000D     43
     508                       1       1                               0D     44
     508      23                                                00010000D     45
     508                       1       1                               0D     46
     508      24                                                00010000D     47
     508                       1       1                               0D     48
     126      25                                                00010000D     49
     126       0               3       0                               0D     50
     126      28                                                00010000D     51
     126       0               2       0                               0D     52
     126      30                                                00010000D     53
     126       0               3       0                               0D     54
     126      33                                                00010000D     55
     126       0               2       0                               0D     56
     126      35                                                00010000D     57
     126       0               2       0                               0D     58
     126      37                                                00010000D     59
     126       0               3       0                               0D     60
     126      40                                                00010000D     61
     126       0               2       0                               0D     62
     126      42                                                00010000D     63
     126       0               3       0                               0D     64
     126      45                                                00010000D     65
     126       0               3       0                               0D     66
     126      48                                                00010000D     67
     126       0               2       0                               0D     68
     126      50                                                00010000D     69
     126       0               2       0                               0D     70
     126      52                                                00010000D     71
     126       0               3       0                               0D     72
     126      55                                                00010000D     73
     126       0               2       0                               0D     74
     126      57                                                00010000D     75
     126       0               2       0                               0D     76
     126      59                                                00010000D     77
     126       0               2       0                               0D     78
     126      61                                                00010000D     79
     126       0               2       0                               0D     80
     126      63                                                00010000D     81
     126       0               2       0                               0D     82
     126      65                                                00010000D     83
     126       0               2       0                               0D     84
     126      67                                                00010000D     85
     126       0               2       0                               0D     86
     126      69                                                00010000D     87
     126       0               2       0                               0D     88
     126      71                                                00010000D     89
     126       0               2       0                               0D     90
     126      73                                                00010000D     91
     126       0               3       0                               0D     92
     126      76                                                00010000D     93
     126       0               2       0                               0D     94
     126      78                                                00010000D     95
     126       0               2       0                               0D     96
     128      80                                                00010000D     97
     128       0    -123       4       0                               0D     98
     128      84                                                00010000D     99
     128       0    -123       4       0                               0D    100
     128      88                                                00010000D    101
     128       0    -123       4       0                               0D    102
     128      92                                                00010000D    103
     128       0    -123       4       0                               0D    104
     128      96                                                00010000D    105
     128       0    -123       4       0                               0D    106
     128     100                                                00010000D    107
     128       0    -123       4       0                               0D    108
     128     104                                                00010000D    109
     128       0    -123       4       0                               0D    110
     128     108                                                00010000D    111
     128       0    -123       6       0                               0D    112
     128     114                                                00010000D    113
     128       0    -123       4       0                               0D    114
     128     118                                                00010000D    115
     128       0    -123       4       0                               0D    116
     502     122                                                00010000D    117
     502                      10       1                               0D    118
     504     132                                                00010001D    119
     504                       7       1                               0D    120
     406     139                                                00000000D    121
     406                       1      15                               0D    122
     314     140                                                00000200D    123
     314                       2       0                               0D    124
186,3,1,0,0,1,121;                                                     1P      1
514,10,5,1,7,1,9,1,11,1,13,1,15,1,17,1,19,1,21,1,23,1;                 3P      2
510,97,1,1,25;                                                         5P      3
510,99,1,1,27;                                                         7P      4
510,101,1,1,29;                                                        9P      5
510,103,1,1,31;                                                       11P      6
510,105,1,1,33;                                                       13P      7
510,107,2,1,35,37;                                                    15P      8
510,109,1,1,39;                                                       17P      9
510,111,2,1,41,43;                                                    19P     10
510,113,1,1,45;                                                       21P     11
510,115,1,1,47;                                                       23P     12
508,4,0,119,1,0,0,0,119,2,0,0,0,119,3,0,0,0,119,4,1,0;                25P     13
508,4,0,119,5,0,0,0,119,4,0,0,0,119,6,0,0,0,119,7,1,0;                27P     14
508,4,0,119,8,0,0,0,119,7,0,0,0,119,9,0,0,0,119,10,1,0;               29P     15
508,4,0,119,11,0,0,0,119,10,0,0,0,119,12,0,0,0,119,2,1,0;             31P     16
508,4,0,119,13,1,0,0,119,14,1,0,0,119,15,0,0,0,119,16,0,0;            33P     17
508,4,0,119,17,1,0,0,119,16,1,0,0,119,18,0,0,0,119,19,0,0;            35P     18
508,4,0,119,8,1,0,0,119,11,1,0,0,119,1,1,0,0,119,5,1,0;               37P     19
508,4,0,119,20,1,0,0,119,19,1,0,0,119,21,0,0,0,119,22,0,0;            39P     20
508,4,0,119,23,1,0,0,119,22,1,0,0,119,24,0,0,0,119,14,0,0;            41P     21
508,4,0,119,9,1,0,0,119,6,1,0,0,119,3,1,0,0,119,12,1,0;               43P     22
508,4,0,119,23,0,0,0,119,13,0,0,0,119,17,0,0,0,119,20,0,0;            45P     23
508,4,0,119,24,1,0,0,119,21,1,0,0,119,18,1,0,0,119,15,1,0;            47P     24
126,1,1,0,0,1,0,-0.3125,-0.3125,-0.0625,-0.0625,1.,1.,                49P     25
-46.9512452292583,5.,3.,-44.4512452292583,5.,3.,-0.3125,-0.0625,      49P     26
0.,0.,0.;                                                             49P     27
126,1,1,0,0,1,0,0.,0.,0.3,0.3,1.,1.,-46.9512452292583,5.,             51P     28
-5.77778983316171D-32,-46.9512452292583,5.,3.,0.,0.3,0.,0.,0.;        51P     29
126,1,1,0,0,1,0,-0.1875,-0.1875,0.0625,0.0625,1.,1.,                  53P     30
-44.4512452292583,5.,-1.73333694994851D-31,-46.9512452292583,5.,      53P     31
-5.77778983316171D-32,-0.1875,0.0625,0.,0.,0.;                        53P     32
126,1,1,0,0,1,0,0.,0.,0.3,0.3,1.,1.,-44.4512452292583,5.,             55P     33
-1.73333694994851D-31,-44.4512452292583,5.,3.,0.,0.3,0.,0.,0.;        55P     34
126,1,1,0,0,1,0,0.275,0.275,0.425,0.425,1.,1.,-44.4512452292583,      57P     35
5.,3.,-44.4512452292583,3.5,3.,0.275,0.425,0.,0.,0.;                  57P     36
126,1,1,0,0,1,0,-0.425,-0.425,-0.275,-0.275,1.,1.,                    59P     37
-44.4512452292583,3.5,-1.73333694994851D-31,-44.4512452292583,        59P     38
5.,-1.73333694994851D-31,-0.425,-0.275,0.,0.,0.;                      59P     39
126,1,1,0,0,1,0,0.,0.,0.3,0.3,1.,1.,-44.4512452292583,3.5,            61P     40
-1.73333694994851D-31,-44.4512452292583,3.5,3.,0.,0.3,0.,0.,0.;       61P     41
126,1,1,0,0,1,0,-0.0625,-0.0625,0.1875,0.1875,1.,1.,                  63P     42
-44.4512452292583,3.5,3.,-46.9512452292583,3.5,3.,-0.0625,            63P     43
0.1875,0.,0.,0.;                                                      63P     44
126,1,1,0,0,1,0,0.0625,0.0625,0.3125,0.3125,1.,1.,                    65P     45
-46.9512452292583,3.5,-5.77778983316171D-32,-44.4512452292583,        65P     46
3.5,-1.73333694994851D-31,0.0625,0.3125,0.,0.,0.;                     65P     47
126,1,1,0,0,1,0,0.,0.,0.3,0.3,1.,1.,-46.9512452292583,3.5,            67P     48
-5.77778983316171D-32,-46.9512452292583,3.5,3.,0.,0.3,0.,0.,0.;       67P     49
126,1,1,0,0,1,0,-0.5,-0.5,-0.35,-0.35,1.,1.,-46.9512452292583,        69P     50
3.5,3.,-46.9512452292583,5.,3.,-0.5,-0.35,0.,0.,0.;                   69P     51
126,1,1,0,0,1,0,0.35,0.35,0.5,0.5,1.,1.,-46.9512452292583,5.,         71P     52
-5.77778983316171D-32,-46.9512452292583,3.5,                          71P     53
-5.77778983316171D-32,0.35,0.5,0.,0.,0.;                              71P     54
126,1,1,0,0,1,0,0.,0.,0.3,0.3,1.,1.,-48.2012452292583,12.,3.,         73P     55
-48.2012452292583,12.,0.,0.,0.3,0.,0.,0.;                             73P     56
126,1,1,0,0,1,0,0.,0.,0.95,0.95,1.,1.,-48.2012452292583,12.,0.,       75P     57
-48.2012452292583,2.5,0.,0.,0.95,0.,0.,0.;                            75P     58
126,1,1,0,0,1,0,0.,0.,0.3,0.3,1.,1.,-48.2012452292583,2.5,3.,         77P     59
-48.2012452292583,2.5,0.,0.,0.3,0.,0.,0.;                             77P     60
126,1,1,0,0,1,0,0.,0.,0.95,0.95,1.,1.,-48.2012452292583,12.,3.,       79P     61
-48.2012452292583,2.5,3.,0.,0.95,0.,0.,0.;                            79P     62
126,1,1,0,0,1,0,0.,0.,0.5,0.5,1.,1.,-43.2012452292583,12.,3.,         81P     63
-48.2012452292583,12.,3.,0.,0.5,0.,0.,0.;                             81P     64
126,1,1,0,0,1,0,0.,0.,0.5,0.5,1.,1.,-43.2012452292583,2.5,3.,         83P     65
-48.2012452292583,2.5,3.,0.,0.5,0.,0.,0.;                             83P     66
126,1,1,0,0,1,0,0.,0.,0.95,0.95,1.,1.,-43.2012452292583,12.,3.,       85P     67
-43.2012452292583,2.5,3.,0.,0.95,0.,0.,0.;                            85P     68
126,1,1,0,0,1,0,0.,0.,0.3,0.3,1.,1.,-43.2012452292583,12.,            87P     69
-2.31111593326468D-31,-43.2012452292583,12.,3.,0.,0.3,0.,0.,0.;       87P     70
126,1,1,0,0,1,0,0.,0.,0.3,0.3,1.,1.,-43.2012452292583,2.5,            89P     71
-2.31111593326468D-31,-43.2012452292583,2.5,3.,0.,0.3,0.,0.,0.;       89P     72
126,1,1,0,0,1,0,0.,0.,0.95,0.95,1.,1.,-43.2012452292583,12.,          91P     73
-2.31111593326468D-31,-43.2012452292583,2.5,                          91P     74
-2.31111593326468D-31,0.,0.95,0.,0.,0.;                               91P     75
126,1,1,0,0,1,0,0.,0.,0.5,0.5,1.,1.,-48.2012452292583,12.,0.,         93P     76
-43.2012452292583,12.,-2.31111593326468D-31,0.,0.5,0.,0.,0.;          93P     77
126,1,1,0,0,1,0,0.,0.,0.5,0.5,1.,1.,-48.2012452292583,2.5,0.,         95P     78
-43.2012452292583,2.5,-2.31111593326468D-31,0.,0.5,0.,0.,0.;          95P     79
128,1,1,1,1,0,0,1,0,0,-0.001,-0.001,0.251,0.251,-0.001,-0.001,        97P     80
0.301,0.301,1.,1.,1.,1.,-46.9612452292583,5.,-0.01,                   97P     81
-44.4412452292583,5.,-0.01,-46.9612452292583,5.,3.01,                 97P     82
-44.4412452292583,5.,3.01,-0.001,0.251,-0.001,0.301;                  97P     83
128,1,1,1,1,0,0,1,0,0,-0.001,-0.001,0.151,0.151,-0.001,-0.001,        99P     84
0.301,0.301,1.,1.,1.,1.,-44.4512452292583,5.01,-0.01,                 99P     85
-44.4512452292583,3.49,-0.01,-44.4512452292583,5.01,3.01,             99P     86
-44.4512452292583,3.49,3.01,-0.001,0.151,-0.001,0.301;                99P     87
128,1,1,1,1,0,0,1,0,0,-0.001,-0.001,0.251,0.251,-0.001,-0.001,       101P     88
0.301,0.301,1.,1.,1.,1.,-44.4412452292583,3.5,-0.01,                 101P     89
-46.9612452292583,3.5,-0.01,-44.4412452292583,3.5,3.01,              101P     90
-46.9612452292583,3.5,3.01,-0.001,0.251,-0.001,0.301;                101P     91
128,1,1,1,1,0,0,1,0,0,-0.001,-0.001,0.151,0.151,-0.001,-0.001,       103P     92
0.301,0.301,1.,1.,1.,1.,-46.9512452292583,3.49,-0.01,                103P     93
-46.9512452292583,5.01,-0.01,-46.9512452292583,3.49,3.01,            103P     94
-46.9512452292583,5.01,3.01,-0.001,0.151,-0.001,0.301;               103P     95
128,1,1,1,1,0,0,1,0,0,-0.001,-0.001,0.301,0.301,-0.001,-0.001,       105P     96
0.951,0.951,1.,1.,1.,1.,-48.2012452292583,12.01,3.01,                105P     97
-48.2012452292583,12.01,-0.01,-48.2012452292583,2.49,3.01,           105P     98
-48.2012452292583,2.49,-0.01,-0.001,0.301,-0.001,0.951;              105P     99
128,1,1,1,1,0,0,1,0,0,-0.001,-0.001,0.501,0.501,-0.001,-0.001,       107P    100
0.951,0.951,1.,1.,1.,1.,-43.1912452292583,12.01,3.,                  107P    101
-48.2112452292583,12.01,3.,-43.1912452292583,2.49,3.,                107P    102
-48.2112452292583,2.49,3.,-0.001,0.501,-0.001,0.951;                 107P    103
128,1,1,1,1,0,0,1,0,0,-0.001,-0.001,0.301,0.301,-0.001,-0.001,       109P    104
0.951,0.951,1.,1.,1.,1.,-43.2012452292583,12.01,-0.01,               109P    105
-43.2012452292583,12.01,3.01,-43.2012452292583,2.49,-0.01,           109P    106
-43.2012452292583,2.49,3.01,-0.001,0.301,-0.001,0.951;               109P    107
128,1,1,1,1,0,0,1,0,0,-0.001,-0.001,0.501,0.501,-0.001,-0.001,       111P    108
0.951,0.951,1.,1.,1.,1.,-48.2112452292583,12.01,                     111P    109
4.62223186652937D-34,-43.1912452292583,12.01,                        111P    110
-2.31573816513121D-31,-48.2112452292583,2.49,                        111P    111
4.62223186652937D-34,-43.1912452292583,2.49,                         111P    112
-2.31573816513121D-31,-0.001,0.501,-0.001,0.951;                     111P    113
128,1,1,1,1,0,0,1,0,0,-0.251,-0.251,0.251,0.251,-0.151,-0.151,       113P    114
0.151,0.151,1.,1.,1.,1.,-43.1912452292583,12.,-0.01,                 113P    115
-48.2112452292583,12.,-0.01,-43.1912452292583,12.,3.01,              113P    116
-48.2112452292583,12.,3.01,-0.251,0.251,-0.151,0.151;                113P    117
128,1,1,1,1,0,0,1,0,0,-0.151,-0.151,0.151,0.151,-0.251,-0.251,       115P    118
0.251,0.251,1.,1.,1.,1.,-48.2112452292583,2.5,3.01,                  115P    119
-48.2112452292583,2.5,-0.01,-43.1912452292583,2.5,3.01,              115P    120
-43.1912452292583,2.5,-0.01,-0.151,0.151,-0.251,0.251;               115P    121
502,16,-46.9512452292583,5.,3.,-44.4512452292583,5.,3.,              117P    122
-46.9512452292583,5.,-5.77778983316171D-32,-44.4512452292583,5.,     117P    123
-1.73333694994851D-31,-44.4512452292583,3.5,3.,                      117P    124
-44.4512452292583,3.5,-1.73333694994851D-31,-46.9512452292583,       117P    125
3.5,3.,-46.9512452292583,3.5,-5.77778983316171D-32,                  117P    126
-48.2012452292583,12.,3.,-48.2012452292583,12.,0.,                   117P    127
-48.2012452292583,2.5,0.,-48.2012452292583,2.5,3.,                   117P    128
-43.2012452292583,12.,3.,-43.2012452292583,2.5,3.,                   117P    129
-43.2012452292583,12.,-2.31111593326468D-31,-43.2012452292583,       117P    130
2.5,-2.31111593326468D-31;                                           117P    131
504,24,49,117,1,117,2,51,117,3,117,1,53,117,4,117,3,55,117,4,        119P    132
117,2,57,117,2,117,5,59,117,6,117,4,61,117,6,117,5,63,117,5,117,     119P    133
7,65,117,8,117,6,67,117,8,117,7,69,117,7,117,1,71,117,3,117,8,       119P    134
73,117,9,117,10,75,117,10,117,11,77,117,12,117,11,79,117,9,117,      119P    135
12,81,117,13,117,9,83,117,14,117,12,85,117,13,117,14,87,117,15,      119P    136
117,13,89,117,16,117,14,91,117,15,117,16,93,117,10,117,15,95,        119P    137
117,11,117,16;                                                       119P    138
406,1,5HBody1;                                                       121P    139
314,62.7450980392157,62.7450980392157,62.7450980392157,13HSteel      123P    140
- Satin;                                                             123P    141
S      1G      3D    124P    141                                        T      1
