0
SECTION
2
HEADER
9
$INSUNITS
70
4
9
$ACADVER
1
AC1014
9
$HANDSEED
5
FFFF
0
ENDSEC
0
SECTION
2
TABLES
0
TABLE
2
VPORT
5
8
100
AcDbSymbolTable
0
ENDTAB
0
TABLE
2
LTYPE
5
5
100
AcDbSymbolTable
0
LTYPE
5
14
100
AcDbSymbolTableRecord
100
AcDbLinetypeTableRecord
2
BYBLOCK
70
0
0
LTYPE
5
15
100
AcDbSymbolTableRecord
100
AcDbLinetypeTableRecord
2
BYLAYER
70
0
0
LTYPE
5
16
100
AcDbSymbolTableRecord
100
AcDbLinetypeTableRecord
2
DASHED
70
0
3
Dashed __ __ __ __ __ __ __ __ __ __ __ __ __ _
72
65
73
2
40
0.75
49
0.5
74
0
49
-0.25
74
0
0
ENDTAB
0
TABLE
2
LAYER
5
2
100
AcDbSymbolTable
70
2
0
LAYER
5
50
100
AcDbSymbolTableRecord
100
AcDbLayerTableRecord
2
0
70
0
62
7
6
CONTINUOUS
0
ENDTAB
0
TABLE
2
STYLE
5
3
100
AcDbSymbolTable
70
1
0
STYLE
5
11
100
AcDbSymbolTableRecord
100
AcDbTextStyleTableRecord
2
STANDARD
70
0
0
ENDTAB
0
TABLE
2
VIEW
5
6
100
AcDbSymbolTable
70
0
0
ENDTAB
0
TABLE
2
UCS
5
7
100
AcDbSymbolTable
70
0
0
ENDTAB
0
TABLE
2
APPID
5
9
100
AcDbSymbolTable
70
2
0
APPID
5
12
100
AcDbSymbolTableRecord
100
AcDbRegAppTableRecord
2
ACAD
70
0
0
ENDTAB
0
TABLE
2
DIMSTYLE
5
A
100
AcDbSymbolTable
70
1
0
ENDTAB
0
TABLE
2
BLOCK_RECORD
5
1
100
AcDbSymbolTable
70
1
0
BLOCK_RECORD
5
1F
100
AcDbSymbolTableRecord
100
AcDbBlockTableRecord
2
*MODEL_SPACE
0
BLOCK_RECORD
5
1B
100
AcDbSymbolTableRecord
100
AcDbBlockTableRecord
2
*PAPER_SPACE
0
ENDTAB
0
ENDSEC
0
SECTION
2
BLOCKS
0
BLOCK
5
20
100
AcDbEntity
100
AcDbBlockBegin
2
*MODEL_SPACE
0
ENDBLK
5
21
100
AcDbEntity
100
AcDbBlockEnd
0
BLOCK
5
1C
100
AcDbEntity
100
AcDbBlockBegin
2
*PAPER_SPACE
0
ENDBLK
5
1D
100
AcDbEntity
100
AcDbBlockEnd
0
ENDSEC
0
SECTION
2
ENTITIES
0
ARC
5
100
100
AcDbEntity
8
0
100
AcDbCircle
10
63.683769999353004
20
-34.725705496449699
30
0
40
92.684948022256904
210
0
220
0
230
1
100
AcDbArc
50
109.26330377256858
51
111.54143911803654
0
LINE
5
101
100
AcDbEntity
8
0
100
AcDbLine
10
29.65226184935873
20
51.485407725253523
30
0
11
29.173769946410999
21
52.771870712857101
31
0
0
ARC
5
102
100
AcDbEntity
8
0
100
AcDbCircle
10
29.1046464636681
20
52.746160663586501
30
0
40
0.073750000000033331
210
0
220
-0
230
1
100
AcDbArc
50
20.40237125484413
51
111.56973404113073
0
ARC
5
103
100
AcDbEntity
8
0
100
AcDbCircle
10
63.683769999353004
20
-34.725705496449699
30
0
40
94.132471839154519
210
0
220
0
230
1
100
AcDbArc
50
111.56973404110106
51
113.33461361430756
0
ARC
5
104
100
AcDbEntity
8
0
100
AcDbCircle
10
26.427083604952905
20
51.639695405327899
30
0
40
0.073750000000053717
210
0
220
0
230
1
100
AcDbArc
50
113.33461361430204
51
204.50197604562885
0
LINE
5
105
100
AcDbEntity
8
0
100
AcDbLine
10
26.359975016049152
20
51.609109464189082
30
0
11
26.446705502081805
21
51.418814174397099
31
0
0
ARC
5
106
100
AcDbEntity
8
0
100
AcDbCircle
10
26.0156181259036
20
51.222338383013508
30
0
40
0.473750000000003
210
0
220
0
230
1
100
AcDbArc
50
-65.858050339550417
51
24.501976045673828
0
ARC
5
107
100
AcDbEntity
8
0
100
AcDbCircle
10
64.709438822517711
20
-35.109146881957997
30
0
40
94.132471297321217
210
0
220
0
230
1
100
AcDbArc
50
114.14194966045338
51
115.79995820921837
0
ARC
5
108
100
AcDbEntity
8
0
100
AcDbCircle
10
23.533931245901201
20
50.066640076341997
30
0
40
0.4737500000000025
210
0
220
0
230
1
100
AcDbArc
50
204.50197604567373
51
295.79995820922142
0
LINE
5
109
100
AcDbEntity
8
0
100
AcDbLine
10
23.10284386972301
20
49.870164284958413
30
0
11
23.006820442921804
21
50.08084920863201
31
0
0
ARC
5
110
100
AcDbEntity
8
0
100
AcDbCircle
10
22.9397118540181
20
50.0502632674932
30
0
40
0.073749999999952895
210
0
220
-0
230
1
100
AcDbArc
50
24.501976045639854
51
115.66933881146586
0
ARC
5
111
100
AcDbEntity
8
0
100
AcDbCircle
10
63.683769999353004
20
-34.725705496449699
30
0
40
94.132471839154576
210
0
220
0
230
1
100
AcDbArc
50
115.66933881146534
51
117.43421838381622
0
ARC
5
112
100
AcDbEntity
8
0
100
AcDbCircle
10
20.348101965905599
20
48.755208670264508
30
0
40
0.073749999999945595
210
0
220
0
230
1
100
AcDbArc
50
117.43421838386008
51
208.60158083655534
0
LINE
5
113
100
AcDbEntity
8
0
100
AcDbLine
10
20.283351695545022
20
48.719903359216012
30
0
11
20.383464570709702
21
48.536295410695509
31
0
0
ARC
5
114
100
AcDbEntity
8
0
100
AcDbCircle
10
19.967526393308603
20
48.309503666841707
30
0
40
0.47374999999999556
210
0
220
0
230
1
100
AcDbArc
50
-61.758445548684008
51
28.601580836538695
0
ARC
5
115
100
AcDbEntity
8
0
100
AcDbCircle
10
64.734226882151603
20
-35.034840085448508
30
0
40
94.132471297321118
210
0
220
0
230
1
100
AcDbArc
50
118.24155445131873
51
119.89956300008382
0
ARC
5
116
100
AcDbEntity
8
0
100
AcDbCircle
10
17.5748109889849
20
46.979345277652101
30
0
40
0.47374999999999506
210
0
220
0
230
1
100
AcDbArc
50
208.60158083653795
51
299.89956300007645
0
LINE
5
117
100
AcDbEntity
8
0
100
AcDbLine
10
17.158872811583802
20
46.752553533798306
30
0
11
17.048033106604802
21
46.955834588431202
31
0
0
ARC
5
118
100
AcDbEntity
8
0
100
AcDbCircle
10
16.9832828362442
20
46.920529277382698
30
0
40
0.073750000000018676
210
0
220
-0
230
1
100
AcDbArc
50
28.601580836550934
51
119.76894358094114
0
ARC
5
119
100
AcDbEntity
8
0
100
AcDbCircle
10
63.683769999353004
20
-34.725705496449699
30
0
40
94.132471839154533
210
0
220
0
230
1
100
AcDbArc
50
119.76894358097397
51
121.53382315257838
0
ARC
5
120
100
AcDbEntity
8
0
100
AcDbCircle
10
14.490888346783301
20
45.443512715603006
30
0
40
0.073750000000025684
210
0
220
0
230
1
100
AcDbArc
50
121.53382315254261
51
212.70118562743599
0
LINE
5
121
100
AcDbEntity
8
0
100
AcDbLine
10
14.428827751097684
20
45.403668707732983
30
0
11
14.541810691944102
21
45.227687701150401
31
0
0
ARC
5
122
100
AcDbEntity
8
0
100
AcDbCircle
10
14.143150255251699
20
44.971740599748308
30
0
40
0.47374999999999967
210
0
220
0
230
1
100
AcDbArc
50
-57.658840757823917
51
32.701185627406289
0
ARC
5
123
100
AcDbEntity
8
0
100
AcDbCircle
10
64.7536392811718
20
-34.9589513071464
30
0
40
94.132471297321146
210
0
220
0
230
1
100
AcDbArc
50
122.34115924218419
51
123.99916779094917
0
ARC
5
124
100
AcDbEntity
8
0
100
AcDbCircle
10
11.8516509229073
20
43.473929144229004
30
0
40
0.47374999999999734
210
0
220
0
230
1
100
AcDbArc
50
212.70118562740112
51
303.99916779095452
0
LINE
5
125
100
AcDbEntity
8
0
100
AcDbLine
10
11.452990486214796
20
43.217982042826897
30
0
11
11.3279017202942
21
43.412818951602397
31
0
0
ARC
5
126
100
AcDbEntity
8
0
100
AcDbCircle
10
11.265841124608603
20
43.372974943732402
30
0
40
0.073749999999967397
210
0
220
-0
230
1
100
AcDbArc
50
32.701185627425602
51
123.86854834975593
0
ARC
5
127
100
AcDbEntity
8
0
100
AcDbCircle
10
63.683769999353004
20
-34.725705496449699
30
0
40
94.132471839154519
210
0
220
0
230
1
100
AcDbArc
50
123.86854834973619
51
125.63342792070728
0
ARC
5
128
100
AcDbEntity
8
0
100
AcDbCircle
10
8.8854167322229607
20
41.721554972623103
30
0
40
0.073750000000072799
210
0
220
0
230
1
100
AcDbArc
50
125.63342792072454
51
216.80079041826869
0
LINE
5
129
100
AcDbEntity
8
0
100
AcDbLine
10
8.8263634030742182
20
41.677376167564006
30
0
11
8.9516382248654107
21
41.509922673170209
31
0
0
ARC
5
130
100
AcDbEntity
8
0
100
AcDbCircle
10
8.5722956528760292
20
41.226130010163502
30
0
40
0.47374999999999934
210
0
220
0
230
1
100
AcDbArc
50
-53.559235966950936
51
36.800790418265144
0
ARC
5
131
100
AcDbEntity
8
0
100
AcDbCircle
10
64.767576677638601
20
-34.881868903916903
30
0
40
94.13247129732116
210
0
220
0
230
1
100
AcDbArc
50
126.44076403304956
51
128.09877258181456
0
ARC
5
132
100
AcDbEntity
8
0
100
AcDbCircle
10
6.3937390208417311
20
39.568330460326798
30
0
40
0.47375000000000139
210
0
220
0
230
1
100
AcDbArc
50
216.80079041827278
51
308.09877258181666
0
LINE
5
133
100
AcDbEntity
8
0
100
AcDbLine
10
6.0143964488523505
20
39.284537797320013
30
0
11
5.8756987574523496
21
39.4699334958107
31
0
0
ARC
5
134
100
AcDbEntity
8
0
100
AcDbCircle
10
5.8166454283036098
20
39.425754690751603
30
0
40
0.073749999999994043
210
0
220
-0
230
1
100
AcDbArc
50
36.800790418269955
51
127.96815311787358
0
ARC
5
135
100
AcDbEntity
8
0
100
AcDbCircle
10
63.683769999353004
20
-34.725705496449699
30
0
40
94.132471839154562
210
0
220
0
230
1
100
AcDbArc
50
127.96815311786507
51
129.7330326883193
0
ARC
5
136
100
AcDbEntity
8
0
100
AcDbCircle
10
3.5603728302963198
20
37.6083823658253
30
0
40
0.073750000000027946
210
0
220
0
230
1
100
AcDbArc
50
129.73303268837114
51
220.90039520916145
0
LINE
5
137
100
AcDbEntity
8
0
100
AcDbLine
10
3.5046289700167579
20
37.560094846308012
30
0
11
3.6415545855441502
21
37.4020257954028
31
0
0
ARC
5
138
100
AcDbEntity
8
0
100
AcDbCircle
10
3.28347114408716
20
37.091839864944504
30
0
40
0.47374999999999839
210
0
220
0
230
1
100
AcDbArc
50
-49.459631176082802
51
40.900395209130401
0
ARC
5
139
100
AcDbEntity
8
0
100
AcDbCircle
10
64.775967747652402
20
-34.803987340938697
30
0
40
94.132471297321132
210
0
220
0
230
1
100
AcDbArc
50
130.54036882391495
51
132.19837737268003
0
ARC
5
140
100
AcDbEntity
8
0
100
AcDbCircle
10
1.2290058623148501
20
35.282535923531803
30
0
40
0.47374999999999956
210
0
220
0
230
1
100
AcDbArc
50
220.90039520913979
51
312.19837737267864
0
LINE
5
141
100
AcDbEntity
8
0
100
AcDbLine
10
0.87092242085788008
20
34.972349993073422
30
0
11
0.719325581825494
21
35.147355731581598
31
0
0
ARC
5
142
100
AcDbEntity
8
0
100
AcDbCircle
10
0.66358172154592898
20
35.09906821206441
30
0
40
0.073749999999939295
210
0
220
-0
230
1
100
AcDbArc
50
40.900395209101447
51
132.06775788552662
0
ARC
5
143
100
AcDbEntity
8
0
100
AcDbCircle
10
63.683769999353004
20
-34.725705496449699
30
0
40
94.132471839154576
210
0
220
0
230
1
100
AcDbArc
50
132.06775788547708
51
133.8326374555333
0
ARC
5
144
100
AcDbEntity
8
0
100
AcDbCircle
10
-1.45699272509239
20
33.125043841291301
30
0
40
0.07375000000001132
210
0
220
0
230
1
100
AcDbArc
50
133.83263745558156
51
225.00000000000045
0
LINE
5
145
100
AcDbEntity
8
0
100
AcDbLine
10
-1.5091418502048961
20
33.072894716178794
30
0
11
-1.36126614991812
21
32.925019015891998
31
0
0
ARC
5
146
100
AcDbEntity
8
0
100
AcDbCircle
10
-1.6962579875052399
20
32.590027178304901
30
0
40
0.47374999999999828
210
0
220
0
230
1
100
AcDbArc
50
-45.360026385222348
51
44.999999999998046
0
ARC
5
147
100
AcDbEntity
8
0
100
AcDbCircle
10
64.77876955035012
20
-34.725705173048702
30
0
40
94.132471297321146
210
0
220
0
230
1
100
AcDbArc
50
134.63997361478039
51
136.2979821635455
0
ARC
5
148
100
AcDbEntity
8
0
100
AcDbCircle
10
-3.6161183000772001
20
30.6384778638804
30
0
40
0.47374999999999767
210
0
220
0
230
1
100
AcDbArc
50
224.99999999999707
51
316.2979821635451
0
LINE
5
149
100
AcDbEntity
8
0
100
AcDbLine
10
-3.951110137664342
20
30.303486026293292
30
0
11
-4.1148303363179197
21
30.467206224946899
31
0
0
ARC
5
150
100
AcDbEntity
8
0
100
AcDbCircle
10
-4.1669794614304205
20
30.415057099834399
30
0
40
0.073749999999990073
210
0
220
-0
230
1
100
AcDbArc
50
44.99999999999951
51
136.16736265268551
0
ARC
5
151
100
AcDbEntity
8
0
100
AcDbCircle
10
63.683769999353004
20
-34.725705496449699
30
0
40
94.132471839154533
210
0
220
0
230
1
100
AcDbArc
50
136.16736265269103
51
137.93224222247036
0
ARC
5
152
100
AcDbEntity
8
0
100
AcDbCircle
10
-6.1410038278934698
20
28.294482649804902
30
0
40
0.073750000000008489
210
0
220
0
230
1
100
AcDbArc
50
137.93224222247144
51
229.09960479087457
0
LINE
5
153
100
AcDbEntity
8
0
100
AcDbLine
10
-6.189291347410725
20
28.238738789525307
30
0
11
-6.0312223073066811
21
28.101813183354203
31
0
0
ARC
5
154
100
AcDbEntity
8
0
100
AcDbCircle
10
-6.3414082377650205
20
27.743729741897205
30
0
40
0.47374999999999856
210
0
220
0
230
1
100
AcDbArc
50
-41.260421594351108
51
49.099604790866223
0
ARC
5
155
100
AcDbEntity
8
0
100
AcDbCircle
10
64.775967747652402
20
-34.647423005158799
30
0
40
94.132471297321146
210
0
220
0
230
1
100
AcDbArc
50
138.73957840564577
51
140.3975869544108
0
ARC
5
156
100
AcDbEntity
8
0
100
AcDbCircle
10
-8.1168387961084605
20
25.659922006303599
30
0
40
0.47375000000000012
210
0
220
0
230
1
100
AcDbArc
50
229.09960479086516
51
320.39758695441435
0
LINE
5
157
100
AcDbEntity
8
0
100
AcDbLine
10
-8.4270247265668115
20
25.301838564846602
30
0
11
-8.6020304566794508
21
25.453435396606405
31
0
0
ARC
5
158
100
AcDbEntity
8
0
100
AcDbCircle
10
-8.6503179761967104
20
25.3976915363268
30
0
40
0.07375000000001207
210
0
220
-0
230
1
100
AcDbArc
50
49.099604790877386
51
140.26696741957591
0
ARC
5
159
100
AcDbEntity
8
0
100
AcDbCircle
10
63.683769999353004
20
-34.725705496449699
30
0
40
94.132471839154519
210
0
220
0
230
1
100
AcDbArc
50
140.26696741962814
51
142.03184698925298
0
ARC
5
160
100
AcDbEntity
8
0
100
AcDbCircle
10
-10.467690296034499
20
23.1414189359689
30
0
40
0.073750000000074506
210
0
220
0
230
1
100
AcDbArc
50
142.03184698922573
51
233.19920958170536
0
LINE
5
161
100
AcDbEntity
8
0
100
AcDbLine
10
-10.511869101093625
20
23.082365606820176
30
0
11
-10.344415629525901
21
22.957090802105601
31
0
0
ARC
5
162
100
AcDbEntity
8
0
100
AcDbCircle
10
-10.628208292532699
20
22.5777482301162
30
0
40
0.47374999999999656
210
0
220
0
230
1
100
AcDbArc
50
-37.160816803493958
51
53.199209581727509
0
ARC
5
163
100
AcDbEntity
8
0
100
AcDbCircle
10
64.767576677638601
20
-34.569541442180508
30
0
40
94.132471297321132
210
0
220
0
230
1
100
AcDbArc
50
142.83918319651124
51
144.49719174527621
0
ARC
5
164
100
AcDbEntity
8
0
100
AcDbCircle
10
-12.2501234233546
20
20.372345850769001
30
0
40
0.47374999999999612
210
0
220
0
230
1
100
AcDbArc
50
233.1992095817269
51
324.49719174528371
0
LINE
5
165
100
AcDbEntity
8
0
100
AcDbLine
10
-12.533916086361385
20
19.993003278779625
30
0
11
-12.7193117671097
21
20.131700956906201
31
0
0
ARC
5
166
100
AcDbEntity
8
0
100
AcDbCircle
10
-12.763490572168701
20
20.072647627757505
30
0
40
0.073749999999902172
210
0
220
-0
230
1
100
AcDbArc
50
53.199209581769459
51
144.3665721864671
0
ARC
5
167
100
AcDbEntity
8
0
100
AcDbCircle
10
63.683769999353004
20
-34.725705496449699
30
0
40
94.132471839154533
210
0
220
0
230
1
100
AcDbArc
50
144.36657218641076
51
146.13145175600437
0
ARC
5
168
100
AcDbEntity
8
0
100
AcDbCircle
10
-14.414910537567502
20
17.6922232341621
30
0
40
0.073749999999976779
210
0
220
0
230
1
100
AcDbArc
50
146.13145175602767
51
237.29881437267969
0
LINE
5
169
100
AcDbEntity
8
0
100
AcDbLine
10
-14.454754545437398
20
17.630162638476406
30
0
11
-14.2787735746841
21
17.517179720632999
31
0
0
ARC
5
170
100
AcDbEntity
8
0
100
AcDbCircle
10
-14.534720676086202
20
17.1185192839405
30
0
40
0.47374999999999856
210
0
220
0
230
1
100
AcDbArc
50
-33.061212012630556
51
57.298814372599075
0
ARC
5
171
100
AcDbEntity
8
0
100
AcDbCircle
10
64.7536392811718
20
-34.492459038950997
30
0
40
94.132471297321104
210
0
220
0
230
1
100
AcDbArc
50
146.93878798737666
51
148.59679653614165
0
ARC
5
172
100
AcDbEntity
8
0
100
AcDbCircle
10
-15.994820313288201
20
14.802808292503499
30
0
40
0.47374999999999923
210
0
220
0
230
1
100
AcDbArc
50
237.29881437259931
51
328.59679653614535
0
LINE
5
173
100
AcDbEntity
8
0
100
AcDbLine
10
-16.250767414690305
20
14.404147855810994
30
0
11
-16.445604295616199
21
14.5292366038517
31
0
0
ARC
5
174
100
AcDbEntity
8
0
100
AcDbCircle
10
-16.485448303486201
20
14.467176008166
30
0
40
0.073750000000059338
210
0
220
-0
230
1
100
AcDbArc
50
57.298814372612995
51
148.4661769531414
0
ARC
5
175
100
AcDbEntity
8
0
100
AcDbCircle
10
63.683769999353004
20
-34.725705496449699
30
0
40
94.132471839154562
210
0
220
0
230
1
100
AcDbArc
50
148.4661769531622
51
150.23105652284798
0
ARC
5
176
100
AcDbEntity
8
0
100
AcDbCircle
10
-17.962464859102305
20
11.974781518713399
30
0
40
0.073750000000038063
210
0
220
0
230
1
100
AcDbArc
50
150.23105652289146
51
241.39841916345347
0
LINE
5
177
100
AcDbEntity
8
0
100
AcDbLine
10
-17.997770170150794
20
11.910031248352812
30
0
11
-17.814162271175
21
11.809918400202502
31
0
0
ARC
5
178
100
AcDbEntity
8
0
100
AcDbCircle
10
-18.040954015028802
20
11.393980222801401
30
0
40
0.47374999999999901
210
0
220
0
230
1
100
AcDbArc
50
-28.961607221753258
51
61.398419163461412
0
ARC
5
179
100
AcDbEntity
8
0
100
AcDbCircle
10
64.734226882151603
20
-34.416570260648903
30
0
40
94.132471297321075
210
0
220
0
230
1
100
AcDbArc
50
151.03839277824196
51
152.69640132700701
0
ARC
5
180
100
AcDbEntity
8
0
100
AcDbCircle
10
-19.331766174862103
20
8.9798111495080999
30
0
40
0.4737499999999979
210
0
220
0
230
1
100
AcDbArc
50
241.39841916346222
51
332.69640132700965
0
LINE
5
181
100
AcDbEntity
8
0
100
AcDbLine
10
-19.558557918715898
20
8.5638729721069975
30
0
11
-19.761838934838401
21
8.6747126560880599
31
0
0
ARC
5
182
100
AcDbEntity
8
0
100
AcDbCircle
10
-19.797144245886901
20
8.6099623857274601
30
0
40
0.073750000000013624
210
0
220
-0
230
1
100
AcDbArc
50
61.398419163450825
51
152.56578171999533
0
ARC
5
183
100
AcDbEntity
8
0
100
AcDbCircle
10
63.683769999353004
20
-34.725705496449699
30
0
40
94.132471839154604
210
0
220
0
230
1
100
AcDbArc
50
152.56578172000573
51
154.33653166933402
0
SPLINE
5
184
100
AcDbEntity
8
0
100
AcDbSpline
70
0
71
3
72
9
73
5
74
0
42
0.000000001
43
0.0000000001
44
0.0000000001
40
-0.041691533013733899
40
-0.041691533013733899
40
-0.041691533013733899
40
-0.041691533013733899
40
-0.021523183521231198
40
6.8614337921370997e-12
40
6.8614337921370997e-12
40
6.8614337921370997e-12
40
6.8614337921370997e-12
10
-21.167391018322263
20
6.043672571878222
30
0
10
-21.173454797074314
20
6.0288587210102484
30
0
10
-21.174299625334321
20
5.9928917475088417
30
0
10
-21.146182714629699
20
5.9619079386694809
30
0
10
-21.127628152497699
20
5.95345136471781
30
0
0
LINE
5
185
100
AcDbEntity
8
0
100
AcDbLine
10
-21.127628152497699
20
5.95345136471781
30
0
11
-19.691795708364303
21
5.2990450161727098
31
0
0
ARC
5
186
100
AcDbEntity
8
0
100
AcDbCircle
10
63.683769999353004
20
-34.725705496449699
30
0
40
92.484948022256873
210
0
220
0
230
1
100
AcDbArc
50
154.35649263915474
51
156.63955513557676
0
LINE
5
187
100
AcDbEntity
8
0
100
AcDbLine
10
-21.220055957662556
20
1.9458904401928017
30
0
11
-22.6200937902825
21
2.5839827535646704
31
0
0
ARC
5
188
100
AcDbEntity
8
0
100
AcDbCircle
10
-22.650679731421398
20
2.51687416466094
30
0
40
0.073750000000013971
210
0
220
-0
230
1
100
AcDbArc
50
65.498023954305935
51
161.94396910458744
0
ARC
5
189
100
AcDbEntity
8
0
100
AcDbCircle
10
-15.623420215171603
20
0.22597908767148803
30
0
40
7.4649999999998551
210
0
220
0
230
1
100
AcDbArc
50
161.94396910457939
51
205.11483197687835
0
ARC
5
190
100
AcDbEntity
8
0
100
AcDbCircle
10
-78.688784478440994
20
-29.335906504897302
30
0
40
62.185163312421601
210
0
220
-0
230
1
100
AcDbArc
50
11.707029234854607
51
25.114831976877603
0
ARC
5
191
100
AcDbEntity
8
0
100
AcDbCircle
10
-31.639864593879203
20
-19.779002936257001
30
0
40
14.177044718251796
210
0
220
0
230
1
100
AcDbArc
50
-49.192319133998481
51
12.468764219397992
0
LINE
5
192
100
AcDbEntity
8
0
100
AcDbLine
10
-22.374852867563568
20
-30.509713754024155
30
0
11
-28.537252786116699
21
-35.077107389025997
31
0
0
ARC
5
193
100
AcDbEntity
8
0
100
AcDbCircle
10
-37.608341451789201
20
-21.636703028495702
30
0
40
16.215089236728105
210
0
220
0
230
1
100
AcDbArc
50
230.43550124419133
51
304.01588156662348
0
LINE
5
194
100
AcDbEntity
8
0
100
AcDbLine
10
-47.936484927857812
20
-34.137045875505819
30
0
11
-56.067907050041597
21
-27.418630599201599
31
0
0
ARC
5
195
100
AcDbEntity
8
0
100
AcDbCircle
10
-25.415140403777002
20
3.6767316114693704
30
0
40
43.663642244814788
210
0
220
0
230
1
100
AcDbArc
50
216.5585087641505
51
225.41067517460681
0
ARC
5
196
100
AcDbEntity
8
0
100
AcDbCircle
10
-61.206826389861497
20
-22.864327391044405
30
0
40
0.89500000000001667
210
0
220
-0
230
1
100
AcDbArc
50
36.558508764150851
51
66.576044572231325
0
ARC
5
197
100
AcDbEntity
8
0
100
AcDbCircle
10
-63.9800126413664
20
-29.265438641319502
30
0
40
7.8710151393137213
210
0
220
-0
230
1
100
AcDbArc
50
66.576044572232419
51
88.925963765289268
0
LINE
5
198
100
AcDbEntity
8
0
100
AcDbLine
10
-63.832475415304103
20
-21.395806369717963
30
0
11
-69.665890289946404
21
-21.395786671508901
31
0
0
ARC
5
199
100
AcDbEntity
8
0
100
AcDbCircle
10
-69.665908102506407
20
-26.670786671478801
30
0
40
5.2749999999999719
210
0
220
-0
230
1
100
AcDbArc
50
89.99980652426342
51
179.99980652464376
0
LINE
5
200
100
AcDbEntity
8
0
100
AcDbLine
10
-74.940908102476371
20
-26.670768858918699
30
0
11
-74.940996039262998
21
-52.712311823089699
31
0
0
LINE
5
201
100
AcDbEntity
8
0
100
AcDbLine
10
-74.940996039262998
20
-52.712311823089699
30
0
11
-34.5949110985865
21
-52.712311823089699
31
0
0
ARC
5
202
100
AcDbEntity
8
0
100
AcDbCircle
10
-32.6517903715947
20
-53.942873418596101
30
0
40
2.3000000000000025
210
0
220
-0
230
1
100
AcDbArc
50
32.345727629324514
51
147.65427237067684
0
LINE
5
203
100
AcDbEntity
8
0
100
AcDbLine
10
-30.708669644603003
20
-52.712311823089699
30
0
11
45.42582569112669
21
-52.712311823089699
31
0
0
ARC
5
204
100
AcDbEntity
8
0
100
AcDbCircle
10
47.351040820343499
20
-53.970702345238806
30
0
40
2.3000000000000025
210
0
220
-0
230
1
100
AcDbArc
50
33.170088593925762
51
146.82991140607425
0
LINE
5
205
100
AcDbEntity
8
0
100
AcDbLine
10
49.276255949560309
20
-52.712311823089699
30
0
11
104.28772123002268
21
-52.712311822239435
31
7.4816462053428457e-10
0
ARC
5
206
100
AcDbEntity
8
0
100
AcDbCircle
10
110.852763864134
20
-57.5226617875364
30
0
40
8.1387500000000408
210
0
220
0
230
1
100
AcDbArc
50
96.384266711151938
51
143.7689532950759
0
ARC
5
207
100
AcDbEntity
8
0
100
AcDbCircle
10
109.858810247018
20
-48.639345527854907
30
0
40
0.79999999999993621
210
0
220
0
230
1
100
AcDbArc
50
-83.615733288897161
51
0
0
LINE
5
208
100
AcDbEntity
8
0
100
AcDbLine
10
110.65881024701802
20
-48.639345527854907
30
0
11
110.65881024701801
21
-12.1120286737625
31
0
0
ARC
5
209
100
AcDbEntity
8
0
100
AcDbCircle
10
100.858810247018
20
-12.1120286737625
30
0
40
9.8000000000000043
210
0
220
0
230
1
100
AcDbArc
50
0
51
39.46572222424453
0
LINE
5
210
100
AcDbEntity
8
0
100
AcDbLine
10
108.42445910455606
20
-5.8829872254790496
30
0
11
61.480615798298146
21
51.133912953930107
31
8.0028576358396695e-15
0
ARC
5
211
100
AcDbEntity
8
0
100
AcDbCircle
10
54.660916756877604
20
45.51903592262191
30
0
40
8.8337500016847095
210
-6.9939108435793015e-16
220
-5.7583111976230026e-16
230
1
100
AcDbArc
50
39.465722226432653
51
89.999999999999375
0
LINE
5
212
100
AcDbEntity
8
0
100
AcDbLine
10
54.660916756877704
20
54.352785922622211
30
0
11
33.254431836133598
21
54.352785922622211
31
0
0
ARC
5
213
100
AcDbEntity
8
0
100
AcDbCircle
10
63.683769999353004
20
-34.725705496449699
30
0
40
94.132471839154576
210
0
220
0
230
1
100
AcDbArc
50
108.8602393388782
51
109.23500884394326
0
ARC
5
214
100
AcDbEntity
8
0
100
AcDbCircle
10
32.696724393014399
20
54.082211710329503
30
0
40
0.07374999999998888
210
0
220
0
230
1
100
AcDbArc
50
109.23500884394832
51
200.40237125484239
0
LINE
5
215
100
AcDbEntity
8
0
100
AcDbLine
10
32.627600910271532
20
54.056501661058917
30
0
11
33.106092813325411
21
52.770038673170063
31
0
0
LINE
5
216
100
AcDbEntity
8
0
100
AcDbLine
10
90.791619904389819
20
-37.395120100985103
30
0
11
30.650476780461304
21
-37.377822323247003
31
0
0
ARC
5
217
100
AcDbEntity
8
0
100
AcDbCircle
10
30.655366315214199
20
-20.377823026410201
30
0
40
17
210
0
220
0
230
1
100
AcDbArc
50
139.24828560931917
51
269.98352060535376
0
LINE
5
218
100
AcDbEntity
8
0
100
AcDbLine
10
17.777093625724262
20
-9.2805218889652235
30
0
11
38.899085970979108
21
15.231273708765102
31
1.3877787807814413e-15
0
ARC
5
219
100
AcDbEntity
8
0
100
AcDbCircle
10
46.474540494208505
20
8.7034495102680207
30
0
40
10.000000000000004
210
0
220
-0
230
1
100
AcDbArc
50
90
51
139.24828560931908
0
LINE
5
220
100
AcDbEntity
8
0
100
AcDbLine
10
46.474540494208505
20
18.703449510268022
30
0
11
58.815292109515703
21
18.703449510268001
31
0
0
ARC
5
221
100
AcDbEntity
8
0
100
AcDbCircle
10
58.815292109515703
20
9.9434495102679694
30
0
40
8.7600000000000406
210
0
220
-0
230
1
100
AcDbArc
50
39.317756668986476
51
90
0
SPLINE
5
222
100
AcDbEntity
8
0
100
AcDbSpline
70
0
71
3
72
10
73
6
74
0
42
0.000000001
43
0.0000000001
44
0.0000000001
40
-4.5675711744344554
40
-4.5675711744344554
40
-4.5675711744344554
40
-4.5675711744344554
40
-0.76126221265157579
40
-0.76126221265157579
40
-9.9998783820165471e-07
40
-9.9998783820165471e-07
40
-9.9998783820165471e-07
40
-9.9998783820165471e-07
10
88.531602673227923
20
-12.54652627700024
30
3.6685744174938699e-17
10
84.70839984698658
20
-7.8731144599868763
30
1.5062201958344185e-16
10
80.885206544010586
20
-3.199694852233359
30
2.5243798899694461e-15
10
76.297368912456022
20
2.408402852151327
30
2.5243798899694461e-15
10
67.200390977217779
20
13.530892695881713
30
-1.3516487197160923e-16
10
65.592414786819774
20
15.493968408501022
30
4.4054785615772026e-18
0
ARC
5
223
100
AcDbEntity
8
0
100
AcDbCircle
10
80.791619904389819
20
-18.878403304064701
30
0
40
10
210
0
220
0
230
1
100
AcDbArc
50
0
51
39.285699009590381
0
LINE
5
224
100
AcDbEntity
8
0
100
AcDbLine
10
90.791619904389819
20
-18.878403304064701
30
0
11
90.791619904389819
21
-37.395120100985103
31
0
0
LWPOLYLINE
5
225
100
AcDbEntity
8
0
100
AcDbPolyline
90
6
70
1
43
0.0
10
51.7718349745547
20
40.188615806243703
42
0.22977458533218176
10
57.3249415040111
20
37.494448055371741
10
65.992712963205406
20
37.494448055371798
10
58.977638792273169
20
46.396858377656585
42
0.22977458533218154
10
53.424532262816804
20
49.091026128528597
10
44.756760803622498
20
49.091026128528597
0
SPLINE
5
226
100
AcDbEntity
8
0
100
AcDbSpline
70
0
71
3
72
14
73
10
74
0
42
0.000000001
43
0.0000000001
44
0.0000000001
40
-3.14159265358979
40
-3.14159265358979
40
-3.14159265358979
40
-3.14159265358979
40
-2.2439947525641402
40
-1.3463968515384801
40
-0.44879895051282798
40
0.44879895051282698
40
1.3463968515384801
40
2.2439947525641402
40
3.14159265358979
40
3.14159265358979
40
3.14159265358979
40
3.14159265358979
10
103.12051751868
20
-11.399901772219099
30
1.1102230215716199e-16
10
103.72642494220001
20
-11.233587699802101
30
1.1102230215716199e-16
10
105.09383598605702
20
-11.482288471744299
30
1.1102230237351603e-16
10
106.07541623543599
20
-13.320186792806901
30
1.1102230254466004e-16
10
105.257205226685
20
-15.2404030010469
30
1.1102230214397705e-16
10
103.24458510407
20
-15.7865503222905
30
1.1102230214661702e-16
10
101.55432568493701
20
-14.563510027711501
30
1.1102230255242901e-16
10
101.47017095579301
20
-12.476684615000799
30
1.1102230236807702e-16
10
102.51461009515999
20
-11.566215844636101
30
1.1102230215716199e-16
10
103.12051751868
20
-11.399901772219099
30
1.1102230215716199e-16
0
SPLINE
5
227
100
AcDbEntity
8
0
100
AcDbSpline
70
0
71
3
72
14
73
10
74
0
42
0.000000001
43
0.0000000001
44
0.0000000001
40
-3.14159265358979
40
-3.14159265358979
40
-3.14159265358979
40
-3.14159265358979
40
-2.2439947525641402
40
-1.3463968515384801
40
-0.44879895051282798
40
0.44879895051282698
40
1.3463968515384801
40
2.2439947525641402
40
3.14159265358979
40
3.14159265358979
40
3.14159265358979
40
3.14159265358979
10
69.126600973935595
20
29.4898321190907
30
0
10
69.732508397455717
20
29.656146191507702
30
0
10
71.099813781396904
20
29.407530807632504
30
0
10
72.081630239586104
20
27.5696021674988
30
0
10
71.263243730087112
20
25.6494211477108
30
0
10
69.250670891412796
20
25.103078402676804
30
0
10
67.560510655143815
20
26.326273330302605
30
0
10
67.476197019936293
20
28.413142882963601
30
0
10
68.520693550415615
20
29.323518046673701
30
0
10
69.126600973935595
20
29.4898321190907
30
0
0
CIRCLE
5
228
100
AcDbEntity
8
0
100
AcDbCircle
10
33.602754224461002
20
31.279064585017501
30
0
40
2.1000000000000001
210
0
220
0
230
1
0
CIRCLE
5
229
100
AcDbEntity
8
0
100
AcDbCircle
10
0
20
0
30
0
40
2.1019999999999999
210
0
220
0
230
1
0
CIRCLE
5
230
100
AcDbEntity
8
0
100
AcDbCircle
10
-60.730597806310804
20
-40.5523389685385
30
0
40
2.1000000000000001
210
0
220
0
230
1
0
LWPOLYLINE
5
231
100
AcDbEntity
8
0
100
AcDbPolyline
90
9
70
1
43
0.0
10
30.65801950072963
20
58.78930881750955
10
50.00000074505806
20
33.000000491738319
10
35.000000521540642
20
9.0000001341104507
10
63.000000938773155
20
6.0000000894069672
10
20.000000298023224
20
-32.000000476837151
42
-0.28963630952893005
10
16.000000238418579
20
-53.000000789761543
10
2.2100353657202554
20
-62.698995161684898
10
105
20
-80
10
141.97147647200393
20
58.78930881750955
0
ENDSEC
0
SECTION
2
OBJECTS
0
DICTIONARY
5
C
100
AcDbDictionary
3
ACAD_GROUP
350
D
3
ACAD_MLINESTYLE
350
17
0
DICTIONARY
5
D
100
AcDbDictionary
0
DICTIONARY
5
1A
330
C
100
AcDbDictionary
0
DICTIONARY
5
17
100
AcDbDictionary
0
ENDSEC
0
EOF
