                                                                        S      1
,,10HBattery v2,10HBattery v2,7Hunknown,7Hunknown,32,38,7,99,15,,1.,2,2HG      1
MM,1,0.08,15H20250912.002415,0.01,10000.,7Hunknown,7Hunknown,11,0,15H202G      2
30907.132114;                                                           G      3
     124       1                                                00000000D      1
     124                       1       0                               0D      2
     124       2                                                00000000D      3
     124                       1       0                               0D      4
     124       3                                                00000000D      5
     124                       1       0                               0D      6
     124       4                                                00000000D      7
     124                       1       0                               0D      8
     124       5                                                00000000D      9
     124                       1       0                               0D     10
     124       6                                                00000000D     11
     124                       1       0                               0D     12
     124       7                                                00000000D     13
     124                       1       0                               0D     14
     124       8                                                00000000D     15
     124                       1       0                               0D     16
     408       9                                                00000001D     17
     408       0               1       0                               0D     18
     408      10                                       1        00000001D     19
     408       0               1       0                               0D     20
     408      11                                       3        00000001D     21
     408       0               1       0                               0D     22
     408      12                                       5        00000001D     23
     408       0               1       0                               0D     24
     408      13                                       7        00000001D     25
     408       0               1       0                               0D     26
     408      14                                       9        00000001D     27
     408       0               1       0                               0D     28
     408      15                                      11        00000001D     29
     408       0               1       0                               0D     30
     408      16                                      13        00000001D     31
     408       0               1       0                               0D     32
     408      17                                      15        00000001D     33
     408       0               1       0                               0D     34
     308      18                                                00010200D     35
     308       0               1       0                               0D     36
     186      19                                                00010000D     37
     186             -89       1       0                               0D     38
     514      20                                                00010000D     39
     514                       1       1                               0D     40
     510      21                                                00010000D     41
     510             -89       1       1                               0D     42
     510      22                                                00010000D     43
     510             -89       1       1                               0D     44
     510      23                                                00010000D     45
     510             -89       1       1                               0D     46
     508      24                                                00010000D     47
     508                       1       1                               0D     48
     508      25                                                00010000D     49
     508                       1       1                               0D     50
     508      26                                                00010000D     51
     508                       1       1                               0D     52
     126      27                                                00010000D     53
     126       0               9       0                               0D     54
     126      36                                                00010000D     55
     126       0               2       0                               0D     56
     126      38                                                00010000D     57
     126       0               9       0                               0D     58
     128      47                                                00010000D     59
     128       0     -89      11       0                               0D     60
     128      58                                                00010000D     61
     128       0     -89       3       0                               0D     62
     128      61                                                00010000D     63
     128       0     -89       3       0                               0D     64
     502      64                                                00010000D     65
     502                       2       1                               0D     66
     504      66                                                00010001D     67
     504                       1       1                               0D     68
     406      67                                                00000000D     69
     406                       1      15                               0D     70
     406      68                                                00000000D     71
     406                       1      15                               0D     72
     406      69                                                00000000D     73
     406                       1      15                               0D     74
     406      70                                                00000000D     75
     406                       1      15                               0D     76
     406      71                                                00000000D     77
     406                       1      15                               0D     78
     406      72                                                00000000D     79
     406                       1      15                               0D     80
     406      73                                                00000000D     81
     406                       1      15                               0D     82
     406      74                                                00000000D     83
     406                       1      15                               0D     84
     406      75                                                00000000D     85
     406                       1      15                               0D     86
     406      76                                                00000000D     87
     406                       1      15                               0D     88
     314      77                                                00000200D     89
     314                       2       0                               0D     90
124,1.,0.,0.,18.,0.,1.,0.,0.,0.,0.,1.,0.;                              1P      1
124,1.,0.,0.,36.,0.,1.,0.,0.,0.,0.,1.,0.;                              3P      2
124,1.,0.,0.,0.,0.,1.,0.,18.,0.,0.,1.,0.;                              5P      3
124,1.,0.,0.,18.,0.,1.,0.,18.,0.,0.,1.,0.;                             7P      4
124,1.,0.,0.,36.,0.,1.,0.,18.,0.,0.,1.,0.;                             9P      5
124,1.,0.,0.,0.,0.,1.,0.,36.,0.,0.,1.,0.;                             11P      6
124,1.,0.,0.,18.,0.,1.,0.,36.,0.,0.,1.,0.;                            13P      7
124,1.,0.,0.,36.,0.,1.,0.,36.,0.,0.,1.,0.;                            15P      8
408,35,0.,0.,0.,1.,0,1,71;                                            17P      9
408,35,0.,0.,0.,1.,0,1,73;                                            19P     10
408,35,0.,0.,0.,1.,0,1,75;                                            21P     11
408,35,0.,0.,0.,1.,0,1,77;                                            23P     12
408,35,0.,0.,0.,1.,0,1,79;                                            25P     13
408,35,0.,0.,0.,1.,0,1,81;                                            27P     14
408,35,0.,0.,0.,1.,0,1,83;                                            29P     15
408,35,0.,0.,0.,1.,0,1,85;                                            31P     16
408,35,0.,0.,0.,1.,0,1,87;                                            33P     17
308,0,8H18650 v1,1,37;                                                35P     18
186,39,1,0,0,1,69;                                                    37P     19
514,3,41,1,43,1,45,1;                                                 39P     20
510,59,1,1,47;                                                        41P     21
510,61,1,1,49;                                                        43P     22
510,63,1,1,51;                                                        45P     23
508,4,0,67,1,0,0,0,67,2,1,0,0,67,3,1,0,0,67,2,0,0;                    47P     24
508,1,0,67,1,1,0;                                                     49P     25
508,1,0,67,3,0,0;                                                     51P     26
126,8,2,0,1,0,0,-3.14159265358979,-3.14159265358979,                  53P     27
-3.14159265358979,-1.5707963267949,-1.5707963267949,0.,0.,            53P     28
1.5707963267949,1.5707963267949,3.14159265358979,                     53P     29
3.14159265358979,3.14159265358979,1.,0.707106781186548,1.,            53P     30
0.707106781186548,1.,0.707106781186548,1.,0.707106781186548,1.,       53P     31
-9.,-1.10218211923262D-15,65.,-9.,-9.,65.,5.51091059616309D-16,       53P     32
-9.,65.,9.,-9.,65.,9.,0.,65.,9.,9.,65.,5.51091059616309D-16,9.,       53P     33
65.,-9.,9.,65.,-9.,1.10218211923262D-15,65.,-3.14159265358979,        53P     34
3.14159265358979,0.,0.,0.;                                            53P     35
126,1,1,0,0,1,0,-7.22222222222222,-7.22222222222222,0.,0.,1.,1.,      55P     36
-9.,0.,65.,-9.,0.,0.,-7.22222222222222,0.,0.,0.,0.;                   55P     37
126,8,2,0,1,0,0,-3.14159265358979,-3.14159265358979,                  57P     38
-3.14159265358979,-1.5707963267949,-1.5707963267949,0.,0.,            57P     39
1.5707963267949,1.5707963267949,3.14159265358979,                     57P     40
3.14159265358979,3.14159265358979,1.,0.707106781186548,1.,            57P     41
0.707106781186548,1.,0.707106781186548,1.,0.707106781186548,1.,       57P     42
-9.,-1.10218211923262D-15,0.,-9.,-9.,0.,5.51091059616309D-16,         57P     43
-9.,0.,9.,-9.,0.,9.,0.,0.,9.,9.,0.,5.51091059616309D-16,9.,0.,        57P     44
-9.,9.,0.,-9.,1.10218211923262D-15,0.,-3.14159265358979,              57P     45
3.14159265358979,0.,0.,0.;                                            57P     46
128,1,8,1,2,0,1,0,0,1,0.,0.,7.22222222222222,7.22222222222222,        59P     47
-3.14159265358979,-3.14159265358979,-3.14159265358979,                59P     48
-1.5707963267949,-1.5707963267949,0.,0.,1.5707963267949,              59P     49
1.5707963267949,3.14159265358979,3.14159265358979,                    59P     50
3.14159265358979,1.,1.,0.707106781186548,0.707106781186548,1.,        59P     51
1.,0.707106781186548,0.707106781186548,1.,1.,0.707106781186548,       59P     52
0.707106781186548,1.,1.,0.707106781186548,0.707106781186548,1.,       59P     53
1.,-9.,0.,65.,-9.,0.,0.,-9.,-9.,65.,-9.,-9.,0.,0.,-9.,65.,0.,         59P     54
-9.,0.,9.,-9.,65.,9.,-9.,0.,9.,0.,65.,9.,0.,0.,9.,9.,65.,9.,9.,       59P     55
0.,0.,9.,65.,0.,9.,0.,-9.,9.,65.,-9.,9.,0.,-9.,0.,65.,-9.,0.,0.,      59P     56
0.,7.22222222222222,-3.14159265358979,3.14159265358979;               59P     57
128,1,1,1,1,0,0,1,0,0,-0.901,-0.901,0.901,0.901,-0.901,-0.901,        61P     58
0.901,0.901,1.,1.,1.,1.,-9.01,-9.01,65.,9.01,-9.01,65.,-9.01,         61P     59
9.01,65.,9.01,9.01,65.,-0.901,0.901,-0.901,0.901;                     61P     60
128,1,1,1,1,0,0,1,0,0,-0.901,-0.901,0.901,0.901,-0.901,-0.901,        63P     61
0.901,0.901,1.,1.,1.,1.,9.01,-9.01,0.,-9.01,-9.01,0.,9.01,9.01,       63P     62
0.,-9.01,9.01,0.,-0.901,0.901,-0.901,0.901;                           63P     63
502,2,-9.,-1.10218211923262D-15,65.,-9.,-1.10218211923262D-15,        65P     64
0.;                                                                   65P     65
504,3,53,65,1,65,1,55,65,1,65,2,57,65,2,65,2;                         67P     66
406,1,5HBody1;                                                        69P     67
406,1,10H18650 v1:1;                                                  71P     68
406,1,10H18650 v1:2;                                                  73P     69
406,1,10H18650 v1:3;                                                  75P     70
406,1,10H18650 v1:4;                                                  77P     71
406,1,10H18650 v1:5;                                                  79P     72
406,1,10H18650 v1:6;                                                  81P     73
406,1,10H18650 v1:7;                                                  83P     74
406,1,10H18650 v1:8;                                                  85P     75
406,1,10H18650 v1:9;                                                  87P     76
314,62.7450980392157,62.7450980392157,62.7450980392157,13HSteel       89P     77
- Satin;                                                              89P     78
S      1G      3D     90P     78                                        T      1
