0
SECTION
2
HEADER
9
$INSUNITS
70
4
9
$ACADVER
1
AC1014
9
$HANDSEED
5
FFFF
0
ENDSEC
0
SECTION
2
TABLES
0
TABLE
2
VPORT
5
8
100
AcDbSymbolTable
0
ENDTAB
0
TABLE
2
LTYPE
5
5
100
AcDbSymbolTable
0
LTYPE
5
14
100
AcDbSymbolTableRecord
100
AcDbLinetypeTableRecord
2
BYBLOCK
70
0
0
LTYPE
5
15
100
AcDbSymbolTableRecord
100
AcDbLinetypeTableRecord
2
BYLAYER
70
0
0
LTYPE
5
16
100
AcDbSymbolTableRecord
100
AcDbLinetypeTableRecord
2
DASHED
70
0
3
Dashed __ __ __ __ __ __ __ __ __ __ __ __ __ _
72
65
73
2
40
0.75
49
0.5
74
0
49
-0.25
74
0
0
ENDTAB
0
TABLE
2
LAYER
5
2
100
AcDbSymbolTable
70
2
0
LAYER
5
50
100
AcDbSymbolTableRecord
100
AcDbLayerTableRecord
2
0
70
0
62
7
6
CONTINUOUS
0
ENDTAB
0
TABLE
2
STYLE
5
3
100
AcDbSymbolTable
70
1
0
STYLE
5
11
100
AcDbSymbolTableRecord
100
AcDbTextStyleTableRecord
2
STANDARD
70
0
0
ENDTAB
0
TABLE
2
VIEW
5
6
100
AcDbSymbolTable
70
0
0
ENDTAB
0
TABLE
2
UCS
5
7
100
AcDbSymbolTable
70
0
0
ENDTAB
0
TABLE
2
APPID
5
9
100
AcDbSymbolTable
70
2
0
APPID
5
12
100
AcDbSymbolTableRecord
100
AcDbRegAppTableRecord
2
ACAD
70
0
0
ENDTAB
0
TABLE
2
DIMSTYLE
5
A
100
AcDbSymbolTable
70
1
0
ENDTAB
0
TABLE
2
BLOCK_RECORD
5
1
100
AcDbSymbolTable
70
1
0
BLOCK_RECORD
5
1F
100
AcDbSymbolTableRecord
100
AcDbBlockTableRecord
2
*MODEL_SPACE
0
BLOCK_RECORD
5
1B
100
AcDbSymbolTableRecord
100
AcDbBlockTableRecord
2
*PAPER_SPACE
0
ENDTAB
0
ENDSEC
0
SECTION
2
BLOCKS
0
BLOCK
5
20
100
AcDbEntity
100
AcDbBlockBegin
2
*MODEL_SPACE
0
ENDBLK
5
21
100
AcDbEntity
100
AcDbBlockEnd
0
BLOCK
5
1C
100
AcDbEntity
100
AcDbBlockBegin
2
*PAPER_SPACE
0
ENDBLK
5
1D
100
AcDbEntity
100
AcDbBlockEnd
0
ENDSEC
0
SECTION
2
ENTITIES
0
LWPOLYLINE
5
100
100
AcDbEntity
8
0
100
AcDbPolyline
90
4
70
1
43
0.0
10
79.107349850060615
20
53.172649730810349
10
81.272413359521721
20
51.92264973081037
10
80.022413359522218
20
49.75758622134893
10
77.857349850060899
20
51.007586221349044
0
LWPOLYLINE
5
101
100
AcDbEntity
8
0
100
AcDbPolyline
90
4
70
1
43
0.0
10
85.602540378443905
20
44.422649730810342
10
85.602540378446022
20
41.922649730810342
10
83.102540378443891
20
41.922649730810342
10
83.102540378443891
20
44.422649730810313
0
LWPOLYLINE
5
102
100
AcDbEntity
8
0
100
AcDbPolyline
90
6
70
1
43
0.0
10
-86.602540378443933
20
49.999999999999936
10
-86.602540378443848
20
-50.000000000000028
10
5.3290705182007514e-14
20
-99.999999999999986
10
86.602540378443905
20
-49.999999999999964
10
86.602540378443877
20
50
10
0
20
100.00000000000001
0
LINE
5
103
100
AcDbEntity
8
0
100
AcDbLine
10
3.0801270189222452
20
94.180235952159677
30
0
11
-3.0801270189221963
21
94.18023595215962
31
0
0
LINE
5
104
100
AcDbEntity
8
0
100
AcDbLine
10
-5.2451905283832634
20
92.93023595215962
30
0
11
-77.857349850060558
21
51.007586221349342
31
0
0
LINE
5
105
100
AcDbEntity
8
0
100
AcDbLine
10
-80.02241335952165
20
49.757586221349342
30
0
11
-83.102540378443848
21
44.42264973081037
31
0
0
LINE
5
106
100
AcDbEntity
8
0
100
AcDbLine
10
-83.102540378443805
20
41.922649730810392
30
0
11
-83.102540378443891
21
-41.922649730810335
31
0
0
LINE
5
107
100
AcDbEntity
8
0
100
AcDbLine
10
-83.102540378443891
20
-44.422649730810335
30
0
11
-80.022413359521636
21
-49.757586221349264
31
0
0
LINE
5
108
100
AcDbEntity
8
0
100
AcDbLine
10
-77.857349850060558
20
-51.007586221349243
30
0
11
-5.2451905283833611
21
-92.930235952159634
31
0
0
LINE
5
109
100
AcDbEntity
8
0
100
AcDbLine
10
-3.0801270189222674
20
-94.180235952159634
30
0
11
3.0801270189221786
21
-94.180235952159592
31
0
0
LINE
5
110
100
AcDbEntity
8
0
100
AcDbLine
10
5.2451905283832456
20
-92.930235952159592
30
0
11
77.85734985006053
21
-51.007586221349385
31
0
0
LINE
5
111
100
AcDbEntity
8
0
100
AcDbLine
10
80.022413359521622
20
-49.757586221349385
30
0
11
83.102540378443805
21
-44.422649730810413
31
0
0
LINE
5
112
100
AcDbEntity
8
0
100
AcDbLine
10
83.102540378443805
20
-41.922649730810434
30
0
11
83.102540378443891
21
41.922649730810342
31
0
0
LINE
5
113
100
AcDbEntity
8
0
100
AcDbLine
10
83.102540378443891
20
44.422649730810342
30
0
11
80.022413359521636
21
49.757586221349271
31
0
0
LINE
5
114
100
AcDbEntity
8
0
100
AcDbLine
10
77.857349850060558
20
51.00758622134925
30
0
11
5.2451905283833433
21
92.930235952159677
31
0
0
LINE
5
115
100
AcDbEntity
8
0
100
AcDbLine
10
5.2451905283833433
20
92.930235952159677
30
0
11
3.0801270189222452
21
94.180235952159677
31
0
0
LINE
5
116
100
AcDbEntity
8
0
100
AcDbLine
10
-3.0801270189221963
20
94.18023595215962
30
0
11
-5.2451905283832634
21
92.93023595215962
31
0
0
LINE
5
117
100
AcDbEntity
8
0
100
AcDbLine
10
77.857349850060558
20
51.00758622134925
30
0
11
80.022413359521636
21
49.757586221349271
31
0
0
LINE
5
118
100
AcDbEntity
8
0
100
AcDbLine
10
83.102540378443891
20
44.422649730810342
30
0
11
83.102540378443891
21
41.922649730810342
31
0
0
LINE
5
119
100
AcDbEntity
8
0
100
AcDbLine
10
83.102540378443805
20
-41.922649730810434
30
0
11
83.102540378443805
21
-44.422649730810413
31
0
0
LINE
5
120
100
AcDbEntity
8
0
100
AcDbLine
10
80.022413359521622
20
-49.757586221349385
30
0
11
77.85734985006053
21
-51.007586221349385
31
0
0
LINE
5
121
100
AcDbEntity
8
0
100
AcDbLine
10
5.2451905283832456
20
-92.930235952159592
30
0
11
3.0801270189221786
21
-94.180235952159592
31
0
0
LINE
5
122
100
AcDbEntity
8
0
100
AcDbLine
10
-3.0801270189222674
20
-94.180235952159634
30
0
11
-5.2451905283833611
21
-92.930235952159634
31
0
0
LINE
5
123
100
AcDbEntity
8
0
100
AcDbLine
10
-77.857349850060558
20
-51.007586221349243
30
0
11
-80.022413359521636
21
-49.757586221349264
31
0
0
LINE
5
124
100
AcDbEntity
8
0
100
AcDbLine
10
-83.102540378443891
20
-44.422649730810335
30
0
11
-83.102540378443891
21
-41.922649730810335
31
0
0
LINE
5
125
100
AcDbEntity
8
0
100
AcDbLine
10
-83.102540378443805
20
41.922649730810392
30
0
11
-83.102540378443848
21
44.42264973081037
31
0
0
LINE
5
126
100
AcDbEntity
8
0
100
AcDbLine
10
-80.02241335952165
20
49.757586221349342
30
0
11
-77.857349850060558
21
51.007586221349342
31
0
0
LWPOLYLINE
5
127
100
AcDbEntity
8
0
100
AcDbPolyline
90
4
70
1
43
0.0
10
59.981820604554457
20
61.328027843149222
10
51.321566566710494
20
66.328027843148973
10
52.571566566710018
20
68.493091352610207
10
61.231820604554201
20
63.493091352609873
0
LWPOLYLINE
5
128
100
AcDbEntity
8
0
100
AcDbPolyline
90
4
70
1
43
0.0
10
31.78097423367074
20
77.609794086754235
10
23.120720195826124
20
82.609794086754363
10
24.370720195825939
20
84.774857596215583
10
33.030974233670619
20
79.774857596215412
0
ENDSEC
0
SECTION
2
OBJECTS
0
DICTIONARY
5
C
100
AcDbDictionary
3
ACAD_GROUP
350
D
3
ACAD_MLINESTYLE
350
17
0
DICTIONARY
5
D
100
AcDbDictionary
0
DICTIONARY
5
1A
330
C
100
AcDbDictionary
0
DICTIONARY
5
17
100
AcDbDictionary
0
ENDSEC
0
EOF
