0
SECTION
2
HEADER
9
$INSUNITS
70
4
9
$ACADVER
1
AC1014
9
$HANDSEED
5
FFFF
0
ENDSEC
0
SECTION
2
TABLES
0
TABLE
2
VPORT
5
8
100
AcDbSymbolTable
0
ENDTAB
0
TABLE
2
LTYPE
5
5
100
AcDbSymbolTable
0
LTYPE
5
14
100
AcDbSymbolTableRecord
100
AcDbLinetypeTableRecord
2
BYBLOCK
70
0
0
LTYPE
5
15
100
AcDbSymbolTableRecord
100
AcDbLinetypeTableRecord
2
BYLAYER
70
0
0
LTYPE
5
16
100
AcDbSymbolTableRecord
100
AcDbLinetypeTableRecord
2
DASHED
70
0
3
Dashed __ __ __ __ __ __ __ __ __ __ __ __ __ _
72
65
73
2
40
0.75
49
0.5
74
0
49
-0.25
74
0
0
ENDTAB
0
TABLE
2
LAYER
5
2
100
AcDbSymbolTable
70
2
0
LAYER
5
50
100
AcDbSymbolTableRecord
100
AcDbLayerTableRecord
2
0
70
0
62
7
6
CONTINUOUS
0
ENDTAB
0
TABLE
2
STYLE
5
3
100
AcDbSymbolTable
70
1
0
STYLE
5
11
100
AcDbSymbolTableRecord
100
AcDbTextStyleTableRecord
2
STANDARD
70
0
0
ENDTAB
0
TABLE
2
VIEW
5
6
100
AcDbSymbolTable
70
0
0
ENDTAB
0
TABLE
2
UCS
5
7
100
AcDbSymbolTable
70
0
0
ENDTAB
0
TABLE
2
APPID
5
9
100
AcDbSymbolTable
70
2
0
APPID
5
12
100
AcDbSymbolTableRecord
100
AcDbRegAppTableRecord
2
ACAD
70
0
0
ENDTAB
0
TABLE
2
DIMSTYLE
5
A
100
AcDbSymbolTable
70
1
0
ENDTAB
0
TABLE
2
BLOCK_RECORD
5
1
100
AcDbSymbolTable
70
1
0
BLOCK_RECORD
5
1F
100
AcDbSymbolTableRecord
100
AcDbBlockTableRecord
2
*MODEL_SPACE
0
BLOCK_RECORD
5
1B
100
AcDbSymbolTableRecord
100
AcDbBlockTableRecord
2
*PAPER_SPACE
0
ENDTAB
0
ENDSEC
0
SECTION
2
BLOCKS
0
BLOCK
5
20
100
AcDbEntity
100
AcDbBlockBegin
2
*MODEL_SPACE
0
ENDBLK
5
21
100
AcDbEntity
100
AcDbBlockEnd
0
BLOCK
5
1C
100
AcDbEntity
100
AcDbBlockBegin
2
*PAPER_SPACE
0
ENDBLK
5
1D
100
AcDbEntity
100
AcDbBlockEnd
0
ENDSEC
0
SECTION
2
ENTITIES
0
LWPOLYLINE
5
100
100
AcDbEntity
8
0
100
AcDbPolyline
90
4
70
1
43
0.0
10
0
20
31.500000000000004
10
-18.5
20
31.500000000000004
10
-18.5
20
0
10
0
20
0
0
LWPOLYLINE
5
101
100
AcDbEntity
8
0
100
AcDbPolyline
90
10
70
1
43
0.0
10
-12.862812693715098
20
25.990000387430193
10
-5.7046095687150977
20
25.990000387430193
10
-5.7046095687150986
20
21.160898824930193
10
-6.5493361312150986
20
21.160898824930193
10
-6.5493361312150977
20
25.042734762430193
10
-8.7661330062150977
20
25.042734762430193
10
-8.7661330062150995
20
21.683359762430193
10
-9.6108595687150995
20
21.683359762430193
10
-9.6108595687150977
20
25.042734762430193
10
-12.862812693715098
20
25.042734762430193
0
LINE
5
102
100
AcDbEntity
8
0
100
AcDbLine
10
-12.862812693715098
20
20.052500387430197
30
0
11
-7.6772658187150977
21
20.052500387430197
31
0
0
LINE
5
103
100
AcDbEntity
8
0
100
AcDbLine
10
-7.6772658187150977
20
20.052500387430197
30
0
11
-7.6772658187150995
21
19.261484762430193
31
0
0
LINE
5
104
100
AcDbEntity
8
0
100
AcDbLine
10
-7.6772658187150995
20
19.261484762430193
30
0
11
-8.4633986312150995
21
19.261484762430193
31
0
0
SPLINE
5
105
100
AcDbEntity
8
0
100
AcDbSpline
70
0
71
3
72
9
73
5
74
0
42
0.000000001
43
0.0000000001
44
0.0000000001
40
0
40
0
40
0
40
0
40
0.054250229208765259
40
0.092272976156856631
40
0.092272976156856631
40
0.092272976156856631
40
0.092272976156856631
10
-8.4633986312150995
20
19.261484762430193
30
0
10
-8.3036720135401225
20
19.17337159515704
30
0
10
-8.0319966566006649
20
19.02350192084446
30
0
10
-7.8222779505797755
20
18.79610552466335
30
0
10
-7.7358595687150995
20
18.702402731180193
30
0
0
SPLINE
5
106
100
AcDbEntity
8
0
100
AcDbSpline
70
0
71
3
72
9
73
5
74
0
42
0.000000001
43
0.0000000001
44
0.0000000001
40
0
40
0
40
0
40
0
40
0.029971742136556068
40
0.059777465636332211
40
0.059777465636332211
40
0.059777465636332211
40
0.059777465636332211
10
-7.7358595687150995
20
18.702402731180193
30
0
10
-7.6845901507671659
20
18.614960431767734
30
0
10
-7.5823353049989786
20
18.440560190885019
30
0
10
-7.5674835650064285
20
18.238958687445567
30
0
10
-7.5600783187150995
20
18.138437887430193
30
0
0
SPLINE
5
107
100
AcDbEntity
8
0
100
AcDbSpline
70
0
71
3
72
9
73
5
74
0
42
0.000000001
43
0.0000000001
44
0.0000000001
40
0
40
0
40
0
40
0
40
0.045355815573024927
40
0.095598538549031734
40
0.095598538549031734
40
0.095598538549031734
40
0.095598538549031734
10
-7.5600783187150995
20
18.138437887430193
30
0
10
-7.5741152792869668
20
17.986182403152867
30
0
10
-7.6037016266910884
20
17.66526651620222
30
0
10
-7.7607455258856097
20
17.383305089689468
30
0
10
-7.8432814437150995
20
17.235117574930193
30
0
0
LINE
5
108
100
AcDbEntity
8
0
100
AcDbLine
10
-7.8432814437150995
20
17.235117574930193
30
0
11
-8.6587111312150995
21
17.537851949930193
31
0
0
SPLINE
5
109
100
AcDbEntity
8
0
100
AcDbSpline
70
0
71
3
72
9
73
5
74
0
42
0.000000001
43
0.0000000001
44
0.0000000001
40
0
40
0
40
0
40
0
40
0.035249586184081465
40
0.067825896545174361
40
0.067825896545174361
40
0.067825896545174361
40
0.067825896545174361
10
-8.6587111312150995
20
17.537851949930193
30
0
10
-8.6031948023876641
20
17.642983151969741
30
0
10
-8.4963724199644037
20
17.845272563140885
30
0
10
-8.4773957887961551
20
18.073004919626786
30
0
10
-8.4682814437150995
20
18.182383199930193
30
0
0
SPLINE
5
110
100
AcDbEntity
8
0
100
AcDbSpline
70
0
71
3
72
9
73
5
74
0
42
0.000000001
43
0.0000000001
44
0.0000000001
40
0
40
0
40
0
40
0
40
0.027685011332073652
40
0.055344713848637796
40
0.055344713848637796
40
0.055344713848637796
40
0.055344713848637796
10
-8.4682814437150995
20
18.182383199930193
30
0
10
-8.475490716921481
20
18.275952931580747
30
0
10
-8.4899026728306897
20
18.463006856210868
30
0
10
-8.5910638360573426
20
18.621000585227975
30
0
10
-8.6416212874650995
20
18.699961324930193
30
0
0
SPLINE
5
111
100
AcDbEntity
8
0
100
AcDbSpline
70
0
71
3
72
9
73
5
74
0
42
0.000000001
43
0.0000000001
44
0.0000000001
40
0
40
0
40
0
40
0
40
0.028537117683733702
40
0.058895405579604612
40
0.058895405579604612
40
0.058895405579604612
40
0.058895405579604612
10
-8.6416212874650995
20
18.699961324930193
30
0
10
-8.706496760629296
20
18.771428464518046
30
0
10
-8.8403879036143529
20
18.918923604647077
30
0
10
-9.0265955360480987
20
18.99031188442159
30
0
10
-9.1225783187150995
20
19.027109762430193
30
0
0
SPLINE
5
112
100
AcDbEntity
8
0
100
AcDbSpline
70
0
71
3
72
9
73
5
74
0
42
0.000000001
43
0.0000000001
44
0.0000000001
40
0
40
0
40
0
40
0
40
0.050287042657534781
40
0.10387910749130447
40
0.10387910749130447
40
0.10387910749130447
40
0.10387910749130447
10
-9.1225783187150995
20
19.027109762430193
30
0
10
-9.2852672668882281
20
19.069822396127016
30
0
10
-9.6213375912064851
20
19.158054871781736
30
0
10
-9.9687408274166138
20
19.168305668945422
30
0
10
-10.147968943715099
20
19.173594137430193
30
0
0
LINE
5
113
100
AcDbEntity
8
0
100
AcDbLine
10
-10.147968943715103
20
19.173594137430193
30
0
11
-12.862812693715099
21
19.173594137430193
31
0
0
LINE
5
114
100
AcDbEntity
8
0
100
AcDbLine
10
-12.862812693715099
20
19.173594137430193
30
0
11
-12.862812693715098
21
20.052500387430197
31
0
0
SPLINE
5
115
100
AcDbEntity
8
0
100
AcDbSpline
70
0
71
3
72
9
73
5
74
0
42
0.000000001
43
0.0000000001
44
0.0000000001
40
0
40
0
40
0
40
0
40
0.12695459218277796
40
0.2335063130482736
40
0.2335063130482736
40
0.2335063130482736
40
0.2335063130482736
10
-10.270039256215099
20
17.039805074930193
30
0
10
-9.8335753729037449
20
17.019775453487142
30
0
10
-9.0307917128685489
20
16.982935170875017
30
0
10
-8.4165404052253052
20
16.472116491995038
30
0
10
-8.1362501937150995
20
16.239023824930193
30
0
0
SPLINE
5
116
100
AcDbEntity
8
0
100
AcDbSpline
70
0
71
3
72
9
73
5
74
0
42
0.000000001
43
0.0000000001
44
0.0000000001
40
0
40
0
40
0
40
0
40
0.085882342584088334
40
0.17590934288190616
40
0.17590934288190616
40
0.17590934288190616
40
0.17590934288190616
10
-8.1362501937150995
20
16.239023824930193
30
0
10
-7.9682261044354208
20
16.000218353357546
30
0
10
-7.6240691305547958
20
15.511082725276397
30
0
10
-7.5817410247885491
20
14.913827913868865
30
0
10
-7.5600783187150995
20
14.608164449930193
30
0
0
SPLINE
5
117
100
AcDbEntity
8
0
100
AcDbSpline
70
0
71
3
72
9
73
5
74
0
42
0.000000001
43
0.0000000001
44
0.0000000001
40
0
40
0
40
0
40
0
40
0.098734302993412501
40
0.19248448180717631
40
0.19248448180717631
40
0.19248448180717631
40
0.19248448180717631
10
-7.5600783187150995
20
14.608164449930193
30
0
10
-7.5861290227660261
20
14.271102354100758
30
0
10
-7.6369153869568933
20
13.613993113587879
30
0
10
-8.0564340257169889
20
13.107033746434931
30
0
10
-8.2607619124651013
20
12.860117574930193
30
0
0
SPLINE
5
118
100
AcDbEntity
8
0
100
AcDbSpline
70
0
71
3
72
9
73
5
74
0
42
0.000000001
43
0.0000000001
44
0.0000000001
40
0
40
0
40
0
40
0
40
0.097737183412350645
40
0.20920464171329473
40
0.20920464171329473
40
0.20920464171329473
40
0.20920464171329473
10
-8.2607619124651013
20
12.860117574930193
30
0
10
-8.5286294211764062
20
12.662388837335829
30
0
10
-9.1019948920244271
20
12.23915411478065
30
0
10
-9.81623756268813
20
12.201479991249439
30
0
10
-10.196797068715103
20
12.181406637430195
30
0
0
SPLINE
5
119
100
AcDbEntity
8
0
100
AcDbSpline
70
0
71
3
72
9
73
5
74
0
42
0.000000001
43
0.0000000001
44
0.0000000001
40
0
40
0
40
0
40
0
40
0.08973110434928265
40
0.16141522590792481
40
0.16141522590792481
40
0.16141522590792481
40
0.16141522590792481
10
-10.196797068715103
20
12.181406637430195
30
0
10
-10.498770434007429
20
12.187266582963476
30
0
10
-11.041983396004444
20
12.197807904603531
30
0
10
-11.547157479562131
20
12.39439551259739
30
0
10
-11.771504099965103
20
12.481699606180195
30
0
0
SPLINE
5
120
100
AcDbEntity
8
0
100
AcDbSpline
70
0
71
3
72
9
73
5
74
0
42
0.000000001
43
0.0000000001
44
0.0000000001
40
0
40
0
40
0
40
0
40
0.062900008218352316
40
0.12621818054523964
40
0.12621818054523964
40
0.12621818054523964
40
0.12621818054523964
10
-11.771504099965103
20
12.481699606180195
30
0
10
-11.952240295707613
20
12.593505446016973
30
0
10
-12.314914235369073
20
12.817860419541656
30
0
10
-12.54646062619865
20
13.176039949607091
30
0
10
-12.662617381215103
20
13.355723043680195
30
0
0
SPLINE
5
121
100
AcDbEntity
8
0
100
AcDbSpline
70
0
71
3
72
9
73
5
74
0
42
0.000000001
43
0.0000000001
44
0.0000000001
40
0
40
0
40
0
40
0
40
0.064547065708725454
40
0.13027433457640808
40
0.13027433457640808
40
0.13027433457640808
40
0.13027433457640808
10
-12.662617381215103
20
13.355723043680195
30
0
10
-12.755185216991944
20
13.552347812002314
30
0
10
-12.942013434147857
20
13.949192510876703
30
0
10
-12.967261696092551
20
14.387184493371921
30
0
10
-12.980000193715099
20
14.608164449930195
30
0
0
SPLINE
5
122
100
AcDbEntity
8
0
100
AcDbSpline
70
0
71
3
72
9
73
5
74
0
42
0.000000001
43
0.0000000001
44
0.0000000001
40
0
40
0
40
0
40
0
40
0.099985292217365379
40
0.19358236104067056
40
0.19358236104067056
40
0.19358236104067056
40
0.19358236104067056
10
-12.980000193715099
20
14.608164449930195
30
0
10
-12.954943688601938
20
14.949741319286998
30
0
10
-12.90643157935402
20
15.611071154711398
30
0
10
-12.4853506362474
20
16.121584945540068
30
0
10
-12.281758006215099
20
16.368418356180193
30
0
0
SPLINE
5
123
100
AcDbEntity
8
0
100
AcDbSpline
70
0
71
3
72
9
73
5
74
0
42
0.000000001
43
0.0000000001
44
0.0000000001
40
0
40
0
40
0
40
0
40
0.098971869981717503
40
0.21614705104097037
40
0.21614705104097037
40
0.21614705104097037
40
0.21614705104097037
10
-12.281758006215099
20
16.368418356180193
30
0
10
-12.007468318682914
20
16.563873485640485
30
0
10
-11.408440462565995
20
16.990732651295094
30
0
10
-10.670229686453578
20
17.022554290041864
30
0
10
-10.270039256215099
20
17.039805074930193
30
0
0
SPLINE
5
124
100
AcDbEntity
8
0
100
AcDbSpline
70
0
71
3
72
9
73
5
74
0
42
0.000000001
43
0.0000000001
44
0.0000000001
40
0
40
0
40
0
40
0
40
0.087772141172430776
40
0.15788145337740167
40
0.15788145337740167
40
0.15788145337740167
40
0.15788145337740167
10
-10.270039256215099
20
16.136484762430193
30
0
10
-10.569060095337171
20
16.128011549175948
30
0
10
-11.106928307734737
20
16.112770229943134
30
0
10
-11.560378168410246
20
15.828256479961833
30
0
10
-11.761738474965099
20
15.701914449930195
30
0
0
SPLINE
5
125
100
AcDbEntity
8
0
100
AcDbSpline
70
0
71
3
72
9
73
5
74
0
42
0.000000001
43
0.0000000001
44
0.0000000001
40
0
40
0
40
0
40
0
40
0.061560755719487471
40
0.12312320580889768
40
0.12312320580889768
40
0.12312320580889768
40
0.12312320580889768
10
-11.761738474965099
20
15.701914449930195
30
0
10
-11.906290070009362
20
15.547697443284195
30
0
10
-12.195397238669493
20
15.239259185394241
30
0
10
-12.236694852593084
20
14.818531291711817
30
0
10
-12.257343943715099
20
14.608164449930195
30
0
0
SPLINE
5
126
100
AcDbEntity
8
0
100
AcDbSpline
70
0
71
3
72
9
73
5
74
0
42
0.000000001
43
0.0000000001
44
0.0000000001
40
0
40
0
40
0
40
0
40
0.061216162268103495
40
0.12279056239249786
40
0.12279056239249786
40
0.12279056239249786
40
0.12279056239249786
10
-12.257343943715099
20
14.608164449930195
30
0
10
-12.236350874452519
20
14.399010842129528
30
0
10
-12.194241884186074
20
13.979479656626816
30
0
10
-11.904560386290353
20
13.672989452549393
30
0
10
-11.759297068715103
20
13.519297262430195
30
0
0
SPLINE
5
127
100
AcDbEntity
8
0
100
AcDbSpline
70
0
71
3
72
9
73
5
74
0
42
0.000000001
43
0.0000000001
44
0.0000000001
40
0
40
0
40
0
40
0
40
0.070812776799010296
40
0.16046276343501631
40
0.16046276343501631
40
0.16046276343501631
40
0.16046276343501631
10
-11.759297068715103
20
13.519297262430195
30
0
10
-11.555203919470031
20
13.39299422779952
30
0
10
-11.092725928824754
20
13.106789747715498
30
0
10
-10.546125907787069
20
13.092635101458027
30
0
10
-10.240742381215103
20
13.084726949930195
30
0
0
SPLINE
5
128
100
AcDbEntity
8
0
100
AcDbSpline
70
0
71
3
72
9
73
5
74
0
42
0.000000001
43
0.0000000001
44
0.0000000001
40
0
40
0
40
0
40
0
40
0.085236770288532895
40
0.15467691578047821
40
0.15467691578047821
40
0.15467691578047821
40
0.15467691578047821
10
-10.240742381215103
20
13.084726949930195
30
0
10
-9.9503400371093313
20
13.094228253439027
30
0
10
-9.4233545733282806
20
13.111470017969353
30
0
10
-8.9815604497532604
20
13.394621551248807
30
0
10
-8.7832228499650995
20
13.521738668680193
30
0
0
SPLINE
5
129
100
AcDbEntity
8
0
100
AcDbSpline
70
0
71
3
72
9
73
5
74
0
42
0.000000001
43
0.0000000001
44
0.0000000001
40
0
40
0
40
0
40
0
40
0.06151211346755029
40
0.12241706491823179
40
0.12241706491823179
40
0.12241706491823179
40
0.12241706491823179
10
-8.7832228499650995
20
13.521738668680193
30
0
10
-8.6386722759453001
20
13.675717599803296
30
0
10
-8.3509979300933335
20
13.982155596235994
30
0
10
-8.308674258772994
20
14.40018594523594
30
0
10
-8.2876173812150995
20
14.608164449930193
30
0
0
SPLINE
5
130
100
AcDbEntity
8
0
100
AcDbSpline
70
0
71
3
72
9
73
5
74
0
42
0.000000001
43
0.0000000001
44
0.0000000001
40
0
40
0
40
0
40
0
40
0.061550195112934018
40
0.12300056501919671
40
0.12300056501919671
40
0.12300056501919671
40
0.12300056501919671
10
-8.2876173812150995
20
14.608164449930193
30
0
10
-8.3080990952578322
20
14.818473398973977
30
0
10
-8.3490293050678126
20
15.238750207414881
30
0
10
-8.6369419525332436
20
15.547609924223007
30
0
10
-8.7807814437150995
20
15.701914449930193
30
0
0
SPLINE
5
131
100
AcDbEntity
8
0
100
AcDbSpline
70
0
71
3
72
9
73
5
74
0
42
0.000000001
43
0.0000000001
44
0.0000000001
40
0
40
0
40
0
40
0
40
0.069947247723306114
40
0.15765882342897683
40
0.15765882342897683
40
0.15765882342897683
40
0.15765882342897683
10
-8.7807814437150995
20
15.701914449930193
30
0
10
-8.9815204795959627
20
15.828250914065823
30
0
10
-9.433979743446292
20
16.113009198917737
30
0
10
-9.9711764043499649
20
16.128093046585423
30
0
10
-10.270039256215099
20
16.136484762430193
30
0
0
LINE
5
132
100
AcDbEntity
8
0
100
AcDbLine
10
-12.862812693715103
20
11.151133199930195
30
0
11
-7.6772658187151022
21
11.151133199930193
31
0
0
LINE
5
133
100
AcDbEntity
8
0
100
AcDbLine
10
-7.6772658187151022
20
11.151133199930193
30
0
11
-7.6772658187151013
21
10.360117574930193
31
0
0
LINE
5
134
100
AcDbEntity
8
0
100
AcDbLine
10
-7.6772658187151013
20
10.360117574930193
30
0
11
-8.4145705062151031
21
10.360117574930193
31
0
0
SPLINE
5
135
100
AcDbEntity
8
0
100
AcDbSpline
70
0
71
3
72
9
73
5
74
0
42
0.000000001
43
0.0000000001
44
0.0000000001
40
0
40
0
40
0
40
0
40
0.094776337121151244
40
0.19235817217203816
40
0.19235817217203816
40
0.19235817217203816
40
0.19235817217203816
10
-8.4145705062151031
20
10.360117574930193
30
0
10
-8.1653585474149324
20
10.145972501904142
30
0
10
-7.659557644633308
20
9.7113433942790692
30
0
10
-7.5935589524010219
20
9.0468296891929345
30
0
10
-7.5600783187151022
20
8.709726949930193
30
0
0
SPLINE
5
136
100
AcDbEntity
8
0
100
AcDbSpline
70
0
71
3
72
9
73
5
74
0
42
0.000000001
43
0.0000000001
44
0.0000000001
40
0
40
0
40
0
40
0
40
0.045179622765537081
40
0.08827208563592201
40
0.08827208563592201
40
0.08827208563592201
40
0.08827208563592201
10
-7.5600783187151022
20
8.709726949930193
30
0
10
-7.5664093963533734
20
8.5582580529064529
30
0
10
-7.5787790752759587
20
8.2623176569751919
30
0
10
-7.6794097161466359
20
7.9838515060322273
30
0
10
-7.7285353499651022
20
7.8479105436801921
30
0
0
SPLINE
5
137
100
AcDbEntity
8
0
100
AcDbSpline
70
0
71
3
72
9
73
5
74
0
42
0.000000001
43
0.0000000001
44
0.0000000001
40
0
40
0
40
0
40
0
40
0.039495452987337129
40
0.074281529893021531
40
0.074281529893021531
40
0.074281529893021531
40
0.074281529893021531
10
-7.7285353499651022
20
7.8479105436801921
30
0
10
-7.785818991933418
20
7.7275420418421481
30
0
10
-7.8935558639377668
20
7.5011575901857164
30
0
10
-8.0821235440643218
20
7.336595939303761
30
0
10
-8.1704298812151031
20
7.2595316374301921
30
0
0
SPLINE
5
138
100
AcDbEntity
8
0
100
AcDbSpline
70
0
71
3
72
9
73
5
74
0
42
0.000000001
43
0.0000000001
44
0.0000000001
40
0
40
0
40
0
40
0
40
0.034206053237725513
40
0.070850129684829399
40
0.070850129684829399
40
0.070850129684829399
40
0.070850129684829399
10
-8.1704298812151031
20
7.2595316374301921
30
0
10
-8.2678707815059624
20
7.1989032129878705
30
0
10
-8.4696976445536993
20
7.0733250966096879
30
0
10
-8.7004813453403287
20
7.0158306046478263
30
0
10
-8.8198439437151031
20
6.9860941374301948
30
0
0
SPLINE
5
139
100
AcDbEntity
8
0
100
AcDbSpline
70
0
71
3
72
9
73
5
74
0
42
0.000000001
43
0.0000000001
44
0.0000000001
40
0
40
0
40
0
40
0
40
0.033768496566462532
40
0.08566273860503669
40
0.08566273860503669
40
0.08566273860503669
40
0.08566273860503669
10
-8.8198439437151031
20
6.9860941374301948
30
0
10
-8.9316170196126947
20
6.9720029634354646
30
0
10
-9.2151590412378379
20
6.9362569670991192
30
0
10
-9.5011086662448978
20
6.9368853436891857
30
0
10
-9.6743361312151031
20
6.9372660124301948
30
0
0
LINE
5
140
100
AcDbEntity
8
0
100
AcDbLine
10
-9.6743361312151031
20
6.937266012430193
30
0
11
-12.862812693715103
21
6.9372660124301957
31
0
0
LINE
5
141
100
AcDbEntity
8
0
100
AcDbLine
10
-12.862812693715103
20
6.9372660124301957
30
0
11
-12.862812693715103
21
7.8161722624301948
31
0
0
LINE
5
142
100
AcDbEntity
8
0
100
AcDbLine
10
-12.862812693715103
20
7.8161722624301948
30
0
11
-9.7085158187151031
21
7.816172262430193
31
0
0
SPLINE
5
143
100
AcDbEntity
8
0
100
AcDbSpline
70
0
71
3
72
9
73
5
74
0
42
0.000000001
43
0.0000000001
44
0.0000000001
40
0
40
0
40
0
40
0
40
0.047005986940763439
40
0.081266504941676268
40
0.081266504941676268
40
0.081266504941676268
40
0.081266504941676268
10
-9.7085158187151031
20
7.8161722624301948
30
0
10
-9.5509734149759353
20
7.8170165955368205
30
0
10
-9.2786055451527467
20
7.8184763245000415
30
0
10
-9.0160021142000542
20
7.8889857858390933
30
0
10
-8.9052931624651031
20
7.9187113249301948
30
0
0
SPLINE
5
144
100
AcDbEntity
8
0
100
AcDbSpline
70
0
71
3
72
9
73
5
74
0
42
0.000000001
43
0.0000000001
44
0.0000000001
40
0
40
0
40
0
40
0
40
0.027833168943475525
40
0.056732203625635483
40
0.056732203625635483
40
0.056732203625635483
40
0.056732203625635483
10
-8.9052931624651031
20
7.9187113249301948
30
0
10
-8.8205891685927664
20
7.9602955520487058
30
0
10
-8.6479374580373154
20
8.0450564660967299
30
0
10
-8.5369995574266504
20
8.2023543063485747
30
0
10
-8.4804884749651031
20
8.282480856180193
30
0
0
SPLINE
5
145
100
AcDbEntity
8
0
100
AcDbSpline
70
0
71
3
72
9
73
5
74
0
42
0.000000001
43
0.0000000001
44
0.0000000001
40
0
40
0
40
0
40
0
40
0.030775884363961691
40
0.063912184916534776
40
0.063912184916534776
40
0.063912184916534776
40
0.063912184916534776
10
-8.4804884749651031
20
8.282480856180193
30
0
10
-8.4342208767646092
20
8.375341261446426
30
0
10
-8.3381370971122344
20
8.5681841810068349
30
0
10
-8.3273762190685332
20
8.7835921155630849
30
0
10
-8.3217970687151031
20
8.895273824930193
30
0
0
SPLINE
5
146
100
AcDbEntity
8
0
100
AcDbSpline
70
0
71
3
72
9
73
5
74
0
42
0.000000001
43
0.0000000001
44
0.0000000001
40
0
40
0
40
0
40
0
40
0.053060757838699103
40
0.10507349129113874
40
0.10507349129113874
40
0.10507349129113874
40
0.10507349129113874
10
-8.3217970687151031
20
8.895273824930193
30
0
10
-8.3360474591898264
20
9.0753468962230563
30
0
10
-8.3642667749408961
20
9.4319363430940903
30
0
10
-8.5742820909581674
20
9.7212821832502243
30
0
10
-8.6782423812151031
20
9.864512106180193
30
0
0
SPLINE
5
147
100
AcDbEntity
8
0
100
AcDbSpline
70
0
71
3
72
9
73
5
74
0
42
0.000000001
43
0.0000000001
44
0.0000000001
40
0
40
0
40
0
40
0
40
0.060010844532119412
40
0.14424796213663488
40
0.14424796213663488
40
0.14424796213663488
40
0.14424796213663488
10
-8.6782423812151031
20
9.864512106180193
30
0
10
-8.8448601675088341
20
9.9826083851090139
30
0
10
-9.245359049268858
20
10.266476204404301
30
0
10
-9.7412145333280318
20
10.270106784238294
30
0
10
-10.030781443715103
20
10.272226949930195
30
0
0
LINE
5
148
100
AcDbEntity
8
0
100
AcDbLine
10
-10.030781443715103
20
10.272226949930195
30
0
11
-12.862812693715103
21
10.272226949930195
31
0
0
LINE
5
149
100
AcDbEntity
8
0
100
AcDbLine
10
-12.862812693715103
20
10.272226949930195
30
0
11
-12.862812693715103
21
11.151133199930195
31
0
0
LINE
5
150
100
AcDbEntity
8
0
100
AcDbLine
10
-12.076679881215103
20
3.6706644499301921
30
0
11
-12.853047068715103
21
3.5437113249301921
31
0
0
SPLINE
5
151
100
AcDbEntity
8
0
100
AcDbSpline
70
0
71
3
72
9
73
5
74
0
42
0.000000001
43
0.0000000001
44
0.0000000001
40
0
40
0
40
0
40
0
40
0.035641186700966131
40
0.066952162368703244
40
0.066952162368703244
40
0.066952162368703244
40
0.066952162368703244
10
-12.853047068715103
20
3.5437113249301921
30
0
10
-12.875804410780692
20
3.6605301557009096
30
0
10
-12.918554201180182
20
3.8799749623821356
30
0
10
-12.927151458837795
20
4.1033226297592407
30
0
10
-12.931172068715103
20
4.2077738249301921
30
0
0
SPLINE
5
152
100
AcDbEntity
8
0
100
AcDbSpline
70
0
71
3
72
9
73
5
74
0
42
0.000000001
43
0.0000000001
44
0.0000000001
40
0
40
0
40
0
40
0
40
0.042648683931945826
40
0.07635622967276906
40
0.07635622967276906
40
0.07635622967276906
40
0.07635622967276906
10
-12.931172068715103
20
4.2077738249301921
30
0
10
-12.928406927356772
20
4.3515382831976046
30
0
10
-12.923456346256277
20
4.6089275149911169
30
0
10
-12.823798813918357
20
4.8455181263892388
30
0
10
-12.779804881215103
20
4.9499613249301921
30
0
0
SPLINE
5
153
100
AcDbEntity
8
0
100
AcDbSpline
70
0
71
3
72
9
73
5
74
0
42
0.000000001
43
0.0000000001
44
0.0000000001
40
0
40
0
40
0
40
0
40
0.028484068353606295
40
0.055146373602852745
40
0.055146373602852745
40
0.055146373602852745
40
0.055146373602852745
10
-12.779804881215103
20
4.9499613249301921
30
0
10
-12.726823317467826
20
5.0306949781536403
30
0
10
-12.624248745879258
20
5.1869987809571372
30
0
10
-12.460854107018623
20
5.2773647247051958
30
0
10
-12.381855662465103
20
5.3210550749301921
30
0
0
SPLINE
5
154
100
AcDbEntity
8
0
100
AcDbSpline
70
0
71
3
72
9
73
5
74
0
42
0.000000001
43
0.0000000001
44
0.0000000001
40
0
40
0
40
0
40
0
40
0.039107916179520918
40
0.10465367817872022
40
0.10465367817872022
40
0.10465367817872022
40
0.10465367817872022
10
-12.381855662465103
20
5.3210550749301921
30
0
10
-12.254794195784431
20
5.3519303819892761
30
0
10
-11.914774804777393
20
5.4345534098641846
30
0
10
-11.563970587267178
20
5.4308170645405296
30
0
10
-11.344258006215103
20
5.4284769499301921
30
0
0
LINE
5
155
100
AcDbEntity
8
0
100
AcDbLine
10
-11.344258006215103
20
5.428476949930193
30
0
11
-8.3608595687151031
21
5.4284769499301913
31
0
0
LINE
5
156
100
AcDbEntity
8
0
100
AcDbLine
10
-8.3608595687151031
20
5.4284769499301913
30
0
11
-8.3608595687151031
21
6.0730081999301921
31
0
0
LINE
5
157
100
AcDbEntity
8
0
100
AcDbLine
10
-8.3608595687151031
20
6.0730081999301921
30
0
11
-7.6772658187151022
21
6.0730081999301921
31
0
0
LINE
5
158
100
AcDbEntity
8
0
100
AcDbLine
10
-7.6772658187151022
20
6.0730081999301921
30
0
11
-7.6772658187151022
21
5.4284769499301921
31
0
0
LINE
5
159
100
AcDbEntity
8
0
100
AcDbLine
10
-7.6772658187151022
20
5.4284769499301921
30
0
11
-6.3930861312151022
21
5.4284769499301921
31
0
0
LINE
5
160
100
AcDbEntity
8
0
100
AcDbLine
10
-6.3930861312151022
20
5.4284769499301921
30
0
11
-5.8657423812151022
21
4.5544535124301921
31
0
0
LINE
5
161
100
AcDbEntity
8
0
100
AcDbLine
10
-5.8657423812151022
20
4.5544535124301921
30
0
11
-7.6772658187151022
21
4.554453512430193
31
0
0
LINE
5
162
100
AcDbEntity
8
0
100
AcDbLine
10
-7.6772658187151022
20
4.554453512430193
30
0
11
-7.6772658187151022
21
3.6706644499301921
31
0
0
LINE
5
163
100
AcDbEntity
8
0
100
AcDbLine
10
-7.6772658187151022
20
3.6706644499301921
30
0
11
-8.3608595687151031
21
3.6706644499301921
31
0
0
LINE
5
164
100
AcDbEntity
8
0
100
AcDbLine
10
-8.3608595687151031
20
3.6706644499301921
30
0
11
-8.3608595687151031
21
4.5544535124301921
31
0
0
LINE
5
165
100
AcDbEntity
8
0
100
AcDbLine
10
-8.3608595687151031
20
4.5544535124301921
30
0
11
-11.393086131215103
21
4.554453512430193
31
0
0
SPLINE
5
166
100
AcDbEntity
8
0
100
AcDbSpline
70
0
71
3
72
9
73
5
74
0
42
0.000000001
43
0.0000000001
44
0.0000000001
40
0
40
0
40
0
40
0
40
0.030905553815693699
40
0.048704916541159278
40
0.048704916541159278
40
0.048704916541159278
40
0.048704916541159278
10
-11.393086131215103
20
4.5544535124301921
30
0
10
-11.496639494713449
20
4.5557500214047186
30
0
10
-11.659832102644728
20
4.5577932257354314
30
0
10
-11.818499189857107
20
4.5213756936630922
30
0
10
-11.876484568715103
20
4.5080667936801921
30
0
0
SPLINE
5
167
100
AcDbEntity
8
0
100
AcDbSpline
70
0
71
3
72
9
73
5
74
0
42
0.000000001
43
0.0000000001
44
0.0000000001
40
0
40
0
40
0
40
0
40
0.011412758211555275
40
0.023119422104390712
40
0.023119422104390712
40
0.023119422104390712
40
0.023119422104390712
10
-11.876484568715103
20
4.5080667936801921
30
0
10
-11.910591335768288
20
4.4899455254905574
30
0
10
-11.979683200285351
20
4.4532363233347771
30
0
10
-12.024625959279282
20
4.3891500773912417
30
0
10
-12.047383006215103
20
4.3566996061801921
30
0
0
SPLINE
5
168
100
AcDbEntity
8
0
100
AcDbSpline
70
0
71
3
72
9
73
5
74
0
42
0.000000001
43
0.0000000001
44
0.0000000001
40
0
40
0
40
0
40
0
40
0.01361576555699154
40
0.03096145870991214
40
0.03096145870991214
40
0.03096145870991214
40
0.03096145870991214
10
-12.047383006215103
20
4.3566996061801921
30
0
10
-12.065828487944213
20
4.3147664984630651
30
0
10
-12.10777244023612
20
4.2194130511869776
30
0
10
-12.109751070671745
20
4.1149374993409049
30
0
10
-12.110859568715103
20
4.0564066374301921
30
0
0
SPLINE
5
169
100
AcDbEntity
8
0
100
AcDbSpline
70
0
71
3
72
9
73
5
74
0
42
0.000000001
43
0.0000000001
44
0.0000000001
40
0
40
0
40
0
40
0
40
0.016989275803424617
40
0.038747260340797098
40
0.038747260340797098
40
0.038747260340797098
40
0.038747260340797098
10
-12.110859568715103
20
4.0564066374301921
30
0
10
-12.108849564903377
20
3.9997766363057918
30
0
10
-12.104265370622219
20
3.8706211960118297
30
0
10
-12.086599759288227
20
3.7425698822302822
30
0
10
-12.076679881215103
20
3.6706644499301921
30
0
0
ENDSEC
0
SECTION
2
OBJECTS
0
DICTIONARY
5
C
100
AcDbDictionary
3
ACAD_GROUP
350
D
3
ACAD_MLINESTYLE
350
17
0
DICTIONARY
5
D
100
AcDbDictionary
0
DICTIONARY
5
1A
330
C
100
AcDbDictionary
0
DICTIONARY
5
17
100
AcDbDictionary
0
ENDSEC
0
EOF
