0
SECTION
2
HEADER
9
$INSUNITS
70
4
9
$ACADVER
1
AC1014
9
$HANDSEED
5
FFFF
0
ENDSEC
0
SECTION
2
TABLES
0
TABLE
2
VPORT
5
8
100
AcDbSymbolTable
0
ENDTAB
0
TABLE
2
LTYPE
5
5
100
AcDbSymbolTable
0
LTYPE
5
14
100
AcDbSymbolTableRecord
100
AcDbLinetypeTableRecord
2
BYBLOCK
70
0
0
LTYPE
5
15
100
AcDbSymbolTableRecord
100
AcDbLinetypeTableRecord
2
BYLAYER
70
0
0
LTYPE
5
16
100
AcDbSymbolTableRecord
100
AcDbLinetypeTableRecord
2
DASHED
70
0
3
Dashed __ __ __ __ __ __ __ __ __ __ __ __ __ _
72
65
73
2
40
0.75
49
0.5
74
0
49
-0.25
74
0
0
ENDTAB
0
TABLE
2
LAYER
5
2
100
AcDbSymbolTable
70
2
0
LAYER
5
50
100
AcDbSymbolTableRecord
100
AcDbLayerTableRecord
2
0
70
0
62
7
6
CONTINUOUS
0
ENDTAB
0
TABLE
2
STYLE
5
3
100
AcDbSymbolTable
70
1
0
STYLE
5
11
100
AcDbSymbolTableRecord
100
AcDbTextStyleTableRecord
2
STANDARD
70
0
0
ENDTAB
0
TABLE
2
VIEW
5
6
100
AcDbSymbolTable
70
0
0
ENDTAB
0
TABLE
2
UCS
5
7
100
AcDbSymbolTable
70
0
0
ENDTAB
0
TABLE
2
APPID
5
9
100
AcDbSymbolTable
70
2
0
APPID
5
12
100
AcDbSymbolTableRecord
100
AcDbRegAppTableRecord
2
ACAD
70
0
0
ENDTAB
0
TABLE
2
DIMSTYLE
5
A
100
AcDbSymbolTable
70
1
0
ENDTAB
0
TABLE
2
BLOCK_RECORD
5
1
100
AcDbSymbolTable
70
1
0
BLOCK_RECORD
5
1F
100
AcDbSymbolTableRecord
100
AcDbBlockTableRecord
2
*MODEL_SPACE
0
BLOCK_RECORD
5
1B
100
AcDbSymbolTableRecord
100
AcDbBlockTableRecord
2
*PAPER_SPACE
0
ENDTAB
0
ENDSEC
0
SECTION
2
BLOCKS
0
BLOCK
5
20
100
AcDbEntity
100
AcDbBlockBegin
2
*MODEL_SPACE
0
ENDBLK
5
21
100
AcDbEntity
100
AcDbBlockEnd
0
BLOCK
5
1C
100
AcDbEntity
100
AcDbBlockBegin
2
*PAPER_SPACE
0
ENDBLK
5
1D
100
AcDbEntity
100
AcDbBlockEnd
0
ENDSEC
0
SECTION
2
ENTITIES
0
ELLIPSE
5
100
100
AcDbEntity
8
0
100
AcDbEllipse
10
109.99999999999999
20
-99.006147908257987
30
1.1657341758564144e-13
11
1.7763568394002505e-14
21
314.84752334149528
31
0.0
40
0.088931937974505423
41
1.4769084530905423
42
1.4993068779764689
0
LINE
5
101
100
AcDbEntity
8
0
100
AcDbLine
10
82.123318017292277
20
-69.489193034829228
30
8.1345234449541426e-14
11
95
21
-69.489193034829242
31
8.1046280797636427e-14
0
ELLIPSE
5
102
100
AcDbEntity
8
0
100
AcDbEllipse
10
95
20
-54.429522181039324
30
6.3282712403633923e-14
11
0
21
-15.05967085378993
31
0.0
40
0.99603770531446179
41
0
42
1.570796326794897
0
LINE
5
103
100
AcDbEntity
8
0
100
AcDbLine
10
110
20
-54.429522181039324
30
6.3282712403633923e-14
11
110
21
0.78927094952373267
31
-2.2204460492503131e-15
0
LINE
5
104
100
AcDbEntity
8
0
100
AcDbLine
10
110
20
0.78927094952373267
30
-2.2204460492503131e-15
11
-1.7763568394002505e-14
21
0.78927094952373611
31
-2.2204460492503131e-15
0
LINE
5
105
100
AcDbEntity
8
0
100
AcDbLine
10
-1.7763568394002505e-14
20
0.78927094952373611
30
-2.2204460492503131e-15
11
-1.7763568394002505e-14
21
-54.429522181039331
31
6.3282712403633923e-14
0
ELLIPSE
5
106
100
AcDbEntity
8
0
100
AcDbEllipse
10
15.000000000000007
20
-54.429522181039331
30
6.3282712403633923e-14
11
0
21
-15.059670853789932
31
0.0
40
0.99603770531446123
41
4.7123889803846897
42
6.2831853071795853
0
LINE
5
107
100
AcDbEntity
8
0
100
AcDbLine
10
14.999999999999993
20
-69.489193034829256
30
8.1465270144738872e-14
11
27.876681982707723
21
-69.489193034829242
31
8.1046280797636415e-14
0
ELLIPSE
5
108
100
AcDbEntity
8
0
100
AcDbEllipse
10
8.5487172896137054e-15
20
-99.006147908257589
30
1.1657341758564144e-13
11
3.4290110887088365e-15
21
-314.84752334149528
31
0.0
40
0.088931937974505423
41
1.6422857756133231
42
1.6646842004992497
0
LINE
5
109
100
AcDbEntity
8
0
100
AcDbLine
10
27.928480505838856
20
-76.517039433264543
30
8.9732897100994153e-14
11
82.071519494161137
21
-76.517039433264543
31
8.9732897100993699e-14
0
LINE
5
110
100
AcDbEntity
8
0
100
AcDbLine
10
-1.7763568394002505e-14
20
0.78927094952373611
30
0
11
110
21
0.78927094952373267
31
-2.2204460492503131e-15
0
LINE
5
111
100
AcDbEntity
8
0
100
AcDbLine
10
-1.7763568394002505e-14
20
0.78927094952373611
30
0
11
-1.7763568394002505e-14
21
-54.429522181039331
31
6.3282712403633923e-14
0
LINE
5
112
100
AcDbEntity
8
0
100
AcDbLine
10
8.9999999999999822
20
0.78927094952373611
30
0
11
8.9999999999999822
21
-54.429522181039331
31
6.328271240363391e-14
0
LINE
5
113
100
AcDbEntity
8
0
100
AcDbLine
10
22.999999999999986
20
0.78927094952373611
30
0
11
22.999999999999986
21
-54.429522181039331
31
6.328271240363391e-14
0
LINE
5
114
100
AcDbEntity
8
0
100
AcDbLine
10
54.999999999999993
20
0.78927094952373433
30
-2.2204460492503131e-15
11
55
21
-76.517039433264543
31
8.9732897100993913e-14
0
LINE
5
115
100
AcDbEntity
8
0
100
AcDbLine
10
39.999999999999986
20
0.78927094952373611
30
0
11
39.999999999999986
21
-54.429522181039331
31
6.328271240363391e-14
0
SPLINE
5
116
100
AcDbEntity
8
0
100
AcDbSpline
70
4
71
5
72
26
73
20
74
0
42
0.000000001
43
0.0000000001
44
0.0000000001
40
0
40
0
40
0
40
0
40
0
40
0
40
0.066666666666666666
40
0.13333333333333333
40
0.20000000000000001
40
0.26666666666666666
40
0.33333333333333331
40
0.39999999999999997
40
0.46666666666666662
40
0.53333333333333333
40
0.59999999999999998
40
0.66666666666666663
40
0.73333333333333328
40
0.79999999999999993
40
0.86666666666666659
40
0.93333333333333324
40
1
40
1
40
1
40
1
40
1
40
1
41
1
41
1
41
1
41
1
41
1
41
1
41
1
41
1
41
1
41
1
41
1
41
1
41
1
41
1
41
1
41
1
41
1
41
1
41
1
41
1
10
8.9999999999999822
20
-54.429522181039331
30
6.328271240363391e-14
10
8.9999999999999822
20
-54.982672975255909
30
5.9229360739560701e-14
10
9.0704739943429882
20
-56.057849659369495
30
5.1328983051395103e-14
10
9.3876066601883608
20
-57.577240595491844
30
4.0097391922197328e-14
10
10.246846683869702
20
-59.415252741606025
30
2.6390376694682021e-14
10
12.108433479054156
20
-61.398052256790024
30
1.155771395774007e-14
10
14.801474839131938
20
-63.072916329539524
30
-7.2042238301523823e-16
10
18.308616973146737
20
-64.463365013462635
30
-1.0172958529009751e-14
10
22.503027785690563
20
-65.619056085255494
30
-1.656585106518259e-14
10
27.182121221597811
20
-66.606979706150426
30
-1.9687515418747458e-14
10
32.098128577755467
20
-67.503554588823945
30
-1.9342925828039553e-14
10
36.985880319788023
20
-68.387509062716362
30
-1.535493107882942e-14
10
41.591176036473712
20
-69.332625521050346
30
-7.5773010605840246e-15
10
45.695818217213919
20
-70.401378988736042
30
4.0889906595894327e-15
10
49.152934178124326
20
-71.635837099679065
30
1.9653551477410578e-14
10
51.895731558813409
20
-73.055617893252759
30
3.9034498453445367e-14
10
53.501877929165616
20
-74.34490879282302
30
5.7507764379827171e-14
10
54.377843243947083
20
-75.397796608381526
30
7.299147030656195e-14
10
54.816785846832488
20
-76.137639183330137
30
8.4032639587773704e-14
10
55
20
-76.517039433264543
30
8.9732897100993913e-14
0
SPLINE
5
117
100
AcDbEntity
8
0
100
AcDbSpline
70
4
71
5
72
26
73
20
74
0
42
0.000000001
43
0.0000000001
44
0.0000000001
40
0
40
0
40
0
40
0
40
0
40
0
40
0.066666666666666666
40
0.13333333333333333
40
0.20000000000000001
40
0.26666666666666666
40
0.33333333333333331
40
0.39999999999999997
40
0.46666666666666662
40
0.53333333333333333
40
0.59999999999999998
40
0.66666666666666663
40
0.73333333333333328
40
0.79999999999999993
40
0.86666666666666659
40
0.93333333333333324
40
1
40
1
40
1
40
1
40
1
40
1
41
1
41
1
41
1
41
1
41
1
41
1
41
1
41
1
41
1
41
1
41
1
41
1
41
1
41
1
41
1
41
1
41
1
41
1
41
1
41
1
10
22.999999999999986
20
-54.429522181039331
30
6.328271240363391e-14
10
22.999999977985706
20
-54.998562869873822
30
5.924033008738563e-14
10
23.089896283866885
20
-56.072310607109152
30
5.1459403100958611e-14
10
23.49442144243881
20
-57.489939706357838
30
4.0699493283635155e-14
10
24.55082506644089
20
-59.013991951869833
30
2.8129158954464445e-14
10
26.600777066696342
20
-60.424507216683388
30
1.5137197385508618e-14
10
29.203892766157992
20
-61.490407956142676
30
4.6108643975799595e-15
10
32.167693878857861
20
-62.368496491855851
30
-3.63130039309519e-15
10
35.313927916401802
20
-63.190723783671913
30
-9.5894154383843667e-15
10
38.494099563262495
20
-64.04996191347864
30
-1.3050372979518332e-14
10
41.583901731469368
20
-65.011357214452204
30
-1.366934000023489e-14
10
44.483012992067728
20
-66.116730881391035
30
-1.1025550535262637e-14
10
47.113946616831932
20
-67.390759216408398
30
-4.7001266291088206e-15
10
49.421862931639176
20
-68.845356077325818
30
5.6563599154696226e-15
10
51.377318814004916
20
-70.483812433228252
30
2.020963554356513e-14
10
52.971400928153599
20
-72.304189288282728
30
3.895786596328934e-14
10
53.959130390503049
20
-73.902667039132055
30
5.7254292330755903e-14
10
54.540947228784731
20
-75.179679815495064
30
7.2792475811040014e-14
10
54.858674123459885
20
-76.065505550726172
30
8.3952545353396888e-14
10
55
20
-76.517039433264543
30
8.9732897100993913e-14
0
SPLINE
5
118
100
AcDbEntity
8
0
100
AcDbSpline
70
4
71
5
72
26
73
20
74
0
42
0.000000001
43
0.0000000001
44
0.0000000001
40
0
40
0
40
0
40
0
40
0
40
0
40
0.066666666666666666
40
0.13333333333333333
40
0.20000000000000001
40
0.26666666666666666
40
0.33333333333333331
40
0.39999999999999997
40
0.46666666666666662
40
0.53333333333333333
40
0.59999999999999998
40
0.66666666666666663
40
0.73333333333333328
40
0.79999999999999993
40
0.86666666666666659
40
0.93333333333333324
40
1
40
1
40
1
40
1
40
1
40
1
41
1
41
1
41
1
41
1
41
1
41
1
41
1
41
1
41
1
41
1
41
1
41
1
41
1
41
1
41
1
41
1
41
1
41
1
41
1
41
1
10
39.999999999999986
20
-54.429522181039331
30
6.328271240363391e-14
10
39.999999999999986
20
-54.979767696814349
30
6.0256295266742364e-14
10
40.040641887695479
20
-56.017357776024703
30
5.4288882564882942e-14
10
40.223527871035046
20
-57.385045509261239
30
4.5594015210310438e-14
10
40.701423675940461
20
-58.851722961497344
30
3.4501503853900826e-14
10
41.630622831241382
20
-60.209362546216845
30
2.1452715494725489e-14
10
42.813378487535729
20
-61.246199540950343
30
9.2873548742579781e-15
10
44.163593195856485
20
-62.123628886209296
30
-1.7766614241521533e-15
10
45.599357401859052
20
-62.979155633331978
30
-1.1291454719935099e-14
10
47.052943584432967
20
-63.901572123794743
30
-1.8527210387161073e-14
10
48.468935887065996
20
-64.944438189944591
30
-2.2607280346734659e-14
10
49.803918574705015
20
-66.134676204602869
30
-2.2632571485702598e-14
10
51.025791243319496
20
-67.481615724337288
30
-1.780532144599897e-14
10
52.114323344028989
20
-68.985237861532994
30
-7.5993369653682678e-15
10
53.060266454377647
20
-70.64219569931592
30
8.1695672255341942e-15
10
53.861170055787696
20
-72.447281276535136
30
2.9498773475494955e-14
10
54.387034797982622
20
-74.005747034251428
30
5.0927168321312004e-14
10
54.718004695457608
20
-75.237216470963574
30
6.9402102955362785e-14
10
54.910665866055282
20
-76.085826690392281
30
8.2779214352972396e-14
10
55
20
-76.517039433264543
30
8.9732897100993913e-14
0
ENDSEC
0
SECTION
2
OBJECTS
0
DICTIONARY
5
C
100
AcDbDictionary
3
ACAD_GROUP
350
D
3
ACAD_MLINESTYLE
350
17
0
DICTIONARY
5
D
100
AcDbDictionary
0
DICTIONARY
5
1A
330
C
100
AcDbDictionary
0
DICTIONARY
5
17
100
AcDbDictionary
0
ENDSEC
0
EOF
