0
SECTION
2
HEADER
9
$INSUNITS
70
4
9
$ACADVER
1
AC1014
9
$HANDSEED
5
FFFF
0
ENDSEC
0
SECTION
2
TABLES
0
TABLE
2
VPORT
5
8
100
AcDbSymbolTable
0
ENDTAB
0
TABLE
2
LTYPE
5
5
100
AcDbSymbolTable
0
LTYPE
5
14
100
AcDbSymbolTableRecord
100
AcDbLinetypeTableRecord
2
BYBLOCK
70
0
0
LTYPE
5
15
100
AcDbSymbolTableRecord
100
AcDbLinetypeTableRecord
2
BYLAYER
70
0
0
LTYPE
5
16
100
AcDbSymbolTableRecord
100
AcDbLinetypeTableRecord
2
DASHED
70
0
3
Dashed __ __ __ __ __ __ __ __ __ __ __ __ __ _
72
65
73
2
40
0.75
49
0.5
74
0
49
-0.25
74
0
0
ENDTAB
0
TABLE
2
LAYER
5
2
100
AcDbSymbolTable
70
2
0
LAYER
5
50
100
AcDbSymbolTableRecord
100
AcDbLayerTableRecord
2
0
70
0
62
7
6
CONTINUOUS
0
ENDTAB
0
TABLE
2
STYLE
5
3
100
AcDbSymbolTable
70
1
0
STYLE
5
11
100
AcDbSymbolTableRecord
100
AcDbTextStyleTableRecord
2
STANDARD
70
0
0
ENDTAB
0
TABLE
2
VIEW
5
6
100
AcDbSymbolTable
70
0
0
ENDTAB
0
TABLE
2
UCS
5
7
100
AcDbSymbolTable
70
0
0
ENDTAB
0
TABLE
2
APPID
5
9
100
AcDbSymbolTable
70
2
0
APPID
5
12
100
AcDbSymbolTableRecord
100
AcDbRegAppTableRecord
2
ACAD
70
0
0
ENDTAB
0
TABLE
2
DIMSTYLE
5
A
100
AcDbSymbolTable
70
1
0
ENDTAB
0
TABLE
2
BLOCK_RECORD
5
1
100
AcDbSymbolTable
70
1
0
BLOCK_RECORD
5
1F
100
AcDbSymbolTableRecord
100
AcDbBlockTableRecord
2
*MODEL_SPACE
0
BLOCK_RECORD
5
1B
100
AcDbSymbolTableRecord
100
AcDbBlockTableRecord
2
*PAPER_SPACE
0
ENDTAB
0
ENDSEC
0
SECTION
2
BLOCKS
0
BLOCK
5
20
100
AcDbEntity
100
AcDbBlockBegin
2
*MODEL_SPACE
0
ENDBLK
5
21
100
AcDbEntity
100
AcDbBlockEnd
0
BLOCK
5
1C
100
AcDbEntity
100
AcDbBlockBegin
2
*PAPER_SPACE
0
ENDBLK
5
1D
100
AcDbEntity
100
AcDbBlockEnd
0
ENDSEC
0
SECTION
2
ENTITIES
0
POINT
5
100
100
AcDbEntity
8
0
100
AcDbPoint
10
0
20
0
30
0
0
SPLINE
5
101
100
AcDbEntity
8
0
100
AcDbSpline
70
4
71
3
72
8
73
4
74
0
42
0.000000001
43
0.0000000001
44
0.0000000001
40
0
40
0
40
0
40
0
40
1
40
1
40
1
40
1
41
1
41
1
41
1
41
1
10
81.862083333333345
20
-52.308125000000004
30
0
10
79.427916666666675
20
-54.477708333333332
30
0
10
76.464583333333337
20
-57.150000000000006
30
0
10
75.300416666666678
20
-58.261250000000004
30
0
0
SPLINE
5
102
100
AcDbEntity
8
0
100
AcDbSpline
70
4
71
3
72
8
73
4
74
0
42
0.000000001
43
0.0000000001
44
0.0000000001
40
0
40
0
40
0
40
0
40
1
40
1
40
1
40
1
41
1
41
1
41
1
41
1
10
75.300416666666678
20
-58.261250000000004
30
0
10
74.10979166666668
20
-59.372500000000002
30
0
10
73.077916666666681
20
-60.192708333333343
30
0
10
72.972083333333345
20
-60.086874999999999
30
0
0
SPLINE
5
103
100
AcDbEntity
8
0
100
AcDbSpline
70
4
71
3
72
8
73
4
74
0
42
0.000000001
43
0.0000000001
44
0.0000000001
40
0
40
0
40
0
40
0
40
1
40
1
40
1
40
1
41
1
41
1
41
1
41
1
10
72.972083333333345
20
-60.086874999999999
30
0
10
72.522291666666689
20
-59.663541666666681
30
0
10
72.178333333333342
20
-56.620833333333344
30
0
10
72.310625000000016
20
-54.345416666666672
30
0
0
SPLINE
5
104
100
AcDbEntity
8
0
100
AcDbSpline
70
4
71
3
72
8
73
4
74
0
42
0.000000001
43
0.0000000001
44
0.0000000001
40
0
40
0
40
0
40
0
40
1
40
1
40
1
40
1
41
1
41
1
41
1
41
1
10
72.310625000000016
20
-54.345416666666672
30
0
10
72.495833333333351
20
-51.567291666666662
30
0
10
72.231250000000017
20
-50.932291666666671
30
0
10
70.776041666666686
20
-50.641249999999999
30
0
0
SPLINE
5
105
100
AcDbEntity
8
0
100
AcDbSpline
70
4
71
3
72
8
73
4
74
0
42
0.000000001
43
0.0000000001
44
0.0000000001
40
0
40
0
40
0
40
0
40
1
40
1
40
1
40
1
41
1
41
1
41
1
41
1
10
70.776041666666686
20
-50.641249999999999
30
0
10
69.558958333333351
20
-50.429583333333326
30
0
10
68.765208333333348
20
-50.958749999999995
30
0
10
67.839166666666685
20
-52.572708333333338
30
0
0
SPLINE
5
106
100
AcDbEntity
8
0
100
AcDbSpline
70
4
71
3
72
8
73
4
74
0
42
0.000000001
43
0.0000000001
44
0.0000000001
40
0
40
0
40
0
40
0
40
1
40
1
40
1
40
1
41
1
41
1
41
1
41
1
10
67.839166666666685
20
-52.572708333333338
30
0
10
67.442291666666677
20
-53.287083333333328
30
0
10
65.960625000000007
20
-55.747708333333335
30
0
10
64.558333333333337
20
-58.076041666666676
30
0
0
SPLINE
5
107
100
AcDbEntity
8
0
100
AcDbSpline
70
4
71
3
72
8
73
4
74
0
42
0.000000001
43
0.0000000001
44
0.0000000001
40
0
40
0
40
0
40
0
40
1
40
1
40
1
40
1
41
1
41
1
41
1
41
1
10
64.558333333333337
20
-58.076041666666676
30
0
10
60.695416666666674
20
-64.399583333333339
30
0
10
60.377916666666678
20
-64.981666666666669
30
0
10
60.033958333333345
20
-66.119375000000005
30
0
0
SPLINE
5
108
100
AcDbEntity
8
0
100
AcDbSpline
70
4
71
3
72
8
73
4
74
0
42
0.000000001
43
0.0000000001
44
0.0000000001
40
0
40
0
40
0
40
0
40
1
40
1
40
1
40
1
41
1
41
1
41
1
41
1
10
60.033958333333345
20
-66.119375000000005
30
0
10
59.637083333333351
20
-67.442291666666677
30
0
10
60.007500000000007
20
-67.997916666666669
30
0
10
61.224583333333342
20
-67.997916666666669
30
0
0
SPLINE
5
109
100
AcDbEntity
8
0
100
AcDbSpline
70
4
71
3
72
8
73
4
74
0
42
0.000000001
43
0.0000000001
44
0.0000000001
40
0
40
0
40
0
40
0
40
1
40
1
40
1
40
1
41
1
41
1
41
1
41
1
10
61.224583333333342
20
-67.997916666666669
30
0
10
62.388750000000009
20
-67.997916666666669
30
0
10
63.023750000000014
20
-67.230625000000003
30
0
10
64.002708333333345
20
-64.717083333333335
30
0
0
SPLINE
5
110
100
AcDbEntity
8
0
100
AcDbSpline
70
4
71
3
72
8
73
4
74
0
42
0.000000001
43
0.0000000001
44
0.0000000001
40
0
40
0
40
0
40
0
40
1
40
1
40
1
40
1
41
1
41
1
41
1
41
1
10
64.002708333333345
20
-64.717083333333335
30
0
10
64.690625000000011
20
-62.944375000000001
30
0
10
67.018958333333345
20
-58.446458333333339
30
0
10
68.844583333333333
20
-55.43020833333334
30
0
0
LINE
5
111
100
AcDbEntity
8
0
100
AcDbLine
10
68.844583333333333
20
-55.43020833333334
30
0
11
69.32083333333334
21
-54.636458333333344
31
0
0
LINE
5
112
100
AcDbEntity
8
0
100
AcDbLine
10
69.32083333333334
20
-54.636458333333344
30
0
11
69.294375000000031
21
-57.150000000000006
31
0
0
SPLINE
5
113
100
AcDbEntity
8
0
100
AcDbSpline
70
4
71
3
72
8
73
4
74
0
42
0.000000001
43
0.0000000001
44
0.0000000001
40
0
40
0
40
0
40
0
40
1
40
1
40
1
40
1
41
1
41
1
41
1
41
1
10
69.294375000000016
20
-57.150000000000006
30
0
10
69.294375000000016
20
-60.377916666666671
30
0
10
69.850000000000009
20
-62.891458333333347
30
0
10
70.776041666666686
20
-63.685208333333343
30
0
0
SPLINE
5
114
100
AcDbEntity
8
0
100
AcDbSpline
70
4
71
3
72
8
73
4
74
0
42
0.000000001
43
0.0000000001
44
0.0000000001
40
0
40
0
40
0
40
0
40
1
40
1
40
1
40
1
41
1
41
1
41
1
41
1
10
70.776041666666686
20
-63.685208333333343
30
0
10
71.4375
20
-64.267291666666665
30
0
10
71.516875000000013
20
-64.267291666666665
30
0
10
72.284166666666678
20
-63.870416666666671
30
0
0
SPLINE
5
115
100
AcDbEntity
8
0
100
AcDbSpline
70
4
71
3
72
8
73
4
74
0
42
0.000000001
43
0.0000000001
44
0.0000000001
40
0
40
0
40
0
40
0
40
1
40
1
40
1
40
1
41
1
41
1
41
1
41
1
10
72.284166666666678
20
-63.870416666666671
30
0
10
72.733958333333362
20
-63.632291666666674
30
0
10
75.194583333333341
20
-61.489166666666662
30
0
10
77.734583333333347
20
-59.107916666666675
30
0
0
SPLINE
5
116
100
AcDbEntity
8
0
100
AcDbSpline
70
4
71
3
72
8
73
4
74
0
42
0.000000001
43
0.0000000001
44
0.0000000001
40
0
40
0
40
0
40
0
40
1
40
1
40
1
40
1
41
1
41
1
41
1
41
1
10
77.734583333333347
20
-59.107916666666675
30
0
10
80.301041666666677
20
-56.726666666666674
30
0
10
82.444166666666675
20
-54.821666666666673
30
0
10
82.470625000000013
20
-54.874583333333334
30
0
0
SPLINE
5
117
100
AcDbEntity
8
0
100
AcDbSpline
70
4
71
3
72
8
73
4
74
0
42
0.000000001
43
0.0000000001
44
0.0000000001
40
0
40
0
40
0
40
0
40
1
40
1
40
1
40
1
41
1
41
1
41
1
41
1
10
82.470625000000013
20
-54.874583333333334
30
0
10
82.523541666666688
20
-54.901041666666679
30
0
10
81.676875000000024
20
-56.779583333333335
30
0
10
80.592083333333363
20
-59.028541666666669
30
0
0
SPLINE
5
118
100
AcDbEntity
8
0
100
AcDbSpline
70
4
71
3
72
8
73
4
74
0
42
0.000000001
43
0.0000000001
44
0.0000000001
40
0
40
0
40
0
40
0
40
1
40
1
40
1
40
1
41
1
41
1
41
1
41
1
10
80.592083333333363
20
-59.028541666666669
30
0
10
77.284791666666678
20
-65.93416666666667
30
0
10
76.755625000000009
20
-68.765208333333334
30
0
10
78.607708333333349
20
-69.400208333333339
30
0
0
SPLINE
5
119
100
AcDbEntity
8
0
100
AcDbSpline
70
4
71
3
72
8
73
4
74
0
42
0.000000001
43
0.0000000001
44
0.0000000001
40
0
40
0
40
0
40
0
40
1
40
1
40
1
40
1
41
1
41
1
41
1
41
1
10
78.607708333333349
20
-69.400208333333339
30
0
10
79.216250000000031
20
-69.611874999999998
30
0
10
80.592083333333363
20
-68.923958333333346
30
0
10
81.121250000000032
20
-68.156666666666666
30
0
0
SPLINE
5
120
100
AcDbEntity
8
0
100
AcDbSpline
70
4
71
3
72
8
73
4
74
0
42
0.000000001
43
0.0000000001
44
0.0000000001
40
0
40
0
40
0
40
0
40
1
40
1
40
1
40
1
41
1
41
1
41
1
41
1
10
81.121250000000032
20
-68.156666666666666
30
0
10
81.518125000000026
20
-67.521666666666675
30
0
10
81.518125000000026
20
-67.415833333333325
30
0
10
81.147708333333355
20
-66.992500000000007
30
0
0
SPLINE
5
121
100
AcDbEntity
8
0
100
AcDbSpline
70
4
71
3
72
8
73
4
74
0
42
0.000000001
43
0.0000000001
44
0.0000000001
40
0
40
0
40
0
40
0
40
1
40
1
40
1
40
1
41
1
41
1
41
1
41
1
10
81.147708333333355
20
-66.992500000000007
30
0
10
80.777291666666684
20
-66.569166666666661
30
0
10
80.750833333333333
20
-66.357500000000002
30
0
10
81.068333333333356
20
-65.193333333333342
30
0
0
SPLINE
5
122
100
AcDbEntity
8
0
100
AcDbSpline
70
4
71
3
72
8
73
4
74
0
42
0.000000001
43
0.0000000001
44
0.0000000001
40
0
40
0
40
0
40
0
40
1
40
1
40
1
40
1
41
1
41
1
41
1
41
1
10
81.068333333333356
20
-65.193333333333342
30
0
10
81.544583333333364
20
-63.36770833333334
30
0
10
82.285416666666691
20
-61.462708333333332
30
0
10
83.740625000000009
20
-58.208333333333336
30
0
0
SPLINE
5
123
100
AcDbEntity
8
0
100
AcDbSpline
70
4
71
3
72
8
73
4
74
0
42
0.000000001
43
0.0000000001
44
0.0000000001
40
0
40
0
40
0
40
0
40
1
40
1
40
1
40
1
41
1
41
1
41
1
41
1
10
83.740625000000009
20
-58.208333333333336
30
0
10
84.428541666666689
20
-56.700208333333329
30
0
10
85.222291666666692
20
-54.795208333333328
30
0
10
85.51333333333335
20
-53.975000000000009
30
0
0
SPLINE
5
124
100
AcDbEntity
8
0
100
AcDbSpline
70
4
71
3
72
8
73
4
74
0
42
0.000000001
43
0.0000000001
44
0.0000000001
40
0
40
0
40
0
40
0
40
1
40
1
40
1
40
1
41
1
41
1
41
1
41
1
10
85.51333333333335
20
-53.975000000000009
30
0
10
85.830833333333359
20
-53.181250000000013
30
0
10
86.465833333333364
20
-51.884791666666665
30
0
10
86.942083333333358
20
-51.117500000000007
30
0
0
SPLINE
5
125
100
AcDbEntity
8
0
100
AcDbSpline
70
4
71
3
72
8
73
4
74
0
42
0.000000001
43
0.0000000001
44
0.0000000001
40
0
40
0
40
0
40
0
40
1
40
1
40
1
40
1
41
1
41
1
41
1
41
1
10
86.942083333333358
20
-51.117500000000007
30
0
10
87.444791666666674
20
-50.350208333333335
30
0
10
87.841666666666669
20
-49.635833333333331
30
0
10
87.841666666666669
20
-49.503541666666663
30
0
0
SPLINE
5
126
100
AcDbEntity
8
0
100
AcDbSpline
70
4
71
3
72
8
73
4
74
0
42
0.000000001
43
0.0000000001
44
0.0000000001
40
0
40
0
40
0
40
0
40
1
40
1
40
1
40
1
41
1
41
1
41
1
41
1
10
87.841666666666669
20
-49.503541666666663
30
0
10
87.841666666666669
20
-49.212500000000006
30
0
10
86.942083333333358
20
-48.41875000000001
30
0
10
86.571666666666687
20
-48.41875000000001
30
0
0
SPLINE
5
127
100
AcDbEntity
8
0
100
AcDbSpline
70
4
71
3
72
8
73
4
74
0
42
0.000000001
43
0.0000000001
44
0.0000000001
40
0
40
0
40
0
40
0
40
1
40
1
40
1
40
1
41
1
41
1
41
1
41
1
10
86.571666666666687
20
-48.41875000000001
30
0
10
86.412916666666689
20
-48.41875000000001
30
0
10
84.296250000000015
20
-50.164999999999999
30
0
10
81.862083333333345
20
-52.308125000000004
30
0
0
SPLINE
5
128
100
AcDbEntity
8
0
100
AcDbSpline
70
4
71
3
72
8
73
4
74
0
42
0.000000001
43
0.0000000001
44
0.0000000001
40
0
40
0
40
0
40
0
40
1
40
1
40
1
40
1
41
1
41
1
41
1
41
1
10
149.96583333333336
20
-49.92687500000001
30
0
10
148.93395833333335
20
-51.038125000000001
30
0
10
146.65854166666671
20
-54.795208333333328
30
0
10
145.12395833333335
20
-57.99666666666667
30
0
0
SPLINE
5
129
100
AcDbEntity
8
0
100
AcDbSpline
70
4
71
3
72
8
73
4
74
0
42
0.000000001
43
0.0000000001
44
0.0000000001
40
0
40
0
40
0
40
0
40
1
40
1
40
1
40
1
41
1
41
1
41
1
41
1
10
145.12395833333335
20
-57.99666666666667
30
0
10
143.66875000000002
20
-61.039375000000007
30
0
10
142.82208333333335
20
-61.912500000000009
30
0
10
139.3560416666667
20
-64.135000000000005
30
0
0
SPLINE
5
130
100
AcDbEntity
8
0
100
AcDbSpline
70
4
71
3
72
8
73
4
74
0
42
0.000000001
43
0.0000000001
44
0.0000000001
40
0
40
0
40
0
40
0
40
1
40
1
40
1
40
1
41
1
41
1
41
1
41
1
10
139.3560416666667
20
-64.135000000000005
30
0
10
137.23937500000002
20
-65.510833333333338
30
0
10
135.91645833333337
20
-65.93416666666667
30
0
10
135.3079166666667
20
-65.510833333333338
30
0
0
SPLINE
5
131
100
AcDbEntity
8
0
100
AcDbSpline
70
4
71
3
72
8
73
4
74
0
42
0.000000001
43
0.0000000001
44
0.0000000001
40
0
40
0
40
0
40
0
40
1
40
1
40
1
40
1
41
1
41
1
41
1
41
1
10
135.3079166666667
20
-65.510833333333338
30
0
10
134.88458333333335
20
-65.193333333333342
30
0
10
134.88458333333335
20
-65.087500000000006
30
0
10
135.3079166666667
20
-63.764583333333348
30
0
0
SPLINE
5
132
100
AcDbEntity
8
0
100
AcDbSpline
70
4
71
3
72
8
73
4
74
0
42
0.000000001
43
0.0000000001
44
0.0000000001
40
0
40
0
40
0
40
0
40
1
40
1
40
1
40
1
41
1
41
1
41
1
41
1
10
135.3079166666667
20
-63.764583333333348
30
0
10
136.02229166666669
20
-61.568541666666675
30
0
10
137.95375000000001
20
-57.890833333333333
30
0
10
140.38791666666671
20
-54.080833333333338
30
0
0
SPLINE
5
133
100
AcDbEntity
8
0
100
AcDbSpline
70
4
71
3
72
8
73
4
74
0
42
0.000000001
43
0.0000000001
44
0.0000000001
40
0
40
0
40
0
40
0
40
1
40
1
40
1
40
1
41
1
41
1
41
1
41
1
10
140.38791666666671
20
-54.080833333333338
30
0
10
141.60500000000002
20
-52.149374999999992
30
0
10
142.61041666666668
20
-50.403125000000003
30
0
10
142.61041666666668
20
-50.164999999999999
30
0
0
SPLINE
5
134
100
AcDbEntity
8
0
100
AcDbSpline
70
4
71
3
72
8
73
4
74
0
42
0.000000001
43
0.0000000001
44
0.0000000001
40
0
40
0
40
0
40
0
40
1
40
1
40
1
40
1
41
1
41
1
41
1
41
1
10
142.61041666666668
20
-50.164999999999999
30
0
10
142.61041666666668
20
-49.900416666666665
30
0
10
142.37229166666668
20
-49.741666666666674
30
0
10
141.94895833333337
20
-49.741666666666674
30
0
0
SPLINE
5
135
100
AcDbEntity
8
0
100
AcDbSpline
70
4
71
3
72
8
73
4
74
0
42
0.000000001
43
0.0000000001
44
0.0000000001
40
0
40
0
40
0
40
0
40
1
40
1
40
1
40
1
41
1
41
1
41
1
41
1
10
141.94895833333337
20
-49.741666666666674
30
0
10
140.59958333333333
20
-49.741666666666674
30
0
10
138.24479166666669
20
-52.546250000000001
30
0
10
135.78416666666669
20
-57.123541666666668
30
0
0
SPLINE
5
136
100
AcDbEntity
8
0
100
AcDbSpline
70
4
71
3
72
8
73
4
74
0
42
0.000000001
43
0.0000000001
44
0.0000000001
40
0
40
0
40
0
40
0
40
1
40
1
40
1
40
1
41
1
41
1
41
1
41
1
10
135.78416666666669
20
-57.123541666666668
30
0
10
134.83166666666671
20
-58.869791666666671
30
0
10
134.38187500000004
20
-59.346041666666665
30
0
10
131.70958333333334
20
-61.462708333333332
30
0
0
SPLINE
5
137
100
AcDbEntity
8
0
100
AcDbSpline
70
4
71
3
72
8
73
4
74
0
42
0.000000001
43
0.0000000001
44
0.0000000001
40
0
40
0
40
0
40
0
40
1
40
1
40
1
40
1
41
1
41
1
41
1
41
1
10
131.70958333333334
20
-61.462708333333332
30
0
10
126.89416666666671
20
-65.299166666666665
30
0
10
124.16895833333335
20
-66.860208333333333
30
0
10
123.45458333333335
20
-66.145833333333343
30
0
0
SPLINE
5
138
100
AcDbEntity
8
0
100
AcDbSpline
70
4
71
3
72
8
73
4
74
0
42
0.000000001
43
0.0000000001
44
0.0000000001
40
0
40
0
40
0
40
0
40
1
40
1
40
1
40
1
41
1
41
1
41
1
41
1
10
123.45458333333335
20
-66.145833333333343
30
0
10
123.0841666666667
20
-65.775416666666672
30
0
10
123.98375000000003
20
-63.36770833333334
30
0
10
125.57125000000002
20
-60.510208333333338
30
0
0
SPLINE
5
139
100
AcDbEntity
8
0
100
AcDbSpline
70
4
71
3
72
8
73
4
74
0
42
0.000000001
43
0.0000000001
44
0.0000000001
40
0
40
0
40
0
40
0
40
1
40
1
40
1
40
1
41
1
41
1
41
1
41
1
10
125.57125000000002
20
-60.510208333333338
30
0
10
126.36500000000001
20
-59.08145833333333
30
0
10
127.00000000000001
20
-57.705624999999998
30
0
10
127.00000000000001
20
-57.41458333333334
30
0
0
SPLINE
5
140
100
AcDbEntity
8
0
100
AcDbSpline
70
4
71
3
72
8
73
4
74
0
42
0.000000001
43
0.0000000001
44
0.0000000001
40
0
40
0
40
0
40
0
40
1
40
1
40
1
40
1
41
1
41
1
41
1
41
1
10
127.00000000000001
20
-57.41458333333334
30
0
10
127.00000000000001
20
-56.594374999999999
30
0
10
126.10041666666669
20
-56.567916666666662
30
0
10
123.95729166666669
20
-57.28229166666668
30
0
0
SPLINE
5
141
100
AcDbEntity
8
0
100
AcDbSpline
70
4
71
3
72
8
73
4
74
0
42
0.000000001
43
0.0000000001
44
0.0000000001
40
0
40
0
40
0
40
0
40
1
40
1
40
1
40
1
41
1
41
1
41
1
41
1
10
123.95729166666669
20
-57.28229166666668
30
0
10
121.12625000000001
20
-58.234791666666666
30
0
10
119.48583333333335
20
-58.155416666666667
30
0
10
118.32166666666669
20
-56.964791666666663
30
0
0
SPLINE
5
142
100
AcDbEntity
8
0
100
AcDbSpline
70
4
71
3
72
8
73
4
74
0
42
0.000000001
43
0.0000000001
44
0.0000000001
40
0
40
0
40
0
40
0
40
1
40
1
40
1
40
1
41
1
41
1
41
1
41
1
10
118.32166666666669
20
-56.964791666666663
30
0
10
117.31625000000003
20
-55.959375000000009
30
0
10
115.80812500000002
20
-57.044166666666669
30
0
10
113.71791666666668
20
-60.245625000000011
30
0
0
SPLINE
5
143
100
AcDbEntity
8
0
100
AcDbSpline
70
4
71
3
72
8
73
4
74
0
42
0.000000001
43
0.0000000001
44
0.0000000001
40
0
40
0
40
0
40
0
40
1
40
1
40
1
40
1
41
1
41
1
41
1
41
1
10
113.71791666666668
20
-60.245625000000011
30
0
10
112.79187500000003
20
-61.674374999999998
30
0
10
111.5747916666667
20
-63.526458333333338
30
0
10
111.04562500000003
20
-64.346666666666678
30
0
0
SPLINE
5
144
100
AcDbEntity
8
0
100
AcDbSpline
70
4
71
3
72
8
73
4
74
0
42
0.000000001
43
0.0000000001
44
0.0000000001
40
0
40
0
40
0
40
0
40
1
40
1
40
1
40
1
41
1
41
1
41
1
41
1
10
111.04562500000003
20
-64.346666666666678
30
0
10
110.49000000000004
20
-65.193333333333342
30
0
10
109.93437500000002
20
-65.881250000000009
30
0
10
109.77562500000003
20
-65.881250000000009
30
0
0
SPLINE
5
145
100
AcDbEntity
8
0
100
AcDbSpline
70
4
71
3
72
8
73
4
74
0
42
0.000000001
43
0.0000000001
44
0.0000000001
40
0
40
0
40
0
40
0
40
1
40
1
40
1
40
1
41
1
41
1
41
1
41
1
10
109.77562500000003
20
-65.881250000000009
30
0
10
109.45812500000002
20
-65.881250000000009
30
0
10
109.5904166666667
20
-61.224583333333335
30
0
10
109.96083333333334
20
-58.578749999999999
30
0
0
SPLINE
5
146
100
AcDbEntity
8
0
100
AcDbSpline
70
4
71
3
72
8
73
4
74
0
42
0.000000001
43
0.0000000001
44
0.0000000001
40
0
40
0
40
0
40
0
40
1
40
1
40
1
40
1
41
1
41
1
41
1
41
1
10
109.96083333333334
20
-58.578749999999999
30
0
10
110.09312500000001
20
-57.732083333333335
30
0
10
110.01375000000002
20
-57.441041666666663
30
0
10
109.69625000000002
20
-57.335208333333341
30
0
0
SPLINE
5
147
100
AcDbEntity
8
0
100
AcDbSpline
70
4
71
3
72
8
73
4
74
0
42
0.000000001
43
0.0000000001
44
0.0000000001
40
0
40
0
40
0
40
0
40
1
40
1
40
1
40
1
41
1
41
1
41
1
41
1
10
109.69625000000002
20
-57.335208333333341
30
0
10
108.823125
20
-56.991250000000008
30
0
10
107.92354166666669
20
-57.837916666666665
30
0
10
104.72208333333334
20
-61.833125000000003
30
0
0
SPLINE
5
148
100
AcDbEntity
8
0
100
AcDbSpline
70
4
71
3
72
8
73
4
74
0
42
0.000000001
43
0.0000000001
44
0.0000000001
40
0
40
0
40
0
40
0
40
1
40
1
40
1
40
1
41
1
41
1
41
1
41
1
10
104.72208333333334
20
-61.833125000000003
30
0
10
101.60000000000002
20
-65.80187500000001
30
0
10
101.46770833333335
20
-65.907708333333332
30
0
10
101.38833333333336
20
-65.087500000000006
30
0
0
SPLINE
5
149
100
AcDbEntity
8
0
100
AcDbSpline
70
4
71
3
72
8
73
4
74
0
42
0.000000001
43
0.0000000001
44
0.0000000001
40
0
40
0
40
0
40
0
40
1
40
1
40
1
40
1
41
1
41
1
41
1
41
1
10
101.38833333333336
20
-65.087500000000006
30
0
10
101.33541666666667
20
-64.611250000000013
30
0
10
101.49416666666669
20
-63.023750000000007
30
0
10
101.75875000000002
20
-61.542083333333331
30
0
0
SPLINE
5
150
100
AcDbEntity
8
0
100
AcDbSpline
70
4
71
3
72
8
73
4
74
0
42
0.000000001
43
0.0000000001
44
0.0000000001
40
0
40
0
40
0
40
0
40
1
40
1
40
1
40
1
41
1
41
1
41
1
41
1
10
101.75875000000002
20
-61.542083333333331
30
0
10
101.99687500000002
20
-60.086874999999999
30
0
10
102.23500000000003
20
-58.446458333333339
30
0
10
102.23500000000003
20
-57.943750000000009
30
0
0
SPLINE
5
151
100
AcDbEntity
8
0
100
AcDbSpline
70
4
71
3
72
8
73
4
74
0
42
0.000000001
43
0.0000000001
44
0.0000000001
40
0
40
0
40
0
40
0
40
1
40
1
40
1
40
1
41
1
41
1
41
1
41
1
10
102.23500000000003
20
-57.943750000000009
30
0
10
102.26145833333335
20
-57.070625
30
0
10
102.20854166666669
20
-57.017708333333346
30
0
10
101.28250000000001
20
-56.93833333333334
30
0
0
SPLINE
5
152
100
AcDbEntity
8
0
100
AcDbSpline
70
4
71
3
72
8
73
4
74
0
42
0.000000001
43
0.0000000001
44
0.0000000001
40
0
40
0
40
0
40
0
40
1
40
1
40
1
40
1
41
1
41
1
41
1
41
1
10
101.28250000000001
20
-56.93833333333334
30
0
10
100.40937500000001
20
-56.858958333333334
30
0
10
100.22416666666669
20
-56.964791666666663
30
0
10
99.747916666666683
20
-57.732083333333335
30
0
0
SPLINE
5
153
100
AcDbEntity
8
0
100
AcDbSpline
70
4
71
3
72
8
73
4
74
0
42
0.000000001
43
0.0000000001
44
0.0000000001
40
0
40
0
40
0
40
0
40
1
40
1
40
1
40
1
41
1
41
1
41
1
41
1
10
99.747916666666683
20
-57.732083333333335
30
0
10
98.980625000000018
20
-59.002083333333346
30
0
10
98.68958333333336
20
-60.827708333333341
30
0
10
98.610208333333361
20
-64.981666666666669
30
0
0
SPLINE
5
154
100
AcDbEntity
8
0
100
AcDbSpline
70
4
71
3
72
8
73
4
74
0
42
0.000000001
43
0.0000000001
44
0.0000000001
40
0
40
0
40
0
40
0
40
1
40
1
40
1
40
1
41
1
41
1
41
1
41
1
10
98.610208333333361
20
-64.981666666666669
30
0
10
98.557291666666686
20
-69.00333333333333
30
0
10
98.716041666666698
20
-69.585416666666674
30
0
10
99.906666666666695
20
-69.585416666666674
30
0
0
SPLINE
5
155
100
AcDbEntity
8
0
100
AcDbSpline
70
4
71
3
72
8
73
4
74
0
42
0.000000001
43
0.0000000001
44
0.0000000001
40
0
40
0
40
0
40
0
40
1
40
1
40
1
40
1
41
1
41
1
41
1
41
1
10
99.906666666666695
20
-69.585416666666674
30
0
10
100.83270833333336
20
-69.585416666666674
30
0
10
102.15562500000003
20
-68.262500000000003
30
0
10
104.8279166666667
20
-64.717083333333335
30
0
0
LINE
5
156
100
AcDbEntity
8
0
100
AcDbLine
10
104.82791666666668
20
-64.717083333333321
30
0
11
107.23562500000001
21
-61.515625000000007
31
0
0
LINE
5
157
100
AcDbEntity
8
0
100
AcDbLine
10
107.23562500000001
20
-61.515625000000007
30
0
11
107.05041666666668
21
-63.632291666666674
31
0
0
SPLINE
5
158
100
AcDbEntity
8
0
100
AcDbSpline
70
4
71
3
72
8
73
4
74
0
42
0.000000001
43
0.0000000001
44
0.0000000001
40
0
40
0
40
0
40
0
40
1
40
1
40
1
40
1
41
1
41
1
41
1
41
1
10
107.05041666666668
20
-63.632291666666674
30
0
10
106.62708333333335
20
-68.606458333333336
30
0
10
108.13520833333335
20
-70.379166666666677
30
0
10
110.72812500000001
20
-67.971458333333331
30
0
0
SPLINE
5
159
100
AcDbEntity
8
0
100
AcDbSpline
70
4
71
3
72
8
73
4
74
0
42
0.000000001
43
0.0000000001
44
0.0000000001
40
0
40
0
40
0
40
0
40
1
40
1
40
1
40
1
41
1
41
1
41
1
41
1
10
110.72812500000001
20
-67.971458333333331
30
0
10
111.38958333333335
20
-67.362916666666663
30
0
10
112.58020833333335
20
-65.80187500000001
30
0
10
113.42687500000002
20
-64.452500000000001
30
0
0
SPLINE
5
160
100
AcDbEntity
8
0
100
AcDbSpline
70
4
71
3
72
8
73
4
74
0
42
0.000000001
43
0.0000000001
44
0.0000000001
40
0
40
0
40
0
40
0
40
1
40
1
40
1
40
1
41
1
41
1
41
1
41
1
10
113.42687500000002
20
-64.452500000000001
30
0
10
114.24708333333335
20
-63.129583333333336
30
0
10
115.30541666666667
20
-61.542083333333331
30
0
10
115.80812500000002
20
-60.933541666666656
30
0
0
SPLINE
5
161
100
AcDbEntity
8
0
100
AcDbSpline
70
4
71
3
72
8
73
4
74
0
42
0.000000001
43
0.0000000001
44
0.0000000001
40
0
40
0
40
0
40
0
40
1
40
1
40
1
40
1
41
1
41
1
41
1
41
1
10
115.80812500000002
20
-60.933541666666656
30
0
10
116.62833333333336
20
-59.901666666666671
30
0
10
116.7341666666667
20
-59.84875000000001
30
0
10
117.55437500000002
20
-60.086874999999999
30
0
0
SPLINE
5
162
100
AcDbEntity
8
0
100
AcDbSpline
70
4
71
3
72
8
73
4
74
0
42
0.000000001
43
0.0000000001
44
0.0000000001
40
0
40
0
40
0
40
0
40
1
40
1
40
1
40
1
41
1
41
1
41
1
41
1
10
117.55437500000002
20
-60.086874999999999
30
0
10
118.87729166666668
20
-60.457291666666677
30
0
10
120.25312500000001
20
-60.377916666666671
30
0
10
121.73479166666668
20
-59.822291666666665
30
0
0
SPLINE
5
163
100
AcDbEntity
8
0
100
AcDbSpline
70
4
71
3
72
8
73
4
74
0
42
0.000000001
43
0.0000000001
44
0.0000000001
40
0
40
0
40
0
40
0
40
1
40
1
40
1
40
1
41
1
41
1
41
1
41
1
10
121.73479166666668
20
-59.822291666666665
30
0
10
122.58145833333336
20
-59.478333333333325
30
0
10
123.03125000000001
20
-59.425416666666671
30
0
10
122.95187500000003
20
-59.610624999999999
30
0
0
SPLINE
5
164
100
AcDbEntity
8
0
100
AcDbSpline
70
4
71
3
72
8
73
4
74
0
42
0.000000001
43
0.0000000001
44
0.0000000001
40
0
40
0
40
0
40
0
40
1
40
1
40
1
40
1
41
1
41
1
41
1
41
1
10
122.95187500000003
20
-59.610624999999999
30
0
10
122.87250000000002
20
-59.795833333333341
30
0
10
122.26395833333335
20
-61.224583333333335
30
0
10
121.60250000000003
20
-62.812083333333334
30
0
0
SPLINE
5
165
100
AcDbEntity
8
0
100
AcDbSpline
70
4
71
3
72
8
73
4
74
0
42
0.000000001
43
0.0000000001
44
0.0000000001
40
0
40
0
40
0
40
0
40
1
40
1
40
1
40
1
41
1
41
1
41
1
41
1
10
121.60250000000003
20
-62.812083333333334
30
0
10
120.04145833333337
20
-66.463333333333338
30
0
10
119.88270833333337
20
-67.362916666666663
30
0
10
120.65000000000001
20
-68.341875000000002
30
0
0
SPLINE
5
166
100
AcDbEntity
8
0
100
AcDbSpline
70
4
71
3
72
8
73
4
74
0
42
0.000000001
43
0.0000000001
44
0.0000000001
40
0
40
0
40
0
40
0
40
1
40
1
40
1
40
1
41
1
41
1
41
1
41
1
10
120.65000000000001
20
-68.341875000000002
30
0
10
121.09979166666669
20
-68.897500000000008
30
0
10
121.44375000000002
20
-69.056250000000006
30
0
10
122.26395833333335
20
-69.056250000000006
30
0
0
SPLINE
5
167
100
AcDbEntity
8
0
100
AcDbSpline
70
4
71
3
72
8
73
4
74
0
42
0.000000001
43
0.0000000001
44
0.0000000001
40
0
40
0
40
0
40
0
40
1
40
1
40
1
40
1
41
1
41
1
41
1
41
1
10
122.26395833333335
20
-69.056250000000006
30
0
10
124.24833333333336
20
-69.056250000000006
30
0
10
127.4497916666667
20
-67.362916666666663
30
0
10
131.07458333333335
20
-64.399583333333339
30
0
0
SPLINE
5
168
100
AcDbEntity
8
0
100
AcDbSpline
70
4
71
3
72
8
73
4
74
0
42
0.000000001
43
0.0000000001
44
0.0000000001
40
0
40
0
40
0
40
0
40
1
40
1
40
1
40
1
41
1
41
1
41
1
41
1
10
131.07458333333335
20
-64.399583333333339
30
0
10
131.86833333333337
20
-63.764583333333348
30
0
10
132.58270833333336
20
-63.235416666666673
30
0
10
132.66208333333336
20
-63.235416666666673
30
0
0
SPLINE
5
169
100
AcDbEntity
8
0
100
AcDbSpline
70
4
71
3
72
8
73
4
74
0
42
0.000000001
43
0.0000000001
44
0.0000000001
40
0
40
0
40
0
40
0
40
1
40
1
40
1
40
1
41
1
41
1
41
1
41
1
10
132.66208333333336
20
-63.235416666666673
30
0
10
132.74145833333338
20
-63.235416666666673
30
0
10
132.63562500000003
20
-63.738125000000004
30
0
10
132.42395833333336
20
-64.320208333333341
30
0
0
SPLINE
5
170
100
AcDbEntity
8
0
100
AcDbSpline
70
4
71
3
72
8
73
4
74
0
42
0.000000001
43
0.0000000001
44
0.0000000001
40
0
40
0
40
0
40
0
40
1
40
1
40
1
40
1
41
1
41
1
41
1
41
1
10
132.42395833333336
20
-64.320208333333341
30
0
10
131.4979166666667
20
-66.913125000000008
30
0
10
132.15937500000001
20
-68.341875000000002
30
0
10
134.24958333333336
20
-68.341875000000002
30
0
0
SPLINE
5
171
100
AcDbEntity
8
0
100
AcDbSpline
70
4
71
3
72
8
73
4
74
0
42
0.000000001
43
0.0000000001
44
0.0000000001
40
0
40
0
40
0
40
0
40
1
40
1
40
1
40
1
41
1
41
1
41
1
41
1
10
134.24958333333336
20
-68.341875000000002
30
0
10
135.75770833333334
20
-68.341875000000002
30
0
10
137.84791666666669
20
-67.33645833333334
30
0
10
140.62604166666668
20
-65.21979166666668
30
0
0
LINE
5
172
100
AcDbEntity
8
0
100
AcDbLine
10
140.62604166666668
20
-65.21979166666668
30
0
11
142.76916666666668
21
-63.605833333333344
31
0
0
LINE
5
173
100
AcDbEntity
8
0
100
AcDbLine
10
142.76916666666668
20
-63.605833333333344
30
0
11
142.53104166666668
21
-64.981666666666655
31
0
0
SPLINE
5
174
100
AcDbEntity
8
0
100
AcDbSpline
70
4
71
3
72
8
73
4
74
0
42
0.000000001
43
0.0000000001
44
0.0000000001
40
0
40
0
40
0
40
0
40
1
40
1
40
1
40
1
41
1
41
1
41
1
41
1
10
142.53104166666671
20
-64.981666666666669
30
0
10
142.18708333333336
20
-66.992500000000007
30
0
10
142.74270833333335
20
-68.130208333333343
30
0
10
144.22437500000004
20
-68.527083333333337
30
0
0
SPLINE
5
175
100
AcDbEntity
8
0
100
AcDbSpline
70
4
71
3
72
8
73
4
74
0
42
0.000000001
43
0.0000000001
44
0.0000000001
40
0
40
0
40
0
40
0
40
1
40
1
40
1
40
1
41
1
41
1
41
1
41
1
10
144.22437500000004
20
-68.527083333333337
30
0
10
146.05000000000001
20
-69.029791666666668
30
0
10
148.45770833333336
20
-68.050833333333344
30
0
10
151.28875000000005
20
-65.669583333333335
30
0
0
SPLINE
5
176
100
AcDbEntity
8
0
100
AcDbSpline
70
4
71
3
72
8
73
4
74
0
42
0.000000001
43
0.0000000001
44
0.0000000001
40
0
40
0
40
0
40
0
40
1
40
1
40
1
40
1
41
1
41
1
41
1
41
1
10
151.28875000000005
20
-65.669583333333335
30
0
10
154.22562500000001
20
-63.208958333333342
30
0
10
154.14625000000004
20
-61.912500000000009
30
0
10
151.18291666666667
20
-64.002708333333345
30
0
0
SPLINE
5
177
100
AcDbEntity
8
0
100
AcDbSpline
70
4
71
3
72
8
73
4
74
0
42
0.000000001
43
0.0000000001
44
0.0000000001
40
0
40
0
40
0
40
0
40
1
40
1
40
1
40
1
41
1
41
1
41
1
41
1
10
151.18291666666667
20
-64.002708333333345
30
0
10
149.22500000000002
20
-65.378541666666663
30
0
10
147.08187500000003
20
-66.251666666666665
30
0
10
146.28812500000004
20
-66.013541666666683
30
0
0
SPLINE
5
178
100
AcDbEntity
8
0
100
AcDbSpline
70
4
71
3
72
8
73
4
74
0
42
0.000000001
43
0.0000000001
44
0.0000000001
40
0
40
0
40
0
40
0
40
1
40
1
40
1
40
1
41
1
41
1
41
1
41
1
10
146.28812500000004
20
-66.013541666666683
30
0
10
144.54187500000003
20
-65.457916666666677
30
0
10
145.75895833333337
20
-61.859583333333326
30
0
10
150.91833333333335
20
-52.361041666666672
30
0
0
SPLINE
5
179
100
AcDbEntity
8
0
100
AcDbSpline
70
4
71
3
72
8
73
4
74
0
42
0.000000001
43
0.0000000001
44
0.0000000001
40
0
40
0
40
0
40
0
40
1
40
1
40
1
40
1
41
1
41
1
41
1
41
1
10
150.91833333333335
20
-52.361041666666672
30
0
10
151.65916666666669
20
-50.985208333333333
30
0
10
152.08250000000004
20
-49.900416666666665
30
0
10
151.97666666666669
20
-49.635833333333331
30
0
0
SPLINE
5
180
100
AcDbEntity
8
0
100
AcDbSpline
70
4
71
3
72
8
73
4
74
0
42
0.000000001
43
0.0000000001
44
0.0000000001
40
0
40
0
40
0
40
0
40
1
40
1
40
1
40
1
41
1
41
1
41
1
41
1
10
151.97666666666669
20
-49.635833333333331
30
0
10
151.73854166666669
20
-48.974374999999995
30
0
10
150.73312500000003
20
-49.133125
30
0
10
149.96583333333336
20
-49.92687500000001
30
0
0
SPLINE
5
181
100
AcDbEntity
8
0
100
AcDbSpline
70
4
71
3
72
8
73
4
74
0
42
0.000000001
43
0.0000000001
44
0.0000000001
40
0
40
0
40
0
40
0
40
1
40
1
40
1
40
1
41
1
41
1
41
1
41
1
10
56.991250000000015
20
-49.847499999999997
30
0
10
51.011666666666677
20
-51.196875000000006
30
0
10
44.026666666666678
20
-56.462083333333339
30
0
10
41.53958333333334
20
-61.462708333333332
30
0
0
SPLINE
5
182
100
AcDbEntity
8
0
100
AcDbSpline
70
4
71
3
72
8
73
4
74
0
42
0.000000001
43
0.0000000001
44
0.0000000001
40
0
40
0
40
0
40
0
40
1
40
1
40
1
40
1
41
1
41
1
41
1
41
1
10
41.53958333333334
20
-61.462708333333332
30
0
10
39.819791666666674
20
-64.928750000000008
30
0
10
40.03145833333334
20
-66.701458333333335
30
0
10
42.253958333333344
20
-67.627499999999998
30
0
0
SPLINE
5
183
100
AcDbEntity
8
0
100
AcDbSpline
70
4
71
3
72
8
73
4
74
0
42
0.000000001
43
0.0000000001
44
0.0000000001
40
0
40
0
40
0
40
0
40
1
40
1
40
1
40
1
41
1
41
1
41
1
41
1
10
42.253958333333344
20
-67.627499999999998
30
0
10
43.894375000000004
20
-68.315416666666678
30
0
10
46.32854166666668
20
-67.91854166666667
30
0
10
50.032708333333346
20
-66.304583333333341
30
0
0
LINE
5
184
100
AcDbEntity
8
0
100
AcDbLine
10
50.032708333333346
20
-66.304583333333341
30
0
11
52.043541666666677
21
-65.457916666666677
31
0
0
LINE
5
185
100
AcDbEntity
8
0
100
AcDbLine
10
52.043541666666677
20
-65.457916666666677
30
0
11
50.720625000000013
21
-67.680416666666673
31
0
0
SPLINE
5
186
100
AcDbEntity
8
0
100
AcDbSpline
70
4
71
3
72
8
73
4
74
0
42
0.000000001
43
0.0000000001
44
0.0000000001
40
0
40
0
40
0
40
0
40
1
40
1
40
1
40
1
41
1
41
1
41
1
41
1
10
50.720625000000013
20
-67.680416666666659
30
0
10
49.582916666666677
20
-69.611874999999998
30
0
10
49.450625000000002
20
-69.982291666666669
30
0
10
49.715208333333337
20
-70.537916666666675
30
0
0
SPLINE
5
187
100
AcDbEntity
8
0
100
AcDbSpline
70
4
71
3
72
8
73
4
74
0
42
0.000000001
43
0.0000000001
44
0.0000000001
40
0
40
0
40
0
40
0
40
1
40
1
40
1
40
1
41
1
41
1
41
1
41
1
10
49.715208333333337
20
-70.537916666666675
30
0
10
49.926875000000017
20
-71.014166666666668
30
0
10
50.191458333333344
20
-71.17291666666668
30
0
10
50.87937500000001
20
-71.17291666666668
30
0
0
SPLINE
5
188
100
AcDbEntity
8
0
100
AcDbSpline
70
4
71
3
72
8
73
4
74
0
42
0.000000001
43
0.0000000001
44
0.0000000001
40
0
40
0
40
0
40
0
40
1
40
1
40
1
40
1
41
1
41
1
41
1
41
1
10
50.87937500000001
20
-71.17291666666668
30
0
10
52.017083333333346
20
-71.17291666666668
30
0
10
52.493333333333339
20
-70.643750000000011
30
0
10
53.578125000000007
20
-68.130208333333343
30
0
0
SPLINE
5
189
100
AcDbEntity
8
0
100
AcDbSpline
70
4
71
3
72
8
73
4
74
0
42
0.000000001
43
0.0000000001
44
0.0000000001
40
0
40
0
40
0
40
0
40
1
40
1
40
1
40
1
41
1
41
1
41
1
41
1
10
53.578125000000007
20
-68.130208333333343
30
0
10
54.583541666666676
20
-65.828333333333333
30
0
10
56.197500000000005
20
-63.05020833333333
30
0
10
57.520416666666677
20
-61.303958333333341
30
0
0
SPLINE
5
190
100
AcDbEntity
8
0
100
AcDbSpline
70
4
71
3
72
8
73
4
74
0
42
0.000000001
43
0.0000000001
44
0.0000000001
40
0
40
0
40
0
40
0
40
1
40
1
40
1
40
1
41
1
41
1
41
1
41
1
10
57.520416666666677
20
-61.303958333333341
30
0
10
59.319583333333348
20
-58.949166666666663
30
0
10
59.39895833333334
20
-58.208333333333336
30
0
10
57.837916666666686
20
-58.208333333333336
30
0
0
SPLINE
5
191
100
AcDbEntity
8
0
100
AcDbSpline
70
4
71
3
72
8
73
4
74
0
42
0.000000001
43
0.0000000001
44
0.0000000001
40
0
40
0
40
0
40
0
40
1
40
1
40
1
40
1
41
1
41
1
41
1
41
1
10
57.837916666666686
20
-58.208333333333336
30
0
10
56.462083333333339
20
-58.208333333333336
30
0
10
56.171041666666675
20
-58.393541666666671
30
0
10
55.165625000000006
20
-60.086874999999999
30
0
0
SPLINE
5
192
100
AcDbEntity
8
0
100
AcDbSpline
70
4
71
3
72
8
73
4
74
0
42
0.000000001
43
0.0000000001
44
0.0000000001
40
0
40
0
40
0
40
0
40
1
40
1
40
1
40
1
41
1
41
1
41
1
41
1
10
55.165625000000006
20
-60.086874999999999
30
0
10
54.107291666666669
20
-61.806666666666665
30
0
10
53.498750000000008
20
-62.335833333333341
30
0
10
50.87937500000001
20
-63.605833333333337
30
0
0
SPLINE
5
193
100
AcDbEntity
8
0
100
AcDbSpline
70
4
71
3
72
8
73
4
74
0
42
0.000000001
43
0.0000000001
44
0.0000000001
40
0
40
0
40
0
40
0
40
1
40
1
40
1
40
1
41
1
41
1
41
1
41
1
10
50.87937500000001
20
-63.605833333333337
30
0
10
47.704375000000006
20
-65.166875000000005
30
0
10
44.741041666666675
20
-65.80187500000001
30
0
10
43.97375000000001
20
-65.03458333333333
30
0
0
SPLINE
5
194
100
AcDbEntity
8
0
100
AcDbSpline
70
4
71
3
72
8
73
4
74
0
42
0.000000001
43
0.0000000001
44
0.0000000001
40
0
40
0
40
0
40
0
40
1
40
1
40
1
40
1
41
1
41
1
41
1
41
1
10
43.97375000000001
20
-65.03458333333333
30
0
10
43.788541666666674
20
-64.849374999999995
30
0
10
43.656250000000007
20
-64.373125000000002
30
0
10
43.656250000000007
20
-63.976249999999993
30
0
0
SPLINE
5
195
100
AcDbEntity
8
0
100
AcDbSpline
70
4
71
3
72
8
73
4
74
0
42
0.000000001
43
0.0000000001
44
0.0000000001
40
0
40
0
40
0
40
0
40
1
40
1
40
1
40
1
41
1
41
1
41
1
41
1
10
43.656250000000007
20
-63.976249999999993
30
0
10
43.656250000000007
20
-60.13979166666666
30
0
10
53.287083333333342
20
-52.122916666666669
30
0
10
57.520416666666677
20
-52.440416666666671
30
0
0
SPLINE
5
196
100
AcDbEntity
8
0
100
AcDbSpline
70
4
71
3
72
8
73
4
74
0
42
0.000000001
43
0.0000000001
44
0.0000000001
40
0
40
0
40
0
40
0
40
1
40
1
40
1
40
1
41
1
41
1
41
1
41
1
10
57.520416666666677
20
-52.440416666666671
30
0
10
58.499375000000015
20
-52.519791666666677
30
0
10
58.605208333333337
20
-52.599166666666662
30
0
10
58.737500000000011
20
-53.313541666666673
30
0
0
SPLINE
5
197
100
AcDbEntity
8
0
100
AcDbSpline
70
4
71
3
72
8
73
4
74
0
42
0.000000001
43
0.0000000001
44
0.0000000001
40
0
40
0
40
0
40
0
40
1
40
1
40
1
40
1
41
1
41
1
41
1
41
1
10
58.737500000000011
20
-53.313541666666673
30
0
10
58.843333333333341
20
-53.869166666666658
30
0
10
59.055000000000021
20
-54.133750000000006
30
0
10
59.451875000000015
20
-54.18666666666666
30
0
0
SPLINE
5
198
100
AcDbEntity
8
0
100
AcDbSpline
70
4
71
3
72
8
73
4
74
0
42
0.000000001
43
0.0000000001
44
0.0000000001
40
0
40
0
40
0
40
0
40
1
40
1
40
1
40
1
41
1
41
1
41
1
41
1
10
59.451875000000015
20
-54.18666666666666
30
0
10
60.245625000000011
20
-54.292500000000004
30
0
10
62.441666666666677
20
-52.122916666666669
30
0
10
62.441666666666677
20
-51.196875000000006
30
0
0
SPLINE
5
199
100
AcDbEntity
8
0
100
AcDbSpline
70
4
71
3
72
8
73
4
74
0
42
0.000000001
43
0.0000000001
44
0.0000000001
40
0
40
0
40
0
40
0
40
1
40
1
40
1
40
1
41
1
41
1
41
1
41
1
10
62.441666666666677
20
-51.196875000000006
30
0
10
62.441666666666677
20
-49.768124999999998
30
0
10
60.007500000000007
20
-49.186041666666668
30
0
10
56.991250000000015
20
-49.847499999999997
30
0
0
SPLINE
5
200
100
AcDbEntity
8
0
100
AcDbSpline
70
4
71
3
72
8
73
4
74
0
42
0.000000001
43
0.0000000001
44
0.0000000001
40
0
40
0
40
0
40
0
40
1
40
1
40
1
40
1
41
1
41
1
41
1
41
1
10
130.04270833333334
20
-49.768124999999998
30
0
10
129.72520833333337
20
-49.92687500000001
30
0
10
129.14312500000003
20
-50.588333333333338
30
0
10
128.74625000000003
20
-51.27624999999999
30
0
0
SPLINE
5
201
100
AcDbEntity
8
0
100
AcDbSpline
70
4
71
3
72
8
73
4
74
0
42
0.000000001
43
0.0000000001
44
0.0000000001
40
0
40
0
40
0
40
0
40
1
40
1
40
1
40
1
41
1
41
1
41
1
41
1
10
128.74625000000003
20
-51.27624999999999
30
0
10
127.92604166666669
20
-52.625625000000007
30
0
10
128.03187500000004
20
-53.234166666666674
30
0
10
129.11666666666667
20
-53.392916666666665
30
0
0
SPLINE
5
202
100
AcDbEntity
8
0
100
AcDbSpline
70
4
71
3
72
8
73
4
74
0
42
0.000000001
43
0.0000000001
44
0.0000000001
40
0
40
0
40
0
40
0
40
1
40
1
40
1
40
1
41
1
41
1
41
1
41
1
10
129.11666666666667
20
-53.392916666666665
30
0
10
129.77812500000002
20
-53.498750000000008
30
0
10
131.28625000000002
20
-52.20229166666666
30
0
10
131.94770833333337
20
-50.958749999999995
30
0
0
SPLINE
5
203
100
AcDbEntity
8
0
100
AcDbSpline
70
4
71
3
72
8
73
4
74
0
42
0.000000001
43
0.0000000001
44
0.0000000001
40
0
40
0
40
0
40
0
40
1
40
1
40
1
40
1
41
1
41
1
41
1
41
1
10
131.94770833333337
20
-50.958749999999995
30
0
10
132.31812500000001
20
-50.244375000000005
30
0
10
132.31812500000001
20
-50.138541666666676
30
0
10
131.86833333333337
20
-49.821041666666659
30
0
0
SPLINE
5
204
100
AcDbEntity
8
0
100
AcDbSpline
70
4
71
3
72
8
73
4
74
0
42
0.000000001
43
0.0000000001
44
0.0000000001
40
0
40
0
40
0
40
0
40
1
40
1
40
1
40
1
41
1
41
1
41
1
41
1
10
131.86833333333337
20
-49.821041666666659
30
0
10
131.31270833333335
20
-49.424166666666665
30
0
10
130.78354166666668
20
-49.397708333333341
30
0
10
130.04270833333334
20
-49.768124999999998
30
0
0
SPLINE
5
205
100
AcDbEntity
8
0
100
AcDbSpline
70
4
71
3
72
8
73
4
74
0
42
0.000000001
43
0.0000000001
44
0.0000000001
40
0
40
0
40
0
40
0
40
1
40
1
40
1
40
1
41
1
41
1
41
1
41
1
10
34.660416666666677
20
-51.064583333333346
30
0
10
30.427083333333336
20
-51.964166666666671
30
0
10
27.675416666666671
20
-53.419375000000002
30
0
10
26.72291666666667
20
-55.297916666666673
30
0
0
SPLINE
5
206
100
AcDbEntity
8
0
100
AcDbSpline
70
4
71
3
72
8
73
4
74
0
42
0.000000001
43
0.0000000001
44
0.0000000001
40
0
40
0
40
0
40
0
40
1
40
1
40
1
40
1
41
1
41
1
41
1
41
1
10
26.72291666666667
20
-55.297916666666673
30
0
10
26.087916666666672
20
-56.541458333333338
30
0
10
26.061458333333334
20
-56.93833333333334
30
0
10
26.617083333333337
20
-58.102499999999999
30
0
0
SPLINE
5
207
100
AcDbEntity
8
0
100
AcDbSpline
70
4
71
3
72
8
73
4
74
0
42
0.000000001
43
0.0000000001
44
0.0000000001
40
0
40
0
40
0
40
0
40
1
40
1
40
1
40
1
41
1
41
1
41
1
41
1
10
26.617083333333337
20
-58.102499999999999
30
0
10
27.146250000000009
20
-59.21374999999999
30
0
10
28.733750000000008
20
-60.272083333333335
30
0
10
31.564791666666675
20
-61.409791666666671
30
0
0
SPLINE
5
208
100
AcDbEntity
8
0
100
AcDbSpline
70
4
71
3
72
8
73
4
74
0
42
0.000000001
43
0.0000000001
44
0.0000000001
40
0
40
0
40
0
40
0
40
1
40
1
40
1
40
1
41
1
41
1
41
1
41
1
10
31.564791666666675
20
-61.409791666666671
30
0
10
33.998958333333334
20
-62.362291666666671
30
0
10
35.189583333333339
20
-63.103125000000013
30
0
10
35.189583333333339
20
-63.632291666666674
30
0
0
SPLINE
5
209
100
AcDbEntity
8
0
100
AcDbSpline
70
4
71
3
72
8
73
4
74
0
42
0.000000001
43
0.0000000001
44
0.0000000001
40
0
40
0
40
0
40
0
40
1
40
1
40
1
40
1
41
1
41
1
41
1
41
1
10
35.189583333333339
20
-63.632291666666674
30
0
10
35.189583333333339
20
-64.214375000000004
30
0
10
33.443333333333342
20
-65.537291666666675
30
0
10
31.82937500000001
20
-66.145833333333343
30
0
0
SPLINE
5
210
100
AcDbEntity
8
0
100
AcDbSpline
70
4
71
3
72
8
73
4
74
0
42
0.000000001
43
0.0000000001
44
0.0000000001
40
0
40
0
40
0
40
0
40
1
40
1
40
1
40
1
41
1
41
1
41
1
41
1
10
31.82937500000001
20
-66.145833333333343
30
0
10
30.162500000000001
20
-66.807291666666671
30
0
10
27.305000000000007
20
-66.966041666666669
30
0
10
24.579791666666672
20
-66.569166666666661
30
0
0
SPLINE
5
211
100
AcDbEntity
8
0
100
AcDbSpline
70
4
71
3
72
8
73
4
74
0
42
0.000000001
43
0.0000000001
44
0.0000000001
40
0
40
0
40
0
40
0
40
1
40
1
40
1
40
1
41
1
41
1
41
1
41
1
10
24.579791666666672
20
-66.569166666666661
30
0
10
22.727708333333339
20
-66.278125000000017
30
0
10
21.881041666666672
20
-66.648541666666674
30
0
10
22.013333333333339
20
-67.680416666666659
30
0
0
SPLINE
5
212
100
AcDbEntity
8
0
100
AcDbSpline
70
4
71
3
72
8
73
4
74
0
42
0.000000001
43
0.0000000001
44
0.0000000001
40
0
40
0
40
0
40
0
40
1
40
1
40
1
40
1
41
1
41
1
41
1
41
1
10
22.013333333333339
20
-67.680416666666659
30
0
10
22.119166666666672
20
-68.685833333333335
30
0
10
23.071666666666673
20
-69.029791666666668
30
0
10
25.982083333333339
20
-69.215000000000003
30
0
0
SPLINE
5
213
100
AcDbEntity
8
0
100
AcDbSpline
70
4
71
3
72
8
73
4
74
0
42
0.000000001
43
0.0000000001
44
0.0000000001
40
0
40
0
40
0
40
0
40
1
40
1
40
1
40
1
41
1
41
1
41
1
41
1
10
25.982083333333339
20
-69.215000000000003
30
0
10
30.109583333333344
20
-69.479583333333338
30
0
10
33.734375000000007
20
-68.341875000000002
30
0
10
36.274375000000006
20
-65.987083333333331
30
0
0
SPLINE
5
214
100
AcDbEntity
8
0
100
AcDbSpline
70
4
71
3
72
8
73
4
74
0
42
0.000000001
43
0.0000000001
44
0.0000000001
40
0
40
0
40
0
40
0
40
1
40
1
40
1
40
1
41
1
41
1
41
1
41
1
10
36.274375000000006
20
-65.987083333333331
30
0
10
38.682083333333345
20
-63.711666666666666
30
0
10
38.946666666666673
20
-62.441666666666677
30
0
10
37.385625000000012
20
-60.854166666666671
30
0
0
SPLINE
5
215
100
AcDbEntity
8
0
100
AcDbSpline
70
4
71
3
72
8
73
4
74
0
42
0.000000001
43
0.0000000001
44
0.0000000001
40
0
40
0
40
0
40
0
40
1
40
1
40
1
40
1
41
1
41
1
41
1
41
1
10
37.385625000000012
20
-60.854166666666671
30
0
10
36.64479166666667
20
-60.13979166666666
30
0
10
35.798125000000013
20
-59.690000000000005
30
0
10
34.263541666666669
20
-59.160833333333329
30
0
0
SPLINE
5
216
100
AcDbEntity
8
0
100
AcDbSpline
70
4
71
3
72
8
73
4
74
0
42
0.000000001
43
0.0000000001
44
0.0000000001
40
0
40
0
40
0
40
0
40
1
40
1
40
1
40
1
41
1
41
1
41
1
41
1
10
34.263541666666669
20
-59.160833333333329
30
0
10
31.802916666666672
20
-58.34062500000001
30
0
10
30.241875000000007
20
-57.493958333333325
30
0
10
29.712708333333339
20
-56.726666666666674
30
0
0
SPLINE
5
217
100
AcDbEntity
8
0
100
AcDbSpline
70
4
71
3
72
8
73
4
74
0
42
0.000000001
43
0.0000000001
44
0.0000000001
40
0
40
0
40
0
40
0
40
1
40
1
40
1
40
1
41
1
41
1
41
1
41
1
10
29.712708333333339
20
-56.726666666666674
30
0
10
29.395208333333336
20
-56.250416666666666
30
0
10
29.42166666666667
20
-56.091666666666676
30
0
10
29.924375000000008
20
-55.456666666666663
30
0
0
SPLINE
5
218
100
AcDbEntity
8
0
100
AcDbSpline
70
4
71
3
72
8
73
4
74
0
42
0.000000001
43
0.0000000001
44
0.0000000001
40
0
40
0
40
0
40
0
40
1
40
1
40
1
40
1
41
1
41
1
41
1
41
1
10
29.924375000000008
20
-55.456666666666663
30
0
10
30.241875000000007
20
-55.033333333333339
30
0
10
31.035625000000007
20
-54.477708333333332
30
0
10
31.697083333333342
20
-54.213124999999998
30
0
0
SPLINE
5
219
100
AcDbEntity
8
0
100
AcDbSpline
70
4
71
3
72
8
73
4
74
0
42
0.000000001
43
0.0000000001
44
0.0000000001
40
0
40
0
40
0
40
0
40
1
40
1
40
1
40
1
41
1
41
1
41
1
41
1
10
31.697083333333342
20
-54.213124999999998
30
0
10
33.284583333333345
20
-53.525208333333332
30
0
10
37.200416666666669
20
-52.863749999999996
30
0
10
38.443958333333342
20
-53.075416666666662
30
0
0
SPLINE
5
220
100
AcDbEntity
8
0
100
AcDbSpline
70
4
71
3
72
8
73
4
74
0
42
0.000000001
43
0.0000000001
44
0.0000000001
40
0
40
0
40
0
40
0
40
1
40
1
40
1
40
1
41
1
41
1
41
1
41
1
10
38.443958333333342
20
-53.075416666666662
30
0
10
39.422916666666673
20
-53.234166666666674
30
0
10
39.422916666666673
20
-53.260624999999997
30
0
10
39.264166666666675
20
-54.133750000000006
30
0
0
SPLINE
5
221
100
AcDbEntity
8
0
100
AcDbSpline
70
4
71
3
72
8
73
4
74
0
42
0.000000001
43
0.0000000001
44
0.0000000001
40
0
40
0
40
0
40
0
40
1
40
1
40
1
40
1
41
1
41
1
41
1
41
1
10
39.264166666666675
20
-54.133750000000006
30
0
10
39.184791666666669
20
-54.636458333333344
30
0
10
39.211250000000007
20
-55.033333333333339
30
0
10
39.317083333333336
20
-55.033333333333339
30
0
0
SPLINE
5
222
100
AcDbEntity
8
0
100
AcDbSpline
70
4
71
3
72
8
73
4
74
0
42
0.000000001
43
0.0000000001
44
0.0000000001
40
0
40
0
40
0
40
0
40
1
40
1
40
1
40
1
41
1
41
1
41
1
41
1
10
39.317083333333336
20
-55.033333333333339
30
0
10
39.793333333333344
20
-55.033333333333339
30
0
10
41.275000000000006
20
-53.975000000000009
30
0
10
41.671875000000007
20
-53.339999999999996
30
0
0
SPLINE
5
223
100
AcDbEntity
8
0
100
AcDbSpline
70
4
71
3
72
8
73
4
74
0
42
0.000000001
43
0.0000000001
44
0.0000000001
40
0
40
0
40
0
40
0
40
1
40
1
40
1
40
1
41
1
41
1
41
1
41
1
10
41.671875000000007
20
-53.339999999999996
30
0
10
43.232916666666682
20
-50.985208333333333
30
0
10
39.978541666666672
20
-49.92687500000001
30
0
10
34.660416666666677
20
-51.064583333333346
30
0
0
SPLINE
5
224
100
AcDbEntity
8
0
100
AcDbSpline
70
4
71
3
72
8
73
4
74
0
42
0.000000001
43
0.0000000001
44
0.0000000001
40
0
40
0
40
0
40
0
40
1
40
1
40
1
40
1
41
1
41
1
41
1
41
1
10
169.94187500000007
20
-51.382083333333341
30
0
10
167.98395833333336
20
-53.419375000000002
30
0
10
163.59187500000004
20
-61.674374999999998
30
0
10
162.29541666666671
20
-65.748958333333348
30
0
0
SPLINE
5
225
100
AcDbEntity
8
0
100
AcDbSpline
70
4
71
3
72
8
73
4
74
0
42
0.000000001
43
0.0000000001
44
0.0000000001
40
0
40
0
40
0
40
0
40
1
40
1
40
1
40
1
41
1
41
1
41
1
41
1
10
162.29541666666671
20
-65.748958333333348
30
0
10
161.63395833333337
20
-67.865625000000009
30
0
10
161.60750000000004
20
-69.506041666666675
30
0
10
162.24250000000006
20
-70.299791666666664
30
0
0
SPLINE
5
226
100
AcDbEntity
8
0
100
AcDbSpline
70
4
71
3
72
8
73
4
74
0
42
0.000000001
43
0.0000000001
44
0.0000000001
40
0
40
0
40
0
40
0
40
1
40
1
40
1
40
1
41
1
41
1
41
1
41
1
10
162.24250000000006
20
-70.299791666666664
30
0
10
162.58645833333335
20
-70.749583333333334
30
0
10
164.20041666666668
20
-70.723124999999996
30
0
10
165.36458333333337
20
-70.273333333333341
30
0
0
SPLINE
5
227
100
AcDbEntity
8
0
100
AcDbSpline
70
4
71
3
72
8
73
4
74
0
42
0.000000001
43
0.0000000001
44
0.0000000001
40
0
40
0
40
0
40
0
40
1
40
1
40
1
40
1
41
1
41
1
41
1
41
1
10
165.36458333333337
20
-70.273333333333341
30
0
10
168.14270833333336
20
-69.18854166666668
30
0
10
175.28645833333337
20
-66.092916666666667
30
0
10
176.9004166666667
20
-65.272708333333341
30
0
0
LINE
5
228
100
AcDbEntity
8
0
100
AcDbLine
10
176.9004166666667
20
-65.272708333333341
30
0
11
178.8054166666667
21
-64.320208333333326
31
0
0
LINE
5
229
100
AcDbEntity
8
0
100
AcDbLine
10
178.8054166666667
20
-64.320208333333326
30
0
11
178.9641666666667
21
-65.35208333333334
31
0
0
SPLINE
5
230
100
AcDbEntity
8
0
100
AcDbSpline
70
4
71
3
72
8
73
4
74
0
42
0.000000001
43
0.0000000001
44
0.0000000001
40
0
40
0
40
0
40
0
40
1
40
1
40
1
40
1
41
1
41
1
41
1
41
1
10
178.9641666666667
20
-65.35208333333334
30
0
10
179.22875000000005
20
-66.992500000000007
30
0
10
180.15479166666671
20
-67.548124999999999
30
0
10
182.45666666666668
20
-67.415833333333325
30
0
0
SPLINE
5
231
100
AcDbEntity
8
0
100
AcDbSpline
70
4
71
3
72
8
73
4
74
0
42
0.000000001
43
0.0000000001
44
0.0000000001
40
0
40
0
40
0
40
0
40
1
40
1
40
1
40
1
41
1
41
1
41
1
41
1
10
182.45666666666668
20
-67.415833333333325
30
0
10
184.04416666666668
20
-67.33645833333334
30
0
10
184.70562500000003
20
-67.15124999999999
30
0
10
186.66354166666667
20
-66.172291666666666
30
0
0
SPLINE
5
232
100
AcDbEntity
8
0
100
AcDbSpline
70
4
71
3
72
8
73
4
74
0
42
0.000000001
43
0.0000000001
44
0.0000000001
40
0
40
0
40
0
40
0
40
1
40
1
40
1
40
1
41
1
41
1
41
1
41
1
10
186.66354166666667
20
-66.172291666666666
30
0
10
189.07125000000005
20
-64.981666666666669
30
0
10
191.82291666666669
20
-62.679791666666667
30
0
10
191.82291666666669
20
-61.833125000000003
30
0
0
SPLINE
5
233
100
AcDbEntity
8
0
100
AcDbSpline
70
4
71
3
72
8
73
4
74
0
42
0.000000001
43
0.0000000001
44
0.0000000001
40
0
40
0
40
0
40
0
40
1
40
1
40
1
40
1
41
1
41
1
41
1
41
1
10
191.82291666666669
20
-61.833125000000003
30
0
10
191.82291666666669
20
-61.118750000000013
30
0
10
191.29375000000005
20
-61.303958333333341
30
0
10
189.17708333333337
20
-62.706250000000011
30
0
0
SPLINE
5
234
100
AcDbEntity
8
0
100
AcDbSpline
70
4
71
3
72
8
73
4
74
0
42
0.000000001
43
0.0000000001
44
0.0000000001
40
0
40
0
40
0
40
0
40
1
40
1
40
1
40
1
41
1
41
1
41
1
41
1
10
189.17708333333337
20
-62.706250000000011
30
0
10
187.35145833333337
20
-63.94979166666667
30
0
10
184.52041666666673
20
-65.087500000000006
30
0
10
183.32979166666672
20
-65.087500000000006
30
0
0
SPLINE
5
235
100
AcDbEntity
8
0
100
AcDbSpline
70
4
71
3
72
8
73
4
74
0
42
0.000000001
43
0.0000000001
44
0.0000000001
40
0
40
0
40
0
40
0
40
1
40
1
40
1
40
1
41
1
41
1
41
1
41
1
10
183.32979166666672
20
-65.087500000000006
30
0
10
182.64187500000006
20
-65.087500000000006
30
0
10
181.74229166666669
20
-64.135000000000005
30
0
10
181.92750000000004
20
-63.632291666666674
30
0
0
SPLINE
5
236
100
AcDbEntity
8
0
100
AcDbSpline
70
4
71
3
72
8
73
4
74
0
42
0.000000001
43
0.0000000001
44
0.0000000001
40
0
40
0
40
0
40
0
40
1
40
1
40
1
40
1
41
1
41
1
41
1
41
1
10
181.92750000000004
20
-63.632291666666674
30
0
10
182.03333333333336
20
-63.394166666666663
30
0
10
182.82708333333335
20
-62.838541666666679
30
0
10
183.72666666666672
20
-62.388749999999995
30
0
0
SPLINE
5
237
100
AcDbEntity
8
0
100
AcDbSpline
70
4
71
3
72
8
73
4
74
0
42
0.000000001
43
0.0000000001
44
0.0000000001
40
0
40
0
40
0
40
0
40
1
40
1
40
1
40
1
41
1
41
1
41
1
41
1
10
183.72666666666672
20
-62.388749999999995
30
0
10
188.5685416666667
20
-59.981041666666677
30
0
10
191.3995833333334
20
-56.48854166666667
30
0
10
189.81208333333339
20
-54.927500000000002
30
0
0
SPLINE
5
238
100
AcDbEntity
8
0
100
AcDbSpline
70
4
71
3
72
8
73
4
74
0
42
0.000000001
43
0.0000000001
44
0.0000000001
40
0
40
0
40
0
40
0
40
1
40
1
40
1
40
1
41
1
41
1
41
1
41
1
10
189.81208333333339
20
-54.927500000000002
30
0
10
189.17708333333337
20
-54.266041666666666
30
0
10
187.24562500000005
20
-54.398333333333333
30
0
10
185.65812500000004
20
-55.192083333333329
30
0
0
SPLINE
5
239
100
AcDbEntity
8
0
100
AcDbSpline
70
4
71
3
72
8
73
4
74
0
42
0.000000001
43
0.0000000001
44
0.0000000001
40
0
40
0
40
0
40
0
40
1
40
1
40
1
40
1
41
1
41
1
41
1
41
1
10
185.65812500000004
20
-55.192083333333329
30
0
10
183.93833333333336
20
-56.091666666666676
30
0
10
181.34541666666672
20
-58.658125000000005
30
0
10
180.15479166666671
20
-60.721875000000011
30
0
0
SPLINE
5
240
100
AcDbEntity
8
0
100
AcDbSpline
70
4
71
3
72
8
73
4
74
0
42
0.000000001
43
0.0000000001
44
0.0000000001
40
0
40
0
40
0
40
0
40
1
40
1
40
1
40
1
41
1
41
1
41
1
41
1
10
180.15479166666671
20
-60.721875000000011
30
0
10
179.22875000000005
20
-62.309375000000003
30
0
10
179.20229166666672
20
-62.309375000000003
30
0
10
176.10666666666671
20
-63.711666666666666
30
0
0
SPLINE
5
241
100
AcDbEntity
8
0
100
AcDbSpline
70
4
71
3
72
8
73
4
74
0
42
0.000000001
43
0.0000000001
44
0.0000000001
40
0
40
0
40
0
40
0
40
1
40
1
40
1
40
1
41
1
41
1
41
1
41
1
10
176.10666666666671
20
-63.711666666666666
30
0
10
174.36041666666668
20
-64.478958333333338
30
0
10
172.90520833333335
20
-65.061041666666668
30
0
10
172.8522916666667
20
-64.981666666666669
30
0
0
SPLINE
5
242
100
AcDbEntity
8
0
100
AcDbSpline
70
4
71
3
72
8
73
4
74
0
42
0.000000001
43
0.0000000001
44
0.0000000001
40
0
40
0
40
0
40
0
40
1
40
1
40
1
40
1
41
1
41
1
41
1
41
1
10
172.8522916666667
20
-64.981666666666669
30
0
10
172.79937500000003
20
-64.928750000000008
30
0
10
173.35500000000002
20
-64.187916666666666
30
0
10
174.12229166666668
20
-63.341250000000002
30
0
0
SPLINE
5
243
100
AcDbEntity
8
0
100
AcDbSpline
70
4
71
3
72
8
73
4
74
0
42
0.000000001
43
0.0000000001
44
0.0000000001
40
0
40
0
40
0
40
0
40
1
40
1
40
1
40
1
41
1
41
1
41
1
41
1
10
174.12229166666668
20
-63.341250000000002
30
0
10
176.29187500000003
20
-60.854166666666671
30
0
10
176.68875000000003
20
-59.451875000000001
30
0
10
175.55104166666669
20
-58.314166666666665
30
0
0
SPLINE
5
244
100
AcDbEntity
8
0
100
AcDbSpline
70
4
71
3
72
8
73
4
74
0
42
0.000000001
43
0.0000000001
44
0.0000000001
40
0
40
0
40
0
40
0
40
1
40
1
40
1
40
1
41
1
41
1
41
1
41
1
10
175.55104166666669
20
-58.314166666666665
30
0
10
175.04833333333337
20
-57.811458333333341
30
0
10
174.73083333333338
20
-57.705624999999998
30
0
10
174.17520833333339
20
-57.837916666666665
30
0
0
SPLINE
5
245
100
AcDbEntity
8
0
100
AcDbSpline
70
4
71
3
72
8
73
4
74
0
42
0.000000001
43
0.0000000001
44
0.0000000001
40
0
40
0
40
0
40
0
40
1
40
1
40
1
40
1
41
1
41
1
41
1
41
1
10
174.17520833333339
20
-57.837916666666665
30
0
10
172.74645833333338
20
-58.155416666666667
30
0
10
170.23291666666671
20
-59.451875000000001
30
0
10
168.51312500000006
20
-60.774791666666673
30
0
0
SPLINE
5
246
100
AcDbEntity
8
0
100
AcDbSpline
70
4
71
3
72
8
73
4
74
0
42
0.000000001
43
0.0000000001
44
0.0000000001
40
0
40
0
40
0
40
0
40
1
40
1
40
1
40
1
41
1
41
1
41
1
41
1
10
168.51312500000006
20
-60.774791666666673
30
0
10
167.53416666666669
20
-61.515625000000007
30
0
10
166.60812500000003
20
-62.177083333333343
30
0
10
166.44937500000003
20
-62.309375000000003
30
0
0
SPLINE
5
247
100
AcDbEntity
8
0
100
AcDbSpline
70
4
71
3
72
8
73
4
74
0
42
0.000000001
43
0.0000000001
44
0.0000000001
40
0
40
0
40
0
40
0
40
1
40
1
40
1
40
1
41
1
41
1
41
1
41
1
10
166.44937500000003
20
-62.309375000000003
30
0
10
165.97312500000004
20
-62.573958333333344
30
0
10
167.00500000000005
20
-60.642500000000005
30
0
10
168.98937500000002
20
-57.493958333333325
30
0
0
SPLINE
5
248
100
AcDbEntity
8
0
100
AcDbSpline
70
4
71
3
72
8
73
4
74
0
42
0.000000001
43
0.0000000001
44
0.0000000001
40
0
40
0
40
0
40
0
40
1
40
1
40
1
40
1
41
1
41
1
41
1
41
1
10
168.98937500000002
20
-57.493958333333325
30
0
10
172.32312500000003
20
-52.149374999999992
30
0
10
172.82583333333338
20
-50.747083333333329
30
0
10
171.45000000000005
20
-50.588333333333338
30
0
0
SPLINE
5
249
100
AcDbEntity
8
0
100
AcDbSpline
70
4
71
3
72
8
73
4
74
0
42
0.000000001
43
0.0000000001
44
0.0000000001
40
0
40
0
40
0
40
0
40
1
40
1
40
1
40
1
41
1
41
1
41
1
41
1
10
171.45000000000005
20
-50.588333333333338
30
0
10
170.97375000000002
20
-50.535416666666677
30
0
10
170.52395833333335
20
-50.773541666666667
30
0
10
169.94187500000007
20
-51.382083333333341
30
0
0
SPLINE
5
250
100
AcDbEntity
8
0
100
AcDbSpline
70
4
71
3
72
8
73
4
74
0
42
0.000000001
43
0.0000000001
44
0.0000000001
40
0
40
0
40
0
40
0
40
1
40
1
40
1
40
1
41
1
41
1
41
1
41
1
10
187.0604166666667
20
-57.890833333333333
30
0
10
186.69000000000005
20
-58.525833333333338
30
0
10
183.0916666666667
20
-61.198125000000005
30
0
10
182.88000000000005
20
-60.986458333333346
30
0
0
SPLINE
5
251
100
AcDbEntity
8
0
100
AcDbSpline
70
4
71
3
72
8
73
4
74
0
42
0.000000001
43
0.0000000001
44
0.0000000001
40
0
40
0
40
0
40
0
40
1
40
1
40
1
40
1
41
1
41
1
41
1
41
1
10
182.88000000000005
20
-60.986458333333346
30
0
10
182.72125000000003
20
-60.827708333333341
30
0
10
184.07062500000001
20
-58.896249999999995
30
0
10
184.97020833333337
20
-57.970208333333332
30
0
0
SPLINE
5
252
100
AcDbEntity
8
0
100
AcDbSpline
70
4
71
3
72
8
73
4
74
0
42
0.000000001
43
0.0000000001
44
0.0000000001
40
0
40
0
40
0
40
0
40
1
40
1
40
1
40
1
41
1
41
1
41
1
41
1
10
184.97020833333337
20
-57.970208333333332
30
0
10
186.5047916666667
20
-56.435625000000002
30
0
10
187.88062500000001
20
-56.382708333333333
30
0
10
187.0604166666667
20
-57.890833333333333
30
0
0
SPLINE
5
253
100
AcDbEntity
8
0
100
AcDbSpline
70
4
71
3
72
8
73
4
74
0
42
0.000000001
43
0.0000000001
44
0.0000000001
40
0
40
0
40
0
40
0
40
1
40
1
40
1
40
1
41
1
41
1
41
1
41
1
10
173.30208333333334
20
-60.695416666666667
30
0
10
173.30208333333334
20
-61.859583333333326
30
0
10
168.43375000000003
20
-66.595625000000013
30
0
10
166.02604166666669
20
-67.759791666666672
30
0
0
SPLINE
5
254
100
AcDbEntity
8
0
100
AcDbSpline
70
4
71
3
72
8
73
4
74
0
42
0.000000001
43
0.0000000001
44
0.0000000001
40
0
40
0
40
0
40
0
40
1
40
1
40
1
40
1
41
1
41
1
41
1
41
1
10
166.02604166666669
20
-67.759791666666672
30
0
10
163.59187500000004
20
-68.923958333333346
30
0
10
163.30083333333337
20
-68.791666666666671
30
0
10
164.46500000000003
20
-67.045416666666668
30
0
0
SPLINE
5
255
100
AcDbEntity
8
0
100
AcDbSpline
70
4
71
3
72
8
73
4
74
0
42
0.000000001
43
0.0000000001
44
0.0000000001
40
0
40
0
40
0
40
0
40
1
40
1
40
1
40
1
41
1
41
1
41
1
41
1
10
164.46500000000003
20
-67.045416666666668
30
0
10
165.81437500000004
20
-65.008125000000007
30
0
10
168.46020833333338
20
-62.706250000000011
30
0
10
171.1854166666667
20
-61.145208333333336
30
0
0
SPLINE
5
256
100
AcDbEntity
8
0
100
AcDbSpline
70
4
71
3
72
8
73
4
74
0
42
0.000000001
43
0.0000000001
44
0.0000000001
40
0
40
0
40
0
40
0
40
1
40
1
40
1
40
1
41
1
41
1
41
1
41
1
10
171.1854166666667
20
-61.145208333333336
30
0
10
172.79937500000003
20
-60.245625000000011
30
0
10
173.30208333333334
20
-60.13979166666666
30
0
10
173.30208333333334
20
-60.695416666666667
30
0
0
SPLINE
5
257
100
AcDbEntity
8
0
100
AcDbSpline
70
4
71
3
72
8
73
4
74
0
42
0.000000001
43
0.0000000001
44
0.0000000001
40
0
40
0
40
0
40
0
40
1
40
1
40
1
40
1
41
1
41
1
41
1
41
1
10
72.469375000000028
20
-86.889166666666682
30
0
10
71.940208333333345
20
-87.259583333333353
30
0
10
71.384583333333339
20
-87.868124999999992
30
0
10
71.225833333333341
20
-88.291458333333338
30
0
0
SPLINE
5
258
100
AcDbEntity
8
0
100
AcDbSpline
70
4
71
3
72
8
73
4
74
0
42
0.000000001
43
0.0000000001
44
0.0000000001
40
0
40
0
40
0
40
0
40
1
40
1
40
1
40
1
41
1
41
1
41
1
41
1
10
71.225833333333341
20
-88.291458333333338
30
0
10
71.067083333333358
20
-88.688333333333347
30
0
10
70.564374999999998
20
-90.011250000000018
30
0
10
70.114583333333343
20
-91.201875000000015
30
0
0
SPLINE
5
259
100
AcDbEntity
8
0
100
AcDbSpline
70
4
71
3
72
8
73
4
74
0
42
0.000000001
43
0.0000000001
44
0.0000000001
40
0
40
0
40
0
40
0
40
1
40
1
40
1
40
1
41
1
41
1
41
1
41
1
10
70.114583333333343
20
-91.201875000000015
30
0
10
69.241458333333341
20
-93.503750000000011
30
0
10
67.548125000000013
20
-95.699791666666684
30
0
10
65.960625000000007
20
-96.625833333333333
30
0
0
LINE
5
260
100
AcDbEntity
8
0
100
AcDbLine
10
65.960625000000007
20
-96.625833333333333
30
0
11
65.193333333333342
21
-97.075625000000002
31
0
0
LINE
5
261
100
AcDbEntity
8
0
100
AcDbLine
10
65.193333333333342
20
-97.075625000000002
30
0
11
65.299166666666679
21
-96.334791666666689
31
0
0
SPLINE
5
262
100
AcDbEntity
8
0
100
AcDbSpline
70
4
71
3
72
8
73
4
74
0
42
0.000000001
43
0.0000000001
44
0.0000000001
40
0
40
0
40
0
40
0
40
1
40
1
40
1
40
1
41
1
41
1
41
1
41
1
10
65.299166666666679
20
-96.334791666666689
30
0
10
65.457916666666677
20
-95.170625000000015
30
0
10
64.955208333333331
20
-94.482708333333363
30
0
10
63.764583333333348
20
-94.297499999999999
30
0
0
SPLINE
5
263
100
AcDbEntity
8
0
100
AcDbSpline
70
4
71
3
72
8
73
4
74
0
42
0.000000001
43
0.0000000001
44
0.0000000001
40
0
40
0
40
0
40
0
40
1
40
1
40
1
40
1
41
1
41
1
41
1
41
1
10
63.764583333333348
20
-94.297499999999999
30
0
10
62.600416666666675
20
-94.112291666666692
30
0
10
62.573958333333344
20
-94.032916666666679
30
0
10
62.997291666666683
20
-92.604166666666686
30
0
0
SPLINE
5
264
100
AcDbEntity
8
0
100
AcDbSpline
70
4
71
3
72
8
73
4
74
0
42
0.000000001
43
0.0000000001
44
0.0000000001
40
0
40
0
40
0
40
0
40
1
40
1
40
1
40
1
41
1
41
1
41
1
41
1
10
62.997291666666683
20
-92.604166666666686
30
0
10
63.394166666666685
20
-91.254791666666662
30
0
10
63.12958333333335
20
-90.275833333333338
30
0
10
62.256458333333349
20
-89.931875000000019
30
0
0
SPLINE
5
265
100
AcDbEntity
8
0
100
AcDbSpline
70
4
71
3
72
8
73
4
74
0
42
0.000000001
43
0.0000000001
44
0.0000000001
40
0
40
0
40
0
40
0
40
1
40
1
40
1
40
1
41
1
41
1
41
1
41
1
10
62.256458333333349
20
-89.931875000000019
30
0
10
60.774791666666687
20
-89.376250000000027
30
0
10
58.737500000000011
20
-90.805000000000007
30
0
10
57.943750000000009
20
-92.948125000000005
30
0
0
SPLINE
5
266
100
AcDbEntity
8
0
100
AcDbSpline
70
4
71
3
72
8
73
4
74
0
42
0.000000001
43
0.0000000001
44
0.0000000001
40
0
40
0
40
0
40
0
40
1
40
1
40
1
40
1
41
1
41
1
41
1
41
1
10
57.943750000000009
20
-92.948125000000005
30
0
10
57.573333333333352
20
-93.953541666666695
30
0
10
57.441041666666678
20
-94.059375000000017
30
0
10
56.382708333333355
20
-94.244583333333338
30
0
0
SPLINE
5
267
100
AcDbEntity
8
0
100
AcDbSpline
70
4
71
3
72
8
73
4
74
0
42
0.000000001
43
0.0000000001
44
0.0000000001
40
0
40
0
40
0
40
0
40
1
40
1
40
1
40
1
41
1
41
1
41
1
41
1
10
56.382708333333355
20
-94.244583333333338
30
0
10
54.477708333333339
20
-94.562083333333348
30
0
10
53.366458333333348
20
-95.56750000000001
30
0
10
53.022500000000008
20
-97.260833333333352
30
0
0
SPLINE
5
268
100
AcDbEntity
8
0
100
AcDbSpline
70
4
71
3
72
8
73
4
74
0
42
0.000000001
43
0.0000000001
44
0.0000000001
40
0
40
0
40
0
40
0
40
1
40
1
40
1
40
1
41
1
41
1
41
1
41
1
10
53.022500000000008
20
-97.260833333333352
30
0
10
52.83729166666668
20
-98.292708333333337
30
0
10
53.683958333333344
20
-99.218750000000014
30
0
10
54.82166666666668
20
-99.218750000000014
30
0
0
SPLINE
5
269
100
AcDbEntity
8
0
100
AcDbSpline
70
4
71
3
72
8
73
4
74
0
42
0.000000001
43
0.0000000001
44
0.0000000001
40
0
40
0
40
0
40
0
40
1
40
1
40
1
40
1
41
1
41
1
41
1
41
1
10
54.82166666666668
20
-99.218750000000014
30
0
10
55.562500000000014
20
-99.218750000000014
30
0
10
55.615416666666675
20
-99.271666666666675
30
0
10
55.456666666666685
20
-99.933125000000018
30
0
0
SPLINE
5
270
100
AcDbEntity
8
0
100
AcDbSpline
70
4
71
3
72
8
73
4
74
0
42
0.000000001
43
0.0000000001
44
0.0000000001
40
0
40
0
40
0
40
0
40
1
40
1
40
1
40
1
41
1
41
1
41
1
41
1
10
55.456666666666685
20
-99.933125000000018
30
0
10
54.95395833333334
20
-102.12916666666669
30
0
10
54.95395833333334
20
-102.57895833333335
30
0
10
55.536041666666677
20
-103.16104166666668
30
0
0
SPLINE
5
271
100
AcDbEntity
8
0
100
AcDbSpline
70
4
71
3
72
8
73
4
74
0
42
0.000000001
43
0.0000000001
44
0.0000000001
40
0
40
0
40
0
40
0
40
1
40
1
40
1
40
1
41
1
41
1
41
1
41
1
10
55.536041666666677
20
-103.16104166666668
30
0
10
56.197500000000005
20
-103.82250000000001
30
0
10
56.991250000000015
20
-103.87541666666669
30
0
10
58.049583333333345
20
-103.31979166666669
30
0
0
SPLINE
5
272
100
AcDbEntity
8
0
100
AcDbSpline
70
4
71
3
72
8
73
4
74
0
42
0.000000001
43
0.0000000001
44
0.0000000001
40
0
40
0
40
0
40
0
40
1
40
1
40
1
40
1
41
1
41
1
41
1
41
1
10
58.049583333333345
20
-103.31979166666669
30
0
10
59.028541666666683
20
-102.79062500000002
30
0
10
59.081458333333345
20
-102.81708333333336
30
0
10
58.843333333333341
20
-103.50500000000002
30
0
0
SPLINE
5
273
100
AcDbEntity
8
0
100
AcDbSpline
70
4
71
3
72
8
73
4
74
0
42
0.000000001
43
0.0000000001
44
0.0000000001
40
0
40
0
40
0
40
0
40
1
40
1
40
1
40
1
41
1
41
1
41
1
41
1
10
58.843333333333341
20
-103.50500000000002
30
0
10
58.552291666666676
20
-104.51041666666669
30
0
10
57.917291666666671
20
-105.03958333333335
30
0
10
56.991250000000015
20
-105.03958333333335
30
0
0
SPLINE
5
274
100
AcDbEntity
8
0
100
AcDbSpline
70
4
71
3
72
8
73
4
74
0
42
0.000000001
43
0.0000000001
44
0.0000000001
40
0
40
0
40
0
40
0
40
1
40
1
40
1
40
1
41
1
41
1
41
1
41
1
10
56.991250000000015
20
-105.03958333333335
30
0
10
55.959375000000009
20
-105.03958333333335
30
0
10
54.477708333333339
20
-106.20375000000001
30
0
10
53.975000000000009
20
-107.39437500000001
30
0
0
SPLINE
5
275
100
AcDbEntity
8
0
100
AcDbSpline
70
4
71
3
72
8
73
4
74
0
42
0.000000001
43
0.0000000001
44
0.0000000001
40
0
40
0
40
0
40
0
40
1
40
1
40
1
40
1
41
1
41
1
41
1
41
1
10
53.975000000000009
20
-107.39437500000001
30
0
10
53.525208333333339
20
-108.50562500000002
30
0
10
54.080833333333345
20
-109.64333333333335
30
0
10
55.165625000000006
20
-109.74916666666667
30
0
0
SPLINE
5
276
100
AcDbEntity
8
0
100
AcDbSpline
70
4
71
3
72
8
73
4
74
0
42
0.000000001
43
0.0000000001
44
0.0000000001
40
0
40
0
40
0
40
0
40
1
40
1
40
1
40
1
41
1
41
1
41
1
41
1
10
55.165625000000006
20
-109.74916666666667
30
0
10
56.329791666666679
20
-109.88145833333334
30
0
10
56.462083333333339
20
-110.14604166666666
30
0
10
56.091666666666676
20
-111.62770833333335
30
0
0
SPLINE
5
277
100
AcDbEntity
8
0
100
AcDbSpline
70
4
71
3
72
8
73
4
74
0
42
0.000000001
43
0.0000000001
44
0.0000000001
40
0
40
0
40
0
40
0
40
1
40
1
40
1
40
1
41
1
41
1
41
1
41
1
10
56.091666666666676
20
-111.62770833333335
30
0
10
55.827083333333348
20
-112.791875
30
0
10
55.827083333333348
20
-113.08291666666668
30
0
10
56.197500000000005
20
-113.63854166666668
30
0
0
SPLINE
5
278
100
AcDbEntity
8
0
100
AcDbSpline
70
4
71
3
72
8
73
4
74
0
42
0.000000001
43
0.0000000001
44
0.0000000001
40
0
40
0
40
0
40
0
40
1
40
1
40
1
40
1
41
1
41
1
41
1
41
1
10
56.197500000000005
20
-113.63854166666668
30
0
10
56.885416666666671
20
-114.69687500000001
30
0
10
58.446458333333347
20
-114.56458333333336
30
0
10
59.769375000000011
20
-113.34750000000001
30
0
0
SPLINE
5
279
100
AcDbEntity
8
0
100
AcDbSpline
70
4
71
3
72
8
73
4
74
0
42
0.000000001
43
0.0000000001
44
0.0000000001
40
0
40
0
40
0
40
0
40
1
40
1
40
1
40
1
41
1
41
1
41
1
41
1
10
59.769375000000011
20
-113.34750000000001
30
0
10
60.351458333333348
20
-112.84479166666669
30
0
10
60.960000000000008
20
-111.97166666666668
30
0
10
61.145208333333343
20
-111.44250000000001
30
0
0
SPLINE
5
280
100
AcDbEntity
8
0
100
AcDbSpline
70
4
71
3
72
8
73
4
74
0
42
0.000000001
43
0.0000000001
44
0.0000000001
40
0
40
0
40
0
40
0
40
1
40
1
40
1
40
1
41
1
41
1
41
1
41
1
10
61.145208333333343
20
-111.44250000000001
30
0
10
61.542083333333352
20
-110.17250000000001
30
0
10
61.647916666666674
20
-110.06666666666668
30
0
10
62.838541666666679
20
-109.80208333333336
30
0
0
SPLINE
5
281
100
AcDbEntity
8
0
100
AcDbSpline
70
4
71
3
72
8
73
4
74
0
42
0.000000001
43
0.0000000001
44
0.0000000001
40
0
40
0
40
0
40
0
40
1
40
1
40
1
40
1
41
1
41
1
41
1
41
1
10
62.838541666666679
20
-109.80208333333336
30
0
10
63.68520833333335
20
-109.61687499999999
30
0
10
63.791041666666679
20
-109.64333333333335
30
0
10
63.68520833333335
20
-110.01375000000002
30
0
0
SPLINE
5
282
100
AcDbEntity
8
0
100
AcDbSpline
70
4
71
3
72
8
73
4
74
0
42
0.000000001
43
0.0000000001
44
0.0000000001
40
0
40
0
40
0
40
0
40
1
40
1
40
1
40
1
41
1
41
1
41
1
41
1
10
63.68520833333335
20
-110.01375000000002
30
0
10
62.865000000000009
20
-112.84479166666669
30
0
10
62.865000000000009
20
-112.89770833333336
30
0
10
63.314791666666679
20
-113.61208333333335
30
0
0
SPLINE
5
283
100
AcDbEntity
8
0
100
AcDbSpline
70
4
71
3
72
8
73
4
74
0
42
0.000000001
43
0.0000000001
44
0.0000000001
40
0
40
0
40
0
40
0
40
1
40
1
40
1
40
1
41
1
41
1
41
1
41
1
10
63.314791666666679
20
-113.61208333333335
30
0
10
63.68520833333335
20
-114.16770833333334
30
0
10
63.976250000000014
20
-114.30000000000001
30
0
10
64.822916666666671
20
-114.30000000000001
30
0
0
SPLINE
5
284
100
AcDbEntity
8
0
100
AcDbSpline
70
4
71
3
72
8
73
4
74
0
42
0.000000001
43
0.0000000001
44
0.0000000001
40
0
40
0
40
0
40
0
40
1
40
1
40
1
40
1
41
1
41
1
41
1
41
1
10
64.822916666666671
20
-114.30000000000001
30
0
10
66.489791666666676
20
-114.30000000000001
30
0
10
67.706875000000011
20
-113.03
30
0
10
68.632916666666688
20
-110.27833333333334
30
0
0
SPLINE
5
285
100
AcDbEntity
8
0
100
AcDbSpline
70
4
71
3
72
8
73
4
74
0
42
0.000000001
43
0.0000000001
44
0.0000000001
40
0
40
0
40
0
40
0
40
1
40
1
40
1
40
1
41
1
41
1
41
1
41
1
10
68.632916666666688
20
-110.27833333333334
30
0
10
70.246875000000003
20
-105.56875000000002
30
0
10
72.601666666666688
20
-103.42562500000001
30
0
10
76.914375000000007
20
-102.79062500000002
30
0
0
SPLINE
5
286
100
AcDbEntity
8
0
100
AcDbSpline
70
4
71
3
72
8
73
4
74
0
42
0.000000001
43
0.0000000001
44
0.0000000001
40
0
40
0
40
0
40
0
40
1
40
1
40
1
40
1
41
1
41
1
41
1
41
1
10
76.914375000000007
20
-102.79062500000002
30
0
10
79.031041666666681
20
-102.473125
30
0
10
79.295625000000015
20
-102.36729166666669
30
0
10
80.089375000000004
20
-101.49416666666669
30
0
0
SPLINE
5
287
100
AcDbEntity
8
0
100
AcDbSpline
70
4
71
3
72
8
73
4
74
0
42
0.000000001
43
0.0000000001
44
0.0000000001
40
0
40
0
40
0
40
0
40
1
40
1
40
1
40
1
41
1
41
1
41
1
41
1
10
80.089375000000004
20
-101.49416666666669
30
0
10
81.041875000000019
20
-100.46229166666669
30
0
10
81.280000000000015
20
-99.033541666666665
30
0
10
80.565625000000011
20
-98.345625000000013
30
0
0
SPLINE
5
288
100
AcDbEntity
8
0
100
AcDbSpline
70
4
71
3
72
8
73
4
74
0
42
0.000000001
43
0.0000000001
44
0.0000000001
40
0
40
0
40
0
40
0
40
1
40
1
40
1
40
1
41
1
41
1
41
1
41
1
10
80.565625000000011
20
-98.345625000000013
30
0
10
80.353958333333338
20
-98.133958333333339
30
0
10
79.427916666666675
20
-97.869375000000005
30
0
10
78.52833333333335
20
-97.763541666666669
30
0
0
SPLINE
5
289
100
AcDbEntity
8
0
100
AcDbSpline
70
4
71
3
72
8
73
4
74
0
42
0.000000001
43
0.0000000001
44
0.0000000001
40
0
40
0
40
0
40
0
40
1
40
1
40
1
40
1
41
1
41
1
41
1
41
1
10
78.52833333333335
20
-97.763541666666669
30
0
10
76.623333333333349
20
-97.551875000000024
30
0
10
75.644375000000025
20
-96.96979166666668
30
0
10
75.035833333333358
20
-95.67333333333336
30
0
0
SPLINE
5
290
100
AcDbEntity
8
0
100
AcDbSpline
70
4
71
3
72
8
73
4
74
0
42
0.000000001
43
0.0000000001
44
0.0000000001
40
0
40
0
40
0
40
0
40
1
40
1
40
1
40
1
41
1
41
1
41
1
41
1
10
75.035833333333358
20
-95.67333333333336
30
0
10
74.427291666666676
20
-94.376875000000013
30
0
10
74.506666666666689
20
-93.00104166666668
30
0
10
75.406250000000014
20
-90.355208333333351
30
0
0
SPLINE
5
291
100
AcDbEntity
8
0
100
AcDbSpline
70
4
71
3
72
8
73
4
74
0
42
0.000000001
43
0.0000000001
44
0.0000000001
40
0
40
0
40
0
40
0
40
1
40
1
40
1
40
1
41
1
41
1
41
1
41
1
10
75.406250000000014
20
-90.355208333333351
30
0
10
75.882500000000007
20
-88.952916666666667
30
0
10
76.120625000000004
20
-87.788750000000007
30
0
10
76.041250000000019
20
-87.391875000000013
30
0
0
SPLINE
5
292
100
AcDbEntity
8
0
100
AcDbSpline
70
4
71
3
72
8
73
4
74
0
42
0.000000001
43
0.0000000001
44
0.0000000001
40
0
40
0
40
0
40
0
40
1
40
1
40
1
40
1
41
1
41
1
41
1
41
1
10
76.041250000000019
20
-87.391875000000013
30
0
10
75.72375000000001
20
-86.121875000000017
30
0
10
73.97750000000002
20
-85.883750000000006
30
0
10
72.469375000000028
20
-86.889166666666682
30
0
0
SPLINE
5
293
100
AcDbEntity
8
0
100
AcDbSpline
70
4
71
3
72
8
73
4
74
0
42
0.000000001
43
0.0000000001
44
0.0000000001
40
0
40
0
40
0
40
0
40
1
40
1
40
1
40
1
41
1
41
1
41
1
41
1
10
74.083333333333343
20
-88.58250000000001
30
0
10
74.083333333333343
20
-88.847083333333345
30
0
10
73.792291666666685
20
-89.931875000000019
30
0
10
73.421875000000014
20
-90.963750000000019
30
0
0
SPLINE
5
294
100
AcDbEntity
8
0
100
AcDbSpline
70
4
71
3
72
8
73
4
74
0
42
0.000000001
43
0.0000000001
44
0.0000000001
40
0
40
0
40
0
40
0
40
1
40
1
40
1
40
1
41
1
41
1
41
1
41
1
10
73.421875000000014
20
-90.963750000000019
30
0
10
72.363541666666677
20
-93.953541666666695
30
0
10
72.575208333333336
20
-96.334791666666689
30
0
10
74.056875000000019
20
-98.001666666666679
30
0
0
SPLINE
5
295
100
AcDbEntity
8
0
100
AcDbSpline
70
4
71
3
72
8
73
4
74
0
42
0.000000001
43
0.0000000001
44
0.0000000001
40
0
40
0
40
0
40
0
40
1
40
1
40
1
40
1
41
1
41
1
41
1
41
1
10
74.056875000000019
20
-98.001666666666679
30
0
10
74.718333333333348
20
-98.742500000000021
30
0
10
76.332291666666677
20
-99.483333333333348
30
0
10
77.364166666666691
20
-99.483333333333348
30
0
0
SPLINE
5
296
100
AcDbEntity
8
0
100
AcDbSpline
70
4
71
3
72
8
73
4
74
0
42
0.000000001
43
0.0000000001
44
0.0000000001
40
0
40
0
40
0
40
0
40
1
40
1
40
1
40
1
41
1
41
1
41
1
41
1
10
77.364166666666691
20
-99.483333333333348
30
0
10
78.52833333333335
20
-99.483333333333348
30
0
10
79.11041666666668
20
-99.721458333333345
30
0
10
79.11041666666668
20
-100.17125000000001
30
0
0
SPLINE
5
297
100
AcDbEntity
8
0
100
AcDbSpline
70
4
71
3
72
8
73
4
74
0
42
0.000000001
43
0.0000000001
44
0.0000000001
40
0
40
0
40
0
40
0
40
1
40
1
40
1
40
1
41
1
41
1
41
1
41
1
10
79.11041666666668
20
-100.17125000000001
30
0
10
79.11041666666668
20
-100.70041666666668
30
0
10
78.237291666666678
20
-101.07083333333335
30
0
10
76.940833333333359
20
-101.07083333333335
30
0
0
SPLINE
5
298
100
AcDbEntity
8
0
100
AcDbSpline
70
4
71
3
72
8
73
4
74
0
42
0.000000001
43
0.0000000001
44
0.0000000001
40
0
40
0
40
0
40
0
40
1
40
1
40
1
40
1
41
1
41
1
41
1
41
1
10
76.940833333333359
20
-101.07083333333335
30
0
10
74.400833333333338
20
-101.09729166666669
30
0
10
70.749583333333362
20
-103.31979166666669
30
0
10
68.844583333333333
20
-106.045
30
0
0
SPLINE
5
299
100
AcDbEntity
8
0
100
AcDbSpline
70
4
71
3
72
8
73
4
74
0
42
0.000000001
43
0.0000000001
44
0.0000000001
40
0
40
0
40
0
40
0
40
1
40
1
40
1
40
1
41
1
41
1
41
1
41
1
10
68.844583333333333
20
-106.045
30
0
10
68.262500000000003
20
-106.86520833333334
30
0
10
67.468750000000014
20
-108.50562500000002
30
0
10
67.071875000000006
20
-109.66979166666668
30
0
0
SPLINE
5
300
100
AcDbEntity
8
0
100
AcDbSpline
70
4
71
3
72
8
73
4
74
0
42
0.000000001
43
0.0000000001
44
0.0000000001
40
0
40
0
40
0
40
0
40
1
40
1
40
1
40
1
41
1
41
1
41
1
41
1
10
67.071875000000006
20
-109.66979166666668
30
0
10
66.648541666666688
20
-110.83395833333334
30
0
10
66.198750000000018
20
-111.94520833333335
30
0
10
66.066458333333344
20
-112.10395833333335
30
0
0
SPLINE
5
301
100
AcDbEntity
8
0
100
AcDbSpline
70
4
71
3
72
8
73
4
74
0
42
0.000000001
43
0.0000000001
44
0.0000000001
40
0
40
0
40
0
40
0
40
1
40
1
40
1
40
1
41
1
41
1
41
1
41
1
10
66.066458333333344
20
-112.10395833333335
30
0
10
65.722500000000011
20
-112.58020833333335
30
0
10
64.717083333333349
20
-112.55375000000001
30
0
10
64.902291666666684
20
-112.10395833333335
30
0
0
SPLINE
5
302
100
AcDbEntity
8
0
100
AcDbSpline
70
4
71
3
72
8
73
4
74
0
42
0.000000001
43
0.0000000001
44
0.0000000001
40
0
40
0
40
0
40
0
40
1
40
1
40
1
40
1
41
1
41
1
41
1
41
1
10
64.902291666666684
20
-112.10395833333335
30
0
10
65.616666666666674
20
-110.19895833333335
30
0
10
66.410416666666677
20
-107.18270833333335
30
0
10
66.410416666666677
20
-106.28312500000001
30
0
0
SPLINE
5
303
100
AcDbEntity
8
0
100
AcDbSpline
70
4
71
3
72
8
73
4
74
0
42
0.000000001
43
0.0000000001
44
0.0000000001
40
0
40
0
40
0
40
0
40
1
40
1
40
1
40
1
41
1
41
1
41
1
41
1
10
66.410416666666677
20
-106.28312500000001
30
0
10
66.383958333333354
20
-104.24583333333334
30
0
10
64.928750000000008
20
-102.02333333333335
30
0
10
63.156041666666681
20
-101.36187500000003
30
0
0
SPLINE
5
304
100
AcDbEntity
8
0
100
AcDbSpline
70
4
71
3
72
8
73
4
74
0
42
0.000000001
43
0.0000000001
44
0.0000000001
40
0
40
0
40
0
40
0
40
1
40
1
40
1
40
1
41
1
41
1
41
1
41
1
10
63.156041666666681
20
-101.36187500000003
30
0
10
62.732708333333349
20
-101.203125
30
0
10
61.938958333333353
20
-101.07083333333335
30
0
10
61.356875000000016
20
-101.07083333333335
30
0
0
SPLINE
5
305
100
AcDbEntity
8
0
100
AcDbSpline
70
4
71
3
72
8
73
4
74
0
42
0.000000001
43
0.0000000001
44
0.0000000001
40
0
40
0
40
0
40
0
40
1
40
1
40
1
40
1
41
1
41
1
41
1
41
1
10
61.356875000000016
20
-101.07083333333335
30
0
10
60.642500000000013
20
-101.07083333333335
30
0
10
60.245625000000011
20
-100.93854166666668
30
0
10
60.139791666666682
20
-100.64750000000001
30
0
0
SPLINE
5
306
100
AcDbEntity
8
0
100
AcDbSpline
70
4
71
3
72
8
73
4
74
0
42
0.000000001
43
0.0000000001
44
0.0000000001
40
0
40
0
40
0
40
0
40
1
40
1
40
1
40
1
41
1
41
1
41
1
41
1
10
60.139791666666682
20
-100.64750000000001
30
0
10
59.901666666666678
20
-99.986041666666679
30
0
10
60.404375000000016
20
-99.721458333333345
30
0
10
62.256458333333349
20
-99.483333333333348
30
0
0
SPLINE
5
307
100
AcDbEntity
8
0
100
AcDbSpline
70
4
71
3
72
8
73
4
74
0
42
0.000000001
43
0.0000000001
44
0.0000000001
40
0
40
0
40
0
40
0
40
1
40
1
40
1
40
1
41
1
41
1
41
1
41
1
10
62.256458333333349
20
-99.483333333333348
30
0
10
64.611250000000013
20
-99.192291666666677
30
0
10
66.489791666666676
20
-98.266249999999999
30
0
10
68.474166666666676
20
-96.440625000000026
30
0
0
SPLINE
5
308
100
AcDbEntity
8
0
100
AcDbSpline
70
4
71
3
72
8
73
4
74
0
42
0.000000001
43
0.0000000001
44
0.0000000001
40
0
40
0
40
0
40
0
40
1
40
1
40
1
40
1
41
1
41
1
41
1
41
1
10
68.474166666666676
20
-96.440625000000026
30
0
10
70.405625000000015
20
-94.66791666666667
30
0
10
71.199375000000018
20
-93.424375000000026
30
0
10
72.098958333333343
20
-90.752083333333346
30
0
0
SPLINE
5
309
100
AcDbEntity
8
0
100
AcDbSpline
70
4
71
3
72
8
73
4
74
0
42
0.000000001
43
0.0000000001
44
0.0000000001
40
0
40
0
40
0
40
0
40
1
40
1
40
1
40
1
41
1
41
1
41
1
41
1
10
72.098958333333343
20
-90.752083333333346
30
0
10
72.469375000000028
20
-89.693750000000009
30
0
10
72.892708333333346
20
-88.661875000000009
30
0
10
73.051458333333358
20
-88.476666666666674
30
0
0
SPLINE
5
310
100
AcDbEntity
8
0
100
AcDbSpline
70
4
71
3
72
8
73
4
74
0
42
0.000000001
43
0.0000000001
44
0.0000000001
40
0
40
0
40
0
40
0
40
1
40
1
40
1
40
1
41
1
41
1
41
1
41
1
10
73.051458333333358
20
-88.476666666666674
30
0
10
73.474791666666675
20
-87.947500000000005
30
0
10
74.083333333333343
20
-88.026875000000018
30
0
10
74.083333333333343
20
-88.58250000000001
30
0
0
SPLINE
5
311
100
AcDbEntity
8
0
100
AcDbSpline
70
4
71
3
72
8
73
4
74
0
42
0.000000001
43
0.0000000001
44
0.0000000001
40
0
40
0
40
0
40
0
40
1
40
1
40
1
40
1
41
1
41
1
41
1
41
1
10
61.198125000000012
20
-92.233750000000029
30
0
10
61.171666666666681
20
-92.498333333333349
30
0
10
61.065833333333345
20
-93.239166666666677
30
0
10
60.960000000000008
20
-93.874166666666667
30
0
0
SPLINE
5
312
100
AcDbEntity
8
0
100
AcDbSpline
70
4
71
3
72
8
73
4
74
0
42
0.000000001
43
0.0000000001
44
0.0000000001
40
0
40
0
40
0
40
0
40
1
40
1
40
1
40
1
41
1
41
1
41
1
41
1
10
60.960000000000008
20
-93.874166666666667
30
0
10
60.748333333333349
20
-95.223541666666677
30
0
10
61.303958333333348
20
-96.043750000000017
30
0
10
62.468125000000015
20
-96.043750000000017
30
0
0
SPLINE
5
313
100
AcDbEntity
8
0
100
AcDbSpline
70
4
71
3
72
8
73
4
74
0
42
0.000000001
43
0.0000000001
44
0.0000000001
40
0
40
0
40
0
40
0
40
1
40
1
40
1
40
1
41
1
41
1
41
1
41
1
10
62.468125000000015
20
-96.043750000000017
30
0
10
62.865000000000009
20
-96.043750000000017
30
0
10
63.288333333333348
20
-96.176041666666677
30
0
10
63.36770833333334
20
-96.308333333333351
30
0
0
SPLINE
5
314
100
AcDbEntity
8
0
100
AcDbSpline
70
4
71
3
72
8
73
4
74
0
42
0.000000001
43
0.0000000001
44
0.0000000001
40
0
40
0
40
0
40
0
40
1
40
1
40
1
40
1
41
1
41
1
41
1
41
1
10
63.36770833333334
20
-96.308333333333351
30
0
10
63.658750000000019
20
-96.78458333333333
30
0
10
62.944375000000008
20
-97.366666666666674
30
0
10
62.124166666666682
20
-97.366666666666674
30
0
0
SPLINE
5
315
100
AcDbEntity
8
0
100
AcDbSpline
70
4
71
3
72
8
73
4
74
0
42
0.000000001
43
0.0000000001
44
0.0000000001
40
0
40
0
40
0
40
0
40
1
40
1
40
1
40
1
41
1
41
1
41
1
41
1
10
62.124166666666682
20
-97.366666666666674
30
0
10
60.563125000000007
20
-97.366666666666674
30
0
10
59.187291666666681
20
-98.477916666666673
30
0
10
58.605208333333337
20
-100.30354166666669
30
0
0
SPLINE
5
316
100
AcDbEntity
8
0
100
AcDbSpline
70
4
71
3
72
8
73
4
74
0
42
0.000000001
43
0.0000000001
44
0.0000000001
40
0
40
0
40
0
40
0
40
1
40
1
40
1
40
1
41
1
41
1
41
1
41
1
10
58.605208333333337
20
-100.30354166666669
30
0
10
58.181875000000012
20
-101.52062500000001
30
0
10
57.546875000000014
20
-102.10270833333334
30
0
10
57.097083333333345
20
-101.65291666666668
30
0
0
SPLINE
5
317
100
AcDbEntity
8
0
100
AcDbSpline
70
4
71
3
72
8
73
4
74
0
42
0.000000001
43
0.0000000001
44
0.0000000001
40
0
40
0
40
0
40
0
40
1
40
1
40
1
40
1
41
1
41
1
41
1
41
1
10
57.097083333333345
20
-101.65291666666668
30
0
10
56.964791666666684
20
-101.52062500000001
30
0
10
57.044166666666676
20
-100.91208333333334
30
0
10
57.28229166666668
20
-100.27708333333335
30
0
0
SPLINE
5
318
100
AcDbEntity
8
0
100
AcDbSpline
70
4
71
3
72
8
73
4
74
0
42
0.000000001
43
0.0000000001
44
0.0000000001
40
0
40
0
40
0
40
0
40
1
40
1
40
1
40
1
41
1
41
1
41
1
41
1
10
57.28229166666668
20
-100.27708333333335
30
0
10
57.890833333333347
20
-98.557291666666686
30
0
10
57.28229166666668
20
-97.366666666666674
30
0
10
55.800625000000011
20
-97.366666666666674
30
0
0
SPLINE
5
319
100
AcDbEntity
8
0
100
AcDbSpline
70
4
71
3
72
8
73
4
74
0
42
0.000000001
43
0.0000000001
44
0.0000000001
40
0
40
0
40
0
40
0
40
1
40
1
40
1
40
1
41
1
41
1
41
1
41
1
10
55.800625000000011
20
-97.366666666666674
30
0
10
55.218541666666681
20
-97.366666666666674
30
0
10
55.033333333333339
20
-97.234375000000014
30
0
10
55.033333333333339
20
-96.863958333333358
30
0
0
SPLINE
5
320
100
AcDbEntity
8
0
100
AcDbSpline
70
4
71
3
72
8
73
4
74
0
42
0.000000001
43
0.0000000001
44
0.0000000001
40
0
40
0
40
0
40
0
40
1
40
1
40
1
40
1
41
1
41
1
41
1
41
1
10
55.033333333333339
20
-96.863958333333358
30
0
10
55.033333333333339
20
-96.334791666666689
30
0
10
55.297916666666673
20
-96.202500000000015
30
0
10
56.911875000000016
20
-95.93791666666668
30
0
0
SPLINE
5
321
100
AcDbEntity
8
0
100
AcDbSpline
70
4
71
3
72
8
73
4
74
0
42
0.000000001
43
0.0000000001
44
0.0000000001
40
0
40
0
40
0
40
0
40
1
40
1
40
1
40
1
41
1
41
1
41
1
41
1
10
56.911875000000016
20
-95.93791666666668
30
0
10
58.023125000000007
20
-95.752708333333345
30
0
10
59.055000000000021
20
-94.747291666666683
30
0
10
59.690000000000012
20
-93.265625000000014
30
0
0
SPLINE
5
322
100
AcDbEntity
8
0
100
AcDbSpline
70
4
71
3
72
8
73
4
74
0
42
0.000000001
43
0.0000000001
44
0.0000000001
40
0
40
0
40
0
40
0
40
1
40
1
40
1
40
1
41
1
41
1
41
1
41
1
10
59.690000000000012
20
-93.265625000000014
30
0
10
59.928125000000009
20
-92.68354166666667
30
0
10
60.245625000000011
20
-92.048541666666665
30
0
10
60.404375000000016
20
-91.863333333333344
30
0
0
SPLINE
5
323
100
AcDbEntity
8
0
100
AcDbSpline
70
4
71
3
72
8
73
4
74
0
42
0.000000001
43
0.0000000001
44
0.0000000001
40
0
40
0
40
0
40
0
40
1
40
1
40
1
40
1
41
1
41
1
41
1
41
1
10
60.404375000000016
20
-91.863333333333344
30
0
10
60.774791666666687
20
-91.413541666666674
30
0
10
61.251041666666673
20
-91.625208333333333
30
0
10
61.198125000000012
20
-92.233750000000029
30
0
0
SPLINE
5
324
100
AcDbEntity
8
0
100
AcDbSpline
70
4
71
3
72
8
73
4
74
0
42
0.000000001
43
0.0000000001
44
0.0000000001
40
0
40
0
40
0
40
0
40
1
40
1
40
1
40
1
41
1
41
1
41
1
41
1
10
62.071250000000013
20
-102.97583333333334
30
0
10
61.330416666666679
20
-105.46291666666669
30
0
10
61.674375000000019
20
-106.54770833333333
30
0
10
63.235416666666673
20
-106.78583333333336
30
0
0
SPLINE
5
325
100
AcDbEntity
8
0
100
AcDbSpline
70
4
71
3
72
8
73
4
74
0
42
0.000000001
43
0.0000000001
44
0.0000000001
40
0
40
0
40
0
40
0
40
1
40
1
40
1
40
1
41
1
41
1
41
1
41
1
10
63.235416666666673
20
-106.78583333333336
30
0
10
64.822916666666671
20
-107.05041666666668
30
0
10
64.505416666666676
20
-107.71187500000002
30
0
10
62.626875000000013
20
-108.05583333333334
30
0
0
SPLINE
5
326
100
AcDbEntity
8
0
100
AcDbSpline
70
4
71
3
72
8
73
4
74
0
42
0.000000001
43
0.0000000001
44
0.0000000001
40
0
40
0
40
0
40
0
40
1
40
1
40
1
40
1
41
1
41
1
41
1
41
1
10
62.626875000000013
20
-108.05583333333334
30
0
10
61.330416666666679
20
-108.29395833333334
30
0
10
59.875208333333347
20
-109.59041666666667
30
0
10
59.504791666666677
20
-110.88687500000003
30
0
0
SPLINE
5
327
100
AcDbEntity
8
0
100
AcDbSpline
70
4
71
3
72
8
73
4
74
0
42
0.000000001
43
0.0000000001
44
0.0000000001
40
0
40
0
40
0
40
0
40
1
40
1
40
1
40
1
41
1
41
1
41
1
41
1
10
59.504791666666677
20
-110.88687500000003
30
0
10
59.134375000000006
20
-112.05104166666669
30
0
10
58.658125000000013
20
-112.58020833333335
30
0
10
58.10250000000002
20
-112.36854166666667
30
0
0
SPLINE
5
328
100
AcDbEntity
8
0
100
AcDbSpline
70
4
71
3
72
8
73
4
74
0
42
0.000000001
43
0.0000000001
44
0.0000000001
40
0
40
0
40
0
40
0
40
1
40
1
40
1
40
1
41
1
41
1
41
1
41
1
10
58.10250000000002
20
-112.36854166666667
30
0
10
57.75854166666668
20
-112.23625000000001
30
0
10
57.785000000000011
20
-112.02458333333334
30
0
10
58.128958333333351
20
-110.88687500000003
30
0
0
SPLINE
5
329
100
AcDbEntity
8
0
100
AcDbSpline
70
4
71
3
72
8
73
4
74
0
42
0.000000001
43
0.0000000001
44
0.0000000001
40
0
40
0
40
0
40
0
40
1
40
1
40
1
40
1
41
1
41
1
41
1
41
1
10
58.128958333333351
20
-110.88687500000003
30
0
10
58.525833333333345
20
-109.66979166666668
30
0
10
58.525833333333345
20
-109.53750000000001
30
0
10
58.128958333333351
20
-108.90250000000002
30
0
0
SPLINE
5
330
100
AcDbEntity
8
0
100
AcDbSpline
70
4
71
3
72
8
73
4
74
0
42
0.000000001
43
0.0000000001
44
0.0000000001
40
0
40
0
40
0
40
0
40
1
40
1
40
1
40
1
41
1
41
1
41
1
41
1
10
58.128958333333351
20
-108.90250000000002
30
0
10
57.837916666666686
20
-108.47916666666669
30
0
10
57.335208333333341
20
-108.16166666666668
30
0
10
56.753125000000004
20
-108.05583333333334
30
0
0
SPLINE
5
331
100
AcDbEntity
8
0
100
AcDbSpline
70
4
71
3
72
8
73
4
74
0
42
0.000000001
43
0.0000000001
44
0.0000000001
40
0
40
0
40
0
40
0
40
1
40
1
40
1
40
1
41
1
41
1
41
1
41
1
10
56.753125000000004
20
-108.05583333333334
30
0
10
55.403750000000009
20
-107.81770833333334
30
0
10
55.615416666666675
20
-107.10333333333332
30
0
10
57.150000000000006
20
-106.81229166666668
30
0
0
SPLINE
5
332
100
AcDbEntity
8
0
100
AcDbSpline
70
4
71
3
72
8
73
4
74
0
42
0.000000001
43
0.0000000001
44
0.0000000001
40
0
40
0
40
0
40
0
40
1
40
1
40
1
40
1
41
1
41
1
41
1
41
1
10
57.150000000000006
20
-106.81229166666668
30
0
10
59.160833333333343
20
-106.41541666666669
30
0
10
60.033958333333345
20
-105.51583333333333
30
0
10
60.933541666666677
20
-102.84354166666668
30
0
0
SPLINE
5
333
100
AcDbEntity
8
0
100
AcDbSpline
70
4
71
3
72
8
73
4
74
0
42
0.000000001
43
0.0000000001
44
0.0000000001
40
0
40
0
40
0
40
0
40
1
40
1
40
1
40
1
41
1
41
1
41
1
41
1
10
60.933541666666677
20
-102.84354166666668
30
0
10
61.039375000000014
20
-102.60541666666667
30
0
10
61.356875000000016
20
-102.39375000000001
30
0
10
61.674375000000019
20
-102.39375000000001
30
0
0
SPLINE
5
334
100
AcDbEntity
8
0
100
AcDbSpline
70
4
71
3
72
8
73
4
74
0
42
0.000000001
43
0.0000000001
44
0.0000000001
40
0
40
0
40
0
40
0
40
1
40
1
40
1
40
1
41
1
41
1
41
1
41
1
10
61.674375000000019
20
-102.39375000000001
30
0
10
62.124166666666682
20
-102.39375000000001
30
0
10
62.20354166666668
20
-102.49958333333333
30
0
10
62.071250000000013
20
-102.97583333333334
30
0
0
SPLINE
5
335
100
AcDbEntity
8
0
100
AcDbSpline
70
4
71
3
72
8
73
4
74
0
42
0.000000001
43
0.0000000001
44
0.0000000001
40
0
40
0
40
0
40
0
40
1
40
1
40
1
40
1
41
1
41
1
41
1
41
1
10
154.80770833333335
20
-87.206666666666663
30
0
10
154.01395833333336
20
-87.894583333333344
30
0
10
153.61708333333337
20
-88.58250000000001
30
0
10
153.1672916666667
20
-89.905416666666696
30
0
0
SPLINE
5
336
100
AcDbEntity
8
0
100
AcDbSpline
70
4
71
3
72
8
73
4
74
0
42
0.000000001
43
0.0000000001
44
0.0000000001
40
0
40
0
40
0
40
0
40
1
40
1
40
1
40
1
41
1
41
1
41
1
41
1
10
153.1672916666667
20
-89.905416666666696
30
0
10
152.05604166666672
20
-93.292083333333352
30
0
10
150.75958333333338
20
-95.197083333333339
30
0
10
148.53708333333336
20
-96.599375000000009
30
0
0
LINE
5
337
100
AcDbEntity
8
0
100
AcDbLine
10
148.53708333333336
20
-96.599375000000009
30
0
11
147.74333333333334
21
-97.075625000000002
31
0
0
LINE
5
338
100
AcDbEntity
8
0
100
AcDbLine
10
147.74333333333334
20
-97.075625000000002
30
0
11
147.84916666666672
21
-96.202500000000015
31
0
0
SPLINE
5
339
100
AcDbEntity
8
0
100
AcDbSpline
70
4
71
3
72
8
73
4
74
0
42
0.000000001
43
0.0000000001
44
0.0000000001
40
0
40
0
40
0
40
0
40
1
40
1
40
1
40
1
41
1
41
1
41
1
41
1
10
147.84916666666672
20
-96.202500000000015
30
0
10
147.98145833333336
20
-95.064791666666665
30
0
10
147.18770833333338
20
-94.191666666666677
30
0
10
146.02354166666669
20
-94.191666666666677
30
0
0
SPLINE
5
340
100
AcDbEntity
8
0
100
AcDbSpline
70
4
71
3
72
8
73
4
74
0
42
0.000000001
43
0.0000000001
44
0.0000000001
40
0
40
0
40
0
40
0
40
1
40
1
40
1
40
1
41
1
41
1
41
1
41
1
10
146.02354166666669
20
-94.191666666666677
30
0
10
145.25625000000002
20
-94.191666666666677
30
0
10
145.20333333333338
20
-94.138750000000016
30
0
10
145.41500000000002
20
-93.45083333333335
30
0
0
SPLINE
5
341
100
AcDbEntity
8
0
100
AcDbSpline
70
4
71
3
72
8
73
4
74
0
42
0.000000001
43
0.0000000001
44
0.0000000001
40
0
40
0
40
0
40
0
40
1
40
1
40
1
40
1
41
1
41
1
41
1
41
1
10
145.41500000000002
20
-93.45083333333335
30
0
10
145.52083333333337
20
-93.053958333333341
30
0
10
145.62666666666669
20
-92.207291666666691
30
0
10
145.62666666666669
20
-91.545833333333348
30
0
0
SPLINE
5
342
100
AcDbEntity
8
0
100
AcDbSpline
70
4
71
3
72
8
73
4
74
0
42
0.000000001
43
0.0000000001
44
0.0000000001
40
0
40
0
40
0
40
0
40
1
40
1
40
1
40
1
41
1
41
1
41
1
41
1
10
145.62666666666669
20
-91.545833333333348
30
0
10
145.65312500000002
20
-90.513958333333335
30
0
10
145.57375000000005
20
-90.328750000000014
30
0
10
144.9122916666667
20
-90.011250000000018
30
0
0
SPLINE
5
343
100
AcDbEntity
8
0
100
AcDbSpline
70
4
71
3
72
8
73
4
74
0
42
0.000000001
43
0.0000000001
44
0.0000000001
40
0
40
0
40
0
40
0
40
1
40
1
40
1
40
1
41
1
41
1
41
1
41
1
10
144.9122916666667
20
-90.011250000000018
30
0
10
143.43062500000002
20
-89.296875000000014
30
0
10
141.57854166666669
20
-90.513958333333335
30
0
10
140.54666666666668
20
-92.895208333333358
30
0
0
SPLINE
5
344
100
AcDbEntity
8
0
100
AcDbSpline
70
4
71
3
72
8
73
4
74
0
42
0.000000001
43
0.0000000001
44
0.0000000001
40
0
40
0
40
0
40
0
40
1
40
1
40
1
40
1
41
1
41
1
41
1
41
1
10
140.54666666666668
20
-92.895208333333358
30
0
10
140.07041666666669
20
-94.006458333333342
30
0
10
139.93812500000001
20
-94.138750000000016
30
0
10
138.93270833333335
20
-94.271041666666662
30
0
0
SPLINE
5
345
100
AcDbEntity
8
0
100
AcDbSpline
70
4
71
3
72
8
73
4
74
0
42
0.000000001
43
0.0000000001
44
0.0000000001
40
0
40
0
40
0
40
0
40
1
40
1
40
1
40
1
41
1
41
1
41
1
41
1
10
138.93270833333335
20
-94.271041666666662
30
0
10
137.50395833333334
20
-94.456250000000011
30
0
10
136.12812500000001
20
-95.514583333333348
30
0
10
135.73125000000002
20
-96.731666666666683
30
0
0
SPLINE
5
346
100
AcDbEntity
8
0
100
AcDbSpline
70
4
71
3
72
8
73
4
74
0
42
0.000000001
43
0.0000000001
44
0.0000000001
40
0
40
0
40
0
40
0
40
1
40
1
40
1
40
1
41
1
41
1
41
1
41
1
10
135.73125000000002
20
-96.731666666666683
30
0
10
135.44020833333337
20
-97.578333333333347
30
0
10
135.4666666666667
20
-97.763541666666669
30
0
10
135.91645833333337
20
-98.398541666666674
30
0
0
SPLINE
5
347
100
AcDbEntity
8
0
100
AcDbSpline
70
4
71
3
72
8
73
4
74
0
42
0.000000001
43
0.0000000001
44
0.0000000001
40
0
40
0
40
0
40
0
40
1
40
1
40
1
40
1
41
1
41
1
41
1
41
1
10
135.91645833333337
20
-98.398541666666674
30
0
10
136.26041666666669
20
-98.821875000000006
30
0
10
136.73666666666671
20
-99.112916666666692
30
0
10
137.26583333333338
20
-99.165833333333339
30
0
0
SPLINE
5
348
100
AcDbEntity
8
0
100
AcDbSpline
70
4
71
3
72
8
73
4
74
0
42
0.000000001
43
0.0000000001
44
0.0000000001
40
0
40
0
40
0
40
0
40
1
40
1
40
1
40
1
41
1
41
1
41
1
41
1
10
137.26583333333338
20
-99.165833333333339
30
0
10
138.21833333333333
20
-99.271666666666675
30
0
10
138.32416666666671
20
-99.615625000000009
30
0
10
137.82145833333334
20
-101.04437500000002
30
0
0
SPLINE
5
349
100
AcDbEntity
8
0
100
AcDbSpline
70
4
71
3
72
8
73
4
74
0
42
0.000000001
43
0.0000000001
44
0.0000000001
40
0
40
0
40
0
40
0
40
1
40
1
40
1
40
1
41
1
41
1
41
1
41
1
10
137.82145833333334
20
-101.04437500000002
30
0
10
137.39812500000005
20
-102.20854166666668
30
0
10
137.68916666666667
20
-103.05520833333334
30
0
10
138.64166666666671
20
-103.45208333333335
30
0
0
SPLINE
5
350
100
AcDbEntity
8
0
100
AcDbSpline
70
4
71
3
72
8
73
4
74
0
42
0.000000001
43
0.0000000001
44
0.0000000001
40
0
40
0
40
0
40
0
40
1
40
1
40
1
40
1
41
1
41
1
41
1
41
1
10
138.64166666666671
20
-103.45208333333335
30
0
10
139.32958333333335
20
-103.74312500000002
30
0
10
139.62062500000005
20
-103.71666666666668
30
0
10
140.52020833333336
20
-103.37270833333335
30
0
0
SPLINE
5
351
100
AcDbEntity
8
0
100
AcDbSpline
70
4
71
3
72
8
73
4
74
0
42
0.000000001
43
0.0000000001
44
0.0000000001
40
0
40
0
40
0
40
0
40
1
40
1
40
1
40
1
41
1
41
1
41
1
41
1
10
140.52020833333336
20
-103.37270833333335
30
0
10
141.47270833333337
20
-103.00229166666666
30
0
10
141.57854166666669
20
-103.00229166666666
30
0
10
141.44625000000002
20
-103.34625000000003
30
0
0
SPLINE
5
352
100
AcDbEntity
8
0
100
AcDbSpline
70
4
71
3
72
8
73
4
74
0
42
0.000000001
43
0.0000000001
44
0.0000000001
40
0
40
0
40
0
40
0
40
1
40
1
40
1
40
1
41
1
41
1
41
1
41
1
10
141.44625000000002
20
-103.34625000000003
30
0
10
141.36687500000005
20
-103.58437500000001
30
0
10
141.28750000000002
20
-103.84895833333334
30
0
10
141.28750000000002
20
-103.98125000000002
30
0
0
SPLINE
5
353
100
AcDbEntity
8
0
100
AcDbSpline
70
4
71
3
72
8
73
4
74
0
42
0.000000001
43
0.0000000001
44
0.0000000001
40
0
40
0
40
0
40
0
40
1
40
1
40
1
40
1
41
1
41
1
41
1
41
1
10
141.28750000000002
20
-103.98125000000002
30
0
10
141.28750000000002
20
-104.51041666666669
30
0
10
140.38791666666671
20
-105.03958333333335
30
0
10
139.5147916666667
20
-105.03958333333335
30
0
0
SPLINE
5
354
100
AcDbEntity
8
0
100
AcDbSpline
70
4
71
3
72
8
73
4
74
0
42
0.000000001
43
0.0000000001
44
0.0000000001
40
0
40
0
40
0
40
0
40
1
40
1
40
1
40
1
41
1
41
1
41
1
41
1
10
139.5147916666667
20
-105.03958333333335
30
0
10
138.77395833333335
20
-105.03958333333335
30
0
10
138.35062500000001
20
-105.25125000000001
30
0
10
137.55687499999999
20
-106.07145833333334
30
0
0
SPLINE
5
355
100
AcDbEntity
8
0
100
AcDbSpline
70
4
71
3
72
8
73
4
74
0
42
0.000000001
43
0.0000000001
44
0.0000000001
40
0
40
0
40
0
40
0
40
1
40
1
40
1
40
1
41
1
41
1
41
1
41
1
10
137.55687499999999
20
-106.07145833333334
30
0
10
136.68375000000003
20
-106.91812500000003
30
0
10
136.52500000000001
20
-107.26208333333334
30
0
10
136.52500000000001
20
-108.16166666666668
30
0
0
SPLINE
5
356
100
AcDbEntity
8
0
100
AcDbSpline
70
4
71
3
72
8
73
4
74
0
42
0.000000001
43
0.0000000001
44
0.0000000001
40
0
40
0
40
0
40
0
40
1
40
1
40
1
40
1
41
1
41
1
41
1
41
1
10
136.52500000000001
20
-108.16166666666668
30
0
10
136.52500000000001
20
-109.29937500000003
30
0
10
136.9747916666667
20
-109.80208333333336
30
0
10
138.03312500000004
20
-109.80208333333336
30
0
0
SPLINE
5
357
100
AcDbEntity
8
0
100
AcDbSpline
70
4
71
3
72
8
73
4
74
0
42
0.000000001
43
0.0000000001
44
0.0000000001
40
0
40
0
40
0
40
0
40
1
40
1
40
1
40
1
41
1
41
1
41
1
41
1
10
138.03312500000004
20
-109.80208333333336
30
0
10
139.03854166666667
20
-109.80208333333336
30
0
10
139.1972916666667
20
-110.14604166666666
30
0
10
138.77395833333335
20
-111.36312500000001
30
0
0
SPLINE
5
358
100
AcDbEntity
8
0
100
AcDbSpline
70
4
71
3
72
8
73
4
74
0
42
0.000000001
43
0.0000000001
44
0.0000000001
40
0
40
0
40
0
40
0
40
1
40
1
40
1
40
1
41
1
41
1
41
1
41
1
10
138.77395833333335
20
-111.36312500000001
30
0
10
138.24479166666669
20
-112.84479166666669
30
0
10
138.27125000000001
20
-113.13583333333335
30
0
10
138.90625000000003
20
-113.77083333333334
30
0
0
SPLINE
5
359
100
AcDbEntity
8
0
100
AcDbSpline
70
4
71
3
72
8
73
4
74
0
42
0.000000001
43
0.0000000001
44
0.0000000001
40
0
40
0
40
0
40
0
40
1
40
1
40
1
40
1
41
1
41
1
41
1
41
1
10
138.90625000000003
20
-113.77083333333334
30
0
10
140.07041666666669
20
-114.935
30
0
10
142.42520833333339
20
-114.06187500000001
30
0
10
143.37770833333335
20
-112.07750000000003
30
0
0
SPLINE
5
360
100
AcDbEntity
8
0
100
AcDbSpline
70
4
71
3
72
8
73
4
74
0
42
0.000000001
43
0.0000000001
44
0.0000000001
40
0
40
0
40
0
40
0
40
1
40
1
40
1
40
1
41
1
41
1
41
1
41
1
10
143.37770833333335
20
-112.07750000000003
30
0
10
143.69520833333337
20
-111.46895833333333
30
0
10
143.93333333333337
20
-110.83395833333334
30
0
10
143.93333333333337
20
-110.64875000000001
30
0
0
SPLINE
5
361
100
AcDbEntity
8
0
100
AcDbSpline
70
4
71
3
72
8
73
4
74
0
42
0.000000001
43
0.0000000001
44
0.0000000001
40
0
40
0
40
0
40
0
40
1
40
1
40
1
40
1
41
1
41
1
41
1
41
1
10
143.93333333333337
20
-110.64875000000001
30
0
10
143.93333333333337
20
-110.25187500000001
30
0
10
144.80645833333338
20
-109.80208333333336
30
0
10
145.62666666666669
20
-109.80208333333336
30
0
0
SPLINE
5
362
100
AcDbEntity
8
0
100
AcDbSpline
70
4
71
3
72
8
73
4
74
0
42
0.000000001
43
0.0000000001
44
0.0000000001
40
0
40
0
40
0
40
0
40
1
40
1
40
1
40
1
41
1
41
1
41
1
41
1
10
145.62666666666669
20
-109.80208333333336
30
0
10
145.99708333333336
20
-109.80208333333336
30
0
10
146.31458333333336
20
-109.82854166666669
30
0
10
146.31458333333336
20
-109.85500000000002
30
0
0
SPLINE
5
363
100
AcDbEntity
8
0
100
AcDbSpline
70
4
71
3
72
8
73
4
74
0
42
0.000000001
43
0.0000000001
44
0.0000000001
40
0
40
0
40
0
40
0
40
1
40
1
40
1
40
1
41
1
41
1
41
1
41
1
10
146.31458333333336
20
-109.85500000000002
30
0
10
146.31458333333336
20
-109.90791666666668
30
0
10
146.12937500000004
20
-110.51645833333336
30
0
10
145.91770833333334
20
-111.23083333333334
30
0
0
SPLINE
5
364
100
AcDbEntity
8
0
100
AcDbSpline
70
4
71
3
72
8
73
4
74
0
42
0.000000001
43
0.0000000001
44
0.0000000001
40
0
40
0
40
0
40
0
40
1
40
1
40
1
40
1
41
1
41
1
41
1
41
1
10
145.91770833333334
20
-111.23083333333334
30
0
10
145.41500000000002
20
-112.92416666666668
30
0
10
145.41500000000002
20
-113.13583333333335
30
0
10
146.05000000000001
20
-113.77083333333334
30
0
0
SPLINE
5
365
100
AcDbEntity
8
0
100
AcDbSpline
70
4
71
3
72
8
73
4
74
0
42
0.000000001
43
0.0000000001
44
0.0000000001
40
0
40
0
40
0
40
0
40
1
40
1
40
1
40
1
41
1
41
1
41
1
41
1
10
146.05000000000001
20
-113.77083333333334
30
0
10
147.0554166666667
20
-114.77625
30
0
10
149.14562500000005
20
-114.24708333333334
30
0
10
150.17750000000004
20
-112.73895833333336
30
0
0
SPLINE
5
366
100
AcDbEntity
8
0
100
AcDbSpline
70
4
71
3
72
8
73
4
74
0
42
0.000000001
43
0.0000000001
44
0.0000000001
40
0
40
0
40
0
40
0
40
1
40
1
40
1
40
1
41
1
41
1
41
1
41
1
10
150.17750000000004
20
-112.73895833333336
30
0
10
150.38916666666668
20
-112.44791666666669
30
0
10
150.8654166666667
20
-111.36312500000001
30
0
10
151.18291666666667
20
-110.38416666666669
30
0
0
SPLINE
5
367
100
AcDbEntity
8
0
100
AcDbSpline
70
4
71
3
72
8
73
4
74
0
42
0.000000001
43
0.0000000001
44
0.0000000001
40
0
40
0
40
0
40
0
40
1
40
1
40
1
40
1
41
1
41
1
41
1
41
1
10
151.18291666666667
20
-110.38416666666669
30
0
10
152.10895833333336
20
-107.68541666666667
30
0
10
152.74395833333335
20
-106.60062500000001
30
0
10
154.22562500000001
20
-105.22479166666669
30
0
0
SPLINE
5
368
100
AcDbEntity
8
0
100
AcDbSpline
70
4
71
3
72
8
73
4
74
0
42
0.000000001
43
0.0000000001
44
0.0000000001
40
0
40
0
40
0
40
0
40
1
40
1
40
1
40
1
41
1
41
1
41
1
41
1
10
154.22562500000001
20
-105.22479166666669
30
0
10
155.91895833333336
20
-103.63729166666667
30
0
10
157.32125000000002
20
-103.00229166666666
30
0
10
159.64958333333334
20
-102.76416666666668
30
0
0
SPLINE
5
369
100
AcDbEntity
8
0
100
AcDbSpline
70
4
71
3
72
8
73
4
74
0
42
0.000000001
43
0.0000000001
44
0.0000000001
40
0
40
0
40
0
40
0
40
1
40
1
40
1
40
1
41
1
41
1
41
1
41
1
10
159.64958333333334
20
-102.76416666666668
30
0
10
161.0254166666667
20
-102.63187500000001
30
0
10
161.63395833333337
20
-102.42020833333335
30
0
10
162.24250000000006
20
-101.89104166666668
30
0
0
SPLINE
5
370
100
AcDbEntity
8
0
100
AcDbSpline
70
4
71
3
72
8
73
4
74
0
42
0.000000001
43
0.0000000001
44
0.0000000001
40
0
40
0
40
0
40
0
40
1
40
1
40
1
40
1
41
1
41
1
41
1
41
1
10
162.24250000000006
20
-101.89104166666668
30
0
10
163.30083333333337
20
-101.01791666666668
30
0
10
163.85645833333339
20
-99.721458333333345
30
0
10
163.53895833333337
20
-98.874791666666667
30
0
0
SPLINE
5
371
100
AcDbEntity
8
0
100
AcDbSpline
70
4
71
3
72
8
73
4
74
0
42
0.000000001
43
0.0000000001
44
0.0000000001
40
0
40
0
40
0
40
0
40
1
40
1
40
1
40
1
41
1
41
1
41
1
41
1
10
163.53895833333337
20
-98.874791666666667
30
0
10
163.2479166666667
20
-98.107500000000002
30
0
10
162.95687500000003
20
-97.975208333333342
30
0
10
160.91958333333338
20
-97.737083333333331
30
0
0
SPLINE
5
372
100
AcDbEntity
8
0
100
AcDbSpline
70
4
71
3
72
8
73
4
74
0
42
0.000000001
43
0.0000000001
44
0.0000000001
40
0
40
0
40
0
40
0
40
1
40
1
40
1
40
1
41
1
41
1
41
1
41
1
10
160.91958333333338
20
-97.737083333333331
30
0
10
159.14687500000002
20
-97.551875000000024
30
0
10
158.14145833333336
20
-96.83750000000002
30
0
10
157.53291666666667
20
-95.355833333333337
30
0
0
SPLINE
5
373
100
AcDbEntity
8
0
100
AcDbSpline
70
4
71
3
72
8
73
4
74
0
42
0.000000001
43
0.0000000001
44
0.0000000001
40
0
40
0
40
0
40
0
40
1
40
1
40
1
40
1
41
1
41
1
41
1
41
1
10
157.53291666666667
20
-95.355833333333337
30
0
10
157.00375000000003
20
-94.059375000000017
30
0
10
157.08312500000002
20
-93.159791666666678
30
0
10
157.95625000000004
20
-90.408125000000013
30
0
0
SPLINE
5
374
100
AcDbEntity
8
0
100
AcDbSpline
70
4
71
3
72
8
73
4
74
0
42
0.000000001
43
0.0000000001
44
0.0000000001
40
0
40
0
40
0
40
0
40
1
40
1
40
1
40
1
41
1
41
1
41
1
41
1
10
157.95625000000004
20
-90.408125000000013
30
0
10
158.90875000000003
20
-87.471249999999998
30
0
10
158.90875000000003
20
-87.471249999999998
30
0
10
158.22083333333336
20
-86.783333333333346
30
0
0
SPLINE
5
375
100
AcDbEntity
8
0
100
AcDbSpline
70
4
71
3
72
8
73
4
74
0
42
0.000000001
43
0.0000000001
44
0.0000000001
40
0
40
0
40
0
40
0
40
1
40
1
40
1
40
1
41
1
41
1
41
1
41
1
10
158.22083333333336
20
-86.783333333333346
30
0
10
157.3741666666667
20
-85.936666666666667
30
0
10
156.02479166666672
20
-86.095416666666665
30
0
10
154.80770833333335
20
-87.206666666666663
30
0
0
SPLINE
5
376
100
AcDbEntity
8
0
100
AcDbSpline
70
4
71
3
72
8
73
4
74
0
42
0.000000001
43
0.0000000001
44
0.0000000001
40
0
40
0
40
0
40
0
40
1
40
1
40
1
40
1
41
1
41
1
41
1
41
1
10
156.68625000000003
20
-88.238541666666691
30
0
10
156.76562500000003
20
-88.317916666666676
30
0
10
156.50104166666668
20
-89.455625000000012
30
0
10
156.07770833333336
20
-90.752083333333346
30
0
0
SPLINE
5
377
100
AcDbEntity
8
0
100
AcDbSpline
70
4
71
3
72
8
73
4
74
0
42
0.000000001
43
0.0000000001
44
0.0000000001
40
0
40
0
40
0
40
0
40
1
40
1
40
1
40
1
41
1
41
1
41
1
41
1
10
156.07770833333336
20
-90.752083333333346
30
0
10
155.17812500000002
20
-93.503750000000011
30
0
10
155.12520833333338
20
-95.197083333333339
30
0
10
155.81312500000001
20
-96.758125000000007
30
0
0
SPLINE
5
378
100
AcDbEntity
8
0
100
AcDbSpline
70
4
71
3
72
8
73
4
74
0
42
0.000000001
43
0.0000000001
44
0.0000000001
40
0
40
0
40
0
40
0
40
1
40
1
40
1
40
1
41
1
41
1
41
1
41
1
10
155.81312500000001
20
-96.758125000000007
30
0
10
156.42166666666671
20
-98.054583333333355
30
0
10
157.95625000000004
20
-99.165833333333339
30
0
10
159.43791666666669
20
-99.377500000000012
30
0
0
SPLINE
5
379
100
AcDbEntity
8
0
100
AcDbSpline
70
4
71
3
72
8
73
4
74
0
42
0.000000001
43
0.0000000001
44
0.0000000001
40
0
40
0
40
0
40
0
40
1
40
1
40
1
40
1
41
1
41
1
41
1
41
1
10
159.43791666666669
20
-99.377500000000012
30
0
10
161.29000000000002
20
-99.642083333333346
30
0
10
161.66041666666669
20
-99.747916666666683
30
0
10
161.66041666666669
20
-100.14479166666668
30
0
0
SPLINE
5
380
100
AcDbEntity
8
0
100
AcDbSpline
70
4
71
3
72
8
73
4
74
0
42
0.000000001
43
0.0000000001
44
0.0000000001
40
0
40
0
40
0
40
0
40
1
40
1
40
1
40
1
41
1
41
1
41
1
41
1
10
161.66041666666669
20
-100.14479166666668
30
0
10
161.66041666666669
20
-100.70041666666668
30
0
10
161.15770833333335
20
-100.91208333333334
30
0
10
159.3585416666667
20
-101.09729166666669
30
0
0
SPLINE
5
381
100
AcDbEntity
8
0
100
AcDbSpline
70
4
71
3
72
8
73
4
74
0
42
0.000000001
43
0.0000000001
44
0.0000000001
40
0
40
0
40
0
40
0
40
1
40
1
40
1
40
1
41
1
41
1
41
1
41
1
10
159.3585416666667
20
-101.09729166666669
30
0
10
157.2154166666667
20
-101.30895833333334
30
0
10
155.15166666666667
20
-102.34083333333334
30
0
10
153.1672916666667
20
-104.16645833333334
30
0
0
SPLINE
5
382
100
AcDbEntity
8
0
100
AcDbSpline
70
4
71
3
72
8
73
4
74
0
42
0.000000001
43
0.0000000001
44
0.0000000001
40
0
40
0
40
0
40
0
40
1
40
1
40
1
40
1
41
1
41
1
41
1
41
1
10
153.1672916666667
20
-104.16645833333334
30
0
10
151.3416666666667
20
-105.88625
30
0
10
150.60083333333336
20
-107.05041666666668
30
0
10
149.59541666666669
20
-109.80208333333336
30
0
0
SPLINE
5
383
100
AcDbEntity
8
0
100
AcDbSpline
70
4
71
3
72
8
73
4
74
0
42
0.000000001
43
0.0000000001
44
0.0000000001
40
0
40
0
40
0
40
0
40
1
40
1
40
1
40
1
41
1
41
1
41
1
41
1
10
149.59541666666669
20
-109.80208333333336
30
0
10
148.80166666666668
20
-112.02458333333334
30
0
10
148.40479166666668
20
-112.58020833333335
30
0
10
147.79625000000004
20
-112.36854166666667
30
0
0
SPLINE
5
384
100
AcDbEntity
8
0
100
AcDbSpline
70
4
71
3
72
8
73
4
74
0
42
0.000000001
43
0.0000000001
44
0.0000000001
40
0
40
0
40
0
40
0
40
1
40
1
40
1
40
1
41
1
41
1
41
1
41
1
10
147.79625000000004
20
-112.36854166666667
30
0
10
147.4522916666667
20
-112.23625000000001
30
0
10
147.50520833333334
20
-111.86583333333333
30
0
10
148.19312500000001
20
-109.88145833333334
30
0
0
SPLINE
5
385
100
AcDbEntity
8
0
100
AcDbSpline
70
4
71
3
72
8
73
4
74
0
42
0.000000001
43
0.0000000001
44
0.0000000001
40
0
40
0
40
0
40
0
40
1
40
1
40
1
40
1
41
1
41
1
41
1
41
1
10
148.19312500000001
20
-109.88145833333334
30
0
10
149.91291666666669
20
-104.90729166666668
30
0
10
148.40479166666668
20
-101.54708333333333
30
0
10
144.27729166666671
20
-101.09729166666669
30
0
0
SPLINE
5
386
100
AcDbEntity
8
0
100
AcDbSpline
70
4
71
3
72
8
73
4
74
0
42
0.000000001
43
0.0000000001
44
0.0000000001
40
0
40
0
40
0
40
0
40
1
40
1
40
1
40
1
41
1
41
1
41
1
41
1
10
144.27729166666671
20
-101.09729166666669
30
0
10
143.11312500000003
20
-100.96500000000003
30
0
10
142.71625000000003
20
-100.83270833333336
30
0
10
142.66333333333338
20
-100.48875000000001
30
0
0
SPLINE
5
387
100
AcDbEntity
8
0
100
AcDbSpline
70
4
71
3
72
8
73
4
74
0
42
0.000000001
43
0.0000000001
44
0.0000000001
40
0
40
0
40
0
40
0
40
1
40
1
40
1
40
1
41
1
41
1
41
1
41
1
10
142.66333333333338
20
-100.48875000000001
30
0
10
142.55750000000003
20
-99.906666666666695
30
0
10
143.53645833333334
20
-99.483333333333348
30
0
10
144.93875000000006
20
-99.483333333333348
30
0
0
SPLINE
5
388
100
AcDbEntity
8
0
100
AcDbSpline
70
4
71
3
72
8
73
4
74
0
42
0.000000001
43
0.0000000001
44
0.0000000001
40
0
40
0
40
0
40
0
40
1
40
1
40
1
40
1
41
1
41
1
41
1
41
1
10
144.93875000000006
20
-99.483333333333348
30
0
10
146.28812500000004
20
-99.456874999999997
30
0
10
148.69583333333335
20
-98.425000000000011
30
0
10
150.41562500000003
20
-97.10208333333334
30
0
0
SPLINE
5
389
100
AcDbEntity
8
0
100
AcDbSpline
70
4
71
3
72
8
73
4
74
0
42
0.000000001
43
0.0000000001
44
0.0000000001
40
0
40
0
40
0
40
0
40
1
40
1
40
1
40
1
41
1
41
1
41
1
41
1
10
150.41562500000003
20
-97.10208333333334
30
0
10
152.21479166666671
20
-95.699791666666684
30
0
10
153.69645833333334
20
-93.530208333333348
30
0
10
154.64895833333335
20
-90.831458333333345
30
0
0
SPLINE
5
390
100
AcDbEntity
8
0
100
AcDbSpline
70
4
71
3
72
8
73
4
74
0
42
0.000000001
43
0.0000000001
44
0.0000000001
40
0
40
0
40
0
40
0
40
1
40
1
40
1
40
1
41
1
41
1
41
1
41
1
10
154.64895833333335
20
-90.831458333333345
30
0
10
155.0722916666667
20
-89.693750000000009
30
0
10
155.52208333333337
20
-88.608958333333334
30
0
10
155.65437500000004
20
-88.423750000000013
30
0
0
SPLINE
5
391
100
AcDbEntity
8
0
100
AcDbSpline
70
4
71
3
72
8
73
4
74
0
42
0.000000001
43
0.0000000001
44
0.0000000001
40
0
40
0
40
0
40
0
40
1
40
1
40
1
40
1
41
1
41
1
41
1
41
1
10
155.65437500000004
20
-88.423750000000013
30
0
10
155.91895833333336
20
-88.106250000000017
30
0
10
156.44812500000003
20
-88.000416666666666
30
0
10
156.68625000000003
20
-88.238541666666691
30
0
0
SPLINE
5
392
100
AcDbEntity
8
0
100
AcDbSpline
70
4
71
3
72
8
73
4
74
0
42
0.000000001
43
0.0000000001
44
0.0000000001
40
0
40
0
40
0
40
0
40
1
40
1
40
1
40
1
41
1
41
1
41
1
41
1
10
143.74812500000004
20
-92.233750000000029
30
0
10
143.72166666666669
20
-92.498333333333349
30
0
10
143.61583333333337
20
-93.239166666666677
30
0
10
143.51000000000002
20
-93.874166666666667
30
0
0
SPLINE
5
393
100
AcDbEntity
8
0
100
AcDbSpline
70
4
71
3
72
8
73
4
74
0
42
0.000000001
43
0.0000000001
44
0.0000000001
40
0
40
0
40
0
40
0
40
1
40
1
40
1
40
1
41
1
41
1
41
1
41
1
10
143.51000000000002
20
-93.874166666666667
30
0
10
143.29833333333337
20
-95.223541666666677
30
0
10
143.85395833333337
20
-96.043750000000017
30
0
10
145.01812500000003
20
-96.043750000000017
30
0
0
SPLINE
5
394
100
AcDbEntity
8
0
100
AcDbSpline
70
4
71
3
72
8
73
4
74
0
42
0.000000001
43
0.0000000001
44
0.0000000001
40
0
40
0
40
0
40
0
40
1
40
1
40
1
40
1
41
1
41
1
41
1
41
1
10
145.01812500000003
20
-96.043750000000017
30
0
10
145.41500000000002
20
-96.043750000000017
30
0
10
145.83833333333337
20
-96.176041666666677
30
0
10
145.91770833333334
20
-96.308333333333351
30
0
0
SPLINE
5
395
100
AcDbEntity
8
0
100
AcDbSpline
70
4
71
3
72
8
73
4
74
0
42
0.000000001
43
0.0000000001
44
0.0000000001
40
0
40
0
40
0
40
0
40
1
40
1
40
1
40
1
41
1
41
1
41
1
41
1
10
145.91770833333334
20
-96.308333333333351
30
0
10
146.20875000000004
20
-96.78458333333333
30
0
10
145.49437500000002
20
-97.366666666666674
30
0
10
144.62125000000003
20
-97.366666666666674
30
0
0
SPLINE
5
396
100
AcDbEntity
8
0
100
AcDbSpline
70
4
71
3
72
8
73
4
74
0
42
0.000000001
43
0.0000000001
44
0.0000000001
40
0
40
0
40
0
40
0
40
1
40
1
40
1
40
1
41
1
41
1
41
1
41
1
10
144.62125000000003
20
-97.366666666666674
30
0
10
143.29833333333337
20
-97.366666666666674
30
0
10
141.97541666666669
20
-98.451458333333349
30
0
10
141.26104166666667
20
-100.11833333333334
30
0
0
SPLINE
5
397
100
AcDbEntity
8
0
100
AcDbSpline
70
4
71
3
72
8
73
4
74
0
42
0.000000001
43
0.0000000001
44
0.0000000001
40
0
40
0
40
0
40
0
40
1
40
1
40
1
40
1
41
1
41
1
41
1
41
1
10
141.26104166666667
20
-100.11833333333334
30
0
10
140.70541666666671
20
-101.52062500000001
30
0
10
140.17625000000004
20
-102.02333333333335
30
0
10
139.70000000000002
20
-101.7322916666667
30
0
0
SPLINE
5
398
100
AcDbEntity
8
0
100
AcDbSpline
70
4
71
3
72
8
73
4
74
0
42
0.000000001
43
0.0000000001
44
0.0000000001
40
0
40
0
40
0
40
0
40
1
40
1
40
1
40
1
41
1
41
1
41
1
41
1
10
139.70000000000002
20
-101.7322916666667
30
0
10
139.56770833333334
20
-101.65291666666668
30
0
10
139.64708333333337
20
-101.09729166666669
30
0
10
139.85875000000001
20
-100.48875000000001
30
0
0
SPLINE
5
399
100
AcDbEntity
8
0
100
AcDbSpline
70
4
71
3
72
8
73
4
74
0
42
0.000000001
43
0.0000000001
44
0.0000000001
40
0
40
0
40
0
40
0
40
1
40
1
40
1
40
1
41
1
41
1
41
1
41
1
10
139.85875000000001
20
-100.48875000000001
30
0
10
140.04395833333336
20
-99.906666666666695
30
0
10
140.22916666666669
20
-99.192291666666677
30
0
10
140.22916666666669
20
-98.927708333333328
30
0
0
SPLINE
5
400
100
AcDbEntity
8
0
100
AcDbSpline
70
4
71
3
72
8
73
4
74
0
42
0.000000001
43
0.0000000001
44
0.0000000001
40
0
40
0
40
0
40
0
40
1
40
1
40
1
40
1
41
1
41
1
41
1
41
1
10
140.22916666666669
20
-98.927708333333328
30
0
10
140.22916666666669
20
-98.160416666666691
30
0
10
139.2766666666667
20
-97.366666666666674
30
0
10
138.37708333333336
20
-97.366666666666674
30
0
0
SPLINE
5
401
100
AcDbEntity
8
0
100
AcDbSpline
70
4
71
3
72
8
73
4
74
0
42
0.000000001
43
0.0000000001
44
0.0000000001
40
0
40
0
40
0
40
0
40
1
40
1
40
1
40
1
41
1
41
1
41
1
41
1
10
138.37708333333336
20
-97.366666666666674
30
0
10
137.90083333333337
20
-97.366666666666674
30
0
10
137.58333333333334
20
-97.234375000000014
30
0
10
137.58333333333334
20
-97.022708333333355
30
0
0
SPLINE
5
402
100
AcDbEntity
8
0
100
AcDbSpline
70
4
71
3
72
8
73
4
74
0
42
0.000000001
43
0.0000000001
44
0.0000000001
40
0
40
0
40
0
40
0
40
1
40
1
40
1
40
1
41
1
41
1
41
1
41
1
10
137.58333333333334
20
-97.022708333333355
30
0
10
137.58333333333334
20
-96.440625000000026
30
0
10
138.19187500000004
20
-96.043750000000017
30
0
10
139.09145833333338
20
-96.043750000000017
30
0
0
SPLINE
5
403
100
AcDbEntity
8
0
100
AcDbSpline
70
4
71
3
72
8
73
4
74
0
42
0.000000001
43
0.0000000001
44
0.0000000001
40
0
40
0
40
0
40
0
40
1
40
1
40
1
40
1
41
1
41
1
41
1
41
1
10
139.09145833333338
20
-96.043750000000017
30
0
10
140.14979166666672
20
-96.043750000000017
30
0
10
141.92250000000001
20
-94.562083333333348
30
0
10
142.21354166666669
20
-93.45083333333335
30
0
0
SPLINE
5
404
100
AcDbEntity
8
0
100
AcDbSpline
70
4
71
3
72
8
73
4
74
0
42
0.000000001
43
0.0000000001
44
0.0000000001
40
0
40
0
40
0
40
0
40
1
40
1
40
1
40
1
41
1
41
1
41
1
41
1
10
142.21354166666669
20
-93.45083333333335
30
0
10
142.58395833333336
20
-91.889791666666667
30
0
10
143.88041666666669
20
-90.857916666666668
30
0
10
143.74812500000004
20
-92.233750000000029
30
0
0
SPLINE
5
405
100
AcDbEntity
8
0
100
AcDbSpline
70
4
71
3
72
8
73
4
74
0
42
0.000000001
43
0.0000000001
44
0.0000000001
40
0
40
0
40
0
40
0
40
1
40
1
40
1
40
1
41
1
41
1
41
1
41
1
10
144.72708333333335
20
-102.68479166666668
30
0
10
144.72708333333335
20
-102.87
30
0
10
144.59479166666668
20
-103.45208333333335
30
0
10
144.43604166666668
20
-103.98125000000002
30
0
0
SPLINE
5
406
100
AcDbEntity
8
0
100
AcDbSpline
70
4
71
3
72
8
73
4
74
0
42
0.000000001
43
0.0000000001
44
0.0000000001
40
0
40
0
40
0
40
0
40
1
40
1
40
1
40
1
41
1
41
1
41
1
41
1
10
144.43604166666668
20
-103.98125000000002
30
0
10
143.95979166666669
20
-105.56875000000002
30
0
10
144.27729166666671
20
-106.28312500000001
30
0
10
145.60020833333337
20
-106.65354166666668
30
0
0
SPLINE
5
407
100
AcDbEntity
8
0
100
AcDbSpline
70
4
71
3
72
8
73
4
74
0
42
0.000000001
43
0.0000000001
44
0.0000000001
40
0
40
0
40
0
40
0
40
1
40
1
40
1
40
1
41
1
41
1
41
1
41
1
10
145.60020833333337
20
-106.65354166666668
30
0
10
146.97604166666667
20
-107.05041666666668
30
0
10
146.8966666666667
20
-106.99750000000002
30
0
10
146.685
20
-107.52666666666669
30
0
0
SPLINE
5
408
100
AcDbEntity
8
0
100
AcDbSpline
70
4
71
3
72
8
73
4
74
0
42
0.000000001
43
0.0000000001
44
0.0000000001
40
0
40
0
40
0
40
0
40
1
40
1
40
1
40
1
41
1
41
1
41
1
41
1
10
146.685
20
-107.52666666666669
30
0
10
146.60562500000003
20
-107.76479166666667
30
0
10
146.23520833333339
20
-107.95000000000002
30
0
10
145.91770833333334
20
-107.95000000000002
30
0
0
SPLINE
5
409
100
AcDbEntity
8
0
100
AcDbSpline
70
4
71
3
72
8
73
4
74
0
42
0.000000001
43
0.0000000001
44
0.0000000001
40
0
40
0
40
0
40
0
40
1
40
1
40
1
40
1
41
1
41
1
41
1
41
1
10
145.91770833333334
20
-107.95000000000002
30
0
10
144.30375000000001
20
-107.95000000000002
30
0
10
142.55750000000003
20
-109.24645833333335
30
0
10
142.05479166666669
20
-110.83395833333334
30
0
0
SPLINE
5
410
100
AcDbEntity
8
0
100
AcDbSpline
70
4
71
3
72
8
73
4
74
0
42
0.000000001
43
0.0000000001
44
0.0000000001
40
0
40
0
40
0
40
0
40
1
40
1
40
1
40
1
41
1
41
1
41
1
41
1
10
142.05479166666669
20
-110.83395833333334
30
0
10
141.68437500000002
20
-111.998125
30
0
10
141.3404166666667
20
-112.44791666666669
30
0
10
140.83770833333338
20
-112.44791666666669
30
0
0
SPLINE
5
411
100
AcDbEntity
8
0
100
AcDbSpline
70
4
71
3
72
8
73
4
74
0
42
0.000000001
43
0.0000000001
44
0.0000000001
40
0
40
0
40
0
40
0
40
1
40
1
40
1
40
1
41
1
41
1
41
1
41
1
10
140.83770833333338
20
-112.44791666666669
30
0
10
140.52020833333336
20
-112.44791666666669
30
0
10
140.46729166666668
20
-112.26270833333334
30
0
10
140.59958333333333
20
-111.70708333333336
30
0
0
SPLINE
5
412
100
AcDbEntity
8
0
100
AcDbSpline
70
4
71
3
72
8
73
4
74
0
42
0.000000001
43
0.0000000001
44
0.0000000001
40
0
40
0
40
0
40
0
40
1
40
1
40
1
40
1
41
1
41
1
41
1
41
1
10
140.59958333333333
20
-111.70708333333336
30
0
10
141.1022916666667
20
-109.53750000000001
30
0
10
141.1022916666667
20
-109.24645833333335
30
0
10
140.62604166666668
20
-108.74375000000002
30
0
0
SPLINE
5
413
100
AcDbEntity
8
0
100
AcDbSpline
70
4
71
3
72
8
73
4
74
0
42
0.000000001
43
0.0000000001
44
0.0000000001
40
0
40
0
40
0
40
0
40
1
40
1
40
1
40
1
41
1
41
1
41
1
41
1
10
140.62604166666668
20
-108.74375000000002
30
0
10
140.36145833333336
20
-108.45270833333333
30
0
10
139.75291666666669
20
-108.16166666666668
30
0
10
139.25020833333338
20
-108.05583333333334
30
0
0
SPLINE
5
414
100
AcDbEntity
8
0
100
AcDbSpline
70
4
71
3
72
8
73
4
74
0
42
0.000000001
43
0.0000000001
44
0.0000000001
40
0
40
0
40
0
40
0
40
1
40
1
40
1
40
1
41
1
41
1
41
1
41
1
10
139.25020833333338
20
-108.05583333333334
30
0
10
137.87437500000004
20
-107.79125000000001
30
0
10
138.21833333333333
20
-107.12979166666668
30
0
10
139.91166666666669
20
-106.75937500000002
30
0
0
SPLINE
5
415
100
AcDbEntity
8
0
100
AcDbSpline
70
4
71
3
72
8
73
4
74
0
42
0.000000001
43
0.0000000001
44
0.0000000001
40
0
40
0
40
0
40
0
40
1
40
1
40
1
40
1
41
1
41
1
41
1
41
1
10
139.91166666666669
20
-106.75937500000002
30
0
10
141.57854166666669
20
-106.36250000000003
30
0
10
142.26645833333336
20
-105.80687500000002
30
0
10
142.95437500000003
20
-104.24583333333334
30
0
0
SPLINE
5
416
100
AcDbEntity
8
0
100
AcDbSpline
70
4
71
3
72
8
73
4
74
0
42
0.000000001
43
0.0000000001
44
0.0000000001
40
0
40
0
40
0
40
0
40
1
40
1
40
1
40
1
41
1
41
1
41
1
41
1
10
142.95437500000003
20
-104.24583333333334
30
0
10
143.2454166666667
20
-103.58437500000001
30
0
10
143.58937500000002
20
-102.89645833333336
30
0
10
143.72166666666669
20
-102.71125000000001
30
0
0
SPLINE
5
417
100
AcDbEntity
8
0
100
AcDbSpline
70
4
71
3
72
8
73
4
74
0
42
0.000000001
43
0.0000000001
44
0.0000000001
40
0
40
0
40
0
40
0
40
1
40
1
40
1
40
1
41
1
41
1
41
1
41
1
10
143.72166666666669
20
-102.71125000000001
30
0
10
144.06562500000001
20
-102.31437500000001
30
0
10
144.72708333333335
20
-102.28791666666669
30
0
10
144.72708333333335
20
-102.68479166666668
30
0
0
SPLINE
5
418
100
AcDbEntity
8
0
100
AcDbSpline
70
4
71
3
72
8
73
4
74
0
42
0.000000001
43
0.0000000001
44
0.0000000001
40
0
40
0
40
0
40
0
40
1
40
1
40
1
40
1
41
1
41
1
41
1
41
1
10
94.429791666666688
20
-90.487500000000011
30
0
10
92.921666666666681
20
-91.28125
30
0
10
91.228333333333339
20
-93.424375000000026
30
0
10
89.429166666666688
20
-96.83750000000002
30
0
0
SPLINE
5
419
100
AcDbEntity
8
0
100
AcDbSpline
70
4
71
3
72
8
73
4
74
0
42
0.000000001
43
0.0000000001
44
0.0000000001
40
0
40
0
40
0
40
0
40
1
40
1
40
1
40
1
41
1
41
1
41
1
41
1
10
89.429166666666688
20
-96.83750000000002
30
0
10
88.159166666666692
20
-99.271666666666675
30
0
10
87.550625000000025
20
-100.14479166666668
30
0
10
86.756875000000022
20
-100.70041666666668
30
0
0
SPLINE
5
420
100
AcDbEntity
8
0
100
AcDbSpline
70
4
71
3
72
8
73
4
74
0
42
0.000000001
43
0.0000000001
44
0.0000000001
40
0
40
0
40
0
40
0
40
1
40
1
40
1
40
1
41
1
41
1
41
1
41
1
10
86.756875000000022
20
-100.70041666666668
30
0
10
85.645625000000024
20
-101.46770833333335
30
0
10
85.354583333333352
20
-102.39375000000001
30
0
10
86.227708333333354
20
-102.39375000000001
30
0
0
SPLINE
5
421
100
AcDbEntity
8
0
100
AcDbSpline
70
4
71
3
72
8
73
4
74
0
42
0.000000001
43
0.0000000001
44
0.0000000001
40
0
40
0
40
0
40
0
40
1
40
1
40
1
40
1
41
1
41
1
41
1
41
1
10
86.227708333333354
20
-102.39375000000001
30
0
10
86.730416666666684
20
-102.39375000000001
30
0
10
86.703958333333361
20
-102.473125
30
0
10
86.068958333333342
20
-104.03416666666669
30
0
0
SPLINE
5
422
100
AcDbEntity
8
0
100
AcDbSpline
70
4
71
3
72
8
73
4
74
0
42
0.000000001
43
0.0000000001
44
0.0000000001
40
0
40
0
40
0
40
0
40
1
40
1
40
1
40
1
41
1
41
1
41
1
41
1
10
86.068958333333342
20
-104.03416666666669
30
0
10
84.825416666666683
20
-107.12979166666668
30
0
10
82.576458333333349
20
-111.25729166666667
30
0
10
81.650416666666686
20
-112.15687500000001
30
0
0
SPLINE
5
423
100
AcDbEntity
8
0
100
AcDbSpline
70
4
71
3
72
8
73
4
74
0
42
0.000000001
43
0.0000000001
44
0.0000000001
40
0
40
0
40
0
40
0
40
1
40
1
40
1
40
1
41
1
41
1
41
1
41
1
10
81.650416666666686
20
-112.15687500000001
30
0
10
80.830208333333346
20
-112.950625
30
0
10
80.671458333333348
20
-113.00354166666668
30
0
10
79.957083333333344
20
-112.76541666666668
30
0
0
SPLINE
5
424
100
AcDbEntity
8
0
100
AcDbSpline
70
4
71
3
72
8
73
4
74
0
42
0.000000001
43
0.0000000001
44
0.0000000001
40
0
40
0
40
0
40
0
40
1
40
1
40
1
40
1
41
1
41
1
41
1
41
1
10
79.957083333333344
20
-112.76541666666668
30
0
10
78.448958333333337
20
-112.23625000000001
30
0
10
77.364166666666691
20
-113.87666666666668
30
0
10
78.52833333333335
20
-114.90854166666666
30
0
0
SPLINE
5
425
100
AcDbEntity
8
0
100
AcDbSpline
70
4
71
3
72
8
73
4
74
0
42
0.000000001
43
0.0000000001
44
0.0000000001
40
0
40
0
40
0
40
0
40
1
40
1
40
1
40
1
41
1
41
1
41
1
41
1
10
78.52833333333335
20
-114.90854166666666
30
0
10
79.613125000000025
20
-115.91395833333335
30
0
10
81.835625000000007
20
-115.01437500000002
30
0
10
83.872916666666683
20
-112.81833333333336
30
0
0
SPLINE
5
426
100
AcDbEntity
8
0
100
AcDbSpline
70
4
71
3
72
8
73
4
74
0
42
0.000000001
43
0.0000000001
44
0.0000000001
40
0
40
0
40
0
40
0
40
1
40
1
40
1
40
1
41
1
41
1
41
1
41
1
10
83.872916666666683
20
-112.81833333333336
30
0
10
85.116458333333355
20
-111.44250000000001
30
0
10
86.995000000000019
20
-108.00291666666668
30
0
10
88.979375000000005
20
-103.50500000000002
30
0
0
SPLINE
5
427
100
AcDbEntity
8
0
100
AcDbSpline
70
4
71
3
72
8
73
4
74
0
42
0.000000001
43
0.0000000001
44
0.0000000001
40
0
40
0
40
0
40
0
40
1
40
1
40
1
40
1
41
1
41
1
41
1
41
1
10
88.979375000000005
20
-103.50500000000002
30
0
10
89.561458333333348
20
-102.20854166666668
30
0
10
89.85250000000002
20
-101.86458333333334
30
0
10
90.30229166666669
20
-101.86458333333334
30
0
0
SPLINE
5
428
100
AcDbEntity
8
0
100
AcDbSpline
70
4
71
3
72
8
73
4
74
0
42
0.000000001
43
0.0000000001
44
0.0000000001
40
0
40
0
40
0
40
0
40
1
40
1
40
1
40
1
41
1
41
1
41
1
41
1
10
90.30229166666669
20
-101.86458333333334
30
0
10
90.857916666666682
20
-101.86458333333334
30
0
10
95.43520833333335
20
-100.75333333333333
30
0
10
96.387708333333364
20
-100.40937500000001
30
0
0
SPLINE
5
429
100
AcDbEntity
8
0
100
AcDbSpline
70
4
71
3
72
8
73
4
74
0
42
0.000000001
43
0.0000000001
44
0.0000000001
40
0
40
0
40
0
40
0
40
1
40
1
40
1
40
1
41
1
41
1
41
1
41
1
10
96.387708333333364
20
-100.40937500000001
30
0
10
96.731666666666683
20
-100.25062500000001
30
0
10
96.625833333333361
20
-100.64750000000001
30
0
10
95.858541666666696
20
-102.26145833333335
30
0
0
SPLINE
5
430
100
AcDbEntity
8
0
100
AcDbSpline
70
4
71
3
72
8
73
4
74
0
42
0.000000001
43
0.0000000001
44
0.0000000001
40
0
40
0
40
0
40
0
40
1
40
1
40
1
40
1
41
1
41
1
41
1
41
1
10
95.858541666666696
20
-102.26145833333335
30
0
10
94.694375000000008
20
-104.72208333333334
30
0
10
94.40333333333335
20
-106.83875
30
0
10
95.117708333333354
20
-107.42083333333335
30
0
0
SPLINE
5
431
100
AcDbEntity
8
0
100
AcDbSpline
70
4
71
3
72
8
73
4
74
0
42
0.000000001
43
0.0000000001
44
0.0000000001
40
0
40
0
40
0
40
0
40
1
40
1
40
1
40
1
41
1
41
1
41
1
41
1
10
95.117708333333354
20
-107.42083333333335
30
0
10
95.699791666666698
20
-107.89708333333334
30
0
10
97.5254166666667
20
-107.89708333333334
30
0
10
98.742500000000021
20
-107.42083333333335
30
0
0
SPLINE
5
432
100
AcDbEntity
8
0
100
AcDbSpline
70
4
71
3
72
8
73
4
74
0
42
0.000000001
43
0.0000000001
44
0.0000000001
40
0
40
0
40
0
40
0
40
1
40
1
40
1
40
1
41
1
41
1
41
1
41
1
10
98.742500000000021
20
-107.42083333333335
30
0
10
100.09187500000002
20
-106.86520833333334
30
0
10
102.39375000000001
20
-105.35708333333334
30
0
10
103.71666666666668
20
-104.14000000000001
30
0
0
LINE
5
433
100
AcDbEntity
8
0
100
AcDbLine
10
103.71666666666668
20
-104.14000000000001
30
0
11
104.90729166666668
21
-103.05520833333334
31
0
0
LINE
5
434
100
AcDbEntity
8
0
100
AcDbLine
10
104.90729166666668
20
-103.05520833333334
30
0
11
105.03958333333335
21
-104.48395833333335
31
0
0
SPLINE
5
435
100
AcDbEntity
8
0
100
AcDbSpline
70
4
71
3
72
8
73
4
74
0
42
0.000000001
43
0.0000000001
44
0.0000000001
40
0
40
0
40
0
40
0
40
1
40
1
40
1
40
1
41
1
41
1
41
1
41
1
10
105.03958333333335
20
-104.48395833333335
30
0
10
105.22479166666669
20
-106.12437500000001
30
0
10
105.70104166666668
20
-106.62708333333335
30
0
10
107.18270833333335
20
-106.62708333333335
30
0
0
SPLINE
5
436
100
AcDbEntity
8
0
100
AcDbSpline
70
4
71
3
72
8
73
4
74
0
42
0.000000001
43
0.0000000001
44
0.0000000001
40
0
40
0
40
0
40
0
40
1
40
1
40
1
40
1
41
1
41
1
41
1
41
1
10
107.18270833333335
20
-106.62708333333335
30
0
10
108.45270833333336
20
-106.62708333333335
30
0
10
110.93979166666669
20
-105.33062500000001
30
0
10
113.10937500000001
20
-103.53145833333335
30
0
0
SPLINE
5
437
100
AcDbEntity
8
0
100
AcDbSpline
70
4
71
3
72
8
73
4
74
0
42
0.000000001
43
0.0000000001
44
0.0000000001
40
0
40
0
40
0
40
0
40
1
40
1
40
1
40
1
41
1
41
1
41
1
41
1
10
113.10937500000001
20
-103.53145833333335
30
0
10
114.06187500000001
20
-102.76416666666668
30
0
10
114.82916666666668
20
-102.18208333333335
30
0
10
114.82916666666668
20
-102.26145833333335
30
0
0
SPLINE
5
438
100
AcDbEntity
8
0
100
AcDbSpline
70
4
71
3
72
8
73
4
74
0
42
0.000000001
43
0.0000000001
44
0.0000000001
40
0
40
0
40
0
40
0
40
1
40
1
40
1
40
1
41
1
41
1
41
1
41
1
10
114.82916666666668
20
-102.26145833333335
30
0
10
114.82916666666668
20
-102.34083333333334
30
0
10
114.30000000000001
20
-103.47854166666667
30
0
10
113.63854166666668
20
-104.77500000000001
30
0
0
SPLINE
5
439
100
AcDbEntity
8
0
100
AcDbSpline
70
4
71
3
72
8
73
4
74
0
42
0.000000001
43
0.0000000001
44
0.0000000001
40
0
40
0
40
0
40
0
40
1
40
1
40
1
40
1
41
1
41
1
41
1
41
1
10
113.63854166666668
20
-104.77500000000001
30
0
10
112.28916666666669
20
-107.4472916666667
30
0
10
112.18333333333335
20
-108.13520833333335
30
0
10
113.05645833333335
20
-108.45270833333333
30
0
0
SPLINE
5
440
100
AcDbEntity
8
0
100
AcDbSpline
70
4
71
3
72
8
73
4
74
0
42
0.000000001
43
0.0000000001
44
0.0000000001
40
0
40
0
40
0
40
0
40
1
40
1
40
1
40
1
41
1
41
1
41
1
41
1
10
113.05645833333335
20
-108.45270833333333
30
0
10
114.00895833333335
20
-108.823125
30
0
10
114.7497916666667
20
-108.34687500000001
30
0
10
117.66020833333336
20
-105.54229166666667
30
0
0
SPLINE
5
441
100
AcDbEntity
8
0
100
AcDbSpline
70
4
71
3
72
8
73
4
74
0
42
0.000000001
43
0.0000000001
44
0.0000000001
40
0
40
0
40
0
40
0
40
1
40
1
40
1
40
1
41
1
41
1
41
1
41
1
10
117.66020833333336
20
-105.54229166666667
30
0
10
121.47020833333336
20
-101.9175
30
0
10
121.39083333333335
20
-101.94395833333333
30
0
10
121.23208333333336
20
-104.51041666666669
30
0
0
SPLINE
5
442
100
AcDbEntity
8
0
100
AcDbSpline
70
4
71
3
72
8
73
4
74
0
42
0.000000001
43
0.0000000001
44
0.0000000001
40
0
40
0
40
0
40
0
40
1
40
1
40
1
40
1
41
1
41
1
41
1
41
1
10
121.23208333333336
20
-104.51041666666669
30
0
10
121.12625000000001
20
-106.54770833333333
30
0
10
121.12625000000001
20
-106.62708333333335
30
0
10
121.92000000000002
20
-107.42083333333335
30
0
0
SPLINE
5
443
100
AcDbEntity
8
0
100
AcDbSpline
70
4
71
3
72
8
73
4
74
0
42
0.000000001
43
0.0000000001
44
0.0000000001
40
0
40
0
40
0
40
0
40
1
40
1
40
1
40
1
41
1
41
1
41
1
41
1
10
121.92000000000002
20
-107.42083333333335
30
0
10
122.63437500000002
20
-108.13520833333335
30
0
10
122.89895833333334
20
-108.21458333333334
30
0
10
124.30125000000002
20
-108.21458333333334
30
0
0
SPLINE
5
444
100
AcDbEntity
8
0
100
AcDbSpline
70
4
71
3
72
8
73
4
74
0
42
0.000000001
43
0.0000000001
44
0.0000000001
40
0
40
0
40
0
40
0
40
1
40
1
40
1
40
1
41
1
41
1
41
1
41
1
10
124.30125000000002
20
-108.21458333333334
30
0
10
126.12687500000004
20
-108.21458333333334
30
0
10
127.2910416666667
20
-107.87062500000002
30
0
10
128.64041666666671
20
-106.91812500000003
30
0
0
SPLINE
5
445
100
AcDbEntity
8
0
100
AcDbSpline
70
4
71
3
72
8
73
4
74
0
42
0.000000001
43
0.0000000001
44
0.0000000001
40
0
40
0
40
0
40
0
40
1
40
1
40
1
40
1
41
1
41
1
41
1
41
1
10
128.64041666666671
20
-106.91812500000003
30
0
10
129.61937500000002
20
-106.20375000000001
30
0
10
130.62479166666668
20
-104.854375
30
0
10
130.33375000000004
20
-104.58979166666667
30
0
0
SPLINE
5
446
100
AcDbEntity
8
0
100
AcDbSpline
70
4
71
3
72
8
73
4
74
0
42
0.000000001
43
0.0000000001
44
0.0000000001
40
0
40
0
40
0
40
0
40
1
40
1
40
1
40
1
41
1
41
1
41
1
41
1
10
130.33375000000004
20
-104.58979166666667
30
0
10
130.25437500000004
20
-104.51041666666669
30
0
10
129.3547916666667
20
-104.80145833333336
30
0
10
128.37583333333336
20
-105.25125000000001
30
0
0
SPLINE
5
447
100
AcDbEntity
8
0
100
AcDbSpline
70
4
71
3
72
8
73
4
74
0
42
0.000000001
43
0.0000000001
44
0.0000000001
40
0
40
0
40
0
40
0
40
1
40
1
40
1
40
1
41
1
41
1
41
1
41
1
10
128.37583333333336
20
-105.25125000000001
30
0
10
126.41791666666668
20
-106.17729166666666
30
0
10
125.28020833333335
20
-106.30958333333334
30
0
10
124.48645833333336
20
-105.72750000000002
30
0
0
SPLINE
5
448
100
AcDbEntity
8
0
100
AcDbSpline
70
4
71
3
72
8
73
4
74
0
42
0.000000001
43
0.0000000001
44
0.0000000001
40
0
40
0
40
0
40
0
40
1
40
1
40
1
40
1
41
1
41
1
41
1
41
1
10
124.48645833333336
20
-105.72750000000002
30
0
10
123.74562500000003
20
-105.19833333333337
30
0
10
123.85145833333337
20
-103.18750000000001
30
0
10
124.75104166666668
20
-100.99145833333336
30
0
0
SPLINE
5
449
100
AcDbEntity
8
0
100
AcDbSpline
70
4
71
3
72
8
73
4
74
0
42
0.000000001
43
0.0000000001
44
0.0000000001
40
0
40
0
40
0
40
0
40
1
40
1
40
1
40
1
41
1
41
1
41
1
41
1
10
124.75104166666668
20
-100.99145833333336
30
0
10
125.78291666666669
20
-98.372083333333336
30
0
10
125.3860416666667
20
-97.895833333333343
30
0
10
123.05770833333335
20
-98.980625000000018
30
0
0
SPLINE
5
450
100
AcDbEntity
8
0
100
AcDbSpline
70
4
71
3
72
8
73
4
74
0
42
0.000000001
43
0.0000000001
44
0.0000000001
40
0
40
0
40
0
40
0
40
1
40
1
40
1
40
1
41
1
41
1
41
1
41
1
10
123.05770833333335
20
-98.980625000000018
30
0
10
121.78770833333334
20
-99.53625000000001
30
0
10
120.4647916666667
20
-100.56812500000001
30
0
10
117.97770833333337
20
-102.87
30
0
0
SPLINE
5
451
100
AcDbEntity
8
0
100
AcDbSpline
70
4
71
3
72
8
73
4
74
0
42
0.000000001
43
0.0000000001
44
0.0000000001
40
0
40
0
40
0
40
0
40
1
40
1
40
1
40
1
41
1
41
1
41
1
41
1
10
117.97770833333337
20
-102.87
30
0
10
117.10458333333335
20
-103.66374999999999
30
0
10
116.41666666666667
20
-104.219375
30
0
10
116.41666666666667
20
-104.11354166666668
30
0
0
SPLINE
5
452
100
AcDbEntity
8
0
100
AcDbSpline
70
4
71
3
72
8
73
4
74
0
42
0.000000001
43
0.0000000001
44
0.0000000001
40
0
40
0
40
0
40
0
40
1
40
1
40
1
40
1
41
1
41
1
41
1
41
1
10
116.41666666666667
20
-104.11354166666668
30
0
10
116.41666666666667
20
-104.03416666666669
30
0
10
117.13104166666669
20
-102.68479166666668
30
0
10
117.97770833333337
20
-101.12375000000002
30
0
0
SPLINE
5
453
100
AcDbEntity
8
0
100
AcDbSpline
70
4
71
3
72
8
73
4
74
0
42
0.000000001
43
0.0000000001
44
0.0000000001
40
0
40
0
40
0
40
0
40
1
40
1
40
1
40
1
41
1
41
1
41
1
41
1
10
117.97770833333337
20
-101.12375000000002
30
0
10
119.98854166666668
20
-97.5254166666667
30
0
10
120.12083333333335
20
-96.83750000000002
30
0
10
118.82437500000002
20
-96.83750000000002
30
0
0
SPLINE
5
454
100
AcDbEntity
8
0
100
AcDbSpline
70
4
71
3
72
8
73
4
74
0
42
0.000000001
43
0.0000000001
44
0.0000000001
40
0
40
0
40
0
40
0
40
1
40
1
40
1
40
1
41
1
41
1
41
1
41
1
10
118.82437500000002
20
-96.83750000000002
30
0
10
118.21583333333335
20
-96.83750000000002
30
0
10
117.66020833333336
20
-97.207916666666677
30
0
10
116.36375000000002
20
-98.477916666666673
30
0
0
SPLINE
5
455
100
AcDbEntity
8
0
100
AcDbSpline
70
4
71
3
72
8
73
4
74
0
42
0.000000001
43
0.0000000001
44
0.0000000001
40
0
40
0
40
0
40
0
40
1
40
1
40
1
40
1
41
1
41
1
41
1
41
1
10
116.36375000000002
20
-98.477916666666673
30
0
10
112.73895833333336
20
-102.02333333333335
30
0
10
109.11416666666669
20
-104.48395833333335
30
0
10
108.08229166666669
20
-104.08708333333335
30
0
0
SPLINE
5
456
100
AcDbEntity
8
0
100
AcDbSpline
70
4
71
3
72
8
73
4
74
0
42
0.000000001
43
0.0000000001
44
0.0000000001
40
0
40
0
40
0
40
0
40
1
40
1
40
1
40
1
41
1
41
1
41
1
41
1
10
108.08229166666669
20
-104.08708333333335
30
0
10
107.36791666666669
20
-103.79604166666667
30
0
10
107.73833333333336
20
-102.18208333333335
30
0
10
109.16708333333335
20
-99.218750000000014
30
0
0
SPLINE
5
457
100
AcDbEntity
8
0
100
AcDbSpline
70
4
71
3
72
8
73
4
74
0
42
0.000000001
43
0.0000000001
44
0.0000000001
40
0
40
0
40
0
40
0
40
1
40
1
40
1
40
1
41
1
41
1
41
1
41
1
10
109.16708333333335
20
-99.218750000000014
30
0
10
110.43708333333336
20
-96.546458333333334
30
0
10
110.51645833333336
20
-95.779166666666683
30
0
10
109.51104166666669
20
-95.779166666666683
30
0
0
SPLINE
5
458
100
AcDbEntity
8
0
100
AcDbSpline
70
4
71
3
72
8
73
4
74
0
42
0.000000001
43
0.0000000001
44
0.0000000001
40
0
40
0
40
0
40
0
40
1
40
1
40
1
40
1
41
1
41
1
41
1
41
1
10
109.51104166666669
20
-95.779166666666683
30
0
10
108.87604166666668
20
-95.779166666666683
30
0
10
107.89708333333336
20
-96.78458333333333
30
0
10
106.15083333333337
20
-99.218750000000014
30
0
0
SPLINE
5
459
100
AcDbEntity
8
0
100
AcDbSpline
70
4
71
3
72
8
73
4
74
0
42
0.000000001
43
0.0000000001
44
0.0000000001
40
0
40
0
40
0
40
0
40
1
40
1
40
1
40
1
41
1
41
1
41
1
41
1
10
106.15083333333337
20
-99.218750000000014
30
0
10
103.6372916666667
20
-102.68479166666668
30
0
10
98.292708333333337
20
-106.30958333333334
30
0
10
97.498958333333348
20
-105.03958333333335
30
0
0
SPLINE
5
460
100
AcDbEntity
8
0
100
AcDbSpline
70
4
71
3
72
8
73
4
74
0
42
0.000000001
43
0.0000000001
44
0.0000000001
40
0
40
0
40
0
40
0
40
1
40
1
40
1
40
1
41
1
41
1
41
1
41
1
10
97.498958333333348
20
-105.03958333333335
30
0
10
97.28729166666669
20
-104.69562500000002
30
0
10
98.160416666666691
20
-102.73770833333333
30
0
10
99.509791666666686
20
-100.48875000000001
30
0
0
SPLINE
5
461
100
AcDbEntity
8
0
100
AcDbSpline
70
4
71
3
72
8
73
4
74
0
42
0.000000001
43
0.0000000001
44
0.0000000001
40
0
40
0
40
0
40
0
40
1
40
1
40
1
40
1
41
1
41
1
41
1
41
1
10
99.509791666666686
20
-100.48875000000001
30
0
10
100.09187500000002
20
-99.509791666666686
30
0
10
100.54166666666669
20
-98.504374999999996
30
0
10
100.48875000000002
20
-98.239791666666676
30
0
0
SPLINE
5
462
100
AcDbEntity
8
0
100
AcDbSpline
70
4
71
3
72
8
73
4
74
0
42
0.000000001
43
0.0000000001
44
0.0000000001
40
0
40
0
40
0
40
0
40
1
40
1
40
1
40
1
41
1
41
1
41
1
41
1
10
100.48875000000002
20
-98.239791666666676
30
0
10
100.38291666666669
20
-97.604791666666685
30
0
10
99.536250000000024
20
-97.498958333333348
30
0
10
98.557291666666686
20
-97.975208333333342
30
0
0
SPLINE
5
463
100
AcDbEntity
8
0
100
AcDbSpline
70
4
71
3
72
8
73
4
74
0
42
0.000000001
43
0.0000000001
44
0.0000000001
40
0
40
0
40
0
40
0
40
1
40
1
40
1
40
1
41
1
41
1
41
1
41
1
10
98.557291666666686
20
-97.975208333333342
30
0
10
97.260833333333352
20
-98.663125000000008
30
0
10
90.752083333333346
20
-99.800833333333344
30
0
10
90.752083333333346
20
-99.351041666666688
30
0
0
SPLINE
5
464
100
AcDbEntity
8
0
100
AcDbSpline
70
4
71
3
72
8
73
4
74
0
42
0.000000001
43
0.0000000001
44
0.0000000001
40
0
40
0
40
0
40
0
40
1
40
1
40
1
40
1
41
1
41
1
41
1
41
1
10
90.752083333333346
20
-99.351041666666688
30
0
10
90.752083333333346
20
-98.980625000000018
30
0
10
92.498333333333349
20
-95.752708333333345
30
0
10
93.450833333333364
20
-94.297499999999999
30
0
0
SPLINE
5
465
100
AcDbEntity
8
0
100
AcDbSpline
70
4
71
3
72
8
73
4
74
0
42
0.000000001
43
0.0000000001
44
0.0000000001
40
0
40
0
40
0
40
0
40
1
40
1
40
1
40
1
41
1
41
1
41
1
41
1
10
93.450833333333364
20
-94.297499999999999
30
0
10
95.408750000000012
20
-91.360624999999999
30
0
10
96.440625000000026
20
-91.545833333333348
30
0
10
95.038333333333355
20
-94.588541666666686
30
0
0
SPLINE
5
466
100
AcDbEntity
8
0
100
AcDbSpline
70
4
71
3
72
8
73
4
74
0
42
0.000000001
43
0.0000000001
44
0.0000000001
40
0
40
0
40
0
40
0
40
1
40
1
40
1
40
1
41
1
41
1
41
1
41
1
10
95.038333333333355
20
-94.588541666666686
30
0
10
94.588541666666686
20
-95.514583333333348
30
0
10
94.323958333333337
20
-96.361250000000013
30
0
10
94.456250000000011
20
-96.440625000000026
30
0
0
SPLINE
5
467
100
AcDbEntity
8
0
100
AcDbSpline
70
4
71
3
72
8
73
4
74
0
42
0.000000001
43
0.0000000001
44
0.0000000001
40
0
40
0
40
0
40
0
40
1
40
1
40
1
40
1
41
1
41
1
41
1
41
1
10
94.456250000000011
20
-96.440625000000026
30
0
10
95.329375000000013
20
-96.996250000000032
30
0
10
98.160416666666691
20
-93.212708333333325
30
0
10
98.160416666666691
20
-91.519375000000011
30
0
0
SPLINE
5
468
100
AcDbEntity
8
0
100
AcDbSpline
70
4
71
3
72
8
73
4
74
0
42
0.000000001
43
0.0000000001
44
0.0000000001
40
0
40
0
40
0
40
0
40
1
40
1
40
1
40
1
41
1
41
1
41
1
41
1
10
98.160416666666691
20
-91.519375000000011
30
0
10
98.160416666666691
20
-90.778541666666669
30
0
10
98.028125000000017
20
-90.43458333333335
30
0
10
97.657708333333346
20
-90.222916666666677
30
0
0
SPLINE
5
469
100
AcDbEntity
8
0
100
AcDbSpline
70
4
71
3
72
8
73
4
74
0
42
0.000000001
43
0.0000000001
44
0.0000000001
40
0
40
0
40
0
40
0
40
1
40
1
40
1
40
1
41
1
41
1
41
1
41
1
10
97.657708333333346
20
-90.222916666666677
30
0
10
96.863958333333358
20
-89.826041666666683
30
0
10
95.488125000000025
20
-89.931875000000019
30
0
10
94.429791666666688
20
-90.487500000000011
30
0
0
LWPOLYLINE
5
470
100
AcDbEntity
8
0
100
AcDbPolyline
90
4
70
1
43
0.0
10
0
20
0
10
221.01584116166688
20
0
10
221.01584116166688
20
-135.24623263377603
10
0
20
-135.24623263377603
0
ENDSEC
0
SECTION
2
OBJECTS
0
DICTIONARY
5
C
100
AcDbDictionary
3
ACAD_GROUP
350
D
3
ACAD_MLINESTYLE
350
17
0
DICTIONARY
5
D
100
AcDbDictionary
0
DICTIONARY
5
1A
330
C
100
AcDbDictionary
0
DICTIONARY
5
17
100
AcDbDictionary
0
ENDSEC
0
EOF
