                                                                        S      1
,,19Hseal wall holder v1,19Hseal wall holder v1,7Hunknown,7Hunknown,32, G      1
38,7,99,15,,1.,2,2HMM,1,0.08,15H20250912.001413,0.01,10000.,7Hunknown,7HG      2
unknown,11,0,15H20250907.222224;                                        G      3
     186       1                                                00000000D      1
     186            -203       1       0                               0D      2
     514       2                                                00010000D      3
     514                       2       1                               0D      4
     510       4                                                00010000D      5
     510            -203       1       1                               0D      6
     510       5                                                00010000D      7
     510            -203       1       1                               0D      8
     510       6                                                00010000D      9
     510            -203       1       1                               0D     10
     510       7                                                00010000D     11
     510            -203       1       1                               0D     12
     510       8                                                00010000D     13
     510            -203       1       1                               0D     14
     510       9                                                00010000D     15
     510            -203       1       1                               0D     16
     510      10                                                00010000D     17
     510            -203       1       1                               0D     18
     510      11                                                00010000D     19
     510            -203       1       1                               0D     20
     510      12                                                00010000D     21
     510            -203       1       1                               0D     22
     510      13                                                00010000D     23
     510            -203       1       1                               0D     24
     510      14                                                00010000D     25
     510            -203       1       1                               0D     26
     510      15                                                00010000D     27
     510            -203       1       1                               0D     28
     510      16                                                00010000D     29
     510            -203       1       1                               0D     30
     510      17                                                00010000D     31
     510            -203       1       1                               0D     32
     510      18                                                00010000D     33
     510            -203       1       1                               0D     34
     510      19                                                00010000D     35
     510            -203       1       1                               0D     36
     510      20                                                00010000D     37
     510            -203       1       1                               0D     38
     508      21                                                00010000D     39
     508                       1       1                               0D     40
     508      22                                                00010000D     41
     508                       1       1                               0D     42
     508      23                                                00010000D     43
     508                       1       1                               0D     44
     508      24                                                00010000D     45
     508                       3       1                               0D     46
     508      27                                                00010000D     47
     508                       1       1                               0D     48
     508      28                                                00010000D     49
     508                       1       1                               0D     50
     508      29                                                00010000D     51
     508                       1       1                               0D     52
     508      30                                                00010000D     53
     508                       1       1                               0D     54
     508      31                                                00010000D     55
     508                       2       1                               0D     56
     508      33                                                00010000D     57
     508                       1       1                               0D     58
     508      34                                                00010000D     59
     508                       1       1                               0D     60
     508      35                                                00010000D     61
     508                       1       1                               0D     62
     508      36                                                00010000D     63
     508                       2       1                               0D     64
     508      38                                                00010000D     65
     508                       2       1                               0D     66
     508      40                                                00010000D     67
     508                       1       1                               0D     68
     508      41                                                00010000D     69
     508                       2       1                               0D     70
     508      43                                                00010000D     71
     508                       1       1                               0D     72
     508      44                                                00010000D     73
     508                       1       1                               0D     74
     508      45                                                00010000D     75
     508                       2       1                               0D     76
     126      47                                                00010000D     77
     126       0              15       0                               0D     78
     126      62                                                00010000D     79
     126       0               5       0                               0D     80
     126      67                                                00010000D     81
     126       0              15       0                               0D     82
     126      82                                                00010000D     83
     126       0               6       0                               0D     84
     126      88                                                00010000D     85
     126       0               7       0                               0D     86
     126      95                                                00010000D     87
     126       0               6       0                               0D     88
     126     101                                                00010000D     89
     126       0               5       0                               0D     90
     126     106                                                00010000D     91
     126       0               3       0                               0D     92
     126     109                                                00010000D     93
     126       0               2       0                               0D     94
     126     111                                                00010000D     95
     126       0               3       0                               0D     96
     126     114                                                00010000D     97
     126       0              13       0                               0D     98
     126     127                                                00010000D     99
     126       0               3       0                               0D    100
     126     130                                                00010000D    101
     126       0               3       0                               0D    102
     126     133                                                00010000D    103
     126       0               3       0                               0D    104
     126     136                                                00010000D    105
     126       0              13       0                               0D    106
     126     149                                                00010000D    107
     126       0               7       0                               0D    108
     126     156                                                00010000D    109
     126       0               3       0                               0D    110
     126     159                                                00010000D    111
     126       0               6       0                               0D    112
     126     165                                                00010000D    113
     126       0               6       0                               0D    114
     126     171                                                00010000D    115
     126       0               5       0                               0D    116
     126     176                                                00010000D    117
     126       0               5       0                               0D    118
     126     181                                                00010000D    119
     126       0               3       0                               0D    120
     126     184                                                00010000D    121
     126       0              14       0                               0D    122
     126     198                                                00010000D    123
     126       0               6       0                               0D    124
     126     204                                                00010000D    125
     126       0               2       0                               0D    126
     126     206                                                00010000D    127
     126       0               6       0                               0D    128
     126     212                                                00010000D    129
     126       0               4       0                               0D    130
     126     216                                                00010000D    131
     126       0               6       0                               0D    132
     126     222                                                00010000D    133
     126       0               4       0                               0D    134
     126     226                                                00010000D    135
     126       0               3       0                               0D    136
     126     229                                                00010000D    137
     126       0               5       0                               0D    138
     126     234                                                00010000D    139
     126       0               2       0                               0D    140
     126     236                                                00010000D    141
     126       0               4       0                               0D    142
     126     240                                                00010000D    143
     126       0               3       0                               0D    144
     126     243                                                00010000D    145
     126       0               3       0                               0D    146
     126     246                                                00010000D    147
     126       0               4       0                               0D    148
     126     250                                                00010000D    149
     126       0               6       0                               0D    150
     126     256                                                00010000D    151
     126       0               4       0                               0D    152
     126     260                                                00010000D    153
     126       0               3       0                               0D    154
     126     263                                                00010000D    155
     126       0               2       0                               0D    156
     126     265                                                00010000D    157
     126       0               3       0                               0D    158
     126     268                                                00010000D    159
     126       0               3       0                               0D    160
     126     271                                                00010000D    161
     126       0              13       0                               0D    162
     128     284                                                00010000D    163
     128       0    -203      28       0                               0D    164
     128     312                                                00010000D    165
     128       0    -203      17       0                               0D    166
     128     329                                                00010000D    167
     128       0    -203       4       0                               0D    168
     128     333                                                00010000D    169
     128       0    -203       7       0                               0D    170
     128     340                                                00010000D    171
     128       0    -203      17       0                               0D    172
     128     357                                                00010000D    173
     128       0    -203      24       0                               0D    174
     128     381                                                00010000D    175
     128       0    -203       9       0                               0D    176
     128     390                                                00010000D    177
     128       0    -203       9       0                               0D    178
     128     399                                                00010000D    179
     128       0    -203       6       0                               0D    180
     128     405                                                00010000D    181
     128       0    -203       7       0                               0D    182
     128     412                                                00010000D    183
     128       0    -203       9       0                               0D    184
     128     421                                                00010000D    185
     128       0    -203       6       0                               0D    186
     128     427                                                00010000D    187
     128       0    -203       6       0                               0D    188
     128     433                                                00010000D    189
     128       0    -203       6       0                               0D    190
     128     439                                                00010000D    191
     128       0    -203       6       0                               0D    192
     128     445                                                00010000D    193
     128       0    -203      22       0                               0D    194
     128     467                                                00010000D    195
     128       0    -203       7       0                               0D    196
     502     474                                                00010000D    197
     502                      19       1                               0D    198
     504     493                                                00010001D    199
     504                      12       1                               0D    200
     406     505                                                00000000D    201
     406                       1      15                               0D    202
     314     506                                                00000200D    203
     314                       2       0                               0D    204
186,3,1,0,0,1,201;                                                     1P      1
514,17,5,1,7,1,9,1,11,1,13,1,15,1,17,1,19,1,21,1,23,1,25,1,27,1,       3P      2
29,1,31,1,33,1,35,1,37,1;                                              3P      3
510,163,1,1,39;                                                        5P      4
510,165,1,1,41;                                                        7P      5
510,167,1,1,43;                                                        9P      6
510,169,1,1,45;                                                       11P      7
510,171,1,1,47;                                                       13P      8
510,173,1,1,49;                                                       15P      9
510,175,1,1,51;                                                       17P     10
510,177,1,1,53;                                                       19P     11
510,179,2,1,55,57;                                                    21P     12
510,181,1,1,59;                                                       23P     13
510,183,1,1,61;                                                       25P     14
510,185,1,1,63;                                                       27P     15
510,187,2,1,65,67;                                                    29P     16
510,189,1,1,69;                                                       31P     17
510,191,1,1,71;                                                       33P     18
510,193,1,1,73;                                                       35P     19
510,195,1,1,75;                                                       37P     20
508,4,0,199,1,0,0,0,199,2,1,0,0,199,3,0,0,0,199,2,0,0;                39P     21
508,4,0,199,4,1,0,0,199,5,1,0,0,199,6,1,0,0,199,7,1,0;                41P     22
508,4,0,199,7,0,0,0,199,8,0,0,0,199,9,0,0,0,199,10,0,0;               43P     23
508,10,0,199,6,0,0,0,199,11,0,0,0,199,12,1,0,0,199,13,1,0,0,199,      45P     24
14,1,0,0,199,15,1,0,0,199,16,0,0,0,199,17,1,0,0,199,18,0,0,0,         45P     25
199,8,1,0;                                                            45P     26
508,4,0,199,19,1,0,0,199,20,1,0,0,199,16,1,0,0,199,21,1,0;            47P     27
508,4,0,199,21,0,0,0,199,15,0,0,0,199,22,1,0,0,199,23,0,0;            49P     28
508,4,0,199,24,1,0,0,199,9,1,0,0,199,18,1,0,0,199,25,1,0;             51P     29
508,4,0,199,26,1,0,0,199,27,1,0,0,199,28,1,0,0,199,29,1,0;            53P     30
508,6,0,199,28,0,0,0,199,30,0,0,0,199,31,0,0,0,199,32,0,0,0,199,      55P     31
33,0,0,0,199,34,1,0;                                                  55P     32
508,1,0,199,1,1,0;                                                    57P     33
508,4,0,199,27,0,0,0,199,35,1,0,0,199,36,0,0,0,199,30,1,0;            59P     34
508,4,0,199,31,1,0,0,199,36,1,0,0,199,37,1,0,0,199,38,1,0;            61P     35
508,5,0,199,38,0,0,0,199,39,0,0,0,199,12,0,0,0,199,40,1,0,0,199,      63P     36
32,1,0;                                                               63P     37
508,6,0,199,26,0,0,0,199,41,0,0,0,199,13,0,0,0,199,39,1,0,0,199,      65P     38
37,0,0,0,199,35,0,0;                                                  65P     39
508,1,0,199,3,1,0;                                                    67P     40
508,5,0,199,29,0,0,0,199,34,0,0,0,199,22,0,0,0,199,14,0,0,0,199,      69P     41
41,1,0;                                                               69P     42
508,4,0,199,20,0,0,0,199,42,0,0,0,199,25,0,0,0,199,17,0,0;            71P     43
508,4,0,199,5,0,0,0,199,43,0,0,0,199,40,0,0,0,199,11,1,0;             73P     44
508,8,0,199,4,0,0,0,199,10,1,0,0,199,24,0,0,0,199,42,1,0,0,199,       75P     45
19,0,0,0,199,23,1,0,0,199,33,1,0,0,199,43,1,0;                        75P     46
126,8,2,0,1,0,0,-3.14159265358979,-3.14159265358979,                  77P     47
-3.14159265358979,-1.5707963267949,-1.5707963267949,0.,0.,            77P     48
1.5707963267949,1.5707963267949,3.14159265358979,                     77P     49
3.14159265358979,3.14159265358979,1.,0.707106781186549,1.,            77P     50
0.707106781186549,1.,0.707106781186549,1.,0.707106781186549,1.,       77P     51
-27.0964169819206,126.170823832841,24.4508182954705,                  77P     52
-27.0964169819206,126.170823832841,25.9508182954705,                  77P     53
-25.7482259124719,126.828380553025,25.9508182954705,                  77P     54
-24.4000348430231,127.485937273208,25.9508182954705,                  77P     55
-24.4000348430231,127.485937273208,24.4508182954705,                  77P     56
-24.4000348430231,127.485937273208,22.9508182954705,                  77P     57
-25.7482259124719,126.828380553025,22.9508182954705,                  77P     58
-27.0964169819206,126.170823832841,22.9508182954705,                  77P     59
-27.0964169819206,126.170823832841,24.4508182954705,                  77P     60
-3.14159265358979,3.14159265358979,0.,0.,0.;                          77P     61
126,1,1,0,0,1,0,-1.61907524424502D-14,-1.61907524424502D-14,          79P     62
2.66666666666663,2.66666666666663,1.,1.,-27.0964169819206,            79P     63
126.170823832841,24.4508182954705,-28.8499015690769,                  79P     64
129.766000018038,24.4508182954705,-1.61907524424502D-14,              79P     65
2.66666666666663,0.,0.,0.;                                            79P     66
126,8,2,0,1,0,0,-3.14159265358979,-3.14159265358979,                  81P     67
-3.14159265358979,-1.5707963267949,-1.5707963267949,0.,0.,            81P     68
1.5707963267949,1.5707963267949,3.14159265358979,                     81P     69
3.14159265358979,3.14159265358979,1.,0.707106781186549,1.,            81P     70
0.707106781186549,1.,0.707106781186549,1.,0.707106781186549,1.,       81P     71
-28.8499015690769,129.766000018038,24.4508182954705,                  81P     72
-28.8499015690769,129.766000018038,22.9508182954705,                  81P     73
-27.5017104996281,130.423556738221,22.9508182954705,                  81P     74
-26.1535194301794,131.081113458405,22.9508182954705,                  81P     75
-26.1535194301794,131.081113458405,24.4508182954705,                  81P     76
-26.1535194301794,131.081113458405,25.9508182954705,                  81P     77
-27.5017104996281,130.423556738221,25.9508182954705,                  81P     78
-28.8499015690769,129.766000018038,25.9508182954705,                  81P     79
-28.8499015690769,129.766000018038,24.4508182954705,                  81P     80
-3.14159265358979,3.14159265358979,0.,0.,0.;                          81P     81
126,3,3,0,0,1,0,0.,0.,0.,0.,4.95514504738133,4.95514504738133,        83P     82
4.95514504738133,4.95514504738133,1.,1.,1.,1.,-50.,                   83P     83
26.2004920727313,3.99999999999991,-50.,42.707956562543,               83P     84
3.99999999999991,-47.203111363873,59.2119438053796,                   83P     85
3.99999999999991,-41.7643524276025,74.7977156860256,                  83P     86
3.99999999999991,0.,4.95514504738133,0.,0.,0.;                        83P     87
126,3,3,0,0,1,0,-0.399999999999999,-0.399999999999999,                85P     88
-0.399999999999999,-0.399999999999999,0.,0.,0.,0.,1.,1.,1.,1.,        85P     89
-41.7643524276025,74.7977156860256,3.99999999999999,                  85P     90
-41.7643524276025,74.7977156860256,2.66666666666666,                  85P     91
-41.7643524276025,74.7977156860256,1.33333333333333,                  85P     92
-41.7643524276025,74.7977156860256,-4.16333634234434D-16,             85P     93
-0.399999999999999,0.,0.,0.,0.;                                       85P     94
126,3,3,0,0,1,0,0.,0.,0.,0.,4.95514504738122,4.95514504738122,        87P     95
4.95514504738122,4.95514504738122,1.,1.,1.,1.,-41.7643524276025,      87P     96
74.7977156860256,-4.16333634234434D-16,-47.203111363873,              87P     97
59.2119438053797,-4.16333634234434D-16,-50.,42.7079565625431,         87P     98
-4.16333634234434D-16,-50.,26.2004920727314,                          87P     99
-4.16333634234434D-16,0.,4.95514504738122,0.,0.,0.;                   87P    100
126,3,3,0,0,1,0,0.,0.,0.,0.,0.399999999999999,0.399999999999999,      89P    101
0.399999999999999,0.399999999999999,1.,1.,1.,1.,-50.,                 89P    102
26.2004920727314,-4.16333634234434D-16,-50.,26.2004920727314,         89P    103
1.33333333333333,-50.,26.2004920727313,2.66666666666666,-50.,         89P    104
26.2004920727313,3.99999999999999,0.,0.399999999999999,0.,0.,0.;      89P    105
126,1,1,0,0,1,0,2.5,2.5,2.62004920727308,2.62004920727308,1.,1.,      91P    106
-50.,25.,0.,-50.,26.2004920727308,0.,2.5,2.62004920727308,0.,0.,      91P    107
0.;                                                                   91P    108
126,1,1,0,0,1,0,-0.4,-0.4,0.,0.,1.,1.,-50.,25.,4.,-50.,25.,0.,        93P    109
-0.4,0.,0.,0.,0.;                                                     93P    110
126,1,1,0,0,1,0,-2.62004920727313,-2.62004920727313,-2.5,-2.5,        95P    111
1.,1.,-50.,26.2004920727313,4.,-50.,25.,4.,-2.62004920727313,         95P    112
-2.5,0.,0.,0.;                                                        95P    113
126,12,5,0,0,0,0,0.,0.,0.,0.,0.,0.,0.1,0.2,0.3,0.4,0.5,0.6,0.7,       97P    114
0.742919195214749,0.742919195214749,0.742919195214749,                97P    115
0.742919195214749,0.742919195214749,0.742919195214749,1.,1.,1.,       97P    116
1.,1.,1.,1.,1.,1.,1.,1.,1.,1.,-50.,115.,0.,-49.1286088602963,         97P    117
114.116165456528,0.,-47.4650587115035,112.324295003222,0.,            97P    118
-45.2074379887642,109.563882747413,0.,-42.6804371241182,              97P    119
105.735752356984,0.,-40.3786527705437,100.688829833203,0.,            97P    120
-38.9991710397384,95.360190996897,0.,-38.5993144414107,               97P    121
89.7323267510932,0.,-39.1120323023427,84.482146904539,0.,             97P    122
-40.0444829681086,80.2537601385759,0.,-40.9540310028663,              97P    123
77.1823689558331,0.,-41.5715691632194,75.3501718651449,0.,            97P    124
-41.7643524276025,74.7977156860257,0.,0.,0.742919195214749,0.,        97P    125
0.,0.;                                                                97P    126
126,1,1,0,0,1,0,0.,0.,0.399999999999999,0.399999999999999,1.,1.,      99P    127
-50.,115.,0.,-51.7534845871563,118.595176185197,0.,0.,                99P    128
0.399999999999999,0.,0.,0.;                                           99P    129
126,1,1,0,0,1,0,0.,0.,5.56300970237594,5.56300970237594,1.,1.,       101P    130
-51.7534845871563,118.595176185197,0.,-1.75348458715629,             101P    131
142.98180561349,0.,0.,5.56300970237594,0.,0.,0.;                     101P    132
126,1,1,0,0,1,0,0.,0.,0.399999999999995,0.399999999999995,1.,1.,     103P    133
-1.75348458715628,142.98180561349,0.,-5.55111512312578D-15,          103P    134
139.386629428293,0.,0.,0.399999999999995,0.,0.,0.;                   103P    135
126,12,5,0,0,0,0,0.,0.,0.,0.,0.,0.,0.1,0.2,0.3,0.4,0.5,0.6,0.7,      105P    136
0.773438173966488,0.773438173966488,0.773438173966488,               105P    137
0.773438173966488,0.773438173966488,0.773438173966488,1.,1.,1.,      105P    138
1.,1.,1.,1.,1.,1.,1.,1.,1.,1.,-5.49907341884648D-15,                 105P    139
139.386629428293,0.,-0.836109117665963,137.492076563742,0.,          105P    140
-2.43764673226239,133.724681178593,0.,-4.62792510953697,             105P    141
128.138714888499,0.,-7.11714423712514,120.823193011665,0.,           105P    142
-9.45925357032176,111.915124966574,0.,-10.9558988556521,             105P    143
103.266750669014,0.,-11.5256752769514,94.9030745196089,0.,           105P    144
-11.1267277116406,87.2719644688961,0.,-10.1257451228888,             105P    145
81.4635088041383,0.,-9.04562286737086,77.3170943625745,0.,           105P    146
-8.22661772817442,74.7282074640131,0.,-7.85623947556492,             105P    147
73.6392523832953,0.,0.,0.773438173966488,0.,0.,0.;                   105P    148
126,3,3,0,0,1,0,0.,0.,0.,0.,4.83846965387962,4.83846965387962,       107P    149
4.83846965387962,4.83846965387962,1.,1.,1.,1.,                       107P    150
-1.66533453693773D-14,26.1432510085035,4.16333634234434D-16,         107P    151
-1.70234197109191D-14,42.2624647242337,4.16333634234434D-16,         107P    152
-2.66574322605385,58.378590553047,4.16333634234434D-16,              107P    153
-7.85623947556493,73.6392523832953,4.16333634234434D-16,0.,          107P    154
4.83846965387962,0.,0.,0.;                                           107P    155
126,1,1,0,0,1,0,8.88567489914967,8.88567489914967,9.,9.,1.,1.,       109P    156
5.60418169999675D-32,26.1432510085033,0.,5.35910941046883D-32,       109P    157
25.,0.,8.88567489914967,9.,0.,0.,0.;                                 109P    158
126,4,2,0,0,0,0,-0.785398163397448,-0.785398163397448,               111P    159
-0.785398163397448,0.785398163397448,0.785398163397448,              111P    160
2.35619449019234,2.35619449019234,2.35619449019234,1.,               111P    161
0.707106781186547,1.,0.707106781186547,1.,-50.,25.,0.,-50.,0.,       111P    162
0.,-25.,0.,0.,-1.11022302462516D-15,0.,0.,0.,25.,0.,                 111P    163
-0.785398163397448,2.35619449019234,0.,0.,0.;                        111P    164
126,3,3,0,0,1,0,0.,0.,0.,0.,4.83846965387963,4.83846965387963,       113P    165
4.83846965387963,4.83846965387963,1.,1.,1.,1.,-7.85623947556493,     113P    166
73.6392523832953,3.99999999999991,-2.66574322605386,                 113P    167
58.3785905530471,3.99999999999991,-1.70234197109191D-14,             113P    168
42.2624647242337,3.99999999999991,-1.66533453693773D-14,             113P    169
26.1432510085035,3.99999999999991,0.,4.83846965387963,0.,0.,0.;      113P    170
126,3,3,0,0,1,0,-0.4,-0.4,-0.4,-0.4,0.,0.,0.,0.,1.,1.,1.,1.,         115P    171
-1.77635683940025D-14,26.1432510085035,4.,-1.77635683940025D-14,     115P    172
26.1432510085035,2.66666666666667,-1.77635683940025D-14,             115P    173
26.1432510085035,1.33333333333333,-1.77635683940025D-14,             115P    174
26.1432510085035,4.16333634234434D-16,-0.4,0.,0.,0.,0.;              115P    175
126,3,3,0,0,1,0,0.,0.,0.,0.,0.4,0.4,0.4,0.4,1.,1.,1.,1.,             117P    176
-7.85623947556493,73.6392523832953,4.16333634234434D-16,             117P    177
-7.85623947556493,73.6392523832953,1.33333333333333,                 117P    178
-7.85623947556493,73.6392523832953,2.66666666666667,                 117P    179
-7.85623947556493,73.6392523832953,4.,0.,0.4,0.,0.,0.;               117P    180
126,1,1,0,0,1,0,0.,0.,0.4,0.4,1.,1.,-5.49907341884648D-15,           119P    181
139.386629428293,0.,-5.49907341884648D-15,139.386629428293,4.,       119P    182
0.,0.4,0.,0.,0.;                                                     119P    183
126,12,5,0,0,0,0,-0.773438173966488,-0.773438173966488,              121P    184
-0.773438173966488,-0.773438173966488,-0.773438173966488,            121P    185
-0.773438173966488,-0.7,-0.6,-0.5,-0.4,-0.3,-0.2,-0.1,0.,0.,0.,      121P    186
0.,0.,0.,1.,1.,1.,1.,1.,1.,1.,1.,1.,1.,1.,1.,1.,                     121P    187
-7.85623947556493,73.6392523832953,4.,-8.22661772817442,             121P    188
74.7282074640131,4.,-9.04562286737086,77.3170943625746,4.,           121P    189
-10.1257451228889,81.4635088041383,4.,-11.1267277116406,             121P    190
87.2719644688961,4.,-11.5256752769514,94.9030745196089,4.,           121P    191
-10.9558988556521,103.266750669014,4.,-9.45925357032176,             121P    192
111.915124966574,4.,-7.11714423712514,120.823193011665,4.,           121P    193
-4.62792510953697,128.138714888499,4.,-2.43764673226239,             121P    194
133.724681178593,4.,-0.836109117665963,137.492076563742,4.,          121P    195
-5.49907341884648D-15,139.386629428293,4.,-0.773438173966488,0.,     121P    196
0.,0.,0.;                                                            121P    197
126,4,2,0,0,0,0,-0.785398163397448,-0.785398163397448,               123P    198
-0.785398163397448,0.785398163397448,0.785398163397448,              123P    199
2.35619449019234,2.35619449019234,2.35619449019234,1.,               123P    200
0.707106781186547,1.,0.707106781186547,1.,0.,25.,4.,0.,0.,4.,        123P    201
-25.,0.,4.,-50.,0.,4.,-50.,25.,4.,-0.785398163397448,                123P    202
2.35619449019234,0.,0.,0.;                                           123P    203
126,1,1,0,0,1,0,0.,0.,0.4,0.4,1.,1.,0.,25.,0.,0.,25.,4.,0.,0.4,      125P    204
0.,0.,0.;                                                            125P    205
126,2,2,0,0,0,0,-0.785398163397448,-0.785398163397448,               127P    206
-0.785398163397448,0.785398163397449,0.785398163397449,              127P    207
0.785398163397449,1.,0.707106781186547,1.,-1.75348458715629,         127P    208
142.98180561349,15.,-1.75348458715628,142.98180561349,35.,           127P    209
-19.7293655131396,134.214382677708,35.,-0.785398163397448,           127P    210
0.785398163397449,0.,0.,0.;                                          127P    211
126,1,1,0,0,1,0,-0.299999999999995,-0.299999999999995,               129P    212
0.100000000000002,0.100000000000002,1.,1.,-19.7293655131396,         129P    213
134.214382677708,35.,-17.9758809259833,130.619206492512,35.,         129P    214
-0.299999999999995,0.100000000000002,0.,0.,0.;                       129P    215
126,2,2,0,0,0,0,5.49778714378214,5.49778714378214,                   131P    216
5.49778714378214,7.06858347057703,7.06858347057703,                  131P    217
7.06858347057703,1.,0.707106781186547,1.,-17.9758809259833,          131P    218
130.619206492511,35.,5.27355936696949D-14,139.386629428293,35.,      131P    219
4.21884749357559D-14,139.386629428293,15.,5.49778714378214,          131P    220
7.06858347057703,0.,0.,0.;                                           131P    221
126,1,1,0,0,1,0,-0.099999999999996,-0.099999999999996,               133P    222
0.299999999999999,0.299999999999999,1.,1.,-8.32667268468867D-16,     133P    223
139.386629428293,15.,-1.75348458715628,142.98180561349,15.,          133P    224
-0.099999999999996,0.299999999999999,0.,0.,0.;                       133P    225
126,1,1,0,0,1,0,2.,2.,3.56300970237594,3.56300970237594,1.,1.,       135P    226
-32.0241190740167,123.767422935782,35.,-17.9758809259833,            135P    227
130.619206492512,35.,2.,3.56300970237594,0.,0.,0.;                   135P    228
126,2,2,0,0,0,0,-0.785398163397448,-0.785398163397448,               137P    229
-0.785398163397448,0.785398163397449,0.785398163397449,              137P    230
0.785398163397449,1.,0.707106781186546,1.,-50.,115.,15.,-50.,        137P    231
115.,35.,-32.0241190740167,123.767422935782,35.,                     137P    232
-0.785398163397448,0.785398163397449,0.,0.,0.;                       137P    233
126,1,1,0,0,1,0,0.4,0.4,1.5,1.5,1.,1.,-50.,115.,4.,-50.,115.,        139P    234
15.,0.4,1.5,0.,0.,0.;                                                139P    235
126,1,1,0,0,1,0,-5.43257432380056,-5.43257432380056,                 141P    236
0.130435378575388,0.130435378575388,1.,1.,-8.88178419700125D-15,     141P    237
139.386629428293,4.,-50.,115.,4.,-5.43257432380056,                  141P    238
0.130435378575388,0.,0.,0.;                                          141P    239
126,1,1,0,0,1,0,0.4,0.4,1.5,1.5,1.,1.,-5.55111512312578D-15,         143P    240
139.386629428293,4.,-5.55111512312578D-15,139.386629428293,15.,      143P    241
0.4,1.5,0.,0.,0.;                                                    143P    242
126,1,1,0,0,1,0,-3.56300970237595,-3.56300970237595,-2.,-2.,1.,      145P    243
1.,-19.7293655131396,134.214382677708,35.,-33.7776036611729,         145P    244
127.362599120978,35.,-3.56300970237595,-2.,0.,0.,0.;                 145P    245
126,1,1,0,0,1,0,-0.299999999999999,-0.299999999999999,               147P    246
0.0999999999999984,0.0999999999999984,1.,1.,-32.0241190740167,       147P    247
123.767422935782,35.,-33.777603661173,127.362599120978,35.,          147P    248
-0.299999999999999,0.0999999999999984,0.,0.,0.;                      147P    249
126,2,2,0,0,0,0,5.49778714378214,5.49778714378214,                   149P    250
5.49778714378214,7.06858347057703,7.06858347057703,                  149P    251
7.06858347057703,1.,0.707106781186547,1.,-33.7776036611729,          149P    252
127.362599120978,35.,-51.7534845871563,118.595176185197,35.,         149P    253
-51.7534845871563,118.595176185197,15.,5.49778714378214,             149P    254
7.06858347057703,0.,0.,0.;                                           149P    255
126,1,1,0,0,1,0,-0.0999999999999984,-0.0999999999999984,             151P    256
0.300000000000001,0.300000000000001,1.,1.,-51.7534845871563,         151P    257
118.595176185197,15.,-50.,115.,15.,-0.0999999999999984,              151P    258
0.300000000000001,0.,0.,0.;                                          151P    259
126,1,1,0,0,1,0,0.,0.,1.5,1.5,1.,1.,-51.7534845871563,               153P    260
118.595176185197,0.,-51.7534845871563,118.595176185197,15.,0.,       153P    261
1.5,0.,0.,0.;                                                        153P    262
126,1,1,0,0,1,0,0.,0.,0.4,0.4,1.,1.,-50.,115.,0.,-50.,115.,4.,       155P    263
0.,0.4,0.,0.,0.;                                                     155P    264
126,1,1,0,0,1,0,0.,0.,1.5,1.5,1.,1.,-1.75348458715628,               157P    265
142.98180561349,0.,-1.75348458715628,142.98180561349,15.,0.,1.5,     157P    266
0.,0.,0.;                                                            157P    267
126,1,1,0,0,1,0,-9.,-9.,-8.88567489914965,-8.88567489914965,1.,      159P    268
1.,5.35910941046883D-32,25.,4.,5.6041816999968D-32,                  159P    269
26.1432510085035,4.,-9.,-8.88567489914965,0.,0.,0.;                  159P    270
126,12,5,0,0,0,0,0.,0.,0.,0.,0.,0.,0.1,0.2,0.3,0.4,0.5,0.6,0.7,      161P    271
0.742919195214751,0.742919195214751,0.742919195214751,               161P    272
0.742919195214751,0.742919195214751,0.742919195214751,1.,1.,1.,      161P    273
1.,1.,1.,1.,1.,1.,1.,1.,1.,1.,-50.,115.,4.,-49.1286088602963,        161P    274
114.116165456528,4.,-47.4650587115035,112.324295003222,4.,           161P    275
-45.2074379887642,109.563882747413,4.,-42.6804371241182,             161P    276
105.735752356984,4.,-40.3786527705437,100.688829833203,4.,           161P    277
-38.9991710397384,95.360190996897,4.,-38.5993144414107,              161P    278
89.7323267510932,4.,-39.1120323023427,84.482146904539,4.,            161P    279
-40.0444829681086,80.2537601385758,4.,-40.9540310028664,             161P    280
77.182368955833,4.,-41.5715691632194,75.3501718651448,4.,            161P    281
-41.7643524276026,74.7977156860256,4.,0.,0.742919195214751,0.,       161P    282
0.,0.;                                                               161P    283
128,1,8,1,2,0,1,0,0,1,-1.61907524424502D-14,                         163P    284
-1.61907524424502D-14,2.66666666666663,2.66666666666663,             163P    285
-3.14159265358979,-3.14159265358979,-3.14159265358979,               163P    286
-1.5707963267949,-1.5707963267949,0.,0.,1.5707963267949,             163P    287
1.5707963267949,3.14159265358979,3.14159265358979,                   163P    288
3.14159265358979,1.,1.,0.707106781186548,0.707106781186548,1.,       163P    289
1.,0.707106781186548,0.707106781186548,1.,1.,0.707106781186548,      163P    290
0.707106781186548,1.,1.,0.707106781186548,0.707106781186548,1.,      163P    291
1.,-27.0964169819206,126.170823832841,24.4508182954705,              163P    292
-28.8499015690769,129.766000018038,24.4508182954705,                 163P    293
-27.0964169819206,126.170823832841,25.9508182954705,                 163P    294
-28.8499015690769,129.766000018038,25.9508182954705,                 163P    295
-25.7482259124719,126.828380553025,25.9508182954705,                 163P    296
-27.5017104996282,130.423556738221,25.9508182954705,                 163P    297
-24.4000348430231,127.485937273208,25.9508182954705,                 163P    298
-26.1535194301794,131.081113458405,25.9508182954705,                 163P    299
-24.4000348430231,127.485937273208,24.4508182954705,                 163P    300
-26.1535194301794,131.081113458405,24.4508182954705,                 163P    301
-24.4000348430231,127.485937273208,22.9508182954705,                 163P    302
-26.1535194301794,131.081113458405,22.9508182954705,                 163P    303
-25.7482259124719,126.828380553025,22.9508182954705,                 163P    304
-27.5017104996282,130.423556738221,22.9508182954705,                 163P    305
-27.0964169819206,126.170823832841,22.9508182954705,                 163P    306
-28.8499015690769,129.766000018038,22.9508182954705,                 163P    307
-27.0964169819206,126.170823832841,24.4508182954705,                 163P    308
-28.8499015690769,129.766000018038,24.4508182954705,                 163P    309
-1.61907524424502D-14,2.66666666666663,-3.14159265358979,            163P    310
3.14159265358979;                                                    163P    311
128,3,3,3,3,0,0,1,0,0,0.,0.,0.,0.,1.,1.,1.,1.,0.,0.,0.,0.,           165P    312
0.399999999999999,0.399999999999999,0.399999999999999,               165P    313
0.399999999999999,1.,1.,1.,1.,1.,1.,1.,1.,1.,1.,1.,1.,1.,1.,1.,      165P    314
1.,-41.7643524276025,74.7977156860256,-4.16333634234434D-16,         165P    315
-47.203111363873,59.2119438053797,-4.16333634234434D-16,-50.,        165P    316
42.7079565625431,-4.16333634234434D-16,-50.,26.2004920727314,        165P    317
-4.16333634234434D-16,-41.7643524276025,74.7977156860256,            165P    318
1.33333333333333,-47.203111363873,59.2119438053797,                  165P    319
1.33333333333333,-50.,42.7079565625431,1.33333333333333,-50.,        165P    320
26.2004920727314,1.33333333333333,-41.7643524276025,                 165P    321
74.7977156860256,2.66666666666666,-47.203111363873,                  165P    322
59.2119438053796,2.66666666666666,-50.,42.707956562543,              165P    323
2.66666666666666,-50.,26.2004920727313,2.66666666666666,             165P    324
-41.7643524276025,74.7977156860256,3.99999999999999,                 165P    325
-47.203111363873,59.2119438053796,3.99999999999999,-50.,             165P    326
42.707956562543,3.99999999999999,-50.,26.2004920727313,              165P    327
3.99999999999999,0.,1.,0.,0.399999999999999;                         165P    328
128,1,1,1,1,0,0,1,0,0,3.12895079272686,3.12895079272686,3.251,       167P    329
3.251,-0.001,-0.001,0.401,0.401,1.,1.,1.,1.,-50.,                    167P    330
26.2104920727314,-0.01,-50.,24.99,-0.01,-50.,26.2104920727314,       167P    331
4.01,-50.,24.99,4.01,3.12895079272686,3.251,-0.001,0.401;            167P    332
128,1,1,1,1,0,0,1,0,0,-2.58867422935782,-2.58867422935782,           169P    333
2.58867422935782,2.58867422935782,-7.15009028067449,                 169P    334
-7.15009028067449,7.15009028067449,7.15009028067449,1.,1.,1.,1.,     169P    335
0.0100000000000788,-0.0100000000000033,0.,-51.7634845871563,         169P    336
-0.0100000000000033,0.,0.0100000000000833,142.99180561349,0.,        169P    337
-51.7634845871563,142.99180561349,0.,-2.58867422935782,              169P    338
2.58867422935782,-7.15009028067449,7.15009028067449;                 169P    339
128,3,3,3,3,0,0,1,0,0,0.,0.,0.,0.,1.,1.,1.,1.,0.,0.,0.,0.,0.4,       171P    340
0.4,0.4,0.4,1.,1.,1.,1.,1.,1.,1.,1.,1.,1.,1.,1.,1.,1.,1.,1.,         171P    341
-1.77635683940025D-14,26.1432510085035,4.16333634234434D-16,         171P    342
-1.77635683940025D-14,42.2624647242337,4.16333634234434D-16,         171P    343
-2.66574322605385,58.378590553047,4.16333634234434D-16,              171P    344
-7.85623947556493,73.6392523832953,4.16333634234434D-16,             171P    345
-1.77635683940025D-14,26.1432510085035,1.33333333333333,             171P    346
-1.77635683940025D-14,42.2624647242337,1.33333333333333,             171P    347
-2.66574322605385,58.378590553047,1.33333333333333,                  171P    348
-7.85623947556493,73.6392523832953,1.33333333333333,                 171P    349
-1.77635683940025D-14,26.1432510085035,2.66666666666667,             171P    350
-1.77635683940025D-14,42.2624647242337,2.66666666666667,             171P    351
-2.66574322605386,58.3785905530471,2.66666666666667,                 171P    352
-7.85623947556493,73.6392523832953,2.66666666666667,                 171P    353
-1.77635683940025D-14,26.1432510085035,4.,-1.77635683940025D-14,     171P    354
42.2624647242337,4.,-2.66574322605386,58.3785905530471,4.,           171P    355
-7.85623947556493,73.6392523832953,4.,0.,1.,0.,0.4;                  171P    356
128,14,1,5,1,0,0,0,0,0,-1.,-1.,-1.,-1.,-1.,-1.,-0.9,-0.8,-0.7,       173P    357
-0.6,-0.5,-0.4,-0.3,-0.2,-0.1,0.,0.,0.,0.,0.,0.,0.,0.,0.4,0.4,       173P    358
1.,1.,1.,1.,1.,1.,1.,1.,1.,1.,1.,1.,1.,1.,1.,1.,1.,1.,1.,1.,1.,      173P    359
1.,1.,1.,1.,1.,1.,1.,1.,1.,1.23259516440783D-31,57.5,0.,             173P    360
-0.876161317922242,58.8686098308996,0.,-2.54940095381794,            173P    361
61.6301207214878,0.,-4.82200534534624,65.8452626058918,0.,           173P    362
-7.36988041787998,71.6135846074506,0.,-9.69876083284883,             173P    363
79.0869058583375,0.,-11.1043451146956,86.84382785306,0.,             173P    364
-11.5256752769514,94.9030745196089,0.,-10.9558988556521,             173P    365
103.266750669014,0.,-9.45925357032176,111.915124966574,0.,           173P    366
-7.11714423712514,120.823193011665,0.,-4.62792510953697,             173P    367
128.138714888499,0.,-2.43764673226239,133.724681178593,0.,           173P    368
-0.836109117665963,137.492076563742,0.,-5.49907341884648D-15,        173P    369
139.386629428293,0.,1.23259516440783D-31,57.5,4.,                    173P    370
-0.876161317922242,58.8686098308996,4.,-2.54940095381794,            173P    371
61.6301207214878,4.,-4.82200534534624,65.8452626058918,4.,           173P    372
-7.36988041787998,71.6135846074506,4.,-9.69876083284883,             173P    373
79.0869058583375,4.,-11.1043451146956,86.84382785306,4.,             173P    374
-11.5256752769514,94.9030745196089,4.,-10.9558988556521,             173P    375
103.266750669014,4.,-9.45925357032176,111.915124966574,4.,           173P    376
-7.11714423712514,120.823193011665,4.,-4.62792510953697,             173P    377
128.138714888499,4.,-2.43764673226239,133.724681178593,4.,           173P    378
-0.836109117665963,137.492076563742,4.,-5.49907341884648D-15,        173P    379
139.386629428293,4.,-1.,0.,0.,0.4;                                   173P    380
128,1,4,1,2,0,0,0,0,0,0.,0.,0.16,0.16,-0.785398163397448,            175P    381
-0.785398163397448,-0.785398163397448,0.785398163397448,             175P    382
0.785398163397448,2.35619449019234,2.35619449019234,                 175P    383
2.35619449019234,1.,1.,0.707106781186548,0.707106781186548,1.,       175P    384
1.,0.707106781186548,0.707106781186548,1.,1.,-50.,25.,4.,-50.,       175P    385
25.,0.,-50.,4.44089209850063D-15,4.,-50.,4.44089209850063D-15,       175P    386
0.,-25.,-2.22044604925031D-15,4.,-25.,-2.22044604925031D-15,0.,      175P    387
-4.44089209850063D-15,0.,4.,-4.44089209850063D-15,0.,0.,0.,25.,      175P    388
4.,0.,25.,0.,0.,0.16,-0.785398163397448,2.35619449019234;            175P    389
128,1,2,1,2,0,0,0,0,0,-0.0500000000000066,-0.0500000000000066,       177P    390
0.15,0.15,-0.785398163397449,-0.785398163397449,                     177P    391
-0.785398163397449,0.785398163397448,0.785398163397448,              177P    392
0.785398163397448,1.,1.,0.707106781186547,0.707106781186547,1.,      177P    393
1.,-19.7293655131397,134.214382677708,35.,-17.9758809259833,         177P    394
130.619206492511,35.,-1.75348458715628,142.98180561349,35.,          177P    395
7.54951656745106D-14,139.386629428293,35.,-1.75348458715629,         177P    396
142.98180561349,15.,6.88338275267597D-14,139.386629428293,15.,       177P    397
-0.0500000000000066,0.15,-0.785398163397449,0.785398163397448;       177P    398
128,1,1,1,1,0,0,1,0,0,-0.001,-0.001,5.56400970237594,                179P    399
5.56400970237594,0.399,0.399,3.501,3.501,1.,1.,1.,1.,                179P    400
-50.008987940463,114.995616288532,3.99,0.00898794046299223,          179P    401
139.391013139761,3.99,-50.008987940463,114.995616288532,35.01,       179P    402
0.00898794046299223,139.391013139761,35.01,-0.001,                   179P    403
5.56400970237594,0.399,3.501;                                        179P    404
128,1,1,1,1,0,0,1,0,0,-0.79108613675948,-0.79108613675948,           181P    405
0.791086136759482,0.791086136759482,-0.52334798709633,               181P    406
-0.52334798709633,0.52334798709633,0.52334798709633,1.,1.,1.,1.,     181P    407
-33.787603661173,123.757422935782,35.,-17.9658809259833,             181P    408
123.757422935782,35.,-33.787603661173,134.224382677708,35.,          181P    409
-17.9658809259833,134.224382677708,35.,-0.79108613675948,            181P    410
0.791086136759482,-0.52334798709633,0.52334798709633;                181P    411
128,1,2,1,2,0,0,0,0,0,-0.0499999999999994,-0.0499999999999994,       183P    412
0.15,0.15,-0.785398163397449,-0.785398163397449,                     183P    413
-0.785398163397449,0.785398163397448,0.785398163397448,              183P    414
0.785398163397448,1.,1.,0.707106781186547,0.707106781186547,1.,      183P    415
1.,-32.0241190740167,123.767422935782,35.,-33.777603661173,          183P    416
127.362599120978,35.,-50.,115.,35.,-51.7534845871563,                183P    417
118.595176185197,35.,-50.,115.,15.,-51.7534845871563,                183P    418
118.595176185197,15.,-0.0499999999999994,0.15,                       183P    419
-0.785398163397449,0.785398163397448;                                183P    420
128,1,1,1,1,0,0,1,0,0,-0.001,-0.001,0.400999999999999,               185P    421
0.400999999999999,-0.001,-0.001,1.501,1.501,1.,1.,1.,1.,             185P    422
-51.7578682986242,118.60416412566,-0.01,-49.9956162885321,           185P    423
114.991012059537,-0.01,-51.7578682986242,118.60416412566,15.01,      185P    424
-49.9956162885321,114.991012059537,15.01,-0.001,                     185P    425
0.400999999999999,-0.001,1.501;                                      185P    426
128,1,1,1,1,0,0,1,0,0,-0.00100000000000089,-0.00100000000000089,     187P    427
5.56400970237594,5.56400970237594,-0.001,-0.001,3.501,3.501,1.,      187P    428
1.,1.,1.,-1.74449664669329,142.986189324958,-0.01,                   187P    429
-51.7624725276193,118.590792473729,-0.01,-1.74449664669329,          187P    430
142.986189324958,35.01,-51.7624725276193,118.590792473729,35.01,     187P    431
-0.00100000000000089,5.56400970237594,-0.001,3.501;                  187P    432
128,1,1,1,1,0,0,1,0,0,-0.00100000000000004,-0.00100000000000004,     189P    433
0.400999999999995,0.400999999999995,-0.001,-0.001,1.501,1.501,       189P    434
1.,1.,1.,1.,0.00438371146788539,139.37764148783,-0.01,               189P    435
-1.75786829862417,142.990793553953,-0.01,0.00438371146788539,        189P    436
139.37764148783,15.01,-1.75786829862417,142.990793553953,15.01,      189P    437
-0.00100000000000004,0.400999999999995,-0.001,1.501;                 189P    438
128,1,1,1,1,0,0,1,0,0,2.499,2.499,2.61532510085035,                  191P    439
2.61532510085035,-0.001,-0.001,0.401,0.401,1.,1.,1.,1.,              191P    440
5.35696576670464D-32,24.99,-0.01,5.60632534376099D-32,               191P    441
26.1532510085035,-0.01,5.35696576670464D-32,24.99,4.01,              191P    442
5.60632534376099D-32,26.1532510085035,4.01,2.499,                    191P    443
2.61532510085035,-0.001,0.401;                                       191P    444
128,14,1,5,1,0,0,0,0,0,0.,0.,0.,0.,0.,0.,0.1,0.2,0.3,0.4,0.5,        193P    445
0.6,0.7,0.8,0.9,1.,1.,1.,1.,1.,1.,0.,0.,0.4,0.4,1.,1.,1.,1.,1.,      193P    446
1.,1.,1.,1.,1.,1.,1.,1.,1.,1.,1.,1.,1.,1.,1.,1.,1.,1.,1.,1.,1.,      193P    447
1.,1.,1.,1.,-50.,115.,0.,-49.1286088602963,114.116165456528,0.,      193P    448
-47.4650587115035,112.324295003222,0.,-45.2074379887642,             193P    449
109.563882747413,0.,-42.6804371241182,105.735752356984,0.,           193P    450
-40.3786527705437,100.688829833203,0.,-38.9991710397384,             193P    451
95.360190996897,0.,-38.5993144414107,89.7323267510932,0.,            193P    452
-39.1781083461131,83.8055347952731,0.,-40.6676519891305,             193P    453
77.6005553426573,0.,-42.9854767616684,71.1425783382723,0.,           193P    454
-45.4417298637782,65.7923185542429,0.,-47.5999763847906,             193P    455
61.6830845496696,0.,-49.1769644262938,58.9013953025669,0.,-50.,      193P    456
57.5,0.,-50.,115.,4.,-49.1286088602963,114.116165456528,4.,          193P    457
-47.4650587115035,112.324295003222,4.,-45.2074379887642,             193P    458
109.563882747413,4.,-42.6804371241182,105.735752356984,4.,           193P    459
-40.3786527705437,100.688829833203,4.,-38.9991710397384,             193P    460
95.360190996897,4.,-38.5993144414107,89.7323267510932,4.,            193P    461
-39.1781083461131,83.8055347952731,4.,-40.6676519891305,             193P    462
77.6005553426573,4.,-42.9854767616684,71.1425783382723,4.,           193P    463
-45.4417298637782,65.7923185542429,4.,-47.5999763847906,             193P    464
61.6830845496696,4.,-49.1769644262938,58.9013953025669,4.,-50.,      193P    465
57.5,4.,0.,1.,0.,0.4;                                                193P    466
128,1,1,1,1,0,0,1,0,0,-2.41332577064219,-2.41332577064219,           195P    467
2.58867422935782,2.58867422935782,-7.15009028067449,                 195P    468
-7.15009028067449,6.79057266215482,6.79057266215482,1.,1.,1.,1.,     195P    469
-50.01,-0.0100000000000033,4.,0.0099999999999989,                    195P    470
-0.0100000000000033,4.,-50.01,139.396629428293,4.,                   195P    471
0.00999999999999446,139.396629428293,4.,-2.41332577064219,           195P    472
2.58867422935782,-7.15009028067449,6.79057266215482;                 195P    473
502,28,-27.0964169819206,126.170823832841,24.4508182954705,          197P    474
-28.8499015690769,129.766000018038,24.4508182954705,-50.,            197P    475
26.2004920727313,3.99999999999999,-41.7643524276026,                 197P    476
74.7977156860256,3.99999999999999,-41.7643524276025,                 197P    477
74.7977156860257,1.77635683940025D-14,-50.,26.2004920727308,         197P    478
1.77635683940025D-14,-50.,25.,0.,-50.,25.,4.,-50.,115.,0.,           197P    479
-51.7534845871563,118.595176185197,0.,-1.75348458715628,             197P    480
142.98180561349,0.,-5.49907341884648D-15,139.386629428293,0.,        197P    481
-7.85623947556492,73.6392523832953,-1.77635683940025D-14,            197P    482
5.60418169999675D-32,26.1432510085033,1.77635683940025D-14,          197P    483
5.35910941046883D-32,25.,0.,-7.85623947556493,73.6392523832953,      197P    484
3.99999999999997,5.6041816999968D-32,26.1432510085035,               197P    485
3.99999999999999,-8.88178419700125D-15,139.386629428293,4.,          197P    486
5.35910941046883D-32,25.,4.,-1.75348458715628,142.98180561349,       197P    487
15.,-19.7293655131396,134.214382677708,35.,-17.9758809259833,        197P    488
130.619206492512,35.,-5.55111512312578D-15,139.386629428293,15.,     197P    489
-32.0241190740167,123.767422935782,35.,-50.,115.,15.,-50.,115.,      197P    490
4.,-33.777603661173,127.362599120978,35.,-51.7534845871563,          197P    491
118.595176185197,15.;                                                197P    492
504,43,77,197,1,197,1,79,197,1,197,2,81,197,2,197,2,83,197,3,        199P    493
197,4,85,197,4,197,5,87,197,5,197,6,89,197,6,197,3,91,197,7,197,     199P    494
6,93,197,8,197,7,95,197,3,197,8,97,197,9,197,5,99,197,9,197,10,      199P    495
101,197,10,197,11,103,197,11,197,12,105,197,12,197,13,107,197,       199P    496
14,197,13,109,197,14,197,15,111,197,7,197,15,113,197,16,197,17,      199P    497
115,197,17,197,14,117,197,13,197,16,119,197,12,197,18,121,197,       199P    498
16,197,18,123,197,19,197,8,125,197,15,197,19,127,197,20,197,21,      199P    499
129,197,21,197,22,131,197,22,197,23,133,197,23,197,20,135,197,       199P    500
24,197,22,137,197,25,197,24,139,197,26,197,25,141,197,18,197,26,     199P    501
143,197,18,197,23,145,197,21,197,27,147,197,24,197,27,149,197,       199P    502
27,197,28,151,197,28,197,25,153,197,10,197,28,155,197,9,197,26,      199P    503
157,197,11,197,20,159,197,19,197,17,161,197,26,197,4;                199P    504
406,1,5HBody1;                                                       201P    505
314,62.7450980392157,62.7450980392157,62.7450980392157,13HSteel      203P    506
- Satin;                                                             203P    507
S      1G      3D    204P    507                                        T      1
