0
SECTION
2
HEADER
9
$INSUNITS
70
4
9
$ACADVER
1
AC1014
9
$HANDSEED
5
FFFF
0
ENDSEC
0
SECTION
2
TABLES
0
TABLE
2
VPORT
5
8
100
AcDbSymbolTable
0
ENDTAB
0
TABLE
2
LTYPE
5
5
100
AcDbSymbolTable
0
LTYPE
5
14
100
AcDbSymbolTableRecord
100
AcDbLinetypeTableRecord
2
BYBLOCK
70
0
0
LTYPE
5
15
100
AcDbSymbolTableRecord
100
AcDbLinetypeTableRecord
2
BYLAYER
70
0
0
LTYPE
5
16
100
AcDbSymbolTableRecord
100
AcDbLinetypeTableRecord
2
DASHED
70
0
3
Dashed __ __ __ __ __ __ __ __ __ __ __ __ __ _
72
65
73
2
40
0.75
49
0.5
74
0
49
-0.25
74
0
0
ENDTAB
0
TABLE
2
LAYER
5
2
100
AcDbSymbolTable
70
2
0
LAYER
5
50
100
AcDbSymbolTableRecord
100
AcDbLayerTableRecord
2
0
70
0
62
7
6
CONTINUOUS
0
ENDTAB
0
TABLE
2
STYLE
5
3
100
AcDbSymbolTable
70
1
0
STYLE
5
11
100
AcDbSymbolTableRecord
100
AcDbTextStyleTableRecord
2
STANDARD
70
0
0
ENDTAB
0
TABLE
2
VIEW
5
6
100
AcDbSymbolTable
70
0
0
ENDTAB
0
TABLE
2
UCS
5
7
100
AcDbSymbolTable
70
0
0
ENDTAB
0
TABLE
2
APPID
5
9
100
AcDbSymbolTable
70
2
0
APPID
5
12
100
AcDbSymbolTableRecord
100
AcDbRegAppTableRecord
2
ACAD
70
0
0
ENDTAB
0
TABLE
2
DIMSTYLE
5
A
100
AcDbSymbolTable
70
1
0
ENDTAB
0
TABLE
2
BLOCK_RECORD
5
1
100
AcDbSymbolTable
70
1
0
BLOCK_RECORD
5
1F
100
AcDbSymbolTableRecord
100
AcDbBlockTableRecord
2
*MODEL_SPACE
0
BLOCK_RECORD
5
1B
100
AcDbSymbolTableRecord
100
AcDbBlockTableRecord
2
*PAPER_SPACE
0
ENDTAB
0
ENDSEC
0
SECTION
2
BLOCKS
0
BLOCK
5
20
100
AcDbEntity
100
AcDbBlockBegin
2
*MODEL_SPACE
0
ENDBLK
5
21
100
AcDbEntity
100
AcDbBlockEnd
0
BLOCK
5
1C
100
AcDbEntity
100
AcDbBlockBegin
2
*PAPER_SPACE
0
ENDBLK
5
1D
100
AcDbEntity
100
AcDbBlockEnd
0
ENDSEC
0
SECTION
2
ENTITIES
0
POINT
5
100
100
AcDbEntity
8
0
100
AcDbPoint
10
0
20
0
30
0
0
SPLINE
5
101
100
AcDbEntity
8
0
100
AcDbSpline
70
4
71
5
72
21
73
15
74
0
42
0.000000001
43
0.0000000001
44
0.0000000001
40
0
40
0
40
0
40
0
40
0
40
0
40
0.10000000000000001
40
0.20000000000000001
40
0.30000000000000004
40
0.40000000000000002
40
0.5
40
0.59999999999999998
40
0.69999999999999996
40
0.79999999999999993
40
0.89999999999999991
40
1
40
1
40
1
40
1
40
1
40
1
41
1
41
1
41
1
41
1
41
1
41
1
41
1
41
1
41
1
41
1
41
1
41
1
41
1
41
1
41
1
10
4
20
0
30
0
10
4.5771140530415213
20
-0.10553688367921719
30
0
10
5.7551281595351842
20
-0.29922498862154168
30
0
10
7.5933948017218098
20
-0.53743522033049007
30
0
10
10.190230361177798
20
-0.75011226861287938
30
0
10
13.691054943241623
20
-0.85471623900783689
30
0
10
17.473491750150885
20
-0.88642089299662685
30
0
10
21.536497691068028
20
-0.99560157502427848
30
0
10
25.923992692639963
20
-1.5674577130742366
30
0
10
30.381891377824552
20
-2.7888501557938552
30
0
10
34.443508737708903
20
-4.6460931555849116
30
0
10
36.962335747818088
20
-6.571431179877484
30
0
10
38.242155497163338
20
-8.2145723473873637
30
0
10
38.79710420805489
20
-9.3913123127560389
30
0
10
39.000000000000007
20
-10
30
0
0
LINE
5
102
100
AcDbEntity
8
0
100
AcDbLine
10
0
20
0
30
0
11
4
21
0
31
0
0
SPLINE
5
103
100
AcDbEntity
8
0
100
AcDbSpline
70
4
71
5
72
26
73
20
74
0
42
0.000000001
43
0.0000000001
44
0.0000000001
40
0
40
0
40
0
40
0
40
0
40
0
40
0.066666666666666666
40
0.13333333333333333
40
0.20000000000000001
40
0.26666666666666666
40
0.33333333333333331
40
0.39999999999999997
40
0.46666666666666662
40
0.53333333333333333
40
0.59999999999999998
40
0.66666666666666663
40
0.73333333333333328
40
0.79999999999999993
40
0.86666666666666659
40
0.93333333333333324
40
1
40
1
40
1
40
1
40
1
40
1
41
1
41
1
41
1
41
1
41
1
41
1
41
1
41
1
41
1
41
1
41
1
41
1
41
1
41
1
41
1
41
1
41
1
41
1
41
1
41
1
10
39.000000000000007
20
-10
30
0
10
38.724247642455218
20
-9.8626059243425459
30
0
10
38.155629281908567
20
-9.584719292802605
30
0
10
37.251360775396741
20
-9.1585934420683746
30
0
10
35.942241238446357
20
-8.5717023849562093
30
0
10
34.130821839060772
20
-7.8105876822817191
30
0
10
32.14441193604457
20
-7.0346881609715393
30
0
10
29.989485440653301
20
-6.270726416964675
30
0
10
27.683713344307293
20
-5.5653772865064699
30
0
10
25.251922605228589
20
-4.9777414857735947
30
0
10
22.722174392535077
20
-4.5714404288805728
30
0
10
20.122300122981741
20
-4.4064072740722358
30
0
10
17.476804805024862
20
-4.5308612595171862
30
0
10
14.803389947837696
20
-4.9703837581504606
30
0
10
12.113700584172115
20
-5.7332307112522471
30
0
10
9.4147726528307736
20
-6.8175915740419315
30
0
10
7.2510793755023037
20
-7.9369183930549969
30
0
10
5.6263113672706453
20
-8.9149681376761496
30
0
10
4.5422507661061315
20
-9.628133844006495
30
0
10
4.0000000000000107
20
-10.000000000000002
30
0
0
LINE
5
104
100
AcDbEntity
8
0
100
AcDbLine
10
4
20
0
30
0
11
4.0000000000000009
21
-10
31
0
0
LINE
5
105
100
AcDbEntity
8
0
100
AcDbLine
10
39.000000000000007
20
-10
30
0
11
30.405458573377615
21
-5.1224144173501251
31
0
0
ENDSEC
0
SECTION
2
OBJECTS
0
DICTIONARY
5
C
100
AcDbDictionary
3
ACAD_GROUP
350
D
3
ACAD_MLINESTYLE
350
17
0
DICTIONARY
5
D
100
AcDbDictionary
0
DICTIONARY
5
1A
330
C
100
AcDbDictionary
0
DICTIONARY
5
17
100
AcDbDictionary
0
ENDSEC
0
EOF
