0
SECTION
2
HEADER
9
$INSUNITS
70
4
9
$ACADVER
1
AC1014
9
$HANDSEED
5
FFFF
0
ENDSEC
0
SECTION
2
TABLES
0
TABLE
2
VPORT
5
8
100
AcDbSymbolTable
0
ENDTAB
0
TABLE
2
LTYPE
5
5
100
AcDbSymbolTable
0
LTYPE
5
14
100
AcDbSymbolTableRecord
100
AcDbLinetypeTableRecord
2
BYBLOCK
70
0
0
LTYPE
5
15
100
AcDbSymbolTableRecord
100
AcDbLinetypeTableRecord
2
BYLAYER
70
0
0
LTYPE
5
16
100
AcDbSymbolTableRecord
100
AcDbLinetypeTableRecord
2
DASHED
70
0
3
Dashed __ __ __ __ __ __ __ __ __ __ __ __ __ _
72
65
73
2
40
0.75
49
0.5
74
0
49
-0.25
74
0
0
ENDTAB
0
TABLE
2
LAYER
5
2
100
AcDbSymbolTable
70
2
0
LAYER
5
50
100
AcDbSymbolTableRecord
100
AcDbLayerTableRecord
2
0
70
0
62
7
6
CONTINUOUS
0
ENDTAB
0
TABLE
2
STYLE
5
3
100
AcDbSymbolTable
70
1
0
STYLE
5
11
100
AcDbSymbolTableRecord
100
AcDbTextStyleTableRecord
2
STANDARD
70
0
0
ENDTAB
0
TABLE
2
VIEW
5
6
100
AcDbSymbolTable
70
0
0
ENDTAB
0
TABLE
2
UCS
5
7
100
AcDbSymbolTable
70
0
0
ENDTAB
0
TABLE
2
APPID
5
9
100
AcDbSymbolTable
70
2
0
APPID
5
12
100
AcDbSymbolTableRecord
100
AcDbRegAppTableRecord
2
ACAD
70
0
0
ENDTAB
0
TABLE
2
DIMSTYLE
5
A
100
AcDbSymbolTable
70
1
0
ENDTAB
0
TABLE
2
BLOCK_RECORD
5
1
100
AcDbSymbolTable
70
1
0
BLOCK_RECORD
5
1F
100
AcDbSymbolTableRecord
100
AcDbBlockTableRecord
2
*MODEL_SPACE
0
BLOCK_RECORD
5
1B
100
AcDbSymbolTableRecord
100
AcDbBlockTableRecord
2
*PAPER_SPACE
0
ENDTAB
0
ENDSEC
0
SECTION
2
BLOCKS
0
BLOCK
5
20
100
AcDbEntity
100
AcDbBlockBegin
2
*MODEL_SPACE
0
ENDBLK
5
21
100
AcDbEntity
100
AcDbBlockEnd
0
BLOCK
5
1C
100
AcDbEntity
100
AcDbBlockBegin
2
*PAPER_SPACE
0
ENDBLK
5
1D
100
AcDbEntity
100
AcDbBlockEnd
0
ENDSEC
0
SECTION
2
ENTITIES
0
LWPOLYLINE
5
100
100
AcDbEntity
8
0
100
AcDbPolyline
90
49
70
1
43
0.0
10
-19.79625940322876
20
28.87974062998267
10
-23.373819768768442
20
28.879740629982674
10
-23.370006084442139
20
28.825421333312988
10
-23.370006084442139
20
-28.893113136291504
10
-14.870002269744873
20
-28.893113136291504
10
-14.870002269744873
20
-15.893111228942871
10
14.8699951171875
20
-15.893111228942871
10
14.8699951171875
20
-28.893113136291504
10
23.369998931884766
20
-28.893113136291504
10
23.369998931884766
20
28.825421333312988
10
23.373894691467285
20
28.880841732025146
10
23.385429382324219
20
28.934102058410645
10
23.404154777526855
20
28.983128070831299
10
23.429341316223145
20
29.026012420654297
10
23.460009098052979
20
29.061079025268555
10
23.494961261749268
20
29.086966514587402
10
23.532834053039551
20
29.102663993835449
10
23.552412986755371
20
29.106483459472656
10
23.572158813476562
20
29.107561111450195
10
19.796253442764282
20
29.16513204574585
10
19.796253442764282
20
33.619177341461182
10
19.607266187667847
20
33.670094013214111
10
19.431817531585693
20
33.756847381591797
10
19.276626110076904
20
33.876113891601562
10
19.147639274597168
20
34.023325443267822
10
19.049798250198364
20
34.192841053009033
10
16.383862495422363
20
39.066667556762695
10
16.24016284942627
20
39.292135238647461
10
16.067675352096558
20
39.496421813964844
10
15.869479179382324
20
39.675874710083008
10
15.649117231369019
20
39.827287197113037
10
15.410528182983398
20
39.94795560836792
10
15.157976150512695
20
40.035719871520996
10
14.895973205566406
20
40.089015960693359
10
-7.0141254200351e-05
20
41.086958073354502
10
-14.895980358123779
20
40.089015960693359
10
-15.157983303070068
20
40.035719871520996
10
-15.410535335540771
20
39.94795560836792
10
-15.649125576019287
20
39.827287197113037
10
-15.869486331939697
20
39.675874710083008
10
-16.067683696746826
20
39.496421813964844
10
-16.240170001983643
20
39.292135238647461
10
-16.383869647979736
20
39.066667556762695
10
-19.049804210662842
20
34.192841053009033
10
-19.147646427154541
20
34.023325443267822
10
-19.276630878448486
20
33.876113891601562
10
-19.431827068328857
20
33.756847381591797
10
-19.607274532318115
20
33.670094013214111
10
-19.79625940322876
20
33.619177341461182
0
LWPOLYLINE
5
101
100
AcDbEntity
8
0
100
AcDbPolyline
90
4
70
1
43
0.0
10
-12.870004177093506
20
30.706887245178223
10
-12.870004177093506
20
36.106886863708496
10
12.869997024536133
20
36.106886863708496
10
12.869997024536133
20
30.706887245178223
0
LWPOLYLINE
5
102
100
AcDbEntity
8
0
100
AcDbPolyline
90
4
70
1
43
0.0
10
12.869997024536133
20
30.706887245178223
10
-12.870004177093506
20
30.706887245178223
10
-12.870004177093506
20
36.106886863708496
10
12.869997024536133
20
36.106886863708496
0
ENDSEC
0
SECTION
2
OBJECTS
0
DICTIONARY
5
C
100
AcDbDictionary
3
ACAD_GROUP
350
D
3
ACAD_MLINESTYLE
350
17
0
DICTIONARY
5
D
100
AcDbDictionary
0
DICTIONARY
5
1A
330
C
100
AcDbDictionary
0
DICTIONARY
5
17
100
AcDbDictionary
0
ENDSEC
0
EOF
