                                                                        S      1
,,8Hspool v2,8Hspool v2,7Hunknown,7Hunknown,32,38,7,99,15,,1.,2,2HMM,1, G      1
0.08,15H20250912.002836,0.01,10000.,7Hunknown,7Hunknown,11,0,15H20240216G      2
.212424;                                                                G      3
     186       1                                                00000000D      1
     186             -35       1       0                               0D      2
     514       2                                                00010000D      3
     514                       1       1                               0D      4
     510       3                                                00010000D      5
     510             -35       1       1                               0D      6
     510       4                                                00010000D      7
     510             -35       1       1                               0D      8
     510       5                                                00010000D      9
     510             -35       1       1                               0D     10
     508       6                                                00010000D     11
     508                       1       1                               0D     12
     508       7                                                00010000D     13
     508                       1       1                               0D     14
     508       8                                                00010000D     15
     508                       1       1                               0D     16
     126       9                                                00010000D     17
     126       0              10       0                               0D     18
     126      19                                                00010000D     19
     126       0               2       0                               0D     20
     126      21                                                00010000D     21
     126       0              10       0                               0D     22
     128      31                                                00010000D     23
     128       0     -35      12       0                               0D     24
     128      43                                                00010000D     25
     128       0     -35       4       0                               0D     26
     128      47                                                00010000D     27
     128       0     -35       4       0                               0D     28
     502      51                                                00010000D     29
     502                       2       1                               0D     30
     504      53                                                00010001D     31
     504                       1       1                               0D     32
     406      54                                                00000000D     33
     406                       1      15                               0D     34
     314      55                                                00000200D     35
     314                       2       0                               0D     36
186,3,1,0,0,1,33;                                                      1P      1
514,3,5,1,7,1,9,1;                                                     3P      2
510,23,1,1,11;                                                         5P      3
510,25,1,1,13;                                                         7P      4
510,27,1,1,15;                                                         9P      5
508,4,0,31,1,0,0,0,31,2,1,0,0,31,3,1,0,0,31,2,0,0;                    11P      6
508,1,0,31,1,1,0;                                                     13P      7
508,1,0,31,3,0,0;                                                     15P      8
126,8,2,0,1,0,0,-3.14159265358979,-3.14159265358979,                  17P      9
-3.14159265358979,-1.5707963267949,-1.5707963267949,0.,0.,            17P     10
1.5707963267949,1.5707963267949,3.14159265358979,                     17P     11
3.14159265358979,3.14159265358979,1.,0.707106781186548,1.,            17P     12
0.707106781186548,1.,0.707106781186548,1.,0.707106781186548,1.,       17P     13
-100.,72.5,1.22464679914735D-14,-100.,72.5,100.,                      17P     14
6.12323399573677D-15,72.5,100.,100.,72.5,100.,100.,72.5,0.,100.,      17P     15
72.5,-100.,6.12323399573677D-15,72.5,-100.,-100.,72.5,-100.,          17P     16
-100.,72.5,-1.22464679914735D-14,-3.14159265358979,                   17P     17
3.14159265358979,0.,0.,0.;                                            17P     18
126,1,1,0,0,1,0,-0.725,-0.725,0.,0.,1.,1.,-100.,72.5,0.,-100.,        19P     19
0.,0.,-0.725,0.,0.,0.,0.;                                             19P     20
126,8,2,0,1,0,0,-3.14159265358979,-3.14159265358979,                  21P     21
-3.14159265358979,-1.5707963267949,-1.5707963267949,0.,0.,            21P     22
1.5707963267949,1.5707963267949,3.14159265358979,                     21P     23
3.14159265358979,3.14159265358979,1.,0.707106781186548,1.,            21P     24
0.707106781186548,1.,0.707106781186548,1.,0.707106781186548,1.,       21P     25
-100.,0.,1.22464679914735D-14,-100.,0.,100.,                          21P     26
6.12323399573677D-15,0.,100.,100.,0.,100.,100.,0.,0.,100.,0.,         21P     27
-100.,6.12323399573677D-15,0.,-100.,-100.,0.,-100.,-100.,0.,          21P     28
-1.22464679914735D-14,-3.14159265358979,3.14159265358979,0.,0.,       21P     29
0.;                                                                   21P     30
128,1,8,1,2,0,1,0,0,1,0.,0.,0.725,0.725,-3.14159265358979,            23P     31
-3.14159265358979,-3.14159265358979,-1.5707963267949,                 23P     32
-1.5707963267949,0.,0.,1.5707963267949,1.5707963267949,               23P     33
3.14159265358979,3.14159265358979,3.14159265358979,1.,1.,             23P     34
0.707106781186548,0.707106781186548,1.,1.,0.707106781186548,          23P     35
0.707106781186548,1.,1.,0.707106781186548,0.707106781186548,1.,       23P     36
1.,0.707106781186548,0.707106781186548,1.,1.,-100.,72.5,0.,           23P     37
-100.,0.,0.,-100.,72.5,100.,-100.,0.,100.,0.,72.5,100.,0.,0.,         23P     38
100.,100.,72.5,100.,100.,0.,100.,100.,72.5,0.,100.,0.,0.,100.,        23P     39
72.5,-100.,100.,0.,-100.,0.,72.5,-100.,0.,0.,-100.,-100.,72.5,        23P     40
-100.,-100.,0.,-100.,-100.,72.5,0.,-100.,0.,0.,0.,0.725,              23P     41
-3.14159265358979,3.14159265358979;                                   23P     42
128,1,1,1,1,0,0,1,0,0,-10.001,-10.001,10.001,10.001,-10.001,          25P     43
-10.001,10.001,10.001,1.,1.,1.,1.,-100.01,72.5,100.01,100.01,         25P     44
72.5,100.01,-100.01,72.5,-100.01,100.01,72.5,-100.01,-10.001,         25P     45
10.001,-10.001,10.001;                                                25P     46
128,1,1,1,1,0,0,1,0,0,-10.001,-10.001,10.001,10.001,-10.001,          27P     47
-10.001,10.001,10.001,1.,1.,1.,1.,100.01,0.,100.01,-100.01,0.,        27P     48
100.01,100.01,0.,-100.01,-100.01,0.,-100.01,-10.001,10.001,           27P     49
-10.001,10.001;                                                       27P     50
502,2,-100.,72.5,1.22464679914735D-14,-100.,0.,                       29P     51
1.22464679914735D-14;                                                 29P     52
504,3,17,29,1,29,1,19,29,1,29,2,21,29,2,29,2;                         31P     53
406,1,5HBody1;                                                        33P     54
314,62.7450980392157,62.7450980392157,62.7450980392157,13HSteel       35P     55
- Satin;                                                              35P     56
S      1G      3D     36P     56                                        T      1
