0
SECTION
2
HEADER
9
$INSUNITS
70
4
9
$ACADVER
1
AC1014
9
$HANDSEED
5
FFFF
0
ENDSEC
0
SECTION
2
TABLES
0
TABLE
2
VPORT
5
8
100
AcDbSymbolTable
0
ENDTAB
0
TABLE
2
LTYPE
5
5
100
AcDbSymbolTable
0
LTYPE
5
14
100
AcDbSymbolTableRecord
100
AcDbLinetypeTableRecord
2
BYBLOCK
70
0
0
LTYPE
5
15
100
AcDbSymbolTableRecord
100
AcDbLinetypeTableRecord
2
BYLAYER
70
0
0
LTYPE
5
16
100
AcDbSymbolTableRecord
100
AcDbLinetypeTableRecord
2
DASHED
70
0
3
Dashed __ __ __ __ __ __ __ __ __ __ __ __ __ _
72
65
73
2
40
0.75
49
0.5
74
0
49
-0.25
74
0
0
ENDTAB
0
TABLE
2
LAYER
5
2
100
AcDbSymbolTable
70
2
0
LAYER
5
50
100
AcDbSymbolTableRecord
100
AcDbLayerTableRecord
2
0
70
0
62
7
6
CONTINUOUS
0
ENDTAB
0
TABLE
2
STYLE
5
3
100
AcDbSymbolTable
70
1
0
STYLE
5
11
100
AcDbSymbolTableRecord
100
AcDbTextStyleTableRecord
2
STANDARD
70
0
0
ENDTAB
0
TABLE
2
VIEW
5
6
100
AcDbSymbolTable
70
0
0
ENDTAB
0
TABLE
2
UCS
5
7
100
AcDbSymbolTable
70
0
0
ENDTAB
0
TABLE
2
APPID
5
9
100
AcDbSymbolTable
70
2
0
APPID
5
12
100
AcDbSymbolTableRecord
100
AcDbRegAppTableRecord
2
ACAD
70
0
0
ENDTAB
0
TABLE
2
DIMSTYLE
5
A
100
AcDbSymbolTable
70
1
0
ENDTAB
0
TABLE
2
BLOCK_RECORD
5
1
100
AcDbSymbolTable
70
1
0
BLOCK_RECORD
5
1F
100
AcDbSymbolTableRecord
100
AcDbBlockTableRecord
2
*MODEL_SPACE
0
BLOCK_RECORD
5
1B
100
AcDbSymbolTableRecord
100
AcDbBlockTableRecord
2
*PAPER_SPACE
0
ENDTAB
0
ENDSEC
0
SECTION
2
BLOCKS
0
BLOCK
5
20
100
AcDbEntity
100
AcDbBlockBegin
2
*MODEL_SPACE
0
ENDBLK
5
21
100
AcDbEntity
100
AcDbBlockEnd
0
BLOCK
5
1C
100
AcDbEntity
100
AcDbBlockBegin
2
*PAPER_SPACE
0
ENDBLK
5
1D
100
AcDbEntity
100
AcDbBlockEnd
0
ENDSEC
0
SECTION
2
ENTITIES
0
LWPOLYLINE
5
100
100
AcDbEntity
8
0
100
AcDbPolyline
90
4
70
1
43
0.0
10
-7.0000000000000009
20
29.250000000000004
10
-7.0000000000000009
20
26.750000000000004
10
-85.000000000000014
20
26.750000000000004
10
-85.000000000000014
20
29.250000000000004
0
LWPOLYLINE
5
101
100
AcDbEntity
8
0
100
AcDbPolyline
90
8
70
1
43
0.0
10
-83.500000000000014
20
52.500000000000007
42
0.41421356237309503
10
-88.500000000000014
20
47.500000000000007
10
-88.500000000000014
20
8.5
42
0.41421356237309326
10
-83.500000000000014
20
3.4999999999999964
10
-8.4999999999999964
20
3.5000000000000009
42
0.41421356237309492
10
-3.5000000000000009
20
8.5000000000000071
10
-3.4999999999999964
20
47.500000000000007
42
0.41421356237309581
10
-8.4999999999999982
20
52.500000000000014
0
LINE
5
102
100
AcDbEntity
8
0
100
AcDbLine
10
-3.4999999999999987
20
37.110820161286277
30
0
11
-18.951982399577023
21
52.500000000000014
31
0
0
LINE
5
103
100
AcDbEntity
8
0
100
AcDbLine
10
-73.000001087784767
20
52.500000000000014
30
0
11
-88.500000000000014
21
33.854752700565996
31
0
0
LINE
5
104
100
AcDbEntity
8
0
100
AcDbLine
10
-88.500000000000014
20
16.000000238418579
30
0
11
-69.796728132362929
21
3.4999999999999987
31
0
0
LINE
5
105
100
AcDbEntity
8
0
100
AcDbLine
10
-23.000000342726707
20
3.4999999999999987
30
0
11
-3.4999999999999987
21
18.242326670958498
31
0
0
LWPOLYLINE
5
106
100
AcDbEntity
8
0
100
AcDbPolyline
90
4
70
1
43
0.0
10
-3.4999999999999987
20
28.000000000000007
10
-46.000000000000007
20
3.4999999999999964
10
-88.500000000000014
20
28.000000000000007
10
-46.000000000000007
20
52.500000000000014
0
LINE
5
107
100
AcDbEntity
8
0
100
AcDbLine
10
-24.750000000000007
20
40.250000000000014
30
0
11
-67.250000000000014
21
40.250000000000014
31
0
0
LINE
5
108
100
AcDbEntity
8
0
100
AcDbLine
10
-67.250000000000014
20
15.750000000000002
30
0
11
-24.750000000000007
21
15.750000000000002
31
0
0
LINE
5
109
100
AcDbEntity
8
0
100
AcDbLine
10
-85.000000000000014
20
26.750000000000004
30
0
11
-85.000000000000014
21
25.899999421089888
31
0
0
LINE
5
110
100
AcDbEntity
8
0
100
AcDbLine
10
-85.000000000000014
20
25.899999421089888
30
0
11
-85.000000000000014
21
30.099999327212572
31
0
0
LINE
5
111
100
AcDbEntity
8
0
100
AcDbLine
10
-7.0000000000000009
20
26.750000000000004
30
0
11
-7.0000000000000009
21
25.799999423325062
31
0
0
LINE
5
112
100
AcDbEntity
8
0
100
AcDbLine
10
-7.0000000000000009
20
25.799999423325062
30
0
11
-7.0000000000000009
21
30.199999324977398
31
0
0
LINE
5
113
100
AcDbEntity
8
0
100
AcDbLine
10
-85.000000000000014
20
29.250000000000004
30
0
11
-46.000000000000014
21
40.250000000000014
31
0
0
LINE
5
114
100
AcDbEntity
8
0
100
AcDbLine
10
-7.0000000000000009
20
29.250000000000004
30
0
11
-46.000000000000014
21
40.250000000000014
31
0
0
LINE
5
115
100
AcDbEntity
8
0
100
AcDbLine
10
-85.000000000000014
20
26.750000000000004
30
0
11
-46.000000000000014
21
15.750000000000002
31
0
0
LINE
5
116
100
AcDbEntity
8
0
100
AcDbLine
10
-46.000000000000014
20
15.750000000000002
30
0
11
-7.0000000000000009
21
26.750000000000004
31
0
0
LINE
5
117
100
AcDbEntity
8
0
100
AcDbLine
10
-26.500000000000007
20
21.25
30
0
11
-65.500000000000014
21
21.25
31
0
0
LINE
5
118
100
AcDbEntity
8
0
100
AcDbLine
10
-65.500000000000014
20
34.750000000000007
30
0
11
-26.500000000000007
21
34.750000000000007
31
0
0
ENDSEC
0
SECTION
2
OBJECTS
0
DICTIONARY
5
C
100
AcDbDictionary
3
ACAD_GROUP
350
D
3
ACAD_MLINESTYLE
350
17
0
DICTIONARY
5
D
100
AcDbDictionary
0
DICTIONARY
5
1A
330
C
100
AcDbDictionary
0
DICTIONARY
5
17
100
AcDbDictionary
0
ENDSEC
0
EOF
