0
SECTION
2
HEADER
9
$INSUNITS
70
4
9
$ACADVER
1
AC1014
9
$HANDSEED
5
FFFF
0
ENDSEC
0
SECTION
2
TABLES
0
TABLE
2
VPORT
5
8
100
AcDbSymbolTable
0
ENDTAB
0
TABLE
2
LTYPE
5
5
100
AcDbSymbolTable
0
LTYPE
5
14
100
AcDbSymbolTableRecord
100
AcDbLinetypeTableRecord
2
BYBLOCK
70
0
0
LTYPE
5
15
100
AcDbSymbolTableRecord
100
AcDbLinetypeTableRecord
2
BYLAYER
70
0
0
LTYPE
5
16
100
AcDbSymbolTableRecord
100
AcDbLinetypeTableRecord
2
DASHED
70
0
3
Dashed __ __ __ __ __ __ __ __ __ __ __ __ __ _
72
65
73
2
40
0.75
49
0.5
74
0
49
-0.25
74
0
0
ENDTAB
0
TABLE
2
LAYER
5
2
100
AcDbSymbolTable
70
2
0
LAYER
5
50
100
AcDbSymbolTableRecord
100
AcDbLayerTableRecord
2
0
70
0
62
7
6
CONTINUOUS
0
ENDTAB
0
TABLE
2
STYLE
5
3
100
AcDbSymbolTable
70
1
0
STYLE
5
11
100
AcDbSymbolTableRecord
100
AcDbTextStyleTableRecord
2
STANDARD
70
0
0
ENDTAB
0
TABLE
2
VIEW
5
6
100
AcDbSymbolTable
70
0
0
ENDTAB
0
TABLE
2
UCS
5
7
100
AcDbSymbolTable
70
0
0
ENDTAB
0
TABLE
2
APPID
5
9
100
AcDbSymbolTable
70
2
0
APPID
5
12
100
AcDbSymbolTableRecord
100
AcDbRegAppTableRecord
2
ACAD
70
0
0
ENDTAB
0
TABLE
2
DIMSTYLE
5
A
100
AcDbSymbolTable
70
1
0
ENDTAB
0
TABLE
2
BLOCK_RECORD
5
1
100
AcDbSymbolTable
70
1
0
BLOCK_RECORD
5
1F
100
AcDbSymbolTableRecord
100
AcDbBlockTableRecord
2
*MODEL_SPACE
0
BLOCK_RECORD
5
1B
100
AcDbSymbolTableRecord
100
AcDbBlockTableRecord
2
*PAPER_SPACE
0
ENDTAB
0
ENDSEC
0
SECTION
2
BLOCKS
0
BLOCK
5
20
100
AcDbEntity
100
AcDbBlockBegin
2
*MODEL_SPACE
0
ENDBLK
5
21
100
AcDbEntity
100
AcDbBlockEnd
0
BLOCK
5
1C
100
AcDbEntity
100
AcDbBlockBegin
2
*PAPER_SPACE
0
ENDBLK
5
1D
100
AcDbEntity
100
AcDbBlockEnd
0
ENDSEC
0
SECTION
2
ENTITIES
0
LWPOLYLINE
5
100
100
AcDbEntity
8
0
100
AcDbPolyline
90
4
70
1
43
0.0
10
85.000000000000014
20
31.250000000000004
10
85.000000000000014
20
24.75
10
7.0000000000000018
20
24.75
10
7.0000000000000018
20
31.250000000000004
0
LWPOLYLINE
5
101
100
AcDbEntity
8
0
100
AcDbPolyline
90
8
70
1
43
0.0
10
5
20
0
10
87.000000000000014
20
0
42
0.41421356237309503
10
92.000000000000014
20
5
10
92.000000000000014
20
51.000000000000007
42
0.41421356237309503
10
87.000000000000014
20
56.000000000000007
10
5
20
56.000000000000007
42
0.41421356237309503
10
0
20
51.000000000000007
10
0
20
5
42
0.41421356237309503
0
SPLINE
5
102
100
AcDbEntity
8
0
100
AcDbSpline
70
4
71
3
72
8
73
4
74
0
42
0.000000001
43
0.0000000001
44
0.0000000001
40
0
40
0
40
0
40
0
40
1
40
1
40
1
40
1
41
1
41
1
41
1
41
1
10
69.403379479408642
20
34.495899083134418
30
0
10
69.510800312741978
20
34.53664491646775
30
0
10
69.651558646075301
20
34.640361583134421
30
0
10
69.814541979408645
20
34.799640749801085
30
0
0
SPLINE
5
103
100
AcDbEntity
8
0
100
AcDbSpline
70
4
71
3
72
8
73
4
74
0
42
0.000000001
43
0.0000000001
44
0.0000000001
40
0
40
0
40
0
40
0
40
1
40
1
40
1
40
1
41
1
41
1
41
1
41
1
10
69.814541979408645
20
34.799640749801085
30
0
10
70.044200312741964
20
35.029299083134418
30
0
10
70.33312531274197
20
35.521953249801086
30
0
10
74.959629479408648
20
43.526657416467749
30
0
0
SPLINE
5
104
100
AcDbEntity
8
0
100
AcDbSpline
70
4
71
3
72
8
73
4
74
0
42
0.000000001
43
0.0000000001
44
0.0000000001
40
0
40
0
40
0
40
0
40
1
40
1
40
1
40
1
41
1
41
1
41
1
41
1
10
74.959629479408648
20
43.526657416467749
30
0
10
77.656262812741971
20
48.190203249801087
30
0
10
79.900987812741974
20
52.098099083134422
30
0
10
79.949141979408637
20
52.212928249801095
30
0
0
SPLINE
5
105
100
AcDbEntity
8
0
100
AcDbSpline
70
4
71
3
72
8
73
4
74
0
42
0.000000001
43
0.0000000001
44
0.0000000001
40
0
40
0
40
0
40
0
40
1
40
1
40
1
40
1
41
1
41
1
41
1
41
1
10
79.949141979408637
20
52.212928249801095
30
0
10
80.049154479408628
20
52.457403249801089
30
0
10
80.060266979408652
20
52.824115749801088
30
0
10
79.975071146075308
20
53.072294916467754
30
0
0
SPLINE
5
106
100
AcDbEntity
8
0
100
AcDbSpline
70
4
71
3
72
8
73
4
74
0
42
0.000000001
43
0.0000000001
44
0.0000000001
40
0
40
0
40
0
40
0
40
1
40
1
40
1
40
1
41
1
41
1
41
1
41
1
10
79.975071146075308
20
53.072294916467754
30
0
10
79.900987812741974
20
53.29454491646775
30
0
10
79.715779479408639
20
53.505682416467756
30
0
10
79.48241697940864
20
53.631624083134419
30
0
0
SPLINE
5
107
100
AcDbEntity
8
0
100
AcDbSpline
70
4
71
3
72
8
73
4
74
0
42
0.000000001
43
0.0000000001
44
0.0000000001
40
0
40
0
40
0
40
0
40
1
40
1
40
1
40
1
41
1
41
1
41
1
41
1
10
79.48241697940864
20
53.631624083134419
30
0
10
79.078662812741968
20
53.853874083134421
30
0
10
79.686146146075302
20
53.842761583134418
30
0
10
68.955175312741972
20
53.842761583134418
30
0
0
SPLINE
5
108
100
AcDbEntity
8
0
100
AcDbSpline
70
4
71
3
72
8
73
4
74
0
42
0.000000001
43
0.0000000001
44
0.0000000001
40
0
40
0
40
0
40
0
40
1
40
1
40
1
40
1
41
1
41
1
41
1
41
1
10
68.955175312741972
20
53.842761583134418
30
0
10
62.498812812741974
20
53.842761583134418
30
0
10
59.04652947940864
20
53.831649083134423
30
0
10
58.920587812741971
20
53.805719916467751
30
0
0
SPLINE
5
109
100
AcDbEntity
8
0
100
AcDbSpline
70
4
71
3
72
8
73
4
74
0
42
0.000000001
43
0.0000000001
44
0.0000000001
40
0
40
0
40
0
40
0
40
1
40
1
40
1
40
1
41
1
41
1
41
1
41
1
10
58.920587812741971
20
53.805719916467751
30
0
10
58.483496146075296
20
53.724228249801087
30
0
10
58.139008646075311
20
53.47604908313442
30
0
10
57.979729479408633
20
53.138969916467751
30
0
0
SPLINE
5
110
100
AcDbEntity
8
0
100
AcDbSpline
70
4
71
3
72
8
73
4
74
0
42
0.000000001
43
0.0000000001
44
0.0000000001
40
0
40
0
40
0
40
0
40
1
40
1
40
1
40
1
41
1
41
1
41
1
41
1
10
57.979729479408633
20
53.138969916467751
30
0
10
57.879716979408627
20
52.920424083134421
30
0
10
57.879716979408627
20
52.527782416467744
30
0
10
57.983433646075312
20
52.268490749801089
30
0
0
SPLINE
5
111
100
AcDbEntity
8
0
100
AcDbSpline
70
4
71
3
72
8
73
4
74
0
42
0.000000001
43
0.0000000001
44
0.0000000001
40
0
40
0
40
0
40
0
40
1
40
1
40
1
40
1
41
1
41
1
41
1
41
1
10
57.983433646075312
20
52.268490749801089
30
0
10
58.020475312741972
20
52.164774083134418
30
0
10
60.287425312741973
20
48.23835741646775
30
0
10
63.017396146075306
20
43.545178249801083
30
0
0
SPLINE
5
112
100
AcDbEntity
8
0
100
AcDbSpline
70
4
71
3
72
8
73
4
74
0
42
0.000000001
43
0.0000000001
44
0.0000000001
40
0
40
0
40
0
40
0
40
1
40
1
40
1
40
1
41
1
41
1
41
1
41
1
10
63.017396146075306
20
43.545178249801083
30
0
10
68.447704479408628
20
34.195861583134423
30
0
10
68.151371146075306
20
34.677403249801088
30
0
10
68.599575312741976
20
34.510715749801086
30
0
0
SPLINE
5
113
100
AcDbEntity
8
0
100
AcDbSpline
70
4
71
3
72
8
73
4
74
0
42
0.000000001
43
0.0000000001
44
0.0000000001
40
0
40
0
40
0
40
0
40
1
40
1
40
1
40
1
41
1
41
1
41
1
41
1
10
68.599575312741976
20
34.510715749801086
30
0
10
68.851458646075315
20
34.418111583134419
30
0
10
69.162608646075313
20
34.414407416467753
30
0
10
69.403379479408642
20
34.495899083134418
30
0
0
SPLINE
5
114
100
AcDbEntity
8
0
100
AcDbSpline
70
4
71
3
72
8
73
4
74
0
42
0.000000001
43
0.0000000001
44
0.0000000001
40
0
40
0
40
0
40
0
40
1
40
1
40
1
40
1
41
1
41
1
41
1
41
1
10
68.614391979408651
20
34.688515749801084
30
0
10
68.529196146075307
20
34.725557416467751
30
0
10
68.384733646075304
20
34.832978249801087
30
0
10
68.292129479408629
20
34.925582416467755
30
0
0
SPLINE
5
115
100
AcDbEntity
8
0
100
AcDbSpline
70
4
71
3
72
8
73
4
74
0
42
0.000000001
43
0.0000000001
44
0.0000000001
40
0
40
0
40
0
40
0
40
1
40
1
40
1
40
1
41
1
41
1
41
1
41
1
10
68.292129479408629
20
34.925582416467755
30
0
10
68.173596146075312
20
35.051524083134417
30
0
10
66.769716979408642
20
37.43700741646775
30
0
10
63.16926697940864
20
43.626669916467755
30
0
0
SPLINE
5
116
100
AcDbEntity
8
0
100
AcDbSpline
70
4
71
3
72
8
73
4
74
0
42
0.000000001
43
0.0000000001
44
0.0000000001
40
0
40
0
40
0
40
0
40
1
40
1
40
1
40
1
41
1
41
1
41
1
41
1
10
63.16926697940864
20
43.626669916467755
30
0
10
60.443000312741972
20
48.319849083134415
30
0
10
58.176050312741978
20
52.246265749801083
30
0
10
58.139008646075311
20
52.357390749801084
30
0
0
SPLINE
5
117
100
AcDbEntity
8
0
100
AcDbSpline
70
4
71
3
72
8
73
4
74
0
42
0.000000001
43
0.0000000001
44
0.0000000001
40
0
40
0
40
0
40
0
40
1
40
1
40
1
40
1
41
1
41
1
41
1
41
1
10
58.139008646075311
20
52.357390749801084
30
0
10
57.953800312741976
20
52.890790749801084
30
0
10
58.190866979408625
20
53.390853249801083
30
0
10
58.716858646075295
20
53.572357416467753
30
0
0
SPLINE
5
118
100
AcDbEntity
8
0
100
AcDbSpline
70
4
71
3
72
8
73
4
74
0
42
0.000000001
43
0.0000000001
44
0.0000000001
40
0
40
0
40
0
40
0
40
1
40
1
40
1
40
1
41
1
41
1
41
1
41
1
10
58.716858646075295
20
53.572357416467753
30
0
10
58.890954479408634
20
53.635328249801084
30
0
10
59.457691979408636
20
53.639032416467749
30
0
10
68.958879479408637
20
53.639032416467749
30
0
0
SPLINE
5
119
100
AcDbEntity
8
0
100
AcDbSpline
70
4
71
3
72
8
73
4
74
0
42
0.000000001
43
0.0000000001
44
0.0000000001
40
0
40
0
40
0
40
0
40
1
40
1
40
1
40
1
41
1
41
1
41
1
41
1
10
68.958879479408637
20
53.639032416467749
30
0
10
78.511925312741965
20
53.639032416467757
30
0
10
79.026804479408639
20
53.635328249801084
30
0
10
79.204604479408644
20
53.572357416467753
30
0
0
SPLINE
5
120
100
AcDbEntity
8
0
100
AcDbSpline
70
4
71
3
72
8
73
4
74
0
42
0.000000001
43
0.0000000001
44
0.0000000001
40
0
40
0
40
0
40
0
40
1
40
1
40
1
40
1
41
1
41
1
41
1
41
1
10
79.204604479408644
20
53.572357416467753
30
0
10
79.437966979408642
20
53.490865749801088
30
0
10
79.678737812741971
20
53.290840749801092
30
0
10
79.782454479408642
20
53.087111583134423
30
0
0
SPLINE
5
121
100
AcDbEntity
8
0
100
AcDbSpline
70
4
71
3
72
8
73
4
74
0
42
0.000000001
43
0.0000000001
44
0.0000000001
40
0
40
0
40
0
40
0
40
1
40
1
40
1
40
1
41
1
41
1
41
1
41
1
10
79.782454479408642
20
53.087111583134423
30
0
10
79.882466979408633
20
52.898199083134415
30
0
10
79.889875312741964
20
52.490740749801084
30
0
10
79.793566979408638
20
52.272194916467754
30
0
0
SPLINE
5
122
100
AcDbEntity
8
0
100
AcDbSpline
70
4
71
3
72
8
73
4
74
0
42
0.000000001
43
0.0000000001
44
0.0000000001
40
0
40
0
40
0
40
0
40
1
40
1
40
1
40
1
41
1
41
1
41
1
41
1
10
79.793566979408638
20
52.272194916467754
30
0
10
79.682441979408637
20
52.012903249801084
30
0
10
69.918258646075316
20
35.158944916467753
30
0
10
69.784908646075309
20
34.999665749801082
30
0
0
SPLINE
5
123
100
AcDbEntity
8
0
100
AcDbSpline
70
4
71
3
72
8
73
4
74
0
42
0.000000001
43
0.0000000001
44
0.0000000001
40
0
40
0
40
0
40
0
40
1
40
1
40
1
40
1
41
1
41
1
41
1
41
1
10
69.784908646075309
20
34.999665749801082
30
0
10
69.647854479408636
20
34.829274083134422
30
0
10
69.395971146075311
20
34.66258658313442
30
0
10
69.207058646075296
20
34.61443241646775
30
0
0
SPLINE
5
124
100
AcDbEntity
8
0
100
AcDbSpline
70
4
71
3
72
8
73
4
74
0
42
0.000000001
43
0.0000000001
44
0.0000000001
40
0
40
0
40
0
40
0
40
1
40
1
40
1
40
1
41
1
41
1
41
1
41
1
10
69.207058646075296
20
34.61443241646775
30
0
10
69.051483646075297
20
34.577390749801083
30
0
10
68.803304479408638
20
34.607024083134419
30
0
10
68.614391979408651
20
34.688515749801084
30
0
0
SPLINE
5
125
100
AcDbEntity
8
0
100
AcDbSpline
70
4
71
3
72
8
73
4
74
0
42
0.000000001
43
0.0000000001
44
0.0000000001
40
0
40
0
40
0
40
0
40
1
40
1
40
1
40
1
41
1
41
1
41
1
41
1
10
69.236691979408647
20
35.207099083134416
30
0
10
69.318183646075312
20
35.244140749801083
30
0
10
69.421900312741968
20
35.314519916467752
30
0
10
69.466350312741966
20
35.362674083134415
30
0
0
SPLINE
5
126
100
AcDbEntity
8
0
100
AcDbSpline
70
4
71
3
72
8
73
4
74
0
42
0.000000001
43
0.0000000001
44
0.0000000001
40
0
40
0
40
0
40
0
40
1
40
1
40
1
40
1
41
1
41
1
41
1
41
1
10
69.466350312741966
20
35.362674083134415
30
0
10
69.603404479408638
20
35.514544916467756
30
0
10
79.252758646075307
20
52.21663241646776
30
0
10
79.278687812741978
20
52.346278249801088
30
0
0
SPLINE
5
127
100
AcDbEntity
8
0
100
AcDbSpline
70
4
71
3
72
8
73
4
74
0
42
0.000000001
43
0.0000000001
44
0.0000000001
40
0
40
0
40
0
40
0
40
1
40
1
40
1
40
1
41
1
41
1
41
1
41
1
10
79.278687812741978
20
52.346278249801088
30
0
10
79.330546146075307
20
52.631499083134429
30
0
10
79.21571697940864
20
52.85745324980109
30
0
10
78.94901697940864
20
53.001915749801086
30
0
0
LINE
5
128
100
AcDbEntity
8
0
100
AcDbLine
10
78.94901697940864
20
53.0019157498011
30
0
11
78.793441979408641
21
53.08340741646775
31
0
0
LINE
5
129
100
AcDbEntity
8
0
100
AcDbLine
10
78.793441979408641
20
53.08340741646775
30
0
11
68.999625312741969
21
53.094519916467753
31
0
0
LINE
5
130
100
AcDbEntity
8
0
100
AcDbLine
10
68.999625312741969
20
53.094519916467753
30
0
11
59.205808646075297
21
53.101928249801091
31
0
0
LINE
5
131
100
AcDbEntity
8
0
100
AcDbLine
10
59.205808646075297
20
53.101928249801091
30
0
11
59.009487812741966
21
53.013028249801089
31
0
0
SPLINE
5
132
100
AcDbEntity
8
0
100
AcDbSpline
70
4
71
3
72
8
73
4
74
0
42
0.000000001
43
0.0000000001
44
0.0000000001
40
0
40
0
40
0
40
0
40
1
40
1
40
1
40
1
41
1
41
1
41
1
41
1
10
59.009487812741966
20
53.013028249801089
30
0
10
58.879841979408631
20
52.953761583134416
30
0
10
58.783533646075306
20
52.879678249801081
30
0
10
58.735379479408643
20
52.798186583134417
30
0
0
SPLINE
5
133
100
AcDbEntity
8
0
100
AcDbSpline
70
4
71
3
72
8
73
4
74
0
42
0.000000001
43
0.0000000001
44
0.0000000001
40
0
40
0
40
0
40
0
40
1
40
1
40
1
40
1
41
1
41
1
41
1
41
1
10
58.735379479408643
20
52.798186583134417
30
0
10
58.650183646075298
20
52.653724083134421
30
0
10
58.63907114607531
20
52.412953249801085
30
0
10
58.713154479408644
20
52.238857416467752
30
0
0
SPLINE
5
134
100
AcDbEntity
8
0
100
AcDbSpline
70
4
71
3
72
8
73
4
74
0
42
0.000000001
43
0.0000000001
44
0.0000000001
40
0
40
0
40
0
40
0
40
1
40
1
40
1
40
1
41
1
41
1
41
1
41
1
10
58.713154479408644
20
52.238857416467752
30
0
10
58.739083646075308
20
52.172182416467756
30
0
10
60.931950312741975
20
48.386524083134418
30
0
10
63.584133646075301
20
43.822990749801093
30
0
0
SPLINE
5
135
100
AcDbEntity
8
0
100
AcDbSpline
70
4
71
3
72
8
73
4
74
0
42
0.000000001
43
0.0000000001
44
0.0000000001
40
0
40
0
40
0
40
0
40
1
40
1
40
1
40
1
41
1
41
1
41
1
41
1
10
63.584133646075301
20
43.822990749801093
30
0
10
66.780829479408638
20
38.326007416467753
30
0
10
68.458816979408653
20
35.473799083134416
30
0
10
68.558829479408644
20
35.373786583134418
30
0
0
SPLINE
5
136
100
AcDbEntity
8
0
100
AcDbSpline
70
4
71
3
72
8
73
4
74
0
42
0.000000001
43
0.0000000001
44
0.0000000001
40
0
40
0
40
0
40
0
40
1
40
1
40
1
40
1
41
1
41
1
41
1
41
1
10
68.558829479408644
20
35.373786583134418
30
0
10
68.688475312741971
20
35.236732416467753
30
0
10
68.895908646075299
20
35.136719916467754
30
0
10
69.036666979408636
20
35.136719916467754
30
0
0
SPLINE
5
137
100
AcDbEntity
8
0
100
AcDbSpline
70
4
71
3
72
8
73
4
74
0
42
0.000000001
43
0.0000000001
44
0.0000000001
40
0
40
0
40
0
40
0
40
1
40
1
40
1
40
1
41
1
41
1
41
1
41
1
10
69.036666979408636
20
35.136719916467754
30
0
10
69.066300312741973
20
35.136719916467754
30
0
10
69.155200312741968
20
35.170057416467756
30
0
10
69.236691979408647
20
35.207099083134416
30
0
0
SPLINE
5
138
100
AcDbEntity
8
0
100
AcDbSpline
70
4
71
3
72
8
73
4
74
0
42
0.000000001
43
0.0000000001
44
0.0000000001
40
0
40
0
40
0
40
0
40
1
40
1
40
1
40
1
41
1
41
1
41
1
41
1
10
64.239771146075299
20
44.315644916467754
30
0
10
61.68019197940864
20
48.664336583134414
30
0
10
59.587337812741978
20
52.224040749801084
30
0
10
59.587337812741978
20
52.235153249801087
30
0
0
SPLINE
5
139
100
AcDbEntity
8
0
100
AcDbSpline
70
4
71
3
72
8
73
4
74
0
42
0.000000001
43
0.0000000001
44
0.0000000001
40
0
40
0
40
0
40
0
40
1
40
1
40
1
40
1
41
1
41
1
41
1
41
1
10
59.587337812741978
20
52.235153249801087
30
0
10
59.587337812741978
20
52.242561583134417
30
0
10
63.802679479408638
20
52.249969916467755
30
0
10
68.958879479408637
20
52.249969916467755
30
0
0
SPLINE
5
140
100
AcDbEntity
8
0
100
AcDbSpline
70
4
71
3
72
8
73
4
74
0
42
0.000000001
43
0.0000000001
44
0.0000000001
40
0
40
0
40
0
40
0
40
1
40
1
40
1
40
1
41
1
41
1
41
1
41
1
10
68.958879479408637
20
52.249969916467755
30
0
10
74.115079479408635
20
52.249969916467755
30
0
10
78.330421146075309
20
52.238857416467752
30
0
10
78.330421146075309
20
52.227744916467756
30
0
0
SPLINE
5
141
100
AcDbEntity
8
0
100
AcDbSpline
70
4
71
3
72
8
73
4
74
0
42
0.000000001
43
0.0000000001
44
0.0000000001
40
0
40
0
40
0
40
0
40
1
40
1
40
1
40
1
41
1
41
1
41
1
41
1
10
78.330421146075309
20
52.227744916467756
30
0
10
78.330421146075309
20
52.168478249801083
30
0
10
68.94035864607531
20
36.362799083134419
30
0
10
68.918133646075304
20
36.388728249801083
30
0
0
SPLINE
5
142
100
AcDbEntity
8
0
100
AcDbSpline
70
4
71
3
72
8
73
4
74
0
42
0.000000001
43
0.0000000001
44
0.0000000001
40
0
40
0
40
0
40
0
40
1
40
1
40
1
40
1
41
1
41
1
41
1
41
1
10
68.918133646075304
20
36.388728249801083
30
0
10
68.907021146075309
20
36.403544916467752
30
0
10
66.799350312741979
20
39.970657416467752
30
0
10
64.239771146075299
20
44.315644916467754
30
0
0
SPLINE
5
143
100
AcDbEntity
8
0
100
AcDbSpline
70
4
71
3
72
8
73
4
74
0
42
0.000000001
43
0.0000000001
44
0.0000000001
40
0
40
0
40
0
40
0
40
1
40
1
40
1
40
1
41
1
41
1
41
1
41
1
10
70.062721146075305
20
42.656178249801087
30
0
10
70.9517211460753
20
42.796936583134418
30
0
10
71.47771281274197
20
42.893244916467751
30
0
10
71.536979479408643
20
42.933990749801083
30
0
0
SPLINE
5
144
100
AcDbEntity
8
0
100
AcDbSpline
70
4
71
3
72
8
73
4
74
0
42
0.000000001
43
0.0000000001
44
0.0000000001
40
0
40
0
40
0
40
0
40
1
40
1
40
1
40
1
41
1
41
1
41
1
41
1
10
71.536979479408643
20
42.933990749801083
30
0
10
71.585133646075306
20
42.967328249801085
30
0
10
71.674033646075301
20
43.078453249801086
30
0
10
71.729596146075309
20
43.18216991646775
30
0
0
SPLINE
5
145
100
AcDbEntity
8
0
100
AcDbSpline
70
4
71
3
72
8
73
4
74
0
42
0.000000001
43
0.0000000001
44
0.0000000001
40
0
40
0
40
0
40
0
40
1
40
1
40
1
40
1
41
1
41
1
41
1
41
1
10
71.729596146075309
20
43.18216991646775
30
0
10
71.785158646075303
20
43.289590749801086
30
0
10
71.874058646075298
20
43.422940749801086
30
0
10
71.929621146075306
20
43.478503249801086
30
0
0
SPLINE
5
146
100
AcDbEntity
8
0
100
AcDbSpline
70
4
71
3
72
8
73
4
74
0
42
0.000000001
43
0.0000000001
44
0.0000000001
40
0
40
0
40
0
40
0
40
1
40
1
40
1
40
1
41
1
41
1
41
1
41
1
10
71.929621146075306
20
43.478503249801086
30
0
10
72.022225312741966
20
43.578515749801092
30
0
10
72.044450312741972
20
43.582219916467757
30
0
10
72.363008646075301
20
43.582219916467757
30
0
0
LINE
5
147
100
AcDbEntity
8
0
100
AcDbLine
10
72.363008646075301
20
43.582219916467757
30
0
11
72.70008781274197
21
43.582219916467757
31
0
0
LINE
5
148
100
AcDbEntity
8
0
100
AcDbLine
10
72.70008781274197
20
43.582219916467757
30
0
11
72.70008781274197
21
44.619386583134421
31
0
0
LINE
5
149
100
AcDbEntity
8
0
100
AcDbLine
10
72.70008781274197
20
44.619386583134421
30
0
11
72.70008781274197
21
45.656553249801078
31
0
0
LINE
5
150
100
AcDbEntity
8
0
100
AcDbLine
10
72.70008781274197
20
45.656553249801078
30
0
11
72.337079479408629
21
45.656553249801092
31
0
0
SPLINE
5
151
100
AcDbEntity
8
0
100
AcDbSpline
70
4
71
3
72
8
73
4
74
0
42
0.000000001
43
0.0000000001
44
0.0000000001
40
0
40
0
40
0
40
0
40
1
40
1
40
1
40
1
41
1
41
1
41
1
41
1
10
72.337079479408644
20
45.656553249801092
30
0
10
71.933325312741971
20
45.656553249801092
30
0
10
71.91850864607531
20
45.663961583134416
30
0
10
71.740708646075305
20
45.960294916467753
30
0
0
SPLINE
5
152
100
AcDbEntity
8
0
100
AcDbSpline
70
4
71
3
72
8
73
4
74
0
42
0.000000001
43
0.0000000001
44
0.0000000001
40
0
40
0
40
0
40
0
40
1
40
1
40
1
40
1
41
1
41
1
41
1
41
1
10
71.740708646075305
20
45.960294916467753
30
0
10
71.688850312741977
20
46.04549074980109
30
0
10
71.614766979408643
20
46.112165749801086
30
0
10
71.540683646075308
20
46.134390749801085
30
0
0
SPLINE
5
153
100
AcDbEntity
8
0
100
AcDbSpline
70
4
71
3
72
8
73
4
74
0
42
0.000000001
43
0.0000000001
44
0.0000000001
40
0
40
0
40
0
40
0
40
1
40
1
40
1
40
1
41
1
41
1
41
1
41
1
10
71.540683646075308
20
46.134390749801085
30
0
10
71.336954479408647
20
46.201065749801089
30
0
10
68.292129479408629
20
46.204769916467754
30
0
10
67.817996146075302
20
46.138094916467757
30
0
0
SPLINE
5
154
100
AcDbEntity
8
0
100
AcDbSpline
70
4
71
3
72
8
73
4
74
0
42
0.000000001
43
0.0000000001
44
0.0000000001
40
0
40
0
40
0
40
0
40
1
40
1
40
1
40
1
41
1
41
1
41
1
41
1
10
67.817996146075302
20
46.138094916467757
30
0
10
67.669829479408634
20
46.119574083134424
30
0
10
67.203104479408637
20
46.101053249801083
30
0
10
66.788237812741968
20
46.101053249801083
30
0
0
SPLINE
5
155
100
AcDbEntity
8
0
100
AcDbSpline
70
4
71
3
72
8
73
4
74
0
42
0.000000001
43
0.0000000001
44
0.0000000001
40
0
40
0
40
0
40
0
40
1
40
1
40
1
40
1
41
1
41
1
41
1
41
1
10
66.788237812741968
20
46.101053249801083
30
0
10
66.354850312741974
20
46.101053249801083
30
0
10
65.999250312741978
20
46.086236583134422
30
0
10
65.958504479408631
20
46.064011583134423
30
0
0
SPLINE
5
156
100
AcDbEntity
8
0
100
AcDbSpline
70
4
71
3
72
8
73
4
74
0
42
0.000000001
43
0.0000000001
44
0.0000000001
40
0
40
0
40
0
40
0
40
1
40
1
40
1
40
1
41
1
41
1
41
1
41
1
10
65.958504479408631
20
46.064011583134423
30
0
10
65.851083646075296
20
46.008449083134416
30
0
10
65.795521146075302
20
45.793607416467751
30
0
10
65.847379479408644
20
45.641736583134424
30
0
0
SPLINE
5
157
100
AcDbEntity
8
0
100
AcDbSpline
70
4
71
3
72
8
73
4
74
0
42
0.000000001
43
0.0000000001
44
0.0000000001
40
0
40
0
40
0
40
0
40
1
40
1
40
1
40
1
41
1
41
1
41
1
41
1
10
65.847379479408644
20
45.641736583134424
30
0
10
65.917758646075299
20
45.42319074980108
30
0
10
65.917758646075299
20
45.42319074980108
30
0
10
66.721562812741965
20
45.467640749801092
30
0
0
SPLINE
5
158
100
AcDbEntity
8
0
100
AcDbSpline
70
4
71
3
72
8
73
4
74
0
42
0.000000001
43
0.0000000001
44
0.0000000001
40
0
40
0
40
0
40
0
40
1
40
1
40
1
40
1
41
1
41
1
41
1
41
1
10
66.721562812741965
20
45.467640749801092
30
0
10
67.384608646075307
20
45.504682416467752
30
0
10
67.52166281274198
20
45.500978249801079
30
0
10
67.473508646075302
20
45.456528249801089
30
0
0
SPLINE
5
159
100
AcDbEntity
8
0
100
AcDbSpline
70
4
71
3
72
8
73
4
74
0
42
0.000000001
43
0.0000000001
44
0.0000000001
40
0
40
0
40
0
40
0
40
1
40
1
40
1
40
1
41
1
41
1
41
1
41
1
10
67.473508646075302
20
45.456528249801089
30
0
10
67.466100312741972
20
45.449119916467751
30
0
10
67.00307947940864
20
45.426894916467752
30
0
10
66.443750312741969
20
45.404669916467753
30
0
0
SPLINE
5
160
100
AcDbEntity
8
0
100
AcDbSpline
70
4
71
3
72
8
73
4
74
0
42
0.000000001
43
0.0000000001
44
0.0000000001
40
0
40
0
40
0
40
0
40
1
40
1
40
1
40
1
41
1
41
1
41
1
41
1
10
66.443750312741969
20
45.404669916467753
30
0
10
65.458441979408647
20
45.371332416467752
30
0
10
65.425104479408645
20
45.367628249801086
30
0
10
65.358429479408642
20
45.286136583134422
30
0
0
SPLINE
5
161
100
AcDbEntity
8
0
100
AcDbSpline
70
4
71
3
72
8
73
4
74
0
42
0.000000001
43
0.0000000001
44
0.0000000001
40
0
40
0
40
0
40
0
40
1
40
1
40
1
40
1
41
1
41
1
41
1
41
1
10
65.358429479408642
20
45.286136583134422
30
0
10
65.273233646075312
20
45.182419916467751
30
0
10
65.269529479408646
20
44.926832416467747
30
0
10
65.351021146075311
20
44.808299083134422
30
0
0
LINE
5
162
100
AcDbEntity
8
0
100
AcDbLine
10
65.351021146075311
20
44.808299083134422
30
0
11
65.413991979408635
21
44.719399083134419
31
0
0
LINE
5
163
100
AcDbEntity
8
0
100
AcDbLine
10
65.413991979408635
20
44.719399083134419
30
0
11
66.380779479408631
21
44.741624083134425
31
0
0
SPLINE
5
164
100
AcDbEntity
8
0
100
AcDbSpline
70
4
71
3
72
8
73
4
74
0
42
0.000000001
43
0.0000000001
44
0.0000000001
40
0
40
0
40
0
40
0
40
1
40
1
40
1
40
1
41
1
41
1
41
1
41
1
10
66.380779479408631
20
44.741624083134411
30
0
10
66.962333646075308
20
44.752736583134421
30
0
10
67.206808646075302
20
44.749032416467749
30
0
10
66.99567114607531
20
44.730511583134422
30
0
0
SPLINE
5
165
100
AcDbEntity
8
0
100
AcDbSpline
70
4
71
3
72
8
73
4
74
0
42
0.000000001
43
0.0000000001
44
0.0000000001
40
0
40
0
40
0
40
0
40
1
40
1
40
1
40
1
41
1
41
1
41
1
41
1
10
66.99567114607531
20
44.730511583134422
30
0
10
66.803054479408644
20
44.715694916467754
30
0
10
66.262246146075313
20
44.700878249801086
30
0
10
65.799225312741967
20
44.697174083134421
30
0
0
LINE
5
166
100
AcDbEntity
8
0
100
AcDbLine
10
65.799225312741967
20
44.697174083134414
30
0
11
64.954675312741969
21
44.693469916467748
31
0
0
LINE
5
167
100
AcDbEntity
8
0
100
AcDbLine
10
64.954675312741969
20
44.693469916467748
30
0
11
64.865775312741974
21
44.600865749801088
31
0
0
SPLINE
5
168
100
AcDbEntity
8
0
100
AcDbSpline
70
4
71
3
72
8
73
4
74
0
42
0.000000001
43
0.0000000001
44
0.0000000001
40
0
40
0
40
0
40
0
40
1
40
1
40
1
40
1
41
1
41
1
41
1
41
1
10
64.86577531274196
20
44.600865749801088
30
0
10
64.754650312741973
20
44.493444916467752
30
0
10
64.739833646075311
20
44.241561583134427
30
0
10
64.836141979408637
20
44.104507416467754
30
0
0
LINE
5
169
100
AcDbEntity
8
0
100
AcDbLine
10
64.836141979408652
20
44.104507416467754
30
0
11
64.89540864607531
21
44.015607416467752
31
0
0
LINE
5
170
100
AcDbEntity
8
0
100
AcDbLine
10
64.89540864607531
20
44.015607416467752
30
0
11
66.039996146075296
21
44.041536583134416
31
0
0
SPLINE
5
171
100
AcDbEntity
8
0
100
AcDbSpline
70
4
71
3
72
8
73
4
74
0
42
0.000000001
43
0.0000000001
44
0.0000000001
40
0
40
0
40
0
40
0
40
1
40
1
40
1
40
1
41
1
41
1
41
1
41
1
10
66.03999614607531
20
44.041536583134416
30
0
10
66.725266979408644
20
44.056353249801091
30
0
10
67.180879479408645
20
44.052649083134419
30
0
10
67.180879479408645
20
44.034128249801086
30
0
0
SPLINE
5
172
100
AcDbEntity
8
0
100
AcDbSpline
70
4
71
3
72
8
73
4
74
0
42
0.000000001
43
0.0000000001
44
0.0000000001
40
0
40
0
40
0
40
0
40
1
40
1
40
1
40
1
41
1
41
1
41
1
41
1
10
67.180879479408645
20
44.034128249801086
30
0
10
67.180879479408645
20
43.993382416467753
30
0
10
66.854912812741972
20
43.963749083134417
30
0
10
66.036291979408631
20
43.930411583134415
30
0
0
SPLINE
5
173
100
AcDbEntity
8
0
100
AcDbSpline
70
4
71
3
72
8
73
4
74
0
42
0.000000001
43
0.0000000001
44
0.0000000001
40
0
40
0
40
0
40
0
40
1
40
1
40
1
40
1
41
1
41
1
41
1
41
1
10
66.036291979408631
20
43.930411583134415
30
0
10
65.365837812741972
20
43.900778249801093
30
0
10
65.328796146075305
20
43.882257416467752
30
0
10
65.328796146075305
20
43.589628249801081
30
0
0
SPLINE
5
174
100
AcDbEntity
8
0
100
AcDbSpline
70
4
71
3
72
8
73
4
74
0
42
0.000000001
43
0.0000000001
44
0.0000000001
40
0
40
0
40
0
40
0
40
1
40
1
40
1
40
1
41
1
41
1
41
1
41
1
10
65.328796146075305
20
43.589628249801081
30
0
10
65.328796146075305
20
43.493319916467748
30
0
10
65.354725312741976
20
43.378490749801088
30
0
10
65.380654479408648
20
43.337744916467749
30
0
0
SPLINE
5
175
100
AcDbEntity
8
0
100
AcDbSpline
70
4
71
3
72
8
73
4
74
0
42
0.000000001
43
0.0000000001
44
0.0000000001
40
0
40
0
40
0
40
0
40
1
40
1
40
1
40
1
41
1
41
1
41
1
41
1
10
65.380654479408648
20
43.337744916467749
30
0
10
65.436216979408641
20
43.263661583134414
30
0
10
65.462146146075298
20
43.259957416467749
30
0
10
67.058641979408634
20
43.256253249801091
30
0
0
SPLINE
5
176
100
AcDbEntity
8
0
100
AcDbSpline
70
4
71
3
72
8
73
4
74
0
42
0.000000001
43
0.0000000001
44
0.0000000001
40
0
40
0
40
0
40
0
40
1
40
1
40
1
40
1
41
1
41
1
41
1
41
1
10
67.058641979408634
20
43.256253249801091
30
0
10
67.992091979408642
20
43.252549083134411
30
0
10
68.858866979408646
20
43.267365749801087
30
0
10
69.099637812741975
20
43.289590749801086
30
0
0
SPLINE
5
177
100
AcDbEntity
8
0
100
AcDbSpline
70
4
71
3
72
8
73
4
74
0
42
0.000000001
43
0.0000000001
44
0.0000000001
40
0
40
0
40
0
40
0
40
1
40
1
40
1
40
1
41
1
41
1
41
1
41
1
10
69.099637812741975
20
43.289590749801086
30
0
10
69.329296146075308
20
43.311815749801085
30
0
10
69.525616979408639
20
43.322928249801087
30
0
10
69.536729479408635
20
43.315519916467757
30
0
0
SPLINE
5
178
100
AcDbEntity
8
0
100
AcDbSpline
70
4
71
3
72
8
73
4
74
0
42
0.000000001
43
0.0000000001
44
0.0000000001
40
0
40
0
40
0
40
0
40
1
40
1
40
1
40
1
41
1
41
1
41
1
41
1
10
69.536729479408635
20
43.315519916467757
30
0
10
69.54413781274198
20
43.304407416467754
30
0
10
69.388562812741966
20
43.252549083134411
30
0
10
69.192241979408649
20
43.193282416467753
30
0
0
SPLINE
5
179
100
AcDbEntity
8
0
100
AcDbSpline
70
4
71
3
72
8
73
4
74
0
42
0.000000001
43
0.0000000001
44
0.0000000001
40
0
40
0
40
0
40
0
40
1
40
1
40
1
40
1
41
1
41
1
41
1
41
1
10
69.192241979408649
20
43.193282416467753
30
0
10
68.777375312741981
20
43.078453249801086
30
0
10
68.669954479408645
20
43.000665749801087
30
0
10
68.551421146075313
20
42.722853249801091
30
0
0
SPLINE
5
180
100
AcDbEntity
8
0
100
AcDbSpline
70
4
71
3
72
8
73
4
74
0
42
0.000000001
43
0.0000000001
44
0.0000000001
40
0
40
0
40
0
40
0
40
1
40
1
40
1
40
1
41
1
41
1
41
1
41
1
10
68.551421146075313
20
42.722853249801091
30
0
10
68.462521146075304
20
42.511715749801084
30
0
10
68.473633646075299
20
42.433928249801092
30
0
10
68.595871146075311
20
42.43763241646775
30
0
0
SPLINE
5
181
100
AcDbEntity
8
0
100
AcDbSpline
70
4
71
3
72
8
73
4
74
0
42
0.000000001
43
0.0000000001
44
0.0000000001
40
0
40
0
40
0
40
0
40
1
40
1
40
1
40
1
41
1
41
1
41
1
41
1
10
68.595871146075311
20
42.43763241646775
30
0
10
68.644025312741974
20
42.441336583134415
30
0
10
69.303366979408636
20
42.537644916467755
30
0
10
70.062721146075305
20
42.656178249801087
30
0
0
SPLINE
5
182
100
AcDbEntity
8
0
100
AcDbSpline
70
4
71
3
72
8
73
4
74
0
42
0.000000001
43
0.0000000001
44
0.0000000001
40
0
40
0
40
0
40
0
40
1
40
1
40
1
40
1
41
1
41
1
41
1
41
1
10
68.6625461460753
20
43.422940749801086
30
0
10
68.658841979408635
20
43.441461583134419
30
0
10
68.788487812741977
20
43.89707408313442
30
0
10
68.947766979408641
20
44.441586583134416
30
0
0
LINE
5
183
100
AcDbEntity
8
0
100
AcDbLine
10
68.947766979408641
20
44.441586583134409
30
0
11
69.236691979408647
21
45.430599083134418
31
0
0
LINE
5
184
100
AcDbEntity
8
0
100
AcDbLine
10
69.236691979408647
20
45.430599083134418
30
0
11
69.247804479408643
21
44.463811583134422
31
0
0
SPLINE
5
185
100
AcDbEntity
8
0
100
AcDbSpline
70
4
71
3
72
8
73
4
74
0
42
0.000000001
43
0.0000000001
44
0.0000000001
40
0
40
0
40
0
40
0
40
1
40
1
40
1
40
1
41
1
41
1
41
1
41
1
10
69.247804479408643
20
44.463811583134422
30
0
10
69.251508646075308
20
43.930411583134415
30
0
10
69.247804479408643
20
43.489615749801089
30
0
10
69.236691979408647
20
43.478503249801086
30
0
0
SPLINE
5
186
100
AcDbEntity
8
0
100
AcDbSpline
70
4
71
3
72
8
73
4
74
0
42
0.000000001
43
0.0000000001
44
0.0000000001
40
0
40
0
40
0
40
0
40
1
40
1
40
1
40
1
41
1
41
1
41
1
41
1
10
69.236691979408647
20
43.478503249801086
30
0
10
69.225579479408637
20
43.467390749801083
30
0
10
69.107046146075305
20
43.445165749801085
30
0
10
68.966287812741967
20
43.434053249801082
30
0
0
SPLINE
5
187
100
AcDbEntity
8
0
100
AcDbSpline
70
4
71
3
72
8
73
4
74
0
42
0.000000001
43
0.0000000001
44
0.0000000001
40
0
40
0
40
0
40
0
40
1
40
1
40
1
40
1
41
1
41
1
41
1
41
1
10
68.966287812741967
20
43.434053249801082
30
0
10
68.829233646075309
20
43.41923658313442
30
0
10
68.706996146075312
20
43.404419916467759
30
0
10
68.688475312741971
20
43.400715749801087
30
0
0
SPLINE
5
188
100
AcDbEntity
8
0
100
AcDbSpline
70
4
71
3
72
8
73
4
74
0
42
0.000000001
43
0.0000000001
44
0.0000000001
40
0
40
0
40
0
40
0
40
1
40
1
40
1
40
1
41
1
41
1
41
1
41
1
10
68.688475312741971
20
43.400715749801087
30
0
10
68.67365864607531
20
43.400715749801087
30
0
10
68.6625461460753
20
43.408124083134425
30
0
10
68.6625461460753
20
43.422940749801086
30
0
0
SPLINE
5
189
100
AcDbEntity
8
0
100
AcDbSpline
70
4
71
3
72
8
73
4
74
0
42
0.000000001
43
0.0000000001
44
0.0000000001
40
0
40
0
40
0
40
0
40
1
40
1
40
1
40
1
41
1
41
1
41
1
41
1
10
67.847629479408639
20
43.430349083134416
30
0
10
67.847629479408639
20
43.445165749801085
30
0
10
67.988387812741976
20
43.900778249801093
30
0
10
68.162483646075302
20
44.437882416467751
30
0
0
LINE
5
190
100
AcDbEntity
8
0
100
AcDbLine
10
68.162483646075302
20
44.437882416467758
30
0
11
68.473633646075299
21
45.415782416467749
31
0
0
LINE
5
191
100
AcDbEntity
8
0
100
AcDbLine
10
68.473633646075299
20
45.415782416467749
30
0
11
68.473633646075299
21
44.934240749801084
31
0
0
SPLINE
5
192
100
AcDbEntity
8
0
100
AcDbSpline
70
4
71
3
72
8
73
4
74
0
42
0.000000001
43
0.0000000001
44
0.0000000001
40
0
40
0
40
0
40
0
40
1
40
1
40
1
40
1
41
1
41
1
41
1
41
1
10
68.473633646075299
20
44.934240749801084
30
0
10
68.477337812741979
20
44.667540749801084
30
0
10
68.466225312741969
20
44.215632416467756
30
0
10
68.451408646075308
20
43.923003249801091
30
0
0
LINE
5
193
100
AcDbEntity
8
0
100
AcDbLine
10
68.451408646075308
20
43.923003249801098
30
0
11
68.429183646075302
21
43.397011583134422
31
0
0
LINE
5
194
100
AcDbEntity
8
0
100
AcDbLine
10
68.429183646075302
20
43.397011583134422
30
0
11
68.13655447940863
21
43.397011583134422
31
0
0
SPLINE
5
195
100
AcDbEntity
8
0
100
AcDbSpline
70
4
71
3
72
8
73
4
74
0
42
0.000000001
43
0.0000000001
44
0.0000000001
40
0
40
0
40
0
40
0
40
1
40
1
40
1
40
1
41
1
41
1
41
1
41
1
10
68.13655447940863
20
43.397011583134422
30
0
10
67.977275312741966
20
43.397011583134422
30
0
10
67.847629479408639
20
43.41182824980109
30
0
10
67.847629479408639
20
43.430349083134416
30
0
0
SPLINE
5
196
100
AcDbEntity
8
0
100
AcDbSpline
70
4
71
3
72
8
73
4
74
0
42
0.000000001
43
0.0000000001
44
0.0000000001
40
0
40
0
40
0
40
0
40
1
40
1
40
1
40
1
41
1
41
1
41
1
41
1
10
67.325341979408634
20
43.434053249801082
30
0
10
67.225329479408643
20
43.434053249801082
30
0
10
67.232737812741973
20
43.663711583134422
30
0
10
67.34756697940864
20
44.204519916467753
30
0
0
SPLINE
5
197
100
AcDbEntity
8
0
100
AcDbSpline
70
4
71
3
72
8
73
4
74
0
42
0.000000001
43
0.0000000001
44
0.0000000001
40
0
40
0
40
0
40
0
40
1
40
1
40
1
40
1
41
1
41
1
41
1
41
1
10
67.34756697940864
20
44.204519916467753
30
0
10
67.473508646075302
20
44.789778249801088
30
0
10
67.773546146075304
20
45.926957416467751
30
0
10
67.814291979408637
20
45.96770324980109
30
0
0
SPLINE
5
198
100
AcDbEntity
8
0
100
AcDbSpline
70
4
71
3
72
8
73
4
74
0
42
0.000000001
43
0.0000000001
44
0.0000000001
40
0
40
0
40
0
40
0
40
1
40
1
40
1
40
1
41
1
41
1
41
1
41
1
10
67.814291979408637
20
45.96770324980109
30
0
10
67.858741979408634
20
46.015857416467753
30
0
10
67.8624461460753
20
46.05289908313442
30
0
10
67.755025312741978
20
44.767553249801082
30
0
0
SPLINE
5
199
100
AcDbEntity
8
0
100
AcDbSpline
70
4
71
3
72
8
73
4
74
0
42
0.000000001
43
0.0000000001
44
0.0000000001
40
0
40
0
40
0
40
0
40
1
40
1
40
1
40
1
41
1
41
1
41
1
41
1
10
67.755025312741978
20
44.767553249801082
30
0
10
67.632787812741967
20
43.293294916467751
30
0
10
67.647604479408642
20
43.382194916467753
30
0
10
67.506846146075304
20
43.41182824980109
30
0
0
SPLINE
5
200
100
AcDbEntity
8
0
100
AcDbSpline
70
4
71
3
72
8
73
4
74
0
42
0.000000001
43
0.0000000001
44
0.0000000001
40
0
40
0
40
0
40
0
40
1
40
1
40
1
40
1
41
1
41
1
41
1
41
1
10
67.506846146075304
20
43.41182824980109
30
0
10
67.44387531274198
20
43.422940749801086
30
0
10
67.362383646075301
20
43.434053249801082
30
0
10
67.325341979408634
20
43.434053249801082
30
0
0
LINE
5
201
100
AcDbEntity
8
0
100
AcDbLine
10
69.440421146075295
20
44.897199083134424
30
0
11
69.440421146075295
21
46.026969916467749
31
0
0
LINE
5
202
100
AcDbEntity
8
0
100
AcDbLine
10
69.440421146075295
20
46.026969916467749
30
0
11
69.736754479408631
21
46.026969916467749
31
0
0
SPLINE
5
203
100
AcDbEntity
8
0
100
AcDbSpline
70
4
71
3
72
8
73
4
74
0
42
0.000000001
43
0.0000000001
44
0.0000000001
40
0
40
0
40
0
40
0
40
1
40
1
40
1
40
1
41
1
41
1
41
1
41
1
10
69.736754479408646
20
46.026969916467749
30
0
10
69.966412812741964
20
46.026969916467749
30
0
10
70.033087812741968
20
46.015857416467753
30
0
10
70.033087812741968
20
45.975111583134421
30
0
0
SPLINE
5
204
100
AcDbEntity
8
0
100
AcDbSpline
70
4
71
3
72
8
73
4
74
0
42
0.000000001
43
0.0000000001
44
0.0000000001
40
0
40
0
40
0
40
0
40
1
40
1
40
1
40
1
41
1
41
1
41
1
41
1
10
70.033087812741968
20
45.975111583134421
30
0
10
70.033087812741968
20
45.726932416467747
30
0
10
69.521912812741974
20
43.767428249801085
30
0
10
69.458941979408635
20
43.767428249801085
30
0
0
SPLINE
5
205
100
AcDbEntity
8
0
100
AcDbSpline
70
4
71
3
72
8
73
4
74
0
42
0.000000001
43
0.0000000001
44
0.0000000001
40
0
40
0
40
0
40
0
40
1
40
1
40
1
40
1
41
1
41
1
41
1
41
1
10
69.458941979408635
20
43.767428249801085
30
0
10
69.447829479408639
20
43.767428249801085
30
0
10
69.440421146075295
20
44.274899083134414
30
0
10
69.440421146075295
20
44.897199083134424
30
0
0
LINE
5
206
100
AcDbEntity
8
0
100
AcDbLine
10
68.651433646075304
20
45.037957416467755
30
0
11
68.67365864607531
21
46.026969916467749
31
0
0
LINE
5
207
100
AcDbEntity
8
0
100
AcDbLine
10
68.67365864607531
20
46.026969916467749
30
0
11
68.947766979408641
21
46.026969916467749
31
0
0
SPLINE
5
208
100
AcDbEntity
8
0
100
AcDbSpline
70
4
71
3
72
8
73
4
74
0
42
0.000000001
43
0.0000000001
44
0.0000000001
40
0
40
0
40
0
40
0
40
1
40
1
40
1
40
1
41
1
41
1
41
1
41
1
10
68.947766979408641
20
46.026969916467749
30
0
10
69.095933646075309
20
46.026969916467749
30
0
10
69.218171146075306
20
46.015857416467753
30
0
10
69.218171146075306
20
45.997336583134413
30
0
0
SPLINE
5
209
100
AcDbEntity
8
0
100
AcDbSpline
70
4
71
3
72
8
73
4
74
0
42
0.000000001
43
0.0000000001
44
0.0000000001
40
0
40
0
40
0
40
0
40
1
40
1
40
1
40
1
41
1
41
1
41
1
41
1
10
69.218171146075306
20
45.997336583134413
30
0
10
69.221875312741972
20
45.952886583134422
30
0
10
68.647729479408639
20
44.03042408313442
30
0
10
68.636616979408643
20
44.041536583134416
30
0
0
SPLINE
5
210
100
AcDbEntity
8
0
100
AcDbSpline
70
4
71
3
72
8
73
4
74
0
42
0.000000001
43
0.0000000001
44
0.0000000001
40
0
40
0
40
0
40
0
40
1
40
1
40
1
40
1
41
1
41
1
41
1
41
1
10
68.636616979408643
20
44.041536583134416
30
0
10
68.629208646075298
20
44.045240749801088
30
0
10
68.636616979408643
20
44.497149083134424
30
0
10
68.651433646075304
20
45.037957416467755
30
0
0
SPLINE
5
211
100
AcDbEntity
8
0
100
AcDbSpline
70
4
71
3
72
8
73
4
74
0
42
0.000000001
43
0.0000000001
44
0.0000000001
40
0
40
0
40
0
40
0
40
1
40
1
40
1
40
1
41
1
41
1
41
1
41
1
10
67.951346146075309
20
45.152786583134414
30
0
10
68.003204479408637
20
45.745453249801081
30
0
10
68.036541979408639
20
45.96770324980109
30
0
10
68.073583646075306
20
45.993632416467761
30
0
0
SPLINE
5
212
100
AcDbEntity
8
0
100
AcDbSpline
70
4
71
3
72
8
73
4
74
0
42
0.000000001
43
0.0000000001
44
0.0000000001
40
0
40
0
40
0
40
0
40
1
40
1
40
1
40
1
41
1
41
1
41
1
41
1
10
68.073583646075306
20
45.993632416467761
30
0
10
68.158779479408636
20
46.04549074980109
30
0
10
68.488450312741975
20
46.034378249801087
30
0
10
68.469929479408634
20
45.978815749801086
30
0
0
SPLINE
5
213
100
AcDbEntity
8
0
100
AcDbSpline
70
4
71
3
72
8
73
4
74
0
42
0.000000001
43
0.0000000001
44
0.0000000001
40
0
40
0
40
0
40
0
40
1
40
1
40
1
40
1
41
1
41
1
41
1
41
1
10
68.469929479408634
20
45.978815749801086
30
0
10
68.458816979408638
20
45.956590749801087
30
0
10
68.329171146075311
20
45.541724083134419
30
0
10
68.177300312741963
20
45.056478249801089
30
0
0
SPLINE
5
214
100
AcDbEntity
8
0
100
AcDbSpline
70
4
71
3
72
8
73
4
74
0
42
0.000000001
43
0.0000000001
44
0.0000000001
40
0
40
0
40
0
40
0
40
1
40
1
40
1
40
1
41
1
41
1
41
1
41
1
10
68.177300312741963
20
45.056478249801089
30
0
10
68.025429479408629
20
44.574936583134416
30
0
10
67.899487812741967
20
44.215632416467756
30
0
10
67.892079479408636
20
44.260082416467753
30
0
0
SPLINE
5
215
100
AcDbEntity
8
0
100
AcDbSpline
70
4
71
3
72
8
73
4
74
0
42
0.000000001
43
0.0000000001
44
0.0000000001
40
0
40
0
40
0
40
0
40
1
40
1
40
1
40
1
41
1
41
1
41
1
41
1
10
67.892079479408636
20
44.260082416467753
30
0
10
67.888375312741971
20
44.304532416467751
30
0
10
67.914304479408642
20
44.704582416467751
30
0
10
67.951346146075309
20
45.152786583134414
30
0
0
LINE
5
216
100
AcDbEntity
8
0
100
AcDbLine
10
69.307071146075302
20
47.956840749801088
30
0
11
70.144212812741969
21
49.03104908313442
31
0
0
LINE
5
217
100
AcDbEntity
8
0
100
AcDbLine
10
70.144212812741969
20
49.03104908313442
30
0
11
70.144212812741969
21
50.494194916467748
31
0
0
LINE
5
218
100
AcDbEntity
8
0
100
AcDbLine
10
70.144212812741969
20
50.494194916467748
30
0
11
70.144212812741969
21
51.953636583134411
31
0
0
LINE
5
219
100
AcDbEntity
8
0
100
AcDbLine
10
70.144212812741969
20
51.953636583134411
30
0
11
69.292254479408641
21
51.953636583134411
31
0
0
LINE
5
220
100
AcDbEntity
8
0
100
AcDbLine
10
69.292254479408641
20
51.953636583134411
30
0
11
68.440296146075298
21
51.953636583134411
31
0
0
LINE
5
221
100
AcDbEntity
8
0
100
AcDbLine
10
68.440296146075298
20
51.953636583134411
30
0
11
68.440296146075298
21
49.416282416467752
31
0
0
SPLINE
5
222
100
AcDbEntity
8
0
100
AcDbSpline
70
4
71
3
72
8
73
4
74
0
42
0.000000001
43
0.0000000001
44
0.0000000001
40
0
40
0
40
0
40
0
40
1
40
1
40
1
40
1
41
1
41
1
41
1
41
1
10
68.440296146075298
20
49.416282416467752
30
0
10
68.440296146075298
20
48.01981158313442
30
0
10
68.447704479408628
20
46.878928249801092
30
0
10
68.455112812741973
20
46.878928249801092
30
0
0
SPLINE
5
223
100
AcDbEntity
8
0
100
AcDbSpline
70
4
71
3
72
8
73
4
74
0
42
0.000000001
43
0.0000000001
44
0.0000000001
40
0
40
0
40
0
40
0
40
1
40
1
40
1
40
1
41
1
41
1
41
1
41
1
10
68.455112812741973
20
46.878928249801092
30
0
10
68.466225312741969
20
46.878928249801092
30
0
10
68.84775447940865
20
47.364174083134422
30
0
10
69.307071146075302
20
47.956840749801088
30
0
0
SPLINE
5
224
100
AcDbEntity
8
0
100
AcDbSpline
70
4
71
3
72
8
73
4
74
0
42
0.000000001
43
0.0000000001
44
0.0000000001
40
0
40
0
40
0
40
0
40
1
40
1
40
1
40
1
41
1
41
1
41
1
41
1
10
57.979729479408633
20
53.138969916467751
30
0
10
57.879716979408627
20
52.920424083134421
30
0
10
57.879716979408627
20
52.527782416467744
30
0
10
57.983433646075312
20
52.268490749801089
30
0
0
LINE
5
225
100
AcDbEntity
8
0
100
AcDbLine
10
69.292254479408641
20
51.953636583134411
30
0
11
68.440296146075298
21
51.953636583134411
31
0
0
SPLINE
5
226
100
AcDbEntity
8
0
100
AcDbSpline
70
4
71
3
72
8
73
4
74
0
42
0.000000001
43
0.0000000001
44
0.0000000001
40
0
40
0
40
0
40
0
40
1
40
1
40
1
40
1
41
1
41
1
41
1
41
1
10
64.239771146075299
20
44.315644916467754
30
0
10
61.68019197940864
20
48.664336583134414
30
0
10
59.587337812741978
20
52.224040749801084
30
0
10
59.587337812741978
20
52.235153249801087
30
0
0
LINE
5
227
100
AcDbEntity
8
0
100
AcDbLine
10
68.440296146075298
20
51.953636583134411
30
0
11
68.440296146075298
21
49.416282416467752
31
0
0
SPLINE
5
228
100
AcDbEntity
8
0
100
AcDbSpline
70
4
71
3
72
8
73
4
74
0
42
0.000000001
43
0.0000000001
44
0.0000000001
40
0
40
0
40
0
40
0
40
1
40
1
40
1
40
1
41
1
41
1
41
1
41
1
10
57.983433646075312
20
52.268490749801089
30
0
10
58.020475312741972
20
52.164774083134418
30
0
10
60.287425312741973
20
48.23835741646775
30
0
10
63.017396146075306
20
43.545178249801083
30
0
0
SPLINE
5
229
100
AcDbEntity
8
0
100
AcDbSpline
70
4
71
3
72
8
73
4
74
0
42
0.000000001
43
0.0000000001
44
0.0000000001
40
0
40
0
40
0
40
0
40
1
40
1
40
1
40
1
41
1
41
1
41
1
41
1
10
59.009487812741966
20
53.013028249801089
30
0
10
58.879841979408631
20
52.953761583134416
30
0
10
58.783533646075306
20
52.879678249801081
30
0
10
58.735379479408643
20
52.798186583134417
30
0
0
SPLINE
5
230
100
AcDbEntity
8
0
100
AcDbSpline
70
4
71
3
72
8
73
4
74
0
42
0.000000001
43
0.0000000001
44
0.0000000001
40
0
40
0
40
0
40
0
40
1
40
1
40
1
40
1
41
1
41
1
41
1
41
1
10
58.139008646075311
20
52.357390749801084
30
0
10
57.953800312741976
20
52.890790749801084
30
0
10
58.190866979408625
20
53.390853249801083
30
0
10
58.716858646075295
20
53.572357416467753
30
0
0
SPLINE
5
231
100
AcDbEntity
8
0
100
AcDbSpline
70
4
71
3
72
8
73
4
74
0
42
0.000000001
43
0.0000000001
44
0.0000000001
40
0
40
0
40
0
40
0
40
1
40
1
40
1
40
1
41
1
41
1
41
1
41
1
10
69.536729479408635
20
43.315519916467757
30
0
10
69.54413781274198
20
43.304407416467754
30
0
10
69.388562812741966
20
43.252549083134411
30
0
10
69.192241979408649
20
43.193282416467753
30
0
0
SPLINE
5
232
100
AcDbEntity
8
0
100
AcDbSpline
70
4
71
3
72
8
73
4
74
0
42
0.000000001
43
0.0000000001
44
0.0000000001
40
0
40
0
40
0
40
0
40
1
40
1
40
1
40
1
41
1
41
1
41
1
41
1
10
67.473508646075302
20
45.456528249801089
30
0
10
67.466100312741972
20
45.449119916467751
30
0
10
67.00307947940864
20
45.426894916467752
30
0
10
66.443750312741969
20
45.404669916467753
30
0
0
SPLINE
5
233
100
AcDbEntity
8
0
100
AcDbSpline
70
4
71
3
72
8
73
4
74
0
42
0.000000001
43
0.0000000001
44
0.0000000001
40
0
40
0
40
0
40
0
40
1
40
1
40
1
40
1
41
1
41
1
41
1
41
1
10
67.892079479408636
20
44.260082416467753
30
0
10
67.888375312741971
20
44.304532416467751
30
0
10
67.914304479408642
20
44.704582416467751
30
0
10
67.951346146075309
20
45.152786583134414
30
0
0
SPLINE
5
234
100
AcDbEntity
8
0
100
AcDbSpline
70
4
71
3
72
8
73
4
74
0
42
0.000000001
43
0.0000000001
44
0.0000000001
40
0
40
0
40
0
40
0
40
1
40
1
40
1
40
1
41
1
41
1
41
1
41
1
10
68.595871146075311
20
42.43763241646775
30
0
10
68.644025312741974
20
42.441336583134415
30
0
10
69.303366979408636
20
42.537644916467755
30
0
10
70.062721146075305
20
42.656178249801087
30
0
0
LINE
5
235
100
AcDbEntity
8
0
100
AcDbLine
10
65.413991979408635
20
44.719399083134419
30
0
11
66.380779479408631
21
44.741624083134425
31
0
0
LINE
5
236
100
AcDbEntity
8
0
100
AcDbLine
10
69.307071146075302
20
47.956840749801088
30
0
11
70.144212812741969
21
49.03104908313442
31
0
0
SPLINE
5
237
100
AcDbEntity
8
0
100
AcDbSpline
70
4
71
3
72
8
73
4
74
0
42
0.000000001
43
0.0000000001
44
0.0000000001
40
0
40
0
40
0
40
0
40
1
40
1
40
1
40
1
41
1
41
1
41
1
41
1
10
65.847379479408644
20
45.641736583134424
30
0
10
65.917758646075299
20
45.42319074980108
30
0
10
65.917758646075299
20
45.42319074980108
30
0
10
66.721562812741965
20
45.467640749801092
30
0
0
LINE
5
238
100
AcDbEntity
8
0
100
AcDbLine
10
70.144212812741969
20
49.03104908313442
30
0
11
70.144212812741969
21
50.494194916467748
31
0
0
SPLINE
5
239
100
AcDbEntity
8
0
100
AcDbSpline
70
4
71
3
72
8
73
4
74
0
42
0.000000001
43
0.0000000001
44
0.0000000001
40
0
40
0
40
0
40
0
40
1
40
1
40
1
40
1
41
1
41
1
41
1
41
1
10
67.180879479408645
20
44.034128249801086
30
0
10
67.180879479408645
20
43.993382416467753
30
0
10
66.854912812741972
20
43.963749083134417
30
0
10
66.036291979408631
20
43.930411583134415
30
0
0
LINE
5
240
100
AcDbEntity
8
0
100
AcDbLine
10
70.144212812741969
20
51.953636583134411
30
0
11
69.292254479408641
21
51.953636583134411
31
0
0
SPLINE
5
241
100
AcDbEntity
8
0
100
AcDbSpline
70
4
71
3
72
8
73
4
74
0
42
0.000000001
43
0.0000000001
44
0.0000000001
40
0
40
0
40
0
40
0
40
1
40
1
40
1
40
1
41
1
41
1
41
1
41
1
10
70.062721146075305
20
42.656178249801087
30
0
10
70.9517211460753
20
42.796936583134418
30
0
10
71.47771281274197
20
42.893244916467751
30
0
10
71.536979479408643
20
42.933990749801083
30
0
0
SPLINE
5
242
100
AcDbEntity
8
0
100
AcDbSpline
70
4
71
3
72
8
73
4
74
0
42
0.000000001
43
0.0000000001
44
0.0000000001
40
0
40
0
40
0
40
0
40
1
40
1
40
1
40
1
41
1
41
1
41
1
41
1
10
64.86577531274196
20
44.600865749801088
30
0
10
64.754650312741973
20
44.493444916467752
30
0
10
64.739833646075311
20
44.241561583134427
30
0
10
64.836141979408637
20
44.104507416467754
30
0
0
LINE
5
243
100
AcDbEntity
8
0
100
AcDbLine
10
72.70008781274197
20
43.582219916467757
30
0
11
72.70008781274197
21
44.619386583134421
31
0
0
SPLINE
5
244
100
AcDbEntity
8
0
100
AcDbSpline
70
4
71
3
72
8
73
4
74
0
42
0.000000001
43
0.0000000001
44
0.0000000001
40
0
40
0
40
0
40
0
40
1
40
1
40
1
40
1
41
1
41
1
41
1
41
1
10
66.99567114607531
20
44.730511583134422
30
0
10
66.803054479408644
20
44.715694916467754
30
0
10
66.262246146075313
20
44.700878249801086
30
0
10
65.799225312741967
20
44.697174083134421
30
0
0
LINE
5
245
100
AcDbEntity
8
0
100
AcDbLine
10
68.429183646075302
20
43.397011583134422
30
0
11
68.13655447940863
21
43.397011583134422
31
0
0
SPLINE
5
246
100
AcDbEntity
8
0
100
AcDbSpline
70
4
71
3
72
8
73
4
74
0
42
0.000000001
43
0.0000000001
44
0.0000000001
40
0
40
0
40
0
40
0
40
1
40
1
40
1
40
1
41
1
41
1
41
1
41
1
10
69.218171146075306
20
45.997336583134413
30
0
10
69.221875312741972
20
45.952886583134422
30
0
10
68.647729479408639
20
44.03042408313442
30
0
10
68.636616979408643
20
44.041536583134416
30
0
0
SPLINE
5
247
100
AcDbEntity
8
0
100
AcDbSpline
70
4
71
3
72
8
73
4
74
0
42
0.000000001
43
0.0000000001
44
0.0000000001
40
0
40
0
40
0
40
0
40
1
40
1
40
1
40
1
41
1
41
1
41
1
41
1
10
67.847629479408639
20
43.430349083134416
30
0
10
67.847629479408639
20
43.445165749801085
30
0
10
67.988387812741976
20
43.900778249801093
30
0
10
68.162483646075302
20
44.437882416467751
30
0
0
LINE
5
248
100
AcDbEntity
8
0
100
AcDbLine
10
68.473633646075299
20
45.415782416467749
30
0
11
68.473633646075299
21
44.934240749801084
31
0
0
SPLINE
5
249
100
AcDbEntity
8
0
100
AcDbSpline
70
4
71
3
72
8
73
4
74
0
42
0.000000001
43
0.0000000001
44
0.0000000001
40
0
40
0
40
0
40
0
40
1
40
1
40
1
40
1
41
1
41
1
41
1
41
1
10
66.03999614607531
20
44.041536583134416
30
0
10
66.725266979408644
20
44.056353249801091
30
0
10
67.180879479408645
20
44.052649083134419
30
0
10
67.180879479408645
20
44.034128249801086
30
0
0
SPLINE
5
250
100
AcDbEntity
8
0
100
AcDbSpline
70
4
71
3
72
8
73
4
74
0
42
0.000000001
43
0.0000000001
44
0.0000000001
40
0
40
0
40
0
40
0
40
1
40
1
40
1
40
1
41
1
41
1
41
1
41
1
10
69.458941979408635
20
43.767428249801085
30
0
10
69.447829479408639
20
43.767428249801085
30
0
10
69.440421146075295
20
44.274899083134414
30
0
10
69.440421146075295
20
44.897199083134424
30
0
0
SPLINE
5
251
100
AcDbEntity
8
0
100
AcDbSpline
70
4
71
3
72
8
73
4
74
0
42
0.000000001
43
0.0000000001
44
0.0000000001
40
0
40
0
40
0
40
0
40
1
40
1
40
1
40
1
41
1
41
1
41
1
41
1
10
68.551421146075313
20
42.722853249801091
30
0
10
68.462521146075304
20
42.511715749801084
30
0
10
68.473633646075299
20
42.433928249801092
30
0
10
68.595871146075311
20
42.43763241646775
30
0
0
SPLINE
5
252
100
AcDbEntity
8
0
100
AcDbSpline
70
4
71
3
72
8
73
4
74
0
42
0.000000001
43
0.0000000001
44
0.0000000001
40
0
40
0
40
0
40
0
40
1
40
1
40
1
40
1
41
1
41
1
41
1
41
1
10
68.469929479408634
20
45.978815749801086
30
0
10
68.458816979408638
20
45.956590749801087
30
0
10
68.329171146075311
20
45.541724083134419
30
0
10
68.177300312741963
20
45.056478249801089
30
0
0
SPLINE
5
253
100
AcDbEntity
8
0
100
AcDbSpline
70
4
71
3
72
8
73
4
74
0
42
0.000000001
43
0.0000000001
44
0.0000000001
40
0
40
0
40
0
40
0
40
1
40
1
40
1
40
1
41
1
41
1
41
1
41
1
10
67.34756697940864
20
44.204519916467753
30
0
10
67.473508646075302
20
44.789778249801088
30
0
10
67.773546146075304
20
45.926957416467751
30
0
10
67.814291979408637
20
45.96770324980109
30
0
0
LINE
5
254
100
AcDbEntity
8
0
100
AcDbLine
10
64.954675312741969
20
44.693469916467748
30
0
11
64.865775312741974
21
44.600865749801088
31
0
0
SPLINE
5
255
100
AcDbEntity
8
0
100
AcDbSpline
70
4
71
3
72
8
73
4
74
0
42
0.000000001
43
0.0000000001
44
0.0000000001
40
0
40
0
40
0
40
0
40
1
40
1
40
1
40
1
41
1
41
1
41
1
41
1
10
71.929621146075306
20
43.478503249801086
30
0
10
72.022225312741966
20
43.578515749801092
30
0
10
72.044450312741972
20
43.582219916467757
30
0
10
72.363008646075301
20
43.582219916467757
30
0
0
SPLINE
5
256
100
AcDbEntity
8
0
100
AcDbSpline
70
4
71
3
72
8
73
4
74
0
42
0.000000001
43
0.0000000001
44
0.0000000001
40
0
40
0
40
0
40
0
40
1
40
1
40
1
40
1
41
1
41
1
41
1
41
1
10
65.358429479408642
20
45.286136583134422
30
0
10
65.273233646075312
20
45.182419916467751
30
0
10
65.269529479408646
20
44.926832416467747
30
0
10
65.351021146075311
20
44.808299083134422
30
0
0
LINE
5
257
100
AcDbEntity
8
0
100
AcDbLine
10
64.836141979408652
20
44.104507416467754
30
0
11
64.89540864607531
21
44.015607416467752
31
0
0
SPLINE
5
258
100
AcDbEntity
8
0
100
AcDbSpline
70
4
71
3
72
8
73
4
74
0
42
0.000000001
43
0.0000000001
44
0.0000000001
40
0
40
0
40
0
40
0
40
1
40
1
40
1
40
1
41
1
41
1
41
1
41
1
10
69.192241979408649
20
43.193282416467753
30
0
10
68.777375312741981
20
43.078453249801086
30
0
10
68.669954479408645
20
43.000665749801087
30
0
10
68.551421146075313
20
42.722853249801091
30
0
0
SPLINE
5
259
100
AcDbEntity
8
0
100
AcDbSpline
70
4
71
3
72
8
73
4
74
0
42
0.000000001
43
0.0000000001
44
0.0000000001
40
0
40
0
40
0
40
0
40
1
40
1
40
1
40
1
41
1
41
1
41
1
41
1
10
68.440296146075298
20
49.416282416467752
30
0
10
68.440296146075298
20
48.01981158313442
30
0
10
68.447704479408628
20
46.878928249801092
30
0
10
68.455112812741973
20
46.878928249801092
30
0
0
LINE
5
260
100
AcDbEntity
8
0
100
AcDbLine
10
59.205808646075297
20
53.101928249801091
30
0
11
59.009487812741966
21
53.013028249801089
31
0
0
SPLINE
5
261
100
AcDbEntity
8
0
100
AcDbSpline
70
4
71
3
72
8
73
4
74
0
42
0.000000001
43
0.0000000001
44
0.0000000001
40
0
40
0
40
0
40
0
40
1
40
1
40
1
40
1
41
1
41
1
41
1
41
1
10
68.958879479408637
20
52.249969916467755
30
0
10
74.115079479408635
20
52.249969916467755
30
0
10
78.330421146075309
20
52.238857416467752
30
0
10
78.330421146075309
20
52.227744916467756
30
0
0
SPLINE
5
262
100
AcDbEntity
8
0
100
AcDbSpline
70
4
71
3
72
8
73
4
74
0
42
0.000000001
43
0.0000000001
44
0.0000000001
40
0
40
0
40
0
40
0
40
1
40
1
40
1
40
1
41
1
41
1
41
1
41
1
10
68.455112812741973
20
46.878928249801092
30
0
10
68.466225312741969
20
46.878928249801092
30
0
10
68.84775447940865
20
47.364174083134422
30
0
10
69.307071146075302
20
47.956840749801088
30
0
0
LINE
5
263
100
AcDbEntity
8
0
100
AcDbLine
10
68.999625312741969
20
53.094519916467753
30
0
11
59.205808646075297
21
53.101928249801091
31
0
0
SPLINE
5
264
100
AcDbEntity
8
0
100
AcDbSpline
70
4
71
3
72
8
73
4
74
0
42
0.000000001
43
0.0000000001
44
0.0000000001
40
0
40
0
40
0
40
0
40
1
40
1
40
1
40
1
41
1
41
1
41
1
41
1
10
68.13655447940863
20
43.397011583134422
30
0
10
67.977275312741966
20
43.397011583134422
30
0
10
67.847629479408639
20
43.41182824980109
30
0
10
67.847629479408639
20
43.430349083134416
30
0
0
SPLINE
5
265
100
AcDbEntity
8
0
100
AcDbSpline
70
4
71
3
72
8
73
4
74
0
42
0.000000001
43
0.0000000001
44
0.0000000001
40
0
40
0
40
0
40
0
40
1
40
1
40
1
40
1
41
1
41
1
41
1
41
1
10
59.587337812741978
20
52.235153249801087
30
0
10
59.587337812741978
20
52.242561583134417
30
0
10
63.802679479408638
20
52.249969916467755
30
0
10
68.958879479408637
20
52.249969916467755
30
0
0
SPLINE
5
266
100
AcDbEntity
8
0
100
AcDbSpline
70
4
71
3
72
8
73
4
74
0
42
0.000000001
43
0.0000000001
44
0.0000000001
40
0
40
0
40
0
40
0
40
1
40
1
40
1
40
1
41
1
41
1
41
1
41
1
10
67.058641979408634
20
43.256253249801091
30
0
10
67.992091979408642
20
43.252549083134411
30
0
10
68.858866979408646
20
43.267365749801087
30
0
10
69.099637812741975
20
43.289590749801086
30
0
0
SPLINE
5
267
100
AcDbEntity
8
0
100
AcDbSpline
70
4
71
3
72
8
73
4
74
0
42
0.000000001
43
0.0000000001
44
0.0000000001
40
0
40
0
40
0
40
0
40
1
40
1
40
1
40
1
41
1
41
1
41
1
41
1
10
65.328796146075305
20
43.589628249801081
30
0
10
65.328796146075305
20
43.493319916467748
30
0
10
65.354725312741976
20
43.378490749801088
30
0
10
65.380654479408648
20
43.337744916467749
30
0
0
LINE
5
268
100
AcDbEntity
8
0
100
AcDbLine
10
68.451408646075308
20
43.923003249801098
30
0
11
68.429183646075302
21
43.397011583134422
31
0
0
SPLINE
5
269
100
AcDbEntity
8
0
100
AcDbSpline
70
4
71
3
72
8
73
4
74
0
42
0.000000001
43
0.0000000001
44
0.0000000001
40
0
40
0
40
0
40
0
40
1
40
1
40
1
40
1
41
1
41
1
41
1
41
1
10
71.536979479408643
20
42.933990749801083
30
0
10
71.585133646075306
20
42.967328249801085
30
0
10
71.674033646075301
20
43.078453249801086
30
0
10
71.729596146075309
20
43.18216991646775
30
0
0
LINE
5
270
100
AcDbEntity
8
0
100
AcDbLine
10
78.94901697940864
20
53.0019157498011
30
0
11
78.793441979408641
21
53.08340741646775
31
0
0
SPLINE
5
271
100
AcDbEntity
8
0
100
AcDbSpline
70
4
71
3
72
8
73
4
74
0
42
0.000000001
43
0.0000000001
44
0.0000000001
40
0
40
0
40
0
40
0
40
1
40
1
40
1
40
1
41
1
41
1
41
1
41
1
10
69.036666979408636
20
35.136719916467754
30
0
10
69.066300312741973
20
35.136719916467754
30
0
10
69.155200312741968
20
35.170057416467756
30
0
10
69.236691979408647
20
35.207099083134416
30
0
0
SPLINE
5
272
100
AcDbEntity
8
0
100
AcDbSpline
70
4
71
3
72
8
73
4
74
0
42
0.000000001
43
0.0000000001
44
0.0000000001
40
0
40
0
40
0
40
0
40
1
40
1
40
1
40
1
41
1
41
1
41
1
41
1
10
69.236691979408647
20
35.207099083134416
30
0
10
69.318183646075312
20
35.244140749801083
30
0
10
69.421900312741968
20
35.314519916467752
30
0
10
69.466350312741966
20
35.362674083134415
30
0
0
SPLINE
5
273
100
AcDbEntity
8
0
100
AcDbSpline
70
4
71
3
72
8
73
4
74
0
42
0.000000001
43
0.0000000001
44
0.0000000001
40
0
40
0
40
0
40
0
40
1
40
1
40
1
40
1
41
1
41
1
41
1
41
1
10
68.955175312741972
20
53.842761583134418
30
0
10
62.498812812741974
20
53.842761583134418
30
0
10
59.04652947940864
20
53.831649083134423
30
0
10
58.920587812741971
20
53.805719916467751
30
0
0
SPLINE
5
274
100
AcDbEntity
8
0
100
AcDbSpline
70
4
71
3
72
8
73
4
74
0
42
0.000000001
43
0.0000000001
44
0.0000000001
40
0
40
0
40
0
40
0
40
1
40
1
40
1
40
1
41
1
41
1
41
1
41
1
10
69.466350312741966
20
35.362674083134415
30
0
10
69.603404479408638
20
35.514544916467756
30
0
10
79.252758646075307
20
52.21663241646776
30
0
10
79.278687812741978
20
52.346278249801088
30
0
0
SPLINE
5
275
100
AcDbEntity
8
0
100
AcDbSpline
70
4
71
3
72
8
73
4
74
0
42
0.000000001
43
0.0000000001
44
0.0000000001
40
0
40
0
40
0
40
0
40
1
40
1
40
1
40
1
41
1
41
1
41
1
41
1
10
79.793566979408638
20
52.272194916467754
30
0
10
79.682441979408637
20
52.012903249801084
30
0
10
69.918258646075316
20
35.158944916467753
30
0
10
69.784908646075309
20
34.999665749801082
30
0
0
SPLINE
5
276
100
AcDbEntity
8
0
100
AcDbSpline
70
4
71
3
72
8
73
4
74
0
42
0.000000001
43
0.0000000001
44
0.0000000001
40
0
40
0
40
0
40
0
40
1
40
1
40
1
40
1
41
1
41
1
41
1
41
1
10
78.330421146075309
20
52.227744916467756
30
0
10
78.330421146075309
20
52.168478249801083
30
0
10
68.94035864607531
20
36.362799083134419
30
0
10
68.918133646075304
20
36.388728249801083
30
0
0
SPLINE
5
277
100
AcDbEntity
8
0
100
AcDbSpline
70
4
71
3
72
8
73
4
74
0
42
0.000000001
43
0.0000000001
44
0.0000000001
40
0
40
0
40
0
40
0
40
1
40
1
40
1
40
1
41
1
41
1
41
1
41
1
10
69.814541979408645
20
34.799640749801085
30
0
10
70.044200312741964
20
35.029299083134418
30
0
10
70.33312531274197
20
35.521953249801086
30
0
10
74.959629479408648
20
43.526657416467749
30
0
0
SPLINE
5
278
100
AcDbEntity
8
0
100
AcDbSpline
70
4
71
3
72
8
73
4
74
0
42
0.000000001
43
0.0000000001
44
0.0000000001
40
0
40
0
40
0
40
0
40
1
40
1
40
1
40
1
41
1
41
1
41
1
41
1
10
68.958879479408637
20
53.639032416467749
30
0
10
78.511925312741965
20
53.639032416467757
30
0
10
79.026804479408639
20
53.635328249801084
30
0
10
79.204604479408644
20
53.572357416467753
30
0
0
SPLINE
5
279
100
AcDbEntity
8
0
100
AcDbSpline
70
4
71
3
72
8
73
4
74
0
42
0.000000001
43
0.0000000001
44
0.0000000001
40
0
40
0
40
0
40
0
40
1
40
1
40
1
40
1
41
1
41
1
41
1
41
1
10
79.48241697940864
20
53.631624083134419
30
0
10
79.078662812741968
20
53.853874083134421
30
0
10
79.686146146075302
20
53.842761583134418
30
0
10
68.955175312741972
20
53.842761583134418
30
0
0
SPLINE
5
280
100
AcDbEntity
8
0
100
AcDbSpline
70
4
71
3
72
8
73
4
74
0
42
0.000000001
43
0.0000000001
44
0.0000000001
40
0
40
0
40
0
40
0
40
1
40
1
40
1
40
1
41
1
41
1
41
1
41
1
10
63.584133646075301
20
43.822990749801093
30
0
10
66.780829479408638
20
38.326007416467753
30
0
10
68.458816979408653
20
35.473799083134416
30
0
10
68.558829479408644
20
35.373786583134418
30
0
0
SPLINE
5
281
100
AcDbEntity
8
0
100
AcDbSpline
70
4
71
3
72
8
73
4
74
0
42
0.000000001
43
0.0000000001
44
0.0000000001
40
0
40
0
40
0
40
0
40
1
40
1
40
1
40
1
41
1
41
1
41
1
41
1
10
58.716858646075295
20
53.572357416467753
30
0
10
58.890954479408634
20
53.635328249801084
30
0
10
59.457691979408636
20
53.639032416467749
30
0
10
68.958879479408637
20
53.639032416467749
30
0
0
SPLINE
5
282
100
AcDbEntity
8
0
100
AcDbSpline
70
4
71
3
72
8
73
4
74
0
42
0.000000001
43
0.0000000001
44
0.0000000001
40
0
40
0
40
0
40
0
40
1
40
1
40
1
40
1
41
1
41
1
41
1
41
1
10
68.614391979408651
20
34.688515749801084
30
0
10
68.529196146075307
20
34.725557416467751
30
0
10
68.384733646075304
20
34.832978249801087
30
0
10
68.292129479408629
20
34.925582416467755
30
0
0
SPLINE
5
283
100
AcDbEntity
8
0
100
AcDbSpline
70
4
71
3
72
8
73
4
74
0
42
0.000000001
43
0.0000000001
44
0.0000000001
40
0
40
0
40
0
40
0
40
1
40
1
40
1
40
1
41
1
41
1
41
1
41
1
10
68.918133646075304
20
36.388728249801083
30
0
10
68.907021146075309
20
36.403544916467752
30
0
10
66.799350312741979
20
39.970657416467752
30
0
10
64.239771146075299
20
44.315644916467754
30
0
0
SPLINE
5
284
100
AcDbEntity
8
0
100
AcDbSpline
70
4
71
3
72
8
73
4
74
0
42
0.000000001
43
0.0000000001
44
0.0000000001
40
0
40
0
40
0
40
0
40
1
40
1
40
1
40
1
41
1
41
1
41
1
41
1
10
69.207058646075296
20
34.61443241646775
30
0
10
69.051483646075297
20
34.577390749801083
30
0
10
68.803304479408638
20
34.607024083134419
30
0
10
68.614391979408651
20
34.688515749801084
30
0
0
SPLINE
5
285
100
AcDbEntity
8
0
100
AcDbSpline
70
4
71
3
72
8
73
4
74
0
42
0.000000001
43
0.0000000001
44
0.0000000001
40
0
40
0
40
0
40
0
40
1
40
1
40
1
40
1
41
1
41
1
41
1
41
1
10
68.292129479408629
20
34.925582416467755
30
0
10
68.173596146075312
20
35.051524083134417
30
0
10
66.769716979408642
20
37.43700741646775
30
0
10
63.16926697940864
20
43.626669916467755
30
0
0
SPLINE
5
286
100
AcDbEntity
8
0
100
AcDbSpline
70
4
71
3
72
8
73
4
74
0
42
0.000000001
43
0.0000000001
44
0.0000000001
40
0
40
0
40
0
40
0
40
1
40
1
40
1
40
1
41
1
41
1
41
1
41
1
10
69.236691979408647
20
43.478503249801086
30
0
10
69.225579479408637
20
43.467390749801083
30
0
10
69.107046146075305
20
43.445165749801085
30
0
10
68.966287812741967
20
43.434053249801082
30
0
0
SPLINE
5
287
100
AcDbEntity
8
0
100
AcDbSpline
70
4
71
3
72
8
73
4
74
0
42
0.000000001
43
0.0000000001
44
0.0000000001
40
0
40
0
40
0
40
0
40
1
40
1
40
1
40
1
41
1
41
1
41
1
41
1
10
65.380654479408648
20
43.337744916467749
30
0
10
65.436216979408641
20
43.263661583134414
30
0
10
65.462146146075298
20
43.259957416467749
30
0
10
67.058641979408634
20
43.256253249801091
30
0
0
SPLINE
5
288
100
AcDbEntity
8
0
100
AcDbSpline
70
4
71
3
72
8
73
4
74
0
42
0.000000001
43
0.0000000001
44
0.0000000001
40
0
40
0
40
0
40
0
40
1
40
1
40
1
40
1
41
1
41
1
41
1
41
1
10
66.036291979408631
20
43.930411583134415
30
0
10
65.365837812741972
20
43.900778249801093
30
0
10
65.328796146075305
20
43.882257416467752
30
0
10
65.328796146075305
20
43.589628249801081
30
0
0
SPLINE
5
289
100
AcDbEntity
8
0
100
AcDbSpline
70
4
71
3
72
8
73
4
74
0
42
0.000000001
43
0.0000000001
44
0.0000000001
40
0
40
0
40
0
40
0
40
1
40
1
40
1
40
1
41
1
41
1
41
1
41
1
10
68.177300312741963
20
45.056478249801089
30
0
10
68.025429479408629
20
44.574936583134416
30
0
10
67.899487812741967
20
44.215632416467756
30
0
10
67.892079479408636
20
44.260082416467753
30
0
0
SPLINE
5
290
100
AcDbEntity
8
0
100
AcDbSpline
70
4
71
3
72
8
73
4
74
0
42
0.000000001
43
0.0000000001
44
0.0000000001
40
0
40
0
40
0
40
0
40
1
40
1
40
1
40
1
41
1
41
1
41
1
41
1
10
66.443750312741969
20
45.404669916467753
30
0
10
65.458441979408647
20
45.371332416467752
30
0
10
65.425104479408645
20
45.367628249801086
30
0
10
65.358429479408642
20
45.286136583134422
30
0
0
SPLINE
5
291
100
AcDbEntity
8
0
100
AcDbSpline
70
4
71
3
72
8
73
4
74
0
42
0.000000001
43
0.0000000001
44
0.0000000001
40
0
40
0
40
0
40
0
40
1
40
1
40
1
40
1
41
1
41
1
41
1
41
1
10
66.721562812741965
20
45.467640749801092
30
0
10
67.384608646075307
20
45.504682416467752
30
0
10
67.52166281274198
20
45.500978249801079
30
0
10
67.473508646075302
20
45.456528249801089
30
0
0
LINE
5
292
100
AcDbEntity
8
0
100
AcDbLine
10
65.351021146075311
20
44.808299083134422
30
0
11
65.413991979408635
21
44.719399083134419
31
0
0
LINE
5
293
100
AcDbEntity
8
0
100
AcDbLine
10
72.70008781274197
20
44.619386583134421
30
0
11
72.70008781274197
21
45.656553249801078
31
0
0
LINE
5
294
100
AcDbEntity
8
0
100
AcDbLine
10
64.89540864607531
20
44.015607416467752
30
0
11
66.039996146075296
21
44.041536583134416
31
0
0
SPLINE
5
295
100
AcDbEntity
8
0
100
AcDbSpline
70
4
71
3
72
8
73
4
74
0
42
0.000000001
43
0.0000000001
44
0.0000000001
40
0
40
0
40
0
40
0
40
1
40
1
40
1
40
1
41
1
41
1
41
1
41
1
10
68.6625461460753
20
43.422940749801086
30
0
10
68.658841979408635
20
43.441461583134419
30
0
10
68.788487812741977
20
43.89707408313442
30
0
10
68.947766979408641
20
44.441586583134416
30
0
0
SPLINE
5
296
100
AcDbEntity
8
0
100
AcDbSpline
70
4
71
3
72
8
73
4
74
0
42
0.000000001
43
0.0000000001
44
0.0000000001
40
0
40
0
40
0
40
0
40
1
40
1
40
1
40
1
41
1
41
1
41
1
41
1
10
71.740708646075305
20
45.960294916467753
30
0
10
71.688850312741977
20
46.04549074980109
30
0
10
71.614766979408643
20
46.112165749801086
30
0
10
71.540683646075308
20
46.134390749801085
30
0
0
LINE
5
297
100
AcDbEntity
8
0
100
AcDbLine
10
68.162483646075302
20
44.437882416467758
30
0
11
68.473633646075299
21
45.415782416467749
31
0
0
SPLINE
5
298
100
AcDbEntity
8
0
100
AcDbSpline
70
4
71
3
72
8
73
4
74
0
42
0.000000001
43
0.0000000001
44
0.0000000001
40
0
40
0
40
0
40
0
40
1
40
1
40
1
40
1
41
1
41
1
41
1
41
1
10
67.325341979408634
20
43.434053249801082
30
0
10
67.225329479408643
20
43.434053249801082
30
0
10
67.232737812741973
20
43.663711583134422
30
0
10
67.34756697940864
20
44.204519916467753
30
0
0
SPLINE
5
299
100
AcDbEntity
8
0
100
AcDbSpline
70
4
71
3
72
8
73
4
74
0
42
0.000000001
43
0.0000000001
44
0.0000000001
40
0
40
0
40
0
40
0
40
1
40
1
40
1
40
1
41
1
41
1
41
1
41
1
10
65.958504479408631
20
46.064011583134423
30
0
10
65.851083646075296
20
46.008449083134416
30
0
10
65.795521146075302
20
45.793607416467751
30
0
10
65.847379479408644
20
45.641736583134424
30
0
0
LINE
5
300
100
AcDbEntity
8
0
100
AcDbLine
10
65.799225312741967
20
44.697174083134414
30
0
11
64.954675312741969
21
44.693469916467748
31
0
0
SPLINE
5
301
100
AcDbEntity
8
0
100
AcDbSpline
70
4
71
3
72
8
73
4
74
0
42
0.000000001
43
0.0000000001
44
0.0000000001
40
0
40
0
40
0
40
0
40
1
40
1
40
1
40
1
41
1
41
1
41
1
41
1
10
68.966287812741967
20
43.434053249801082
30
0
10
68.829233646075309
20
43.41923658313442
30
0
10
68.706996146075312
20
43.404419916467759
30
0
10
68.688475312741971
20
43.400715749801087
30
0
0
SPLINE
5
302
100
AcDbEntity
8
0
100
AcDbSpline
70
4
71
3
72
8
73
4
74
0
42
0.000000001
43
0.0000000001
44
0.0000000001
40
0
40
0
40
0
40
0
40
1
40
1
40
1
40
1
41
1
41
1
41
1
41
1
10
69.736754479408646
20
46.026969916467749
30
0
10
69.966412812741964
20
46.026969916467749
30
0
10
70.033087812741968
20
46.015857416467753
30
0
10
70.033087812741968
20
45.975111583134421
30
0
0
SPLINE
5
303
100
AcDbEntity
8
0
100
AcDbSpline
70
4
71
3
72
8
73
4
74
0
42
0.000000001
43
0.0000000001
44
0.0000000001
40
0
40
0
40
0
40
0
40
1
40
1
40
1
40
1
41
1
41
1
41
1
41
1
10
69.099637812741975
20
43.289590749801086
30
0
10
69.329296146075308
20
43.311815749801085
30
0
10
69.525616979408639
20
43.322928249801087
30
0
10
69.536729479408635
20
43.315519916467757
30
0
0
SPLINE
5
304
100
AcDbEntity
8
0
100
AcDbSpline
70
4
71
3
72
8
73
4
74
0
42
0.000000001
43
0.0000000001
44
0.0000000001
40
0
40
0
40
0
40
0
40
1
40
1
40
1
40
1
41
1
41
1
41
1
41
1
10
67.814291979408637
20
45.96770324980109
30
0
10
67.858741979408634
20
46.015857416467753
30
0
10
67.8624461460753
20
46.05289908313442
30
0
10
67.755025312741978
20
44.767553249801082
30
0
0
SPLINE
5
305
100
AcDbEntity
8
0
100
AcDbSpline
70
4
71
3
72
8
73
4
74
0
42
0.000000001
43
0.0000000001
44
0.0000000001
40
0
40
0
40
0
40
0
40
1
40
1
40
1
40
1
41
1
41
1
41
1
41
1
10
70.033087812741968
20
45.975111583134421
30
0
10
70.033087812741968
20
45.726932416467747
30
0
10
69.521912812741974
20
43.767428249801085
30
0
10
69.458941979408635
20
43.767428249801085
30
0
0
SPLINE
5
306
100
AcDbEntity
8
0
100
AcDbSpline
70
4
71
3
72
8
73
4
74
0
42
0.000000001
43
0.0000000001
44
0.0000000001
40
0
40
0
40
0
40
0
40
1
40
1
40
1
40
1
41
1
41
1
41
1
41
1
10
68.473633646075299
20
44.934240749801084
30
0
10
68.477337812741979
20
44.667540749801084
30
0
10
68.466225312741969
20
44.215632416467756
30
0
10
68.451408646075308
20
43.923003249801091
30
0
0
SPLINE
5
307
100
AcDbEntity
8
0
100
AcDbSpline
70
4
71
3
72
8
73
4
74
0
42
0.000000001
43
0.0000000001
44
0.0000000001
40
0
40
0
40
0
40
0
40
1
40
1
40
1
40
1
41
1
41
1
41
1
41
1
10
67.755025312741978
20
44.767553249801082
30
0
10
67.632787812741967
20
43.293294916467751
30
0
10
67.647604479408642
20
43.382194916467753
30
0
10
67.506846146075304
20
43.41182824980109
30
0
0
LINE
5
308
100
AcDbEntity
8
0
100
AcDbLine
10
68.67365864607531
20
46.026969916467749
30
0
11
68.947766979408641
21
46.026969916467749
31
0
0
SPLINE
5
309
100
AcDbEntity
8
0
100
AcDbSpline
70
4
71
3
72
8
73
4
74
0
42
0.000000001
43
0.0000000001
44
0.0000000001
40
0
40
0
40
0
40
0
40
1
40
1
40
1
40
1
41
1
41
1
41
1
41
1
10
69.247804479408643
20
44.463811583134422
30
0
10
69.251508646075308
20
43.930411583134415
30
0
10
69.247804479408643
20
43.489615749801089
30
0
10
69.236691979408647
20
43.478503249801086
30
0
0
LINE
5
310
100
AcDbEntity
8
0
100
AcDbLine
10
70.144212812741969
20
50.494194916467748
30
0
11
70.144212812741969
21
51.953636583134411
31
0
0
SPLINE
5
311
100
AcDbEntity
8
0
100
AcDbSpline
70
4
71
3
72
8
73
4
74
0
42
0.000000001
43
0.0000000001
44
0.0000000001
40
0
40
0
40
0
40
0
40
1
40
1
40
1
40
1
41
1
41
1
41
1
41
1
10
66.380779479408631
20
44.741624083134411
30
0
10
66.962333646075308
20
44.752736583134421
30
0
10
67.206808646075302
20
44.749032416467749
30
0
10
66.99567114607531
20
44.730511583134422
30
0
0
SPLINE
5
312
100
AcDbEntity
8
0
100
AcDbSpline
70
4
71
3
72
8
73
4
74
0
42
0.000000001
43
0.0000000001
44
0.0000000001
40
0
40
0
40
0
40
0
40
1
40
1
40
1
40
1
41
1
41
1
41
1
41
1
10
66.788237812741968
20
46.101053249801083
30
0
10
66.354850312741974
20
46.101053249801083
30
0
10
65.999250312741978
20
46.086236583134422
30
0
10
65.958504479408631
20
46.064011583134423
30
0
0
LINE
5
313
100
AcDbEntity
8
0
100
AcDbLine
10
72.70008781274197
20
45.656553249801078
30
0
11
72.337079479408629
21
45.656553249801092
31
0
0
SPLINE
5
314
100
AcDbEntity
8
0
100
AcDbSpline
70
4
71
3
72
8
73
4
74
0
42
0.000000001
43
0.0000000001
44
0.0000000001
40
0
40
0
40
0
40
0
40
1
40
1
40
1
40
1
41
1
41
1
41
1
41
1
10
71.729596146075309
20
43.18216991646775
30
0
10
71.785158646075303
20
43.289590749801086
30
0
10
71.874058646075298
20
43.422940749801086
30
0
10
71.929621146075306
20
43.478503249801086
30
0
0
LINE
5
315
100
AcDbEntity
8
0
100
AcDbLine
10
68.947766979408641
20
44.441586583134409
30
0
11
69.236691979408647
21
45.430599083134418
31
0
0
SPLINE
5
316
100
AcDbEntity
8
0
100
AcDbSpline
70
4
71
3
72
8
73
4
74
0
42
0.000000001
43
0.0000000001
44
0.0000000001
40
0
40
0
40
0
40
0
40
1
40
1
40
1
40
1
41
1
41
1
41
1
41
1
10
68.636616979408643
20
44.041536583134416
30
0
10
68.629208646075298
20
44.045240749801088
30
0
10
68.636616979408643
20
44.497149083134424
30
0
10
68.651433646075304
20
45.037957416467755
30
0
0
SPLINE
5
317
100
AcDbEntity
8
0
100
AcDbSpline
70
4
71
3
72
8
73
4
74
0
42
0.000000001
43
0.0000000001
44
0.0000000001
40
0
40
0
40
0
40
0
40
1
40
1
40
1
40
1
41
1
41
1
41
1
41
1
10
68.947766979408641
20
46.026969916467749
30
0
10
69.095933646075309
20
46.026969916467749
30
0
10
69.218171146075306
20
46.015857416467753
30
0
10
69.218171146075306
20
45.997336583134413
30
0
0
SPLINE
5
318
100
AcDbEntity
8
0
100
AcDbSpline
70
4
71
3
72
8
73
4
74
0
42
0.000000001
43
0.0000000001
44
0.0000000001
40
0
40
0
40
0
40
0
40
1
40
1
40
1
40
1
41
1
41
1
41
1
41
1
10
68.688475312741971
20
43.400715749801087
30
0
10
68.67365864607531
20
43.400715749801087
30
0
10
68.6625461460753
20
43.408124083134425
30
0
10
68.6625461460753
20
43.422940749801086
30
0
0
SPLINE
5
319
100
AcDbEntity
8
0
100
AcDbSpline
70
4
71
3
72
8
73
4
74
0
42
0.000000001
43
0.0000000001
44
0.0000000001
40
0
40
0
40
0
40
0
40
1
40
1
40
1
40
1
41
1
41
1
41
1
41
1
10
72.337079479408644
20
45.656553249801092
30
0
10
71.933325312741971
20
45.656553249801092
30
0
10
71.91850864607531
20
45.663961583134416
30
0
10
71.740708646075305
20
45.960294916467753
30
0
0
SPLINE
5
320
100
AcDbEntity
8
0
100
AcDbSpline
70
4
71
3
72
8
73
4
74
0
42
0.000000001
43
0.0000000001
44
0.0000000001
40
0
40
0
40
0
40
0
40
1
40
1
40
1
40
1
41
1
41
1
41
1
41
1
10
71.540683646075308
20
46.134390749801085
30
0
10
71.336954479408647
20
46.201065749801089
30
0
10
68.292129479408629
20
46.204769916467754
30
0
10
67.817996146075302
20
46.138094916467757
30
0
0
SPLINE
5
321
100
AcDbEntity
8
0
100
AcDbSpline
70
4
71
3
72
8
73
4
74
0
42
0.000000001
43
0.0000000001
44
0.0000000001
40
0
40
0
40
0
40
0
40
1
40
1
40
1
40
1
41
1
41
1
41
1
41
1
10
67.506846146075304
20
43.41182824980109
30
0
10
67.44387531274198
20
43.422940749801086
30
0
10
67.362383646075301
20
43.434053249801082
30
0
10
67.325341979408634
20
43.434053249801082
30
0
0
LINE
5
322
100
AcDbEntity
8
0
100
AcDbLine
10
69.440421146075295
20
46.026969916467749
30
0
11
69.736754479408631
21
46.026969916467749
31
0
0
LINE
5
323
100
AcDbEntity
8
0
100
AcDbLine
10
68.651433646075304
20
45.037957416467755
30
0
11
68.67365864607531
21
46.026969916467749
31
0
0
SPLINE
5
324
100
AcDbEntity
8
0
100
AcDbSpline
70
4
71
3
72
8
73
4
74
0
42
0.000000001
43
0.0000000001
44
0.0000000001
40
0
40
0
40
0
40
0
40
1
40
1
40
1
40
1
41
1
41
1
41
1
41
1
10
67.951346146075309
20
45.152786583134414
30
0
10
68.003204479408637
20
45.745453249801081
30
0
10
68.036541979408639
20
45.96770324980109
30
0
10
68.073583646075306
20
45.993632416467761
30
0
0
LINE
5
325
100
AcDbEntity
8
0
100
AcDbLine
10
69.236691979408647
20
45.430599083134418
30
0
11
69.247804479408643
21
44.463811583134422
31
0
0
LINE
5
326
100
AcDbEntity
8
0
100
AcDbLine
10
72.363008646075301
20
43.582219916467757
30
0
11
72.70008781274197
21
43.582219916467757
31
0
0
LINE
5
327
100
AcDbEntity
8
0
100
AcDbLine
10
69.440421146075295
20
44.897199083134424
30
0
11
69.440421146075295
21
46.026969916467749
31
0
0
SPLINE
5
328
100
AcDbEntity
8
0
100
AcDbSpline
70
4
71
3
72
8
73
4
74
0
42
0.000000001
43
0.0000000001
44
0.0000000001
40
0
40
0
40
0
40
0
40
1
40
1
40
1
40
1
41
1
41
1
41
1
41
1
10
68.073583646075306
20
45.993632416467761
30
0
10
68.158779479408636
20
46.04549074980109
30
0
10
68.488450312741975
20
46.034378249801087
30
0
10
68.469929479408634
20
45.978815749801086
30
0
0
SPLINE
5
329
100
AcDbEntity
8
0
100
AcDbSpline
70
4
71
3
72
8
73
4
74
0
42
0.000000001
43
0.0000000001
44
0.0000000001
40
0
40
0
40
0
40
0
40
1
40
1
40
1
40
1
41
1
41
1
41
1
41
1
10
67.817996146075302
20
46.138094916467757
30
0
10
67.669829479408634
20
46.119574083134424
30
0
10
67.203104479408637
20
46.101053249801083
30
0
10
66.788237812741968
20
46.101053249801083
30
0
0
SPLINE
5
330
100
AcDbEntity
8
0
100
AcDbSpline
70
4
71
3
72
8
73
4
74
0
42
0.000000001
43
0.0000000001
44
0.0000000001
40
0
40
0
40
0
40
0
40
1
40
1
40
1
40
1
41
1
41
1
41
1
41
1
10
79.204604479408644
20
53.572357416467753
30
0
10
79.437966979408642
20
53.490865749801088
30
0
10
79.678737812741971
20
53.290840749801092
30
0
10
79.782454479408642
20
53.087111583134423
30
0
0
SPLINE
5
331
100
AcDbEntity
8
0
100
AcDbSpline
70
4
71
3
72
8
73
4
74
0
42
0.000000001
43
0.0000000001
44
0.0000000001
40
0
40
0
40
0
40
0
40
1
40
1
40
1
40
1
41
1
41
1
41
1
41
1
10
79.782454479408642
20
53.087111583134423
30
0
10
79.882466979408633
20
52.898199083134415
30
0
10
79.889875312741964
20
52.490740749801084
30
0
10
79.793566979408638
20
52.272194916467754
30
0
0
SPLINE
5
332
100
AcDbEntity
8
0
100
AcDbSpline
70
4
71
3
72
8
73
4
74
0
42
0.000000001
43
0.0000000001
44
0.0000000001
40
0
40
0
40
0
40
0
40
1
40
1
40
1
40
1
41
1
41
1
41
1
41
1
10
79.975071146075308
20
53.072294916467754
30
0
10
79.900987812741974
20
53.29454491646775
30
0
10
79.715779479408639
20
53.505682416467756
30
0
10
79.48241697940864
20
53.631624083134419
30
0
0
SPLINE
5
333
100
AcDbEntity
8
0
100
AcDbSpline
70
4
71
3
72
8
73
4
74
0
42
0.000000001
43
0.0000000001
44
0.0000000001
40
0
40
0
40
0
40
0
40
1
40
1
40
1
40
1
41
1
41
1
41
1
41
1
10
74.959629479408648
20
43.526657416467749
30
0
10
77.656262812741971
20
48.190203249801087
30
0
10
79.900987812741974
20
52.098099083134422
30
0
10
79.949141979408637
20
52.212928249801095
30
0
0
SPLINE
5
334
100
AcDbEntity
8
0
100
AcDbSpline
70
4
71
3
72
8
73
4
74
0
42
0.000000001
43
0.0000000001
44
0.0000000001
40
0
40
0
40
0
40
0
40
1
40
1
40
1
40
1
41
1
41
1
41
1
41
1
10
79.278687812741978
20
52.346278249801088
30
0
10
79.330546146075307
20
52.631499083134429
30
0
10
79.21571697940864
20
52.85745324980109
30
0
10
78.94901697940864
20
53.001915749801086
30
0
0
SPLINE
5
335
100
AcDbEntity
8
0
100
AcDbSpline
70
4
71
3
72
8
73
4
74
0
42
0.000000001
43
0.0000000001
44
0.0000000001
40
0
40
0
40
0
40
0
40
1
40
1
40
1
40
1
41
1
41
1
41
1
41
1
10
69.403379479408642
20
34.495899083134418
30
0
10
69.510800312741978
20
34.53664491646775
30
0
10
69.651558646075301
20
34.640361583134421
30
0
10
69.814541979408645
20
34.799640749801085
30
0
0
SPLINE
5
336
100
AcDbEntity
8
0
100
AcDbSpline
70
4
71
3
72
8
73
4
74
0
42
0.000000001
43
0.0000000001
44
0.0000000001
40
0
40
0
40
0
40
0
40
1
40
1
40
1
40
1
41
1
41
1
41
1
41
1
10
79.949141979408637
20
52.212928249801095
30
0
10
80.049154479408628
20
52.457403249801089
30
0
10
80.060266979408652
20
52.824115749801088
30
0
10
79.975071146075308
20
53.072294916467754
30
0
0
LINE
5
337
100
AcDbEntity
8
0
100
AcDbLine
10
78.793441979408641
20
53.08340741646775
30
0
11
68.999625312741969
21
53.094519916467753
31
0
0
SPLINE
5
338
100
AcDbEntity
8
0
100
AcDbSpline
70
4
71
3
72
8
73
4
74
0
42
0.000000001
43
0.0000000001
44
0.0000000001
40
0
40
0
40
0
40
0
40
1
40
1
40
1
40
1
41
1
41
1
41
1
41
1
10
69.784908646075309
20
34.999665749801082
30
0
10
69.647854479408636
20
34.829274083134422
30
0
10
69.395971146075311
20
34.66258658313442
30
0
10
69.207058646075296
20
34.61443241646775
30
0
0
SPLINE
5
339
100
AcDbEntity
8
0
100
AcDbSpline
70
4
71
3
72
8
73
4
74
0
42
0.000000001
43
0.0000000001
44
0.0000000001
40
0
40
0
40
0
40
0
40
1
40
1
40
1
40
1
41
1
41
1
41
1
41
1
10
68.599575312741976
20
34.510715749801086
30
0
10
68.851458646075315
20
34.418111583134419
30
0
10
69.162608646075313
20
34.414407416467753
30
0
10
69.403379479408642
20
34.495899083134418
30
0
0
SPLINE
5
340
100
AcDbEntity
8
0
100
AcDbSpline
70
4
71
3
72
8
73
4
74
0
42
0.000000001
43
0.0000000001
44
0.0000000001
40
0
40
0
40
0
40
0
40
1
40
1
40
1
40
1
41
1
41
1
41
1
41
1
10
68.558829479408644
20
35.373786583134418
30
0
10
68.688475312741971
20
35.236732416467753
30
0
10
68.895908646075299
20
35.136719916467754
30
0
10
69.036666979408636
20
35.136719916467754
30
0
0
SPLINE
5
341
100
AcDbEntity
8
0
100
AcDbSpline
70
4
71
3
72
8
73
4
74
0
42
0.000000001
43
0.0000000001
44
0.0000000001
40
0
40
0
40
0
40
0
40
1
40
1
40
1
40
1
41
1
41
1
41
1
41
1
10
63.017396146075306
20
43.545178249801083
30
0
10
68.447704479408628
20
34.195861583134423
30
0
10
68.151371146075306
20
34.677403249801088
30
0
10
68.599575312741976
20
34.510715749801086
30
0
0
SPLINE
5
342
100
AcDbEntity
8
0
100
AcDbSpline
70
4
71
3
72
8
73
4
74
0
42
0.000000001
43
0.0000000001
44
0.0000000001
40
0
40
0
40
0
40
0
40
1
40
1
40
1
40
1
41
1
41
1
41
1
41
1
10
58.920587812741971
20
53.805719916467751
30
0
10
58.483496146075296
20
53.724228249801087
30
0
10
58.139008646075311
20
53.47604908313442
30
0
10
57.979729479408633
20
53.138969916467751
30
0
0
SPLINE
5
343
100
AcDbEntity
8
0
100
AcDbSpline
70
4
71
3
72
8
73
4
74
0
42
0.000000001
43
0.0000000001
44
0.0000000001
40
0
40
0
40
0
40
0
40
1
40
1
40
1
40
1
41
1
41
1
41
1
41
1
10
58.735379479408643
20
52.798186583134417
30
0
10
58.650183646075298
20
52.653724083134421
30
0
10
58.63907114607531
20
52.412953249801085
30
0
10
58.713154479408644
20
52.238857416467752
30
0
0
SPLINE
5
344
100
AcDbEntity
8
0
100
AcDbSpline
70
4
71
3
72
8
73
4
74
0
42
0.000000001
43
0.0000000001
44
0.0000000001
40
0
40
0
40
0
40
0
40
1
40
1
40
1
40
1
41
1
41
1
41
1
41
1
10
63.16926697940864
20
43.626669916467755
30
0
10
60.443000312741972
20
48.319849083134415
30
0
10
58.176050312741978
20
52.246265749801083
30
0
10
58.139008646075311
20
52.357390749801084
30
0
0
SPLINE
5
345
100
AcDbEntity
8
0
100
AcDbSpline
70
4
71
3
72
8
73
4
74
0
42
0.000000001
43
0.0000000001
44
0.0000000001
40
0
40
0
40
0
40
0
40
1
40
1
40
1
40
1
41
1
41
1
41
1
41
1
10
58.713154479408644
20
52.238857416467752
30
0
10
58.739083646075308
20
52.172182416467756
30
0
10
60.931950312741975
20
48.386524083134418
30
0
10
63.584133646075301
20
43.822990749801093
30
0
0
LINE
5
346
100
AcDbEntity
8
0
100
AcDbLine
10
83.500000000000014
20
3.5000000000000009
30
-3.4999999999999964
11
8.4999999999999964
21
3.5000000000000009
31
-3.4999999999999964
0
LINE
5
347
100
AcDbEntity
8
0
100
AcDbLine
10
8.4999999999999964
20
52.500000000000007
30
-3.4999999999999964
11
83.500000000000014
21
52.500000000000007
31
-3.4999999999999964
0
LINE
5
348
100
AcDbEntity
8
0
100
AcDbLine
10
46.000000000000007
20
3.5000000000000009
30
-3.4999999999999964
11
46.000000000000007
21
52.500000000000007
31
-3.4999999999999964
0
LINE
5
349
100
AcDbEntity
8
0
100
AcDbLine
10
46.000000000000007
20
0
30
0
11
46.000000000000007
21
56.000000000000007
31
0
0
SPLINE
5
350
100
AcDbEntity
8
0
100
AcDbSpline
70
4
71
3
72
8
73
4
74
0
42
0.000000001
43
0.0000000001
44
0.0000000001
40
0
40
0
40
0
40
0
40
1
40
1
40
1
40
1
41
1
41
1
41
1
41
1
10
32.412662187258036
20
52.235153249801087
30
0
10
32.412662187258036
20
52.242561583134417
30
0
10
28.197320520591376
20
52.249969916467755
30
0
10
23.041120520591374
20
52.249969916467755
30
0
0
SPLINE
5
351
100
AcDbEntity
8
0
100
AcDbSpline
70
4
71
3
72
8
73
4
74
0
42
0.000000001
43
0.0000000001
44
0.0000000001
40
0
40
0
40
0
40
0
40
1
40
1
40
1
40
1
41
1
41
1
41
1
41
1
10
32.412662187258036
20
52.235153249801087
30
0
10
32.412662187258036
20
52.242561583134417
30
0
10
28.197320520591376
20
52.249969916467755
30
0
10
23.041120520591374
20
52.249969916467755
30
0
0
SPLINE
5
352
100
AcDbEntity
8
0
100
AcDbSpline
70
4
71
3
72
8
73
4
74
0
42
0.000000001
43
0.0000000001
44
0.0000000001
40
0
40
0
40
0
40
0
40
1
40
1
40
1
40
1
41
1
41
1
41
1
41
1
10
33.28684552059137
20
52.238857416467752
30
0
10
33.260916353924699
20
52.172182416467756
30
0
10
31.068049687258039
20
48.386524083134418
30
0
10
28.415866353924706
20
43.822990749801093
30
0
0
LINE
5
353
100
AcDbEntity
8
0
100
AcDbLine
10
23.000374687258038
20
53.094519916467753
30
0
11
32.794191353924717
21
53.101928249801091
31
0
0
SPLINE
5
354
100
AcDbEntity
8
0
100
AcDbSpline
70
4
71
3
72
8
73
4
74
0
42
0.000000001
43
0.0000000001
44
0.0000000001
40
0
40
0
40
0
40
0
40
1
40
1
40
1
40
1
41
1
41
1
41
1
41
1
10
23.363383020591371
20
44.041536583134416
30
0
10
23.370791353924709
20
44.045240749801088
30
0
10
23.363383020591371
20
44.497149083134424
30
0
10
23.348566353924703
20
45.037957416467755
30
0
0
SPLINE
5
355
100
AcDbEntity
8
0
100
AcDbSpline
70
4
71
3
72
8
73
4
74
0
42
0.000000001
43
0.0000000001
44
0.0000000001
40
0
40
0
40
0
40
0
40
1
40
1
40
1
40
1
41
1
41
1
41
1
41
1
10
25.9600038539247
20
44.041536583134416
30
0
10
25.274733020591373
20
44.056353249801091
30
0
10
24.819120520591369
20
44.052649083134419
30
0
10
24.819120520591369
20
44.034128249801086
30
0
0
SPLINE
5
356
100
AcDbEntity
8
0
100
AcDbSpline
70
4
71
3
72
8
73
4
74
0
42
0.000000001
43
0.0000000001
44
0.0000000001
40
0
40
0
40
0
40
0
40
1
40
1
40
1
40
1
41
1
41
1
41
1
41
1
10
26.641570520591369
20
45.286136583134422
30
0
10
26.726766353924702
20
45.182419916467751
30
0
10
26.730470520591368
20
44.926832416467747
30
0
10
26.648978853924703
20
44.808299083134422
30
0
0
SPLINE
5
357
100
AcDbEntity
8
0
100
AcDbSpline
70
4
71
3
72
8
73
4
74
0
42
0.000000001
43
0.0000000001
44
0.0000000001
40
0
40
0
40
0
40
0
40
1
40
1
40
1
40
1
41
1
41
1
41
1
41
1
10
25.556249687258035
20
45.404669916467753
30
0
10
26.541558020591367
20
45.371332416467752
30
0
10
26.574895520591369
20
45.367628249801086
30
0
10
26.641570520591369
20
45.286136583134422
30
0
0
SPLINE
5
358
100
AcDbEntity
8
0
100
AcDbSpline
70
4
71
3
72
8
73
4
74
0
42
0.000000001
43
0.0000000001
44
0.0000000001
40
0
40
0
40
0
40
0
40
1
40
1
40
1
40
1
41
1
41
1
41
1
41
1
10
23.311524687258036
20
43.400715749801087
30
0
10
23.326341353924704
20
43.400715749801087
30
0
10
23.337453853924703
20
43.408124083134425
30
0
10
23.337453853924703
20
43.422940749801086
30
0
0
SPLINE
5
359
100
AcDbEntity
8
0
100
AcDbSpline
70
4
71
3
72
8
73
4
74
0
42
0.000000001
43
0.0000000001
44
0.0000000001
40
0
40
0
40
0
40
0
40
1
40
1
40
1
40
1
41
1
41
1
41
1
41
1
10
24.18570802059137
20
45.96770324980109
30
0
10
24.141258020591376
20
46.015857416467753
30
0
10
24.137553853924707
20
46.05289908313442
30
0
10
24.244974687258036
20
44.767553249801082
30
0
0
LINE
5
360
100
AcDbEntity
8
0
100
AcDbLine
10
27.163858020591363
20
44.104507416467754
30
0
11
27.104591353924707
21
44.015607416467752
31
0
0
SPLINE
5
361
100
AcDbEntity
8
0
100
AcDbSpline
70
4
71
3
72
8
73
4
74
0
42
0.000000001
43
0.0000000001
44
0.0000000001
40
0
40
0
40
0
40
0
40
1
40
1
40
1
40
1
41
1
41
1
41
1
41
1
10
26.619345520591366
20
43.337744916467749
30
0
10
26.563783020591369
20
43.263661583134414
30
0
10
26.537853853924709
20
43.259957416467749
30
0
10
24.941358020591373
20
43.256253249801091
30
0
0
LINE
5
362
100
AcDbEntity
8
0
100
AcDbLine
10
23.837516353924713
20
44.437882416467758
30
0
11
23.526366353924708
21
45.415782416467749
31
0
0
SPLINE
5
363
100
AcDbEntity
8
0
100
AcDbSpline
70
4
71
3
72
8
73
4
74
0
42
0.000000001
43
0.0000000001
44
0.0000000001
40
0
40
0
40
0
40
0
40
1
40
1
40
1
40
1
41
1
41
1
41
1
41
1
10
23.530070520591373
20
45.978815749801086
30
0
10
23.541183020591376
20
45.956590749801087
30
0
10
23.670828853924704
20
45.541724083134419
30
0
10
23.822699687258044
20
45.056478249801089
30
0
0
LINE
5
364
100
AcDbEntity
8
0
100
AcDbLine
10
27.104591353924707
20
44.015607416467752
30
0
11
25.960003853924711
21
44.041536583134416
31
0
0
SPLINE
5
365
100
AcDbEntity
8
0
100
AcDbSpline
70
4
71
3
72
8
73
4
74
0
42
0.000000001
43
0.0000000001
44
0.0000000001
40
0
40
0
40
0
40
0
40
1
40
1
40
1
40
1
41
1
41
1
41
1
41
1
10
23.363383020591371
20
44.041536583134416
30
0
10
23.370791353924709
20
44.045240749801088
30
0
10
23.363383020591371
20
44.497149083134424
30
0
10
23.348566353924703
20
45.037957416467755
30
0
0
LINE
5
366
100
AcDbEntity
8
0
100
AcDbLine
10
23.837516353924713
20
44.437882416467758
30
0
11
23.526366353924708
21
45.415782416467749
31
0
0
SPLINE
5
367
100
AcDbEntity
8
0
100
AcDbSpline
70
4
71
3
72
8
73
4
74
0
42
0.000000001
43
0.0000000001
44
0.0000000001
40
0
40
0
40
0
40
0
40
1
40
1
40
1
40
1
41
1
41
1
41
1
41
1
10
24.107920520591371
20
44.260082416467753
30
0
10
24.11162468725804
20
44.304532416467751
30
0
10
24.085695520591372
20
44.704582416467751
30
0
10
24.048653853924709
20
45.152786583134414
30
0
0
SPLINE
5
368
100
AcDbEntity
8
0
100
AcDbSpline
70
4
71
3
72
8
73
4
74
0
42
0.000000001
43
0.0000000001
44
0.0000000001
40
0
40
0
40
0
40
0
40
1
40
1
40
1
40
1
41
1
41
1
41
1
41
1
10
23.926416353924704
20
45.993632416467761
30
0
10
23.841220520591371
20
46.04549074980109
30
0
10
23.511549687258039
20
46.034378249801087
30
0
10
23.530070520591373
20
45.978815749801086
30
0
0
LINE
5
369
100
AcDbEntity
8
0
100
AcDbLine
10
23.326341353924704
20
46.026969916467749
30
0
11
23.052233020591373
21
46.026969916467749
31
0
0
SPLINE
5
370
100
AcDbEntity
8
0
100
AcDbSpline
70
4
71
3
72
8
73
4
74
0
42
0.000000001
43
0.0000000001
44
0.0000000001
40
0
40
0
40
0
40
0
40
1
40
1
40
1
40
1
41
1
41
1
41
1
41
1
10
24.652433020591367
20
44.204519916467753
30
0
10
24.526491353924705
20
44.789778249801088
30
0
10
24.22645385392471
20
45.926957416467751
30
0
10
24.18570802059137
20
45.96770324980109
30
0
0
SPLINE
5
371
100
AcDbEntity
8
0
100
AcDbSpline
70
4
71
3
72
8
73
4
74
0
42
0.000000001
43
0.0000000001
44
0.0000000001
40
0
40
0
40
0
40
0
40
1
40
1
40
1
40
1
41
1
41
1
41
1
41
1
10
23.530070520591373
20
45.978815749801086
30
0
10
23.541183020591376
20
45.956590749801087
30
0
10
23.670828853924704
20
45.541724083134419
30
0
10
23.822699687258044
20
45.056478249801089
30
0
0
SPLINE
5
372
100
AcDbEntity
8
0
100
AcDbSpline
70
4
71
3
72
8
73
4
74
0
42
0.000000001
43
0.0000000001
44
0.0000000001
40
0
40
0
40
0
40
0
40
1
40
1
40
1
40
1
41
1
41
1
41
1
41
1
10
24.652433020591367
20
44.204519916467753
30
0
10
24.526491353924705
20
44.789778249801088
30
0
10
24.22645385392471
20
45.926957416467751
30
0
10
24.18570802059137
20
45.96770324980109
30
0
0
SPLINE
5
373
100
AcDbEntity
8
0
100
AcDbSpline
70
4
71
3
72
8
73
4
74
0
42
0.000000001
43
0.0000000001
44
0.0000000001
40
0
40
0
40
0
40
0
40
1
40
1
40
1
40
1
41
1
41
1
41
1
41
1
10
23.448578853924698
20
42.722853249801091
30
0
10
23.537478853924707
20
42.511715749801084
30
0
10
23.526366353924708
20
42.433928249801092
30
0
10
23.404128853924703
20
42.43763241646775
30
0
0
SPLINE
5
374
100
AcDbEntity
8
0
100
AcDbSpline
70
4
71
3
72
8
73
4
74
0
42
0.000000001
43
0.0000000001
44
0.0000000001
40
0
40
0
40
0
40
0
40
1
40
1
40
1
40
1
41
1
41
1
41
1
41
1
10
25.963708020591376
20
43.930411583134415
30
0
10
26.634162187258035
20
43.900778249801093
30
0
10
26.671203853924705
20
43.882257416467752
30
0
10
26.671203853924705
20
43.589628249801081
30
0
0
SPLINE
5
375
100
AcDbEntity
8
0
100
AcDbSpline
70
4
71
3
72
8
73
4
74
0
42
0.000000001
43
0.0000000001
44
0.0000000001
40
0
40
0
40
0
40
0
40
1
40
1
40
1
40
1
41
1
41
1
41
1
41
1
10
25.619220520591377
20
44.741624083134411
30
0
10
25.037666353924706
20
44.752736583134421
30
0
10
24.793191353924708
20
44.749032416467749
30
0
10
25.004328853924704
20
44.730511583134422
30
0
0
SPLINE
5
376
100
AcDbEntity
8
0
100
AcDbSpline
70
4
71
3
72
8
73
4
74
0
42
0.000000001
43
0.0000000001
44
0.0000000001
40
0
40
0
40
0
40
0
40
1
40
1
40
1
40
1
41
1
41
1
41
1
41
1
10
25.211762187258042
20
46.101053249801083
30
0
10
25.645149687258044
20
46.101053249801083
30
0
10
26.000749687258036
20
46.086236583134422
30
0
10
26.041495520591376
20
46.064011583134423
30
0
0
LINE
5
377
100
AcDbEntity
8
0
100
AcDbLine
10
23.548591353924706
20
43.923003249801098
30
0
11
23.570816353924712
21
43.397011583134422
31
0
0
SPLINE
5
378
100
AcDbEntity
8
0
100
AcDbSpline
70
4
71
3
72
8
73
4
74
0
42
0.000000001
43
0.0000000001
44
0.0000000001
40
0
40
0
40
0
40
0
40
1
40
1
40
1
40
1
41
1
41
1
41
1
41
1
10
23.311524687258036
20
43.400715749801087
30
0
10
23.326341353924704
20
43.400715749801087
30
0
10
23.337453853924703
20
43.408124083134425
30
0
10
23.337453853924703
20
43.422940749801086
30
0
0
SPLINE
5
379
100
AcDbEntity
8
0
100
AcDbSpline
70
4
71
3
72
8
73
4
74
0
42
0.000000001
43
0.0000000001
44
0.0000000001
40
0
40
0
40
0
40
0
40
1
40
1
40
1
40
1
41
1
41
1
41
1
41
1
10
22.752195520591371
20
44.463811583134422
30
0
10
22.748491353924702
20
43.930411583134415
30
0
10
22.752195520591371
20
43.489615749801089
30
0
10
22.763308020591371
20
43.478503249801086
30
0
0
LINE
5
380
100
AcDbEntity
8
0
100
AcDbLine
10
27.104591353924707
20
44.015607416467752
30
0
11
25.960003853924711
21
44.041536583134416
31
0
0
SPLINE
5
381
100
AcDbEntity
8
0
100
AcDbSpline
70
4
71
3
72
8
73
4
74
0
42
0.000000001
43
0.0000000001
44
0.0000000001
40
0
40
0
40
0
40
0
40
1
40
1
40
1
40
1
41
1
41
1
41
1
41
1
10
23.448578853924698
20
42.722853249801091
30
0
10
23.537478853924707
20
42.511715749801084
30
0
10
23.526366353924708
20
42.433928249801092
30
0
10
23.404128853924703
20
42.43763241646775
30
0
0
SPLINE
5
382
100
AcDbEntity
8
0
100
AcDbSpline
70
4
71
3
72
8
73
4
74
0
42
0.000000001
43
0.0000000001
44
0.0000000001
40
0
40
0
40
0
40
0
40
1
40
1
40
1
40
1
41
1
41
1
41
1
41
1
10
23.863445520591373
20
43.397011583134422
30
0
10
24.022724687258041
20
43.397011583134422
30
0
10
24.152370520591369
20
43.41182824980109
30
0
10
24.152370520591369
20
43.430349083134416
30
0
0
SPLINE
5
383
100
AcDbEntity
8
0
100
AcDbSpline
70
4
71
3
72
8
73
4
74
0
42
0.000000001
43
0.0000000001
44
0.0000000001
40
0
40
0
40
0
40
0
40
1
40
1
40
1
40
1
41
1
41
1
41
1
41
1
10
22.763308020591371
20
43.478503249801086
30
0
10
22.77442052059137
20
43.467390749801083
30
0
10
22.892953853924709
20
43.445165749801085
30
0
10
23.03371218725804
20
43.434053249801082
30
0
0
SPLINE
5
384
100
AcDbEntity
8
0
100
AcDbSpline
70
4
71
3
72
8
73
4
74
0
42
0.000000001
43
0.0000000001
44
0.0000000001
40
0
40
0
40
0
40
0
40
1
40
1
40
1
40
1
41
1
41
1
41
1
41
1
10
24.18570802059137
20
45.96770324980109
30
0
10
24.141258020591376
20
46.015857416467753
30
0
10
24.137553853924707
20
46.05289908313442
30
0
10
24.244974687258036
20
44.767553249801082
30
0
0
SPLINE
5
385
100
AcDbEntity
8
0
100
AcDbSpline
70
4
71
3
72
8
73
4
74
0
42
0.000000001
43
0.0000000001
44
0.0000000001
40
0
40
0
40
0
40
0
40
1
40
1
40
1
40
1
41
1
41
1
41
1
41
1
10
26.671203853924705
20
43.589628249801081
30
0
10
26.671203853924705
20
43.493319916467748
30
0
10
26.645274687258038
20
43.378490749801088
30
0
10
26.619345520591366
20
43.337744916467749
30
0
0
SPLINE
5
386
100
AcDbEntity
8
0
100
AcDbSpline
70
4
71
3
72
8
73
4
74
0
42
0.000000001
43
0.0000000001
44
0.0000000001
40
0
40
0
40
0
40
0
40
1
40
1
40
1
40
1
41
1
41
1
41
1
41
1
10
23.926416353924704
20
45.993632416467761
30
0
10
23.841220520591371
20
46.04549074980109
30
0
10
23.511549687258039
20
46.034378249801087
30
0
10
23.530070520591373
20
45.978815749801086
30
0
0
LINE
5
387
100
AcDbEntity
8
0
100
AcDbLine
10
26.648978853924703
20
44.808299083134422
30
0
11
26.586008020591372
21
44.719399083134419
31
0
0
LINE
5
388
100
AcDbEntity
8
0
100
AcDbLine
10
27.163858020591363
20
44.104507416467754
30
0
11
27.104591353924707
21
44.015607416467752
31
0
0
LINE
5
389
100
AcDbEntity
8
0
100
AcDbLine
10
23.526366353924708
20
45.415782416467749
30
0
11
23.526366353924708
21
44.934240749801084
31
0
0
LINE
5
390
100
AcDbEntity
8
0
100
AcDbLine
10
23.548591353924706
20
43.923003249801098
30
0
11
23.570816353924712
21
43.397011583134422
31
0
0
SPLINE
5
391
100
AcDbEntity
8
0
100
AcDbSpline
70
4
71
3
72
8
73
4
74
0
42
0.000000001
43
0.0000000001
44
0.0000000001
40
0
40
0
40
0
40
0
40
1
40
1
40
1
40
1
41
1
41
1
41
1
41
1
10
26.15262052059137
20
45.641736583134424
30
0
10
26.082241353924704
20
45.42319074980108
30
0
10
26.082241353924704
20
45.42319074980108
30
0
10
25.278437187258042
20
45.467640749801092
30
0
0
SPLINE
5
392
100
AcDbEntity
8
0
100
AcDbSpline
70
4
71
3
72
8
73
4
74
0
42
0.000000001
43
0.0000000001
44
0.0000000001
40
0
40
0
40
0
40
0
40
1
40
1
40
1
40
1
41
1
41
1
41
1
41
1
10
26.041495520591376
20
46.064011583134423
30
0
10
26.148916353924712
20
46.008449083134416
30
0
10
26.204478853924709
20
45.793607416467751
30
0
10
26.15262052059137
20
45.641736583134424
30
0
0
LINE
5
393
100
AcDbEntity
8
0
100
AcDbLine
10
26.586008020591372
20
44.719399083134419
30
0
11
25.619220520591377
21
44.741624083134425
31
0
0
LINE
5
394
100
AcDbEntity
8
0
100
AcDbLine
10
23.348566353924703
20
45.037957416467755
30
0
11
23.326341353924704
21
46.026969916467749
31
0
0
SPLINE
5
395
100
AcDbEntity
8
0
100
AcDbSpline
70
4
71
3
72
8
73
4
74
0
42
0.000000001
43
0.0000000001
44
0.0000000001
40
0
40
0
40
0
40
0
40
1
40
1
40
1
40
1
41
1
41
1
41
1
41
1
10
25.211762187258042
20
46.101053249801083
30
0
10
25.645149687258044
20
46.101053249801083
30
0
10
26.000749687258036
20
46.086236583134422
30
0
10
26.041495520591376
20
46.064011583134423
30
0
0
LINE
5
396
100
AcDbEntity
8
0
100
AcDbLine
10
26.20077468725804
20
44.697174083134414
30
0
11
27.045324687258045
21
44.693469916467748
31
0
0
SPLINE
5
397
100
AcDbEntity
8
0
100
AcDbSpline
70
4
71
3
72
8
73
4
74
0
42
0.000000001
43
0.0000000001
44
0.0000000001
40
0
40
0
40
0
40
0
40
1
40
1
40
1
40
1
41
1
41
1
41
1
41
1
10
24.493153853924703
20
43.41182824980109
30
0
10
24.556124687258034
20
43.422940749801086
30
0
10
24.63761635392471
20
43.434053249801082
30
0
10
24.674658020591373
20
43.434053249801082
30
0
0
SPLINE
5
398
100
AcDbEntity
8
0
100
AcDbSpline
70
4
71
3
72
8
73
4
74
0
42
0.000000001
43
0.0000000001
44
0.0000000001
40
0
40
0
40
0
40
0
40
1
40
1
40
1
40
1
41
1
41
1
41
1
41
1
10
26.671203853924705
20
43.589628249801081
30
0
10
26.671203853924705
20
43.493319916467748
30
0
10
26.645274687258038
20
43.378490749801088
30
0
10
26.619345520591366
20
43.337744916467749
30
0
0
LINE
5
399
100
AcDbEntity
8
0
100
AcDbLine
10
23.326341353924704
20
46.026969916467749
30
0
11
23.052233020591373
21
46.026969916467749
31
0
0
LINE
5
400
100
AcDbEntity
8
0
100
AcDbLine
10
26.20077468725804
20
44.697174083134414
30
0
11
27.045324687258045
21
44.693469916467748
31
0
0
SPLINE
5
401
100
AcDbEntity
8
0
100
AcDbSpline
70
4
71
3
72
8
73
4
74
0
42
0.000000001
43
0.0000000001
44
0.0000000001
40
0
40
0
40
0
40
0
40
1
40
1
40
1
40
1
41
1
41
1
41
1
41
1
10
26.15262052059137
20
45.641736583134424
30
0
10
26.082241353924704
20
45.42319074980108
30
0
10
26.082241353924704
20
45.42319074980108
30
0
10
25.278437187258042
20
45.467640749801092
30
0
0
SPLINE
5
402
100
AcDbEntity
8
0
100
AcDbSpline
70
4
71
3
72
8
73
4
74
0
42
0.000000001
43
0.0000000001
44
0.0000000001
40
0
40
0
40
0
40
0
40
1
40
1
40
1
40
1
41
1
41
1
41
1
41
1
10
26.041495520591376
20
46.064011583134423
30
0
10
26.148916353924712
20
46.008449083134416
30
0
10
26.204478853924709
20
45.793607416467751
30
0
10
26.15262052059137
20
45.641736583134424
30
0
0
LINE
5
403
100
AcDbEntity
8
0
100
AcDbLine
10
23.570816353924712
20
43.397011583134422
30
0
11
23.863445520591373
21
43.397011583134422
31
0
0
SPLINE
5
404
100
AcDbEntity
8
0
100
AcDbSpline
70
4
71
3
72
8
73
4
74
0
42
0.000000001
43
0.0000000001
44
0.0000000001
40
0
40
0
40
0
40
0
40
1
40
1
40
1
40
1
41
1
41
1
41
1
41
1
10
25.004328853924704
20
44.730511583134422
30
0
10
25.196945520591374
20
44.715694916467754
30
0
10
25.737753853924701
20
44.700878249801086
30
0
10
26.20077468725804
20
44.697174083134421
30
0
0
SPLINE
5
405
100
AcDbEntity
8
0
100
AcDbSpline
70
4
71
3
72
8
73
4
74
0
42
0.000000001
43
0.0000000001
44
0.0000000001
40
0
40
0
40
0
40
0
40
1
40
1
40
1
40
1
41
1
41
1
41
1
41
1
10
24.048653853924709
20
45.152786583134414
30
0
10
23.99679552059137
20
45.745453249801081
30
0
10
23.963458020591375
20
45.96770324980109
30
0
10
23.926416353924704
20
45.993632416467761
30
0
0
LINE
5
406
100
AcDbEntity
8
0
100
AcDbLine
10
23.526366353924708
20
45.415782416467749
30
0
11
23.526366353924708
21
44.934240749801084
31
0
0
SPLINE
5
407
100
AcDbEntity
8
0
100
AcDbSpline
70
4
71
3
72
8
73
4
74
0
42
0.000000001
43
0.0000000001
44
0.0000000001
40
0
40
0
40
0
40
0
40
1
40
1
40
1
40
1
41
1
41
1
41
1
41
1
10
24.493153853924703
20
43.41182824980109
30
0
10
24.556124687258034
20
43.422940749801086
30
0
10
24.63761635392471
20
43.434053249801082
30
0
10
24.674658020591373
20
43.434053249801082
30
0
0
SPLINE
5
408
100
AcDbEntity
8
0
100
AcDbSpline
70
4
71
3
72
8
73
4
74
0
42
0.000000001
43
0.0000000001
44
0.0000000001
40
0
40
0
40
0
40
0
40
1
40
1
40
1
40
1
41
1
41
1
41
1
41
1
10
23.822699687258044
20
45.056478249801089
30
0
10
23.974570520591378
20
44.574936583134416
30
0
10
24.10051218725804
20
44.215632416467756
30
0
10
24.107920520591371
20
44.260082416467753
30
0
0
SPLINE
5
409
100
AcDbEntity
8
0
100
AcDbSpline
70
4
71
3
72
8
73
4
74
0
42
0.000000001
43
0.0000000001
44
0.0000000001
40
0
40
0
40
0
40
0
40
1
40
1
40
1
40
1
41
1
41
1
41
1
41
1
10
23.822699687258044
20
45.056478249801089
30
0
10
23.974570520591378
20
44.574936583134416
30
0
10
24.10051218725804
20
44.215632416467756
30
0
10
24.107920520591371
20
44.260082416467753
30
0
0
LINE
5
410
100
AcDbEntity
8
0
100
AcDbLine
10
27.045324687258045
20
44.693469916467748
30
0
11
27.134224687258033
21
44.600865749801088
31
0
0
SPLINE
5
411
100
AcDbEntity
8
0
100
AcDbSpline
70
4
71
3
72
8
73
4
74
0
42
0.000000001
43
0.0000000001
44
0.0000000001
40
0
40
0
40
0
40
0
40
1
40
1
40
1
40
1
41
1
41
1
41
1
41
1
10
20.463020520591371
20
42.933990749801083
30
0
10
20.414866353924701
20
42.967328249801085
30
0
10
20.325966353924709
20
43.078453249801086
30
0
10
20.270403853924705
20
43.18216991646775
30
0
0
SPLINE
5
412
100
AcDbEntity
8
0
100
AcDbSpline
70
4
71
3
72
8
73
4
74
0
42
0.000000001
43
0.0000000001
44
0.0000000001
40
0
40
0
40
0
40
0
40
1
40
1
40
1
40
1
41
1
41
1
41
1
41
1
10
25.619220520591377
20
44.741624083134411
30
0
10
25.037666353924706
20
44.752736583134421
30
0
10
24.793191353924708
20
44.749032416467749
30
0
10
25.004328853924704
20
44.730511583134422
30
0
0
LINE
5
413
100
AcDbEntity
8
0
100
AcDbLine
10
13.050983020591369
20
53.0019157498011
30
0
11
13.206558020591368
21
53.08340741646775
31
0
0
LINE
5
414
100
AcDbEntity
8
0
100
AcDbLine
10
26.586008020591372
20
44.719399083134419
30
0
11
25.619220520591377
21
44.741624083134425
31
0
0
SPLINE
5
415
100
AcDbEntity
8
0
100
AcDbSpline
70
4
71
3
72
8
73
4
74
0
42
0.000000001
43
0.0000000001
44
0.0000000001
40
0
40
0
40
0
40
0
40
1
40
1
40
1
40
1
41
1
41
1
41
1
41
1
10
22.900362187258033
20
43.289590749801086
30
0
10
22.670703853924703
20
43.311815749801085
30
0
10
22.474383020591368
20
43.322928249801087
30
0
10
22.463270520591372
20
43.315519916467757
30
0
0
LINE
5
416
100
AcDbEntity
8
0
100
AcDbLine
10
19.299912187258037
20
43.582219916467757
30
0
11
19.299912187258037
21
44.619386583134421
31
0
0
SPLINE
5
417
100
AcDbEntity
8
0
100
AcDbSpline
70
4
71
3
72
8
73
4
74
0
42
0.000000001
43
0.0000000001
44
0.0000000001
40
0
40
0
40
0
40
0
40
1
40
1
40
1
40
1
41
1
41
1
41
1
41
1
10
22.752195520591371
20
44.463811583134422
30
0
10
22.748491353924702
20
43.930411583134415
30
0
10
22.752195520591371
20
43.489615749801089
30
0
10
22.763308020591371
20
43.478503249801086
30
0
0
SPLINE
5
418
100
AcDbEntity
8
0
100
AcDbSpline
70
4
71
3
72
8
73
4
74
0
42
0.000000001
43
0.0000000001
44
0.0000000001
40
0
40
0
40
0
40
0
40
1
40
1
40
1
40
1
41
1
41
1
41
1
41
1
10
24.048653853924709
20
45.152786583134414
30
0
10
23.99679552059137
20
45.745453249801081
30
0
10
23.963458020591375
20
45.96770324980109
30
0
10
23.926416353924704
20
45.993632416467761
30
0
0
SPLINE
5
419
100
AcDbEntity
8
0
100
AcDbSpline
70
4
71
3
72
8
73
4
74
0
42
0.000000001
43
0.0000000001
44
0.0000000001
40
0
40
0
40
0
40
0
40
1
40
1
40
1
40
1
41
1
41
1
41
1
41
1
10
23.863445520591373
20
43.397011583134422
30
0
10
24.022724687258041
20
43.397011583134422
30
0
10
24.152370520591369
20
43.41182824980109
30
0
10
24.152370520591369
20
43.430349083134416
30
0
0
LINE
5
420
100
AcDbEntity
8
0
100
AcDbLine
10
26.648978853924703
20
44.808299083134422
30
0
11
26.586008020591372
21
44.719399083134419
31
0
0
SPLINE
5
421
100
AcDbEntity
8
0
100
AcDbSpline
70
4
71
3
72
8
73
4
74
0
42
0.000000001
43
0.0000000001
44
0.0000000001
40
0
40
0
40
0
40
0
40
1
40
1
40
1
40
1
41
1
41
1
41
1
41
1
10
25.9600038539247
20
44.041536583134416
30
0
10
25.274733020591373
20
44.056353249801091
30
0
10
24.819120520591369
20
44.052649083134419
30
0
10
24.819120520591369
20
44.034128249801086
30
0
0
SPLINE
5
422
100
AcDbEntity
8
0
100
AcDbSpline
70
4
71
3
72
8
73
4
74
0
42
0.000000001
43
0.0000000001
44
0.0000000001
40
0
40
0
40
0
40
0
40
1
40
1
40
1
40
1
41
1
41
1
41
1
41
1
10
22.463270520591372
20
43.315519916467757
30
0
10
22.455862187258031
20
43.304407416467754
30
0
10
22.611437187258041
20
43.252549083134411
30
0
10
22.807758020591365
20
43.193282416467753
30
0
0
SPLINE
5
423
100
AcDbEntity
8
0
100
AcDbSpline
70
4
71
3
72
8
73
4
74
0
42
0.000000001
43
0.0000000001
44
0.0000000001
40
0
40
0
40
0
40
0
40
1
40
1
40
1
40
1
41
1
41
1
41
1
41
1
10
22.463270520591372
20
43.315519916467757
30
0
10
22.455862187258031
20
43.304407416467754
30
0
10
22.611437187258041
20
43.252549083134411
30
0
10
22.807758020591365
20
43.193282416467753
30
0
0
SPLINE
5
424
100
AcDbEntity
8
0
100
AcDbSpline
70
4
71
3
72
8
73
4
74
0
42
0.000000001
43
0.0000000001
44
0.0000000001
40
0
40
0
40
0
40
0
40
1
40
1
40
1
40
1
41
1
41
1
41
1
41
1
10
12.217545520591369
20
53.087111583134423
30
0
10
12.117533020591376
20
52.898199083134415
30
0
10
12.110124687258041
20
52.490740749801084
30
0
10
12.206433020591367
20
52.272194916467754
30
0
0
SPLINE
5
425
100
AcDbEntity
8
0
100
AcDbSpline
70
4
71
3
72
8
73
4
74
0
42
0.000000001
43
0.0000000001
44
0.0000000001
40
0
40
0
40
0
40
0
40
1
40
1
40
1
40
1
41
1
41
1
41
1
41
1
10
23.337453853924703
20
43.422940749801086
30
0
10
23.341158020591372
20
43.441461583134419
30
0
10
23.211512187258041
20
43.89707408313442
30
0
10
23.052233020591373
20
44.441586583134416
30
0
0
SPLINE
5
426
100
AcDbEntity
8
0
100
AcDbSpline
70
4
71
3
72
8
73
4
74
0
42
0.000000001
43
0.0000000001
44
0.0000000001
40
0
40
0
40
0
40
0
40
1
40
1
40
1
40
1
41
1
41
1
41
1
41
1
10
20.463020520591371
20
42.933990749801083
30
0
10
20.414866353924701
20
42.967328249801085
30
0
10
20.325966353924709
20
43.078453249801086
30
0
10
20.270403853924705
20
43.18216991646775
30
0
0
SPLINE
5
427
100
AcDbEntity
8
0
100
AcDbSpline
70
4
71
3
72
8
73
4
74
0
42
0.000000001
43
0.0000000001
44
0.0000000001
40
0
40
0
40
0
40
0
40
1
40
1
40
1
40
1
41
1
41
1
41
1
41
1
10
12.024928853924708
20
53.072294916467754
30
0
10
12.09901218725804
20
53.29454491646775
30
0
10
12.284220520591376
20
53.505682416467756
30
0
10
12.517583020591374
20
53.631624083134419
30
0
0
LINE
5
428
100
AcDbEntity
8
0
100
AcDbLine
10
19.299912187258037
20
44.619386583134421
30
0
11
19.299912187258037
21
45.656553249801078
31
0
0
SPLINE
5
429
100
AcDbEntity
8
0
100
AcDbSpline
70
4
71
3
72
8
73
4
74
0
42
0.000000001
43
0.0000000001
44
0.0000000001
40
0
40
0
40
0
40
0
40
1
40
1
40
1
40
1
41
1
41
1
41
1
41
1
10
24.244974687258036
20
44.767553249801082
30
0
10
24.367212187258041
20
43.293294916467751
30
0
10
24.352395520591372
20
43.382194916467753
30
0
10
24.493153853924703
20
43.41182824980109
30
0
0
SPLINE
5
430
100
AcDbEntity
8
0
100
AcDbSpline
70
4
71
3
72
8
73
4
74
0
42
0.000000001
43
0.0000000001
44
0.0000000001
40
0
40
0
40
0
40
0
40
1
40
1
40
1
40
1
41
1
41
1
41
1
41
1
10
24.152370520591369
20
43.430349083134416
30
0
10
24.152370520591369
20
43.445165749801085
30
0
10
24.011612187258038
20
43.900778249801093
30
0
10
23.837516353924705
20
44.437882416467751
30
0
0
SPLINE
5
431
100
AcDbEntity
8
0
100
AcDbSpline
70
4
71
3
72
8
73
4
74
0
42
0.000000001
43
0.0000000001
44
0.0000000001
40
0
40
0
40
0
40
0
40
1
40
1
40
1
40
1
41
1
41
1
41
1
41
1
10
24.244974687258036
20
44.767553249801082
30
0
10
24.367212187258041
20
43.293294916467751
30
0
10
24.352395520591372
20
43.382194916467753
30
0
10
24.493153853924703
20
43.41182824980109
30
0
0
SPLINE
5
432
100
AcDbEntity
8
0
100
AcDbSpline
70
4
71
3
72
8
73
4
74
0
42
0.000000001
43
0.0000000001
44
0.0000000001
40
0
40
0
40
0
40
0
40
1
40
1
40
1
40
1
41
1
41
1
41
1
41
1
10
23.526366353924708
20
44.934240749801084
30
0
10
23.522662187258039
20
44.667540749801084
30
0
10
23.533774687258038
20
44.215632416467756
30
0
10
23.548591353924706
20
43.923003249801091
30
0
0
SPLINE
5
433
100
AcDbEntity
8
0
100
AcDbSpline
70
4
71
3
72
8
73
4
74
0
42
0.000000001
43
0.0000000001
44
0.0000000001
40
0
40
0
40
0
40
0
40
1
40
1
40
1
40
1
41
1
41
1
41
1
41
1
10
24.819120520591369
20
44.034128249801086
30
0
10
24.819120520591369
20
43.993382416467753
30
0
10
25.145087187258035
20
43.963749083134417
30
0
10
25.963708020591376
20
43.930411583134415
30
0
0
LINE
5
434
100
AcDbEntity
8
0
100
AcDbLine
10
19.636991353924707
20
43.582219916467757
30
0
11
19.299912187258037
21
43.582219916467757
31
0
0
SPLINE
5
435
100
AcDbEntity
8
0
100
AcDbSpline
70
4
71
3
72
8
73
4
74
0
42
0.000000001
43
0.0000000001
44
0.0000000001
40
0
40
0
40
0
40
0
40
1
40
1
40
1
40
1
41
1
41
1
41
1
41
1
10
20.270403853924705
20
43.18216991646775
30
0
10
20.214841353924704
20
43.289590749801086
30
0
10
20.125941353924706
20
43.422940749801086
30
0
10
20.070378853924709
20
43.478503249801086
30
0
0
SPLINE
5
436
100
AcDbEntity
8
0
100
AcDbSpline
70
4
71
3
72
8
73
4
74
0
42
0.000000001
43
0.0000000001
44
0.0000000001
40
0
40
0
40
0
40
0
40
1
40
1
40
1
40
1
41
1
41
1
41
1
41
1
10
25.963708020591376
20
43.930411583134415
30
0
10
26.634162187258035
20
43.900778249801093
30
0
10
26.671203853924705
20
43.882257416467752
30
0
10
26.671203853924705
20
43.589628249801081
30
0
0
SPLINE
5
437
100
AcDbEntity
8
0
100
AcDbSpline
70
4
71
3
72
8
73
4
74
0
42
0.000000001
43
0.0000000001
44
0.0000000001
40
0
40
0
40
0
40
0
40
1
40
1
40
1
40
1
41
1
41
1
41
1
41
1
10
20.270403853924705
20
43.18216991646775
30
0
10
20.214841353924704
20
43.289590749801086
30
0
10
20.125941353924706
20
43.422940749801086
30
0
10
20.070378853924709
20
43.478503249801086
30
0
0
LINE
5
438
100
AcDbEntity
8
0
100
AcDbLine
10
19.299912187258037
20
44.619386583134421
30
0
11
19.299912187258037
21
45.656553249801078
31
0
0
LINE
5
439
100
AcDbEntity
8
0
100
AcDbLine
10
19.299912187258037
20
45.656553249801078
30
0
11
19.662920520591378
21
45.656553249801092
31
0
0
SPLINE
5
440
100
AcDbEntity
8
0
100
AcDbSpline
70
4
71
3
72
8
73
4
74
0
42
0.000000001
43
0.0000000001
44
0.0000000001
40
0
40
0
40
0
40
0
40
1
40
1
40
1
40
1
41
1
41
1
41
1
41
1
10
24.674658020591373
20
43.434053249801082
30
0
10
24.774670520591371
20
43.434053249801082
30
0
10
24.767262187258041
20
43.663711583134422
30
0
10
24.652433020591367
20
44.204519916467753
30
0
0
SPLINE
5
441
100
AcDbEntity
8
0
100
AcDbSpline
70
4
71
3
72
8
73
4
74
0
42
0.000000001
43
0.0000000001
44
0.0000000001
40
0
40
0
40
0
40
0
40
1
40
1
40
1
40
1
41
1
41
1
41
1
41
1
10
24.152370520591369
20
43.430349083134416
30
0
10
24.152370520591369
20
43.445165749801085
30
0
10
24.011612187258038
20
43.900778249801093
30
0
10
23.837516353924705
20
44.437882416467751
30
0
0
SPLINE
5
442
100
AcDbEntity
8
0
100
AcDbSpline
70
4
71
3
72
8
73
4
74
0
42
0.000000001
43
0.0000000001
44
0.0000000001
40
0
40
0
40
0
40
0
40
1
40
1
40
1
40
1
41
1
41
1
41
1
41
1
10
17.04037052059137
20
43.526657416467749
30
0
10
14.343737187258041
20
48.190203249801087
30
0
10
12.09901218725804
20
52.098099083134422
30
0
10
12.050858020591368
20
52.212928249801095
30
0
0
SPLINE
5
443
100
AcDbEntity
8
0
100
AcDbSpline
70
4
71
3
72
8
73
4
74
0
42
0.000000001
43
0.0000000001
44
0.0000000001
40
0
40
0
40
0
40
0
40
1
40
1
40
1
40
1
41
1
41
1
41
1
41
1
10
12.024928853924708
20
53.072294916467754
30
0
10
12.09901218725804
20
53.29454491646775
30
0
10
12.284220520591376
20
53.505682416467756
30
0
10
12.517583020591374
20
53.631624083134419
30
0
0
SPLINE
5
444
100
AcDbEntity
8
0
100
AcDbSpline
70
4
71
3
72
8
73
4
74
0
42
0.000000001
43
0.0000000001
44
0.0000000001
40
0
40
0
40
0
40
0
40
1
40
1
40
1
40
1
41
1
41
1
41
1
41
1
10
23.337453853924703
20
43.422940749801086
30
0
10
23.341158020591372
20
43.441461583134419
30
0
10
23.211512187258041
20
43.89707408313442
30
0
10
23.052233020591373
20
44.441586583134416
30
0
0
LINE
5
445
100
AcDbEntity
8
0
100
AcDbLine
10
19.299912187258037
20
45.656553249801078
30
0
11
19.662920520591378
21
45.656553249801092
31
0
0
SPLINE
5
446
100
AcDbEntity
8
0
100
AcDbSpline
70
4
71
3
72
8
73
4
74
0
42
0.000000001
43
0.0000000001
44
0.0000000001
40
0
40
0
40
0
40
0
40
1
40
1
40
1
40
1
41
1
41
1
41
1
41
1
10
22.763308020591371
20
43.478503249801086
30
0
10
22.77442052059137
20
43.467390749801083
30
0
10
22.892953853924709
20
43.445165749801085
30
0
10
23.03371218725804
20
43.434053249801082
30
0
0
LINE
5
447
100
AcDbEntity
8
0
100
AcDbLine
10
19.636991353924707
20
43.582219916467757
30
0
11
19.299912187258037
21
43.582219916467757
31
0
0
LINE
5
448
100
AcDbEntity
8
0
100
AcDbLine
10
22.763308020591371
20
45.430599083134418
30
0
11
22.752195520591371
21
44.463811583134422
31
0
0
SPLINE
5
449
100
AcDbEntity
8
0
100
AcDbSpline
70
4
71
3
72
8
73
4
74
0
42
0.000000001
43
0.0000000001
44
0.0000000001
40
0
40
0
40
0
40
0
40
1
40
1
40
1
40
1
41
1
41
1
41
1
41
1
10
25.556249687258035
20
45.404669916467753
30
0
10
26.541558020591367
20
45.371332416467752
30
0
10
26.574895520591369
20
45.367628249801086
30
0
10
26.641570520591369
20
45.286136583134422
30
0
0
SPLINE
5
450
100
AcDbEntity
8
0
100
AcDbSpline
70
4
71
3
72
8
73
4
74
0
42
0.000000001
43
0.0000000001
44
0.0000000001
40
0
40
0
40
0
40
0
40
1
40
1
40
1
40
1
41
1
41
1
41
1
41
1
10
26.641570520591369
20
45.286136583134422
30
0
10
26.726766353924702
20
45.182419916467751
30
0
10
26.730470520591368
20
44.926832416467747
30
0
10
26.648978853924703
20
44.808299083134422
30
0
0
SPLINE
5
451
100
AcDbEntity
8
0
100
AcDbSpline
70
4
71
3
72
8
73
4
74
0
42
0.000000001
43
0.0000000001
44
0.0000000001
40
0
40
0
40
0
40
0
40
1
40
1
40
1
40
1
41
1
41
1
41
1
41
1
10
20.259291353924702
20
45.960294916467753
30
0
10
20.311149687258041
20
46.04549074980109
30
0
10
20.385233020591372
20
46.112165749801086
30
0
10
20.459316353924706
20
46.134390749801085
30
0
0
SPLINE
5
452
100
AcDbEntity
8
0
100
AcDbSpline
70
4
71
3
72
8
73
4
74
0
42
0.000000001
43
0.0000000001
44
0.0000000001
40
0
40
0
40
0
40
0
40
1
40
1
40
1
40
1
41
1
41
1
41
1
41
1
10
21.937278853924703
20
42.656178249801087
30
0
10
21.048278853924707
20
42.796936583134418
30
0
10
20.522287187258037
20
42.893244916467751
30
0
10
20.463020520591371
20
42.933990749801083
30
0
0
SPLINE
5
453
100
AcDbEntity
8
0
100
AcDbSpline
70
4
71
3
72
8
73
4
74
0
42
0.000000001
43
0.0000000001
44
0.0000000001
40
0
40
0
40
0
40
0
40
1
40
1
40
1
40
1
41
1
41
1
41
1
41
1
10
12.050858020591368
20
52.212928249801095
30
0
10
11.950845520591376
20
52.457403249801089
30
0
10
11.939733020591365
20
52.824115749801088
30
0
10
12.024928853924708
20
53.072294916467754
30
0
0
SPLINE
5
454
100
AcDbEntity
8
0
100
AcDbSpline
70
4
71
3
72
8
73
4
74
0
42
0.000000001
43
0.0000000001
44
0.0000000001
40
0
40
0
40
0
40
0
40
1
40
1
40
1
40
1
41
1
41
1
41
1
41
1
10
24.819120520591369
20
44.034128249801086
30
0
10
24.819120520591369
20
43.993382416467753
30
0
10
25.145087187258035
20
43.963749083134417
30
0
10
25.963708020591376
20
43.930411583134415
30
0
0
LINE
5
455
100
AcDbEntity
8
0
100
AcDbLine
10
27.045324687258045
20
44.693469916467748
30
0
11
27.134224687258033
21
44.600865749801088
31
0
0
SPLINE
5
456
100
AcDbEntity
8
0
100
AcDbSpline
70
4
71
3
72
8
73
4
74
0
42
0.000000001
43
0.0000000001
44
0.0000000001
40
0
40
0
40
0
40
0
40
1
40
1
40
1
40
1
41
1
41
1
41
1
41
1
10
25.004328853924704
20
44.730511583134422
30
0
10
25.196945520591374
20
44.715694916467754
30
0
10
25.737753853924701
20
44.700878249801086
30
0
10
26.20077468725804
20
44.697174083134421
30
0
0
LINE
5
457
100
AcDbEntity
8
0
100
AcDbLine
10
19.299912187258037
20
43.582219916467757
30
0
11
19.299912187258037
21
44.619386583134421
31
0
0
SPLINE
5
458
100
AcDbEntity
8
0
100
AcDbSpline
70
4
71
3
72
8
73
4
74
0
42
0.000000001
43
0.0000000001
44
0.0000000001
40
0
40
0
40
0
40
0
40
1
40
1
40
1
40
1
41
1
41
1
41
1
41
1
10
22.541058020591372
20
43.767428249801085
30
0
10
22.552170520591375
20
43.767428249801085
30
0
10
22.559578853924709
20
44.274899083134414
30
0
10
22.559578853924709
20
44.897199083134424
30
0
0
SPLINE
5
459
100
AcDbEntity
8
0
100
AcDbSpline
70
4
71
3
72
8
73
4
74
0
42
0.000000001
43
0.0000000001
44
0.0000000001
40
0
40
0
40
0
40
0
40
1
40
1
40
1
40
1
41
1
41
1
41
1
41
1
10
24.674658020591373
20
43.434053249801082
30
0
10
24.774670520591371
20
43.434053249801082
30
0
10
24.767262187258041
20
43.663711583134422
30
0
10
24.652433020591367
20
44.204519916467753
30
0
0
LINE
5
460
100
AcDbEntity
8
0
100
AcDbLine
10
22.763308020591371
20
45.430599083134418
30
0
11
22.752195520591371
21
44.463811583134422
31
0
0
LINE
5
461
100
AcDbEntity
8
0
100
AcDbLine
10
22.559578853924709
20
44.897199083134424
30
0
11
22.559578853924709
21
46.026969916467749
31
0
0
SPLINE
5
462
100
AcDbEntity
8
0
100
AcDbSpline
70
4
71
3
72
8
73
4
74
0
42
0.000000001
43
0.0000000001
44
0.0000000001
40
0
40
0
40
0
40
0
40
1
40
1
40
1
40
1
41
1
41
1
41
1
41
1
10
21.937278853924703
20
42.656178249801087
30
0
10
21.048278853924707
20
42.796936583134418
30
0
10
20.522287187258037
20
42.893244916467751
30
0
10
20.463020520591371
20
42.933990749801083
30
0
0
SPLINE
5
463
100
AcDbEntity
8
0
100
AcDbSpline
70
4
71
3
72
8
73
4
74
0
42
0.000000001
43
0.0000000001
44
0.0000000001
40
0
40
0
40
0
40
0
40
1
40
1
40
1
40
1
41
1
41
1
41
1
41
1
10
26.619345520591366
20
43.337744916467749
30
0
10
26.563783020591369
20
43.263661583134414
30
0
10
26.537853853924709
20
43.259957416467749
30
0
10
24.941358020591373
20
43.256253249801091
30
0
0
SPLINE
5
464
100
AcDbEntity
8
0
100
AcDbSpline
70
4
71
3
72
8
73
4
74
0
42
0.000000001
43
0.0000000001
44
0.0000000001
40
0
40
0
40
0
40
0
40
1
40
1
40
1
40
1
41
1
41
1
41
1
41
1
10
22.541058020591372
20
43.767428249801085
30
0
10
22.552170520591375
20
43.767428249801085
30
0
10
22.559578853924709
20
44.274899083134414
30
0
10
22.559578853924709
20
44.897199083134424
30
0
0
SPLINE
5
465
100
AcDbEntity
8
0
100
AcDbSpline
70
4
71
3
72
8
73
4
74
0
42
0.000000001
43
0.0000000001
44
0.0000000001
40
0
40
0
40
0
40
0
40
1
40
1
40
1
40
1
41
1
41
1
41
1
41
1
10
20.259291353924702
20
45.960294916467753
30
0
10
20.311149687258041
20
46.04549074980109
30
0
10
20.385233020591372
20
46.112165749801086
30
0
10
20.459316353924706
20
46.134390749801085
30
0
0
SPLINE
5
466
100
AcDbEntity
8
0
100
AcDbSpline
70
4
71
3
72
8
73
4
74
0
42
0.000000001
43
0.0000000001
44
0.0000000001
40
0
40
0
40
0
40
0
40
1
40
1
40
1
40
1
41
1
41
1
41
1
41
1
10
27.760228853924708
20
44.315644916467754
30
0
10
30.319808020591374
20
48.664336583134414
30
0
10
32.412662187258036
20
52.224040749801084
30
0
10
32.412662187258036
20
52.235153249801087
30
0
0
LINE
5
467
100
AcDbEntity
8
0
100
AcDbLine
10
23.000374687258038
20
53.094519916467753
30
0
11
32.794191353924717
21
53.101928249801091
31
0
0
SPLINE
5
468
100
AcDbEntity
8
0
100
AcDbSpline
70
4
71
3
72
8
73
4
74
0
42
0.000000001
43
0.0000000001
44
0.0000000001
40
0
40
0
40
0
40
0
40
1
40
1
40
1
40
1
41
1
41
1
41
1
41
1
10
28.830733020591374
20
43.626669916467755
30
0
10
31.556999687258038
20
48.319849083134415
30
0
10
33.823949687258036
20
52.246265749801083
30
0
10
33.860991353924703
20
52.357390749801084
30
0
0
SPLINE
5
469
100
AcDbEntity
8
0
100
AcDbSpline
70
4
71
3
72
8
73
4
74
0
42
0.000000001
43
0.0000000001
44
0.0000000001
40
0
40
0
40
0
40
0
40
1
40
1
40
1
40
1
41
1
41
1
41
1
41
1
10
33.283141353924712
20
53.572357416467753
30
0
10
33.10904552059138
20
53.635328249801084
30
0
10
32.542308020591371
20
53.639032416467749
30
0
10
23.041120520591374
20
53.639032416467749
30
0
0
SPLINE
5
470
100
AcDbEntity
8
0
100
AcDbSpline
70
4
71
3
72
8
73
4
74
0
42
0.000000001
43
0.0000000001
44
0.0000000001
40
0
40
0
40
0
40
0
40
1
40
1
40
1
40
1
41
1
41
1
41
1
41
1
10
22.792941353924707
20
34.61443241646775
30
0
10
22.948516353924706
20
34.577390749801083
30
0
10
23.196695520591373
20
34.607024083134419
30
0
10
23.385608020591366
20
34.688515749801084
30
0
0
SPLINE
5
471
100
AcDbEntity
8
0
100
AcDbSpline
70
4
71
3
72
8
73
4
74
0
42
0.000000001
43
0.0000000001
44
0.0000000001
40
0
40
0
40
0
40
0
40
1
40
1
40
1
40
1
41
1
41
1
41
1
41
1
10
24.107920520591371
20
44.260082416467753
30
0
10
24.11162468725804
20
44.304532416467751
30
0
10
24.085695520591372
20
44.704582416467751
30
0
10
24.048653853924709
20
45.152786583134414
30
0
0
LINE
5
472
100
AcDbEntity
8
0
100
AcDbLine
10
23.570816353924712
20
43.397011583134422
30
0
11
23.863445520591373
21
43.397011583134422
31
0
0
LINE
5
473
100
AcDbEntity
8
0
100
AcDbLine
10
23.348566353924703
20
45.037957416467755
30
0
11
23.326341353924704
21
46.026969916467749
31
0
0
SPLINE
5
474
100
AcDbEntity
8
0
100
AcDbSpline
70
4
71
3
72
8
73
4
74
0
42
0.000000001
43
0.0000000001
44
0.0000000001
40
0
40
0
40
0
40
0
40
1
40
1
40
1
40
1
41
1
41
1
41
1
41
1
10
19.662920520591367
20
45.656553249801092
30
0
10
20.066674687258043
20
45.656553249801092
30
0
10
20.081491353924701
20
45.663961583134416
30
0
10
20.259291353924702
20
45.960294916467753
30
0
0
LINE
5
475
100
AcDbEntity
8
0
100
AcDbLine
10
21.855787187258038
20
49.03104908313442
30
0
11
21.855787187258038
21
50.494194916467748
31
0
0
SPLINE
5
476
100
AcDbEntity
8
0
100
AcDbSpline
70
4
71
3
72
8
73
4
74
0
42
0.000000001
43
0.0000000001
44
0.0000000001
40
0
40
0
40
0
40
0
40
1
40
1
40
1
40
1
41
1
41
1
41
1
41
1
10
23.526366353924708
20
44.934240749801084
30
0
10
23.522662187258039
20
44.667540749801084
30
0
10
23.533774687258038
20
44.215632416467756
30
0
10
23.548591353924706
20
43.923003249801091
30
0
0
SPLINE
5
477
100
AcDbEntity
8
0
100
AcDbSpline
70
4
71
3
72
8
73
4
74
0
42
0.000000001
43
0.0000000001
44
0.0000000001
40
0
40
0
40
0
40
0
40
1
40
1
40
1
40
1
41
1
41
1
41
1
41
1
10
22.263245520591369
20
46.026969916467749
30
0
10
22.033587187258039
20
46.026969916467749
30
0
10
21.966912187258039
20
46.015857416467753
30
0
10
21.966912187258039
20
45.975111583134421
30
0
0
SPLINE
5
478
100
AcDbEntity
8
0
100
AcDbSpline
70
4
71
3
72
8
73
4
74
0
42
0.000000001
43
0.0000000001
44
0.0000000001
40
0
40
0
40
0
40
0
40
1
40
1
40
1
40
1
41
1
41
1
41
1
41
1
10
25.278437187258042
20
45.467640749801092
30
0
10
24.615391353924707
20
45.504682416467752
30
0
10
24.478337187258035
20
45.500978249801079
30
0
10
24.526491353924705
20
45.456528249801089
30
0
0
SPLINE
5
479
100
AcDbEntity
8
0
100
AcDbSpline
70
4
71
3
72
8
73
4
74
0
42
0.000000001
43
0.0000000001
44
0.0000000001
40
0
40
0
40
0
40
0
40
1
40
1
40
1
40
1
41
1
41
1
41
1
41
1
10
22.263245520591369
20
46.026969916467749
30
0
10
22.033587187258039
20
46.026969916467749
30
0
10
21.966912187258039
20
46.015857416467753
30
0
10
21.966912187258039
20
45.975111583134421
30
0
0
SPLINE
5
480
100
AcDbEntity
8
0
100
AcDbSpline
70
4
71
3
72
8
73
4
74
0
42
0.000000001
43
0.0000000001
44
0.0000000001
40
0
40
0
40
0
40
0
40
1
40
1
40
1
40
1
41
1
41
1
41
1
41
1
10
12.721312187258036
20
52.346278249801088
30
0
10
12.669453853924706
20
52.631499083134429
30
0
10
12.784283020591367
20
52.85745324980109
30
0
10
13.050983020591369
20
53.001915749801086
30
0
0
SPLINE
5
481
100
AcDbEntity
8
0
100
AcDbSpline
70
4
71
3
72
8
73
4
74
0
42
0.000000001
43
0.0000000001
44
0.0000000001
40
0
40
0
40
0
40
0
40
1
40
1
40
1
40
1
41
1
41
1
41
1
41
1
10
20.070378853924709
20
43.478503249801086
30
0
10
19.977774687258041
20
43.578515749801092
30
0
10
19.955549687258038
20
43.582219916467757
30
0
10
19.636991353924707
20
43.582219916467757
30
0
0
SPLINE
5
482
100
AcDbEntity
8
0
100
AcDbSpline
70
4
71
3
72
8
73
4
74
0
42
0.000000001
43
0.0000000001
44
0.0000000001
40
0
40
0
40
0
40
0
40
1
40
1
40
1
40
1
41
1
41
1
41
1
41
1
10
27.134224687258044
20
44.600865749801088
30
0
10
27.245349687258038
20
44.493444916467752
30
0
10
27.260166353924706
20
44.241561583134427
30
0
10
27.16385802059137
20
44.104507416467754
30
0
0
LINE
5
483
100
AcDbEntity
8
0
100
AcDbLine
10
22.559578853924709
20
46.026969916467749
30
0
11
22.263245520591379
21
46.026969916467749
31
0
0
SPLINE
5
484
100
AcDbEntity
8
0
100
AcDbSpline
70
4
71
3
72
8
73
4
74
0
42
0.000000001
43
0.0000000001
44
0.0000000001
40
0
40
0
40
0
40
0
40
1
40
1
40
1
40
1
41
1
41
1
41
1
41
1
10
22.900362187258033
20
43.289590749801086
30
0
10
22.670703853924703
20
43.311815749801085
30
0
10
22.474383020591368
20
43.322928249801087
30
0
10
22.463270520591372
20
43.315519916467757
30
0
0
SPLINE
5
485
100
AcDbEntity
8
0
100
AcDbSpline
70
4
71
3
72
8
73
4
74
0
42
0.000000001
43
0.0000000001
44
0.0000000001
40
0
40
0
40
0
40
0
40
1
40
1
40
1
40
1
41
1
41
1
41
1
41
1
10
27.134224687258044
20
44.600865749801088
30
0
10
27.245349687258038
20
44.493444916467752
30
0
10
27.260166353924706
20
44.241561583134427
30
0
10
27.16385802059137
20
44.104507416467754
30
0
0
SPLINE
5
486
100
AcDbEntity
8
0
100
AcDbSpline
70
4
71
3
72
8
73
4
74
0
42
0.000000001
43
0.0000000001
44
0.0000000001
40
0
40
0
40
0
40
0
40
1
40
1
40
1
40
1
41
1
41
1
41
1
41
1
10
12.217545520591369
20
53.087111583134423
30
0
10
12.117533020591376
20
52.898199083134415
30
0
10
12.110124687258041
20
52.490740749801084
30
0
10
12.206433020591367
20
52.272194916467754
30
0
0
LINE
5
487
100
AcDbEntity
8
0
100
AcDbLine
10
22.559578853924709
20
44.897199083134424
30
0
11
22.559578853924709
21
46.026969916467749
31
0
0
SPLINE
5
488
100
AcDbEntity
8
0
100
AcDbSpline
70
4
71
3
72
8
73
4
74
0
42
0.000000001
43
0.0000000001
44
0.0000000001
40
0
40
0
40
0
40
0
40
1
40
1
40
1
40
1
41
1
41
1
41
1
41
1
10
21.966912187258039
20
45.975111583134421
30
0
10
21.966912187258039
20
45.726932416467747
30
0
10
22.478087187258033
20
43.767428249801085
30
0
10
22.541058020591372
20
43.767428249801085
30
0
0
SPLINE
5
489
100
AcDbEntity
8
0
100
AcDbSpline
70
4
71
3
72
8
73
4
74
0
42
0.000000001
43
0.0000000001
44
0.0000000001
40
0
40
0
40
0
40
0
40
1
40
1
40
1
40
1
41
1
41
1
41
1
41
1
10
17.04037052059137
20
43.526657416467749
30
0
10
14.343737187258041
20
48.190203249801087
30
0
10
12.09901218725804
20
52.098099083134422
30
0
10
12.050858020591368
20
52.212928249801095
30
0
0
LINE
5
490
100
AcDbEntity
8
0
100
AcDbLine
10
21.855787187258038
20
50.494194916467748
30
0
11
21.855787187258038
21
51.953636583134411
31
0
0
SPLINE
5
491
100
AcDbEntity
8
0
100
AcDbSpline
70
4
71
3
72
8
73
4
74
0
42
0.000000001
43
0.0000000001
44
0.0000000001
40
0
40
0
40
0
40
0
40
1
40
1
40
1
40
1
41
1
41
1
41
1
41
1
10
12.050858020591368
20
52.212928249801095
30
0
10
11.950845520591376
20
52.457403249801089
30
0
10
11.939733020591365
20
52.824115749801088
30
0
10
12.024928853924708
20
53.072294916467754
30
0
0
SPLINE
5
492
100
AcDbEntity
8
0
100
AcDbSpline
70
4
71
3
72
8
73
4
74
0
42
0.000000001
43
0.0000000001
44
0.0000000001
40
0
40
0
40
0
40
0
40
1
40
1
40
1
40
1
41
1
41
1
41
1
41
1
10
25.278437187258042
20
45.467640749801092
30
0
10
24.615391353924707
20
45.504682416467752
30
0
10
24.478337187258035
20
45.500978249801079
30
0
10
24.526491353924705
20
45.456528249801089
30
0
0
SPLINE
5
493
100
AcDbEntity
8
0
100
AcDbSpline
70
4
71
3
72
8
73
4
74
0
42
0.000000001
43
0.0000000001
44
0.0000000001
40
0
40
0
40
0
40
0
40
1
40
1
40
1
40
1
41
1
41
1
41
1
41
1
10
12.795395520591368
20
53.572357416467753
30
0
10
12.56203302059137
20
53.490865749801088
30
0
10
12.321262187258037
20
53.290840749801092
30
0
10
12.217545520591369
20
53.087111583134423
30
0
0
LINE
5
494
100
AcDbEntity
8
0
100
AcDbLine
10
21.855787187258038
20
51.953636583134411
30
0
11
22.707745520591374
21
51.953636583134411
31
0
0
LINE
5
495
100
AcDbEntity
8
0
100
AcDbLine
10
22.692928853924705
20
47.956840749801088
30
0
11
21.855787187258038
21
49.03104908313442
31
0
0
LINE
5
496
100
AcDbEntity
8
0
100
AcDbLine
10
21.855787187258038
20
49.03104908313442
30
0
11
21.855787187258038
21
50.494194916467748
31
0
0
SPLINE
5
497
100
AcDbEntity
8
0
100
AcDbSpline
70
4
71
3
72
8
73
4
74
0
42
0.000000001
43
0.0000000001
44
0.0000000001
40
0
40
0
40
0
40
0
40
1
40
1
40
1
40
1
41
1
41
1
41
1
41
1
10
24.182003853924705
20
46.138094916467757
30
0
10
24.33017052059137
20
46.119574083134424
30
0
10
24.796895520591377
20
46.101053249801083
30
0
10
25.211762187258042
20
46.101053249801083
30
0
0
LINE
5
498
100
AcDbEntity
8
0
100
AcDbLine
10
21.855787187258038
20
50.494194916467748
30
0
11
21.855787187258038
21
51.953636583134411
31
0
0
SPLINE
5
499
100
AcDbEntity
8
0
100
AcDbSpline
70
4
71
3
72
8
73
4
74
0
42
0.000000001
43
0.0000000001
44
0.0000000001
40
0
40
0
40
0
40
0
40
1
40
1
40
1
40
1
41
1
41
1
41
1
41
1
10
20.070378853924709
20
43.478503249801086
30
0
10
19.977774687258041
20
43.578515749801092
30
0
10
19.955549687258038
20
43.582219916467757
30
0
10
19.636991353924707
20
43.582219916467757
30
0
0
LINE
5
500
100
AcDbEntity
8
0
100
AcDbLine
10
22.559578853924709
20
46.026969916467749
30
0
11
22.263245520591379
21
46.026969916467749
31
0
0
SPLINE
5
501
100
AcDbEntity
8
0
100
AcDbSpline
70
4
71
3
72
8
73
4
74
0
42
0.000000001
43
0.0000000001
44
0.0000000001
40
0
40
0
40
0
40
0
40
1
40
1
40
1
40
1
41
1
41
1
41
1
41
1
10
19.662920520591367
20
45.656553249801092
30
0
10
20.066674687258043
20
45.656553249801092
30
0
10
20.081491353924701
20
45.663961583134416
30
0
10
20.259291353924702
20
45.960294916467753
30
0
0
SPLINE
5
502
100
AcDbEntity
8
0
100
AcDbSpline
70
4
71
3
72
8
73
4
74
0
42
0.000000001
43
0.0000000001
44
0.0000000001
40
0
40
0
40
0
40
0
40
1
40
1
40
1
40
1
41
1
41
1
41
1
41
1
10
28.830733020591374
20
43.626669916467755
30
0
10
31.556999687258038
20
48.319849083134415
30
0
10
33.823949687258036
20
52.246265749801083
30
0
10
33.860991353924703
20
52.357390749801084
30
0
0
SPLINE
5
503
100
AcDbEntity
8
0
100
AcDbSpline
70
4
71
3
72
8
73
4
74
0
42
0.000000001
43
0.0000000001
44
0.0000000001
40
0
40
0
40
0
40
0
40
1
40
1
40
1
40
1
41
1
41
1
41
1
41
1
10
33.28684552059137
20
52.238857416467752
30
0
10
33.260916353924699
20
52.172182416467756
30
0
10
31.068049687258039
20
48.386524083134418
30
0
10
28.415866353924706
20
43.822990749801093
30
0
0
SPLINE
5
504
100
AcDbEntity
8
0
100
AcDbSpline
70
4
71
3
72
8
73
4
74
0
42
0.000000001
43
0.0000000001
44
0.0000000001
40
0
40
0
40
0
40
0
40
1
40
1
40
1
40
1
41
1
41
1
41
1
41
1
10
22.963333020591374
20
35.136719916467754
30
0
10
22.933699687258038
20
35.136719916467754
30
0
10
22.844799687258039
20
35.170057416467756
30
0
10
22.763308020591371
20
35.207099083134416
30
0
0
SPLINE
5
505
100
AcDbEntity
8
0
100
AcDbSpline
70
4
71
3
72
8
73
4
74
0
42
0.000000001
43
0.0000000001
44
0.0000000001
40
0
40
0
40
0
40
0
40
1
40
1
40
1
40
1
41
1
41
1
41
1
41
1
10
23.041120520591374
20
52.249969916467755
30
0
10
17.884920520591372
20
52.249969916467755
30
0
10
13.669578853924707
20
52.238857416467752
30
0
10
13.669578853924707
20
52.227744916467756
30
0
0
SPLINE
5
506
100
AcDbEntity
8
0
100
AcDbSpline
70
4
71
3
72
8
73
4
74
0
42
0.000000001
43
0.0000000001
44
0.0000000001
40
0
40
0
40
0
40
0
40
1
40
1
40
1
40
1
41
1
41
1
41
1
41
1
10
20.459316353924706
20
46.134390749801085
30
0
10
20.663045520591368
20
46.201065749801089
30
0
10
23.707870520591374
20
46.204769916467754
30
0
10
24.182003853924705
20
46.138094916467757
30
0
0
SPLINE
5
507
100
AcDbEntity
8
0
100
AcDbSpline
70
4
71
3
72
8
73
4
74
0
42
0.000000001
43
0.0000000001
44
0.0000000001
40
0
40
0
40
0
40
0
40
1
40
1
40
1
40
1
41
1
41
1
41
1
41
1
10
22.215091353924699
20
34.999665749801082
30
0
10
22.352145520591371
20
34.829274083134422
30
0
10
22.604028853924703
20
34.66258658313442
30
0
10
22.792941353924707
20
34.61443241646775
30
0
0
SPLINE
5
508
100
AcDbEntity
8
0
100
AcDbSpline
70
4
71
3
72
8
73
4
74
0
42
0.000000001
43
0.0000000001
44
0.0000000001
40
0
40
0
40
0
40
0
40
1
40
1
40
1
40
1
41
1
41
1
41
1
41
1
10
22.763308020591371
20
35.207099083134416
30
0
10
22.681816353924702
20
35.244140749801083
30
0
10
22.578099687258035
20
35.314519916467752
30
0
10
22.533649687258041
20
35.362674083134415
30
0
0
SPLINE
5
509
100
AcDbEntity
8
0
100
AcDbSpline
70
4
71
3
72
8
73
4
74
0
42
0.000000001
43
0.0000000001
44
0.0000000001
40
0
40
0
40
0
40
0
40
1
40
1
40
1
40
1
41
1
41
1
41
1
41
1
10
22.807758020591365
20
43.193282416467753
30
0
10
23.222624687258033
20
43.078453249801086
30
0
10
23.330045520591369
20
43.000665749801087
30
0
10
23.448578853924698
20
42.722853249801091
30
0
0
LINE
5
510
100
AcDbEntity
8
0
100
AcDbLine
10
13.206558020591368
20
53.08340741646775
30
0
11
23.000374687258038
21
53.094519916467753
31
0
0
SPLINE
5
511
100
AcDbEntity
8
0
100
AcDbSpline
70
4
71
3
72
8
73
4
74
0
42
0.000000001
43
0.0000000001
44
0.0000000001
40
0
40
0
40
0
40
0
40
1
40
1
40
1
40
1
41
1
41
1
41
1
41
1
10
12.721312187258036
20
52.346278249801088
30
0
10
12.669453853924706
20
52.631499083134429
30
0
10
12.784283020591367
20
52.85745324980109
30
0
10
13.050983020591369
20
53.001915749801086
30
0
0
SPLINE
5
512
100
AcDbEntity
8
0
100
AcDbSpline
70
4
71
3
72
8
73
4
74
0
42
0.000000001
43
0.0000000001
44
0.0000000001
40
0
40
0
40
0
40
0
40
1
40
1
40
1
40
1
41
1
41
1
41
1
41
1
10
23.559703853924709
20
49.416282416467752
30
0
10
23.559703853924709
20
48.01981158313442
30
0
10
23.552295520591375
20
46.878928249801092
30
0
10
23.544887187258041
20
46.878928249801092
30
0
0
SPLINE
5
513
100
AcDbEntity
8
0
100
AcDbSpline
70
4
71
3
72
8
73
4
74
0
42
0.000000001
43
0.0000000001
44
0.0000000001
40
0
40
0
40
0
40
0
40
1
40
1
40
1
40
1
41
1
41
1
41
1
41
1
10
22.763308020591371
20
35.207099083134416
30
0
10
22.681816353924702
20
35.244140749801083
30
0
10
22.578099687258035
20
35.314519916467752
30
0
10
22.533649687258041
20
35.362674083134415
30
0
0
SPLINE
5
514
100
AcDbEntity
8
0
100
AcDbSpline
70
4
71
3
72
8
73
4
74
0
42
0.000000001
43
0.0000000001
44
0.0000000001
40
0
40
0
40
0
40
0
40
1
40
1
40
1
40
1
41
1
41
1
41
1
41
1
10
23.707870520591374
20
34.925582416467755
30
0
10
23.826403853924703
20
35.051524083134417
30
0
10
25.230283020591369
20
37.43700741646775
30
0
10
28.830733020591374
20
43.626669916467755
30
0
0
LINE
5
515
100
AcDbEntity
8
0
100
AcDbLine
10
22.707745520591374
20
51.953636583134411
30
0
11
23.559703853924709
21
51.953636583134411
31
0
0
SPLINE
5
516
100
AcDbEntity
8
0
100
AcDbSpline
70
4
71
3
72
8
73
4
74
0
42
0.000000001
43
0.0000000001
44
0.0000000001
40
0
40
0
40
0
40
0
40
1
40
1
40
1
40
1
41
1
41
1
41
1
41
1
10
23.404128853924703
20
42.43763241646775
30
0
10
23.35597468725804
20
42.441336583134415
30
0
10
22.696633020591371
20
42.537644916467755
30
0
10
21.937278853924703
20
42.656178249801087
30
0
0
SPLINE
5
517
100
AcDbEntity
8
0
100
AcDbSpline
70
4
71
3
72
8
73
4
74
0
42
0.000000001
43
0.0000000001
44
0.0000000001
40
0
40
0
40
0
40
0
40
1
40
1
40
1
40
1
41
1
41
1
41
1
41
1
10
24.182003853924705
20
46.138094916467757
30
0
10
24.33017052059137
20
46.119574083134424
30
0
10
24.796895520591377
20
46.101053249801083
30
0
10
25.211762187258042
20
46.101053249801083
30
0
0
SPLINE
5
518
100
AcDbEntity
8
0
100
AcDbSpline
70
4
71
3
72
8
73
4
74
0
42
0.000000001
43
0.0000000001
44
0.0000000001
40
0
40
0
40
0
40
0
40
1
40
1
40
1
40
1
41
1
41
1
41
1
41
1
10
23.03371218725804
20
43.434053249801082
30
0
10
23.170766353924705
20
43.41923658313442
30
0
10
23.293003853924699
20
43.404419916467759
30
0
10
23.311524687258036
20
43.400715749801087
30
0
0
SPLINE
5
519
100
AcDbEntity
8
0
100
AcDbSpline
70
4
71
3
72
8
73
4
74
0
42
0.000000001
43
0.0000000001
44
0.0000000001
40
0
40
0
40
0
40
0
40
1
40
1
40
1
40
1
41
1
41
1
41
1
41
1
10
24.526491353924705
20
45.456528249801089
30
0
10
24.533899687258042
20
45.449119916467751
30
0
10
24.99692052059137
20
45.426894916467752
30
0
10
25.556249687258035
20
45.404669916467753
30
0
0
SPLINE
5
520
100
AcDbEntity
8
0
100
AcDbSpline
70
4
71
3
72
8
73
4
74
0
42
0.000000001
43
0.0000000001
44
0.0000000001
40
0
40
0
40
0
40
0
40
1
40
1
40
1
40
1
41
1
41
1
41
1
41
1
10
22.807758020591365
20
43.193282416467753
30
0
10
23.222624687258033
20
43.078453249801086
30
0
10
23.330045520591369
20
43.000665749801087
30
0
10
23.448578853924698
20
42.722853249801091
30
0
0
SPLINE
5
521
100
AcDbEntity
8
0
100
AcDbSpline
70
4
71
3
72
8
73
4
74
0
42
0.000000001
43
0.0000000001
44
0.0000000001
40
0
40
0
40
0
40
0
40
1
40
1
40
1
40
1
41
1
41
1
41
1
41
1
10
22.596620520591372
20
34.495899083134418
30
0
10
22.489199687258036
20
34.53664491646775
30
0
10
22.348441353924706
20
34.640361583134421
30
0
10
22.185458020591369
20
34.799640749801085
30
0
0
SPLINE
5
522
100
AcDbEntity
8
0
100
AcDbSpline
70
4
71
3
72
8
73
4
74
0
42
0.000000001
43
0.0000000001
44
0.0000000001
40
0
40
0
40
0
40
0
40
1
40
1
40
1
40
1
41
1
41
1
41
1
41
1
10
22.781828853924708
20
45.997336583134413
30
0
10
22.778124687258039
20
45.952886583134422
30
0
10
23.352270520591372
20
44.03042408313442
30
0
10
23.363383020591371
20
44.041536583134416
30
0
0
SPLINE
5
523
100
AcDbEntity
8
0
100
AcDbSpline
70
4
71
3
72
8
73
4
74
0
42
0.000000001
43
0.0000000001
44
0.0000000001
40
0
40
0
40
0
40
0
40
1
40
1
40
1
40
1
41
1
41
1
41
1
41
1
10
12.517583020591374
20
53.631624083134419
30
0
10
12.92133718725804
20
53.853874083134421
30
0
10
12.313853853924703
20
53.842761583134418
30
0
10
23.044824687258043
20
53.842761583134418
30
0
0
SPLINE
5
524
100
AcDbEntity
8
0
100
AcDbSpline
70
4
71
3
72
8
73
4
74
0
42
0.000000001
43
0.0000000001
44
0.0000000001
40
0
40
0
40
0
40
0
40
1
40
1
40
1
40
1
41
1
41
1
41
1
41
1
10
23.559703853924709
20
49.416282416467752
30
0
10
23.559703853924709
20
48.01981158313442
30
0
10
23.552295520591375
20
46.878928249801092
30
0
10
23.544887187258041
20
46.878928249801092
30
0
0
LINE
5
525
100
AcDbEntity
8
0
100
AcDbLine
10
13.050983020591369
20
53.0019157498011
30
0
11
13.206558020591368
21
53.08340741646775
31
0
0
SPLINE
5
526
100
AcDbEntity
8
0
100
AcDbSpline
70
4
71
3
72
8
73
4
74
0
42
0.000000001
43
0.0000000001
44
0.0000000001
40
0
40
0
40
0
40
0
40
1
40
1
40
1
40
1
41
1
41
1
41
1
41
1
10
12.517583020591374
20
53.631624083134419
30
0
10
12.92133718725804
20
53.853874083134421
30
0
10
12.313853853924703
20
53.842761583134418
30
0
10
23.044824687258043
20
53.842761583134418
30
0
0
LINE
5
527
100
AcDbEntity
8
0
100
AcDbLine
10
13.206558020591368
20
53.08340741646775
30
0
11
23.000374687258038
21
53.094519916467753
31
0
0
LINE
5
528
100
AcDbEntity
8
0
100
AcDbLine
10
21.855787187258038
20
51.953636583134411
30
0
11
22.707745520591374
21
51.953636583134411
31
0
0
SPLINE
5
529
100
AcDbEntity
8
0
100
AcDbSpline
70
4
71
3
72
8
73
4
74
0
42
0.000000001
43
0.0000000001
44
0.0000000001
40
0
40
0
40
0
40
0
40
1
40
1
40
1
40
1
41
1
41
1
41
1
41
1
10
12.795395520591368
20
53.572357416467753
30
0
10
12.56203302059137
20
53.490865749801088
30
0
10
12.321262187258037
20
53.290840749801092
30
0
10
12.217545520591369
20
53.087111583134423
30
0
0
LINE
5
530
100
AcDbEntity
8
0
100
AcDbLine
10
23.559703853924709
20
51.953636583134411
30
0
11
23.559703853924709
21
49.416282416467752
31
0
0
SPLINE
5
531
100
AcDbEntity
8
0
100
AcDbSpline
70
4
71
3
72
8
73
4
74
0
42
0.000000001
43
0.0000000001
44
0.0000000001
40
0
40
0
40
0
40
0
40
1
40
1
40
1
40
1
41
1
41
1
41
1
41
1
10
22.596620520591372
20
34.495899083134418
30
0
10
22.489199687258036
20
34.53664491646775
30
0
10
22.348441353924706
20
34.640361583134421
30
0
10
22.185458020591369
20
34.799640749801085
30
0
0
LINE
5
532
100
AcDbEntity
8
0
100
AcDbLine
10
23.052233020591373
20
44.441586583134409
30
0
11
22.763308020591371
21
45.430599083134418
31
0
0
SPLINE
5
533
100
AcDbEntity
8
0
100
AcDbSpline
70
4
71
3
72
8
73
4
74
0
42
0.000000001
43
0.0000000001
44
0.0000000001
40
0
40
0
40
0
40
0
40
1
40
1
40
1
40
1
41
1
41
1
41
1
41
1
10
23.052233020591373
20
46.026969916467749
30
0
10
22.904066353924701
20
46.026969916467749
30
0
10
22.781828853924708
20
46.015857416467753
30
0
10
22.781828853924708
20
45.997336583134413
30
0
0
SPLINE
5
534
100
AcDbEntity
8
0
100
AcDbSpline
70
4
71
3
72
8
73
4
74
0
42
0.000000001
43
0.0000000001
44
0.0000000001
40
0
40
0
40
0
40
0
40
1
40
1
40
1
40
1
41
1
41
1
41
1
41
1
10
12.206433020591367
20
52.272194916467754
30
0
10
12.31755802059137
20
52.012903249801084
30
0
10
22.081741353924702
20
35.158944916467753
30
0
10
22.215091353924699
20
34.999665749801082
30
0
0
LINE
5
535
100
AcDbEntity
8
0
100
AcDbLine
10
23.559703853924709
20
51.953636583134411
30
0
11
23.559703853924709
21
49.416282416467752
31
0
0
LINE
5
536
100
AcDbEntity
8
0
100
AcDbLine
10
22.707745520591374
20
51.953636583134411
30
0
11
23.559703853924709
21
51.953636583134411
31
0
0
SPLINE
5
537
100
AcDbEntity
8
0
100
AcDbSpline
70
4
71
3
72
8
73
4
74
0
42
0.000000001
43
0.0000000001
44
0.0000000001
40
0
40
0
40
0
40
0
40
1
40
1
40
1
40
1
41
1
41
1
41
1
41
1
10
23.544887187258041
20
46.878928249801092
30
0
10
23.533774687258038
20
46.878928249801092
30
0
10
23.152245520591368
20
47.364174083134422
30
0
10
22.692928853924705
20
47.956840749801088
30
0
0
SPLINE
5
538
100
AcDbEntity
8
0
100
AcDbSpline
70
4
71
3
72
8
73
4
74
0
42
0.000000001
43
0.0000000001
44
0.0000000001
40
0
40
0
40
0
40
0
40
1
40
1
40
1
40
1
41
1
41
1
41
1
41
1
10
21.966912187258039
20
45.975111583134421
30
0
10
21.966912187258039
20
45.726932416467747
30
0
10
22.478087187258033
20
43.767428249801085
30
0
10
22.541058020591372
20
43.767428249801085
30
0
0
SPLINE
5
539
100
AcDbEntity
8
0
100
AcDbSpline
70
4
71
3
72
8
73
4
74
0
42
0.000000001
43
0.0000000001
44
0.0000000001
40
0
40
0
40
0
40
0
40
1
40
1
40
1
40
1
41
1
41
1
41
1
41
1
10
23.441170520591371
20
35.373786583134418
30
0
10
23.311524687258036
20
35.236732416467753
30
0
10
23.104091353924705
20
35.136719916467754
30
0
10
22.963333020591374
20
35.136719916467754
30
0
0
SPLINE
5
540
100
AcDbEntity
8
0
100
AcDbSpline
70
4
71
3
72
8
73
4
74
0
42
0.000000001
43
0.0000000001
44
0.0000000001
40
0
40
0
40
0
40
0
40
1
40
1
40
1
40
1
41
1
41
1
41
1
41
1
10
24.526491353924705
20
45.456528249801089
30
0
10
24.533899687258042
20
45.449119916467751
30
0
10
24.99692052059137
20
45.426894916467752
30
0
10
25.556249687258035
20
45.404669916467753
30
0
0
SPLINE
5
541
100
AcDbEntity
8
0
100
AcDbSpline
70
4
71
3
72
8
73
4
74
0
42
0.000000001
43
0.0000000001
44
0.0000000001
40
0
40
0
40
0
40
0
40
1
40
1
40
1
40
1
41
1
41
1
41
1
41
1
10
23.041120520591374
20
53.639032416467749
30
0
10
13.488074687258038
20
53.639032416467757
30
0
10
12.97319552059137
20
53.635328249801084
30
0
10
12.795395520591368
20
53.572357416467753
30
0
0
LINE
5
542
100
AcDbEntity
8
0
100
AcDbLine
10
22.692928853924705
20
47.956840749801088
30
0
11
21.855787187258038
21
49.03104908313442
31
0
0
SPLINE
5
543
100
AcDbEntity
8
0
100
AcDbSpline
70
4
71
3
72
8
73
4
74
0
42
0.000000001
43
0.0000000001
44
0.0000000001
40
0
40
0
40
0
40
0
40
1
40
1
40
1
40
1
41
1
41
1
41
1
41
1
10
23.544887187258041
20
46.878928249801092
30
0
10
23.533774687258038
20
46.878928249801092
30
0
10
23.152245520591368
20
47.364174083134422
30
0
10
22.692928853924705
20
47.956840749801088
30
0
0
SPLINE
5
544
100
AcDbEntity
8
0
100
AcDbSpline
70
4
71
3
72
8
73
4
74
0
42
0.000000001
43
0.0000000001
44
0.0000000001
40
0
40
0
40
0
40
0
40
1
40
1
40
1
40
1
41
1
41
1
41
1
41
1
10
23.041120520591374
20
52.249969916467755
30
0
10
17.884920520591372
20
52.249969916467755
30
0
10
13.669578853924707
20
52.238857416467752
30
0
10
13.669578853924707
20
52.227744916467756
30
0
0
SPLINE
5
545
100
AcDbEntity
8
0
100
AcDbSpline
70
4
71
3
72
8
73
4
74
0
42
0.000000001
43
0.0000000001
44
0.0000000001
40
0
40
0
40
0
40
0
40
1
40
1
40
1
40
1
41
1
41
1
41
1
41
1
10
23.404128853924703
20
42.43763241646775
30
0
10
23.35597468725804
20
42.441336583134415
30
0
10
22.696633020591371
20
42.537644916467755
30
0
10
21.937278853924703
20
42.656178249801087
30
0
0
SPLINE
5
546
100
AcDbEntity
8
0
100
AcDbSpline
70
4
71
3
72
8
73
4
74
0
42
0.000000001
43
0.0000000001
44
0.0000000001
40
0
40
0
40
0
40
0
40
1
40
1
40
1
40
1
41
1
41
1
41
1
41
1
10
24.941358020591373
20
43.256253249801091
30
0
10
24.007908020591373
20
43.252549083134411
30
0
10
23.141133020591369
20
43.267365749801087
30
0
10
22.900362187258033
20
43.289590749801086
30
0
0
SPLINE
5
547
100
AcDbEntity
8
0
100
AcDbSpline
70
4
71
3
72
8
73
4
74
0
42
0.000000001
43
0.0000000001
44
0.0000000001
40
0
40
0
40
0
40
0
40
1
40
1
40
1
40
1
41
1
41
1
41
1
41
1
10
22.781828853924708
20
45.997336583134413
30
0
10
22.778124687258039
20
45.952886583134422
30
0
10
23.352270520591372
20
44.03042408313442
30
0
10
23.363383020591371
20
44.041536583134416
30
0
0
LINE
5
548
100
AcDbEntity
8
0
100
AcDbLine
10
23.052233020591373
20
44.441586583134409
30
0
11
22.763308020591371
21
45.430599083134418
31
0
0
SPLINE
5
549
100
AcDbEntity
8
0
100
AcDbSpline
70
4
71
3
72
8
73
4
74
0
42
0.000000001
43
0.0000000001
44
0.0000000001
40
0
40
0
40
0
40
0
40
1
40
1
40
1
40
1
41
1
41
1
41
1
41
1
10
23.041120520591374
20
53.639032416467749
30
0
10
13.488074687258038
20
53.639032416467757
30
0
10
12.97319552059137
20
53.635328249801084
30
0
10
12.795395520591368
20
53.572357416467753
30
0
0
SPLINE
5
550
100
AcDbEntity
8
0
100
AcDbSpline
70
4
71
3
72
8
73
4
74
0
42
0.000000001
43
0.0000000001
44
0.0000000001
40
0
40
0
40
0
40
0
40
1
40
1
40
1
40
1
41
1
41
1
41
1
41
1
10
20.459316353924706
20
46.134390749801085
30
0
10
20.663045520591368
20
46.201065749801089
30
0
10
23.707870520591374
20
46.204769916467754
30
0
10
24.182003853924705
20
46.138094916467757
30
0
0
SPLINE
5
551
100
AcDbEntity
8
0
100
AcDbSpline
70
4
71
3
72
8
73
4
74
0
42
0.000000001
43
0.0000000001
44
0.0000000001
40
0
40
0
40
0
40
0
40
1
40
1
40
1
40
1
41
1
41
1
41
1
41
1
10
24.941358020591373
20
43.256253249801091
30
0
10
24.007908020591373
20
43.252549083134411
30
0
10
23.141133020591369
20
43.267365749801087
30
0
10
22.900362187258033
20
43.289590749801086
30
0
0
SPLINE
5
552
100
AcDbEntity
8
0
100
AcDbSpline
70
4
71
3
72
8
73
4
74
0
42
0.000000001
43
0.0000000001
44
0.0000000001
40
0
40
0
40
0
40
0
40
1
40
1
40
1
40
1
41
1
41
1
41
1
41
1
10
33.079412187258043
20
53.805719916467751
30
0
10
33.516503853924711
20
53.724228249801087
30
0
10
33.860991353924703
20
53.47604908313442
30
0
10
34.020270520591382
20
53.138969916467751
30
0
0
SPLINE
5
553
100
AcDbEntity
8
0
100
AcDbSpline
70
4
71
3
72
8
73
4
74
0
42
0.000000001
43
0.0000000001
44
0.0000000001
40
0
40
0
40
0
40
0
40
1
40
1
40
1
40
1
41
1
41
1
41
1
41
1
10
23.03371218725804
20
43.434053249801082
30
0
10
23.170766353924705
20
43.41923658313442
30
0
10
23.293003853924699
20
43.404419916467759
30
0
10
23.311524687258036
20
43.400715749801087
30
0
0
SPLINE
5
554
100
AcDbEntity
8
0
100
AcDbSpline
70
4
71
3
72
8
73
4
74
0
42
0.000000001
43
0.0000000001
44
0.0000000001
40
0
40
0
40
0
40
0
40
1
40
1
40
1
40
1
41
1
41
1
41
1
41
1
10
23.400424687258035
20
34.510715749801086
30
0
10
23.148541353924699
20
34.418111583134419
30
0
10
22.837391353924701
20
34.414407416467753
30
0
10
22.596620520591372
20
34.495899083134418
30
0
0
SPLINE
5
555
100
AcDbEntity
8
0
100
AcDbSpline
70
4
71
3
72
8
73
4
74
0
42
0.000000001
43
0.0000000001
44
0.0000000001
40
0
40
0
40
0
40
0
40
1
40
1
40
1
40
1
41
1
41
1
41
1
41
1
10
23.052233020591373
20
46.026969916467749
30
0
10
22.904066353924701
20
46.026969916467749
30
0
10
22.781828853924708
20
46.015857416467753
30
0
10
22.781828853924708
20
45.997336583134413
30
0
0
SPLINE
5
556
100
AcDbEntity
8
0
100
AcDbSpline
70
4
71
3
72
8
73
4
74
0
42
0.000000001
43
0.0000000001
44
0.0000000001
40
0
40
0
40
0
40
0
40
1
40
1
40
1
40
1
41
1
41
1
41
1
41
1
10
23.044824687258043
20
53.842761583134418
30
0
10
29.50118718725804
20
53.842761583134418
30
0
10
32.953470520591367
20
53.831649083134423
30
0
10
33.079412187258043
20
53.805719916467751
30
0
0
SPLINE
5
557
100
AcDbEntity
8
0
100
AcDbSpline
70
4
71
3
72
8
73
4
74
0
42
0.000000001
43
0.0000000001
44
0.0000000001
40
0
40
0
40
0
40
0
40
1
40
1
40
1
40
1
41
1
41
1
41
1
41
1
10
23.400424687258035
20
34.510715749801086
30
0
10
23.148541353924699
20
34.418111583134419
30
0
10
22.837391353924701
20
34.414407416467753
30
0
10
22.596620520591372
20
34.495899083134418
30
0
0
SPLINE
5
558
100
AcDbEntity
8
0
100
AcDbSpline
70
4
71
3
72
8
73
4
74
0
42
0.000000001
43
0.0000000001
44
0.0000000001
40
0
40
0
40
0
40
0
40
1
40
1
40
1
40
1
41
1
41
1
41
1
41
1
10
28.415866353924706
20
43.822990749801093
30
0
10
25.219170520591369
20
38.326007416467753
30
0
10
23.541183020591365
20
35.473799083134416
30
0
10
23.441170520591371
20
35.373786583134418
30
0
0
SPLINE
5
559
100
AcDbEntity
8
0
100
AcDbSpline
70
4
71
3
72
8
73
4
74
0
42
0.000000001
43
0.0000000001
44
0.0000000001
40
0
40
0
40
0
40
0
40
1
40
1
40
1
40
1
41
1
41
1
41
1
41
1
10
23.707870520591374
20
34.925582416467755
30
0
10
23.826403853924703
20
35.051524083134417
30
0
10
25.230283020591369
20
37.43700741646775
30
0
10
28.830733020591374
20
43.626669916467755
30
0
0
SPLINE
5
560
100
AcDbEntity
8
0
100
AcDbSpline
70
4
71
3
72
8
73
4
74
0
42
0.000000001
43
0.0000000001
44
0.0000000001
40
0
40
0
40
0
40
0
40
1
40
1
40
1
40
1
41
1
41
1
41
1
41
1
10
23.441170520591371
20
35.373786583134418
30
0
10
23.311524687258036
20
35.236732416467753
30
0
10
23.104091353924705
20
35.136719916467754
30
0
10
22.963333020591374
20
35.136719916467754
30
0
0
SPLINE
5
561
100
AcDbEntity
8
0
100
AcDbSpline
70
4
71
3
72
8
73
4
74
0
42
0.000000001
43
0.0000000001
44
0.0000000001
40
0
40
0
40
0
40
0
40
1
40
1
40
1
40
1
41
1
41
1
41
1
41
1
10
33.860991353924703
20
52.357390749801084
30
0
10
34.046199687258039
20
52.890790749801084
30
0
10
33.809133020591382
20
53.390853249801083
30
0
10
33.283141353924712
20
53.572357416467753
30
0
0
SPLINE
5
562
100
AcDbEntity
8
0
100
AcDbSpline
70
4
71
3
72
8
73
4
74
0
42
0.000000001
43
0.0000000001
44
0.0000000001
40
0
40
0
40
0
40
0
40
1
40
1
40
1
40
1
41
1
41
1
41
1
41
1
10
28.415866353924706
20
43.822990749801093
30
0
10
25.219170520591369
20
38.326007416467753
30
0
10
23.541183020591365
20
35.473799083134416
30
0
10
23.441170520591371
20
35.373786583134418
30
0
0
SPLINE
5
563
100
AcDbEntity
8
0
100
AcDbSpline
70
4
71
3
72
8
73
4
74
0
42
0.000000001
43
0.0000000001
44
0.0000000001
40
0
40
0
40
0
40
0
40
1
40
1
40
1
40
1
41
1
41
1
41
1
41
1
10
22.533649687258041
20
35.362674083134415
30
0
10
22.396595520591376
20
35.514544916467756
30
0
10
12.747241353924705
20
52.21663241646776
30
0
10
12.721312187258036
20
52.346278249801088
30
0
0
SPLINE
5
564
100
AcDbEntity
8
0
100
AcDbSpline
70
4
71
3
72
8
73
4
74
0
42
0.000000001
43
0.0000000001
44
0.0000000001
40
0
40
0
40
0
40
0
40
1
40
1
40
1
40
1
41
1
41
1
41
1
41
1
10
32.990512187258041
20
53.013028249801089
30
0
10
33.120158020591376
20
52.953761583134416
30
0
10
33.216466353924702
20
52.879678249801081
30
0
10
33.264620520591365
20
52.798186583134417
30
0
0
LINE
5
565
100
AcDbEntity
8
0
100
AcDbLine
10
32.794191353924717
20
53.101928249801091
30
0
11
32.990512187258041
21
53.013028249801089
31
0
0
SPLINE
5
566
100
AcDbEntity
8
0
100
AcDbSpline
70
4
71
3
72
8
73
4
74
0
42
0.000000001
43
0.0000000001
44
0.0000000001
40
0
40
0
40
0
40
0
40
1
40
1
40
1
40
1
41
1
41
1
41
1
41
1
10
33.264620520591365
20
52.798186583134417
30
0
10
33.349816353924709
20
52.653724083134421
30
0
10
33.360928853924705
20
52.412953249801085
30
0
10
33.28684552059137
20
52.238857416467752
30
0
0
SPLINE
5
567
100
AcDbEntity
8
0
100
AcDbSpline
70
4
71
3
72
8
73
4
74
0
42
0.000000001
43
0.0000000001
44
0.0000000001
40
0
40
0
40
0
40
0
40
1
40
1
40
1
40
1
41
1
41
1
41
1
41
1
10
13.669578853924707
20
52.227744916467756
30
0
10
13.669578853924707
20
52.168478249801083
30
0
10
23.0596413539247
20
36.362799083134419
30
0
10
23.081866353924703
20
36.388728249801083
30
0
0
LINE
5
568
100
AcDbEntity
8
0
100
AcDbLine
10
32.794191353924717
20
53.101928249801091
30
0
11
32.990512187258041
21
53.013028249801089
31
0
0
SPLINE
5
569
100
AcDbEntity
8
0
100
AcDbSpline
70
4
71
3
72
8
73
4
74
0
42
0.000000001
43
0.0000000001
44
0.0000000001
40
0
40
0
40
0
40
0
40
1
40
1
40
1
40
1
41
1
41
1
41
1
41
1
10
12.206433020591367
20
52.272194916467754
30
0
10
12.31755802059137
20
52.012903249801084
30
0
10
22.081741353924702
20
35.158944916467753
30
0
10
22.215091353924699
20
34.999665749801082
30
0
0
SPLINE
5
570
100
AcDbEntity
8
0
100
AcDbSpline
70
4
71
3
72
8
73
4
74
0
42
0.000000001
43
0.0000000001
44
0.0000000001
40
0
40
0
40
0
40
0
40
1
40
1
40
1
40
1
41
1
41
1
41
1
41
1
10
34.020270520591382
20
53.138969916467751
30
0
10
34.12028302059138
20
52.920424083134421
30
0
10
34.12028302059138
20
52.527782416467744
30
0
10
34.016566353924702
20
52.268490749801089
30
0
0
SPLINE
5
571
100
AcDbEntity
8
0
100
AcDbSpline
70
4
71
3
72
8
73
4
74
0
42
0.000000001
43
0.0000000001
44
0.0000000001
40
0
40
0
40
0
40
0
40
1
40
1
40
1
40
1
41
1
41
1
41
1
41
1
10
13.669578853924707
20
52.227744916467756
30
0
10
13.669578853924707
20
52.168478249801083
30
0
10
23.0596413539247
20
36.362799083134419
30
0
10
23.081866353924703
20
36.388728249801083
30
0
0
SPLINE
5
572
100
AcDbEntity
8
0
100
AcDbSpline
70
4
71
3
72
8
73
4
74
0
42
0.000000001
43
0.0000000001
44
0.0000000001
40
0
40
0
40
0
40
0
40
1
40
1
40
1
40
1
41
1
41
1
41
1
41
1
10
28.982603853924704
20
43.545178249801083
30
0
10
23.552295520591375
20
34.195861583134423
30
0
10
23.848628853924705
20
34.677403249801088
30
0
10
23.400424687258035
20
34.510715749801086
30
0
0
SPLINE
5
573
100
AcDbEntity
8
0
100
AcDbSpline
70
4
71
3
72
8
73
4
74
0
42
0.000000001
43
0.0000000001
44
0.0000000001
40
0
40
0
40
0
40
0
40
1
40
1
40
1
40
1
41
1
41
1
41
1
41
1
10
34.020270520591382
20
53.138969916467751
30
0
10
34.12028302059138
20
52.920424083134421
30
0
10
34.12028302059138
20
52.527782416467744
30
0
10
34.016566353924702
20
52.268490749801089
30
0
0
SPLINE
5
574
100
AcDbEntity
8
0
100
AcDbSpline
70
4
71
3
72
8
73
4
74
0
42
0.000000001
43
0.0000000001
44
0.0000000001
40
0
40
0
40
0
40
0
40
1
40
1
40
1
40
1
41
1
41
1
41
1
41
1
10
28.982603853924704
20
43.545178249801083
30
0
10
23.552295520591375
20
34.195861583134423
30
0
10
23.848628853924705
20
34.677403249801088
30
0
10
23.400424687258035
20
34.510715749801086
30
0
0
SPLINE
5
575
100
AcDbEntity
8
0
100
AcDbSpline
70
4
71
3
72
8
73
4
74
0
42
0.000000001
43
0.0000000001
44
0.0000000001
40
0
40
0
40
0
40
0
40
1
40
1
40
1
40
1
41
1
41
1
41
1
41
1
10
23.081866353924703
20
36.388728249801083
30
0
10
23.092978853924706
20
36.403544916467752
30
0
10
25.200649687258032
20
39.970657416467752
30
0
10
27.760228853924708
20
44.315644916467754
30
0
0
SPLINE
5
576
100
AcDbEntity
8
0
100
AcDbSpline
70
4
71
3
72
8
73
4
74
0
42
0.000000001
43
0.0000000001
44
0.0000000001
40
0
40
0
40
0
40
0
40
1
40
1
40
1
40
1
41
1
41
1
41
1
41
1
10
23.081866353924703
20
36.388728249801083
30
0
10
23.092978853924706
20
36.403544916467752
30
0
10
25.200649687258032
20
39.970657416467752
30
0
10
27.760228853924708
20
44.315644916467754
30
0
0
SPLINE
5
577
100
AcDbEntity
8
0
100
AcDbSpline
70
4
71
3
72
8
73
4
74
0
42
0.000000001
43
0.0000000001
44
0.0000000001
40
0
40
0
40
0
40
0
40
1
40
1
40
1
40
1
41
1
41
1
41
1
41
1
10
23.385608020591366
20
34.688515749801084
30
0
10
23.4708038539247
20
34.725557416467751
30
0
10
23.615266353924707
20
34.832978249801087
30
0
10
23.707870520591374
20
34.925582416467755
30
0
0
SPLINE
5
578
100
AcDbEntity
8
0
100
AcDbSpline
70
4
71
3
72
8
73
4
74
0
42
0.000000001
43
0.0000000001
44
0.0000000001
40
0
40
0
40
0
40
0
40
1
40
1
40
1
40
1
41
1
41
1
41
1
41
1
10
33.860991353924703
20
52.357390749801084
30
0
10
34.046199687258039
20
52.890790749801084
30
0
10
33.809133020591382
20
53.390853249801083
30
0
10
33.283141353924712
20
53.572357416467753
30
0
0
SPLINE
5
579
100
AcDbEntity
8
0
100
AcDbSpline
70
4
71
3
72
8
73
4
74
0
42
0.000000001
43
0.0000000001
44
0.0000000001
40
0
40
0
40
0
40
0
40
1
40
1
40
1
40
1
41
1
41
1
41
1
41
1
10
22.963333020591374
20
35.136719916467754
30
0
10
22.933699687258038
20
35.136719916467754
30
0
10
22.844799687258039
20
35.170057416467756
30
0
10
22.763308020591371
20
35.207099083134416
30
0
0
SPLINE
5
580
100
AcDbEntity
8
0
100
AcDbSpline
70
4
71
3
72
8
73
4
74
0
42
0.000000001
43
0.0000000001
44
0.0000000001
40
0
40
0
40
0
40
0
40
1
40
1
40
1
40
1
41
1
41
1
41
1
41
1
10
33.264620520591365
20
52.798186583134417
30
0
10
33.349816353924709
20
52.653724083134421
30
0
10
33.360928853924705
20
52.412953249801085
30
0
10
33.28684552059137
20
52.238857416467752
30
0
0
SPLINE
5
581
100
AcDbEntity
8
0
100
AcDbSpline
70
4
71
3
72
8
73
4
74
0
42
0.000000001
43
0.0000000001
44
0.0000000001
40
0
40
0
40
0
40
0
40
1
40
1
40
1
40
1
41
1
41
1
41
1
41
1
10
22.792941353924707
20
34.61443241646775
30
0
10
22.948516353924706
20
34.577390749801083
30
0
10
23.196695520591373
20
34.607024083134419
30
0
10
23.385608020591366
20
34.688515749801084
30
0
0
SPLINE
5
582
100
AcDbEntity
8
0
100
AcDbSpline
70
4
71
3
72
8
73
4
74
0
42
0.000000001
43
0.0000000001
44
0.0000000001
40
0
40
0
40
0
40
0
40
1
40
1
40
1
40
1
41
1
41
1
41
1
41
1
10
32.990512187258041
20
53.013028249801089
30
0
10
33.120158020591376
20
52.953761583134416
30
0
10
33.216466353924702
20
52.879678249801081
30
0
10
33.264620520591365
20
52.798186583134417
30
0
0
SPLINE
5
583
100
AcDbEntity
8
0
100
AcDbSpline
70
4
71
3
72
8
73
4
74
0
42
0.000000001
43
0.0000000001
44
0.0000000001
40
0
40
0
40
0
40
0
40
1
40
1
40
1
40
1
41
1
41
1
41
1
41
1
10
22.533649687258041
20
35.362674083134415
30
0
10
22.396595520591376
20
35.514544916467756
30
0
10
12.747241353924705
20
52.21663241646776
30
0
10
12.721312187258036
20
52.346278249801088
30
0
0
SPLINE
5
584
100
AcDbEntity
8
0
100
AcDbSpline
70
4
71
3
72
8
73
4
74
0
42
0.000000001
43
0.0000000001
44
0.0000000001
40
0
40
0
40
0
40
0
40
1
40
1
40
1
40
1
41
1
41
1
41
1
41
1
10
34.016566353924702
20
52.268490749801089
30
0
10
33.979524687258042
20
52.164774083134418
30
0
10
31.712574687258037
20
48.23835741646775
30
0
10
28.982603853924704
20
43.545178249801083
30
0
0
SPLINE
5
585
100
AcDbEntity
8
0
100
AcDbSpline
70
4
71
3
72
8
73
4
74
0
42
0.000000001
43
0.0000000001
44
0.0000000001
40
0
40
0
40
0
40
0
40
1
40
1
40
1
40
1
41
1
41
1
41
1
41
1
10
34.016566353924702
20
52.268490749801089
30
0
10
33.979524687258042
20
52.164774083134418
30
0
10
31.712574687258037
20
48.23835741646775
30
0
10
28.982603853924704
20
43.545178249801083
30
0
0
SPLINE
5
586
100
AcDbEntity
8
0
100
AcDbSpline
70
4
71
3
72
8
73
4
74
0
42
0.000000001
43
0.0000000001
44
0.0000000001
40
0
40
0
40
0
40
0
40
1
40
1
40
1
40
1
41
1
41
1
41
1
41
1
10
23.044824687258043
20
53.842761583134418
30
0
10
29.50118718725804
20
53.842761583134418
30
0
10
32.953470520591367
20
53.831649083134423
30
0
10
33.079412187258043
20
53.805719916467751
30
0
0
SPLINE
5
587
100
AcDbEntity
8
0
100
AcDbSpline
70
4
71
3
72
8
73
4
74
0
42
0.000000001
43
0.0000000001
44
0.0000000001
40
0
40
0
40
0
40
0
40
1
40
1
40
1
40
1
41
1
41
1
41
1
41
1
10
22.185458020591369
20
34.799640749801085
30
0
10
21.95579968725804
20
35.029299083134418
30
0
10
21.666874687258037
20
35.521953249801086
30
0
10
17.04037052059137
20
43.526657416467749
30
0
0
SPLINE
5
588
100
AcDbEntity
8
0
100
AcDbSpline
70
4
71
3
72
8
73
4
74
0
42
0.000000001
43
0.0000000001
44
0.0000000001
40
0
40
0
40
0
40
0
40
1
40
1
40
1
40
1
41
1
41
1
41
1
41
1
10
23.385608020591366
20
34.688515749801084
30
0
10
23.4708038539247
20
34.725557416467751
30
0
10
23.615266353924707
20
34.832978249801087
30
0
10
23.707870520591374
20
34.925582416467755
30
0
0
SPLINE
5
589
100
AcDbEntity
8
0
100
AcDbSpline
70
4
71
3
72
8
73
4
74
0
42
0.000000001
43
0.0000000001
44
0.0000000001
40
0
40
0
40
0
40
0
40
1
40
1
40
1
40
1
41
1
41
1
41
1
41
1
10
22.215091353924699
20
34.999665749801082
30
0
10
22.352145520591371
20
34.829274083134422
30
0
10
22.604028853924703
20
34.66258658313442
30
0
10
22.792941353924707
20
34.61443241646775
30
0
0
SPLINE
5
590
100
AcDbEntity
8
0
100
AcDbSpline
70
4
71
3
72
8
73
4
74
0
42
0.000000001
43
0.0000000001
44
0.0000000001
40
0
40
0
40
0
40
0
40
1
40
1
40
1
40
1
41
1
41
1
41
1
41
1
10
33.079412187258043
20
53.805719916467751
30
0
10
33.516503853924711
20
53.724228249801087
30
0
10
33.860991353924703
20
53.47604908313442
30
0
10
34.020270520591382
20
53.138969916467751
30
0
0
SPLINE
5
591
100
AcDbEntity
8
0
100
AcDbSpline
70
4
71
3
72
8
73
4
74
0
42
0.000000001
43
0.0000000001
44
0.0000000001
40
0
40
0
40
0
40
0
40
1
40
1
40
1
40
1
41
1
41
1
41
1
41
1
10
22.185458020591369
20
34.799640749801085
30
0
10
21.95579968725804
20
35.029299083134418
30
0
10
21.666874687258037
20
35.521953249801086
30
0
10
17.04037052059137
20
43.526657416467749
30
0
0
SPLINE
5
592
100
AcDbEntity
8
0
100
AcDbSpline
70
4
71
3
72
8
73
4
74
0
42
0.000000001
43
0.0000000001
44
0.0000000001
40
0
40
0
40
0
40
0
40
1
40
1
40
1
40
1
41
1
41
1
41
1
41
1
10
27.760228853924708
20
44.315644916467754
30
0
10
30.319808020591374
20
48.664336583134414
30
0
10
32.412662187258036
20
52.224040749801084
30
0
10
32.412662187258036
20
52.235153249801087
30
0
0
SPLINE
5
593
100
AcDbEntity
8
0
100
AcDbSpline
70
4
71
3
72
8
73
4
74
0
42
0.000000001
43
0.0000000001
44
0.0000000001
40
0
40
0
40
0
40
0
40
1
40
1
40
1
40
1
41
1
41
1
41
1
41
1
10
33.283141353924712
20
53.572357416467753
30
0
10
33.10904552059138
20
53.635328249801084
30
0
10
32.542308020591371
20
53.639032416467749
30
0
10
23.041120520591374
20
53.639032416467749
30
0
0
LINE
5
594
100
AcDbEntity
8
0
100
AcDbLine
10
82.40794679554115
20
16.793419039329095
30
0
11
79.874719187810797
21
16.547908428501302
31
0
0
SPLINE
5
595
100
AcDbEntity
8
0
100
AcDbSpline
70
0
71
2
72
6
73
3
74
0
42
0.000000001
43
0.0000000001
44
0.0000000001
40
0
40
0
40
0
40
1
40
1
40
1
10
79.874719187810783
20
16.547908428501302
30
0
10
79.646418651200065
20
17.823350264089996
30
0
10
78.947344695942846
20
18.421667599101159
30
0
0
SPLINE
5
596
100
AcDbEntity
8
0
100
AcDbSpline
70
0
71
2
72
6
73
3
74
0
42
0.000000001
43
0.0000000001
44
0.0000000001
40
0
40
0
40
0
40
1
40
1
40
1
10
78.947344695942846
20
18.421667599101159
30
0
10
78.248270740685626
20
19.019984934112326
30
0
10
77.060855076313445
20
19.020345223636973
30
0
0
SPLINE
5
597
100
AcDbEntity
8
0
100
AcDbSpline
70
0
71
2
72
6
73
3
74
0
42
0.000000001
43
0.0000000001
44
0.0000000001
40
0
40
0
40
0
40
1
40
1
40
1
10
77.060855076313445
20
19.020345223636973
30
0
10
75.803074343883665
20
19.020726863559535
30
0
10
75.165227253910771
20
18.488783221170465
30
0
0
SPLINE
5
598
100
AcDbEntity
8
0
100
AcDbSpline
70
0
71
2
72
6
73
3
74
0
42
0.000000001
43
0.0000000001
44
0.0000000001
40
0
40
0
40
0
40
1
40
1
40
1
10
75.165227253910771
20
18.488783221170465
30
0
10
74.527379567529721
20
17.956838386869407
30
0
10
74.527163393778778
20
17.244388869036815
30
0
0
SPLINE
5
599
100
AcDbEntity
8
0
100
AcDbSpline
70
0
71
2
72
6
73
3
74
0
42
0.000000001
43
0.0000000001
44
0.0000000001
40
0
40
0
40
0
40
1
40
1
40
1
10
74.527163393778778
20
17.244388869036815
30
0
10
74.52702461592105
20
16.787015032592862
30
0
10
74.795195777010008
20
16.465891110758847
30
0
0
SPLINE
5
600
100
AcDbEntity
8
0
100
AcDbSpline
70
0
71
2
72
6
73
3
74
0
42
0.000000001
43
0.0000000001
44
0.0000000001
40
0
40
0
40
0
40
1
40
1
40
1
10
74.795195777010008
20
16.465891110758847
30
0
10
75.063364553913303
20
16.144767189648249
30
0
10
75.731763325234581
20
15.90708277690049
30
0
0
SPLINE
5
601
100
AcDbEntity
8
0
100
AcDbSpline
70
0
71
2
72
6
73
3
74
0
42
0.000000001
43
0.0000000001
44
0.0000000001
40
0
40
0
40
0
40
1
40
1
40
1
10
75.731763325234581
20
15.90708277690049
30
0
10
76.189090910925131
20
15.748620956242982
30
0
10
77.816167124770828
20
15.343527339844872
30
0
0
SPLINE
5
602
100
AcDbEntity
8
0
100
AcDbSpline
70
0
71
2
72
6
73
3
74
0
42
0.000000001
43
0.0000000001
44
0.0000000001
40
0
40
0
40
0
40
1
40
1
40
1
10
77.816167124770828
20
15.343527339844872
30
0
10
79.909378933034091
20
14.823946731267171
30
0
10
80.753533212230209
20
14.067262914725163
30
0
0
SPLINE
5
603
100
AcDbEntity
8
0
100
AcDbSpline
70
0
71
2
72
6
73
3
74
0
42
0.000000001
43
0.0000000001
44
0.0000000001
40
0
40
0
40
0
40
1
40
1
40
1
10
80.753533212230209
20
14.067262914725163
30
0
10
81.94062595068101
20
13.002627171033559
30
0
10
81.940161577491779
20
11.472180235258783
30
0
0
SPLINE
5
604
100
AcDbEntity
8
0
100
AcDbSpline
70
0
71
2
72
6
73
3
74
0
42
0.000000001
43
0.0000000001
44
0.0000000001
40
0
40
0
40
0
40
1
40
1
40
1
10
81.940161577491779
20
11.472180235258783
30
0
10
81.939862670655032
20
10.487065110127602
30
0
10
81.381077461630809
20
9.6296572951636836
30
0
0
SPLINE
5
605
100
AcDbEntity
8
0
100
AcDbSpline
70
0
71
2
72
6
73
3
74
0
42
0.000000001
43
0.0000000001
44
0.0000000001
40
0
40
0
40
0
40
1
40
1
40
1
10
81.381077461630809
20
9.6296572951636836
30
0
10
80.822292252606587
20
8.772249480199763
30
0
10
79.771073580374178
20
8.3239886355324764
30
0
0
SPLINE
5
606
100
AcDbEntity
8
0
100
AcDbSpline
70
0
71
2
72
6
73
3
74
0
42
0.000000001
43
0.0000000001
44
0.0000000001
40
0
40
0
40
0
40
1
40
1
40
1
10
79.771073580374178
20
8.3239886355324764
30
0
10
78.719854908503507
20
7.8757289829580266
30
0
10
77.233386661805341
20
7.8761800119903018
30
0
0
SPLINE
5
607
100
AcDbEntity
8
0
100
AcDbSpline
70
0
71
2
72
6
73
3
74
0
42
0.000000001
43
0.0000000001
44
0.0000000001
40
0
40
0
40
0
40
1
40
1
40
1
10
77.233386661805341
20
7.8761800119903018
30
0
10
74.80578257509903
20
7.8769166035215381
30
0
10
73.579109374107134
20
8.9415643568458769
30
0
0
SPLINE
5
608
100
AcDbEntity
8
0
100
AcDbSpline
70
0
71
2
72
6
73
3
74
0
42
0.000000001
43
0.0000000001
44
0.0000000001
40
0
40
0
40
0
40
1
40
1
40
1
10
73.579109374107134
20
8.9415643568458769
30
0
10
72.352437365569784
20
10.006213301901346
30
0
10
72.291406061935447
20
11.782956359746532
30
0
0
LINE
5
609
100
AcDbEntity
8
0
100
AcDbLine
10
72.291406061935447
20
11.782956359746532
30
0
11
74.894958407410215
21
11.896510149083429
31
0
0
SPLINE
5
610
100
AcDbEntity
8
0
100
AcDbSpline
70
0
71
2
72
6
73
3
74
0
42
0.000000001
43
0.0000000001
44
0.0000000001
40
0
40
0
40
0
40
1
40
1
40
1
10
74.894958407410215
20
11.896510149083429
30
0
10
75.061773942848461
20
10.902548459709998
30
0
10
75.611371874248334
20
10.466997166927685
30
0
0
SPLINE
5
611
100
AcDbEntity
8
0
100
AcDbSpline
70
0
71
2
72
6
73
3
74
0
42
0.000000001
43
0.0000000001
44
0.0000000001
40
0
40
0
40
0
40
1
40
1
40
1
10
75.611371874248334
20
10.466997166927685
30
0
10
76.160969209240065
20
10.031444682233385
30
0
10
77.260428091505446
20
10.031111080841768
30
0
0
SPLINE
5
612
100
AcDbEntity
8
0
100
AcDbSpline
70
0
71
2
72
6
73
3
74
0
42
0.000000001
43
0.0000000001
44
0.0000000001
40
0
40
0
40
0
40
1
40
1
40
1
10
77.260428091505446
20
10.031111080841768
30
0
10
78.395069805822828
20
10.03076680416077
30
0
10
79.037295106457549
20
10.496742270503557
30
0
0
SPLINE
5
613
100
AcDbEntity
8
0
100
AcDbSpline
70
0
71
2
72
6
73
3
74
0
42
0.000000001
43
0.0000000001
44
0.0000000001
40
0
40
0
40
0
40
1
40
1
40
1
10
79.037295106457549
20
10.496742270503557
30
0
10
79.450782185244492
20
10.795668822720641
30
0
10
79.450934307620869
20
11.297022540334048
30
0
0
SPLINE
5
614
100
AcDbEntity
8
0
100
AcDbSpline
70
0
71
2
72
6
73
3
74
0
42
0.000000001
43
0.0000000001
44
0.0000000001
40
0
40
0
40
0
40
1
40
1
40
1
10
79.450934307620869
20
11.297022540334048
30
0
10
79.451073085659431
20
11.754396972824424
30
0
10
79.064162467336956
20
12.079954553864884
30
0
0
SPLINE
5
615
100
AcDbEntity
8
0
100
AcDbSpline
70
0
71
2
72
6
73
3
74
0
42
0.000000001
43
0.0000000001
44
0.0000000001
40
0
40
0
40
0
40
1
40
1
40
1
10
79.064162467336956
20
12.079954553864884
30
0
10
78.571730040810635
20
12.493500346833876
30
0
10
76.672001564004148
20
12.94265598144082
30
0
0
SPLINE
5
616
100
AcDbEntity
8
0
100
AcDbSpline
70
0
71
2
72
6
73
3
74
0
42
0.000000001
43
0.0000000001
44
0.0000000001
40
0
40
0
40
0
40
1
40
1
40
1
10
76.672001564004148
20
12.94265598144082
30
0
10
74.77227368324408
20
13.391811615866908
30
0
10
73.862066706776631
20
13.871451614991086
30
0
0
SPLINE
5
617
100
AcDbEntity
8
0
100
AcDbSpline
70
0
71
2
72
6
73
3
74
0
42
0.000000001
43
0.0000000001
44
0.0000000001
40
0
40
0
40
0
40
1
40
1
40
1
10
73.862066706776631
20
13.871451614991086
30
0
10
72.951860922402005
20
14.351091613753553
30
0
10
72.437566515970502
20
15.182438644615859
30
0
0
SPLINE
5
618
100
AcDbEntity
8
0
100
AcDbSpline
70
0
71
2
72
6
73
3
74
0
42
0.000000001
43
0.0000000001
44
0.0000000001
40
0
40
0
40
0
40
1
40
1
40
1
10
72.437566515970502
20
15.182438644615859
30
0
10
71.923272109719832
20
16.013786271524587
30
0
10
71.923643074172148
20
17.236383575855932
30
0
0
SPLINE
5
619
100
AcDbEntity
8
0
100
AcDbSpline
70
0
71
2
72
6
73
3
74
0
42
0.000000001
43
0.0000000001
44
0.0000000001
40
0
40
0
40
0
40
1
40
1
40
1
10
71.923643074172148
20
17.236383575855932
30
0
10
71.923979344250469
20
18.344637719099495
30
0
10
72.539969792234146
20
19.311974909477513
30
0
0
SPLINE
5
620
100
AcDbEntity
8
0
100
AcDbSpline
70
0
71
2
72
6
73
3
74
0
42
0.000000001
43
0.0000000001
44
0.0000000001
40
0
40
0
40
0
40
1
40
1
40
1
10
72.539969792234146
20
19.311974909477513
30
0
10
73.15595904776329
20
20.279310908124401
30
0
10
74.281947686667252
20
20.749538412407876
30
0
0
SPLINE
5
621
100
AcDbEntity
8
0
100
AcDbSpline
70
0
71
2
72
6
73
3
74
0
42
0.000000001
43
0.0000000001
44
0.0000000001
40
0
40
0
40
0
40
1
40
1
40
1
10
74.281947686667252
20
20.749538412407876
30
0
10
75.407936325209505
20
21.219764724598509
30
0
10
77.087909254124071
20
21.219254981745905
30
0
0
SPLINE
5
622
100
AcDbEntity
8
0
100
AcDbSpline
70
0
71
2
72
6
73
3
74
0
42
0.000000001
43
0.0000000001
44
0.0000000001
40
0
40
0
40
0
40
1
40
1
40
1
10
77.087909254124071
20
21.219254981745905
30
0
10
79.533105650926018
20
21.218513052298693
30
0
10
80.843317093230581
20
20.087871911841045
30
0
0
SPLINE
5
623
100
AcDbEntity
8
0
100
AcDbSpline
70
0
71
2
72
6
73
3
74
0
42
0.000000001
43
0.0000000001
44
0.0000000001
40
0
40
0
40
0
40
1
40
1
40
1
10
80.843317093230581
20
20.087871911841045
30
0
10
82.15352883355834
20
18.957230771292963
30
0
10
82.40794679554115
20
16.793419039329095
30
0
0
LWPOLYLINE
5
624
100
AcDbEntity
8
0
100
AcDbPolyline
90
12
70
1
43
0.0
10
69.717069630695775
20
20.992803930565959
10
69.713157154408265
20
8.0983529059395103
10
67.109639503488353
20
8.0991428737368114
10
67.111179407154694
20
13.174243896486068
10
62.009692005424455
20
13.175791806393375
10
62.008152101758121
20
8.1006907836441169
10
59.404633258745356
20
8.1014807518031251
10
59.40854573503286
20
20.995931776429579
10
62.012064578045624
20
20.995141808270571
10
62.010353870653425
20
15.357118452921338
10
67.111841272383657
20
15.355570543014032
10
67.113551979775849
20
20.993593898363262
0
LWPOLYLINE
5
625
100
AcDbEntity
8
0
100
AcDbPolyline
90
8
70
1
43
0.0
10
45.080402797948729
20
21.00027926818229
10
47.912605578951357
20
20.999419911998697
10
49.037562722336531
20
18.070120499865531
10
54.191824074121577
20
18.068556577114578
10
55.256989434288961
20
20.99719145515121
10
58.01883012746611
20
20.996353448461257
10
52.992589982437721
20
8.1034263148383516
10
50.239544550238762
20
8.1042616528415969
0
LWPOLYLINE
5
626
100
AcDbEntity
8
0
100
AcDbPolyline
90
3
70
1
43
0.0
10
49.872491465873679
20
15.89733617355051
10
51.64776579730151
20
11.111953968161423
10
53.39076036596002
20
15.896268648952649
0
LINE
5
627
100
AcDbEntity
8
0
100
AcDbLine
10
44.675796951095364
20
21.000402035004903
30
0
11
44.671884474807868
21
8.1059510103784511
31
0
0
LINE
5
628
100
AcDbEntity
8
0
100
AcDbLine
10
44.671884474807868
20
8.1059510103784511
30
0
11
39.192186545901549
21
8.1076136781545802
31
0
0
SPLINE
5
629
100
AcDbEntity
8
0
100
AcDbSpline
70
0
71
2
72
6
73
3
74
0
42
0.000000001
43
0.0000000001
44
0.0000000001
40
0
40
0
40
0
40
1
40
1
40
1
10
39.192186545901549
20
8.1076136781545785
30
0
10
37.12520246441494
20
8.1082408491904019
30
0
10
36.188570865177503
20
8.4559545749224121
30
0
0
SPLINE
5
630
100
AcDbEntity
8
0
100
AcDbSpline
70
0
71
2
72
6
73
3
74
0
42
0.000000001
43
0.0000000001
44
0.0000000001
40
0
40
0
40
0
40
1
40
1
40
1
10
36.188570865177503
20
8.4559545749224121
30
0
10
35.251934497206989
20
8.8036671100084192
30
0
10
34.689283502763303
20
9.6922009952379149
30
0
0
SPLINE
5
631
100
AcDbEntity
8
0
100
AcDbSpline
70
0
71
2
72
6
73
3
74
0
42
0.000000001
43
0.0000000001
44
0.0000000001
40
0
40
0
40
0
40
1
40
1
40
1
10
34.689283502763303
20
9.6922009952379149
30
0
10
34.126627739586553
20
10.580733689821407
30
0
10
34.12697468513511
20
11.724171261163395
30
0
0
SPLINE
5
632
100
AcDbEntity
8
0
100
AcDbSpline
70
0
71
2
72
6
73
3
74
0
42
0.000000001
43
0.0000000001
44
0.0000000001
40
0
40
0
40
0
40
1
40
1
40
1
10
34.12697468513511
20
11.724171261163395
30
0
10
34.127415038878006
20
13.175456675809553
30
0
10
34.98088278194178
20
14.120731867444722
30
0
0
SPLINE
5
633
100
AcDbEntity
8
0
100
AcDbSpline
70
0
71
2
72
6
73
3
74
0
42
0.000000001
43
0.0000000001
44
0.0000000001
40
0
40
0
40
0
40
1
40
1
40
1
10
34.98088278194178
20
14.120731867444722
30
0
10
35.834350525186416
20
15.066007655126308
30
0
10
37.531989298948602
20
15.31177180303705
30
0
0
SPLINE
5
634
100
AcDbEntity
8
0
100
AcDbSpline
70
0
71
2
72
6
73
3
74
0
42
0.000000001
43
0.0000000001
44
0.0000000001
40
0
40
0
40
0
40
1
40
1
40
1
10
37.531989298948602
20
15.31177180303705
30
0
10
36.687755551038101
20
15.804584080984963
30
0
10
36.138203132456404
20
16.394061977989963
30
0
0
SPLINE
5
635
100
AcDbEntity
8
0
100
AcDbSpline
70
0
71
2
72
6
73
3
74
0
42
0.000000001
43
0.0000000001
44
0.0000000001
40
0
40
0
40
0
40
1
40
1
40
1
10
36.138203132456404
20
16.394061977989963
30
0
10
35.58865548152265
20
16.983537489362448
30
0
10
34.656771269260076
20
18.487880343922079
30
0
0
LINE
5
636
100
AcDbEntity
8
0
100
AcDbLine
10
34.656771269260076
20
18.487880343922079
30
0
11
33.083108924253814
21
21.003919526127778
31
0
0
LINE
5
637
100
AcDbEntity
8
0
100
AcDbLine
10
33.083108924253814
20
21.003919526127778
30
0
11
36.196774361672482
21
21.002974767629109
31
0
0
LINE
5
638
100
AcDbEntity
8
0
100
AcDbLine
10
36.196774361672482
20
21.002974767629109
30
0
11
38.078194691203592
21
18.19658545247027
31
0
0
SPLINE
5
639
100
AcDbEntity
8
0
100
AcDbSpline
70
0
71
2
72
6
73
3
74
0
42
0.000000001
43
0.0000000001
44
0.0000000001
40
0
40
0
40
0
40
1
40
1
40
1
10
38.078194691203599
20
18.19658545247027
30
0
10
39.080445759663007
20
16.692221246970156
30
0
10
39.449747032248254
20
16.300702161419323
30
0
0
SPLINE
5
640
100
AcDbEntity
8
0
100
AcDbSpline
70
0
71
2
72
6
73
3
74
0
42
0.000000001
43
0.0000000001
44
0.0000000001
40
0
40
0
40
0
40
1
40
1
40
1
10
39.449747032248254
20
16.300702161419323
30
0
10
39.819043536462139
20
15.909183077315321
30
0
10
40.232398224607124
20
15.763928683832313
30
0
0
SPLINE
5
641
100
AcDbEntity
8
0
100
AcDbSpline
70
0
71
2
72
6
73
3
74
0
42
0.000000001
43
0.0000000001
44
0.0000000001
40
0
40
0
40
0
40
1
40
1
40
1
10
40.232398224607124
20
15.763928683832313
30
0
10
40.645748144742441
20
15.61867548388898
30
0
10
41.54290767985966
20
15.618403264823543
30
0
0
LINE
5
642
100
AcDbEntity
8
0
100
AcDbLine
10
41.54290767985966
20
15.618403264823543
30
0
11
42.070647180407626
21
15.618243136387061
31
0
0
LINE
5
643
100
AcDbEntity
8
0
100
AcDbLine
10
42.070647180407626
20
15.618243136387061
30
0
11
42.072280492268291
21
21.00119200244049
31
0
0
LINE
5
644
100
AcDbEntity
8
0
100
AcDbLine
10
42.072280492268291
20
21.00119200244049
30
0
11
44.675796951095364
21
21.000402035004903
31
0
0
LINE
5
645
100
AcDbEntity
8
0
100
AcDbLine
10
42.070022678601077
20
13.560056104017901
30
0
11
40.143772309508172
21
13.560640573172771
31
0
0
SPLINE
5
646
100
AcDbEntity
8
0
100
AcDbSpline
70
0
71
2
72
6
73
3
74
0
42
0.000000001
43
0.0000000001
44
0.0000000001
40
0
40
0
40
0
40
1
40
1
40
1
10
40.143772309508165
20
13.560640573172771
30
0
10
38.270293506284368
20
13.561209030207412
30
0
10
37.804075178238456
20
13.403028626949149
30
0
0
SPLINE
5
647
100
AcDbEntity
8
0
100
AcDbSpline
70
0
71
2
72
6
73
3
74
0
42
0.000000001
43
0.0000000001
44
0.0000000001
40
0
40
0
40
0
40
1
40
1
40
1
10
37.804075178238456
20
13.403028626949149
30
0
10
37.337856850011669
20
13.24484762764447
30
0
10
37.07387205628271
20
12.857918326706507
30
0
0
SPLINE
5
648
100
AcDbEntity
8
0
100
AcDbSpline
70
0
71
2
72
6
73
3
74
0
42
0.000000001
43
0.0000000001
44
0.0000000001
40
0
40
0
40
0
40
1
40
1
40
1
10
37.07387205628271
20
12.857918326706507
30
0
10
36.809882494182403
20
12.470989027215378
30
0
10
36.809706352721406
20
11.8904749805662
30
0
0
SPLINE
5
649
100
AcDbEntity
8
0
100
AcDbSpline
70
0
71
2
72
6
73
3
74
0
42
0.000000001
43
0.0000000001
44
0.0000000001
40
0
40
0
40
0
40
1
40
1
40
1
10
36.809706352721406
20
11.8904749805662
30
0
10
36.80950886068166
20
11.239595269813009
30
0
10
37.156815735494497
20
10.839286403993038
30
0
0
SPLINE
5
650
100
AcDbEntity
8
0
100
AcDbSpline
70
0
71
2
72
6
73
3
74
0
42
0.000000001
43
0.0000000001
44
0.0000000001
40
0
40
0
40
0
40
1
40
1
40
1
10
37.156815735494497
20
10.839286403993038
30
0
10
37.50412261066905
20
10.438978730265905
30
0
10
38.137377985639311
20
10.333238676032535
30
0
0
SPLINE
5
651
100
AcDbEntity
8
0
100
AcDbSpline
70
0
71
2
72
6
73
3
74
0
42
0.000000001
43
0.0000000001
44
0.0000000001
40
0
40
0
40
0
40
1
40
1
40
1
10
38.137377985639311
20
10.333238676032535
30
0
10
38.454008341811146
20
10.289163909894032
30
0
10
40.037231611826407
20
10.288683523137752
30
0
0
LINE
5
652
100
AcDbEntity
8
0
100
AcDbLine
10
40.037231611826407
20
10.288683523137752
30
0
11
42.069029881028904
21
10.288067028295584
31
0
0
LINE
5
653
100
AcDbEntity
8
0
100
AcDbLine
10
42.069029881028904
20
10.288067028295584
30
0
11
42.070022678601077
21
13.560056104017901
31
0
0
LINE
5
654
100
AcDbEntity
8
0
100
AcDbLine
10
31.667007533752496
20
21.004349204219572
30
0
11
31.663095057464993
21
8.109898179593122
31
0
0
LINE
5
655
100
AcDbEntity
8
0
100
AcDbLine
10
31.663095057464993
20
8.109898179593122
30
0
11
27.485152973786541
21
8.1111658643748736
31
0
0
SPLINE
5
656
100
AcDbEntity
8
0
100
AcDbSpline
70
0
71
2
72
6
73
3
74
0
42
0.000000001
43
0.0000000001
44
0.0000000001
40
0
40
0
40
0
40
1
40
1
40
1
10
27.485152973786533
20
8.1111658643748736
30
0
10
25.110322837135026
20
8.1118864430624615
30
0
10
24.389136772325422
20
8.3056105637629418
30
0
0
SPLINE
5
657
100
AcDbEntity
8
0
100
AcDbSpline
70
0
71
2
72
6
73
3
74
0
42
0.000000001
43
0.0000000001
44
0.0000000001
40
0
40
0
40
0
40
1
40
1
40
1
10
24.389136772325422
20
8.3056105637629418
30
0
10
23.280969507629081
20
8.5962035595043513
30
0
10
22.533631465323918
20
9.5683520463430298
30
0
0
SPLINE
5
658
100
AcDbEntity
8
0
100
AcDbSpline
70
0
71
2
72
6
73
3
74
0
42
0.000000001
43
0.0000000001
44
0.0000000001
40
0
40
0
40
0
40
1
40
1
40
1
10
22.533631465323918
20
9.5683520463430298
30
0
10
21.786293423018755
20
10.54050053318171
30
0
10
21.786760464713815
20
12.079742133888249
30
0
0
SPLINE
5
659
100
AcDbEntity
8
0
100
AcDbSpline
70
0
71
2
72
6
73
3
74
0
42
0.000000001
43
0.0000000001
44
0.0000000001
40
0
40
0
40
0
40
1
40
1
40
1
10
21.786760464713815
20
12.079742133888249
30
0
10
21.787120754238465
20
13.267157798260429
30
0
10
22.218355530411404
20
14.076228587018697
30
0
0
SPLINE
5
660
100
AcDbEntity
8
0
100
AcDbSpline
70
0
71
2
72
6
73
3
74
0
42
0.000000001
43
0.0000000001
44
0.0000000001
40
0
40
0
40
0
40
1
40
1
40
1
10
22.218355530411404
20
14.076228587018697
30
0
10
22.649590306584333
20
14.885299375776968
30
0
10
23.313802425321164
20
15.346870539913899
30
0
0
SPLINE
5
661
100
AcDbEntity
8
0
100
AcDbSpline
70
0
71
2
72
6
73
3
74
0
42
0.000000001
43
0.0000000001
44
0.0000000001
40
0
40
0
40
0
40
1
40
1
40
1
10
23.313802425321164
20
15.346870539913899
30
0
10
23.978014543696275
20
15.80844051195799
30
0
10
24.664123648438547
20
15.95775893345335
30
0
0
SPLINE
5
662
100
AcDbEntity
8
0
100
AcDbSpline
70
0
71
2
72
6
73
3
74
0
42
0.000000001
43
0.0000000001
44
0.0000000001
40
0
40
0
40
0
40
1
40
1
40
1
10
24.664123648438547
20
15.95775893345335
30
0
10
25.596520272782985
20
16.14218605692572
30
0
10
27.364451175897191
20
16.141649625578378
30
0
0
LINE
5
663
100
AcDbEntity
8
0
100
AcDbLine
10
27.364451175897191
20
16.141649625578378
30
0
11
29.062015222814537
21
16.141134545171511
31
0
0
LINE
5
664
100
AcDbEntity
8
0
100
AcDbLine
10
29.062015222814537
20
16.141134545171511
30
0
11
29.063491074925423
21
21.005139171655163
31
0
0
LINE
5
665
100
AcDbEntity
8
0
100
AcDbLine
10
29.063491074925423
20
21.005139171655163
30
0
11
31.667007533752496
21
21.004349204219572
31
0
0
LINE
5
666
100
AcDbEntity
8
0
100
AcDbLine
10
29.060240463686036
20
10.292014197510257
30
0
11
29.061350688898862
21
13.951012637665361
31
0
0
LINE
5
667
100
AcDbEntity
8
0
100
AcDbLine
10
29.061350688898862
20
13.951012637665361
30
0
11
27.636451653233681
21
13.951444985167281
31
0
0
SPLINE
5
668
100
AcDbEntity
8
0
100
AcDbSpline
70
0
71
2
72
6
73
3
74
0
42
0.000000001
43
0.0000000001
44
0.0000000001
40
0
40
0
40
0
40
1
40
1
40
1
10
27.636451653233685
20
13.951444985167281
30
0
10
26.097207072295035
20
13.951912027766621
30
0
10
25.57820383422305
20
13.749768947551981
30
0
0
SPLINE
5
669
100
AcDbEntity
8
0
100
AcDbSpline
70
0
71
2
72
6
73
3
74
0
42
0.000000001
43
0.0000000001
44
0.0000000001
40
0
40
0
40
0
40
1
40
1
40
1
10
25.57820383422305
20
13.749768947551981
30
0
10
25.05919582777971
20
13.547625868784174
30
0
10
24.764413084558178
20
13.1167278155812
30
0
0
SPLINE
5
670
100
AcDbEntity
8
0
100
AcDbSpline
70
0
71
2
72
6
73
3
74
0
42
0.000000001
43
0.0000000001
44
0.0000000001
40
0
40
0
40
0
40
1
40
1
40
1
10
24.764413084558178
20
13.1167278155812
30
0
10
24.469625572784413
20
12.685829167778637
30
0
10
24.469452100190992
20
12.114110978154063
30
0
0
SPLINE
5
671
100
AcDbEntity
8
0
100
AcDbSpline
70
0
71
2
72
6
73
3
74
0
42
0.000000001
43
0.0000000001
44
0.0000000001
40
0
40
0
40
0
40
1
40
1
40
1
10
24.469452100190992
20
12.114110978154063
30
0
10
24.469238595307587
20
11.410457317346076
30
0
10
24.882498540914888
20
10.952957450069805
30
0
0
SPLINE
5
672
100
AcDbEntity
8
0
100
AcDbSpline
70
0
71
2
72
6
73
3
74
0
42
0.000000001
43
0.0000000001
44
0.0000000001
40
0
40
0
40
0
40
1
40
1
40
1
10
24.882498540914888
20
10.952957450069805
30
0
10
25.295753717969973
20
10.495456988193945
30
0
10
25.929006424253522
20
10.380921672982385
30
0
0
SPLINE
5
673
100
AcDbEntity
8
0
100
AcDbSpline
70
0
71
2
72
6
73
3
74
0
42
0.000000001
43
0.0000000001
44
0.0000000001
40
0
40
0
40
0
40
1
40
1
40
1
10
25.929006424253522
20
10.380921672982385
30
0
10
26.395150025454619
20
10.292822847923038
30
0
10
27.802458539163428
20
10.292395837794528
30
0
0
LINE
5
674
100
AcDbEntity
8
0
100
AcDbLine
10
27.802458539163428
20
10.292395837794528
30
0
11
29.060240463686036
21
10.292014197510257
31
0
0
LINE
5
675
100
AcDbEntity
8
0
100
AcDbLine
10
20.301728038198277
20
16.812263510313606
30
0
11
17.768498940351861
21
16.566752899937949
31
0
0
SPLINE
5
676
100
AcDbEntity
8
0
100
AcDbSpline
70
0
71
2
72
6
73
3
74
0
42
0.000000001
43
0.0000000001
44
0.0000000001
40
0
40
0
40
0
40
1
40
1
40
1
10
17.768498940351847
20
16.566752899937949
30
0
10
17.540199595833982
20
17.842194735164931
30
0
10
16.841128024762433
20
18.44051206945268
30
0
0
SPLINE
5
677
100
AcDbEntity
8
0
100
AcDbSpline
70
0
71
2
72
6
73
3
74
0
42
0.000000001
43
0.0000000001
44
0.0000000001
40
0
40
0
40
0
40
1
40
1
40
1
10
16.841128024762433
20
18.44051206945268
30
0
10
16.142051685319529
20
19.038829405187261
30
0
10
14.954636616993771
20
19.039189694531057
30
0
0
SPLINE
5
678
100
AcDbEntity
8
0
100
AcDbSpline
70
0
71
2
72
6
73
3
74
0
42
0.000000001
43
0.0000000001
44
0.0000000001
40
0
40
0
40
0
40
1
40
1
40
1
10
14.954636616993771
20
19.039189694531057
30
0
10
13.696854692471163
20
19.039571334815328
30
0
10
13.059009390637524
20
18.507627691883695
30
0
0
SPLINE
5
679
100
AcDbEntity
8
0
100
AcDbSpline
70
0
71
2
72
6
73
3
74
0
42
0.000000001
43
0.0000000001
44
0.0000000001
40
0
40
0
40
0
40
1
40
1
40
1
10
13.059009390637524
20
18.507627691883695
30
0
10
12.421159320070814
20
17.975682858306051
30
0
10
12.420943146319852
20
17.263233340473462
30
0
0
SPLINE
5
680
100
AcDbEntity
8
0
100
AcDbSpline
70
0
71
2
72
6
73
3
74
0
42
0.000000001
43
0.0000000001
44
0.0000000001
40
0
40
0
40
0
40
1
40
1
40
1
10
12.420943146319852
20
17.263233340473462
30
0
10
12.420804368462139
20
16.805859504029506
30
0
10
12.688975529551101
20
16.484735582195494
30
0
0
SPLINE
5
681
100
AcDbEntity
8
0
100
AcDbSpline
70
0
71
2
72
6
73
3
74
0
42
0.000000001
43
0.0000000001
44
0.0000000001
40
0
40
0
40
0
40
1
40
1
40
1
10
12.688975529551101
20
16.484735582195494
30
0
10
12.957146690640071
20
16.163611660361479
30
0
10
13.625547846147015
20
15.925927246890302
30
0
0
SPLINE
5
682
100
AcDbEntity
8
0
100
AcDbSpline
70
0
71
2
72
6
73
3
74
0
42
0.000000001
43
0.0000000001
44
0.0000000001
40
0
40
0
40
0
40
1
40
1
40
1
10
13.625547846147015
20
15.925927246890302
30
0
10
14.082872451605484
20
15.767465427137067
30
0
10
15.709946877311909
20
15.362371811281516
30
0
0
SPLINE
5
683
100
AcDbEntity
8
0
100
AcDbSpline
70
0
71
2
72
6
73
3
74
0
42
0.000000001
43
0.0000000001
44
0.0000000001
40
0
40
0
40
0
40
1
40
1
40
1
10
15.709946877311909
20
15.362371811281516
30
0
10
17.80316166580727
20
14.842791201799542
30
0
10
18.647315348956965
20
14.086107385438389
30
0
0
SPLINE
5
684
100
AcDbEntity
8
0
100
AcDbSpline
70
0
71
2
72
6
73
3
74
0
42
0.000000001
43
0.0000000001
44
0.0000000001
40
0
40
0
40
0
40
1
40
1
40
1
10
18.647315348956965
20
14.086107385438389
30
0
10
19.834407491361343
20
13.02147164192764
30
0
10
19.833943118172126
20
11.491024706152865
30
0
0
SPLINE
5
685
100
AcDbEntity
8
0
100
AcDbSpline
70
0
71
2
72
6
73
3
74
0
42
0.000000001
43
0.0000000001
44
0.0000000001
40
0
40
0
40
0
40
1
40
1
40
1
10
19.833943118172126
20
11.491024706152865
30
0
10
19.833644211335368
20
10.505909581021687
30
0
10
19.274859896380772
20
9.6485017657864844
30
0
0
SPLINE
5
686
100
AcDbEntity
8
0
100
AcDbSpline
70
0
71
2
72
6
73
3
74
0
42
0.000000001
43
0.0000000001
44
0.0000000001
40
0
40
0
40
0
40
1
40
1
40
1
10
19.274859896380772
20
9.6485017657864844
30
0
10
18.716075581426182
20
8.7910939505512822
30
0
10
17.664856909193787
20
8.3428331058839937
30
0
0
SPLINE
5
687
100
AcDbEntity
8
0
100
AcDbSpline
70
0
71
2
72
6
73
3
74
0
42
0.000000001
43
0.0000000001
44
0.0000000001
40
0
40
0
40
0
40
1
40
1
40
1
10
17.664856909193787
20
8.3428331058839937
30
0
10
16.613638237323105
20
7.8945734533095457
30
0
10
15.127169990624942
20
7.8950244823418201
30
0
0
SPLINE
5
688
100
AcDbEntity
8
0
100
AcDbSpline
70
0
71
2
72
6
73
3
74
0
42
0.000000001
43
0.0000000001
44
0.0000000001
40
0
40
0
40
0
40
1
40
1
40
1
10
15.127169990624942
20
7.8950244823418201
30
0
10
12.699563519732946
20
7.895761074596475
30
0
10
11.472889126648198
20
8.9604088282825227
30
0
0
SPLINE
5
689
100
AcDbEntity
8
0
100
AcDbSpline
70
0
71
2
72
6
73
3
74
0
42
0.000000001
43
0.0000000001
44
0.0000000001
40
0
40
0
40
0
40
1
40
1
40
1
10
11.472889126648198
20
8.9604088282825227
30
0
10
10.246219502296539
20
10.025057772614577
30
0
10
10.185184622383678
20
11.801800831544886
30
0
0
LINE
5
690
100
AcDbEntity
8
0
100
AcDbLine
10
10.185184622383678
20
11.801800831544886
30
0
11
12.788740544136971
21
11.915354619796659
31
0
0
SPLINE
5
691
100
AcDbEntity
8
0
100
AcDbSpline
70
0
71
2
72
6
73
3
74
0
42
0.000000001
43
0.0000000001
44
0.0000000001
40
0
40
0
40
0
40
1
40
1
40
1
10
12.788740544136967
20
11.915354619796661
30
0
10
12.955556079575228
20
10.921392930423224
30
0
10
13.505155203067938
20
10.485841637279202
30
0
0
SPLINE
5
692
100
AcDbEntity
8
0
100
AcDbSpline
70
0
71
2
72
6
73
3
74
0
42
0.000000001
43
0.0000000001
44
0.0000000001
40
0
40
0
40
0
40
1
40
1
40
1
10
13.505155203067938
20
10.485841637279202
30
0
10
14.054749557827568
20
10.050289153489176
30
0
10
15.154212016371469
20
10.049955551012433
30
0
0
SPLINE
5
693
100
AcDbEntity
8
0
100
AcDbSpline
70
0
71
2
72
6
73
3
74
0
42
0.000000001
43
0.0000000001
44
0.0000000001
40
0
40
0
40
0
40
1
40
1
40
1
10
15.154212016371469
20
10.049955551012433
30
0
10
16.288850750456749
20
10.049611275235705
30
0
10
16.931077243184298
20
10.515586741216785
30
0
0
SPLINE
5
694
100
AcDbEntity
8
0
100
AcDbSpline
70
0
71
2
72
6
73
3
74
0
42
0.000000001
43
0.0000000001
44
0.0000000001
40
0
40
0
40
0
40
1
40
1
40
1
10
16.931077243184298
20
10.515586741216785
30
0
10
17.344561937785574
20
10.814513294157287
30
0
10
17.344714060161941
20
11.315867011770692
30
0
0
SPLINE
5
695
100
AcDbEntity
8
0
100
AcDbSpline
70
0
71
2
72
6
73
3
74
0
42
0.000000001
43
0.0000000001
44
0.0000000001
40
0
40
0
40
0
40
1
40
1
40
1
10
17.344714060161941
20
11.315867011770692
30
0
10
17.344852838200502
20
11.773241444261068
30
0
10
16.957945796156551
20
12.098799024216403
30
0
0
SPLINE
5
696
100
AcDbEntity
8
0
100
AcDbSpline
70
0
71
2
72
6
73
3
74
0
42
0.000000001
43
0.0000000001
44
0.0000000001
40
0
40
0
40
0
40
1
40
1
40
1
10
16.957945796156551
20
12.098799024216403
30
0
10
16.465512773583811
20
12.51234481736625
30
0
10
14.565781912591635
20
12.961500452696612
30
0
0
SPLINE
5
697
100
AcDbEntity
8
0
100
AcDbSpline
70
0
71
2
72
6
73
3
74
0
42
0.000000001
43
0.0000000001
44
0.0000000001
40
0
40
0
40
0
40
1
40
1
40
1
10
14.565781912591635
20
12.961500452696612
30
0
10
12.666055819970836
20
13.410656086580136
30
0
10
11.755847651410534
20
13.890296086066023
30
0
0
SPLINE
5
698
100
AcDbEntity
8
0
100
AcDbSpline
70
0
71
2
72
6
73
3
74
0
42
0.000000001
43
0.0000000001
44
0.0000000001
40
0
40
0
40
0
40
1
40
1
40
1
10
11.755847651410534
20
13.890296086066023
30
0
10
10.84563948285024
20
14.369936085551906
30
0
10
10.331346268511572
20
15.201283116052505
30
0
0
SPLINE
5
699
100
AcDbEntity
8
0
100
AcDbSpline
70
0
71
2
72
6
73
3
74
0
42
0.000000001
43
0.0000000001
44
0.0000000001
40
0
40
0
40
0
40
1
40
1
40
1
10
10.331346268511572
20
15.201283116052505
30
0
10
9.817053054353746
20
16.032630742599526
30
0
10
9.8174240188060757
20
17.255228046930867
30
0
0
SPLINE
5
700
100
AcDbEntity
8
0
100
AcDbSpline
70
0
71
2
72
6
73
3
74
0
42
0.000000001
43
0.0000000001
44
0.0000000001
40
0
40
0
40
0
40
1
40
1
40
1
10
9.8174240188060757
20
17.255228046930867
30
0
10
9.8177602888843918
20
18.36348219017443
30
0
10
10.43375073686807
20
19.330819380552452
30
0
0
SPLINE
5
701
100
AcDbEntity
8
0
100
AcDbSpline
70
0
71
2
72
6
73
3
74
0
42
0.000000001
43
0.0000000001
44
0.0000000001
40
0
40
0
40
0
40
1
40
1
40
1
10
10.43375073686807
20
19.330819380552452
30
0
10
11.049741184490038
20
20.298155378837631
30
0
10
12.175729823394006
20
20.768382883121106
30
0
0
SPLINE
5
702
100
AcDbEntity
8
0
100
AcDbSpline
70
0
71
2
72
6
73
3
74
0
42
0.000000001
43
0.0000000001
44
0.0000000001
40
0
40
0
40
0
40
1
40
1
40
1
10
12.175729823394006
20
20.768382883121106
30
0
10
13.301718461936263
20
21.238609195311735
30
0
10
14.98169198689725
20
21.238099452278281
30
0
0
SPLINE
5
703
100
AcDbEntity
8
0
100
AcDbSpline
70
0
71
2
72
6
73
3
74
0
42
0.000000001
43
0.0000000001
44
0.0000000001
40
0
40
0
40
0
40
1
40
1
40
1
10
14.98169198689725
20
21.238099452278281
30
0
10
17.426884211374247
20
21.23735752409705
30
0
10
18.737099527980536
20
20.106716382463844
30
0
0
SPLINE
5
704
100
AcDbEntity
8
0
100
AcDbSpline
70
0
71
2
72
6
73
3
74
0
42
0.000000001
43
0.0000000001
44
0.0000000001
40
0
40
0
40
0
40
1
40
1
40
1
10
18.737099527980536
20
20.106716382463844
30
0
10
20.047310076215474
20
18.976075242277474
30
0
10
20.301728038198277
20
16.812263510313606
30
0
0
ENDSEC
0
SECTION
2
OBJECTS
0
DICTIONARY
5
C
100
AcDbDictionary
3
ACAD_GROUP
350
D
3
ACAD_MLINESTYLE
350
17
0
DICTIONARY
5
D
100
AcDbDictionary
0
DICTIONARY
5
1A
330
C
100
AcDbDictionary
0
DICTIONARY
5
17
100
AcDbDictionary
0
ENDSEC
0
EOF
