                                                                        S      1
,,18Hdehumid adapter v4,18Hdehumid adapter v4,7Hunknown,7Hunknown,32,38,G      1
7,99,15,,1.,2,2HMM,1,0.08,15H20250912.001632,0.01,10000.,7Hunknown,7HunkG      2
nown,11,0,15H20210511.212909;                                           G      3
     186       1                                                00000000D      1
     186            -119       1       0                               0D      2
     514       2                                                00010000D      3
     514                       1       1                               0D      4
     510       3                                                00010000D      5
     510            -119       1       1                               0D      6
     510       4                                                00010000D      7
     510            -119       1       1                               0D      8
     510       5                                                00010000D      9
     510            -119       1       1                               0D     10
     510       6                                                00010000D     11
     510            -119       1       1                               0D     12
     510       7                                                00010000D     13
     510            -119       1       1                               0D     14
     510       8                                                00010000D     15
     510            -119       1       1                               0D     16
     510       9                                                00010000D     17
     510            -119       1       1                               0D     18
     510      10                                                00010000D     19
     510            -119       1       1                               0D     20
     510      11                                                00010000D     21
     510            -119       1       1                               0D     22
     510      12                                                00010000D     23
     510            -119       1       1                               0D     24
     508      13                                                00010000D     25
     508                       1       1                               0D     26
     508      14                                                00010000D     27
     508                       3       1                               0D     28
     508      17                                                00010000D     29
     508                       2       1                               0D     30
     508      19                                                00010000D     31
     508                       1       1                               0D     32
     508      20                                                00010000D     33
     508                       1       1                               0D     34
     508      21                                                00010000D     35
     508                       1       1                               0D     36
     508      22                                                00010000D     37
     508                       1       1                               0D     38
     508      23                                                00010000D     39
     508                       1       1                               0D     40
     508      24                                                00010000D     41
     508                       1       1                               0D     42
     508      25                                                00010000D     43
     508                       1       1                               0D     44
     508      26                                                00010000D     45
     508                       1       1                               0D     46
     508      27                                                00010000D     47
     508                       1       1                               0D     48
     508      28                                                00010000D     49
     508                       2       1                               0D     50
     126      30                                                00010000D     51
     126       0               4       0                               0D     52
     126      34                                                00010000D     53
     126       0               6       0                               0D     54
     126      40                                                00010000D     55
     126       0               6       0                               0D     56
     126      46                                                00010000D     57
     126       0              10       0                               0D     58
     126      56                                                00010000D     59
     126       0               4       0                               0D     60
     126      60                                                00010000D     61
     126       0               6       0                               0D     62
     126      66                                                00010000D     63
     126       0              15       0                               0D     64
     126      81                                                00010000D     65
     126       0              26       0                               0D     66
     126     107                                                00010000D     67
     126       0              13       0                               0D     68
     126     120                                                00010000D     69
     126       0               9       0                               0D     70
     126     129                                                00010000D     71
     126       0               5       0                               0D     72
     126     134                                                00010000D     73
     126       0               6       0                               0D     74
     126     140                                                00010000D     75
     126       0              10       0                               0D     76
     126     150                                                00010000D     77
     126       0               4       0                               0D     78
     126     154                                                00010000D     79
     126       0               9       0                               0D     80
     126     163                                                00010000D     81
     126       0               4       0                               0D     82
     126     167                                                00010000D     83
     126       0              44       0                               0D     84
     126     211                                                00010000D     85
     126       0              10       0                               0D     86
     126     221                                                00010000D     87
     126       0              10       0                               0D     88
     126     231                                                00010000D     89
     126       0               4       0                               0D     90
     126     235                                                00010000D     91
     126       0               2       0                               0D     92
     128     237                                                00010000D     93
     128       0    -119       7       0                               0D     94
     128     244                                                00010000D     95
     128       0    -119      16       0                               0D     96
     128     260                                                00010000D     97
     128       0    -119      18       0                               0D     98
     128     278                                                00010000D     99
     128       0    -119      16       0                               0D    100
     128     294                                                00010000D    101
     128       0    -119       3       0                               0D    102
     128     297                                                00010000D    103
     128       0    -119       3       0                               0D    104
     128     300                                                00010000D    105
     128       0    -119       3       0                               0D    106
     128     303                                                00010000D    107
     128       0    -119       7       0                               0D    108
     128     310                                                00010000D    109
     128       0    -119      12       0                               0D    110
     128     322                                                00010000D    111
     128       0    -119       7       0                               0D    112
     502     329                                                00010000D    113
     502                       7       1                               0D    114
     504     336                                                00010001D    115
     504                       6       1                               0D    116
     406     342                                                00000000D    117
     406                       1      15                               0D    118
     314     343                                                00000200D    119
     314                       2       0                               0D    120
186,3,1,0,0,1,117;                                                     1P      1
514,10,5,1,7,1,9,1,11,1,13,1,15,1,17,1,19,1,21,1,23,1;                 3P      2
510,93,1,1,25;                                                         5P      3
510,95,1,1,27;                                                         7P      4
510,97,1,1,29;                                                         9P      5
510,99,1,1,31;                                                        11P      6
510,101,2,1,33,35;                                                    13P      7
510,103,1,1,37;                                                       15P      8
510,105,2,1,39,41;                                                    17P      9
510,107,1,1,43;                                                       19P     10
510,109,2,1,45,47;                                                    21P     11
510,111,1,1,49;                                                       23P     12
508,3,0,115,1,1,0,0,115,2,0,0,0,115,3,0,0;                            25P     13
508,12,0,115,4,0,0,0,115,5,1,0,0,115,6,0,0,0,115,3,1,0,0,115,7,       27P     14
1,0,0,115,8,1,0,0,115,9,1,0,0,115,2,1,0,0,115,10,0,0,0,115,11,0,      27P     15
0,0,115,12,0,0,0,115,5,0,0;                                           27P     16
508,6,0,115,13,0,0,0,115,14,1,0,0,115,7,0,0,0,115,9,0,0,0,115,8,      29P     17
0,0,0,115,14,0,0;                                                     29P     18
508,4,0,115,15,0,0,0,115,16,1,0,0,115,17,0,0,0,115,16,0,0;            31P     19
508,1,0,115,15,1,0;                                                   33P     20
508,1,0,115,13,1,0;                                                   35P     21
508,1,0,115,18,1,0;                                                   37P     22
508,1,0,115,19,1,0;                                                   39P     23
508,1,0,115,4,1,0;                                                    41P     24
508,2,0,115,11,1,0,0,115,20,1,0;                                      43P     25
508,4,0,115,19,0,0,0,115,21,1,0,0,115,18,0,0,0,115,21,0,0;            45P     26
508,1,0,115,17,1,0;                                                   47P     27
508,5,0,115,6,1,0,0,115,12,1,0,0,115,20,0,0,0,115,10,1,0,0,115,       49P     28
1,0,0;                                                                49P     29
126,1,1,0,0,1,0,-0.906917857360853,-0.906917857360853,                51P     30
0.906917857360853,0.906917857360853,1.,1.,-9.06917857360853,          51P     31
-9.00000013411045,-10.,9.06917857360853,-9.00000013411045,-10.,       51P     32
-0.906917857360853,0.906917857360853,0.,0.,0.;                        51P     33
126,2,2,0,0,0,0,-7.85398163397448,-7.85398163397448,                  53P     34
-7.85398163397448,-7.11735763195535,-7.11735763195535,                53P     35
-7.11735763195535,1.,0.932936423541483,1.,4.13318294712232D-15,       53P     36
-9.00000013411045,-13.5,5.20995364866873,-9.00000013411045,           53P     37
-13.5,9.06917857360853,-9.00000013411045,-10.,-7.85398163397448,      53P     38
-7.11735763195535,0.,0.,0.;                                           53P     39
126,2,2,0,0,0,0,-2.30742032881402,-2.30742032881402,                  55P     40
-2.30742032881402,-1.5707963267949,-1.5707963267949,                  55P     41
-1.5707963267949,1.,0.932936423541481,1.,-9.06917857360853,           55P     42
-9.00000013411045,-10.,-5.20995364866873,-9.00000013411045,           55P     43
-13.5,8.26636589424463D-16,-9.00000013411045,-13.5,                   55P     44
-2.30742032881402,-1.5707963267949,0.,0.,0.;                          55P     45
126,8,2,0,1,0,0,-3.14159265358979,-3.14159265358979,                  57P     46
-3.14159265358979,-1.5707963267949,-1.5707963267949,0.,0.,            57P     47
1.5707963267949,1.5707963267949,3.14159265358979,                     57P     48
3.14159265358979,3.14159265358979,1.,0.707106781186548,1.,            57P     49
0.707106781186548,1.,0.707106781186548,1.,0.707106781186548,1.,       57P     50
-13.5,10.,-1.65327317884893D-15,-13.5,10.,-13.5,                      57P     51
8.26636589424463D-16,10.,-13.5,13.5,10.,-13.5,13.5,10.,0.,13.5,       57P     52
10.,13.5,8.26636589424463D-16,10.,13.5,-13.5,10.,13.5,-13.5,10.,      57P     53
1.65327317884893D-15,-3.14159265358979,3.14159265358979,0.,0.,        57P     54
0.;                                                                   57P     55
126,1,1,0,0,1,0,-0.740740740740741,-0.740740740740741,                59P     56
0.349206354409929,0.349206354409929,1.,1.,-13.5,10.,0.,-13.5,         59P     57
-4.71428578453405,1.0049432653761D-16,-0.740740740740741,             59P     58
0.349206354409929,0.,0.,0.;                                           59P     59
126,2,2,0,0,0,0,0.736624002019128,0.736624002019128,                  61P     60
0.736624002019128,1.5707963267949,1.5707963267949,                    61P     61
1.5707963267949,1.,0.914273210110763,1.,-9.06917857360853,            61P     62
-9.00000013411045,-10.,-13.5,-7.27783250514608,                       61P     63
-5.98160892562849,-13.5,-4.71428578453405,-8.26636589424463D-16,      61P     64
0.736624002019128,1.5707963267949,0.,0.,0.;                           61P     65
126,9,3,0,0,1,0,0.683730132143167,0.683730132143167,                  63P     66
0.683730132143167,0.683730132143167,0.854623016664091,                63P     67
0.854623016664091,1.02551590118502,1.02551590118502,                  63P     68
1.19648808273567,1.19648808273567,1.36746026428633,                   63P     69
1.36746026428633,1.36746026428633,1.36746026428633,1.,1.,1.,1.,       63P     70
1.,1.,1.,1.,1.,1.,2.77555756156289D-16,-9.,-13.5,                     63P     71
-0.569642948403081,-9.,-13.5,-1.17434761749386,                       63P     72
-8.88526989361372,-13.4604107074555,-2.28185015380832,                63P     73
-8.42464568752464,-13.3174662988653,-2.78497808615254,                63P     74
-8.07898294452638,-13.2159289957057,-3.57916715999867,                63P     75
-7.28479387068026,-13.0233098522834,-3.92468808431858,                63P     76
-6.78173930980964,-12.9191868574305,-4.38520652670966,                63P     77
-5.67450888058585,-12.7702205229206,-4.5,-5.06990727183553,           63P     78
-12.7279220613579,-4.5,-4.5,-12.7279220613579,0.683730132143167,      63P     79
1.36746026428633,0.,0.,0.;                                            63P     80
126,17,3,0,0,1,0,1.36746026428633,1.36746026428633,                   65P     81
1.36746026428633,1.36746026428633,1.53843244583699,                   65P     82
1.53843244583699,1.70940462738765,1.70940462738765,                   65P     83
1.88029751190858,1.88029751190858,2.0511903964295,                    65P     84
2.0511903964295,2.22208328095042,2.22208328095042,                    65P     85
2.39297616547135,2.39297616547135,2.56394834702201,                   65P     86
2.56394834702201,2.73492052857267,2.73492052857267,                   65P     87
2.73492052857267,2.73492052857267,1.,1.,1.,1.,1.,1.,1.,1.,1.,1.,      65P     88
1.,1.,1.,1.,1.,1.,1.,1.,-4.5,-4.5,-12.7279220613579,-4.5,             65P     89
-3.93009272816447,-12.7279220613579,-4.38520652670966,                65P     90
-3.32549111941415,-12.7702205229206,-3.92468808431858,                65P     91
-2.21826069019036,-12.9191868574305,-3.57916715999867,                65P     92
-1.71520612931974,-13.0233098522834,-2.78497808615254,                65P     93
-0.921017055473615,-13.2159289957057,-2.28185015380832,               65P     94
-0.57535431247536,-13.3174662988653,-1.17434761749386,                65P     95
-0.114730106386284,-13.4604107074555,-0.569642948403082,              65P     96
4.50469800299774D-16,-13.5,0.56964294840308,                          65P     97
6.59753224325382D-16,-13.5,1.17434761749385,-0.114730106386283,       65P     98
-13.4604107074555,2.28185015380832,-0.575354312475358,                65P     99
-13.3174662988653,2.78497808615254,-0.921017055473614,                65P    100
-13.2159289957057,3.57916715999867,-1.71520612931974,                 65P    101
-13.0233098522834,3.92468808431858,-2.21826069019035,                 65P    102
-12.9191868574305,4.38520652670965,-3.32549111941415,                 65P    103
-12.7702205229206,4.5,-3.93009272816447,-12.7279220613579,4.5,        65P    104
-4.5,-12.7279220613579,1.36746026428633,2.73492052857267,0.,0.,       65P    105
0.;                                                                   65P    106
126,9,3,0,0,1,0,0.,0.,0.,0.,0.170972181550659,0.170972181550659,      67P    107
0.341944363101318,0.341944363101318,0.512837247622242,                67P    108
0.512837247622242,0.683730132143167,0.683730132143167,                67P    109
0.683730132143167,0.683730132143167,1.,1.,1.,1.,1.,1.,1.,1.,1.,       67P    110
1.,4.5,-4.5,-12.7279220613579,4.5,-5.06990727183553,                  67P    111
-12.7279220613579,4.38520652670966,-5.67450888058585,                 67P    112
-12.7702205229206,3.92468808431858,-6.78173930980964,                 67P    113
-12.9191868574305,3.57916715999867,-7.28479387068026,                 67P    114
-13.0233098522834,2.78497808615254,-8.07898294452638,                 67P    115
-13.2159289957057,2.28185015380832,-8.42464568752464,                 67P    116
-13.3174662988653,1.17434761749386,-8.88526989361372,                 67P    117
-13.4604107074555,0.569642948403082,-9.,-13.5,                        67P    118
5.55111512312578D-16,-9.,-13.5,0.,0.683730132143167,0.,0.,0.;         67P    119
126,4,2,0,0,0,0,-2.52320601170379,-2.52320601170379,                  69P    120
-2.52320601170379,-1.62991500686146,-1.62991500686146,                69P    121
-0.736624002019128,-0.736624002019128,-0.736624002019128,1.,          69P    122
0.901901124242194,1.,0.901901124242194,1.,7.82623792124925,0.,        69P    123
11.,13.0944074202518,-1.60636163076764,7.25182291739437,              69P    124
13.4764154964767,-4.37244119436556,0.79763736517407,                  69P    125
13.8584235727017,-7.13852075796349,-5.65654818704623,                 69P    126
9.06917857360853,-9.00000013411045,-10.,-2.52320601170379,            69P    127
-0.736624002019128,0.,0.,0.;                                          69P    128
126,2,2,0,0,0,0,-2.1891829686809,-2.1891829686809,                    71P    129
-2.1891829686809,-0.952409684908896,-0.952409684908896,               71P    130
-0.952409684908896,1.,0.814814814814816,1.,-7.82623792124925,0.,      71P    131
11.,1.11022302462516D-15,0.,16.5681818181818,7.82623792124925,        71P    132
0.,11.,-2.1891829686809,-0.952409684908896,0.,0.,0.;                  71P    133
126,2,2,0,0,0,0,1.5707963267949,1.5707963267949,1.5707963267949,      73P    134
2.52320601170379,2.52320601170379,2.52320601170379,1.,                73P    135
0.888741055510529,1.,-13.5,-4.71428578453405,                         73P    136
-8.26636589424463D-16,-13.5,-1.73003425708595,6.96325346028501,       73P    137
-7.82623792124925,0.,11.,1.5707963267949,2.52320601170379,0.,0.,      73P    138
0.;                                                                   73P    139
126,8,2,0,1,0,0,-3.14159265358979,-3.14159265358979,                  75P    140
-3.14159265358979,-1.5707963267949,-1.5707963267949,0.,0.,            75P    141
1.5707963267949,1.5707963267949,3.14159265358979,                     75P    142
3.14159265358979,3.14159265358979,1.,0.707106781186548,1.,            75P    143
0.707106781186548,1.,0.707106781186548,1.,0.707106781186548,1.,       75P    144
-4.5,-4.5,-30.,-4.5,-9.,-30.,2.75545529808154D-16,-9.,-30.,4.5,       75P    145
-9.,-30.,4.5,-4.5,-30.,4.5,4.17338747408501D-16,-30.,                 75P    146
2.75545529808154D-16,5.55111512312578D-16,-30.,-4.5,                  75P    147
6.92884277216656D-16,-30.,-4.5,-4.5,-30.,-3.14159265358979,           75P    148
3.14159265358979,0.,0.,0.;                                            75P    149
126,1,1,0,0,1,0,-2.22222222222222,-2.22222222222222,                  77P    150
1.61601731969825,1.61601731969825,1.,1.,-4.5,-4.5,-30.,-4.5,          77P    151
-4.5,-12.7279220613579,-2.22222222222222,1.61601731969825,0.,0.,      77P    152
0.;                                                                   77P    153
126,8,2,0,1,0,0,-3.14159265358979,-3.14159265358979,                  79P    154
-3.14159265358979,-1.5707963267949,-1.5707963267949,0.,0.,            79P    155
1.5707963267949,1.5707963267949,3.14159265358979,                     79P    156
3.14159265358979,3.14159265358979,1.,0.707106781186548,1.,            79P    157
0.707106781186548,1.,0.707106781186548,1.,0.707106781186548,1.,       79P    158
-5.5,-4.5,-30.,-5.5,1.,-30.,3.36777869765522D-16,1.,-30.,5.5,1.,      79P    159
-30.,5.5,-4.5,-30.,5.5,-10.,-30.,3.36777869765522D-16,-10.,-30.,      79P    160
-5.5,-10.,-30.,-5.5,-4.5,-30.,-3.14159265358979,                      79P    161
3.14159265358979,0.,0.,0.;                                            79P    162
126,1,1,0,0,1,0,-1.81818181818182,-1.81818181818182,                  81P    163
0.904549236124233,0.904549236124233,1.,1.,-5.5,-4.5,-30.,-5.5,        81P    164
-4.5,-15.0249792013167,-1.81818181818182,0.904549236124233,0.,        81P    165
0.,0.;                                                                81P    166
126,33,3,0,1,1,1,0.,0.,0.,0.,0.209090178765808,                       83P    167
0.209090178765808,0.418180357531617,0.418180357531617,                83P    168
0.627160068257084,0.627160068257084,0.836139778982551,                83P    169
0.836139778982551,1.04511948970802,1.04511948970802,                  83P    170
1.25409920043348,1.25409920043348,1.46318937919929,                   83P    171
1.46318937919929,1.6722795579651,1.6722795579651,                     83P    172
1.88136973673091,1.88136973673091,2.09045991549672,                   83P    173
2.09045991549672,2.29943962622219,2.29943962622219,                   83P    174
2.50841933694765,2.50841933694765,2.71739904767312,                   83P    175
2.71739904767312,2.92637875839859,2.92637875839859,                   83P    176
3.13546893716439,3.13546893716439,3.3445591159302,                    83P    177
3.3445591159302,3.3445591159302,3.3445591159302,1.,1.,1.,1.,1.,       83P    178
1.,1.,1.,1.,1.,1.,1.,1.,1.,1.,1.,1.,1.,1.,1.,1.,1.,1.,1.,1.,1.,       83P    179
1.,1.,1.,1.,1.,1.,1.,1.,-5.5,-4.5,-15.0249792013167,-5.5,             83P    180
-5.19696726255269,-15.0249792013167,-5.35954120211291,                83P    181
-5.9360689285443,-15.0785749873696,-4.79658944468697,                 83P    182
-7.28921334429219,-15.2669849890947,-4.37435866701516,                83P    183
-7.90381592603686,-15.3985473767613,-3.4040723081283,                 83P    184
-8.87410228492372,-15.6416847685495,-2.78936831698496,                83P    185
-9.29653003673836,-15.7697671878868,-1.43584520736956,                83P    186
-9.85962921140323,-15.9500621097877,-0.696599035751556,-10.,          83P    187
-16.,0.696599035751556,-10.,-16.,1.43584520736956,                    83P    188
-9.85962921140323,-15.9500621097877,2.78936831698496,                 83P    189
-9.29653003673836,-15.7697671878868,3.4040723081283,                  83P    190
-8.87410228492372,-15.6416847685495,4.37435866701516,                 83P    191
-7.90381592603686,-15.3985473767613,4.79658944468697,                 83P    192
-7.28921334429219,-15.2669849890947,5.35954120211291,                 83P    193
-5.9360689285443,-15.0785749873696,5.5,-5.19696726255269,             83P    194
-15.0249792013167,5.5,-3.8030327374473,-15.0249792013167,             83P    195
5.35954120211291,-3.0639310714557,-15.0785749873696,                  83P    196
4.79658944468697,-1.7107866557078,-15.2669849890947,                  83P    197
4.37435866701516,-1.09618407396314,-15.3985473767613,                 83P    198
3.4040723081283,-0.125897715076277,-15.6416847685495,                 83P    199
2.78936831698496,0.296530036738359,-15.7697671878868,                 83P    200
1.43584520736956,0.859629211403231,-15.9500621097877,                 83P    201
0.696599035751556,1.,-16.,-0.696599035751557,1.,-16.,                 83P    202
-1.43584520736956,0.85962921140323,-15.9500621097877,                 83P    203
-2.78936831698496,0.296530036738359,-15.7697671878868,                83P    204
-3.4040723081283,-0.125897715076277,-15.6416847685495,                83P    205
-4.37435866701516,-1.09618407396314,-15.3985473767613,                83P    206
-4.79658944468697,-1.7107866557078,-15.2669849890947,                 83P    207
-5.35954120211291,-3.0639310714557,-15.0785749873696,-5.5,            83P    208
-3.8030327374473,-15.0249792013167,-5.5,-4.5,-15.0249792013167,       83P    209
0.,3.3445591159302,0.,0.,0.;                                          83P    210
126,8,2,0,1,0,0,-3.14159265358979,-3.14159265358979,                  85P    211
-3.14159265358979,-1.5707963267949,-1.5707963267949,0.,0.,            85P    212
1.5707963267949,1.5707963267949,3.14159265358979,                     85P    213
3.14159265358979,3.14159265358979,1.,0.707106781186548,1.,            85P    214
0.707106781186548,1.,0.707106781186548,1.,0.707106781186548,1.,       85P    215
-16.,-12.,-1.95943487863577D-15,-16.,-12.,-16.,                       85P    216
9.79717439317883D-16,-12.,-16.,16.,-12.,-16.,16.,-12.,0.,16.,         85P    217
-12.,16.,9.79717439317883D-16,-12.,16.,-16.,-12.,16.,-16.,-12.,       85P    218
1.95943487863577D-15,-3.14159265358979,3.14159265358979,0.,0.,        85P    219
0.;                                                                   85P    220
126,8,2,0,1,0,0,-3.14159265358979,-3.14159265358979,                  87P    221
-3.14159265358979,-1.5707963267949,-1.5707963267949,0.,0.,            87P    222
1.5707963267949,1.5707963267949,3.14159265358979,                     87P    223
3.14159265358979,3.14159265358979,1.,0.707106781186548,1.,            87P    224
0.707106781186548,1.,0.707106781186548,1.,0.707106781186548,1.,       87P    225
-16.,10.,1.95943487863577D-15,-16.,10.,16.,9.79717439317883D-16,      87P    226
10.,16.,16.,10.,16.,16.,10.,0.,16.,10.,-16.,                          87P    227
9.79717439317883D-16,10.,-16.,-16.,10.,-16.,-16.,10.,                 87P    228
-1.95943487863577D-15,-3.14159265358979,3.14159265358979,0.,0.,       87P    229
0.;                                                                   87P    230
126,1,1,0,0,1,0,-0.782623792124925,-0.782623792124925,                89P    231
0.782623792124925,0.782623792124925,1.,1.,7.82623792124925,0.,        89P    232
11.,-7.82623792124925,0.,11.,-0.782623792124925,                      89P    233
0.782623792124925,0.,0.,0.;                                           89P    234
126,1,1,0,0,1,0,-0.625,-0.625,0.75,0.75,1.,1.,-16.,10.,0.,-16.,       91P    235
-12.,0.,-0.625,0.75,0.,0.,0.;                                         91P    236
128,1,1,1,1,0,0,1,0,0,0.999,0.999,1.351,1.351,                        93P    237
-0.907917857360853,-0.907917857360853,0.907917857360853,              93P    238
0.907917857360853,1.,1.,1.,1.,-9.07917857360853,                      93P    239
-9.00000013411045,-13.51,-9.07917857360853,-9.00000013411045,         93P    240
-9.99,9.07917857360853,-9.00000013411045,-13.51,                      93P    241
9.07917857360853,-9.00000013411045,-9.99,0.999,1.351,                 93P    242
-0.907917857360853,0.907917857360853;                                 93P    243
128,1,8,1,2,0,1,0,0,1,-0.666666676600774,-0.666666676600774,          95P    244
0.740740740740741,0.740740740740741,-3.14159265358979,                95P    245
-3.14159265358979,-3.14159265358979,-1.5707963267949,                 95P    246
-1.5707963267949,0.,0.,1.5707963267949,1.5707963267949,               95P    247
3.14159265358979,3.14159265358979,3.14159265358979,1.,1.,             95P    248
0.707106781186548,0.707106781186548,1.,1.,0.707106781186548,          95P    249
0.707106781186548,1.,1.,0.707106781186548,0.707106781186548,1.,       95P    250
1.,0.707106781186548,0.707106781186548,1.,1.,-13.5,                   95P    251
-9.00000013411045,0.,-13.5,10.,0.,-13.5,-9.00000013411045,13.5,       95P    252
-13.5,10.,13.5,0.,-9.00000013411045,13.5,0.,10.,13.5,13.5,            95P    253
-9.00000013411045,13.5,13.5,10.,13.5,13.5,-9.00000013411045,0.,       95P    254
13.5,10.,0.,13.5,-9.00000013411045,-13.5,13.5,10.,-13.5,0.,           95P    255
-9.00000013411045,-13.5,0.,10.,-13.5,-13.5,-9.00000013411045,         95P    256
-13.5,-13.5,10.,-13.5,-13.5,-9.00000013411045,0.,-13.5,10.,0.,        95P    257
-0.666666676600774,0.740740740740741,-3.14159265358979,               95P    258
3.14159265358979;                                                     95P    259
128,1,8,1,2,0,1,0,0,1,-1.61601731969825,-1.61601731969825,            97P    260
2.22222222222222,2.22222222222222,-3.14159265358979,                  97P    261
-3.14159265358979,-3.14159265358979,-1.5707963267949,                 97P    262
-1.5707963267949,0.,0.,1.5707963267949,1.5707963267949,               97P    263
3.14159265358979,3.14159265358979,3.14159265358979,1.,1.,             97P    264
0.707106781186548,0.707106781186548,1.,1.,0.707106781186548,          97P    265
0.707106781186548,1.,1.,0.707106781186548,0.707106781186548,1.,       97P    266
1.,0.707106781186548,0.707106781186548,1.,1.,-4.5,-4.5,               97P    267
-12.7279220613579,-4.5,-4.5,-30.,-4.5,-5.55111512312578D-16,          97P    268
-12.7279220613579,-4.5,-5.55111512312578D-16,-30.,0.,                 97P    269
5.55111512312578D-16,-12.7279220613579,0.,5.55111512312578D-16,       97P    270
-30.,4.5,-5.55111512312578D-16,-12.7279220613579,4.5,                 97P    271
-5.55111512312578D-16,-30.,4.5,-4.5,-12.7279220613579,4.5,-4.5,       97P    272
-30.,4.5,-9.,-12.7279220613579,4.5,-9.,-30.,0.,-9.,                   97P    273
-12.7279220613579,0.,-9.,-30.,-4.5,-9.,-12.7279220613579,-4.5,        97P    274
-9.,-30.,-4.5,-4.5,-12.7279220613579,-4.5,-4.5,-30.,                  97P    275
-1.61601731969825,2.22222222222222,-3.14159265358979,                 97P    276
3.14159265358979;                                                     97P    277
128,1,8,1,2,0,1,0,0,1,-0.904549236124233,-0.904549236124233,          99P    278
1.81818181818182,1.81818181818182,-3.14159265358979,                  99P    279
-3.14159265358979,-3.14159265358979,-1.5707963267949,                 99P    280
-1.5707963267949,0.,0.,1.5707963267949,1.5707963267949,               99P    281
3.14159265358979,3.14159265358979,3.14159265358979,1.,1.,             99P    282
0.707106781186548,0.707106781186548,1.,1.,0.707106781186548,          99P    283
0.707106781186548,1.,1.,0.707106781186548,0.707106781186548,1.,       99P    284
1.,0.707106781186548,0.707106781186548,1.,1.,-5.5,-4.5,-30.,          99P    285
-5.5,-4.5,-15.0249792013167,-5.5,1.,-30.,-5.5,1.,                     99P    286
-15.0249792013167,0.,1.,-30.,0.,1.,-15.0249792013167,5.5,1.,          99P    287
-30.,5.5,1.,-15.0249792013167,5.5,-4.5,-30.,5.5,-4.5,                 99P    288
-15.0249792013167,5.5,-10.,-30.,5.5,-10.,-15.0249792013167,0.,        99P    289
-10.,-30.,0.,-10.,-15.0249792013167,-5.5,-10.,-30.,-5.5,-10.,         99P    290
-15.0249792013167,-5.5,-4.5,-30.,-5.5,-4.5,-15.0249792013167,         99P    291
-0.904549236124233,1.81818181818182,-3.14159265358979,                99P    292
3.14159265358979;                                                     99P    293
128,1,1,1,1,0,0,1,0,0,-0.551,-0.551,0.551,0.551,-0.551,-0.551,       101P    294
0.551,0.551,1.,1.,1.,1.,5.51,-10.01,-30.,-5.51,-10.01,-30.,5.51,     101P    295
1.01,-30.,-5.51,1.01,-30.,-0.551,0.551,-0.551,0.551;                 101P    296
128,1,1,1,1,0,0,1,0,0,-1.601,-1.601,1.601,1.601,-1.601,-1.601,       103P    297
1.601,1.601,1.,1.,1.,1.,16.01,-12.,16.01,-16.01,-12.,16.01,          103P    298
16.01,-12.,-16.01,-16.01,-12.,-16.01,-1.601,1.601,-1.601,1.601;      103P    299
128,1,1,1,1,0,0,1,0,0,-1.601,-1.601,1.601,1.601,-1.601,-1.601,       105P    300
1.601,1.601,1.,1.,1.,1.,-16.01,10.,16.01,16.01,10.,16.01,-16.01,     105P    301
10.,-16.01,16.01,10.,-16.01,-1.601,1.601,-1.601,1.601;               105P    302
128,1,1,1,1,0,0,1,0,0,-0.001,-0.001,0.557818181818179,               107P    303
0.557818181818179,-0.783623792124925,-0.783623792124925,             107P    304
0.783623792124925,0.783623792124925,1.,1.,1.,1.,                     107P    305
-7.83623792124925,0.,10.99,-7.83623792124925,0.,                     107P    306
16.5781818181818,7.83623792124925,0.,10.99,7.83623792124925,0.,      107P    307
16.5781818181818,-0.001,0.557818181818179,-0.783623792124925,        107P    308
0.783623792124925;                                                   107P    309
128,1,8,1,2,0,1,0,0,1,-0.625,-0.625,0.75,0.75,-3.14159265358979,     109P    310
-3.14159265358979,-3.14159265358979,-1.5707963267949,                109P    311
-1.5707963267949,0.,0.,1.5707963267949,1.5707963267949,              109P    312
3.14159265358979,3.14159265358979,3.14159265358979,1.,1.,            109P    313
0.707106781186548,0.707106781186548,1.,1.,0.707106781186548,         109P    314
0.707106781186548,1.,1.,0.707106781186548,0.707106781186548,1.,      109P    315
1.,0.707106781186548,0.707106781186548,1.,1.,-16.,-12.,0.,-16.,      109P    316
10.,0.,-16.,-12.,-16.,-16.,10.,-16.,0.,-12.,-16.,0.,10.,-16.,        109P    317
16.,-12.,-16.,16.,10.,-16.,16.,-12.,0.,16.,10.,0.,16.,-12.,16.,      109P    318
16.,10.,16.,0.,-12.,16.,0.,10.,16.,-16.,-12.,16.,-16.,10.,16.,       109P    319
-16.,-12.,0.,-16.,10.,0.,-0.625,0.75,-3.14159265358979,              109P    320
3.14159265358979;                                                    109P    321
128,1,1,1,1,0,0,1,0,0,-0.001,-0.001,2.28573193704204,                111P    322
2.28573193704204,-1.351,-1.351,1.38684235727017,                     111P    323
1.38684235727017,1.,1.,1.,1.,-13.51,-9.00393932714583,               111P    324
-10.0091914502789,-13.51,0.00393919303538159,11.0091914502789,       111P    325
13.8684235727017,-9.00393932714583,-10.0091914502789,                111P    326
13.8684235727017,0.00393919303538159,11.0091914502789,-0.001,        111P    327
2.28573193704204,-1.351,1.38684235727017;                            111P    328
502,14,-9.06917857360853,-9.00000013411045,-10.,                     113P    329
9.06917857360853,-9.00000013411045,-10.,0.,-9.00000013411045,        113P    330
-13.5,-13.5,10.,1.65327317884893D-15,-13.5,-4.71428578453405,        113P    331
1.0049432653761D-16,-4.5,-4.5,-12.7279220613579,4.5,-4.5,            113P    332
-12.7279220613579,7.82623792124925,0.,11.,-7.82623792124925,0.,      113P    333
11.,-4.5,-4.5,-30.,-5.5,-4.5,-30.,-5.5,-4.5,-15.0249792013167,       113P    334
-16.,-12.,1.95943487863577D-15,-16.,10.,1.95943487863577D-15;        113P    335
504,21,51,113,1,113,2,53,113,3,113,2,55,113,1,113,3,57,113,4,        115P    336
113,4,59,113,4,113,5,61,113,1,113,5,63,113,3,113,6,65,113,6,113,     115P    337
7,67,113,7,113,3,69,113,8,113,2,71,113,9,113,8,73,113,5,113,9,       115P    338
75,113,10,113,10,77,113,10,113,6,79,113,11,113,11,81,113,11,113,     115P    339
12,83,113,12,113,12,85,113,13,113,13,87,113,14,113,14,89,113,8,      115P    340
113,9,91,113,14,113,13;                                              115P    341
406,1,5HBody3;                                                       117P    342
314,62.7450980392157,62.7450980392157,62.7450980392157,13HSteel      119P    343
- Satin;                                                             119P    344
S      1G      3D    120P    344                                        T      1
