0
SECTION
2
HEADER
9
$INSUNITS
70
4
9
$ACADVER
1
AC1014
9
$HANDSEED
5
FFFF
0
ENDSEC
0
SECTION
2
TABLES
0
TABLE
2
VPORT
5
8
100
AcDbSymbolTable
0
ENDTAB
0
TABLE
2
LTYPE
5
5
100
AcDbSymbolTable
0
LTYPE
5
14
100
AcDbSymbolTableRecord
100
AcDbLinetypeTableRecord
2
BYBLOCK
70
0
0
LTYPE
5
15
100
AcDbSymbolTableRecord
100
AcDbLinetypeTableRecord
2
BYLAYER
70
0
0
LTYPE
5
16
100
AcDbSymbolTableRecord
100
AcDbLinetypeTableRecord
2
DASHED
70
0
3
Dashed __ __ __ __ __ __ __ __ __ __ __ __ __ _
72
65
73
2
40
0.75
49
0.5
74
0
49
-0.25
74
0
0
ENDTAB
0
TABLE
2
LAYER
5
2
100
AcDbSymbolTable
70
2
0
LAYER
5
50
100
AcDbSymbolTableRecord
100
AcDbLayerTableRecord
2
0
70
0
62
7
6
CONTINUOUS
0
ENDTAB
0
TABLE
2
STYLE
5
3
100
AcDbSymbolTable
70
1
0
STYLE
5
11
100
AcDbSymbolTableRecord
100
AcDbTextStyleTableRecord
2
STANDARD
70
0
0
ENDTAB
0
TABLE
2
VIEW
5
6
100
AcDbSymbolTable
70
0
0
ENDTAB
0
TABLE
2
UCS
5
7
100
AcDbSymbolTable
70
0
0
ENDTAB
0
TABLE
2
APPID
5
9
100
AcDbSymbolTable
70
2
0
APPID
5
12
100
AcDbSymbolTableRecord
100
AcDbRegAppTableRecord
2
ACAD
70
0
0
ENDTAB
0
TABLE
2
DIMSTYLE
5
A
100
AcDbSymbolTable
70
1
0
ENDTAB
0
TABLE
2
BLOCK_RECORD
5
1
100
AcDbSymbolTable
70
1
0
BLOCK_RECORD
5
1F
100
AcDbSymbolTableRecord
100
AcDbBlockTableRecord
2
*MODEL_SPACE
0
BLOCK_RECORD
5
1B
100
AcDbSymbolTableRecord
100
AcDbBlockTableRecord
2
*PAPER_SPACE
0
ENDTAB
0
ENDSEC
0
SECTION
2
BLOCKS
0
BLOCK
5
20
100
AcDbEntity
100
AcDbBlockBegin
2
*MODEL_SPACE
0
ENDBLK
5
21
100
AcDbEntity
100
AcDbBlockEnd
0
BLOCK
5
1C
100
AcDbEntity
100
AcDbBlockBegin
2
*PAPER_SPACE
0
ENDBLK
5
1D
100
AcDbEntity
100
AcDbBlockEnd
0
ENDSEC
0
SECTION
2
ENTITIES
0
LWPOLYLINE
5
100
100
AcDbEntity
8
0
100
AcDbPolyline
90
6
70
1
43
0.0
10
-38.202565051528815
20
-66.168783648703155
10
-76.405130103057814
20
6.2172489379008766e-14
10
-38.202565051528893
20
66.168783648703268
10
38.202565051528943
20
66.168783648703297
10
76.405130103057658
20
-2.6645352591003757e-14
10
38.202565051528779
20
-66.16878364870314
0
LWPOLYLINE
5
101
100
AcDbEntity
8
0
100
AcDbPolyline
90
6
70
1
43
0.0
10
-83.333333333333314
20
6.2172489379008766e-14
10
-41.666666666666579
20
-72.168783648703126
10
41.666666666666529
20
-72.168783648703126
10
83.333333333333158
20
-4.4408920985006262e-14
10
41.666666666666714
20
72.168783648703311
10
-41.666666666666643
20
72.168783648703268
0
LINE
5
102
100
AcDbEntity
8
0
100
AcDbLine
10
41.666666666666529
20
-72.168783648703126
30
0
11
83.333333333333158
21
-4.4408920985006262e-14
31
0
0
LINE
5
103
100
AcDbEntity
8
0
100
AcDbLine
10
41.666666666666714
20
72.168783648703311
30
0
11
83.333333333333158
21
-4.4408920985006262e-14
31
0
0
LINE
5
104
100
AcDbEntity
8
0
100
AcDbLine
10
41.666666666666714
20
72.168783648703311
30
0
11
-41.666666666666643
21
72.168783648703268
31
0
0
LINE
5
105
100
AcDbEntity
8
0
100
AcDbLine
10
-41.666666666666643
20
72.168783648703268
30
0
11
-83.333333333333314
21
6.2172489379008766e-14
31
0
0
LINE
5
106
100
AcDbEntity
8
0
100
AcDbLine
10
-83.333333333333314
20
6.2172489379008766e-14
30
0
11
-41.666666666666579
21
-72.168783648703126
31
0
0
LINE
5
107
100
AcDbEntity
8
0
100
AcDbLine
10
-41.666666666666579
20
-72.168783648703126
30
0
11
41.666666666666529
21
-72.168783648703126
31
0
0
LINE
5
108
100
AcDbEntity
8
0
100
AcDbLine
10
-41.666666666666643
20
72.168783648703268
30
0
11
-83.333333333333314
21
6.2172489379008766e-14
31
0
0
LWPOLYLINE
5
109
100
AcDbEntity
8
0
100
AcDbPolyline
90
6
70
1
43
0.0
10
-41.089316397476956
20
-71.16878364870314
10
41.089316397476907
20
-71.16878364870314
10
82.178632794953913
20
-2.6645352591003757e-14
10
41.089316397477084
20
71.168783648703311
10
-41.089316397477027
20
71.168783648703268
10
-82.178632794954069
20
6.2172489379008766e-14
0
LWPOLYLINE
5
110
100
AcDbEntity
8
0
100
AcDbPolyline
90
6
70
1
43
0.0
10
40.281026020611606
20
69.768783648703305
10
-40.281026020611534
20
69.768783648703263
10
-80.562052041223126
20
5.3290705182007514e-14
10
-40.281026020611478
20
-69.768783648703135
10
40.281026020611407
20
-69.768783648703135
10
80.562052041222955
20
-4.4408920985006262e-14
0
ENDSEC
0
SECTION
2
OBJECTS
0
DICTIONARY
5
C
100
AcDbDictionary
3
ACAD_GROUP
350
D
3
ACAD_MLINESTYLE
350
17
0
DICTIONARY
5
D
100
AcDbDictionary
0
DICTIONARY
5
1A
330
C
100
AcDbDictionary
0
DICTIONARY
5
17
100
AcDbDictionary
0
ENDSEC
0
EOF
