                                                                        S      1
,,10HLid Popper,10HLid Popper,7Hunknown,7Hunknown,32,38,7,99,15,,1.,2,2HG      1
MM,1,0.08,15H20250912.001435,0.01,10000.,7Hunknown,7Hunknown,11,0,;     G      2
     186       1                                                00000000D      1
     186             -71       1       0                               0D      2
     514       2                                                00010000D      3
     514                       1       1                               0D      4
     510       3                                                00010000D      5
     510             -71       1       1                               0D      6
     510       4                                                00010000D      7
     510             -71       1       1                               0D      8
     510       5                                                00010000D      9
     510             -71       1       1                               0D     10
     510       6                                                00010000D     11
     510             -71       1       1                               0D     12
     510       7                                                00010000D     13
     510             -71       1       1                               0D     14
     510       8                                                00010000D     15
     510             -71       1       1                               0D     16
     508       9                                                00010000D     17
     508                       1       1                               0D     18
     508      10                                                00010000D     19
     508                       1       1                               0D     20
     508      11                                                00010000D     21
     508                       1       1                               0D     22
     508      12                                                00010000D     23
     508                       1       1                               0D     24
     508      13                                                00010000D     25
     508                       1       1                               0D     26
     508      14                                                00010000D     27
     508                       1       1                               0D     28
     126      15                                                00010000D     29
     126       0              10       0                               0D     30
     126      25                                                00010000D     31
     126       0               3       0                               0D     32
     126      28                                                00010000D     33
     126       0              10       0                               0D     34
     126      38                                                00010000D     35
     126       0               3       0                               0D     36
     126      41                                                00010000D     37
     126       0               7       0                               0D     38
     126      48                                                00010000D     39
     126       0               7       0                               0D     40
     126      55                                                00010000D     41
     126       0               3       0                               0D     42
     126      58                                                00010000D     43
     126       0              10       0                               0D     44
     126      68                                                00010000D     45
     126       0              10       0                               0D     46
     126      78                                                00010000D     47
     126       0               3       0                               0D     48
     126      81                                                00010000D     49
     126       0               7       0                               0D     50
     126      88                                                00010000D     51
     126       0               7       0                               0D     52
     128      95                                                00010000D     53
     128       0     -71      16       0                               0D     54
     128     111                                                00010000D     55
     128       0     -71      12       0                               0D     56
     128     123                                                00010000D     57
     128       0     -71      16       0                               0D     58
     128     139                                                00010000D     59
     128       0     -71      12       0                               0D     60
     128     151                                                00010000D     61
     128       0     -71       7       0                               0D     62
     128     158                                                00010000D     63
     128       0     -71       7       0                               0D     64
     502     165                                                00010000D     65
     502                       6       1                               0D     66
     504     171                                                00010001D     67
     504                       3       1                               0D     68
     406     174                                                00000000D     69
     406                       1      15                               0D     70
     314     175                                                00000200D     71
     314                       2       0                               0D     72
186,3,1,0,0,1,69;                                                      1P      1
514,6,5,1,7,1,9,1,11,1,13,1,15,1;                                      3P      2
510,53,1,1,17;                                                         5P      3
510,55,1,1,19;                                                         7P      4
510,57,1,1,21;                                                         9P      5
510,59,1,1,23;                                                        11P      6
510,61,1,1,25;                                                        13P      7
510,63,1,1,27;                                                        15P      8
508,4,0,67,1,0,0,0,67,2,1,0,0,67,3,0,0,0,67,4,0,0;                    17P      9
508,4,0,67,5,1,0,0,67,4,1,0,0,67,6,0,0,0,67,7,0,0;                    19P     10
508,4,0,67,8,1,0,0,67,7,1,0,0,67,9,0,0,0,67,10,0,0;                   21P     11
508,4,0,67,11,1,0,0,67,10,1,0,0,67,12,0,0,0,67,2,0,0;                 23P     12
508,4,0,67,12,1,0,0,67,9,1,0,0,67,6,1,0,0,67,3,1,0;                   25P     13
508,4,0,67,11,0,0,0,67,1,1,0,0,67,5,0,0,0,67,8,0,0;                   27P     14
126,6,2,0,0,0,0,0.872664625997164,0.872664625997164,                  29P     15
0.872664625997164,2.38528331105892,2.38528331105892,                  29P     16
3.89790199612067,3.89790199612067,5.41052068118242,                   29P     17
5.41052068118242,5.41052068118242,1.,0.727373641573047,1.,            29P     18
0.727373641573049,1.,0.727373641573049,1.,0.,22.8557521937308,        29P     19
100.32088886238,0.,8.40123904449634,112.449665514749,0.,              29P     20
-4.54747283146097,98.7248327573747,0.,-17.4961847074183,85.,0.,       29P     21
-4.54747283146098,71.2751672426253,0.,8.40123904449632,               29P     22
57.5503344852507,0.,22.8557521937308,69.6791111376204,                29P     23
0.872664625997164,5.41052068118242,0.,0.,0.;                          29P     24
126,1,1,0,0,1,0,0.,0.,1.,1.,1.,1.,0.,22.8557521937308,                31P     25
100.32088886238,10.,22.8557521937308,100.32088886238,0.,1.,0.,        31P     26
0.,0.;                                                                31P     27
126,6,2,0,0,0,0,-5.41052068118242,-5.41052068118242,                  33P     28
-5.41052068118242,-3.89790199612067,-3.89790199612067,                33P     29
-2.38528331105892,-2.38528331105892,-0.872664625997164,               33P     30
-0.872664625997164,-0.872664625997164,1.,0.727373641573049,1.,        33P     31
0.727373641573049,1.,0.727373641573047,1.,10.,22.8557521937308,       33P     32
69.6791111376204,10.,8.40123904449632,57.5503344852507,10.,           33P     33
-4.54747283146098,71.2751672426253,10.,-17.4961847074183,85.,         33P     34
10.,-4.54747283146097,98.7248327573747,10.,8.40123904449634,          33P     35
112.449665514749,10.,22.8557521937308,100.32088886238,                33P     36
-5.41052068118242,-0.872664625997164,0.,0.,0.;                        33P     37
126,1,1,0,0,1,0,0.,0.,1.,1.,1.,1.,0.,22.8557522108532,                35P     38
69.6791111519879,10.,22.8557522108532,69.6791111519879,0.,1.,0.,      35P     39
0.,0.;                                                                35P     40
126,4,2,0,0,0,0,0.,0.,0.,1.57079631934432,1.57079631934432,           37P     41
3.14159263868863,3.14159263868863,3.14159263868863,1.,                37P     42
0.707106783820725,1.,0.707106783820733,1.,0.,24.7841150227904,        37P     43
67.3809778082635,0.,25.9331816789077,68.3451592156096,0.,             37P     44
24.9690002801228,69.4942258789106,0.,24.0048188813379,                37P     45
70.6432925422115,0.,22.8557522108532,69.6791111519879,0.,             37P     46
3.14159263868863,0.,0.,0.;                                            37P     47
126,4,2,0,0,0,0,0.,0.,0.,1.57079631934432,1.57079631934432,           39P     48
3.14159263868863,3.14159263868863,3.14159263868863,1.,                39P     49
0.707106783820725,1.,0.707106783820733,1.,10.,24.7841150227904,       39P     50
67.3809778082635,10.,25.9331816789077,68.3451592156096,10.,           39P     51
24.9690002801228,69.4942258789106,10.,24.0048188813379,               39P     52
70.6432925422115,10.,22.8557522108532,69.6791111519879,0.,            39P     53
3.14159263868863,0.,0.,0.;                                            39P     54
126,1,1,0,0,1,0,0.,0.,1.,1.,1.,1.,0.,24.7841150227904,                41P     55
67.3809778082635,10.,24.7841150227904,67.3809778082635,0.,1.,0.,      41P     56
0.,0.;                                                                41P     57
126,6,2,0,0,0,0,0.872664625997163,0.872664625997163,                  43P     58
0.872664625997163,2.38528331105892,2.38528331105892,                  43P     59
3.89790199612067,3.89790199612067,5.41052068118242,                   43P     60
5.41052068118242,5.41052068118242,1.,0.727373641573048,1.,            43P     61
0.727373641573049,1.,0.727373641573048,1.,0.,24.7841150227904,        43P     62
102.619022191736,0.,8.16142490117081,116.567115341962,0.,             43P     63
-6.7295937561801,100.783557670981,0.,-21.620612413531,85.,0.,         43P     64
-6.72959375618012,69.2164423290191,0.,8.16142490117076,               43P     65
53.4328846580382,0.,24.7841150227904,67.3809778082635,                43P     66
0.872664625997163,5.41052068118242,0.,0.,0.;                          43P     67
126,6,2,0,0,0,0,0.872664625997163,0.872664625997163,                  45P     68
0.872664625997163,2.38528331105892,2.38528331105892,                  45P     69
3.89790199612067,3.89790199612067,5.41052068118242,                   45P     70
5.41052068118242,5.41052068118242,1.,0.727373641573048,1.,            45P     71
0.727373641573049,1.,0.727373641573048,1.,10.,24.7841150227904,       45P     72
102.619022191736,10.,8.16142490117081,116.567115341962,10.,           45P     73
-6.7295937561801,100.783557670981,10.,-21.620612413531,85.,10.,       45P     74
-6.72959375618012,69.2164423290191,10.,8.16142490117076,              45P     75
53.4328846580382,10.,24.7841150227904,67.3809778082635,               45P     76
0.872664625997163,5.41052068118242,0.,0.,0.;                          45P     77
126,1,1,0,0,1,0,0.,0.,1.,1.,1.,1.,0.,24.7841150227904,                47P     78
102.619022191736,10.,24.7841150227904,102.619022191736,0.,1.,0.,      47P     79
0.,0.;                                                                47P     80
126,4,2,0,0,0,0,0.,0.,0.,1.5707963267949,1.5707963267949,             49P     81
3.14159265358979,3.14159265358979,3.14159265358979,1.,                49P     82
0.707106781186558,1.,0.707106781186537,1.,0.,22.8557521937308,        49P     83
100.32088886238,0.,24.0048188584092,99.3567074478497,0.,              49P     84
24.969000272939,100.505774112528,0.,25.9331816874688,                 49P     85
101.654840777207,0.,24.7841150227904,102.619022191736,0.,             49P     86
3.14159265358979,0.,0.,0.;                                            49P     87
126,4,2,0,0,0,0,0.,0.,0.,1.5707963267949,1.5707963267949,             51P     88
3.14159265358979,3.14159265358979,3.14159265358979,1.,                51P     89
0.707106781186558,1.,0.707106781186537,1.,10.,22.8557521937308,       51P     90
100.32088886238,10.,24.0048188584092,99.3567074478497,10.,            51P     91
24.969000272939,100.505774112528,10.,25.9331816874688,                51P     92
101.654840777207,10.,24.7841150227904,102.619022191736,0.,            51P     93
3.14159265358979,0.,0.,0.;                                            51P     94
128,1,6,1,2,0,0,0,0,0,0.,0.,0.5,0.5,0.872664625997164,                53P     95
0.872664625997164,0.872664625997164,2.38528331143145,                 53P     96
2.38528331143145,3.89790199686573,3.89790199686573,                   53P     97
5.41052068230001,5.41052068230001,5.41052068230001,1.,1.,             53P     98
0.727373641445226,0.727373641445226,1.,1.,0.727373641445226,          53P     99
0.727373641445226,1.,1.,0.727373641445226,0.727373641445226,1.,       53P    100
1.,0.,22.8557521937308,100.32088886238,10.,22.8557521937308,          53P    101
100.32088886238,0.,8.4012390391025,112.449665519275,10.,              53P    102
8.4012390391025,112.449665519275,0.,-4.54747283657386,                53P    103
98.7248327519553,10.,-4.54747283657386,98.7248327519553,0.,           53P    104
-17.4961847122502,84.9999999846353,10.,-17.4961847122502,             53P    105
84.9999999846353,0.,-4.54747282123518,71.2751672317866,10.,           53P    106
-4.54747282123518,71.2751672317866,0.,8.40123906977985,               53P    107
57.5503344789379,10.,8.40123906977985,57.5503344789379,0.,            53P    108
22.8557522108532,69.6791111519879,10.,22.8557522108532,               53P    109
69.6791111519879,0.,0.5,0.872664625997164,5.41052068230001;           53P    110
128,1,4,1,2,0,0,0,0,0,0.,0.,6.66666666666667,6.66666666666667,        55P    111
0.,0.,0.,1.57079631934432,1.57079631934432,3.14159263868863,          55P    112
3.14159263868863,3.14159263868863,1.,1.,0.707106783820726,            55P    113
0.707106783820726,1.,1.,0.707106783820726,0.707106783820726,1.,       55P    114
1.,10.,24.7841150227904,67.3809778082635,0.,24.7841150227904,         55P    115
67.3809778082635,10.,25.9331816789077,68.3451592156096,0.,            55P    116
25.9331816789077,68.3451592156096,10.,24.9690002801228,               55P    117
69.4942258789106,0.,24.9690002801228,69.4942258789106,10.,            55P    118
24.0048188813379,70.6432925422115,0.,24.0048188813379,                55P    119
70.6432925422115,10.,22.8557522108532,69.6791111519879,0.,            55P    120
22.8557522108532,69.6791111519879,0.,6.66666666666667,0.,             55P    121
3.14159263868863;                                                     55P    122
128,1,6,1,2,0,0,0,0,0,0.,0.,0.434782608695652,0.434782608695652,      57P    123
0.872664625997163,0.872664625997163,0.872664625997163,                57P    124
2.38528331105892,2.38528331105892,3.89790199612067,                   57P    125
3.89790199612067,5.41052068118242,5.41052068118242,                   57P    126
5.41052068118242,1.,1.,0.727373641573049,0.727373641573049,1.,        57P    127
1.,0.727373641573049,0.727373641573049,1.,1.,0.727373641573049,       57P    128
0.727373641573049,1.,1.,10.,24.7841150227904,102.619022191736,        57P    129
0.,24.7841150227904,102.619022191736,10.,8.16142490117081,            57P    130
116.567115341962,0.,8.16142490117081,116.567115341962,10.,            57P    131
-6.7295937561801,100.783557670981,0.,-6.7295937561801,                57P    132
100.783557670981,10.,-21.620612413531,85.,0.,-21.620612413531,        57P    133
85.,10.,-6.72959375618012,69.2164423290191,0.,-6.72959375618012,      57P    134
69.2164423290191,10.,8.16142490117078,53.4328846580382,0.,            57P    135
8.16142490117078,53.4328846580382,10.,24.7841150227904,               57P    136
67.3809778082635,0.,24.7841150227904,67.3809778082635,0.,             57P    137
0.434782608695652,0.872664625997163,5.41052068118242;                 57P    138
128,1,4,1,2,0,0,0,0,0,0.,0.,6.66666666666678,6.66666666666678,        59P    139
0.,0.,0.,1.5707963267949,1.5707963267949,3.14159265358979,            59P    140
3.14159265358979,3.14159265358979,1.,1.,0.707106781186548,            59P    141
0.707106781186548,1.,1.,0.707106781186548,0.707106781186548,1.,       59P    142
1.,10.,22.8557521937308,100.32088886238,0.,22.8557521937308,          59P    143
100.32088886238,10.,24.0048188584092,99.3567074478497,0.,             59P    144
24.0048188584092,99.3567074478497,10.,24.969000272939,                59P    145
100.505774112528,0.,24.969000272939,100.505774112528,10.,             59P    146
25.9331816874688,101.654840777207,0.,25.9331816874688,                59P    147
101.654840777207,10.,24.7841150227904,102.619022191736,0.,            59P    148
24.7841150227904,102.619022191736,0.,6.66666666666678,0.,             59P    149
3.14159265358979;                                                     59P    150
128,1,1,1,1,0,0,1,0,0,-2.77905792176613,-2.77905792176613,            61P    151
1.97832148833385,1.97832148833385,-3.15771153419617,                  61P    152
-3.15771153419617,3.15771153419617,3.15771153419617,1.,1.,1.,1.,      61P    153
10.,-21.630612413531,53.4228846580383,10.,25.9431816874688,           61P    154
53.4228846580383,10.,-21.630612413531,116.577115341962,10.,           61P    155
25.9431816874688,116.577115341962,-2.77905792176613,                  61P    156
1.97832148833385,-3.15771153419617,3.15771153419617;                  61P    157
128,1,1,1,1,0,0,1,0,0,-2.77905792176613,-2.77905792176613,            63P    158
1.97832148833385,1.97832148833385,-3.15771153419617,                  63P    159
-3.15771153419617,3.15771153419617,3.15771153419617,1.,1.,1.,1.,      63P    160
0.,25.9431816874688,53.4228846580383,0.,-21.630612413531,             63P    161
53.4228846580383,0.,25.9431816874688,116.577115341962,0.,             63P    162
-21.630612413531,116.577115341962,-2.77905792176613,                  63P    163
1.97832148833385,-3.15771153419617,3.15771153419617;                  63P    164
502,8,0.,22.8557521937308,100.32088886238,0.,22.8557522108532,        65P    165
69.6791111519879,10.,22.8557521937308,100.32088886238,10.,            65P    166
22.8557522108532,69.6791111519879,0.,24.7841150227904,                65P    167
67.3809778082635,10.,24.7841150227904,67.3809778082635,0.,            65P    168
24.7841150227904,102.619022191736,10.,24.7841150227904,               65P    169
102.619022191736;                                                     65P    170
504,12,29,65,1,65,2,31,65,1,65,3,33,65,4,65,3,35,65,2,65,4,37,        67P    171
65,5,65,2,39,65,6,65,4,41,65,5,65,6,43,65,7,65,5,45,65,8,65,6,        67P    172
47,65,7,65,8,49,65,1,65,7,51,65,3,65,8;                               67P    173
406,1,5HBody1;                                                        69P    174
314,62.7450980392157,62.7450980392157,62.7450980392157,13HSteel       71P    175
- Satin;                                                              71P    176
S      1G      2D     72P    176                                        T      1
