0
SECTION
2
HEADER
9
$INSUNITS
70
4
9
$ACADVER
1
AC1014
9
$HANDSEED
5
FFFF
0
ENDSEC
0
SECTION
2
TABLES
0
TABLE
2
VPORT
5
8
100
AcDbSymbolTable
0
ENDTAB
0
TABLE
2
LTYPE
5
5
100
AcDbSymbolTable
0
LTYPE
5
14
100
AcDbSymbolTableRecord
100
AcDbLinetypeTableRecord
2
BYBLOCK
70
0
0
LTYPE
5
15
100
AcDbSymbolTableRecord
100
AcDbLinetypeTableRecord
2
BYLAYER
70
0
0
LTYPE
5
16
100
AcDbSymbolTableRecord
100
AcDbLinetypeTableRecord
2
DASHED
70
0
3
Dashed __ __ __ __ __ __ __ __ __ __ __ __ __ _
72
65
73
2
40
0.75
49
0.5
74
0
49
-0.25
74
0
0
ENDTAB
0
TABLE
2
LAYER
5
2
100
AcDbSymbolTable
70
2
0
LAYER
5
50
100
AcDbSymbolTableRecord
100
AcDbLayerTableRecord
2
0
70
0
62
7
6
CONTINUOUS
0
ENDTAB
0
TABLE
2
STYLE
5
3
100
AcDbSymbolTable
70
1
0
STYLE
5
11
100
AcDbSymbolTableRecord
100
AcDbTextStyleTableRecord
2
STANDARD
70
0
0
ENDTAB
0
TABLE
2
VIEW
5
6
100
AcDbSymbolTable
70
0
0
ENDTAB
0
TABLE
2
UCS
5
7
100
AcDbSymbolTable
70
0
0
ENDTAB
0
TABLE
2
APPID
5
9
100
AcDbSymbolTable
70
2
0
APPID
5
12
100
AcDbSymbolTableRecord
100
AcDbRegAppTableRecord
2
ACAD
70
0
0
ENDTAB
0
TABLE
2
DIMSTYLE
5
A
100
AcDbSymbolTable
70
1
0
ENDTAB
0
TABLE
2
BLOCK_RECORD
5
1
100
AcDbSymbolTable
70
1
0
BLOCK_RECORD
5
1F
100
AcDbSymbolTableRecord
100
AcDbBlockTableRecord
2
*MODEL_SPACE
0
BLOCK_RECORD
5
1B
100
AcDbSymbolTableRecord
100
AcDbBlockTableRecord
2
*PAPER_SPACE
0
ENDTAB
0
ENDSEC
0
SECTION
2
BLOCKS
0
BLOCK
5
20
100
AcDbEntity
100
AcDbBlockBegin
2
*MODEL_SPACE
0
ENDBLK
5
21
100
AcDbEntity
100
AcDbBlockEnd
0
BLOCK
5
1C
100
AcDbEntity
100
AcDbBlockBegin
2
*PAPER_SPACE
0
ENDBLK
5
1D
100
AcDbEntity
100
AcDbBlockEnd
0
ENDSEC
0
SECTION
2
ENTITIES
0
POINT
5
100
100
AcDbEntity
8
0
100
AcDbPoint
10
-26.852565051528554
20
-73.567821754379324
30
0
0
POINT
5
101
100
AcDbEntity
8
0
100
AcDbPoint
10
-7.5031647561729642e-12
20
-82.06782175437931
30
0
0
LWPOLYLINE
5
102
100
AcDbEntity
8
0
100
AcDbPolyline
90
4
70
1
43
0.0
10
26.852565051528519
20
-73.56782175437931
10
11.052565051528514
20
-73.56782175437931
10
11.052565051528514
20
-85.56782175437931
10
26.852565051528519
20
-85.56782175437931
0
LWPOLYLINE
5
103
100
AcDbEntity
8
0
100
AcDbPolyline
90
4
70
1
43
0.0
10
26.852565051528519
20
-85.56782175437931
10
-26.852565051528554
20
-85.56782175437931
10
-26.852565051528554
20
-73.567821754379324
10
26.852565051528519
20
-73.567821754379324
0
LINE
5
104
100
AcDbEntity
8
0
100
AcDbLine
10
-26.852565051528554
20
-79.56782175437931
30
0
11
26.852565051528519
21
-79.56782175437931
31
0
0
LWPOLYLINE
5
105
100
AcDbEntity
8
0
100
AcDbPolyline
90
4
70
1
43
0.0
10
-26.852565051528579
20
-76.56782175437931
10
-26.852565051528554
20
-87.56782175437931
42
0.99999999999999989
10
26.852565051498622
20
-87.567821754452268
10
26.852565051528501
20
-76.567821754452325
42
0.99999999999999989
0
LINE
5
106
100
AcDbEntity
8
0
100
AcDbLine
10
-3.0253577421035516e-14
20
-76.56782175437931
30
0
11
-1.4981627050048019e-11
21
-87.56782175437931
31
0
6
DASHED
0
LINE
5
107
100
AcDbEntity
8
0
100
AcDbLine
10
-26.852565051528579
20
-76.56782175437931
30
0
11
-24.022078383157716
21
-64.567821754379281
31
0
0
LINE
5
108
100
AcDbEntity
8
0
100
AcDbLine
10
26.852565051528501
20
-76.567821754452325
30
0
11
24.02207838315767
21
-64.56782175437931
31
0
0
LINE
5
109
100
AcDbEntity
8
0
100
AcDbLine
10
24.02207838315767
20
-64.56782175437931
30
0
11
-24.022078383157716
21
-64.567821754379281
31
0
0
LWPOLYLINE
5
110
100
AcDbEntity
8
0
100
AcDbPolyline
90
4
70
1
43
0.0
10
-26.852565051528579
20
-82.567821754379324
10
-24.022078383157712
20
-94.567821754379352
10
24.02207838315767
20
-94.56782175437931
10
26.852565051528519
20
-82.567821754306308
0
LINE
5
111
100
AcDbEntity
8
0
100
AcDbLine
10
-1.4981627050048019e-11
20
-87.56782175437931
30
0
11
-0.001828860427872947
21
-91.567821336287977
31
0
0
CIRCLE
5
112
100
AcDbEntity
8
0
100
AcDbCircle
10
-1.9706458687096529e-14
20
-79.56782175437931
30
0
40
1.1000000000000001
210
0
220
0
230
1
0
LINE
5
113
100
AcDbEntity
8
0
100
AcDbLine
10
26.852565051528501
20
-76.567821754452325
30
0
11
14.852565051488229
21
-64.56782175437931
31
0
0
LINE
5
114
100
AcDbEntity
8
0
100
AcDbLine
10
-26.852565051528579
20
-76.56782175437931
30
0
11
-14.852565051528559
21
-64.567821754379281
31
0
0
LINE
5
115
100
AcDbEntity
8
0
100
AcDbLine
10
-26.852565051528579
20
-82.567821754379324
30
0
11
-14.852565051528545
21
-94.567821754379352
31
0
0
LINE
5
116
100
AcDbEntity
8
0
100
AcDbLine
10
26.852565051498622
20
-87.567821754452268
30
0
11
19.852565051500768
21
-94.56782175437931
31
0
0
LINE
5
117
100
AcDbEntity
8
0
100
AcDbLine
10
-26.852565051528579
20
-76.56782175437931
30
0
11
26.852565051528501
21
-76.567821754452325
31
0
0
LINE
5
118
100
AcDbEntity
8
0
100
AcDbLine
10
-1.8873791418627661e-14
20
-94.567821754379338
30
0
11
-2.0816681711721685e-14
21
-64.567821754379295
31
0
0
LINE
5
119
100
AcDbEntity
8
0
100
AcDbLine
10
-26.852565051528554
20
-73.567821754379324
30
0
11
-24.022078383157716
21
-64.567821754379281
31
0
0
LINE
5
120
100
AcDbEntity
8
0
100
AcDbLine
10
24.02207838315767
20
-64.56782175437931
30
0
11
26.852565051528519
21
-73.56782175437931
31
0
0
LINE
5
121
100
AcDbEntity
8
0
100
AcDbLine
10
26.852565051528519
20
-85.56782175437931
30
0
11
24.02207838315767
21
-94.56782175437931
31
0
0
LINE
5
122
100
AcDbEntity
8
0
100
AcDbLine
10
-26.852565051528554
20
-85.56782175437931
30
0
11
-24.022078383157712
21
-94.567821754379352
31
0
0
ENDSEC
0
SECTION
2
OBJECTS
0
DICTIONARY
5
C
100
AcDbDictionary
3
ACAD_GROUP
350
D
3
ACAD_MLINESTYLE
350
17
0
DICTIONARY
5
D
100
AcDbDictionary
0
DICTIONARY
5
1A
330
C
100
AcDbDictionary
0
DICTIONARY
5
17
100
AcDbDictionary
0
ENDSEC
0
EOF
