0
SECTION
2
HEADER
9
$INSUNITS
70
4
9
$ACADVER
1
AC1014
9
$HANDSEED
5
FFFF
0
ENDSEC
0
SECTION
2
TABLES
0
TABLE
2
VPORT
5
8
100
AcDbSymbolTable
0
ENDTAB
0
TABLE
2
LTYPE
5
5
100
AcDbSymbolTable
0
LTYPE
5
14
100
AcDbSymbolTableRecord
100
AcDbLinetypeTableRecord
2
BYBLOCK
70
0
0
LTYPE
5
15
100
AcDbSymbolTableRecord
100
AcDbLinetypeTableRecord
2
BYLAYER
70
0
0
LTYPE
5
16
100
AcDbSymbolTableRecord
100
AcDbLinetypeTableRecord
2
DASHED
70
0
3
Dashed __ __ __ __ __ __ __ __ __ __ __ __ __ _
72
65
73
2
40
0.75
49
0.5
74
0
49
-0.25
74
0
0
ENDTAB
0
TABLE
2
LAYER
5
2
100
AcDbSymbolTable
70
2
0
LAYER
5
50
100
AcDbSymbolTableRecord
100
AcDbLayerTableRecord
2
0
70
0
62
7
6
CONTINUOUS
0
ENDTAB
0
TABLE
2
STYLE
5
3
100
AcDbSymbolTable
70
1
0
STYLE
5
11
100
AcDbSymbolTableRecord
100
AcDbTextStyleTableRecord
2
STANDARD
70
0
0
ENDTAB
0
TABLE
2
VIEW
5
6
100
AcDbSymbolTable
70
0
0
ENDTAB
0
TABLE
2
UCS
5
7
100
AcDbSymbolTable
70
0
0
ENDTAB
0
TABLE
2
APPID
5
9
100
AcDbSymbolTable
70
2
0
APPID
5
12
100
AcDbSymbolTableRecord
100
AcDbRegAppTableRecord
2
ACAD
70
0
0
ENDTAB
0
TABLE
2
DIMSTYLE
5
A
100
AcDbSymbolTable
70
1
0
ENDTAB
0
TABLE
2
BLOCK_RECORD
5
1
100
AcDbSymbolTable
70
1
0
BLOCK_RECORD
5
1F
100
AcDbSymbolTableRecord
100
AcDbBlockTableRecord
2
*MODEL_SPACE
0
BLOCK_RECORD
5
1B
100
AcDbSymbolTableRecord
100
AcDbBlockTableRecord
2
*PAPER_SPACE
0
ENDTAB
0
ENDSEC
0
SECTION
2
BLOCKS
0
BLOCK
5
20
100
AcDbEntity
100
AcDbBlockBegin
2
*MODEL_SPACE
0
ENDBLK
5
21
100
AcDbEntity
100
AcDbBlockEnd
0
BLOCK
5
1C
100
AcDbEntity
100
AcDbBlockBegin
2
*PAPER_SPACE
0
ENDBLK
5
1D
100
AcDbEntity
100
AcDbBlockEnd
0
ENDSEC
0
SECTION
2
ENTITIES
0
CIRCLE
5
100
100
AcDbEntity
8
0
100
AcDbCircle
10
-77.310948012700294
20
5.4275252701225494
30
0
40
4
210
0
220
0
230
1
0
LINE
5
101
100
AcDbEntity
8
0
100
AcDbLine
10
-77.310948012700294
20
5.4275252701225494
30
0
11
-73.31094801270028
21
5.4275252701225494
31
0
0
LINE
5
102
100
AcDbEntity
8
0
100
AcDbLine
10
-77.310948012700294
20
5.4275252701225494
30
0
11
-81.310948012700294
21
5.4275252701225494
31
0
0
SPLINE
5
103
100
AcDbEntity
8
0
100
AcDbSpline
70
4
71
5
72
21
73
15
74
0
42
0.000000001
43
0.0000000001
44
0.0000000001
40
0
40
0
40
0
40
0
40
0
40
0
40
0.10000000000000001
40
0.20000000000000001
40
0.30000000000000004
40
0.40000000000000002
40
0.5
40
0.59999999999999998
40
0.69999999999999996
40
0.79999999999999993
40
0.89999999999999991
40
1
40
1
40
1
40
1
40
1
40
1
41
1
41
1
41
1
41
1
41
1
41
1
41
1
41
1
41
1
41
1
41
1
41
1
41
1
41
1
41
1
10
-73.31094801270028
20
5.4275252701225494
30
0
10
-73.303358906849581
20
4.4715320195232691
30
0
10
-73.331646679421198
20
2.7298804621096813
30
0
10
-73.504467859074722
20
0.6283709026441231
30
0
10
-73.981368929745727
20
-1.2245733512034451
30
0
10
-74.907563241559131
20
-2.3373507609649598
30
0
10
-76.057622187278156
20
-2.6816256692828118
30
0
10
-77.313905817035945
20
-2.6272214157151246
30
0
10
-78.55806975557951
20
-2.3637909379758391
30
0
10
-79.680423843804022
20
-1.7821715984059967
30
0
10
-80.582007182164389
20
-0.58899456207095457
30
0
10
-81.059370313124518
20
1.1489733693383151
30
0
10
-81.252433667155117
20
3.0407755163467485
30
0
10
-81.304258088253647
20
4.584801141111809
30
0
10
-81.310948012700294
20
5.4275252701225494
30
0
0
LINE
5
104
100
AcDbEntity
8
0
100
AcDbLine
10
-77.310948012700294
20
5.4275252701225494
30
0
11
-77.310948012700294
21
-2.5724747298774506
31
0
0
LINE
5
105
100
AcDbEntity
8
0
100
AcDbLine
10
-77.310948012700294
20
5.4275252701225494
30
0
11
-77.310948012700294
21
9.4275252701225494
31
0
0
LINE
5
106
100
AcDbEntity
8
0
100
AcDbLine
10
-77.310948012700294
20
9.4275252701225494
30
0
11
-127.31094801270029
21
9.4275252701225494
31
0
0
LINE
5
107
100
AcDbEntity
8
0
100
AcDbLine
10
-127.31094801270029
20
9.4275252701225494
30
0
11
-127.31094801270029
21
5.4275252701225494
31
0
0
LINE
5
108
100
AcDbEntity
8
0
100
AcDbLine
10
-127.31094801270029
20
5.4275252701225494
30
0
11
-77.310948012700294
21
5.4275252701225494
31
0
0
SPLINE
5
109
100
AcDbEntity
8
0
100
AcDbSpline
70
4
71
5
72
21
73
15
74
0
42
0.000000001
43
0.0000000001
44
0.0000000001
40
0
40
0
40
0
40
0
40
0
40
0
40
0.10000000000000001
40
0.20000000000000001
40
0.30000000000000004
40
0.40000000000000002
40
0.5
40
0.59999999999999998
40
0.69999999999999996
40
0.79999999999999993
40
0.89999999999999991
40
1
40
1
40
1
40
1
40
1
40
1
41
1
41
1
41
1
41
1
41
1
41
1
41
1
41
1
41
1
41
1
41
1
41
1
41
1
41
1
41
1
10
-81.310948012700294
20
5.4275252701225494
30
0
10
-81.325746408482274
20
4.2351577628714239
30
0
10
-81.273132941401741
20
2.0283617280978508
30
0
10
-80.947596957990712
20
-0.74804459151430247
30
0
10
-80.070753567357329
20
-3.4311757987625757
30
0
10
-78.511013606248824
20
-5.3386300890683778
30
0
10
-76.823642065352729
20
-6.0931867282816787
30
0
10
-75.325815139490601
20
-5.9623134557538755
30
0
10
-74.242721888962265
20
-5.1354502094622267
30
0
10
-73.610063123466887
20
-3.6714356241270716
30
0
10
-73.33675210283549
20
-1.5286463015179954
30
0
10
-73.291458431074005
20
0.80663816437844094
30
0
10
-73.294448332893353
20
2.9556157320210819
30
0
10
-73.30416280261062
20
4.5727980891841398
30
0
10
-73.31094801270028
20
5.4275252701225494
30
0
0
SPLINE
5
110
100
AcDbEntity
8
0
100
AcDbSpline
70
4
71
5
72
16
73
10
74
0
42
0.000000001
43
0.0000000001
44
0.0000000001
40
0
40
0
40
0
40
0
40
0
40
0
40
0.20000000000000001
40
0.40000000000000002
40
0.60000000000000009
40
0.80000000000000004
40
1
40
1
40
1
40
1
40
1
40
1
41
1
41
1
41
1
41
1
41
1
41
1
41
1
41
1
41
1
41
1
10
-81.239515271316463
20
2.574514963928471
30
0
10
-81.343107806611798
20
2.8229960570523991
30
0
10
-81.577863759907444
20
3.2807440122768341
30
0
10
-82.012635930730482
20
3.8498290818989114
30
0
10
-82.734809028652649
20
4.4059634719450074
30
0
10
-83.795591313155626
20
4.8763133693205116
30
0
10
-84.721790039435263
20
5.1422608904397737
30
0
10
-85.445739406457477
20
5.3000475079745843
30
0
10
-85.940548534247384
20
5.3879202810113931
30
0
10
-86.190998432622408
20
5.4275252701225494
30
0
0
ENDSEC
0
SECTION
2
OBJECTS
0
DICTIONARY
5
C
100
AcDbDictionary
3
ACAD_GROUP
350
D
3
ACAD_MLINESTYLE
350
17
0
DICTIONARY
5
D
100
AcDbDictionary
0
DICTIONARY
5
1A
330
C
100
AcDbDictionary
0
DICTIONARY
5
17
100
AcDbDictionary
0
ENDSEC
0
EOF
