0
SECTION
2
HEADER
9
$INSUNITS
70
4
9
$ACADVER
1
AC1014
9
$HANDSEED
5
FFFF
0
ENDSEC
0
SECTION
2
TABLES
0
TABLE
2
VPORT
5
8
100
AcDbSymbolTable
0
ENDTAB
0
TABLE
2
LTYPE
5
5
100
AcDbSymbolTable
0
LTYPE
5
14
100
AcDbSymbolTableRecord
100
AcDbLinetypeTableRecord
2
BYBLOCK
70
0
0
LTYPE
5
15
100
AcDbSymbolTableRecord
100
AcDbLinetypeTableRecord
2
BYLAYER
70
0
0
LTYPE
5
16
100
AcDbSymbolTableRecord
100
AcDbLinetypeTableRecord
2
DASHED
70
0
3
Dashed __ __ __ __ __ __ __ __ __ __ __ __ __ _
72
65
73
2
40
0.75
49
0.5
74
0
49
-0.25
74
0
0
ENDTAB
0
TABLE
2
LAYER
5
2
100
AcDbSymbolTable
70
2
0
LAYER
5
50
100
AcDbSymbolTableRecord
100
AcDbLayerTableRecord
2
0
70
0
62
7
6
CONTINUOUS
0
ENDTAB
0
TABLE
2
STYLE
5
3
100
AcDbSymbolTable
70
1
0
STYLE
5
11
100
AcDbSymbolTableRecord
100
AcDbTextStyleTableRecord
2
STANDARD
70
0
0
ENDTAB
0
TABLE
2
VIEW
5
6
100
AcDbSymbolTable
70
0
0
ENDTAB
0
TABLE
2
UCS
5
7
100
AcDbSymbolTable
70
0
0
ENDTAB
0
TABLE
2
APPID
5
9
100
AcDbSymbolTable
70
2
0
APPID
5
12
100
AcDbSymbolTableRecord
100
AcDbRegAppTableRecord
2
ACAD
70
0
0
ENDTAB
0
TABLE
2
DIMSTYLE
5
A
100
AcDbSymbolTable
70
1
0
ENDTAB
0
TABLE
2
BLOCK_RECORD
5
1
100
AcDbSymbolTable
70
1
0
BLOCK_RECORD
5
1F
100
AcDbSymbolTableRecord
100
AcDbBlockTableRecord
2
*MODEL_SPACE
0
BLOCK_RECORD
5
1B
100
AcDbSymbolTableRecord
100
AcDbBlockTableRecord
2
*PAPER_SPACE
0
ENDTAB
0
ENDSEC
0
SECTION
2
BLOCKS
0
BLOCK
5
20
100
AcDbEntity
100
AcDbBlockBegin
2
*MODEL_SPACE
0
ENDBLK
5
21
100
AcDbEntity
100
AcDbBlockEnd
0
BLOCK
5
1C
100
AcDbEntity
100
AcDbBlockBegin
2
*PAPER_SPACE
0
ENDBLK
5
1D
100
AcDbEntity
100
AcDbBlockEnd
0
ENDSEC
0
SECTION
2
ENTITIES
0
LWPOLYLINE
5
100
100
AcDbEntity
8
0
100
AcDbPolyline
90
20
70
1
43
0.0
10
-45.170242033958068
20
-64.665294388505828
10
-45.184615859097391
20
-64.673593120319424
42
-0.41421356237308926
10
-46.550641262881811
20
-64.307567716534976
10
-80.791881449005558
20
-4.9999999999995843
42
-0.26794919243112403
10
-80.791881449005572
20
5.0000000000003899
10
-44.726067743425197
20
67.467821754379983
42
-0.2679491924311232
10
-36.065813705580794
20
72.467821754380012
10
36.065813705580744
20
72.467821754379983
42
-0.26794919243112214
10
44.726067743425126
20
67.467821754379983
10
80.791881449005686
20
5.0000000000005844
42
-0.26794919243112164
10
80.791881449005686
20
-4.999999999999412
10
44.726067743424764
20
-67.467821754379329
42
-0.26794919243112331
10
36.065813705580382
20
-72.467821754379315
10
-32.416666666666202
20
-72.467821754379315
42
-0.41421356237310153
10
-33.416666666666202
20
-71.467821754379315
10
-33.416666666666202
20
-71.451224290752592
42
-0.45604818961723637
10
-35.412067066794336
20
-73.18393276121634
10
-41.037774986426719
20
-72.387173815314554
42
-0.19382714770201057
10
-42.170243939008671
20
-71.733342560692449
10
-45.673111386668182
20
-67.259716060970447
42
-0.45604818961723448
0
LWPOLYLINE
5
101
100
AcDbEntity
8
0
100
AcDbPolyline
90
4
70
1
43
0.0
10
81.431409544685977
20
-15.892304845413253
10
73.431409544685977
20
-29.748711305964282
10
69.101282525763793
20
-27.248711305964282
10
77.101282525763779
20
-13.392304845413259
0
LWPOLYLINE
5
102
100
AcDbEntity
8
0
100
AcDbPolyline
90
4
70
1
43
0.0
10
-26.952565051528524
20
78.467821754379315
10
-10.952565051528524
20
78.467821754379315
10
-10.952565051528524
20
73.467821754379315
10
-26.952565051528524
20
73.467821754379315
0
LWPOLYLINE
5
103
100
AcDbEntity
8
0
100
AcDbPolyline
90
4
70
1
43
0.0
10
-54.478844493157439
20
-62.575516908965994
10
-62.478844493157439
20
-48.719110448414973
10
-58.148717474235241
20
-46.219110448414973
10
-50.148717474235241
20
-60.075516908965994
0
LWPOLYLINE
5
104
100
AcDbEntity
8
0
100
AcDbPolyline
90
4
70
1
43
0.0
10
81.431409544685977
20
15.892304845413335
10
77.101282525763779
20
13.39230484541333
10
69.101282525763764
20
27.248711305964342
10
73.431409544685962
20
29.748711305964349
0
LWPOLYLINE
5
105
100
AcDbEntity
8
0
100
AcDbPolyline
90
4
70
1
43
0.0
10
-54.478844493157439
20
62.575516908966016
10
-50.148717474235255
20
60.075516908966016
10
-58.148717474235241
20
46.21911044841498
10
-62.478844493157446
20
48.71911044841498
0
LWPOLYLINE
5
106
100
AcDbEntity
8
0
100
AcDbPolyline
90
4
70
1
43
0.0
10
-10.952565051528552
20
-73.467821754379315
10
-10.952565051528552
20
-78.467821754379315
10
-26.952565051528552
20
-78.467821754379315
10
-26.952565051528552
20
-73.467821754379315
0
LWPOLYLINE
5
107
100
AcDbEntity
8
0
100
AcDbPolyline
90
4
70
1
43
0.0
10
26.952565051528516
20
-73.467821754379315
10
26.952565051528516
20
-78.467821754379315
10
10.952565051528516
20
-78.467821754379315
10
10.952565051528516
20
-73.467821754379315
0
LWPOLYLINE
5
108
100
AcDbEntity
8
0
100
AcDbPolyline
90
6
70
1
43
0.0
10
45.880768281804016
20
-79.467821754379315
10
91.76153656360853
20
5.4178883601707639e-13
10
45.880768281804343
20
79.467821754379983
10
-45.880768281803618
20
79.467821754380026
10
-91.761536563607962
20
-2.8421709430404007e-13
10
-45.880768281804038
20
-79.467821754379315
0
LWPOLYLINE
5
109
100
AcDbEntity
8
0
100
AcDbPolyline
90
4
70
1
43
0.0
10
-81.431409544685977
20
-15.892304845413303
10
-77.101282525763779
20
-13.392304845413303
10
-69.101282525763779
20
-27.248711305964317
10
-73.431409544685977
20
-29.748711305964317
0
LWPOLYLINE
5
110
100
AcDbEntity
8
0
100
AcDbPolyline
90
4
70
1
43
0.0
10
26.952565051528545
20
78.467821754379315
10
26.952565051528545
20
73.467821754379315
10
10.952565051528541
20
73.467821754379315
10
10.952565051528541
20
78.467821754379315
0
LWPOLYLINE
5
111
100
AcDbEntity
8
0
100
AcDbPolyline
90
4
70
1
43
0.0
10
54.478844493157474
20
-62.575516908965973
10
50.148717474235276
20
-60.07551690896598
10
58.148717474235269
20
-46.219110448414952
10
62.478844493157467
20
-48.719110448414952
0
LWPOLYLINE
5
112
100
AcDbEntity
8
0
100
AcDbPolyline
90
4
70
1
43
0.0
10
-81.431409544685977
20
15.892304845413303
10
-73.431409544685962
20
29.748711305964328
10
-69.101282525763779
20
27.248711305964328
10
-77.101282525763764
20
13.392304845413303
0
LWPOLYLINE
5
113
100
AcDbEntity
8
0
100
AcDbPolyline
90
4
70
1
43
0.0
10
54.478844493157411
20
62.575516908966016
10
62.478844493157418
20
48.719110448415002
10
58.148717474235234
20
46.219110448415002
10
50.148717474235227
20
60.075516908966016
0
LINE
5
114
100
AcDbEntity
8
0
100
AcDbLine
10
-46.550641262881811
20
-64.307567716534976
30
0
11
-45.99588023648046
21
-66.593549038995548
31
0
0
LINE
5
115
100
AcDbEntity
8
0
100
AcDbLine
10
-32.416666666666202
20
-72.467821754379315
30
0
11
-34.673765077694434
21
-73.130375273716595
31
0
0
LINE
5
116
100
AcDbEntity
8
0
100
AcDbLine
10
-34.673765077694434
20
-73.130375273716595
30
0
11
-45.99588023648046
21
-66.593549038995548
31
0
0
LINE
5
117
100
AcDbEntity
8
0
100
AcDbLine
10
-46.550641262881811
20
-64.307567716534976
30
0
11
-32.416666666666202
21
-64.307567716534976
31
0
0
LINE
5
118
100
AcDbEntity
8
0
100
AcDbLine
10
-32.416666666666202
20
-64.307567716534976
30
0
11
-32.416666666666202
21
-72.467821754379315
31
0
0
ENDSEC
0
SECTION
2
OBJECTS
0
DICTIONARY
5
C
100
AcDbDictionary
3
ACAD_GROUP
350
D
3
ACAD_MLINESTYLE
350
17
0
DICTIONARY
5
D
100
AcDbDictionary
0
DICTIONARY
5
1A
330
C
100
AcDbDictionary
0
DICTIONARY
5
17
100
AcDbDictionary
0
ENDSEC
0
EOF
