0
SECTION
2
HEADER
9
$INSUNITS
70
4
9
$ACADVER
1
AC1014
9
$HANDSEED
5
FFFF
0
ENDSEC
0
SECTION
2
TABLES
0
TABLE
2
VPORT
5
8
100
AcDbSymbolTable
0
ENDTAB
0
TABLE
2
LTYPE
5
5
100
AcDbSymbolTable
0
LTYPE
5
14
100
AcDbSymbolTableRecord
100
AcDbLinetypeTableRecord
2
BYBLOCK
70
0
0
LTYPE
5
15
100
AcDbSymbolTableRecord
100
AcDbLinetypeTableRecord
2
BYLAYER
70
0
0
LTYPE
5
16
100
AcDbSymbolTableRecord
100
AcDbLinetypeTableRecord
2
DASHED
70
0
3
Dashed __ __ __ __ __ __ __ __ __ __ __ __ __ _
72
65
73
2
40
0.75
49
0.5
74
0
49
-0.25
74
0
0
ENDTAB
0
TABLE
2
LAYER
5
2
100
AcDbSymbolTable
70
2
0
LAYER
5
50
100
AcDbSymbolTableRecord
100
AcDbLayerTableRecord
2
0
70
0
62
7
6
CONTINUOUS
0
ENDTAB
0
TABLE
2
STYLE
5
3
100
AcDbSymbolTable
70
1
0
STYLE
5
11
100
AcDbSymbolTableRecord
100
AcDbTextStyleTableRecord
2
STANDARD
70
0
0
ENDTAB
0
TABLE
2
VIEW
5
6
100
AcDbSymbolTable
70
0
0
ENDTAB
0
TABLE
2
UCS
5
7
100
AcDbSymbolTable
70
0
0
ENDTAB
0
TABLE
2
APPID
5
9
100
AcDbSymbolTable
70
2
0
APPID
5
12
100
AcDbSymbolTableRecord
100
AcDbRegAppTableRecord
2
ACAD
70
0
0
ENDTAB
0
TABLE
2
DIMSTYLE
5
A
100
AcDbSymbolTable
70
1
0
ENDTAB
0
TABLE
2
BLOCK_RECORD
5
1
100
AcDbSymbolTable
70
1
0
BLOCK_RECORD
5
1F
100
AcDbSymbolTableRecord
100
AcDbBlockTableRecord
2
*MODEL_SPACE
0
BLOCK_RECORD
5
1B
100
AcDbSymbolTableRecord
100
AcDbBlockTableRecord
2
*PAPER_SPACE
0
ENDTAB
0
ENDSEC
0
SECTION
2
BLOCKS
0
BLOCK
5
20
100
AcDbEntity
100
AcDbBlockBegin
2
*MODEL_SPACE
0
ENDBLK
5
21
100
AcDbEntity
100
AcDbBlockEnd
0
BLOCK
5
1C
100
AcDbEntity
100
AcDbBlockBegin
2
*PAPER_SPACE
0
ENDBLK
5
1D
100
AcDbEntity
100
AcDbBlockEnd
0
ENDSEC
0
SECTION
2
ENTITIES
0
POINT
5
100
100
AcDbEntity
8
0
100
AcDbPoint
10
0
20
0
30
0
0
LINE
5
101
100
AcDbEntity
8
0
100
AcDbLine
10
-21
20
-50.429937497558406
30
0
11
-21
21
-48.830062502441606
31
0
0
LINE
5
102
100
AcDbEntity
8
0
100
AcDbLine
10
-21.000000312924385
20
7
30
0
11
0
21
6.9999999999999929
31
0
0
LINE
5
103
100
AcDbEntity
8
0
100
AcDbLine
10
0
20
6.9999999999999929
30
0
11
3.469446951953615e-15
21
-0.57006250244162504
31
0
0
LINE
5
104
100
AcDbEntity
8
0
100
AcDbLine
10
3.469446951953615e-15
20
-50.429937497558406
30
0
11
0
21
-88.45840863011378
31
0
0
LINE
5
105
100
AcDbEntity
8
0
100
AcDbLine
10
0
20
-88.45840863011378
30
0
11
-21.000000312924385
21
-88.45840863011378
31
0
0
LINE
5
106
100
AcDbEntity
8
0
100
AcDbLine
10
-21.000000312924385
20
-88.45840863011378
30
0
11
-21
21
-50.429937497558406
31
0
0
LWPOLYLINE
5
107
100
AcDbEntity
8
0
100
AcDbPolyline
90
4
70
1
43
0.0
10
3.0000000000000004
20
-90.996874877920135
10
3.0000000000000004
20
10
10
-24.000000000000004
20
10
10
-24.000000000000004
20
-90.996874877920135
0
LWPOLYLINE
5
108
100
AcDbEntity
8
0
100
AcDbPolyline
90
4
70
1
43
0.0
10
1.4000000000000044
20
8.5999999999999961
10
1.4000000000000044
20
-89.258408630113792
10
-22.399998356472626
20
-89.258408630113792
10
-22.399998356472643
20
8.6000000000000014
0
LINE
5
109
100
AcDbEntity
8
0
100
AcDbLine
10
-7.160000000000001
20
0
30
0
11
-0.50000000000000044
21
0
31
0
0
LINE
5
110
100
AcDbEntity
8
0
100
AcDbLine
10
-21
20
-0.57006250244162504
30
0
11
-21.000000312924385
21
7
31
0
0
LINE
5
111
100
AcDbEntity
8
0
100
AcDbLine
10
-21
20
-48.830062502441606
30
0
11
-21
21
-47.8899374975584
31
0
0
LINE
5
112
100
AcDbEntity
8
0
100
AcDbLine
10
-21
20
-47.8899374975584
30
0
11
-21
21
-46.2900625024416
31
0
0
LINE
5
113
100
AcDbEntity
8
0
100
AcDbLine
10
-21
20
-46.2900625024416
30
0
11
-21
21
-45.349937497558408
31
0
0
LINE
5
114
100
AcDbEntity
8
0
100
AcDbLine
10
-21
20
-45.349937497558408
30
0
11
-21
21
-43.750062502441608
31
0
0
LINE
5
115
100
AcDbEntity
8
0
100
AcDbLine
10
-21
20
-43.750062502441608
30
0
11
-21
21
-42.809937497558394
31
0
0
LINE
5
116
100
AcDbEntity
8
0
100
AcDbLine
10
-21
20
-42.809937497558394
30
0
11
-21
21
-41.210062502441652
31
0
0
LINE
5
117
100
AcDbEntity
8
0
100
AcDbLine
10
-21
20
-41.210062502441652
30
0
11
-21
21
-40.269937497558395
31
0
0
LINE
5
118
100
AcDbEntity
8
0
100
AcDbLine
10
-21
20
-40.269937497558395
30
0
11
-21
21
-38.670062502441652
31
0
0
LINE
5
119
100
AcDbEntity
8
0
100
AcDbLine
10
-21
20
-38.670062502441652
30
0
11
-21
21
-37.729937497558403
31
0
0
LINE
5
120
100
AcDbEntity
8
0
100
AcDbLine
10
-21
20
-37.729937497558403
30
0
11
-21
21
-36.130062502441604
31
0
0
LINE
5
121
100
AcDbEntity
8
0
100
AcDbLine
10
-21
20
-36.130062502441604
30
0
11
-21
21
-35.189937497558404
31
0
0
LINE
5
122
100
AcDbEntity
8
0
100
AcDbLine
10
-21
20
-35.189937497558404
30
0
11
-21
21
-33.590062502441647
31
0
0
LINE
5
123
100
AcDbEntity
8
0
100
AcDbLine
10
-21
20
-33.590062502441647
30
0
11
-21
21
-32.649937497558398
31
0
0
LINE
5
124
100
AcDbEntity
8
0
100
AcDbLine
10
-21
20
-32.649937497558398
30
0
11
-21
21
-31.050062502441655
31
0
0
LINE
5
125
100
AcDbEntity
8
0
100
AcDbLine
10
-21
20
-31.050062502441655
30
0
11
-21
21
-30.109937497558406
31
0
0
LINE
5
126
100
AcDbEntity
8
0
100
AcDbLine
10
-21
20
-30.109937497558406
30
0
11
-21
21
-28.510062502441649
31
0
0
LINE
5
127
100
AcDbEntity
8
0
100
AcDbLine
10
-21
20
-28.510062502441649
30
0
11
-21
21
-27.569937497558399
31
0
0
LINE
5
128
100
AcDbEntity
8
0
100
AcDbLine
10
-21
20
-27.569937497558399
30
0
11
-21
21
-25.970062502441653
31
0
0
LINE
5
129
100
AcDbEntity
8
0
100
AcDbLine
10
-21
20
-25.970062502441653
30
0
11
-21
21
-25.0299374975584
31
0
0
LINE
5
130
100
AcDbEntity
8
0
100
AcDbLine
10
-21
20
-25.0299374975584
30
0
11
-21
21
-23.430062502441654
31
0
0
LINE
5
131
100
AcDbEntity
8
0
100
AcDbLine
10
-21
20
-23.430062502441654
30
0
11
-21
21
-22.489937497558397
31
0
0
LINE
5
132
100
AcDbEntity
8
0
100
AcDbLine
10
-21
20
-22.489937497558397
30
0
11
-21
21
-20.890062502441651
31
0
0
LINE
5
133
100
AcDbEntity
8
0
100
AcDbLine
10
-21
20
-20.890062502441651
30
0
11
-21
21
-19.949937497558398
31
0
0
LINE
5
134
100
AcDbEntity
8
0
100
AcDbLine
10
-21
20
-19.949937497558398
30
0
11
-21
21
-18.350062502441652
31
0
0
LINE
5
135
100
AcDbEntity
8
0
100
AcDbLine
10
-21
20
-18.350062502441652
30
0
11
-21
21
-17.409937497558403
31
0
0
LINE
5
136
100
AcDbEntity
8
0
100
AcDbLine
10
-21
20
-17.409937497558403
30
0
11
-21
21
-15.810062502441653
31
0
0
LINE
5
137
100
AcDbEntity
8
0
100
AcDbLine
10
-21
20
-15.810062502441653
30
0
11
-21
21
-14.8699374975584
31
0
0
LINE
5
138
100
AcDbEntity
8
0
100
AcDbLine
10
-21
20
-14.8699374975584
30
0
11
-21
21
-13.270062502441622
31
0
0
LINE
5
139
100
AcDbEntity
8
0
100
AcDbLine
10
-21
20
-13.270062502441622
30
0
11
-21
21
-12.329937497558401
31
0
0
LINE
5
140
100
AcDbEntity
8
0
100
AcDbLine
10
-21
20
-12.329937497558401
30
0
11
-21
21
-10.730062502441619
31
0
0
LINE
5
141
100
AcDbEntity
8
0
100
AcDbLine
10
-21
20
-10.730062502441619
30
0
11
-21
21
-9.7899374975584017
31
0
0
LINE
5
142
100
AcDbEntity
8
0
100
AcDbLine
10
-21
20
-9.7899374975584017
30
0
11
-21
21
-8.1900625024416289
31
0
0
LINE
5
143
100
AcDbEntity
8
0
100
AcDbLine
10
-21
20
-8.1900625024416289
30
0
11
-21
21
-7.2499374975584008
31
0
0
LINE
5
144
100
AcDbEntity
8
0
100
AcDbLine
10
-21
20
-7.2499374975584008
30
0
11
-21
21
-5.6500625024416298
31
0
0
LINE
5
145
100
AcDbEntity
8
0
100
AcDbLine
10
-21
20
-5.6500625024416298
30
0
11
-21
21
-4.7099374975583999
31
0
0
LINE
5
146
100
AcDbEntity
8
0
100
AcDbLine
10
-21
20
-4.7099374975583999
30
0
11
-21
21
-3.1100625024416253
31
0
0
LINE
5
147
100
AcDbEntity
8
0
100
AcDbLine
10
-21
20
-3.1100625024416253
30
0
11
-21
21
-2.1699374975583954
31
0
0
LINE
5
148
100
AcDbEntity
8
0
100
AcDbLine
10
-21
20
-2.1699374975583954
30
0
11
-21
21
-0.57006250244162504
31
0
0
LINE
5
149
100
AcDbEntity
8
0
100
AcDbLine
10
3.469446951953615e-15
20
-0.57006250244162504
30
0
11
3.469446951953615e-15
21
-2.1699374975583954
31
0
0
LINE
5
150
100
AcDbEntity
8
0
100
AcDbLine
10
3.469446951953615e-15
20
-2.1699374975583954
30
0
11
3.469446951953615e-15
21
-3.1100625024416253
31
0
0
LINE
5
151
100
AcDbEntity
8
0
100
AcDbLine
10
3.469446951953615e-15
20
-3.1100625024416253
30
0
11
3.469446951953615e-15
21
-4.7099374975583999
31
0
0
LINE
5
152
100
AcDbEntity
8
0
100
AcDbLine
10
3.469446951953615e-15
20
-4.7099374975583999
30
0
11
3.469446951953615e-15
21
-5.6500625024416298
31
0
0
LINE
5
153
100
AcDbEntity
8
0
100
AcDbLine
10
3.469446951953615e-15
20
-5.6500625024416298
30
0
11
3.469446951953615e-15
21
-7.2499374975584008
31
0
0
LINE
5
154
100
AcDbEntity
8
0
100
AcDbLine
10
3.469446951953615e-15
20
-7.2499374975584008
30
0
11
3.469446951953615e-15
21
-8.1900625024416289
31
0
0
LINE
5
155
100
AcDbEntity
8
0
100
AcDbLine
10
3.469446951953615e-15
20
-8.1900625024416289
30
0
11
3.469446951953615e-15
21
-9.7899374975584017
31
0
0
LINE
5
156
100
AcDbEntity
8
0
100
AcDbLine
10
3.469446951953615e-15
20
-9.7899374975584017
30
0
11
3.469446951953615e-15
21
-10.730062502441619
31
0
0
LINE
5
157
100
AcDbEntity
8
0
100
AcDbLine
10
3.469446951953615e-15
20
-10.730062502441619
30
0
11
3.469446951953615e-15
21
-12.329937497558401
31
0
0
LINE
5
158
100
AcDbEntity
8
0
100
AcDbLine
10
3.469446951953615e-15
20
-12.329937497558401
30
0
11
3.469446951953615e-15
21
-13.270062502441622
31
0
0
LINE
5
159
100
AcDbEntity
8
0
100
AcDbLine
10
3.469446951953615e-15
20
-13.270062502441622
30
0
11
3.469446951953615e-15
21
-14.8699374975584
31
0
0
LINE
5
160
100
AcDbEntity
8
0
100
AcDbLine
10
3.469446951953615e-15
20
-14.8699374975584
30
0
11
3.469446951953615e-15
21
-15.810062502441653
31
0
0
LINE
5
161
100
AcDbEntity
8
0
100
AcDbLine
10
3.469446951953615e-15
20
-15.810062502441653
30
0
11
3.469446951953615e-15
21
-17.409937497558403
31
0
0
LINE
5
162
100
AcDbEntity
8
0
100
AcDbLine
10
3.469446951953615e-15
20
-17.409937497558403
30
0
11
3.469446951953615e-15
21
-18.350062502441652
31
0
0
LINE
5
163
100
AcDbEntity
8
0
100
AcDbLine
10
3.469446951953615e-15
20
-18.350062502441652
30
0
11
3.469446951953615e-15
21
-19.949937497558398
31
0
0
LINE
5
164
100
AcDbEntity
8
0
100
AcDbLine
10
3.469446951953615e-15
20
-19.949937497558398
30
0
11
3.469446951953615e-15
21
-20.890062502441651
31
0
0
LINE
5
165
100
AcDbEntity
8
0
100
AcDbLine
10
3.469446951953615e-15
20
-20.890062502441651
30
0
11
3.469446951953615e-15
21
-22.489937497558397
31
0
0
LINE
5
166
100
AcDbEntity
8
0
100
AcDbLine
10
3.469446951953615e-15
20
-22.489937497558397
30
0
11
3.469446951953615e-15
21
-23.430062502441654
31
0
0
LINE
5
167
100
AcDbEntity
8
0
100
AcDbLine
10
3.469446951953615e-15
20
-23.430062502441654
30
0
11
3.469446951953615e-15
21
-25.0299374975584
31
0
0
LINE
5
168
100
AcDbEntity
8
0
100
AcDbLine
10
3.469446951953615e-15
20
-25.0299374975584
30
0
11
3.469446951953615e-15
21
-25.970062502441653
31
0
0
LINE
5
169
100
AcDbEntity
8
0
100
AcDbLine
10
3.469446951953615e-15
20
-25.970062502441653
30
0
11
3.469446951953615e-15
21
-27.569937497558399
31
0
0
LINE
5
170
100
AcDbEntity
8
0
100
AcDbLine
10
3.469446951953615e-15
20
-27.569937497558399
30
0
11
3.469446951953615e-15
21
-28.510062502441649
31
0
0
LINE
5
171
100
AcDbEntity
8
0
100
AcDbLine
10
3.469446951953615e-15
20
-28.510062502441649
30
0
11
3.469446951953615e-15
21
-30.109937497558406
31
0
0
LINE
5
172
100
AcDbEntity
8
0
100
AcDbLine
10
3.469446951953615e-15
20
-30.109937497558406
30
0
11
3.469446951953615e-15
21
-31.050062502441655
31
0
0
LINE
5
173
100
AcDbEntity
8
0
100
AcDbLine
10
3.469446951953615e-15
20
-31.050062502441655
30
0
11
3.469446951953615e-15
21
-32.649937497558398
31
0
0
LINE
5
174
100
AcDbEntity
8
0
100
AcDbLine
10
3.469446951953615e-15
20
-32.649937497558398
30
0
11
3.469446951953615e-15
21
-33.590062502441647
31
0
0
LINE
5
175
100
AcDbEntity
8
0
100
AcDbLine
10
3.469446951953615e-15
20
-33.590062502441647
30
0
11
3.469446951953615e-15
21
-35.189937497558404
31
0
0
LINE
5
176
100
AcDbEntity
8
0
100
AcDbLine
10
3.469446951953615e-15
20
-35.189937497558404
30
0
11
3.469446951953615e-15
21
-36.130062502441604
31
0
0
LINE
5
177
100
AcDbEntity
8
0
100
AcDbLine
10
3.469446951953615e-15
20
-36.130062502441604
30
0
11
3.469446951953615e-15
21
-37.729937497558403
31
0
0
LINE
5
178
100
AcDbEntity
8
0
100
AcDbLine
10
3.469446951953615e-15
20
-37.729937497558403
30
0
11
3.469446951953615e-15
21
-38.670062502441652
31
0
0
LINE
5
179
100
AcDbEntity
8
0
100
AcDbLine
10
3.469446951953615e-15
20
-38.670062502441652
30
0
11
3.469446951953615e-15
21
-40.269937497558395
31
0
0
LINE
5
180
100
AcDbEntity
8
0
100
AcDbLine
10
3.469446951953615e-15
20
-40.269937497558395
30
0
11
3.469446951953615e-15
21
-41.210062502441652
31
0
0
LINE
5
181
100
AcDbEntity
8
0
100
AcDbLine
10
3.469446951953615e-15
20
-41.210062502441652
30
0
11
3.469446951953615e-15
21
-42.809937497558394
31
0
0
LINE
5
182
100
AcDbEntity
8
0
100
AcDbLine
10
3.469446951953615e-15
20
-42.809937497558394
30
0
11
3.469446951953615e-15
21
-43.750062502441608
31
0
0
LINE
5
183
100
AcDbEntity
8
0
100
AcDbLine
10
3.469446951953615e-15
20
-43.750062502441608
30
0
11
3.469446951953615e-15
21
-45.349937497558408
31
0
0
LINE
5
184
100
AcDbEntity
8
0
100
AcDbLine
10
3.469446951953615e-15
20
-45.349937497558408
30
0
11
3.469446951953615e-15
21
-46.2900625024416
31
0
0
LINE
5
185
100
AcDbEntity
8
0
100
AcDbLine
10
3.469446951953615e-15
20
-46.2900625024416
30
0
11
3.469446951953615e-15
21
-47.8899374975584
31
0
0
LINE
5
186
100
AcDbEntity
8
0
100
AcDbLine
10
3.469446951953615e-15
20
-47.8899374975584
30
0
11
3.469446951953615e-15
21
-48.830062502441606
31
0
0
LINE
5
187
100
AcDbEntity
8
0
100
AcDbLine
10
3.469446951953615e-15
20
-48.830062502441606
30
0
11
3.469446951953615e-15
21
-50.429937497558406
31
0
0
ENDSEC
0
SECTION
2
OBJECTS
0
DICTIONARY
5
C
100
AcDbDictionary
3
ACAD_GROUP
350
D
3
ACAD_MLINESTYLE
350
17
0
DICTIONARY
5
D
100
AcDbDictionary
0
DICTIONARY
5
1A
330
C
100
AcDbDictionary
0
DICTIONARY
5
17
100
AcDbDictionary
0
ENDSEC
0
EOF
