0
SECTION
2
HEADER
9
$INSUNITS
70
4
9
$ACADVER
1
AC1014
9
$HANDSEED
5
FFFF
0
ENDSEC
0
SECTION
2
TABLES
0
TABLE
2
VPORT
5
8
100
AcDbSymbolTable
0
ENDTAB
0
TABLE
2
LTYPE
5
5
100
AcDbSymbolTable
0
LTYPE
5
14
100
AcDbSymbolTableRecord
100
AcDbLinetypeTableRecord
2
BYBLOCK
70
0
0
LTYPE
5
15
100
AcDbSymbolTableRecord
100
AcDbLinetypeTableRecord
2
BYLAYER
70
0
0
LTYPE
5
16
100
AcDbSymbolTableRecord
100
AcDbLinetypeTableRecord
2
DASHED
70
0
3
Dashed __ __ __ __ __ __ __ __ __ __ __ __ __ _
72
65
73
2
40
0.75
49
0.5
74
0
49
-0.25
74
0
0
ENDTAB
0
TABLE
2
LAYER
5
2
100
AcDbSymbolTable
70
2
0
LAYER
5
50
100
AcDbSymbolTableRecord
100
AcDbLayerTableRecord
2
0
70
0
62
7
6
CONTINUOUS
0
ENDTAB
0
TABLE
2
STYLE
5
3
100
AcDbSymbolTable
70
1
0
STYLE
5
11
100
AcDbSymbolTableRecord
100
AcDbTextStyleTableRecord
2
STANDARD
70
0
0
ENDTAB
0
TABLE
2
VIEW
5
6
100
AcDbSymbolTable
70
0
0
ENDTAB
0
TABLE
2
UCS
5
7
100
AcDbSymbolTable
70
0
0
ENDTAB
0
TABLE
2
APPID
5
9
100
AcDbSymbolTable
70
2
0
APPID
5
12
100
AcDbSymbolTableRecord
100
AcDbRegAppTableRecord
2
ACAD
70
0
0
ENDTAB
0
TABLE
2
DIMSTYLE
5
A
100
AcDbSymbolTable
70
1
0
ENDTAB
0
TABLE
2
BLOCK_RECORD
5
1
100
AcDbSymbolTable
70
1
0
BLOCK_RECORD
5
1F
100
AcDbSymbolTableRecord
100
AcDbBlockTableRecord
2
*MODEL_SPACE
0
BLOCK_RECORD
5
1B
100
AcDbSymbolTableRecord
100
AcDbBlockTableRecord
2
*PAPER_SPACE
0
ENDTAB
0
ENDSEC
0
SECTION
2
BLOCKS
0
BLOCK
5
20
100
AcDbEntity
100
AcDbBlockBegin
2
*MODEL_SPACE
0
ENDBLK
5
21
100
AcDbEntity
100
AcDbBlockEnd
0
BLOCK
5
1C
100
AcDbEntity
100
AcDbBlockBegin
2
*PAPER_SPACE
0
ENDBLK
5
1D
100
AcDbEntity
100
AcDbBlockEnd
0
ENDSEC
0
SECTION
2
ENTITIES
0
LINE
5
100
100
AcDbEntity
8
0
100
AcDbLine
10
-2
20
-0.57006250244162615
30
0
11
-2
21
-50.429937497558406
31
0
0
LINE
5
101
100
AcDbEntity
8
0
100
AcDbLine
10
-2
20
-50.429937497558406
30
0
11
0
21
-50.429937497558406
31
0
0
LINE
5
102
100
AcDbEntity
8
0
100
AcDbLine
10
0
20
-50.429937497558406
30
0
11
0
21
-88.45840863011378
31
0
0
LINE
5
103
100
AcDbEntity
8
0
100
AcDbLine
10
0
20
-88.45840863011378
30
0
11
2
21
-88.45840863011378
31
0
0
LINE
5
104
100
AcDbEntity
8
0
100
AcDbLine
10
2
20
-88.45840863011378
30
0
11
2
21
6.9999999999999929
31
0
0
LINE
5
105
100
AcDbEntity
8
0
100
AcDbLine
10
2
20
6.9999999999999929
30
0
11
0
21
7
31
0
0
LINE
5
106
100
AcDbEntity
8
0
100
AcDbLine
10
2
20
6.9999999999999929
30
0
11
-2.6246247147778941
21
6.9999999999999929
31
0
0
LINE
5
107
100
AcDbEntity
8
0
100
AcDbLine
10
-2.6246247147778941
20
6.9999999999999929
30
0
11
-2.6246247147778941
21
-52.144996195949425
31
0
0
LINE
5
108
100
AcDbEntity
8
0
100
AcDbLine
10
-2.6246247147778941
20
-52.144996195949425
30
0
11
2
21
-52.144996195949425
31
0
0
LINE
5
109
100
AcDbEntity
8
0
100
AcDbLine
10
2
20
-52.144996195949425
30
0
11
2
21
6.9999999999999929
31
0
0
LWPOLYLINE
5
110
100
AcDbEntity
8
0
100
AcDbPolyline
90
2
70
1
43
0.0
10
0
20
-50.429937497558406
10
0.5
20
-50.429937497558406
0
LINE
5
111
100
AcDbEntity
8
0
100
AcDbLine
10
0
20
7
30
0
11
0
21
-0.57006250244162504
31
0
0
LINE
5
112
100
AcDbEntity
8
0
100
AcDbLine
10
0
20
-0.57006250244162504
30
0
11
-2
21
-0.57006250244162615
31
0
0
LWPOLYLINE
5
113
100
AcDbEntity
8
0
100
AcDbPolyline
90
2
70
1
43
0.0
10
0
20
-0.57006250244162504
10
0.5
20
-0.57006250244162504
0
LWPOLYLINE
5
114
100
AcDbEntity
8
0
100
AcDbPolyline
90
2
70
1
43
0.0
10
0
20
-48.830062502441606
10
0.5
20
-48.830062502441606
0
LWPOLYLINE
5
115
100
AcDbEntity
8
0
100
AcDbPolyline
90
2
70
1
43
0.0
10
0
20
-47.8899374975584
10
0.5
20
-47.8899374975584
0
LWPOLYLINE
5
116
100
AcDbEntity
8
0
100
AcDbPolyline
90
2
70
1
43
0.0
10
0
20
-46.2900625024416
10
0.5
20
-46.2900625024416
0
LWPOLYLINE
5
117
100
AcDbEntity
8
0
100
AcDbPolyline
90
2
70
1
43
0.0
10
0
20
-45.349937497558408
10
0.5
20
-45.349937497558408
0
LWPOLYLINE
5
118
100
AcDbEntity
8
0
100
AcDbPolyline
90
2
70
1
43
0.0
10
0
20
-43.750062502441608
10
0.5
20
-43.750062502441608
0
LWPOLYLINE
5
119
100
AcDbEntity
8
0
100
AcDbPolyline
90
2
70
1
43
0.0
10
0
20
-42.809937497558394
10
0.5
20
-42.809937497558394
0
LWPOLYLINE
5
120
100
AcDbEntity
8
0
100
AcDbPolyline
90
2
70
1
43
0.0
10
0
20
-41.210062502441652
10
0.5
20
-41.210062502441602
0
LWPOLYLINE
5
121
100
AcDbEntity
8
0
100
AcDbPolyline
90
2
70
1
43
0.0
10
0
20
-40.269937497558395
10
0.5
20
-40.269937497558395
0
LWPOLYLINE
5
122
100
AcDbEntity
8
0
100
AcDbPolyline
90
2
70
1
43
0.0
10
0
20
-38.670062502441652
10
0.5
20
-38.670062502441603
0
LWPOLYLINE
5
123
100
AcDbEntity
8
0
100
AcDbPolyline
90
2
70
1
43
0.0
10
0
20
-37.729937497558403
10
0.5
20
-37.729937497558403
0
LWPOLYLINE
5
124
100
AcDbEntity
8
0
100
AcDbPolyline
90
2
70
1
43
0.0
10
0
20
-36.130062502441604
10
0.5
20
-36.130062502441604
0
LWPOLYLINE
5
125
100
AcDbEntity
8
0
100
AcDbPolyline
90
2
70
1
43
0.0
10
0
20
-35.189937497558404
10
0.5
20
-35.189937497558404
0
LWPOLYLINE
5
126
100
AcDbEntity
8
0
100
AcDbPolyline
90
2
70
1
43
0.0
10
0
20
-33.590062502441647
10
0.5
20
-33.590062502441597
0
LWPOLYLINE
5
127
100
AcDbEntity
8
0
100
AcDbPolyline
90
2
70
1
43
0.0
10
0
20
-32.649937497558398
10
0.5
20
-32.649937497558398
0
LWPOLYLINE
5
128
100
AcDbEntity
8
0
100
AcDbPolyline
90
2
70
1
43
0.0
10
0
20
-31.050062502441655
10
0.5
20
-31.050062502441598
0
LWPOLYLINE
5
129
100
AcDbEntity
8
0
100
AcDbPolyline
90
2
70
1
43
0.0
10
0
20
-30.109937497558406
10
0.5
20
-30.109937497558406
0
LWPOLYLINE
5
130
100
AcDbEntity
8
0
100
AcDbPolyline
90
2
70
1
43
0.0
10
0
20
-28.510062502441649
10
0.5
20
-28.510062502441599
0
LWPOLYLINE
5
131
100
AcDbEntity
8
0
100
AcDbPolyline
90
2
70
1
43
0.0
10
0
20
-27.569937497558399
10
0.5
20
-27.569937497558399
0
LWPOLYLINE
5
132
100
AcDbEntity
8
0
100
AcDbPolyline
90
2
70
1
43
0.0
10
0
20
-25.970062502441653
10
0.5
20
-25.9700625024416
0
LWPOLYLINE
5
133
100
AcDbEntity
8
0
100
AcDbPolyline
90
2
70
1
43
0.0
10
0
20
-25.0299374975584
10
0.5
20
-25.0299374975584
0
LWPOLYLINE
5
134
100
AcDbEntity
8
0
100
AcDbPolyline
90
2
70
1
43
0.0
10
0
20
-23.430062502441654
10
0.5
20
-23.430062502441601
0
LWPOLYLINE
5
135
100
AcDbEntity
8
0
100
AcDbPolyline
90
2
70
1
43
0.0
10
0
20
-22.489937497558397
10
0.5
20
-22.489937497558397
0
LWPOLYLINE
5
136
100
AcDbEntity
8
0
100
AcDbPolyline
90
2
70
1
43
0.0
10
0
20
-20.890062502441651
10
0.5
20
-20.890062502441602
0
LWPOLYLINE
5
137
100
AcDbEntity
8
0
100
AcDbPolyline
90
2
70
1
43
0.0
10
0
20
-19.949937497558398
10
0.5
20
-19.949937497558398
0
LWPOLYLINE
5
138
100
AcDbEntity
8
0
100
AcDbPolyline
90
2
70
1
43
0.0
10
0
20
-18.350062502441652
10
0.5
20
-18.350062502441599
0
LWPOLYLINE
5
139
100
AcDbEntity
8
0
100
AcDbPolyline
90
2
70
1
43
0.0
10
0
20
-17.409937497558403
10
0.5
20
-17.409937497558449
0
LWPOLYLINE
5
140
100
AcDbEntity
8
0
100
AcDbPolyline
90
2
70
1
43
0.0
10
0
20
-15.810062502441653
10
0.5
20
-15.810062502441653
0
LWPOLYLINE
5
141
100
AcDbEntity
8
0
100
AcDbPolyline
90
2
70
1
43
0.0
10
0
20
-14.8699374975584
10
0.5
20
-14.869937497558421
0
LWPOLYLINE
5
142
100
AcDbEntity
8
0
100
AcDbPolyline
90
2
70
1
43
0.0
10
0
20
-13.270062502441622
10
0.5
20
-13.270062502441622
0
LWPOLYLINE
5
143
100
AcDbEntity
8
0
100
AcDbPolyline
90
2
70
1
43
0.0
10
0
20
-12.329937497558401
10
0.5
20
-12.329937497558419
0
LWPOLYLINE
5
144
100
AcDbEntity
8
0
100
AcDbPolyline
90
2
70
1
43
0.0
10
0
20
-10.730062502441619
10
0.5
20
-10.730062502441619
0
LWPOLYLINE
5
145
100
AcDbEntity
8
0
100
AcDbPolyline
90
2
70
1
43
0.0
10
0
20
-9.7899374975584017
10
0.5
20
-9.7899374975584283
0
LWPOLYLINE
5
146
100
AcDbEntity
8
0
100
AcDbPolyline
90
2
70
1
43
0.0
10
0
20
-8.1900625024416289
10
0.5
20
-8.19006250244162
0
LWPOLYLINE
5
147
100
AcDbEntity
8
0
100
AcDbPolyline
90
2
70
1
43
0.0
10
0
20
-7.2499374975584008
10
0.5
20
-7.249937497558391
0
LWPOLYLINE
5
148
100
AcDbEntity
8
0
100
AcDbPolyline
90
2
70
1
43
0.0
10
0
20
-5.6500625024416298
10
0.5
20
-5.6500625024416191
0
LWPOLYLINE
5
149
100
AcDbEntity
8
0
100
AcDbPolyline
90
2
70
1
43
0.0
10
0
20
-4.7099374975583999
10
0.5
20
-4.7099374975584301
0
LWPOLYLINE
5
150
100
AcDbEntity
8
0
100
AcDbPolyline
90
2
70
1
43
0.0
10
0
20
-3.1100625024416253
10
0.5
20
-3.1100625024416253
0
LWPOLYLINE
5
151
100
AcDbEntity
8
0
100
AcDbPolyline
90
2
70
1
43
0.0
10
0
20
-2.1699374975583954
10
0.5
20
-2.16993749755843
0
ENDSEC
0
SECTION
2
OBJECTS
0
DICTIONARY
5
C
100
AcDbDictionary
3
ACAD_GROUP
350
D
3
ACAD_MLINESTYLE
350
17
0
DICTIONARY
5
D
100
AcDbDictionary
0
DICTIONARY
5
1A
330
C
100
AcDbDictionary
0
DICTIONARY
5
17
100
AcDbDictionary
0
ENDSEC
0
EOF
