0
SECTION
2
HEADER
9
$INSUNITS
70
4
9
$ACADVER
1
AC1014
9
$HANDSEED
5
FFFF
0
ENDSEC
0
SECTION
2
TABLES
0
TABLE
2
VPORT
5
8
100
AcDbSymbolTable
0
ENDTAB
0
TABLE
2
LTYPE
5
5
100
AcDbSymbolTable
0
LTYPE
5
14
100
AcDbSymbolTableRecord
100
AcDbLinetypeTableRecord
2
BYBLOCK
70
0
0
LTYPE
5
15
100
AcDbSymbolTableRecord
100
AcDbLinetypeTableRecord
2
BYLAYER
70
0
0
LTYPE
5
16
100
AcDbSymbolTableRecord
100
AcDbLinetypeTableRecord
2
DASHED
70
0
3
Dashed __ __ __ __ __ __ __ __ __ __ __ __ __ _
72
65
73
2
40
0.75
49
0.5
74
0
49
-0.25
74
0
0
ENDTAB
0
TABLE
2
LAYER
5
2
100
AcDbSymbolTable
70
2
0
LAYER
5
50
100
AcDbSymbolTableRecord
100
AcDbLayerTableRecord
2
0
70
0
62
7
6
CONTINUOUS
0
ENDTAB
0
TABLE
2
STYLE
5
3
100
AcDbSymbolTable
70
1
0
STYLE
5
11
100
AcDbSymbolTableRecord
100
AcDbTextStyleTableRecord
2
STANDARD
70
0
0
ENDTAB
0
TABLE
2
VIEW
5
6
100
AcDbSymbolTable
70
0
0
ENDTAB
0
TABLE
2
UCS
5
7
100
AcDbSymbolTable
70
0
0
ENDTAB
0
TABLE
2
APPID
5
9
100
AcDbSymbolTable
70
2
0
APPID
5
12
100
AcDbSymbolTableRecord
100
AcDbRegAppTableRecord
2
ACAD
70
0
0
ENDTAB
0
TABLE
2
DIMSTYLE
5
A
100
AcDbSymbolTable
70
1
0
ENDTAB
0
TABLE
2
BLOCK_RECORD
5
1
100
AcDbSymbolTable
70
1
0
BLOCK_RECORD
5
1F
100
AcDbSymbolTableRecord
100
AcDbBlockTableRecord
2
*MODEL_SPACE
0
BLOCK_RECORD
5
1B
100
AcDbSymbolTableRecord
100
AcDbBlockTableRecord
2
*PAPER_SPACE
0
ENDTAB
0
ENDSEC
0
SECTION
2
BLOCKS
0
BLOCK
5
20
100
AcDbEntity
100
AcDbBlockBegin
2
*MODEL_SPACE
0
ENDBLK
5
21
100
AcDbEntity
100
AcDbBlockEnd
0
BLOCK
5
1C
100
AcDbEntity
100
AcDbBlockBegin
2
*PAPER_SPACE
0
ENDBLK
5
1D
100
AcDbEntity
100
AcDbBlockEnd
0
ENDSEC
0
SECTION
2
ENTITIES
0
LWPOLYLINE
5
100
100
AcDbEntity
8
0
100
AcDbPolyline
90
12
70
1
43
0.0
10
-8.3493272007364361
20
-82.291457544385821
10
-19.805565991280186
20
-81.289166523567289
10
-19.672929913402172
20
-79.773129216188451
10
-13.99169822246385
20
-80.270172584009771
10
-19.175202846491384
20
-74.08408280889816
10
-18.995392115864828
20
-72.028836753238892
10
-14.773975829053763
20
-77.240943328664756
10
-7.5206937096497786
20
-72.820133401445588
10
-7.6957185466500526
20
-74.820676442641016
10
-13.851056564104391
20
-78.392612125842646
10
-12.186520714954609
20
-80.428105151568815
10
-8.2166911228584194
20
-80.775420237006983
0
LINE
5
101
100
AcDbEntity
8
0
100
AcDbLine
10
-9.6012180837682877
20
-65.818845136011078
30
0
11
-9.2943161043893188
21
-64.381050527206057
31
0
0
SPLINE
5
102
100
AcDbEntity
8
0
100
AcDbSpline
70
0
71
2
72
6
73
3
74
0
42
0.000000001
43
0.0000000001
44
0.0000000001
40
0
40
0
40
0
40
1
40
1
40
1
10
-9.2943161043893205
20
-64.381050527206057
30
0
10
-8.0506145278204571
20
-64.83633494932819
30
0
10
-7.4286576775548241
20
-65.827808291750188
30
0
0
SPLINE
5
103
100
AcDbEntity
8
0
100
AcDbSpline
70
0
71
2
72
6
73
3
74
0
42
0.000000001
43
0.0000000001
44
0.0000000001
40
0
40
0
40
0
40
1
40
1
40
1
10
-7.4286576775548241
20
-65.827808291750188
30
0
10
-6.80670072339145
20
-66.819280446615565
30
0
10
-6.9331835484259008
20
-68.264985752160328
30
0
0
SPLINE
5
104
100
AcDbEntity
8
0
100
AcDbSpline
70
0
71
2
72
6
73
3
74
0
42
0.000000001
43
0.0000000001
44
0.0000000001
40
0
40
0
40
0
40
1
40
1
40
1
10
-6.9331835484259008
20
-68.264985752160328
30
0
10
-7.0924836180616202
20
-70.085793879930151
30
0
10
-8.3072064051995493
20
-71.054379599525021
30
0
0
SPLINE
5
105
100
AcDbEntity
8
0
100
AcDbSpline
70
0
71
2
72
6
73
3
74
0
42
0.000000001
43
0.0000000001
44
0.0000000001
40
0
40
0
40
0
40
1
40
1
40
1
10
-8.3072064051995493
20
-71.054379599525021
30
0
10
-9.5219281086785994
20
-72.022966610574244
30
0
10
-11.545915298929955
20
-71.845890676305558
30
0
0
SPLINE
5
106
100
AcDbEntity
8
0
100
AcDbSpline
70
0
71
2
72
6
73
3
74
0
42
0.000000001
43
0.0000000001
44
0.0000000001
40
0
40
0
40
0
40
1
40
1
40
1
10
-11.545915298929955
20
-71.845890676305558
30
0
10
-13.640235530127423
20
-71.662661398282793
30
0
10
-14.702450561847385
20
-70.483057334415435
30
0
0
SPLINE
5
107
100
AcDbEntity
8
0
100
AcDbSpline
70
0
71
2
72
6
73
3
74
0
42
0.000000001
43
0.0000000001
44
0.0000000001
40
0
40
0
40
0
40
1
40
1
40
1
10
-14.702450561847385
20
-70.483057334415435
30
0
10
-15.764665489669607
20
-69.303452082991456
30
0
10
-15.614253560145849
20
-67.584235861575664
30
0
0
SPLINE
5
108
100
AcDbEntity
8
0
100
AcDbSpline
70
0
71
2
72
6
73
3
74
0
42
0.000000001
43
0.0000000001
44
0.0000000001
40
0
40
0
40
0
40
1
40
1
40
1
10
-15.614253560145849
20
-67.584235861575664
30
0
10
-15.468627368401759
20
-65.919720873288767
30
0
10
-14.243208170438177
20
-64.963880672657552
30
0
0
SPLINE
5
109
100
AcDbEntity
8
0
100
AcDbSpline
70
0
71
2
72
6
73
3
74
0
42
0.000000001
43
0.0000000001
44
0.0000000001
40
0
40
0
40
0
40
1
40
1
40
1
10
-14.243208170438177
20
-64.963880672657552
30
0
10
-13.017789774048385
20
-64.008042795190704
30
0
10
-10.962543124610807
20
-64.187853577766134
30
0
0
SPLINE
5
110
100
AcDbEntity
8
0
100
AcDbSpline
70
0
71
2
72
6
73
3
74
0
42
0.000000001
43
0.0000000001
44
0.0000000001
40
0
40
0
40
0
40
1
40
1
40
1
10
-10.962543124610807
20
-64.187853577766134
30
0
10
-10.837508850535793
20
-64.198792659299897
30
0
10
-10.588125137082985
20
-64.228484841043326
30
0
0
LINE
5
111
100
AcDbEntity
8
0
100
AcDbLine
10
-10.588125137082985
20
-64.228484841043326
30
0
11
-11.129608374282187
21
-70.417666563298752
31
0
0
SPLINE
5
112
100
AcDbEntity
8
0
100
AcDbSpline
70
0
71
2
72
6
73
3
74
0
42
0.000000001
43
0.0000000001
44
0.0000000001
40
0
40
0
40
0
40
1
40
1
40
1
10
-11.129608374282187
20
-70.417666563298752
30
0
10
-9.7552121577036193
20
-70.459166525373092
30
0
10
-8.9676040039147509
20
-69.82724891280931
30
0
0
SPLINE
5
113
100
AcDbEntity
8
0
100
AcDbSpline
70
0
71
2
72
6
73
3
74
0
42
0.000000001
43
0.0000000001
44
0.0000000001
40
0
40
0
40
0
40
1
40
1
40
1
10
-8.9676040039147509
20
-69.82724891280931
30
0
10
-8.1799945586715204
20
-69.19533021658664
30
0
10
-8.0890636706984722
20
-68.155985411118195
30
0
0
SPLINE
5
114
100
AcDbEntity
8
0
100
AcDbSpline
70
0
71
2
72
6
73
3
74
0
42
0.000000001
43
0.0000000001
44
0.0000000001
40
0
40
0
40
0
40
1
40
1
40
1
10
-8.0890636706984722
20
-68.155985411118195
30
0
10
-8.0213782400741369
20
-67.382337398947115
30
0
10
-8.3798804272741094
20
-66.799762442587038
30
0
0
SPLINE
5
115
100
AcDbEntity
8
0
100
AcDbSpline
70
0
71
2
72
6
73
3
74
0
42
0.000000001
43
0.0000000001
44
0.0000000001
40
0
40
0
40
0
40
1
40
1
40
1
10
-8.3798804272741094
20
-66.799762442587038
30
0
10
-8.73838251057634
20
-66.217186298670342
30
0
10
-9.6012180837682877
20
-65.818845136011078
30
0
0
LINE
5
116
100
AcDbEntity
8
0
100
AcDbLine
10
-12.279335256698412
20
-70.238334368867129
30
0
11
-11.873906527888478
21
-65.604262793527539
31
0
0
SPLINE
5
117
100
AcDbEntity
8
0
100
AcDbSpline
70
0
71
2
72
6
73
3
74
0
42
0.000000001
43
0.0000000001
44
0.0000000001
40
0
40
0
40
0
40
1
40
1
40
1
10
-11.873906527888478
20
-65.604262793527539
30
0
10
-12.929270928663092
20
-65.60642356318327
30
0
10
-13.491137615983996
20
-65.99823442160519
30
0
0
SPLINE
5
118
100
AcDbEntity
8
0
100
AcDbSpline
70
0
71
2
72
6
73
3
74
0
42
0.000000001
43
0.0000000001
44
0.0000000001
40
0
40
0
40
0
40
1
40
1
40
1
10
-13.491137615983996
20
-65.99823442160519
30
0
10
-14.362656114444512
20
-66.599189028412695
30
0
10
-14.456321798775431
20
-67.669792699289047
30
0
0
SPLINE
5
119
100
AcDbEntity
8
0
100
AcDbSpline
70
0
71
2
72
6
73
3
74
0
42
0.000000001
43
0.0000000001
44
0.0000000001
40
0
40
0
40
0
40
1
40
1
40
1
10
-14.456321798775431
20
-67.669792699289047
30
0
10
-14.54109944689213
20
-68.638805651368003
30
0
10
-13.950257632495278
20
-69.355888109971772
30
0
0
SPLINE
5
120
100
AcDbEntity
8
0
100
AcDbSpline
70
0
71
2
72
6
73
3
74
0
42
0.000000001
43
0.0000000001
44
0.0000000001
40
0
40
0
40
0
40
1
40
1
40
1
10
-13.950257632495278
20
-69.355888109971772
30
0
10
-13.359415120422371
20
-70.072969432967795
30
0
10
-12.279335256698412
20
-70.238334368867129
30
0
0
LINE
5
121
100
AcDbEntity
8
0
100
AcDbLine
10
-6.3488471848023771
20
-59.425866331630672
30
0
11
-11.201728442884086
21
-59.001294236111093
31
0
0
LINE
5
122
100
AcDbEntity
8
0
100
AcDbLine
10
-11.201728442884086
20
-59.001294236111093
30
0
11
-18.191371441344163
21
-62.838838390966245
31
0
0
LINE
5
123
100
AcDbEntity
8
0
100
AcDbLine
10
-18.191371441344163
20
-62.838838390966245
30
0
11
-18.030020430286651
21
-60.994587895475433
31
0
0
LINE
5
124
100
AcDbEntity
8
0
100
AcDbLine
10
-18.030020430286651
20
-60.994587895475433
30
0
11
-14.378369866463419
21
-59.038350627737806
31
0
0
SPLINE
5
125
100
AcDbEntity
8
0
100
AcDbSpline
70
0
71
2
72
6
73
3
74
0
42
0.000000001
43
0.0000000001
44
0.0000000001
40
0
40
0
40
0
40
1
40
1
40
1
10
-14.378369866463421
20
-59.038350627737813
30
0
10
-13.35466122463059
20
-58.497960520098182
30
0
10
-12.338473502918127
20
-58.043528083933253
30
0
0
SPLINE
5
126
100
AcDbEntity
8
0
100
AcDbSpline
70
0
71
2
72
6
73
3
74
0
42
0.000000001
43
0.0000000001
44
0.0000000001
40
0
40
0
40
0
40
1
40
1
40
1
10
-12.338473502918127
20
-58.043528083933253
30
0
10
-13.192031574969691
20
-57.449138282276635
30
0
10
-14.2530700856274
20
-56.616111784027666
30
0
0
LINE
5
127
100
AcDbEntity
8
0
100
AcDbLine
10
-14.2530700856274
20
-56.616111784027659
30
0
11
-17.427004794523974
21
-54.102087639325163
31
0
0
LINE
5
128
100
AcDbEntity
8
0
100
AcDbLine
10
-17.427004794523974
20
-54.102087639325163
30
0
11
-17.272490774361145
21
-52.335984307354124
31
0
0
LINE
5
129
100
AcDbEntity
8
0
100
AcDbLine
10
-17.272490774361145
20
-52.335984307354124
30
0
11
-11.069092377993289
21
-57.48525707717684
31
0
0
LINE
5
130
100
AcDbEntity
8
0
100
AcDbLine
10
-11.069092377993289
20
-57.48525707717684
30
0
11
-6.2162111199115806
21
-57.909829172696419
31
0
0
LINE
5
131
100
AcDbEntity
8
0
100
AcDbLine
10
-6.2162111199115806
20
-57.909829172696419
30
0
11
-6.3488471848023771
21
-59.425866331630672
31
0
0
LINE
5
132
100
AcDbEntity
8
0
100
AcDbLine
10
-5.5995221257459837
20
-50.861041714846337
30
0
11
-5.7136984710677385
21
-52.166083313612141
31
0
0
LINE
5
133
100
AcDbEntity
8
0
100
AcDbLine
10
-5.7136984710677385
20
-52.166083313612141
30
0
11
-17.169937261611487
21
-51.163792292793616
31
0
0
LINE
5
134
100
AcDbEntity
8
0
100
AcDbLine
10
-17.169937261611487
20
-51.163792292793616
30
0
11
-17.046872880075512
21
-49.757159975230422
31
0
0
LINE
5
135
100
AcDbEntity
8
0
100
AcDbLine
10
-17.046872880075512
20
-49.757159975230422
30
0
11
-12.959824917812909
21
-50.114730339215122
31
0
0
SPLINE
5
136
100
AcDbEntity
8
0
100
AcDbSpline
70
0
71
2
72
6
73
3
74
0
42
0.000000001
43
0.0000000001
44
0.0000000001
40
0
40
0
40
0
40
1
40
1
40
1
10
-12.959824917812908
20
-50.114730339215129
30
0
10
-13.999375531903063
20
-49.126095536180458
30
0
10
-13.878362299584362
20
-47.742907961451508
30
0
0
SPLINE
5
137
100
AcDbEntity
8
0
100
AcDbSpline
70
0
71
2
72
6
73
3
74
0
42
0.000000001
43
0.0000000001
44
0.0000000001
40
0
40
0
40
0
40
1
40
1
40
1
10
-13.878362299584362
20
-47.742907961451508
30
0
10
-13.811360516100624
20
-46.977074071854084
30
0
10
-13.442859413061738
20
-46.320299047821877
30
0
0
SPLINE
5
138
100
AcDbEntity
8
0
100
AcDbSpline
70
0
71
2
72
6
73
3
74
0
42
0.000000001
43
0.0000000001
44
0.0000000001
40
0
40
0
40
0
40
1
40
1
40
1
10
-13.442859413061738
20
-46.320299047821877
30
0
10
-13.074359111596648
20
-45.663526346954043
30
0
10
-12.476985163891271
20
-45.270883807667971
30
0
0
SPLINE
5
139
100
AcDbEntity
8
0
100
AcDbSpline
70
0
71
2
72
6
73
3
74
0
42
0.000000001
43
0.0000000001
44
0.0000000001
40
0
40
0
40
0
40
1
40
1
40
1
10
-12.476985163891271
20
-45.270883807667971
30
0
10
-11.879610622407586
20
-44.878241320330758
30
0
10
-11.068455608243346
20
-44.697225549035124
30
0
0
SPLINE
5
140
100
AcDbEntity
8
0
100
AcDbSpline
70
0
71
2
72
6
73
3
74
0
42
0.000000001
43
0.0000000001
44
0.0000000001
40
0
40
0
40
0
40
1
40
1
40
1
10
-11.068455608243346
20
-44.697225549035124
30
0
10
-10.257300000300793
20
-44.516209829688371
30
0
10
-9.3586183078330087
20
-44.594834289897598
30
0
0
SPLINE
5
141
100
AcDbEntity
8
0
100
AcDbSpline
70
0
71
2
72
6
73
3
74
0
42
0.000000001
43
0.0000000001
44
0.0000000001
40
0
40
0
40
0
40
1
40
1
40
1
10
-9.3586183078330087
20
-44.594834289897598
30
0
10
-7.2252262762105879
20
-44.781481907521098
30
0
10
-6.153145586716855
20
-45.938327302756925
30
0
0
SPLINE
5
142
100
AcDbEntity
8
0
100
AcDbSpline
70
0
71
2
72
6
73
3
74
0
42
0.000000001
43
0.0000000001
44
0.0000000001
40
0
40
0
40
0
40
1
40
1
40
1
10
-6.153145586716855
20
-45.938327302756925
30
0
10
-5.081064897223122
20
-47.095172697992744
30
0
10
-5.210282310819963
20
-48.572134493832181
30
0
0
SPLINE
5
143
100
AcDbEntity
8
0
100
AcDbSpline
70
0
71
2
72
6
73
3
74
0
42
0.000000001
43
0.0000000001
44
0.0000000001
40
0
40
0
40
0
40
1
40
1
40
1
10
-5.210282310819963
20
-48.572134493832181
30
0
10
-5.3388162850716885
20
-50.041284542211201
30
0
10
-6.6388669312144284
20
-50.770110826873292
30
0
0
LINE
5
144
100
AcDbEntity
8
0
100
AcDbLine
10
-6.6388669312144284
20
-50.770110826873292
30
0
11
-5.5995221257459837
21
-50.861041714846337
31
0
0
SPLINE
5
145
100
AcDbEntity
8
0
100
AcDbSpline
70
0
71
2
72
6
73
3
74
0
42
0.000000001
43
0.0000000001
44
0.0000000001
40
0
40
0
40
0
40
1
40
1
40
1
10
-9.8129710625864863
20
-50.508160566424074
30
0
10
-8.3203786464864713
20
-50.638745482097598
30
0
10
-7.6205835386250431
20
-50.290498729290789
30
0
0
SPLINE
5
146
100
AcDbEntity
8
0
100
AcDbSpline
70
0
71
2
72
6
73
3
74
0
42
0.000000001
43
0.0000000001
44
0.0000000001
40
0
40
0
40
0
40
1
40
1
40
1
10
-7.6205835386250431
20
-50.290498729290789
30
0
10
-6.4762366877752209
20
-49.721288641000626
30
0
10
-6.3771016185240326
20
-48.588169614421695
30
0
0
SPLINE
5
147
100
AcDbEntity
8
0
100
AcDbSpline
70
0
71
2
72
6
73
3
74
0
42
0.000000001
43
0.0000000001
44
0.0000000001
40
0
40
0
40
0
40
1
40
1
40
1
10
-6.3771016185240326
20
-48.588169614421695
30
0
10
-6.2964260610464056
20
-47.666043772897964
30
0
10
-7.0386284829284502
20
-46.923908076112369
30
0
0
SPLINE
5
148
100
AcDbEntity
8
0
100
AcDbSpline
70
0
71
2
72
6
73
3
74
0
42
0.000000001
43
0.0000000001
44
0.0000000001
40
0
40
0
40
0
40
1
40
1
40
1
10
-7.0386284829284502
20
-46.923908076112369
30
0
10
-7.7808295094583908
20
-46.181770108111273
30
0
10
-9.3671985217821323
20
-46.042980803364131
30
0
0
SPLINE
5
149
100
AcDbEntity
8
0
100
AcDbSpline
70
0
71
2
72
6
73
3
74
0
42
0.000000001
43
0.0000000001
44
0.0000000001
40
0
40
0
40
0
40
1
40
1
40
1
10
-9.3671985217821323
20
-46.042980803364131
30
0
10
-10.99263992830914
20
-45.90077310706738
30
0
10
-11.822692569898244
20
-46.477795540808899
30
0
0
SPLINE
5
150
100
AcDbEntity
8
0
100
AcDbSpline
70
0
71
2
72
6
73
3
74
0
42
0.000000001
43
0.0000000001
44
0.0000000001
40
0
40
0
40
0
40
1
40
1
40
1
10
-11.822692569898244
20
-46.477795540808899
30
0
10
-12.652745003691866
20
-47.05481559943717
30
0
10
-12.732736914028894
20
-47.96912731838723
30
0
0
SPLINE
5
151
100
AcDbEntity
8
0
100
AcDbSpline
70
0
71
2
72
6
73
3
74
0
42
0.000000001
43
0.0000000001
44
0.0000000001
40
0
40
0
40
0
40
1
40
1
40
1
10
-12.732736914028894
20
-47.96912731838723
30
0
10
-12.813412471506522
20
-48.891253159910946
30
0
10
-12.071210643402788
20
-49.633388804747682
30
0
0
SPLINE
5
152
100
AcDbEntity
8
0
100
AcDbSpline
70
0
71
2
72
6
73
3
74
0
42
0.000000001
43
0.0000000001
44
0.0000000001
40
0
40
0
40
0
40
1
40
1
40
1
10
-12.071210643402788
20
-49.633388804747682
30
0
10
-11.329008815299055
20
-50.375524449584404
30
0
10
-9.8129710625864863
20
-50.508160566424074
30
0
0
SPLINE
5
153
100
AcDbEntity
8
0
100
AcDbSpline
70
0
71
2
72
6
73
3
74
0
42
0.000000001
43
0.0000000001
44
0.0000000001
40
0
40
0
40
0
40
1
40
1
40
1
10
-10.538545177419351
20
-43.050583207342768
30
0
10
-13.390883394305636
20
-42.801035948823476
30
0
10
-14.870599456226355
20
-41.128185995991664
30
0
0
SPLINE
5
154
100
AcDbEntity
8
0
100
AcDbSpline
70
0
71
2
72
6
73
3
74
0
42
0.000000001
43
0.0000000001
44
0.0000000001
40
0
40
0
40
0
40
1
40
1
40
1
10
-14.870599456226355
20
-41.128185995991664
30
0
10
-16.350315933738038
20
-39.455340793386348
30
0
10
-16.138371605650811
20
-37.032806038075705
30
0
0
SPLINE
5
155
100
AcDbEntity
8
0
100
AcDbSpline
70
0
71
2
72
6
73
3
74
0
42
0.000000001
43
0.0000000001
44
0.0000000001
40
0
40
0
40
0
40
1
40
1
40
1
10
-16.138371605650811
20
-37.032806038075705
30
0
10
-15.999582508699151
20
-35.446439400865202
30
0
10
-15.130121964677175
20
-34.238969949726219
30
0
0
SPLINE
5
156
100
AcDbEntity
8
0
100
AcDbSpline
70
0
71
2
72
6
73
3
74
0
42
0.000000001
43
0.0000000001
44
0.0000000001
40
0
40
0
40
0
40
1
40
1
40
1
10
-15.130121964677175
20
-34.238969949726219
30
0
10
-14.260661836246165
20
-33.031505248813716
30
0
10
-12.846369099446363
20
-32.481973005042484
30
0
0
SPLINE
5
157
100
AcDbEntity
8
0
100
AcDbSpline
70
0
71
2
72
6
73
3
74
0
42
0.000000001
43
0.0000000001
44
0.0000000001
40
0
40
0
40
0
40
1
40
1
40
1
10
-12.846369099446363
20
-32.481973005042484
30
0
10
-11.432076184459222
20
-31.932445563446599
30
0
10
-9.7128593692651108
20
-32.082857544919236
30
0
0
SPLINE
5
158
100
AcDbEntity
8
0
100
AcDbSpline
70
0
71
2
72
6
73
3
74
0
42
0.000000001
43
0.0000000001
44
0.0000000001
40
0
40
0
40
0
40
1
40
1
40
1
10
-9.7128593692651108
20
-32.082857544919236
30
0
10
-7.9701984050150676
20
-32.235320623660265
30
0
10
-6.6563561638666275
20
-33.058968846630961
30
0
0
SPLINE
5
159
100
AcDbEntity
8
0
100
AcDbSpline
70
0
71
2
72
6
73
3
74
0
42
0.000000001
43
0.0000000001
44
0.0000000001
40
0
40
0
40
0
40
1
40
1
40
1
10
-6.6563561638666275
20
-33.058968846630961
30
0
10
-5.3425146946838442
20
-33.882612215477408
30
0
10
-4.7481003178604864
20
-35.233897208320933
30
0
0
SPLINE
5
160
100
AcDbEntity
8
0
100
AcDbSpline
70
0
71
2
72
6
73
3
74
0
42
0.000000001
43
0.0000000001
44
0.0000000001
40
0
40
0
40
0
40
1
40
1
40
1
10
-4.7481003178604864
20
-35.233897208320933
30
0
10
-4.1536851690714771
20
-36.585187055288671
30
0
10
-4.2842700847449962
20
-38.077779471388681
30
0
0
SPLINE
5
161
100
AcDbEntity
8
0
100
AcDbSpline
70
0
71
2
72
6
73
3
74
0
42
0.000000001
43
0.0000000001
44
0.0000000001
40
0
40
0
40
0
40
1
40
1
40
1
10
-4.2842700847449962
20
-38.077779471388681
30
0
10
-4.425794185850016
20
-39.695407349120337
30
0
10
-5.3186990571152677
20
-40.90082090081556
30
0
0
SPLINE
5
162
100
AcDbEntity
8
0
100
AcDbSpline
70
0
71
2
72
6
73
3
74
0
42
0.000000001
43
0.0000000001
44
0.0000000001
40
0
40
0
40
0
40
1
40
1
40
1
10
-5.3186990571152677
20
-40.90082090081556
30
0
10
-6.2116027408238983
20
-42.106234556408531
30
0
10
-7.6209627378304834
20
-42.644385064776316
30
0
0
SPLINE
5
163
100
AcDbEntity
8
0
100
AcDbSpline
70
0
71
2
72
6
73
3
74
0
42
0.000000001
43
0.0000000001
44
0.0000000001
40
0
40
0
40
0
40
1
40
1
40
1
10
-7.6209627378304834
20
-42.644385064776316
30
0
10
-9.0303227348370712
20
-43.182535573144101
30
0
10
-10.538545177419351
20
-43.050583207342768
30
0
0
SPLINE
5
164
100
AcDbEntity
8
0
100
AcDbSpline
70
0
71
2
72
6
73
3
74
0
42
0.000000001
43
0.0000000001
44
0.0000000001
40
0
40
0
40
0
40
1
40
1
40
1
10
-10.378363466611864
20
-41.489709983172816
30
0
10
-8.3074885720269531
20
-41.670888060029434
30
0
10
-7.0183315291672432
20
-40.661564907065809
30
0
0
SPLINE
5
165
100
AcDbEntity
8
0
100
AcDbSpline
70
0
71
2
72
6
73
3
74
0
42
0.000000001
43
0.0000000001
44
0.0000000001
40
0
40
0
40
0
40
1
40
1
40
1
10
-7.0183315291672432
20
-40.661564907065809
30
0
10
-5.7291760894551214
20
-39.652246400430926
30
0
10
-5.5821823956343541
20
-37.972100791883456
30
0
0
SPLINE
5
166
100
AcDbEntity
8
0
100
AcDbSpline
70
0
71
2
72
6
73
3
74
0
42
0.000000001
43
0.0000000001
44
0.0000000001
40
0
40
0
40
0
40
1
40
1
40
1
10
-5.5821823956343541
20
-37.972100791883456
30
0
10
-5.432454113251195
20
-36.26069869304132
30
0
10
-6.5391640843126186
20
-35.049643057578201
30
0
0
SPLINE
5
167
100
AcDbEntity
8
0
100
AcDbSpline
70
0
71
2
72
6
73
3
74
0
42
0.000000001
43
0.0000000001
44
0.0000000001
40
0
40
0
40
0
40
1
40
1
40
1
10
-6.5391640843126186
20
-35.049643057578201
30
0
10
-7.6458736397830762
20
-33.838582671888588
30
0
10
-9.8574116473686431
20
-33.645098167268145
30
0
0
SPLINE
5
168
100
AcDbEntity
8
0
100
AcDbSpline
70
0
71
2
72
6
73
3
74
0
42
0.000000001
43
0.0000000001
44
0.0000000001
40
0
40
0
40
0
40
1
40
1
40
1
10
-9.8574116473686431
20
-33.645098167268145
30
0
10
-11.256229842358177
20
-33.52271743287276
30
0
10
-12.340845062460906
20
-33.904230013508389
30
0
0
SPLINE
5
169
100
AcDbEntity
8
0
100
AcDbSpline
70
0
71
2
72
6
73
3
74
0
42
0.000000001
43
0.0000000001
44
0.0000000001
40
0
40
0
40
0
40
1
40
1
40
1
10
-12.340845062460906
20
-33.904230013508389
30
0
10
-13.425460876341946
20
-34.285742542195159
30
0
10
-14.07948578652843
20
-35.14589591419444
30
0
0
SPLINE
5
170
100
AcDbEntity
8
0
100
AcDbSpline
70
0
71
2
72
6
73
3
74
0
42
0.000000001
43
0.0000000001
44
0.0000000001
40
0
40
0
40
0
40
1
40
1
40
1
10
-14.07948578652843
20
-35.14589591419444
30
0
10
-14.733509687345634
20
-36.006044587916115
30
0
10
-14.832645172187785
20
-37.139168364721527
30
0
0
SPLINE
5
171
100
AcDbEntity
8
0
100
AcDbSpline
70
0
71
2
72
6
73
3
74
0
42
0.000000001
43
0.0000000001
44
0.0000000001
40
0
40
0
40
0
40
1
40
1
40
1
10
-14.832645172187785
20
-37.139168364721527
30
0
10
-14.973485210561241
20
-38.748977369653026
30
0
10
-13.969245258176496
20
-40.006195150940869
30
0
0
SPLINE
5
172
100
AcDbEntity
8
0
100
AcDbSpline
70
0
71
2
72
6
73
3
74
0
42
0.000000001
43
0.0000000001
44
0.0000000001
40
0
40
0
40
0
40
1
40
1
40
1
10
-13.969245258176496
20
-40.006195150940869
30
0
10
-12.965003702644164
20
-41.263408285899963
30
0
10
-10.378363466611864
20
-41.489709983172816
30
0
0
SPLINE
5
173
100
AcDbEntity
8
0
100
AcDbSpline
70
0
71
2
72
6
73
3
74
0
42
0.000000001
43
0.0000000001
44
0.0000000001
40
0
40
0
40
0
40
1
40
1
40
1
10
-4.3950880884186283
20
-25.30361392933554
30
0
10
-3.7992142031790177
20
-26.143192186463054
30
0
10
-3.5889445959274746
20
-26.889972756168127
30
0
0
SPLINE
5
174
100
AcDbEntity
8
0
100
AcDbSpline
70
0
71
2
72
6
73
3
74
0
42
0.000000001
43
0.0000000001
44
0.0000000001
40
0
40
0
40
0
40
1
40
1
40
1
10
-3.5889445959274746
20
-26.889972756168127
30
0
10
-3.3786742167102757
20
-27.636758179997418
30
0
10
-3.4511453851142804
20
-28.465107425297411
30
0
0
SPLINE
5
175
100
AcDbEntity
8
0
100
AcDbSpline
70
0
71
2
72
6
73
3
74
0
42
0.000000001
43
0.0000000001
44
0.0000000001
40
0
40
0
40
0
40
1
40
1
40
1
10
-3.4511453851142804
20
-28.465107425297411
30
0
10
-3.5707911153563021
20
-29.832664379765788
30
0
10
-4.303208334569022
20
-30.508783833115487
30
0
0
SPLINE
5
176
100
AcDbEntity
8
0
100
AcDbSpline
70
0
71
2
72
6
73
3
74
0
42
0.000000001
43
0.0000000001
44
0.0000000001
40
0
40
0
40
0
40
1
40
1
40
1
10
-4.303208334569022
20
-30.508783833115487
30
0
10
-5.0356255537817418
20
-31.184903286465175
30
0
10
-6.0749703592501847
20
-31.093972398492138
30
0
0
SPLINE
5
177
100
AcDbEntity
8
0
100
AcDbSpline
70
0
71
2
72
6
73
3
74
0
42
0.000000001
43
0.0000000001
44
0.0000000001
40
0
40
0
40
0
40
1
40
1
40
1
10
-6.0749703592501847
20
-31.093972398492138
30
0
10
-6.6845111093646796
20
-31.040644492900029
30
0
10
-7.16428315133534
20
-30.719128469934589
30
0
0
SPLINE
5
178
100
AcDbEntity
8
0
100
AcDbSpline
70
0
71
2
72
6
73
3
74
0
42
0.000000001
43
0.0000000001
44
0.0000000001
40
0
40
0
40
0
40
1
40
1
40
1
10
-7.16428315133534
20
-30.719128469934589
30
0
10
-7.6440551933060004
20
-30.397612446969148
30
0
10
-7.9095137502159023
20
-29.921605517766228
30
0
0
SPLINE
5
179
100
AcDbEntity
8
0
100
AcDbSpline
70
0
71
2
72
6
73
3
74
0
42
0.000000001
43
0.0000000001
44
0.0000000001
40
0
40
0
40
0
40
1
40
1
40
1
10
-7.9095137502159023
20
-29.921605517766228
30
0
10
-8.1749723071258007
20
-29.445598588563328
30
0
10
-8.282038755792291
20
-28.869274737680051
30
0
0
SPLINE
5
180
100
AcDbEntity
8
0
100
AcDbSpline
70
0
71
2
72
6
73
3
74
0
42
0.000000001
43
0.0000000001
44
0.0000000001
40
0
40
0
40
0
40
1
40
1
40
1
10
-8.282038755792291
20
-28.869274737680051
30
0
10
-8.3552078051658647
20
-28.445526056561992
30
0
10
-8.3836425208620327
20
-27.60047475637186
30
0
0
SPLINE
5
181
100
AcDbEntity
8
0
100
AcDbSpline
70
0
71
2
72
6
73
3
74
0
42
0.000000001
43
0.0000000001
44
0.0000000001
40
0
40
0
40
0
40
1
40
1
40
1
10
-8.3836425208620327
20
-27.60047475637186
30
0
10
-8.4377787294359496
20
-25.879110759623813
30
0
10
-8.6486853222333657
20
-25.049590974568304
30
0
0
SPLINE
5
182
100
AcDbEntity
8
0
100
AcDbSpline
70
0
71
2
72
6
73
3
74
0
42
0.000000001
43
0.0000000001
44
0.0000000001
40
0
40
0
40
0
40
1
40
1
40
1
10
-8.6486853222333657
20
-25.049590974568304
30
0
10
-8.9371426174460584
20
-25.01648029737752
30
0
10
-9.0152885934092097
20
-25.009643410380569
30
0
0
SPLINE
5
183
100
AcDbEntity
8
0
100
AcDbSpline
70
0
71
2
72
6
73
3
74
0
42
0.000000001
43
0.0000000001
44
0.0000000001
40
0
40
0
40
0
40
1
40
1
40
1
10
-9.0152885934092097
20
-25.009643410380569
30
0
10
-9.8748972978954228
20
-24.934437393669828
30
0
10
-10.261423459411542
20
-25.30221530067525
30
0
0
SPLINE
5
184
100
AcDbEntity
8
0
100
AcDbSpline
70
0
71
2
72
6
73
3
74
0
42
0.000000001
43
0.0000000001
44
0.0000000001
40
0
40
0
40
0
40
1
40
1
40
1
10
-10.261423459411542
20
-25.30221530067525
30
0
10
-10.785290790306341
20
-25.799722583152374
30
0
10
-10.878272619701178
20
-26.862509756341815
30
0
0
SPLINE
5
185
100
AcDbEntity
8
0
100
AcDbSpline
70
0
71
2
72
6
73
3
74
0
42
0.000000001
43
0.0000000001
44
0.0000000001
40
0
40
0
40
0
40
1
40
1
40
1
10
-10.878272619701178
20
-26.862509756341815
30
0
10
-10.965101209239672
20
-27.854965076141774
30
0
10
-10.658713544483156
20
-28.358174640134457
30
0
0
SPLINE
5
186
100
AcDbEntity
8
0
100
AcDbSpline
70
0
71
2
72
6
73
3
74
0
42
0.000000001
43
0.0000000001
44
0.0000000001
40
0
40
0
40
0
40
1
40
1
40
1
10
-10.658713544483156
20
-28.358174640134457
30
0
10
-10.352326473504956
20
-28.861384152178253
30
0
10
-9.4891006338130488
20
-29.1652650714732
30
0
0
LINE
5
187
100
AcDbEntity
8
0
100
AcDbLine
10
-9.4891006338130488
20
-29.1652650714732
30
0
11
-9.7969812441208433
21
-30.524232328389967
31
0
0
SPLINE
5
188
100
AcDbEntity
8
0
100
AcDbSpline
70
0
71
2
72
6
73
3
74
0
42
0.000000001
43
0.0000000001
44
0.0000000001
40
0
40
0
40
0
40
1
40
1
40
1
10
-9.7969812441208468
20
-30.524232328389964
30
0
10
-10.66362531951574
20
-30.25942202196336
30
0
10
-11.169138785027213
20
-29.782100237797849
30
0
0
SPLINE
5
189
100
AcDbEntity
8
0
100
AcDbSpline
70
0
71
2
72
6
73
3
74
0
42
0.000000001
43
0.0000000001
44
0.0000000001
40
0
40
0
40
0
40
1
40
1
40
1
10
-11.169138785027213
20
-29.782100237797849
30
0
10
-11.674652072351341
20
-29.304783255807713
30
0
10
-11.896596795646969
20
-28.466423825518774
30
0
0
SPLINE
5
190
100
AcDbEntity
8
0
100
AcDbSpline
70
0
71
2
72
6
73
3
74
0
42
0.000000001
43
0.0000000001
44
0.0000000001
40
0
40
0
40
0
40
1
40
1
40
1
10
-11.896596795646969
20
-28.466423825518774
30
0
10
-12.118541518942598
20
-27.628064395229828
30
0
10
-12.024875626816193
20
-26.557458349240228
30
0
0
SPLINE
5
191
100
AcDbEntity
8
0
100
AcDbSpline
70
0
71
2
72
6
73
3
74
0
42
0.000000001
43
0.0000000001
44
0.0000000001
40
0
40
0
40
0
40
1
40
1
40
1
10
-12.024875626816193
20
-26.557458349240228
30
0
10
-11.931893797421356
20
-25.494671176050787
30
0
10
-11.623712095780121
20
-24.852306116369405
30
0
0
SPLINE
5
192
100
AcDbEntity
8
0
100
AcDbSpline
70
0
71
2
72
6
73
3
74
0
42
0.000000001
43
0.0000000001
44
0.0000000001
40
0
40
0
40
0
40
1
40
1
40
1
10
-11.623712095780121
20
-24.852306116369405
30
0
10
-11.315530394138889
20
-24.209941056688031
30
0
10
-10.909173556417544
20
-23.930516169058123
30
0
0
SPLINE
5
193
100
AcDbEntity
8
0
100
AcDbSpline
70
0
71
2
72
6
73
3
74
0
42
0.000000001
43
0.0000000001
44
0.0000000001
40
0
40
0
40
0
40
1
40
1
40
1
10
-10.909173556417544
20
-23.930516169058123
30
0
10
-10.502816303105234
20
-23.651086531201734
30
0
10
-9.9135950547798046
20
-23.576648980979691
30
0
0
SPLINE
5
194
100
AcDbEntity
8
0
100
AcDbSpline
70
0
71
2
72
6
73
3
74
0
42
0.000000001
43
0.0000000001
44
0.0000000001
40
0
40
0
40
0
40
1
40
1
40
1
10
-9.9135950547798046
20
-23.576648980979691
30
0
10
-9.5479690191806821
20
-23.537766922063668
30
0
10
-8.6102143387313195
20
-23.619809825771362
30
0
0
LINE
5
195
100
AcDbEntity
8
0
100
AcDbLine
10
-8.6102143387313195
20
-23.619809825771362
30
0
11
-6.7347043840542842
21
-23.783895685135619
31
0
0
SPLINE
5
196
100
AcDbEntity
8
0
100
AcDbSpline
70
0
71
2
72
6
73
3
74
0
42
0.000000001
43
0.0000000001
44
0.0000000001
40
0
40
0
40
0
40
1
40
1
40
1
10
-6.7347043840542842
20
-23.783895685135619
30
0
10
-4.7732337370621236
20
-23.955502130586297
30
0
10
-4.2456987688245773
20
-23.911098039635927
30
0
0
SPLINE
5
197
100
AcDbEntity
8
0
100
AcDbSpline
70
0
71
2
72
6
73
3
74
0
42
0.000000001
43
0.0000000001
44
0.0000000001
40
0
40
0
40
0
40
1
40
1
40
1
10
-4.2456987688245773
20
-23.911098039635927
30
0
10
-3.7181638005870288
20
-23.866693948685551
30
0
10
-3.2182261975679882
20
-23.642704707419185
30
0
0
LINE
5
198
100
AcDbEntity
8
0
100
AcDbLine
10
-3.2182261975679878
20
-23.642704707419185
30
0
11
-3.3467601718197146
21
-25.111854755798202
31
0
0
SPLINE
5
199
100
AcDbEntity
8
0
100
AcDbSpline
70
0
71
2
72
6
73
3
74
0
42
0.000000001
43
0.0000000001
44
0.0000000001
40
0
40
0
40
0
40
1
40
1
40
1
10
-3.3467601718197137
20
-25.111854755798202
30
0
10
-3.8035229040135921
20
-25.292377705121041
30
0
10
-4.3950880884186283
20
-25.30361392933554
30
0
0
SPLINE
5
200
100
AcDbEntity
8
0
100
AcDbSpline
70
0
71
2
72
6
73
3
74
0
42
0.000000001
43
0.0000000001
44
0.0000000001
40
0
40
0
40
0
40
1
40
1
40
1
10
-7.5468227859491011
20
-25.145991455257104
30
0
10
-7.3012392702281321
20
-25.939170621626797
30
0
10
-7.2164331544534877
20
-27.489981767531269
30
0
0
SPLINE
5
201
100
AcDbEntity
8
0
100
AcDbSpline
70
0
71
2
72
6
73
3
74
0
42
0.000000001
43
0.0000000001
44
0.0000000001
40
0
40
0
40
0
40
1
40
1
40
1
10
-7.2164331544534877
20
-27.489981767531269
30
0
10
-7.1672887000764351
20
-28.368345457459839
30
0
10
-7.0424465945724668
20
-28.741492620974807
30
0
0
SPLINE
5
202
100
AcDbEntity
8
0
100
AcDbSpline
70
0
71
2
72
6
73
3
74
0
42
0.000000001
43
0.0000000001
44
0.0000000001
40
0
40
0
40
0
40
1
40
1
40
1
10
-7.0424465945724668
20
-28.741492620974807
30
0
10
-6.9176040734775341
20
-29.114635034263301
30
0
10
-6.6338325912166551
20
-29.336324530459052
30
0
0
SPLINE
5
203
100
AcDbEntity
8
0
100
AcDbSpline
70
0
71
2
72
6
73
3
74
0
42
0.000000001
43
0.0000000001
44
0.0000000001
40
0
40
0
40
0
40
1
40
1
40
1
10
-6.6338325912166551
20
-29.336324530459052
30
0
10
-6.3500622965123981
20
-29.558013922757056
30
0
10
-5.9827747844176438
20
-29.590147416319983
30
0
0
SPLINE
5
204
100
AcDbEntity
8
0
100
AcDbSpline
70
0
71
2
72
6
73
3
74
0
42
0.000000001
43
0.0000000001
44
0.0000000001
40
0
40
0
40
0
40
1
40
1
40
1
10
-5.9827747844176438
20
-29.590147416319983
30
0
10
-5.4201223324150138
20
-29.639373127375279
30
0
10
-5.0077592272427296
20
-29.246289711341824
30
0
0
SPLINE
5
205
100
AcDbEntity
8
0
100
AcDbSpline
70
0
71
2
72
6
73
3
74
0
42
0.000000001
43
0.0000000001
44
0.0000000001
40
0
40
0
40
0
40
1
40
1
40
1
10
-5.0077592272427296
20
-29.246289711341824
30
0
10
-4.5953953501047851
20
-28.853211149432596
30
0
10
-4.5236078288413806
20
-28.03267602670627
30
0
0
SPLINE
5
206
100
AcDbEntity
8
0
100
AcDbSpline
70
0
71
2
72
6
73
3
74
0
42
0.000000001
43
0.0000000001
44
0.0000000001
40
0
40
0
40
0
40
1
40
1
40
1
10
-4.5236078288413806
20
-28.03267602670627
30
0
10
-4.4525039547185719
20
-27.219955026553613
30
0
10
-4.7526915398366683
20
-26.555865073422709
30
0
0
SPLINE
5
207
100
AcDbEntity
8
0
100
AcDbSpline
70
0
71
2
72
6
73
3
74
0
42
0.000000001
43
0.0000000001
44
0.0000000001
40
0
40
0
40
0
40
1
40
1
40
1
10
-4.7526915398366683
20
-26.555865073422709
30
0
10
-5.0528775218071775
20
-25.891770473963057
30
0
10
-5.6442521407887529
20
-25.540803262525085
30
0
0
SPLINE
5
208
100
AcDbEntity
8
0
100
AcDbSpline
70
0
71
2
72
6
73
3
74
0
42
0.000000001
43
0.0000000001
44
0.0000000001
40
0
40
0
40
0
40
1
40
1
40
1
10
-5.6442521407887529
20
-25.540803262525085
30
0
10
-6.1011174804043282
20
-25.272474280291544
30
0
10
-7.0310574445017142
20
-25.191115075673316
30
0
0
LINE
5
209
100
AcDbEntity
8
0
100
AcDbLine
10
-7.0310574445017142
20
-25.191115075673316
30
0
11
-7.5468227859491011
21
-25.145991455257104
31
0
0
LINE
5
210
100
AcDbEntity
8
0
100
AcDbLine
10
-3.0486709013345914
20
-21.70467880326126
30
0
11
-14.504909691878341
21
-20.702387782442742
31
0
0
LINE
5
211
100
AcDbEntity
8
0
100
AcDbLine
10
-14.504909691878341
20
-20.702387782442742
30
0
11
-14.060510374713047
21
-15.622880343932003
31
0
0
SPLINE
5
212
100
AcDbEntity
8
0
100
AcDbSpline
70
0
71
2
72
6
73
3
74
0
42
0.000000001
43
0.0000000001
44
0.0000000001
40
0
40
0
40
0
40
1
40
1
40
1
10
-14.060510374713047
20
-15.622880343932009
30
0
10
-13.926507223336539
20
-14.091217314963664
30
0
10
-13.548093800929157
20
-13.321130284375817
30
0
0
SPLINE
5
213
100
AcDbEntity
8
0
100
AcDbSpline
70
0
71
2
72
6
73
3
74
0
42
0.000000001
43
0.0000000001
44
0.0000000001
40
0
40
0
40
0
40
1
40
1
40
1
10
-13.548093800929157
20
-13.321130284375817
30
0
10
-13.169679190965153
20
-12.551043357685714
30
0
10
-12.346512087098136
20
-12.142722457098074
30
0
0
SPLINE
5
214
100
AcDbEntity
8
0
100
AcDbSpline
70
0
71
2
72
6
73
3
74
0
42
0.000000001
43
0.0000000001
44
0.0000000001
40
0
40
0
40
0
40
1
40
1
40
1
10
-12.346512087098136
20
-12.142722457098074
30
0
10
-11.523343973861842
20
-11.734396858232827
30
0
10
-10.57777398328219
20
-11.81712351297886
30
0
0
SPLINE
5
215
100
AcDbEntity
8
0
100
AcDbSpline
70
0
71
2
72
6
73
3
74
0
42
0.000000001
43
0.0000000001
44
0.0000000001
40
0
40
0
40
0
40
1
40
1
40
1
10
-10.57777398328219
20
-11.81712351297886
30
0
10
-9.3586930768315124
20
-11.923779272214201
30
0
10
-8.5915808603239405
20
-12.786212876037073
30
0
0
SPLINE
5
216
100
AcDbEntity
8
0
100
AcDbSpline
70
0
71
2
72
6
73
3
74
0
42
0.000000001
43
0.0000000001
44
0.0000000001
40
0
40
0
40
0
40
1
40
1
40
1
10
-8.5915808603239405
20
-12.786212876037073
30
0
10
-7.8244692375946734
20
-13.648646427911082
30
0
10
-7.7421035281679851
20
-15.3173578617365
30
0
0
SPLINE
5
217
100
AcDbEntity
8
0
100
AcDbSpline
70
0
71
2
72
6
73
3
74
0
42
0.000000001
43
0.0000000001
44
0.0000000001
40
0
40
0
40
0
40
1
40
1
40
1
10
-7.7421035281679851
20
-15.3173578617365
30
0
10
-7.4003184312609278
20
-14.740928976369414
30
0
10
-7.0916442416808634
20
-14.452953177817962
30
0
0
SPLINE
5
218
100
AcDbEntity
8
0
100
AcDbSpline
70
0
71
2
72
6
73
3
74
0
42
0.000000001
43
0.0000000001
44
0.0000000001
40
0
40
0
40
0
40
1
40
1
40
1
10
-7.0916442416808634
20
-14.452953177817962
30
0
10
-6.4239897442968541
20
-13.842037912610055
30
0
10
-5.4577187054902554
20
-13.328118401638802
30
0
0
LINE
5
219
100
AcDbEntity
8
0
100
AcDbLine
10
-5.4577187054902554
20
-13.328118401638804
30
0
11
-2.1653418597197529
21
-11.60818165705561
31
0
0
LINE
5
220
100
AcDbEntity
8
0
100
AcDbLine
10
-2.1653418597197529
20
-11.60818165705561
30
0
11
-2.3321625673907591
21
-13.514951070918857
31
0
0
LINE
5
221
100
AcDbEntity
8
0
100
AcDbLine
10
-2.3321625673907591
20
-13.514951070918857
30
0
11
-4.8482594198494846
21
-14.82246482427535
31
0
0
SPLINE
5
222
100
AcDbEntity
8
0
100
AcDbSpline
70
0
71
2
72
6
73
3
74
0
42
0.000000001
43
0.0000000001
44
0.0000000001
40
0
40
0
40
0
40
1
40
1
40
1
10
-4.8482594198494855
20
-14.822464824275343
30
0
10
-5.9379038500137789
20
-15.396460754242929
30
0
10
-6.5225299555911365
20
-15.778407684277145
30
0
0
SPLINE
5
223
100
AcDbEntity
8
0
100
AcDbSpline
70
0
71
2
72
6
73
3
74
0
42
0.000000001
43
0.0000000001
44
0.0000000001
40
0
40
0
40
0
40
1
40
1
40
1
10
-6.5225299555911365
20
-15.778407684277145
30
0
10
-7.1071568331341499
20
-16.160349760187131
30
0
10
-7.355706442873311
20
-16.481142153400032
30
0
0
SPLINE
5
224
100
AcDbEntity
8
0
100
AcDbSpline
70
0
71
2
72
6
73
3
74
0
42
0.000000001
43
0.0000000001
44
0.0000000001
40
0
40
0
40
0
40
1
40
1
40
1
10
-7.355706442873311
20
-16.481142153400032
30
0
10
-7.6042564682034435
20
-16.801939296839432
30
0
10
-7.7209835379876512
20
-17.146073175525089
30
0
0
SPLINE
5
225
100
AcDbEntity
8
0
100
AcDbSpline
70
0
71
2
72
6
73
3
74
0
42
0.000000001
43
0.0000000001
44
0.0000000001
40
0
40
0
40
0
40
1
40
1
40
1
10
-7.7209835379876512
20
-17.146073175525089
30
0
10
-7.7982479766767776
20
-17.399172379684611
30
0
10
-7.8495248369493487
20
-17.985269574521485
30
0
0
LINE
5
226
100
AcDbEntity
8
0
100
AcDbLine
10
-7.8495248369493487
20
-17.985269574521485
30
0
11
-8.0033550021760949
21
-19.743556408805617
31
0
0
LINE
5
227
100
AcDbEntity
8
0
100
AcDbLine
10
-8.0033550021760949
20
-19.743556408805617
30
0
11
-2.916034628648311
21
-20.18863926921377
31
0
0
LINE
5
228
100
AcDbEntity
8
0
100
AcDbLine
10
-2.916034628648311
20
-20.18863926921377
30
0
11
-3.0486709013345914
21
-21.70467880326126
31
0
0
LINE
5
229
100
AcDbEntity
8
0
100
AcDbLine
10
-9.3162119110721875
20
-19.62869631244552
30
0
11
-9.0311131830313247
21
-16.370002939487712
31
0
0
SPLINE
5
230
100
AcDbEntity
8
0
100
AcDbSpline
70
0
71
2
72
6
73
3
74
0
42
0.000000001
43
0.0000000001
44
0.0000000001
40
0
40
0
40
0
40
1
40
1
40
1
10
-9.0311131830313229
20
-16.370002939487705
30
0
10
-8.9401818794673105
20
-15.330653383792772
30
0
10
-9.103807462462683
20
-14.725759447991917
30
0
0
SPLINE
5
231
100
AcDbEntity
8
0
100
AcDbSpline
70
0
71
2
72
6
73
3
74
0
42
0.000000001
43
0.0000000001
44
0.0000000001
40
0
40
0
40
0
40
1
40
1
40
1
10
-9.103807462462683
20
-14.725759447991917
30
0
10
-9.2674326298670842
20
-14.120860761964584
30
0
10
-9.7135534274205746
20
-13.774727679287064
30
0
0
SPLINE
5
232
100
AcDbEntity
8
0
100
AcDbSpline
70
0
71
2
72
6
73
3
74
0
42
0.000000001
43
0.0000000001
44
0.0000000001
40
0
40
0
40
0
40
1
40
1
40
1
10
-9.7135534274205746
20
-13.774727679287064
30
0
10
-10.159674403161404
20
-13.428589794434185
30
0
10
-10.714512138812058
20
-13.380047782468356
30
0
0
SPLINE
5
233
100
AcDbEntity
8
0
100
AcDbSpline
70
0
71
2
72
6
73
3
74
0
42
0.000000001
43
0.0000000001
44
0.0000000001
40
0
40
0
40
0
40
1
40
1
40
1
10
-10.714512138812058
20
-13.380047782468356
30
0
10
-11.527233138964714
20
-13.308943908345547
30
0
10
-12.102432088402434
20
-13.853143220076811
30
0
0
SPLINE
5
234
100
AcDbEntity
8
0
100
AcDbSpline
70
0
71
2
72
6
73
3
74
0
42
0.000000001
43
0.0000000001
44
0.0000000001
40
0
40
0
40
0
40
1
40
1
40
1
10
-12.102432088402434
20
-13.853143220076811
30
0
10
-12.677630622249188
20
-14.397337781581578
30
0
10
-12.789072586804036
20
-15.671125265165964
30
0
0
LINE
5
235
100
AcDbEntity
8
0
100
AcDbLine
10
-12.789072586804036
20
-15.671125265165966
30
0
11
-13.106304808407831
21
-19.297106150218532
31
0
0
LINE
5
236
100
AcDbEntity
8
0
100
AcDbLine
10
-13.106304808407831
20
-19.297106150218532
30
0
11
-9.3162119110721875
21
-19.62869631244552
31
0
0
LINE
5
237
100
AcDbEntity
8
0
100
AcDbLine
10
-1.5842043870245925
20
-4.9657499490553736
30
0
11
-2.6313645026233252
21
-4.8741353100439886
31
0
0
SPLINE
5
238
100
AcDbEntity
8
0
100
AcDbSpline
70
0
71
2
72
6
73
3
74
0
42
0.000000001
43
0.0000000001
44
0.0000000001
40
0
40
0
40
0
40
1
40
1
40
1
10
-2.6313645026233257
20
-4.8741353100439877
30
0
10
-1.4657065023913995
20
-5.7714371518387964
30
0
10
-1.5997100693588751
20
-7.3031049310336282
30
0
0
SPLINE
5
239
100
AcDbEntity
8
0
100
AcDbSpline
70
0
71
2
72
6
73
3
74
0
42
0.000000001
43
0.0000000001
44
0.0000000001
40
0
40
0
40
0
40
1
40
1
40
1
10
-1.5997100693588751
20
-7.3031049310336282
30
0
10
-1.6865386588973674
20
-8.2955602508335868
30
0
10
-2.3063748779658289
20
-9.0799606196573013
30
0
0
SPLINE
5
240
100
AcDbEntity
8
0
100
AcDbSpline
70
0
71
2
72
6
73
3
74
0
42
0.000000001
43
0.0000000001
44
0.0000000001
40
0
40
0
40
0
40
1
40
1
40
1
10
-2.3063748779658289
20
-9.0799606196573013
30
0
10
-2.9262122845909122
20
-9.864360884583272
30
0
10
-3.9469432515622849
20
-10.235709958663088
30
0
0
SPLINE
5
241
100
AcDbEntity
8
0
100
AcDbSpline
70
0
71
2
72
6
73
3
74
0
42
0.000000001
43
0.0000000001
44
0.0000000001
40
0
40
0
40
0
40
1
40
1
40
1
10
-3.9469432515622849
20
-10.235709958663088
30
0
10
-4.9676746341246218
20
-10.607063782969401
30
0
10
-6.2414585550391388
20
-10.495622130107778
30
0
0
SPLINE
5
242
100
AcDbEntity
8
0
100
AcDbSpline
70
0
71
2
72
6
73
3
74
0
42
0.000000001
43
0.0000000001
44
0.0000000001
40
0
40
0
40
0
40
1
40
1
40
1
10
-6.2414585550391388
20
-10.495622130107778
30
0
10
-7.4839836105457476
20
-10.386915273604034
30
0
10
-8.4597420074522525
20
-9.8842002567575804
30
0
0
SPLINE
5
243
100
AcDbEntity
8
0
100
AcDbSpline
70
0
71
2
72
6
73
3
74
0
42
0.000000001
43
0.0000000001
44
0.0000000001
40
0
40
0
40
0
40
1
40
1
40
1
10
-8.4597420074522525
20
-9.8842002567575804
30
0
10
-9.4355002261714134
20
-9.3814900420864955
30
0
10
-9.9022379544924188
20
-8.5059661310507373
30
0
0
SPLINE
5
244
100
AcDbEntity
8
0
100
AcDbSpline
70
0
71
2
72
6
73
3
74
0
42
0.000000001
43
0.0000000001
44
0.0000000001
40
0
40
0
40
0
40
1
40
1
40
1
10
-9.9022379544924188
20
-8.5059661310507373
30
0
10
-10.368975861000768
20
-7.6304374178396284
30
0
10
-10.279412682899887
20
-6.6067256077450054
30
0
0
SPLINE
5
245
100
AcDbEntity
8
0
100
AcDbSpline
70
0
71
2
72
6
73
3
74
0
42
0.000000001
43
0.0000000001
44
0.0000000001
40
0
40
0
40
0
40
1
40
1
40
1
10
-10.279412682899887
20
-6.6067256077450054
30
0
10
-10.213777985901862
20
-5.8565175881816778
30
0
10
-9.8460087947458863
20
-5.2981146709759841
30
0
0
SPLINE
5
246
100
AcDbEntity
8
0
100
AcDbSpline
70
0
71
2
72
6
73
3
74
0
42
0.000000001
43
0.0000000001
44
0.0000000001
40
0
40
0
40
0
40
1
40
1
40
1
10
-9.8460087947458863
20
-5.2981146709759841
30
0
10
-9.4782397817772601
20
-4.7397069515949308
30
0
10
-8.9381556631189163
20
-4.4168593608269369
30
0
0
LINE
5
247
100
AcDbEntity
8
0
100
AcDbLine
10
-8.9381556631189163
20
-4.4168593608269369
30
0
11
-13.048647774437452
21
-4.0572378995738241
31
0
0
LINE
5
248
100
AcDbEntity
8
0
100
AcDbLine
10
-13.048647774437452
20
-4.0572378995738241
30
0
11
-12.92626704004207
21
-2.6584197045842908
31
0
0
LINE
5
249
100
AcDbEntity
8
0
100
AcDbLine
10
-12.92626704004207
20
-2.6584197045842908
30
0
11
-1.470028249498323
21
-3.6607107254028031
31
0
0
LINE
5
250
100
AcDbEntity
8
0
100
AcDbLine
10
-1.470028249498323
20
-3.6607107254028031
30
0
11
-1.5842043870245925
21
-4.9657499490553736
31
0
0
SPLINE
5
251
100
AcDbEntity
8
0
100
AcDbSpline
70
0
71
2
72
6
73
3
74
0
42
0.000000001
43
0.0000000001
44
0.0000000001
40
0
40
0
40
0
40
1
40
1
40
1
10
-6.114975522209205
20
-9.0499144494497674
30
0
10
-4.5207911997551742
20
-9.1893875052352492
30
0
10
-3.672717548026645
20
-8.5863829367670874
30
0
0
SPLINE
5
252
100
AcDbEntity
8
0
100
AcDbSpline
70
0
71
2
72
6
73
3
74
0
42
0.000000001
43
0.0000000001
44
0.0000000001
40
0
40
0
40
0
40
1
40
1
40
1
10
-3.672717548026645
20
-8.5863829367670874
30
0
10
-2.8246427087414938
20
-7.9833784721966694
30
0
10
-2.7446510061999474
20
-7.0690691283598639
30
0
0
SPLINE
5
253
100
AcDbEntity
8
0
100
AcDbSpline
70
0
71
2
72
6
73
3
74
0
42
0.000000001
43
0.0000000001
44
0.0000000001
40
0
40
0
40
0
40
1
40
1
40
1
10
-2.7446510061999474
20
-7.0690691283598639
30
0
10
-2.6639756565178008
20
-6.1469456619493901
30
0
10
-3.361682337484595
20
-5.4362592135951893
30
0
0
SPLINE
5
254
100
AcDbEntity
8
0
100
AcDbSpline
70
0
71
2
72
6
73
3
74
0
42
0.000000001
43
0.0000000001
44
0.0000000001
40
0
40
0
40
0
40
1
40
1
40
1
10
-3.361682337484595
20
-5.4362592135951893
30
0
10
-4.0593894340423509
20
-4.7255775154674762
30
0
10
-5.6066842708278974
20
-4.590206758116544
30
0
0
SPLINE
5
255
100
AcDbEntity
8
0
100
AcDbSpline
70
0
71
2
72
6
73
3
74
0
42
0.000000001
43
0.0000000001
44
0.0000000001
40
0
40
0
40
0
40
1
40
1
40
1
10
-5.6066842708278974
20
-4.590206758116544
30
0
10
-7.3102728408746742
20
-4.4411620709251132
30
0
10
-8.1647951022306096
20
-5.0278545912587269
30
0
0
SPLINE
5
256
100
AcDbEntity
8
0
100
AcDbSpline
70
0
71
2
72
6
73
3
74
0
42
0.000000001
43
0.0000000001
44
0.0000000001
40
0
40
0
40
0
40
1
40
1
40
1
10
-8.1647951022306096
20
-5.0278545912587269
30
0
10
-9.0193167698082313
20
-5.6145471635412125
30
0
10
-9.1034107707843326
20
-6.5757459930465068
30
0
0
SPLINE
5
257
100
AcDbEntity
8
0
100
AcDbSpline
70
0
71
2
72
6
73
3
74
0
42
0.000000001
43
0.0000000001
44
0.0000000001
40
0
40
0
40
0
40
1
40
1
40
1
10
-9.1034107707843326
20
-6.5757459930465068
30
0
10
-9.1854534147476699
20
-7.5134977046043083
30
0
10
-8.4746572462699081
20
-8.2095766802444547
30
0
0
SPLINE
5
258
100
AcDbEntity
8
0
100
AcDbSpline
70
0
71
2
72
6
73
3
74
0
42
0.000000001
43
0.0000000001
44
0.0000000001
40
0
40
0
40
0
40
1
40
1
40
1
10
-8.4746572462699081
20
-8.2095766802444547
30
0
10
-7.7638610777921446
20
-8.9056556558846189
30
0
10
-6.114975522209205
20
-9.0499144494497674
30
0
0
LWPOLYLINE
5
259
100
AcDbEntity
8
0
100
AcDbPolyline
90
4
70
1
43
0.0
10
-24.000000000000004
20
-90.996874877920135
10
2.9999999999999982
20
-90.996874877920135
10
2.9999999999999982
20
10
10
-24.000000000000004
20
10
0
CIRCLE
5
260
100
AcDbEntity
8
0
100
AcDbCircle
10
-3.0000000000000027
20
3.9999999999999991
30
0
40
3.0000000000000004
210
0
220
-0
230
1
0
CIRCLE
5
261
100
AcDbEntity
8
0
100
AcDbCircle
10
-3.0000000000000027
20
-84.996874877920149
30
0
40
3.0000000000000004
210
0
220
-0
230
1
0
CIRCLE
5
262
100
AcDbEntity
8
0
100
AcDbCircle
10
-18.000000000000004
20
3.9999999999999991
30
0
40
3.0000000000000004
210
0
220
-0
230
1
0
CIRCLE
5
263
100
AcDbEntity
8
0
100
AcDbCircle
10
-18.000000000000004
20
-84.996874877920149
30
0
40
3.0000000447034836
210
0
220
-0
230
1
0
ENDSEC
0
SECTION
2
OBJECTS
0
DICTIONARY
5
C
100
AcDbDictionary
3
ACAD_GROUP
350
D
3
ACAD_MLINESTYLE
350
17
0
DICTIONARY
5
D
100
AcDbDictionary
0
DICTIONARY
5
1A
330
C
100
AcDbDictionary
0
DICTIONARY
5
17
100
AcDbDictionary
0
ENDSEC
0
EOF
