0
SECTION
2
HEADER
9
$INSUNITS
70
4
9
$ACADVER
1
AC1014
9
$HANDSEED
5
FFFF
0
ENDSEC
0
SECTION
2
TABLES
0
TABLE
2
VPORT
5
8
100
AcDbSymbolTable
0
ENDTAB
0
TABLE
2
LTYPE
5
5
100
AcDbSymbolTable
0
LTYPE
5
14
100
AcDbSymbolTableRecord
100
AcDbLinetypeTableRecord
2
BYBLOCK
70
0
0
LTYPE
5
15
100
AcDbSymbolTableRecord
100
AcDbLinetypeTableRecord
2
BYLAYER
70
0
0
LTYPE
5
16
100
AcDbSymbolTableRecord
100
AcDbLinetypeTableRecord
2
DASHED
70
0
3
Dashed __ __ __ __ __ __ __ __ __ __ __ __ __ _
72
65
73
2
40
0.75
49
0.5
74
0
49
-0.25
74
0
0
ENDTAB
0
TABLE
2
LAYER
5
2
100
AcDbSymbolTable
70
2
0
LAYER
5
50
100
AcDbSymbolTableRecord
100
AcDbLayerTableRecord
2
0
70
0
62
7
6
CONTINUOUS
0
ENDTAB
0
TABLE
2
STYLE
5
3
100
AcDbSymbolTable
70
1
0
STYLE
5
11
100
AcDbSymbolTableRecord
100
AcDbTextStyleTableRecord
2
STANDARD
70
0
0
ENDTAB
0
TABLE
2
VIEW
5
6
100
AcDbSymbolTable
70
0
0
ENDTAB
0
TABLE
2
UCS
5
7
100
AcDbSymbolTable
70
0
0
ENDTAB
0
TABLE
2
APPID
5
9
100
AcDbSymbolTable
70
2
0
APPID
5
12
100
AcDbSymbolTableRecord
100
AcDbRegAppTableRecord
2
ACAD
70
0
0
ENDTAB
0
TABLE
2
DIMSTYLE
5
A
100
AcDbSymbolTable
70
1
0
ENDTAB
0
TABLE
2
BLOCK_RECORD
5
1
100
AcDbSymbolTable
70
1
0
BLOCK_RECORD
5
1F
100
AcDbSymbolTableRecord
100
AcDbBlockTableRecord
2
*MODEL_SPACE
0
BLOCK_RECORD
5
1B
100
AcDbSymbolTableRecord
100
AcDbBlockTableRecord
2
*PAPER_SPACE
0
ENDTAB
0
ENDSEC
0
SECTION
2
BLOCKS
0
BLOCK
5
20
100
AcDbEntity
100
AcDbBlockBegin
2
*MODEL_SPACE
0
ENDBLK
5
21
100
AcDbEntity
100
AcDbBlockEnd
0
BLOCK
5
1C
100
AcDbEntity
100
AcDbBlockBegin
2
*PAPER_SPACE
0
ENDBLK
5
1D
100
AcDbEntity
100
AcDbBlockEnd
0
ENDSEC
0
SECTION
2
ENTITIES
0
LINE
5
100
100
AcDbEntity
8
0
100
AcDbLine
10
-21.000000312924385
20
-81.458408630113794
30
0
11
-17.288000312924382
21
-81.458408630113794
31
0
0
ARC
5
101
100
AcDbEntity
8
0
100
AcDbCircle
10
-17.288000312924353
20
-85.958408630113766
30
0
40
4.4999999999999707
210
-0
220
0
230
1
100
AcDbArc
50
0
51
90.000000000000369
0
LINE
5
102
100
AcDbEntity
8
0
100
AcDbLine
10
-12.788000312924384
20
-85.95840863011378
30
0
11
-12.788000312924384
21
-88.45840863011378
31
0
0
LINE
5
103
100
AcDbEntity
8
0
100
AcDbLine
10
-12.788000312924384
20
-88.45840863011378
30
0
11
-11.530776406404419
21
-88.45840863011378
31
0
0
LINE
5
104
100
AcDbEntity
8
0
100
AcDbLine
10
-11.530776406404419
20
-88.45840863011378
30
0
11
-11.530776406404419
21
-70.496874877920135
31
0
0
LINE
5
105
100
AcDbEntity
8
0
100
AcDbLine
10
-9.4692235935955864
20
-88.45840863011378
30
0
11
-8.2119999999999997
21
-88.45840863011378
31
0
0
LINE
5
106
100
AcDbEntity
8
0
100
AcDbLine
10
-8.2119999999999997
20
-88.45840863011378
30
0
11
-8.2119999999999997
21
-85.95840863011378
31
0
0
ARC
5
107
100
AcDbEntity
8
0
100
AcDbCircle
10
-3.7120000000000148
20
-85.958408630113766
30
0
40
4.4999999999999751
210
0
220
-0
230
1
100
AcDbArc
50
89.999999999999915
51
180
0
LINE
5
108
100
AcDbEntity
8
0
100
AcDbLine
10
-3.7120000000000077
20
-81.458408630113794
30
0
11
5.5511151231257827e-16
21
-81.458408630113794
31
0
0
LINE
5
109
100
AcDbEntity
8
0
100
AcDbLine
10
5.5511151231257827e-16
20
-81.458408630113794
30
0
11
0
21
-52.144996195949425
31
0
0
LINE
5
110
100
AcDbEntity
8
0
100
AcDbLine
10
0.20000000000000004
20
0.19999999999999574
30
0
11
-4.4860489306585833
21
0.19999999999999851
31
0
0
ARC
5
111
100
AcDbEntity
8
0
100
AcDbCircle
10
-4.4860489306585825
20
4.700000000000002
30
0
40
4.5000000000000036
210
0
220
0
230
1
100
AcDbArc
50
180
51
270
0
LINE
5
112
100
AcDbEntity
8
0
100
AcDbLine
10
-8.9860489306585851
20
4.7000000000000002
30
0
11
-8.9860489306585851
21
7.1999999999999984
31
0
0
LINE
5
113
100
AcDbEntity
8
0
100
AcDbLine
10
-8.9860489306585851
20
7.1999999999999984
30
0
11
-11.999999919533728
21
7.1999999999999984
31
0
0
LINE
5
114
100
AcDbEntity
8
0
100
AcDbLine
10
-11.999999919533728
20
7.1999999999999984
30
0
11
-11.999999919533732
21
4.700000000000002
31
0
0
ARC
5
115
100
AcDbEntity
8
0
100
AcDbCircle
10
-16.499999919533732
20
4.7000000000000002
30
0
40
4.4999999999999991
210
0
220
0
230
1
100
AcDbArc
50
-90
51
0
0
LINE
5
116
100
AcDbEntity
8
0
100
AcDbLine
10
-16.499999919533732
20
0.20000000000000129
30
0
11
-21.199999919533727
21
0.20000000000000129
31
0
0
LINE
5
117
100
AcDbEntity
8
0
100
AcDbLine
10
-21.199999919533727
20
0.20000000000000129
30
0
11
-21.200000000000003
21
-52.144996195949425
31
0
0
LINE
5
118
100
AcDbEntity
8
0
100
AcDbLine
10
-21.200000000000003
20
-52.144996195949425
30
0
11
-21
21
-52.144996195949425
31
0
0
LINE
5
119
100
AcDbEntity
8
0
100
AcDbLine
10
-21
20
-52.144996195949425
30
0
11
-21.000000312924385
21
-81.458408630113794
31
0
0
LWPOLYLINE
5
120
100
AcDbEntity
8
0
100
AcDbPolyline
90
8
70
1
43
0.0
10
-3.6352411331168808
20
-2.0044534497184716
42
0.4142135623730952
10
-4.8852411331168781
20
-0.75445344971847406
10
-16.081408681912521
20
-0.75445344971847295
42
0.41421356237309531
10
-17.331408681912521
20
-2.0044534497184685
10
-17.331408681912524
20
-48.934760548286377
42
0.41421356237309276
10
-16.181408681912512
20
-50.084760548286376
10
-4.7852411331168856
20
-50.084760548286376
42
0.41421356237309537
10
-3.6352411331168821
20
-48.934760548286377
0
LWPOLYLINE
5
121
100
AcDbEntity
8
0
100
AcDbPolyline
90
4
70
1
43
0.0
10
-8.9860489306585851
20
4.7000000000000002
10
0.51989412999576756
20
4.6999999999999975
10
0.51989412999574103
20
-3.3000000000000016
10
-8.9860489306585851
20
-3.3000000000000003
0
LWPOLYLINE
5
122
100
AcDbEntity
8
0
100
AcDbPolyline
90
4
70
1
43
0.0
10
-11.999999919533732
20
4.700000000000002
10
-21.199999924914032
20
4.7000000000000046
10
-21.199999924914032
20
-3.2999999999999963
10
-11.999999919533732
20
-3.2999999999999985
0
LWPOLYLINE
5
123
100
AcDbEntity
8
0
100
AcDbPolyline
90
4
70
1
43
0.0
10
0.28766158045981338
20
-45.584760548286376
10
-21.199999989915415
20
-45.584760548286376
10
-21.199999989915415
20
-54.584760548286376
10
0.28766158045981338
20
-54.584760548286376
0
LINE
5
124
100
AcDbEntity
8
0
100
AcDbLine
10
-11.530776406404419
20
-70.496874877920135
30
0
11
-9.4692235935955864
21
-70.496874877920135
31
0
0
LINE
5
125
100
AcDbEntity
8
0
100
AcDbLine
10
-9.4692235935955864
20
-70.496874877920135
30
0
11
-9.4692235935955864
21
-88.45840863011378
31
0
0
LINE
5
126
100
AcDbEntity
8
0
100
AcDbLine
10
0
20
-52.144996195949425
30
0
11
0.20000000000000004
21
-52.144996195949425
31
0
0
LINE
5
127
100
AcDbEntity
8
0
100
AcDbLine
10
0.20000000000000004
20
-52.144996195949425
30
0
11
0.20000000000000004
21
0.19999999999999574
31
0
0
ENDSEC
0
SECTION
2
OBJECTS
0
DICTIONARY
5
C
100
AcDbDictionary
3
ACAD_GROUP
350
D
3
ACAD_MLINESTYLE
350
17
0
DICTIONARY
5
D
100
AcDbDictionary
0
DICTIONARY
5
1A
330
C
100
AcDbDictionary
0
DICTIONARY
5
17
100
AcDbDictionary
0
ENDSEC
0
EOF
