0
SECTION
2
HEADER
9
$INSUNITS
70
4
9
$ACADVER
1
AC1014
9
$HANDSEED
5
FFFF
0
ENDSEC
0
SECTION
2
TABLES
0
TABLE
2
VPORT
5
8
100
AcDbSymbolTable
0
ENDTAB
0
TABLE
2
LTYPE
5
5
100
AcDbSymbolTable
0
LTYPE
5
14
100
AcDbSymbolTableRecord
100
AcDbLinetypeTableRecord
2
BYBLOCK
70
0
0
LTYPE
5
15
100
AcDbSymbolTableRecord
100
AcDbLinetypeTableRecord
2
BYLAYER
70
0
0
LTYPE
5
16
100
AcDbSymbolTableRecord
100
AcDbLinetypeTableRecord
2
DASHED
70
0
3
Dashed __ __ __ __ __ __ __ __ __ __ __ __ __ _
72
65
73
2
40
0.75
49
0.5
74
0
49
-0.25
74
0
0
ENDTAB
0
TABLE
2
LAYER
5
2
100
AcDbSymbolTable
70
2
0
LAYER
5
50
100
AcDbSymbolTableRecord
100
AcDbLayerTableRecord
2
0
70
0
62
7
6
CONTINUOUS
0
ENDTAB
0
TABLE
2
STYLE
5
3
100
AcDbSymbolTable
70
1
0
STYLE
5
11
100
AcDbSymbolTableRecord
100
AcDbTextStyleTableRecord
2
STANDARD
70
0
0
ENDTAB
0
TABLE
2
VIEW
5
6
100
AcDbSymbolTable
70
0
0
ENDTAB
0
TABLE
2
UCS
5
7
100
AcDbSymbolTable
70
0
0
ENDTAB
0
TABLE
2
APPID
5
9
100
AcDbSymbolTable
70
2
0
APPID
5
12
100
AcDbSymbolTableRecord
100
AcDbRegAppTableRecord
2
ACAD
70
0
0
ENDTAB
0
TABLE
2
DIMSTYLE
5
A
100
AcDbSymbolTable
70
1
0
ENDTAB
0
TABLE
2
BLOCK_RECORD
5
1
100
AcDbSymbolTable
70
1
0
BLOCK_RECORD
5
1F
100
AcDbSymbolTableRecord
100
AcDbBlockTableRecord
2
*MODEL_SPACE
0
BLOCK_RECORD
5
1B
100
AcDbSymbolTableRecord
100
AcDbBlockTableRecord
2
*PAPER_SPACE
0
ENDTAB
0
ENDSEC
0
SECTION
2
BLOCKS
0
BLOCK
5
20
100
AcDbEntity
100
AcDbBlockBegin
2
*MODEL_SPACE
0
ENDBLK
5
21
100
AcDbEntity
100
AcDbBlockEnd
0
BLOCK
5
1C
100
AcDbEntity
100
AcDbBlockBegin
2
*PAPER_SPACE
0
ENDBLK
5
1D
100
AcDbEntity
100
AcDbBlockEnd
0
ENDSEC
0
SECTION
2
ENTITIES
0
LWPOLYLINE
5
100
100
AcDbEntity
8
0
100
AcDbPolyline
90
16
70
1
43
0.0
10
-21.000000312924385
20
-81.458408630113794
10
-21
20
-52.144996195949425
10
-21.199999999999996
20
-52.144996195949425
10
-21.199999919533727
20
0.20000000000000462
10
-16.499999919533732
20
0.20000000000000129
42
0.41421356237309503
10
-11.999999919533732
20
4.700000000000002
10
-11.999999919533728
20
7.1999999999999984
10
-11.924182303258309
20
7.1999999999999984
10
-11.92418228829
20
8.5999999999999979
10
-22.399998356472643
20
8.6000000000000014
10
-22.399998356472626
20
-89.258408630113792
10
-12.750001009814278
20
-89.258408630113792
10
-12.750001009814278
20
-88.45840863011378
10
-12.788000312924384
20
-88.45840863011378
10
-12.788000312924384
20
-85.95840863011378
42
0.41421356237309503
10
-17.288000312924382
20
-81.458408630113794
0
CIRCLE
5
101
100
AcDbEntity
8
0
100
AcDbCircle
10
-18.000000000000004
20
3.9999999999999991
30
0
40
1.25
210
0
220
-0
230
1
0
CIRCLE
5
102
100
AcDbEntity
8
0
100
AcDbCircle
10
-18.000000000000004
20
-84.996874877920149
30
0
40
1.25
210
0
220
-0
230
1
0
LWPOLYLINE
5
103
100
AcDbEntity
8
0
100
AcDbPolyline
90
4
70
1
43
0.0
10
-21.000000312924385
20
-81.458408630113794
10
-22.399998356472643
20
-81.458408630113794
10
-22.399998356472643
20
0.2000000000000044
10
-21.000000312924385
20
0.19999999999999549
0
LINE
5
104
100
AcDbEntity
8
0
100
AcDbLine
10
-21.199999919533727
20
0.20000000000000462
30
0
11
-22.399998356472643
21
0.2000000000000044
31
0
0
LINE
5
105
100
AcDbEntity
8
0
100
AcDbLine
10
-21.199999919533727
20
0.20000000000000462
30
0
11
1.7393541825322645
21
0.19999996473695414
31
0
0
LWPOLYLINE
5
106
100
AcDbEntity
8
0
100
AcDbPolyline
90
4
70
1
43
0.0
10
1.7393541825322645
20
0.19999996473695414
10
-1.0000000149011612
20
0.19999996473695414
10
-1.0000000149011612
20
-81.458408834918345
10
1.7393541825322645
20
-81.458408834918345
0
LINE
5
107
100
AcDbEntity
8
0
100
AcDbLine
10
-21.000000312924385
20
-81.458408630113794
30
0
11
5.371319232614038
21
-81.458408900162098
31
0
0
LWPOLYLINE
5
108
100
AcDbEntity
8
0
100
AcDbPolyline
90
4
70
1
43
0.0
10
-12.750001009814278
20
-89.258408630113792
10
-17.288000312924382
20
-89.258408630113792
10
-17.288000312924382
20
-81.458408630113794
10
-12.750001009814278
20
-81.458408630113794
0
ENDSEC
0
SECTION
2
OBJECTS
0
DICTIONARY
5
C
100
AcDbDictionary
3
ACAD_GROUP
350
D
3
ACAD_MLINESTYLE
350
17
0
DICTIONARY
5
D
100
AcDbDictionary
0
DICTIONARY
5
1A
330
C
100
AcDbDictionary
0
DICTIONARY
5
17
100
AcDbDictionary
0
ENDSEC
0
EOF
