0
SECTION
2
HEADER
9
$INSUNITS
70
4
9
$ACADVER
1
AC1014
9
$HANDSEED
5
FFFF
0
ENDSEC
0
SECTION
2
TABLES
0
TABLE
2
VPORT
5
8
100
AcDbSymbolTable
0
ENDTAB
0
TABLE
2
LTYPE
5
5
100
AcDbSymbolTable
0
LTYPE
5
14
100
AcDbSymbolTableRecord
100
AcDbLinetypeTableRecord
2
BYBLOCK
70
0
0
LTYPE
5
15
100
AcDbSymbolTableRecord
100
AcDbLinetypeTableRecord
2
BYLAYER
70
0
0
LTYPE
5
16
100
AcDbSymbolTableRecord
100
AcDbLinetypeTableRecord
2
DASHED
70
0
3
Dashed __ __ __ __ __ __ __ __ __ __ __ __ __ _
72
65
73
2
40
0.75
49
0.5
74
0
49
-0.25
74
0
0
ENDTAB
0
TABLE
2
LAYER
5
2
100
AcDbSymbolTable
70
2
0
LAYER
5
50
100
AcDbSymbolTableRecord
100
AcDbLayerTableRecord
2
0
70
0
62
7
6
CONTINUOUS
0
ENDTAB
0
TABLE
2
STYLE
5
3
100
AcDbSymbolTable
70
1
0
STYLE
5
11
100
AcDbSymbolTableRecord
100
AcDbTextStyleTableRecord
2
STANDARD
70
0
0
ENDTAB
0
TABLE
2
VIEW
5
6
100
AcDbSymbolTable
70
0
0
ENDTAB
0
TABLE
2
UCS
5
7
100
AcDbSymbolTable
70
0
0
ENDTAB
0
TABLE
2
APPID
5
9
100
AcDbSymbolTable
70
2
0
APPID
5
12
100
AcDbSymbolTableRecord
100
AcDbRegAppTableRecord
2
ACAD
70
0
0
ENDTAB
0
TABLE
2
DIMSTYLE
5
A
100
AcDbSymbolTable
70
1
0
ENDTAB
0
TABLE
2
BLOCK_RECORD
5
1
100
AcDbSymbolTable
70
1
0
BLOCK_RECORD
5
1F
100
AcDbSymbolTableRecord
100
AcDbBlockTableRecord
2
*MODEL_SPACE
0
BLOCK_RECORD
5
1B
100
AcDbSymbolTableRecord
100
AcDbBlockTableRecord
2
*PAPER_SPACE
0
ENDTAB
0
ENDSEC
0
SECTION
2
BLOCKS
0
BLOCK
5
20
100
AcDbEntity
100
AcDbBlockBegin
2
*MODEL_SPACE
0
ENDBLK
5
21
100
AcDbEntity
100
AcDbBlockEnd
0
BLOCK
5
1C
100
AcDbEntity
100
AcDbBlockBegin
2
*PAPER_SPACE
0
ENDBLK
5
1D
100
AcDbEntity
100
AcDbBlockEnd
0
ENDSEC
0
SECTION
2
ENTITIES
0
LINE
5
100
100
AcDbEntity
8
0
100
AcDbLine
10
-21.000000026044795
20
-54.584760548286376
30
0
11
4.4408920985006262e-15
21
-54.584760548286376
31
0
0
LINE
5
101
100
AcDbEntity
8
0
100
AcDbLine
10
4.4408920985006262e-15
20
-54.584760548286376
30
0
11
0
21
-52.144996195949425
31
0
0
LINE
5
102
100
AcDbEntity
8
0
100
AcDbLine
10
0.20000000000000004
20
-45.584760548286376
30
0
11
-3.6352411331168821
21
-45.584760548286376
31
0
0
LINE
5
103
100
AcDbEntity
8
0
100
AcDbLine
10
-3.6352411331168821
20
-45.584760548286376
30
0
11
-3.6352411331168808
21
-3.50111184860328
31
0
0
LINE
5
104
100
AcDbEntity
8
0
100
AcDbLine
10
-8.9860489306585851
20
4.7000000000000002
30
0
11
-8.9860489306585851
21
7.1999999999999984
31
0
0
LINE
5
105
100
AcDbEntity
8
0
100
AcDbLine
10
-11.999999919533728
20
7.1999999999999984
30
0
11
-11.999999919533732
21
4.700000000000002
31
0
0
ARC
5
106
100
AcDbEntity
8
0
100
AcDbCircle
10
-16.499999919533732
20
4.700000000000002
30
0
40
4.5000000000000009
210
-0
220
0
230
1
100
AcDbArc
50
-90
51
0
0
LINE
5
107
100
AcDbEntity
8
0
100
AcDbLine
10
-16.499999919533732
20
0.20000000000000129
30
0
11
-21.199999925874131
21
0.20000000000000129
31
0
0
LINE
5
108
100
AcDbEntity
8
0
100
AcDbLine
10
-21.199999925874131
20
0.20000000000000129
30
0
11
-21.199999925096282
21
-3.2999999999999985
31
0
0
LINE
5
109
100
AcDbEntity
8
0
100
AcDbLine
10
-21.199999925096282
20
-3.2999999999999985
30
0
11
-17.331408681912521
21
-3.2999999999999998
31
0
0
LINE
5
110
100
AcDbEntity
8
0
100
AcDbLine
10
-17.331408681912521
20
-3.2999999999999998
30
0
11
-17.331408681912521
21
-3.526405710973652
31
0
0
LINE
5
111
100
AcDbEntity
8
0
100
AcDbLine
10
-17.331408681912524
20
-45.584760548286376
30
0
11
-21.199999992299553
21
-45.584760548286376
31
0
0
CIRCLE
5
112
100
AcDbEntity
8
0
100
AcDbCircle
10
-16.200000000000003
20
-49
30
0
40
0.80000000000000071
210
0
220
-0
230
1
0
CIRCLE
5
113
100
AcDbEntity
8
0
100
AcDbCircle
10
-16.200000000000003
20
-2
30
0
40
0.80000000000000071
210
0
220
-0
230
1
0
CIRCLE
5
114
100
AcDbEntity
8
0
100
AcDbCircle
10
-4.7999999999999998
20
-49
30
0
40
0.80000000000000016
210
0
220
-0
230
1
0
LWPOLYLINE
5
115
100
AcDbEntity
8
0
100
AcDbPolyline
90
4
70
1
43
0.0
10
-5.4999999999999982
20
-54.584760548286376
10
-15.499999999999998
20
-54.584760548286376
10
-15.499999999999993
20
-51.084760548286383
10
-5.4999999999999982
20
-51.084760548286383
0
LINE
5
116
100
AcDbEntity
8
0
100
AcDbLine
10
-10.499999999999998
20
-54.584760548286376
30
0
11
-10.499999999999996
21
-51.084760548286383
31
0
0
ARC
5
117
100
AcDbEntity
8
0
100
AcDbCircle
10
-4.7999999999999998
20
-49
30
0
40
48.254342809740969
210
0
220
0
230
1
100
AcDbArc
50
-259.202371849337
51
98.9204786047748
0
LINE
5
118
100
AcDbEntity
8
0
100
AcDbLine
10
0
20
-52.144996195949425
30
0
11
0.20000000000000004
21
-52.144996195949425
31
0
0
LINE
5
119
100
AcDbEntity
8
0
100
AcDbLine
10
-8.9860489306585851
20
7.1999999999999984
30
0
11
-11.999999919533728
21
7.1999999999999984
31
0
0
LINE
5
120
100
AcDbEntity
8
0
100
AcDbLine
10
-17.331408681912521
20
-3.526405710973652
30
0
11
-17.331408681912524
21
-45.584760548286376
31
0
0
LINE
5
121
100
AcDbEntity
8
0
100
AcDbLine
10
-21.199999992299553
20
-45.584760548286376
30
0
11
-21.199999992299553
21
-52.144996195949425
31
0
0
LINE
5
122
100
AcDbEntity
8
0
100
AcDbLine
10
-21.199999992299553
20
-52.144996195949425
30
0
11
-21
21
-52.144996195949425
31
0
0
LWPOLYLINE
5
123
100
AcDbEntity
8
0
100
AcDbPolyline
90
2
70
1
43
0.0
10
-3.6352411331168804
20
-47.498888151396727
42
0.85879936478795993
10
-6.3599020972104139
20
-50.084760548286376
42
-0.85879936478795993
0
LINE
5
124
100
AcDbEntity
8
0
100
AcDbLine
10
0.20000000000000004
20
-3.3000000000000007
30
0
11
0.20000000000000004
21
0.19999999999999574
31
0
0
LWPOLYLINE
5
125
100
AcDbEntity
8
0
100
AcDbPolyline
90
2
70
1
43
0.0
10
-13.840000000000002
20
-0.75445344971847295
10
-13.840000000000002
20
-1.6000000000000003
0
LINE
5
126
100
AcDbEntity
8
0
100
AcDbLine
10
-21
20
-52.144996195949425
30
0
11
-21.000000026044795
21
-54.584760548286376
31
0
0
LINE
5
127
100
AcDbEntity
8
0
100
AcDbLine
10
-3.6352411331168808
20
-3.50111184860328
30
0
11
-3.6352411331168808
21
-3.3000000000000012
31
0
0
LINE
5
128
100
AcDbEntity
8
0
100
AcDbLine
10
-3.6352411331168808
20
-3.3000000000000012
30
0
11
0.20000000000000004
21
-3.3000000000000007
31
0
0
LINE
5
129
100
AcDbEntity
8
0
100
AcDbLine
10
0.20000000000000004
20
0.19999999999999574
30
0
11
-4.4860489306585833
21
0.19999999999999851
31
0
0
ARC
5
130
100
AcDbEntity
8
0
100
AcDbCircle
10
-4.4860489306585833
20
4.7000000000000002
30
0
40
4.5000000000000018
210
0
220
0
230
1
100
AcDbArc
50
180
51
270
0
LWPOLYLINE
5
131
100
AcDbEntity
8
0
100
AcDbPolyline
90
2
70
1
43
0.0
10
-17.331408681912521
20
-3.526405710973652
42
0.89652562576889727
10
-14.765212980584996
20
-0.75445344971847383
42
-0.89652562576889727
0
LINE
5
132
100
AcDbEntity
8
0
100
AcDbLine
10
0.20000000000000004
20
-52.144996195949425
30
0
11
0.20000000000000004
21
-45.584760548286376
31
0
0
CIRCLE
5
133
100
AcDbEntity
8
0
100
AcDbCircle
10
-4.7999999999999998
20
-2
30
0
40
0.80000000000000016
210
0
220
-0
230
1
0
LWPOLYLINE
5
134
100
AcDbEntity
8
0
100
AcDbPolyline
90
2
70
1
43
0.0
10
-6.2347870194150019
20
-0.75445344971847239
42
0.90650943981843279
10
-3.6352411331168808
20
-3.5011118486032795
42
-0.90650943981843279
0
LWPOLYLINE
5
135
100
AcDbEntity
8
0
100
AcDbPolyline
90
2
70
1
43
0.0
10
-12.24
20
-1.5999999999999992
10
-12.24
20
-0.75445344971847295
0
ARC
5
136
100
AcDbEntity
8
0
100
AcDbCircle
10
-13.040000000000001
20
-1.5999999999999996
30
0
40
0.80000000000000071
210
0
220
0
230
1
100
AcDbArc
50
-180
51
0
0
LWPOLYLINE
5
137
100
AcDbEntity
8
0
100
AcDbPolyline
90
2
70
1
43
0.0
10
-9.7000000000000028
20
-0.75445344971847295
10
-9.7000000000000028
20
-2.2000000000000002
0
LWPOLYLINE
5
138
100
AcDbEntity
8
0
100
AcDbPolyline
90
2
70
1
43
0.0
10
-9.9000000000000004
20
-2.3999999999999986
42
0.41421400000000302
10
-9.6999999999999975
20
-2.2000000000000002
42
-0.41421400000000302
0
LWPOLYLINE
5
139
100
AcDbEntity
8
0
100
AcDbPolyline
90
2
70
1
43
0.0
10
-9.9000000000000004
20
-2.3999999999999986
10
-11.100000000000001
20
-2.3999999999999999
0
LWPOLYLINE
5
140
100
AcDbEntity
8
0
100
AcDbPolyline
90
2
70
1
43
0.0
10
-11.300000000000006
20
-2.2000000000000002
42
0.41421400000000019
10
-11.100000000000001
20
-2.3999999999999977
42
-0.41421400000000019
0
LWPOLYLINE
5
141
100
AcDbEntity
8
0
100
AcDbPolyline
90
2
70
1
43
0.0
10
-11.300000000000006
20
-2.2000000000000002
10
-11.299999999999999
20
-0.75445344971847295
0
LWPOLYLINE
5
142
100
AcDbEntity
8
0
100
AcDbPolyline
90
2
70
1
43
0.0
10
-7.160000000000001
20
-0.75445344971847295
10
-7.160000000000001
20
-1.6000000000000003
0
LWPOLYLINE
5
143
100
AcDbEntity
8
0
100
AcDbPolyline
90
2
70
1
43
0.0
10
-8.7600000000000016
20
-1.6000000000000001
42
0.99999999999999989
10
-7.1600000000000001
20
-1.6000000000000005
42
-0.99999999999999989
0
LWPOLYLINE
5
144
100
AcDbEntity
8
0
100
AcDbPolyline
90
2
70
1
43
0.0
10
-8.7600000000000016
20
-1.6000000000000001
10
-8.7599999999999998
20
-0.75445344971847295
0
LWPOLYLINE
5
145
100
AcDbEntity
8
0
100
AcDbPolyline
90
2
70
1
43
0.0
10
-14.640097902789588
20
-50.084760548286376
42
0.84927462894526395
10
-17.331408681912521
20
-47.473594289026352
42
-0.84927462894526395
0
ENDSEC
0
SECTION
2
OBJECTS
0
DICTIONARY
5
C
100
AcDbDictionary
3
ACAD_GROUP
350
D
3
ACAD_MLINESTYLE
350
17
0
DICTIONARY
5
D
100
AcDbDictionary
0
DICTIONARY
5
1A
330
C
100
AcDbDictionary
0
DICTIONARY
5
17
100
AcDbDictionary
0
ENDSEC
0
EOF
