0
SECTION
2
HEADER
9
$INSUNITS
70
4
9
$ACADVER
1
AC1014
9
$HANDSEED
5
FFFF
0
ENDSEC
0
SECTION
2
TABLES
0
TABLE
2
VPORT
5
8
100
AcDbSymbolTable
0
ENDTAB
0
TABLE
2
LTYPE
5
5
100
AcDbSymbolTable
0
LTYPE
5
14
100
AcDbSymbolTableRecord
100
AcDbLinetypeTableRecord
2
BYBLOCK
70
0
0
LTYPE
5
15
100
AcDbSymbolTableRecord
100
AcDbLinetypeTableRecord
2
BYLAYER
70
0
0
LTYPE
5
16
100
AcDbSymbolTableRecord
100
AcDbLinetypeTableRecord
2
DASHED
70
0
3
Dashed __ __ __ __ __ __ __ __ __ __ __ __ __ _
72
65
73
2
40
0.75
49
0.5
74
0
49
-0.25
74
0
0
ENDTAB
0
TABLE
2
LAYER
5
2
100
AcDbSymbolTable
70
2
0
LAYER
5
50
100
AcDbSymbolTableRecord
100
AcDbLayerTableRecord
2
0
70
0
62
7
6
CONTINUOUS
0
ENDTAB
0
TABLE
2
STYLE
5
3
100
AcDbSymbolTable
70
1
0
STYLE
5
11
100
AcDbSymbolTableRecord
100
AcDbTextStyleTableRecord
2
STANDARD
70
0
0
ENDTAB
0
TABLE
2
VIEW
5
6
100
AcDbSymbolTable
70
0
0
ENDTAB
0
TABLE
2
UCS
5
7
100
AcDbSymbolTable
70
0
0
ENDTAB
0
TABLE
2
APPID
5
9
100
AcDbSymbolTable
70
2
0
APPID
5
12
100
AcDbSymbolTableRecord
100
AcDbRegAppTableRecord
2
ACAD
70
0
0
ENDTAB
0
TABLE
2
DIMSTYLE
5
A
100
AcDbSymbolTable
70
1
0
ENDTAB
0
TABLE
2
BLOCK_RECORD
5
1
100
AcDbSymbolTable
70
1
0
BLOCK_RECORD
5
1F
100
AcDbSymbolTableRecord
100
AcDbBlockTableRecord
2
*MODEL_SPACE
0
BLOCK_RECORD
5
1B
100
AcDbSymbolTableRecord
100
AcDbBlockTableRecord
2
*PAPER_SPACE
0
ENDTAB
0
ENDSEC
0
SECTION
2
BLOCKS
0
BLOCK
5
20
100
AcDbEntity
100
AcDbBlockBegin
2
*MODEL_SPACE
0
ENDBLK
5
21
100
AcDbEntity
100
AcDbBlockEnd
0
BLOCK
5
1C
100
AcDbEntity
100
AcDbBlockBegin
2
*PAPER_SPACE
0
ENDBLK
5
1D
100
AcDbEntity
100
AcDbBlockEnd
0
ENDSEC
0
SECTION
2
ENTITIES
0
LWPOLYLINE
5
100
100
AcDbEntity
8
0
100
AcDbPolyline
90
33
70
1
43
0.0
10
-93.852371224516631
20
15.65231259317359
10
-93.052371224516605
20
15.652312593173592
10
-93.052371224516605
20
19.15231259317359
10
-80.032371224516623
20
19.152312593173626
10
-80.032371224516623
20
15.652312593173626
10
-79.232371224516626
20
15.652312593173628
10
-79.232371224516584
20
-1.967687406826375
10
-81.542371224516586
20
-1.9676874068263797
10
-81.542371224516558
20
-2.2389925841297753
42
0.057689561465844634
10
-2.3100000000001586
20
1.9456158547231817
10
-2.3099999999999992
20
10.039999999999999
10
-6.6477608703168745
20
10.040000000000013
10
-6.6477608703168833
20
7.3999999999999773
10
-10.847760870316883
20
7.3999999999999932
10
-10.847760870316874
20
10.799999999999986
10
-6.8577608703168726
20
10.799999999999976
10
-6.8577608703168655
20
13.149999999999974
10
-11.647760870316874
20
13.149999999999988
10
-11.647760870316848
20
22.149999999999991
10
-6.8577608703168424
20
22.149999999999977
10
-6.8577608703168371
20
24.499999999999979
10
-10.847760870316838
20
24.499999999999989
10
-10.847760870316829
20
27.899999999999977
10
-6.6477608703168301
20
27.899999999999974
10
-6.6477608703168389
20
25.260000000000016
10
-2.3099999999999987
20
25.260000000000002
10
-2.3099999999999943
20
33.627225215991928
42
0.26132272868288775
10
-74.887126192845471
20
32.030562622609601
42
-0.6484000926298743
10
-97.605401226080119
20
23.397737934104601
42
-8.5903485354718754
10
-101.26089618447573
20
30.356600488311418
42
-0.019436887140166097
10
-101.41042176460977
20
31.380165632935988
42
1.2893221082145638
10
-119.45803875435017
20
2.2502349502004648
42
0.018734812150470206
10
-93.85237122451656
20
-1.2472986655426155
0
LWPOLYLINE
5
101
100
AcDbEntity
8
0
100
AcDbPolyline
90
14
70
1
43
0.0
10
-20.047760289171599
20
29.421868535441853
10
-18.147760289171597
20
29.421868535441856
10
-18.147760289171593
20
26.921868535442051
10
-16.701868535442074
20
26.921868535442059
10
-16.701868535441985
20
11.301868535442061
10
-18.147760289171593
20
11.301868535442052
10
-18.147760289171593
20
7.300000000000006
10
-15.247760870316887
20
7.2999999999999972
10
-15.247760870316895
20
4.9999999999999982
10
-19.847760870316897
20
5.0000000000000098
10
-19.84776087031689
20
6.3018685354420434
10
-20.047760289171599
20
6.3018685354420425
10
-54.421868535441966
20
6.301868535441848
10
-54.421868535442087
20
29.421868535441845
0
LWPOLYLINE
5
102
100
AcDbEntity
8
0
100
AcDbPolyline
90
4
70
1
43
0.0
10
-11.647760870316848
20
22.149999999999991
10
-15.947760870316847
20
22.149999999999991
10
-15.947760870316847
20
13.149999999999974
10
-11.647760870316848
20
13.149999999999974
0
ENDSEC
0
SECTION
2
OBJECTS
0
DICTIONARY
5
C
100
AcDbDictionary
3
ACAD_GROUP
350
D
3
ACAD_MLINESTYLE
350
17
0
DICTIONARY
5
D
100
AcDbDictionary
0
DICTIONARY
5
1A
330
C
100
AcDbDictionary
0
DICTIONARY
5
17
100
AcDbDictionary
0
ENDSEC
0
EOF
