0
SECTION
2
HEADER
9
$INSUNITS
70
4
9
$ACADVER
1
AC1014
9
$HANDSEED
5
FFFF
0
ENDSEC
0
SECTION
2
TABLES
0
TABLE
2
VPORT
5
8
100
AcDbSymbolTable
0
ENDTAB
0
TABLE
2
LTYPE
5
5
100
AcDbSymbolTable
0
LTYPE
5
14
100
AcDbSymbolTableRecord
100
AcDbLinetypeTableRecord
2
BYBLOCK
70
0
0
LTYPE
5
15
100
AcDbSymbolTableRecord
100
AcDbLinetypeTableRecord
2
BYLAYER
70
0
0
LTYPE
5
16
100
AcDbSymbolTableRecord
100
AcDbLinetypeTableRecord
2
DASHED
70
0
3
Dashed __ __ __ __ __ __ __ __ __ __ __ __ __ _
72
65
73
2
40
0.75
49
0.5
74
0
49
-0.25
74
0
0
ENDTAB
0
TABLE
2
LAYER
5
2
100
AcDbSymbolTable
70
2
0
LAYER
5
50
100
AcDbSymbolTableRecord
100
AcDbLayerTableRecord
2
0
70
0
62
7
6
CONTINUOUS
0
ENDTAB
0
TABLE
2
STYLE
5
3
100
AcDbSymbolTable
70
1
0
STYLE
5
11
100
AcDbSymbolTableRecord
100
AcDbTextStyleTableRecord
2
STANDARD
70
0
0
ENDTAB
0
TABLE
2
VIEW
5
6
100
AcDbSymbolTable
70
0
0
ENDTAB
0
TABLE
2
UCS
5
7
100
AcDbSymbolTable
70
0
0
ENDTAB
0
TABLE
2
APPID
5
9
100
AcDbSymbolTable
70
2
0
APPID
5
12
100
AcDbSymbolTableRecord
100
AcDbRegAppTableRecord
2
ACAD
70
0
0
ENDTAB
0
TABLE
2
DIMSTYLE
5
A
100
AcDbSymbolTable
70
1
0
ENDTAB
0
TABLE
2
BLOCK_RECORD
5
1
100
AcDbSymbolTable
70
1
0
BLOCK_RECORD
5
1F
100
AcDbSymbolTableRecord
100
AcDbBlockTableRecord
2
*MODEL_SPACE
0
BLOCK_RECORD
5
1B
100
AcDbSymbolTableRecord
100
AcDbBlockTableRecord
2
*PAPER_SPACE
0
ENDTAB
0
ENDSEC
0
SECTION
2
BLOCKS
0
BLOCK
5
20
100
AcDbEntity
100
AcDbBlockBegin
2
*MODEL_SPACE
0
ENDBLK
5
21
100
AcDbEntity
100
AcDbBlockEnd
0
BLOCK
5
1C
100
AcDbEntity
100
AcDbBlockBegin
2
*PAPER_SPACE
0
ENDBLK
5
1D
100
AcDbEntity
100
AcDbBlockEnd
0
ENDSEC
0
SECTION
2
ENTITIES
0
LINE
5
100
100
AcDbEntity
8
0
100
AcDbLine
10
-97.423183664236603
20
15.65231259317358
30
0
11
-93.052371224516591
21
15.652312593173592
31
0
0
LINE
5
101
100
AcDbEntity
8
0
100
AcDbLine
10
-93.052371224516591
20
15.652312593173592
30
0
11
-93.052371224516591
21
19.15231259317359
31
0
0
LINE
5
102
100
AcDbEntity
8
0
100
AcDbLine
10
-93.052371224516591
20
19.15231259317359
30
0
11
-80.032371224516623
21
19.152312593173626
31
0
0
LINE
5
103
100
AcDbEntity
8
0
100
AcDbLine
10
-80.032371224516623
20
19.152312593173626
30
0
11
-80.032371224516623
21
15.652312593173626
31
0
0
LINE
5
104
100
AcDbEntity
8
0
100
AcDbLine
10
-80.032371224516623
20
15.652312593173626
30
0
11
-75.482371224516626
21
15.652312593173633
31
0
0
LINE
5
105
100
AcDbEntity
8
0
100
AcDbLine
10
-75.482371224516626
20
15.652312593173633
30
0
11
-75.482371224516584
21
-2.5646676267204072
31
0
0
ARC
5
106
100
AcDbEntity
8
0
100
AcDbCircle
10
-59.99999999986413
20
342.06721096481061
30
0
40
344.97947121570246
210
0
220
0
230
1
100
AcDbArc
50
267.4277525084525
51
268.05750891676064
0
LINE
5
107
100
AcDbEntity
8
0
100
AcDbLine
10
-71.693552068874624
20
-2.7140188031033974
30
0
11
-71.693552068873728
21
1.2064479317721961
31
0
0
LINE
5
108
100
AcDbEntity
8
0
100
AcDbLine
10
-71.693552068873728
20
1.2064479317721961
30
0
11
-73.293552068873723
21
1.2064479317721961
31
0
0
LINE
5
109
100
AcDbEntity
8
0
100
AcDbLine
10
-73.293552068873723
20
1.2064479317721961
30
0
11
-73.293552068873723
21
3.2064479317721961
31
0
0
LINE
5
110
100
AcDbEntity
8
0
100
AcDbLine
10
-73.293552068873723
20
3.2064479317721961
30
0
11
-71.693552068873728
21
3.2064479317721961
31
0
0
LINE
5
111
100
AcDbEntity
8
0
100
AcDbLine
10
-71.693552068873728
20
3.2064479317721961
30
0
11
-71.693552068873728
21
10.706447931772196
31
0
0
LINE
5
112
100
AcDbEntity
8
0
100
AcDbLine
10
-71.693552068873728
20
10.706447931772196
30
0
11
-65.09355206887372
21
10.706447931772196
31
0
0
LINE
5
113
100
AcDbEntity
8
0
100
AcDbLine
10
-65.09355206887372
20
10.706447931772196
30
0
11
-65.09355206887372
21
3.2064479317721939
31
0
0
LINE
5
114
100
AcDbEntity
8
0
100
AcDbLine
10
-65.09355206887372
20
3.2064479317721939
30
0
11
-63.493552068873726
21
3.2064479317721939
31
0
0
LINE
5
115
100
AcDbEntity
8
0
100
AcDbLine
10
-63.493552068873726
20
3.2064479317721939
30
0
11
-63.493552068873726
21
1.2064479317721939
31
0
0
LINE
5
116
100
AcDbEntity
8
0
100
AcDbLine
10
-63.493552068873726
20
1.2064479317721939
30
0
11
-65.09355206887372
21
1.2064479317721939
31
0
0
LINE
5
117
100
AcDbEntity
8
0
100
AcDbLine
10
-65.09355206887372
20
1.2064479317721939
30
0
11
-65.09355206887372
21
-2.8746555686464603
31
0
0
ARC
5
118
100
AcDbEntity
8
0
100
AcDbCircle
10
-59.999999999999773
20
342.0672109613372
30
0
40
344.97947121222649
210
0
220
0
230
1
100
AcDbArc
50
269.15400867263253
51
279.62664980919868
0
LINE
5
119
100
AcDbEntity
8
0
100
AcDbLine
10
-2.3099999999998566
20
1.9456158547232132
30
0
11
-2.3099999999999992
21
10.039999999999999
31
0
0
LINE
5
120
100
AcDbEntity
8
0
100
AcDbLine
10
-2.3099999999999992
20
10.039999999999999
30
0
11
-5.6838040318134153
21
10.04000000000001
31
0
0
LINE
5
121
100
AcDbEntity
8
0
100
AcDbLine
10
-5.6838040318134153
20
10.04000000000001
30
0
11
-5.6838040318134144
21
6.6257943531192183
31
0
0
LINE
5
122
100
AcDbEntity
8
0
100
AcDbLine
10
-5.6838040318134144
20
6.6257943531192183
30
0
11
-11.52038777438781
21
6.6257943531192183
31
0
0
LINE
5
123
100
AcDbEntity
8
0
100
AcDbLine
10
-11.52038777438781
20
6.6257943531192183
30
0
11
-11.52038777438781
21
11.450070888309405
31
0
0
LINE
5
124
100
AcDbEntity
8
0
100
AcDbLine
10
-11.52038777438781
20
11.450070888309405
30
0
11
-6.85776087031687
21
11.450070888309405
31
0
0
LINE
5
125
100
AcDbEntity
8
0
100
AcDbLine
10
-6.85776087031687
20
11.450070888309405
30
0
11
-6.8577608703168664
21
12.949999999999964
31
0
0
LINE
5
126
100
AcDbEntity
8
0
100
AcDbLine
10
-6.8577608703168664
20
12.949999999999964
30
0
11
-15.947760870316847
21
12.949999999999985
31
0
0
LINE
5
127
100
AcDbEntity
8
0
100
AcDbLine
10
-15.947760870316847
20
12.949999999999985
30
0
11
-15.947760870316824
21
22.299999999999986
31
0
0
LINE
5
128
100
AcDbEntity
8
0
100
AcDbLine
10
-15.947760870316824
20
22.299999999999986
30
0
11
-6.8577608703168424
21
22.299999999999965
31
0
0
LINE
5
129
100
AcDbEntity
8
0
100
AcDbLine
10
-6.8577608703168424
20
22.299999999999965
30
0
11
-6.8577608703168389
21
23.676843877496449
31
0
0
LINE
5
130
100
AcDbEntity
8
0
100
AcDbLine
10
-6.8577608703168389
20
23.676843877496449
30
0
11
-11.52038777438781
21
23.676843877496449
31
0
0
LINE
5
131
100
AcDbEntity
8
0
100
AcDbLine
10
-11.52038777438781
20
23.676843877496449
30
0
11
-11.52038777438781
21
28.785831814763434
31
0
0
LINE
5
132
100
AcDbEntity
8
0
100
AcDbLine
10
-11.52038777438781
20
28.785831814763434
30
0
11
-5.8419770329671925
21
28.785831814763434
31
0
0
LINE
5
133
100
AcDbEntity
8
0
100
AcDbLine
10
-5.8419770329671925
20
28.785831814763434
30
0
11
-5.8419770329671916
21
25.260000000000012
31
0
0
LINE
5
134
100
AcDbEntity
8
0
100
AcDbLine
10
-5.8419770329671916
20
25.260000000000012
30
0
11
-2.3099999999999987
21
25.260000000000002
31
0
0
ARC
5
135
100
AcDbEntity
8
0
100
AcDbCircle
10
-37.175392596389962
20
-31.862059199358683
30
0
40
74.191926610212036
210
0
220
-0
230
1
100
AcDbArc
50
61.969914304360721
51
120.55063944365648
0
ARC
5
136
100
AcDbEntity
8
0
100
AcDbCircle
10
-88.175392596398638
20
32.790875708252962
30
0
40
13.309999999999997
210
0
220
0
230
1
100
AcDbArc
50
224.88776893820591
51
356.72528495282415
0
ARC
5
137
100
AcDbEntity
8
0
100
AcDbCircle
10
-114.17539259639818
20
19.133059049576467
30
0
40
17.110000000016235
210
-0
220
0
230
1
100
AcDbArc
50
-11.737810487224719
51
14.433174864193425
0
LWPOLYLINE
5
138
100
AcDbEntity
8
0
100
AcDbPolyline
90
13
70
1
43
0.0
10
-18.1477602891716
20
7.8090480780882965
10
-14.733562785250012
20
7.8090480780882965
10
-14.733562785250012
20
4.5718113301036061
10
-20.42557621417096
20
4.5718113301036061
10
-20.42557621417096
20
6.3018685354420398
10
-54.421868535441966
20
6.301868535441848
10
-54.421868535442087
20
29.421868535441845
10
-20.047760289171599
20
29.421868535441853
10
-18.147760289171597
20
29.421868535441853
10
-18.147760289171593
20
26.921868535442051
10
-16.701868535442081
20
26.921868535442059
10
-16.701868535441985
20
11.301868535442061
10
-18.147760289171593
20
11.301868535442052
0
LWPOLYLINE
5
139
100
AcDbEntity
8
0
100
AcDbPolyline
90
4
70
1
43
0.0
10
-2.3099999999999081
20
4.8704550949694196
10
-5.809999999999941
20
4.8704550949693584
10
-5.8099999999998664
20
0.99999997764825821
10
-2.3099999999998566
20
1.9456158547232132
0
LWPOLYLINE
5
140
100
AcDbEntity
8
0
100
AcDbPolyline
90
4
70
1
43
0.0
10
-2.3099999999999987
20
30.127225215991928
10
-5.8099999999999996
20
30.127225215991928
10
-5.8100000000000023
20
35.786047075260626
10
-2.3099999999999961
20
34.39504781977292
0
ENDSEC
0
SECTION
2
OBJECTS
0
DICTIONARY
5
C
100
AcDbDictionary
3
ACAD_GROUP
350
D
3
ACAD_MLINESTYLE
350
17
0
DICTIONARY
5
D
100
AcDbDictionary
0
DICTIONARY
5
1A
330
C
100
AcDbDictionary
0
DICTIONARY
5
17
100
AcDbDictionary
0
ENDSEC
0
EOF
